<svg xmlns="http://www.w3.org/2000/svg" width="1080" height="560" viewBox="0 0 1080 560">
<rect width="100%" height="100%" fill="#ffffff"/>
<text x="72" y="23" fill="#111827" font-size="21" font-weight="800">DRAM 小时线K线支撑压力图</text>
<text x="862" y="42" fill="#374151" font-size="15" text-anchor="end">最新价 71.58</text>
<line x1="72" y1="34" x2="72" y2="340" stroke="#d1d5db"/>
<line x1="72" y1="340" x2="862" y2="340" stroke="#d1d5db"/>
<line x1="72" y1="340.0" x2="862" y2="340.0" stroke="#f3f4f6"/>
<text x="8" y="345.0" fill="#4b5563" font-size="14">68.92</text>
<line x1="72" y1="263.5" x2="862" y2="263.5" stroke="#f3f4f6"/>
<text x="8" y="268.5" fill="#4b5563" font-size="14">71.30</text>
<line x1="72" y1="187.0" x2="862" y2="187.0" stroke="#f3f4f6"/>
<text x="8" y="192.0" fill="#4b5563" font-size="14">73.68</text>
<line x1="72" y1="110.5" x2="862" y2="110.5" stroke="#f3f4f6"/>
<text x="8" y="115.5" fill="#4b5563" font-size="14">76.06</text>
<line x1="72" y1="34.0" x2="862" y2="34.0" stroke="#f3f4f6"/>
<text x="8" y="39.0" fill="#4b5563" font-size="14">78.45</text>
<line x1="72.0" y1="96.8" x2="72.0" y2="189.3" stroke="#16a34a" stroke-width="1"/><rect x="69.3" y="108.1" width="5.4" height="81.2" fill="#16a34a" opacity="0.82" rx="1"/>
<line x1="80.9" y1="85.3" x2="80.9" y2="144.7" stroke="#16a34a" stroke-width="1"/><rect x="78.2" y="104.6" width="5.4" height="3.5" fill="#16a34a" opacity="0.82" rx="1"/>
<line x1="89.8" y1="60.2" x2="89.8" y2="107.1" stroke="#16a34a" stroke-width="1"/><rect x="87.0" y="79.5" width="5.4" height="25.0" fill="#16a34a" opacity="0.82" rx="1"/>
<line x1="98.6" y1="55.1" x2="98.6" y2="86.9" stroke="#16a34a" stroke-width="1"/><rect x="95.9" y="56.7" width="5.4" height="22.8" fill="#16a34a" opacity="0.82" rx="1"/>
<line x1="107.5" y1="55.4" x2="107.5" y2="91.4" stroke="#dc2626" stroke-width="1"/><rect x="104.8" y="57.0" width="5.4" height="14.8" fill="#dc2626" opacity="0.82" rx="1"/>
<line x1="116.4" y1="70.8" x2="116.4" y2="110.7" stroke="#dc2626" stroke-width="1"/><rect x="113.7" y="71.2" width="5.4" height="1.9" fill="#dc2626" opacity="0.82" rx="1"/>
<line x1="125.3" y1="56.7" x2="125.3" y2="91.7" stroke="#dc2626" stroke-width="1"/><rect x="122.5" y="73.7" width="5.4" height="4.8" fill="#dc2626" opacity="0.82" rx="1"/>
<line x1="134.1" y1="73.1" x2="134.1" y2="95.9" stroke="#dc2626" stroke-width="1"/><rect x="131.4" y="78.5" width="5.4" height="14.4" fill="#dc2626" opacity="0.82" rx="1"/>
<line x1="143.0" y1="91.1" x2="143.0" y2="127.7" stroke="#dc2626" stroke-width="1"/><rect x="140.3" y="92.3" width="5.4" height="11.6" fill="#dc2626" opacity="0.82" rx="1"/>
<line x1="151.9" y1="72.1" x2="151.9" y2="110.0" stroke="#16a34a" stroke-width="1"/><rect x="149.2" y="95.9" width="5.4" height="8.0" fill="#16a34a" opacity="0.82" rx="1"/>
<line x1="160.8" y1="85.0" x2="160.8" y2="171.0" stroke="#dc2626" stroke-width="1"/><rect x="158.0" y="95.6" width="5.4" height="50.7" fill="#dc2626" opacity="0.82" rx="1"/>
<line x1="169.6" y1="127.7" x2="169.6" y2="178.7" stroke="#dc2626" stroke-width="1"/><rect x="166.9" y="146.3" width="5.4" height="26.6" fill="#dc2626" opacity="0.82" rx="1"/>
<line x1="178.5" y1="168.8" x2="178.5" y2="254.2" stroke="#dc2626" stroke-width="1"/><rect x="175.8" y="172.6" width="5.4" height="61.0" fill="#dc2626" opacity="0.82" rx="1"/>
<line x1="187.4" y1="212.4" x2="187.4" y2="273.1" stroke="#16a34a" stroke-width="1"/><rect x="184.7" y="214.4" width="5.4" height="19.6" fill="#16a34a" opacity="0.82" rx="1"/>
<line x1="196.3" y1="203.1" x2="196.3" y2="262.5" stroke="#dc2626" stroke-width="1"/><rect x="193.5" y="213.4" width="5.4" height="35.0" fill="#dc2626" opacity="0.82" rx="1"/>
<line x1="205.1" y1="177.4" x2="205.1" y2="250.3" stroke="#16a34a" stroke-width="1"/><rect x="202.4" y="228.2" width="5.4" height="20.2" fill="#16a34a" opacity="0.82" rx="1"/>
<line x1="214.0" y1="166.2" x2="214.0" y2="242.9" stroke="#16a34a" stroke-width="1"/><rect x="211.3" y="176.2" width="5.4" height="52.0" fill="#16a34a" opacity="0.82" rx="1"/>
<line x1="222.9" y1="156.9" x2="222.9" y2="183.5" stroke="#16a34a" stroke-width="1"/><rect x="220.2" y="168.1" width="5.4" height="7.7" fill="#16a34a" opacity="0.82" rx="1"/>
<line x1="231.8" y1="165.9" x2="231.8" y2="214.7" stroke="#dc2626" stroke-width="1"/><rect x="229.1" y="167.2" width="5.4" height="30.5" fill="#dc2626" opacity="0.82" rx="1"/>
<line x1="240.7" y1="193.2" x2="240.7" y2="216.3" stroke="#dc2626" stroke-width="1"/><rect x="237.9" y="197.7" width="5.4" height="12.5" fill="#dc2626" opacity="0.82" rx="1"/>
<line x1="249.5" y1="203.8" x2="249.5" y2="224.0" stroke="#dc2626" stroke-width="1"/><rect x="246.8" y="210.5" width="5.4" height="1.2" fill="#dc2626" opacity="0.82" rx="1"/>
<line x1="258.4" y1="187.4" x2="258.4" y2="219.2" stroke="#16a34a" stroke-width="1"/><rect x="255.7" y="207.9" width="5.4" height="2.9" fill="#16a34a" opacity="0.82" rx="1"/>
<line x1="267.3" y1="197.7" x2="267.3" y2="237.5" stroke="#dc2626" stroke-width="1"/><rect x="264.6" y="207.6" width="5.4" height="25.7" fill="#dc2626" opacity="0.82" rx="1"/>
<line x1="276.2" y1="190.6" x2="276.2" y2="268.3" stroke="#16a34a" stroke-width="1"/><rect x="273.4" y="195.1" width="5.4" height="37.9" fill="#16a34a" opacity="0.82" rx="1"/>
<line x1="285.0" y1="149.5" x2="285.0" y2="208.9" stroke="#dc2626" stroke-width="1"/><rect x="282.3" y="194.8" width="5.4" height="4.2" fill="#dc2626" opacity="0.82" rx="1"/>
<line x1="293.9" y1="167.5" x2="293.9" y2="220.5" stroke="#16a34a" stroke-width="1"/><rect x="291.2" y="190.0" width="5.4" height="8.3" fill="#16a34a" opacity="0.82" rx="1"/>
<line x1="302.8" y1="162.0" x2="302.8" y2="195.7" stroke="#16a34a" stroke-width="1"/><rect x="300.1" y="170.7" width="5.4" height="19.3" fill="#16a34a" opacity="0.82" rx="1"/>
<line x1="311.7" y1="156.9" x2="311.7" y2="187.1" stroke="#dc2626" stroke-width="1"/><rect x="308.9" y="170.4" width="5.4" height="12.2" fill="#dc2626" opacity="0.82" rx="1"/>
<line x1="320.5" y1="180.6" x2="320.5" y2="222.1" stroke="#dc2626" stroke-width="1"/><rect x="317.8" y="182.6" width="5.4" height="35.0" fill="#dc2626" opacity="0.82" rx="1"/>
<line x1="329.4" y1="199.6" x2="329.4" y2="243.6" stroke="#dc2626" stroke-width="1"/><rect x="326.7" y="217.6" width="5.4" height="24.4" fill="#dc2626" opacity="0.82" rx="1"/>
<line x1="338.3" y1="226.2" x2="338.3" y2="249.7" stroke="#16a34a" stroke-width="1"/><rect x="335.6" y="236.2" width="5.4" height="6.1" fill="#16a34a" opacity="0.82" rx="1"/>
<line x1="347.2" y1="228.8" x2="347.2" y2="252.6" stroke="#16a34a" stroke-width="1"/><rect x="344.4" y="235.2" width="5.4" height="1.3" fill="#16a34a" opacity="0.82" rx="1"/>
<line x1="356.0" y1="230.7" x2="356.0" y2="247.1" stroke="#dc2626" stroke-width="1"/><rect x="353.3" y="235.2" width="5.4" height="1.3" fill="#dc2626" opacity="0.82" rx="1"/>
<line x1="364.9" y1="213.4" x2="364.9" y2="236.8" stroke="#16a34a" stroke-width="1"/><rect x="362.2" y="230.7" width="5.4" height="5.5" fill="#16a34a" opacity="0.82" rx="1"/>
<line x1="373.8" y1="222.7" x2="373.8" y2="240.0" stroke="#dc2626" stroke-width="1"/><rect x="371.1" y="230.4" width="5.4" height="1.3" fill="#dc2626" opacity="0.82" rx="1"/>
<line x1="382.7" y1="217.3" x2="382.7" y2="236.5" stroke="#16a34a" stroke-width="1"/><rect x="380.0" y="226.9" width="5.4" height="4.8" fill="#16a34a" opacity="0.82" rx="1"/>
<line x1="391.6" y1="202.5" x2="391.6" y2="237.2" stroke="#dc2626" stroke-width="1"/><rect x="388.8" y="226.9" width="5.4" height="9.0" fill="#dc2626" opacity="0.82" rx="1"/>
<line x1="400.4" y1="209.9" x2="400.4" y2="237.5" stroke="#16a34a" stroke-width="1"/><rect x="397.7" y="224.6" width="5.4" height="11.2" fill="#16a34a" opacity="0.82" rx="1"/>
<line x1="409.3" y1="212.1" x2="409.3" y2="225.6" stroke="#16a34a" stroke-width="1"/><rect x="406.6" y="223.4" width="5.4" height="1.2" fill="#16a34a" opacity="0.82" rx="1"/>
<line x1="418.2" y1="214.4" x2="418.2" y2="225.6" stroke="#16a34a" stroke-width="1"/><rect x="415.5" y="222.4" width="5.4" height="1.2" fill="#16a34a" opacity="0.82" rx="1"/>
<line x1="427.1" y1="212.4" x2="427.1" y2="227.8" stroke="#16a34a" stroke-width="1"/><rect x="424.3" y="217.6" width="5.4" height="4.8" fill="#16a34a" opacity="0.82" rx="1"/>
<line x1="435.9" y1="214.4" x2="435.9" y2="225.0" stroke="#16a34a" stroke-width="1"/><rect x="433.2" y="216.3" width="5.4" height="1.6" fill="#16a34a" opacity="0.82" rx="1"/>
<line x1="444.8" y1="215.3" x2="444.8" y2="234.6" stroke="#dc2626" stroke-width="1"/><rect x="442.1" y="216.0" width="5.4" height="14.1" fill="#dc2626" opacity="0.82" rx="1"/>
<line x1="453.7" y1="223.4" x2="453.7" y2="234.3" stroke="#16a34a" stroke-width="1"/><rect x="451.0" y="226.2" width="5.4" height="4.2" fill="#16a34a" opacity="0.82" rx="1"/>
<line x1="462.6" y1="220.1" x2="462.6" y2="226.9" stroke="#16a34a" stroke-width="1"/><rect x="459.8" y="222.1" width="5.4" height="4.2" fill="#16a34a" opacity="0.82" rx="1"/>
<line x1="471.4" y1="221.1" x2="471.4" y2="228.8" stroke="#dc2626" stroke-width="1"/><rect x="468.7" y="222.1" width="5.4" height="5.8" fill="#dc2626" opacity="0.82" rx="1"/>
<line x1="480.3" y1="221.1" x2="480.3" y2="230.4" stroke="#16a34a" stroke-width="1"/><rect x="477.6" y="221.7" width="5.4" height="5.5" fill="#16a34a" opacity="0.82" rx="1"/>
<line x1="489.2" y1="209.9" x2="489.2" y2="225.0" stroke="#16a34a" stroke-width="1"/><rect x="486.5" y="211.5" width="5.4" height="10.3" fill="#16a34a" opacity="0.82" rx="1"/>
<line x1="498.1" y1="210.2" x2="498.1" y2="228.2" stroke="#dc2626" stroke-width="1"/><rect x="495.3" y="211.2" width="5.4" height="13.2" fill="#dc2626" opacity="0.82" rx="1"/>
<line x1="506.9" y1="216.3" x2="506.9" y2="226.6" stroke="#16a34a" stroke-width="1"/><rect x="504.2" y="221.4" width="5.4" height="3.2" fill="#16a34a" opacity="0.82" rx="1"/>
<line x1="515.8" y1="221.1" x2="515.8" y2="232.0" stroke="#dc2626" stroke-width="1"/><rect x="513.1" y="221.4" width="5.4" height="6.1" fill="#dc2626" opacity="0.82" rx="1"/>
<line x1="524.7" y1="226.2" x2="524.7" y2="235.9" stroke="#dc2626" stroke-width="1"/><rect x="522.0" y="227.2" width="5.4" height="5.8" fill="#dc2626" opacity="0.82" rx="1"/>
<line x1="533.6" y1="223.7" x2="533.6" y2="233.0" stroke="#16a34a" stroke-width="1"/><rect x="530.9" y="224.6" width="5.4" height="8.3" fill="#16a34a" opacity="0.82" rx="1"/>
<line x1="542.4" y1="218.2" x2="542.4" y2="233.6" stroke="#dc2626" stroke-width="1"/><rect x="539.7" y="224.3" width="5.4" height="7.7" fill="#dc2626" opacity="0.82" rx="1"/>
<line x1="551.3" y1="217.9" x2="551.3" y2="232.0" stroke="#16a34a" stroke-width="1"/><rect x="548.6" y="223.7" width="5.4" height="8.3" fill="#16a34a" opacity="0.82" rx="1"/>
<line x1="560.2" y1="214.4" x2="560.2" y2="225.6" stroke="#dc2626" stroke-width="1"/><rect x="557.5" y="223.7" width="5.4" height="1.2" fill="#dc2626" opacity="0.82" rx="1"/>
<line x1="569.1" y1="222.7" x2="569.1" y2="236.2" stroke="#dc2626" stroke-width="1"/><rect x="566.4" y="225.0" width="5.4" height="7.7" fill="#dc2626" opacity="0.82" rx="1"/>
<line x1="578.0" y1="224.3" x2="578.0" y2="235.9" stroke="#16a34a" stroke-width="1"/><rect x="575.2" y="232.7" width="5.4" height="1.2" fill="#16a34a" opacity="0.82" rx="1"/>
<line x1="586.8" y1="223.0" x2="586.8" y2="249.7" stroke="#dc2626" stroke-width="1"/><rect x="584.1" y="232.7" width="5.4" height="16.7" fill="#dc2626" opacity="0.82" rx="1"/>
<line x1="595.7" y1="235.2" x2="595.7" y2="253.2" stroke="#16a34a" stroke-width="1"/><rect x="593.0" y="236.2" width="5.4" height="13.8" fill="#16a34a" opacity="0.82" rx="1"/>
<line x1="604.6" y1="229.8" x2="604.6" y2="251.9" stroke="#16a34a" stroke-width="1"/><rect x="601.9" y="234.6" width="5.4" height="1.6" fill="#16a34a" opacity="0.82" rx="1"/>
<line x1="613.5" y1="226.6" x2="613.5" y2="237.5" stroke="#16a34a" stroke-width="1"/><rect x="610.7" y="234.6" width="5.4" height="1.2" fill="#16a34a" opacity="0.82" rx="1"/>
<line x1="622.3" y1="225.3" x2="622.3" y2="237.5" stroke="#16a34a" stroke-width="1"/><rect x="619.6" y="227.2" width="5.4" height="7.7" fill="#16a34a" opacity="0.82" rx="1"/>
<line x1="631.2" y1="225.9" x2="631.2" y2="242.9" stroke="#dc2626" stroke-width="1"/><rect x="628.5" y="226.6" width="5.4" height="7.4" fill="#dc2626" opacity="0.82" rx="1"/>
<line x1="640.1" y1="228.5" x2="640.1" y2="238.4" stroke="#16a34a" stroke-width="1"/><rect x="637.4" y="231.4" width="5.4" height="2.2" fill="#16a34a" opacity="0.82" rx="1"/>
<line x1="649.0" y1="205.4" x2="649.0" y2="232.7" stroke="#16a34a" stroke-width="1"/><rect x="646.2" y="213.1" width="5.4" height="18.3" fill="#16a34a" opacity="0.82" rx="1"/>
<line x1="657.8" y1="194.8" x2="657.8" y2="213.7" stroke="#16a34a" stroke-width="1"/><rect x="655.1" y="199.3" width="5.4" height="13.8" fill="#16a34a" opacity="0.82" rx="1"/>
<line x1="666.7" y1="186.7" x2="666.7" y2="207.6" stroke="#dc2626" stroke-width="1"/><rect x="664.0" y="199.6" width="5.4" height="4.2" fill="#dc2626" opacity="0.82" rx="1"/>
<line x1="675.6" y1="198.6" x2="675.6" y2="210.5" stroke="#16a34a" stroke-width="1"/><rect x="672.9" y="203.4" width="5.4" height="1.2" fill="#16a34a" opacity="0.82" rx="1"/>
<line x1="684.5" y1="181.6" x2="684.5" y2="203.8" stroke="#16a34a" stroke-width="1"/><rect x="681.8" y="193.2" width="5.4" height="10.6" fill="#16a34a" opacity="0.82" rx="1"/>
<line x1="693.3" y1="189.0" x2="693.3" y2="198.6" stroke="#dc2626" stroke-width="1"/><rect x="690.6" y="193.2" width="5.4" height="1.3" fill="#dc2626" opacity="0.82" rx="1"/>
<line x1="702.2" y1="177.8" x2="702.2" y2="200.6" stroke="#16a34a" stroke-width="1"/><rect x="699.5" y="185.5" width="5.4" height="9.3" fill="#16a34a" opacity="0.82" rx="1"/>
<line x1="711.1" y1="173.9" x2="711.1" y2="187.7" stroke="#dc2626" stroke-width="1"/><rect x="708.4" y="185.5" width="5.4" height="1.2" fill="#dc2626" opacity="0.82" rx="1"/>
<line x1="720.0" y1="179.4" x2="720.0" y2="188.7" stroke="#16a34a" stroke-width="1"/><rect x="717.3" y="183.2" width="5.4" height="3.2" fill="#16a34a" opacity="0.82" rx="1"/>
<line x1="728.9" y1="172.0" x2="728.9" y2="190.9" stroke="#16a34a" stroke-width="1"/><rect x="726.1" y="173.9" width="5.4" height="9.3" fill="#16a34a" opacity="0.82" rx="1"/>
<line x1="737.7" y1="172.0" x2="737.7" y2="185.8" stroke="#dc2626" stroke-width="1"/><rect x="735.0" y="173.6" width="5.4" height="4.5" fill="#dc2626" opacity="0.82" rx="1"/>
<line x1="746.6" y1="174.5" x2="746.6" y2="179.0" stroke="#16a34a" stroke-width="1"/><rect x="743.9" y="177.8" width="5.4" height="1.2" fill="#16a34a" opacity="0.82" rx="1"/>
<line x1="755.5" y1="173.9" x2="755.5" y2="189.0" stroke="#dc2626" stroke-width="1"/><rect x="752.8" y="177.4" width="5.4" height="7.7" fill="#dc2626" opacity="0.82" rx="1"/>
<line x1="764.4" y1="162.3" x2="764.4" y2="186.1" stroke="#16a34a" stroke-width="1"/><rect x="761.6" y="168.1" width="5.4" height="16.7" fill="#16a34a" opacity="0.82" rx="1"/>
<line x1="773.2" y1="165.9" x2="773.2" y2="200.9" stroke="#dc2626" stroke-width="1"/><rect x="770.5" y="168.1" width="5.4" height="29.5" fill="#dc2626" opacity="0.82" rx="1"/>
<line x1="782.1" y1="135.7" x2="782.1" y2="199.9" stroke="#16a34a" stroke-width="1"/><rect x="779.4" y="159.8" width="5.4" height="37.9" fill="#16a34a" opacity="0.82" rx="1"/>
<line x1="791.0" y1="159.5" x2="791.0" y2="218.9" stroke="#dc2626" stroke-width="1"/><rect x="788.3" y="159.8" width="5.4" height="58.1" fill="#dc2626" opacity="0.82" rx="1"/>
<line x1="799.9" y1="198.0" x2="799.9" y2="311.6" stroke="#dc2626" stroke-width="1"/><rect x="797.1" y="217.6" width="5.4" height="48.2" fill="#dc2626" opacity="0.82" rx="1"/>
<line x1="808.7" y1="249.4" x2="808.7" y2="304.3" stroke="#dc2626" stroke-width="1"/><rect x="806.0" y="266.1" width="5.4" height="10.3" fill="#dc2626" opacity="0.82" rx="1"/>
<line x1="817.6" y1="272.2" x2="817.6" y2="299.8" stroke="#dc2626" stroke-width="1"/><rect x="814.9" y="276.3" width="5.4" height="10.3" fill="#dc2626" opacity="0.82" rx="1"/>
<line x1="826.5" y1="273.1" x2="826.5" y2="306.2" stroke="#16a34a" stroke-width="1"/><rect x="823.8" y="279.9" width="5.4" height="6.4" fill="#16a34a" opacity="0.82" rx="1"/>
<line x1="835.4" y1="278.3" x2="835.4" y2="315.5" stroke="#dc2626" stroke-width="1"/><rect x="832.6" y="280.2" width="5.4" height="30.8" fill="#dc2626" opacity="0.82" rx="1"/>
<line x1="844.2" y1="225.0" x2="844.2" y2="317.1" stroke="#16a34a" stroke-width="1"/><rect x="841.5" y="228.5" width="5.4" height="82.2" fill="#16a34a" opacity="0.82" rx="1"/>
<line x1="853.1" y1="227.8" x2="853.1" y2="258.3" stroke="#dc2626" stroke-width="1"/><rect x="850.4" y="228.5" width="5.4" height="23.4" fill="#dc2626" opacity="0.82" rx="1"/>
<line x1="862.0" y1="251.6" x2="862.0" y2="261.6" stroke="#dc2626" stroke-width="1"/><rect x="859.3" y="251.6" width="5.4" height="2.9" fill="#dc2626" opacity="0.82" rx="1"/>
<line x1="72" y1="318.9" x2="862" y2="318.9" stroke="#16a34a" stroke-width="1.8" stroke-dasharray="6 4" /><rect x="874" y="298.9" width="166" height="23" rx="5" fill="#ffffff" stroke="#16a34a" opacity="0.97"/><text x="881" y="314.9" fill="#16a34a" font-size="15" font-weight="700">日内支撑 69.57</text>
<line x1="72" y1="147.2" x2="862" y2="147.2" stroke="#dc2626" stroke-width="1.8" stroke-dasharray="6 4" /><rect x="874" y="127.2" width="166" height="23" rx="5" fill="#ffffff" stroke="#dc2626" opacity="0.97"/><text x="881" y="143.2" fill="#dc2626" font-size="15" font-weight="700">日内压力 74.92</text>
<line x1="72" y1="254.5" x2="862" y2="254.5" stroke="#111827" stroke-width="1.8" stroke-dasharray="2 2" /><rect x="874" y="234.5" width="166" height="23" rx="5" fill="#ffffff" stroke="#111827" opacity="0.97"/><text x="881" y="250.5" fill="#111827" font-size="15" font-weight="700">现价 71.58</text>
<text x="72" y="396" fill="#16a34a" font-size="14" font-weight="700">日内做多计划</text><rect x="72" y="404" width="790" height="48" rx="6" fill="#f9fafb" stroke="#e5e7eb"/><line x1="94" y1="412" x2="840" y2="412" stroke="#16a34a" stroke-width="3"/><circle cx="132.0" cy="412" r="5" fill="#16a34a"/><text x="132.0" y="434" fill="#374151" font-size="12" text-anchor="middle">入场 止跌/突破回踩</text><circle cx="451.2" cy="412" r="5" fill="#16a34a"/><text x="451.2" y="434" fill="#374151" font-size="12" text-anchor="middle">止损 69.57</text><circle cx="712.0" cy="412" r="5" fill="#16a34a"/><text x="712.0" y="434" fill="#374151" font-size="12" text-anchor="middle">目标一 74.92</text><circle cx="814.0" cy="412" r="5" fill="#16a34a"/><text x="814.0" y="434" fill="#374151" font-size="12" text-anchor="middle">目标二 76.26</text>
<text x="72" y="482" fill="#dc2626" font-size="14" font-weight="700">日内做空计划</text><rect x="72" y="490" width="790" height="48" rx="6" fill="#f9fafb" stroke="#e5e7eb"/><line x1="94" y1="498" x2="840" y2="498" stroke="#dc2626" stroke-width="3"/><circle cx="132.0" cy="498" r="5" fill="#dc2626"/><text x="132.0" y="520" fill="#374151" font-size="12" text-anchor="middle">入场 反弹承压/破位回抽</text><circle cx="451.2" cy="498" r="5" fill="#dc2626"/><text x="451.2" y="520" fill="#374151" font-size="12" text-anchor="middle">止损 74.92</text><circle cx="712.0" cy="498" r="5" fill="#dc2626"/><text x="712.0" y="520" fill="#374151" font-size="12" text-anchor="middle">目标一 69.57</text><circle cx="814.0" cy="498" r="5" fill="#dc2626"/><text x="814.0" y="520" fill="#374151" font-size="12" text-anchor="middle">目标二 68.24</text>
</svg>