<svg xmlns="http://www.w3.org/2000/svg" width="1080" height="560" viewBox="0 0 1080 560">
<rect width="100%" height="100%" fill="#ffffff"/>
<text x="72" y="23" fill="#111827" font-size="21" font-weight="800">HYPE 日线K线支撑压力图</text>
<text x="862" y="42" fill="#374151" font-size="15" text-anchor="end">最新价 61.20</text>
<line x1="72" y1="34" x2="72" y2="340" stroke="#d1d5db"/>
<line x1="72" y1="340" x2="862" y2="340" stroke="#d1d5db"/>
<line x1="72" y1="340.0" x2="862" y2="340.0" stroke="#f3f4f6"/>
<text x="8" y="345.0" fill="#4b5563" font-size="14">31.02</text>
<line x1="72" y1="263.5" x2="862" y2="263.5" stroke="#f3f4f6"/>
<text x="8" y="268.5" fill="#4b5563" font-size="14">43.36</text>
<line x1="72" y1="187.0" x2="862" y2="187.0" stroke="#f3f4f6"/>
<text x="8" y="192.0" fill="#4b5563" font-size="14">55.71</text>
<line x1="72" y1="110.5" x2="862" y2="110.5" stroke="#f3f4f6"/>
<text x="8" y="115.5" fill="#4b5563" font-size="14">68.06</text>
<line x1="72" y1="34.0" x2="862" y2="34.0" stroke="#f3f4f6"/>
<text x="8" y="39.0" fill="#4b5563" font-size="14">80.41</text>
<line x1="72.0" y1="297.7" x2="72.0" y2="310.1" stroke="#dc2626" stroke-width="1"/><rect x="69.3" y="305.4" width="5.4" height="3.6" fill="#dc2626" opacity="0.82" rx="1"/>
<line x1="80.9" y1="307.5" x2="80.9" y2="318.9" stroke="#dc2626" stroke-width="1"/><rect x="78.2" y="309.1" width="5.4" height="5.2" fill="#dc2626" opacity="0.82" rx="1"/>
<line x1="89.8" y1="308.5" x2="89.8" y2="314.9" stroke="#16a34a" stroke-width="1"/><rect x="87.0" y="311.6" width="5.4" height="2.6" fill="#16a34a" opacity="0.82" rx="1"/>
<line x1="98.6" y1="305.7" x2="98.6" y2="312.2" stroke="#16a34a" stroke-width="1"/><rect x="95.9" y="306.9" width="5.4" height="4.7" fill="#16a34a" opacity="0.82" rx="1"/>
<line x1="107.5" y1="302.9" x2="107.5" y2="314.6" stroke="#16a34a" stroke-width="1"/><rect x="104.8" y="303.9" width="5.4" height="3.0" fill="#16a34a" opacity="0.82" rx="1"/>
<line x1="116.4" y1="298.3" x2="116.4" y2="309.4" stroke="#dc2626" stroke-width="1"/><rect x="113.7" y="303.8" width="5.4" height="3.5" fill="#dc2626" opacity="0.82" rx="1"/>
<line x1="125.3" y1="289.5" x2="125.3" y2="310.9" stroke="#16a34a" stroke-width="1"/><rect x="122.5" y="293.0" width="5.4" height="14.4" fill="#16a34a" opacity="0.82" rx="1"/>
<line x1="134.1" y1="285.6" x2="134.1" y2="298.3" stroke="#16a34a" stroke-width="1"/><rect x="131.4" y="292.0" width="5.4" height="1.2" fill="#16a34a" opacity="0.82" rx="1"/>
<line x1="143.0" y1="281.9" x2="143.0" y2="295.8" stroke="#16a34a" stroke-width="1"/><rect x="140.3" y="287.7" width="5.4" height="4.3" fill="#16a34a" opacity="0.82" rx="1"/>
<line x1="151.9" y1="270.5" x2="151.9" y2="287.9" stroke="#16a34a" stroke-width="1"/><rect x="149.2" y="274.4" width="5.4" height="13.2" fill="#16a34a" opacity="0.82" rx="1"/>
<line x1="160.8" y1="264.7" x2="160.8" y2="275.2" stroke="#16a34a" stroke-width="1"/><rect x="158.0" y="270.2" width="5.4" height="4.2" fill="#16a34a" opacity="0.82" rx="1"/>
<line x1="169.6" y1="266.8" x2="169.6" y2="283.2" stroke="#dc2626" stroke-width="1"/><rect x="166.9" y="270.2" width="5.4" height="8.9" fill="#dc2626" opacity="0.82" rx="1"/>
<line x1="178.5" y1="255.7" x2="178.5" y2="279.5" stroke="#16a34a" stroke-width="1"/><rect x="175.8" y="257.5" width="5.4" height="21.6" fill="#16a34a" opacity="0.82" rx="1"/>
<line x1="187.4" y1="251.3" x2="187.4" y2="266.2" stroke="#dc2626" stroke-width="1"/><rect x="184.7" y="257.5" width="5.4" height="4.9" fill="#dc2626" opacity="0.82" rx="1"/>
<line x1="196.3" y1="250.5" x2="196.3" y2="264.9" stroke="#16a34a" stroke-width="1"/><rect x="193.5" y="255.6" width="5.4" height="6.9" fill="#16a34a" opacity="0.82" rx="1"/>
<line x1="205.1" y1="248.6" x2="205.1" y2="263.9" stroke="#dc2626" stroke-width="1"/><rect x="202.4" y="255.6" width="5.4" height="5.1" fill="#dc2626" opacity="0.82" rx="1"/>
<line x1="214.0" y1="250.3" x2="214.0" y2="264.7" stroke="#16a34a" stroke-width="1"/><rect x="211.3" y="255.7" width="5.4" height="5.0" fill="#16a34a" opacity="0.82" rx="1"/>
<line x1="222.9" y1="250.5" x2="222.9" y2="261.3" stroke="#dc2626" stroke-width="1"/><rect x="220.2" y="255.7" width="5.4" height="5.2" fill="#dc2626" opacity="0.82" rx="1"/>
<line x1="231.8" y1="260.0" x2="231.8" y2="281.2" stroke="#dc2626" stroke-width="1"/><rect x="229.1" y="260.9" width="5.4" height="19.1" fill="#dc2626" opacity="0.82" rx="1"/>
<line x1="240.7" y1="273.2" x2="240.7" y2="280.9" stroke="#16a34a" stroke-width="1"/><rect x="237.9" y="280.0" width="5.4" height="1.2" fill="#16a34a" opacity="0.82" rx="1"/>
<line x1="249.5" y1="275.5" x2="249.5" y2="291.2" stroke="#dc2626" stroke-width="1"/><rect x="246.8" y="280.0" width="5.4" height="5.8" fill="#dc2626" opacity="0.82" rx="1"/>
<line x1="258.4" y1="273.5" x2="258.4" y2="286.7" stroke="#16a34a" stroke-width="1"/><rect x="255.7" y="277.2" width="5.4" height="8.7" fill="#16a34a" opacity="0.82" rx="1"/>
<line x1="267.3" y1="272.8" x2="267.3" y2="281.1" stroke="#16a34a" stroke-width="1"/><rect x="264.6" y="276.3" width="5.4" height="1.2" fill="#16a34a" opacity="0.82" rx="1"/>
<line x1="276.2" y1="274.8" x2="276.2" y2="280.1" stroke="#dc2626" stroke-width="1"/><rect x="273.4" y="276.2" width="5.4" height="1.2" fill="#dc2626" opacity="0.82" rx="1"/>
<line x1="285.0" y1="272.5" x2="285.0" y2="279.2" stroke="#16a34a" stroke-width="1"/><rect x="282.3" y="275.0" width="5.4" height="2.0" fill="#16a34a" opacity="0.82" rx="1"/>
<line x1="293.9" y1="268.2" x2="293.9" y2="278.5" stroke="#16a34a" stroke-width="1"/><rect x="291.2" y="269.1" width="5.4" height="5.9" fill="#16a34a" opacity="0.82" rx="1"/>
<line x1="302.8" y1="262.2" x2="302.8" y2="276.5" stroke="#dc2626" stroke-width="1"/><rect x="300.1" y="269.1" width="5.4" height="5.0" fill="#dc2626" opacity="0.82" rx="1"/>
<line x1="311.7" y1="273.0" x2="311.7" y2="288.2" stroke="#dc2626" stroke-width="1"/><rect x="308.9" y="274.1" width="5.4" height="9.2" fill="#dc2626" opacity="0.82" rx="1"/>
<line x1="320.5" y1="279.4" x2="320.5" y2="289.6" stroke="#dc2626" stroke-width="1"/><rect x="317.8" y="283.3" width="5.4" height="1.4" fill="#dc2626" opacity="0.82" rx="1"/>
<line x1="329.4" y1="282.3" x2="329.4" y2="292.3" stroke="#dc2626" stroke-width="1"/><rect x="326.7" y="284.7" width="5.4" height="1.5" fill="#dc2626" opacity="0.82" rx="1"/>
<line x1="338.3" y1="277.3" x2="338.3" y2="286.4" stroke="#16a34a" stroke-width="1"/><rect x="335.6" y="277.3" width="5.4" height="8.9" fill="#16a34a" opacity="0.82" rx="1"/>
<line x1="347.2" y1="269.2" x2="347.2" y2="278.2" stroke="#16a34a" stroke-width="1"/><rect x="344.4" y="276.6" width="5.4" height="1.2" fill="#16a34a" opacity="0.82" rx="1"/>
<line x1="356.0" y1="273.6" x2="356.0" y2="280.1" stroke="#16a34a" stroke-width="1"/><rect x="353.3" y="274.7" width="5.4" height="1.9" fill="#16a34a" opacity="0.82" rx="1"/>
<line x1="364.9" y1="268.2" x2="364.9" y2="279.3" stroke="#16a34a" stroke-width="1"/><rect x="362.2" y="273.1" width="5.4" height="1.6" fill="#16a34a" opacity="0.82" rx="1"/>
<line x1="373.8" y1="255.6" x2="373.8" y2="273.4" stroke="#16a34a" stroke-width="1"/><rect x="371.1" y="261.4" width="5.4" height="11.7" fill="#16a34a" opacity="0.82" rx="1"/>
<line x1="382.7" y1="254.9" x2="382.7" y2="266.4" stroke="#dc2626" stroke-width="1"/><rect x="380.0" y="261.4" width="5.4" height="3.6" fill="#dc2626" opacity="0.82" rx="1"/>
<line x1="391.6" y1="262.3" x2="391.6" y2="272.8" stroke="#dc2626" stroke-width="1"/><rect x="388.8" y="265.0" width="5.4" height="3.8" fill="#dc2626" opacity="0.82" rx="1"/>
<line x1="400.4" y1="262.7" x2="400.4" y2="271.7" stroke="#16a34a" stroke-width="1"/><rect x="397.7" y="264.1" width="5.4" height="4.6" fill="#16a34a" opacity="0.82" rx="1"/>
<line x1="409.3" y1="257.0" x2="409.3" y2="266.8" stroke="#dc2626" stroke-width="1"/><rect x="406.6" y="264.1" width="5.4" height="2.2" fill="#dc2626" opacity="0.82" rx="1"/>
<line x1="418.2" y1="261.4" x2="418.2" y2="271.2" stroke="#16a34a" stroke-width="1"/><rect x="415.5" y="265.7" width="5.4" height="1.2" fill="#16a34a" opacity="0.82" rx="1"/>
<line x1="427.1" y1="264.8" x2="427.1" y2="279.2" stroke="#dc2626" stroke-width="1"/><rect x="424.3" y="265.7" width="5.4" height="6.3" fill="#dc2626" opacity="0.82" rx="1"/>
<line x1="435.9" y1="271.6" x2="435.9" y2="285.7" stroke="#dc2626" stroke-width="1"/><rect x="433.2" y="272.0" width="5.4" height="10.8" fill="#dc2626" opacity="0.82" rx="1"/>
<line x1="444.8" y1="280.0" x2="444.8" y2="292.3" stroke="#dc2626" stroke-width="1"/><rect x="442.1" y="282.8" width="5.4" height="8.9" fill="#dc2626" opacity="0.82" rx="1"/>
<line x1="453.7" y1="254.8" x2="453.7" y2="295.7" stroke="#16a34a" stroke-width="1"/><rect x="451.0" y="258.7" width="5.4" height="32.9" fill="#16a34a" opacity="0.82" rx="1"/>
<line x1="462.6" y1="240.6" x2="462.6" y2="267.0" stroke="#16a34a" stroke-width="1"/><rect x="459.8" y="258.6" width="5.4" height="1.2" fill="#16a34a" opacity="0.82" rx="1"/>
<line x1="471.4" y1="256.6" x2="471.4" y2="282.1" stroke="#dc2626" stroke-width="1"/><rect x="468.7" y="258.6" width="5.4" height="14.5" fill="#dc2626" opacity="0.82" rx="1"/>
<line x1="480.3" y1="240.0" x2="480.3" y2="276.1" stroke="#16a34a" stroke-width="1"/><rect x="477.6" y="249.1" width="5.4" height="23.9" fill="#16a34a" opacity="0.82" rx="1"/>
<line x1="489.2" y1="234.8" x2="489.2" y2="258.3" stroke="#16a34a" stroke-width="1"/><rect x="486.5" y="236.3" width="5.4" height="12.8" fill="#16a34a" opacity="0.82" rx="1"/>
<line x1="498.1" y1="229.2" x2="498.1" y2="242.2" stroke="#16a34a" stroke-width="1"/><rect x="495.3" y="234.7" width="5.4" height="1.5" fill="#16a34a" opacity="0.82" rx="1"/>
<line x1="506.9" y1="192.4" x2="506.9" y2="240.5" stroke="#16a34a" stroke-width="1"/><rect x="504.2" y="192.4" width="5.4" height="42.4" fill="#16a34a" opacity="0.82" rx="1"/>
<line x1="515.8" y1="144.3" x2="515.8" y2="193.2" stroke="#16a34a" stroke-width="1"/><rect x="513.1" y="169.2" width="5.4" height="23.3" fill="#16a34a" opacity="0.82" rx="1"/>
<line x1="524.7" y1="148.3" x2="524.7" y2="195.9" stroke="#dc2626" stroke-width="1"/><rect x="522.0" y="169.3" width="5.4" height="24.8" fill="#dc2626" opacity="0.82" rx="1"/>
<line x1="533.6" y1="161.0" x2="533.6" y2="197.6" stroke="#16a34a" stroke-width="1"/><rect x="530.9" y="168.5" width="5.4" height="25.6" fill="#16a34a" opacity="0.82" rx="1"/>
<line x1="542.4" y1="132.5" x2="542.4" y2="169.0" stroke="#16a34a" stroke-width="1"/><rect x="539.7" y="143.4" width="5.4" height="25.0" fill="#16a34a" opacity="0.82" rx="1"/>
<line x1="551.3" y1="136.3" x2="551.3" y2="156.0" stroke="#dc2626" stroke-width="1"/><rect x="548.6" y="143.3" width="5.4" height="10.3" fill="#dc2626" opacity="0.82" rx="1"/>
<line x1="560.2" y1="131.1" x2="560.2" y2="169.4" stroke="#dc2626" stroke-width="1"/><rect x="557.5" y="153.6" width="5.4" height="9.8" fill="#dc2626" opacity="0.82" rx="1"/>
<line x1="569.1" y1="139.9" x2="569.1" y2="178.6" stroke="#dc2626" stroke-width="1"/><rect x="566.4" y="163.5" width="5.4" height="11.7" fill="#dc2626" opacity="0.82" rx="1"/>
<line x1="578.0" y1="147.2" x2="578.0" y2="183.7" stroke="#16a34a" stroke-width="1"/><rect x="575.2" y="151.0" width="5.4" height="24.2" fill="#16a34a" opacity="0.82" rx="1"/>
<line x1="586.8" y1="114.5" x2="586.8" y2="158.4" stroke="#16a34a" stroke-width="1"/><rect x="584.1" y="133.1" width="5.4" height="17.9" fill="#16a34a" opacity="0.82" rx="1"/>
<line x1="595.7" y1="106.9" x2="595.7" y2="135.6" stroke="#16a34a" stroke-width="1"/><rect x="593.0" y="109.1" width="5.4" height="24.1" fill="#16a34a" opacity="0.82" rx="1"/>
<line x1="604.6" y1="79.2" x2="604.6" y2="114.2" stroke="#16a34a" stroke-width="1"/><rect x="601.9" y="85.8" width="5.4" height="23.3" fill="#16a34a" opacity="0.82" rx="1"/>
<line x1="613.5" y1="62.4" x2="613.5" y2="95.9" stroke="#16a34a" stroke-width="1"/><rect x="610.7" y="76.3" width="5.4" height="9.2" fill="#16a34a" opacity="0.82" rx="1"/>
<line x1="622.3" y1="63.5" x2="622.3" y2="111.9" stroke="#dc2626" stroke-width="1"/><rect x="619.6" y="76.3" width="5.4" height="23.2" fill="#dc2626" opacity="0.82" rx="1"/>
<line x1="631.2" y1="63.8" x2="631.2" y2="109.2" stroke="#16a34a" stroke-width="1"/><rect x="628.5" y="70.1" width="5.4" height="29.4" fill="#16a34a" opacity="0.82" rx="1"/>
<line x1="640.1" y1="64.4" x2="640.1" y2="141.8" stroke="#dc2626" stroke-width="1"/><rect x="637.4" y="70.1" width="5.4" height="62.9" fill="#dc2626" opacity="0.82" rx="1"/>
<line x1="649.0" y1="123.1" x2="649.0" y2="180.9" stroke="#dc2626" stroke-width="1"/><rect x="646.2" y="133.0" width="5.4" height="28.5" fill="#dc2626" opacity="0.82" rx="1"/>
<line x1="657.8" y1="152.9" x2="657.8" y2="188.4" stroke="#dc2626" stroke-width="1"/><rect x="655.1" y="161.6" width="5.4" height="20.4" fill="#dc2626" opacity="0.82" rx="1"/>
<line x1="666.7" y1="157.7" x2="666.7" y2="184.6" stroke="#16a34a" stroke-width="1"/><rect x="664.0" y="162.0" width="5.4" height="20.0" fill="#16a34a" opacity="0.82" rx="1"/>
<line x1="675.6" y1="124.5" x2="675.6" y2="164.8" stroke="#16a34a" stroke-width="1"/><rect x="672.9" y="136.6" width="5.4" height="25.3" fill="#16a34a" opacity="0.82" rx="1"/>
<line x1="684.5" y1="135.4" x2="684.5" y2="177.2" stroke="#dc2626" stroke-width="1"/><rect x="681.8" y="136.6" width="5.4" height="37.7" fill="#dc2626" opacity="0.82" rx="1"/>
<line x1="693.3" y1="170.6" x2="693.3" y2="206.2" stroke="#dc2626" stroke-width="1"/><rect x="690.6" y="174.2" width="5.4" height="27.9" fill="#dc2626" opacity="0.82" rx="1"/>
<line x1="702.2" y1="162.6" x2="702.2" y2="204.7" stroke="#16a34a" stroke-width="1"/><rect x="699.5" y="167.1" width="5.4" height="34.9" fill="#16a34a" opacity="0.82" rx="1"/>
<line x1="711.1" y1="145.4" x2="711.1" y2="180.4" stroke="#16a34a" stroke-width="1"/><rect x="708.4" y="165.0" width="5.4" height="2.1" fill="#16a34a" opacity="0.82" rx="1"/>
<line x1="720.0" y1="155.0" x2="720.0" y2="178.0" stroke="#16a34a" stroke-width="1"/><rect x="717.3" y="156.1" width="5.4" height="8.9" fill="#16a34a" opacity="0.82" rx="1"/>
<line x1="728.9" y1="134.8" x2="728.9" y2="162.9" stroke="#16a34a" stroke-width="1"/><rect x="726.1" y="136.1" width="5.4" height="20.1" fill="#16a34a" opacity="0.82" rx="1"/>
<line x1="737.7" y1="106.5" x2="737.7" y2="141.1" stroke="#16a34a" stroke-width="1"/><rect x="735.0" y="117.8" width="5.4" height="18.4" fill="#16a34a" opacity="0.82" rx="1"/>
<line x1="746.6" y1="55.1" x2="746.6" y2="121.0" stroke="#16a34a" stroke-width="1"/><rect x="743.9" y="76.3" width="5.4" height="41.4" fill="#16a34a" opacity="0.82" rx="1"/>
<line x1="755.5" y1="56.5" x2="755.5" y2="98.8" stroke="#dc2626" stroke-width="1"/><rect x="752.8" y="76.3" width="5.4" height="15.1" fill="#dc2626" opacity="0.82" rx="1"/>
<line x1="764.4" y1="75.4" x2="764.4" y2="119.9" stroke="#dc2626" stroke-width="1"/><rect x="761.6" y="91.4" width="5.4" height="17.3" fill="#dc2626" opacity="0.82" rx="1"/>
<line x1="773.2" y1="89.9" x2="773.2" y2="125.5" stroke="#16a34a" stroke-width="1"/><rect x="770.5" y="96.8" width="5.4" height="11.9" fill="#16a34a" opacity="0.82" rx="1"/>
<line x1="782.1" y1="89.6" x2="782.1" y2="108.4" stroke="#16a34a" stroke-width="1"/><rect x="779.4" y="93.9" width="5.4" height="3.0" fill="#16a34a" opacity="0.82" rx="1"/>
<line x1="791.0" y1="92.8" x2="791.0" y2="120.0" stroke="#dc2626" stroke-width="1"/><rect x="788.3" y="93.9" width="5.4" height="23.8" fill="#dc2626" opacity="0.82" rx="1"/>
<line x1="799.9" y1="101.1" x2="799.9" y2="128.8" stroke="#dc2626" stroke-width="1"/><rect x="797.1" y="117.7" width="5.4" height="4.0" fill="#dc2626" opacity="0.82" rx="1"/>
<line x1="808.7" y1="114.9" x2="808.7" y2="150.4" stroke="#dc2626" stroke-width="1"/><rect x="806.0" y="121.7" width="5.4" height="25.5" fill="#dc2626" opacity="0.82" rx="1"/>
<line x1="817.6" y1="134.0" x2="817.6" y2="166.3" stroke="#16a34a" stroke-width="1"/><rect x="814.9" y="136.3" width="5.4" height="10.8" fill="#16a34a" opacity="0.82" rx="1"/>
<line x1="826.5" y1="127.0" x2="826.5" y2="170.8" stroke="#16a34a" stroke-width="1"/><rect x="823.8" y="135.2" width="5.4" height="1.2" fill="#16a34a" opacity="0.82" rx="1"/>
<line x1="835.4" y1="126.8" x2="835.4" y2="154.9" stroke="#16a34a" stroke-width="1"/><rect x="832.6" y="133.6" width="5.4" height="1.6" fill="#16a34a" opacity="0.82" rx="1"/>
<line x1="844.2" y1="131.3" x2="844.2" y2="151.5" stroke="#dc2626" stroke-width="1"/><rect x="841.5" y="133.6" width="5.4" height="16.8" fill="#dc2626" opacity="0.82" rx="1"/>
<line x1="853.1" y1="138.7" x2="853.1" y2="157.0" stroke="#dc2626" stroke-width="1"/><rect x="850.4" y="150.4" width="5.4" height="1.4" fill="#dc2626" opacity="0.82" rx="1"/>
<line x1="862.0" y1="151.7" x2="862.0" y2="153.5" stroke="#dc2626" stroke-width="1"/><rect x="859.3" y="151.7" width="5.4" height="1.3" fill="#dc2626" opacity="0.82" rx="1"/>
<line x1="72" y1="200.4" x2="862" y2="200.4" stroke="#16a34a" stroke-width="1.8" stroke-dasharray="6 4" /><rect x="874" y="180.4" width="166" height="23" rx="5" fill="#ffffff" stroke="#16a34a" opacity="0.97"/><text x="881" y="196.4" fill="#16a34a" font-size="15" font-weight="700">支撑 53.55</text>
<line x1="72" y1="74.1" x2="862" y2="74.1" stroke="#dc2626" stroke-width="1.8" stroke-dasharray="6 4" /><rect x="874" y="54.1" width="166" height="23" rx="5" fill="#ffffff" stroke="#dc2626" opacity="0.97"/><text x="881" y="70.1" fill="#dc2626" font-size="15" font-weight="700">压力 73.94</text>
<line x1="72" y1="153.0" x2="862" y2="153.0" stroke="#111827" stroke-width="1.8" stroke-dasharray="2 2" /><rect x="874" y="133.0" width="166" height="23" rx="5" fill="#ffffff" stroke="#111827" opacity="0.97"/><text x="881" y="149.0" fill="#111827" font-size="15" font-weight="700">现价 61.20</text>
<text x="72" y="396" fill="#16a34a" font-size="14" font-weight="700">日线做多计划</text><rect x="72" y="404" width="790" height="48" rx="6" fill="#f9fafb" stroke="#e5e7eb"/><line x1="94" y1="412" x2="840" y2="412" stroke="#16a34a" stroke-width="3"/><circle cx="132.0" cy="412" r="5" fill="#16a34a"/><text x="132.0" y="434" fill="#374151" font-size="12" text-anchor="middle">入场 止跌/突破回踩</text><circle cx="451.2" cy="412" r="5" fill="#16a34a"/><text x="451.2" y="434" fill="#374151" font-size="12" text-anchor="middle">止损 53.55</text><circle cx="712.0" cy="412" r="5" fill="#16a34a"/><text x="712.0" y="434" fill="#374151" font-size="12" text-anchor="middle">目标一 73.94</text><circle cx="814.0" cy="412" r="5" fill="#16a34a"/><text x="814.0" y="434" fill="#374151" font-size="12" text-anchor="middle">目标二 81.58</text>
<text x="72" y="482" fill="#dc2626" font-size="14" font-weight="700">日线做空计划</text><rect x="72" y="490" width="790" height="48" rx="6" fill="#f9fafb" stroke="#e5e7eb"/><line x1="94" y1="498" x2="840" y2="498" stroke="#dc2626" stroke-width="3"/><circle cx="132.0" cy="498" r="5" fill="#dc2626"/><text x="132.0" y="520" fill="#374151" font-size="12" text-anchor="middle">入场 反弹承压/破位回抽</text><circle cx="451.2" cy="498" r="5" fill="#dc2626"/><text x="451.2" y="520" fill="#374151" font-size="12" text-anchor="middle">止损 73.94</text><circle cx="712.0" cy="498" r="5" fill="#dc2626"/><text x="712.0" y="520" fill="#374151" font-size="12" text-anchor="middle">目标一 53.55</text><circle cx="814.0" cy="498" r="5" fill="#dc2626"/><text x="814.0" y="520" fill="#374151" font-size="12" text-anchor="middle">目标二 48.45</text>
</svg>