<svg xmlns="http://www.w3.org/2000/svg" width="1080" height="560" viewBox="0 0 1080 560">
<rect width="100%" height="100%" fill="#ffffff"/>
<text x="72" y="23" fill="#111827" font-size="21" font-weight="800">HYPE 小时线K线支撑压力图</text>
<text x="862" y="42" fill="#374151" font-size="15" text-anchor="end">最新价 62.55</text>
<line x1="72" y1="34" x2="72" y2="340" stroke="#d1d5db"/>
<line x1="72" y1="340" x2="862" y2="340" stroke="#d1d5db"/>
<line x1="72" y1="340.0" x2="862" y2="340.0" stroke="#f3f4f6"/>
<text x="8" y="345.0" fill="#4b5563" font-size="14">58.16</text>
<line x1="72" y1="263.5" x2="862" y2="263.5" stroke="#f3f4f6"/>
<text x="8" y="268.5" fill="#4b5563" font-size="14">60.11</text>
<line x1="72" y1="187.0" x2="862" y2="187.0" stroke="#f3f4f6"/>
<text x="8" y="192.0" fill="#4b5563" font-size="14">62.06</text>
<line x1="72" y1="110.5" x2="862" y2="110.5" stroke="#f3f4f6"/>
<text x="8" y="115.5" fill="#4b5563" font-size="14">64.02</text>
<line x1="72" y1="34.0" x2="862" y2="34.0" stroke="#f3f4f6"/>
<text x="8" y="39.0" fill="#4b5563" font-size="14">65.97</text>
<line x1="72.0" y1="209.5" x2="72.0" y2="318.9" stroke="#16a34a" stroke-width="1"/><rect x="69.3" y="237.9" width="5.4" height="81.0" fill="#16a34a" opacity="0.82" rx="1"/>
<line x1="80.9" y1="189.1" x2="80.9" y2="267.9" stroke="#16a34a" stroke-width="1"/><rect x="78.2" y="196.6" width="5.4" height="41.4" fill="#16a34a" opacity="0.82" rx="1"/>
<line x1="89.8" y1="164.0" x2="89.8" y2="226.7" stroke="#dc2626" stroke-width="1"/><rect x="87.0" y="196.5" width="5.4" height="21.2" fill="#dc2626" opacity="0.82" rx="1"/>
<line x1="98.6" y1="132.0" x2="98.6" y2="220.1" stroke="#16a34a" stroke-width="1"/><rect x="95.9" y="134.9" width="5.4" height="83.0" fill="#16a34a" opacity="0.82" rx="1"/>
<line x1="107.5" y1="126.0" x2="107.5" y2="160.7" stroke="#16a34a" stroke-width="1"/><rect x="104.8" y="126.7" width="5.4" height="7.8" fill="#16a34a" opacity="0.82" rx="1"/>
<line x1="116.4" y1="125.6" x2="116.4" y2="177.8" stroke="#dc2626" stroke-width="1"/><rect x="113.7" y="126.7" width="5.4" height="3.8" fill="#dc2626" opacity="0.82" rx="1"/>
<line x1="125.3" y1="104.3" x2="125.3" y2="152.9" stroke="#dc2626" stroke-width="1"/><rect x="122.5" y="130.5" width="5.4" height="16.5" fill="#dc2626" opacity="0.82" rx="1"/>
<line x1="134.1" y1="79.1" x2="134.1" y2="156.7" stroke="#16a34a" stroke-width="1"/><rect x="131.4" y="93.6" width="5.4" height="53.4" fill="#16a34a" opacity="0.82" rx="1"/>
<line x1="143.0" y1="83.8" x2="143.0" y2="132.9" stroke="#dc2626" stroke-width="1"/><rect x="140.3" y="93.2" width="5.4" height="28.0" fill="#dc2626" opacity="0.82" rx="1"/>
<line x1="151.9" y1="56.3" x2="151.9" y2="132.6" stroke="#16a34a" stroke-width="1"/><rect x="149.2" y="108.5" width="5.4" height="12.1" fill="#16a34a" opacity="0.82" rx="1"/>
<line x1="160.8" y1="93.6" x2="160.8" y2="133.1" stroke="#dc2626" stroke-width="1"/><rect x="158.0" y="108.5" width="5.4" height="23.4" fill="#dc2626" opacity="0.82" rx="1"/>
<line x1="169.6" y1="125.4" x2="169.6" y2="163.5" stroke="#dc2626" stroke-width="1"/><rect x="166.9" y="131.5" width="5.4" height="10.4" fill="#dc2626" opacity="0.82" rx="1"/>
<line x1="178.5" y1="140.9" x2="178.5" y2="216.3" stroke="#dc2626" stroke-width="1"/><rect x="175.8" y="141.9" width="5.4" height="64.8" fill="#dc2626" opacity="0.82" rx="1"/>
<line x1="187.4" y1="118.1" x2="187.4" y2="212.8" stroke="#16a34a" stroke-width="1"/><rect x="184.7" y="118.9" width="5.4" height="87.5" fill="#16a34a" opacity="0.82" rx="1"/>
<line x1="196.3" y1="115.3" x2="196.3" y2="168.4" stroke="#dc2626" stroke-width="1"/><rect x="193.5" y="118.9" width="5.4" height="42.3" fill="#dc2626" opacity="0.82" rx="1"/>
<line x1="205.1" y1="150.3" x2="205.1" y2="192.3" stroke="#dc2626" stroke-width="1"/><rect x="202.4" y="161.2" width="5.4" height="8.4" fill="#dc2626" opacity="0.82" rx="1"/>
<line x1="214.0" y1="119.0" x2="214.0" y2="184.0" stroke="#16a34a" stroke-width="1"/><rect x="211.3" y="123.9" width="5.4" height="45.7" fill="#16a34a" opacity="0.82" rx="1"/>
<line x1="222.9" y1="69.8" x2="222.9" y2="138.0" stroke="#16a34a" stroke-width="1"/><rect x="220.2" y="71.7" width="5.4" height="52.0" fill="#16a34a" opacity="0.82" rx="1"/>
<line x1="231.8" y1="55.5" x2="231.8" y2="114.0" stroke="#dc2626" stroke-width="1"/><rect x="229.1" y="72.5" width="5.4" height="38.6" fill="#dc2626" opacity="0.82" rx="1"/>
<line x1="240.7" y1="110.3" x2="240.7" y2="167.6" stroke="#dc2626" stroke-width="1"/><rect x="237.9" y="110.7" width="5.4" height="55.8" fill="#dc2626" opacity="0.82" rx="1"/>
<line x1="249.5" y1="166.4" x2="249.5" y2="197.4" stroke="#dc2626" stroke-width="1"/><rect x="246.8" y="166.4" width="5.4" height="26.3" fill="#dc2626" opacity="0.82" rx="1"/>
<line x1="258.4" y1="175.3" x2="258.4" y2="201.2" stroke="#16a34a" stroke-width="1"/><rect x="255.7" y="188.2" width="5.4" height="4.5" fill="#16a34a" opacity="0.82" rx="1"/>
<line x1="267.3" y1="166.0" x2="267.3" y2="226.2" stroke="#dc2626" stroke-width="1"/><rect x="264.6" y="188.2" width="5.4" height="22.6" fill="#dc2626" opacity="0.82" rx="1"/>
<line x1="276.2" y1="116.3" x2="276.2" y2="233.0" stroke="#16a34a" stroke-width="1"/><rect x="273.4" y="121.2" width="5.4" height="89.2" fill="#16a34a" opacity="0.82" rx="1"/>
<line x1="285.0" y1="84.2" x2="285.0" y2="132.2" stroke="#16a34a" stroke-width="1"/><rect x="282.3" y="114.9" width="5.4" height="6.4" fill="#16a34a" opacity="0.82" rx="1"/>
<line x1="293.9" y1="70.0" x2="293.9" y2="117.6" stroke="#16a34a" stroke-width="1"/><rect x="291.2" y="78.8" width="5.4" height="35.9" fill="#16a34a" opacity="0.82" rx="1"/>
<line x1="302.8" y1="59.5" x2="302.8" y2="104.7" stroke="#16a34a" stroke-width="1"/><rect x="300.1" y="74.8" width="5.4" height="3.8" fill="#16a34a" opacity="0.82" rx="1"/>
<line x1="311.7" y1="55.1" x2="311.7" y2="99.2" stroke="#dc2626" stroke-width="1"/><rect x="308.9" y="74.6" width="5.4" height="17.0" fill="#dc2626" opacity="0.82" rx="1"/>
<line x1="320.5" y1="65.3" x2="320.5" y2="115.1" stroke="#dc2626" stroke-width="1"/><rect x="317.8" y="91.6" width="5.4" height="21.0" fill="#dc2626" opacity="0.82" rx="1"/>
<line x1="329.4" y1="58.9" x2="329.4" y2="119.4" stroke="#16a34a" stroke-width="1"/><rect x="326.7" y="84.5" width="5.4" height="27.9" fill="#16a34a" opacity="0.82" rx="1"/>
<line x1="338.3" y1="68.0" x2="338.3" y2="127.9" stroke="#dc2626" stroke-width="1"/><rect x="335.6" y="84.5" width="5.4" height="40.1" fill="#dc2626" opacity="0.82" rx="1"/>
<line x1="347.2" y1="94.0" x2="347.2" y2="142.2" stroke="#16a34a" stroke-width="1"/><rect x="344.4" y="115.1" width="5.4" height="9.4" fill="#16a34a" opacity="0.82" rx="1"/>
<line x1="356.0" y1="105.0" x2="356.0" y2="129.7" stroke="#16a34a" stroke-width="1"/><rect x="353.3" y="105.0" width="5.4" height="10.2" fill="#16a34a" opacity="0.82" rx="1"/>
<line x1="364.9" y1="86.5" x2="364.9" y2="106.0" stroke="#16a34a" stroke-width="1"/><rect x="362.2" y="98.2" width="5.4" height="7.1" fill="#16a34a" opacity="0.82" rx="1"/>
<line x1="373.8" y1="96.8" x2="373.8" y2="142.1" stroke="#dc2626" stroke-width="1"/><rect x="371.1" y="98.0" width="5.4" height="28.5" fill="#dc2626" opacity="0.82" rx="1"/>
<line x1="382.7" y1="122.2" x2="382.7" y2="139.9" stroke="#dc2626" stroke-width="1"/><rect x="380.0" y="126.3" width="5.4" height="9.5" fill="#dc2626" opacity="0.82" rx="1"/>
<line x1="391.6" y1="93.6" x2="391.6" y2="142.8" stroke="#16a34a" stroke-width="1"/><rect x="388.8" y="103.1" width="5.4" height="33.0" fill="#16a34a" opacity="0.82" rx="1"/>
<line x1="400.4" y1="97.0" x2="400.4" y2="117.9" stroke="#dc2626" stroke-width="1"/><rect x="397.7" y="103.2" width="5.4" height="9.3" fill="#dc2626" opacity="0.82" rx="1"/>
<line x1="409.3" y1="83.4" x2="409.3" y2="115.9" stroke="#dc2626" stroke-width="1"/><rect x="406.6" y="112.9" width="5.4" height="1.2" fill="#dc2626" opacity="0.82" rx="1"/>
<line x1="418.2" y1="110.1" x2="418.2" y2="125.0" stroke="#dc2626" stroke-width="1"/><rect x="415.5" y="112.2" width="5.4" height="9.4" fill="#dc2626" opacity="0.82" rx="1"/>
<line x1="427.1" y1="113.6" x2="427.1" y2="146.6" stroke="#dc2626" stroke-width="1"/><rect x="424.3" y="121.7" width="5.4" height="10.1" fill="#dc2626" opacity="0.82" rx="1"/>
<line x1="435.9" y1="120.3" x2="435.9" y2="140.8" stroke="#16a34a" stroke-width="1"/><rect x="433.2" y="128.2" width="5.4" height="3.7" fill="#16a34a" opacity="0.82" rx="1"/>
<line x1="444.8" y1="114.2" x2="444.8" y2="139.3" stroke="#dc2626" stroke-width="1"/><rect x="442.1" y="128.4" width="5.4" height="5.9" fill="#dc2626" opacity="0.82" rx="1"/>
<line x1="453.7" y1="132.1" x2="453.7" y2="165.4" stroke="#dc2626" stroke-width="1"/><rect x="451.0" y="134.3" width="5.4" height="21.7" fill="#dc2626" opacity="0.82" rx="1"/>
<line x1="462.6" y1="141.1" x2="462.6" y2="157.1" stroke="#16a34a" stroke-width="1"/><rect x="459.8" y="141.3" width="5.4" height="14.8" fill="#16a34a" opacity="0.82" rx="1"/>
<line x1="471.4" y1="121.8" x2="471.4" y2="159.3" stroke="#16a34a" stroke-width="1"/><rect x="468.7" y="134.6" width="5.4" height="6.6" fill="#16a34a" opacity="0.82" rx="1"/>
<line x1="480.3" y1="134.1" x2="480.3" y2="156.2" stroke="#dc2626" stroke-width="1"/><rect x="477.6" y="134.9" width="5.4" height="6.9" fill="#dc2626" opacity="0.82" rx="1"/>
<line x1="489.2" y1="113.5" x2="489.2" y2="144.4" stroke="#16a34a" stroke-width="1"/><rect x="486.5" y="124.1" width="5.4" height="16.7" fill="#16a34a" opacity="0.82" rx="1"/>
<line x1="498.1" y1="103.1" x2="498.1" y2="132.6" stroke="#16a34a" stroke-width="1"/><rect x="495.3" y="120.1" width="5.4" height="3.8" fill="#16a34a" opacity="0.82" rx="1"/>
<line x1="506.9" y1="84.1" x2="506.9" y2="119.4" stroke="#16a34a" stroke-width="1"/><rect x="504.2" y="95.6" width="5.4" height="23.8" fill="#16a34a" opacity="0.82" rx="1"/>
<line x1="515.8" y1="95.3" x2="515.8" y2="116.5" stroke="#dc2626" stroke-width="1"/><rect x="513.1" y="96.1" width="5.4" height="7.9" fill="#dc2626" opacity="0.82" rx="1"/>
<line x1="524.7" y1="103.8" x2="524.7" y2="151.3" stroke="#dc2626" stroke-width="1"/><rect x="522.0" y="104.0" width="5.4" height="45.9" fill="#dc2626" opacity="0.82" rx="1"/>
<line x1="533.6" y1="142.6" x2="533.6" y2="158.0" stroke="#dc2626" stroke-width="1"/><rect x="530.9" y="149.9" width="5.4" height="1.2" fill="#dc2626" opacity="0.82" rx="1"/>
<line x1="542.4" y1="144.4" x2="542.4" y2="185.6" stroke="#dc2626" stroke-width="1"/><rect x="539.7" y="150.0" width="5.4" height="32.9" fill="#dc2626" opacity="0.82" rx="1"/>
<line x1="551.3" y1="170.6" x2="551.3" y2="191.5" stroke="#16a34a" stroke-width="1"/><rect x="548.6" y="174.7" width="5.4" height="8.3" fill="#16a34a" opacity="0.82" rx="1"/>
<line x1="560.2" y1="158.5" x2="560.2" y2="181.2" stroke="#16a34a" stroke-width="1"/><rect x="557.5" y="171.2" width="5.4" height="3.5" fill="#16a34a" opacity="0.82" rx="1"/>
<line x1="569.1" y1="166.3" x2="569.1" y2="201.3" stroke="#16a34a" stroke-width="1"/><rect x="566.4" y="166.9" width="5.4" height="4.2" fill="#16a34a" opacity="0.82" rx="1"/>
<line x1="578.0" y1="165.3" x2="578.0" y2="211.4" stroke="#dc2626" stroke-width="1"/><rect x="575.2" y="166.9" width="5.4" height="37.5" fill="#dc2626" opacity="0.82" rx="1"/>
<line x1="586.8" y1="184.9" x2="586.8" y2="207.8" stroke="#16a34a" stroke-width="1"/><rect x="584.1" y="200.1" width="5.4" height="4.4" fill="#16a34a" opacity="0.82" rx="1"/>
<line x1="595.7" y1="187.6" x2="595.7" y2="216.0" stroke="#16a34a" stroke-width="1"/><rect x="593.0" y="192.8" width="5.4" height="7.2" fill="#16a34a" opacity="0.82" rx="1"/>
<line x1="604.6" y1="186.0" x2="604.6" y2="204.1" stroke="#dc2626" stroke-width="1"/><rect x="601.9" y="192.8" width="5.4" height="2.1" fill="#dc2626" opacity="0.82" rx="1"/>
<line x1="613.5" y1="181.1" x2="613.5" y2="196.2" stroke="#16a34a" stroke-width="1"/><rect x="610.7" y="182.5" width="5.4" height="12.0" fill="#16a34a" opacity="0.82" rx="1"/>
<line x1="622.3" y1="179.3" x2="622.3" y2="197.8" stroke="#dc2626" stroke-width="1"/><rect x="619.6" y="182.4" width="5.4" height="11.0" fill="#dc2626" opacity="0.82" rx="1"/>
<line x1="631.2" y1="187.6" x2="631.2" y2="205.2" stroke="#16a34a" stroke-width="1"/><rect x="628.5" y="192.5" width="5.4" height="1.2" fill="#16a34a" opacity="0.82" rx="1"/>
<line x1="640.1" y1="182.7" x2="640.1" y2="206.5" stroke="#16a34a" stroke-width="1"/><rect x="637.4" y="191.8" width="5.4" height="1.2" fill="#16a34a" opacity="0.82" rx="1"/>
<line x1="649.0" y1="164.3" x2="649.0" y2="191.8" stroke="#16a34a" stroke-width="1"/><rect x="646.2" y="165.7" width="5.4" height="26.1" fill="#16a34a" opacity="0.82" rx="1"/>
<line x1="657.8" y1="133.4" x2="657.8" y2="177.8" stroke="#16a34a" stroke-width="1"/><rect x="655.1" y="148.4" width="5.4" height="17.0" fill="#16a34a" opacity="0.82" rx="1"/>
<line x1="666.7" y1="146.1" x2="666.7" y2="160.1" stroke="#dc2626" stroke-width="1"/><rect x="664.0" y="148.0" width="5.4" height="9.5" fill="#dc2626" opacity="0.82" rx="1"/>
<line x1="675.6" y1="146.6" x2="675.6" y2="173.2" stroke="#dc2626" stroke-width="1"/><rect x="672.9" y="157.7" width="5.4" height="1.2" fill="#dc2626" opacity="0.82" rx="1"/>
<line x1="684.5" y1="130.3" x2="684.5" y2="158.8" stroke="#16a34a" stroke-width="1"/><rect x="681.8" y="143.8" width="5.4" height="13.9" fill="#16a34a" opacity="0.82" rx="1"/>
<line x1="693.3" y1="131.2" x2="693.3" y2="157.9" stroke="#dc2626" stroke-width="1"/><rect x="690.6" y="143.8" width="5.4" height="5.0" fill="#dc2626" opacity="0.82" rx="1"/>
<line x1="702.2" y1="141.0" x2="702.2" y2="170.8" stroke="#dc2626" stroke-width="1"/><rect x="699.5" y="148.6" width="5.4" height="11.4" fill="#dc2626" opacity="0.82" rx="1"/>
<line x1="711.1" y1="142.3" x2="711.1" y2="163.9" stroke="#dc2626" stroke-width="1"/><rect x="708.4" y="159.7" width="5.4" height="3.7" fill="#dc2626" opacity="0.82" rx="1"/>
<line x1="720.0" y1="143.9" x2="720.0" y2="167.7" stroke="#16a34a" stroke-width="1"/><rect x="717.3" y="148.4" width="5.4" height="14.9" fill="#16a34a" opacity="0.82" rx="1"/>
<line x1="728.9" y1="142.1" x2="728.9" y2="178.1" stroke="#dc2626" stroke-width="1"/><rect x="726.1" y="148.4" width="5.4" height="17.7" fill="#dc2626" opacity="0.82" rx="1"/>
<line x1="737.7" y1="151.3" x2="737.7" y2="175.3" stroke="#16a34a" stroke-width="1"/><rect x="735.0" y="159.9" width="5.4" height="6.2" fill="#16a34a" opacity="0.82" rx="1"/>
<line x1="746.6" y1="158.6" x2="746.6" y2="195.9" stroke="#dc2626" stroke-width="1"/><rect x="743.9" y="159.7" width="5.4" height="25.9" fill="#dc2626" opacity="0.82" rx="1"/>
<line x1="755.5" y1="180.2" x2="755.5" y2="204.8" stroke="#dc2626" stroke-width="1"/><rect x="752.8" y="185.6" width="5.4" height="6.4" fill="#dc2626" opacity="0.82" rx="1"/>
<line x1="764.4" y1="173.6" x2="764.4" y2="197.0" stroke="#dc2626" stroke-width="1"/><rect x="761.6" y="191.9" width="5.4" height="2.4" fill="#dc2626" opacity="0.82" rx="1"/>
<line x1="773.2" y1="194.0" x2="773.2" y2="242.7" stroke="#dc2626" stroke-width="1"/><rect x="770.5" y="194.4" width="5.4" height="43.0" fill="#dc2626" opacity="0.82" rx="1"/>
<line x1="782.1" y1="209.7" x2="782.1" y2="246.3" stroke="#16a34a" stroke-width="1"/><rect x="779.4" y="235.7" width="5.4" height="2.9" fill="#16a34a" opacity="0.82" rx="1"/>
<line x1="791.0" y1="203.0" x2="791.0" y2="238.2" stroke="#16a34a" stroke-width="1"/><rect x="788.3" y="213.1" width="5.4" height="22.8" fill="#16a34a" opacity="0.82" rx="1"/>
<line x1="799.9" y1="201.6" x2="799.9" y2="241.1" stroke="#16a34a" stroke-width="1"/><rect x="797.1" y="202.3" width="5.4" height="10.4" fill="#16a34a" opacity="0.82" rx="1"/>
<line x1="808.7" y1="189.0" x2="808.7" y2="223.6" stroke="#16a34a" stroke-width="1"/><rect x="806.0" y="192.7" width="5.4" height="10.1" fill="#16a34a" opacity="0.82" rx="1"/>
<line x1="817.6" y1="166.6" x2="817.6" y2="215.6" stroke="#16a34a" stroke-width="1"/><rect x="814.9" y="172.0" width="5.4" height="20.9" fill="#16a34a" opacity="0.82" rx="1"/>
<line x1="826.5" y1="155.0" x2="826.5" y2="181.7" stroke="#16a34a" stroke-width="1"/><rect x="823.8" y="161.9" width="5.4" height="10.0" fill="#16a34a" opacity="0.82" rx="1"/>
<line x1="835.4" y1="158.0" x2="835.4" y2="191.8" stroke="#dc2626" stroke-width="1"/><rect x="832.6" y="161.9" width="5.4" height="26.7" fill="#dc2626" opacity="0.82" rx="1"/>
<line x1="844.2" y1="152.1" x2="844.2" y2="208.3" stroke="#16a34a" stroke-width="1"/><rect x="841.5" y="153.0" width="5.4" height="35.5" fill="#16a34a" opacity="0.82" rx="1"/>
<line x1="853.1" y1="142.6" x2="853.1" y2="164.8" stroke="#dc2626" stroke-width="1"/><rect x="850.4" y="153.0" width="5.4" height="11.8" fill="#dc2626" opacity="0.82" rx="1"/>
<line x1="862.0" y1="164.3" x2="862.0" y2="172.8" stroke="#dc2626" stroke-width="1"/><rect x="859.3" y="164.8" width="5.4" height="3.3" fill="#dc2626" opacity="0.82" rx="1"/>
<line x1="72" y1="219.1" x2="862" y2="219.1" stroke="#16a34a" stroke-width="1.8" stroke-dasharray="6 4" /><rect x="874" y="199.1" width="166" height="23" rx="5" fill="#ffffff" stroke="#16a34a" opacity="0.97"/><text x="881" y="215.1" fill="#16a34a" font-size="15" font-weight="700">日内支撑 61.25</text>
<line x1="72" y1="83.0" x2="862" y2="83.0" stroke="#dc2626" stroke-width="1.8" stroke-dasharray="6 4" /><rect x="874" y="63.0" width="166" height="23" rx="5" fill="#ffffff" stroke="#dc2626" opacity="0.97"/><text x="881" y="79.0" fill="#dc2626" font-size="15" font-weight="700">日内压力 64.72</text>
<line x1="72" y1="168.0" x2="862" y2="168.0" stroke="#111827" stroke-width="1.8" stroke-dasharray="2 2" /><rect x="874" y="148.0" width="166" height="23" rx="5" fill="#ffffff" stroke="#111827" opacity="0.97"/><text x="881" y="164.0" fill="#111827" font-size="15" font-weight="700">现价 62.55</text>
<text x="72" y="396" fill="#16a34a" font-size="14" font-weight="700">日内做多计划</text><rect x="72" y="404" width="790" height="48" rx="6" fill="#f9fafb" stroke="#e5e7eb"/><line x1="94" y1="412" x2="840" y2="412" stroke="#16a34a" stroke-width="3"/><circle cx="132.0" cy="412" r="5" fill="#16a34a"/><text x="132.0" y="434" fill="#374151" font-size="12" text-anchor="middle">入场 止跌/突破回踩</text><circle cx="451.2" cy="412" r="5" fill="#16a34a"/><text x="451.2" y="434" fill="#374151" font-size="12" text-anchor="middle">止损 61.25</text><circle cx="712.0" cy="412" r="5" fill="#16a34a"/><text x="712.0" y="434" fill="#374151" font-size="12" text-anchor="middle">目标一 64.72</text><circle cx="814.0" cy="412" r="5" fill="#16a34a"/><text x="814.0" y="434" fill="#374151" font-size="12" text-anchor="middle">目标二 65.59</text>
<text x="72" y="482" fill="#dc2626" font-size="14" font-weight="700">日内做空计划</text><rect x="72" y="490" width="790" height="48" rx="6" fill="#f9fafb" stroke="#e5e7eb"/><line x1="94" y1="498" x2="840" y2="498" stroke="#dc2626" stroke-width="3"/><circle cx="132.0" cy="498" r="5" fill="#dc2626"/><text x="132.0" y="520" fill="#374151" font-size="12" text-anchor="middle">入场 反弹承压/破位回抽</text><circle cx="451.2" cy="498" r="5" fill="#dc2626"/><text x="451.2" y="520" fill="#374151" font-size="12" text-anchor="middle">止损 64.72</text><circle cx="712.0" cy="498" r="5" fill="#dc2626"/><text x="712.0" y="520" fill="#374151" font-size="12" text-anchor="middle">目标一 61.25</text><circle cx="814.0" cy="498" r="5" fill="#dc2626"/><text x="814.0" y="520" fill="#374151" font-size="12" text-anchor="middle">目标二 60.38</text>
</svg>