<svg xmlns="http://www.w3.org/2000/svg" width="1080" height="560" viewBox="0 0 1080 560">
<rect width="100%" height="100%" fill="#ffffff"/>
<text x="72" y="23" fill="#111827" font-size="21" font-weight="800">BTC 日线K线支撑压力图</text>
<text x="862" y="42" fill="#374151" font-size="15" text-anchor="end">最新价 59,407</text>
<line x1="72" y1="34" x2="72" y2="340" stroke="#d1d5db"/>
<line x1="72" y1="340" x2="862" y2="340" stroke="#d1d5db"/>
<line x1="72" y1="340.0" x2="862" y2="340.0" stroke="#f3f4f6"/>
<text x="8" y="345.0" fill="#4b5563" font-size="14">54,195</text>
<line x1="72" y1="263.5" x2="862" y2="263.5" stroke="#f3f4f6"/>
<text x="8" y="268.5" fill="#4b5563" font-size="14">61,883</text>
<line x1="72" y1="187.0" x2="862" y2="187.0" stroke="#f3f4f6"/>
<text x="8" y="192.0" fill="#4b5563" font-size="14">69,572</text>
<line x1="72" y1="110.5" x2="862" y2="110.5" stroke="#f3f4f6"/>
<text x="8" y="115.5" fill="#4b5563" font-size="14">77,261</text>
<line x1="72" y1="34.0" x2="862" y2="34.0" stroke="#f3f4f6"/>
<text x="8" y="39.0" fill="#4b5563" font-size="14">84,950</text>
<line x1="72.0" y1="189.8" x2="72.0" y2="207.3" stroke="#dc2626" stroke-width="1"/><rect x="69.3" y="200.2" width="5.4" height="1.5" fill="#dc2626" opacity="0.82" rx="1"/>
<line x1="80.9" y1="196.3" x2="80.9" y2="225.8" stroke="#dc2626" stroke-width="1"/><rect x="78.2" y="201.8" width="5.4" height="12.1" fill="#dc2626" opacity="0.82" rx="1"/>
<line x1="89.8" y1="209.1" x2="89.8" y2="220.2" stroke="#16a34a" stroke-width="1"/><rect x="87.0" y="213.3" width="5.4" height="1.2" fill="#16a34a" opacity="0.82" rx="1"/>
<line x1="98.6" y1="207.1" x2="98.6" y2="215.1" stroke="#16a34a" stroke-width="1"/><rect x="95.9" y="209.9" width="5.4" height="3.4" fill="#16a34a" opacity="0.82" rx="1"/>
<line x1="107.5" y1="191.6" x2="107.5" y2="216.8" stroke="#16a34a" stroke-width="1"/><rect x="104.8" y="192.7" width="5.4" height="17.2" fill="#16a34a" opacity="0.82" rx="1"/>
<line x1="116.4" y1="179.4" x2="116.4" y2="200.4" stroke="#dc2626" stroke-width="1"/><rect x="113.7" y="192.7" width="5.4" height="1.8" fill="#dc2626" opacity="0.82" rx="1"/>
<line x1="125.3" y1="155.4" x2="125.3" y2="205.5" stroke="#16a34a" stroke-width="1"/><rect x="122.5" y="163.9" width="5.4" height="30.6" fill="#16a34a" opacity="0.82" rx="1"/>
<line x1="134.1" y1="154.3" x2="134.1" y2="176.1" stroke="#dc2626" stroke-width="1"/><rect x="131.4" y="163.9" width="5.4" height="8.5" fill="#dc2626" opacity="0.82" rx="1"/>
<line x1="143.0" y1="151.6" x2="143.0" y2="178.5" stroke="#16a34a" stroke-width="1"/><rect x="140.3" y="165.3" width="5.4" height="7.1" fill="#16a34a" opacity="0.82" rx="1"/>
<line x1="151.9" y1="148.4" x2="151.9" y2="169.0" stroke="#16a34a" stroke-width="1"/><rect x="149.2" y="153.7" width="5.4" height="11.6" fill="#16a34a" opacity="0.82" rx="1"/>
<line x1="160.8" y1="145.2" x2="160.8" y2="158.3" stroke="#16a34a" stroke-width="1"/><rect x="158.0" y="152.8" width="5.4" height="1.2" fill="#16a34a" opacity="0.82" rx="1"/>
<line x1="169.6" y1="152.0" x2="169.6" y2="178.2" stroke="#dc2626" stroke-width="1"/><rect x="166.9" y="152.8" width="5.4" height="22.9" fill="#dc2626" opacity="0.82" rx="1"/>
<line x1="178.5" y1="134.3" x2="178.5" y2="177.6" stroke="#16a34a" stroke-width="1"/><rect x="175.8" y="139.1" width="5.4" height="36.6" fill="#16a34a" opacity="0.82" rx="1"/>
<line x1="187.4" y1="123.0" x2="187.4" y2="145.3" stroke="#dc2626" stroke-width="1"/><rect x="184.7" y="139.1" width="5.4" height="2.8" fill="#dc2626" opacity="0.82" rx="1"/>
<line x1="196.3" y1="128.8" x2="196.3" y2="148.4" stroke="#16a34a" stroke-width="1"/><rect x="193.5" y="135.2" width="5.4" height="6.7" fill="#16a34a" opacity="0.82" rx="1"/>
<line x1="205.1" y1="128.0" x2="205.1" y2="150.3" stroke="#16a34a" stroke-width="1"/><rect x="202.4" y="131.9" width="5.4" height="3.3" fill="#16a34a" opacity="0.82" rx="1"/>
<line x1="214.0" y1="100.2" x2="214.0" y2="138.2" stroke="#16a34a" stroke-width="1"/><rect x="211.3" y="112.8" width="5.4" height="19.1" fill="#16a34a" opacity="0.82" rx="1"/>
<line x1="222.9" y1="109.3" x2="222.9" y2="129.1" stroke="#dc2626" stroke-width="1"/><rect x="220.2" y="112.8" width="5.4" height="13.7" fill="#dc2626" opacity="0.82" rx="1"/>
<line x1="231.8" y1="121.1" x2="231.8" y2="145.9" stroke="#dc2626" stroke-width="1"/><rect x="229.1" y="126.5" width="5.4" height="18.9" fill="#dc2626" opacity="0.82" rx="1"/>
<line x1="240.7" y1="117.8" x2="240.7" y2="146.2" stroke="#16a34a" stroke-width="1"/><rect x="237.9" y="125.1" width="5.4" height="20.2" fill="#16a34a" opacity="0.82" rx="1"/>
<line x1="249.5" y1="113.1" x2="249.5" y2="135.2" stroke="#16a34a" stroke-width="1"/><rect x="246.8" y="120.2" width="5.4" height="5.0" fill="#16a34a" opacity="0.82" rx="1"/>
<line x1="258.4" y1="88.8" x2="258.4" y2="122.3" stroke="#16a34a" stroke-width="1"/><rect x="255.7" y="101.8" width="5.4" height="18.4" fill="#16a34a" opacity="0.82" rx="1"/>
<line x1="267.3" y1="96.7" x2="267.3" y2="118.0" stroke="#16a34a" stroke-width="1"/><rect x="264.6" y="101.0" width="5.4" height="1.2" fill="#16a34a" opacity="0.82" rx="1"/>
<line x1="276.2" y1="97.7" x2="276.2" y2="111.0" stroke="#dc2626" stroke-width="1"/><rect x="273.4" y="101.0" width="5.4" height="8.2" fill="#dc2626" opacity="0.82" rx="1"/>
<line x1="285.0" y1="104.7" x2="285.0" y2="112.1" stroke="#16a34a" stroke-width="1"/><rect x="282.3" y="107.3" width="5.4" height="1.9" fill="#16a34a" opacity="0.82" rx="1"/>
<line x1="293.9" y1="93.2" x2="293.9" y2="110.3" stroke="#16a34a" stroke-width="1"/><rect x="291.2" y="97.0" width="5.4" height="10.2" fill="#16a34a" opacity="0.82" rx="1"/>
<line x1="302.8" y1="88.7" x2="302.8" y2="119.1" stroke="#dc2626" stroke-width="1"/><rect x="300.1" y="97.0" width="5.4" height="12.8" fill="#dc2626" opacity="0.82" rx="1"/>
<line x1="311.7" y1="108.6" x2="311.7" y2="126.7" stroke="#dc2626" stroke-width="1"/><rect x="308.9" y="109.8" width="5.4" height="10.3" fill="#dc2626" opacity="0.82" rx="1"/>
<line x1="320.5" y1="104.4" x2="320.5" y2="134.3" stroke="#dc2626" stroke-width="1"/><rect x="317.8" y="120.1" width="5.4" height="5.5" fill="#dc2626" opacity="0.82" rx="1"/>
<line x1="329.4" y1="116.8" x2="329.4" y2="130.3" stroke="#16a34a" stroke-width="1"/><rect x="326.7" y="120.0" width="5.4" height="5.5" fill="#16a34a" opacity="0.82" rx="1"/>
<line x1="338.3" y1="94.4" x2="338.3" y2="120.4" stroke="#16a34a" stroke-width="1"/><rect x="335.6" y="101.2" width="5.4" height="18.8" fill="#16a34a" opacity="0.82" rx="1"/>
<line x1="347.2" y1="91.8" x2="347.2" y2="103.4" stroke="#16a34a" stroke-width="1"/><rect x="344.4" y="96.7" width="5.4" height="4.6" fill="#16a34a" opacity="0.82" rx="1"/>
<line x1="356.0" y1="88.9" x2="356.0" y2="102.9" stroke="#dc2626" stroke-width="1"/><rect x="353.3" y="96.7" width="5.4" height="1.2" fill="#dc2626" opacity="0.82" rx="1"/>
<line x1="364.9" y1="75.6" x2="364.9" y2="101.9" stroke="#16a34a" stroke-width="1"/><rect x="362.2" y="85.0" width="5.4" height="12.9" fill="#16a34a" opacity="0.82" rx="1"/>
<line x1="373.8" y1="65.9" x2="373.8" y2="85.6" stroke="#16a34a" stroke-width="1"/><rect x="371.1" y="74.7" width="5.4" height="10.3" fill="#16a34a" opacity="0.82" rx="1"/>
<line x1="382.7" y1="55.1" x2="382.7" y2="76.8" stroke="#16a34a" stroke-width="1"/><rect x="380.0" y="69.4" width="5.4" height="5.3" fill="#16a34a" opacity="0.82" rx="1"/>
<line x1="391.6" y1="66.5" x2="391.6" y2="88.6" stroke="#dc2626" stroke-width="1"/><rect x="388.8" y="69.4" width="5.4" height="14.1" fill="#dc2626" opacity="0.82" rx="1"/>
<line x1="400.4" y1="78.5" x2="400.4" y2="91.8" stroke="#16a34a" stroke-width="1"/><rect x="397.7" y="81.7" width="5.4" height="1.8" fill="#16a34a" opacity="0.82" rx="1"/>
<line x1="409.3" y1="72.9" x2="409.3" y2="82.5" stroke="#16a34a" stroke-width="1"/><rect x="406.6" y="76.9" width="5.4" height="4.8" fill="#16a34a" opacity="0.82" rx="1"/>
<line x1="418.2" y1="58.8" x2="418.2" y2="81.0" stroke="#16a34a" stroke-width="1"/><rect x="415.5" y="61.6" width="5.4" height="15.4" fill="#16a34a" opacity="0.82" rx="1"/>
<line x1="427.1" y1="59.9" x2="427.1" y2="79.3" stroke="#dc2626" stroke-width="1"/><rect x="424.3" y="61.6" width="5.4" height="4.8" fill="#dc2626" opacity="0.82" rx="1"/>
<line x1="435.9" y1="65.8" x2="435.9" y2="85.2" stroke="#dc2626" stroke-width="1"/><rect x="433.2" y="66.3" width="5.4" height="12.3" fill="#dc2626" opacity="0.82" rx="1"/>
<line x1="444.8" y1="70.6" x2="444.8" y2="96.0" stroke="#dc2626" stroke-width="1"/><rect x="442.1" y="78.7" width="5.4" height="11.7" fill="#dc2626" opacity="0.82" rx="1"/>
<line x1="453.7" y1="63.4" x2="453.7" y2="94.5" stroke="#16a34a" stroke-width="1"/><rect x="451.0" y="72.8" width="5.4" height="17.5" fill="#16a34a" opacity="0.82" rx="1"/>
<line x1="462.6" y1="67.1" x2="462.6" y2="97.1" stroke="#dc2626" stroke-width="1"/><rect x="459.8" y="72.8" width="5.4" height="19.6" fill="#dc2626" opacity="0.82" rx="1"/>
<line x1="471.4" y1="91.2" x2="471.4" y2="107.1" stroke="#dc2626" stroke-width="1"/><rect x="468.7" y="92.5" width="5.4" height="9.6" fill="#dc2626" opacity="0.82" rx="1"/>
<line x1="480.3" y1="97.5" x2="480.3" y2="116.4" stroke="#dc2626" stroke-width="1"/><rect x="477.6" y="102.1" width="5.4" height="6.7" fill="#dc2626" opacity="0.82" rx="1"/>
<line x1="489.2" y1="105.6" x2="489.2" y2="122.9" stroke="#dc2626" stroke-width="1"/><rect x="486.5" y="108.8" width="5.4" height="4.6" fill="#dc2626" opacity="0.82" rx="1"/>
<line x1="498.1" y1="109.3" x2="498.1" y2="122.0" stroke="#dc2626" stroke-width="1"/><rect x="495.3" y="113.5" width="5.4" height="1.6" fill="#dc2626" opacity="0.82" rx="1"/>
<line x1="506.9" y1="104.9" x2="506.9" y2="118.2" stroke="#16a34a" stroke-width="1"/><rect x="504.2" y="108.0" width="5.4" height="7.1" fill="#16a34a" opacity="0.82" rx="1"/>
<line x1="515.8" y1="101.4" x2="515.8" y2="116.1" stroke="#16a34a" stroke-width="1"/><rect x="513.1" y="107.3" width="5.4" height="1.2" fill="#16a34a" opacity="0.82" rx="1"/>
<line x1="524.7" y1="104.5" x2="524.7" y2="129.8" stroke="#dc2626" stroke-width="1"/><rect x="522.0" y="107.3" width="5.4" height="20.6" fill="#dc2626" opacity="0.82" rx="1"/>
<line x1="533.6" y1="108.8" x2="533.6" y2="140.9" stroke="#16a34a" stroke-width="1"/><rect x="530.9" y="115.9" width="5.4" height="12.0" fill="#16a34a" opacity="0.82" rx="1"/>
<line x1="542.4" y1="107.1" x2="542.4" y2="122.5" stroke="#16a34a" stroke-width="1"/><rect x="539.7" y="112.8" width="5.4" height="3.1" fill="#16a34a" opacity="0.82" rx="1"/>
<line x1="551.3" y1="104.3" x2="551.3" y2="114.4" stroke="#16a34a" stroke-width="1"/><rect x="548.6" y="110.3" width="5.4" height="2.5" fill="#16a34a" opacity="0.82" rx="1"/>
<line x1="560.2" y1="102.4" x2="560.2" y2="126.6" stroke="#dc2626" stroke-width="1"/><rect x="557.5" y="110.3" width="5.4" height="13.7" fill="#dc2626" opacity="0.82" rx="1"/>
<line x1="569.1" y1="121.5" x2="569.1" y2="140.9" stroke="#dc2626" stroke-width="1"/><rect x="566.4" y="124.0" width="5.4" height="14.8" fill="#dc2626" opacity="0.82" rx="1"/>
<line x1="578.0" y1="137.3" x2="578.0" y2="157.3" stroke="#dc2626" stroke-width="1"/><rect x="575.2" y="138.8" width="5.4" height="8.2" fill="#dc2626" opacity="0.82" rx="1"/>
<line x1="586.8" y1="140.0" x2="586.8" y2="158.5" stroke="#dc2626" stroke-width="1"/><rect x="584.1" y="147.0" width="5.4" height="1.6" fill="#dc2626" opacity="0.82" rx="1"/>
<line x1="595.7" y1="141.9" x2="595.7" y2="151.6" stroke="#16a34a" stroke-width="1"/><rect x="593.0" y="144.4" width="5.4" height="4.3" fill="#16a34a" opacity="0.82" rx="1"/>
<line x1="604.6" y1="140.5" x2="604.6" y2="149.5" stroke="#dc2626" stroke-width="1"/><rect x="601.9" y="144.4" width="5.4" height="2.0" fill="#dc2626" opacity="0.82" rx="1"/>
<line x1="613.5" y1="142.2" x2="613.5" y2="176.3" stroke="#dc2626" stroke-width="1"/><rect x="610.7" y="146.4" width="5.4" height="22.5" fill="#dc2626" opacity="0.82" rx="1"/>
<line x1="622.3" y1="168.8" x2="622.3" y2="221.0" stroke="#dc2626" stroke-width="1"/><rect x="619.6" y="168.9" width="5.4" height="46.4" fill="#dc2626" opacity="0.82" rx="1"/>
<line x1="631.2" y1="207.7" x2="631.2" y2="241.9" stroke="#dc2626" stroke-width="1"/><rect x="628.5" y="215.3" width="5.4" height="26.0" fill="#dc2626" opacity="0.82" rx="1"/>
<line x1="640.1" y1="235.1" x2="640.1" y2="268.9" stroke="#dc2626" stroke-width="1"/><rect x="637.4" y="241.3" width="5.4" height="2.6" fill="#dc2626" opacity="0.82" rx="1"/>
<line x1="649.0" y1="242.9" x2="649.0" y2="291.4" stroke="#dc2626" stroke-width="1"/><rect x="646.2" y="243.9" width="5.4" height="28.2" fill="#dc2626" opacity="0.82" rx="1"/>
<line x1="657.8" y1="267.3" x2="657.8" y2="287.7" stroke="#dc2626" stroke-width="1"/><rect x="655.1" y="272.1" width="5.4" height="1.7" fill="#dc2626" opacity="0.82" rx="1"/>
<line x1="666.7" y1="240.0" x2="666.7" y2="275.2" stroke="#16a34a" stroke-width="1"/><rect x="664.0" y="249.4" width="5.4" height="24.4" fill="#16a34a" opacity="0.82" rx="1"/>
<line x1="675.6" y1="240.7" x2="675.6" y2="258.6" stroke="#dc2626" stroke-width="1"/><rect x="672.9" y="249.4" width="5.4" height="2.4" fill="#dc2626" opacity="0.82" rx="1"/>
<line x1="684.5" y1="247.4" x2="684.5" y2="274.7" stroke="#dc2626" stroke-width="1"/><rect x="681.8" y="251.8" width="5.4" height="13.6" fill="#dc2626" opacity="0.82" rx="1"/>
<line x1="693.3" y1="254.0" x2="693.3" y2="275.4" stroke="#dc2626" stroke-width="1"/><rect x="690.6" y="265.4" width="5.4" height="2.1" fill="#dc2626" opacity="0.82" rx="1"/>
<line x1="702.2" y1="243.3" x2="702.2" y2="267.5" stroke="#16a34a" stroke-width="1"/><rect x="699.5" y="246.4" width="5.4" height="21.0" fill="#16a34a" opacity="0.82" rx="1"/>
<line x1="711.1" y1="238.8" x2="711.1" y2="254.4" stroke="#dc2626" stroke-width="1"/><rect x="708.4" y="246.4" width="5.4" height="1.2" fill="#dc2626" opacity="0.82" rx="1"/>
<line x1="720.0" y1="235.1" x2="720.0" y2="248.8" stroke="#16a34a" stroke-width="1"/><rect x="717.3" y="238.3" width="5.4" height="8.7" fill="#16a34a" opacity="0.82" rx="1"/>
<line x1="728.9" y1="224.8" x2="728.9" y2="245.9" stroke="#16a34a" stroke-width="1"/><rect x="726.1" y="225.5" width="5.4" height="12.8" fill="#16a34a" opacity="0.82" rx="1"/>
<line x1="737.7" y1="210.1" x2="737.7" y2="229.4" stroke="#16a34a" stroke-width="1"/><rect x="735.0" y="219.7" width="5.4" height="5.8" fill="#16a34a" opacity="0.82" rx="1"/>
<line x1="746.6" y1="213.0" x2="746.6" y2="229.2" stroke="#dc2626" stroke-width="1"/><rect x="743.9" y="219.7" width="5.4" height="6.4" fill="#dc2626" opacity="0.82" rx="1"/>
<line x1="755.5" y1="218.4" x2="755.5" y2="243.6" stroke="#dc2626" stroke-width="1"/><rect x="752.8" y="226.1" width="5.4" height="11.7" fill="#dc2626" opacity="0.82" rx="1"/>
<line x1="764.4" y1="234.7" x2="764.4" y2="260.0" stroke="#dc2626" stroke-width="1"/><rect x="761.6" y="237.7" width="5.4" height="15.4" fill="#dc2626" opacity="0.82" rx="1"/>
<line x1="773.2" y1="246.0" x2="773.2" y2="260.0" stroke="#16a34a" stroke-width="1"/><rect x="770.5" y="247.3" width="5.4" height="5.9" fill="#16a34a" opacity="0.82" rx="1"/>
<line x1="782.1" y1="238.7" x2="782.1" y2="251.0" stroke="#16a34a" stroke-width="1"/><rect x="779.4" y="239.8" width="5.4" height="7.5" fill="#16a34a" opacity="0.82" rx="1"/>
<line x1="791.0" y1="236.8" x2="791.0" y2="250.2" stroke="#dc2626" stroke-width="1"/><rect x="788.3" y="239.8" width="5.4" height="9.8" fill="#dc2626" opacity="0.82" rx="1"/>
<line x1="799.9" y1="226.5" x2="799.9" y2="249.5" stroke="#16a34a" stroke-width="1"/><rect x="797.1" y="242.5" width="5.4" height="7.0" fill="#16a34a" opacity="0.82" rx="1"/>
<line x1="808.7" y1="240.0" x2="808.7" y2="263.6" stroke="#dc2626" stroke-width="1"/><rect x="806.0" y="242.5" width="5.4" height="12.9" fill="#dc2626" opacity="0.82" rx="1"/>
<line x1="817.6" y1="250.3" x2="817.6" y2="291.6" stroke="#dc2626" stroke-width="1"/><rect x="814.9" y="255.4" width="5.4" height="16.4" fill="#dc2626" opacity="0.82" rx="1"/>
<line x1="826.5" y1="263.0" x2="826.5" y2="301.8" stroke="#dc2626" stroke-width="1"/><rect x="823.8" y="271.8" width="5.4" height="12.7" fill="#dc2626" opacity="0.82" rx="1"/>
<line x1="835.4" y1="274.9" x2="835.4" y2="299.3" stroke="#16a34a" stroke-width="1"/><rect x="832.6" y="281.5" width="5.4" height="3.0" fill="#16a34a" opacity="0.82" rx="1"/>
<line x1="844.2" y1="273.0" x2="844.2" y2="284.0" stroke="#dc2626" stroke-width="1"/><rect x="841.5" y="281.5" width="5.4" height="1.2" fill="#dc2626" opacity="0.82" rx="1"/>
<line x1="853.1" y1="276.8" x2="853.1" y2="293.3" stroke="#dc2626" stroke-width="1"/><rect x="850.4" y="282.2" width="5.4" height="4.5" fill="#dc2626" opacity="0.82" rx="1"/>
<line x1="862.0" y1="286.6" x2="862.0" y2="288.6" stroke="#dc2626" stroke-width="1"/><rect x="859.3" y="286.7" width="5.4" height="1.4" fill="#dc2626" opacity="0.82" rx="1"/>
<line x1="72" y1="318.9" x2="862" y2="318.9" stroke="#16a34a" stroke-width="1.8" stroke-dasharray="6 4" /><rect x="874" y="298.9" width="166" height="23" rx="5" fill="#ffffff" stroke="#16a34a" opacity="0.97"/><text x="881" y="314.9" fill="#16a34a" font-size="15" font-weight="700">支撑 56,316</text>
<line x1="72" y1="236.9" x2="862" y2="236.9" stroke="#dc2626" stroke-width="1.8" stroke-dasharray="6 4" /><rect x="874" y="216.9" width="166" height="23" rx="5" fill="#ffffff" stroke="#dc2626" opacity="0.97"/><text x="881" y="232.9" fill="#dc2626" font-size="15" font-weight="700">压力 64,559</text>
<line x1="72" y1="288.1" x2="862" y2="288.1" stroke="#111827" stroke-width="1.8" stroke-dasharray="2 2" /><rect x="874" y="268.1" width="166" height="23" rx="5" fill="#ffffff" stroke="#111827" opacity="0.97"/><text x="881" y="284.1" fill="#111827" font-size="15" font-weight="700">现价 59,407</text>
<text x="72" y="396" fill="#16a34a" font-size="14" font-weight="700">日线做多计划</text><rect x="72" y="404" width="790" height="48" rx="6" fill="#f9fafb" stroke="#e5e7eb"/><line x1="94" y1="412" x2="840" y2="412" stroke="#16a34a" stroke-width="3"/><circle cx="132.0" cy="412" r="5" fill="#16a34a"/><text x="132.0" y="434" fill="#374151" font-size="12" text-anchor="middle">入场 止跌/突破回踩</text><circle cx="451.2" cy="412" r="5" fill="#16a34a"/><text x="451.2" y="434" fill="#374151" font-size="12" text-anchor="middle">止损 56,316</text><circle cx="712.0" cy="412" r="5" fill="#16a34a"/><text x="712.0" y="434" fill="#374151" font-size="12" text-anchor="middle">目标一 64,559</text><circle cx="814.0" cy="412" r="5" fill="#16a34a"/><text x="814.0" y="434" fill="#374151" font-size="12" text-anchor="middle">目标二 67,650</text>
<text x="72" y="482" fill="#dc2626" font-size="14" font-weight="700">日线做空计划</text><rect x="72" y="490" width="790" height="48" rx="6" fill="#f9fafb" stroke="#e5e7eb"/><line x1="94" y1="498" x2="840" y2="498" stroke="#dc2626" stroke-width="3"/><circle cx="132.0" cy="498" r="5" fill="#dc2626"/><text x="132.0" y="520" fill="#374151" font-size="12" text-anchor="middle">入场 反弹承压/破位回抽</text><circle cx="451.2" cy="498" r="5" fill="#dc2626"/><text x="451.2" y="520" fill="#374151" font-size="12" text-anchor="middle">止损 64,559</text><circle cx="712.0" cy="498" r="5" fill="#dc2626"/><text x="712.0" y="520" fill="#374151" font-size="12" text-anchor="middle">目标一 56,316</text><circle cx="814.0" cy="498" r="5" fill="#dc2626"/><text x="814.0" y="520" fill="#374151" font-size="12" text-anchor="middle">目标二 54,255</text>
</svg>