<svg xmlns="http://www.w3.org/2000/svg" width="1080" height="560" viewBox="0 0 1080 560">
<rect width="100%" height="100%" fill="#ffffff"/>
<text x="72" y="23" fill="#111827" font-size="21" font-weight="800">BTC 日线K线支撑压力图</text>
<text x="862" y="42" fill="#374151" font-size="15" text-anchor="end">最新价 59,928</text>
<line x1="72" y1="34" x2="72" y2="340" stroke="#d1d5db"/>
<line x1="72" y1="340" x2="862" y2="340" stroke="#d1d5db"/>
<line x1="72" y1="340.0" x2="862" y2="340.0" stroke="#f3f4f6"/>
<text x="8" y="345.0" fill="#4b5563" font-size="14">54,610</text>
<line x1="72" y1="263.5" x2="862" y2="263.5" stroke="#f3f4f6"/>
<text x="8" y="268.5" fill="#4b5563" font-size="14">62,187</text>
<line x1="72" y1="187.0" x2="862" y2="187.0" stroke="#f3f4f6"/>
<text x="8" y="192.0" fill="#4b5563" font-size="14">69,765</text>
<line x1="72" y1="110.5" x2="862" y2="110.5" stroke="#f3f4f6"/>
<text x="8" y="115.5" fill="#4b5563" font-size="14">77,342</text>
<line x1="72" y1="34.0" x2="862" y2="34.0" stroke="#f3f4f6"/>
<text x="8" y="39.0" fill="#4b5563" font-size="14">84,919</text>
<line x1="72.0" y1="191.8" x2="72.0" y2="209.5" stroke="#dc2626" stroke-width="1"/><rect x="69.3" y="202.4" width="5.4" height="1.6" fill="#dc2626" opacity="0.82" rx="1"/>
<line x1="80.9" y1="198.4" x2="80.9" y2="228.3" stroke="#dc2626" stroke-width="1"/><rect x="78.2" y="203.9" width="5.4" height="12.3" fill="#dc2626" opacity="0.82" rx="1"/>
<line x1="89.8" y1="211.4" x2="89.8" y2="222.6" stroke="#16a34a" stroke-width="1"/><rect x="87.0" y="215.6" width="5.4" height="1.2" fill="#16a34a" opacity="0.82" rx="1"/>
<line x1="98.6" y1="209.3" x2="98.6" y2="217.5" stroke="#16a34a" stroke-width="1"/><rect x="95.9" y="212.2" width="5.4" height="3.4" fill="#16a34a" opacity="0.82" rx="1"/>
<line x1="107.5" y1="193.6" x2="107.5" y2="219.2" stroke="#16a34a" stroke-width="1"/><rect x="104.8" y="194.7" width="5.4" height="17.4" fill="#16a34a" opacity="0.82" rx="1"/>
<line x1="116.4" y1="181.3" x2="116.4" y2="202.5" stroke="#dc2626" stroke-width="1"/><rect x="113.7" y="194.7" width="5.4" height="1.8" fill="#dc2626" opacity="0.82" rx="1"/>
<line x1="125.3" y1="156.9" x2="125.3" y2="207.7" stroke="#16a34a" stroke-width="1"/><rect x="122.5" y="165.5" width="5.4" height="31.0" fill="#16a34a" opacity="0.82" rx="1"/>
<line x1="134.1" y1="155.8" x2="134.1" y2="177.8" stroke="#dc2626" stroke-width="1"/><rect x="131.4" y="165.5" width="5.4" height="8.6" fill="#dc2626" opacity="0.82" rx="1"/>
<line x1="143.0" y1="153.0" x2="143.0" y2="180.3" stroke="#16a34a" stroke-width="1"/><rect x="140.3" y="167.0" width="5.4" height="7.2" fill="#16a34a" opacity="0.82" rx="1"/>
<line x1="151.9" y1="149.8" x2="151.9" y2="170.7" stroke="#16a34a" stroke-width="1"/><rect x="149.2" y="155.2" width="5.4" height="11.8" fill="#16a34a" opacity="0.82" rx="1"/>
<line x1="160.8" y1="146.5" x2="160.8" y2="159.9" stroke="#16a34a" stroke-width="1"/><rect x="158.0" y="154.2" width="5.4" height="1.2" fill="#16a34a" opacity="0.82" rx="1"/>
<line x1="169.6" y1="153.4" x2="169.6" y2="180.0" stroke="#dc2626" stroke-width="1"/><rect x="166.9" y="154.2" width="5.4" height="23.2" fill="#dc2626" opacity="0.82" rx="1"/>
<line x1="178.5" y1="135.5" x2="178.5" y2="179.4" stroke="#16a34a" stroke-width="1"/><rect x="175.8" y="140.4" width="5.4" height="37.1" fill="#16a34a" opacity="0.82" rx="1"/>
<line x1="187.4" y1="124.0" x2="187.4" y2="146.6" stroke="#dc2626" stroke-width="1"/><rect x="184.7" y="140.4" width="5.4" height="2.8" fill="#dc2626" opacity="0.82" rx="1"/>
<line x1="196.3" y1="129.8" x2="196.3" y2="149.8" stroke="#16a34a" stroke-width="1"/><rect x="193.5" y="136.4" width="5.4" height="6.8" fill="#16a34a" opacity="0.82" rx="1"/>
<line x1="205.1" y1="129.1" x2="205.1" y2="151.7" stroke="#16a34a" stroke-width="1"/><rect x="202.4" y="133.1" width="5.4" height="3.3" fill="#16a34a" opacity="0.82" rx="1"/>
<line x1="214.0" y1="100.8" x2="214.0" y2="139.4" stroke="#16a34a" stroke-width="1"/><rect x="211.3" y="113.6" width="5.4" height="19.4" fill="#16a34a" opacity="0.82" rx="1"/>
<line x1="222.9" y1="110.1" x2="222.9" y2="130.1" stroke="#dc2626" stroke-width="1"/><rect x="220.2" y="113.6" width="5.4" height="13.9" fill="#dc2626" opacity="0.82" rx="1"/>
<line x1="231.8" y1="122.0" x2="231.8" y2="147.3" stroke="#dc2626" stroke-width="1"/><rect x="229.1" y="127.5" width="5.4" height="19.1" fill="#dc2626" opacity="0.82" rx="1"/>
<line x1="240.7" y1="118.7" x2="240.7" y2="147.6" stroke="#16a34a" stroke-width="1"/><rect x="237.9" y="126.2" width="5.4" height="20.5" fill="#16a34a" opacity="0.82" rx="1"/>
<line x1="249.5" y1="114.0" x2="249.5" y2="136.4" stroke="#16a34a" stroke-width="1"/><rect x="246.8" y="121.1" width="5.4" height="5.0" fill="#16a34a" opacity="0.82" rx="1"/>
<line x1="258.4" y1="89.3" x2="258.4" y2="123.3" stroke="#16a34a" stroke-width="1"/><rect x="255.7" y="102.4" width="5.4" height="18.7" fill="#16a34a" opacity="0.82" rx="1"/>
<line x1="267.3" y1="97.3" x2="267.3" y2="119.0" stroke="#16a34a" stroke-width="1"/><rect x="264.6" y="101.7" width="5.4" height="1.2" fill="#16a34a" opacity="0.82" rx="1"/>
<line x1="276.2" y1="98.3" x2="276.2" y2="111.9" stroke="#dc2626" stroke-width="1"/><rect x="273.4" y="101.7" width="5.4" height="8.3" fill="#dc2626" opacity="0.82" rx="1"/>
<line x1="285.0" y1="105.4" x2="285.0" y2="112.9" stroke="#16a34a" stroke-width="1"/><rect x="282.3" y="108.0" width="5.4" height="1.9" fill="#16a34a" opacity="0.82" rx="1"/>
<line x1="293.9" y1="93.8" x2="293.9" y2="111.1" stroke="#16a34a" stroke-width="1"/><rect x="291.2" y="97.7" width="5.4" height="10.4" fill="#16a34a" opacity="0.82" rx="1"/>
<line x1="302.8" y1="89.2" x2="302.8" y2="120.0" stroke="#dc2626" stroke-width="1"/><rect x="300.1" y="97.7" width="5.4" height="13.0" fill="#dc2626" opacity="0.82" rx="1"/>
<line x1="311.7" y1="109.4" x2="311.7" y2="127.7" stroke="#dc2626" stroke-width="1"/><rect x="308.9" y="110.6" width="5.4" height="10.4" fill="#dc2626" opacity="0.82" rx="1"/>
<line x1="320.5" y1="105.1" x2="320.5" y2="135.5" stroke="#dc2626" stroke-width="1"/><rect x="317.8" y="121.0" width="5.4" height="5.5" fill="#dc2626" opacity="0.82" rx="1"/>
<line x1="329.4" y1="117.7" x2="329.4" y2="131.4" stroke="#16a34a" stroke-width="1"/><rect x="326.7" y="121.0" width="5.4" height="5.6" fill="#16a34a" opacity="0.82" rx="1"/>
<line x1="338.3" y1="95.0" x2="338.3" y2="121.4" stroke="#16a34a" stroke-width="1"/><rect x="335.6" y="101.9" width="5.4" height="19.0" fill="#16a34a" opacity="0.82" rx="1"/>
<line x1="347.2" y1="92.3" x2="347.2" y2="104.1" stroke="#16a34a" stroke-width="1"/><rect x="344.4" y="97.3" width="5.4" height="4.7" fill="#16a34a" opacity="0.82" rx="1"/>
<line x1="356.0" y1="89.4" x2="356.0" y2="103.6" stroke="#dc2626" stroke-width="1"/><rect x="353.3" y="97.3" width="5.4" height="1.2" fill="#dc2626" opacity="0.82" rx="1"/>
<line x1="364.9" y1="75.9" x2="364.9" y2="102.6" stroke="#16a34a" stroke-width="1"/><rect x="362.2" y="85.4" width="5.4" height="13.1" fill="#16a34a" opacity="0.82" rx="1"/>
<line x1="373.8" y1="66.0" x2="373.8" y2="86.1" stroke="#16a34a" stroke-width="1"/><rect x="371.1" y="75.0" width="5.4" height="10.5" fill="#16a34a" opacity="0.82" rx="1"/>
<line x1="382.7" y1="55.1" x2="382.7" y2="77.1" stroke="#16a34a" stroke-width="1"/><rect x="380.0" y="69.6" width="5.4" height="5.3" fill="#16a34a" opacity="0.82" rx="1"/>
<line x1="391.6" y1="66.7" x2="391.6" y2="89.1" stroke="#dc2626" stroke-width="1"/><rect x="388.8" y="69.6" width="5.4" height="14.3" fill="#dc2626" opacity="0.82" rx="1"/>
<line x1="400.4" y1="78.8" x2="400.4" y2="92.4" stroke="#16a34a" stroke-width="1"/><rect x="397.7" y="82.1" width="5.4" height="1.9" fill="#16a34a" opacity="0.82" rx="1"/>
<line x1="409.3" y1="73.1" x2="409.3" y2="82.9" stroke="#16a34a" stroke-width="1"/><rect x="406.6" y="77.3" width="5.4" height="4.8" fill="#16a34a" opacity="0.82" rx="1"/>
<line x1="418.2" y1="58.8" x2="418.2" y2="81.4" stroke="#16a34a" stroke-width="1"/><rect x="415.5" y="61.7" width="5.4" height="15.6" fill="#16a34a" opacity="0.82" rx="1"/>
<line x1="427.1" y1="59.9" x2="427.1" y2="79.7" stroke="#dc2626" stroke-width="1"/><rect x="424.3" y="61.7" width="5.4" height="4.8" fill="#dc2626" opacity="0.82" rx="1"/>
<line x1="435.9" y1="65.9" x2="435.9" y2="85.7" stroke="#dc2626" stroke-width="1"/><rect x="433.2" y="66.5" width="5.4" height="12.5" fill="#dc2626" opacity="0.82" rx="1"/>
<line x1="444.8" y1="70.8" x2="444.8" y2="96.6" stroke="#dc2626" stroke-width="1"/><rect x="442.1" y="79.0" width="5.4" height="11.8" fill="#dc2626" opacity="0.82" rx="1"/>
<line x1="453.7" y1="63.5" x2="453.7" y2="95.1" stroke="#16a34a" stroke-width="1"/><rect x="451.0" y="73.1" width="5.4" height="17.8" fill="#16a34a" opacity="0.82" rx="1"/>
<line x1="462.6" y1="67.3" x2="462.6" y2="97.7" stroke="#dc2626" stroke-width="1"/><rect x="459.8" y="73.1" width="5.4" height="19.9" fill="#dc2626" opacity="0.82" rx="1"/>
<line x1="471.4" y1="91.7" x2="471.4" y2="107.9" stroke="#dc2626" stroke-width="1"/><rect x="468.7" y="93.0" width="5.4" height="9.8" fill="#dc2626" opacity="0.82" rx="1"/>
<line x1="480.3" y1="98.2" x2="480.3" y2="117.3" stroke="#dc2626" stroke-width="1"/><rect x="477.6" y="102.8" width="5.4" height="6.8" fill="#dc2626" opacity="0.82" rx="1"/>
<line x1="489.2" y1="106.3" x2="489.2" y2="123.9" stroke="#dc2626" stroke-width="1"/><rect x="486.5" y="109.6" width="5.4" height="4.7" fill="#dc2626" opacity="0.82" rx="1"/>
<line x1="498.1" y1="110.1" x2="498.1" y2="123.0" stroke="#dc2626" stroke-width="1"/><rect x="495.3" y="114.3" width="5.4" height="1.6" fill="#dc2626" opacity="0.82" rx="1"/>
<line x1="506.9" y1="105.6" x2="506.9" y2="119.1" stroke="#16a34a" stroke-width="1"/><rect x="504.2" y="108.8" width="5.4" height="7.2" fill="#16a34a" opacity="0.82" rx="1"/>
<line x1="515.8" y1="102.0" x2="515.8" y2="117.0" stroke="#16a34a" stroke-width="1"/><rect x="513.1" y="108.0" width="5.4" height="1.2" fill="#16a34a" opacity="0.82" rx="1"/>
<line x1="524.7" y1="105.2" x2="524.7" y2="130.9" stroke="#dc2626" stroke-width="1"/><rect x="522.0" y="108.0" width="5.4" height="20.9" fill="#dc2626" opacity="0.82" rx="1"/>
<line x1="533.6" y1="109.6" x2="533.6" y2="142.2" stroke="#16a34a" stroke-width="1"/><rect x="530.9" y="116.8" width="5.4" height="12.1" fill="#16a34a" opacity="0.82" rx="1"/>
<line x1="542.4" y1="107.9" x2="542.4" y2="123.5" stroke="#16a34a" stroke-width="1"/><rect x="539.7" y="113.6" width="5.4" height="3.2" fill="#16a34a" opacity="0.82" rx="1"/>
<line x1="551.3" y1="105.0" x2="551.3" y2="115.2" stroke="#16a34a" stroke-width="1"/><rect x="548.6" y="111.1" width="5.4" height="2.5" fill="#16a34a" opacity="0.82" rx="1"/>
<line x1="560.2" y1="103.1" x2="560.2" y2="127.7" stroke="#dc2626" stroke-width="1"/><rect x="557.5" y="111.1" width="5.4" height="13.9" fill="#dc2626" opacity="0.82" rx="1"/>
<line x1="569.1" y1="122.5" x2="569.1" y2="142.1" stroke="#dc2626" stroke-width="1"/><rect x="566.4" y="125.0" width="5.4" height="15.0" fill="#dc2626" opacity="0.82" rx="1"/>
<line x1="578.0" y1="138.5" x2="578.0" y2="158.8" stroke="#dc2626" stroke-width="1"/><rect x="575.2" y="140.0" width="5.4" height="8.3" fill="#dc2626" opacity="0.82" rx="1"/>
<line x1="586.8" y1="141.3" x2="586.8" y2="160.0" stroke="#dc2626" stroke-width="1"/><rect x="584.1" y="148.4" width="5.4" height="1.6" fill="#dc2626" opacity="0.82" rx="1"/>
<line x1="595.7" y1="143.1" x2="595.7" y2="153.0" stroke="#16a34a" stroke-width="1"/><rect x="593.0" y="145.7" width="5.4" height="4.3" fill="#16a34a" opacity="0.82" rx="1"/>
<line x1="604.6" y1="141.7" x2="604.6" y2="150.9" stroke="#dc2626" stroke-width="1"/><rect x="601.9" y="145.7" width="5.4" height="2.1" fill="#dc2626" opacity="0.82" rx="1"/>
<line x1="613.5" y1="143.5" x2="613.5" y2="178.1" stroke="#dc2626" stroke-width="1"/><rect x="610.7" y="147.7" width="5.4" height="22.8" fill="#dc2626" opacity="0.82" rx="1"/>
<line x1="622.3" y1="170.5" x2="622.3" y2="223.5" stroke="#dc2626" stroke-width="1"/><rect x="619.6" y="170.6" width="5.4" height="47.1" fill="#dc2626" opacity="0.82" rx="1"/>
<line x1="631.2" y1="209.9" x2="631.2" y2="244.7" stroke="#dc2626" stroke-width="1"/><rect x="628.5" y="217.6" width="5.4" height="26.4" fill="#dc2626" opacity="0.82" rx="1"/>
<line x1="640.1" y1="237.7" x2="640.1" y2="272.0" stroke="#dc2626" stroke-width="1"/><rect x="637.4" y="244.0" width="5.4" height="2.7" fill="#dc2626" opacity="0.82" rx="1"/>
<line x1="649.0" y1="245.7" x2="649.0" y2="294.9" stroke="#dc2626" stroke-width="1"/><rect x="646.2" y="246.7" width="5.4" height="28.6" fill="#dc2626" opacity="0.82" rx="1"/>
<line x1="657.8" y1="270.4" x2="657.8" y2="291.1" stroke="#dc2626" stroke-width="1"/><rect x="655.1" y="275.3" width="5.4" height="1.7" fill="#dc2626" opacity="0.82" rx="1"/>
<line x1="666.7" y1="242.7" x2="666.7" y2="278.4" stroke="#16a34a" stroke-width="1"/><rect x="664.0" y="252.3" width="5.4" height="24.7" fill="#16a34a" opacity="0.82" rx="1"/>
<line x1="675.6" y1="243.4" x2="675.6" y2="261.6" stroke="#dc2626" stroke-width="1"/><rect x="672.9" y="252.3" width="5.4" height="2.4" fill="#dc2626" opacity="0.82" rx="1"/>
<line x1="684.5" y1="250.2" x2="684.5" y2="278.0" stroke="#dc2626" stroke-width="1"/><rect x="681.8" y="254.7" width="5.4" height="13.8" fill="#dc2626" opacity="0.82" rx="1"/>
<line x1="693.3" y1="256.9" x2="693.3" y2="278.6" stroke="#dc2626" stroke-width="1"/><rect x="690.6" y="268.5" width="5.4" height="2.1" fill="#dc2626" opacity="0.82" rx="1"/>
<line x1="702.2" y1="246.1" x2="702.2" y2="270.6" stroke="#16a34a" stroke-width="1"/><rect x="699.5" y="249.3" width="5.4" height="21.3" fill="#16a34a" opacity="0.82" rx="1"/>
<line x1="711.1" y1="241.5" x2="711.1" y2="257.3" stroke="#dc2626" stroke-width="1"/><rect x="708.4" y="249.3" width="5.4" height="1.2" fill="#dc2626" opacity="0.82" rx="1"/>
<line x1="720.0" y1="237.7" x2="720.0" y2="251.7" stroke="#16a34a" stroke-width="1"/><rect x="717.3" y="241.0" width="5.4" height="8.8" fill="#16a34a" opacity="0.82" rx="1"/>
<line x1="728.9" y1="227.3" x2="728.9" y2="248.7" stroke="#16a34a" stroke-width="1"/><rect x="726.1" y="228.0" width="5.4" height="13.0" fill="#16a34a" opacity="0.82" rx="1"/>
<line x1="737.7" y1="212.3" x2="737.7" y2="231.9" stroke="#16a34a" stroke-width="1"/><rect x="735.0" y="222.1" width="5.4" height="5.9" fill="#16a34a" opacity="0.82" rx="1"/>
<line x1="746.6" y1="215.3" x2="746.6" y2="231.8" stroke="#dc2626" stroke-width="1"/><rect x="743.9" y="222.1" width="5.4" height="6.5" fill="#dc2626" opacity="0.82" rx="1"/>
<line x1="755.5" y1="220.8" x2="755.5" y2="246.4" stroke="#dc2626" stroke-width="1"/><rect x="752.8" y="228.6" width="5.4" height="11.8" fill="#dc2626" opacity="0.82" rx="1"/>
<line x1="764.4" y1="237.3" x2="764.4" y2="263.0" stroke="#dc2626" stroke-width="1"/><rect x="761.6" y="240.4" width="5.4" height="15.6" fill="#dc2626" opacity="0.82" rx="1"/>
<line x1="773.2" y1="248.8" x2="773.2" y2="263.0" stroke="#16a34a" stroke-width="1"/><rect x="770.5" y="250.1" width="5.4" height="5.9" fill="#16a34a" opacity="0.82" rx="1"/>
<line x1="782.1" y1="241.5" x2="782.1" y2="253.9" stroke="#16a34a" stroke-width="1"/><rect x="779.4" y="242.5" width="5.4" height="7.6" fill="#16a34a" opacity="0.82" rx="1"/>
<line x1="791.0" y1="239.5" x2="791.0" y2="253.1" stroke="#dc2626" stroke-width="1"/><rect x="788.3" y="242.5" width="5.4" height="9.9" fill="#dc2626" opacity="0.82" rx="1"/>
<line x1="799.9" y1="229.1" x2="799.9" y2="252.4" stroke="#16a34a" stroke-width="1"/><rect x="797.1" y="245.3" width="5.4" height="7.1" fill="#16a34a" opacity="0.82" rx="1"/>
<line x1="808.7" y1="242.7" x2="808.7" y2="266.7" stroke="#dc2626" stroke-width="1"/><rect x="806.0" y="245.3" width="5.4" height="13.1" fill="#dc2626" opacity="0.82" rx="1"/>
<line x1="817.6" y1="253.2" x2="817.6" y2="295.1" stroke="#dc2626" stroke-width="1"/><rect x="814.9" y="258.4" width="5.4" height="16.6" fill="#dc2626" opacity="0.82" rx="1"/>
<line x1="826.5" y1="266.1" x2="826.5" y2="305.5" stroke="#dc2626" stroke-width="1"/><rect x="823.8" y="275.0" width="5.4" height="12.9" fill="#dc2626" opacity="0.82" rx="1"/>
<line x1="835.4" y1="278.2" x2="835.4" y2="302.9" stroke="#16a34a" stroke-width="1"/><rect x="832.6" y="284.9" width="5.4" height="3.0" fill="#16a34a" opacity="0.82" rx="1"/>
<line x1="844.2" y1="276.2" x2="844.2" y2="287.4" stroke="#dc2626" stroke-width="1"/><rect x="841.5" y="284.9" width="5.4" height="1.2" fill="#dc2626" opacity="0.82" rx="1"/>
<line x1="853.1" y1="280.1" x2="853.1" y2="296.8" stroke="#dc2626" stroke-width="1"/><rect x="850.4" y="285.6" width="5.4" height="4.5" fill="#dc2626" opacity="0.82" rx="1"/>
<line x1="862.0" y1="282.3" x2="862.0" y2="297.2" stroke="#16a34a" stroke-width="1"/><rect x="859.3" y="286.3" width="5.4" height="3.8" fill="#16a34a" opacity="0.82" rx="1"/>
<line x1="72" y1="318.9" x2="862" y2="318.9" stroke="#16a34a" stroke-width="1.8" stroke-dasharray="6 4" /><rect x="874" y="298.9" width="166" height="23" rx="5" fill="#ffffff" stroke="#16a34a" opacity="0.97"/><text x="881" y="314.9" fill="#16a34a" font-size="15" font-weight="700">支撑 56,700</text>
<line x1="72" y1="232.0" x2="862" y2="232.0" stroke="#dc2626" stroke-width="1.8" stroke-dasharray="6 4" /><rect x="874" y="212.0" width="166" height="23" rx="5" fill="#ffffff" stroke="#dc2626" opacity="0.97"/><text x="881" y="228.0" fill="#dc2626" font-size="15" font-weight="700">压力 65,307</text>
<line x1="72" y1="286.3" x2="862" y2="286.3" stroke="#111827" stroke-width="1.8" stroke-dasharray="2 2" /><rect x="874" y="266.3" width="166" height="23" rx="5" fill="#ffffff" stroke="#111827" opacity="0.97"/><text x="881" y="282.3" fill="#111827" font-size="15" font-weight="700">现价 59,928</text>
<text x="72" y="396" fill="#16a34a" font-size="14" font-weight="700">日线做多计划</text><rect x="72" y="404" width="790" height="48" rx="6" fill="#f9fafb" stroke="#e5e7eb"/><line x1="94" y1="412" x2="840" y2="412" stroke="#16a34a" stroke-width="3"/><circle cx="132.0" cy="412" r="5" fill="#16a34a"/><text x="132.0" y="434" fill="#374151" font-size="12" text-anchor="middle">入场 止跌/突破回踩</text><circle cx="451.2" cy="412" r="5" fill="#16a34a"/><text x="451.2" y="434" fill="#374151" font-size="12" text-anchor="middle">止损 56,700</text><circle cx="712.0" cy="412" r="5" fill="#16a34a"/><text x="712.0" y="434" fill="#374151" font-size="12" text-anchor="middle">目标一 65,307</text><circle cx="814.0" cy="412" r="5" fill="#16a34a"/><text x="814.0" y="434" fill="#374151" font-size="12" text-anchor="middle">目标二 68,535</text>
<text x="72" y="482" fill="#dc2626" font-size="14" font-weight="700">日线做空计划</text><rect x="72" y="490" width="790" height="48" rx="6" fill="#f9fafb" stroke="#e5e7eb"/><line x1="94" y1="498" x2="840" y2="498" stroke="#dc2626" stroke-width="3"/><circle cx="132.0" cy="498" r="5" fill="#dc2626"/><text x="132.0" y="520" fill="#374151" font-size="12" text-anchor="middle">入场 反弹承压/破位回抽</text><circle cx="451.2" cy="498" r="5" fill="#dc2626"/><text x="451.2" y="520" fill="#374151" font-size="12" text-anchor="middle">止损 65,307</text><circle cx="712.0" cy="498" r="5" fill="#dc2626"/><text x="712.0" y="520" fill="#374151" font-size="12" text-anchor="middle">目标一 56,700</text><circle cx="814.0" cy="498" r="5" fill="#dc2626"/><text x="814.0" y="520" fill="#374151" font-size="12" text-anchor="middle">目标二 54,549</text>
</svg>