<svg xmlns="http://www.w3.org/2000/svg" width="1080" height="560" viewBox="0 0 1080 560">
<rect width="100%" height="100%" fill="#ffffff"/>
<text x="72" y="23" fill="#111827" font-size="21" font-weight="800">DRAM 小时线K线支撑压力图</text>
<text x="862" y="42" fill="#374151" font-size="15" text-anchor="end">最新价 71.88</text>
<line x1="72" y1="34" x2="72" y2="340" stroke="#d1d5db"/>
<line x1="72" y1="340" x2="862" y2="340" stroke="#d1d5db"/>
<line x1="72" y1="340.0" x2="862" y2="340.0" stroke="#f3f4f6"/>
<text x="8" y="345.0" fill="#4b5563" font-size="14">69.87</text>
<line x1="72" y1="263.5" x2="862" y2="263.5" stroke="#f3f4f6"/>
<text x="8" y="268.5" fill="#4b5563" font-size="14">72.56</text>
<line x1="72" y1="187.0" x2="862" y2="187.0" stroke="#f3f4f6"/>
<text x="8" y="192.0" fill="#4b5563" font-size="14">75.25</text>
<line x1="72" y1="110.5" x2="862" y2="110.5" stroke="#f3f4f6"/>
<text x="8" y="115.5" fill="#4b5563" font-size="14">77.94</text>
<line x1="72" y1="34.0" x2="862" y2="34.0" stroke="#f3f4f6"/>
<text x="8" y="39.0" fill="#4b5563" font-size="14">80.63</text>
<line x1="72.0" y1="77.3" x2="72.0" y2="94.6" stroke="#16a34a" stroke-width="1"/><rect x="69.3" y="86.1" width="5.4" height="7.1" fill="#16a34a" opacity="0.82" rx="1"/>
<line x1="80.9" y1="73.3" x2="80.9" y2="105.4" stroke="#dc2626" stroke-width="1"/><rect x="78.2" y="85.8" width="5.4" height="15.4" fill="#dc2626" opacity="0.82" rx="1"/>
<line x1="89.8" y1="87.2" x2="89.8" y2="106.6" stroke="#16a34a" stroke-width="1"/><rect x="87.0" y="98.9" width="5.4" height="2.3" fill="#16a34a" opacity="0.82" rx="1"/>
<line x1="98.6" y1="75.0" x2="98.6" y2="100.0" stroke="#16a34a" stroke-width="1"/><rect x="95.9" y="81.8" width="5.4" height="17.1" fill="#16a34a" opacity="0.82" rx="1"/>
<line x1="107.5" y1="67.6" x2="107.5" y2="93.2" stroke="#dc2626" stroke-width="1"/><rect x="104.8" y="81.6" width="5.4" height="8.5" fill="#dc2626" opacity="0.82" rx="1"/>
<line x1="116.4" y1="55.1" x2="116.4" y2="96.9" stroke="#16a34a" stroke-width="1"/><rect x="113.7" y="62.5" width="5.4" height="27.6" fill="#16a34a" opacity="0.82" rx="1"/>
<line x1="125.3" y1="59.1" x2="125.3" y2="236.3" stroke="#dc2626" stroke-width="1"/><rect x="122.5" y="62.5" width="5.4" height="171.8" fill="#dc2626" opacity="0.82" rx="1"/>
<line x1="134.1" y1="151.8" x2="134.1" y2="233.7" stroke="#16a34a" stroke-width="1"/><rect x="131.4" y="161.8" width="5.4" height="72.0" fill="#16a34a" opacity="0.82" rx="1"/>
<line x1="143.0" y1="141.6" x2="143.0" y2="194.2" stroke="#16a34a" stroke-width="1"/><rect x="140.3" y="158.6" width="5.4" height="3.1" fill="#16a34a" opacity="0.82" rx="1"/>
<line x1="151.9" y1="119.4" x2="151.9" y2="160.9" stroke="#16a34a" stroke-width="1"/><rect x="149.2" y="136.5" width="5.4" height="22.2" fill="#16a34a" opacity="0.82" rx="1"/>
<line x1="160.8" y1="114.8" x2="160.8" y2="143.0" stroke="#16a34a" stroke-width="1"/><rect x="158.0" y="116.3" width="5.4" height="20.2" fill="#16a34a" opacity="0.82" rx="1"/>
<line x1="169.6" y1="115.1" x2="169.6" y2="147.0" stroke="#dc2626" stroke-width="1"/><rect x="166.9" y="116.5" width="5.4" height="13.1" fill="#dc2626" opacity="0.82" rx="1"/>
<line x1="178.5" y1="128.8" x2="178.5" y2="164.0" stroke="#dc2626" stroke-width="1"/><rect x="175.8" y="129.1" width="5.4" height="1.7" fill="#dc2626" opacity="0.82" rx="1"/>
<line x1="187.4" y1="116.3" x2="187.4" y2="147.3" stroke="#dc2626" stroke-width="1"/><rect x="184.7" y="131.3" width="5.4" height="4.3" fill="#dc2626" opacity="0.82" rx="1"/>
<line x1="196.3" y1="130.8" x2="196.3" y2="151.0" stroke="#dc2626" stroke-width="1"/><rect x="193.5" y="135.6" width="5.4" height="12.8" fill="#dc2626" opacity="0.82" rx="1"/>
<line x1="205.1" y1="146.7" x2="205.1" y2="179.1" stroke="#dc2626" stroke-width="1"/><rect x="202.4" y="147.8" width="5.4" height="10.2" fill="#dc2626" opacity="0.82" rx="1"/>
<line x1="214.0" y1="129.9" x2="214.0" y2="163.5" stroke="#16a34a" stroke-width="1"/><rect x="211.3" y="151.0" width="5.4" height="7.1" fill="#16a34a" opacity="0.82" rx="1"/>
<line x1="222.9" y1="141.3" x2="222.9" y2="217.5" stroke="#dc2626" stroke-width="1"/><rect x="220.2" y="150.7" width="5.4" height="44.9" fill="#dc2626" opacity="0.82" rx="1"/>
<line x1="231.8" y1="179.1" x2="231.8" y2="224.3" stroke="#dc2626" stroke-width="1"/><rect x="229.1" y="195.6" width="5.4" height="23.6" fill="#dc2626" opacity="0.82" rx="1"/>
<line x1="240.7" y1="215.5" x2="240.7" y2="291.2" stroke="#dc2626" stroke-width="1"/><rect x="237.9" y="218.9" width="5.4" height="54.0" fill="#dc2626" opacity="0.82" rx="1"/>
<line x1="249.5" y1="254.2" x2="249.5" y2="308.0" stroke="#16a34a" stroke-width="1"/><rect x="246.8" y="255.9" width="5.4" height="17.4" fill="#16a34a" opacity="0.82" rx="1"/>
<line x1="258.4" y1="246.0" x2="258.4" y2="298.6" stroke="#dc2626" stroke-width="1"/><rect x="255.7" y="255.1" width="5.4" height="31.0" fill="#dc2626" opacity="0.82" rx="1"/>
<line x1="267.3" y1="223.2" x2="267.3" y2="287.8" stroke="#16a34a" stroke-width="1"/><rect x="264.6" y="268.1" width="5.4" height="17.9" fill="#16a34a" opacity="0.82" rx="1"/>
<line x1="276.2" y1="213.2" x2="276.2" y2="281.2" stroke="#16a34a" stroke-width="1"/><rect x="273.4" y="222.1" width="5.4" height="46.1" fill="#16a34a" opacity="0.82" rx="1"/>
<line x1="285.0" y1="205.0" x2="285.0" y2="228.6" stroke="#16a34a" stroke-width="1"/><rect x="282.3" y="215.0" width="5.4" height="6.8" fill="#16a34a" opacity="0.82" rx="1"/>
<line x1="293.9" y1="213.0" x2="293.9" y2="256.2" stroke="#dc2626" stroke-width="1"/><rect x="291.2" y="214.1" width="5.4" height="27.0" fill="#dc2626" opacity="0.82" rx="1"/>
<line x1="302.8" y1="237.1" x2="302.8" y2="257.6" stroke="#dc2626" stroke-width="1"/><rect x="300.1" y="241.1" width="5.4" height="11.1" fill="#dc2626" opacity="0.82" rx="1"/>
<line x1="311.7" y1="246.5" x2="311.7" y2="264.4" stroke="#dc2626" stroke-width="1"/><rect x="308.9" y="252.5" width="5.4" height="1.2" fill="#dc2626" opacity="0.82" rx="1"/>
<line x1="320.5" y1="232.0" x2="320.5" y2="260.2" stroke="#16a34a" stroke-width="1"/><rect x="317.8" y="250.2" width="5.4" height="2.6" fill="#16a34a" opacity="0.82" rx="1"/>
<line x1="329.4" y1="241.1" x2="329.4" y2="276.4" stroke="#dc2626" stroke-width="1"/><rect x="326.7" y="249.9" width="5.4" height="22.8" fill="#dc2626" opacity="0.82" rx="1"/>
<line x1="338.3" y1="234.9" x2="338.3" y2="303.7" stroke="#16a34a" stroke-width="1"/><rect x="335.6" y="238.8" width="5.4" height="33.6" fill="#16a34a" opacity="0.82" rx="1"/>
<line x1="347.2" y1="198.5" x2="347.2" y2="251.1" stroke="#dc2626" stroke-width="1"/><rect x="344.4" y="238.6" width="5.4" height="3.7" fill="#dc2626" opacity="0.82" rx="1"/>
<line x1="356.0" y1="214.4" x2="356.0" y2="261.3" stroke="#16a34a" stroke-width="1"/><rect x="353.3" y="234.3" width="5.4" height="7.4" fill="#16a34a" opacity="0.82" rx="1"/>
<line x1="364.9" y1="209.6" x2="364.9" y2="239.4" stroke="#16a34a" stroke-width="1"/><rect x="362.2" y="217.2" width="5.4" height="17.1" fill="#16a34a" opacity="0.82" rx="1"/>
<line x1="373.8" y1="205.0" x2="373.8" y2="231.7" stroke="#dc2626" stroke-width="1"/><rect x="371.1" y="216.9" width="5.4" height="10.8" fill="#dc2626" opacity="0.82" rx="1"/>
<line x1="382.7" y1="226.0" x2="382.7" y2="262.7" stroke="#dc2626" stroke-width="1"/><rect x="380.0" y="227.8" width="5.4" height="31.0" fill="#dc2626" opacity="0.82" rx="1"/>
<line x1="391.6" y1="242.8" x2="391.6" y2="281.8" stroke="#dc2626" stroke-width="1"/><rect x="388.8" y="258.8" width="5.4" height="21.6" fill="#dc2626" opacity="0.82" rx="1"/>
<line x1="400.4" y1="266.4" x2="400.4" y2="287.2" stroke="#16a34a" stroke-width="1"/><rect x="397.7" y="275.3" width="5.4" height="5.4" fill="#16a34a" opacity="0.82" rx="1"/>
<line x1="409.3" y1="268.7" x2="409.3" y2="289.8" stroke="#16a34a" stroke-width="1"/><rect x="406.6" y="274.4" width="5.4" height="1.2" fill="#16a34a" opacity="0.82" rx="1"/>
<line x1="418.2" y1="270.4" x2="418.2" y2="284.9" stroke="#dc2626" stroke-width="1"/><rect x="415.5" y="274.4" width="5.4" height="1.2" fill="#dc2626" opacity="0.82" rx="1"/>
<line x1="427.1" y1="255.1" x2="427.1" y2="275.8" stroke="#16a34a" stroke-width="1"/><rect x="424.3" y="270.4" width="5.4" height="4.8" fill="#16a34a" opacity="0.82" rx="1"/>
<line x1="435.9" y1="263.3" x2="435.9" y2="278.7" stroke="#dc2626" stroke-width="1"/><rect x="433.2" y="270.1" width="5.4" height="1.2" fill="#dc2626" opacity="0.82" rx="1"/>
<line x1="444.8" y1="258.5" x2="444.8" y2="275.5" stroke="#16a34a" stroke-width="1"/><rect x="442.1" y="267.0" width="5.4" height="4.3" fill="#16a34a" opacity="0.82" rx="1"/>
<line x1="453.7" y1="245.4" x2="453.7" y2="276.1" stroke="#dc2626" stroke-width="1"/><rect x="451.0" y="267.0" width="5.4" height="8.0" fill="#dc2626" opacity="0.82" rx="1"/>
<line x1="462.6" y1="251.9" x2="462.6" y2="276.4" stroke="#16a34a" stroke-width="1"/><rect x="459.8" y="265.0" width="5.4" height="10.0" fill="#16a34a" opacity="0.82" rx="1"/>
<line x1="471.4" y1="253.9" x2="471.4" y2="265.9" stroke="#16a34a" stroke-width="1"/><rect x="468.7" y="263.9" width="5.4" height="1.2" fill="#16a34a" opacity="0.82" rx="1"/>
<line x1="480.3" y1="255.9" x2="480.3" y2="265.9" stroke="#16a34a" stroke-width="1"/><rect x="477.6" y="263.0" width="5.4" height="1.2" fill="#16a34a" opacity="0.82" rx="1"/>
<line x1="489.2" y1="254.2" x2="489.2" y2="267.9" stroke="#16a34a" stroke-width="1"/><rect x="486.5" y="258.8" width="5.4" height="4.3" fill="#16a34a" opacity="0.82" rx="1"/>
<line x1="498.1" y1="255.9" x2="498.1" y2="265.3" stroke="#16a34a" stroke-width="1"/><rect x="495.3" y="257.6" width="5.4" height="1.4" fill="#16a34a" opacity="0.82" rx="1"/>
<line x1="506.9" y1="256.8" x2="506.9" y2="273.8" stroke="#dc2626" stroke-width="1"/><rect x="504.2" y="257.3" width="5.4" height="12.5" fill="#dc2626" opacity="0.82" rx="1"/>
<line x1="515.8" y1="263.9" x2="515.8" y2="273.5" stroke="#16a34a" stroke-width="1"/><rect x="513.1" y="266.4" width="5.4" height="3.7" fill="#16a34a" opacity="0.82" rx="1"/>
<line x1="524.7" y1="261.0" x2="524.7" y2="267.0" stroke="#16a34a" stroke-width="1"/><rect x="522.0" y="262.7" width="5.4" height="3.7" fill="#16a34a" opacity="0.82" rx="1"/>
<line x1="533.6" y1="261.9" x2="533.6" y2="268.7" stroke="#dc2626" stroke-width="1"/><rect x="530.9" y="262.7" width="5.4" height="5.1" fill="#dc2626" opacity="0.82" rx="1"/>
<line x1="542.4" y1="261.9" x2="542.4" y2="270.1" stroke="#16a34a" stroke-width="1"/><rect x="539.7" y="262.5" width="5.4" height="4.8" fill="#16a34a" opacity="0.82" rx="1"/>
<line x1="551.3" y1="251.9" x2="551.3" y2="265.3" stroke="#16a34a" stroke-width="1"/><rect x="548.6" y="253.4" width="5.4" height="9.1" fill="#16a34a" opacity="0.82" rx="1"/>
<line x1="560.2" y1="252.2" x2="560.2" y2="268.1" stroke="#dc2626" stroke-width="1"/><rect x="557.5" y="253.1" width="5.4" height="11.7" fill="#dc2626" opacity="0.82" rx="1"/>
<line x1="569.1" y1="257.6" x2="569.1" y2="266.7" stroke="#16a34a" stroke-width="1"/><rect x="566.4" y="262.2" width="5.4" height="2.8" fill="#16a34a" opacity="0.82" rx="1"/>
<line x1="578.0" y1="261.9" x2="578.0" y2="271.6" stroke="#dc2626" stroke-width="1"/><rect x="575.2" y="262.2" width="5.4" height="5.4" fill="#dc2626" opacity="0.82" rx="1"/>
<line x1="586.8" y1="266.4" x2="586.8" y2="275.0" stroke="#dc2626" stroke-width="1"/><rect x="584.1" y="267.3" width="5.4" height="5.1" fill="#dc2626" opacity="0.82" rx="1"/>
<line x1="595.7" y1="264.2" x2="595.7" y2="272.4" stroke="#16a34a" stroke-width="1"/><rect x="593.0" y="265.0" width="5.4" height="7.4" fill="#16a34a" opacity="0.82" rx="1"/>
<line x1="604.6" y1="259.3" x2="604.6" y2="273.0" stroke="#dc2626" stroke-width="1"/><rect x="601.9" y="264.7" width="5.4" height="6.8" fill="#dc2626" opacity="0.82" rx="1"/>
<line x1="613.5" y1="259.0" x2="613.5" y2="271.6" stroke="#16a34a" stroke-width="1"/><rect x="610.7" y="264.2" width="5.4" height="7.4" fill="#16a34a" opacity="0.82" rx="1"/>
<line x1="622.3" y1="255.9" x2="622.3" y2="265.9" stroke="#dc2626" stroke-width="1"/><rect x="619.6" y="264.2" width="5.4" height="1.2" fill="#dc2626" opacity="0.82" rx="1"/>
<line x1="631.2" y1="263.3" x2="631.2" y2="275.3" stroke="#dc2626" stroke-width="1"/><rect x="628.5" y="265.3" width="5.4" height="6.8" fill="#dc2626" opacity="0.82" rx="1"/>
<line x1="640.1" y1="264.7" x2="640.1" y2="275.0" stroke="#16a34a" stroke-width="1"/><rect x="637.4" y="272.1" width="5.4" height="1.2" fill="#16a34a" opacity="0.82" rx="1"/>
<line x1="649.0" y1="263.6" x2="649.0" y2="287.2" stroke="#dc2626" stroke-width="1"/><rect x="646.2" y="272.1" width="5.4" height="14.8" fill="#dc2626" opacity="0.82" rx="1"/>
<line x1="657.8" y1="274.4" x2="657.8" y2="290.3" stroke="#16a34a" stroke-width="1"/><rect x="655.1" y="275.3" width="5.4" height="12.2" fill="#16a34a" opacity="0.82" rx="1"/>
<line x1="666.7" y1="269.6" x2="666.7" y2="289.2" stroke="#16a34a" stroke-width="1"/><rect x="664.0" y="273.8" width="5.4" height="1.4" fill="#16a34a" opacity="0.82" rx="1"/>
<line x1="675.6" y1="266.7" x2="675.6" y2="276.4" stroke="#16a34a" stroke-width="1"/><rect x="672.9" y="273.8" width="5.4" height="1.2" fill="#16a34a" opacity="0.82" rx="1"/>
<line x1="684.5" y1="265.6" x2="684.5" y2="276.4" stroke="#16a34a" stroke-width="1"/><rect x="681.8" y="267.3" width="5.4" height="6.8" fill="#16a34a" opacity="0.82" rx="1"/>
<line x1="693.3" y1="266.2" x2="693.3" y2="281.2" stroke="#dc2626" stroke-width="1"/><rect x="690.6" y="266.7" width="5.4" height="6.5" fill="#dc2626" opacity="0.82" rx="1"/>
<line x1="702.2" y1="268.4" x2="702.2" y2="277.2" stroke="#16a34a" stroke-width="1"/><rect x="699.5" y="271.0" width="5.4" height="2.0" fill="#16a34a" opacity="0.82" rx="1"/>
<line x1="711.1" y1="248.0" x2="711.1" y2="272.1" stroke="#16a34a" stroke-width="1"/><rect x="708.4" y="254.8" width="5.4" height="16.2" fill="#16a34a" opacity="0.82" rx="1"/>
<line x1="720.0" y1="238.6" x2="720.0" y2="255.3" stroke="#16a34a" stroke-width="1"/><rect x="717.3" y="242.5" width="5.4" height="12.2" fill="#16a34a" opacity="0.82" rx="1"/>
<line x1="728.9" y1="231.5" x2="728.9" y2="249.9" stroke="#dc2626" stroke-width="1"/><rect x="726.1" y="242.8" width="5.4" height="3.7" fill="#dc2626" opacity="0.82" rx="1"/>
<line x1="737.7" y1="242.0" x2="737.7" y2="252.5" stroke="#16a34a" stroke-width="1"/><rect x="735.0" y="246.2" width="5.4" height="1.2" fill="#16a34a" opacity="0.82" rx="1"/>
<line x1="746.6" y1="226.9" x2="746.6" y2="246.5" stroke="#16a34a" stroke-width="1"/><rect x="743.9" y="237.1" width="5.4" height="9.4" fill="#16a34a" opacity="0.82" rx="1"/>
<line x1="755.5" y1="233.4" x2="755.5" y2="242.0" stroke="#dc2626" stroke-width="1"/><rect x="752.8" y="237.1" width="5.4" height="1.2" fill="#dc2626" opacity="0.82" rx="1"/>
<line x1="764.4" y1="223.5" x2="764.4" y2="243.7" stroke="#16a34a" stroke-width="1"/><rect x="761.6" y="230.3" width="5.4" height="8.2" fill="#16a34a" opacity="0.82" rx="1"/>
<line x1="773.2" y1="220.1" x2="773.2" y2="232.3" stroke="#dc2626" stroke-width="1"/><rect x="770.5" y="230.3" width="5.4" height="1.2" fill="#dc2626" opacity="0.82" rx="1"/>
<line x1="782.1" y1="224.9" x2="782.1" y2="233.2" stroke="#16a34a" stroke-width="1"/><rect x="779.4" y="228.3" width="5.4" height="2.8" fill="#16a34a" opacity="0.82" rx="1"/>
<line x1="791.0" y1="218.4" x2="791.0" y2="235.2" stroke="#16a34a" stroke-width="1"/><rect x="788.3" y="220.1" width="5.4" height="8.2" fill="#16a34a" opacity="0.82" rx="1"/>
<line x1="799.9" y1="218.4" x2="799.9" y2="230.6" stroke="#dc2626" stroke-width="1"/><rect x="797.1" y="219.8" width="5.4" height="4.0" fill="#dc2626" opacity="0.82" rx="1"/>
<line x1="808.7" y1="220.6" x2="808.7" y2="224.6" stroke="#16a34a" stroke-width="1"/><rect x="806.0" y="223.5" width="5.4" height="1.2" fill="#16a34a" opacity="0.82" rx="1"/>
<line x1="817.6" y1="220.1" x2="817.6" y2="233.4" stroke="#dc2626" stroke-width="1"/><rect x="814.9" y="223.2" width="5.4" height="6.8" fill="#dc2626" opacity="0.82" rx="1"/>
<line x1="826.5" y1="209.8" x2="826.5" y2="230.9" stroke="#16a34a" stroke-width="1"/><rect x="823.8" y="215.0" width="5.4" height="14.8" fill="#16a34a" opacity="0.82" rx="1"/>
<line x1="835.4" y1="213.0" x2="835.4" y2="244.0" stroke="#dc2626" stroke-width="1"/><rect x="832.6" y="215.0" width="5.4" height="26.2" fill="#dc2626" opacity="0.82" rx="1"/>
<line x1="844.2" y1="186.2" x2="844.2" y2="243.1" stroke="#16a34a" stroke-width="1"/><rect x="841.5" y="207.6" width="5.4" height="33.6" fill="#16a34a" opacity="0.82" rx="1"/>
<line x1="853.1" y1="207.3" x2="853.1" y2="259.9" stroke="#dc2626" stroke-width="1"/><rect x="850.4" y="207.6" width="5.4" height="51.5" fill="#dc2626" opacity="0.82" rx="1"/>
<line x1="862.0" y1="241.4" x2="862.0" y2="300.3" stroke="#dc2626" stroke-width="1"/><rect x="859.3" y="258.8" width="5.4" height="24.2" fill="#dc2626" opacity="0.82" rx="1"/>
<line x1="72" y1="318.9" x2="862" y2="318.9" stroke="#16a34a" stroke-width="1.8" stroke-dasharray="6 4" /><rect x="874" y="298.9" width="166" height="23" rx="5" fill="#ffffff" stroke="#16a34a" opacity="0.97"/><text x="881" y="314.9" fill="#16a34a" font-size="15" font-weight="700">日内支撑 70.62</text>
<line x1="72" y1="223.0" x2="862" y2="223.0" stroke="#dc2626" stroke-width="1.8" stroke-dasharray="6 4" /><rect x="874" y="203.0" width="166" height="23" rx="5" fill="#ffffff" stroke="#dc2626" opacity="0.97"/><text x="881" y="219.0" fill="#dc2626" font-size="15" font-weight="700">日内压力 73.99</text>
<line x1="72" y1="282.9" x2="862" y2="282.9" stroke="#111827" stroke-width="1.8" stroke-dasharray="2 2" /><rect x="874" y="262.9" width="166" height="23" rx="5" fill="#ffffff" stroke="#111827" opacity="0.97"/><text x="881" y="278.9" fill="#111827" font-size="15" font-weight="700">现价 71.88</text>
<text x="72" y="396" fill="#16a34a" font-size="14" font-weight="700">日内做多计划</text><rect x="72" y="404" width="790" height="48" rx="6" fill="#f9fafb" stroke="#e5e7eb"/><line x1="94" y1="412" x2="840" y2="412" stroke="#16a34a" stroke-width="3"/><circle cx="132.0" cy="412" r="5" fill="#16a34a"/><text x="132.0" y="434" fill="#374151" font-size="12" text-anchor="middle">入场 止跌/突破回踩</text><circle cx="451.2" cy="412" r="5" fill="#16a34a"/><text x="451.2" y="434" fill="#374151" font-size="12" text-anchor="middle">止损 70.62</text><circle cx="712.0" cy="412" r="5" fill="#16a34a"/><text x="712.0" y="434" fill="#374151" font-size="12" text-anchor="middle">目标一 73.99</text><circle cx="814.0" cy="412" r="5" fill="#16a34a"/><text x="814.0" y="434" fill="#374151" font-size="12" text-anchor="middle">目标二 74.83</text>
<text x="72" y="482" fill="#dc2626" font-size="14" font-weight="700">日内做空计划</text><rect x="72" y="490" width="790" height="48" rx="6" fill="#f9fafb" stroke="#e5e7eb"/><line x1="94" y1="498" x2="840" y2="498" stroke="#dc2626" stroke-width="3"/><circle cx="132.0" cy="498" r="5" fill="#dc2626"/><text x="132.0" y="520" fill="#374151" font-size="12" text-anchor="middle">入场 反弹承压/破位回抽</text><circle cx="451.2" cy="498" r="5" fill="#dc2626"/><text x="451.2" y="520" fill="#374151" font-size="12" text-anchor="middle">止损 73.99</text><circle cx="712.0" cy="498" r="5" fill="#dc2626"/><text x="712.0" y="520" fill="#374151" font-size="12" text-anchor="middle">目标一 70.62</text><circle cx="814.0" cy="498" r="5" fill="#dc2626"/><text x="814.0" y="520" fill="#374151" font-size="12" text-anchor="middle">目标二 69.77</text>
</svg>