<svg xmlns="http://www.w3.org/2000/svg" width="1080" height="560" viewBox="0 0 1080 560">
<rect width="100%" height="100%" fill="#ffffff"/>
<text x="72" y="23" fill="#111827" font-size="21" font-weight="800">HYPE 日线K线支撑压力图</text>
<text x="862" y="42" fill="#374151" font-size="15" text-anchor="end">最新价 71.69</text>
<line x1="72" y1="34" x2="72" y2="340" stroke="#d1d5db"/>
<line x1="72" y1="340" x2="862" y2="340" stroke="#d1d5db"/>
<line x1="72" y1="340.0" x2="862" y2="340.0" stroke="#f3f4f6"/>
<text x="8" y="345.0" fill="#4b5563" font-size="14">30.26</text>
<line x1="72" y1="263.5" x2="862" y2="263.5" stroke="#f3f4f6"/>
<text x="8" y="268.5" fill="#4b5563" font-size="14">45.35</text>
<line x1="72" y1="187.0" x2="862" y2="187.0" stroke="#f3f4f6"/>
<text x="8" y="192.0" fill="#4b5563" font-size="14">60.45</text>
<line x1="72" y1="110.5" x2="862" y2="110.5" stroke="#f3f4f6"/>
<text x="8" y="115.5" fill="#4b5563" font-size="14">75.54</text>
<line x1="72" y1="34.0" x2="862" y2="34.0" stroke="#f3f4f6"/>
<text x="8" y="39.0" fill="#4b5563" font-size="14">90.64</text>
<line x1="72.0" y1="288.4" x2="72.0" y2="296.3" stroke="#dc2626" stroke-width="1"/><rect x="69.3" y="292.9" width="5.4" height="2.0" fill="#dc2626" opacity="0.82" rx="1"/>
<line x1="80.9" y1="293.1" x2="80.9" y2="303.5" stroke="#dc2626" stroke-width="1"/><rect x="78.2" y="294.9" width="5.4" height="4.0" fill="#dc2626" opacity="0.82" rx="1"/>
<line x1="89.8" y1="292.9" x2="89.8" y2="306.9" stroke="#dc2626" stroke-width="1"/><rect x="87.0" y="299.0" width="5.4" height="5.0" fill="#dc2626" opacity="0.82" rx="1"/>
<line x1="98.6" y1="288.3" x2="98.6" y2="304.6" stroke="#16a34a" stroke-width="1"/><rect x="95.9" y="289.0" width="5.4" height="14.9" fill="#16a34a" opacity="0.82" rx="1"/>
<line x1="107.5" y1="282.8" x2="107.5" y2="292.4" stroke="#16a34a" stroke-width="1"/><rect x="104.8" y="289.0" width="5.4" height="1.2" fill="#16a34a" opacity="0.82" rx="1"/>
<line x1="116.4" y1="288.7" x2="116.4" y2="299.4" stroke="#dc2626" stroke-width="1"/><rect x="113.7" y="289.0" width="5.4" height="5.9" fill="#dc2626" opacity="0.82" rx="1"/>
<line x1="125.3" y1="293.6" x2="125.3" y2="301.4" stroke="#dc2626" stroke-width="1"/><rect x="122.5" y="294.9" width="5.4" height="2.5" fill="#dc2626" opacity="0.82" rx="1"/>
<line x1="134.1" y1="289.3" x2="134.1" y2="300.9" stroke="#16a34a" stroke-width="1"/><rect x="131.4" y="293.4" width="5.4" height="4.0" fill="#16a34a" opacity="0.82" rx="1"/>
<line x1="143.0" y1="290.4" x2="143.0" y2="302.2" stroke="#dc2626" stroke-width="1"/><rect x="140.3" y="293.4" width="5.4" height="8.3" fill="#dc2626" opacity="0.82" rx="1"/>
<line x1="151.9" y1="296.9" x2="151.9" y2="308.6" stroke="#dc2626" stroke-width="1"/><rect x="149.2" y="301.7" width="5.4" height="5.0" fill="#dc2626" opacity="0.82" rx="1"/>
<line x1="160.8" y1="302.7" x2="160.8" y2="312.7" stroke="#dc2626" stroke-width="1"/><rect x="158.0" y="306.7" width="5.4" height="1.2" fill="#dc2626" opacity="0.82" rx="1"/>
<line x1="169.6" y1="301.5" x2="169.6" y2="311.7" stroke="#dc2626" stroke-width="1"/><rect x="166.9" y="307.9" width="5.4" height="3.0" fill="#dc2626" opacity="0.82" rx="1"/>
<line x1="178.5" y1="309.5" x2="178.5" y2="318.9" stroke="#dc2626" stroke-width="1"/><rect x="175.8" y="310.8" width="5.4" height="4.2" fill="#dc2626" opacity="0.82" rx="1"/>
<line x1="187.4" y1="310.4" x2="187.4" y2="315.6" stroke="#16a34a" stroke-width="1"/><rect x="184.7" y="313.0" width="5.4" height="2.1" fill="#16a34a" opacity="0.82" rx="1"/>
<line x1="196.3" y1="308.1" x2="196.3" y2="313.4" stroke="#16a34a" stroke-width="1"/><rect x="193.5" y="309.1" width="5.4" height="3.9" fill="#16a34a" opacity="0.82" rx="1"/>
<line x1="205.1" y1="305.8" x2="205.1" y2="315.4" stroke="#16a34a" stroke-width="1"/><rect x="202.4" y="306.6" width="5.4" height="2.5" fill="#16a34a" opacity="0.82" rx="1"/>
<line x1="214.0" y1="302.0" x2="214.0" y2="311.1" stroke="#dc2626" stroke-width="1"/><rect x="211.3" y="306.6" width="5.4" height="2.9" fill="#dc2626" opacity="0.82" rx="1"/>
<line x1="222.9" y1="294.9" x2="222.9" y2="312.3" stroke="#16a34a" stroke-width="1"/><rect x="220.2" y="297.7" width="5.4" height="11.8" fill="#16a34a" opacity="0.82" rx="1"/>
<line x1="231.8" y1="291.7" x2="231.8" y2="302.0" stroke="#16a34a" stroke-width="1"/><rect x="229.1" y="296.9" width="5.4" height="1.2" fill="#16a34a" opacity="0.82" rx="1"/>
<line x1="240.7" y1="288.6" x2="240.7" y2="300.0" stroke="#16a34a" stroke-width="1"/><rect x="237.9" y="293.4" width="5.4" height="3.5" fill="#16a34a" opacity="0.82" rx="1"/>
<line x1="249.5" y1="279.3" x2="249.5" y2="293.5" stroke="#16a34a" stroke-width="1"/><rect x="246.8" y="282.5" width="5.4" height="10.8" fill="#16a34a" opacity="0.82" rx="1"/>
<line x1="258.4" y1="274.5" x2="258.4" y2="283.1" stroke="#16a34a" stroke-width="1"/><rect x="255.7" y="279.1" width="5.4" height="3.5" fill="#16a34a" opacity="0.82" rx="1"/>
<line x1="267.3" y1="276.3" x2="267.3" y2="289.7" stroke="#dc2626" stroke-width="1"/><rect x="264.6" y="279.1" width="5.4" height="7.2" fill="#dc2626" opacity="0.82" rx="1"/>
<line x1="276.2" y1="267.2" x2="276.2" y2="286.7" stroke="#16a34a" stroke-width="1"/><rect x="273.4" y="268.6" width="5.4" height="17.7" fill="#16a34a" opacity="0.82" rx="1"/>
<line x1="285.0" y1="263.6" x2="285.0" y2="275.8" stroke="#dc2626" stroke-width="1"/><rect x="282.3" y="268.7" width="5.4" height="4.0" fill="#dc2626" opacity="0.82" rx="1"/>
<line x1="293.9" y1="262.9" x2="293.9" y2="274.8" stroke="#16a34a" stroke-width="1"/><rect x="291.2" y="267.1" width="5.4" height="5.6" fill="#16a34a" opacity="0.82" rx="1"/>
<line x1="302.8" y1="261.4" x2="302.8" y2="273.9" stroke="#dc2626" stroke-width="1"/><rect x="300.1" y="267.1" width="5.4" height="4.2" fill="#dc2626" opacity="0.82" rx="1"/>
<line x1="311.7" y1="262.8" x2="311.7" y2="274.6" stroke="#16a34a" stroke-width="1"/><rect x="308.9" y="267.2" width="5.4" height="4.1" fill="#16a34a" opacity="0.82" rx="1"/>
<line x1="320.5" y1="263.0" x2="320.5" y2="271.8" stroke="#dc2626" stroke-width="1"/><rect x="317.8" y="267.2" width="5.4" height="4.3" fill="#dc2626" opacity="0.82" rx="1"/>
<line x1="329.4" y1="270.7" x2="329.4" y2="288.1" stroke="#dc2626" stroke-width="1"/><rect x="326.7" y="271.5" width="5.4" height="15.7" fill="#dc2626" opacity="0.82" rx="1"/>
<line x1="338.3" y1="281.6" x2="338.3" y2="287.8" stroke="#16a34a" stroke-width="1"/><rect x="335.6" y="287.1" width="5.4" height="1.2" fill="#16a34a" opacity="0.82" rx="1"/>
<line x1="347.2" y1="283.4" x2="347.2" y2="296.3" stroke="#dc2626" stroke-width="1"/><rect x="344.4" y="287.1" width="5.4" height="4.7" fill="#dc2626" opacity="0.82" rx="1"/>
<line x1="356.0" y1="281.8" x2="356.0" y2="292.5" stroke="#16a34a" stroke-width="1"/><rect x="353.3" y="284.8" width="5.4" height="7.1" fill="#16a34a" opacity="0.82" rx="1"/>
<line x1="364.9" y1="281.2" x2="364.9" y2="288.0" stroke="#16a34a" stroke-width="1"/><rect x="362.2" y="284.0" width="5.4" height="1.2" fill="#16a34a" opacity="0.82" rx="1"/>
<line x1="373.8" y1="282.8" x2="373.8" y2="287.2" stroke="#dc2626" stroke-width="1"/><rect x="371.1" y="284.0" width="5.4" height="1.2" fill="#dc2626" opacity="0.82" rx="1"/>
<line x1="382.7" y1="281.0" x2="382.7" y2="286.4" stroke="#16a34a" stroke-width="1"/><rect x="380.0" y="283.0" width="5.4" height="1.7" fill="#16a34a" opacity="0.82" rx="1"/>
<line x1="391.6" y1="277.4" x2="391.6" y2="285.8" stroke="#16a34a" stroke-width="1"/><rect x="388.8" y="278.2" width="5.4" height="4.8" fill="#16a34a" opacity="0.82" rx="1"/>
<line x1="400.4" y1="272.5" x2="400.4" y2="284.2" stroke="#dc2626" stroke-width="1"/><rect x="397.7" y="278.2" width="5.4" height="4.1" fill="#dc2626" opacity="0.82" rx="1"/>
<line x1="409.3" y1="281.3" x2="409.3" y2="293.8" stroke="#dc2626" stroke-width="1"/><rect x="406.6" y="282.3" width="5.4" height="7.5" fill="#dc2626" opacity="0.82" rx="1"/>
<line x1="418.2" y1="286.6" x2="418.2" y2="294.9" stroke="#dc2626" stroke-width="1"/><rect x="415.5" y="289.8" width="5.4" height="1.2" fill="#dc2626" opacity="0.82" rx="1"/>
<line x1="427.1" y1="289.0" x2="427.1" y2="297.2" stroke="#dc2626" stroke-width="1"/><rect x="424.3" y="291.0" width="5.4" height="1.2" fill="#dc2626" opacity="0.82" rx="1"/>
<line x1="435.9" y1="284.8" x2="435.9" y2="292.3" stroke="#16a34a" stroke-width="1"/><rect x="433.2" y="284.9" width="5.4" height="7.3" fill="#16a34a" opacity="0.82" rx="1"/>
<line x1="444.8" y1="278.2" x2="444.8" y2="285.6" stroke="#16a34a" stroke-width="1"/><rect x="442.1" y="284.3" width="5.4" height="1.2" fill="#16a34a" opacity="0.82" rx="1"/>
<line x1="453.7" y1="281.8" x2="453.7" y2="287.2" stroke="#16a34a" stroke-width="1"/><rect x="451.0" y="282.8" width="5.4" height="1.5" fill="#16a34a" opacity="0.82" rx="1"/>
<line x1="462.6" y1="277.5" x2="462.6" y2="286.5" stroke="#16a34a" stroke-width="1"/><rect x="459.8" y="281.4" width="5.4" height="1.3" fill="#16a34a" opacity="0.82" rx="1"/>
<line x1="471.4" y1="267.1" x2="471.4" y2="281.7" stroke="#16a34a" stroke-width="1"/><rect x="468.7" y="271.8" width="5.4" height="9.6" fill="#16a34a" opacity="0.82" rx="1"/>
<line x1="480.3" y1="266.5" x2="480.3" y2="275.9" stroke="#dc2626" stroke-width="1"/><rect x="477.6" y="271.8" width="5.4" height="2.9" fill="#dc2626" opacity="0.82" rx="1"/>
<line x1="489.2" y1="272.6" x2="489.2" y2="281.2" stroke="#dc2626" stroke-width="1"/><rect x="486.5" y="274.8" width="5.4" height="3.1" fill="#dc2626" opacity="0.82" rx="1"/>
<line x1="498.1" y1="272.9" x2="498.1" y2="280.3" stroke="#16a34a" stroke-width="1"/><rect x="495.3" y="274.1" width="5.4" height="3.8" fill="#16a34a" opacity="0.82" rx="1"/>
<line x1="506.9" y1="268.3" x2="506.9" y2="276.3" stroke="#dc2626" stroke-width="1"/><rect x="504.2" y="274.1" width="5.4" height="1.8" fill="#dc2626" opacity="0.82" rx="1"/>
<line x1="515.8" y1="271.9" x2="515.8" y2="279.9" stroke="#16a34a" stroke-width="1"/><rect x="513.1" y="275.4" width="5.4" height="1.2" fill="#16a34a" opacity="0.82" rx="1"/>
<line x1="524.7" y1="274.7" x2="524.7" y2="286.4" stroke="#dc2626" stroke-width="1"/><rect x="522.0" y="275.3" width="5.4" height="5.2" fill="#dc2626" opacity="0.82" rx="1"/>
<line x1="533.6" y1="280.2" x2="533.6" y2="291.7" stroke="#dc2626" stroke-width="1"/><rect x="530.9" y="280.5" width="5.4" height="8.8" fill="#dc2626" opacity="0.82" rx="1"/>
<line x1="542.4" y1="287.0" x2="542.4" y2="297.1" stroke="#dc2626" stroke-width="1"/><rect x="539.7" y="289.3" width="5.4" height="7.3" fill="#dc2626" opacity="0.82" rx="1"/>
<line x1="551.3" y1="266.5" x2="551.3" y2="299.9" stroke="#16a34a" stroke-width="1"/><rect x="548.6" y="269.7" width="5.4" height="26.9" fill="#16a34a" opacity="0.82" rx="1"/>
<line x1="560.2" y1="254.8" x2="560.2" y2="276.4" stroke="#16a34a" stroke-width="1"/><rect x="557.5" y="269.6" width="5.4" height="1.2" fill="#16a34a" opacity="0.82" rx="1"/>
<line x1="569.1" y1="267.9" x2="569.1" y2="288.8" stroke="#dc2626" stroke-width="1"/><rect x="566.4" y="269.6" width="5.4" height="11.8" fill="#dc2626" opacity="0.82" rx="1"/>
<line x1="578.0" y1="254.4" x2="578.0" y2="283.9" stroke="#16a34a" stroke-width="1"/><rect x="575.2" y="261.8" width="5.4" height="19.6" fill="#16a34a" opacity="0.82" rx="1"/>
<line x1="586.8" y1="250.1" x2="586.8" y2="269.4" stroke="#16a34a" stroke-width="1"/><rect x="584.1" y="251.3" width="5.4" height="10.5" fill="#16a34a" opacity="0.82" rx="1"/>
<line x1="595.7" y1="245.5" x2="595.7" y2="256.2" stroke="#16a34a" stroke-width="1"/><rect x="593.0" y="250.0" width="5.4" height="1.3" fill="#16a34a" opacity="0.82" rx="1"/>
<line x1="604.6" y1="215.4" x2="604.6" y2="254.8" stroke="#16a34a" stroke-width="1"/><rect x="601.9" y="215.4" width="5.4" height="34.7" fill="#16a34a" opacity="0.82" rx="1"/>
<line x1="613.5" y1="176.1" x2="613.5" y2="216.0" stroke="#16a34a" stroke-width="1"/><rect x="610.7" y="196.5" width="5.4" height="19.0" fill="#16a34a" opacity="0.82" rx="1"/>
<line x1="622.3" y1="179.3" x2="622.3" y2="218.3" stroke="#dc2626" stroke-width="1"/><rect x="619.6" y="196.5" width="5.4" height="20.2" fill="#dc2626" opacity="0.82" rx="1"/>
<line x1="631.2" y1="189.8" x2="631.2" y2="219.7" stroke="#16a34a" stroke-width="1"/><rect x="628.5" y="195.8" width="5.4" height="20.9" fill="#16a34a" opacity="0.82" rx="1"/>
<line x1="640.1" y1="166.5" x2="640.1" y2="196.3" stroke="#16a34a" stroke-width="1"/><rect x="637.4" y="175.4" width="5.4" height="20.5" fill="#16a34a" opacity="0.82" rx="1"/>
<line x1="649.0" y1="169.5" x2="649.0" y2="185.7" stroke="#dc2626" stroke-width="1"/><rect x="646.2" y="175.3" width="5.4" height="8.4" fill="#dc2626" opacity="0.82" rx="1"/>
<line x1="657.8" y1="165.2" x2="657.8" y2="196.6" stroke="#dc2626" stroke-width="1"/><rect x="655.1" y="183.7" width="5.4" height="8.1" fill="#dc2626" opacity="0.82" rx="1"/>
<line x1="666.7" y1="172.5" x2="666.7" y2="204.2" stroke="#dc2626" stroke-width="1"/><rect x="664.0" y="191.8" width="5.4" height="9.6" fill="#dc2626" opacity="0.82" rx="1"/>
<line x1="675.6" y1="178.5" x2="675.6" y2="208.3" stroke="#16a34a" stroke-width="1"/><rect x="672.9" y="181.6" width="5.4" height="19.8" fill="#16a34a" opacity="0.82" rx="1"/>
<line x1="684.5" y1="151.7" x2="684.5" y2="187.6" stroke="#16a34a" stroke-width="1"/><rect x="681.8" y="166.9" width="5.4" height="14.6" fill="#16a34a" opacity="0.82" rx="1"/>
<line x1="693.3" y1="145.5" x2="693.3" y2="169.0" stroke="#16a34a" stroke-width="1"/><rect x="690.6" y="147.3" width="5.4" height="19.7" fill="#16a34a" opacity="0.82" rx="1"/>
<line x1="702.2" y1="122.8" x2="702.2" y2="151.4" stroke="#16a34a" stroke-width="1"/><rect x="699.5" y="128.2" width="5.4" height="19.0" fill="#16a34a" opacity="0.82" rx="1"/>
<line x1="711.1" y1="109.1" x2="711.1" y2="136.5" stroke="#16a34a" stroke-width="1"/><rect x="708.4" y="120.4" width="5.4" height="7.5" fill="#16a34a" opacity="0.82" rx="1"/>
<line x1="720.0" y1="110.0" x2="720.0" y2="149.6" stroke="#dc2626" stroke-width="1"/><rect x="717.3" y="120.4" width="5.4" height="19.0" fill="#dc2626" opacity="0.82" rx="1"/>
<line x1="728.9" y1="110.2" x2="728.9" y2="147.3" stroke="#16a34a" stroke-width="1"/><rect x="726.1" y="115.4" width="5.4" height="24.0" fill="#16a34a" opacity="0.82" rx="1"/>
<line x1="737.7" y1="110.7" x2="737.7" y2="174.1" stroke="#dc2626" stroke-width="1"/><rect x="735.0" y="115.4" width="5.4" height="51.4" fill="#dc2626" opacity="0.82" rx="1"/>
<line x1="746.6" y1="158.7" x2="746.6" y2="206.0" stroke="#dc2626" stroke-width="1"/><rect x="743.9" y="166.8" width="5.4" height="23.3" fill="#dc2626" opacity="0.82" rx="1"/>
<line x1="755.5" y1="183.1" x2="755.5" y2="212.2" stroke="#dc2626" stroke-width="1"/><rect x="752.8" y="190.2" width="5.4" height="16.7" fill="#dc2626" opacity="0.82" rx="1"/>
<line x1="764.4" y1="187.0" x2="764.4" y2="209.0" stroke="#16a34a" stroke-width="1"/><rect x="761.6" y="190.6" width="5.4" height="16.3" fill="#16a34a" opacity="0.82" rx="1"/>
<line x1="773.2" y1="159.9" x2="773.2" y2="192.8" stroke="#16a34a" stroke-width="1"/><rect x="770.5" y="169.8" width="5.4" height="20.7" fill="#16a34a" opacity="0.82" rx="1"/>
<line x1="782.1" y1="168.8" x2="782.1" y2="203.0" stroke="#dc2626" stroke-width="1"/><rect x="779.4" y="169.8" width="5.4" height="30.8" fill="#dc2626" opacity="0.82" rx="1"/>
<line x1="791.0" y1="197.6" x2="791.0" y2="226.7" stroke="#dc2626" stroke-width="1"/><rect x="788.3" y="200.5" width="5.4" height="22.8" fill="#dc2626" opacity="0.82" rx="1"/>
<line x1="799.9" y1="191.1" x2="799.9" y2="225.5" stroke="#16a34a" stroke-width="1"/><rect x="797.1" y="194.7" width="5.4" height="28.6" fill="#16a34a" opacity="0.82" rx="1"/>
<line x1="808.7" y1="177.0" x2="808.7" y2="205.6" stroke="#16a34a" stroke-width="1"/><rect x="806.0" y="193.0" width="5.4" height="1.7" fill="#16a34a" opacity="0.82" rx="1"/>
<line x1="817.6" y1="184.8" x2="817.6" y2="203.6" stroke="#16a34a" stroke-width="1"/><rect x="814.9" y="185.7" width="5.4" height="7.3" fill="#16a34a" opacity="0.82" rx="1"/>
<line x1="826.5" y1="168.3" x2="826.5" y2="191.3" stroke="#16a34a" stroke-width="1"/><rect x="823.8" y="169.4" width="5.4" height="16.4" fill="#16a34a" opacity="0.82" rx="1"/>
<line x1="835.4" y1="145.2" x2="835.4" y2="173.5" stroke="#16a34a" stroke-width="1"/><rect x="832.6" y="154.4" width="5.4" height="15.0" fill="#16a34a" opacity="0.82" rx="1"/>
<line x1="844.2" y1="103.1" x2="844.2" y2="157.0" stroke="#16a34a" stroke-width="1"/><rect x="841.5" y="120.5" width="5.4" height="33.9" fill="#16a34a" opacity="0.82" rx="1"/>
<line x1="853.1" y1="104.2" x2="853.1" y2="138.9" stroke="#dc2626" stroke-width="1"/><rect x="850.4" y="120.4" width="5.4" height="12.4" fill="#dc2626" opacity="0.82" rx="1"/>
<line x1="862.0" y1="129.8" x2="862.0" y2="133.1" stroke="#16a34a" stroke-width="1"/><rect x="859.3" y="130.0" width="5.4" height="2.7" fill="#16a34a" opacity="0.82" rx="1"/>
<line x1="72" y1="175.0" x2="862" y2="175.0" stroke="#16a34a" stroke-width="1.8" stroke-dasharray="6 4" /><rect x="874" y="155.0" width="166" height="23" rx="5" fill="#ffffff" stroke="#16a34a" opacity="0.97"/><text x="881" y="171.0" fill="#16a34a" font-size="15" font-weight="700">支撑 62.81</text>
<line x1="72" y1="55.1" x2="862" y2="55.1" stroke="#dc2626" stroke-width="1.8" stroke-dasharray="6 4" /><rect x="874" y="35.1" width="166" height="23" rx="5" fill="#ffffff" stroke="#dc2626" opacity="0.97"/><text x="881" y="51.1" fill="#dc2626" font-size="15" font-weight="700">压力 86.47</text>
<line x1="72" y1="130.0" x2="862" y2="130.0" stroke="#111827" stroke-width="1.8" stroke-dasharray="2 2" /><rect x="874" y="110.0" width="166" height="23" rx="5" fill="#ffffff" stroke="#111827" opacity="0.97"/><text x="881" y="126.0" fill="#111827" font-size="15" font-weight="700">现价 71.69</text>
<text x="72" y="396" fill="#16a34a" font-size="14" font-weight="700">日线做多计划</text><rect x="72" y="404" width="790" height="48" rx="6" fill="#f9fafb" stroke="#e5e7eb"/><line x1="94" y1="412" x2="840" y2="412" stroke="#16a34a" stroke-width="3"/><circle cx="132.0" cy="412" r="5" fill="#16a34a"/><text x="132.0" y="434" fill="#374151" font-size="12" text-anchor="middle">入场 止跌/突破回踩</text><circle cx="451.2" cy="412" r="5" fill="#16a34a"/><text x="451.2" y="434" fill="#374151" font-size="12" text-anchor="middle">止损 62.81</text><circle cx="712.0" cy="412" r="5" fill="#16a34a"/><text x="712.0" y="434" fill="#374151" font-size="12" text-anchor="middle">目标一 86.47</text><circle cx="814.0" cy="412" r="5" fill="#16a34a"/><text x="814.0" y="434" fill="#374151" font-size="12" text-anchor="middle">目标二 95.35</text>
<text x="72" y="482" fill="#dc2626" font-size="14" font-weight="700">日线做空计划</text><rect x="72" y="490" width="790" height="48" rx="6" fill="#f9fafb" stroke="#e5e7eb"/><line x1="94" y1="498" x2="840" y2="498" stroke="#dc2626" stroke-width="3"/><circle cx="132.0" cy="498" r="5" fill="#dc2626"/><text x="132.0" y="520" fill="#374151" font-size="12" text-anchor="middle">入场 反弹承压/破位回抽</text><circle cx="451.2" cy="498" r="5" fill="#dc2626"/><text x="451.2" y="520" fill="#374151" font-size="12" text-anchor="middle">止损 86.47</text><circle cx="712.0" cy="498" r="5" fill="#dc2626"/><text x="712.0" y="520" fill="#374151" font-size="12" text-anchor="middle">目标一 62.81</text><circle cx="814.0" cy="498" r="5" fill="#dc2626"/><text x="814.0" y="520" fill="#374151" font-size="12" text-anchor="middle">目标二 56.90</text>
</svg>