<svg xmlns="http://www.w3.org/2000/svg" width="1080" height="560" viewBox="0 0 1080 560">
<rect width="100%" height="100%" fill="#ffffff"/>
<text x="72" y="23" fill="#111827" font-size="21" font-weight="800">DRAM 日线K线支撑压力图</text>
<text x="862" y="42" fill="#374151" font-size="15" text-anchor="end">最新价 73.14</text>
<line x1="72" y1="34" x2="72" y2="340" stroke="#d1d5db"/>
<line x1="72" y1="340" x2="862" y2="340" stroke="#d1d5db"/>
<line x1="72" y1="340.0" x2="862" y2="340.0" stroke="#f3f4f6"/>
<text x="8" y="345.0" fill="#4b5563" font-size="14">43.35</text>
<line x1="72" y1="263.5" x2="862" y2="263.5" stroke="#f3f4f6"/>
<text x="8" y="268.5" fill="#4b5563" font-size="14">54.92</text>
<line x1="72" y1="187.0" x2="862" y2="187.0" stroke="#f3f4f6"/>
<text x="8" y="192.0" fill="#4b5563" font-size="14">66.50</text>
<line x1="72" y1="110.5" x2="862" y2="110.5" stroke="#f3f4f6"/>
<text x="8" y="115.5" fill="#4b5563" font-size="14">78.08</text>
<line x1="72" y1="34.0" x2="862" y2="34.0" stroke="#f3f4f6"/>
<text x="8" y="39.0" fill="#4b5563" font-size="14">89.66</text>
<line x1="72.0" y1="283.5" x2="72.0" y2="308.7" stroke="#dc2626" stroke-width="1"/><rect x="67.5" y="287.8" width="9.0" height="9.6" fill="#dc2626" opacity="0.82" rx="1"/>
<line x1="97.5" y1="289.2" x2="97.5" y2="318.9" stroke="#16a34a" stroke-width="1"/><rect x="93.0" y="296.0" width="9.0" height="1.5" fill="#16a34a" opacity="0.82" rx="1"/>
<line x1="123.0" y1="282.5" x2="123.0" y2="309.4" stroke="#16a34a" stroke-width="1"/><rect x="118.5" y="284.6" width="9.0" height="11.5" fill="#16a34a" opacity="0.82" rx="1"/>
<line x1="148.5" y1="261.3" x2="148.5" y2="288.7" stroke="#16a34a" stroke-width="1"/><rect x="144.0" y="264.2" width="9.0" height="20.4" fill="#16a34a" opacity="0.82" rx="1"/>
<line x1="173.9" y1="263.9" x2="173.9" y2="278.9" stroke="#dc2626" stroke-width="1"/><rect x="169.4" y="264.2" width="9.0" height="14.5" fill="#dc2626" opacity="0.82" rx="1"/>
<line x1="199.4" y1="256.0" x2="199.4" y2="293.2" stroke="#16a34a" stroke-width="1"/><rect x="194.9" y="267.6" width="9.0" height="11.0" fill="#16a34a" opacity="0.82" rx="1"/>
<line x1="224.9" y1="255.7" x2="224.9" y2="268.9" stroke="#16a34a" stroke-width="1"/><rect x="220.4" y="260.6" width="9.0" height="6.9" fill="#16a34a" opacity="0.82" rx="1"/>
<line x1="250.4" y1="239.0" x2="250.4" y2="262.3" stroke="#16a34a" stroke-width="1"/><rect x="245.9" y="253.1" width="9.0" height="7.4" fill="#16a34a" opacity="0.82" rx="1"/>
<line x1="275.9" y1="208.2" x2="275.9" y2="265.2" stroke="#16a34a" stroke-width="1"/><rect x="271.4" y="215.4" width="9.0" height="37.7" fill="#16a34a" opacity="0.82" rx="1"/>
<line x1="301.4" y1="205.6" x2="301.4" y2="236.0" stroke="#dc2626" stroke-width="1"/><rect x="296.9" y="215.4" width="9.0" height="17.0" fill="#dc2626" opacity="0.82" rx="1"/>
<line x1="326.8" y1="205.1" x2="326.8" y2="246.9" stroke="#16a34a" stroke-width="1"/><rect x="322.3" y="209.8" width="9.0" height="22.7" fill="#16a34a" opacity="0.82" rx="1"/>
<line x1="352.3" y1="201.2" x2="352.3" y2="219.7" stroke="#16a34a" stroke-width="1"/><rect x="347.8" y="208.1" width="9.0" height="1.6" fill="#16a34a" opacity="0.82" rx="1"/>
<line x1="377.8" y1="190.6" x2="377.8" y2="210.8" stroke="#16a34a" stroke-width="1"/><rect x="373.3" y="191.6" width="9.0" height="16.5" fill="#16a34a" opacity="0.82" rx="1"/>
<line x1="403.3" y1="180.5" x2="403.3" y2="195.5" stroke="#16a34a" stroke-width="1"/><rect x="398.8" y="189.5" width="9.0" height="2.1" fill="#16a34a" opacity="0.82" rx="1"/>
<line x1="428.8" y1="170.0" x2="428.8" y2="201.2" stroke="#16a34a" stroke-width="1"/><rect x="424.3" y="175.8" width="9.0" height="13.5" fill="#16a34a" opacity="0.82" rx="1"/>
<line x1="454.3" y1="162.7" x2="454.3" y2="194.2" stroke="#16a34a" stroke-width="1"/><rect x="449.8" y="167.5" width="9.0" height="8.5" fill="#16a34a" opacity="0.82" rx="1"/>
<line x1="479.7" y1="161.8" x2="479.7" y2="187.7" stroke="#dc2626" stroke-width="1"/><rect x="475.2" y="167.5" width="9.0" height="18.2" fill="#dc2626" opacity="0.82" rx="1"/>
<line x1="505.2" y1="177.0" x2="505.2" y2="208.9" stroke="#dc2626" stroke-width="1"/><rect x="500.7" y="185.7" width="9.0" height="22.1" fill="#dc2626" opacity="0.82" rx="1"/>
<line x1="530.7" y1="202.7" x2="530.7" y2="273.2" stroke="#dc2626" stroke-width="1"/><rect x="526.2" y="207.8" width="9.0" height="52.3" fill="#dc2626" opacity="0.82" rx="1"/>
<line x1="556.2" y1="253.4" x2="556.2" y2="279.4" stroke="#16a34a" stroke-width="1"/><rect x="551.7" y="258.2" width="9.0" height="2.0" fill="#16a34a" opacity="0.82" rx="1"/>
<line x1="581.7" y1="231.1" x2="581.7" y2="263.0" stroke="#16a34a" stroke-width="1"/><rect x="577.2" y="253.4" width="9.0" height="4.8" fill="#16a34a" opacity="0.82" rx="1"/>
<line x1="607.2" y1="218.9" x2="607.2" y2="256.3" stroke="#16a34a" stroke-width="1"/><rect x="602.7" y="224.1" width="9.0" height="29.4" fill="#16a34a" opacity="0.82" rx="1"/>
<line x1="632.6" y1="202.2" x2="632.6" y2="260.0" stroke="#dc2626" stroke-width="1"/><rect x="628.1" y="224.0" width="9.0" height="7.7" fill="#dc2626" opacity="0.82" rx="1"/>
<line x1="658.1" y1="219.8" x2="658.1" y2="259.1" stroke="#dc2626" stroke-width="1"/><rect x="653.6" y="231.7" width="9.0" height="21.8" fill="#dc2626" opacity="0.82" rx="1"/>
<line x1="683.6" y1="185.8" x2="683.6" y2="255.1" stroke="#16a34a" stroke-width="1"/><rect x="679.1" y="190.2" width="9.0" height="63.1" fill="#16a34a" opacity="0.82" rx="1"/>
<line x1="709.1" y1="189.1" x2="709.1" y2="215.0" stroke="#dc2626" stroke-width="1"/><rect x="704.6" y="190.2" width="9.0" height="2.4" fill="#dc2626" opacity="0.82" rx="1"/>
<line x1="734.6" y1="190.4" x2="734.6" y2="204.3" stroke="#16a34a" stroke-width="1"/><rect x="730.1" y="191.8" width="9.0" height="1.2" fill="#16a34a" opacity="0.82" rx="1"/>
<line x1="760.1" y1="169.0" x2="760.1" y2="193.2" stroke="#16a34a" stroke-width="1"/><rect x="755.6" y="175.3" width="9.0" height="16.5" fill="#16a34a" opacity="0.82" rx="1"/>
<line x1="785.5" y1="155.0" x2="785.5" y2="181.2" stroke="#16a34a" stroke-width="1"/><rect x="781.0" y="158.3" width="9.0" height="17.2" fill="#16a34a" opacity="0.82" rx="1"/>
<line x1="811.0" y1="143.5" x2="811.0" y2="178.6" stroke="#dc2626" stroke-width="1"/><rect x="806.5" y="158.4" width="9.0" height="12.8" fill="#dc2626" opacity="0.82" rx="1"/>
<line x1="836.5" y1="142.1" x2="836.5" y2="171.4" stroke="#16a34a" stroke-width="1"/><rect x="832.0" y="147.6" width="9.0" height="23.7" fill="#16a34a" opacity="0.82" rx="1"/>
<line x1="862.0" y1="143.0" x2="862.0" y2="149.2" stroke="#16a34a" stroke-width="1"/><rect x="857.5" y="143.1" width="9.0" height="4.3" fill="#16a34a" opacity="0.82" rx="1"/>
<line x1="72" y1="196.0" x2="862" y2="196.0" stroke="#16a34a" stroke-width="1.8" stroke-dasharray="6 4" /><rect x="874" y="176.0" width="166" height="23" rx="5" fill="#ffffff" stroke="#16a34a" opacity="0.97"/><text x="881" y="192.0" fill="#16a34a" font-size="15" font-weight="700">支撑 65.15</text>
<line x1="72" y1="55.1" x2="862" y2="55.1" stroke="#dc2626" stroke-width="1.8" stroke-dasharray="6 4" /><rect x="874" y="35.1" width="166" height="23" rx="5" fill="#ffffff" stroke="#dc2626" opacity="0.97"/><text x="881" y="51.1" fill="#dc2626" font-size="15" font-weight="700">压力 86.46</text>
<line x1="72" y1="143.1" x2="862" y2="143.1" stroke="#111827" stroke-width="1.8" stroke-dasharray="2 2" /><rect x="874" y="123.1" width="166" height="23" rx="5" fill="#ffffff" stroke="#111827" opacity="0.97"/><text x="881" y="139.1" fill="#111827" font-size="15" font-weight="700">现价 73.14</text>
<text x="72" y="396" fill="#16a34a" font-size="14" font-weight="700">日线做多计划</text><rect x="72" y="404" width="790" height="48" rx="6" fill="#f9fafb" stroke="#e5e7eb"/><line x1="94" y1="412" x2="840" y2="412" stroke="#16a34a" stroke-width="3"/><circle cx="132.0" cy="412" r="5" fill="#16a34a"/><text x="132.0" y="434" fill="#374151" font-size="12" text-anchor="middle">入场 止跌/突破回踩</text><circle cx="451.2" cy="412" r="5" fill="#16a34a"/><text x="451.2" y="434" fill="#374151" font-size="12" text-anchor="middle">止损 65.15</text><circle cx="712.0" cy="412" r="5" fill="#16a34a"/><text x="712.0" y="434" fill="#374151" font-size="12" text-anchor="middle">目标一 86.46</text><circle cx="814.0" cy="412" r="5" fill="#16a34a"/><text x="814.0" y="434" fill="#374151" font-size="12" text-anchor="middle">目标二 94.46</text>
<text x="72" y="482" fill="#dc2626" font-size="14" font-weight="700">日线做空计划</text><rect x="72" y="490" width="790" height="48" rx="6" fill="#f9fafb" stroke="#e5e7eb"/><line x1="94" y1="498" x2="840" y2="498" stroke="#dc2626" stroke-width="3"/><circle cx="132.0" cy="498" r="5" fill="#dc2626"/><text x="132.0" y="520" fill="#374151" font-size="12" text-anchor="middle">入场 反弹承压/破位回抽</text><circle cx="451.2" cy="498" r="5" fill="#dc2626"/><text x="451.2" y="520" fill="#374151" font-size="12" text-anchor="middle">止损 86.46</text><circle cx="712.0" cy="498" r="5" fill="#dc2626"/><text x="712.0" y="520" fill="#374151" font-size="12" text-anchor="middle">目标一 65.15</text><circle cx="814.0" cy="498" r="5" fill="#dc2626"/><text x="814.0" y="520" fill="#374151" font-size="12" text-anchor="middle">目标二 59.82</text>
</svg>