<svg xmlns="http://www.w3.org/2000/svg" width="1080" height="560" viewBox="0 0 1080 560">
<rect width="100%" height="100%" fill="#ffffff"/>
<text x="72" y="23" fill="#111827" font-size="21" font-weight="800">DRAM 小时线K线支撑压力图</text>
<text x="862" y="42" fill="#374151" font-size="15" text-anchor="end">最新价 73.14</text>
<line x1="72" y1="34" x2="72" y2="340" stroke="#d1d5db"/>
<line x1="72" y1="340" x2="862" y2="340" stroke="#d1d5db"/>
<line x1="72" y1="340.0" x2="862" y2="340.0" stroke="#f3f4f6"/>
<text x="8" y="345.0" fill="#4b5563" font-size="14">64.86</text>
<line x1="72" y1="263.5" x2="862" y2="263.5" stroke="#f3f4f6"/>
<text x="8" y="268.5" fill="#4b5563" font-size="14">68.04</text>
<line x1="72" y1="187.0" x2="862" y2="187.0" stroke="#f3f4f6"/>
<text x="8" y="192.0" fill="#4b5563" font-size="14">71.22</text>
<line x1="72" y1="110.5" x2="862" y2="110.5" stroke="#f3f4f6"/>
<text x="8" y="115.5" fill="#4b5563" font-size="14">74.41</text>
<line x1="72" y1="34.0" x2="862" y2="34.0" stroke="#f3f4f6"/>
<text x="8" y="39.0" fill="#4b5563" font-size="14">77.59</text>
<line x1="72.0" y1="270.8" x2="72.0" y2="298.7" stroke="#16a34a" stroke-width="1"/><rect x="69.3" y="285.7" width="5.4" height="9.4" fill="#16a34a" opacity="0.82" rx="1"/>
<line x1="80.9" y1="274.4" x2="80.9" y2="292.2" stroke="#dc2626" stroke-width="1"/><rect x="78.2" y="285.7" width="5.4" height="3.6" fill="#dc2626" opacity="0.82" rx="1"/>
<line x1="89.8" y1="276.6" x2="89.8" y2="295.6" stroke="#16a34a" stroke-width="1"/><rect x="87.0" y="276.6" width="5.4" height="12.7" fill="#16a34a" opacity="0.82" rx="1"/>
<line x1="98.6" y1="267.4" x2="98.6" y2="292.2" stroke="#dc2626" stroke-width="1"/><rect x="95.9" y="276.6" width="5.4" height="11.5" fill="#dc2626" opacity="0.82" rx="1"/>
<line x1="107.5" y1="274.2" x2="107.5" y2="289.3" stroke="#16a34a" stroke-width="1"/><rect x="104.8" y="279.0" width="5.4" height="8.7" fill="#16a34a" opacity="0.82" rx="1"/>
<line x1="116.4" y1="277.3" x2="116.4" y2="300.9" stroke="#dc2626" stroke-width="1"/><rect x="113.7" y="279.0" width="5.4" height="19.0" fill="#dc2626" opacity="0.82" rx="1"/>
<line x1="125.3" y1="287.4" x2="125.3" y2="302.8" stroke="#16a34a" stroke-width="1"/><rect x="122.5" y="290.8" width="5.4" height="7.5" fill="#16a34a" opacity="0.82" rx="1"/>
<line x1="134.1" y1="284.7" x2="134.1" y2="304.9" stroke="#dc2626" stroke-width="1"/><rect x="131.4" y="291.0" width="5.4" height="1.4" fill="#dc2626" opacity="0.82" rx="1"/>
<line x1="143.0" y1="271.3" x2="143.0" y2="292.4" stroke="#16a34a" stroke-width="1"/><rect x="140.3" y="277.3" width="5.4" height="14.9" fill="#16a34a" opacity="0.82" rx="1"/>
<line x1="151.9" y1="273.7" x2="151.9" y2="295.6" stroke="#dc2626" stroke-width="1"/><rect x="149.2" y="277.3" width="5.4" height="15.9" fill="#dc2626" opacity="0.82" rx="1"/>
<line x1="160.8" y1="292.2" x2="160.8" y2="310.2" stroke="#dc2626" stroke-width="1"/><rect x="158.0" y="293.4" width="5.4" height="11.3" fill="#dc2626" opacity="0.82" rx="1"/>
<line x1="169.6" y1="299.4" x2="169.6" y2="307.8" stroke="#16a34a" stroke-width="1"/><rect x="166.9" y="299.4" width="5.4" height="5.3" fill="#16a34a" opacity="0.82" rx="1"/>
<line x1="178.5" y1="298.9" x2="178.5" y2="312.4" stroke="#dc2626" stroke-width="1"/><rect x="175.8" y="299.7" width="5.4" height="10.8" fill="#dc2626" opacity="0.82" rx="1"/>
<line x1="187.4" y1="298.2" x2="187.4" y2="318.9" stroke="#16a34a" stroke-width="1"/><rect x="184.7" y="302.1" width="5.4" height="7.9" fill="#16a34a" opacity="0.82" rx="1"/>
<line x1="196.3" y1="241.7" x2="196.3" y2="305.4" stroke="#16a34a" stroke-width="1"/><rect x="193.5" y="246.0" width="5.4" height="55.8" fill="#16a34a" opacity="0.82" rx="1"/>
<line x1="205.1" y1="235.0" x2="205.1" y2="261.7" stroke="#dc2626" stroke-width="1"/><rect x="202.4" y="245.6" width="5.4" height="13.7" fill="#dc2626" opacity="0.82" rx="1"/>
<line x1="214.0" y1="249.9" x2="214.0" y2="298.2" stroke="#16a34a" stroke-width="1"/><rect x="211.3" y="258.1" width="5.4" height="1.2" fill="#16a34a" opacity="0.82" rx="1"/>
<line x1="222.9" y1="253.7" x2="222.9" y2="278.5" stroke="#dc2626" stroke-width="1"/><rect x="220.2" y="258.5" width="5.4" height="6.5" fill="#dc2626" opacity="0.82" rx="1"/>
<line x1="231.8" y1="263.6" x2="231.8" y2="278.5" stroke="#dc2626" stroke-width="1"/><rect x="229.1" y="265.3" width="5.4" height="9.4" fill="#dc2626" opacity="0.82" rx="1"/>
<line x1="240.7" y1="261.9" x2="240.7" y2="279.5" stroke="#16a34a" stroke-width="1"/><rect x="237.9" y="265.3" width="5.4" height="9.4" fill="#16a34a" opacity="0.82" rx="1"/>
<line x1="249.5" y1="261.4" x2="249.5" y2="272.7" stroke="#dc2626" stroke-width="1"/><rect x="246.8" y="265.0" width="5.4" height="1.2" fill="#dc2626" opacity="0.82" rx="1"/>
<line x1="258.4" y1="258.3" x2="258.4" y2="269.1" stroke="#16a34a" stroke-width="1"/><rect x="255.7" y="261.2" width="5.4" height="4.6" fill="#16a34a" opacity="0.82" rx="1"/>
<line x1="267.3" y1="259.7" x2="267.3" y2="270.8" stroke="#dc2626" stroke-width="1"/><rect x="264.6" y="261.4" width="5.4" height="5.3" fill="#dc2626" opacity="0.82" rx="1"/>
<line x1="276.2" y1="262.1" x2="276.2" y2="270.1" stroke="#16a34a" stroke-width="1"/><rect x="273.4" y="264.8" width="5.4" height="1.9" fill="#16a34a" opacity="0.82" rx="1"/>
<line x1="285.0" y1="257.6" x2="285.0" y2="265.5" stroke="#16a34a" stroke-width="1"/><rect x="282.3" y="261.7" width="5.4" height="2.6" fill="#16a34a" opacity="0.82" rx="1"/>
<line x1="293.9" y1="238.1" x2="293.9" y2="262.6" stroke="#16a34a" stroke-width="1"/><rect x="291.2" y="244.1" width="5.4" height="17.6" fill="#16a34a" opacity="0.82" rx="1"/>
<line x1="302.8" y1="239.3" x2="302.8" y2="255.7" stroke="#dc2626" stroke-width="1"/><rect x="300.1" y="244.1" width="5.4" height="5.0" fill="#dc2626" opacity="0.82" rx="1"/>
<line x1="311.7" y1="242.2" x2="311.7" y2="251.3" stroke="#16a34a" stroke-width="1"/><rect x="308.9" y="245.3" width="5.4" height="3.8" fill="#16a34a" opacity="0.82" rx="1"/>
<line x1="320.5" y1="230.4" x2="320.5" y2="246.8" stroke="#16a34a" stroke-width="1"/><rect x="317.8" y="239.5" width="5.4" height="5.5" fill="#16a34a" opacity="0.82" rx="1"/>
<line x1="329.4" y1="232.1" x2="329.4" y2="239.8" stroke="#16a34a" stroke-width="1"/><rect x="326.7" y="233.3" width="5.4" height="6.0" fill="#16a34a" opacity="0.82" rx="1"/>
<line x1="338.3" y1="205.6" x2="338.3" y2="241.7" stroke="#dc2626" stroke-width="1"/><rect x="335.6" y="233.3" width="5.4" height="5.8" fill="#dc2626" opacity="0.82" rx="1"/>
<line x1="347.2" y1="214.3" x2="347.2" y2="245.6" stroke="#16a34a" stroke-width="1"/><rect x="344.4" y="220.8" width="5.4" height="18.0" fill="#16a34a" opacity="0.82" rx="1"/>
<line x1="356.0" y1="203.9" x2="356.0" y2="220.5" stroke="#16a34a" stroke-width="1"/><rect x="353.3" y="207.8" width="5.4" height="12.5" fill="#16a34a" opacity="0.82" rx="1"/>
<line x1="364.9" y1="196.7" x2="364.9" y2="208.3" stroke="#16a34a" stroke-width="1"/><rect x="362.2" y="205.6" width="5.4" height="1.9" fill="#16a34a" opacity="0.82" rx="1"/>
<line x1="373.8" y1="197.9" x2="373.8" y2="209.0" stroke="#16a34a" stroke-width="1"/><rect x="371.1" y="203.0" width="5.4" height="2.9" fill="#16a34a" opacity="0.82" rx="1"/>
<line x1="382.7" y1="187.4" x2="382.7" y2="206.1" stroke="#16a34a" stroke-width="1"/><rect x="380.0" y="196.0" width="5.4" height="6.5" fill="#16a34a" opacity="0.82" rx="1"/>
<line x1="391.6" y1="187.6" x2="391.6" y2="198.2" stroke="#16a34a" stroke-width="1"/><rect x="388.8" y="189.0" width="5.4" height="6.3" fill="#16a34a" opacity="0.82" rx="1"/>
<line x1="400.4" y1="184.0" x2="400.4" y2="203.5" stroke="#dc2626" stroke-width="1"/><rect x="397.7" y="188.8" width="5.4" height="7.0" fill="#dc2626" opacity="0.82" rx="1"/>
<line x1="409.3" y1="188.6" x2="409.3" y2="198.7" stroke="#16a34a" stroke-width="1"/><rect x="406.6" y="191.7" width="5.4" height="4.6" fill="#16a34a" opacity="0.82" rx="1"/>
<line x1="418.2" y1="186.6" x2="418.2" y2="205.6" stroke="#dc2626" stroke-width="1"/><rect x="415.5" y="192.2" width="5.4" height="3.1" fill="#dc2626" opacity="0.82" rx="1"/>
<line x1="427.1" y1="192.2" x2="427.1" y2="201.3" stroke="#dc2626" stroke-width="1"/><rect x="424.3" y="195.5" width="5.4" height="1.2" fill="#dc2626" opacity="0.82" rx="1"/>
<line x1="435.9" y1="194.8" x2="435.9" y2="234.2" stroke="#dc2626" stroke-width="1"/><rect x="433.2" y="196.5" width="5.4" height="37.8" fill="#dc2626" opacity="0.82" rx="1"/>
<line x1="444.8" y1="216.9" x2="444.8" y2="249.6" stroke="#16a34a" stroke-width="1"/><rect x="442.1" y="221.5" width="5.4" height="12.5" fill="#16a34a" opacity="0.82" rx="1"/>
<line x1="453.7" y1="213.1" x2="453.7" y2="225.6" stroke="#16a34a" stroke-width="1"/><rect x="451.0" y="216.7" width="5.4" height="4.8" fill="#16a34a" opacity="0.82" rx="1"/>
<line x1="462.6" y1="193.4" x2="462.6" y2="220.3" stroke="#16a34a" stroke-width="1"/><rect x="459.8" y="198.7" width="5.4" height="18.0" fill="#16a34a" opacity="0.82" rx="1"/>
<line x1="471.4" y1="191.0" x2="471.4" y2="202.7" stroke="#16a34a" stroke-width="1"/><rect x="468.7" y="196.5" width="5.4" height="2.9" fill="#16a34a" opacity="0.82" rx="1"/>
<line x1="480.3" y1="192.4" x2="480.3" y2="211.2" stroke="#dc2626" stroke-width="1"/><rect x="477.6" y="196.7" width="5.4" height="13.7" fill="#dc2626" opacity="0.82" rx="1"/>
<line x1="489.2" y1="194.3" x2="489.2" y2="210.4" stroke="#16a34a" stroke-width="1"/><rect x="486.5" y="194.8" width="5.4" height="15.4" fill="#16a34a" opacity="0.82" rx="1"/>
<line x1="498.1" y1="191.0" x2="498.1" y2="196.7" stroke="#dc2626" stroke-width="1"/><rect x="495.3" y="194.8" width="5.4" height="1.2" fill="#dc2626" opacity="0.82" rx="1"/>
<line x1="506.9" y1="150.8" x2="506.9" y2="195.3" stroke="#16a34a" stroke-width="1"/><rect x="504.2" y="153.9" width="5.4" height="40.9" fill="#16a34a" opacity="0.82" rx="1"/>
<line x1="515.8" y1="147.0" x2="515.8" y2="163.3" stroke="#dc2626" stroke-width="1"/><rect x="513.1" y="154.4" width="5.4" height="5.8" fill="#dc2626" opacity="0.82" rx="1"/>
<line x1="524.7" y1="150.6" x2="524.7" y2="166.0" stroke="#16a34a" stroke-width="1"/><rect x="522.0" y="151.5" width="5.4" height="9.4" fill="#16a34a" opacity="0.82" rx="1"/>
<line x1="533.6" y1="142.4" x2="533.6" y2="156.1" stroke="#16a34a" stroke-width="1"/><rect x="530.9" y="148.9" width="5.4" height="3.1" fill="#16a34a" opacity="0.82" rx="1"/>
<line x1="542.4" y1="145.8" x2="542.4" y2="180.4" stroke="#dc2626" stroke-width="1"/><rect x="539.7" y="149.1" width="5.4" height="24.8" fill="#dc2626" opacity="0.82" rx="1"/>
<line x1="551.3" y1="151.8" x2="551.3" y2="188.3" stroke="#16a34a" stroke-width="1"/><rect x="548.6" y="173.2" width="5.4" height="1.2" fill="#16a34a" opacity="0.82" rx="1"/>
<line x1="560.2" y1="170.3" x2="560.2" y2="229.2" stroke="#dc2626" stroke-width="1"/><rect x="557.5" y="173.2" width="5.4" height="50.0" fill="#dc2626" opacity="0.82" rx="1"/>
<line x1="569.1" y1="210.2" x2="569.1" y2="269.8" stroke="#dc2626" stroke-width="1"/><rect x="566.4" y="223.2" width="5.4" height="22.1" fill="#dc2626" opacity="0.82" rx="1"/>
<line x1="578.0" y1="219.1" x2="578.0" y2="246.0" stroke="#16a34a" stroke-width="1"/><rect x="575.2" y="232.6" width="5.4" height="13.2" fill="#16a34a" opacity="0.82" rx="1"/>
<line x1="586.8" y1="226.1" x2="586.8" y2="248.4" stroke="#16a34a" stroke-width="1"/><rect x="584.1" y="232.3" width="5.4" height="1.2" fill="#16a34a" opacity="0.82" rx="1"/>
<line x1="595.7" y1="227.8" x2="595.7" y2="255.4" stroke="#dc2626" stroke-width="1"/><rect x="593.0" y="232.6" width="5.4" height="18.8" fill="#dc2626" opacity="0.82" rx="1"/>
<line x1="604.6" y1="240.5" x2="604.6" y2="264.1" stroke="#dc2626" stroke-width="1"/><rect x="601.9" y="251.3" width="5.4" height="11.3" fill="#dc2626" opacity="0.82" rx="1"/>
<line x1="613.5" y1="225.1" x2="613.5" y2="263.3" stroke="#16a34a" stroke-width="1"/><rect x="610.7" y="258.3" width="5.4" height="4.6" fill="#16a34a" opacity="0.82" rx="1"/>
<line x1="622.3" y1="246.8" x2="622.3" y2="258.8" stroke="#16a34a" stroke-width="1"/><rect x="619.6" y="253.0" width="5.4" height="5.3" fill="#16a34a" opacity="0.82" rx="1"/>
<line x1="631.2" y1="235.7" x2="631.2" y2="258.5" stroke="#16a34a" stroke-width="1"/><rect x="628.5" y="237.4" width="5.4" height="15.1" fill="#16a34a" opacity="0.82" rx="1"/>
<line x1="640.1" y1="224.6" x2="640.1" y2="249.4" stroke="#dc2626" stroke-width="1"/><rect x="637.4" y="237.6" width="5.4" height="5.5" fill="#dc2626" opacity="0.82" rx="1"/>
<line x1="649.0" y1="209.7" x2="649.0" y2="243.9" stroke="#16a34a" stroke-width="1"/><rect x="646.2" y="220.1" width="5.4" height="23.1" fill="#16a34a" opacity="0.82" rx="1"/>
<line x1="657.8" y1="210.9" x2="657.8" y2="225.6" stroke="#16a34a" stroke-width="1"/><rect x="655.1" y="211.9" width="5.4" height="8.4" fill="#16a34a" opacity="0.82" rx="1"/>
<line x1="666.7" y1="204.7" x2="666.7" y2="216.2" stroke="#16a34a" stroke-width="1"/><rect x="664.0" y="209.0" width="5.4" height="3.4" fill="#16a34a" opacity="0.82" rx="1"/>
<line x1="675.6" y1="208.0" x2="675.6" y2="219.1" stroke="#dc2626" stroke-width="1"/><rect x="672.9" y="208.8" width="5.4" height="2.9" fill="#dc2626" opacity="0.82" rx="1"/>
<line x1="684.5" y1="180.6" x2="684.5" y2="212.4" stroke="#16a34a" stroke-width="1"/><rect x="681.8" y="183.0" width="5.4" height="28.4" fill="#16a34a" opacity="0.82" rx="1"/>
<line x1="693.3" y1="164.8" x2="693.3" y2="187.8" stroke="#16a34a" stroke-width="1"/><rect x="690.6" y="172.4" width="5.4" height="11.1" fill="#16a34a" opacity="0.82" rx="1"/>
<line x1="702.2" y1="168.1" x2="702.2" y2="175.3" stroke="#16a34a" stroke-width="1"/><rect x="699.5" y="170.0" width="5.4" height="2.9" fill="#16a34a" opacity="0.82" rx="1"/>
<line x1="711.1" y1="162.8" x2="711.1" y2="172.2" stroke="#16a34a" stroke-width="1"/><rect x="708.4" y="167.4" width="5.4" height="2.9" fill="#16a34a" opacity="0.82" rx="1"/>
<line x1="720.0" y1="162.1" x2="720.0" y2="189.0" stroke="#dc2626" stroke-width="1"/><rect x="717.3" y="167.4" width="5.4" height="13.0" fill="#dc2626" opacity="0.82" rx="1"/>
<line x1="728.9" y1="174.4" x2="728.9" y2="190.0" stroke="#dc2626" stroke-width="1"/><rect x="726.1" y="180.1" width="5.4" height="4.8" fill="#dc2626" opacity="0.82" rx="1"/>
<line x1="737.7" y1="184.0" x2="737.7" y2="196.0" stroke="#dc2626" stroke-width="1"/><rect x="735.0" y="185.2" width="5.4" height="4.8" fill="#dc2626" opacity="0.82" rx="1"/>
<line x1="746.6" y1="183.7" x2="746.6" y2="207.1" stroke="#dc2626" stroke-width="1"/><rect x="743.9" y="189.8" width="5.4" height="11.3" fill="#dc2626" opacity="0.82" rx="1"/>
<line x1="755.5" y1="177.0" x2="755.5" y2="201.1" stroke="#16a34a" stroke-width="1"/><rect x="752.8" y="183.7" width="5.4" height="17.3" fill="#16a34a" opacity="0.82" rx="1"/>
<line x1="764.4" y1="174.9" x2="764.4" y2="222.0" stroke="#dc2626" stroke-width="1"/><rect x="761.6" y="183.7" width="5.4" height="37.0" fill="#dc2626" opacity="0.82" rx="1"/>
<line x1="773.2" y1="185.0" x2="773.2" y2="222.9" stroke="#16a34a" stroke-width="1"/><rect x="770.5" y="204.4" width="5.4" height="16.4" fill="#16a34a" opacity="0.82" rx="1"/>
<line x1="782.1" y1="168.6" x2="782.1" y2="205.9" stroke="#16a34a" stroke-width="1"/><rect x="779.4" y="169.1" width="5.4" height="34.6" fill="#16a34a" opacity="0.82" rx="1"/>
<line x1="791.0" y1="163.1" x2="791.0" y2="177.0" stroke="#dc2626" stroke-width="1"/><rect x="788.3" y="169.1" width="5.4" height="2.6" fill="#dc2626" opacity="0.82" rx="1"/>
<line x1="799.9" y1="155.9" x2="799.9" y2="180.4" stroke="#16a34a" stroke-width="1"/><rect x="797.1" y="156.8" width="5.4" height="14.9" fill="#16a34a" opacity="0.82" rx="1"/>
<line x1="808.7" y1="137.3" x2="808.7" y2="211.2" stroke="#dc2626" stroke-width="1"/><rect x="806.0" y="156.6" width="5.4" height="9.9" fill="#dc2626" opacity="0.82" rx="1"/>
<line x1="817.6" y1="151.0" x2="817.6" y2="222.0" stroke="#dc2626" stroke-width="1"/><rect x="814.9" y="166.2" width="5.4" height="52.7" fill="#dc2626" opacity="0.82" rx="1"/>
<line x1="826.5" y1="190.7" x2="826.5" y2="219.1" stroke="#16a34a" stroke-width="1"/><rect x="823.8" y="198.4" width="5.4" height="20.4" fill="#16a34a" opacity="0.82" rx="1"/>
<line x1="835.4" y1="180.1" x2="835.4" y2="198.9" stroke="#16a34a" stroke-width="1"/><rect x="832.6" y="189.5" width="5.4" height="9.1" fill="#16a34a" opacity="0.82" rx="1"/>
<line x1="844.2" y1="168.4" x2="844.2" y2="202.3" stroke="#16a34a" stroke-width="1"/><rect x="841.5" y="171.2" width="5.4" height="18.3" fill="#16a34a" opacity="0.82" rx="1"/>
<line x1="853.1" y1="149.8" x2="853.1" y2="173.9" stroke="#16a34a" stroke-width="1"/><rect x="850.4" y="157.1" width="5.4" height="13.9" fill="#16a34a" opacity="0.82" rx="1"/>
<line x1="862.0" y1="140.5" x2="862.0" y2="163.1" stroke="#16a34a" stroke-width="1"/><rect x="859.3" y="140.9" width="5.4" height="15.6" fill="#16a34a" opacity="0.82" rx="1"/>
<line x1="72" y1="192.4" x2="862" y2="192.4" stroke="#16a34a" stroke-width="1.8" stroke-dasharray="6 4" /><rect x="874" y="172.4" width="166" height="23" rx="5" fill="#ffffff" stroke="#16a34a" opacity="0.97"/><text x="881" y="188.4" fill="#16a34a" font-size="15" font-weight="700">日内支撑 71.00</text>
<line x1="72" y1="55.1" x2="862" y2="55.1" stroke="#dc2626" stroke-width="1.8" stroke-dasharray="6 4" /><rect x="874" y="35.1" width="166" height="23" rx="5" fill="#ffffff" stroke="#dc2626" opacity="0.97"/><text x="881" y="51.1" fill="#dc2626" font-size="15" font-weight="700">日内压力 76.71</text>
<line x1="72" y1="140.9" x2="862" y2="140.9" stroke="#111827" stroke-width="1.8" stroke-dasharray="2 2" /><rect x="874" y="120.9" width="166" height="23" rx="5" fill="#ffffff" stroke="#111827" opacity="0.97"/><text x="881" y="136.9" fill="#111827" font-size="15" font-weight="700">现价 73.14</text>
<text x="72" y="396" fill="#16a34a" font-size="14" font-weight="700">日内做多计划</text><rect x="72" y="404" width="790" height="48" rx="6" fill="#f9fafb" stroke="#e5e7eb"/><line x1="94" y1="412" x2="840" y2="412" stroke="#16a34a" stroke-width="3"/><circle cx="132.0" cy="412" r="5" fill="#16a34a"/><text x="132.0" y="434" fill="#374151" font-size="12" text-anchor="middle">入场 止跌/突破回踩</text><circle cx="451.2" cy="412" r="5" fill="#16a34a"/><text x="451.2" y="434" fill="#374151" font-size="12" text-anchor="middle">止损 71.00</text><circle cx="712.0" cy="412" r="5" fill="#16a34a"/><text x="712.0" y="434" fill="#374151" font-size="12" text-anchor="middle">目标一 76.71</text><circle cx="814.0" cy="412" r="5" fill="#16a34a"/><text x="814.0" y="434" fill="#374151" font-size="12" text-anchor="middle">目标二 78.14</text>
<text x="72" y="482" fill="#dc2626" font-size="14" font-weight="700">日内做空计划</text><rect x="72" y="490" width="790" height="48" rx="6" fill="#f9fafb" stroke="#e5e7eb"/><line x1="94" y1="498" x2="840" y2="498" stroke="#dc2626" stroke-width="3"/><circle cx="132.0" cy="498" r="5" fill="#dc2626"/><text x="132.0" y="520" fill="#374151" font-size="12" text-anchor="middle">入场 反弹承压/破位回抽</text><circle cx="451.2" cy="498" r="5" fill="#dc2626"/><text x="451.2" y="520" fill="#374151" font-size="12" text-anchor="middle">止损 76.71</text><circle cx="712.0" cy="498" r="5" fill="#dc2626"/><text x="712.0" y="520" fill="#374151" font-size="12" text-anchor="middle">目标一 71.00</text><circle cx="814.0" cy="498" r="5" fill="#dc2626"/><text x="814.0" y="520" fill="#374151" font-size="12" text-anchor="middle">目标二 69.57</text>
</svg>