<svg xmlns="http://www.w3.org/2000/svg" width="1080" height="560" viewBox="0 0 1080 560">
<rect width="100%" height="100%" fill="#ffffff"/>
<text x="72" y="23" fill="#111827" font-size="21" font-weight="800">BTC 小时线K线支撑压力图</text>
<text x="862" y="42" fill="#374151" font-size="15" text-anchor="end">最新价 64,065</text>
<line x1="72" y1="34" x2="72" y2="340" stroke="#d1d5db"/>
<line x1="72" y1="340" x2="862" y2="340" stroke="#d1d5db"/>
<line x1="72" y1="340.0" x2="862" y2="340.0" stroke="#f3f4f6"/>
<text x="8" y="345.0" fill="#4b5563" font-size="14">63,006</text>
<line x1="72" y1="263.5" x2="862" y2="263.5" stroke="#f3f4f6"/>
<text x="8" y="268.5" fill="#4b5563" font-size="14">64,147</text>
<line x1="72" y1="187.0" x2="862" y2="187.0" stroke="#f3f4f6"/>
<text x="8" y="192.0" fill="#4b5563" font-size="14">65,288</text>
<line x1="72" y1="110.5" x2="862" y2="110.5" stroke="#f3f4f6"/>
<text x="8" y="115.5" fill="#4b5563" font-size="14">66,429</text>
<line x1="72" y1="34.0" x2="862" y2="34.0" stroke="#f3f4f6"/>
<text x="8" y="39.0" fill="#4b5563" font-size="14">67,570</text>
<line x1="72.0" y1="252.4" x2="72.0" y2="284.8" stroke="#dc2626" stroke-width="1"/><rect x="69.3" y="254.1" width="5.4" height="22.4" fill="#dc2626" opacity="0.82" rx="1"/>
<line x1="80.9" y1="265.1" x2="80.9" y2="277.0" stroke="#16a34a" stroke-width="1"/><rect x="78.2" y="273.7" width="5.4" height="2.8" fill="#16a34a" opacity="0.82" rx="1"/>
<line x1="89.8" y1="261.1" x2="89.8" y2="280.0" stroke="#dc2626" stroke-width="1"/><rect x="87.0" y="273.7" width="5.4" height="5.5" fill="#dc2626" opacity="0.82" rx="1"/>
<line x1="98.6" y1="273.4" x2="98.6" y2="296.8" stroke="#dc2626" stroke-width="1"/><rect x="95.9" y="279.1" width="5.4" height="13.9" fill="#dc2626" opacity="0.82" rx="1"/>
<line x1="107.5" y1="287.3" x2="107.5" y2="296.8" stroke="#16a34a" stroke-width="1"/><rect x="104.8" y="287.8" width="5.4" height="5.2" fill="#16a34a" opacity="0.82" rx="1"/>
<line x1="116.4" y1="284.7" x2="116.4" y2="293.3" stroke="#dc2626" stroke-width="1"/><rect x="113.7" y="287.8" width="5.4" height="1.2" fill="#dc2626" opacity="0.82" rx="1"/>
<line x1="125.3" y1="268.7" x2="125.3" y2="289.3" stroke="#16a34a" stroke-width="1"/><rect x="122.5" y="274.8" width="5.4" height="13.5" fill="#16a34a" opacity="0.82" rx="1"/>
<line x1="134.1" y1="162.6" x2="134.1" y2="275.1" stroke="#16a34a" stroke-width="1"/><rect x="131.4" y="187.2" width="5.4" height="87.6" fill="#16a34a" opacity="0.82" rx="1"/>
<line x1="143.0" y1="169.1" x2="143.0" y2="211.8" stroke="#16a34a" stroke-width="1"/><rect x="140.3" y="180.2" width="5.4" height="7.0" fill="#16a34a" opacity="0.82" rx="1"/>
<line x1="151.9" y1="154.4" x2="151.9" y2="191.8" stroke="#16a34a" stroke-width="1"/><rect x="149.2" y="159.2" width="5.4" height="21.0" fill="#16a34a" opacity="0.82" rx="1"/>
<line x1="160.8" y1="147.3" x2="160.8" y2="176.5" stroke="#dc2626" stroke-width="1"/><rect x="158.0" y="159.2" width="5.4" height="7.4" fill="#dc2626" opacity="0.82" rx="1"/>
<line x1="169.6" y1="159.0" x2="169.6" y2="185.2" stroke="#dc2626" stroke-width="1"/><rect x="166.9" y="166.7" width="5.4" height="7.3" fill="#dc2626" opacity="0.82" rx="1"/>
<line x1="178.5" y1="156.1" x2="178.5" y2="180.6" stroke="#dc2626" stroke-width="1"/><rect x="175.8" y="174.0" width="5.4" height="3.6" fill="#dc2626" opacity="0.82" rx="1"/>
<line x1="187.4" y1="139.5" x2="187.4" y2="179.9" stroke="#16a34a" stroke-width="1"/><rect x="184.7" y="146.3" width="5.4" height="31.2" fill="#16a34a" opacity="0.82" rx="1"/>
<line x1="196.3" y1="146.3" x2="196.3" y2="166.0" stroke="#dc2626" stroke-width="1"/><rect x="193.5" y="146.3" width="5.4" height="18.9" fill="#dc2626" opacity="0.82" rx="1"/>
<line x1="205.1" y1="149.7" x2="205.1" y2="167.6" stroke="#16a34a" stroke-width="1"/><rect x="202.4" y="150.8" width="5.4" height="14.5" fill="#16a34a" opacity="0.82" rx="1"/>
<line x1="214.0" y1="143.8" x2="214.0" y2="158.3" stroke="#dc2626" stroke-width="1"/><rect x="211.3" y="150.8" width="5.4" height="3.7" fill="#dc2626" opacity="0.82" rx="1"/>
<line x1="222.9" y1="140.7" x2="222.9" y2="167.4" stroke="#dc2626" stroke-width="1"/><rect x="220.2" y="154.5" width="5.4" height="8.8" fill="#dc2626" opacity="0.82" rx="1"/>
<line x1="231.8" y1="154.8" x2="231.8" y2="167.4" stroke="#dc2626" stroke-width="1"/><rect x="229.1" y="163.2" width="5.4" height="1.5" fill="#dc2626" opacity="0.82" rx="1"/>
<line x1="240.7" y1="156.7" x2="240.7" y2="174.9" stroke="#dc2626" stroke-width="1"/><rect x="237.9" y="164.7" width="5.4" height="4.0" fill="#dc2626" opacity="0.82" rx="1"/>
<line x1="249.5" y1="143.7" x2="249.5" y2="169.8" stroke="#16a34a" stroke-width="1"/><rect x="246.8" y="147.0" width="5.4" height="21.8" fill="#16a34a" opacity="0.82" rx="1"/>
<line x1="258.4" y1="116.1" x2="258.4" y2="152.2" stroke="#16a34a" stroke-width="1"/><rect x="255.7" y="126.4" width="5.4" height="20.6" fill="#16a34a" opacity="0.82" rx="1"/>
<line x1="267.3" y1="101.1" x2="267.3" y2="135.5" stroke="#16a34a" stroke-width="1"/><rect x="264.6" y="103.8" width="5.4" height="22.6" fill="#16a34a" opacity="0.82" rx="1"/>
<line x1="276.2" y1="77.9" x2="276.2" y2="114.1" stroke="#dc2626" stroke-width="1"/><rect x="273.4" y="103.8" width="5.4" height="7.9" fill="#dc2626" opacity="0.82" rx="1"/>
<line x1="285.0" y1="95.9" x2="285.0" y2="121.5" stroke="#16a34a" stroke-width="1"/><rect x="282.3" y="102.2" width="5.4" height="9.5" fill="#16a34a" opacity="0.82" rx="1"/>
<line x1="293.9" y1="55.1" x2="293.9" y2="103.0" stroke="#16a34a" stroke-width="1"/><rect x="291.2" y="55.6" width="5.4" height="46.7" fill="#16a34a" opacity="0.82" rx="1"/>
<line x1="302.8" y1="55.2" x2="302.8" y2="68.8" stroke="#dc2626" stroke-width="1"/><rect x="300.1" y="55.6" width="5.4" height="8.5" fill="#dc2626" opacity="0.82" rx="1"/>
<line x1="311.7" y1="64.0" x2="311.7" y2="96.7" stroke="#dc2626" stroke-width="1"/><rect x="308.9" y="64.0" width="5.4" height="20.2" fill="#dc2626" opacity="0.82" rx="1"/>
<line x1="320.5" y1="78.9" x2="320.5" y2="93.8" stroke="#dc2626" stroke-width="1"/><rect x="317.8" y="84.2" width="5.4" height="6.3" fill="#dc2626" opacity="0.82" rx="1"/>
<line x1="329.4" y1="81.9" x2="329.4" y2="119.0" stroke="#dc2626" stroke-width="1"/><rect x="326.7" y="90.6" width="5.4" height="9.8" fill="#dc2626" opacity="0.82" rx="1"/>
<line x1="338.3" y1="95.1" x2="338.3" y2="109.4" stroke="#dc2626" stroke-width="1"/><rect x="335.6" y="100.4" width="5.4" height="6.0" fill="#dc2626" opacity="0.82" rx="1"/>
<line x1="347.2" y1="103.4" x2="347.2" y2="120.2" stroke="#dc2626" stroke-width="1"/><rect x="344.4" y="106.4" width="5.4" height="10.2" fill="#dc2626" opacity="0.82" rx="1"/>
<line x1="356.0" y1="109.4" x2="356.0" y2="134.9" stroke="#dc2626" stroke-width="1"/><rect x="353.3" y="116.7" width="5.4" height="11.2" fill="#dc2626" opacity="0.82" rx="1"/>
<line x1="364.9" y1="116.8" x2="364.9" y2="133.5" stroke="#16a34a" stroke-width="1"/><rect x="362.2" y="120.1" width="5.4" height="7.8" fill="#16a34a" opacity="0.82" rx="1"/>
<line x1="373.8" y1="110.6" x2="373.8" y2="126.0" stroke="#dc2626" stroke-width="1"/><rect x="371.1" y="120.1" width="5.4" height="4.6" fill="#dc2626" opacity="0.82" rx="1"/>
<line x1="382.7" y1="113.2" x2="382.7" y2="125.4" stroke="#16a34a" stroke-width="1"/><rect x="380.0" y="118.5" width="5.4" height="6.2" fill="#16a34a" opacity="0.82" rx="1"/>
<line x1="391.6" y1="117.0" x2="391.6" y2="162.4" stroke="#dc2626" stroke-width="1"/><rect x="388.8" y="118.5" width="5.4" height="39.9" fill="#dc2626" opacity="0.82" rx="1"/>
<line x1="400.4" y1="129.5" x2="400.4" y2="165.6" stroke="#16a34a" stroke-width="1"/><rect x="397.7" y="130.9" width="5.4" height="27.6" fill="#16a34a" opacity="0.82" rx="1"/>
<line x1="409.3" y1="122.4" x2="409.3" y2="154.8" stroke="#dc2626" stroke-width="1"/><rect x="406.6" y="130.9" width="5.4" height="21.1" fill="#dc2626" opacity="0.82" rx="1"/>
<line x1="418.2" y1="131.2" x2="418.2" y2="151.9" stroke="#16a34a" stroke-width="1"/><rect x="415.5" y="137.4" width="5.4" height="14.5" fill="#16a34a" opacity="0.82" rx="1"/>
<line x1="427.1" y1="102.8" x2="427.1" y2="137.6" stroke="#16a34a" stroke-width="1"/><rect x="424.3" y="112.0" width="5.4" height="25.4" fill="#16a34a" opacity="0.82" rx="1"/>
<line x1="435.9" y1="105.9" x2="435.9" y2="121.0" stroke="#dc2626" stroke-width="1"/><rect x="433.2" y="112.0" width="5.4" height="4.3" fill="#dc2626" opacity="0.82" rx="1"/>
<line x1="444.8" y1="75.1" x2="444.8" y2="118.5" stroke="#16a34a" stroke-width="1"/><rect x="442.1" y="81.4" width="5.4" height="35.0" fill="#16a34a" opacity="0.82" rx="1"/>
<line x1="453.7" y1="80.0" x2="453.7" y2="109.8" stroke="#dc2626" stroke-width="1"/><rect x="451.0" y="81.4" width="5.4" height="25.8" fill="#dc2626" opacity="0.82" rx="1"/>
<line x1="462.6" y1="88.6" x2="462.6" y2="109.0" stroke="#dc2626" stroke-width="1"/><rect x="459.8" y="107.2" width="5.4" height="1.2" fill="#dc2626" opacity="0.82" rx="1"/>
<line x1="471.4" y1="97.8" x2="471.4" y2="117.5" stroke="#dc2626" stroke-width="1"/><rect x="468.7" y="107.4" width="5.4" height="1.3" fill="#dc2626" opacity="0.82" rx="1"/>
<line x1="480.3" y1="86.5" x2="480.3" y2="117.5" stroke="#dc2626" stroke-width="1"/><rect x="477.6" y="108.7" width="5.4" height="4.4" fill="#dc2626" opacity="0.82" rx="1"/>
<line x1="489.2" y1="110.1" x2="489.2" y2="146.4" stroke="#dc2626" stroke-width="1"/><rect x="486.5" y="113.1" width="5.4" height="25.3" fill="#dc2626" opacity="0.82" rx="1"/>
<line x1="498.1" y1="123.2" x2="498.1" y2="184.3" stroke="#dc2626" stroke-width="1"/><rect x="495.3" y="138.4" width="5.4" height="25.7" fill="#dc2626" opacity="0.82" rx="1"/>
<line x1="506.9" y1="140.5" x2="506.9" y2="167.4" stroke="#16a34a" stroke-width="1"/><rect x="504.2" y="149.9" width="5.4" height="14.2" fill="#16a34a" opacity="0.82" rx="1"/>
<line x1="515.8" y1="143.8" x2="515.8" y2="161.0" stroke="#dc2626" stroke-width="1"/><rect x="513.1" y="149.9" width="5.4" height="7.4" fill="#dc2626" opacity="0.82" rx="1"/>
<line x1="524.7" y1="139.8" x2="524.7" y2="160.9" stroke="#16a34a" stroke-width="1"/><rect x="522.0" y="142.9" width="5.4" height="14.4" fill="#16a34a" opacity="0.82" rx="1"/>
<line x1="533.6" y1="122.8" x2="533.6" y2="154.9" stroke="#dc2626" stroke-width="1"/><rect x="530.9" y="142.9" width="5.4" height="8.3" fill="#dc2626" opacity="0.82" rx="1"/>
<line x1="542.4" y1="151.2" x2="542.4" y2="170.8" stroke="#dc2626" stroke-width="1"/><rect x="539.7" y="151.2" width="5.4" height="11.4" fill="#dc2626" opacity="0.82" rx="1"/>
<line x1="551.3" y1="150.5" x2="551.3" y2="168.7" stroke="#16a34a" stroke-width="1"/><rect x="548.6" y="151.1" width="5.4" height="11.5" fill="#16a34a" opacity="0.82" rx="1"/>
<line x1="560.2" y1="145.4" x2="560.2" y2="165.4" stroke="#dc2626" stroke-width="1"/><rect x="557.5" y="151.1" width="5.4" height="5.6" fill="#dc2626" opacity="0.82" rx="1"/>
<line x1="569.1" y1="149.0" x2="569.1" y2="163.1" stroke="#16a34a" stroke-width="1"/><rect x="566.4" y="156.4" width="5.4" height="1.2" fill="#16a34a" opacity="0.82" rx="1"/>
<line x1="578.0" y1="152.3" x2="578.0" y2="167.4" stroke="#dc2626" stroke-width="1"/><rect x="575.2" y="156.4" width="5.4" height="6.7" fill="#dc2626" opacity="0.82" rx="1"/>
<line x1="586.8" y1="151.3" x2="586.8" y2="163.1" stroke="#16a34a" stroke-width="1"/><rect x="584.1" y="160.8" width="5.4" height="2.3" fill="#16a34a" opacity="0.82" rx="1"/>
<line x1="595.7" y1="144.3" x2="595.7" y2="177.6" stroke="#16a34a" stroke-width="1"/><rect x="593.0" y="145.9" width="5.4" height="14.9" fill="#16a34a" opacity="0.82" rx="1"/>
<line x1="604.6" y1="133.1" x2="604.6" y2="156.5" stroke="#dc2626" stroke-width="1"/><rect x="601.9" y="145.9" width="5.4" height="1.9" fill="#dc2626" opacity="0.82" rx="1"/>
<line x1="613.5" y1="147.8" x2="613.5" y2="161.3" stroke="#dc2626" stroke-width="1"/><rect x="610.7" y="147.8" width="5.4" height="3.6" fill="#dc2626" opacity="0.82" rx="1"/>
<line x1="622.3" y1="138.0" x2="622.3" y2="156.4" stroke="#16a34a" stroke-width="1"/><rect x="619.6" y="149.2" width="5.4" height="2.3" fill="#16a34a" opacity="0.82" rx="1"/>
<line x1="631.2" y1="142.7" x2="631.2" y2="159.2" stroke="#dc2626" stroke-width="1"/><rect x="628.5" y="149.2" width="5.4" height="3.8" fill="#dc2626" opacity="0.82" rx="1"/>
<line x1="640.1" y1="148.0" x2="640.1" y2="170.4" stroke="#dc2626" stroke-width="1"/><rect x="637.4" y="152.9" width="5.4" height="13.9" fill="#dc2626" opacity="0.82" rx="1"/>
<line x1="649.0" y1="160.7" x2="649.0" y2="192.9" stroke="#dc2626" stroke-width="1"/><rect x="646.2" y="166.8" width="5.4" height="5.7" fill="#dc2626" opacity="0.82" rx="1"/>
<line x1="657.8" y1="169.5" x2="657.8" y2="219.7" stroke="#dc2626" stroke-width="1"/><rect x="655.1" y="172.5" width="5.4" height="41.2" fill="#dc2626" opacity="0.82" rx="1"/>
<line x1="666.7" y1="203.3" x2="666.7" y2="219.7" stroke="#dc2626" stroke-width="1"/><rect x="664.0" y="213.7" width="5.4" height="1.2" fill="#dc2626" opacity="0.82" rx="1"/>
<line x1="675.6" y1="208.7" x2="675.6" y2="224.2" stroke="#dc2626" stroke-width="1"/><rect x="672.9" y="214.4" width="5.4" height="7.3" fill="#dc2626" opacity="0.82" rx="1"/>
<line x1="684.5" y1="217.4" x2="684.5" y2="238.2" stroke="#16a34a" stroke-width="1"/><rect x="681.8" y="221.4" width="5.4" height="1.2" fill="#16a34a" opacity="0.82" rx="1"/>
<line x1="693.3" y1="200.9" x2="693.3" y2="236.4" stroke="#16a34a" stroke-width="1"/><rect x="690.6" y="206.0" width="5.4" height="15.5" fill="#16a34a" opacity="0.82" rx="1"/>
<line x1="702.2" y1="184.0" x2="702.2" y2="219.4" stroke="#16a34a" stroke-width="1"/><rect x="699.5" y="190.7" width="5.4" height="15.3" fill="#16a34a" opacity="0.82" rx="1"/>
<line x1="711.1" y1="177.2" x2="711.1" y2="224.9" stroke="#dc2626" stroke-width="1"/><rect x="708.4" y="190.7" width="5.4" height="10.7" fill="#dc2626" opacity="0.82" rx="1"/>
<line x1="720.0" y1="150.4" x2="720.0" y2="210.1" stroke="#16a34a" stroke-width="1"/><rect x="717.3" y="158.5" width="5.4" height="42.9" fill="#16a34a" opacity="0.82" rx="1"/>
<line x1="728.9" y1="111.2" x2="728.9" y2="160.9" stroke="#16a34a" stroke-width="1"/><rect x="726.1" y="150.7" width="5.4" height="7.8" fill="#16a34a" opacity="0.82" rx="1"/>
<line x1="737.7" y1="128.5" x2="737.7" y2="155.7" stroke="#16a34a" stroke-width="1"/><rect x="735.0" y="134.4" width="5.4" height="16.3" fill="#16a34a" opacity="0.82" rx="1"/>
<line x1="746.6" y1="133.6" x2="746.6" y2="223.3" stroke="#dc2626" stroke-width="1"/><rect x="743.9" y="134.4" width="5.4" height="39.7" fill="#dc2626" opacity="0.82" rx="1"/>
<line x1="755.5" y1="163.9" x2="755.5" y2="272.4" stroke="#dc2626" stroke-width="1"/><rect x="752.8" y="174.1" width="5.4" height="81.1" fill="#dc2626" opacity="0.82" rx="1"/>
<line x1="764.4" y1="242.5" x2="764.4" y2="264.2" stroke="#16a34a" stroke-width="1"/><rect x="761.6" y="246.1" width="5.4" height="9.0" fill="#16a34a" opacity="0.82" rx="1"/>
<line x1="773.2" y1="244.7" x2="773.2" y2="266.4" stroke="#dc2626" stroke-width="1"/><rect x="770.5" y="246.1" width="5.4" height="11.8" fill="#dc2626" opacity="0.82" rx="1"/>
<line x1="782.1" y1="245.5" x2="782.1" y2="281.3" stroke="#16a34a" stroke-width="1"/><rect x="779.4" y="255.6" width="5.4" height="2.4" fill="#16a34a" opacity="0.82" rx="1"/>
<line x1="791.0" y1="240.2" x2="791.0" y2="258.8" stroke="#16a34a" stroke-width="1"/><rect x="788.3" y="241.7" width="5.4" height="13.9" fill="#16a34a" opacity="0.82" rx="1"/>
<line x1="799.9" y1="228.0" x2="799.9" y2="245.0" stroke="#dc2626" stroke-width="1"/><rect x="797.1" y="241.7" width="5.4" height="2.7" fill="#dc2626" opacity="0.82" rx="1"/>
<line x1="808.7" y1="221.1" x2="808.7" y2="244.6" stroke="#16a34a" stroke-width="1"/><rect x="806.0" y="238.4" width="5.4" height="5.9" fill="#16a34a" opacity="0.82" rx="1"/>
<line x1="817.6" y1="223.1" x2="817.6" y2="243.0" stroke="#16a34a" stroke-width="1"/><rect x="814.9" y="229.6" width="5.4" height="8.8" fill="#16a34a" opacity="0.82" rx="1"/>
<line x1="826.5" y1="229.6" x2="826.5" y2="258.0" stroke="#dc2626" stroke-width="1"/><rect x="823.8" y="229.6" width="5.4" height="26.6" fill="#dc2626" opacity="0.82" rx="1"/>
<line x1="835.4" y1="251.7" x2="835.4" y2="287.8" stroke="#dc2626" stroke-width="1"/><rect x="832.6" y="256.3" width="5.4" height="27.1" fill="#dc2626" opacity="0.82" rx="1"/>
<line x1="844.2" y1="273.4" x2="844.2" y2="296.1" stroke="#16a34a" stroke-width="1"/><rect x="841.5" y="275.9" width="5.4" height="7.5" fill="#16a34a" opacity="0.82" rx="1"/>
<line x1="853.1" y1="266.8" x2="853.1" y2="286.0" stroke="#16a34a" stroke-width="1"/><rect x="850.4" y="269.7" width="5.4" height="6.2" fill="#16a34a" opacity="0.82" rx="1"/>
<line x1="862.0" y1="268.8" x2="862.0" y2="271.3" stroke="#16a34a" stroke-width="1"/><rect x="859.3" y="269.0" width="5.4" height="1.2" fill="#16a34a" opacity="0.82" rx="1"/>
<line x1="72" y1="318.9" x2="862" y2="318.9" stroke="#16a34a" stroke-width="1.8" stroke-dasharray="6 4" /><rect x="874" y="298.9" width="166" height="23" rx="5" fill="#ffffff" stroke="#16a34a" opacity="0.97"/><text x="881" y="314.9" fill="#16a34a" font-size="15" font-weight="700">日内支撑 63,321</text>
<line x1="72" y1="185.9" x2="862" y2="185.9" stroke="#dc2626" stroke-width="1.8" stroke-dasharray="6 4" /><rect x="874" y="165.9" width="166" height="23" rx="5" fill="#ffffff" stroke="#dc2626" opacity="0.97"/><text x="881" y="181.9" fill="#dc2626" font-size="15" font-weight="700">日内压力 65,305</text>
<line x1="72" y1="269.0" x2="862" y2="269.0" stroke="#111827" stroke-width="1.8" stroke-dasharray="2 2" /><rect x="874" y="249.0" width="166" height="23" rx="5" fill="#ffffff" stroke="#111827" opacity="0.97"/><text x="881" y="265.0" fill="#111827" font-size="15" font-weight="700">现价 64,065</text>
<text x="72" y="396" fill="#16a34a" font-size="14" font-weight="700">日内做多计划</text><rect x="72" y="404" width="790" height="48" rx="6" fill="#f9fafb" stroke="#e5e7eb"/><line x1="94" y1="412" x2="840" y2="412" stroke="#16a34a" stroke-width="3"/><circle cx="132.0" cy="412" r="5" fill="#16a34a"/><text x="132.0" y="434" fill="#374151" font-size="12" text-anchor="middle">入场 止跌/突破回踩</text><circle cx="451.2" cy="412" r="5" fill="#16a34a"/><text x="451.2" y="434" fill="#374151" font-size="12" text-anchor="middle">止损 63,321</text><circle cx="712.0" cy="412" r="5" fill="#16a34a"/><text x="712.0" y="434" fill="#374151" font-size="12" text-anchor="middle">目标一 65,305</text><circle cx="814.0" cy="412" r="5" fill="#16a34a"/><text x="814.0" y="434" fill="#374151" font-size="12" text-anchor="middle">目标二 65,801</text>
<text x="72" y="482" fill="#dc2626" font-size="14" font-weight="700">日内做空计划</text><rect x="72" y="490" width="790" height="48" rx="6" fill="#f9fafb" stroke="#e5e7eb"/><line x1="94" y1="498" x2="840" y2="498" stroke="#dc2626" stroke-width="3"/><circle cx="132.0" cy="498" r="5" fill="#dc2626"/><text x="132.0" y="520" fill="#374151" font-size="12" text-anchor="middle">入场 反弹承压/破位回抽</text><circle cx="451.2" cy="498" r="5" fill="#dc2626"/><text x="451.2" y="520" fill="#374151" font-size="12" text-anchor="middle">止损 65,305</text><circle cx="712.0" cy="498" r="5" fill="#dc2626"/><text x="712.0" y="520" fill="#374151" font-size="12" text-anchor="middle">目标一 63,321</text><circle cx="814.0" cy="498" r="5" fill="#dc2626"/><text x="814.0" y="520" fill="#374151" font-size="12" text-anchor="middle">目标二 62,825</text>
</svg>