<svg xmlns="http://www.w3.org/2000/svg" width="1080" height="560" viewBox="0 0 1080 560">
<rect width="100%" height="100%" fill="#ffffff"/>
<text x="72" y="23" fill="#111827" font-size="21" font-weight="800">HYPE 小时线K线支撑压力图</text>
<text x="862" y="42" fill="#374151" font-size="15" text-anchor="end">最新价 71.03</text>
<line x1="72" y1="34" x2="72" y2="340" stroke="#d1d5db"/>
<line x1="72" y1="340" x2="862" y2="340" stroke="#d1d5db"/>
<line x1="72" y1="340.0" x2="862" y2="340.0" stroke="#f3f4f6"/>
<text x="8" y="345.0" fill="#4b5563" font-size="14">58.20</text>
<line x1="72" y1="263.5" x2="862" y2="263.5" stroke="#f3f4f6"/>
<text x="8" y="268.5" fill="#4b5563" font-size="14">63.25</text>
<line x1="72" y1="187.0" x2="862" y2="187.0" stroke="#f3f4f6"/>
<text x="8" y="192.0" fill="#4b5563" font-size="14">68.30</text>
<line x1="72" y1="110.5" x2="862" y2="110.5" stroke="#f3f4f6"/>
<text x="8" y="115.5" fill="#4b5563" font-size="14">73.35</text>
<line x1="72" y1="34.0" x2="862" y2="34.0" stroke="#f3f4f6"/>
<text x="8" y="39.0" fill="#4b5563" font-size="14">78.39</text>
<line x1="72.0" y1="296.3" x2="72.0" y2="318.0" stroke="#dc2626" stroke-width="1"/><rect x="69.3" y="296.7" width="5.4" height="11.1" fill="#dc2626" opacity="0.82" rx="1"/>
<line x1="80.9" y1="301.6" x2="80.9" y2="309.1" stroke="#dc2626" stroke-width="1"/><rect x="78.2" y="307.7" width="5.4" height="1.3" fill="#dc2626" opacity="0.82" rx="1"/>
<line x1="89.8" y1="305.4" x2="89.8" y2="314.2" stroke="#dc2626" stroke-width="1"/><rect x="87.0" y="309.0" width="5.4" height="4.6" fill="#dc2626" opacity="0.82" rx="1"/>
<line x1="98.6" y1="307.5" x2="98.6" y2="316.9" stroke="#dc2626" stroke-width="1"/><rect x="95.9" y="313.5" width="5.4" height="2.7" fill="#dc2626" opacity="0.82" rx="1"/>
<line x1="107.5" y1="305.9" x2="107.5" y2="318.9" stroke="#16a34a" stroke-width="1"/><rect x="104.8" y="307.1" width="5.4" height="9.1" fill="#16a34a" opacity="0.82" rx="1"/>
<line x1="116.4" y1="301.0" x2="116.4" y2="310.1" stroke="#16a34a" stroke-width="1"/><rect x="113.7" y="305.0" width="5.4" height="2.0" fill="#16a34a" opacity="0.82" rx="1"/>
<line x1="125.3" y1="301.5" x2="125.3" y2="309.5" stroke="#dc2626" stroke-width="1"/><rect x="122.5" y="305.1" width="5.4" height="1.2" fill="#dc2626" opacity="0.82" rx="1"/>
<line x1="134.1" y1="256.8" x2="134.1" y2="307.5" stroke="#16a34a" stroke-width="1"/><rect x="131.4" y="266.9" width="5.4" height="38.5" fill="#16a34a" opacity="0.82" rx="1"/>
<line x1="143.0" y1="257.4" x2="143.0" y2="278.3" stroke="#dc2626" stroke-width="1"/><rect x="140.3" y="266.8" width="5.4" height="1.2" fill="#dc2626" opacity="0.82" rx="1"/>
<line x1="151.9" y1="250.0" x2="151.9" y2="267.7" stroke="#16a34a" stroke-width="1"/><rect x="149.2" y="253.3" width="5.4" height="13.6" fill="#16a34a" opacity="0.82" rx="1"/>
<line x1="160.8" y1="248.0" x2="160.8" y2="259.7" stroke="#16a34a" stroke-width="1"/><rect x="158.0" y="253.0" width="5.4" height="1.2" fill="#16a34a" opacity="0.82" rx="1"/>
<line x1="169.6" y1="252.3" x2="169.6" y2="265.6" stroke="#dc2626" stroke-width="1"/><rect x="166.9" y="253.0" width="5.4" height="5.4" fill="#dc2626" opacity="0.82" rx="1"/>
<line x1="178.5" y1="237.0" x2="178.5" y2="260.9" stroke="#16a34a" stroke-width="1"/><rect x="175.8" y="240.1" width="5.4" height="18.2" fill="#16a34a" opacity="0.82" rx="1"/>
<line x1="187.4" y1="232.0" x2="187.4" y2="243.6" stroke="#16a34a" stroke-width="1"/><rect x="184.7" y="232.0" width="5.4" height="8.2" fill="#16a34a" opacity="0.82" rx="1"/>
<line x1="196.3" y1="224.9" x2="196.3" y2="240.6" stroke="#dc2626" stroke-width="1"/><rect x="193.5" y="232.0" width="5.4" height="7.5" fill="#dc2626" opacity="0.82" rx="1"/>
<line x1="205.1" y1="235.0" x2="205.1" y2="243.8" stroke="#dc2626" stroke-width="1"/><rect x="202.4" y="239.4" width="5.4" height="1.2" fill="#dc2626" opacity="0.82" rx="1"/>
<line x1="214.0" y1="232.9" x2="214.0" y2="245.9" stroke="#16a34a" stroke-width="1"/><rect x="211.3" y="233.9" width="5.4" height="6.7" fill="#16a34a" opacity="0.82" rx="1"/>
<line x1="222.9" y1="223.5" x2="222.9" y2="239.8" stroke="#16a34a" stroke-width="1"/><rect x="220.2" y="233.4" width="5.4" height="1.2" fill="#16a34a" opacity="0.82" rx="1"/>
<line x1="231.8" y1="220.9" x2="231.8" y2="234.9" stroke="#16a34a" stroke-width="1"/><rect x="229.1" y="221.2" width="5.4" height="12.2" fill="#16a34a" opacity="0.82" rx="1"/>
<line x1="240.7" y1="212.4" x2="240.7" y2="226.9" stroke="#16a34a" stroke-width="1"/><rect x="237.9" y="213.8" width="5.4" height="7.5" fill="#16a34a" opacity="0.82" rx="1"/>
<line x1="249.5" y1="189.7" x2="249.5" y2="215.5" stroke="#16a34a" stroke-width="1"/><rect x="246.8" y="194.0" width="5.4" height="19.7" fill="#16a34a" opacity="0.82" rx="1"/>
<line x1="258.4" y1="182.6" x2="258.4" y2="196.9" stroke="#16a34a" stroke-width="1"/><rect x="255.7" y="192.2" width="5.4" height="1.8" fill="#16a34a" opacity="0.82" rx="1"/>
<line x1="267.3" y1="186.7" x2="267.3" y2="202.8" stroke="#16a34a" stroke-width="1"/><rect x="264.6" y="190.8" width="5.4" height="1.3" fill="#16a34a" opacity="0.82" rx="1"/>
<line x1="276.2" y1="187.9" x2="276.2" y2="208.7" stroke="#dc2626" stroke-width="1"/><rect x="273.4" y="190.9" width="5.4" height="16.3" fill="#dc2626" opacity="0.82" rx="1"/>
<line x1="285.0" y1="189.6" x2="285.0" y2="212.2" stroke="#16a34a" stroke-width="1"/><rect x="282.3" y="191.8" width="5.4" height="15.4" fill="#16a34a" opacity="0.82" rx="1"/>
<line x1="293.9" y1="184.8" x2="293.9" y2="200.1" stroke="#16a34a" stroke-width="1"/><rect x="291.2" y="191.3" width="5.4" height="1.2" fill="#16a34a" opacity="0.82" rx="1"/>
<line x1="302.8" y1="184.6" x2="302.8" y2="198.7" stroke="#16a34a" stroke-width="1"/><rect x="300.1" y="185.7" width="5.4" height="5.7" fill="#16a34a" opacity="0.82" rx="1"/>
<line x1="311.7" y1="180.9" x2="311.7" y2="193.5" stroke="#dc2626" stroke-width="1"/><rect x="308.9" y="185.7" width="5.4" height="4.4" fill="#dc2626" opacity="0.82" rx="1"/>
<line x1="320.5" y1="185.9" x2="320.5" y2="196.5" stroke="#dc2626" stroke-width="1"/><rect x="317.8" y="190.0" width="5.4" height="2.1" fill="#dc2626" opacity="0.82" rx="1"/>
<line x1="329.4" y1="188.0" x2="329.4" y2="206.6" stroke="#dc2626" stroke-width="1"/><rect x="326.7" y="192.1" width="5.4" height="12.9" fill="#dc2626" opacity="0.82" rx="1"/>
<line x1="338.3" y1="197.1" x2="338.3" y2="206.7" stroke="#16a34a" stroke-width="1"/><rect x="335.6" y="200.7" width="5.4" height="4.7" fill="#16a34a" opacity="0.82" rx="1"/>
<line x1="347.2" y1="188.6" x2="347.2" y2="202.0" stroke="#16a34a" stroke-width="1"/><rect x="344.4" y="190.3" width="5.4" height="10.4" fill="#16a34a" opacity="0.82" rx="1"/>
<line x1="356.0" y1="185.8" x2="356.0" y2="215.5" stroke="#dc2626" stroke-width="1"/><rect x="353.3" y="190.3" width="5.4" height="25.1" fill="#dc2626" opacity="0.82" rx="1"/>
<line x1="364.9" y1="207.5" x2="364.9" y2="220.9" stroke="#16a34a" stroke-width="1"/><rect x="362.2" y="208.4" width="5.4" height="6.9" fill="#16a34a" opacity="0.82" rx="1"/>
<line x1="373.8" y1="198.1" x2="373.8" y2="216.4" stroke="#16a34a" stroke-width="1"/><rect x="371.1" y="201.6" width="5.4" height="6.8" fill="#16a34a" opacity="0.82" rx="1"/>
<line x1="382.7" y1="196.0" x2="382.7" y2="205.4" stroke="#16a34a" stroke-width="1"/><rect x="380.0" y="201.5" width="5.4" height="1.2" fill="#16a34a" opacity="0.82" rx="1"/>
<line x1="391.6" y1="197.1" x2="391.6" y2="209.0" stroke="#16a34a" stroke-width="1"/><rect x="388.8" y="199.1" width="5.4" height="2.5" fill="#16a34a" opacity="0.82" rx="1"/>
<line x1="400.4" y1="164.3" x2="400.4" y2="200.7" stroke="#16a34a" stroke-width="1"/><rect x="397.7" y="164.6" width="5.4" height="34.5" fill="#16a34a" opacity="0.82" rx="1"/>
<line x1="409.3" y1="153.1" x2="409.3" y2="175.6" stroke="#16a34a" stroke-width="1"/><rect x="406.6" y="154.9" width="5.4" height="9.4" fill="#16a34a" opacity="0.82" rx="1"/>
<line x1="418.2" y1="126.6" x2="418.2" y2="155.6" stroke="#16a34a" stroke-width="1"/><rect x="415.5" y="133.3" width="5.4" height="21.6" fill="#16a34a" opacity="0.82" rx="1"/>
<line x1="427.1" y1="118.9" x2="427.1" y2="138.2" stroke="#16a34a" stroke-width="1"/><rect x="424.3" y="119.8" width="5.4" height="13.6" fill="#16a34a" opacity="0.82" rx="1"/>
<line x1="435.9" y1="114.2" x2="435.9" y2="133.1" stroke="#16a34a" stroke-width="1"/><rect x="433.2" y="116.8" width="5.4" height="2.9" fill="#16a34a" opacity="0.82" rx="1"/>
<line x1="444.8" y1="98.9" x2="444.8" y2="122.9" stroke="#16a34a" stroke-width="1"/><rect x="442.1" y="104.8" width="5.4" height="11.6" fill="#16a34a" opacity="0.82" rx="1"/>
<line x1="453.7" y1="101.0" x2="453.7" y2="115.3" stroke="#dc2626" stroke-width="1"/><rect x="451.0" y="104.8" width="5.4" height="3.9" fill="#dc2626" opacity="0.82" rx="1"/>
<line x1="462.6" y1="63.5" x2="462.6" y2="111.6" stroke="#16a34a" stroke-width="1"/><rect x="459.8" y="79.3" width="5.4" height="29.3" fill="#16a34a" opacity="0.82" rx="1"/>
<line x1="471.4" y1="68.4" x2="471.4" y2="93.0" stroke="#16a34a" stroke-width="1"/><rect x="468.7" y="75.8" width="5.4" height="3.7" fill="#16a34a" opacity="0.82" rx="1"/>
<line x1="480.3" y1="55.1" x2="480.3" y2="87.2" stroke="#16a34a" stroke-width="1"/><rect x="477.6" y="55.3" width="5.4" height="20.5" fill="#16a34a" opacity="0.82" rx="1"/>
<line x1="489.2" y1="55.1" x2="489.2" y2="80.3" stroke="#dc2626" stroke-width="1"/><rect x="486.5" y="55.3" width="5.4" height="18.1" fill="#dc2626" opacity="0.82" rx="1"/>
<line x1="498.1" y1="61.3" x2="498.1" y2="112.0" stroke="#dc2626" stroke-width="1"/><rect x="495.3" y="73.3" width="5.4" height="35.9" fill="#dc2626" opacity="0.82" rx="1"/>
<line x1="506.9" y1="83.6" x2="506.9" y2="110.9" stroke="#16a34a" stroke-width="1"/><rect x="504.2" y="86.4" width="5.4" height="22.7" fill="#16a34a" opacity="0.82" rx="1"/>
<line x1="515.8" y1="80.4" x2="515.8" y2="110.2" stroke="#dc2626" stroke-width="1"/><rect x="513.1" y="86.5" width="5.4" height="19.1" fill="#dc2626" opacity="0.82" rx="1"/>
<line x1="524.7" y1="96.2" x2="524.7" y2="119.9" stroke="#16a34a" stroke-width="1"/><rect x="522.0" y="100.8" width="5.4" height="4.8" fill="#16a34a" opacity="0.82" rx="1"/>
<line x1="533.6" y1="86.1" x2="533.6" y2="125.5" stroke="#dc2626" stroke-width="1"/><rect x="530.9" y="100.8" width="5.4" height="18.0" fill="#dc2626" opacity="0.82" rx="1"/>
<line x1="542.4" y1="109.5" x2="542.4" y2="130.3" stroke="#dc2626" stroke-width="1"/><rect x="539.7" y="118.9" width="5.4" height="5.4" fill="#dc2626" opacity="0.82" rx="1"/>
<line x1="551.3" y1="109.7" x2="551.3" y2="129.3" stroke="#16a34a" stroke-width="1"/><rect x="548.6" y="110.4" width="5.4" height="14.1" fill="#16a34a" opacity="0.82" rx="1"/>
<line x1="560.2" y1="105.5" x2="560.2" y2="119.0" stroke="#16a34a" stroke-width="1"/><rect x="557.5" y="109.1" width="5.4" height="1.3" fill="#16a34a" opacity="0.82" rx="1"/>
<line x1="569.1" y1="100.9" x2="569.1" y2="116.7" stroke="#dc2626" stroke-width="1"/><rect x="566.4" y="109.1" width="5.4" height="1.2" fill="#dc2626" opacity="0.82" rx="1"/>
<line x1="578.0" y1="103.5" x2="578.0" y2="117.3" stroke="#16a34a" stroke-width="1"/><rect x="575.2" y="107.0" width="5.4" height="2.3" fill="#16a34a" opacity="0.82" rx="1"/>
<line x1="586.8" y1="102.5" x2="586.8" y2="123.9" stroke="#dc2626" stroke-width="1"/><rect x="584.1" y="106.9" width="5.4" height="12.3" fill="#dc2626" opacity="0.82" rx="1"/>
<line x1="595.7" y1="88.3" x2="595.7" y2="119.3" stroke="#16a34a" stroke-width="1"/><rect x="593.0" y="94.5" width="5.4" height="24.8" fill="#16a34a" opacity="0.82" rx="1"/>
<line x1="604.6" y1="86.8" x2="604.6" y2="99.4" stroke="#16a34a" stroke-width="1"/><rect x="601.9" y="87.8" width="5.4" height="6.8" fill="#16a34a" opacity="0.82" rx="1"/>
<line x1="613.5" y1="84.1" x2="613.5" y2="96.0" stroke="#dc2626" stroke-width="1"/><rect x="610.7" y="87.9" width="5.4" height="5.6" fill="#dc2626" opacity="0.82" rx="1"/>
<line x1="622.3" y1="80.4" x2="622.3" y2="95.9" stroke="#16a34a" stroke-width="1"/><rect x="619.6" y="92.9" width="5.4" height="1.2" fill="#16a34a" opacity="0.82" rx="1"/>
<line x1="631.2" y1="89.1" x2="631.2" y2="109.2" stroke="#dc2626" stroke-width="1"/><rect x="628.5" y="92.8" width="5.4" height="3.1" fill="#dc2626" opacity="0.82" rx="1"/>
<line x1="640.1" y1="95.3" x2="640.1" y2="118.8" stroke="#dc2626" stroke-width="1"/><rect x="637.4" y="95.9" width="5.4" height="13.5" fill="#dc2626" opacity="0.82" rx="1"/>
<line x1="649.0" y1="104.2" x2="649.0" y2="116.5" stroke="#16a34a" stroke-width="1"/><rect x="646.2" y="109.4" width="5.4" height="1.2" fill="#16a34a" opacity="0.82" rx="1"/>
<line x1="657.8" y1="108.2" x2="657.8" y2="130.8" stroke="#dc2626" stroke-width="1"/><rect x="655.1" y="109.4" width="5.4" height="15.4" fill="#dc2626" opacity="0.82" rx="1"/>
<line x1="666.7" y1="112.6" x2="666.7" y2="126.2" stroke="#16a34a" stroke-width="1"/><rect x="664.0" y="114.9" width="5.4" height="9.9" fill="#16a34a" opacity="0.82" rx="1"/>
<line x1="675.6" y1="114.7" x2="675.6" y2="129.4" stroke="#dc2626" stroke-width="1"/><rect x="672.9" y="114.9" width="5.4" height="12.3" fill="#dc2626" opacity="0.82" rx="1"/>
<line x1="684.5" y1="124.8" x2="684.5" y2="151.7" stroke="#dc2626" stroke-width="1"/><rect x="681.8" y="127.2" width="5.4" height="18.7" fill="#dc2626" opacity="0.82" rx="1"/>
<line x1="693.3" y1="135.8" x2="693.3" y2="162.1" stroke="#16a34a" stroke-width="1"/><rect x="690.6" y="139.7" width="5.4" height="6.2" fill="#16a34a" opacity="0.82" rx="1"/>
<line x1="702.2" y1="125.3" x2="702.2" y2="147.1" stroke="#16a34a" stroke-width="1"/><rect x="699.5" y="134.8" width="5.4" height="5.0" fill="#16a34a" opacity="0.82" rx="1"/>
<line x1="711.1" y1="121.0" x2="711.1" y2="142.5" stroke="#16a34a" stroke-width="1"/><rect x="708.4" y="128.4" width="5.4" height="6.4" fill="#16a34a" opacity="0.82" rx="1"/>
<line x1="720.0" y1="90.7" x2="720.0" y2="132.5" stroke="#16a34a" stroke-width="1"/><rect x="717.3" y="94.3" width="5.4" height="34.1" fill="#16a34a" opacity="0.82" rx="1"/>
<line x1="728.9" y1="58.4" x2="728.9" y2="94.3" stroke="#16a34a" stroke-width="1"/><rect x="726.1" y="80.3" width="5.4" height="14.0" fill="#16a34a" opacity="0.82" rx="1"/>
<line x1="737.7" y1="78.2" x2="737.7" y2="103.2" stroke="#dc2626" stroke-width="1"/><rect x="735.0" y="80.5" width="5.4" height="14.8" fill="#dc2626" opacity="0.82" rx="1"/>
<line x1="746.6" y1="79.3" x2="746.6" y2="119.8" stroke="#dc2626" stroke-width="1"/><rect x="743.9" y="95.3" width="5.4" height="10.0" fill="#dc2626" opacity="0.82" rx="1"/>
<line x1="755.5" y1="99.9" x2="755.5" y2="146.1" stroke="#dc2626" stroke-width="1"/><rect x="752.8" y="105.3" width="5.4" height="22.2" fill="#dc2626" opacity="0.82" rx="1"/>
<line x1="764.4" y1="118.6" x2="764.4" y2="138.2" stroke="#16a34a" stroke-width="1"/><rect x="761.6" y="124.9" width="5.4" height="2.0" fill="#16a34a" opacity="0.82" rx="1"/>
<line x1="773.2" y1="120.6" x2="773.2" y2="154.7" stroke="#dc2626" stroke-width="1"/><rect x="770.5" y="124.8" width="5.4" height="20.1" fill="#dc2626" opacity="0.82" rx="1"/>
<line x1="782.1" y1="136.7" x2="782.1" y2="158.1" stroke="#dc2626" stroke-width="1"/><rect x="779.4" y="144.9" width="5.4" height="1.7" fill="#dc2626" opacity="0.82" rx="1"/>
<line x1="791.0" y1="134.3" x2="791.0" y2="146.7" stroke="#16a34a" stroke-width="1"/><rect x="788.3" y="143.9" width="5.4" height="2.6" fill="#16a34a" opacity="0.82" rx="1"/>
<line x1="799.9" y1="123.5" x2="799.9" y2="144.8" stroke="#16a34a" stroke-width="1"/><rect x="797.1" y="126.6" width="5.4" height="17.2" fill="#16a34a" opacity="0.82" rx="1"/>
<line x1="808.7" y1="104.7" x2="808.7" y2="130.9" stroke="#16a34a" stroke-width="1"/><rect x="806.0" y="125.1" width="5.4" height="1.5" fill="#16a34a" opacity="0.82" rx="1"/>
<line x1="817.6" y1="119.1" x2="817.6" y2="131.3" stroke="#16a34a" stroke-width="1"/><rect x="814.9" y="123.3" width="5.4" height="1.8" fill="#16a34a" opacity="0.82" rx="1"/>
<line x1="826.5" y1="122.6" x2="826.5" y2="152.0" stroke="#dc2626" stroke-width="1"/><rect x="823.8" y="123.2" width="5.4" height="23.1" fill="#dc2626" opacity="0.82" rx="1"/>
<line x1="835.4" y1="143.8" x2="835.4" y2="179.7" stroke="#dc2626" stroke-width="1"/><rect x="832.6" y="146.3" width="5.4" height="26.2" fill="#dc2626" opacity="0.82" rx="1"/>
<line x1="844.2" y1="164.2" x2="844.2" y2="182.4" stroke="#16a34a" stroke-width="1"/><rect x="841.5" y="164.9" width="5.4" height="7.4" fill="#16a34a" opacity="0.82" rx="1"/>
<line x1="853.1" y1="141.8" x2="853.1" y2="167.8" stroke="#16a34a" stroke-width="1"/><rect x="850.4" y="142.2" width="5.4" height="23.1" fill="#16a34a" opacity="0.82" rx="1"/>
<line x1="862.0" y1="142.1" x2="862.0" y2="150.2" stroke="#dc2626" stroke-width="1"/><rect x="859.3" y="142.1" width="5.4" height="3.5" fill="#dc2626" opacity="0.82" rx="1"/>
<line x1="72" y1="183.3" x2="862" y2="183.3" stroke="#16a34a" stroke-width="1.8" stroke-dasharray="6 4" /><rect x="874" y="163.3" width="166" height="23" rx="5" fill="#ffffff" stroke="#16a34a" opacity="0.97"/><text x="881" y="179.3" fill="#16a34a" font-size="15" font-weight="700">日内支撑 68.54</text>
<line x1="72" y1="82.9" x2="862" y2="82.9" stroke="#dc2626" stroke-width="1.8" stroke-dasharray="6 4" /><rect x="874" y="62.9" width="166" height="23" rx="5" fill="#ffffff" stroke="#dc2626" opacity="0.97"/><text x="881" y="78.9" fill="#dc2626" font-size="15" font-weight="700">日内压力 75.17</text>
<line x1="72" y1="145.7" x2="862" y2="145.7" stroke="#111827" stroke-width="1.8" stroke-dasharray="2 2" /><rect x="874" y="125.7" width="166" height="23" rx="5" fill="#ffffff" stroke="#111827" opacity="0.97"/><text x="881" y="141.7" fill="#111827" font-size="15" font-weight="700">现价 71.03</text>
<text x="72" y="396" fill="#16a34a" font-size="14" font-weight="700">日内做多计划</text><rect x="72" y="404" width="790" height="48" rx="6" fill="#f9fafb" stroke="#e5e7eb"/><line x1="94" y1="412" x2="840" y2="412" stroke="#16a34a" stroke-width="3"/><circle cx="132.0" cy="412" r="5" fill="#16a34a"/><text x="132.0" y="434" fill="#374151" font-size="12" text-anchor="middle">入场 止跌/突破回踩</text><circle cx="451.2" cy="412" r="5" fill="#16a34a"/><text x="451.2" y="434" fill="#374151" font-size="12" text-anchor="middle">止损 68.54</text><circle cx="712.0" cy="412" r="5" fill="#16a34a"/><text x="712.0" y="434" fill="#374151" font-size="12" text-anchor="middle">目标一 75.17</text><circle cx="814.0" cy="412" r="5" fill="#16a34a"/><text x="814.0" y="434" fill="#374151" font-size="12" text-anchor="middle">目标二 76.82</text>
<text x="72" y="482" fill="#dc2626" font-size="14" font-weight="700">日内做空计划</text><rect x="72" y="490" width="790" height="48" rx="6" fill="#f9fafb" stroke="#e5e7eb"/><line x1="94" y1="498" x2="840" y2="498" stroke="#dc2626" stroke-width="3"/><circle cx="132.0" cy="498" r="5" fill="#dc2626"/><text x="132.0" y="520" fill="#374151" font-size="12" text-anchor="middle">入场 反弹承压/破位回抽</text><circle cx="451.2" cy="498" r="5" fill="#dc2626"/><text x="451.2" y="520" fill="#374151" font-size="12" text-anchor="middle">止损 75.17</text><circle cx="712.0" cy="498" r="5" fill="#dc2626"/><text x="712.0" y="520" fill="#374151" font-size="12" text-anchor="middle">目标一 68.54</text><circle cx="814.0" cy="498" r="5" fill="#dc2626"/><text x="814.0" y="520" fill="#374151" font-size="12" text-anchor="middle">目标二 66.88</text>
</svg>