<svg xmlns="http://www.w3.org/2000/svg" width="1080" height="560" viewBox="0 0 1080 560">
<rect width="100%" height="100%" fill="#ffffff"/>
<text x="72" y="23" fill="#111827" font-size="21" font-weight="800">DRAM 小时线K线支撑压力图</text>
<text x="862" y="42" fill="#374151" font-size="15" text-anchor="end">最新价 74.49</text>
<line x1="72" y1="34" x2="72" y2="340" stroke="#d1d5db"/>
<line x1="72" y1="340" x2="862" y2="340" stroke="#d1d5db"/>
<line x1="72" y1="340.0" x2="862" y2="340.0" stroke="#f3f4f6"/>
<text x="8" y="345.0" fill="#4b5563" font-size="14">64.79</text>
<line x1="72" y1="263.5" x2="862" y2="263.5" stroke="#f3f4f6"/>
<text x="8" y="268.5" fill="#4b5563" font-size="14">68.23</text>
<line x1="72" y1="187.0" x2="862" y2="187.0" stroke="#f3f4f6"/>
<text x="8" y="192.0" fill="#4b5563" font-size="14">71.66</text>
<line x1="72" y1="110.5" x2="862" y2="110.5" stroke="#f3f4f6"/>
<text x="8" y="115.5" fill="#4b5563" font-size="14">75.09</text>
<line x1="72" y1="34.0" x2="862" y2="34.0" stroke="#f3f4f6"/>
<text x="8" y="39.0" fill="#4b5563" font-size="14">78.52</text>
<line x1="72.0" y1="287.2" x2="72.0" y2="306.0" stroke="#dc2626" stroke-width="1"/><rect x="69.3" y="293.0" width="5.4" height="1.3" fill="#dc2626" opacity="0.82" rx="1"/>
<line x1="80.9" y1="274.8" x2="80.9" y2="294.4" stroke="#16a34a" stroke-width="1"/><rect x="78.2" y="280.3" width="5.4" height="13.8" fill="#16a34a" opacity="0.82" rx="1"/>
<line x1="89.8" y1="277.0" x2="89.8" y2="297.3" stroke="#dc2626" stroke-width="1"/><rect x="87.0" y="280.3" width="5.4" height="14.7" fill="#dc2626" opacity="0.82" rx="1"/>
<line x1="98.6" y1="294.2" x2="98.6" y2="310.9" stroke="#dc2626" stroke-width="1"/><rect x="95.9" y="295.3" width="5.4" height="10.5" fill="#dc2626" opacity="0.82" rx="1"/>
<line x1="107.5" y1="300.8" x2="107.5" y2="308.6" stroke="#16a34a" stroke-width="1"/><rect x="104.8" y="300.8" width="5.4" height="4.9" fill="#16a34a" opacity="0.82" rx="1"/>
<line x1="116.4" y1="300.4" x2="116.4" y2="312.9" stroke="#dc2626" stroke-width="1"/><rect x="113.7" y="301.1" width="5.4" height="10.0" fill="#dc2626" opacity="0.82" rx="1"/>
<line x1="125.3" y1="299.7" x2="125.3" y2="318.9" stroke="#16a34a" stroke-width="1"/><rect x="122.5" y="303.3" width="5.4" height="7.4" fill="#16a34a" opacity="0.82" rx="1"/>
<line x1="134.1" y1="247.4" x2="134.1" y2="306.4" stroke="#16a34a" stroke-width="1"/><rect x="131.4" y="251.4" width="5.4" height="51.7" fill="#16a34a" opacity="0.82" rx="1"/>
<line x1="143.0" y1="241.1" x2="143.0" y2="265.9" stroke="#dc2626" stroke-width="1"/><rect x="140.3" y="250.9" width="5.4" height="12.7" fill="#dc2626" opacity="0.82" rx="1"/>
<line x1="151.9" y1="254.9" x2="151.9" y2="299.7" stroke="#16a34a" stroke-width="1"/><rect x="149.2" y="262.5" width="5.4" height="1.2" fill="#16a34a" opacity="0.82" rx="1"/>
<line x1="160.8" y1="258.5" x2="160.8" y2="281.5" stroke="#dc2626" stroke-width="1"/><rect x="158.0" y="263.0" width="5.4" height="6.0" fill="#dc2626" opacity="0.82" rx="1"/>
<line x1="169.6" y1="267.6" x2="169.6" y2="281.5" stroke="#dc2626" stroke-width="1"/><rect x="166.9" y="269.2" width="5.4" height="8.7" fill="#dc2626" opacity="0.82" rx="1"/>
<line x1="178.5" y1="266.1" x2="178.5" y2="282.3" stroke="#16a34a" stroke-width="1"/><rect x="175.8" y="269.2" width="5.4" height="8.7" fill="#16a34a" opacity="0.82" rx="1"/>
<line x1="187.4" y1="265.6" x2="187.4" y2="276.1" stroke="#dc2626" stroke-width="1"/><rect x="184.7" y="269.0" width="5.4" height="1.2" fill="#dc2626" opacity="0.82" rx="1"/>
<line x1="196.3" y1="262.7" x2="196.3" y2="272.8" stroke="#16a34a" stroke-width="1"/><rect x="193.5" y="265.4" width="5.4" height="4.2" fill="#16a34a" opacity="0.82" rx="1"/>
<line x1="205.1" y1="264.1" x2="205.1" y2="274.3" stroke="#dc2626" stroke-width="1"/><rect x="202.4" y="265.6" width="5.4" height="4.9" fill="#dc2626" opacity="0.82" rx="1"/>
<line x1="214.0" y1="266.3" x2="214.0" y2="273.7" stroke="#16a34a" stroke-width="1"/><rect x="211.3" y="268.7" width="5.4" height="1.8" fill="#16a34a" opacity="0.82" rx="1"/>
<line x1="222.9" y1="262.1" x2="222.9" y2="269.4" stroke="#16a34a" stroke-width="1"/><rect x="220.2" y="265.9" width="5.4" height="2.5" fill="#16a34a" opacity="0.82" rx="1"/>
<line x1="231.8" y1="244.0" x2="231.8" y2="266.7" stroke="#16a34a" stroke-width="1"/><rect x="229.1" y="249.6" width="5.4" height="16.3" fill="#16a34a" opacity="0.82" rx="1"/>
<line x1="240.7" y1="245.1" x2="240.7" y2="260.3" stroke="#dc2626" stroke-width="1"/><rect x="237.9" y="249.6" width="5.4" height="4.7" fill="#dc2626" opacity="0.82" rx="1"/>
<line x1="249.5" y1="247.8" x2="249.5" y2="256.3" stroke="#16a34a" stroke-width="1"/><rect x="246.8" y="250.7" width="5.4" height="3.6" fill="#16a34a" opacity="0.82" rx="1"/>
<line x1="258.4" y1="236.9" x2="258.4" y2="252.0" stroke="#16a34a" stroke-width="1"/><rect x="255.7" y="245.3" width="5.4" height="5.1" fill="#16a34a" opacity="0.82" rx="1"/>
<line x1="267.3" y1="238.4" x2="267.3" y2="245.6" stroke="#16a34a" stroke-width="1"/><rect x="264.6" y="239.6" width="5.4" height="5.6" fill="#16a34a" opacity="0.82" rx="1"/>
<line x1="276.2" y1="213.9" x2="276.2" y2="247.4" stroke="#dc2626" stroke-width="1"/><rect x="273.4" y="239.6" width="5.4" height="5.3" fill="#dc2626" opacity="0.82" rx="1"/>
<line x1="285.0" y1="221.9" x2="285.0" y2="250.9" stroke="#16a34a" stroke-width="1"/><rect x="282.3" y="228.0" width="5.4" height="16.7" fill="#16a34a" opacity="0.82" rx="1"/>
<line x1="293.9" y1="212.4" x2="293.9" y2="227.7" stroke="#16a34a" stroke-width="1"/><rect x="291.2" y="215.9" width="5.4" height="11.6" fill="#16a34a" opacity="0.82" rx="1"/>
<line x1="302.8" y1="205.7" x2="302.8" y2="216.4" stroke="#16a34a" stroke-width="1"/><rect x="300.1" y="213.9" width="5.4" height="1.8" fill="#16a34a" opacity="0.82" rx="1"/>
<line x1="311.7" y1="206.8" x2="311.7" y2="217.0" stroke="#16a34a" stroke-width="1"/><rect x="308.9" y="211.5" width="5.4" height="2.7" fill="#16a34a" opacity="0.82" rx="1"/>
<line x1="320.5" y1="197.0" x2="320.5" y2="214.4" stroke="#16a34a" stroke-width="1"/><rect x="317.8" y="205.0" width="5.4" height="6.0" fill="#16a34a" opacity="0.82" rx="1"/>
<line x1="329.4" y1="197.2" x2="329.4" y2="207.0" stroke="#16a34a" stroke-width="1"/><rect x="326.7" y="198.5" width="5.4" height="5.8" fill="#16a34a" opacity="0.82" rx="1"/>
<line x1="338.3" y1="193.9" x2="338.3" y2="211.9" stroke="#dc2626" stroke-width="1"/><rect x="335.6" y="198.3" width="5.4" height="6.5" fill="#dc2626" opacity="0.82" rx="1"/>
<line x1="347.2" y1="198.1" x2="347.2" y2="207.5" stroke="#16a34a" stroke-width="1"/><rect x="344.4" y="201.0" width="5.4" height="4.2" fill="#16a34a" opacity="0.82" rx="1"/>
<line x1="356.0" y1="196.3" x2="356.0" y2="213.9" stroke="#dc2626" stroke-width="1"/><rect x="353.3" y="201.4" width="5.4" height="2.9" fill="#dc2626" opacity="0.82" rx="1"/>
<line x1="364.9" y1="201.4" x2="364.9" y2="209.9" stroke="#dc2626" stroke-width="1"/><rect x="362.2" y="204.6" width="5.4" height="1.2" fill="#dc2626" opacity="0.82" rx="1"/>
<line x1="373.8" y1="203.9" x2="373.8" y2="240.4" stroke="#dc2626" stroke-width="1"/><rect x="371.1" y="205.5" width="5.4" height="35.0" fill="#dc2626" opacity="0.82" rx="1"/>
<line x1="382.7" y1="224.4" x2="382.7" y2="254.7" stroke="#16a34a" stroke-width="1"/><rect x="380.0" y="228.6" width="5.4" height="11.6" fill="#16a34a" opacity="0.82" rx="1"/>
<line x1="391.6" y1="220.8" x2="391.6" y2="232.4" stroke="#16a34a" stroke-width="1"/><rect x="388.8" y="224.2" width="5.4" height="4.5" fill="#16a34a" opacity="0.82" rx="1"/>
<line x1="400.4" y1="202.6" x2="400.4" y2="227.5" stroke="#16a34a" stroke-width="1"/><rect x="397.7" y="207.5" width="5.4" height="16.7" fill="#16a34a" opacity="0.82" rx="1"/>
<line x1="409.3" y1="200.3" x2="409.3" y2="211.2" stroke="#16a34a" stroke-width="1"/><rect x="406.6" y="205.5" width="5.4" height="2.7" fill="#16a34a" opacity="0.82" rx="1"/>
<line x1="418.2" y1="201.7" x2="418.2" y2="219.0" stroke="#dc2626" stroke-width="1"/><rect x="415.5" y="205.7" width="5.4" height="12.7" fill="#dc2626" opacity="0.82" rx="1"/>
<line x1="427.1" y1="203.4" x2="427.1" y2="218.4" stroke="#16a34a" stroke-width="1"/><rect x="424.3" y="203.9" width="5.4" height="14.3" fill="#16a34a" opacity="0.82" rx="1"/>
<line x1="435.9" y1="200.3" x2="435.9" y2="205.7" stroke="#dc2626" stroke-width="1"/><rect x="433.2" y="203.9" width="5.4" height="1.2" fill="#dc2626" opacity="0.82" rx="1"/>
<line x1="444.8" y1="163.1" x2="444.8" y2="204.3" stroke="#16a34a" stroke-width="1"/><rect x="442.1" y="166.0" width="5.4" height="37.9" fill="#16a34a" opacity="0.82" rx="1"/>
<line x1="453.7" y1="159.5" x2="453.7" y2="174.7" stroke="#dc2626" stroke-width="1"/><rect x="451.0" y="166.4" width="5.4" height="5.3" fill="#dc2626" opacity="0.82" rx="1"/>
<line x1="462.6" y1="162.9" x2="462.6" y2="177.1" stroke="#16a34a" stroke-width="1"/><rect x="459.8" y="163.8" width="5.4" height="8.7" fill="#16a34a" opacity="0.82" rx="1"/>
<line x1="471.4" y1="155.3" x2="471.4" y2="168.0" stroke="#16a34a" stroke-width="1"/><rect x="468.7" y="161.3" width="5.4" height="2.9" fill="#16a34a" opacity="0.82" rx="1"/>
<line x1="480.3" y1="158.4" x2="480.3" y2="190.5" stroke="#dc2626" stroke-width="1"/><rect x="477.6" y="161.5" width="5.4" height="23.0" fill="#dc2626" opacity="0.82" rx="1"/>
<line x1="489.2" y1="164.0" x2="489.2" y2="197.9" stroke="#16a34a" stroke-width="1"/><rect x="486.5" y="183.8" width="5.4" height="1.2" fill="#16a34a" opacity="0.82" rx="1"/>
<line x1="498.1" y1="181.2" x2="498.1" y2="235.8" stroke="#dc2626" stroke-width="1"/><rect x="495.3" y="183.8" width="5.4" height="46.4" fill="#dc2626" opacity="0.82" rx="1"/>
<line x1="506.9" y1="218.2" x2="506.9" y2="273.4" stroke="#dc2626" stroke-width="1"/><rect x="504.2" y="230.2" width="5.4" height="20.5" fill="#dc2626" opacity="0.82" rx="1"/>
<line x1="515.8" y1="226.4" x2="515.8" y2="251.4" stroke="#16a34a" stroke-width="1"/><rect x="513.1" y="238.9" width="5.4" height="12.3" fill="#16a34a" opacity="0.82" rx="1"/>
<line x1="524.7" y1="232.9" x2="524.7" y2="253.6" stroke="#16a34a" stroke-width="1"/><rect x="522.0" y="238.7" width="5.4" height="1.2" fill="#16a34a" opacity="0.82" rx="1"/>
<line x1="533.6" y1="234.4" x2="533.6" y2="260.1" stroke="#dc2626" stroke-width="1"/><rect x="530.9" y="238.9" width="5.4" height="17.4" fill="#dc2626" opacity="0.82" rx="1"/>
<line x1="542.4" y1="246.2" x2="542.4" y2="268.1" stroke="#dc2626" stroke-width="1"/><rect x="539.7" y="256.3" width="5.4" height="10.5" fill="#dc2626" opacity="0.82" rx="1"/>
<line x1="551.3" y1="232.0" x2="551.3" y2="267.4" stroke="#16a34a" stroke-width="1"/><rect x="548.6" y="262.7" width="5.4" height="4.2" fill="#16a34a" opacity="0.82" rx="1"/>
<line x1="560.2" y1="252.0" x2="560.2" y2="263.2" stroke="#16a34a" stroke-width="1"/><rect x="557.5" y="257.8" width="5.4" height="4.9" fill="#16a34a" opacity="0.82" rx="1"/>
<line x1="569.1" y1="241.8" x2="569.1" y2="263.0" stroke="#16a34a" stroke-width="1"/><rect x="566.4" y="243.3" width="5.4" height="14.0" fill="#16a34a" opacity="0.82" rx="1"/>
<line x1="578.0" y1="231.5" x2="578.0" y2="254.5" stroke="#dc2626" stroke-width="1"/><rect x="575.2" y="243.6" width="5.4" height="5.1" fill="#dc2626" opacity="0.82" rx="1"/>
<line x1="586.8" y1="217.7" x2="586.8" y2="249.4" stroke="#16a34a" stroke-width="1"/><rect x="584.1" y="227.3" width="5.4" height="21.4" fill="#16a34a" opacity="0.82" rx="1"/>
<line x1="595.7" y1="218.8" x2="595.7" y2="232.4" stroke="#16a34a" stroke-width="1"/><rect x="593.0" y="219.7" width="5.4" height="7.8" fill="#16a34a" opacity="0.82" rx="1"/>
<line x1="604.6" y1="213.0" x2="604.6" y2="223.7" stroke="#16a34a" stroke-width="1"/><rect x="601.9" y="217.0" width="5.4" height="3.1" fill="#16a34a" opacity="0.82" rx="1"/>
<line x1="613.5" y1="216.1" x2="613.5" y2="226.4" stroke="#dc2626" stroke-width="1"/><rect x="610.7" y="216.8" width="5.4" height="2.7" fill="#dc2626" opacity="0.82" rx="1"/>
<line x1="622.3" y1="190.7" x2="622.3" y2="220.2" stroke="#16a34a" stroke-width="1"/><rect x="619.6" y="193.0" width="5.4" height="26.3" fill="#16a34a" opacity="0.82" rx="1"/>
<line x1="631.2" y1="176.0" x2="631.2" y2="197.4" stroke="#16a34a" stroke-width="1"/><rect x="628.5" y="183.2" width="5.4" height="10.3" fill="#16a34a" opacity="0.82" rx="1"/>
<line x1="640.1" y1="179.2" x2="640.1" y2="185.8" stroke="#16a34a" stroke-width="1"/><rect x="637.4" y="180.9" width="5.4" height="2.7" fill="#16a34a" opacity="0.82" rx="1"/>
<line x1="649.0" y1="174.2" x2="649.0" y2="182.9" stroke="#16a34a" stroke-width="1"/><rect x="646.2" y="178.5" width="5.4" height="2.7" fill="#16a34a" opacity="0.82" rx="1"/>
<line x1="657.8" y1="173.6" x2="657.8" y2="198.5" stroke="#dc2626" stroke-width="1"/><rect x="655.1" y="178.5" width="5.4" height="12.0" fill="#dc2626" opacity="0.82" rx="1"/>
<line x1="666.7" y1="184.9" x2="666.7" y2="199.4" stroke="#dc2626" stroke-width="1"/><rect x="664.0" y="190.3" width="5.4" height="4.5" fill="#dc2626" opacity="0.82" rx="1"/>
<line x1="675.6" y1="193.9" x2="675.6" y2="205.0" stroke="#dc2626" stroke-width="1"/><rect x="672.9" y="195.0" width="5.4" height="4.5" fill="#dc2626" opacity="0.82" rx="1"/>
<line x1="684.5" y1="193.6" x2="684.5" y2="215.3" stroke="#dc2626" stroke-width="1"/><rect x="681.8" y="199.2" width="5.4" height="10.5" fill="#dc2626" opacity="0.82" rx="1"/>
<line x1="693.3" y1="187.4" x2="693.3" y2="209.7" stroke="#16a34a" stroke-width="1"/><rect x="690.6" y="193.6" width="5.4" height="16.0" fill="#16a34a" opacity="0.82" rx="1"/>
<line x1="702.2" y1="185.4" x2="702.2" y2="229.1" stroke="#dc2626" stroke-width="1"/><rect x="699.5" y="193.6" width="5.4" height="34.3" fill="#dc2626" opacity="0.82" rx="1"/>
<line x1="711.1" y1="194.8" x2="711.1" y2="230.0" stroke="#16a34a" stroke-width="1"/><rect x="708.4" y="212.8" width="5.4" height="15.2" fill="#16a34a" opacity="0.82" rx="1"/>
<line x1="720.0" y1="179.6" x2="720.0" y2="214.1" stroke="#16a34a" stroke-width="1"/><rect x="717.3" y="180.0" width="5.4" height="32.1" fill="#16a34a" opacity="0.82" rx="1"/>
<line x1="728.9" y1="174.5" x2="728.9" y2="187.4" stroke="#dc2626" stroke-width="1"/><rect x="726.1" y="180.0" width="5.4" height="2.5" fill="#dc2626" opacity="0.82" rx="1"/>
<line x1="737.7" y1="167.8" x2="737.7" y2="190.5" stroke="#16a34a" stroke-width="1"/><rect x="735.0" y="168.7" width="5.4" height="13.8" fill="#16a34a" opacity="0.82" rx="1"/>
<line x1="746.6" y1="150.6" x2="746.6" y2="219.0" stroke="#dc2626" stroke-width="1"/><rect x="743.9" y="168.5" width="5.4" height="9.1" fill="#dc2626" opacity="0.82" rx="1"/>
<line x1="755.5" y1="163.3" x2="755.5" y2="229.1" stroke="#dc2626" stroke-width="1"/><rect x="752.8" y="177.4" width="5.4" height="48.8" fill="#dc2626" opacity="0.82" rx="1"/>
<line x1="764.4" y1="200.1" x2="764.4" y2="226.4" stroke="#16a34a" stroke-width="1"/><rect x="761.6" y="207.2" width="5.4" height="18.9" fill="#16a34a" opacity="0.82" rx="1"/>
<line x1="773.2" y1="190.3" x2="773.2" y2="207.7" stroke="#16a34a" stroke-width="1"/><rect x="770.5" y="199.0" width="5.4" height="8.5" fill="#16a34a" opacity="0.82" rx="1"/>
<line x1="782.1" y1="179.4" x2="782.1" y2="210.8" stroke="#16a34a" stroke-width="1"/><rect x="779.4" y="182.0" width="5.4" height="16.9" fill="#16a34a" opacity="0.82" rx="1"/>
<line x1="791.0" y1="162.2" x2="791.0" y2="184.5" stroke="#16a34a" stroke-width="1"/><rect x="788.3" y="168.9" width="5.4" height="12.9" fill="#16a34a" opacity="0.82" rx="1"/>
<line x1="799.9" y1="142.6" x2="799.9" y2="174.5" stroke="#16a34a" stroke-width="1"/><rect x="797.1" y="158.4" width="5.4" height="10.0" fill="#16a34a" opacity="0.82" rx="1"/>
<line x1="808.7" y1="148.2" x2="808.7" y2="159.3" stroke="#16a34a" stroke-width="1"/><rect x="806.0" y="156.9" width="5.4" height="2.2" fill="#16a34a" opacity="0.82" rx="1"/>
<line x1="817.6" y1="148.4" x2="817.6" y2="159.1" stroke="#16a34a" stroke-width="1"/><rect x="814.9" y="150.0" width="5.4" height="6.7" fill="#16a34a" opacity="0.82" rx="1"/>
<line x1="826.5" y1="125.0" x2="826.5" y2="150.8" stroke="#16a34a" stroke-width="1"/><rect x="823.8" y="129.7" width="5.4" height="20.3" fill="#16a34a" opacity="0.82" rx="1"/>
<line x1="835.4" y1="118.5" x2="835.4" y2="142.6" stroke="#dc2626" stroke-width="1"/><rect x="832.6" y="129.7" width="5.4" height="7.4" fill="#dc2626" opacity="0.82" rx="1"/>
<line x1="844.2" y1="110.3" x2="844.2" y2="141.0" stroke="#16a34a" stroke-width="1"/><rect x="841.5" y="115.0" width="5.4" height="21.8" fill="#16a34a" opacity="0.82" rx="1"/>
<line x1="853.1" y1="115.2" x2="853.1" y2="129.0" stroke="#dc2626" stroke-width="1"/><rect x="850.4" y="115.2" width="5.4" height="8.7" fill="#dc2626" opacity="0.82" rx="1"/>
<line x1="862.0" y1="121.6" x2="862.0" y2="126.8" stroke="#dc2626" stroke-width="1"/><rect x="859.3" y="123.4" width="5.4" height="1.2" fill="#dc2626" opacity="0.82" rx="1"/>
<line x1="72" y1="165.1" x2="862" y2="165.1" stroke="#16a34a" stroke-width="1.8" stroke-dasharray="6 4" /><rect x="874" y="145.1" width="166" height="23" rx="5" fill="#ffffff" stroke="#16a34a" opacity="0.97"/><text x="881" y="161.1" fill="#16a34a" font-size="15" font-weight="700">日内支撑 72.64</text>
<line x1="72" y1="55.1" x2="862" y2="55.1" stroke="#dc2626" stroke-width="1.8" stroke-dasharray="6 4" /><rect x="874" y="35.1" width="166" height="23" rx="5" fill="#ffffff" stroke="#dc2626" opacity="0.97"/><text x="881" y="51.1" fill="#dc2626" font-size="15" font-weight="700">日内压力 77.58</text>
<line x1="72" y1="123.9" x2="862" y2="123.9" stroke="#111827" stroke-width="1.8" stroke-dasharray="2 2" /><rect x="874" y="103.9" width="166" height="23" rx="5" fill="#ffffff" stroke="#111827" opacity="0.97"/><text x="881" y="119.9" fill="#111827" font-size="15" font-weight="700">现价 74.49</text>
<text x="72" y="396" fill="#16a34a" font-size="14" font-weight="700">日内做多计划</text><rect x="72" y="404" width="790" height="48" rx="6" fill="#f9fafb" stroke="#e5e7eb"/><line x1="94" y1="412" x2="840" y2="412" stroke="#16a34a" stroke-width="3"/><circle cx="132.0" cy="412" r="5" fill="#16a34a"/><text x="132.0" y="434" fill="#374151" font-size="12" text-anchor="middle">入场 止跌/突破回踩</text><circle cx="451.2" cy="412" r="5" fill="#16a34a"/><text x="451.2" y="434" fill="#374151" font-size="12" text-anchor="middle">止损 72.64</text><circle cx="712.0" cy="412" r="5" fill="#16a34a"/><text x="712.0" y="434" fill="#374151" font-size="12" text-anchor="middle">目标一 77.58</text><circle cx="814.0" cy="412" r="5" fill="#16a34a"/><text x="814.0" y="434" fill="#374151" font-size="12" text-anchor="middle">目标二 78.81</text>
<text x="72" y="482" fill="#dc2626" font-size="14" font-weight="700">日内做空计划</text><rect x="72" y="490" width="790" height="48" rx="6" fill="#f9fafb" stroke="#e5e7eb"/><line x1="94" y1="498" x2="840" y2="498" stroke="#dc2626" stroke-width="3"/><circle cx="132.0" cy="498" r="5" fill="#dc2626"/><text x="132.0" y="520" fill="#374151" font-size="12" text-anchor="middle">入场 反弹承压/破位回抽</text><circle cx="451.2" cy="498" r="5" fill="#dc2626"/><text x="451.2" y="520" fill="#374151" font-size="12" text-anchor="middle">止损 77.58</text><circle cx="712.0" cy="498" r="5" fill="#dc2626"/><text x="712.0" y="520" fill="#374151" font-size="12" text-anchor="middle">目标一 72.64</text><circle cx="814.0" cy="498" r="5" fill="#dc2626"/><text x="814.0" y="520" fill="#374151" font-size="12" text-anchor="middle">目标二 71.40</text>
</svg>