<svg xmlns="http://www.w3.org/2000/svg" width="1080" height="560" viewBox="0 0 1080 560">
<rect width="100%" height="100%" fill="#ffffff"/>
<text x="72" y="23" fill="#111827" font-size="21" font-weight="800">DRAM 日线K线支撑压力图</text>
<text x="862" y="42" fill="#374151" font-size="15" text-anchor="end">最新价 72.74</text>
<line x1="72" y1="34" x2="72" y2="340" stroke="#d1d5db"/>
<line x1="72" y1="340" x2="862" y2="340" stroke="#d1d5db"/>
<line x1="72" y1="340.0" x2="862" y2="340.0" stroke="#f3f4f6"/>
<text x="8" y="345.0" fill="#4b5563" font-size="14">43.34</text>
<line x1="72" y1="263.5" x2="862" y2="263.5" stroke="#f3f4f6"/>
<text x="8" y="268.5" fill="#4b5563" font-size="14">54.94</text>
<line x1="72" y1="187.0" x2="862" y2="187.0" stroke="#f3f4f6"/>
<text x="8" y="192.0" fill="#4b5563" font-size="14">66.53</text>
<line x1="72" y1="110.5" x2="862" y2="110.5" stroke="#f3f4f6"/>
<text x="8" y="115.5" fill="#4b5563" font-size="14">78.12</text>
<line x1="72" y1="34.0" x2="862" y2="34.0" stroke="#f3f4f6"/>
<text x="8" y="39.0" fill="#4b5563" font-size="14">89.71</text>
<line x1="72.0" y1="283.6" x2="72.0" y2="308.7" stroke="#dc2626" stroke-width="1"/><rect x="67.5" y="287.9" width="9.0" height="9.6" fill="#dc2626" opacity="0.82" rx="1"/>
<line x1="99.2" y1="289.2" x2="99.2" y2="318.9" stroke="#16a34a" stroke-width="1"/><rect x="94.7" y="296.0" width="9.0" height="1.5" fill="#16a34a" opacity="0.82" rx="1"/>
<line x1="126.5" y1="282.5" x2="126.5" y2="309.4" stroke="#16a34a" stroke-width="1"/><rect x="122.0" y="284.6" width="9.0" height="11.5" fill="#16a34a" opacity="0.82" rx="1"/>
<line x1="153.7" y1="261.4" x2="153.7" y2="288.7" stroke="#16a34a" stroke-width="1"/><rect x="149.2" y="264.3" width="9.0" height="20.4" fill="#16a34a" opacity="0.82" rx="1"/>
<line x1="181.0" y1="264.0" x2="181.0" y2="279.0" stroke="#dc2626" stroke-width="1"/><rect x="176.5" y="264.3" width="9.0" height="14.5" fill="#dc2626" opacity="0.82" rx="1"/>
<line x1="208.2" y1="256.1" x2="208.2" y2="293.2" stroke="#16a34a" stroke-width="1"/><rect x="203.7" y="267.6" width="9.0" height="11.0" fill="#16a34a" opacity="0.82" rx="1"/>
<line x1="235.4" y1="255.8" x2="235.4" y2="268.9" stroke="#16a34a" stroke-width="1"/><rect x="230.9" y="260.6" width="9.0" height="6.9" fill="#16a34a" opacity="0.82" rx="1"/>
<line x1="262.7" y1="239.1" x2="262.7" y2="262.4" stroke="#16a34a" stroke-width="1"/><rect x="258.2" y="253.2" width="9.0" height="7.4" fill="#16a34a" opacity="0.82" rx="1"/>
<line x1="289.9" y1="208.3" x2="289.9" y2="265.2" stroke="#16a34a" stroke-width="1"/><rect x="285.4" y="215.5" width="9.0" height="37.7" fill="#16a34a" opacity="0.82" rx="1"/>
<line x1="317.2" y1="205.7" x2="317.2" y2="236.1" stroke="#dc2626" stroke-width="1"/><rect x="312.7" y="215.6" width="9.0" height="17.0" fill="#dc2626" opacity="0.82" rx="1"/>
<line x1="344.4" y1="205.3" x2="344.4" y2="247.0" stroke="#16a34a" stroke-width="1"/><rect x="339.9" y="210.0" width="9.0" height="22.6" fill="#16a34a" opacity="0.82" rx="1"/>
<line x1="371.7" y1="201.4" x2="371.7" y2="219.8" stroke="#16a34a" stroke-width="1"/><rect x="367.2" y="208.2" width="9.0" height="1.6" fill="#16a34a" opacity="0.82" rx="1"/>
<line x1="398.9" y1="190.8" x2="398.9" y2="210.9" stroke="#16a34a" stroke-width="1"/><rect x="394.4" y="191.8" width="9.0" height="16.4" fill="#16a34a" opacity="0.82" rx="1"/>
<line x1="426.1" y1="180.7" x2="426.1" y2="195.6" stroke="#16a34a" stroke-width="1"/><rect x="421.6" y="189.6" width="9.0" height="2.1" fill="#16a34a" opacity="0.82" rx="1"/>
<line x1="453.4" y1="170.2" x2="453.4" y2="201.4" stroke="#16a34a" stroke-width="1"/><rect x="448.9" y="176.0" width="9.0" height="13.5" fill="#16a34a" opacity="0.82" rx="1"/>
<line x1="480.6" y1="162.9" x2="480.6" y2="194.4" stroke="#16a34a" stroke-width="1"/><rect x="476.1" y="167.7" width="9.0" height="8.4" fill="#16a34a" opacity="0.82" rx="1"/>
<line x1="507.9" y1="162.0" x2="507.9" y2="187.8" stroke="#dc2626" stroke-width="1"/><rect x="503.4" y="167.7" width="9.0" height="18.1" fill="#dc2626" opacity="0.82" rx="1"/>
<line x1="535.1" y1="177.2" x2="535.1" y2="209.1" stroke="#dc2626" stroke-width="1"/><rect x="530.6" y="185.9" width="9.0" height="22.1" fill="#dc2626" opacity="0.82" rx="1"/>
<line x1="562.3" y1="202.8" x2="562.3" y2="273.2" stroke="#dc2626" stroke-width="1"/><rect x="557.8" y="208.0" width="9.0" height="52.3" fill="#dc2626" opacity="0.82" rx="1"/>
<line x1="589.6" y1="253.4" x2="589.6" y2="279.5" stroke="#16a34a" stroke-width="1"/><rect x="585.1" y="258.3" width="9.0" height="2.0" fill="#16a34a" opacity="0.82" rx="1"/>
<line x1="616.8" y1="231.2" x2="616.8" y2="263.1" stroke="#16a34a" stroke-width="1"/><rect x="612.3" y="253.5" width="9.0" height="4.8" fill="#16a34a" opacity="0.82" rx="1"/>
<line x1="644.1" y1="219.1" x2="644.1" y2="256.3" stroke="#16a34a" stroke-width="1"/><rect x="639.6" y="224.2" width="9.0" height="29.4" fill="#16a34a" opacity="0.82" rx="1"/>
<line x1="671.3" y1="202.4" x2="671.3" y2="260.1" stroke="#dc2626" stroke-width="1"/><rect x="666.8" y="224.1" width="9.0" height="7.7" fill="#dc2626" opacity="0.82" rx="1"/>
<line x1="698.6" y1="219.9" x2="698.6" y2="259.2" stroke="#dc2626" stroke-width="1"/><rect x="694.1" y="231.8" width="9.0" height="21.8" fill="#dc2626" opacity="0.82" rx="1"/>
<line x1="725.8" y1="185.9" x2="725.8" y2="255.2" stroke="#16a34a" stroke-width="1"/><rect x="721.3" y="190.4" width="9.0" height="63.0" fill="#16a34a" opacity="0.82" rx="1"/>
<line x1="753.0" y1="189.3" x2="753.0" y2="215.2" stroke="#dc2626" stroke-width="1"/><rect x="748.5" y="190.4" width="9.0" height="2.4" fill="#dc2626" opacity="0.82" rx="1"/>
<line x1="780.3" y1="190.6" x2="780.3" y2="204.4" stroke="#16a34a" stroke-width="1"/><rect x="775.8" y="192.0" width="9.0" height="1.2" fill="#16a34a" opacity="0.82" rx="1"/>
<line x1="807.5" y1="169.2" x2="807.5" y2="193.3" stroke="#16a34a" stroke-width="1"/><rect x="803.0" y="175.5" width="9.0" height="16.4" fill="#16a34a" opacity="0.82" rx="1"/>
<line x1="834.8" y1="155.2" x2="834.8" y2="181.4" stroke="#16a34a" stroke-width="1"/><rect x="830.3" y="158.5" width="9.0" height="17.2" fill="#16a34a" opacity="0.82" rx="1"/>
<line x1="862.0" y1="143.8" x2="862.0" y2="173.2" stroke="#16a34a" stroke-width="1"/><rect x="857.5" y="146.0" width="9.0" height="12.6" fill="#16a34a" opacity="0.82" rx="1"/>
<line x1="72" y1="200.6" x2="862" y2="200.6" stroke="#16a34a" stroke-width="1.8" stroke-dasharray="6 4" /><rect x="874" y="180.6" width="166" height="23" rx="5" fill="#ffffff" stroke="#16a34a" opacity="0.97"/><text x="881" y="196.6" fill="#16a34a" font-size="15" font-weight="700">支撑 64.47</text>
<line x1="72" y1="55.1" x2="862" y2="55.1" stroke="#dc2626" stroke-width="1.8" stroke-dasharray="6 4" /><rect x="874" y="35.1" width="166" height="23" rx="5" fill="#ffffff" stroke="#dc2626" opacity="0.97"/><text x="881" y="51.1" fill="#dc2626" font-size="15" font-weight="700">压力 86.52</text>
<line x1="72" y1="146.0" x2="862" y2="146.0" stroke="#111827" stroke-width="1.8" stroke-dasharray="2 2" /><rect x="874" y="126.0" width="166" height="23" rx="5" fill="#ffffff" stroke="#111827" opacity="0.97"/><text x="881" y="142.0" fill="#111827" font-size="15" font-weight="700">现价 72.74</text>
<text x="72" y="396" fill="#16a34a" font-size="14" font-weight="700">日线做多计划</text><rect x="72" y="404" width="790" height="48" rx="6" fill="#f9fafb" stroke="#e5e7eb"/><line x1="94" y1="412" x2="840" y2="412" stroke="#16a34a" stroke-width="3"/><circle cx="132.0" cy="412" r="5" fill="#16a34a"/><text x="132.0" y="434" fill="#374151" font-size="12" text-anchor="middle">入场 止跌/突破回踩</text><circle cx="451.2" cy="412" r="5" fill="#16a34a"/><text x="451.2" y="434" fill="#374151" font-size="12" text-anchor="middle">止损 64.47</text><circle cx="712.0" cy="412" r="5" fill="#16a34a"/><text x="712.0" y="434" fill="#374151" font-size="12" text-anchor="middle">目标一 86.52</text><circle cx="814.0" cy="412" r="5" fill="#16a34a"/><text x="814.0" y="434" fill="#374151" font-size="12" text-anchor="middle">目标二 94.78</text>
<text x="72" y="482" fill="#dc2626" font-size="14" font-weight="700">日线做空计划</text><rect x="72" y="490" width="790" height="48" rx="6" fill="#f9fafb" stroke="#e5e7eb"/><line x1="94" y1="498" x2="840" y2="498" stroke="#dc2626" stroke-width="3"/><circle cx="132.0" cy="498" r="5" fill="#dc2626"/><text x="132.0" y="520" fill="#374151" font-size="12" text-anchor="middle">入场 反弹承压/破位回抽</text><circle cx="451.2" cy="498" r="5" fill="#dc2626"/><text x="451.2" y="520" fill="#374151" font-size="12" text-anchor="middle">止损 86.52</text><circle cx="712.0" cy="498" r="5" fill="#dc2626"/><text x="712.0" y="520" fill="#374151" font-size="12" text-anchor="middle">目标一 64.47</text><circle cx="814.0" cy="498" r="5" fill="#dc2626"/><text x="814.0" y="520" fill="#374151" font-size="12" text-anchor="middle">目标二 58.96</text>
</svg>