<svg xmlns="http://www.w3.org/2000/svg" width="1080" height="560" viewBox="0 0 1080 560">
<rect width="100%" height="100%" fill="#ffffff"/>
<text x="72" y="23" fill="#111827" font-size="21" font-weight="800">HYPE 小时线K线支撑压力图</text>
<text x="862" y="42" fill="#374151" font-size="15" text-anchor="end">最新价 67.00</text>
<line x1="72" y1="34" x2="72" y2="340" stroke="#d1d5db"/>
<line x1="72" y1="340" x2="862" y2="340" stroke="#d1d5db"/>
<line x1="72" y1="340.0" x2="862" y2="340.0" stroke="#f3f4f6"/>
<text x="8" y="345.0" fill="#4b5563" font-size="14">55.76</text>
<line x1="72" y1="263.5" x2="862" y2="263.5" stroke="#f3f4f6"/>
<text x="8" y="268.5" fill="#4b5563" font-size="14">59.46</text>
<line x1="72" y1="187.0" x2="862" y2="187.0" stroke="#f3f4f6"/>
<text x="8" y="192.0" fill="#4b5563" font-size="14">63.15</text>
<line x1="72" y1="110.5" x2="862" y2="110.5" stroke="#f3f4f6"/>
<text x="8" y="115.5" fill="#4b5563" font-size="14">66.85</text>
<line x1="72" y1="34.0" x2="862" y2="34.0" stroke="#f3f4f6"/>
<text x="8" y="39.0" fill="#4b5563" font-size="14">70.54</text>
<line x1="72.0" y1="304.9" x2="72.0" y2="318.9" stroke="#dc2626" stroke-width="1"/><rect x="69.3" y="311.7" width="5.4" height="4.1" fill="#dc2626" opacity="0.82" rx="1"/>
<line x1="80.9" y1="280.4" x2="80.9" y2="316.1" stroke="#16a34a" stroke-width="1"/><rect x="78.2" y="280.6" width="5.4" height="35.1" fill="#16a34a" opacity="0.82" rx="1"/>
<line x1="89.8" y1="265.6" x2="89.8" y2="288.2" stroke="#16a34a" stroke-width="1"/><rect x="87.0" y="269.1" width="5.4" height="11.5" fill="#16a34a" opacity="0.82" rx="1"/>
<line x1="98.6" y1="263.1" x2="98.6" y2="280.3" stroke="#dc2626" stroke-width="1"/><rect x="95.9" y="269.1" width="5.4" height="1.8" fill="#dc2626" opacity="0.82" rx="1"/>
<line x1="107.5" y1="260.8" x2="107.5" y2="272.9" stroke="#16a34a" stroke-width="1"/><rect x="104.8" y="268.5" width="5.4" height="2.5" fill="#16a34a" opacity="0.82" rx="1"/>
<line x1="116.4" y1="236.9" x2="116.4" y2="272.5" stroke="#16a34a" stroke-width="1"/><rect x="113.7" y="244.3" width="5.4" height="24.2" fill="#16a34a" opacity="0.82" rx="1"/>
<line x1="125.3" y1="237.4" x2="125.3" y2="266.5" stroke="#dc2626" stroke-width="1"/><rect x="122.5" y="244.3" width="5.4" height="15.2" fill="#dc2626" opacity="0.82" rx="1"/>
<line x1="134.1" y1="242.7" x2="134.1" y2="266.7" stroke="#16a34a" stroke-width="1"/><rect x="131.4" y="243.0" width="5.4" height="16.4" fill="#16a34a" opacity="0.82" rx="1"/>
<line x1="143.0" y1="226.8" x2="143.0" y2="258.5" stroke="#dc2626" stroke-width="1"/><rect x="140.3" y="243.0" width="5.4" height="14.5" fill="#dc2626" opacity="0.82" rx="1"/>
<line x1="151.9" y1="221.0" x2="151.9" y2="264.7" stroke="#16a34a" stroke-width="1"/><rect x="149.2" y="231.3" width="5.4" height="26.2" fill="#16a34a" opacity="0.82" rx="1"/>
<line x1="160.8" y1="202.1" x2="160.8" y2="232.4" stroke="#16a34a" stroke-width="1"/><rect x="158.0" y="213.2" width="5.4" height="18.0" fill="#16a34a" opacity="0.82" rx="1"/>
<line x1="169.6" y1="208.1" x2="169.6" y2="230.6" stroke="#dc2626" stroke-width="1"/><rect x="166.9" y="213.1" width="5.4" height="16.0" fill="#dc2626" opacity="0.82" rx="1"/>
<line x1="178.5" y1="227.4" x2="178.5" y2="244.1" stroke="#dc2626" stroke-width="1"/><rect x="175.8" y="228.6" width="5.4" height="8.4" fill="#dc2626" opacity="0.82" rx="1"/>
<line x1="187.4" y1="225.3" x2="187.4" y2="242.6" stroke="#16a34a" stroke-width="1"/><rect x="184.7" y="235.5" width="5.4" height="1.4" fill="#16a34a" opacity="0.82" rx="1"/>
<line x1="196.3" y1="228.5" x2="196.3" y2="249.2" stroke="#dc2626" stroke-width="1"/><rect x="193.5" y="235.6" width="5.4" height="6.3" fill="#dc2626" opacity="0.82" rx="1"/>
<line x1="205.1" y1="234.9" x2="205.1" y2="246.6" stroke="#16a34a" stroke-width="1"/><rect x="202.4" y="239.4" width="5.4" height="2.7" fill="#16a34a" opacity="0.82" rx="1"/>
<line x1="214.0" y1="238.6" x2="214.0" y2="269.0" stroke="#dc2626" stroke-width="1"/><rect x="211.3" y="239.4" width="5.4" height="28.1" fill="#dc2626" opacity="0.82" rx="1"/>
<line x1="222.9" y1="265.8" x2="222.9" y2="276.6" stroke="#16a34a" stroke-width="1"/><rect x="220.2" y="267.2" width="5.4" height="1.2" fill="#16a34a" opacity="0.82" rx="1"/>
<line x1="231.8" y1="264.4" x2="231.8" y2="275.0" stroke="#16a34a" stroke-width="1"/><rect x="229.1" y="265.1" width="5.4" height="2.1" fill="#16a34a" opacity="0.82" rx="1"/>
<line x1="240.7" y1="258.5" x2="240.7" y2="270.6" stroke="#dc2626" stroke-width="1"/><rect x="237.9" y="265.0" width="5.4" height="3.8" fill="#dc2626" opacity="0.82" rx="1"/>
<line x1="249.5" y1="266.8" x2="249.5" y2="287.3" stroke="#dc2626" stroke-width="1"/><rect x="246.8" y="268.8" width="5.4" height="13.5" fill="#dc2626" opacity="0.82" rx="1"/>
<line x1="258.4" y1="280.8" x2="258.4" y2="298.4" stroke="#dc2626" stroke-width="1"/><rect x="255.7" y="282.2" width="5.4" height="13.2" fill="#dc2626" opacity="0.82" rx="1"/>
<line x1="267.3" y1="294.3" x2="267.3" y2="310.9" stroke="#dc2626" stroke-width="1"/><rect x="264.6" y="295.5" width="5.4" height="1.9" fill="#dc2626" opacity="0.82" rx="1"/>
<line x1="276.2" y1="276.8" x2="276.2" y2="297.7" stroke="#16a34a" stroke-width="1"/><rect x="273.4" y="278.9" width="5.4" height="18.4" fill="#16a34a" opacity="0.82" rx="1"/>
<line x1="285.0" y1="273.7" x2="285.0" y2="286.1" stroke="#16a34a" stroke-width="1"/><rect x="282.3" y="278.4" width="5.4" height="1.2" fill="#16a34a" opacity="0.82" rx="1"/>
<line x1="293.9" y1="269.2" x2="293.9" y2="282.4" stroke="#16a34a" stroke-width="1"/><rect x="291.2" y="275.6" width="5.4" height="2.7" fill="#16a34a" opacity="0.82" rx="1"/>
<line x1="302.8" y1="274.1" x2="302.8" y2="288.5" stroke="#dc2626" stroke-width="1"/><rect x="300.1" y="275.6" width="5.4" height="10.1" fill="#dc2626" opacity="0.82" rx="1"/>
<line x1="311.7" y1="284.0" x2="311.7" y2="297.4" stroke="#dc2626" stroke-width="1"/><rect x="308.9" y="285.7" width="5.4" height="7.3" fill="#dc2626" opacity="0.82" rx="1"/>
<line x1="320.5" y1="276.3" x2="320.5" y2="295.4" stroke="#16a34a" stroke-width="1"/><rect x="317.8" y="280.3" width="5.4" height="12.7" fill="#16a34a" opacity="0.82" rx="1"/>
<line x1="329.4" y1="260.7" x2="329.4" y2="283.1" stroke="#16a34a" stroke-width="1"/><rect x="326.7" y="263.7" width="5.4" height="16.6" fill="#16a34a" opacity="0.82" rx="1"/>
<line x1="338.3" y1="258.7" x2="338.3" y2="273.9" stroke="#dc2626" stroke-width="1"/><rect x="335.6" y="263.6" width="5.4" height="8.7" fill="#dc2626" opacity="0.82" rx="1"/>
<line x1="347.2" y1="246.6" x2="347.2" y2="274.1" stroke="#16a34a" stroke-width="1"/><rect x="344.4" y="246.9" width="5.4" height="25.7" fill="#16a34a" opacity="0.82" rx="1"/>
<line x1="356.0" y1="242.6" x2="356.0" y2="257.0" stroke="#dc2626" stroke-width="1"/><rect x="353.3" y="246.8" width="5.4" height="7.0" fill="#dc2626" opacity="0.82" rx="1"/>
<line x1="364.9" y1="246.1" x2="364.9" y2="263.1" stroke="#16a34a" stroke-width="1"/><rect x="362.2" y="248.3" width="5.4" height="5.5" fill="#16a34a" opacity="0.82" rx="1"/>
<line x1="373.8" y1="247.2" x2="373.8" y2="273.6" stroke="#dc2626" stroke-width="1"/><rect x="371.1" y="248.3" width="5.4" height="24.7" fill="#dc2626" opacity="0.82" rx="1"/>
<line x1="382.7" y1="254.9" x2="382.7" y2="274.5" stroke="#16a34a" stroke-width="1"/><rect x="380.0" y="255.1" width="5.4" height="17.9" fill="#16a34a" opacity="0.82" rx="1"/>
<line x1="391.6" y1="252.2" x2="391.6" y2="259.5" stroke="#16a34a" stroke-width="1"/><rect x="388.8" y="254.3" width="5.4" height="1.2" fill="#16a34a" opacity="0.82" rx="1"/>
<line x1="400.4" y1="251.9" x2="400.4" y2="259.7" stroke="#16a34a" stroke-width="1"/><rect x="397.7" y="253.8" width="5.4" height="1.2" fill="#16a34a" opacity="0.82" rx="1"/>
<line x1="409.3" y1="237.8" x2="409.3" y2="256.6" stroke="#16a34a" stroke-width="1"/><rect x="406.6" y="241.7" width="5.4" height="12.2" fill="#16a34a" opacity="0.82" rx="1"/>
<line x1="418.2" y1="241.0" x2="418.2" y2="247.5" stroke="#dc2626" stroke-width="1"/><rect x="415.5" y="241.8" width="5.4" height="5.5" fill="#dc2626" opacity="0.82" rx="1"/>
<line x1="427.1" y1="234.0" x2="427.1" y2="249.1" stroke="#16a34a" stroke-width="1"/><rect x="424.3" y="237.8" width="5.4" height="9.6" fill="#16a34a" opacity="0.82" rx="1"/>
<line x1="435.9" y1="232.6" x2="435.9" y2="244.0" stroke="#16a34a" stroke-width="1"/><rect x="433.2" y="233.7" width="5.4" height="4.3" fill="#16a34a" opacity="0.82" rx="1"/>
<line x1="444.8" y1="229.6" x2="444.8" y2="241.7" stroke="#dc2626" stroke-width="1"/><rect x="442.1" y="233.8" width="5.4" height="6.0" fill="#dc2626" opacity="0.82" rx="1"/>
<line x1="453.7" y1="226.6" x2="453.7" y2="241.3" stroke="#16a34a" stroke-width="1"/><rect x="451.0" y="234.9" width="5.4" height="4.8" fill="#16a34a" opacity="0.82" rx="1"/>
<line x1="462.6" y1="233.0" x2="462.6" y2="245.4" stroke="#dc2626" stroke-width="1"/><rect x="459.8" y="234.9" width="5.4" height="5.5" fill="#dc2626" opacity="0.82" rx="1"/>
<line x1="471.4" y1="239.1" x2="471.4" y2="253.0" stroke="#dc2626" stroke-width="1"/><rect x="468.7" y="240.3" width="5.4" height="9.9" fill="#dc2626" opacity="0.82" rx="1"/>
<line x1="480.3" y1="247.9" x2="480.3" y2="255.4" stroke="#dc2626" stroke-width="1"/><rect x="477.6" y="250.1" width="5.4" height="3.2" fill="#dc2626" opacity="0.82" rx="1"/>
<line x1="489.2" y1="245.8" x2="489.2" y2="259.1" stroke="#dc2626" stroke-width="1"/><rect x="486.5" y="253.4" width="5.4" height="1.2" fill="#dc2626" opacity="0.82" rx="1"/>
<line x1="498.1" y1="241.1" x2="498.1" y2="256.9" stroke="#16a34a" stroke-width="1"/><rect x="495.3" y="250.6" width="5.4" height="4.0" fill="#16a34a" opacity="0.82" rx="1"/>
<line x1="506.9" y1="245.2" x2="506.9" y2="258.2" stroke="#16a34a" stroke-width="1"/><rect x="504.2" y="247.1" width="5.4" height="3.4" fill="#16a34a" opacity="0.82" rx="1"/>
<line x1="515.8" y1="233.3" x2="515.8" y2="254.2" stroke="#16a34a" stroke-width="1"/><rect x="513.1" y="234.4" width="5.4" height="12.6" fill="#16a34a" opacity="0.82" rx="1"/>
<line x1="524.7" y1="218.9" x2="524.7" y2="242.0" stroke="#16a34a" stroke-width="1"/><rect x="522.0" y="231.3" width="5.4" height="3.4" fill="#16a34a" opacity="0.82" rx="1"/>
<line x1="533.6" y1="225.8" x2="533.6" y2="240.5" stroke="#16a34a" stroke-width="1"/><rect x="530.9" y="230.9" width="5.4" height="1.2" fill="#16a34a" opacity="0.82" rx="1"/>
<line x1="542.4" y1="224.9" x2="542.4" y2="238.1" stroke="#dc2626" stroke-width="1"/><rect x="539.7" y="230.9" width="5.4" height="3.0" fill="#dc2626" opacity="0.82" rx="1"/>
<line x1="551.3" y1="225.1" x2="551.3" y2="239.5" stroke="#16a34a" stroke-width="1"/><rect x="548.6" y="230.3" width="5.4" height="3.6" fill="#16a34a" opacity="0.82" rx="1"/>
<line x1="560.2" y1="229.8" x2="560.2" y2="259.4" stroke="#dc2626" stroke-width="1"/><rect x="557.5" y="230.3" width="5.4" height="15.1" fill="#dc2626" opacity="0.82" rx="1"/>
<line x1="569.1" y1="237.0" x2="569.1" y2="247.3" stroke="#dc2626" stroke-width="1"/><rect x="566.4" y="245.3" width="5.4" height="1.8" fill="#dc2626" opacity="0.82" rx="1"/>
<line x1="578.0" y1="242.1" x2="578.0" y2="254.1" stroke="#dc2626" stroke-width="1"/><rect x="575.2" y="247.0" width="5.4" height="6.3" fill="#dc2626" opacity="0.82" rx="1"/>
<line x1="586.8" y1="245.0" x2="586.8" y2="257.9" stroke="#dc2626" stroke-width="1"/><rect x="584.1" y="253.3" width="5.4" height="3.6" fill="#dc2626" opacity="0.82" rx="1"/>
<line x1="595.7" y1="242.8" x2="595.7" y2="260.6" stroke="#16a34a" stroke-width="1"/><rect x="593.0" y="244.4" width="5.4" height="12.4" fill="#16a34a" opacity="0.82" rx="1"/>
<line x1="604.6" y1="236.1" x2="604.6" y2="248.6" stroke="#16a34a" stroke-width="1"/><rect x="601.9" y="241.7" width="5.4" height="2.8" fill="#16a34a" opacity="0.82" rx="1"/>
<line x1="613.5" y1="236.9" x2="613.5" y2="247.8" stroke="#dc2626" stroke-width="1"/><rect x="610.7" y="241.7" width="5.4" height="1.2" fill="#dc2626" opacity="0.82" rx="1"/>
<line x1="622.3" y1="175.8" x2="622.3" y2="245.0" stroke="#16a34a" stroke-width="1"/><rect x="619.6" y="189.5" width="5.4" height="52.6" fill="#16a34a" opacity="0.82" rx="1"/>
<line x1="631.2" y1="176.6" x2="631.2" y2="205.2" stroke="#dc2626" stroke-width="1"/><rect x="628.5" y="189.4" width="5.4" height="1.2" fill="#dc2626" opacity="0.82" rx="1"/>
<line x1="640.1" y1="166.5" x2="640.1" y2="190.6" stroke="#16a34a" stroke-width="1"/><rect x="637.4" y="171.0" width="5.4" height="18.6" fill="#16a34a" opacity="0.82" rx="1"/>
<line x1="649.0" y1="163.8" x2="649.0" y2="179.8" stroke="#16a34a" stroke-width="1"/><rect x="646.2" y="170.6" width="5.4" height="1.2" fill="#16a34a" opacity="0.82" rx="1"/>
<line x1="657.8" y1="169.6" x2="657.8" y2="187.7" stroke="#dc2626" stroke-width="1"/><rect x="655.1" y="170.6" width="5.4" height="7.4" fill="#dc2626" opacity="0.82" rx="1"/>
<line x1="666.7" y1="148.7" x2="666.7" y2="181.3" stroke="#16a34a" stroke-width="1"/><rect x="664.0" y="152.9" width="5.4" height="24.9" fill="#16a34a" opacity="0.82" rx="1"/>
<line x1="675.6" y1="141.9" x2="675.6" y2="157.7" stroke="#16a34a" stroke-width="1"/><rect x="672.9" y="141.9" width="5.4" height="11.2" fill="#16a34a" opacity="0.82" rx="1"/>
<line x1="684.5" y1="132.1" x2="684.5" y2="153.7" stroke="#dc2626" stroke-width="1"/><rect x="681.8" y="141.9" width="5.4" height="10.2" fill="#dc2626" opacity="0.82" rx="1"/>
<line x1="693.3" y1="146.0" x2="693.3" y2="158.0" stroke="#dc2626" stroke-width="1"/><rect x="690.6" y="152.0" width="5.4" height="1.7" fill="#dc2626" opacity="0.82" rx="1"/>
<line x1="702.2" y1="143.2" x2="702.2" y2="160.9" stroke="#16a34a" stroke-width="1"/><rect x="699.5" y="144.5" width="5.4" height="9.2" fill="#16a34a" opacity="0.82" rx="1"/>
<line x1="711.1" y1="130.3" x2="711.1" y2="152.5" stroke="#16a34a" stroke-width="1"/><rect x="708.4" y="143.8" width="5.4" height="1.2" fill="#16a34a" opacity="0.82" rx="1"/>
<line x1="720.0" y1="126.7" x2="720.0" y2="145.8" stroke="#16a34a" stroke-width="1"/><rect x="717.3" y="127.2" width="5.4" height="16.6" fill="#16a34a" opacity="0.82" rx="1"/>
<line x1="728.9" y1="115.1" x2="728.9" y2="135.0" stroke="#16a34a" stroke-width="1"/><rect x="726.1" y="117.0" width="5.4" height="10.3" fill="#16a34a" opacity="0.82" rx="1"/>
<line x1="737.7" y1="84.1" x2="737.7" y2="119.3" stroke="#16a34a" stroke-width="1"/><rect x="735.0" y="90.0" width="5.4" height="27.0" fill="#16a34a" opacity="0.82" rx="1"/>
<line x1="746.6" y1="74.3" x2="746.6" y2="94.0" stroke="#16a34a" stroke-width="1"/><rect x="743.9" y="87.5" width="5.4" height="2.5" fill="#16a34a" opacity="0.82" rx="1"/>
<line x1="755.5" y1="80.0" x2="755.5" y2="102.0" stroke="#16a34a" stroke-width="1"/><rect x="752.8" y="85.6" width="5.4" height="1.8" fill="#16a34a" opacity="0.82" rx="1"/>
<line x1="764.4" y1="81.6" x2="764.4" y2="110.0" stroke="#dc2626" stroke-width="1"/><rect x="761.6" y="85.7" width="5.4" height="22.3" fill="#dc2626" opacity="0.82" rx="1"/>
<line x1="773.2" y1="83.9" x2="773.2" y2="114.8" stroke="#16a34a" stroke-width="1"/><rect x="770.5" y="87.0" width="5.4" height="21.1" fill="#16a34a" opacity="0.82" rx="1"/>
<line x1="782.1" y1="77.4" x2="782.1" y2="98.3" stroke="#16a34a" stroke-width="1"/><rect x="779.4" y="86.3" width="5.4" height="1.2" fill="#16a34a" opacity="0.82" rx="1"/>
<line x1="791.0" y1="77.2" x2="791.0" y2="96.4" stroke="#16a34a" stroke-width="1"/><rect x="788.3" y="78.6" width="5.4" height="7.8" fill="#16a34a" opacity="0.82" rx="1"/>
<line x1="799.9" y1="72.1" x2="799.9" y2="89.3" stroke="#dc2626" stroke-width="1"/><rect x="797.1" y="78.6" width="5.4" height="6.0" fill="#dc2626" opacity="0.82" rx="1"/>
<line x1="808.7" y1="79.0" x2="808.7" y2="93.4" stroke="#dc2626" stroke-width="1"/><rect x="806.0" y="84.5" width="5.4" height="2.9" fill="#dc2626" opacity="0.82" rx="1"/>
<line x1="817.6" y1="81.8" x2="817.6" y2="107.2" stroke="#dc2626" stroke-width="1"/><rect x="814.9" y="87.4" width="5.4" height="17.6" fill="#dc2626" opacity="0.82" rx="1"/>
<line x1="826.5" y1="94.1" x2="826.5" y2="107.3" stroke="#16a34a" stroke-width="1"/><rect x="823.8" y="99.2" width="5.4" height="6.4" fill="#16a34a" opacity="0.82" rx="1"/>
<line x1="835.4" y1="82.6" x2="835.4" y2="100.9" stroke="#16a34a" stroke-width="1"/><rect x="832.6" y="84.9" width="5.4" height="14.2" fill="#16a34a" opacity="0.82" rx="1"/>
<line x1="844.2" y1="78.7" x2="844.2" y2="119.4" stroke="#dc2626" stroke-width="1"/><rect x="841.5" y="84.9" width="5.4" height="34.2" fill="#dc2626" opacity="0.82" rx="1"/>
<line x1="853.1" y1="108.4" x2="853.1" y2="126.7" stroke="#16a34a" stroke-width="1"/><rect x="850.4" y="109.7" width="5.4" height="9.5" fill="#16a34a" opacity="0.82" rx="1"/>
<line x1="862.0" y1="107.1" x2="862.0" y2="111.4" stroke="#16a34a" stroke-width="1"/><rect x="859.3" y="107.4" width="5.4" height="2.2" fill="#16a34a" opacity="0.82" rx="1"/>
<line x1="72" y1="138.8" x2="862" y2="138.8" stroke="#16a34a" stroke-width="1.8" stroke-dasharray="6 4" /><rect x="874" y="118.8" width="166" height="23" rx="5" fill="#ffffff" stroke="#16a34a" opacity="0.97"/><text x="881" y="134.8" fill="#16a34a" font-size="15" font-weight="700">日内支撑 65.48</text>
<line x1="72" y1="55.1" x2="862" y2="55.1" stroke="#dc2626" stroke-width="1.8" stroke-dasharray="6 4" /><rect x="874" y="35.1" width="166" height="23" rx="5" fill="#ffffff" stroke="#dc2626" opacity="0.97"/><text x="881" y="51.1" fill="#dc2626" font-size="15" font-weight="700">日内压力 69.52</text>
<line x1="72" y1="107.4" x2="862" y2="107.4" stroke="#111827" stroke-width="1.8" stroke-dasharray="2 2" /><rect x="874" y="87.4" width="166" height="23" rx="5" fill="#ffffff" stroke="#111827" opacity="0.97"/><text x="881" y="103.4" fill="#111827" font-size="15" font-weight="700">现价 67.00</text>
<text x="72" y="396" fill="#16a34a" font-size="14" font-weight="700">日内做多计划</text><rect x="72" y="404" width="790" height="48" rx="6" fill="#f9fafb" stroke="#e5e7eb"/><line x1="94" y1="412" x2="840" y2="412" stroke="#16a34a" stroke-width="3"/><circle cx="132.0" cy="412" r="5" fill="#16a34a"/><text x="132.0" y="434" fill="#374151" font-size="12" text-anchor="middle">入场 止跌/突破回踩</text><circle cx="451.2" cy="412" r="5" fill="#16a34a"/><text x="451.2" y="434" fill="#374151" font-size="12" text-anchor="middle">止损 65.48</text><circle cx="712.0" cy="412" r="5" fill="#16a34a"/><text x="712.0" y="434" fill="#374151" font-size="12" text-anchor="middle">目标一 69.52</text><circle cx="814.0" cy="412" r="5" fill="#16a34a"/><text x="814.0" y="434" fill="#374151" font-size="12" text-anchor="middle">目标二 70.53</text>
<text x="72" y="482" fill="#dc2626" font-size="14" font-weight="700">日内做空计划</text><rect x="72" y="490" width="790" height="48" rx="6" fill="#f9fafb" stroke="#e5e7eb"/><line x1="94" y1="498" x2="840" y2="498" stroke="#dc2626" stroke-width="3"/><circle cx="132.0" cy="498" r="5" fill="#dc2626"/><text x="132.0" y="520" fill="#374151" font-size="12" text-anchor="middle">入场 反弹承压/破位回抽</text><circle cx="451.2" cy="498" r="5" fill="#dc2626"/><text x="451.2" y="520" fill="#374151" font-size="12" text-anchor="middle">止损 69.52</text><circle cx="712.0" cy="498" r="5" fill="#dc2626"/><text x="712.0" y="520" fill="#374151" font-size="12" text-anchor="middle">目标一 65.48</text><circle cx="814.0" cy="498" r="5" fill="#dc2626"/><text x="814.0" y="520" fill="#374151" font-size="12" text-anchor="middle">目标二 64.47</text>
</svg>