<svg xmlns="http://www.w3.org/2000/svg" width="1080" height="560" viewBox="0 0 1080 560">
<rect width="100%" height="100%" fill="#ffffff"/>
<text x="72" y="23" fill="#111827" font-size="21" font-weight="800">BTC 小时线K线支撑压力图</text>
<text x="862" y="42" fill="#374151" font-size="15" text-anchor="end">最新价 66,404</text>
<line x1="72" y1="34" x2="72" y2="340" stroke="#d1d5db"/>
<line x1="72" y1="340" x2="862" y2="340" stroke="#d1d5db"/>
<line x1="72" y1="340.0" x2="862" y2="340.0" stroke="#f3f4f6"/>
<text x="8" y="345.0" fill="#4b5563" font-size="14">63,030</text>
<line x1="72" y1="263.5" x2="862" y2="263.5" stroke="#f3f4f6"/>
<text x="8" y="268.5" fill="#4b5563" font-size="14">64,199</text>
<line x1="72" y1="187.0" x2="862" y2="187.0" stroke="#f3f4f6"/>
<text x="8" y="192.0" fill="#4b5563" font-size="14">65,368</text>
<line x1="72" y1="110.5" x2="862" y2="110.5" stroke="#f3f4f6"/>
<text x="8" y="115.5" fill="#4b5563" font-size="14">66,537</text>
<line x1="72" y1="34.0" x2="862" y2="34.0" stroke="#f3f4f6"/>
<text x="8" y="39.0" fill="#4b5563" font-size="14">67,705</text>
<line x1="72.0" y1="282.6" x2="72.0" y2="299.6" stroke="#dc2626" stroke-width="1"/><rect x="69.3" y="287.2" width="5.4" height="11.5" fill="#dc2626" opacity="0.82" rx="1"/>
<line x1="80.9" y1="290.2" x2="80.9" y2="305.6" stroke="#dc2626" stroke-width="1"/><rect x="78.2" y="298.6" width="5.4" height="7.0" fill="#dc2626" opacity="0.82" rx="1"/>
<line x1="89.8" y1="298.5" x2="89.8" y2="318.9" stroke="#dc2626" stroke-width="1"/><rect x="87.0" y="305.6" width="5.4" height="9.0" fill="#dc2626" opacity="0.82" rx="1"/>
<line x1="98.6" y1="302.2" x2="98.6" y2="314.9" stroke="#16a34a" stroke-width="1"/><rect x="95.9" y="312.5" width="5.4" height="2.1" fill="#16a34a" opacity="0.82" rx="1"/>
<line x1="107.5" y1="300.5" x2="107.5" y2="313.4" stroke="#16a34a" stroke-width="1"/><rect x="104.8" y="310.4" width="5.4" height="2.1" fill="#16a34a" opacity="0.82" rx="1"/>
<line x1="116.4" y1="305.7" x2="116.4" y2="316.1" stroke="#16a34a" stroke-width="1"/><rect x="113.7" y="306.2" width="5.4" height="4.2" fill="#16a34a" opacity="0.82" rx="1"/>
<line x1="125.3" y1="301.0" x2="125.3" y2="310.5" stroke="#16a34a" stroke-width="1"/><rect x="122.5" y="304.4" width="5.4" height="1.8" fill="#16a34a" opacity="0.82" rx="1"/>
<line x1="134.1" y1="287.7" x2="134.1" y2="304.4" stroke="#16a34a" stroke-width="1"/><rect x="131.4" y="289.5" width="5.4" height="14.9" fill="#16a34a" opacity="0.82" rx="1"/>
<line x1="143.0" y1="289.1" x2="143.0" y2="308.1" stroke="#dc2626" stroke-width="1"/><rect x="140.3" y="289.5" width="5.4" height="12.4" fill="#dc2626" opacity="0.82" rx="1"/>
<line x1="151.9" y1="296.5" x2="151.9" y2="318.4" stroke="#dc2626" stroke-width="1"/><rect x="149.2" y="301.9" width="5.4" height="7.7" fill="#dc2626" opacity="0.82" rx="1"/>
<line x1="160.8" y1="301.4" x2="160.8" y2="312.8" stroke="#dc2626" stroke-width="1"/><rect x="158.0" y="309.6" width="5.4" height="1.3" fill="#dc2626" opacity="0.82" rx="1"/>
<line x1="169.6" y1="305.0" x2="169.6" y2="312.1" stroke="#16a34a" stroke-width="1"/><rect x="166.9" y="305.6" width="5.4" height="5.2" fill="#16a34a" opacity="0.82" rx="1"/>
<line x1="178.5" y1="294.8" x2="178.5" y2="308.2" stroke="#16a34a" stroke-width="1"/><rect x="175.8" y="295.7" width="5.4" height="10.0" fill="#16a34a" opacity="0.82" rx="1"/>
<line x1="187.4" y1="284.4" x2="187.4" y2="300.3" stroke="#16a34a" stroke-width="1"/><rect x="184.7" y="288.0" width="5.4" height="7.6" fill="#16a34a" opacity="0.82" rx="1"/>
<line x1="196.3" y1="283.3" x2="196.3" y2="294.2" stroke="#dc2626" stroke-width="1"/><rect x="193.5" y="288.0" width="5.4" height="3.4" fill="#dc2626" opacity="0.82" rx="1"/>
<line x1="205.1" y1="287.4" x2="205.1" y2="295.6" stroke="#dc2626" stroke-width="1"/><rect x="202.4" y="291.5" width="5.4" height="4.0" fill="#dc2626" opacity="0.82" rx="1"/>
<line x1="214.0" y1="284.2" x2="214.0" y2="297.2" stroke="#16a34a" stroke-width="1"/><rect x="211.3" y="288.8" width="5.4" height="6.7" fill="#16a34a" opacity="0.82" rx="1"/>
<line x1="222.9" y1="279.8" x2="222.9" y2="289.0" stroke="#16a34a" stroke-width="1"/><rect x="220.2" y="280.7" width="5.4" height="8.1" fill="#16a34a" opacity="0.82" rx="1"/>
<line x1="231.8" y1="264.2" x2="231.8" y2="284.2" stroke="#16a34a" stroke-width="1"/><rect x="229.1" y="269.8" width="5.4" height="10.9" fill="#16a34a" opacity="0.82" rx="1"/>
<line x1="240.7" y1="262.3" x2="240.7" y2="274.8" stroke="#dc2626" stroke-width="1"/><rect x="237.9" y="269.8" width="5.4" height="2.1" fill="#dc2626" opacity="0.82" rx="1"/>
<line x1="249.5" y1="262.8" x2="249.5" y2="273.1" stroke="#16a34a" stroke-width="1"/><rect x="246.8" y="264.1" width="5.4" height="7.8" fill="#16a34a" opacity="0.82" rx="1"/>
<line x1="258.4" y1="255.4" x2="258.4" y2="266.9" stroke="#16a34a" stroke-width="1"/><rect x="255.7" y="259.2" width="5.4" height="4.9" fill="#16a34a" opacity="0.82" rx="1"/>
<line x1="267.3" y1="258.2" x2="267.3" y2="285.5" stroke="#dc2626" stroke-width="1"/><rect x="264.6" y="259.2" width="5.4" height="17.6" fill="#dc2626" opacity="0.82" rx="1"/>
<line x1="276.2" y1="270.6" x2="276.2" y2="282.9" stroke="#dc2626" stroke-width="1"/><rect x="273.4" y="276.8" width="5.4" height="3.7" fill="#dc2626" opacity="0.82" rx="1"/>
<line x1="285.0" y1="260.3" x2="285.0" y2="280.5" stroke="#16a34a" stroke-width="1"/><rect x="282.3" y="268.5" width="5.4" height="12.0" fill="#16a34a" opacity="0.82" rx="1"/>
<line x1="293.9" y1="257.0" x2="293.9" y2="269.2" stroke="#16a34a" stroke-width="1"/><rect x="291.2" y="259.2" width="5.4" height="9.3" fill="#16a34a" opacity="0.82" rx="1"/>
<line x1="302.8" y1="259.2" x2="302.8" y2="263.7" stroke="#dc2626" stroke-width="1"/><rect x="300.1" y="259.2" width="5.4" height="1.2" fill="#dc2626" opacity="0.82" rx="1"/>
<line x1="311.7" y1="228.2" x2="311.7" y2="264.1" stroke="#16a34a" stroke-width="1"/><rect x="308.9" y="248.0" width="5.4" height="12.0" fill="#16a34a" opacity="0.82" rx="1"/>
<line x1="320.5" y1="241.9" x2="320.5" y2="253.6" stroke="#dc2626" stroke-width="1"/><rect x="317.8" y="248.0" width="5.4" height="1.4" fill="#dc2626" opacity="0.82" rx="1"/>
<line x1="329.4" y1="239.1" x2="329.4" y2="253.6" stroke="#16a34a" stroke-width="1"/><rect x="326.7" y="249.1" width="5.4" height="1.2" fill="#16a34a" opacity="0.82" rx="1"/>
<line x1="338.3" y1="240.6" x2="338.3" y2="254.3" stroke="#16a34a" stroke-width="1"/><rect x="335.6" y="242.5" width="5.4" height="6.6" fill="#16a34a" opacity="0.82" rx="1"/>
<line x1="347.2" y1="231.9" x2="347.2" y2="246.0" stroke="#16a34a" stroke-width="1"/><rect x="344.4" y="241.6" width="5.4" height="1.2" fill="#16a34a" opacity="0.82" rx="1"/>
<line x1="356.0" y1="236.8" x2="356.0" y2="247.9" stroke="#dc2626" stroke-width="1"/><rect x="353.3" y="241.6" width="5.4" height="5.5" fill="#dc2626" opacity="0.82" rx="1"/>
<line x1="364.9" y1="242.6" x2="364.9" y2="248.9" stroke="#16a34a" stroke-width="1"/><rect x="362.2" y="242.8" width="5.4" height="4.2" fill="#16a34a" opacity="0.82" rx="1"/>
<line x1="373.8" y1="241.6" x2="373.8" y2="258.1" stroke="#dc2626" stroke-width="1"/><rect x="371.1" y="242.8" width="5.4" height="14.1" fill="#dc2626" opacity="0.82" rx="1"/>
<line x1="382.7" y1="251.7" x2="382.7" y2="259.5" stroke="#16a34a" stroke-width="1"/><rect x="380.0" y="255.7" width="5.4" height="1.2" fill="#16a34a" opacity="0.82" rx="1"/>
<line x1="391.6" y1="247.0" x2="391.6" y2="262.9" stroke="#dc2626" stroke-width="1"/><rect x="388.8" y="255.7" width="5.4" height="3.9" fill="#dc2626" opacity="0.82" rx="1"/>
<line x1="400.4" y1="249.5" x2="400.4" y2="264.3" stroke="#16a34a" stroke-width="1"/><rect x="397.7" y="250.9" width="5.4" height="8.8" fill="#16a34a" opacity="0.82" rx="1"/>
<line x1="409.3" y1="244.6" x2="409.3" y2="253.4" stroke="#16a34a" stroke-width="1"/><rect x="406.6" y="248.8" width="5.4" height="2.0" fill="#16a34a" opacity="0.82" rx="1"/>
<line x1="418.2" y1="237.7" x2="418.2" y2="258.1" stroke="#16a34a" stroke-width="1"/><rect x="415.5" y="238.2" width="5.4" height="10.6" fill="#16a34a" opacity="0.82" rx="1"/>
<line x1="427.1" y1="234.6" x2="427.1" y2="246.9" stroke="#dc2626" stroke-width="1"/><rect x="424.3" y="238.2" width="5.4" height="6.5" fill="#dc2626" opacity="0.82" rx="1"/>
<line x1="435.9" y1="236.3" x2="435.9" y2="249.1" stroke="#16a34a" stroke-width="1"/><rect x="433.2" y="243.0" width="5.4" height="1.7" fill="#16a34a" opacity="0.82" rx="1"/>
<line x1="444.8" y1="241.7" x2="444.8" y2="259.8" stroke="#dc2626" stroke-width="1"/><rect x="442.1" y="243.0" width="5.4" height="14.1" fill="#dc2626" opacity="0.82" rx="1"/>
<line x1="453.7" y1="252.4" x2="453.7" y2="262.9" stroke="#dc2626" stroke-width="1"/><rect x="451.0" y="257.1" width="5.4" height="1.2" fill="#dc2626" opacity="0.82" rx="1"/>
<line x1="462.6" y1="256.0" x2="462.6" y2="287.6" stroke="#dc2626" stroke-width="1"/><rect x="459.8" y="257.7" width="5.4" height="21.8" fill="#dc2626" opacity="0.82" rx="1"/>
<line x1="471.4" y1="268.4" x2="471.4" y2="280.1" stroke="#16a34a" stroke-width="1"/><rect x="468.7" y="276.8" width="5.4" height="2.7" fill="#16a34a" opacity="0.82" rx="1"/>
<line x1="480.3" y1="264.5" x2="480.3" y2="283.0" stroke="#dc2626" stroke-width="1"/><rect x="477.6" y="276.8" width="5.4" height="5.3" fill="#dc2626" opacity="0.82" rx="1"/>
<line x1="489.2" y1="276.5" x2="489.2" y2="299.4" stroke="#dc2626" stroke-width="1"/><rect x="486.5" y="282.1" width="5.4" height="13.6" fill="#dc2626" opacity="0.82" rx="1"/>
<line x1="498.1" y1="290.1" x2="498.1" y2="299.4" stroke="#16a34a" stroke-width="1"/><rect x="495.3" y="290.6" width="5.4" height="5.1" fill="#16a34a" opacity="0.82" rx="1"/>
<line x1="506.9" y1="287.6" x2="506.9" y2="296.0" stroke="#dc2626" stroke-width="1"/><rect x="504.2" y="290.6" width="5.4" height="1.2" fill="#dc2626" opacity="0.82" rx="1"/>
<line x1="515.8" y1="271.9" x2="515.8" y2="292.1" stroke="#16a34a" stroke-width="1"/><rect x="513.1" y="277.9" width="5.4" height="13.1" fill="#16a34a" opacity="0.82" rx="1"/>
<line x1="524.7" y1="168.4" x2="524.7" y2="278.2" stroke="#16a34a" stroke-width="1"/><rect x="522.0" y="192.4" width="5.4" height="85.5" fill="#16a34a" opacity="0.82" rx="1"/>
<line x1="533.6" y1="174.7" x2="533.6" y2="216.4" stroke="#16a34a" stroke-width="1"/><rect x="530.9" y="185.6" width="5.4" height="6.9" fill="#16a34a" opacity="0.82" rx="1"/>
<line x1="542.4" y1="160.3" x2="542.4" y2="196.9" stroke="#16a34a" stroke-width="1"/><rect x="539.7" y="165.1" width="5.4" height="20.5" fill="#16a34a" opacity="0.82" rx="1"/>
<line x1="551.3" y1="153.5" x2="551.3" y2="182.0" stroke="#dc2626" stroke-width="1"/><rect x="548.6" y="165.1" width="5.4" height="7.2" fill="#dc2626" opacity="0.82" rx="1"/>
<line x1="560.2" y1="164.9" x2="560.2" y2="190.5" stroke="#dc2626" stroke-width="1"/><rect x="557.5" y="172.4" width="5.4" height="7.1" fill="#dc2626" opacity="0.82" rx="1"/>
<line x1="569.1" y1="162.0" x2="569.1" y2="186.0" stroke="#dc2626" stroke-width="1"/><rect x="566.4" y="179.5" width="5.4" height="3.5" fill="#dc2626" opacity="0.82" rx="1"/>
<line x1="578.0" y1="145.8" x2="578.0" y2="185.3" stroke="#16a34a" stroke-width="1"/><rect x="575.2" y="152.5" width="5.4" height="30.5" fill="#16a34a" opacity="0.82" rx="1"/>
<line x1="586.8" y1="152.5" x2="586.8" y2="171.7" stroke="#dc2626" stroke-width="1"/><rect x="584.1" y="152.5" width="5.4" height="18.5" fill="#dc2626" opacity="0.82" rx="1"/>
<line x1="595.7" y1="155.8" x2="595.7" y2="173.2" stroke="#16a34a" stroke-width="1"/><rect x="593.0" y="156.9" width="5.4" height="14.1" fill="#16a34a" opacity="0.82" rx="1"/>
<line x1="604.6" y1="150.0" x2="604.6" y2="164.2" stroke="#dc2626" stroke-width="1"/><rect x="601.9" y="156.9" width="5.4" height="3.6" fill="#dc2626" opacity="0.82" rx="1"/>
<line x1="613.5" y1="147.0" x2="613.5" y2="173.1" stroke="#dc2626" stroke-width="1"/><rect x="610.7" y="160.5" width="5.4" height="8.6" fill="#dc2626" opacity="0.82" rx="1"/>
<line x1="622.3" y1="160.8" x2="622.3" y2="173.1" stroke="#dc2626" stroke-width="1"/><rect x="619.6" y="169.0" width="5.4" height="1.5" fill="#dc2626" opacity="0.82" rx="1"/>
<line x1="631.2" y1="162.6" x2="631.2" y2="180.4" stroke="#dc2626" stroke-width="1"/><rect x="628.5" y="170.5" width="5.4" height="3.9" fill="#dc2626" opacity="0.82" rx="1"/>
<line x1="640.1" y1="149.9" x2="640.1" y2="175.4" stroke="#16a34a" stroke-width="1"/><rect x="637.4" y="153.2" width="5.4" height="21.3" fill="#16a34a" opacity="0.82" rx="1"/>
<line x1="649.0" y1="123.0" x2="649.0" y2="158.2" stroke="#16a34a" stroke-width="1"/><rect x="646.2" y="133.0" width="5.4" height="20.1" fill="#16a34a" opacity="0.82" rx="1"/>
<line x1="657.8" y1="108.3" x2="657.8" y2="141.9" stroke="#16a34a" stroke-width="1"/><rect x="655.1" y="111.0" width="5.4" height="22.0" fill="#16a34a" opacity="0.82" rx="1"/>
<line x1="666.7" y1="85.7" x2="666.7" y2="121.1" stroke="#dc2626" stroke-width="1"/><rect x="664.0" y="111.0" width="5.4" height="7.7" fill="#dc2626" opacity="0.82" rx="1"/>
<line x1="675.6" y1="103.3" x2="675.6" y2="128.3" stroke="#16a34a" stroke-width="1"/><rect x="672.9" y="109.5" width="5.4" height="9.3" fill="#16a34a" opacity="0.82" rx="1"/>
<line x1="684.5" y1="63.5" x2="684.5" y2="110.2" stroke="#16a34a" stroke-width="1"/><rect x="681.8" y="63.9" width="5.4" height="45.6" fill="#16a34a" opacity="0.82" rx="1"/>
<line x1="693.3" y1="63.5" x2="693.3" y2="76.8" stroke="#dc2626" stroke-width="1"/><rect x="690.6" y="63.9" width="5.4" height="8.3" fill="#dc2626" opacity="0.82" rx="1"/>
<line x1="702.2" y1="72.2" x2="702.2" y2="104.0" stroke="#dc2626" stroke-width="1"/><rect x="699.5" y="72.2" width="5.4" height="19.7" fill="#dc2626" opacity="0.82" rx="1"/>
<line x1="711.1" y1="86.7" x2="711.1" y2="101.2" stroke="#dc2626" stroke-width="1"/><rect x="708.4" y="91.9" width="5.4" height="6.2" fill="#dc2626" opacity="0.82" rx="1"/>
<line x1="720.0" y1="89.6" x2="720.0" y2="125.8" stroke="#dc2626" stroke-width="1"/><rect x="717.3" y="98.1" width="5.4" height="9.6" fill="#dc2626" opacity="0.82" rx="1"/>
<line x1="728.9" y1="102.5" x2="728.9" y2="116.5" stroke="#dc2626" stroke-width="1"/><rect x="726.1" y="107.7" width="5.4" height="5.9" fill="#dc2626" opacity="0.82" rx="1"/>
<line x1="737.7" y1="110.6" x2="737.7" y2="127.0" stroke="#dc2626" stroke-width="1"/><rect x="735.0" y="113.6" width="5.4" height="10.0" fill="#dc2626" opacity="0.82" rx="1"/>
<line x1="746.6" y1="116.4" x2="746.6" y2="141.4" stroke="#dc2626" stroke-width="1"/><rect x="743.9" y="123.6" width="5.4" height="10.9" fill="#dc2626" opacity="0.82" rx="1"/>
<line x1="755.5" y1="123.7" x2="755.5" y2="139.9" stroke="#16a34a" stroke-width="1"/><rect x="752.8" y="126.9" width="5.4" height="7.6" fill="#16a34a" opacity="0.82" rx="1"/>
<line x1="764.4" y1="117.7" x2="764.4" y2="132.7" stroke="#dc2626" stroke-width="1"/><rect x="761.6" y="126.9" width="5.4" height="4.5" fill="#dc2626" opacity="0.82" rx="1"/>
<line x1="773.2" y1="120.2" x2="773.2" y2="132.1" stroke="#16a34a" stroke-width="1"/><rect x="770.5" y="125.3" width="5.4" height="6.1" fill="#16a34a" opacity="0.82" rx="1"/>
<line x1="782.1" y1="123.9" x2="782.1" y2="168.2" stroke="#dc2626" stroke-width="1"/><rect x="779.4" y="125.3" width="5.4" height="39.0" fill="#dc2626" opacity="0.82" rx="1"/>
<line x1="791.0" y1="136.1" x2="791.0" y2="171.3" stroke="#16a34a" stroke-width="1"/><rect x="788.3" y="137.4" width="5.4" height="26.9" fill="#16a34a" opacity="0.82" rx="1"/>
<line x1="799.9" y1="129.1" x2="799.9" y2="160.8" stroke="#dc2626" stroke-width="1"/><rect x="797.1" y="137.4" width="5.4" height="20.6" fill="#dc2626" opacity="0.82" rx="1"/>
<line x1="808.7" y1="137.8" x2="808.7" y2="158.0" stroke="#16a34a" stroke-width="1"/><rect x="806.0" y="143.8" width="5.4" height="14.2" fill="#16a34a" opacity="0.82" rx="1"/>
<line x1="817.6" y1="110.0" x2="817.6" y2="144.0" stroke="#16a34a" stroke-width="1"/><rect x="814.9" y="119.0" width="5.4" height="24.8" fill="#16a34a" opacity="0.82" rx="1"/>
<line x1="826.5" y1="113.1" x2="826.5" y2="127.8" stroke="#dc2626" stroke-width="1"/><rect x="823.8" y="119.0" width="5.4" height="4.2" fill="#dc2626" opacity="0.82" rx="1"/>
<line x1="835.4" y1="83.0" x2="835.4" y2="125.3" stroke="#16a34a" stroke-width="1"/><rect x="832.6" y="89.1" width="5.4" height="34.2" fill="#16a34a" opacity="0.82" rx="1"/>
<line x1="844.2" y1="87.7" x2="844.2" y2="116.8" stroke="#dc2626" stroke-width="1"/><rect x="841.5" y="89.1" width="5.4" height="25.2" fill="#dc2626" opacity="0.82" rx="1"/>
<line x1="853.1" y1="96.2" x2="853.1" y2="116.1" stroke="#dc2626" stroke-width="1"/><rect x="850.4" y="114.3" width="5.4" height="1.2" fill="#dc2626" opacity="0.82" rx="1"/>
<line x1="862.0" y1="105.1" x2="862.0" y2="124.3" stroke="#dc2626" stroke-width="1"/><rect x="859.3" y="114.5" width="5.4" height="4.7" fill="#dc2626" opacity="0.82" rx="1"/>
<line x1="72" y1="157.6" x2="862" y2="157.6" stroke="#16a34a" stroke-width="1.8" stroke-dasharray="6 4" /><rect x="874" y="137.6" width="166" height="23" rx="5" fill="#ffffff" stroke="#16a34a" opacity="0.97"/><text x="881" y="153.6" fill="#16a34a" font-size="15" font-weight="700">日内支撑 65,817</text>
<line x1="72" y1="55.1" x2="862" y2="55.1" stroke="#dc2626" stroke-width="1.8" stroke-dasharray="6 4" /><rect x="874" y="35.1" width="166" height="23" rx="5" fill="#ffffff" stroke="#dc2626" opacity="0.97"/><text x="881" y="51.1" fill="#dc2626" font-size="15" font-weight="700">日内压力 67,383</text>
<line x1="72" y1="119.2" x2="862" y2="119.2" stroke="#111827" stroke-width="1.8" stroke-dasharray="2 2" /><rect x="874" y="99.2" width="166" height="23" rx="5" fill="#ffffff" stroke="#111827" opacity="0.97"/><text x="881" y="115.2" fill="#111827" font-size="15" font-weight="700">现价 66,404</text>
<text x="72" y="396" fill="#16a34a" font-size="14" font-weight="700">日内做多计划</text><rect x="72" y="404" width="790" height="48" rx="6" fill="#f9fafb" stroke="#e5e7eb"/><line x1="94" y1="412" x2="840" y2="412" stroke="#16a34a" stroke-width="3"/><circle cx="132.0" cy="412" r="5" fill="#16a34a"/><text x="132.0" y="434" fill="#374151" font-size="12" text-anchor="middle">入场 止跌/突破回踩</text><circle cx="451.2" cy="412" r="5" fill="#16a34a"/><text x="451.2" y="434" fill="#374151" font-size="12" text-anchor="middle">止损 65,817</text><circle cx="712.0" cy="412" r="5" fill="#16a34a"/><text x="712.0" y="434" fill="#374151" font-size="12" text-anchor="middle">目标一 67,383</text><circle cx="814.0" cy="412" r="5" fill="#16a34a"/><text x="814.0" y="434" fill="#374151" font-size="12" text-anchor="middle">目标二 67,774</text>
<text x="72" y="482" fill="#dc2626" font-size="14" font-weight="700">日内做空计划</text><rect x="72" y="490" width="790" height="48" rx="6" fill="#f9fafb" stroke="#e5e7eb"/><line x1="94" y1="498" x2="840" y2="498" stroke="#dc2626" stroke-width="3"/><circle cx="132.0" cy="498" r="5" fill="#dc2626"/><text x="132.0" y="520" fill="#374151" font-size="12" text-anchor="middle">入场 反弹承压/破位回抽</text><circle cx="451.2" cy="498" r="5" fill="#dc2626"/><text x="451.2" y="520" fill="#374151" font-size="12" text-anchor="middle">止损 67,383</text><circle cx="712.0" cy="498" r="5" fill="#dc2626"/><text x="712.0" y="520" fill="#374151" font-size="12" text-anchor="middle">目标一 65,817</text><circle cx="814.0" cy="498" r="5" fill="#dc2626"/><text x="814.0" y="520" fill="#374151" font-size="12" text-anchor="middle">目标二 65,425</text>
</svg>