<svg xmlns="http://www.w3.org/2000/svg" width="1080" height="560" viewBox="0 0 1080 560">
<rect width="100%" height="100%" fill="#ffffff"/>
<text x="72" y="23" fill="#111827" font-size="21" font-weight="800">HYPE 日线K线支撑压力图</text>
<text x="862" y="42" fill="#374151" font-size="15" text-anchor="end">最新价 75.22</text>
<line x1="72" y1="34" x2="72" y2="340" stroke="#d1d5db"/>
<line x1="72" y1="340" x2="862" y2="340" stroke="#d1d5db"/>
<line x1="72" y1="340.0" x2="862" y2="340.0" stroke="#f3f4f6"/>
<text x="8" y="345.0" fill="#4b5563" font-size="14">29.81</text>
<line x1="72" y1="263.5" x2="862" y2="263.5" stroke="#f3f4f6"/>
<text x="8" y="268.5" fill="#4b5563" font-size="14">46.54</text>
<line x1="72" y1="187.0" x2="862" y2="187.0" stroke="#f3f4f6"/>
<text x="8" y="192.0" fill="#4b5563" font-size="14">63.27</text>
<line x1="72" y1="110.5" x2="862" y2="110.5" stroke="#f3f4f6"/>
<text x="8" y="115.5" fill="#4b5563" font-size="14">80.00</text>
<line x1="72" y1="34.0" x2="862" y2="34.0" stroke="#f3f4f6"/>
<text x="8" y="39.0" fill="#4b5563" font-size="14">96.73</text>
<line x1="72.0" y1="283.0" x2="72.0" y2="299.6" stroke="#dc2626" stroke-width="1"/><rect x="69.3" y="283.7" width="5.4" height="12.7" fill="#dc2626" opacity="0.82" rx="1"/>
<line x1="80.9" y1="289.9" x2="80.9" y2="300.9" stroke="#16a34a" stroke-width="1"/><rect x="78.2" y="295.5" width="5.4" height="1.2" fill="#16a34a" opacity="0.82" rx="1"/>
<line x1="89.8" y1="291.4" x2="89.8" y2="298.5" stroke="#dc2626" stroke-width="1"/><rect x="87.0" y="295.5" width="5.4" height="1.8" fill="#dc2626" opacity="0.82" rx="1"/>
<line x1="98.6" y1="295.6" x2="98.6" y2="305.0" stroke="#dc2626" stroke-width="1"/><rect x="95.9" y="297.3" width="5.4" height="3.6" fill="#dc2626" opacity="0.82" rx="1"/>
<line x1="107.5" y1="295.4" x2="107.5" y2="308.0" stroke="#dc2626" stroke-width="1"/><rect x="104.8" y="300.9" width="5.4" height="4.5" fill="#dc2626" opacity="0.82" rx="1"/>
<line x1="116.4" y1="291.3" x2="116.4" y2="306.0" stroke="#16a34a" stroke-width="1"/><rect x="113.7" y="291.9" width="5.4" height="13.5" fill="#16a34a" opacity="0.82" rx="1"/>
<line x1="125.3" y1="286.3" x2="125.3" y2="295.0" stroke="#16a34a" stroke-width="1"/><rect x="122.5" y="291.9" width="5.4" height="1.2" fill="#16a34a" opacity="0.82" rx="1"/>
<line x1="134.1" y1="291.6" x2="134.1" y2="301.3" stroke="#dc2626" stroke-width="1"/><rect x="131.4" y="291.9" width="5.4" height="5.4" fill="#dc2626" opacity="0.82" rx="1"/>
<line x1="143.0" y1="296.1" x2="143.0" y2="303.1" stroke="#dc2626" stroke-width="1"/><rect x="140.3" y="297.3" width="5.4" height="2.3" fill="#dc2626" opacity="0.82" rx="1"/>
<line x1="151.9" y1="292.2" x2="151.9" y2="302.6" stroke="#16a34a" stroke-width="1"/><rect x="149.2" y="295.9" width="5.4" height="3.6" fill="#16a34a" opacity="0.82" rx="1"/>
<line x1="160.8" y1="293.2" x2="160.8" y2="303.8" stroke="#dc2626" stroke-width="1"/><rect x="158.0" y="295.9" width="5.4" height="7.5" fill="#dc2626" opacity="0.82" rx="1"/>
<line x1="169.6" y1="299.0" x2="169.6" y2="309.6" stroke="#dc2626" stroke-width="1"/><rect x="166.9" y="303.4" width="5.4" height="4.5" fill="#dc2626" opacity="0.82" rx="1"/>
<line x1="178.5" y1="304.3" x2="178.5" y2="313.3" stroke="#dc2626" stroke-width="1"/><rect x="175.8" y="307.9" width="5.4" height="1.2" fill="#dc2626" opacity="0.82" rx="1"/>
<line x1="187.4" y1="303.2" x2="187.4" y2="312.4" stroke="#dc2626" stroke-width="1"/><rect x="184.7" y="309.0" width="5.4" height="2.7" fill="#dc2626" opacity="0.82" rx="1"/>
<line x1="196.3" y1="310.5" x2="196.3" y2="318.9" stroke="#dc2626" stroke-width="1"/><rect x="193.5" y="311.6" width="5.4" height="3.8" fill="#dc2626" opacity="0.82" rx="1"/>
<line x1="205.1" y1="311.2" x2="205.1" y2="315.9" stroke="#16a34a" stroke-width="1"/><rect x="202.4" y="313.5" width="5.4" height="1.9" fill="#16a34a" opacity="0.82" rx="1"/>
<line x1="214.0" y1="309.2" x2="214.0" y2="314.0" stroke="#16a34a" stroke-width="1"/><rect x="211.3" y="310.0" width="5.4" height="3.5" fill="#16a34a" opacity="0.82" rx="1"/>
<line x1="222.9" y1="307.1" x2="222.9" y2="315.7" stroke="#16a34a" stroke-width="1"/><rect x="220.2" y="307.8" width="5.4" height="2.2" fill="#16a34a" opacity="0.82" rx="1"/>
<line x1="231.8" y1="303.7" x2="231.8" y2="311.9" stroke="#dc2626" stroke-width="1"/><rect x="229.1" y="307.8" width="5.4" height="2.6" fill="#dc2626" opacity="0.82" rx="1"/>
<line x1="240.7" y1="297.2" x2="240.7" y2="313.0" stroke="#16a34a" stroke-width="1"/><rect x="237.9" y="299.8" width="5.4" height="10.6" fill="#16a34a" opacity="0.82" rx="1"/>
<line x1="249.5" y1="294.3" x2="249.5" y2="303.7" stroke="#16a34a" stroke-width="1"/><rect x="246.8" y="299.1" width="5.4" height="1.2" fill="#16a34a" opacity="0.82" rx="1"/>
<line x1="258.4" y1="291.6" x2="258.4" y2="301.9" stroke="#16a34a" stroke-width="1"/><rect x="255.7" y="295.9" width="5.4" height="3.2" fill="#16a34a" opacity="0.82" rx="1"/>
<line x1="267.3" y1="283.2" x2="267.3" y2="296.0" stroke="#16a34a" stroke-width="1"/><rect x="264.6" y="286.1" width="5.4" height="9.7" fill="#16a34a" opacity="0.82" rx="1"/>
<line x1="276.2" y1="278.9" x2="276.2" y2="286.6" stroke="#16a34a" stroke-width="1"/><rect x="273.4" y="283.0" width="5.4" height="3.1" fill="#16a34a" opacity="0.82" rx="1"/>
<line x1="285.0" y1="280.5" x2="285.0" y2="292.5" stroke="#dc2626" stroke-width="1"/><rect x="282.3" y="283.0" width="5.4" height="6.5" fill="#dc2626" opacity="0.82" rx="1"/>
<line x1="293.9" y1="272.3" x2="293.9" y2="289.8" stroke="#16a34a" stroke-width="1"/><rect x="291.2" y="273.6" width="5.4" height="16.0" fill="#16a34a" opacity="0.82" rx="1"/>
<line x1="302.8" y1="269.0" x2="302.8" y2="280.0" stroke="#dc2626" stroke-width="1"/><rect x="300.1" y="273.6" width="5.4" height="3.6" fill="#dc2626" opacity="0.82" rx="1"/>
<line x1="311.7" y1="268.4" x2="311.7" y2="279.1" stroke="#16a34a" stroke-width="1"/><rect x="308.9" y="272.2" width="5.4" height="5.1" fill="#16a34a" opacity="0.82" rx="1"/>
<line x1="320.5" y1="267.0" x2="320.5" y2="278.3" stroke="#dc2626" stroke-width="1"/><rect x="317.8" y="272.2" width="5.4" height="3.8" fill="#dc2626" opacity="0.82" rx="1"/>
<line x1="329.4" y1="268.2" x2="329.4" y2="278.9" stroke="#16a34a" stroke-width="1"/><rect x="326.7" y="272.3" width="5.4" height="3.7" fill="#16a34a" opacity="0.82" rx="1"/>
<line x1="338.3" y1="268.4" x2="338.3" y2="276.4" stroke="#dc2626" stroke-width="1"/><rect x="335.6" y="272.3" width="5.4" height="3.8" fill="#dc2626" opacity="0.82" rx="1"/>
<line x1="347.2" y1="275.4" x2="347.2" y2="291.1" stroke="#dc2626" stroke-width="1"/><rect x="344.4" y="276.1" width="5.4" height="14.1" fill="#dc2626" opacity="0.82" rx="1"/>
<line x1="356.0" y1="285.2" x2="356.0" y2="290.8" stroke="#16a34a" stroke-width="1"/><rect x="353.3" y="290.2" width="5.4" height="1.2" fill="#16a34a" opacity="0.82" rx="1"/>
<line x1="364.9" y1="286.9" x2="364.9" y2="298.5" stroke="#dc2626" stroke-width="1"/><rect x="362.2" y="290.2" width="5.4" height="4.3" fill="#dc2626" opacity="0.82" rx="1"/>
<line x1="373.8" y1="285.4" x2="373.8" y2="295.1" stroke="#16a34a" stroke-width="1"/><rect x="371.1" y="288.1" width="5.4" height="6.4" fill="#16a34a" opacity="0.82" rx="1"/>
<line x1="382.7" y1="284.9" x2="382.7" y2="291.0" stroke="#16a34a" stroke-width="1"/><rect x="380.0" y="287.4" width="5.4" height="1.2" fill="#16a34a" opacity="0.82" rx="1"/>
<line x1="391.6" y1="286.4" x2="391.6" y2="290.3" stroke="#dc2626" stroke-width="1"/><rect x="388.8" y="287.4" width="5.4" height="1.2" fill="#dc2626" opacity="0.82" rx="1"/>
<line x1="400.4" y1="284.7" x2="400.4" y2="289.6" stroke="#16a34a" stroke-width="1"/><rect x="397.7" y="286.5" width="5.4" height="1.5" fill="#16a34a" opacity="0.82" rx="1"/>
<line x1="409.3" y1="281.5" x2="409.3" y2="289.1" stroke="#16a34a" stroke-width="1"/><rect x="406.6" y="282.1" width="5.4" height="4.4" fill="#16a34a" opacity="0.82" rx="1"/>
<line x1="418.2" y1="277.1" x2="418.2" y2="287.6" stroke="#dc2626" stroke-width="1"/><rect x="415.5" y="282.1" width="5.4" height="3.7" fill="#dc2626" opacity="0.82" rx="1"/>
<line x1="427.1" y1="285.0" x2="427.1" y2="296.2" stroke="#dc2626" stroke-width="1"/><rect x="424.3" y="285.9" width="5.4" height="6.8" fill="#dc2626" opacity="0.82" rx="1"/>
<line x1="435.9" y1="289.7" x2="435.9" y2="297.2" stroke="#dc2626" stroke-width="1"/><rect x="433.2" y="292.7" width="5.4" height="1.2" fill="#dc2626" opacity="0.82" rx="1"/>
<line x1="444.8" y1="291.9" x2="444.8" y2="299.3" stroke="#dc2626" stroke-width="1"/><rect x="442.1" y="293.7" width="5.4" height="1.2" fill="#dc2626" opacity="0.82" rx="1"/>
<line x1="453.7" y1="288.2" x2="453.7" y2="294.9" stroke="#16a34a" stroke-width="1"/><rect x="451.0" y="288.2" width="5.4" height="6.6" fill="#16a34a" opacity="0.82" rx="1"/>
<line x1="462.6" y1="282.2" x2="462.6" y2="288.9" stroke="#16a34a" stroke-width="1"/><rect x="459.8" y="287.7" width="5.4" height="1.2" fill="#16a34a" opacity="0.82" rx="1"/>
<line x1="471.4" y1="285.5" x2="471.4" y2="290.3" stroke="#16a34a" stroke-width="1"/><rect x="468.7" y="286.3" width="5.4" height="1.4" fill="#16a34a" opacity="0.82" rx="1"/>
<line x1="480.3" y1="281.5" x2="480.3" y2="289.7" stroke="#16a34a" stroke-width="1"/><rect x="477.6" y="285.1" width="5.4" height="1.2" fill="#16a34a" opacity="0.82" rx="1"/>
<line x1="489.2" y1="272.2" x2="489.2" y2="285.3" stroke="#16a34a" stroke-width="1"/><rect x="486.5" y="276.4" width="5.4" height="8.7" fill="#16a34a" opacity="0.82" rx="1"/>
<line x1="498.1" y1="271.6" x2="498.1" y2="280.1" stroke="#dc2626" stroke-width="1"/><rect x="495.3" y="276.4" width="5.4" height="2.7" fill="#dc2626" opacity="0.82" rx="1"/>
<line x1="506.9" y1="277.1" x2="506.9" y2="284.9" stroke="#dc2626" stroke-width="1"/><rect x="504.2" y="279.1" width="5.4" height="2.8" fill="#dc2626" opacity="0.82" rx="1"/>
<line x1="515.8" y1="277.4" x2="515.8" y2="284.1" stroke="#16a34a" stroke-width="1"/><rect x="513.1" y="278.5" width="5.4" height="3.4" fill="#16a34a" opacity="0.82" rx="1"/>
<line x1="524.7" y1="273.2" x2="524.7" y2="280.4" stroke="#dc2626" stroke-width="1"/><rect x="522.0" y="278.5" width="5.4" height="1.6" fill="#dc2626" opacity="0.82" rx="1"/>
<line x1="533.6" y1="276.5" x2="533.6" y2="283.7" stroke="#16a34a" stroke-width="1"/><rect x="530.9" y="279.6" width="5.4" height="1.2" fill="#16a34a" opacity="0.82" rx="1"/>
<line x1="542.4" y1="279.0" x2="542.4" y2="289.6" stroke="#dc2626" stroke-width="1"/><rect x="539.7" y="279.6" width="5.4" height="4.7" fill="#dc2626" opacity="0.82" rx="1"/>
<line x1="551.3" y1="284.0" x2="551.3" y2="294.4" stroke="#dc2626" stroke-width="1"/><rect x="548.6" y="284.3" width="5.4" height="8.0" fill="#dc2626" opacity="0.82" rx="1"/>
<line x1="560.2" y1="290.2" x2="560.2" y2="299.3" stroke="#dc2626" stroke-width="1"/><rect x="557.5" y="292.2" width="5.4" height="6.6" fill="#dc2626" opacity="0.82" rx="1"/>
<line x1="569.1" y1="271.6" x2="569.1" y2="301.8" stroke="#16a34a" stroke-width="1"/><rect x="566.4" y="274.5" width="5.4" height="24.3" fill="#16a34a" opacity="0.82" rx="1"/>
<line x1="578.0" y1="261.1" x2="578.0" y2="280.6" stroke="#16a34a" stroke-width="1"/><rect x="575.2" y="274.4" width="5.4" height="1.2" fill="#16a34a" opacity="0.82" rx="1"/>
<line x1="586.8" y1="272.9" x2="586.8" y2="291.7" stroke="#dc2626" stroke-width="1"/><rect x="584.1" y="274.4" width="5.4" height="10.7" fill="#dc2626" opacity="0.82" rx="1"/>
<line x1="595.7" y1="260.7" x2="595.7" y2="287.3" stroke="#16a34a" stroke-width="1"/><rect x="593.0" y="267.4" width="5.4" height="17.7" fill="#16a34a" opacity="0.82" rx="1"/>
<line x1="604.6" y1="256.8" x2="604.6" y2="274.2" stroke="#16a34a" stroke-width="1"/><rect x="601.9" y="257.9" width="5.4" height="9.5" fill="#16a34a" opacity="0.82" rx="1"/>
<line x1="613.5" y1="252.7" x2="613.5" y2="262.3" stroke="#16a34a" stroke-width="1"/><rect x="610.7" y="256.8" width="5.4" height="1.2" fill="#16a34a" opacity="0.82" rx="1"/>
<line x1="622.3" y1="225.5" x2="622.3" y2="261.0" stroke="#16a34a" stroke-width="1"/><rect x="619.6" y="225.6" width="5.4" height="31.3" fill="#16a34a" opacity="0.82" rx="1"/>
<line x1="631.2" y1="190.1" x2="631.2" y2="226.1" stroke="#16a34a" stroke-width="1"/><rect x="628.5" y="208.4" width="5.4" height="17.2" fill="#16a34a" opacity="0.82" rx="1"/>
<line x1="640.1" y1="193.0" x2="640.1" y2="228.1" stroke="#dc2626" stroke-width="1"/><rect x="637.4" y="208.5" width="5.4" height="18.3" fill="#dc2626" opacity="0.82" rx="1"/>
<line x1="649.0" y1="202.4" x2="649.0" y2="229.4" stroke="#16a34a" stroke-width="1"/><rect x="646.2" y="207.9" width="5.4" height="18.9" fill="#16a34a" opacity="0.82" rx="1"/>
<line x1="657.8" y1="181.4" x2="657.8" y2="208.3" stroke="#16a34a" stroke-width="1"/><rect x="655.1" y="189.4" width="5.4" height="18.5" fill="#16a34a" opacity="0.82" rx="1"/>
<line x1="666.7" y1="184.1" x2="666.7" y2="198.7" stroke="#dc2626" stroke-width="1"/><rect x="664.0" y="189.3" width="5.4" height="7.6" fill="#dc2626" opacity="0.82" rx="1"/>
<line x1="675.6" y1="180.3" x2="675.6" y2="208.6" stroke="#dc2626" stroke-width="1"/><rect x="672.9" y="196.9" width="5.4" height="7.3" fill="#dc2626" opacity="0.82" rx="1"/>
<line x1="684.5" y1="186.8" x2="684.5" y2="215.4" stroke="#dc2626" stroke-width="1"/><rect x="681.8" y="204.2" width="5.4" height="8.6" fill="#dc2626" opacity="0.82" rx="1"/>
<line x1="693.3" y1="192.2" x2="693.3" y2="219.1" stroke="#16a34a" stroke-width="1"/><rect x="690.6" y="195.0" width="5.4" height="17.8" fill="#16a34a" opacity="0.82" rx="1"/>
<line x1="702.2" y1="168.0" x2="702.2" y2="200.5" stroke="#16a34a" stroke-width="1"/><rect x="699.5" y="181.8" width="5.4" height="13.2" fill="#16a34a" opacity="0.82" rx="1"/>
<line x1="711.1" y1="162.4" x2="711.1" y2="183.7" stroke="#16a34a" stroke-width="1"/><rect x="708.4" y="164.0" width="5.4" height="17.8" fill="#16a34a" opacity="0.82" rx="1"/>
<line x1="720.0" y1="142.0" x2="720.0" y2="167.8" stroke="#16a34a" stroke-width="1"/><rect x="717.3" y="146.8" width="5.4" height="17.2" fill="#16a34a" opacity="0.82" rx="1"/>
<line x1="728.9" y1="129.6" x2="728.9" y2="154.3" stroke="#16a34a" stroke-width="1"/><rect x="726.1" y="139.8" width="5.4" height="6.8" fill="#16a34a" opacity="0.82" rx="1"/>
<line x1="737.7" y1="130.4" x2="737.7" y2="166.1" stroke="#dc2626" stroke-width="1"/><rect x="735.0" y="139.8" width="5.4" height="17.2" fill="#dc2626" opacity="0.82" rx="1"/>
<line x1="746.6" y1="130.6" x2="746.6" y2="164.1" stroke="#16a34a" stroke-width="1"/><rect x="743.9" y="135.3" width="5.4" height="21.7" fill="#16a34a" opacity="0.82" rx="1"/>
<line x1="755.5" y1="131.1" x2="755.5" y2="188.2" stroke="#dc2626" stroke-width="1"/><rect x="752.8" y="135.3" width="5.4" height="46.4" fill="#dc2626" opacity="0.82" rx="1"/>
<line x1="764.4" y1="174.4" x2="764.4" y2="217.1" stroke="#dc2626" stroke-width="1"/><rect x="761.6" y="181.7" width="5.4" height="21.0" fill="#dc2626" opacity="0.82" rx="1"/>
<line x1="773.2" y1="196.4" x2="773.2" y2="222.6" stroke="#dc2626" stroke-width="1"/><rect x="770.5" y="202.8" width="5.4" height="15.1" fill="#dc2626" opacity="0.82" rx="1"/>
<line x1="782.1" y1="199.9" x2="782.1" y2="219.8" stroke="#16a34a" stroke-width="1"/><rect x="779.4" y="203.1" width="5.4" height="14.7" fill="#16a34a" opacity="0.82" rx="1"/>
<line x1="791.0" y1="175.4" x2="791.0" y2="205.1" stroke="#16a34a" stroke-width="1"/><rect x="788.3" y="184.4" width="5.4" height="18.7" fill="#16a34a" opacity="0.82" rx="1"/>
<line x1="799.9" y1="183.5" x2="799.9" y2="214.3" stroke="#dc2626" stroke-width="1"/><rect x="797.1" y="184.4" width="5.4" height="27.8" fill="#dc2626" opacity="0.82" rx="1"/>
<line x1="808.7" y1="209.5" x2="808.7" y2="235.7" stroke="#dc2626" stroke-width="1"/><rect x="806.0" y="212.1" width="5.4" height="20.6" fill="#dc2626" opacity="0.82" rx="1"/>
<line x1="817.6" y1="203.6" x2="817.6" y2="234.6" stroke="#16a34a" stroke-width="1"/><rect x="814.9" y="206.8" width="5.4" height="25.8" fill="#16a34a" opacity="0.82" rx="1"/>
<line x1="826.5" y1="190.9" x2="826.5" y2="216.7" stroke="#16a34a" stroke-width="1"/><rect x="823.8" y="205.3" width="5.4" height="1.5" fill="#16a34a" opacity="0.82" rx="1"/>
<line x1="835.4" y1="197.9" x2="835.4" y2="214.9" stroke="#16a34a" stroke-width="1"/><rect x="832.6" y="198.7" width="5.4" height="6.6" fill="#16a34a" opacity="0.82" rx="1"/>
<line x1="844.2" y1="183.0" x2="844.2" y2="203.8" stroke="#16a34a" stroke-width="1"/><rect x="841.5" y="184.0" width="5.4" height="14.8" fill="#16a34a" opacity="0.82" rx="1"/>
<line x1="853.1" y1="162.2" x2="853.1" y2="187.7" stroke="#16a34a" stroke-width="1"/><rect x="850.4" y="170.5" width="5.4" height="13.5" fill="#16a34a" opacity="0.82" rx="1"/>
<line x1="862.0" y1="126.8" x2="862.0" y2="172.9" stroke="#16a34a" stroke-width="1"/><rect x="859.3" y="132.3" width="5.4" height="38.1" fill="#16a34a" opacity="0.82" rx="1"/>
<line x1="72" y1="178.7" x2="862" y2="178.7" stroke="#16a34a" stroke-width="1.8" stroke-dasharray="6 4" /><rect x="874" y="158.7" width="166" height="23" rx="5" fill="#ffffff" stroke="#16a34a" opacity="0.97"/><text x="881" y="174.7" fill="#16a34a" font-size="15" font-weight="700">支撑 65.09</text>
<line x1="72" y1="55.1" x2="862" y2="55.1" stroke="#dc2626" stroke-width="1.8" stroke-dasharray="6 4" /><rect x="874" y="35.1" width="166" height="23" rx="5" fill="#ffffff" stroke="#dc2626" opacity="0.97"/><text x="881" y="51.1" fill="#dc2626" font-size="15" font-weight="700">压力 92.12</text>
<line x1="72" y1="132.3" x2="862" y2="132.3" stroke="#111827" stroke-width="1.8" stroke-dasharray="2 2" /><rect x="874" y="112.3" width="166" height="23" rx="5" fill="#ffffff" stroke="#111827" opacity="0.97"/><text x="881" y="128.3" fill="#111827" font-size="15" font-weight="700">现价 75.22</text>
<text x="72" y="396" fill="#16a34a" font-size="14" font-weight="700">日线做多计划</text><rect x="72" y="404" width="790" height="48" rx="6" fill="#f9fafb" stroke="#e5e7eb"/><line x1="94" y1="412" x2="840" y2="412" stroke="#16a34a" stroke-width="3"/><circle cx="132.0" cy="412" r="5" fill="#16a34a"/><text x="132.0" y="434" fill="#374151" font-size="12" text-anchor="middle">入场 止跌/突破回踩</text><circle cx="451.2" cy="412" r="5" fill="#16a34a"/><text x="451.2" y="434" fill="#374151" font-size="12" text-anchor="middle">止损 65.09</text><circle cx="712.0" cy="412" r="5" fill="#16a34a"/><text x="712.0" y="434" fill="#374151" font-size="12" text-anchor="middle">目标一 92.12</text><circle cx="814.0" cy="412" r="5" fill="#16a34a"/><text x="814.0" y="434" fill="#374151" font-size="12" text-anchor="middle">目标二 102.25</text>
<text x="72" y="482" fill="#dc2626" font-size="14" font-weight="700">日线做空计划</text><rect x="72" y="490" width="790" height="48" rx="6" fill="#f9fafb" stroke="#e5e7eb"/><line x1="94" y1="498" x2="840" y2="498" stroke="#dc2626" stroke-width="3"/><circle cx="132.0" cy="498" r="5" fill="#dc2626"/><text x="132.0" y="520" fill="#374151" font-size="12" text-anchor="middle">入场 反弹承压/破位回抽</text><circle cx="451.2" cy="498" r="5" fill="#dc2626"/><text x="451.2" y="520" fill="#374151" font-size="12" text-anchor="middle">止损 92.12</text><circle cx="712.0" cy="498" r="5" fill="#dc2626"/><text x="712.0" y="520" fill="#374151" font-size="12" text-anchor="middle">目标一 65.09</text><circle cx="814.0" cy="498" r="5" fill="#dc2626"/><text x="814.0" y="520" fill="#374151" font-size="12" text-anchor="middle">目标二 58.33</text>
</svg>