<svg xmlns="http://www.w3.org/2000/svg" width="1080" height="560" viewBox="0 0 1080 560">
<rect width="100%" height="100%" fill="#ffffff"/>
<text x="72" y="23" fill="#111827" font-size="21" font-weight="800">HYPE 日线K线支撑压力图</text>
<text x="862" y="42" fill="#374151" font-size="15" text-anchor="end">最新价 73.63</text>
<line x1="72" y1="34" x2="72" y2="340" stroke="#d1d5db"/>
<line x1="72" y1="340" x2="862" y2="340" stroke="#d1d5db"/>
<line x1="72" y1="340.0" x2="862" y2="340.0" stroke="#f3f4f6"/>
<text x="8" y="345.0" fill="#4b5563" font-size="14">30.03</text>
<line x1="72" y1="263.5" x2="862" y2="263.5" stroke="#f3f4f6"/>
<text x="8" y="268.5" fill="#4b5563" font-size="14">45.96</text>
<line x1="72" y1="187.0" x2="862" y2="187.0" stroke="#f3f4f6"/>
<text x="8" y="192.0" fill="#4b5563" font-size="14">61.88</text>
<line x1="72" y1="110.5" x2="862" y2="110.5" stroke="#f3f4f6"/>
<text x="8" y="115.5" fill="#4b5563" font-size="14">77.81</text>
<line x1="72" y1="34.0" x2="862" y2="34.0" stroke="#f3f4f6"/>
<text x="8" y="39.0" fill="#4b5563" font-size="14">93.74</text>
<line x1="72.0" y1="288.4" x2="72.0" y2="300.0" stroke="#16a34a" stroke-width="1"/><rect x="69.3" y="294.3" width="5.4" height="1.2" fill="#16a34a" opacity="0.82" rx="1"/>
<line x1="80.9" y1="290.0" x2="80.9" y2="297.5" stroke="#dc2626" stroke-width="1"/><rect x="78.2" y="294.3" width="5.4" height="1.9" fill="#dc2626" opacity="0.82" rx="1"/>
<line x1="89.8" y1="294.4" x2="89.8" y2="304.3" stroke="#dc2626" stroke-width="1"/><rect x="87.0" y="296.2" width="5.4" height="3.8" fill="#dc2626" opacity="0.82" rx="1"/>
<line x1="98.6" y1="294.2" x2="98.6" y2="307.5" stroke="#dc2626" stroke-width="1"/><rect x="95.9" y="300.0" width="5.4" height="4.7" fill="#dc2626" opacity="0.82" rx="1"/>
<line x1="107.5" y1="289.9" x2="107.5" y2="305.4" stroke="#16a34a" stroke-width="1"/><rect x="104.8" y="290.6" width="5.4" height="14.2" fill="#16a34a" opacity="0.82" rx="1"/>
<line x1="116.4" y1="284.7" x2="116.4" y2="293.8" stroke="#16a34a" stroke-width="1"/><rect x="113.7" y="290.5" width="5.4" height="1.2" fill="#16a34a" opacity="0.82" rx="1"/>
<line x1="125.3" y1="290.3" x2="125.3" y2="300.4" stroke="#dc2626" stroke-width="1"/><rect x="122.5" y="290.5" width="5.4" height="5.6" fill="#dc2626" opacity="0.82" rx="1"/>
<line x1="134.1" y1="295.0" x2="134.1" y2="302.3" stroke="#dc2626" stroke-width="1"/><rect x="131.4" y="296.2" width="5.4" height="2.4" fill="#dc2626" opacity="0.82" rx="1"/>
<line x1="143.0" y1="290.9" x2="143.0" y2="301.8" stroke="#16a34a" stroke-width="1"/><rect x="140.3" y="294.7" width="5.4" height="3.8" fill="#16a34a" opacity="0.82" rx="1"/>
<line x1="151.9" y1="291.9" x2="151.9" y2="303.1" stroke="#dc2626" stroke-width="1"/><rect x="149.2" y="294.8" width="5.4" height="7.9" fill="#dc2626" opacity="0.82" rx="1"/>
<line x1="160.8" y1="298.0" x2="160.8" y2="309.2" stroke="#dc2626" stroke-width="1"/><rect x="158.0" y="302.6" width="5.4" height="4.8" fill="#dc2626" opacity="0.82" rx="1"/>
<line x1="169.6" y1="303.5" x2="169.6" y2="313.0" stroke="#dc2626" stroke-width="1"/><rect x="166.9" y="307.4" width="5.4" height="1.2" fill="#dc2626" opacity="0.82" rx="1"/>
<line x1="178.5" y1="302.4" x2="178.5" y2="312.1" stroke="#dc2626" stroke-width="1"/><rect x="175.8" y="308.5" width="5.4" height="2.8" fill="#dc2626" opacity="0.82" rx="1"/>
<line x1="187.4" y1="310.0" x2="187.4" y2="318.9" stroke="#dc2626" stroke-width="1"/><rect x="184.7" y="311.3" width="5.4" height="4.0" fill="#dc2626" opacity="0.82" rx="1"/>
<line x1="196.3" y1="310.8" x2="196.3" y2="315.8" stroke="#16a34a" stroke-width="1"/><rect x="193.5" y="313.3" width="5.4" height="2.0" fill="#16a34a" opacity="0.82" rx="1"/>
<line x1="205.1" y1="308.7" x2="205.1" y2="313.7" stroke="#16a34a" stroke-width="1"/><rect x="202.4" y="309.6" width="5.4" height="3.7" fill="#16a34a" opacity="0.82" rx="1"/>
<line x1="214.0" y1="306.5" x2="214.0" y2="315.6" stroke="#16a34a" stroke-width="1"/><rect x="211.3" y="307.2" width="5.4" height="2.4" fill="#16a34a" opacity="0.82" rx="1"/>
<line x1="222.9" y1="302.9" x2="222.9" y2="311.6" stroke="#dc2626" stroke-width="1"/><rect x="220.2" y="307.2" width="5.4" height="2.7" fill="#dc2626" opacity="0.82" rx="1"/>
<line x1="231.8" y1="296.1" x2="231.8" y2="312.7" stroke="#16a34a" stroke-width="1"/><rect x="229.1" y="298.8" width="5.4" height="11.1" fill="#16a34a" opacity="0.82" rx="1"/>
<line x1="240.7" y1="293.1" x2="240.7" y2="302.9" stroke="#16a34a" stroke-width="1"/><rect x="237.9" y="298.1" width="5.4" height="1.2" fill="#16a34a" opacity="0.82" rx="1"/>
<line x1="249.5" y1="290.2" x2="249.5" y2="301.0" stroke="#16a34a" stroke-width="1"/><rect x="246.8" y="294.7" width="5.4" height="3.4" fill="#16a34a" opacity="0.82" rx="1"/>
<line x1="258.4" y1="281.4" x2="258.4" y2="294.9" stroke="#16a34a" stroke-width="1"/><rect x="255.7" y="284.4" width="5.4" height="10.2" fill="#16a34a" opacity="0.82" rx="1"/>
<line x1="267.3" y1="276.9" x2="267.3" y2="285.0" stroke="#16a34a" stroke-width="1"/><rect x="264.6" y="281.2" width="5.4" height="3.3" fill="#16a34a" opacity="0.82" rx="1"/>
<line x1="276.2" y1="278.5" x2="276.2" y2="291.2" stroke="#dc2626" stroke-width="1"/><rect x="273.4" y="281.2" width="5.4" height="6.9" fill="#dc2626" opacity="0.82" rx="1"/>
<line x1="285.0" y1="269.9" x2="285.0" y2="288.3" stroke="#16a34a" stroke-width="1"/><rect x="282.3" y="271.3" width="5.4" height="16.8" fill="#16a34a" opacity="0.82" rx="1"/>
<line x1="293.9" y1="266.5" x2="293.9" y2="278.1" stroke="#dc2626" stroke-width="1"/><rect x="291.2" y="271.3" width="5.4" height="3.8" fill="#dc2626" opacity="0.82" rx="1"/>
<line x1="302.8" y1="265.9" x2="302.8" y2="277.1" stroke="#16a34a" stroke-width="1"/><rect x="300.1" y="269.8" width="5.4" height="5.3" fill="#16a34a" opacity="0.82" rx="1"/>
<line x1="311.7" y1="264.4" x2="311.7" y2="276.2" stroke="#dc2626" stroke-width="1"/><rect x="308.9" y="269.8" width="5.4" height="4.0" fill="#dc2626" opacity="0.82" rx="1"/>
<line x1="320.5" y1="265.7" x2="320.5" y2="276.9" stroke="#16a34a" stroke-width="1"/><rect x="317.8" y="269.9" width="5.4" height="3.9" fill="#16a34a" opacity="0.82" rx="1"/>
<line x1="329.4" y1="265.9" x2="329.4" y2="274.3" stroke="#dc2626" stroke-width="1"/><rect x="326.7" y="269.9" width="5.4" height="4.0" fill="#dc2626" opacity="0.82" rx="1"/>
<line x1="338.3" y1="273.2" x2="338.3" y2="289.7" stroke="#dc2626" stroke-width="1"/><rect x="335.6" y="274.0" width="5.4" height="14.8" fill="#dc2626" opacity="0.82" rx="1"/>
<line x1="347.2" y1="283.5" x2="347.2" y2="289.4" stroke="#16a34a" stroke-width="1"/><rect x="344.4" y="288.7" width="5.4" height="1.2" fill="#16a34a" opacity="0.82" rx="1"/>
<line x1="356.0" y1="285.2" x2="356.0" y2="297.5" stroke="#dc2626" stroke-width="1"/><rect x="353.3" y="288.7" width="5.4" height="4.5" fill="#dc2626" opacity="0.82" rx="1"/>
<line x1="364.9" y1="283.7" x2="364.9" y2="293.9" stroke="#16a34a" stroke-width="1"/><rect x="362.2" y="286.5" width="5.4" height="6.7" fill="#16a34a" opacity="0.82" rx="1"/>
<line x1="373.8" y1="283.2" x2="373.8" y2="289.6" stroke="#16a34a" stroke-width="1"/><rect x="371.1" y="285.8" width="5.4" height="1.2" fill="#16a34a" opacity="0.82" rx="1"/>
<line x1="382.7" y1="284.7" x2="382.7" y2="288.8" stroke="#dc2626" stroke-width="1"/><rect x="380.0" y="285.8" width="5.4" height="1.2" fill="#dc2626" opacity="0.82" rx="1"/>
<line x1="391.6" y1="283.0" x2="391.6" y2="288.1" stroke="#16a34a" stroke-width="1"/><rect x="388.8" y="284.9" width="5.4" height="1.6" fill="#16a34a" opacity="0.82" rx="1"/>
<line x1="400.4" y1="279.6" x2="400.4" y2="287.6" stroke="#16a34a" stroke-width="1"/><rect x="397.7" y="280.3" width="5.4" height="4.6" fill="#16a34a" opacity="0.82" rx="1"/>
<line x1="409.3" y1="275.0" x2="409.3" y2="286.0" stroke="#dc2626" stroke-width="1"/><rect x="406.6" y="280.3" width="5.4" height="3.9" fill="#dc2626" opacity="0.82" rx="1"/>
<line x1="418.2" y1="283.3" x2="418.2" y2="295.1" stroke="#dc2626" stroke-width="1"/><rect x="415.5" y="284.2" width="5.4" height="7.1" fill="#dc2626" opacity="0.82" rx="1"/>
<line x1="427.1" y1="288.3" x2="427.1" y2="296.1" stroke="#dc2626" stroke-width="1"/><rect x="424.3" y="291.3" width="5.4" height="1.2" fill="#dc2626" opacity="0.82" rx="1"/>
<line x1="435.9" y1="290.5" x2="435.9" y2="298.3" stroke="#dc2626" stroke-width="1"/><rect x="433.2" y="292.4" width="5.4" height="1.2" fill="#dc2626" opacity="0.82" rx="1"/>
<line x1="444.8" y1="286.6" x2="444.8" y2="293.7" stroke="#16a34a" stroke-width="1"/><rect x="442.1" y="286.7" width="5.4" height="6.9" fill="#16a34a" opacity="0.82" rx="1"/>
<line x1="453.7" y1="280.4" x2="453.7" y2="287.4" stroke="#16a34a" stroke-width="1"/><rect x="451.0" y="286.1" width="5.4" height="1.2" fill="#16a34a" opacity="0.82" rx="1"/>
<line x1="462.6" y1="283.8" x2="462.6" y2="288.8" stroke="#16a34a" stroke-width="1"/><rect x="459.8" y="284.7" width="5.4" height="1.4" fill="#16a34a" opacity="0.82" rx="1"/>
<line x1="471.4" y1="279.6" x2="471.4" y2="288.2" stroke="#16a34a" stroke-width="1"/><rect x="468.7" y="283.4" width="5.4" height="1.2" fill="#16a34a" opacity="0.82" rx="1"/>
<line x1="480.3" y1="269.9" x2="480.3" y2="283.6" stroke="#16a34a" stroke-width="1"/><rect x="477.6" y="274.3" width="5.4" height="9.1" fill="#16a34a" opacity="0.82" rx="1"/>
<line x1="489.2" y1="269.3" x2="489.2" y2="278.2" stroke="#dc2626" stroke-width="1"/><rect x="486.5" y="274.3" width="5.4" height="2.8" fill="#dc2626" opacity="0.82" rx="1"/>
<line x1="498.1" y1="275.0" x2="498.1" y2="283.2" stroke="#dc2626" stroke-width="1"/><rect x="495.3" y="277.1" width="5.4" height="2.9" fill="#dc2626" opacity="0.82" rx="1"/>
<line x1="506.9" y1="275.3" x2="506.9" y2="282.3" stroke="#16a34a" stroke-width="1"/><rect x="504.2" y="276.4" width="5.4" height="3.6" fill="#16a34a" opacity="0.82" rx="1"/>
<line x1="515.8" y1="270.9" x2="515.8" y2="278.5" stroke="#dc2626" stroke-width="1"/><rect x="513.1" y="276.4" width="5.4" height="1.7" fill="#dc2626" opacity="0.82" rx="1"/>
<line x1="524.7" y1="274.3" x2="524.7" y2="281.9" stroke="#16a34a" stroke-width="1"/><rect x="522.0" y="277.7" width="5.4" height="1.2" fill="#16a34a" opacity="0.82" rx="1"/>
<line x1="533.6" y1="277.0" x2="533.6" y2="288.1" stroke="#dc2626" stroke-width="1"/><rect x="530.9" y="277.6" width="5.4" height="4.9" fill="#dc2626" opacity="0.82" rx="1"/>
<line x1="542.4" y1="282.3" x2="542.4" y2="293.2" stroke="#dc2626" stroke-width="1"/><rect x="539.7" y="282.5" width="5.4" height="8.4" fill="#dc2626" opacity="0.82" rx="1"/>
<line x1="551.3" y1="288.7" x2="551.3" y2="298.3" stroke="#dc2626" stroke-width="1"/><rect x="548.6" y="290.9" width="5.4" height="6.9" fill="#dc2626" opacity="0.82" rx="1"/>
<line x1="560.2" y1="269.2" x2="560.2" y2="300.9" stroke="#16a34a" stroke-width="1"/><rect x="557.5" y="272.3" width="5.4" height="25.5" fill="#16a34a" opacity="0.82" rx="1"/>
<line x1="569.1" y1="258.2" x2="569.1" y2="278.7" stroke="#16a34a" stroke-width="1"/><rect x="566.4" y="272.1" width="5.4" height="1.2" fill="#16a34a" opacity="0.82" rx="1"/>
<line x1="578.0" y1="270.6" x2="578.0" y2="290.3" stroke="#dc2626" stroke-width="1"/><rect x="575.2" y="272.1" width="5.4" height="11.2" fill="#dc2626" opacity="0.82" rx="1"/>
<line x1="586.8" y1="257.8" x2="586.8" y2="285.7" stroke="#16a34a" stroke-width="1"/><rect x="584.1" y="264.8" width="5.4" height="18.6" fill="#16a34a" opacity="0.82" rx="1"/>
<line x1="595.7" y1="253.7" x2="595.7" y2="272.0" stroke="#16a34a" stroke-width="1"/><rect x="593.0" y="254.8" width="5.4" height="10.0" fill="#16a34a" opacity="0.82" rx="1"/>
<line x1="604.6" y1="249.4" x2="604.6" y2="259.4" stroke="#16a34a" stroke-width="1"/><rect x="601.9" y="253.6" width="5.4" height="1.2" fill="#16a34a" opacity="0.82" rx="1"/>
<line x1="613.5" y1="220.8" x2="613.5" y2="258.1" stroke="#16a34a" stroke-width="1"/><rect x="610.7" y="220.8" width="5.4" height="32.8" fill="#16a34a" opacity="0.82" rx="1"/>
<line x1="622.3" y1="183.6" x2="622.3" y2="221.4" stroke="#16a34a" stroke-width="1"/><rect x="619.6" y="202.9" width="5.4" height="18.0" fill="#16a34a" opacity="0.82" rx="1"/>
<line x1="631.2" y1="186.6" x2="631.2" y2="223.5" stroke="#dc2626" stroke-width="1"/><rect x="628.5" y="202.9" width="5.4" height="19.2" fill="#dc2626" opacity="0.82" rx="1"/>
<line x1="640.1" y1="196.5" x2="640.1" y2="224.9" stroke="#16a34a" stroke-width="1"/><rect x="637.4" y="202.3" width="5.4" height="19.8" fill="#16a34a" opacity="0.82" rx="1"/>
<line x1="649.0" y1="174.4" x2="649.0" y2="202.7" stroke="#16a34a" stroke-width="1"/><rect x="646.2" y="182.9" width="5.4" height="19.4" fill="#16a34a" opacity="0.82" rx="1"/>
<line x1="657.8" y1="177.3" x2="657.8" y2="192.6" stroke="#dc2626" stroke-width="1"/><rect x="655.1" y="182.8" width="5.4" height="8.0" fill="#dc2626" opacity="0.82" rx="1"/>
<line x1="666.7" y1="173.3" x2="666.7" y2="203.0" stroke="#dc2626" stroke-width="1"/><rect x="664.0" y="190.8" width="5.4" height="7.6" fill="#dc2626" opacity="0.82" rx="1"/>
<line x1="675.6" y1="180.1" x2="675.6" y2="210.2" stroke="#dc2626" stroke-width="1"/><rect x="672.9" y="198.4" width="5.4" height="9.1" fill="#dc2626" opacity="0.82" rx="1"/>
<line x1="684.5" y1="185.8" x2="684.5" y2="214.1" stroke="#16a34a" stroke-width="1"/><rect x="681.8" y="188.7" width="5.4" height="18.7" fill="#16a34a" opacity="0.82" rx="1"/>
<line x1="693.3" y1="160.4" x2="693.3" y2="194.5" stroke="#16a34a" stroke-width="1"/><rect x="690.6" y="174.9" width="5.4" height="13.9" fill="#16a34a" opacity="0.82" rx="1"/>
<line x1="702.2" y1="154.5" x2="702.2" y2="176.8" stroke="#16a34a" stroke-width="1"/><rect x="699.5" y="156.2" width="5.4" height="18.7" fill="#16a34a" opacity="0.82" rx="1"/>
<line x1="711.1" y1="133.1" x2="711.1" y2="160.2" stroke="#16a34a" stroke-width="1"/><rect x="708.4" y="138.2" width="5.4" height="18.0" fill="#16a34a" opacity="0.82" rx="1"/>
<line x1="720.0" y1="120.0" x2="720.0" y2="146.0" stroke="#16a34a" stroke-width="1"/><rect x="717.3" y="130.8" width="5.4" height="7.1" fill="#16a34a" opacity="0.82" rx="1"/>
<line x1="728.9" y1="120.9" x2="728.9" y2="158.4" stroke="#dc2626" stroke-width="1"/><rect x="726.1" y="130.8" width="5.4" height="18.0" fill="#dc2626" opacity="0.82" rx="1"/>
<line x1="737.7" y1="121.1" x2="737.7" y2="156.3" stroke="#16a34a" stroke-width="1"/><rect x="735.0" y="126.1" width="5.4" height="22.8" fill="#16a34a" opacity="0.82" rx="1"/>
<line x1="746.6" y1="121.6" x2="746.6" y2="181.6" stroke="#dc2626" stroke-width="1"/><rect x="743.9" y="126.0" width="5.4" height="48.7" fill="#dc2626" opacity="0.82" rx="1"/>
<line x1="755.5" y1="167.1" x2="755.5" y2="211.9" stroke="#dc2626" stroke-width="1"/><rect x="752.8" y="174.8" width="5.4" height="22.1" fill="#dc2626" opacity="0.82" rx="1"/>
<line x1="764.4" y1="190.2" x2="764.4" y2="217.8" stroke="#dc2626" stroke-width="1"/><rect x="761.6" y="197.0" width="5.4" height="15.8" fill="#dc2626" opacity="0.82" rx="1"/>
<line x1="773.2" y1="193.9" x2="773.2" y2="214.8" stroke="#16a34a" stroke-width="1"/><rect x="770.5" y="197.3" width="5.4" height="15.5" fill="#16a34a" opacity="0.82" rx="1"/>
<line x1="782.1" y1="168.2" x2="782.1" y2="199.4" stroke="#16a34a" stroke-width="1"/><rect x="779.4" y="177.6" width="5.4" height="19.6" fill="#16a34a" opacity="0.82" rx="1"/>
<line x1="791.0" y1="176.6" x2="791.0" y2="209.0" stroke="#dc2626" stroke-width="1"/><rect x="788.3" y="177.6" width="5.4" height="29.2" fill="#dc2626" opacity="0.82" rx="1"/>
<line x1="799.9" y1="204.0" x2="799.9" y2="231.5" stroke="#dc2626" stroke-width="1"/><rect x="797.1" y="206.7" width="5.4" height="21.6" fill="#dc2626" opacity="0.82" rx="1"/>
<line x1="808.7" y1="197.8" x2="808.7" y2="230.4" stroke="#16a34a" stroke-width="1"/><rect x="806.0" y="201.2" width="5.4" height="27.1" fill="#16a34a" opacity="0.82" rx="1"/>
<line x1="817.6" y1="184.4" x2="817.6" y2="211.5" stroke="#16a34a" stroke-width="1"/><rect x="814.9" y="199.6" width="5.4" height="1.6" fill="#16a34a" opacity="0.82" rx="1"/>
<line x1="826.5" y1="191.8" x2="826.5" y2="209.6" stroke="#16a34a" stroke-width="1"/><rect x="823.8" y="192.7" width="5.4" height="6.9" fill="#16a34a" opacity="0.82" rx="1"/>
<line x1="835.4" y1="176.2" x2="835.4" y2="198.0" stroke="#16a34a" stroke-width="1"/><rect x="832.6" y="177.2" width="5.4" height="15.5" fill="#16a34a" opacity="0.82" rx="1"/>
<line x1="844.2" y1="154.3" x2="844.2" y2="181.1" stroke="#16a34a" stroke-width="1"/><rect x="841.5" y="163.0" width="5.4" height="14.2" fill="#16a34a" opacity="0.82" rx="1"/>
<line x1="853.1" y1="114.4" x2="853.1" y2="165.5" stroke="#16a34a" stroke-width="1"/><rect x="850.4" y="130.8" width="5.4" height="32.1" fill="#16a34a" opacity="0.82" rx="1"/>
<line x1="862.0" y1="130.1" x2="862.0" y2="130.9" stroke="#16a34a" stroke-width="1"/><rect x="859.3" y="130.6" width="5.4" height="1.2" fill="#16a34a" opacity="0.82" rx="1"/>
<line x1="72" y1="175.8" x2="862" y2="175.8" stroke="#16a34a" stroke-width="1.8" stroke-dasharray="6 4" /><rect x="874" y="155.8" width="166" height="23" rx="5" fill="#ffffff" stroke="#16a34a" opacity="0.97"/><text x="881" y="171.8" fill="#16a34a" font-size="15" font-weight="700">支撑 64.21</text>
<line x1="72" y1="55.1" x2="862" y2="55.1" stroke="#dc2626" stroke-width="1.8" stroke-dasharray="6 4" /><rect x="874" y="35.1" width="166" height="23" rx="5" fill="#ffffff" stroke="#dc2626" opacity="0.97"/><text x="881" y="51.1" fill="#dc2626" font-size="15" font-weight="700">压力 89.34</text>
<line x1="72" y1="130.6" x2="862" y2="130.6" stroke="#111827" stroke-width="1.8" stroke-dasharray="2 2" /><rect x="874" y="110.6" width="166" height="23" rx="5" fill="#ffffff" stroke="#111827" opacity="0.97"/><text x="881" y="126.6" fill="#111827" font-size="15" font-weight="700">现价 73.63</text>
<text x="72" y="396" fill="#16a34a" font-size="14" font-weight="700">日线做多计划</text><rect x="72" y="404" width="790" height="48" rx="6" fill="#f9fafb" stroke="#e5e7eb"/><line x1="94" y1="412" x2="840" y2="412" stroke="#16a34a" stroke-width="3"/><circle cx="132.0" cy="412" r="5" fill="#16a34a"/><text x="132.0" y="434" fill="#374151" font-size="12" text-anchor="middle">入场 止跌/突破回踩</text><circle cx="451.2" cy="412" r="5" fill="#16a34a"/><text x="451.2" y="434" fill="#374151" font-size="12" text-anchor="middle">止损 64.21</text><circle cx="712.0" cy="412" r="5" fill="#16a34a"/><text x="712.0" y="434" fill="#374151" font-size="12" text-anchor="middle">目标一 89.34</text><circle cx="814.0" cy="412" r="5" fill="#16a34a"/><text x="814.0" y="434" fill="#374151" font-size="12" text-anchor="middle">目标二 98.77</text>
<text x="72" y="482" fill="#dc2626" font-size="14" font-weight="700">日线做空计划</text><rect x="72" y="490" width="790" height="48" rx="6" fill="#f9fafb" stroke="#e5e7eb"/><line x1="94" y1="498" x2="840" y2="498" stroke="#dc2626" stroke-width="3"/><circle cx="132.0" cy="498" r="5" fill="#dc2626"/><text x="132.0" y="520" fill="#374151" font-size="12" text-anchor="middle">入场 反弹承压/破位回抽</text><circle cx="451.2" cy="498" r="5" fill="#dc2626"/><text x="451.2" y="520" fill="#374151" font-size="12" text-anchor="middle">止损 89.34</text><circle cx="712.0" cy="498" r="5" fill="#dc2626"/><text x="712.0" y="520" fill="#374151" font-size="12" text-anchor="middle">目标一 64.21</text><circle cx="814.0" cy="498" r="5" fill="#dc2626"/><text x="814.0" y="520" fill="#374151" font-size="12" text-anchor="middle">目标二 57.92</text>
</svg>