<svg xmlns="http://www.w3.org/2000/svg" width="1080" height="560" viewBox="0 0 1080 560">
<rect width="100%" height="100%" fill="#ffffff"/>
<text x="72" y="23" fill="#111827" font-size="21" font-weight="800">BTC 小时线K线支撑压力图</text>
<text x="862" y="42" fill="#374151" font-size="15" text-anchor="end">最新价 65,702</text>
<line x1="72" y1="34" x2="72" y2="340" stroke="#d1d5db"/>
<line x1="72" y1="340" x2="862" y2="340" stroke="#d1d5db"/>
<line x1="72" y1="340.0" x2="862" y2="340.0" stroke="#f3f4f6"/>
<text x="8" y="345.0" fill="#4b5563" font-size="14">63,348</text>
<line x1="72" y1="263.5" x2="862" y2="263.5" stroke="#f3f4f6"/>
<text x="8" y="268.5" fill="#4b5563" font-size="14">64,397</text>
<line x1="72" y1="187.0" x2="862" y2="187.0" stroke="#f3f4f6"/>
<text x="8" y="192.0" fill="#4b5563" font-size="14">65,446</text>
<line x1="72" y1="110.5" x2="862" y2="110.5" stroke="#f3f4f6"/>
<text x="8" y="115.5" fill="#4b5563" font-size="14">66,496</text>
<line x1="72" y1="34.0" x2="862" y2="34.0" stroke="#f3f4f6"/>
<text x="8" y="39.0" fill="#4b5563" font-size="14">67,545</text>
<line x1="72.0" y1="301.3" x2="72.0" y2="318.9" stroke="#16a34a" stroke-width="1"/><rect x="69.3" y="305.3" width="5.4" height="8.5" fill="#16a34a" opacity="0.82" rx="1"/>
<line x1="80.9" y1="300.0" x2="80.9" y2="312.1" stroke="#dc2626" stroke-width="1"/><rect x="78.2" y="305.3" width="5.4" height="3.8" fill="#dc2626" opacity="0.82" rx="1"/>
<line x1="89.8" y1="304.6" x2="89.8" y2="313.7" stroke="#dc2626" stroke-width="1"/><rect x="87.0" y="309.1" width="5.4" height="4.5" fill="#dc2626" opacity="0.82" rx="1"/>
<line x1="98.6" y1="301.0" x2="98.6" y2="315.5" stroke="#16a34a" stroke-width="1"/><rect x="95.9" y="306.1" width="5.4" height="7.5" fill="#16a34a" opacity="0.82" rx="1"/>
<line x1="107.5" y1="296.1" x2="107.5" y2="306.3" stroke="#16a34a" stroke-width="1"/><rect x="104.8" y="297.1" width="5.4" height="9.0" fill="#16a34a" opacity="0.82" rx="1"/>
<line x1="116.4" y1="278.8" x2="116.4" y2="301.0" stroke="#16a34a" stroke-width="1"/><rect x="113.7" y="284.9" width="5.4" height="12.2" fill="#16a34a" opacity="0.82" rx="1"/>
<line x1="125.3" y1="276.6" x2="125.3" y2="290.5" stroke="#dc2626" stroke-width="1"/><rect x="122.5" y="284.9" width="5.4" height="2.3" fill="#dc2626" opacity="0.82" rx="1"/>
<line x1="134.1" y1="277.2" x2="134.1" y2="288.6" stroke="#16a34a" stroke-width="1"/><rect x="131.4" y="278.6" width="5.4" height="8.7" fill="#16a34a" opacity="0.82" rx="1"/>
<line x1="143.0" y1="268.9" x2="143.0" y2="281.7" stroke="#16a34a" stroke-width="1"/><rect x="140.3" y="273.1" width="5.4" height="5.5" fill="#16a34a" opacity="0.82" rx="1"/>
<line x1="151.9" y1="272.0" x2="151.9" y2="302.4" stroke="#dc2626" stroke-width="1"/><rect x="149.2" y="273.1" width="5.4" height="19.6" fill="#dc2626" opacity="0.82" rx="1"/>
<line x1="160.8" y1="285.9" x2="160.8" y2="299.6" stroke="#dc2626" stroke-width="1"/><rect x="158.0" y="292.7" width="5.4" height="4.1" fill="#dc2626" opacity="0.82" rx="1"/>
<line x1="169.6" y1="274.4" x2="169.6" y2="296.8" stroke="#16a34a" stroke-width="1"/><rect x="166.9" y="283.5" width="5.4" height="13.3" fill="#16a34a" opacity="0.82" rx="1"/>
<line x1="178.5" y1="270.7" x2="178.5" y2="284.3" stroke="#16a34a" stroke-width="1"/><rect x="175.8" y="273.2" width="5.4" height="10.3" fill="#16a34a" opacity="0.82" rx="1"/>
<line x1="187.4" y1="273.2" x2="187.4" y2="278.2" stroke="#dc2626" stroke-width="1"/><rect x="184.7" y="273.2" width="5.4" height="1.2" fill="#dc2626" opacity="0.82" rx="1"/>
<line x1="196.3" y1="238.6" x2="196.3" y2="278.6" stroke="#16a34a" stroke-width="1"/><rect x="193.5" y="260.7" width="5.4" height="13.3" fill="#16a34a" opacity="0.82" rx="1"/>
<line x1="205.1" y1="253.9" x2="205.1" y2="267.0" stroke="#dc2626" stroke-width="1"/><rect x="202.4" y="260.7" width="5.4" height="1.6" fill="#dc2626" opacity="0.82" rx="1"/>
<line x1="214.0" y1="250.7" x2="214.0" y2="266.9" stroke="#16a34a" stroke-width="1"/><rect x="211.3" y="262.0" width="5.4" height="1.2" fill="#16a34a" opacity="0.82" rx="1"/>
<line x1="222.9" y1="252.4" x2="222.9" y2="267.7" stroke="#16a34a" stroke-width="1"/><rect x="220.2" y="254.6" width="5.4" height="7.4" fill="#16a34a" opacity="0.82" rx="1"/>
<line x1="231.8" y1="242.7" x2="231.8" y2="258.4" stroke="#16a34a" stroke-width="1"/><rect x="229.1" y="253.5" width="5.4" height="1.2" fill="#16a34a" opacity="0.82" rx="1"/>
<line x1="240.7" y1="248.2" x2="240.7" y2="260.6" stroke="#dc2626" stroke-width="1"/><rect x="237.9" y="253.5" width="5.4" height="6.1" fill="#dc2626" opacity="0.82" rx="1"/>
<line x1="249.5" y1="254.6" x2="249.5" y2="261.7" stroke="#16a34a" stroke-width="1"/><rect x="246.8" y="254.9" width="5.4" height="4.7" fill="#16a34a" opacity="0.82" rx="1"/>
<line x1="258.4" y1="253.6" x2="258.4" y2="272.0" stroke="#dc2626" stroke-width="1"/><rect x="255.7" y="254.9" width="5.4" height="15.7" fill="#dc2626" opacity="0.82" rx="1"/>
<line x1="267.3" y1="264.8" x2="267.3" y2="273.5" stroke="#16a34a" stroke-width="1"/><rect x="264.6" y="269.2" width="5.4" height="1.3" fill="#16a34a" opacity="0.82" rx="1"/>
<line x1="276.2" y1="259.6" x2="276.2" y2="277.2" stroke="#dc2626" stroke-width="1"/><rect x="273.4" y="269.2" width="5.4" height="4.4" fill="#dc2626" opacity="0.82" rx="1"/>
<line x1="285.0" y1="262.4" x2="285.0" y2="278.8" stroke="#16a34a" stroke-width="1"/><rect x="282.3" y="263.9" width="5.4" height="9.8" fill="#16a34a" opacity="0.82" rx="1"/>
<line x1="293.9" y1="256.9" x2="293.9" y2="266.7" stroke="#16a34a" stroke-width="1"/><rect x="291.2" y="261.6" width="5.4" height="2.3" fill="#16a34a" opacity="0.82" rx="1"/>
<line x1="302.8" y1="249.2" x2="302.8" y2="271.9" stroke="#16a34a" stroke-width="1"/><rect x="300.1" y="249.8" width="5.4" height="11.8" fill="#16a34a" opacity="0.82" rx="1"/>
<line x1="311.7" y1="245.7" x2="311.7" y2="259.4" stroke="#dc2626" stroke-width="1"/><rect x="308.9" y="249.8" width="5.4" height="7.2" fill="#dc2626" opacity="0.82" rx="1"/>
<line x1="320.5" y1="247.6" x2="320.5" y2="261.9" stroke="#16a34a" stroke-width="1"/><rect x="317.8" y="255.1" width="5.4" height="1.9" fill="#16a34a" opacity="0.82" rx="1"/>
<line x1="329.4" y1="253.7" x2="329.4" y2="273.8" stroke="#dc2626" stroke-width="1"/><rect x="326.7" y="255.1" width="5.4" height="15.7" fill="#dc2626" opacity="0.82" rx="1"/>
<line x1="338.3" y1="265.5" x2="338.3" y2="277.3" stroke="#dc2626" stroke-width="1"/><rect x="335.6" y="270.8" width="5.4" height="1.2" fill="#dc2626" opacity="0.82" rx="1"/>
<line x1="347.2" y1="269.6" x2="347.2" y2="304.8" stroke="#dc2626" stroke-width="1"/><rect x="344.4" y="271.5" width="5.4" height="24.3" fill="#dc2626" opacity="0.82" rx="1"/>
<line x1="356.0" y1="283.4" x2="356.0" y2="296.4" stroke="#16a34a" stroke-width="1"/><rect x="353.3" y="292.8" width="5.4" height="3.0" fill="#16a34a" opacity="0.82" rx="1"/>
<line x1="364.9" y1="279.1" x2="364.9" y2="299.6" stroke="#dc2626" stroke-width="1"/><rect x="362.2" y="292.8" width="5.4" height="5.9" fill="#dc2626" opacity="0.82" rx="1"/>
<line x1="373.8" y1="292.4" x2="373.8" y2="318.0" stroke="#dc2626" stroke-width="1"/><rect x="371.1" y="298.7" width="5.4" height="15.1" fill="#dc2626" opacity="0.82" rx="1"/>
<line x1="382.7" y1="307.6" x2="382.7" y2="317.9" stroke="#16a34a" stroke-width="1"/><rect x="380.0" y="308.2" width="5.4" height="5.7" fill="#16a34a" opacity="0.82" rx="1"/>
<line x1="391.6" y1="304.8" x2="391.6" y2="314.2" stroke="#dc2626" stroke-width="1"/><rect x="388.8" y="308.2" width="5.4" height="1.2" fill="#dc2626" opacity="0.82" rx="1"/>
<line x1="400.4" y1="287.3" x2="400.4" y2="309.8" stroke="#16a34a" stroke-width="1"/><rect x="397.7" y="294.0" width="5.4" height="14.6" fill="#16a34a" opacity="0.82" rx="1"/>
<line x1="409.3" y1="172.0" x2="409.3" y2="294.4" stroke="#16a34a" stroke-width="1"/><rect x="406.6" y="198.8" width="5.4" height="95.2" fill="#16a34a" opacity="0.82" rx="1"/>
<line x1="418.2" y1="179.1" x2="418.2" y2="225.5" stroke="#16a34a" stroke-width="1"/><rect x="415.5" y="191.2" width="5.4" height="7.6" fill="#16a34a" opacity="0.82" rx="1"/>
<line x1="427.1" y1="163.0" x2="427.1" y2="203.7" stroke="#16a34a" stroke-width="1"/><rect x="424.3" y="168.3" width="5.4" height="22.8" fill="#16a34a" opacity="0.82" rx="1"/>
<line x1="435.9" y1="155.4" x2="435.9" y2="187.2" stroke="#dc2626" stroke-width="1"/><rect x="433.2" y="168.3" width="5.4" height="8.1" fill="#dc2626" opacity="0.82" rx="1"/>
<line x1="444.8" y1="168.1" x2="444.8" y2="196.6" stroke="#dc2626" stroke-width="1"/><rect x="442.1" y="176.4" width="5.4" height="7.9" fill="#dc2626" opacity="0.82" rx="1"/>
<line x1="453.7" y1="164.9" x2="453.7" y2="191.6" stroke="#dc2626" stroke-width="1"/><rect x="451.0" y="184.3" width="5.4" height="3.9" fill="#dc2626" opacity="0.82" rx="1"/>
<line x1="462.6" y1="146.9" x2="462.6" y2="190.9" stroke="#16a34a" stroke-width="1"/><rect x="459.8" y="154.3" width="5.4" height="33.9" fill="#16a34a" opacity="0.82" rx="1"/>
<line x1="471.4" y1="154.3" x2="471.4" y2="175.7" stroke="#dc2626" stroke-width="1"/><rect x="468.7" y="154.3" width="5.4" height="20.6" fill="#dc2626" opacity="0.82" rx="1"/>
<line x1="480.3" y1="158.0" x2="480.3" y2="177.4" stroke="#16a34a" stroke-width="1"/><rect x="477.6" y="159.2" width="5.4" height="15.7" fill="#16a34a" opacity="0.82" rx="1"/>
<line x1="489.2" y1="151.5" x2="489.2" y2="167.3" stroke="#dc2626" stroke-width="1"/><rect x="486.5" y="159.2" width="5.4" height="4.0" fill="#dc2626" opacity="0.82" rx="1"/>
<line x1="498.1" y1="148.2" x2="498.1" y2="177.2" stroke="#dc2626" stroke-width="1"/><rect x="495.3" y="163.2" width="5.4" height="9.5" fill="#dc2626" opacity="0.82" rx="1"/>
<line x1="506.9" y1="163.5" x2="506.9" y2="177.2" stroke="#dc2626" stroke-width="1"/><rect x="504.2" y="172.7" width="5.4" height="1.6" fill="#dc2626" opacity="0.82" rx="1"/>
<line x1="515.8" y1="165.6" x2="515.8" y2="185.3" stroke="#dc2626" stroke-width="1"/><rect x="513.1" y="174.3" width="5.4" height="4.4" fill="#dc2626" opacity="0.82" rx="1"/>
<line x1="524.7" y1="151.4" x2="524.7" y2="179.8" stroke="#16a34a" stroke-width="1"/><rect x="522.0" y="155.0" width="5.4" height="23.7" fill="#16a34a" opacity="0.82" rx="1"/>
<line x1="533.6" y1="121.4" x2="533.6" y2="160.7" stroke="#16a34a" stroke-width="1"/><rect x="530.9" y="132.6" width="5.4" height="22.4" fill="#16a34a" opacity="0.82" rx="1"/>
<line x1="542.4" y1="105.1" x2="542.4" y2="142.5" stroke="#16a34a" stroke-width="1"/><rect x="539.7" y="108.1" width="5.4" height="24.5" fill="#16a34a" opacity="0.82" rx="1"/>
<line x1="551.3" y1="79.9" x2="551.3" y2="119.3" stroke="#dc2626" stroke-width="1"/><rect x="548.6" y="108.1" width="5.4" height="8.6" fill="#dc2626" opacity="0.82" rx="1"/>
<line x1="560.2" y1="99.5" x2="560.2" y2="127.3" stroke="#16a34a" stroke-width="1"/><rect x="557.5" y="106.4" width="5.4" height="10.3" fill="#16a34a" opacity="0.82" rx="1"/>
<line x1="569.1" y1="55.1" x2="569.1" y2="107.2" stroke="#16a34a" stroke-width="1"/><rect x="566.4" y="55.6" width="5.4" height="50.7" fill="#16a34a" opacity="0.82" rx="1"/>
<line x1="578.0" y1="55.2" x2="578.0" y2="70.0" stroke="#dc2626" stroke-width="1"/><rect x="575.2" y="55.6" width="5.4" height="9.2" fill="#dc2626" opacity="0.82" rx="1"/>
<line x1="586.8" y1="64.8" x2="586.8" y2="100.3" stroke="#dc2626" stroke-width="1"/><rect x="584.1" y="64.8" width="5.4" height="22.0" fill="#dc2626" opacity="0.82" rx="1"/>
<line x1="595.7" y1="81.0" x2="595.7" y2="97.2" stroke="#dc2626" stroke-width="1"/><rect x="593.0" y="86.8" width="5.4" height="6.9" fill="#dc2626" opacity="0.82" rx="1"/>
<line x1="604.6" y1="84.2" x2="604.6" y2="124.6" stroke="#dc2626" stroke-width="1"/><rect x="601.9" y="93.7" width="5.4" height="10.7" fill="#dc2626" opacity="0.82" rx="1"/>
<line x1="613.5" y1="98.6" x2="613.5" y2="114.2" stroke="#dc2626" stroke-width="1"/><rect x="610.7" y="104.4" width="5.4" height="6.5" fill="#dc2626" opacity="0.82" rx="1"/>
<line x1="622.3" y1="107.6" x2="622.3" y2="125.9" stroke="#dc2626" stroke-width="1"/><rect x="619.6" y="110.9" width="5.4" height="11.1" fill="#dc2626" opacity="0.82" rx="1"/>
<line x1="631.2" y1="114.1" x2="631.2" y2="141.9" stroke="#dc2626" stroke-width="1"/><rect x="628.5" y="122.1" width="5.4" height="12.2" fill="#dc2626" opacity="0.82" rx="1"/>
<line x1="640.1" y1="122.2" x2="640.1" y2="140.3" stroke="#16a34a" stroke-width="1"/><rect x="637.4" y="125.8" width="5.4" height="8.4" fill="#16a34a" opacity="0.82" rx="1"/>
<line x1="649.0" y1="115.5" x2="649.0" y2="132.3" stroke="#dc2626" stroke-width="1"/><rect x="646.2" y="125.8" width="5.4" height="5.0" fill="#dc2626" opacity="0.82" rx="1"/>
<line x1="657.8" y1="118.3" x2="657.8" y2="131.6" stroke="#16a34a" stroke-width="1"/><rect x="655.1" y="124.0" width="5.4" height="6.8" fill="#16a34a" opacity="0.82" rx="1"/>
<line x1="666.7" y1="122.4" x2="666.7" y2="171.8" stroke="#dc2626" stroke-width="1"/><rect x="664.0" y="124.0" width="5.4" height="43.4" fill="#dc2626" opacity="0.82" rx="1"/>
<line x1="675.6" y1="136.0" x2="675.6" y2="175.3" stroke="#16a34a" stroke-width="1"/><rect x="672.9" y="137.5" width="5.4" height="30.0" fill="#16a34a" opacity="0.82" rx="1"/>
<line x1="684.5" y1="128.2" x2="684.5" y2="163.5" stroke="#dc2626" stroke-width="1"/><rect x="681.8" y="137.5" width="5.4" height="22.9" fill="#dc2626" opacity="0.82" rx="1"/>
<line x1="693.3" y1="137.9" x2="693.3" y2="160.4" stroke="#16a34a" stroke-width="1"/><rect x="690.6" y="144.6" width="5.4" height="15.8" fill="#16a34a" opacity="0.82" rx="1"/>
<line x1="702.2" y1="107.0" x2="702.2" y2="144.8" stroke="#16a34a" stroke-width="1"/><rect x="699.5" y="117.0" width="5.4" height="27.6" fill="#16a34a" opacity="0.82" rx="1"/>
<line x1="711.1" y1="110.4" x2="711.1" y2="126.8" stroke="#dc2626" stroke-width="1"/><rect x="708.4" y="117.0" width="5.4" height="4.7" fill="#dc2626" opacity="0.82" rx="1"/>
<line x1="720.0" y1="76.9" x2="720.0" y2="124.0" stroke="#16a34a" stroke-width="1"/><rect x="717.3" y="83.6" width="5.4" height="38.1" fill="#16a34a" opacity="0.82" rx="1"/>
<line x1="728.9" y1="82.1" x2="728.9" y2="114.5" stroke="#dc2626" stroke-width="1"/><rect x="726.1" y="83.6" width="5.4" height="28.1" fill="#dc2626" opacity="0.82" rx="1"/>
<line x1="737.7" y1="91.5" x2="737.7" y2="113.7" stroke="#dc2626" stroke-width="1"/><rect x="735.0" y="111.7" width="5.4" height="1.2" fill="#dc2626" opacity="0.82" rx="1"/>
<line x1="746.6" y1="101.5" x2="746.6" y2="122.9" stroke="#dc2626" stroke-width="1"/><rect x="743.9" y="111.9" width="5.4" height="1.5" fill="#dc2626" opacity="0.82" rx="1"/>
<line x1="755.5" y1="89.2" x2="755.5" y2="122.9" stroke="#dc2626" stroke-width="1"/><rect x="752.8" y="113.4" width="5.4" height="4.8" fill="#dc2626" opacity="0.82" rx="1"/>
<line x1="764.4" y1="114.9" x2="764.4" y2="154.4" stroke="#dc2626" stroke-width="1"/><rect x="761.6" y="118.2" width="5.4" height="27.5" fill="#dc2626" opacity="0.82" rx="1"/>
<line x1="773.2" y1="129.2" x2="773.2" y2="195.6" stroke="#dc2626" stroke-width="1"/><rect x="770.5" y="145.7" width="5.4" height="27.9" fill="#dc2626" opacity="0.82" rx="1"/>
<line x1="782.1" y1="148.0" x2="782.1" y2="177.2" stroke="#16a34a" stroke-width="1"/><rect x="779.4" y="158.2" width="5.4" height="15.4" fill="#16a34a" opacity="0.82" rx="1"/>
<line x1="791.0" y1="151.6" x2="791.0" y2="170.3" stroke="#dc2626" stroke-width="1"/><rect x="788.3" y="158.2" width="5.4" height="8.1" fill="#dc2626" opacity="0.82" rx="1"/>
<line x1="799.9" y1="147.2" x2="799.9" y2="170.2" stroke="#16a34a" stroke-width="1"/><rect x="797.1" y="150.6" width="5.4" height="15.7" fill="#16a34a" opacity="0.82" rx="1"/>
<line x1="808.7" y1="128.7" x2="808.7" y2="163.6" stroke="#dc2626" stroke-width="1"/><rect x="806.0" y="150.6" width="5.4" height="9.0" fill="#dc2626" opacity="0.82" rx="1"/>
<line x1="817.6" y1="159.6" x2="817.6" y2="181.0" stroke="#dc2626" stroke-width="1"/><rect x="814.9" y="159.6" width="5.4" height="12.3" fill="#dc2626" opacity="0.82" rx="1"/>
<line x1="826.5" y1="158.8" x2="826.5" y2="178.6" stroke="#16a34a" stroke-width="1"/><rect x="823.8" y="159.5" width="5.4" height="12.5" fill="#16a34a" opacity="0.82" rx="1"/>
<line x1="835.4" y1="153.3" x2="835.4" y2="175.1" stroke="#dc2626" stroke-width="1"/><rect x="832.6" y="159.5" width="5.4" height="6.0" fill="#dc2626" opacity="0.82" rx="1"/>
<line x1="844.2" y1="157.2" x2="844.2" y2="172.5" stroke="#16a34a" stroke-width="1"/><rect x="841.5" y="165.2" width="5.4" height="1.2" fill="#16a34a" opacity="0.82" rx="1"/>
<line x1="853.1" y1="160.8" x2="853.1" y2="177.2" stroke="#dc2626" stroke-width="1"/><rect x="850.4" y="165.2" width="5.4" height="7.3" fill="#dc2626" opacity="0.82" rx="1"/>
<line x1="862.0" y1="168.0" x2="862.0" y2="172.5" stroke="#16a34a" stroke-width="1"/><rect x="859.3" y="168.4" width="5.4" height="4.2" fill="#16a34a" opacity="0.82" rx="1"/>
<line x1="72" y1="207.6" x2="862" y2="207.6" stroke="#16a34a" stroke-width="1.8" stroke-dasharray="6 4" /><rect x="874" y="187.6" width="166" height="23" rx="5" fill="#ffffff" stroke="#16a34a" opacity="0.97"/><text x="881" y="203.6" fill="#16a34a" font-size="15" font-weight="700">日内支撑 65,164</text>
<line x1="72" y1="103.0" x2="862" y2="103.0" stroke="#dc2626" stroke-width="1.8" stroke-dasharray="6 4" /><rect x="874" y="83.0" width="166" height="23" rx="5" fill="#ffffff" stroke="#dc2626" opacity="0.97"/><text x="881" y="99.0" fill="#dc2626" font-size="15" font-weight="700">日内压力 66,599</text>
<line x1="72" y1="168.4" x2="862" y2="168.4" stroke="#111827" stroke-width="1.8" stroke-dasharray="2 2" /><rect x="874" y="148.4" width="166" height="23" rx="5" fill="#ffffff" stroke="#111827" opacity="0.97"/><text x="881" y="164.4" fill="#111827" font-size="15" font-weight="700">现价 65,702</text>
<text x="72" y="396" fill="#16a34a" font-size="14" font-weight="700">日内做多计划</text><rect x="72" y="404" width="790" height="48" rx="6" fill="#f9fafb" stroke="#e5e7eb"/><line x1="94" y1="412" x2="840" y2="412" stroke="#16a34a" stroke-width="3"/><circle cx="132.0" cy="412" r="5" fill="#16a34a"/><text x="132.0" y="434" fill="#374151" font-size="12" text-anchor="middle">入场 止跌/突破回踩</text><circle cx="451.2" cy="412" r="5" fill="#16a34a"/><text x="451.2" y="434" fill="#374151" font-size="12" text-anchor="middle">止损 65,164</text><circle cx="712.0" cy="412" r="5" fill="#16a34a"/><text x="712.0" y="434" fill="#374151" font-size="12" text-anchor="middle">目标一 66,599</text><circle cx="814.0" cy="412" r="5" fill="#16a34a"/><text x="814.0" y="434" fill="#374151" font-size="12" text-anchor="middle">目标二 66,957</text>
<text x="72" y="482" fill="#dc2626" font-size="14" font-weight="700">日内做空计划</text><rect x="72" y="490" width="790" height="48" rx="6" fill="#f9fafb" stroke="#e5e7eb"/><line x1="94" y1="498" x2="840" y2="498" stroke="#dc2626" stroke-width="3"/><circle cx="132.0" cy="498" r="5" fill="#dc2626"/><text x="132.0" y="520" fill="#374151" font-size="12" text-anchor="middle">入场 反弹承压/破位回抽</text><circle cx="451.2" cy="498" r="5" fill="#dc2626"/><text x="451.2" y="520" fill="#374151" font-size="12" text-anchor="middle">止损 66,599</text><circle cx="712.0" cy="498" r="5" fill="#dc2626"/><text x="712.0" y="520" fill="#374151" font-size="12" text-anchor="middle">目标一 65,164</text><circle cx="814.0" cy="498" r="5" fill="#dc2626"/><text x="814.0" y="520" fill="#374151" font-size="12" text-anchor="middle">目标二 64,805</text>
</svg>