<svg xmlns="http://www.w3.org/2000/svg" width="1080" height="560" viewBox="0 0 1080 560">
<rect width="100%" height="100%" fill="#ffffff"/>
<text x="72" y="23" fill="#111827" font-size="21" font-weight="800">DRAM 日线K线支撑压力图</text>
<text x="862" y="42" fill="#374151" font-size="15" text-anchor="end">最新价 69.42</text>
<line x1="72" y1="34" x2="72" y2="340" stroke="#d1d5db"/>
<line x1="72" y1="340" x2="862" y2="340" stroke="#d1d5db"/>
<line x1="72" y1="340.0" x2="862" y2="340.0" stroke="#f3f4f6"/>
<text x="8" y="345.0" fill="#4b5563" font-size="14">43.64</text>
<line x1="72" y1="263.5" x2="862" y2="263.5" stroke="#f3f4f6"/>
<text x="8" y="268.5" fill="#4b5563" font-size="14">54.14</text>
<line x1="72" y1="187.0" x2="862" y2="187.0" stroke="#f3f4f6"/>
<text x="8" y="192.0" fill="#4b5563" font-size="14">64.64</text>
<line x1="72" y1="110.5" x2="862" y2="110.5" stroke="#f3f4f6"/>
<text x="8" y="115.5" fill="#4b5563" font-size="14">75.14</text>
<line x1="72" y1="34.0" x2="862" y2="34.0" stroke="#f3f4f6"/>
<text x="8" y="39.0" fill="#4b5563" font-size="14">85.64</text>
<line x1="72.0" y1="279.9" x2="72.0" y2="307.6" stroke="#dc2626" stroke-width="1"/><rect x="67.5" y="284.7" width="9.0" height="10.6" fill="#dc2626" opacity="0.82" rx="1"/>
<line x1="98.3" y1="286.1" x2="98.3" y2="318.9" stroke="#16a34a" stroke-width="1"/><rect x="93.8" y="293.6" width="9.0" height="1.6" fill="#16a34a" opacity="0.82" rx="1"/>
<line x1="124.7" y1="278.8" x2="124.7" y2="308.4" stroke="#16a34a" stroke-width="1"/><rect x="120.2" y="281.1" width="9.0" height="12.7" fill="#16a34a" opacity="0.82" rx="1"/>
<line x1="151.0" y1="255.4" x2="151.0" y2="285.6" stroke="#16a34a" stroke-width="1"/><rect x="146.5" y="258.6" width="9.0" height="22.5" fill="#16a34a" opacity="0.82" rx="1"/>
<line x1="177.3" y1="258.3" x2="177.3" y2="274.8" stroke="#dc2626" stroke-width="1"/><rect x="172.8" y="258.6" width="9.0" height="16.0" fill="#dc2626" opacity="0.82" rx="1"/>
<line x1="203.7" y1="249.5" x2="203.7" y2="290.6" stroke="#16a34a" stroke-width="1"/><rect x="199.2" y="262.3" width="9.0" height="12.1" fill="#16a34a" opacity="0.82" rx="1"/>
<line x1="230.0" y1="249.2" x2="230.0" y2="263.7" stroke="#16a34a" stroke-width="1"/><rect x="225.5" y="254.6" width="9.0" height="7.6" fill="#16a34a" opacity="0.82" rx="1"/>
<line x1="256.3" y1="230.8" x2="256.3" y2="256.5" stroke="#16a34a" stroke-width="1"/><rect x="251.8" y="246.3" width="9.0" height="8.2" fill="#16a34a" opacity="0.82" rx="1"/>
<line x1="282.7" y1="196.8" x2="282.7" y2="259.7" stroke="#16a34a" stroke-width="1"/><rect x="278.2" y="204.7" width="9.0" height="41.6" fill="#16a34a" opacity="0.82" rx="1"/>
<line x1="309.0" y1="193.9" x2="309.0" y2="227.5" stroke="#dc2626" stroke-width="1"/><rect x="304.5" y="204.8" width="9.0" height="18.8" fill="#dc2626" opacity="0.82" rx="1"/>
<line x1="335.3" y1="193.4" x2="335.3" y2="239.5" stroke="#16a34a" stroke-width="1"/><rect x="330.8" y="198.6" width="9.0" height="25.0" fill="#16a34a" opacity="0.82" rx="1"/>
<line x1="361.7" y1="189.1" x2="361.7" y2="209.5" stroke="#16a34a" stroke-width="1"/><rect x="357.2" y="196.7" width="9.0" height="1.7" fill="#16a34a" opacity="0.82" rx="1"/>
<line x1="388.0" y1="177.4" x2="388.0" y2="199.7" stroke="#16a34a" stroke-width="1"/><rect x="383.5" y="178.6" width="9.0" height="18.1" fill="#16a34a" opacity="0.82" rx="1"/>
<line x1="414.3" y1="166.3" x2="414.3" y2="182.8" stroke="#16a34a" stroke-width="1"/><rect x="409.8" y="176.2" width="9.0" height="2.3" fill="#16a34a" opacity="0.82" rx="1"/>
<line x1="440.7" y1="154.7" x2="440.7" y2="189.1" stroke="#16a34a" stroke-width="1"/><rect x="436.2" y="161.1" width="9.0" height="14.9" fill="#16a34a" opacity="0.82" rx="1"/>
<line x1="467.0" y1="146.7" x2="467.0" y2="181.4" stroke="#16a34a" stroke-width="1"/><rect x="462.5" y="152.0" width="9.0" height="9.3" fill="#16a34a" opacity="0.82" rx="1"/>
<line x1="493.3" y1="145.6" x2="493.3" y2="174.2" stroke="#dc2626" stroke-width="1"/><rect x="488.8" y="151.9" width="9.0" height="20.0" fill="#dc2626" opacity="0.82" rx="1"/>
<line x1="519.7" y1="162.5" x2="519.7" y2="197.7" stroke="#dc2626" stroke-width="1"/><rect x="515.2" y="172.0" width="9.0" height="24.4" fill="#dc2626" opacity="0.82" rx="1"/>
<line x1="546.0" y1="190.7" x2="546.0" y2="268.5" stroke="#dc2626" stroke-width="1"/><rect x="541.5" y="196.4" width="9.0" height="57.7" fill="#dc2626" opacity="0.82" rx="1"/>
<line x1="572.3" y1="246.6" x2="572.3" y2="275.4" stroke="#16a34a" stroke-width="1"/><rect x="567.8" y="251.9" width="9.0" height="2.3" fill="#16a34a" opacity="0.82" rx="1"/>
<line x1="598.7" y1="222.1" x2="598.7" y2="257.3" stroke="#16a34a" stroke-width="1"/><rect x="594.2" y="246.7" width="9.0" height="5.3" fill="#16a34a" opacity="0.82" rx="1"/>
<line x1="625.0" y1="208.7" x2="625.0" y2="249.8" stroke="#16a34a" stroke-width="1"/><rect x="620.5" y="214.3" width="9.0" height="32.4" fill="#16a34a" opacity="0.82" rx="1"/>
<line x1="651.3" y1="190.2" x2="651.3" y2="254.0" stroke="#dc2626" stroke-width="1"/><rect x="646.8" y="214.3" width="9.0" height="8.5" fill="#dc2626" opacity="0.82" rx="1"/>
<line x1="677.7" y1="209.6" x2="677.7" y2="253.0" stroke="#dc2626" stroke-width="1"/><rect x="673.2" y="222.7" width="9.0" height="24.0" fill="#dc2626" opacity="0.82" rx="1"/>
<line x1="704.0" y1="172.1" x2="704.0" y2="248.6" stroke="#16a34a" stroke-width="1"/><rect x="699.5" y="177.0" width="9.0" height="69.6" fill="#16a34a" opacity="0.82" rx="1"/>
<line x1="730.3" y1="175.8" x2="730.3" y2="204.4" stroke="#dc2626" stroke-width="1"/><rect x="725.8" y="177.0" width="9.0" height="2.7" fill="#dc2626" opacity="0.82" rx="1"/>
<line x1="756.7" y1="177.3" x2="756.7" y2="192.5" stroke="#16a34a" stroke-width="1"/><rect x="752.2" y="178.8" width="9.0" height="1.2" fill="#16a34a" opacity="0.82" rx="1"/>
<line x1="783.0" y1="153.6" x2="783.0" y2="180.2" stroke="#16a34a" stroke-width="1"/><rect x="778.5" y="160.6" width="9.0" height="18.1" fill="#16a34a" opacity="0.82" rx="1"/>
<line x1="809.3" y1="138.1" x2="809.3" y2="167.1" stroke="#16a34a" stroke-width="1"/><rect x="804.8" y="141.8" width="9.0" height="18.9" fill="#16a34a" opacity="0.82" rx="1"/>
<line x1="835.7" y1="125.5" x2="835.7" y2="164.1" stroke="#dc2626" stroke-width="1"/><rect x="831.2" y="141.9" width="9.0" height="14.1" fill="#dc2626" opacity="0.82" rx="1"/>
<line x1="862.0" y1="152.2" x2="862.0" y2="156.3" stroke="#16a34a" stroke-width="1"/><rect x="857.5" y="152.2" width="9.0" height="3.9" fill="#16a34a" opacity="0.82" rx="1"/>
<line x1="72" y1="210.5" x2="862" y2="210.5" stroke="#16a34a" stroke-width="1.8" stroke-dasharray="6 4" /><rect x="874" y="190.5" width="166" height="23" rx="5" fill="#ffffff" stroke="#16a34a" opacity="0.97"/><text x="881" y="206.5" fill="#16a34a" font-size="15" font-weight="700">支撑 61.42</text>
<line x1="72" y1="55.1" x2="862" y2="55.1" stroke="#dc2626" stroke-width="1.8" stroke-dasharray="6 4" /><rect x="874" y="35.1" width="166" height="23" rx="5" fill="#ffffff" stroke="#dc2626" opacity="0.97"/><text x="881" y="51.1" fill="#dc2626" font-size="15" font-weight="700">压力 82.75</text>
<line x1="72" y1="152.2" x2="862" y2="152.2" stroke="#111827" stroke-width="1.8" stroke-dasharray="2 2" /><rect x="874" y="132.2" width="166" height="23" rx="5" fill="#ffffff" stroke="#111827" opacity="0.97"/><text x="881" y="148.2" fill="#111827" font-size="15" font-weight="700">现价 69.42</text>
<text x="72" y="396" fill="#16a34a" font-size="14" font-weight="700">日线做多计划</text><rect x="72" y="404" width="790" height="48" rx="6" fill="#f9fafb" stroke="#e5e7eb"/><line x1="94" y1="412" x2="840" y2="412" stroke="#16a34a" stroke-width="3"/><circle cx="132.0" cy="412" r="5" fill="#16a34a"/><text x="132.0" y="434" fill="#374151" font-size="12" text-anchor="middle">入场 止跌/突破回踩</text><circle cx="451.2" cy="412" r="5" fill="#16a34a"/><text x="451.2" y="434" fill="#374151" font-size="12" text-anchor="middle">止损 61.42</text><circle cx="712.0" cy="412" r="5" fill="#16a34a"/><text x="712.0" y="434" fill="#374151" font-size="12" text-anchor="middle">目标一 82.75</text><circle cx="814.0" cy="412" r="5" fill="#16a34a"/><text x="814.0" y="434" fill="#374151" font-size="12" text-anchor="middle">目标二 90.74</text>
<text x="72" y="482" fill="#dc2626" font-size="14" font-weight="700">日线做空计划</text><rect x="72" y="490" width="790" height="48" rx="6" fill="#f9fafb" stroke="#e5e7eb"/><line x1="94" y1="498" x2="840" y2="498" stroke="#dc2626" stroke-width="3"/><circle cx="132.0" cy="498" r="5" fill="#dc2626"/><text x="132.0" y="520" fill="#374151" font-size="12" text-anchor="middle">入场 反弹承压/破位回抽</text><circle cx="451.2" cy="498" r="5" fill="#dc2626"/><text x="451.2" y="520" fill="#374151" font-size="12" text-anchor="middle">止损 82.75</text><circle cx="712.0" cy="498" r="5" fill="#dc2626"/><text x="712.0" y="520" fill="#374151" font-size="12" text-anchor="middle">目标一 61.42</text><circle cx="814.0" cy="498" r="5" fill="#dc2626"/><text x="814.0" y="520" fill="#374151" font-size="12" text-anchor="middle">目标二 56.09</text>
</svg>