<svg xmlns="http://www.w3.org/2000/svg" width="1080" height="560" viewBox="0 0 1080 560">
<rect width="100%" height="100%" fill="#ffffff"/>
<text x="72" y="23" fill="#111827" font-size="21" font-weight="800">HYPE 小时线K线支撑压力图</text>
<text x="862" y="42" fill="#374151" font-size="15" text-anchor="end">最新价 73.63</text>
<line x1="72" y1="34" x2="72" y2="340" stroke="#d1d5db"/>
<line x1="72" y1="340" x2="862" y2="340" stroke="#d1d5db"/>
<line x1="72" y1="340.0" x2="862" y2="340.0" stroke="#f3f4f6"/>
<text x="8" y="345.0" fill="#4b5563" font-size="14">56.24</text>
<line x1="72" y1="263.5" x2="862" y2="263.5" stroke="#f3f4f6"/>
<text x="8" y="268.5" fill="#4b5563" font-size="14">61.98</text>
<line x1="72" y1="187.0" x2="862" y2="187.0" stroke="#f3f4f6"/>
<text x="8" y="192.0" fill="#4b5563" font-size="14">67.72</text>
<line x1="72" y1="110.5" x2="862" y2="110.5" stroke="#f3f4f6"/>
<text x="8" y="115.5" fill="#4b5563" font-size="14">73.47</text>
<line x1="72" y1="34.0" x2="862" y2="34.0" stroke="#f3f4f6"/>
<text x="8" y="39.0" fill="#4b5563" font-size="14">79.21</text>
<line x1="72.0" y1="303.7" x2="72.0" y2="311.6" stroke="#16a34a" stroke-width="1"/><rect x="69.3" y="306.7" width="5.4" height="1.2" fill="#16a34a" opacity="0.82" rx="1"/>
<line x1="80.9" y1="300.8" x2="80.9" y2="309.3" stroke="#16a34a" stroke-width="1"/><rect x="78.2" y="304.9" width="5.4" height="1.7" fill="#16a34a" opacity="0.82" rx="1"/>
<line x1="89.8" y1="303.9" x2="89.8" y2="313.2" stroke="#dc2626" stroke-width="1"/><rect x="87.0" y="304.9" width="5.4" height="6.5" fill="#dc2626" opacity="0.82" rx="1"/>
<line x1="98.6" y1="310.3" x2="98.6" y2="318.9" stroke="#dc2626" stroke-width="1"/><rect x="95.9" y="311.4" width="5.4" height="4.7" fill="#dc2626" opacity="0.82" rx="1"/>
<line x1="107.5" y1="305.3" x2="107.5" y2="317.6" stroke="#16a34a" stroke-width="1"/><rect x="104.8" y="307.9" width="5.4" height="8.2" fill="#16a34a" opacity="0.82" rx="1"/>
<line x1="116.4" y1="295.3" x2="116.4" y2="309.7" stroke="#16a34a" stroke-width="1"/><rect x="113.7" y="297.2" width="5.4" height="10.7" fill="#16a34a" opacity="0.82" rx="1"/>
<line x1="125.3" y1="294.0" x2="125.3" y2="303.8" stroke="#dc2626" stroke-width="1"/><rect x="122.5" y="297.2" width="5.4" height="5.6" fill="#dc2626" opacity="0.82" rx="1"/>
<line x1="134.1" y1="286.2" x2="134.1" y2="303.9" stroke="#16a34a" stroke-width="1"/><rect x="131.4" y="286.4" width="5.4" height="16.5" fill="#16a34a" opacity="0.82" rx="1"/>
<line x1="143.0" y1="283.7" x2="143.0" y2="292.9" stroke="#dc2626" stroke-width="1"/><rect x="140.3" y="286.3" width="5.4" height="4.5" fill="#dc2626" opacity="0.82" rx="1"/>
<line x1="151.9" y1="285.9" x2="151.9" y2="296.8" stroke="#16a34a" stroke-width="1"/><rect x="149.2" y="287.3" width="5.4" height="3.5" fill="#16a34a" opacity="0.82" rx="1"/>
<line x1="160.8" y1="286.6" x2="160.8" y2="303.6" stroke="#dc2626" stroke-width="1"/><rect x="158.0" y="287.3" width="5.4" height="15.9" fill="#dc2626" opacity="0.82" rx="1"/>
<line x1="169.6" y1="291.6" x2="169.6" y2="304.2" stroke="#16a34a" stroke-width="1"/><rect x="166.9" y="291.7" width="5.4" height="11.5" fill="#16a34a" opacity="0.82" rx="1"/>
<line x1="178.5" y1="289.8" x2="178.5" y2="294.5" stroke="#16a34a" stroke-width="1"/><rect x="175.8" y="291.2" width="5.4" height="1.2" fill="#16a34a" opacity="0.82" rx="1"/>
<line x1="187.4" y1="289.7" x2="187.4" y2="294.7" stroke="#16a34a" stroke-width="1"/><rect x="184.7" y="290.9" width="5.4" height="1.2" fill="#16a34a" opacity="0.82" rx="1"/>
<line x1="196.3" y1="280.6" x2="196.3" y2="292.6" stroke="#16a34a" stroke-width="1"/><rect x="193.5" y="283.1" width="5.4" height="7.8" fill="#16a34a" opacity="0.82" rx="1"/>
<line x1="205.1" y1="282.6" x2="205.1" y2="286.8" stroke="#dc2626" stroke-width="1"/><rect x="202.4" y="283.1" width="5.4" height="3.6" fill="#dc2626" opacity="0.82" rx="1"/>
<line x1="214.0" y1="278.1" x2="214.0" y2="287.8" stroke="#16a34a" stroke-width="1"/><rect x="211.3" y="280.5" width="5.4" height="6.2" fill="#16a34a" opacity="0.82" rx="1"/>
<line x1="222.9" y1="277.2" x2="222.9" y2="284.5" stroke="#16a34a" stroke-width="1"/><rect x="220.2" y="277.9" width="5.4" height="2.8" fill="#16a34a" opacity="0.82" rx="1"/>
<line x1="231.8" y1="275.3" x2="231.8" y2="283.0" stroke="#dc2626" stroke-width="1"/><rect x="229.1" y="278.0" width="5.4" height="3.9" fill="#dc2626" opacity="0.82" rx="1"/>
<line x1="240.7" y1="273.4" x2="240.7" y2="282.8" stroke="#16a34a" stroke-width="1"/><rect x="237.9" y="278.7" width="5.4" height="3.1" fill="#16a34a" opacity="0.82" rx="1"/>
<line x1="249.5" y1="277.5" x2="249.5" y2="285.5" stroke="#dc2626" stroke-width="1"/><rect x="246.8" y="278.7" width="5.4" height="3.5" fill="#dc2626" opacity="0.82" rx="1"/>
<line x1="258.4" y1="281.4" x2="258.4" y2="290.3" stroke="#dc2626" stroke-width="1"/><rect x="255.7" y="282.1" width="5.4" height="6.4" fill="#dc2626" opacity="0.82" rx="1"/>
<line x1="267.3" y1="287.0" x2="267.3" y2="291.9" stroke="#dc2626" stroke-width="1"/><rect x="264.6" y="288.5" width="5.4" height="2.1" fill="#dc2626" opacity="0.82" rx="1"/>
<line x1="276.2" y1="285.7" x2="276.2" y2="294.2" stroke="#dc2626" stroke-width="1"/><rect x="273.4" y="290.6" width="5.4" height="1.2" fill="#dc2626" opacity="0.82" rx="1"/>
<line x1="285.0" y1="282.7" x2="285.0" y2="292.8" stroke="#16a34a" stroke-width="1"/><rect x="282.3" y="288.8" width="5.4" height="2.5" fill="#16a34a" opacity="0.82" rx="1"/>
<line x1="293.9" y1="285.3" x2="293.9" y2="293.7" stroke="#16a34a" stroke-width="1"/><rect x="291.2" y="286.6" width="5.4" height="2.2" fill="#16a34a" opacity="0.82" rx="1"/>
<line x1="302.8" y1="277.6" x2="302.8" y2="291.1" stroke="#16a34a" stroke-width="1"/><rect x="300.1" y="278.4" width="5.4" height="8.1" fill="#16a34a" opacity="0.82" rx="1"/>
<line x1="311.7" y1="268.4" x2="311.7" y2="283.3" stroke="#16a34a" stroke-width="1"/><rect x="308.9" y="276.4" width="5.4" height="2.2" fill="#16a34a" opacity="0.82" rx="1"/>
<line x1="320.5" y1="272.8" x2="320.5" y2="282.3" stroke="#16a34a" stroke-width="1"/><rect x="317.8" y="276.1" width="5.4" height="1.2" fill="#16a34a" opacity="0.82" rx="1"/>
<line x1="329.4" y1="272.2" x2="329.4" y2="280.8" stroke="#dc2626" stroke-width="1"/><rect x="326.7" y="276.2" width="5.4" height="1.9" fill="#dc2626" opacity="0.82" rx="1"/>
<line x1="338.3" y1="272.4" x2="338.3" y2="281.6" stroke="#16a34a" stroke-width="1"/><rect x="335.6" y="275.7" width="5.4" height="2.3" fill="#16a34a" opacity="0.82" rx="1"/>
<line x1="347.2" y1="275.4" x2="347.2" y2="294.5" stroke="#dc2626" stroke-width="1"/><rect x="344.4" y="275.8" width="5.4" height="9.7" fill="#dc2626" opacity="0.82" rx="1"/>
<line x1="356.0" y1="280.0" x2="356.0" y2="286.6" stroke="#dc2626" stroke-width="1"/><rect x="353.3" y="285.4" width="5.4" height="1.2" fill="#dc2626" opacity="0.82" rx="1"/>
<line x1="364.9" y1="283.3" x2="364.9" y2="291.1" stroke="#dc2626" stroke-width="1"/><rect x="362.2" y="286.5" width="5.4" height="4.0" fill="#dc2626" opacity="0.82" rx="1"/>
<line x1="373.8" y1="285.2" x2="373.8" y2="293.5" stroke="#dc2626" stroke-width="1"/><rect x="371.1" y="290.5" width="5.4" height="2.3" fill="#dc2626" opacity="0.82" rx="1"/>
<line x1="382.7" y1="283.8" x2="382.7" y2="295.2" stroke="#16a34a" stroke-width="1"/><rect x="380.0" y="284.8" width="5.4" height="8.0" fill="#16a34a" opacity="0.82" rx="1"/>
<line x1="391.6" y1="279.5" x2="391.6" y2="287.5" stroke="#16a34a" stroke-width="1"/><rect x="388.8" y="283.1" width="5.4" height="1.8" fill="#16a34a" opacity="0.82" rx="1"/>
<line x1="400.4" y1="280.0" x2="400.4" y2="287.0" stroke="#dc2626" stroke-width="1"/><rect x="397.7" y="283.1" width="5.4" height="1.2" fill="#dc2626" opacity="0.82" rx="1"/>
<line x1="409.3" y1="240.7" x2="409.3" y2="285.2" stroke="#16a34a" stroke-width="1"/><rect x="406.6" y="249.5" width="5.4" height="33.8" fill="#16a34a" opacity="0.82" rx="1"/>
<line x1="418.2" y1="241.2" x2="418.2" y2="259.6" stroke="#dc2626" stroke-width="1"/><rect x="415.5" y="249.4" width="5.4" height="1.2" fill="#dc2626" opacity="0.82" rx="1"/>
<line x1="427.1" y1="234.7" x2="427.1" y2="250.2" stroke="#16a34a" stroke-width="1"/><rect x="424.3" y="237.6" width="5.4" height="11.9" fill="#16a34a" opacity="0.82" rx="1"/>
<line x1="435.9" y1="233.0" x2="435.9" y2="243.2" stroke="#16a34a" stroke-width="1"/><rect x="433.2" y="237.4" width="5.4" height="1.2" fill="#16a34a" opacity="0.82" rx="1"/>
<line x1="444.8" y1="236.7" x2="444.8" y2="248.4" stroke="#dc2626" stroke-width="1"/><rect x="442.1" y="237.4" width="5.4" height="4.7" fill="#dc2626" opacity="0.82" rx="1"/>
<line x1="453.7" y1="223.3" x2="453.7" y2="244.2" stroke="#16a34a" stroke-width="1"/><rect x="451.0" y="226.0" width="5.4" height="16.0" fill="#16a34a" opacity="0.82" rx="1"/>
<line x1="462.6" y1="218.9" x2="462.6" y2="229.1" stroke="#16a34a" stroke-width="1"/><rect x="459.8" y="218.9" width="5.4" height="7.2" fill="#16a34a" opacity="0.82" rx="1"/>
<line x1="471.4" y1="212.6" x2="471.4" y2="226.5" stroke="#dc2626" stroke-width="1"/><rect x="468.7" y="218.9" width="5.4" height="6.6" fill="#dc2626" opacity="0.82" rx="1"/>
<line x1="480.3" y1="221.5" x2="480.3" y2="229.3" stroke="#dc2626" stroke-width="1"/><rect x="477.6" y="225.4" width="5.4" height="1.2" fill="#dc2626" opacity="0.82" rx="1"/>
<line x1="489.2" y1="219.7" x2="489.2" y2="231.1" stroke="#16a34a" stroke-width="1"/><rect x="486.5" y="220.6" width="5.4" height="5.9" fill="#16a34a" opacity="0.82" rx="1"/>
<line x1="498.1" y1="211.4" x2="498.1" y2="225.7" stroke="#16a34a" stroke-width="1"/><rect x="495.3" y="220.1" width="5.4" height="1.2" fill="#16a34a" opacity="0.82" rx="1"/>
<line x1="506.9" y1="209.1" x2="506.9" y2="221.4" stroke="#16a34a" stroke-width="1"/><rect x="504.2" y="209.4" width="5.4" height="10.7" fill="#16a34a" opacity="0.82" rx="1"/>
<line x1="515.8" y1="201.7" x2="515.8" y2="214.4" stroke="#16a34a" stroke-width="1"/><rect x="513.1" y="202.8" width="5.4" height="6.6" fill="#16a34a" opacity="0.82" rx="1"/>
<line x1="524.7" y1="181.7" x2="524.7" y2="204.4" stroke="#16a34a" stroke-width="1"/><rect x="522.0" y="185.5" width="5.4" height="17.3" fill="#16a34a" opacity="0.82" rx="1"/>
<line x1="533.6" y1="175.4" x2="533.6" y2="188.1" stroke="#16a34a" stroke-width="1"/><rect x="530.9" y="183.9" width="5.4" height="1.6" fill="#16a34a" opacity="0.82" rx="1"/>
<line x1="542.4" y1="179.1" x2="542.4" y2="193.2" stroke="#16a34a" stroke-width="1"/><rect x="539.7" y="182.7" width="5.4" height="1.2" fill="#16a34a" opacity="0.82" rx="1"/>
<line x1="551.3" y1="180.1" x2="551.3" y2="198.3" stroke="#dc2626" stroke-width="1"/><rect x="548.6" y="182.7" width="5.4" height="14.3" fill="#dc2626" opacity="0.82" rx="1"/>
<line x1="560.2" y1="181.6" x2="560.2" y2="201.5" stroke="#16a34a" stroke-width="1"/><rect x="557.5" y="183.6" width="5.4" height="13.6" fill="#16a34a" opacity="0.82" rx="1"/>
<line x1="569.1" y1="177.4" x2="569.1" y2="190.8" stroke="#16a34a" stroke-width="1"/><rect x="566.4" y="183.1" width="5.4" height="1.2" fill="#16a34a" opacity="0.82" rx="1"/>
<line x1="578.0" y1="177.2" x2="578.0" y2="189.6" stroke="#16a34a" stroke-width="1"/><rect x="575.2" y="178.2" width="5.4" height="5.0" fill="#16a34a" opacity="0.82" rx="1"/>
<line x1="586.8" y1="174.0" x2="586.8" y2="185.1" stroke="#dc2626" stroke-width="1"/><rect x="584.1" y="178.1" width="5.4" height="3.9" fill="#dc2626" opacity="0.82" rx="1"/>
<line x1="595.7" y1="178.4" x2="595.7" y2="187.7" stroke="#dc2626" stroke-width="1"/><rect x="593.0" y="182.0" width="5.4" height="1.9" fill="#dc2626" opacity="0.82" rx="1"/>
<line x1="604.6" y1="180.2" x2="604.6" y2="196.6" stroke="#dc2626" stroke-width="1"/><rect x="601.9" y="183.8" width="5.4" height="11.3" fill="#dc2626" opacity="0.82" rx="1"/>
<line x1="613.5" y1="188.2" x2="613.5" y2="196.6" stroke="#16a34a" stroke-width="1"/><rect x="610.7" y="191.4" width="5.4" height="4.1" fill="#16a34a" opacity="0.82" rx="1"/>
<line x1="622.3" y1="180.7" x2="622.3" y2="192.5" stroke="#16a34a" stroke-width="1"/><rect x="619.6" y="182.2" width="5.4" height="9.1" fill="#16a34a" opacity="0.82" rx="1"/>
<line x1="631.2" y1="178.2" x2="631.2" y2="204.4" stroke="#dc2626" stroke-width="1"/><rect x="628.5" y="182.2" width="5.4" height="22.0" fill="#dc2626" opacity="0.82" rx="1"/>
<line x1="640.1" y1="197.3" x2="640.1" y2="209.1" stroke="#16a34a" stroke-width="1"/><rect x="637.4" y="198.1" width="5.4" height="6.1" fill="#16a34a" opacity="0.82" rx="1"/>
<line x1="649.0" y1="189.1" x2="649.0" y2="205.1" stroke="#16a34a" stroke-width="1"/><rect x="646.2" y="192.1" width="5.4" height="6.0" fill="#16a34a" opacity="0.82" rx="1"/>
<line x1="657.8" y1="187.3" x2="657.8" y2="195.5" stroke="#16a34a" stroke-width="1"/><rect x="655.1" y="192.1" width="5.4" height="1.2" fill="#16a34a" opacity="0.82" rx="1"/>
<line x1="666.7" y1="188.2" x2="666.7" y2="198.7" stroke="#16a34a" stroke-width="1"/><rect x="664.0" y="190.0" width="5.4" height="2.2" fill="#16a34a" opacity="0.82" rx="1"/>
<line x1="675.6" y1="159.3" x2="675.6" y2="191.4" stroke="#16a34a" stroke-width="1"/><rect x="672.9" y="159.6" width="5.4" height="30.4" fill="#16a34a" opacity="0.82" rx="1"/>
<line x1="684.5" y1="149.6" x2="684.5" y2="169.3" stroke="#16a34a" stroke-width="1"/><rect x="681.8" y="151.1" width="5.4" height="8.3" fill="#16a34a" opacity="0.82" rx="1"/>
<line x1="693.3" y1="126.2" x2="693.3" y2="151.7" stroke="#16a34a" stroke-width="1"/><rect x="690.6" y="132.1" width="5.4" height="19.0" fill="#16a34a" opacity="0.82" rx="1"/>
<line x1="702.2" y1="119.5" x2="702.2" y2="136.4" stroke="#16a34a" stroke-width="1"/><rect x="699.5" y="120.3" width="5.4" height="11.9" fill="#16a34a" opacity="0.82" rx="1"/>
<line x1="711.1" y1="115.4" x2="711.1" y2="131.9" stroke="#16a34a" stroke-width="1"/><rect x="708.4" y="117.6" width="5.4" height="2.6" fill="#16a34a" opacity="0.82" rx="1"/>
<line x1="720.0" y1="101.9" x2="720.0" y2="123.0" stroke="#16a34a" stroke-width="1"/><rect x="717.3" y="107.1" width="5.4" height="10.1" fill="#16a34a" opacity="0.82" rx="1"/>
<line x1="728.9" y1="103.7" x2="728.9" y2="116.3" stroke="#dc2626" stroke-width="1"/><rect x="726.1" y="107.1" width="5.4" height="3.4" fill="#dc2626" opacity="0.82" rx="1"/>
<line x1="737.7" y1="70.8" x2="737.7" y2="113.1" stroke="#16a34a" stroke-width="1"/><rect x="735.0" y="84.7" width="5.4" height="25.7" fill="#16a34a" opacity="0.82" rx="1"/>
<line x1="746.6" y1="75.1" x2="746.6" y2="96.7" stroke="#16a34a" stroke-width="1"/><rect x="743.9" y="81.6" width="5.4" height="3.2" fill="#16a34a" opacity="0.82" rx="1"/>
<line x1="755.5" y1="63.4" x2="755.5" y2="91.7" stroke="#16a34a" stroke-width="1"/><rect x="752.8" y="63.5" width="5.4" height="18.0" fill="#16a34a" opacity="0.82" rx="1"/>
<line x1="764.4" y1="63.4" x2="764.4" y2="85.5" stroke="#dc2626" stroke-width="1"/><rect x="761.6" y="63.5" width="5.4" height="15.9" fill="#dc2626" opacity="0.82" rx="1"/>
<line x1="773.2" y1="68.9" x2="773.2" y2="113.4" stroke="#dc2626" stroke-width="1"/><rect x="770.5" y="79.4" width="5.4" height="31.6" fill="#dc2626" opacity="0.82" rx="1"/>
<line x1="782.1" y1="88.5" x2="782.1" y2="112.4" stroke="#16a34a" stroke-width="1"/><rect x="779.4" y="90.9" width="5.4" height="19.9" fill="#16a34a" opacity="0.82" rx="1"/>
<line x1="791.0" y1="85.6" x2="791.0" y2="111.8" stroke="#dc2626" stroke-width="1"/><rect x="788.3" y="91.0" width="5.4" height="16.8" fill="#dc2626" opacity="0.82" rx="1"/>
<line x1="799.9" y1="99.5" x2="799.9" y2="120.3" stroke="#16a34a" stroke-width="1"/><rect x="797.1" y="103.6" width="5.4" height="4.2" fill="#16a34a" opacity="0.82" rx="1"/>
<line x1="808.7" y1="90.6" x2="808.7" y2="125.3" stroke="#dc2626" stroke-width="1"/><rect x="806.0" y="103.6" width="5.4" height="15.9" fill="#dc2626" opacity="0.82" rx="1"/>
<line x1="817.6" y1="111.2" x2="817.6" y2="129.5" stroke="#dc2626" stroke-width="1"/><rect x="814.9" y="119.4" width="5.4" height="4.7" fill="#dc2626" opacity="0.82" rx="1"/>
<line x1="826.5" y1="111.4" x2="826.5" y2="128.6" stroke="#16a34a" stroke-width="1"/><rect x="823.8" y="112.0" width="5.4" height="12.4" fill="#16a34a" opacity="0.82" rx="1"/>
<line x1="835.4" y1="107.7" x2="835.4" y2="119.5" stroke="#16a34a" stroke-width="1"/><rect x="832.6" y="110.8" width="5.4" height="1.2" fill="#16a34a" opacity="0.82" rx="1"/>
<line x1="844.2" y1="103.7" x2="844.2" y2="117.5" stroke="#dc2626" stroke-width="1"/><rect x="841.5" y="110.9" width="5.4" height="1.2" fill="#dc2626" opacity="0.82" rx="1"/>
<line x1="853.1" y1="105.9" x2="853.1" y2="118.0" stroke="#16a34a" stroke-width="1"/><rect x="850.4" y="109.0" width="5.4" height="2.0" fill="#16a34a" opacity="0.82" rx="1"/>
<line x1="862.0" y1="107.0" x2="862.0" y2="109.2" stroke="#16a34a" stroke-width="1"/><rect x="859.3" y="108.3" width="5.4" height="1.2" fill="#16a34a" opacity="0.82" rx="1"/>
<line x1="72" y1="140.1" x2="862" y2="140.1" stroke="#16a34a" stroke-width="1.8" stroke-dasharray="6 4" /><rect x="874" y="120.1" width="166" height="23" rx="5" fill="#ffffff" stroke="#16a34a" opacity="0.97"/><text x="881" y="136.1" fill="#16a34a" font-size="15" font-weight="700">日内支撑 71.24</text>
<line x1="72" y1="55.1" x2="862" y2="55.1" stroke="#dc2626" stroke-width="1.8" stroke-dasharray="6 4" /><rect x="874" y="35.1" width="166" height="23" rx="5" fill="#ffffff" stroke="#dc2626" opacity="0.97"/><text x="881" y="51.1" fill="#dc2626" font-size="15" font-weight="700">日内压力 77.62</text>
<line x1="72" y1="108.3" x2="862" y2="108.3" stroke="#111827" stroke-width="1.8" stroke-dasharray="2 2" /><rect x="874" y="88.3" width="166" height="23" rx="5" fill="#ffffff" stroke="#111827" opacity="0.97"/><text x="881" y="104.3" fill="#111827" font-size="15" font-weight="700">现价 73.63</text>
<text x="72" y="396" fill="#16a34a" font-size="14" font-weight="700">日内做多计划</text><rect x="72" y="404" width="790" height="48" rx="6" fill="#f9fafb" stroke="#e5e7eb"/><line x1="94" y1="412" x2="840" y2="412" stroke="#16a34a" stroke-width="3"/><circle cx="132.0" cy="412" r="5" fill="#16a34a"/><text x="132.0" y="434" fill="#374151" font-size="12" text-anchor="middle">入场 止跌/突破回踩</text><circle cx="451.2" cy="412" r="5" fill="#16a34a"/><text x="451.2" y="434" fill="#374151" font-size="12" text-anchor="middle">止损 71.24</text><circle cx="712.0" cy="412" r="5" fill="#16a34a"/><text x="712.0" y="434" fill="#374151" font-size="12" text-anchor="middle">目标一 77.62</text><circle cx="814.0" cy="412" r="5" fill="#16a34a"/><text x="814.0" y="434" fill="#374151" font-size="12" text-anchor="middle">目标二 79.22</text>
<text x="72" y="482" fill="#dc2626" font-size="14" font-weight="700">日内做空计划</text><rect x="72" y="490" width="790" height="48" rx="6" fill="#f9fafb" stroke="#e5e7eb"/><line x1="94" y1="498" x2="840" y2="498" stroke="#dc2626" stroke-width="3"/><circle cx="132.0" cy="498" r="5" fill="#dc2626"/><text x="132.0" y="520" fill="#374151" font-size="12" text-anchor="middle">入场 反弹承压/破位回抽</text><circle cx="451.2" cy="498" r="5" fill="#dc2626"/><text x="451.2" y="520" fill="#374151" font-size="12" text-anchor="middle">止损 77.62</text><circle cx="712.0" cy="498" r="5" fill="#dc2626"/><text x="712.0" y="520" fill="#374151" font-size="12" text-anchor="middle">目标一 71.24</text><circle cx="814.0" cy="498" r="5" fill="#dc2626"/><text x="814.0" y="520" fill="#374151" font-size="12" text-anchor="middle">目标二 69.64</text>
</svg>