<svg xmlns="http://www.w3.org/2000/svg" width="1080" height="560" viewBox="0 0 1080 560">
<rect width="100%" height="100%" fill="#ffffff"/>
<text x="72" y="23" fill="#111827" font-size="21" font-weight="800">BTC 小时线K线支撑压力图</text>
<text x="862" y="42" fill="#374151" font-size="15" text-anchor="end">最新价 65,585</text>
<line x1="72" y1="34" x2="72" y2="340" stroke="#d1d5db"/>
<line x1="72" y1="340" x2="862" y2="340" stroke="#d1d5db"/>
<line x1="72" y1="340.0" x2="862" y2="340.0" stroke="#f3f4f6"/>
<text x="8" y="345.0" fill="#4b5563" font-size="14">63,362</text>
<line x1="72" y1="263.5" x2="862" y2="263.5" stroke="#f3f4f6"/>
<text x="8" y="268.5" fill="#4b5563" font-size="14">64,407</text>
<line x1="72" y1="187.0" x2="862" y2="187.0" stroke="#f3f4f6"/>
<text x="8" y="192.0" fill="#4b5563" font-size="14">65,453</text>
<line x1="72" y1="110.5" x2="862" y2="110.5" stroke="#f3f4f6"/>
<text x="8" y="115.5" fill="#4b5563" font-size="14">66,498</text>
<line x1="72" y1="34.0" x2="862" y2="34.0" stroke="#f3f4f6"/>
<text x="8" y="39.0" fill="#4b5563" font-size="14">67,544</text>
<line x1="72.0" y1="278.0" x2="72.0" y2="289.5" stroke="#16a34a" stroke-width="1"/><rect x="69.3" y="279.4" width="5.4" height="8.7" fill="#16a34a" opacity="0.82" rx="1"/>
<line x1="80.9" y1="269.7" x2="80.9" y2="282.5" stroke="#16a34a" stroke-width="1"/><rect x="78.2" y="273.9" width="5.4" height="5.5" fill="#16a34a" opacity="0.82" rx="1"/>
<line x1="89.8" y1="272.8" x2="89.8" y2="303.3" stroke="#dc2626" stroke-width="1"/><rect x="87.0" y="273.9" width="5.4" height="19.7" fill="#dc2626" opacity="0.82" rx="1"/>
<line x1="98.6" y1="286.7" x2="98.6" y2="300.5" stroke="#dc2626" stroke-width="1"/><rect x="95.9" y="293.6" width="5.4" height="4.1" fill="#dc2626" opacity="0.82" rx="1"/>
<line x1="107.5" y1="275.2" x2="107.5" y2="297.7" stroke="#16a34a" stroke-width="1"/><rect x="104.8" y="284.3" width="5.4" height="13.4" fill="#16a34a" opacity="0.82" rx="1"/>
<line x1="116.4" y1="271.4" x2="116.4" y2="285.2" stroke="#16a34a" stroke-width="1"/><rect x="113.7" y="274.0" width="5.4" height="10.4" fill="#16a34a" opacity="0.82" rx="1"/>
<line x1="125.3" y1="274.0" x2="125.3" y2="279.0" stroke="#dc2626" stroke-width="1"/><rect x="122.5" y="274.0" width="5.4" height="1.2" fill="#dc2626" opacity="0.82" rx="1"/>
<line x1="134.1" y1="239.3" x2="134.1" y2="279.4" stroke="#16a34a" stroke-width="1"/><rect x="131.4" y="261.4" width="5.4" height="13.4" fill="#16a34a" opacity="0.82" rx="1"/>
<line x1="143.0" y1="254.6" x2="143.0" y2="267.7" stroke="#dc2626" stroke-width="1"/><rect x="140.3" y="261.4" width="5.4" height="1.6" fill="#dc2626" opacity="0.82" rx="1"/>
<line x1="151.9" y1="251.4" x2="151.9" y2="267.6" stroke="#16a34a" stroke-width="1"/><rect x="149.2" y="262.7" width="5.4" height="1.2" fill="#16a34a" opacity="0.82" rx="1"/>
<line x1="160.8" y1="253.1" x2="160.8" y2="268.5" stroke="#16a34a" stroke-width="1"/><rect x="158.0" y="255.3" width="5.4" height="7.4" fill="#16a34a" opacity="0.82" rx="1"/>
<line x1="169.6" y1="243.4" x2="169.6" y2="259.2" stroke="#16a34a" stroke-width="1"/><rect x="166.9" y="254.2" width="5.4" height="1.2" fill="#16a34a" opacity="0.82" rx="1"/>
<line x1="178.5" y1="248.9" x2="178.5" y2="261.3" stroke="#dc2626" stroke-width="1"/><rect x="175.8" y="254.2" width="5.4" height="6.1" fill="#dc2626" opacity="0.82" rx="1"/>
<line x1="187.4" y1="255.4" x2="187.4" y2="262.4" stroke="#16a34a" stroke-width="1"/><rect x="184.7" y="255.6" width="5.4" height="4.7" fill="#16a34a" opacity="0.82" rx="1"/>
<line x1="196.3" y1="254.3" x2="196.3" y2="272.7" stroke="#dc2626" stroke-width="1"/><rect x="193.5" y="255.6" width="5.4" height="15.7" fill="#dc2626" opacity="0.82" rx="1"/>
<line x1="205.1" y1="265.6" x2="205.1" y2="274.3" stroke="#16a34a" stroke-width="1"/><rect x="202.4" y="270.0" width="5.4" height="1.3" fill="#16a34a" opacity="0.82" rx="1"/>
<line x1="214.0" y1="260.4" x2="214.0" y2="278.0" stroke="#dc2626" stroke-width="1"/><rect x="211.3" y="270.0" width="5.4" height="4.4" fill="#dc2626" opacity="0.82" rx="1"/>
<line x1="222.9" y1="263.1" x2="222.9" y2="279.6" stroke="#16a34a" stroke-width="1"/><rect x="220.2" y="264.6" width="5.4" height="9.8" fill="#16a34a" opacity="0.82" rx="1"/>
<line x1="231.8" y1="257.7" x2="231.8" y2="267.4" stroke="#16a34a" stroke-width="1"/><rect x="229.1" y="262.3" width="5.4" height="2.3" fill="#16a34a" opacity="0.82" rx="1"/>
<line x1="240.7" y1="249.9" x2="240.7" y2="272.7" stroke="#16a34a" stroke-width="1"/><rect x="237.9" y="250.5" width="5.4" height="11.8" fill="#16a34a" opacity="0.82" rx="1"/>
<line x1="249.5" y1="246.4" x2="249.5" y2="260.2" stroke="#dc2626" stroke-width="1"/><rect x="246.8" y="250.5" width="5.4" height="7.3" fill="#dc2626" opacity="0.82" rx="1"/>
<line x1="258.4" y1="248.3" x2="258.4" y2="262.6" stroke="#16a34a" stroke-width="1"/><rect x="255.7" y="255.8" width="5.4" height="1.9" fill="#16a34a" opacity="0.82" rx="1"/>
<line x1="267.3" y1="254.4" x2="267.3" y2="274.6" stroke="#dc2626" stroke-width="1"/><rect x="264.6" y="255.8" width="5.4" height="15.7" fill="#dc2626" opacity="0.82" rx="1"/>
<line x1="276.2" y1="266.3" x2="276.2" y2="278.1" stroke="#dc2626" stroke-width="1"/><rect x="273.4" y="271.6" width="5.4" height="1.2" fill="#dc2626" opacity="0.82" rx="1"/>
<line x1="285.0" y1="270.4" x2="285.0" y2="305.7" stroke="#dc2626" stroke-width="1"/><rect x="282.3" y="272.3" width="5.4" height="24.4" fill="#dc2626" opacity="0.82" rx="1"/>
<line x1="293.9" y1="284.2" x2="293.9" y2="297.3" stroke="#16a34a" stroke-width="1"/><rect x="291.2" y="293.6" width="5.4" height="3.0" fill="#16a34a" opacity="0.82" rx="1"/>
<line x1="302.8" y1="279.9" x2="302.8" y2="300.5" stroke="#dc2626" stroke-width="1"/><rect x="300.1" y="293.6" width="5.4" height="6.0" fill="#dc2626" opacity="0.82" rx="1"/>
<line x1="311.7" y1="293.3" x2="311.7" y2="318.9" stroke="#dc2626" stroke-width="1"/><rect x="308.9" y="299.6" width="5.4" height="15.2" fill="#dc2626" opacity="0.82" rx="1"/>
<line x1="320.5" y1="308.5" x2="320.5" y2="318.8" stroke="#16a34a" stroke-width="1"/><rect x="317.8" y="309.1" width="5.4" height="5.7" fill="#16a34a" opacity="0.82" rx="1"/>
<line x1="329.4" y1="305.7" x2="329.4" y2="315.1" stroke="#dc2626" stroke-width="1"/><rect x="326.7" y="309.1" width="5.4" height="1.2" fill="#dc2626" opacity="0.82" rx="1"/>
<line x1="338.3" y1="288.2" x2="338.3" y2="310.7" stroke="#16a34a" stroke-width="1"/><rect x="335.6" y="294.9" width="5.4" height="14.7" fill="#16a34a" opacity="0.82" rx="1"/>
<line x1="347.2" y1="172.4" x2="347.2" y2="295.2" stroke="#16a34a" stroke-width="1"/><rect x="344.4" y="199.3" width="5.4" height="95.6" fill="#16a34a" opacity="0.82" rx="1"/>
<line x1="356.0" y1="179.5" x2="356.0" y2="226.1" stroke="#16a34a" stroke-width="1"/><rect x="353.3" y="191.6" width="5.4" height="7.7" fill="#16a34a" opacity="0.82" rx="1"/>
<line x1="364.9" y1="163.4" x2="364.9" y2="204.2" stroke="#16a34a" stroke-width="1"/><rect x="362.2" y="168.8" width="5.4" height="22.9" fill="#16a34a" opacity="0.82" rx="1"/>
<line x1="373.8" y1="155.7" x2="373.8" y2="187.6" stroke="#dc2626" stroke-width="1"/><rect x="371.1" y="168.8" width="5.4" height="8.1" fill="#dc2626" opacity="0.82" rx="1"/>
<line x1="382.7" y1="168.5" x2="382.7" y2="197.1" stroke="#dc2626" stroke-width="1"/><rect x="380.0" y="176.9" width="5.4" height="8.0" fill="#dc2626" opacity="0.82" rx="1"/>
<line x1="391.6" y1="165.3" x2="391.6" y2="192.1" stroke="#dc2626" stroke-width="1"/><rect x="388.8" y="184.8" width="5.4" height="3.9" fill="#dc2626" opacity="0.82" rx="1"/>
<line x1="400.4" y1="147.2" x2="400.4" y2="191.3" stroke="#16a34a" stroke-width="1"/><rect x="397.7" y="154.7" width="5.4" height="34.1" fill="#16a34a" opacity="0.82" rx="1"/>
<line x1="409.3" y1="154.7" x2="409.3" y2="176.1" stroke="#dc2626" stroke-width="1"/><rect x="406.6" y="154.7" width="5.4" height="20.7" fill="#dc2626" opacity="0.82" rx="1"/>
<line x1="418.2" y1="158.3" x2="418.2" y2="177.8" stroke="#16a34a" stroke-width="1"/><rect x="415.5" y="159.5" width="5.4" height="15.8" fill="#16a34a" opacity="0.82" rx="1"/>
<line x1="427.1" y1="151.9" x2="427.1" y2="167.7" stroke="#dc2626" stroke-width="1"/><rect x="424.3" y="159.5" width="5.4" height="4.0" fill="#dc2626" opacity="0.82" rx="1"/>
<line x1="435.9" y1="148.6" x2="435.9" y2="177.7" stroke="#dc2626" stroke-width="1"/><rect x="433.2" y="163.6" width="5.4" height="9.6" fill="#dc2626" opacity="0.82" rx="1"/>
<line x1="444.8" y1="163.9" x2="444.8" y2="177.7" stroke="#dc2626" stroke-width="1"/><rect x="442.1" y="173.1" width="5.4" height="1.6" fill="#dc2626" opacity="0.82" rx="1"/>
<line x1="453.7" y1="166.0" x2="453.7" y2="185.8" stroke="#dc2626" stroke-width="1"/><rect x="451.0" y="174.8" width="5.4" height="4.4" fill="#dc2626" opacity="0.82" rx="1"/>
<line x1="462.6" y1="151.8" x2="462.6" y2="180.2" stroke="#16a34a" stroke-width="1"/><rect x="459.8" y="155.4" width="5.4" height="23.8" fill="#16a34a" opacity="0.82" rx="1"/>
<line x1="471.4" y1="121.6" x2="471.4" y2="161.1" stroke="#16a34a" stroke-width="1"/><rect x="468.7" y="132.9" width="5.4" height="22.5" fill="#16a34a" opacity="0.82" rx="1"/>
<line x1="480.3" y1="105.3" x2="480.3" y2="142.8" stroke="#16a34a" stroke-width="1"/><rect x="477.6" y="108.3" width="5.4" height="24.6" fill="#16a34a" opacity="0.82" rx="1"/>
<line x1="489.2" y1="80.0" x2="489.2" y2="119.5" stroke="#dc2626" stroke-width="1"/><rect x="486.5" y="108.3" width="5.4" height="8.6" fill="#dc2626" opacity="0.82" rx="1"/>
<line x1="498.1" y1="99.6" x2="498.1" y2="127.6" stroke="#16a34a" stroke-width="1"/><rect x="495.3" y="106.5" width="5.4" height="10.4" fill="#16a34a" opacity="0.82" rx="1"/>
<line x1="506.9" y1="55.1" x2="506.9" y2="107.3" stroke="#16a34a" stroke-width="1"/><rect x="504.2" y="55.6" width="5.4" height="50.9" fill="#16a34a" opacity="0.82" rx="1"/>
<line x1="515.8" y1="55.2" x2="515.8" y2="70.1" stroke="#dc2626" stroke-width="1"/><rect x="513.1" y="55.6" width="5.4" height="9.2" fill="#dc2626" opacity="0.82" rx="1"/>
<line x1="524.7" y1="64.8" x2="524.7" y2="100.5" stroke="#dc2626" stroke-width="1"/><rect x="522.0" y="64.8" width="5.4" height="22.1" fill="#dc2626" opacity="0.82" rx="1"/>
<line x1="533.6" y1="81.1" x2="533.6" y2="97.3" stroke="#dc2626" stroke-width="1"/><rect x="530.9" y="86.9" width="5.4" height="6.9" fill="#dc2626" opacity="0.82" rx="1"/>
<line x1="542.4" y1="84.3" x2="542.4" y2="124.8" stroke="#dc2626" stroke-width="1"/><rect x="539.7" y="93.8" width="5.4" height="10.7" fill="#dc2626" opacity="0.82" rx="1"/>
<line x1="551.3" y1="98.8" x2="551.3" y2="114.4" stroke="#dc2626" stroke-width="1"/><rect x="548.6" y="104.6" width="5.4" height="6.5" fill="#dc2626" opacity="0.82" rx="1"/>
<line x1="560.2" y1="107.8" x2="560.2" y2="126.1" stroke="#dc2626" stroke-width="1"/><rect x="557.5" y="111.1" width="5.4" height="11.2" fill="#dc2626" opacity="0.82" rx="1"/>
<line x1="569.1" y1="114.3" x2="569.1" y2="142.2" stroke="#dc2626" stroke-width="1"/><rect x="566.4" y="122.3" width="5.4" height="12.2" fill="#dc2626" opacity="0.82" rx="1"/>
<line x1="578.0" y1="122.4" x2="578.0" y2="140.6" stroke="#16a34a" stroke-width="1"/><rect x="575.2" y="126.0" width="5.4" height="8.5" fill="#16a34a" opacity="0.82" rx="1"/>
<line x1="586.8" y1="115.7" x2="586.8" y2="132.5" stroke="#dc2626" stroke-width="1"/><rect x="584.1" y="126.0" width="5.4" height="5.0" fill="#dc2626" opacity="0.82" rx="1"/>
<line x1="595.7" y1="118.5" x2="595.7" y2="131.8" stroke="#16a34a" stroke-width="1"/><rect x="593.0" y="124.3" width="5.4" height="6.8" fill="#16a34a" opacity="0.82" rx="1"/>
<line x1="604.6" y1="122.7" x2="604.6" y2="172.2" stroke="#dc2626" stroke-width="1"/><rect x="601.9" y="124.3" width="5.4" height="43.6" fill="#dc2626" opacity="0.82" rx="1"/>
<line x1="613.5" y1="136.3" x2="613.5" y2="175.7" stroke="#16a34a" stroke-width="1"/><rect x="610.7" y="137.8" width="5.4" height="30.1" fill="#16a34a" opacity="0.82" rx="1"/>
<line x1="622.3" y1="128.5" x2="622.3" y2="163.9" stroke="#dc2626" stroke-width="1"/><rect x="619.6" y="137.8" width="5.4" height="23.0" fill="#dc2626" opacity="0.82" rx="1"/>
<line x1="631.2" y1="138.2" x2="631.2" y2="160.8" stroke="#16a34a" stroke-width="1"/><rect x="628.5" y="144.9" width="5.4" height="15.9" fill="#16a34a" opacity="0.82" rx="1"/>
<line x1="640.1" y1="107.2" x2="640.1" y2="145.1" stroke="#16a34a" stroke-width="1"/><rect x="637.4" y="117.2" width="5.4" height="27.7" fill="#16a34a" opacity="0.82" rx="1"/>
<line x1="649.0" y1="110.6" x2="649.0" y2="127.0" stroke="#dc2626" stroke-width="1"/><rect x="646.2" y="117.2" width="5.4" height="4.7" fill="#dc2626" opacity="0.82" rx="1"/>
<line x1="657.8" y1="77.0" x2="657.8" y2="124.2" stroke="#16a34a" stroke-width="1"/><rect x="655.1" y="83.7" width="5.4" height="38.2" fill="#16a34a" opacity="0.82" rx="1"/>
<line x1="666.7" y1="82.2" x2="666.7" y2="114.8" stroke="#dc2626" stroke-width="1"/><rect x="664.0" y="83.7" width="5.4" height="28.2" fill="#dc2626" opacity="0.82" rx="1"/>
<line x1="675.6" y1="91.7" x2="675.6" y2="114.0" stroke="#dc2626" stroke-width="1"/><rect x="672.9" y="111.9" width="5.4" height="1.2" fill="#dc2626" opacity="0.82" rx="1"/>
<line x1="684.5" y1="101.6" x2="684.5" y2="123.1" stroke="#dc2626" stroke-width="1"/><rect x="681.8" y="112.1" width="5.4" height="1.5" fill="#dc2626" opacity="0.82" rx="1"/>
<line x1="693.3" y1="89.4" x2="693.3" y2="123.2" stroke="#dc2626" stroke-width="1"/><rect x="690.6" y="113.6" width="5.4" height="4.8" fill="#dc2626" opacity="0.82" rx="1"/>
<line x1="702.2" y1="115.1" x2="702.2" y2="154.8" stroke="#dc2626" stroke-width="1"/><rect x="699.5" y="118.4" width="5.4" height="27.6" fill="#dc2626" opacity="0.82" rx="1"/>
<line x1="711.1" y1="129.4" x2="711.1" y2="196.1" stroke="#dc2626" stroke-width="1"/><rect x="708.4" y="146.0" width="5.4" height="28.0" fill="#dc2626" opacity="0.82" rx="1"/>
<line x1="720.0" y1="148.3" x2="720.0" y2="177.7" stroke="#16a34a" stroke-width="1"/><rect x="717.3" y="158.5" width="5.4" height="15.5" fill="#16a34a" opacity="0.82" rx="1"/>
<line x1="728.9" y1="151.9" x2="728.9" y2="170.7" stroke="#dc2626" stroke-width="1"/><rect x="726.1" y="158.5" width="5.4" height="8.1" fill="#dc2626" opacity="0.82" rx="1"/>
<line x1="737.7" y1="147.6" x2="737.7" y2="170.6" stroke="#16a34a" stroke-width="1"/><rect x="735.0" y="150.9" width="5.4" height="15.8" fill="#16a34a" opacity="0.82" rx="1"/>
<line x1="746.6" y1="129.0" x2="746.6" y2="164.0" stroke="#dc2626" stroke-width="1"/><rect x="743.9" y="150.9" width="5.4" height="9.1" fill="#dc2626" opacity="0.82" rx="1"/>
<line x1="755.5" y1="159.9" x2="755.5" y2="181.4" stroke="#dc2626" stroke-width="1"/><rect x="752.8" y="159.9" width="5.4" height="12.4" fill="#dc2626" opacity="0.82" rx="1"/>
<line x1="764.4" y1="159.2" x2="764.4" y2="179.1" stroke="#16a34a" stroke-width="1"/><rect x="761.6" y="159.8" width="5.4" height="12.5" fill="#16a34a" opacity="0.82" rx="1"/>
<line x1="773.2" y1="153.7" x2="773.2" y2="175.5" stroke="#dc2626" stroke-width="1"/><rect x="770.5" y="159.8" width="5.4" height="6.1" fill="#dc2626" opacity="0.82" rx="1"/>
<line x1="782.1" y1="157.6" x2="782.1" y2="173.0" stroke="#16a34a" stroke-width="1"/><rect x="779.4" y="165.6" width="5.4" height="1.2" fill="#16a34a" opacity="0.82" rx="1"/>
<line x1="791.0" y1="161.2" x2="791.0" y2="177.7" stroke="#dc2626" stroke-width="1"/><rect x="788.3" y="165.6" width="5.4" height="7.3" fill="#dc2626" opacity="0.82" rx="1"/>
<line x1="799.9" y1="160.1" x2="799.9" y2="172.9" stroke="#16a34a" stroke-width="1"/><rect x="797.1" y="170.4" width="5.4" height="2.5" fill="#16a34a" opacity="0.82" rx="1"/>
<line x1="808.7" y1="152.4" x2="808.7" y2="188.8" stroke="#16a34a" stroke-width="1"/><rect x="806.0" y="154.2" width="5.4" height="16.2" fill="#16a34a" opacity="0.82" rx="1"/>
<line x1="817.6" y1="140.2" x2="817.6" y2="165.8" stroke="#dc2626" stroke-width="1"/><rect x="814.9" y="154.2" width="5.4" height="2.1" fill="#dc2626" opacity="0.82" rx="1"/>
<line x1="826.5" y1="156.3" x2="826.5" y2="171.0" stroke="#dc2626" stroke-width="1"/><rect x="823.8" y="156.3" width="5.4" height="4.0" fill="#dc2626" opacity="0.82" rx="1"/>
<line x1="835.4" y1="145.6" x2="835.4" y2="165.7" stroke="#16a34a" stroke-width="1"/><rect x="832.6" y="157.7" width="5.4" height="2.5" fill="#16a34a" opacity="0.82" rx="1"/>
<line x1="844.2" y1="150.7" x2="844.2" y2="168.7" stroke="#dc2626" stroke-width="1"/><rect x="841.5" y="157.7" width="5.4" height="4.1" fill="#dc2626" opacity="0.82" rx="1"/>
<line x1="853.1" y1="156.5" x2="853.1" y2="181.0" stroke="#dc2626" stroke-width="1"/><rect x="850.4" y="161.9" width="5.4" height="15.1" fill="#dc2626" opacity="0.82" rx="1"/>
<line x1="862.0" y1="176.6" x2="862.0" y2="181.3" stroke="#dc2626" stroke-width="1"/><rect x="859.3" y="177.0" width="5.4" height="1.2" fill="#dc2626" opacity="0.82" rx="1"/>
<line x1="72" y1="208.1" x2="862" y2="208.1" stroke="#16a34a" stroke-width="1.8" stroke-dasharray="6 4" /><rect x="874" y="188.1" width="166" height="23" rx="5" fill="#ffffff" stroke="#16a34a" opacity="0.97"/><text x="881" y="204.1" fill="#16a34a" font-size="15" font-weight="700">日内支撑 65,165</text>
<line x1="72" y1="126.1" x2="862" y2="126.1" stroke="#dc2626" stroke-width="1.8" stroke-dasharray="6 4" /><rect x="874" y="106.1" width="166" height="23" rx="5" fill="#ffffff" stroke="#dc2626" opacity="0.97"/><text x="881" y="122.1" fill="#dc2626" font-size="15" font-weight="700">日内压力 66,285</text>
<line x1="72" y1="177.3" x2="862" y2="177.3" stroke="#111827" stroke-width="1.8" stroke-dasharray="2 2" /><rect x="874" y="157.3" width="166" height="23" rx="5" fill="#ffffff" stroke="#111827" opacity="0.97"/><text x="881" y="173.3" fill="#111827" font-size="15" font-weight="700">现价 65,585</text>
<text x="72" y="396" fill="#16a34a" font-size="14" font-weight="700">日内做多计划</text><rect x="72" y="404" width="790" height="48" rx="6" fill="#f9fafb" stroke="#e5e7eb"/><line x1="94" y1="412" x2="840" y2="412" stroke="#16a34a" stroke-width="3"/><circle cx="132.0" cy="412" r="5" fill="#16a34a"/><text x="132.0" y="434" fill="#374151" font-size="12" text-anchor="middle">入场 止跌/突破回踩</text><circle cx="451.2" cy="412" r="5" fill="#16a34a"/><text x="451.2" y="434" fill="#374151" font-size="12" text-anchor="middle">止损 65,165</text><circle cx="712.0" cy="412" r="5" fill="#16a34a"/><text x="712.0" y="434" fill="#374151" font-size="12" text-anchor="middle">目标一 66,285</text><circle cx="814.0" cy="412" r="5" fill="#16a34a"/><text x="814.0" y="434" fill="#374151" font-size="12" text-anchor="middle">目标二 66,565</text>
<text x="72" y="482" fill="#dc2626" font-size="14" font-weight="700">日内做空计划</text><rect x="72" y="490" width="790" height="48" rx="6" fill="#f9fafb" stroke="#e5e7eb"/><line x1="94" y1="498" x2="840" y2="498" stroke="#dc2626" stroke-width="3"/><circle cx="132.0" cy="498" r="5" fill="#dc2626"/><text x="132.0" y="520" fill="#374151" font-size="12" text-anchor="middle">入场 反弹承压/破位回抽</text><circle cx="451.2" cy="498" r="5" fill="#dc2626"/><text x="451.2" y="520" fill="#374151" font-size="12" text-anchor="middle">止损 66,285</text><circle cx="712.0" cy="498" r="5" fill="#dc2626"/><text x="712.0" y="520" fill="#374151" font-size="12" text-anchor="middle">目标一 65,165</text><circle cx="814.0" cy="498" r="5" fill="#dc2626"/><text x="814.0" y="520" fill="#374151" font-size="12" text-anchor="middle">目标二 64,885</text>
</svg>