<svg xmlns="http://www.w3.org/2000/svg" width="1080" height="560" viewBox="0 0 1080 560">
<rect width="100%" height="100%" fill="#ffffff"/>
<text x="72" y="23" fill="#111827" font-size="21" font-weight="800">DRAM 小时线K线支撑压力图</text>
<text x="862" y="42" fill="#374151" font-size="15" text-anchor="end">最新价 69.38</text>
<line x1="72" y1="34" x2="72" y2="340" stroke="#d1d5db"/>
<line x1="72" y1="340" x2="862" y2="340" stroke="#d1d5db"/>
<line x1="72" y1="340.0" x2="862" y2="340.0" stroke="#f3f4f6"/>
<text x="8" y="345.0" fill="#4b5563" font-size="14">63.15</text>
<line x1="72" y1="263.5" x2="862" y2="263.5" stroke="#f3f4f6"/>
<text x="8" y="268.5" fill="#4b5563" font-size="14">65.82</text>
<line x1="72" y1="187.0" x2="862" y2="187.0" stroke="#f3f4f6"/>
<text x="8" y="192.0" fill="#4b5563" font-size="14">68.48</text>
<line x1="72" y1="110.5" x2="862" y2="110.5" stroke="#f3f4f6"/>
<text x="8" y="115.5" fill="#4b5563" font-size="14">71.15</text>
<line x1="72" y1="34.0" x2="862" y2="34.0" stroke="#f3f4f6"/>
<text x="8" y="39.0" fill="#4b5563" font-size="14">73.82</text>
<line x1="72.0" y1="293.6" x2="72.0" y2="301.1" stroke="#dc2626" stroke-width="1"/><rect x="69.3" y="295.4" width="5.4" height="3.2" fill="#dc2626" opacity="0.82" rx="1"/>
<line x1="80.9" y1="291.9" x2="80.9" y2="300.5" stroke="#16a34a" stroke-width="1"/><rect x="78.2" y="294.2" width="5.4" height="4.6" fill="#16a34a" opacity="0.82" rx="1"/>
<line x1="89.8" y1="293.1" x2="89.8" y2="318.9" stroke="#dc2626" stroke-width="1"/><rect x="87.0" y="294.5" width="5.4" height="11.2" fill="#dc2626" opacity="0.82" rx="1"/>
<line x1="98.6" y1="300.8" x2="98.6" y2="307.1" stroke="#16a34a" stroke-width="1"/><rect x="95.9" y="302.5" width="5.4" height="3.4" fill="#16a34a" opacity="0.82" rx="1"/>
<line x1="107.5" y1="296.5" x2="107.5" y2="305.4" stroke="#16a34a" stroke-width="1"/><rect x="104.8" y="299.1" width="5.4" height="3.7" fill="#16a34a" opacity="0.82" rx="1"/>
<line x1="116.4" y1="282.4" x2="116.4" y2="299.4" stroke="#16a34a" stroke-width="1"/><rect x="113.7" y="284.2" width="5.4" height="14.9" fill="#16a34a" opacity="0.82" rx="1"/>
<line x1="125.3" y1="282.4" x2="125.3" y2="294.8" stroke="#dc2626" stroke-width="1"/><rect x="122.5" y="283.9" width="5.4" height="8.6" fill="#dc2626" opacity="0.82" rx="1"/>
<line x1="134.1" y1="288.8" x2="134.1" y2="297.1" stroke="#16a34a" stroke-width="1"/><rect x="131.4" y="289.6" width="5.4" height="2.6" fill="#16a34a" opacity="0.82" rx="1"/>
<line x1="143.0" y1="271.2" x2="143.0" y2="291.3" stroke="#16a34a" stroke-width="1"/><rect x="140.3" y="273.8" width="5.4" height="15.8" fill="#16a34a" opacity="0.82" rx="1"/>
<line x1="151.9" y1="265.5" x2="151.9" y2="286.5" stroke="#dc2626" stroke-width="1"/><rect x="149.2" y="273.3" width="5.4" height="5.7" fill="#dc2626" opacity="0.82" rx="1"/>
<line x1="160.8" y1="273.5" x2="160.8" y2="285.3" stroke="#16a34a" stroke-width="1"/><rect x="158.0" y="276.4" width="5.4" height="2.6" fill="#16a34a" opacity="0.82" rx="1"/>
<line x1="169.6" y1="260.1" x2="169.6" y2="276.7" stroke="#16a34a" stroke-width="1"/><rect x="166.9" y="262.9" width="5.4" height="13.5" fill="#16a34a" opacity="0.82" rx="1"/>
<line x1="178.5" y1="259.8" x2="178.5" y2="265.2" stroke="#16a34a" stroke-width="1"/><rect x="175.8" y="260.6" width="5.4" height="2.6" fill="#16a34a" opacity="0.82" rx="1"/>
<line x1="187.4" y1="259.8" x2="187.4" y2="265.2" stroke="#dc2626" stroke-width="1"/><rect x="184.7" y="260.6" width="5.4" height="3.2" fill="#dc2626" opacity="0.82" rx="1"/>
<line x1="196.3" y1="259.2" x2="196.3" y2="266.7" stroke="#16a34a" stroke-width="1"/><rect x="193.5" y="260.6" width="5.4" height="2.9" fill="#16a34a" opacity="0.82" rx="1"/>
<line x1="205.1" y1="258.9" x2="205.1" y2="267.5" stroke="#16a34a" stroke-width="1"/><rect x="202.4" y="261.2" width="5.4" height="1.2" fill="#16a34a" opacity="0.82" rx="1"/>
<line x1="214.0" y1="259.2" x2="214.0" y2="265.5" stroke="#dc2626" stroke-width="1"/><rect x="211.3" y="261.8" width="5.4" height="3.2" fill="#dc2626" opacity="0.82" rx="1"/>
<line x1="222.9" y1="259.2" x2="222.9" y2="270.7" stroke="#16a34a" stroke-width="1"/><rect x="220.2" y="260.1" width="5.4" height="4.6" fill="#16a34a" opacity="0.82" rx="1"/>
<line x1="231.8" y1="252.0" x2="231.8" y2="260.9" stroke="#16a34a" stroke-width="1"/><rect x="229.1" y="254.0" width="5.4" height="5.7" fill="#16a34a" opacity="0.82" rx="1"/>
<line x1="240.7" y1="244.0" x2="240.7" y2="258.0" stroke="#16a34a" stroke-width="1"/><rect x="237.9" y="244.3" width="5.4" height="10.0" fill="#16a34a" opacity="0.82" rx="1"/>
<line x1="249.5" y1="241.4" x2="249.5" y2="254.0" stroke="#dc2626" stroke-width="1"/><rect x="246.8" y="244.3" width="5.4" height="2.6" fill="#dc2626" opacity="0.82" rx="1"/>
<line x1="258.4" y1="243.7" x2="258.4" y2="260.3" stroke="#dc2626" stroke-width="1"/><rect x="255.7" y="246.6" width="5.4" height="10.3" fill="#dc2626" opacity="0.82" rx="1"/>
<line x1="267.3" y1="251.7" x2="267.3" y2="258.3" stroke="#16a34a" stroke-width="1"/><rect x="264.6" y="255.5" width="5.4" height="1.7" fill="#16a34a" opacity="0.82" rx="1"/>
<line x1="276.2" y1="235.7" x2="276.2" y2="256.9" stroke="#16a34a" stroke-width="1"/><rect x="273.4" y="237.7" width="5.4" height="18.1" fill="#16a34a" opacity="0.82" rx="1"/>
<line x1="285.0" y1="208.4" x2="285.0" y2="241.7" stroke="#16a34a" stroke-width="1"/><rect x="282.3" y="226.2" width="5.4" height="11.2" fill="#16a34a" opacity="0.82" rx="1"/>
<line x1="293.9" y1="212.7" x2="293.9" y2="233.9" stroke="#dc2626" stroke-width="1"/><rect x="291.2" y="226.2" width="5.4" height="4.3" fill="#dc2626" opacity="0.82" rx="1"/>
<line x1="302.8" y1="215.3" x2="302.8" y2="238.0" stroke="#16a34a" stroke-width="1"/><rect x="300.1" y="215.3" width="5.4" height="15.2" fill="#16a34a" opacity="0.82" rx="1"/>
<line x1="311.7" y1="204.4" x2="311.7" y2="233.9" stroke="#dc2626" stroke-width="1"/><rect x="308.9" y="215.3" width="5.4" height="13.8" fill="#dc2626" opacity="0.82" rx="1"/>
<line x1="320.5" y1="212.4" x2="320.5" y2="230.5" stroke="#16a34a" stroke-width="1"/><rect x="317.8" y="218.1" width="5.4" height="10.3" fill="#16a34a" opacity="0.82" rx="1"/>
<line x1="329.4" y1="216.1" x2="329.4" y2="244.3" stroke="#dc2626" stroke-width="1"/><rect x="326.7" y="218.1" width="5.4" height="22.7" fill="#dc2626" opacity="0.82" rx="1"/>
<line x1="338.3" y1="228.2" x2="338.3" y2="246.6" stroke="#16a34a" stroke-width="1"/><rect x="335.6" y="232.2" width="5.4" height="8.9" fill="#16a34a" opacity="0.82" rx="1"/>
<line x1="347.2" y1="225.0" x2="347.2" y2="249.1" stroke="#dc2626" stroke-width="1"/><rect x="344.4" y="232.5" width="5.4" height="1.7" fill="#dc2626" opacity="0.82" rx="1"/>
<line x1="356.0" y1="209.0" x2="356.0" y2="234.2" stroke="#16a34a" stroke-width="1"/><rect x="353.3" y="216.1" width="5.4" height="17.8" fill="#16a34a" opacity="0.82" rx="1"/>
<line x1="364.9" y1="211.8" x2="364.9" y2="238.0" stroke="#dc2626" stroke-width="1"/><rect x="362.2" y="216.1" width="5.4" height="18.9" fill="#dc2626" opacity="0.82" rx="1"/>
<line x1="373.8" y1="233.9" x2="373.8" y2="255.5" stroke="#dc2626" stroke-width="1"/><rect x="371.1" y="235.4" width="5.4" height="13.5" fill="#dc2626" opacity="0.82" rx="1"/>
<line x1="382.7" y1="242.5" x2="382.7" y2="252.6" stroke="#16a34a" stroke-width="1"/><rect x="380.0" y="242.5" width="5.4" height="6.3" fill="#16a34a" opacity="0.82" rx="1"/>
<line x1="391.6" y1="242.0" x2="391.6" y2="258.0" stroke="#dc2626" stroke-width="1"/><rect x="388.8" y="242.8" width="5.4" height="12.9" fill="#dc2626" opacity="0.82" rx="1"/>
<line x1="400.4" y1="241.1" x2="400.4" y2="265.8" stroke="#16a34a" stroke-width="1"/><rect x="397.7" y="245.7" width="5.4" height="9.5" fill="#16a34a" opacity="0.82" rx="1"/>
<line x1="409.3" y1="173.7" x2="409.3" y2="249.7" stroke="#16a34a" stroke-width="1"/><rect x="406.6" y="178.8" width="5.4" height="66.6" fill="#16a34a" opacity="0.82" rx="1"/>
<line x1="418.2" y1="165.6" x2="418.2" y2="197.5" stroke="#dc2626" stroke-width="1"/><rect x="415.5" y="178.2" width="5.4" height="16.4" fill="#dc2626" opacity="0.82" rx="1"/>
<line x1="427.1" y1="183.4" x2="427.1" y2="241.1" stroke="#16a34a" stroke-width="1"/><rect x="424.3" y="193.2" width="5.4" height="1.2" fill="#16a34a" opacity="0.82" rx="1"/>
<line x1="435.9" y1="188.0" x2="435.9" y2="217.6" stroke="#dc2626" stroke-width="1"/><rect x="433.2" y="193.7" width="5.4" height="7.8" fill="#dc2626" opacity="0.82" rx="1"/>
<line x1="444.8" y1="199.8" x2="444.8" y2="217.6" stroke="#dc2626" stroke-width="1"/><rect x="442.1" y="201.8" width="5.4" height="11.2" fill="#dc2626" opacity="0.82" rx="1"/>
<line x1="453.7" y1="197.8" x2="453.7" y2="218.7" stroke="#16a34a" stroke-width="1"/><rect x="451.0" y="201.8" width="5.4" height="11.2" fill="#16a34a" opacity="0.82" rx="1"/>
<line x1="462.6" y1="197.2" x2="462.6" y2="210.7" stroke="#dc2626" stroke-width="1"/><rect x="459.8" y="201.5" width="5.4" height="1.2" fill="#dc2626" opacity="0.82" rx="1"/>
<line x1="471.4" y1="193.5" x2="471.4" y2="206.4" stroke="#16a34a" stroke-width="1"/><rect x="468.7" y="196.9" width="5.4" height="5.5" fill="#16a34a" opacity="0.82" rx="1"/>
<line x1="480.3" y1="195.2" x2="480.3" y2="208.4" stroke="#dc2626" stroke-width="1"/><rect x="477.6" y="197.2" width="5.4" height="6.3" fill="#dc2626" opacity="0.82" rx="1"/>
<line x1="489.2" y1="198.1" x2="489.2" y2="207.5" stroke="#16a34a" stroke-width="1"/><rect x="486.5" y="201.2" width="5.4" height="2.3" fill="#16a34a" opacity="0.82" rx="1"/>
<line x1="498.1" y1="192.6" x2="498.1" y2="202.1" stroke="#16a34a" stroke-width="1"/><rect x="495.3" y="197.5" width="5.4" height="3.2" fill="#16a34a" opacity="0.82" rx="1"/>
<line x1="506.9" y1="169.3" x2="506.9" y2="198.6" stroke="#16a34a" stroke-width="1"/><rect x="504.2" y="176.5" width="5.4" height="21.0" fill="#16a34a" opacity="0.82" rx="1"/>
<line x1="515.8" y1="170.8" x2="515.8" y2="190.3" stroke="#dc2626" stroke-width="1"/><rect x="513.1" y="176.5" width="5.4" height="6.0" fill="#dc2626" opacity="0.82" rx="1"/>
<line x1="524.7" y1="174.2" x2="524.7" y2="185.1" stroke="#16a34a" stroke-width="1"/><rect x="522.0" y="178.0" width="5.4" height="4.6" fill="#16a34a" opacity="0.82" rx="1"/>
<line x1="533.6" y1="160.2" x2="533.6" y2="179.7" stroke="#16a34a" stroke-width="1"/><rect x="530.9" y="171.1" width="5.4" height="6.6" fill="#16a34a" opacity="0.82" rx="1"/>
<line x1="542.4" y1="162.2" x2="542.4" y2="171.4" stroke="#16a34a" stroke-width="1"/><rect x="539.7" y="163.6" width="5.4" height="7.2" fill="#16a34a" opacity="0.82" rx="1"/>
<line x1="551.3" y1="130.6" x2="551.3" y2="173.7" stroke="#dc2626" stroke-width="1"/><rect x="548.6" y="163.6" width="5.4" height="6.9" fill="#dc2626" opacity="0.82" rx="1"/>
<line x1="560.2" y1="140.9" x2="560.2" y2="178.2" stroke="#16a34a" stroke-width="1"/><rect x="557.5" y="148.7" width="5.4" height="21.5" fill="#16a34a" opacity="0.82" rx="1"/>
<line x1="569.1" y1="128.6" x2="569.1" y2="148.4" stroke="#16a34a" stroke-width="1"/><rect x="566.4" y="133.2" width="5.4" height="14.9" fill="#16a34a" opacity="0.82" rx="1"/>
<line x1="578.0" y1="120.0" x2="578.0" y2="133.8" stroke="#16a34a" stroke-width="1"/><rect x="575.2" y="130.6" width="5.4" height="2.3" fill="#16a34a" opacity="0.82" rx="1"/>
<line x1="586.8" y1="121.4" x2="586.8" y2="134.6" stroke="#16a34a" stroke-width="1"/><rect x="584.1" y="127.4" width="5.4" height="3.4" fill="#16a34a" opacity="0.82" rx="1"/>
<line x1="595.7" y1="108.8" x2="595.7" y2="131.2" stroke="#16a34a" stroke-width="1"/><rect x="593.0" y="119.1" width="5.4" height="7.8" fill="#16a34a" opacity="0.82" rx="1"/>
<line x1="604.6" y1="109.1" x2="604.6" y2="121.7" stroke="#16a34a" stroke-width="1"/><rect x="601.9" y="110.8" width="5.4" height="7.5" fill="#16a34a" opacity="0.82" rx="1"/>
<line x1="613.5" y1="104.8" x2="613.5" y2="128.0" stroke="#dc2626" stroke-width="1"/><rect x="610.7" y="110.5" width="5.4" height="8.3" fill="#dc2626" opacity="0.82" rx="1"/>
<line x1="622.3" y1="110.2" x2="622.3" y2="122.3" stroke="#16a34a" stroke-width="1"/><rect x="619.6" y="113.9" width="5.4" height="5.5" fill="#16a34a" opacity="0.82" rx="1"/>
<line x1="631.2" y1="107.9" x2="631.2" y2="130.6" stroke="#dc2626" stroke-width="1"/><rect x="628.5" y="114.5" width="5.4" height="3.7" fill="#dc2626" opacity="0.82" rx="1"/>
<line x1="640.1" y1="114.5" x2="640.1" y2="125.4" stroke="#dc2626" stroke-width="1"/><rect x="637.4" y="118.5" width="5.4" height="1.2" fill="#dc2626" opacity="0.82" rx="1"/>
<line x1="649.0" y1="117.7" x2="649.0" y2="164.8" stroke="#dc2626" stroke-width="1"/><rect x="646.2" y="119.7" width="5.4" height="45.1" fill="#dc2626" opacity="0.82" rx="1"/>
<line x1="657.8" y1="144.1" x2="657.8" y2="183.1" stroke="#16a34a" stroke-width="1"/><rect x="655.1" y="149.5" width="5.4" height="14.9" fill="#16a34a" opacity="0.82" rx="1"/>
<line x1="666.7" y1="139.5" x2="666.7" y2="154.4" stroke="#16a34a" stroke-width="1"/><rect x="664.0" y="143.8" width="5.4" height="5.7" fill="#16a34a" opacity="0.82" rx="1"/>
<line x1="675.6" y1="116.0" x2="675.6" y2="148.1" stroke="#16a34a" stroke-width="1"/><rect x="672.9" y="122.3" width="5.4" height="21.5" fill="#16a34a" opacity="0.82" rx="1"/>
<line x1="684.5" y1="113.1" x2="684.5" y2="127.2" stroke="#16a34a" stroke-width="1"/><rect x="681.8" y="119.7" width="5.4" height="3.4" fill="#16a34a" opacity="0.82" rx="1"/>
<line x1="693.3" y1="114.8" x2="693.3" y2="137.2" stroke="#dc2626" stroke-width="1"/><rect x="690.6" y="120.0" width="5.4" height="16.4" fill="#dc2626" opacity="0.82" rx="1"/>
<line x1="702.2" y1="117.1" x2="702.2" y2="136.3" stroke="#16a34a" stroke-width="1"/><rect x="699.5" y="117.7" width="5.4" height="18.4" fill="#16a34a" opacity="0.82" rx="1"/>
<line x1="711.1" y1="113.1" x2="711.1" y2="120.0" stroke="#dc2626" stroke-width="1"/><rect x="708.4" y="117.7" width="5.4" height="1.2" fill="#dc2626" opacity="0.82" rx="1"/>
<line x1="720.0" y1="65.1" x2="720.0" y2="118.3" stroke="#16a34a" stroke-width="1"/><rect x="717.3" y="68.9" width="5.4" height="48.8" fill="#16a34a" opacity="0.82" rx="1"/>
<line x1="728.9" y1="60.6" x2="728.9" y2="80.1" stroke="#dc2626" stroke-width="1"/><rect x="726.1" y="69.5" width="5.4" height="6.9" fill="#dc2626" opacity="0.82" rx="1"/>
<line x1="737.7" y1="64.9" x2="737.7" y2="83.2" stroke="#16a34a" stroke-width="1"/><rect x="735.0" y="66.0" width="5.4" height="11.2" fill="#16a34a" opacity="0.82" rx="1"/>
<line x1="746.6" y1="55.1" x2="746.6" y2="71.5" stroke="#16a34a" stroke-width="1"/><rect x="743.9" y="62.9" width="5.4" height="3.7" fill="#16a34a" opacity="0.82" rx="1"/>
<line x1="755.5" y1="59.1" x2="755.5" y2="100.5" stroke="#dc2626" stroke-width="1"/><rect x="752.8" y="63.1" width="5.4" height="29.6" fill="#dc2626" opacity="0.82" rx="1"/>
<line x1="764.4" y1="66.3" x2="764.4" y2="109.9" stroke="#16a34a" stroke-width="1"/><rect x="761.6" y="91.8" width="5.4" height="1.2" fill="#16a34a" opacity="0.82" rx="1"/>
<line x1="773.2" y1="88.4" x2="773.2" y2="158.7" stroke="#dc2626" stroke-width="1"/><rect x="770.5" y="91.8" width="5.4" height="59.7" fill="#dc2626" opacity="0.82" rx="1"/>
<line x1="782.1" y1="136.0" x2="782.1" y2="207.2" stroke="#dc2626" stroke-width="1"/><rect x="779.4" y="151.6" width="5.4" height="26.4" fill="#dc2626" opacity="0.82" rx="1"/>
<line x1="791.0" y1="146.7" x2="791.0" y2="178.8" stroke="#16a34a" stroke-width="1"/><rect x="788.3" y="162.7" width="5.4" height="15.8" fill="#16a34a" opacity="0.82" rx="1"/>
<line x1="799.9" y1="155.0" x2="799.9" y2="181.7" stroke="#16a34a" stroke-width="1"/><rect x="797.1" y="162.5" width="5.4" height="1.2" fill="#16a34a" opacity="0.82" rx="1"/>
<line x1="808.7" y1="157.0" x2="808.7" y2="190.0" stroke="#dc2626" stroke-width="1"/><rect x="806.0" y="162.7" width="5.4" height="22.4" fill="#dc2626" opacity="0.82" rx="1"/>
<line x1="817.6" y1="172.2" x2="817.6" y2="200.3" stroke="#dc2626" stroke-width="1"/><rect x="814.9" y="185.1" width="5.4" height="13.5" fill="#dc2626" opacity="0.82" rx="1"/>
<line x1="826.5" y1="153.8" x2="826.5" y2="199.5" stroke="#16a34a" stroke-width="1"/><rect x="823.8" y="193.5" width="5.4" height="5.5" fill="#16a34a" opacity="0.82" rx="1"/>
<line x1="835.4" y1="179.7" x2="835.4" y2="194.0" stroke="#16a34a" stroke-width="1"/><rect x="832.6" y="187.1" width="5.4" height="6.3" fill="#16a34a" opacity="0.82" rx="1"/>
<line x1="844.2" y1="166.5" x2="844.2" y2="193.7" stroke="#16a34a" stroke-width="1"/><rect x="841.5" y="168.5" width="5.4" height="18.1" fill="#16a34a" opacity="0.82" rx="1"/>
<line x1="853.1" y1="153.3" x2="853.1" y2="182.8" stroke="#dc2626" stroke-width="1"/><rect x="850.4" y="168.8" width="5.4" height="6.6" fill="#dc2626" opacity="0.82" rx="1"/>
<line x1="862.0" y1="160.4" x2="862.0" y2="176.2" stroke="#16a34a" stroke-width="1"/><rect x="859.3" y="161.3" width="5.4" height="14.1" fill="#16a34a" opacity="0.82" rx="1"/>
<line x1="72" y1="214.4" x2="862" y2="214.4" stroke="#16a34a" stroke-width="1.8" stroke-dasharray="6 4" /><rect x="874" y="194.4" width="166" height="23" rx="5" fill="#ffffff" stroke="#16a34a" opacity="0.97"/><text x="881" y="210.4" fill="#16a34a" font-size="15" font-weight="700">日内支撑 67.53</text>
<line x1="72" y1="72.8" x2="862" y2="72.8" stroke="#dc2626" stroke-width="1.8" stroke-dasharray="6 4" /><rect x="874" y="52.8" width="166" height="23" rx="5" fill="#ffffff" stroke="#dc2626" opacity="0.97"/><text x="881" y="68.8" fill="#dc2626" font-size="15" font-weight="700">日内压力 72.46</text>
<line x1="72" y1="161.3" x2="862" y2="161.3" stroke="#111827" stroke-width="1.8" stroke-dasharray="2 2" /><rect x="874" y="141.3" width="166" height="23" rx="5" fill="#ffffff" stroke="#111827" opacity="0.97"/><text x="881" y="157.3" fill="#111827" font-size="15" font-weight="700">现价 69.38</text>
<text x="72" y="396" fill="#16a34a" font-size="14" font-weight="700">日内做多计划</text><rect x="72" y="404" width="790" height="48" rx="6" fill="#f9fafb" stroke="#e5e7eb"/><line x1="94" y1="412" x2="840" y2="412" stroke="#16a34a" stroke-width="3"/><circle cx="132.0" cy="412" r="5" fill="#16a34a"/><text x="132.0" y="434" fill="#374151" font-size="12" text-anchor="middle">入场 止跌/突破回踩</text><circle cx="451.2" cy="412" r="5" fill="#16a34a"/><text x="451.2" y="434" fill="#374151" font-size="12" text-anchor="middle">止损 67.53</text><circle cx="712.0" cy="412" r="5" fill="#16a34a"/><text x="712.0" y="434" fill="#374151" font-size="12" text-anchor="middle">目标一 72.46</text><circle cx="814.0" cy="412" r="5" fill="#16a34a"/><text x="814.0" y="434" fill="#374151" font-size="12" text-anchor="middle">目标二 73.69</text>
<text x="72" y="482" fill="#dc2626" font-size="14" font-weight="700">日内做空计划</text><rect x="72" y="490" width="790" height="48" rx="6" fill="#f9fafb" stroke="#e5e7eb"/><line x1="94" y1="498" x2="840" y2="498" stroke="#dc2626" stroke-width="3"/><circle cx="132.0" cy="498" r="5" fill="#dc2626"/><text x="132.0" y="520" fill="#374151" font-size="12" text-anchor="middle">入场 反弹承压/破位回抽</text><circle cx="451.2" cy="498" r="5" fill="#dc2626"/><text x="451.2" y="520" fill="#374151" font-size="12" text-anchor="middle">止损 72.46</text><circle cx="712.0" cy="498" r="5" fill="#dc2626"/><text x="712.0" y="520" fill="#374151" font-size="12" text-anchor="middle">目标一 67.53</text><circle cx="814.0" cy="498" r="5" fill="#dc2626"/><text x="814.0" y="520" fill="#374151" font-size="12" text-anchor="middle">目标二 66.30</text>
</svg>