<svg xmlns="http://www.w3.org/2000/svg" width="1080" height="560" viewBox="0 0 1080 560">
<rect width="100%" height="100%" fill="#ffffff"/>
<text x="72" y="23" fill="#111827" font-size="21" font-weight="800">HYPE 小时线K线支撑压力图</text>
<text x="862" y="42" fill="#374151" font-size="15" text-anchor="end">最新价 73.58</text>
<line x1="72" y1="34" x2="72" y2="340" stroke="#d1d5db"/>
<line x1="72" y1="340" x2="862" y2="340" stroke="#d1d5db"/>
<line x1="72" y1="340.0" x2="862" y2="340.0" stroke="#f3f4f6"/>
<text x="8" y="345.0" fill="#4b5563" font-size="14">57.48</text>
<line x1="72" y1="263.5" x2="862" y2="263.5" stroke="#f3f4f6"/>
<text x="8" y="268.5" fill="#4b5563" font-size="14">62.72</text>
<line x1="72" y1="187.0" x2="862" y2="187.0" stroke="#f3f4f6"/>
<text x="8" y="192.0" fill="#4b5563" font-size="14">67.96</text>
<line x1="72" y1="110.5" x2="862" y2="110.5" stroke="#f3f4f6"/>
<text x="8" y="115.5" fill="#4b5563" font-size="14">73.20</text>
<line x1="72" y1="34.0" x2="862" y2="34.0" stroke="#f3f4f6"/>
<text x="8" y="39.0" fill="#4b5563" font-size="14">78.45</text>
<line x1="72.0" y1="299.2" x2="72.0" y2="318.6" stroke="#16a34a" stroke-width="1"/><rect x="69.3" y="299.4" width="5.4" height="18.1" fill="#16a34a" opacity="0.82" rx="1"/>
<line x1="80.9" y1="296.4" x2="80.9" y2="306.6" stroke="#dc2626" stroke-width="1"/><rect x="78.2" y="299.3" width="5.4" height="4.9" fill="#dc2626" opacity="0.82" rx="1"/>
<line x1="89.8" y1="298.9" x2="89.8" y2="310.8" stroke="#16a34a" stroke-width="1"/><rect x="87.0" y="300.4" width="5.4" height="3.9" fill="#16a34a" opacity="0.82" rx="1"/>
<line x1="98.6" y1="299.6" x2="98.6" y2="318.2" stroke="#dc2626" stroke-width="1"/><rect x="95.9" y="300.4" width="5.4" height="17.4" fill="#dc2626" opacity="0.82" rx="1"/>
<line x1="107.5" y1="305.1" x2="107.5" y2="318.9" stroke="#16a34a" stroke-width="1"/><rect x="104.8" y="305.2" width="5.4" height="12.6" fill="#16a34a" opacity="0.82" rx="1"/>
<line x1="116.4" y1="303.2" x2="116.4" y2="308.3" stroke="#16a34a" stroke-width="1"/><rect x="113.7" y="304.7" width="5.4" height="1.2" fill="#16a34a" opacity="0.82" rx="1"/>
<line x1="125.3" y1="303.0" x2="125.3" y2="308.4" stroke="#16a34a" stroke-width="1"/><rect x="122.5" y="304.3" width="5.4" height="1.2" fill="#16a34a" opacity="0.82" rx="1"/>
<line x1="134.1" y1="293.0" x2="134.1" y2="306.2" stroke="#16a34a" stroke-width="1"/><rect x="131.4" y="295.8" width="5.4" height="8.6" fill="#16a34a" opacity="0.82" rx="1"/>
<line x1="143.0" y1="295.2" x2="143.0" y2="299.9" stroke="#dc2626" stroke-width="1"/><rect x="140.3" y="295.8" width="5.4" height="3.9" fill="#dc2626" opacity="0.82" rx="1"/>
<line x1="151.9" y1="290.3" x2="151.9" y2="301.0" stroke="#16a34a" stroke-width="1"/><rect x="149.2" y="293.0" width="5.4" height="6.8" fill="#16a34a" opacity="0.82" rx="1"/>
<line x1="160.8" y1="289.4" x2="160.8" y2="297.3" stroke="#16a34a" stroke-width="1"/><rect x="158.0" y="290.1" width="5.4" height="3.1" fill="#16a34a" opacity="0.82" rx="1"/>
<line x1="169.6" y1="287.2" x2="169.6" y2="295.7" stroke="#dc2626" stroke-width="1"/><rect x="166.9" y="290.2" width="5.4" height="4.2" fill="#dc2626" opacity="0.82" rx="1"/>
<line x1="178.5" y1="285.1" x2="178.5" y2="295.5" stroke="#16a34a" stroke-width="1"/><rect x="175.8" y="290.9" width="5.4" height="3.4" fill="#16a34a" opacity="0.82" rx="1"/>
<line x1="187.4" y1="289.6" x2="187.4" y2="298.4" stroke="#dc2626" stroke-width="1"/><rect x="184.7" y="291.0" width="5.4" height="3.9" fill="#dc2626" opacity="0.82" rx="1"/>
<line x1="196.3" y1="293.9" x2="196.3" y2="303.7" stroke="#dc2626" stroke-width="1"/><rect x="193.5" y="294.7" width="5.4" height="7.0" fill="#dc2626" opacity="0.82" rx="1"/>
<line x1="205.1" y1="300.1" x2="205.1" y2="305.4" stroke="#dc2626" stroke-width="1"/><rect x="202.4" y="301.7" width="5.4" height="2.3" fill="#dc2626" opacity="0.82" rx="1"/>
<line x1="214.0" y1="298.7" x2="214.0" y2="308.0" stroke="#dc2626" stroke-width="1"/><rect x="211.3" y="304.0" width="5.4" height="1.2" fill="#dc2626" opacity="0.82" rx="1"/>
<line x1="222.9" y1="295.3" x2="222.9" y2="306.4" stroke="#16a34a" stroke-width="1"/><rect x="220.2" y="302.0" width="5.4" height="2.8" fill="#16a34a" opacity="0.82" rx="1"/>
<line x1="231.8" y1="298.2" x2="231.8" y2="307.4" stroke="#16a34a" stroke-width="1"/><rect x="229.1" y="299.6" width="5.4" height="2.4" fill="#16a34a" opacity="0.82" rx="1"/>
<line x1="240.7" y1="289.8" x2="240.7" y2="304.6" stroke="#16a34a" stroke-width="1"/><rect x="237.9" y="290.6" width="5.4" height="8.9" fill="#16a34a" opacity="0.82" rx="1"/>
<line x1="249.5" y1="279.7" x2="249.5" y2="296.0" stroke="#16a34a" stroke-width="1"/><rect x="246.8" y="288.4" width="5.4" height="2.4" fill="#16a34a" opacity="0.82" rx="1"/>
<line x1="258.4" y1="284.6" x2="258.4" y2="294.9" stroke="#16a34a" stroke-width="1"/><rect x="255.7" y="288.1" width="5.4" height="1.2" fill="#16a34a" opacity="0.82" rx="1"/>
<line x1="267.3" y1="283.9" x2="267.3" y2="293.2" stroke="#dc2626" stroke-width="1"/><rect x="264.6" y="288.2" width="5.4" height="2.1" fill="#dc2626" opacity="0.82" rx="1"/>
<line x1="276.2" y1="284.1" x2="276.2" y2="294.2" stroke="#16a34a" stroke-width="1"/><rect x="273.4" y="287.7" width="5.4" height="2.6" fill="#16a34a" opacity="0.82" rx="1"/>
<line x1="285.0" y1="287.3" x2="285.0" y2="308.3" stroke="#dc2626" stroke-width="1"/><rect x="282.3" y="287.7" width="5.4" height="10.7" fill="#dc2626" opacity="0.82" rx="1"/>
<line x1="293.9" y1="292.4" x2="293.9" y2="299.7" stroke="#dc2626" stroke-width="1"/><rect x="291.2" y="298.3" width="5.4" height="1.2" fill="#dc2626" opacity="0.82" rx="1"/>
<line x1="302.8" y1="296.0" x2="302.8" y2="304.5" stroke="#dc2626" stroke-width="1"/><rect x="300.1" y="299.5" width="5.4" height="4.4" fill="#dc2626" opacity="0.82" rx="1"/>
<line x1="311.7" y1="298.1" x2="311.7" y2="307.2" stroke="#dc2626" stroke-width="1"/><rect x="308.9" y="303.9" width="5.4" height="2.6" fill="#dc2626" opacity="0.82" rx="1"/>
<line x1="320.5" y1="296.5" x2="320.5" y2="309.1" stroke="#16a34a" stroke-width="1"/><rect x="317.8" y="297.7" width="5.4" height="8.8" fill="#16a34a" opacity="0.82" rx="1"/>
<line x1="329.4" y1="291.8" x2="329.4" y2="300.6" stroke="#16a34a" stroke-width="1"/><rect x="326.7" y="295.7" width="5.4" height="2.0" fill="#16a34a" opacity="0.82" rx="1"/>
<line x1="338.3" y1="292.4" x2="338.3" y2="300.1" stroke="#dc2626" stroke-width="1"/><rect x="335.6" y="295.8" width="5.4" height="1.2" fill="#dc2626" opacity="0.82" rx="1"/>
<line x1="347.2" y1="249.3" x2="347.2" y2="298.1" stroke="#16a34a" stroke-width="1"/><rect x="344.4" y="259.0" width="5.4" height="37.1" fill="#16a34a" opacity="0.82" rx="1"/>
<line x1="356.0" y1="249.9" x2="356.0" y2="270.0" stroke="#dc2626" stroke-width="1"/><rect x="353.3" y="258.9" width="5.4" height="1.2" fill="#dc2626" opacity="0.82" rx="1"/>
<line x1="364.9" y1="242.8" x2="364.9" y2="259.8" stroke="#16a34a" stroke-width="1"/><rect x="362.2" y="245.9" width="5.4" height="13.1" fill="#16a34a" opacity="0.82" rx="1"/>
<line x1="373.8" y1="240.9" x2="373.8" y2="252.1" stroke="#16a34a" stroke-width="1"/><rect x="371.1" y="245.7" width="5.4" height="1.2" fill="#16a34a" opacity="0.82" rx="1"/>
<line x1="382.7" y1="244.9" x2="382.7" y2="257.7" stroke="#dc2626" stroke-width="1"/><rect x="380.0" y="245.7" width="5.4" height="5.2" fill="#dc2626" opacity="0.82" rx="1"/>
<line x1="391.6" y1="230.2" x2="391.6" y2="253.2" stroke="#16a34a" stroke-width="1"/><rect x="388.8" y="233.2" width="5.4" height="17.6" fill="#16a34a" opacity="0.82" rx="1"/>
<line x1="400.4" y1="225.4" x2="400.4" y2="236.6" stroke="#16a34a" stroke-width="1"/><rect x="397.7" y="225.4" width="5.4" height="7.9" fill="#16a34a" opacity="0.82" rx="1"/>
<line x1="409.3" y1="218.5" x2="409.3" y2="233.7" stroke="#dc2626" stroke-width="1"/><rect x="406.6" y="225.4" width="5.4" height="7.2" fill="#dc2626" opacity="0.82" rx="1"/>
<line x1="418.2" y1="228.3" x2="418.2" y2="236.8" stroke="#dc2626" stroke-width="1"/><rect x="415.5" y="232.6" width="5.4" height="1.2" fill="#dc2626" opacity="0.82" rx="1"/>
<line x1="427.1" y1="226.3" x2="427.1" y2="238.8" stroke="#16a34a" stroke-width="1"/><rect x="424.3" y="227.3" width="5.4" height="6.5" fill="#16a34a" opacity="0.82" rx="1"/>
<line x1="435.9" y1="217.3" x2="435.9" y2="232.9" stroke="#16a34a" stroke-width="1"/><rect x="433.2" y="226.8" width="5.4" height="1.2" fill="#16a34a" opacity="0.82" rx="1"/>
<line x1="444.8" y1="214.7" x2="444.8" y2="228.2" stroke="#16a34a" stroke-width="1"/><rect x="442.1" y="215.1" width="5.4" height="11.7" fill="#16a34a" opacity="0.82" rx="1"/>
<line x1="453.7" y1="206.6" x2="453.7" y2="220.5" stroke="#16a34a" stroke-width="1"/><rect x="451.0" y="207.9" width="5.4" height="7.2" fill="#16a34a" opacity="0.82" rx="1"/>
<line x1="462.6" y1="184.7" x2="462.6" y2="209.5" stroke="#16a34a" stroke-width="1"/><rect x="459.8" y="188.9" width="5.4" height="19.0" fill="#16a34a" opacity="0.82" rx="1"/>
<line x1="471.4" y1="177.8" x2="471.4" y2="191.7" stroke="#16a34a" stroke-width="1"/><rect x="468.7" y="187.1" width="5.4" height="1.8" fill="#16a34a" opacity="0.82" rx="1"/>
<line x1="480.3" y1="181.8" x2="480.3" y2="197.3" stroke="#16a34a" stroke-width="1"/><rect x="477.6" y="185.7" width="5.4" height="1.3" fill="#16a34a" opacity="0.82" rx="1"/>
<line x1="489.2" y1="182.9" x2="489.2" y2="202.9" stroke="#dc2626" stroke-width="1"/><rect x="486.5" y="185.8" width="5.4" height="15.7" fill="#dc2626" opacity="0.82" rx="1"/>
<line x1="498.1" y1="184.6" x2="498.1" y2="206.4" stroke="#16a34a" stroke-width="1"/><rect x="495.3" y="186.7" width="5.4" height="14.9" fill="#16a34a" opacity="0.82" rx="1"/>
<line x1="506.9" y1="180.0" x2="506.9" y2="194.7" stroke="#16a34a" stroke-width="1"/><rect x="504.2" y="186.2" width="5.4" height="1.2" fill="#16a34a" opacity="0.82" rx="1"/>
<line x1="515.8" y1="179.8" x2="515.8" y2="193.4" stroke="#16a34a" stroke-width="1"/><rect x="513.1" y="180.8" width="5.4" height="5.5" fill="#16a34a" opacity="0.82" rx="1"/>
<line x1="524.7" y1="176.2" x2="524.7" y2="188.4" stroke="#dc2626" stroke-width="1"/><rect x="522.0" y="180.8" width="5.4" height="4.3" fill="#dc2626" opacity="0.82" rx="1"/>
<line x1="533.6" y1="181.1" x2="533.6" y2="191.3" stroke="#dc2626" stroke-width="1"/><rect x="530.9" y="185.0" width="5.4" height="2.0" fill="#dc2626" opacity="0.82" rx="1"/>
<line x1="542.4" y1="183.1" x2="542.4" y2="201.0" stroke="#dc2626" stroke-width="1"/><rect x="539.7" y="187.0" width="5.4" height="12.4" fill="#dc2626" opacity="0.82" rx="1"/>
<line x1="551.3" y1="191.8" x2="551.3" y2="201.0" stroke="#16a34a" stroke-width="1"/><rect x="548.6" y="195.3" width="5.4" height="4.5" fill="#16a34a" opacity="0.82" rx="1"/>
<line x1="560.2" y1="183.6" x2="560.2" y2="196.5" stroke="#16a34a" stroke-width="1"/><rect x="557.5" y="185.3" width="5.4" height="10.0" fill="#16a34a" opacity="0.82" rx="1"/>
<line x1="569.1" y1="180.9" x2="569.1" y2="209.5" stroke="#dc2626" stroke-width="1"/><rect x="566.4" y="185.3" width="5.4" height="24.1" fill="#dc2626" opacity="0.82" rx="1"/>
<line x1="578.0" y1="201.8" x2="578.0" y2="214.7" stroke="#16a34a" stroke-width="1"/><rect x="575.2" y="202.7" width="5.4" height="6.7" fill="#16a34a" opacity="0.82" rx="1"/>
<line x1="586.8" y1="192.8" x2="586.8" y2="210.4" stroke="#16a34a" stroke-width="1"/><rect x="584.1" y="196.1" width="5.4" height="6.5" fill="#16a34a" opacity="0.82" rx="1"/>
<line x1="595.7" y1="190.8" x2="595.7" y2="199.8" stroke="#16a34a" stroke-width="1"/><rect x="593.0" y="196.1" width="5.4" height="1.2" fill="#16a34a" opacity="0.82" rx="1"/>
<line x1="604.6" y1="191.8" x2="604.6" y2="203.3" stroke="#16a34a" stroke-width="1"/><rect x="601.9" y="193.7" width="5.4" height="2.4" fill="#16a34a" opacity="0.82" rx="1"/>
<line x1="613.5" y1="160.2" x2="613.5" y2="195.3" stroke="#16a34a" stroke-width="1"/><rect x="610.7" y="160.5" width="5.4" height="33.3" fill="#16a34a" opacity="0.82" rx="1"/>
<line x1="622.3" y1="149.5" x2="622.3" y2="171.1" stroke="#16a34a" stroke-width="1"/><rect x="619.6" y="151.2" width="5.4" height="9.1" fill="#16a34a" opacity="0.82" rx="1"/>
<line x1="631.2" y1="123.9" x2="631.2" y2="151.8" stroke="#16a34a" stroke-width="1"/><rect x="628.5" y="130.4" width="5.4" height="20.8" fill="#16a34a" opacity="0.82" rx="1"/>
<line x1="640.1" y1="116.6" x2="640.1" y2="135.1" stroke="#16a34a" stroke-width="1"/><rect x="637.4" y="117.4" width="5.4" height="13.0" fill="#16a34a" opacity="0.82" rx="1"/>
<line x1="649.0" y1="112.0" x2="649.0" y2="130.2" stroke="#16a34a" stroke-width="1"/><rect x="646.2" y="114.5" width="5.4" height="2.8" fill="#16a34a" opacity="0.82" rx="1"/>
<line x1="657.8" y1="97.3" x2="657.8" y2="120.4" stroke="#16a34a" stroke-width="1"/><rect x="655.1" y="102.9" width="5.4" height="11.1" fill="#16a34a" opacity="0.82" rx="1"/>
<line x1="666.7" y1="99.3" x2="666.7" y2="113.1" stroke="#dc2626" stroke-width="1"/><rect x="664.0" y="102.9" width="5.4" height="3.7" fill="#dc2626" opacity="0.82" rx="1"/>
<line x1="675.6" y1="63.2" x2="675.6" y2="109.5" stroke="#16a34a" stroke-width="1"/><rect x="672.9" y="78.4" width="5.4" height="28.2" fill="#16a34a" opacity="0.82" rx="1"/>
<line x1="684.5" y1="67.9" x2="684.5" y2="91.6" stroke="#16a34a" stroke-width="1"/><rect x="681.8" y="75.0" width="5.4" height="3.5" fill="#16a34a" opacity="0.82" rx="1"/>
<line x1="693.3" y1="55.1" x2="693.3" y2="86.0" stroke="#16a34a" stroke-width="1"/><rect x="690.6" y="55.2" width="5.4" height="19.7" fill="#16a34a" opacity="0.82" rx="1"/>
<line x1="702.2" y1="55.1" x2="702.2" y2="79.3" stroke="#dc2626" stroke-width="1"/><rect x="699.5" y="55.2" width="5.4" height="17.4" fill="#dc2626" opacity="0.82" rx="1"/>
<line x1="711.1" y1="61.1" x2="711.1" y2="109.9" stroke="#dc2626" stroke-width="1"/><rect x="708.4" y="72.6" width="5.4" height="34.6" fill="#dc2626" opacity="0.82" rx="1"/>
<line x1="720.0" y1="82.6" x2="720.0" y2="108.8" stroke="#16a34a" stroke-width="1"/><rect x="717.3" y="85.3" width="5.4" height="21.8" fill="#16a34a" opacity="0.82" rx="1"/>
<line x1="728.9" y1="79.5" x2="728.9" y2="108.1" stroke="#dc2626" stroke-width="1"/><rect x="726.1" y="85.3" width="5.4" height="18.4" fill="#dc2626" opacity="0.82" rx="1"/>
<line x1="737.7" y1="94.7" x2="737.7" y2="117.5" stroke="#16a34a" stroke-width="1"/><rect x="735.0" y="99.1" width="5.4" height="4.6" fill="#16a34a" opacity="0.82" rx="1"/>
<line x1="746.6" y1="84.9" x2="746.6" y2="122.9" stroke="#dc2626" stroke-width="1"/><rect x="743.9" y="99.1" width="5.4" height="17.4" fill="#dc2626" opacity="0.82" rx="1"/>
<line x1="755.5" y1="107.5" x2="755.5" y2="127.5" stroke="#dc2626" stroke-width="1"/><rect x="752.8" y="116.5" width="5.4" height="5.2" fill="#dc2626" opacity="0.82" rx="1"/>
<line x1="764.4" y1="107.6" x2="764.4" y2="126.5" stroke="#16a34a" stroke-width="1"/><rect x="761.6" y="108.3" width="5.4" height="13.6" fill="#16a34a" opacity="0.82" rx="1"/>
<line x1="773.2" y1="103.6" x2="773.2" y2="116.6" stroke="#16a34a" stroke-width="1"/><rect x="770.5" y="107.0" width="5.4" height="1.2" fill="#16a34a" opacity="0.82" rx="1"/>
<line x1="782.1" y1="99.2" x2="782.1" y2="114.4" stroke="#dc2626" stroke-width="1"/><rect x="779.4" y="107.1" width="5.4" height="1.2" fill="#dc2626" opacity="0.82" rx="1"/>
<line x1="791.0" y1="101.7" x2="791.0" y2="114.9" stroke="#16a34a" stroke-width="1"/><rect x="788.3" y="105.0" width="5.4" height="2.2" fill="#16a34a" opacity="0.82" rx="1"/>
<line x1="799.9" y1="100.7" x2="799.9" y2="121.4" stroke="#dc2626" stroke-width="1"/><rect x="797.1" y="105.0" width="5.4" height="11.9" fill="#dc2626" opacity="0.82" rx="1"/>
<line x1="808.7" y1="87.1" x2="808.7" y2="116.9" stroke="#16a34a" stroke-width="1"/><rect x="806.0" y="93.0" width="5.4" height="23.8" fill="#16a34a" opacity="0.82" rx="1"/>
<line x1="817.6" y1="85.6" x2="817.6" y2="97.7" stroke="#16a34a" stroke-width="1"/><rect x="814.9" y="86.6" width="5.4" height="6.5" fill="#16a34a" opacity="0.82" rx="1"/>
<line x1="826.5" y1="83.1" x2="826.5" y2="94.5" stroke="#dc2626" stroke-width="1"/><rect x="823.8" y="86.7" width="5.4" height="5.4" fill="#dc2626" opacity="0.82" rx="1"/>
<line x1="835.4" y1="79.4" x2="835.4" y2="94.4" stroke="#16a34a" stroke-width="1"/><rect x="832.6" y="91.5" width="5.4" height="1.2" fill="#16a34a" opacity="0.82" rx="1"/>
<line x1="844.2" y1="87.8" x2="844.2" y2="107.1" stroke="#dc2626" stroke-width="1"/><rect x="841.5" y="91.4" width="5.4" height="3.0" fill="#dc2626" opacity="0.82" rx="1"/>
<line x1="853.1" y1="93.8" x2="853.1" y2="116.4" stroke="#dc2626" stroke-width="1"/><rect x="850.4" y="94.4" width="5.4" height="13.0" fill="#dc2626" opacity="0.82" rx="1"/>
<line x1="862.0" y1="105.0" x2="862.0" y2="108.1" stroke="#16a34a" stroke-width="1"/><rect x="859.3" y="105.0" width="5.4" height="2.5" fill="#16a34a" opacity="0.82" rx="1"/>
<line x1="72" y1="132.1" x2="862" y2="132.1" stroke="#16a34a" stroke-width="1.8" stroke-dasharray="6 4" /><rect x="874" y="112.1" width="166" height="23" rx="5" fill="#ffffff" stroke="#16a34a" opacity="0.97"/><text x="881" y="128.1" fill="#16a34a" font-size="15" font-weight="700">日内支撑 71.73</text>
<line x1="72" y1="60.0" x2="862" y2="60.0" stroke="#dc2626" stroke-width="1.8" stroke-dasharray="6 4" /><rect x="874" y="40.0" width="166" height="23" rx="5" fill="#ffffff" stroke="#dc2626" opacity="0.97"/><text x="881" y="56.0" fill="#dc2626" font-size="15" font-weight="700">日内压力 76.67</text>
<line x1="72" y1="105.0" x2="862" y2="105.0" stroke="#111827" stroke-width="1.8" stroke-dasharray="2 2" /><rect x="874" y="85.0" width="166" height="23" rx="5" fill="#ffffff" stroke="#111827" opacity="0.97"/><text x="881" y="101.0" fill="#111827" font-size="15" font-weight="700">现价 73.58</text>
<text x="72" y="396" fill="#16a34a" font-size="14" font-weight="700">日内做多计划</text><rect x="72" y="404" width="790" height="48" rx="6" fill="#f9fafb" stroke="#e5e7eb"/><line x1="94" y1="412" x2="840" y2="412" stroke="#16a34a" stroke-width="3"/><circle cx="132.0" cy="412" r="5" fill="#16a34a"/><text x="132.0" y="434" fill="#374151" font-size="12" text-anchor="middle">入场 止跌/突破回踩</text><circle cx="451.2" cy="412" r="5" fill="#16a34a"/><text x="451.2" y="434" fill="#374151" font-size="12" text-anchor="middle">止损 71.73</text><circle cx="712.0" cy="412" r="5" fill="#16a34a"/><text x="712.0" y="434" fill="#374151" font-size="12" text-anchor="middle">目标一 76.67</text><circle cx="814.0" cy="412" r="5" fill="#16a34a"/><text x="814.0" y="434" fill="#374151" font-size="12" text-anchor="middle">目标二 77.90</text>
<text x="72" y="482" fill="#dc2626" font-size="14" font-weight="700">日内做空计划</text><rect x="72" y="490" width="790" height="48" rx="6" fill="#f9fafb" stroke="#e5e7eb"/><line x1="94" y1="498" x2="840" y2="498" stroke="#dc2626" stroke-width="3"/><circle cx="132.0" cy="498" r="5" fill="#dc2626"/><text x="132.0" y="520" fill="#374151" font-size="12" text-anchor="middle">入场 反弹承压/破位回抽</text><circle cx="451.2" cy="498" r="5" fill="#dc2626"/><text x="451.2" y="520" fill="#374151" font-size="12" text-anchor="middle">止损 76.67</text><circle cx="712.0" cy="498" r="5" fill="#dc2626"/><text x="712.0" y="520" fill="#374151" font-size="12" text-anchor="middle">目标一 71.73</text><circle cx="814.0" cy="498" r="5" fill="#dc2626"/><text x="814.0" y="520" fill="#374151" font-size="12" text-anchor="middle">目标二 70.49</text>
</svg>