<svg xmlns="http://www.w3.org/2000/svg" width="1080" height="560" viewBox="0 0 1080 560">
<rect width="100%" height="100%" fill="#ffffff"/>
<text x="72" y="23" fill="#111827" font-size="21" font-weight="800">DRAM 小时线K线支撑压力图</text>
<text x="862" y="42" fill="#374151" font-size="15" text-anchor="end">最新价 72.01</text>
<line x1="72" y1="34" x2="72" y2="340" stroke="#d1d5db"/>
<line x1="72" y1="340" x2="862" y2="340" stroke="#d1d5db"/>
<line x1="72" y1="340.0" x2="862" y2="340.0" stroke="#f3f4f6"/>
<text x="8" y="345.0" fill="#4b5563" font-size="14">63.89</text>
<line x1="72" y1="263.5" x2="862" y2="263.5" stroke="#f3f4f6"/>
<text x="8" y="268.5" fill="#4b5563" font-size="14">66.64</text>
<line x1="72" y1="187.0" x2="862" y2="187.0" stroke="#f3f4f6"/>
<text x="8" y="192.0" fill="#4b5563" font-size="14">69.39</text>
<line x1="72" y1="110.5" x2="862" y2="110.5" stroke="#f3f4f6"/>
<text x="8" y="115.5" fill="#4b5563" font-size="14">72.14</text>
<line x1="72" y1="34.0" x2="862" y2="34.0" stroke="#f3f4f6"/>
<text x="8" y="39.0" fill="#4b5563" font-size="14">74.89</text>
<line x1="72.0" y1="310.8" x2="72.0" y2="318.9" stroke="#16a34a" stroke-width="1"/><rect x="69.3" y="311.7" width="5.4" height="2.5" fill="#16a34a" opacity="0.82" rx="1"/>
<line x1="80.9" y1="293.9" x2="80.9" y2="313.3" stroke="#16a34a" stroke-width="1"/><rect x="78.2" y="296.4" width="5.4" height="15.3" fill="#16a34a" opacity="0.82" rx="1"/>
<line x1="89.8" y1="288.3" x2="89.8" y2="308.6" stroke="#dc2626" stroke-width="1"/><rect x="87.0" y="295.8" width="5.4" height="5.6" fill="#dc2626" opacity="0.82" rx="1"/>
<line x1="98.6" y1="296.1" x2="98.6" y2="307.5" stroke="#16a34a" stroke-width="1"/><rect x="95.9" y="298.9" width="5.4" height="2.5" fill="#16a34a" opacity="0.82" rx="1"/>
<line x1="107.5" y1="283.0" x2="107.5" y2="299.1" stroke="#16a34a" stroke-width="1"/><rect x="104.8" y="285.8" width="5.4" height="13.1" fill="#16a34a" opacity="0.82" rx="1"/>
<line x1="116.4" y1="282.7" x2="116.4" y2="288.0" stroke="#16a34a" stroke-width="1"/><rect x="113.7" y="283.6" width="5.4" height="2.5" fill="#16a34a" opacity="0.82" rx="1"/>
<line x1="125.3" y1="282.7" x2="125.3" y2="288.0" stroke="#dc2626" stroke-width="1"/><rect x="122.5" y="283.6" width="5.4" height="3.1" fill="#dc2626" opacity="0.82" rx="1"/>
<line x1="134.1" y1="282.2" x2="134.1" y2="289.4" stroke="#16a34a" stroke-width="1"/><rect x="131.4" y="283.6" width="5.4" height="2.8" fill="#16a34a" opacity="0.82" rx="1"/>
<line x1="143.0" y1="281.9" x2="143.0" y2="290.2" stroke="#16a34a" stroke-width="1"/><rect x="140.3" y="284.1" width="5.4" height="1.2" fill="#16a34a" opacity="0.82" rx="1"/>
<line x1="151.9" y1="282.2" x2="151.9" y2="288.3" stroke="#dc2626" stroke-width="1"/><rect x="149.2" y="284.7" width="5.4" height="3.1" fill="#dc2626" opacity="0.82" rx="1"/>
<line x1="160.8" y1="282.2" x2="160.8" y2="293.3" stroke="#16a34a" stroke-width="1"/><rect x="158.0" y="283.0" width="5.4" height="4.5" fill="#16a34a" opacity="0.82" rx="1"/>
<line x1="169.6" y1="275.2" x2="169.6" y2="283.8" stroke="#16a34a" stroke-width="1"/><rect x="166.9" y="277.2" width="5.4" height="5.6" fill="#16a34a" opacity="0.82" rx="1"/>
<line x1="178.5" y1="267.4" x2="178.5" y2="281.1" stroke="#16a34a" stroke-width="1"/><rect x="175.8" y="267.7" width="5.4" height="9.7" fill="#16a34a" opacity="0.82" rx="1"/>
<line x1="187.4" y1="264.9" x2="187.4" y2="277.2" stroke="#dc2626" stroke-width="1"/><rect x="184.7" y="267.7" width="5.4" height="2.5" fill="#dc2626" opacity="0.82" rx="1"/>
<line x1="196.3" y1="267.1" x2="196.3" y2="283.3" stroke="#dc2626" stroke-width="1"/><rect x="193.5" y="269.9" width="5.4" height="10.0" fill="#dc2626" opacity="0.82" rx="1"/>
<line x1="205.1" y1="274.9" x2="205.1" y2="281.3" stroke="#16a34a" stroke-width="1"/><rect x="202.4" y="278.6" width="5.4" height="1.7" fill="#16a34a" opacity="0.82" rx="1"/>
<line x1="214.0" y1="259.4" x2="214.0" y2="279.9" stroke="#16a34a" stroke-width="1"/><rect x="211.3" y="261.3" width="5.4" height="17.5" fill="#16a34a" opacity="0.82" rx="1"/>
<line x1="222.9" y1="232.9" x2="222.9" y2="265.2" stroke="#16a34a" stroke-width="1"/><rect x="220.2" y="250.2" width="5.4" height="10.9" fill="#16a34a" opacity="0.82" rx="1"/>
<line x1="231.8" y1="237.1" x2="231.8" y2="257.7" stroke="#dc2626" stroke-width="1"/><rect x="229.1" y="250.2" width="5.4" height="4.2" fill="#dc2626" opacity="0.82" rx="1"/>
<line x1="240.7" y1="239.6" x2="240.7" y2="261.6" stroke="#16a34a" stroke-width="1"/><rect x="237.9" y="239.6" width="5.4" height="14.7" fill="#16a34a" opacity="0.82" rx="1"/>
<line x1="249.5" y1="229.0" x2="249.5" y2="257.7" stroke="#dc2626" stroke-width="1"/><rect x="246.8" y="239.6" width="5.4" height="13.4" fill="#dc2626" opacity="0.82" rx="1"/>
<line x1="258.4" y1="236.8" x2="258.4" y2="254.3" stroke="#16a34a" stroke-width="1"/><rect x="255.7" y="242.4" width="5.4" height="10.0" fill="#16a34a" opacity="0.82" rx="1"/>
<line x1="267.3" y1="240.4" x2="267.3" y2="267.7" stroke="#dc2626" stroke-width="1"/><rect x="264.6" y="242.4" width="5.4" height="22.0" fill="#dc2626" opacity="0.82" rx="1"/>
<line x1="276.2" y1="252.1" x2="276.2" y2="269.9" stroke="#16a34a" stroke-width="1"/><rect x="273.4" y="256.0" width="5.4" height="8.6" fill="#16a34a" opacity="0.82" rx="1"/>
<line x1="285.0" y1="249.1" x2="285.0" y2="272.4" stroke="#dc2626" stroke-width="1"/><rect x="282.3" y="256.3" width="5.4" height="1.7" fill="#dc2626" opacity="0.82" rx="1"/>
<line x1="293.9" y1="233.5" x2="293.9" y2="258.0" stroke="#16a34a" stroke-width="1"/><rect x="291.2" y="240.4" width="5.4" height="17.2" fill="#16a34a" opacity="0.82" rx="1"/>
<line x1="302.8" y1="236.3" x2="302.8" y2="261.6" stroke="#dc2626" stroke-width="1"/><rect x="300.1" y="240.4" width="5.4" height="18.4" fill="#dc2626" opacity="0.82" rx="1"/>
<line x1="311.7" y1="257.7" x2="311.7" y2="278.6" stroke="#dc2626" stroke-width="1"/><rect x="308.9" y="259.1" width="5.4" height="13.1" fill="#dc2626" opacity="0.82" rx="1"/>
<line x1="320.5" y1="266.0" x2="320.5" y2="275.8" stroke="#16a34a" stroke-width="1"/><rect x="317.8" y="266.0" width="5.4" height="6.1" fill="#16a34a" opacity="0.82" rx="1"/>
<line x1="329.4" y1="265.5" x2="329.4" y2="281.1" stroke="#dc2626" stroke-width="1"/><rect x="326.7" y="266.3" width="5.4" height="12.5" fill="#dc2626" opacity="0.82" rx="1"/>
<line x1="338.3" y1="264.6" x2="338.3" y2="288.6" stroke="#16a34a" stroke-width="1"/><rect x="335.6" y="269.1" width="5.4" height="9.2" fill="#16a34a" opacity="0.82" rx="1"/>
<line x1="347.2" y1="199.3" x2="347.2" y2="273.0" stroke="#16a34a" stroke-width="1"/><rect x="344.4" y="204.3" width="5.4" height="64.5" fill="#16a34a" opacity="0.82" rx="1"/>
<line x1="356.0" y1="191.5" x2="356.0" y2="222.4" stroke="#dc2626" stroke-width="1"/><rect x="353.3" y="203.7" width="5.4" height="15.9" fill="#dc2626" opacity="0.82" rx="1"/>
<line x1="364.9" y1="208.7" x2="364.9" y2="264.6" stroke="#16a34a" stroke-width="1"/><rect x="362.2" y="218.2" width="5.4" height="1.2" fill="#16a34a" opacity="0.82" rx="1"/>
<line x1="373.8" y1="213.2" x2="373.8" y2="241.8" stroke="#dc2626" stroke-width="1"/><rect x="371.1" y="218.7" width="5.4" height="7.5" fill="#dc2626" opacity="0.82" rx="1"/>
<line x1="382.7" y1="224.6" x2="382.7" y2="241.8" stroke="#dc2626" stroke-width="1"/><rect x="380.0" y="226.5" width="5.4" height="10.9" fill="#dc2626" opacity="0.82" rx="1"/>
<line x1="391.6" y1="222.6" x2="391.6" y2="242.9" stroke="#16a34a" stroke-width="1"/><rect x="388.8" y="226.5" width="5.4" height="10.9" fill="#16a34a" opacity="0.82" rx="1"/>
<line x1="400.4" y1="222.1" x2="400.4" y2="235.2" stroke="#dc2626" stroke-width="1"/><rect x="397.7" y="226.2" width="5.4" height="1.2" fill="#dc2626" opacity="0.82" rx="1"/>
<line x1="409.3" y1="218.5" x2="409.3" y2="231.0" stroke="#16a34a" stroke-width="1"/><rect x="406.6" y="221.8" width="5.4" height="5.3" fill="#16a34a" opacity="0.82" rx="1"/>
<line x1="418.2" y1="220.1" x2="418.2" y2="232.9" stroke="#dc2626" stroke-width="1"/><rect x="415.5" y="222.1" width="5.4" height="6.1" fill="#dc2626" opacity="0.82" rx="1"/>
<line x1="427.1" y1="222.9" x2="427.1" y2="232.1" stroke="#16a34a" stroke-width="1"/><rect x="424.3" y="226.0" width="5.4" height="2.2" fill="#16a34a" opacity="0.82" rx="1"/>
<line x1="435.9" y1="217.6" x2="435.9" y2="226.8" stroke="#16a34a" stroke-width="1"/><rect x="433.2" y="222.4" width="5.4" height="3.1" fill="#16a34a" opacity="0.82" rx="1"/>
<line x1="444.8" y1="195.1" x2="444.8" y2="223.5" stroke="#16a34a" stroke-width="1"/><rect x="442.1" y="202.0" width="5.4" height="20.3" fill="#16a34a" opacity="0.82" rx="1"/>
<line x1="453.7" y1="196.5" x2="453.7" y2="215.4" stroke="#dc2626" stroke-width="1"/><rect x="451.0" y="202.0" width="5.4" height="5.8" fill="#dc2626" opacity="0.82" rx="1"/>
<line x1="462.6" y1="199.8" x2="462.6" y2="210.4" stroke="#16a34a" stroke-width="1"/><rect x="459.8" y="203.4" width="5.4" height="4.5" fill="#16a34a" opacity="0.82" rx="1"/>
<line x1="471.4" y1="186.2" x2="471.4" y2="205.1" stroke="#16a34a" stroke-width="1"/><rect x="468.7" y="196.8" width="5.4" height="6.4" fill="#16a34a" opacity="0.82" rx="1"/>
<line x1="480.3" y1="188.1" x2="480.3" y2="197.0" stroke="#16a34a" stroke-width="1"/><rect x="477.6" y="189.5" width="5.4" height="7.0" fill="#16a34a" opacity="0.82" rx="1"/>
<line x1="489.2" y1="157.5" x2="489.2" y2="199.3" stroke="#dc2626" stroke-width="1"/><rect x="486.5" y="189.5" width="5.4" height="6.7" fill="#dc2626" opacity="0.82" rx="1"/>
<line x1="498.1" y1="167.5" x2="498.1" y2="203.7" stroke="#16a34a" stroke-width="1"/><rect x="495.3" y="175.1" width="5.4" height="20.9" fill="#16a34a" opacity="0.82" rx="1"/>
<line x1="506.9" y1="155.6" x2="506.9" y2="174.8" stroke="#16a34a" stroke-width="1"/><rect x="504.2" y="160.0" width="5.4" height="14.5" fill="#16a34a" opacity="0.82" rx="1"/>
<line x1="515.8" y1="147.2" x2="515.8" y2="160.6" stroke="#16a34a" stroke-width="1"/><rect x="513.1" y="157.5" width="5.4" height="2.2" fill="#16a34a" opacity="0.82" rx="1"/>
<line x1="524.7" y1="148.6" x2="524.7" y2="161.4" stroke="#16a34a" stroke-width="1"/><rect x="522.0" y="154.5" width="5.4" height="3.3" fill="#16a34a" opacity="0.82" rx="1"/>
<line x1="533.6" y1="136.4" x2="533.6" y2="158.1" stroke="#16a34a" stroke-width="1"/><rect x="530.9" y="146.4" width="5.4" height="7.5" fill="#16a34a" opacity="0.82" rx="1"/>
<line x1="542.4" y1="136.7" x2="542.4" y2="148.9" stroke="#16a34a" stroke-width="1"/><rect x="539.7" y="138.3" width="5.4" height="7.2" fill="#16a34a" opacity="0.82" rx="1"/>
<line x1="551.3" y1="132.5" x2="551.3" y2="155.0" stroke="#dc2626" stroke-width="1"/><rect x="548.6" y="138.1" width="5.4" height="8.1" fill="#dc2626" opacity="0.82" rx="1"/>
<line x1="560.2" y1="137.8" x2="560.2" y2="149.5" stroke="#16a34a" stroke-width="1"/><rect x="557.5" y="141.4" width="5.4" height="5.3" fill="#16a34a" opacity="0.82" rx="1"/>
<line x1="569.1" y1="135.5" x2="569.1" y2="157.5" stroke="#dc2626" stroke-width="1"/><rect x="566.4" y="141.9" width="5.4" height="3.6" fill="#dc2626" opacity="0.82" rx="1"/>
<line x1="578.0" y1="141.9" x2="578.0" y2="152.5" stroke="#dc2626" stroke-width="1"/><rect x="575.2" y="145.8" width="5.4" height="1.2" fill="#dc2626" opacity="0.82" rx="1"/>
<line x1="586.8" y1="145.0" x2="586.8" y2="190.6" stroke="#dc2626" stroke-width="1"/><rect x="584.1" y="147.0" width="5.4" height="43.7" fill="#dc2626" opacity="0.82" rx="1"/>
<line x1="595.7" y1="170.6" x2="595.7" y2="208.4" stroke="#16a34a" stroke-width="1"/><rect x="593.0" y="175.9" width="5.4" height="14.5" fill="#16a34a" opacity="0.82" rx="1"/>
<line x1="604.6" y1="166.2" x2="604.6" y2="180.6" stroke="#16a34a" stroke-width="1"/><rect x="601.9" y="170.3" width="5.4" height="5.6" fill="#16a34a" opacity="0.82" rx="1"/>
<line x1="613.5" y1="143.3" x2="613.5" y2="174.5" stroke="#16a34a" stroke-width="1"/><rect x="610.7" y="149.5" width="5.4" height="20.9" fill="#16a34a" opacity="0.82" rx="1"/>
<line x1="622.3" y1="140.6" x2="622.3" y2="154.2" stroke="#16a34a" stroke-width="1"/><rect x="619.6" y="147.0" width="5.4" height="3.3" fill="#16a34a" opacity="0.82" rx="1"/>
<line x1="631.2" y1="142.2" x2="631.2" y2="163.9" stroke="#dc2626" stroke-width="1"/><rect x="628.5" y="147.2" width="5.4" height="15.9" fill="#dc2626" opacity="0.82" rx="1"/>
<line x1="640.1" y1="144.5" x2="640.1" y2="163.1" stroke="#16a34a" stroke-width="1"/><rect x="637.4" y="145.0" width="5.4" height="17.8" fill="#16a34a" opacity="0.82" rx="1"/>
<line x1="649.0" y1="140.6" x2="649.0" y2="147.2" stroke="#dc2626" stroke-width="1"/><rect x="646.2" y="145.0" width="5.4" height="1.2" fill="#dc2626" opacity="0.82" rx="1"/>
<line x1="657.8" y1="94.1" x2="657.8" y2="145.6" stroke="#16a34a" stroke-width="1"/><rect x="655.1" y="97.7" width="5.4" height="47.3" fill="#16a34a" opacity="0.82" rx="1"/>
<line x1="666.7" y1="89.6" x2="666.7" y2="108.6" stroke="#dc2626" stroke-width="1"/><rect x="664.0" y="98.3" width="5.4" height="6.7" fill="#dc2626" opacity="0.82" rx="1"/>
<line x1="675.6" y1="93.8" x2="675.6" y2="111.6" stroke="#16a34a" stroke-width="1"/><rect x="672.9" y="94.9" width="5.4" height="10.9" fill="#16a34a" opacity="0.82" rx="1"/>
<line x1="684.5" y1="84.4" x2="684.5" y2="100.2" stroke="#16a34a" stroke-width="1"/><rect x="681.8" y="91.9" width="5.4" height="3.6" fill="#16a34a" opacity="0.82" rx="1"/>
<line x1="693.3" y1="88.3" x2="693.3" y2="128.3" stroke="#dc2626" stroke-width="1"/><rect x="690.6" y="92.1" width="5.4" height="28.7" fill="#dc2626" opacity="0.82" rx="1"/>
<line x1="702.2" y1="95.2" x2="702.2" y2="137.5" stroke="#16a34a" stroke-width="1"/><rect x="699.5" y="120.0" width="5.4" height="1.2" fill="#16a34a" opacity="0.82" rx="1"/>
<line x1="711.1" y1="116.6" x2="711.1" y2="184.8" stroke="#dc2626" stroke-width="1"/><rect x="708.4" y="120.0" width="5.4" height="57.9" fill="#dc2626" opacity="0.82" rx="1"/>
<line x1="720.0" y1="162.8" x2="720.0" y2="231.8" stroke="#dc2626" stroke-width="1"/><rect x="717.3" y="177.8" width="5.4" height="25.6" fill="#dc2626" opacity="0.82" rx="1"/>
<line x1="728.9" y1="173.1" x2="728.9" y2="204.3" stroke="#16a34a" stroke-width="1"/><rect x="726.1" y="188.7" width="5.4" height="15.3" fill="#16a34a" opacity="0.82" rx="1"/>
<line x1="737.7" y1="181.2" x2="737.7" y2="207.1" stroke="#16a34a" stroke-width="1"/><rect x="735.0" y="188.4" width="5.4" height="1.2" fill="#16a34a" opacity="0.82" rx="1"/>
<line x1="746.6" y1="183.1" x2="746.6" y2="215.1" stroke="#dc2626" stroke-width="1"/><rect x="743.9" y="188.7" width="5.4" height="21.7" fill="#dc2626" opacity="0.82" rx="1"/>
<line x1="755.5" y1="197.9" x2="755.5" y2="225.1" stroke="#dc2626" stroke-width="1"/><rect x="752.8" y="210.4" width="5.4" height="13.1" fill="#dc2626" opacity="0.82" rx="1"/>
<line x1="764.4" y1="180.1" x2="764.4" y2="224.3" stroke="#16a34a" stroke-width="1"/><rect x="761.6" y="218.5" width="5.4" height="5.3" fill="#16a34a" opacity="0.82" rx="1"/>
<line x1="773.2" y1="205.1" x2="773.2" y2="219.0" stroke="#16a34a" stroke-width="1"/><rect x="770.5" y="212.3" width="5.4" height="6.1" fill="#16a34a" opacity="0.82" rx="1"/>
<line x1="782.1" y1="192.3" x2="782.1" y2="218.7" stroke="#16a34a" stroke-width="1"/><rect x="779.4" y="194.3" width="5.4" height="17.5" fill="#16a34a" opacity="0.82" rx="1"/>
<line x1="791.0" y1="179.5" x2="791.0" y2="208.2" stroke="#dc2626" stroke-width="1"/><rect x="788.3" y="194.5" width="5.4" height="6.4" fill="#dc2626" opacity="0.82" rx="1"/>
<line x1="799.9" y1="162.3" x2="799.9" y2="201.8" stroke="#16a34a" stroke-width="1"/><rect x="797.1" y="174.2" width="5.4" height="26.7" fill="#16a34a" opacity="0.82" rx="1"/>
<line x1="808.7" y1="163.6" x2="808.7" y2="180.6" stroke="#16a34a" stroke-width="1"/><rect x="806.0" y="164.8" width="5.4" height="9.7" fill="#16a34a" opacity="0.82" rx="1"/>
<line x1="817.6" y1="156.4" x2="817.6" y2="169.8" stroke="#16a34a" stroke-width="1"/><rect x="814.9" y="161.4" width="5.4" height="3.9" fill="#16a34a" opacity="0.82" rx="1"/>
<line x1="826.5" y1="160.3" x2="826.5" y2="173.1" stroke="#dc2626" stroke-width="1"/><rect x="823.8" y="161.1" width="5.4" height="3.3" fill="#dc2626" opacity="0.82" rx="1"/>
<line x1="835.4" y1="128.6" x2="835.4" y2="165.3" stroke="#16a34a" stroke-width="1"/><rect x="832.6" y="131.4" width="5.4" height="32.8" fill="#16a34a" opacity="0.82" rx="1"/>
<line x1="844.2" y1="110.2" x2="844.2" y2="136.9" stroke="#16a34a" stroke-width="1"/><rect x="841.5" y="119.1" width="5.4" height="12.8" fill="#16a34a" opacity="0.82" rx="1"/>
<line x1="853.1" y1="114.1" x2="853.1" y2="122.5" stroke="#16a34a" stroke-width="1"/><rect x="850.4" y="116.4" width="5.4" height="3.3" fill="#16a34a" opacity="0.82" rx="1"/>
<line x1="862.0" y1="113.6" x2="862.0" y2="117.2" stroke="#16a34a" stroke-width="1"/><rect x="859.3" y="114.1" width="5.4" height="2.5" fill="#16a34a" opacity="0.82" rx="1"/>
<line x1="72" y1="149.5" x2="862" y2="149.5" stroke="#16a34a" stroke-width="1.8" stroke-dasharray="6 4" /><rect x="874" y="129.5" width="166" height="23" rx="5" fill="#ffffff" stroke="#16a34a" opacity="0.97"/><text x="881" y="145.5" fill="#16a34a" font-size="15" font-weight="700">日内支撑 70.74</text>
<line x1="72" y1="55.1" x2="862" y2="55.1" stroke="#dc2626" stroke-width="1.8" stroke-dasharray="6 4" /><rect x="874" y="35.1" width="166" height="23" rx="5" fill="#ffffff" stroke="#dc2626" opacity="0.97"/><text x="881" y="51.1" fill="#dc2626" font-size="15" font-weight="700">日内压力 74.13</text>
<line x1="72" y1="114.1" x2="862" y2="114.1" stroke="#111827" stroke-width="1.8" stroke-dasharray="2 2" /><rect x="874" y="94.1" width="166" height="23" rx="5" fill="#ffffff" stroke="#111827" opacity="0.97"/><text x="881" y="110.1" fill="#111827" font-size="15" font-weight="700">现价 72.01</text>
<text x="72" y="396" fill="#16a34a" font-size="14" font-weight="700">日内做多计划</text><rect x="72" y="404" width="790" height="48" rx="6" fill="#f9fafb" stroke="#e5e7eb"/><line x1="94" y1="412" x2="840" y2="412" stroke="#16a34a" stroke-width="3"/><circle cx="132.0" cy="412" r="5" fill="#16a34a"/><text x="132.0" y="434" fill="#374151" font-size="12" text-anchor="middle">入场 止跌/突破回踩</text><circle cx="451.2" cy="412" r="5" fill="#16a34a"/><text x="451.2" y="434" fill="#374151" font-size="12" text-anchor="middle">止损 70.74</text><circle cx="712.0" cy="412" r="5" fill="#16a34a"/><text x="712.0" y="434" fill="#374151" font-size="12" text-anchor="middle">目标一 74.13</text><circle cx="814.0" cy="412" r="5" fill="#16a34a"/><text x="814.0" y="434" fill="#374151" font-size="12" text-anchor="middle">目标二 74.98</text>
<text x="72" y="482" fill="#dc2626" font-size="14" font-weight="700">日内做空计划</text><rect x="72" y="490" width="790" height="48" rx="6" fill="#f9fafb" stroke="#e5e7eb"/><line x1="94" y1="498" x2="840" y2="498" stroke="#dc2626" stroke-width="3"/><circle cx="132.0" cy="498" r="5" fill="#dc2626"/><text x="132.0" y="520" fill="#374151" font-size="12" text-anchor="middle">入场 反弹承压/破位回抽</text><circle cx="451.2" cy="498" r="5" fill="#dc2626"/><text x="451.2" y="520" fill="#374151" font-size="12" text-anchor="middle">止损 74.13</text><circle cx="712.0" cy="498" r="5" fill="#dc2626"/><text x="712.0" y="520" fill="#374151" font-size="12" text-anchor="middle">目标一 70.74</text><circle cx="814.0" cy="498" r="5" fill="#dc2626"/><text x="814.0" y="520" fill="#374151" font-size="12" text-anchor="middle">目标二 69.89</text>
</svg>