<svg xmlns="http://www.w3.org/2000/svg" width="1080" height="560" viewBox="0 0 1080 560">
<rect width="100%" height="100%" fill="#ffffff"/>
<text x="72" y="23" fill="#111827" font-size="21" font-weight="800">DRAM 日线K线支撑压力图</text>
<text x="862" y="42" fill="#374151" font-size="15" text-anchor="end">最新价 72.01</text>
<line x1="72" y1="34" x2="72" y2="340" stroke="#d1d5db"/>
<line x1="72" y1="340" x2="862" y2="340" stroke="#d1d5db"/>
<line x1="72" y1="340.0" x2="862" y2="340.0" stroke="#f3f4f6"/>
<text x="8" y="345.0" fill="#4b5563" font-size="14">43.40</text>
<line x1="72" y1="263.5" x2="862" y2="263.5" stroke="#f3f4f6"/>
<text x="8" y="268.5" fill="#4b5563" font-size="14">54.79</text>
<line x1="72" y1="187.0" x2="862" y2="187.0" stroke="#f3f4f6"/>
<text x="8" y="192.0" fill="#4b5563" font-size="14">66.18</text>
<line x1="72" y1="110.5" x2="862" y2="110.5" stroke="#f3f4f6"/>
<text x="8" y="115.5" fill="#4b5563" font-size="14">77.57</text>
<line x1="72" y1="34.0" x2="862" y2="34.0" stroke="#f3f4f6"/>
<text x="8" y="39.0" fill="#4b5563" font-size="14">88.97</text>
<line x1="72.0" y1="283.0" x2="72.0" y2="308.5" stroke="#dc2626" stroke-width="1"/><rect x="67.5" y="287.3" width="9.0" height="9.8" fill="#dc2626" opacity="0.82" rx="1"/>
<line x1="98.3" y1="288.7" x2="98.3" y2="318.9" stroke="#16a34a" stroke-width="1"/><rect x="93.8" y="295.6" width="9.0" height="1.5" fill="#16a34a" opacity="0.82" rx="1"/>
<line x1="124.7" y1="281.9" x2="124.7" y2="309.2" stroke="#16a34a" stroke-width="1"/><rect x="120.2" y="284.0" width="9.0" height="11.7" fill="#16a34a" opacity="0.82" rx="1"/>
<line x1="151.0" y1="260.4" x2="151.0" y2="288.2" stroke="#16a34a" stroke-width="1"/><rect x="146.5" y="263.3" width="9.0" height="20.7" fill="#16a34a" opacity="0.82" rx="1"/>
<line x1="177.3" y1="263.0" x2="177.3" y2="278.3" stroke="#dc2626" stroke-width="1"/><rect x="172.8" y="263.3" width="9.0" height="14.7" fill="#dc2626" opacity="0.82" rx="1"/>
<line x1="203.7" y1="255.0" x2="203.7" y2="292.8" stroke="#16a34a" stroke-width="1"/><rect x="199.2" y="266.7" width="9.0" height="11.1" fill="#16a34a" opacity="0.82" rx="1"/>
<line x1="230.0" y1="254.7" x2="230.0" y2="268.1" stroke="#16a34a" stroke-width="1"/><rect x="225.5" y="259.6" width="9.0" height="7.0" fill="#16a34a" opacity="0.82" rx="1"/>
<line x1="256.3" y1="237.7" x2="256.3" y2="261.4" stroke="#16a34a" stroke-width="1"/><rect x="251.8" y="252.0" width="9.0" height="7.5" fill="#16a34a" opacity="0.82" rx="1"/>
<line x1="282.7" y1="206.4" x2="282.7" y2="264.3" stroke="#16a34a" stroke-width="1"/><rect x="278.2" y="213.7" width="9.0" height="38.3" fill="#16a34a" opacity="0.82" rx="1"/>
<line x1="309.0" y1="203.7" x2="309.0" y2="234.7" stroke="#dc2626" stroke-width="1"/><rect x="304.5" y="213.7" width="9.0" height="17.3" fill="#dc2626" opacity="0.82" rx="1"/>
<line x1="335.3" y1="203.3" x2="335.3" y2="245.7" stroke="#16a34a" stroke-width="1"/><rect x="330.8" y="208.0" width="9.0" height="23.0" fill="#16a34a" opacity="0.82" rx="1"/>
<line x1="361.7" y1="199.3" x2="361.7" y2="218.0" stroke="#16a34a" stroke-width="1"/><rect x="357.2" y="206.3" width="9.0" height="1.6" fill="#16a34a" opacity="0.82" rx="1"/>
<line x1="388.0" y1="188.5" x2="388.0" y2="209.0" stroke="#16a34a" stroke-width="1"/><rect x="383.5" y="189.6" width="9.0" height="16.7" fill="#16a34a" opacity="0.82" rx="1"/>
<line x1="414.3" y1="178.3" x2="414.3" y2="193.5" stroke="#16a34a" stroke-width="1"/><rect x="409.8" y="187.4" width="9.0" height="2.1" fill="#16a34a" opacity="0.82" rx="1"/>
<line x1="440.7" y1="167.5" x2="440.7" y2="199.3" stroke="#16a34a" stroke-width="1"/><rect x="436.2" y="173.5" width="9.0" height="13.8" fill="#16a34a" opacity="0.82" rx="1"/>
<line x1="467.0" y1="160.2" x2="467.0" y2="192.2" stroke="#16a34a" stroke-width="1"/><rect x="462.5" y="165.1" width="9.0" height="8.6" fill="#16a34a" opacity="0.82" rx="1"/>
<line x1="493.3" y1="159.2" x2="493.3" y2="185.5" stroke="#dc2626" stroke-width="1"/><rect x="488.8" y="165.0" width="9.0" height="18.5" fill="#dc2626" opacity="0.82" rx="1"/>
<line x1="519.7" y1="174.7" x2="519.7" y2="207.2" stroke="#dc2626" stroke-width="1"/><rect x="515.2" y="183.5" width="9.0" height="22.5" fill="#dc2626" opacity="0.82" rx="1"/>
<line x1="546.0" y1="200.8" x2="546.0" y2="272.4" stroke="#dc2626" stroke-width="1"/><rect x="541.5" y="206.0" width="9.0" height="53.2" fill="#dc2626" opacity="0.82" rx="1"/>
<line x1="572.3" y1="252.3" x2="572.3" y2="278.8" stroke="#16a34a" stroke-width="1"/><rect x="567.8" y="257.2" width="9.0" height="2.1" fill="#16a34a" opacity="0.82" rx="1"/>
<line x1="598.7" y1="229.7" x2="598.7" y2="262.1" stroke="#16a34a" stroke-width="1"/><rect x="594.2" y="252.4" width="9.0" height="4.9" fill="#16a34a" opacity="0.82" rx="1"/>
<line x1="625.0" y1="217.3" x2="625.0" y2="255.2" stroke="#16a34a" stroke-width="1"/><rect x="620.5" y="222.5" width="9.0" height="29.9" fill="#16a34a" opacity="0.82" rx="1"/>
<line x1="651.3" y1="200.3" x2="651.3" y2="259.1" stroke="#dc2626" stroke-width="1"/><rect x="646.8" y="222.5" width="9.0" height="7.8" fill="#dc2626" opacity="0.82" rx="1"/>
<line x1="677.7" y1="218.2" x2="677.7" y2="258.1" stroke="#dc2626" stroke-width="1"/><rect x="673.2" y="230.3" width="9.0" height="22.2" fill="#dc2626" opacity="0.82" rx="1"/>
<line x1="704.0" y1="183.6" x2="704.0" y2="254.1" stroke="#16a34a" stroke-width="1"/><rect x="699.5" y="188.1" width="9.0" height="64.1" fill="#16a34a" opacity="0.82" rx="1"/>
<line x1="730.3" y1="187.0" x2="730.3" y2="213.3" stroke="#dc2626" stroke-width="1"/><rect x="725.8" y="188.2" width="9.0" height="2.5" fill="#dc2626" opacity="0.82" rx="1"/>
<line x1="756.7" y1="188.4" x2="756.7" y2="202.4" stroke="#16a34a" stroke-width="1"/><rect x="752.2" y="189.8" width="9.0" height="1.2" fill="#16a34a" opacity="0.82" rx="1"/>
<line x1="783.0" y1="166.5" x2="783.0" y2="191.1" stroke="#16a34a" stroke-width="1"/><rect x="778.5" y="173.0" width="9.0" height="16.7" fill="#16a34a" opacity="0.82" rx="1"/>
<line x1="809.3" y1="152.3" x2="809.3" y2="179.0" stroke="#16a34a" stroke-width="1"/><rect x="804.8" y="155.7" width="9.0" height="17.5" fill="#16a34a" opacity="0.82" rx="1"/>
<line x1="835.7" y1="140.7" x2="835.7" y2="176.3" stroke="#dc2626" stroke-width="1"/><rect x="831.2" y="155.8" width="9.0" height="13.0" fill="#dc2626" opacity="0.82" rx="1"/>
<line x1="862.0" y1="146.9" x2="862.0" y2="169.0" stroke="#16a34a" stroke-width="1"/><rect x="857.5" y="147.9" width="9.0" height="21.0" fill="#16a34a" opacity="0.82" rx="1"/>
<line x1="72" y1="203.5" x2="862" y2="203.5" stroke="#16a34a" stroke-width="1.8" stroke-dasharray="6 4" /><rect x="874" y="183.5" width="166" height="23" rx="5" fill="#ffffff" stroke="#16a34a" opacity="0.97"/><text x="881" y="199.5" fill="#16a34a" font-size="15" font-weight="700">支撑 63.72</text>
<line x1="72" y1="55.1" x2="862" y2="55.1" stroke="#dc2626" stroke-width="1.8" stroke-dasharray="6 4" /><rect x="874" y="35.1" width="166" height="23" rx="5" fill="#ffffff" stroke="#dc2626" opacity="0.97"/><text x="881" y="51.1" fill="#dc2626" font-size="15" font-weight="700">压力 85.82</text>
<line x1="72" y1="147.9" x2="862" y2="147.9" stroke="#111827" stroke-width="1.8" stroke-dasharray="2 2" /><rect x="874" y="127.9" width="166" height="23" rx="5" fill="#ffffff" stroke="#111827" opacity="0.97"/><text x="881" y="143.9" fill="#111827" font-size="15" font-weight="700">现价 72.01</text>
<text x="72" y="396" fill="#16a34a" font-size="14" font-weight="700">日线做多计划</text><rect x="72" y="404" width="790" height="48" rx="6" fill="#f9fafb" stroke="#e5e7eb"/><line x1="94" y1="412" x2="840" y2="412" stroke="#16a34a" stroke-width="3"/><circle cx="132.0" cy="412" r="5" fill="#16a34a"/><text x="132.0" y="434" fill="#374151" font-size="12" text-anchor="middle">入场 止跌/突破回踩</text><circle cx="451.2" cy="412" r="5" fill="#16a34a"/><text x="451.2" y="434" fill="#374151" font-size="12" text-anchor="middle">止损 63.72</text><circle cx="712.0" cy="412" r="5" fill="#16a34a"/><text x="712.0" y="434" fill="#374151" font-size="12" text-anchor="middle">目标一 85.82</text><circle cx="814.0" cy="412" r="5" fill="#16a34a"/><text x="814.0" y="434" fill="#374151" font-size="12" text-anchor="middle">目标二 94.11</text>
<text x="72" y="482" fill="#dc2626" font-size="14" font-weight="700">日线做空计划</text><rect x="72" y="490" width="790" height="48" rx="6" fill="#f9fafb" stroke="#e5e7eb"/><line x1="94" y1="498" x2="840" y2="498" stroke="#dc2626" stroke-width="3"/><circle cx="132.0" cy="498" r="5" fill="#dc2626"/><text x="132.0" y="520" fill="#374151" font-size="12" text-anchor="middle">入场 反弹承压/破位回抽</text><circle cx="451.2" cy="498" r="5" fill="#dc2626"/><text x="451.2" y="520" fill="#374151" font-size="12" text-anchor="middle">止损 85.82</text><circle cx="712.0" cy="498" r="5" fill="#dc2626"/><text x="712.0" y="520" fill="#374151" font-size="12" text-anchor="middle">目标一 63.72</text><circle cx="814.0" cy="498" r="5" fill="#dc2626"/><text x="814.0" y="520" fill="#374151" font-size="12" text-anchor="middle">目标二 58.20</text>
</svg>