<svg xmlns="http://www.w3.org/2000/svg" width="1080" height="560" viewBox="0 0 1080 560">
<rect width="100%" height="100%" fill="#ffffff"/>
<text x="72" y="23" fill="#111827" font-size="21" font-weight="800">BTC 小时线K线支撑压力图</text>
<text x="862" y="42" fill="#374151" font-size="15" text-anchor="end">最新价 63,445</text>
<line x1="72" y1="34" x2="72" y2="340" stroke="#d1d5db"/>
<line x1="72" y1="340" x2="862" y2="340" stroke="#d1d5db"/>
<line x1="72" y1="340.0" x2="862" y2="340.0" stroke="#f3f4f6"/>
<text x="8" y="345.0" fill="#4b5563" font-size="14">60,403</text>
<line x1="72" y1="263.5" x2="862" y2="263.5" stroke="#f3f4f6"/>
<text x="8" y="268.5" fill="#4b5563" font-size="14">61,451</text>
<line x1="72" y1="187.0" x2="862" y2="187.0" stroke="#f3f4f6"/>
<text x="8" y="192.0" fill="#4b5563" font-size="14">62,499</text>
<line x1="72" y1="110.5" x2="862" y2="110.5" stroke="#f3f4f6"/>
<text x="8" y="115.5" fill="#4b5563" font-size="14">63,548</text>
<line x1="72" y1="34.0" x2="862" y2="34.0" stroke="#f3f4f6"/>
<text x="8" y="39.0" fill="#4b5563" font-size="14">64,596</text>
<line x1="72.0" y1="75.3" x2="72.0" y2="119.0" stroke="#dc2626" stroke-width="1"/><rect x="69.3" y="96.1" width="5.4" height="18.1" fill="#dc2626" opacity="0.82" rx="1"/>
<line x1="80.9" y1="105.2" x2="80.9" y2="135.2" stroke="#16a34a" stroke-width="1"/><rect x="78.2" y="112.6" width="5.4" height="1.6" fill="#16a34a" opacity="0.82" rx="1"/>
<line x1="89.8" y1="102.4" x2="89.8" y2="128.2" stroke="#dc2626" stroke-width="1"/><rect x="87.0" y="112.6" width="5.4" height="5.9" fill="#dc2626" opacity="0.82" rx="1"/>
<line x1="98.6" y1="108.7" x2="98.6" y2="127.3" stroke="#dc2626" stroke-width="1"/><rect x="95.9" y="118.5" width="5.4" height="6.6" fill="#dc2626" opacity="0.82" rx="1"/>
<line x1="107.5" y1="116.9" x2="107.5" y2="141.7" stroke="#16a34a" stroke-width="1"/><rect x="104.8" y="117.0" width="5.4" height="8.1" fill="#16a34a" opacity="0.82" rx="1"/>
<line x1="116.4" y1="89.7" x2="116.4" y2="117.2" stroke="#16a34a" stroke-width="1"/><rect x="113.7" y="100.0" width="5.4" height="16.9" fill="#16a34a" opacity="0.82" rx="1"/>
<line x1="125.3" y1="100.1" x2="125.3" y2="138.0" stroke="#dc2626" stroke-width="1"/><rect x="122.5" y="100.1" width="5.4" height="20.7" fill="#dc2626" opacity="0.82" rx="1"/>
<line x1="134.1" y1="109.0" x2="134.1" y2="154.9" stroke="#dc2626" stroke-width="1"/><rect x="131.4" y="120.7" width="5.4" height="25.5" fill="#dc2626" opacity="0.82" rx="1"/>
<line x1="143.0" y1="139.0" x2="143.0" y2="195.6" stroke="#dc2626" stroke-width="1"/><rect x="140.3" y="146.2" width="5.4" height="39.1" fill="#dc2626" opacity="0.82" rx="1"/>
<line x1="151.9" y1="161.7" x2="151.9" y2="186.0" stroke="#16a34a" stroke-width="1"/><rect x="149.2" y="170.0" width="5.4" height="15.3" fill="#16a34a" opacity="0.82" rx="1"/>
<line x1="160.8" y1="161.4" x2="160.8" y2="186.5" stroke="#16a34a" stroke-width="1"/><rect x="158.0" y="162.1" width="5.4" height="7.8" fill="#16a34a" opacity="0.82" rx="1"/>
<line x1="169.6" y1="154.4" x2="169.6" y2="175.0" stroke="#16a34a" stroke-width="1"/><rect x="166.9" y="162.1" width="5.4" height="1.2" fill="#16a34a" opacity="0.82" rx="1"/>
<line x1="178.5" y1="121.1" x2="178.5" y2="171.2" stroke="#16a34a" stroke-width="1"/><rect x="175.8" y="134.9" width="5.4" height="27.2" fill="#16a34a" opacity="0.82" rx="1"/>
<line x1="187.4" y1="114.0" x2="187.4" y2="144.0" stroke="#16a34a" stroke-width="1"/><rect x="184.7" y="127.2" width="5.4" height="7.6" fill="#16a34a" opacity="0.82" rx="1"/>
<line x1="196.3" y1="114.9" x2="196.3" y2="135.7" stroke="#dc2626" stroke-width="1"/><rect x="193.5" y="127.2" width="5.4" height="2.9" fill="#dc2626" opacity="0.82" rx="1"/>
<line x1="205.1" y1="119.5" x2="205.1" y2="152.6" stroke="#dc2626" stroke-width="1"/><rect x="202.4" y="130.1" width="5.4" height="7.9" fill="#dc2626" opacity="0.82" rx="1"/>
<line x1="214.0" y1="137.1" x2="214.0" y2="176.3" stroke="#dc2626" stroke-width="1"/><rect x="211.3" y="138.0" width="5.4" height="25.8" fill="#dc2626" opacity="0.82" rx="1"/>
<line x1="222.9" y1="156.0" x2="222.9" y2="182.9" stroke="#dc2626" stroke-width="1"/><rect x="220.2" y="163.8" width="5.4" height="9.8" fill="#dc2626" opacity="0.82" rx="1"/>
<line x1="231.8" y1="164.9" x2="231.8" y2="182.5" stroke="#16a34a" stroke-width="1"/><rect x="229.1" y="168.7" width="5.4" height="4.9" fill="#16a34a" opacity="0.82" rx="1"/>
<line x1="240.7" y1="166.0" x2="240.7" y2="190.1" stroke="#dc2626" stroke-width="1"/><rect x="237.9" y="168.7" width="5.4" height="5.2" fill="#dc2626" opacity="0.82" rx="1"/>
<line x1="249.5" y1="160.1" x2="249.5" y2="194.0" stroke="#dc2626" stroke-width="1"/><rect x="246.8" y="173.8" width="5.4" height="5.0" fill="#dc2626" opacity="0.82" rx="1"/>
<line x1="258.4" y1="171.1" x2="258.4" y2="214.3" stroke="#dc2626" stroke-width="1"/><rect x="255.7" y="178.8" width="5.4" height="26.8" fill="#dc2626" opacity="0.82" rx="1"/>
<line x1="267.3" y1="196.3" x2="267.3" y2="290.9" stroke="#dc2626" stroke-width="1"/><rect x="264.6" y="205.6" width="5.4" height="53.5" fill="#dc2626" opacity="0.82" rx="1"/>
<line x1="276.2" y1="246.7" x2="276.2" y2="296.3" stroke="#dc2626" stroke-width="1"/><rect x="273.4" y="259.1" width="5.4" height="30.0" fill="#dc2626" opacity="0.82" rx="1"/>
<line x1="285.0" y1="260.7" x2="285.0" y2="314.3" stroke="#16a34a" stroke-width="1"/><rect x="282.3" y="269.6" width="5.4" height="19.5" fill="#16a34a" opacity="0.82" rx="1"/>
<line x1="293.9" y1="233.7" x2="293.9" y2="269.6" stroke="#16a34a" stroke-width="1"/><rect x="291.2" y="247.7" width="5.4" height="21.9" fill="#16a34a" opacity="0.82" rx="1"/>
<line x1="302.8" y1="227.9" x2="302.8" y2="255.3" stroke="#16a34a" stroke-width="1"/><rect x="300.1" y="241.2" width="5.4" height="6.5" fill="#16a34a" opacity="0.82" rx="1"/>
<line x1="311.7" y1="217.6" x2="311.7" y2="246.4" stroke="#16a34a" stroke-width="1"/><rect x="308.9" y="218.4" width="5.4" height="22.8" fill="#16a34a" opacity="0.82" rx="1"/>
<line x1="320.5" y1="205.0" x2="320.5" y2="229.2" stroke="#16a34a" stroke-width="1"/><rect x="317.8" y="213.8" width="5.4" height="4.6" fill="#16a34a" opacity="0.82" rx="1"/>
<line x1="329.4" y1="212.5" x2="329.4" y2="248.2" stroke="#dc2626" stroke-width="1"/><rect x="326.7" y="213.8" width="5.4" height="29.2" fill="#dc2626" opacity="0.82" rx="1"/>
<line x1="338.3" y1="227.4" x2="338.3" y2="250.4" stroke="#dc2626" stroke-width="1"/><rect x="335.6" y="243.0" width="5.4" height="3.2" fill="#dc2626" opacity="0.82" rx="1"/>
<line x1="347.2" y1="234.4" x2="347.2" y2="258.5" stroke="#16a34a" stroke-width="1"/><rect x="344.4" y="245.7" width="5.4" height="1.2" fill="#16a34a" opacity="0.82" rx="1"/>
<line x1="356.0" y1="230.1" x2="356.0" y2="266.9" stroke="#16a34a" stroke-width="1"/><rect x="353.3" y="231.7" width="5.4" height="14.0" fill="#16a34a" opacity="0.82" rx="1"/>
<line x1="364.9" y1="227.3" x2="364.9" y2="256.7" stroke="#dc2626" stroke-width="1"/><rect x="362.2" y="231.7" width="5.4" height="15.0" fill="#dc2626" opacity="0.82" rx="1"/>
<line x1="373.8" y1="237.5" x2="373.8" y2="281.7" stroke="#dc2626" stroke-width="1"/><rect x="371.1" y="246.7" width="5.4" height="29.9" fill="#dc2626" opacity="0.82" rx="1"/>
<line x1="382.7" y1="254.7" x2="382.7" y2="278.2" stroke="#16a34a" stroke-width="1"/><rect x="380.0" y="258.6" width="5.4" height="18.0" fill="#16a34a" opacity="0.82" rx="1"/>
<line x1="391.6" y1="257.4" x2="391.6" y2="285.2" stroke="#dc2626" stroke-width="1"/><rect x="388.8" y="258.6" width="5.4" height="18.1" fill="#dc2626" opacity="0.82" rx="1"/>
<line x1="400.4" y1="269.6" x2="400.4" y2="293.1" stroke="#16a34a" stroke-width="1"/><rect x="397.7" y="272.9" width="5.4" height="3.8" fill="#16a34a" opacity="0.82" rx="1"/>
<line x1="409.3" y1="260.4" x2="409.3" y2="288.5" stroke="#16a34a" stroke-width="1"/><rect x="406.6" y="264.6" width="5.4" height="8.4" fill="#16a34a" opacity="0.82" rx="1"/>
<line x1="418.2" y1="239.2" x2="418.2" y2="267.2" stroke="#16a34a" stroke-width="1"/><rect x="415.5" y="248.7" width="5.4" height="15.9" fill="#16a34a" opacity="0.82" rx="1"/>
<line x1="427.1" y1="244.8" x2="427.1" y2="287.0" stroke="#dc2626" stroke-width="1"/><rect x="424.3" y="248.7" width="5.4" height="31.1" fill="#dc2626" opacity="0.82" rx="1"/>
<line x1="435.9" y1="267.5" x2="435.9" y2="318.9" stroke="#16a34a" stroke-width="1"/><rect x="433.2" y="274.3" width="5.4" height="5.4" fill="#16a34a" opacity="0.82" rx="1"/>
<line x1="444.8" y1="265.3" x2="444.8" y2="288.2" stroke="#16a34a" stroke-width="1"/><rect x="442.1" y="270.9" width="5.4" height="3.4" fill="#16a34a" opacity="0.82" rx="1"/>
<line x1="453.7" y1="266.8" x2="453.7" y2="309.2" stroke="#dc2626" stroke-width="1"/><rect x="451.0" y="270.9" width="5.4" height="25.3" fill="#dc2626" opacity="0.82" rx="1"/>
<line x1="462.6" y1="229.4" x2="462.6" y2="301.5" stroke="#16a34a" stroke-width="1"/><rect x="459.8" y="257.6" width="5.4" height="38.6" fill="#16a34a" opacity="0.82" rx="1"/>
<line x1="471.4" y1="191.0" x2="471.4" y2="266.7" stroke="#16a34a" stroke-width="1"/><rect x="468.7" y="214.4" width="5.4" height="43.2" fill="#16a34a" opacity="0.82" rx="1"/>
<line x1="480.3" y1="206.7" x2="480.3" y2="239.3" stroke="#16a34a" stroke-width="1"/><rect x="477.6" y="211.0" width="5.4" height="3.4" fill="#16a34a" opacity="0.82" rx="1"/>
<line x1="489.2" y1="162.1" x2="489.2" y2="237.0" stroke="#16a34a" stroke-width="1"/><rect x="486.5" y="179.3" width="5.4" height="31.7" fill="#16a34a" opacity="0.82" rx="1"/>
<line x1="498.1" y1="178.4" x2="498.1" y2="231.4" stroke="#dc2626" stroke-width="1"/><rect x="495.3" y="179.3" width="5.4" height="29.9" fill="#dc2626" opacity="0.82" rx="1"/>
<line x1="506.9" y1="199.3" x2="506.9" y2="251.5" stroke="#dc2626" stroke-width="1"/><rect x="504.2" y="209.2" width="5.4" height="18.3" fill="#dc2626" opacity="0.82" rx="1"/>
<line x1="515.8" y1="213.4" x2="515.8" y2="256.1" stroke="#dc2626" stroke-width="1"/><rect x="513.1" y="227.5" width="5.4" height="6.5" fill="#dc2626" opacity="0.82" rx="1"/>
<line x1="524.7" y1="220.7" x2="524.7" y2="249.6" stroke="#16a34a" stroke-width="1"/><rect x="522.0" y="230.1" width="5.4" height="3.8" fill="#16a34a" opacity="0.82" rx="1"/>
<line x1="533.6" y1="229.2" x2="533.6" y2="249.4" stroke="#dc2626" stroke-width="1"/><rect x="530.9" y="230.1" width="5.4" height="10.1" fill="#dc2626" opacity="0.82" rx="1"/>
<line x1="542.4" y1="240.0" x2="542.4" y2="285.5" stroke="#dc2626" stroke-width="1"/><rect x="539.7" y="240.2" width="5.4" height="32.3" fill="#dc2626" opacity="0.82" rx="1"/>
<line x1="551.3" y1="256.4" x2="551.3" y2="291.4" stroke="#16a34a" stroke-width="1"/><rect x="548.6" y="270.6" width="5.4" height="1.9" fill="#16a34a" opacity="0.82" rx="1"/>
<line x1="560.2" y1="253.9" x2="560.2" y2="286.5" stroke="#16a34a" stroke-width="1"/><rect x="557.5" y="261.1" width="5.4" height="9.5" fill="#16a34a" opacity="0.82" rx="1"/>
<line x1="569.1" y1="226.7" x2="569.1" y2="261.1" stroke="#16a34a" stroke-width="1"/><rect x="566.4" y="238.4" width="5.4" height="22.7" fill="#16a34a" opacity="0.82" rx="1"/>
<line x1="578.0" y1="197.9" x2="578.0" y2="238.5" stroke="#16a34a" stroke-width="1"/><rect x="575.2" y="210.3" width="5.4" height="28.1" fill="#16a34a" opacity="0.82" rx="1"/>
<line x1="586.8" y1="203.1" x2="586.8" y2="229.9" stroke="#dc2626" stroke-width="1"/><rect x="584.1" y="210.3" width="5.4" height="4.9" fill="#dc2626" opacity="0.82" rx="1"/>
<line x1="595.7" y1="156.2" x2="595.7" y2="225.2" stroke="#16a34a" stroke-width="1"/><rect x="593.0" y="175.5" width="5.4" height="39.7" fill="#16a34a" opacity="0.82" rx="1"/>
<line x1="604.6" y1="163.1" x2="604.6" y2="186.0" stroke="#16a34a" stroke-width="1"/><rect x="601.9" y="172.9" width="5.4" height="2.6" fill="#16a34a" opacity="0.82" rx="1"/>
<line x1="613.5" y1="172.6" x2="613.5" y2="184.9" stroke="#dc2626" stroke-width="1"/><rect x="610.7" y="172.9" width="5.4" height="8.1" fill="#dc2626" opacity="0.82" rx="1"/>
<line x1="622.3" y1="150.9" x2="622.3" y2="186.4" stroke="#16a34a" stroke-width="1"/><rect x="619.6" y="169.9" width="5.4" height="11.1" fill="#16a34a" opacity="0.82" rx="1"/>
<line x1="631.2" y1="164.2" x2="631.2" y2="181.5" stroke="#dc2626" stroke-width="1"/><rect x="628.5" y="169.9" width="5.4" height="3.0" fill="#dc2626" opacity="0.82" rx="1"/>
<line x1="640.1" y1="147.3" x2="640.1" y2="173.0" stroke="#16a34a" stroke-width="1"/><rect x="637.4" y="155.8" width="5.4" height="17.1" fill="#16a34a" opacity="0.82" rx="1"/>
<line x1="649.0" y1="152.6" x2="649.0" y2="168.5" stroke="#dc2626" stroke-width="1"/><rect x="646.2" y="155.8" width="5.4" height="2.0" fill="#dc2626" opacity="0.82" rx="1"/>
<line x1="657.8" y1="136.7" x2="657.8" y2="167.2" stroke="#16a34a" stroke-width="1"/><rect x="655.1" y="141.7" width="5.4" height="16.1" fill="#16a34a" opacity="0.82" rx="1"/>
<line x1="666.7" y1="133.2" x2="666.7" y2="149.0" stroke="#dc2626" stroke-width="1"/><rect x="664.0" y="141.7" width="5.4" height="3.1" fill="#dc2626" opacity="0.82" rx="1"/>
<line x1="675.6" y1="137.8" x2="675.6" y2="190.2" stroke="#dc2626" stroke-width="1"/><rect x="672.9" y="144.8" width="5.4" height="7.3" fill="#dc2626" opacity="0.82" rx="1"/>
<line x1="684.5" y1="135.9" x2="684.5" y2="176.4" stroke="#16a34a" stroke-width="1"/><rect x="681.8" y="147.1" width="5.4" height="4.9" fill="#16a34a" opacity="0.82" rx="1"/>
<line x1="693.3" y1="146.1" x2="693.3" y2="172.6" stroke="#dc2626" stroke-width="1"/><rect x="690.6" y="147.1" width="5.4" height="25.3" fill="#dc2626" opacity="0.82" rx="1"/>
<line x1="702.2" y1="160.9" x2="702.2" y2="187.3" stroke="#16a34a" stroke-width="1"/><rect x="699.5" y="170.8" width="5.4" height="1.6" fill="#16a34a" opacity="0.82" rx="1"/>
<line x1="711.1" y1="164.3" x2="711.1" y2="186.8" stroke="#dc2626" stroke-width="1"/><rect x="708.4" y="170.8" width="5.4" height="12.7" fill="#dc2626" opacity="0.82" rx="1"/>
<line x1="720.0" y1="103.5" x2="720.0" y2="200.4" stroke="#16a34a" stroke-width="1"/><rect x="717.3" y="105.6" width="5.4" height="77.9" fill="#16a34a" opacity="0.82" rx="1"/>
<line x1="728.9" y1="94.4" x2="728.9" y2="129.8" stroke="#dc2626" stroke-width="1"/><rect x="726.1" y="105.6" width="5.4" height="13.7" fill="#dc2626" opacity="0.82" rx="1"/>
<line x1="737.7" y1="83.7" x2="737.7" y2="124.9" stroke="#16a34a" stroke-width="1"/><rect x="735.0" y="109.0" width="5.4" height="10.3" fill="#16a34a" opacity="0.82" rx="1"/>
<line x1="746.6" y1="104.2" x2="746.6" y2="133.3" stroke="#dc2626" stroke-width="1"/><rect x="743.9" y="109.0" width="5.4" height="15.0" fill="#dc2626" opacity="0.82" rx="1"/>
<line x1="755.5" y1="108.8" x2="755.5" y2="124.2" stroke="#16a34a" stroke-width="1"/><rect x="752.8" y="114.9" width="5.4" height="9.1" fill="#16a34a" opacity="0.82" rx="1"/>
<line x1="764.4" y1="103.7" x2="764.4" y2="119.4" stroke="#dc2626" stroke-width="1"/><rect x="761.6" y="114.9" width="5.4" height="1.5" fill="#dc2626" opacity="0.82" rx="1"/>
<line x1="773.2" y1="98.5" x2="773.2" y2="126.5" stroke="#16a34a" stroke-width="1"/><rect x="770.5" y="106.8" width="5.4" height="9.5" fill="#16a34a" opacity="0.82" rx="1"/>
<line x1="782.1" y1="93.8" x2="782.1" y2="114.7" stroke="#16a34a" stroke-width="1"/><rect x="779.4" y="105.4" width="5.4" height="1.4" fill="#16a34a" opacity="0.82" rx="1"/>
<line x1="791.0" y1="105.4" x2="791.0" y2="130.6" stroke="#dc2626" stroke-width="1"/><rect x="788.3" y="105.4" width="5.4" height="15.7" fill="#dc2626" opacity="0.82" rx="1"/>
<line x1="799.9" y1="95.1" x2="799.9" y2="121.1" stroke="#16a34a" stroke-width="1"/><rect x="797.1" y="107.5" width="5.4" height="13.6" fill="#16a34a" opacity="0.82" rx="1"/>
<line x1="808.7" y1="105.2" x2="808.7" y2="127.5" stroke="#dc2626" stroke-width="1"/><rect x="806.0" y="107.5" width="5.4" height="7.2" fill="#dc2626" opacity="0.82" rx="1"/>
<line x1="817.6" y1="88.9" x2="817.6" y2="121.9" stroke="#16a34a" stroke-width="1"/><rect x="814.9" y="101.5" width="5.4" height="13.2" fill="#16a34a" opacity="0.82" rx="1"/>
<line x1="826.5" y1="99.7" x2="826.5" y2="131.1" stroke="#dc2626" stroke-width="1"/><rect x="823.8" y="101.5" width="5.4" height="25.8" fill="#dc2626" opacity="0.82" rx="1"/>
<line x1="835.4" y1="122.3" x2="835.4" y2="165.1" stroke="#dc2626" stroke-width="1"/><rect x="832.6" y="127.3" width="5.4" height="26.4" fill="#dc2626" opacity="0.82" rx="1"/>
<line x1="844.2" y1="137.3" x2="844.2" y2="156.3" stroke="#16a34a" stroke-width="1"/><rect x="841.5" y="145.6" width="5.4" height="8.1" fill="#16a34a" opacity="0.82" rx="1"/>
<line x1="853.1" y1="107.6" x2="853.1" y2="145.8" stroke="#16a34a" stroke-width="1"/><rect x="850.4" y="118.3" width="5.4" height="27.3" fill="#16a34a" opacity="0.82" rx="1"/>
<line x1="862.0" y1="114.9" x2="862.0" y2="119.8" stroke="#16a34a" stroke-width="1"/><rect x="859.3" y="118.0" width="5.4" height="1.2" fill="#16a34a" opacity="0.82" rx="1"/>
<line x1="72" y1="155.7" x2="862" y2="155.7" stroke="#16a34a" stroke-width="1.8" stroke-dasharray="6 4" /><rect x="874" y="135.7" width="166" height="23" rx="5" fill="#ffffff" stroke="#16a34a" opacity="0.97"/><text x="881" y="151.7" fill="#16a34a" font-size="15" font-weight="700">日内支撑 62,929</text>
<line x1="72" y1="55.1" x2="862" y2="55.1" stroke="#dc2626" stroke-width="1.8" stroke-dasharray="6 4" /><rect x="874" y="35.1" width="166" height="23" rx="5" fill="#ffffff" stroke="#dc2626" opacity="0.97"/><text x="881" y="51.1" fill="#dc2626" font-size="15" font-weight="700">日内压力 64,307</text>
<line x1="72" y1="118.0" x2="862" y2="118.0" stroke="#111827" stroke-width="1.8" stroke-dasharray="2 2" /><rect x="874" y="98.0" width="166" height="23" rx="5" fill="#ffffff" stroke="#111827" opacity="0.97"/><text x="881" y="114.0" fill="#111827" font-size="15" font-weight="700">现价 63,445</text>
<text x="72" y="396" fill="#16a34a" font-size="14" font-weight="700">日内做多计划</text><rect x="72" y="404" width="790" height="48" rx="6" fill="#f9fafb" stroke="#e5e7eb"/><line x1="94" y1="412" x2="840" y2="412" stroke="#16a34a" stroke-width="3"/><circle cx="132.0" cy="412" r="5" fill="#16a34a"/><text x="132.0" y="434" fill="#374151" font-size="12" text-anchor="middle">入场 止跌/突破回踩</text><circle cx="451.2" cy="412" r="5" fill="#16a34a"/><text x="451.2" y="434" fill="#374151" font-size="12" text-anchor="middle">止损 62,929</text><circle cx="712.0" cy="412" r="5" fill="#16a34a"/><text x="712.0" y="434" fill="#374151" font-size="12" text-anchor="middle">目标一 64,307</text><circle cx="814.0" cy="412" r="5" fill="#16a34a"/><text x="814.0" y="434" fill="#374151" font-size="12" text-anchor="middle">目标二 64,651</text>
<text x="72" y="482" fill="#dc2626" font-size="14" font-weight="700">日内做空计划</text><rect x="72" y="490" width="790" height="48" rx="6" fill="#f9fafb" stroke="#e5e7eb"/><line x1="94" y1="498" x2="840" y2="498" stroke="#dc2626" stroke-width="3"/><circle cx="132.0" cy="498" r="5" fill="#dc2626"/><text x="132.0" y="520" fill="#374151" font-size="12" text-anchor="middle">入场 反弹承压/破位回抽</text><circle cx="451.2" cy="498" r="5" fill="#dc2626"/><text x="451.2" y="520" fill="#374151" font-size="12" text-anchor="middle">止损 64,307</text><circle cx="712.0" cy="498" r="5" fill="#dc2626"/><text x="712.0" y="520" fill="#374151" font-size="12" text-anchor="middle">目标一 62,929</text><circle cx="814.0" cy="498" r="5" fill="#dc2626"/><text x="814.0" y="520" fill="#374151" font-size="12" text-anchor="middle">目标二 62,584</text>
</svg>