<svg xmlns="http://www.w3.org/2000/svg" width="1080" height="560" viewBox="0 0 1080 560">
<rect width="100%" height="100%" fill="#ffffff"/>
<text x="72" y="23" fill="#111827" font-size="21" font-weight="800">DRAM 小时线K线支撑压力图</text>
<text x="862" y="42" fill="#374151" font-size="15" text-anchor="end">最新价 77.21</text>
<line x1="72" y1="34" x2="72" y2="340" stroke="#d1d5db"/>
<line x1="72" y1="340" x2="862" y2="340" stroke="#d1d5db"/>
<line x1="72" y1="340.0" x2="862" y2="340.0" stroke="#f3f4f6"/>
<text x="8" y="345.0" fill="#4b5563" font-size="14">66.82</text>
<line x1="72" y1="263.5" x2="862" y2="263.5" stroke="#f3f4f6"/>
<text x="8" y="268.5" fill="#4b5563" font-size="14">70.31</text>
<line x1="72" y1="187.0" x2="862" y2="187.0" stroke="#f3f4f6"/>
<text x="8" y="192.0" fill="#4b5563" font-size="14">73.80</text>
<line x1="72" y1="110.5" x2="862" y2="110.5" stroke="#f3f4f6"/>
<text x="8" y="115.5" fill="#4b5563" font-size="14">77.29</text>
<line x1="72" y1="34.0" x2="862" y2="34.0" stroke="#f3f4f6"/>
<text x="8" y="39.0" fill="#4b5563" font-size="14">80.79</text>
<line x1="72.0" y1="268.3" x2="72.0" y2="296.8" stroke="#16a34a" stroke-width="1"/><rect x="69.3" y="274.2" width="5.4" height="16.4" fill="#16a34a" opacity="0.82" rx="1"/>
<line x1="80.9" y1="258.9" x2="80.9" y2="274.0" stroke="#16a34a" stroke-width="1"/><rect x="78.2" y="262.4" width="5.4" height="11.4" fill="#16a34a" opacity="0.82" rx="1"/>
<line x1="89.8" y1="252.3" x2="89.8" y2="262.8" stroke="#16a34a" stroke-width="1"/><rect x="87.0" y="260.4" width="5.4" height="1.8" fill="#16a34a" opacity="0.82" rx="1"/>
<line x1="98.6" y1="253.4" x2="98.6" y2="263.5" stroke="#16a34a" stroke-width="1"/><rect x="95.9" y="258.0" width="5.4" height="2.6" fill="#16a34a" opacity="0.82" rx="1"/>
<line x1="107.5" y1="243.8" x2="107.5" y2="260.8" stroke="#16a34a" stroke-width="1"/><rect x="104.8" y="251.6" width="5.4" height="5.9" fill="#16a34a" opacity="0.82" rx="1"/>
<line x1="116.4" y1="244.0" x2="116.4" y2="253.6" stroke="#16a34a" stroke-width="1"/><rect x="113.7" y="245.3" width="5.4" height="5.7" fill="#16a34a" opacity="0.82" rx="1"/>
<line x1="125.3" y1="240.7" x2="125.3" y2="258.4" stroke="#dc2626" stroke-width="1"/><rect x="122.5" y="245.1" width="5.4" height="6.4" fill="#dc2626" opacity="0.82" rx="1"/>
<line x1="134.1" y1="244.9" x2="134.1" y2="254.1" stroke="#16a34a" stroke-width="1"/><rect x="131.4" y="247.7" width="5.4" height="4.2" fill="#16a34a" opacity="0.82" rx="1"/>
<line x1="143.0" y1="243.1" x2="143.0" y2="260.4" stroke="#dc2626" stroke-width="1"/><rect x="140.3" y="248.1" width="5.4" height="2.8" fill="#dc2626" opacity="0.82" rx="1"/>
<line x1="151.9" y1="248.1" x2="151.9" y2="256.5" stroke="#dc2626" stroke-width="1"/><rect x="149.2" y="251.2" width="5.4" height="1.2" fill="#dc2626" opacity="0.82" rx="1"/>
<line x1="160.8" y1="250.6" x2="160.8" y2="286.5" stroke="#dc2626" stroke-width="1"/><rect x="158.0" y="252.1" width="5.4" height="34.4" fill="#dc2626" opacity="0.82" rx="1"/>
<line x1="169.6" y1="270.7" x2="169.6" y2="300.5" stroke="#16a34a" stroke-width="1"/><rect x="166.9" y="274.9" width="5.4" height="11.4" fill="#16a34a" opacity="0.82" rx="1"/>
<line x1="178.5" y1="267.2" x2="178.5" y2="278.6" stroke="#16a34a" stroke-width="1"/><rect x="175.8" y="270.5" width="5.4" height="4.4" fill="#16a34a" opacity="0.82" rx="1"/>
<line x1="187.4" y1="249.2" x2="187.4" y2="273.8" stroke="#16a34a" stroke-width="1"/><rect x="184.7" y="254.1" width="5.4" height="16.4" fill="#16a34a" opacity="0.82" rx="1"/>
<line x1="196.3" y1="247.0" x2="196.3" y2="257.8" stroke="#16a34a" stroke-width="1"/><rect x="193.5" y="252.1" width="5.4" height="2.6" fill="#16a34a" opacity="0.82" rx="1"/>
<line x1="205.1" y1="248.4" x2="205.1" y2="265.4" stroke="#dc2626" stroke-width="1"/><rect x="202.4" y="252.3" width="5.4" height="12.5" fill="#dc2626" opacity="0.82" rx="1"/>
<line x1="214.0" y1="250.1" x2="214.0" y2="264.8" stroke="#16a34a" stroke-width="1"/><rect x="211.3" y="250.6" width="5.4" height="14.0" fill="#16a34a" opacity="0.82" rx="1"/>
<line x1="222.9" y1="247.0" x2="222.9" y2="252.3" stroke="#dc2626" stroke-width="1"/><rect x="220.2" y="250.6" width="5.4" height="1.2" fill="#dc2626" opacity="0.82" rx="1"/>
<line x1="231.8" y1="210.5" x2="231.8" y2="251.0" stroke="#16a34a" stroke-width="1"/><rect x="229.1" y="213.3" width="5.4" height="37.2" fill="#16a34a" opacity="0.82" rx="1"/>
<line x1="240.7" y1="207.0" x2="240.7" y2="221.9" stroke="#dc2626" stroke-width="1"/><rect x="237.9" y="213.8" width="5.4" height="5.3" fill="#dc2626" opacity="0.82" rx="1"/>
<line x1="249.5" y1="210.2" x2="249.5" y2="224.3" stroke="#16a34a" stroke-width="1"/><rect x="246.8" y="211.1" width="5.4" height="8.5" fill="#16a34a" opacity="0.82" rx="1"/>
<line x1="258.4" y1="202.8" x2="258.4" y2="215.3" stroke="#16a34a" stroke-width="1"/><rect x="255.7" y="208.7" width="5.4" height="2.8" fill="#16a34a" opacity="0.82" rx="1"/>
<line x1="267.3" y1="205.9" x2="267.3" y2="237.4" stroke="#dc2626" stroke-width="1"/><rect x="264.6" y="208.9" width="5.4" height="22.6" fill="#dc2626" opacity="0.82" rx="1"/>
<line x1="276.2" y1="211.3" x2="276.2" y2="244.6" stroke="#16a34a" stroke-width="1"/><rect x="273.4" y="230.8" width="5.4" height="1.2" fill="#16a34a" opacity="0.82" rx="1"/>
<line x1="285.0" y1="228.2" x2="285.0" y2="281.9" stroke="#dc2626" stroke-width="1"/><rect x="282.3" y="230.8" width="5.4" height="45.6" fill="#dc2626" opacity="0.82" rx="1"/>
<line x1="293.9" y1="264.6" x2="293.9" y2="318.9" stroke="#dc2626" stroke-width="1"/><rect x="291.2" y="276.4" width="5.4" height="20.2" fill="#dc2626" opacity="0.82" rx="1"/>
<line x1="302.8" y1="272.7" x2="302.8" y2="297.2" stroke="#16a34a" stroke-width="1"/><rect x="300.1" y="284.9" width="5.4" height="12.0" fill="#16a34a" opacity="0.82" rx="1"/>
<line x1="311.7" y1="279.0" x2="311.7" y2="299.4" stroke="#16a34a" stroke-width="1"/><rect x="308.9" y="284.7" width="5.4" height="1.2" fill="#16a34a" opacity="0.82" rx="1"/>
<line x1="320.5" y1="280.6" x2="320.5" y2="305.8" stroke="#dc2626" stroke-width="1"/><rect x="317.8" y="284.9" width="5.4" height="17.1" fill="#dc2626" opacity="0.82" rx="1"/>
<line x1="329.4" y1="292.2" x2="329.4" y2="313.6" stroke="#dc2626" stroke-width="1"/><rect x="326.7" y="302.0" width="5.4" height="10.3" fill="#dc2626" opacity="0.82" rx="1"/>
<line x1="338.3" y1="278.2" x2="338.3" y2="313.0" stroke="#16a34a" stroke-width="1"/><rect x="335.6" y="308.4" width="5.4" height="4.2" fill="#16a34a" opacity="0.82" rx="1"/>
<line x1="347.2" y1="297.9" x2="347.2" y2="308.8" stroke="#16a34a" stroke-width="1"/><rect x="344.4" y="303.6" width="5.4" height="4.8" fill="#16a34a" opacity="0.82" rx="1"/>
<line x1="356.0" y1="287.8" x2="356.0" y2="308.6" stroke="#16a34a" stroke-width="1"/><rect x="353.3" y="289.3" width="5.4" height="13.8" fill="#16a34a" opacity="0.82" rx="1"/>
<line x1="364.9" y1="277.7" x2="364.9" y2="300.3" stroke="#dc2626" stroke-width="1"/><rect x="362.2" y="289.5" width="5.4" height="5.0" fill="#dc2626" opacity="0.82" rx="1"/>
<line x1="373.8" y1="264.1" x2="373.8" y2="295.2" stroke="#16a34a" stroke-width="1"/><rect x="371.1" y="273.6" width="5.4" height="21.0" fill="#16a34a" opacity="0.82" rx="1"/>
<line x1="382.7" y1="265.2" x2="382.7" y2="278.6" stroke="#16a34a" stroke-width="1"/><rect x="380.0" y="266.1" width="5.4" height="7.7" fill="#16a34a" opacity="0.82" rx="1"/>
<line x1="391.6" y1="259.5" x2="391.6" y2="270.0" stroke="#16a34a" stroke-width="1"/><rect x="388.8" y="263.5" width="5.4" height="3.1" fill="#16a34a" opacity="0.82" rx="1"/>
<line x1="400.4" y1="262.6" x2="400.4" y2="272.7" stroke="#dc2626" stroke-width="1"/><rect x="397.7" y="263.3" width="5.4" height="2.6" fill="#dc2626" opacity="0.82" rx="1"/>
<line x1="409.3" y1="237.6" x2="409.3" y2="266.5" stroke="#16a34a" stroke-width="1"/><rect x="406.6" y="239.8" width="5.4" height="25.8" fill="#16a34a" opacity="0.82" rx="1"/>
<line x1="418.2" y1="223.2" x2="418.2" y2="244.2" stroke="#16a34a" stroke-width="1"/><rect x="415.5" y="230.2" width="5.4" height="10.1" fill="#16a34a" opacity="0.82" rx="1"/>
<line x1="427.1" y1="226.2" x2="427.1" y2="232.8" stroke="#16a34a" stroke-width="1"/><rect x="424.3" y="228.0" width="5.4" height="2.6" fill="#16a34a" opacity="0.82" rx="1"/>
<line x1="435.9" y1="221.4" x2="435.9" y2="230.0" stroke="#16a34a" stroke-width="1"/><rect x="433.2" y="225.6" width="5.4" height="2.6" fill="#16a34a" opacity="0.82" rx="1"/>
<line x1="444.8" y1="220.8" x2="444.8" y2="245.3" stroke="#dc2626" stroke-width="1"/><rect x="442.1" y="225.6" width="5.4" height="11.8" fill="#dc2626" opacity="0.82" rx="1"/>
<line x1="453.7" y1="231.9" x2="453.7" y2="246.2" stroke="#dc2626" stroke-width="1"/><rect x="451.0" y="237.2" width="5.4" height="4.4" fill="#dc2626" opacity="0.82" rx="1"/>
<line x1="462.6" y1="240.7" x2="462.6" y2="251.6" stroke="#dc2626" stroke-width="1"/><rect x="459.8" y="241.8" width="5.4" height="4.4" fill="#dc2626" opacity="0.82" rx="1"/>
<line x1="471.4" y1="240.5" x2="471.4" y2="261.7" stroke="#dc2626" stroke-width="1"/><rect x="468.7" y="246.0" width="5.4" height="10.3" fill="#dc2626" opacity="0.82" rx="1"/>
<line x1="480.3" y1="234.3" x2="480.3" y2="256.2" stroke="#16a34a" stroke-width="1"/><rect x="477.6" y="240.5" width="5.4" height="15.8" fill="#16a34a" opacity="0.82" rx="1"/>
<line x1="489.2" y1="232.4" x2="489.2" y2="275.3" stroke="#dc2626" stroke-width="1"/><rect x="486.5" y="240.5" width="5.4" height="33.7" fill="#dc2626" opacity="0.82" rx="1"/>
<line x1="498.1" y1="241.6" x2="498.1" y2="276.2" stroke="#16a34a" stroke-width="1"/><rect x="495.3" y="259.3" width="5.4" height="14.9" fill="#16a34a" opacity="0.82" rx="1"/>
<line x1="506.9" y1="226.7" x2="506.9" y2="260.6" stroke="#16a34a" stroke-width="1"/><rect x="504.2" y="227.1" width="5.4" height="31.5" fill="#16a34a" opacity="0.82" rx="1"/>
<line x1="515.8" y1="221.6" x2="515.8" y2="234.3" stroke="#dc2626" stroke-width="1"/><rect x="513.1" y="227.1" width="5.4" height="2.4" fill="#dc2626" opacity="0.82" rx="1"/>
<line x1="524.7" y1="215.1" x2="524.7" y2="237.4" stroke="#16a34a" stroke-width="1"/><rect x="522.0" y="215.9" width="5.4" height="13.6" fill="#16a34a" opacity="0.82" rx="1"/>
<line x1="533.6" y1="198.2" x2="533.6" y2="265.4" stroke="#dc2626" stroke-width="1"/><rect x="530.9" y="215.7" width="5.4" height="9.0" fill="#dc2626" opacity="0.82" rx="1"/>
<line x1="542.4" y1="210.7" x2="542.4" y2="275.3" stroke="#dc2626" stroke-width="1"/><rect x="539.7" y="224.5" width="5.4" height="48.0" fill="#dc2626" opacity="0.82" rx="1"/>
<line x1="551.3" y1="246.8" x2="551.3" y2="272.7" stroke="#16a34a" stroke-width="1"/><rect x="548.6" y="253.8" width="5.4" height="18.6" fill="#16a34a" opacity="0.82" rx="1"/>
<line x1="560.2" y1="237.2" x2="560.2" y2="254.3" stroke="#16a34a" stroke-width="1"/><rect x="557.5" y="245.7" width="5.4" height="8.3" fill="#16a34a" opacity="0.82" rx="1"/>
<line x1="569.1" y1="226.5" x2="569.1" y2="257.3" stroke="#16a34a" stroke-width="1"/><rect x="566.4" y="229.1" width="5.4" height="16.6" fill="#16a34a" opacity="0.82" rx="1"/>
<line x1="578.0" y1="209.6" x2="578.0" y2="231.5" stroke="#16a34a" stroke-width="1"/><rect x="575.2" y="216.2" width="5.4" height="12.7" fill="#16a34a" opacity="0.82" rx="1"/>
<line x1="586.8" y1="190.3" x2="586.8" y2="221.6" stroke="#16a34a" stroke-width="1"/><rect x="584.1" y="205.9" width="5.4" height="9.9" fill="#16a34a" opacity="0.82" rx="1"/>
<line x1="595.7" y1="195.8" x2="595.7" y2="206.7" stroke="#16a34a" stroke-width="1"/><rect x="593.0" y="204.3" width="5.4" height="2.2" fill="#16a34a" opacity="0.82" rx="1"/>
<line x1="604.6" y1="196.0" x2="604.6" y2="206.5" stroke="#16a34a" stroke-width="1"/><rect x="601.9" y="197.5" width="5.4" height="6.6" fill="#16a34a" opacity="0.82" rx="1"/>
<line x1="613.5" y1="173.0" x2="613.5" y2="198.4" stroke="#16a34a" stroke-width="1"/><rect x="610.7" y="177.6" width="5.4" height="19.9" fill="#16a34a" opacity="0.82" rx="1"/>
<line x1="622.3" y1="166.7" x2="622.3" y2="190.3" stroke="#dc2626" stroke-width="1"/><rect x="619.6" y="177.6" width="5.4" height="7.2" fill="#dc2626" opacity="0.82" rx="1"/>
<line x1="631.2" y1="158.6" x2="631.2" y2="188.8" stroke="#16a34a" stroke-width="1"/><rect x="628.5" y="163.2" width="5.4" height="21.5" fill="#16a34a" opacity="0.82" rx="1"/>
<line x1="640.1" y1="163.4" x2="640.1" y2="177.0" stroke="#dc2626" stroke-width="1"/><rect x="637.4" y="163.4" width="5.4" height="8.5" fill="#dc2626" opacity="0.82" rx="1"/>
<line x1="649.0" y1="169.5" x2="649.0" y2="178.7" stroke="#16a34a" stroke-width="1"/><rect x="646.2" y="169.9" width="5.4" height="1.5" fill="#16a34a" opacity="0.82" rx="1"/>
<line x1="657.8" y1="161.2" x2="657.8" y2="182.2" stroke="#dc2626" stroke-width="1"/><rect x="655.1" y="169.9" width="5.4" height="11.6" fill="#dc2626" opacity="0.82" rx="1"/>
<line x1="666.7" y1="169.5" x2="666.7" y2="183.1" stroke="#16a34a" stroke-width="1"/><rect x="664.0" y="175.6" width="5.4" height="6.1" fill="#16a34a" opacity="0.82" rx="1"/>
<line x1="675.6" y1="172.6" x2="675.6" y2="181.3" stroke="#dc2626" stroke-width="1"/><rect x="672.9" y="175.9" width="5.4" height="2.6" fill="#dc2626" opacity="0.82" rx="1"/>
<line x1="684.5" y1="167.5" x2="684.5" y2="182.0" stroke="#16a34a" stroke-width="1"/><rect x="681.8" y="172.8" width="5.4" height="5.7" fill="#16a34a" opacity="0.82" rx="1"/>
<line x1="693.3" y1="159.4" x2="693.3" y2="176.3" stroke="#16a34a" stroke-width="1"/><rect x="690.6" y="161.2" width="5.4" height="11.4" fill="#16a34a" opacity="0.82" rx="1"/>
<line x1="702.2" y1="136.0" x2="702.2" y2="167.3" stroke="#16a34a" stroke-width="1"/><rect x="699.5" y="146.3" width="5.4" height="15.1" fill="#16a34a" opacity="0.82" rx="1"/>
<line x1="711.1" y1="107.1" x2="711.1" y2="147.2" stroke="#16a34a" stroke-width="1"/><rect x="708.4" y="112.5" width="5.4" height="34.0" fill="#16a34a" opacity="0.82" rx="1"/>
<line x1="720.0" y1="104.0" x2="720.0" y2="129.2" stroke="#dc2626" stroke-width="1"/><rect x="717.3" y="112.5" width="5.4" height="9.2" fill="#dc2626" opacity="0.82" rx="1"/>
<line x1="728.9" y1="111.9" x2="728.9" y2="123.7" stroke="#16a34a" stroke-width="1"/><rect x="726.1" y="116.5" width="5.4" height="5.3" fill="#16a34a" opacity="0.82" rx="1"/>
<line x1="737.7" y1="107.7" x2="737.7" y2="121.3" stroke="#16a34a" stroke-width="1"/><rect x="735.0" y="113.0" width="5.4" height="3.3" fill="#16a34a" opacity="0.82" rx="1"/>
<line x1="746.6" y1="100.5" x2="746.6" y2="113.0" stroke="#16a34a" stroke-width="1"/><rect x="743.9" y="108.6" width="5.4" height="4.4" fill="#16a34a" opacity="0.82" rx="1"/>
<line x1="755.5" y1="98.7" x2="755.5" y2="120.2" stroke="#dc2626" stroke-width="1"/><rect x="752.8" y="108.4" width="5.4" height="11.8" fill="#dc2626" opacity="0.82" rx="1"/>
<line x1="764.4" y1="107.1" x2="764.4" y2="121.7" stroke="#16a34a" stroke-width="1"/><rect x="761.6" y="107.3" width="5.4" height="12.9" fill="#16a34a" opacity="0.82" rx="1"/>
<line x1="773.2" y1="94.1" x2="773.2" y2="109.0" stroke="#16a34a" stroke-width="1"/><rect x="770.5" y="94.6" width="5.4" height="12.5" fill="#16a34a" opacity="0.82" rx="1"/>
<line x1="782.1" y1="83.2" x2="782.1" y2="100.1" stroke="#16a34a" stroke-width="1"/><rect x="779.4" y="93.9" width="5.4" height="1.2" fill="#16a34a" opacity="0.82" rx="1"/>
<line x1="791.0" y1="87.4" x2="791.0" y2="101.6" stroke="#16a34a" stroke-width="1"/><rect x="788.3" y="89.8" width="5.4" height="3.9" fill="#16a34a" opacity="0.82" rx="1"/>
<line x1="799.9" y1="79.9" x2="799.9" y2="119.1" stroke="#dc2626" stroke-width="1"/><rect x="797.1" y="90.0" width="5.4" height="11.2" fill="#dc2626" opacity="0.82" rx="1"/>
<line x1="808.7" y1="82.5" x2="808.7" y2="112.8" stroke="#dc2626" stroke-width="1"/><rect x="806.0" y="101.8" width="5.4" height="7.2" fill="#dc2626" opacity="0.82" rx="1"/>
<line x1="817.6" y1="103.1" x2="817.6" y2="121.5" stroke="#16a34a" stroke-width="1"/><rect x="814.9" y="106.4" width="5.4" height="2.6" fill="#16a34a" opacity="0.82" rx="1"/>
<line x1="826.5" y1="101.6" x2="826.5" y2="127.4" stroke="#dc2626" stroke-width="1"/><rect x="823.8" y="106.4" width="5.4" height="15.6" fill="#dc2626" opacity="0.82" rx="1"/>
<line x1="835.4" y1="111.5" x2="835.4" y2="162.5" stroke="#dc2626" stroke-width="1"/><rect x="832.6" y="122.0" width="5.4" height="31.3" fill="#dc2626" opacity="0.82" rx="1"/>
<line x1="844.2" y1="130.1" x2="844.2" y2="164.0" stroke="#16a34a" stroke-width="1"/><rect x="841.5" y="131.8" width="5.4" height="21.2" fill="#16a34a" opacity="0.82" rx="1"/>
<line x1="853.1" y1="109.9" x2="853.1" y2="132.5" stroke="#16a34a" stroke-width="1"/><rect x="850.4" y="114.7" width="5.4" height="17.1" fill="#16a34a" opacity="0.82" rx="1"/>
<line x1="862.0" y1="110.4" x2="862.0" y2="115.0" stroke="#16a34a" stroke-width="1"/><rect x="859.3" y="112.3" width="5.4" height="2.6" fill="#16a34a" opacity="0.82" rx="1"/>
<line x1="72" y1="146.7" x2="862" y2="146.7" stroke="#16a34a" stroke-width="1.8" stroke-dasharray="6 4" /><rect x="874" y="126.7" width="166" height="23" rx="5" fill="#ffffff" stroke="#16a34a" opacity="0.97"/><text x="881" y="142.7" fill="#16a34a" font-size="15" font-weight="700">日内支撑 75.64</text>
<line x1="72" y1="55.1" x2="862" y2="55.1" stroke="#dc2626" stroke-width="1.8" stroke-dasharray="6 4" /><rect x="874" y="35.1" width="166" height="23" rx="5" fill="#ffffff" stroke="#dc2626" opacity="0.97"/><text x="881" y="51.1" fill="#dc2626" font-size="15" font-weight="700">日内压力 79.82</text>
<line x1="72" y1="112.3" x2="862" y2="112.3" stroke="#111827" stroke-width="1.8" stroke-dasharray="2 2" /><rect x="874" y="92.3" width="166" height="23" rx="5" fill="#ffffff" stroke="#111827" opacity="0.97"/><text x="881" y="108.3" fill="#111827" font-size="15" font-weight="700">现价 77.21</text>
<text x="72" y="396" fill="#16a34a" font-size="14" font-weight="700">日内做多计划</text><rect x="72" y="404" width="790" height="48" rx="6" fill="#f9fafb" stroke="#e5e7eb"/><line x1="94" y1="412" x2="840" y2="412" stroke="#16a34a" stroke-width="3"/><circle cx="132.0" cy="412" r="5" fill="#16a34a"/><text x="132.0" y="434" fill="#374151" font-size="12" text-anchor="middle">入场 止跌/突破回踩</text><circle cx="451.2" cy="412" r="5" fill="#16a34a"/><text x="451.2" y="434" fill="#374151" font-size="12" text-anchor="middle">止损 75.64</text><circle cx="712.0" cy="412" r="5" fill="#16a34a"/><text x="712.0" y="434" fill="#374151" font-size="12" text-anchor="middle">目标一 79.82</text><circle cx="814.0" cy="412" r="5" fill="#16a34a"/><text x="814.0" y="434" fill="#374151" font-size="12" text-anchor="middle">目标二 80.87</text>
<text x="72" y="482" fill="#dc2626" font-size="14" font-weight="700">日内做空计划</text><rect x="72" y="490" width="790" height="48" rx="6" fill="#f9fafb" stroke="#e5e7eb"/><line x1="94" y1="498" x2="840" y2="498" stroke="#dc2626" stroke-width="3"/><circle cx="132.0" cy="498" r="5" fill="#dc2626"/><text x="132.0" y="520" fill="#374151" font-size="12" text-anchor="middle">入场 反弹承压/破位回抽</text><circle cx="451.2" cy="498" r="5" fill="#dc2626"/><text x="451.2" y="520" fill="#374151" font-size="12" text-anchor="middle">止损 79.82</text><circle cx="712.0" cy="498" r="5" fill="#dc2626"/><text x="712.0" y="520" fill="#374151" font-size="12" text-anchor="middle">目标一 75.64</text><circle cx="814.0" cy="498" r="5" fill="#dc2626"/><text x="814.0" y="520" fill="#374151" font-size="12" text-anchor="middle">目标二 74.60</text>
</svg>