<svg xmlns="http://www.w3.org/2000/svg" width="1080" height="560" viewBox="0 0 1080 560">
<rect width="100%" height="100%" fill="#ffffff"/>
<text x="72" y="23" fill="#111827" font-size="21" font-weight="800">HYPE 日线K线支撑压力图</text>
<text x="862" y="42" fill="#374151" font-size="15" text-anchor="end">最新价 68.12</text>
<line x1="72" y1="34" x2="72" y2="340" stroke="#d1d5db"/>
<line x1="72" y1="340" x2="862" y2="340" stroke="#d1d5db"/>
<line x1="72" y1="340.0" x2="862" y2="340.0" stroke="#f3f4f6"/>
<text x="8" y="345.0" fill="#4b5563" font-size="14">30.58</text>
<line x1="72" y1="263.5" x2="862" y2="263.5" stroke="#f3f4f6"/>
<text x="8" y="268.5" fill="#4b5563" font-size="14">44.51</text>
<line x1="72" y1="187.0" x2="862" y2="187.0" stroke="#f3f4f6"/>
<text x="8" y="192.0" fill="#4b5563" font-size="14">58.44</text>
<line x1="72" y1="110.5" x2="862" y2="110.5" stroke="#f3f4f6"/>
<text x="8" y="115.5" fill="#4b5563" font-size="14">72.37</text>
<line x1="72" y1="34.0" x2="862" y2="34.0" stroke="#f3f4f6"/>
<text x="8" y="39.0" fill="#4b5563" font-size="14">86.31</text>
<line x1="72.0" y1="290.9" x2="72.0" y2="302.2" stroke="#dc2626" stroke-width="1"/><rect x="69.3" y="292.9" width="5.4" height="4.4" fill="#dc2626" opacity="0.82" rx="1"/>
<line x1="80.9" y1="290.7" x2="80.9" y2="305.9" stroke="#dc2626" stroke-width="1"/><rect x="78.2" y="297.3" width="5.4" height="5.4" fill="#dc2626" opacity="0.82" rx="1"/>
<line x1="89.8" y1="285.7" x2="89.8" y2="303.5" stroke="#16a34a" stroke-width="1"/><rect x="87.0" y="286.5" width="5.4" height="16.2" fill="#16a34a" opacity="0.82" rx="1"/>
<line x1="98.6" y1="279.8" x2="98.6" y2="290.2" stroke="#16a34a" stroke-width="1"/><rect x="95.9" y="286.5" width="5.4" height="1.2" fill="#16a34a" opacity="0.82" rx="1"/>
<line x1="107.5" y1="286.2" x2="107.5" y2="297.8" stroke="#dc2626" stroke-width="1"/><rect x="104.8" y="286.5" width="5.4" height="6.4" fill="#dc2626" opacity="0.82" rx="1"/>
<line x1="116.4" y1="291.5" x2="116.4" y2="299.9" stroke="#dc2626" stroke-width="1"/><rect x="113.7" y="292.9" width="5.4" height="2.7" fill="#dc2626" opacity="0.82" rx="1"/>
<line x1="125.3" y1="286.9" x2="125.3" y2="299.3" stroke="#16a34a" stroke-width="1"/><rect x="122.5" y="291.3" width="5.4" height="4.3" fill="#16a34a" opacity="0.82" rx="1"/>
<line x1="134.1" y1="288.0" x2="134.1" y2="300.8" stroke="#dc2626" stroke-width="1"/><rect x="131.4" y="291.3" width="5.4" height="9.0" fill="#dc2626" opacity="0.82" rx="1"/>
<line x1="143.0" y1="295.0" x2="143.0" y2="307.8" stroke="#dc2626" stroke-width="1"/><rect x="140.3" y="300.3" width="5.4" height="5.4" fill="#dc2626" opacity="0.82" rx="1"/>
<line x1="151.9" y1="301.3" x2="151.9" y2="312.2" stroke="#dc2626" stroke-width="1"/><rect x="149.2" y="305.7" width="5.4" height="1.3" fill="#dc2626" opacity="0.82" rx="1"/>
<line x1="160.8" y1="300.1" x2="160.8" y2="311.1" stroke="#dc2626" stroke-width="1"/><rect x="158.0" y="307.0" width="5.4" height="3.2" fill="#dc2626" opacity="0.82" rx="1"/>
<line x1="169.6" y1="308.8" x2="169.6" y2="318.9" stroke="#dc2626" stroke-width="1"/><rect x="166.9" y="310.2" width="5.4" height="4.6" fill="#dc2626" opacity="0.82" rx="1"/>
<line x1="178.5" y1="309.7" x2="178.5" y2="315.4" stroke="#16a34a" stroke-width="1"/><rect x="175.8" y="312.5" width="5.4" height="2.3" fill="#16a34a" opacity="0.82" rx="1"/>
<line x1="187.4" y1="307.2" x2="187.4" y2="313.0" stroke="#16a34a" stroke-width="1"/><rect x="184.7" y="308.3" width="5.4" height="4.2" fill="#16a34a" opacity="0.82" rx="1"/>
<line x1="196.3" y1="304.7" x2="196.3" y2="315.1" stroke="#16a34a" stroke-width="1"/><rect x="193.5" y="305.6" width="5.4" height="2.7" fill="#16a34a" opacity="0.82" rx="1"/>
<line x1="205.1" y1="300.6" x2="205.1" y2="310.5" stroke="#dc2626" stroke-width="1"/><rect x="202.4" y="305.5" width="5.4" height="3.1" fill="#dc2626" opacity="0.82" rx="1"/>
<line x1="214.0" y1="292.9" x2="214.0" y2="311.8" stroke="#16a34a" stroke-width="1"/><rect x="211.3" y="295.9" width="5.4" height="12.7" fill="#16a34a" opacity="0.82" rx="1"/>
<line x1="222.9" y1="289.4" x2="222.9" y2="300.6" stroke="#16a34a" stroke-width="1"/><rect x="220.2" y="295.1" width="5.4" height="1.2" fill="#16a34a" opacity="0.82" rx="1"/>
<line x1="231.8" y1="286.1" x2="231.8" y2="298.4" stroke="#16a34a" stroke-width="1"/><rect x="229.1" y="291.2" width="5.4" height="3.8" fill="#16a34a" opacity="0.82" rx="1"/>
<line x1="240.7" y1="276.0" x2="240.7" y2="291.4" stroke="#16a34a" stroke-width="1"/><rect x="237.9" y="279.5" width="5.4" height="11.7" fill="#16a34a" opacity="0.82" rx="1"/>
<line x1="249.5" y1="270.8" x2="249.5" y2="280.1" stroke="#16a34a" stroke-width="1"/><rect x="246.8" y="275.8" width="5.4" height="3.8" fill="#16a34a" opacity="0.82" rx="1"/>
<line x1="258.4" y1="272.8" x2="258.4" y2="287.2" stroke="#dc2626" stroke-width="1"/><rect x="255.7" y="275.8" width="5.4" height="7.9" fill="#dc2626" opacity="0.82" rx="1"/>
<line x1="267.3" y1="262.9" x2="267.3" y2="284.0" stroke="#16a34a" stroke-width="1"/><rect x="264.6" y="264.4" width="5.4" height="19.2" fill="#16a34a" opacity="0.82" rx="1"/>
<line x1="276.2" y1="258.9" x2="276.2" y2="272.2" stroke="#dc2626" stroke-width="1"/><rect x="273.4" y="264.5" width="5.4" height="4.4" fill="#dc2626" opacity="0.82" rx="1"/>
<line x1="285.0" y1="258.3" x2="285.0" y2="271.1" stroke="#16a34a" stroke-width="1"/><rect x="282.3" y="262.8" width="5.4" height="6.1" fill="#16a34a" opacity="0.82" rx="1"/>
<line x1="293.9" y1="256.6" x2="293.9" y2="270.1" stroke="#dc2626" stroke-width="1"/><rect x="291.2" y="262.8" width="5.4" height="4.5" fill="#dc2626" opacity="0.82" rx="1"/>
<line x1="302.8" y1="258.1" x2="302.8" y2="270.9" stroke="#16a34a" stroke-width="1"/><rect x="300.1" y="262.9" width="5.4" height="4.4" fill="#16a34a" opacity="0.82" rx="1"/>
<line x1="311.7" y1="258.3" x2="311.7" y2="267.9" stroke="#dc2626" stroke-width="1"/><rect x="308.9" y="262.9" width="5.4" height="4.6" fill="#dc2626" opacity="0.82" rx="1"/>
<line x1="320.5" y1="266.7" x2="320.5" y2="285.5" stroke="#dc2626" stroke-width="1"/><rect x="317.8" y="267.5" width="5.4" height="17.0" fill="#dc2626" opacity="0.82" rx="1"/>
<line x1="329.4" y1="278.4" x2="329.4" y2="285.2" stroke="#16a34a" stroke-width="1"/><rect x="326.7" y="284.4" width="5.4" height="1.2" fill="#16a34a" opacity="0.82" rx="1"/>
<line x1="338.3" y1="280.4" x2="338.3" y2="294.4" stroke="#dc2626" stroke-width="1"/><rect x="335.6" y="284.4" width="5.4" height="5.1" fill="#dc2626" opacity="0.82" rx="1"/>
<line x1="347.2" y1="278.7" x2="347.2" y2="290.3" stroke="#16a34a" stroke-width="1"/><rect x="344.4" y="281.9" width="5.4" height="7.7" fill="#16a34a" opacity="0.82" rx="1"/>
<line x1="356.0" y1="278.0" x2="356.0" y2="285.4" stroke="#16a34a" stroke-width="1"/><rect x="353.3" y="281.1" width="5.4" height="1.2" fill="#16a34a" opacity="0.82" rx="1"/>
<line x1="364.9" y1="279.8" x2="364.9" y2="284.5" stroke="#dc2626" stroke-width="1"/><rect x="362.2" y="281.1" width="5.4" height="1.2" fill="#dc2626" opacity="0.82" rx="1"/>
<line x1="373.8" y1="277.8" x2="373.8" y2="283.7" stroke="#16a34a" stroke-width="1"/><rect x="371.1" y="280.0" width="5.4" height="1.8" fill="#16a34a" opacity="0.82" rx="1"/>
<line x1="382.7" y1="274.0" x2="382.7" y2="283.1" stroke="#16a34a" stroke-width="1"/><rect x="380.0" y="274.8" width="5.4" height="5.2" fill="#16a34a" opacity="0.82" rx="1"/>
<line x1="391.6" y1="268.7" x2="391.6" y2="281.3" stroke="#dc2626" stroke-width="1"/><rect x="388.8" y="274.8" width="5.4" height="4.4" fill="#dc2626" opacity="0.82" rx="1"/>
<line x1="400.4" y1="278.2" x2="400.4" y2="291.7" stroke="#dc2626" stroke-width="1"/><rect x="397.7" y="279.2" width="5.4" height="8.1" fill="#dc2626" opacity="0.82" rx="1"/>
<line x1="409.3" y1="283.9" x2="409.3" y2="292.9" stroke="#dc2626" stroke-width="1"/><rect x="406.6" y="287.4" width="5.4" height="1.2" fill="#dc2626" opacity="0.82" rx="1"/>
<line x1="418.2" y1="286.5" x2="418.2" y2="295.4" stroke="#dc2626" stroke-width="1"/><rect x="415.5" y="288.6" width="5.4" height="1.3" fill="#dc2626" opacity="0.82" rx="1"/>
<line x1="427.1" y1="282.0" x2="427.1" y2="290.1" stroke="#16a34a" stroke-width="1"/><rect x="424.3" y="282.1" width="5.4" height="7.9" fill="#16a34a" opacity="0.82" rx="1"/>
<line x1="435.9" y1="274.8" x2="435.9" y2="282.9" stroke="#16a34a" stroke-width="1"/><rect x="433.2" y="281.4" width="5.4" height="1.2" fill="#16a34a" opacity="0.82" rx="1"/>
<line x1="444.8" y1="278.8" x2="444.8" y2="284.5" stroke="#16a34a" stroke-width="1"/><rect x="442.1" y="279.7" width="5.4" height="1.6" fill="#16a34a" opacity="0.82" rx="1"/>
<line x1="453.7" y1="274.0" x2="453.7" y2="283.8" stroke="#16a34a" stroke-width="1"/><rect x="451.0" y="278.3" width="5.4" height="1.4" fill="#16a34a" opacity="0.82" rx="1"/>
<line x1="462.6" y1="262.8" x2="462.6" y2="278.5" stroke="#16a34a" stroke-width="1"/><rect x="459.8" y="267.9" width="5.4" height="10.4" fill="#16a34a" opacity="0.82" rx="1"/>
<line x1="471.4" y1="262.1" x2="471.4" y2="272.3" stroke="#dc2626" stroke-width="1"/><rect x="468.7" y="267.9" width="5.4" height="3.2" fill="#dc2626" opacity="0.82" rx="1"/>
<line x1="480.3" y1="268.7" x2="480.3" y2="278.1" stroke="#dc2626" stroke-width="1"/><rect x="477.6" y="271.1" width="5.4" height="3.3" fill="#dc2626" opacity="0.82" rx="1"/>
<line x1="489.2" y1="269.0" x2="489.2" y2="277.1" stroke="#16a34a" stroke-width="1"/><rect x="486.5" y="270.3" width="5.4" height="4.1" fill="#16a34a" opacity="0.82" rx="1"/>
<line x1="498.1" y1="264.0" x2="498.1" y2="272.7" stroke="#dc2626" stroke-width="1"/><rect x="495.3" y="270.3" width="5.4" height="1.9" fill="#dc2626" opacity="0.82" rx="1"/>
<line x1="506.9" y1="268.0" x2="506.9" y2="276.6" stroke="#16a34a" stroke-width="1"/><rect x="504.2" y="271.7" width="5.4" height="1.2" fill="#16a34a" opacity="0.82" rx="1"/>
<line x1="515.8" y1="271.0" x2="515.8" y2="283.7" stroke="#dc2626" stroke-width="1"/><rect x="513.1" y="271.7" width="5.4" height="5.6" fill="#dc2626" opacity="0.82" rx="1"/>
<line x1="524.7" y1="277.0" x2="524.7" y2="289.5" stroke="#dc2626" stroke-width="1"/><rect x="522.0" y="277.3" width="5.4" height="9.6" fill="#dc2626" opacity="0.82" rx="1"/>
<line x1="533.6" y1="284.4" x2="533.6" y2="295.3" stroke="#dc2626" stroke-width="1"/><rect x="530.9" y="286.9" width="5.4" height="7.9" fill="#dc2626" opacity="0.82" rx="1"/>
<line x1="542.4" y1="262.1" x2="542.4" y2="298.3" stroke="#16a34a" stroke-width="1"/><rect x="539.7" y="265.6" width="5.4" height="29.2" fill="#16a34a" opacity="0.82" rx="1"/>
<line x1="551.3" y1="249.5" x2="551.3" y2="272.9" stroke="#16a34a" stroke-width="1"/><rect x="548.6" y="265.5" width="5.4" height="1.2" fill="#16a34a" opacity="0.82" rx="1"/>
<line x1="560.2" y1="263.7" x2="560.2" y2="286.2" stroke="#dc2626" stroke-width="1"/><rect x="557.5" y="265.4" width="5.4" height="12.8" fill="#dc2626" opacity="0.82" rx="1"/>
<line x1="569.1" y1="249.0" x2="569.1" y2="280.9" stroke="#16a34a" stroke-width="1"/><rect x="566.4" y="257.1" width="5.4" height="21.2" fill="#16a34a" opacity="0.82" rx="1"/>
<line x1="578.0" y1="244.3" x2="578.0" y2="265.2" stroke="#16a34a" stroke-width="1"/><rect x="575.2" y="245.7" width="5.4" height="11.4" fill="#16a34a" opacity="0.82" rx="1"/>
<line x1="586.8" y1="239.4" x2="586.8" y2="250.9" stroke="#16a34a" stroke-width="1"/><rect x="584.1" y="244.3" width="5.4" height="1.4" fill="#16a34a" opacity="0.82" rx="1"/>
<line x1="595.7" y1="206.8" x2="595.7" y2="249.4" stroke="#16a34a" stroke-width="1"/><rect x="593.0" y="206.8" width="5.4" height="37.5" fill="#16a34a" opacity="0.82" rx="1"/>
<line x1="604.6" y1="164.2" x2="604.6" y2="207.5" stroke="#16a34a" stroke-width="1"/><rect x="601.9" y="186.2" width="5.4" height="20.6" fill="#16a34a" opacity="0.82" rx="1"/>
<line x1="613.5" y1="167.7" x2="613.5" y2="209.9" stroke="#dc2626" stroke-width="1"/><rect x="610.7" y="186.3" width="5.4" height="21.9" fill="#dc2626" opacity="0.82" rx="1"/>
<line x1="622.3" y1="179.0" x2="622.3" y2="211.4" stroke="#16a34a" stroke-width="1"/><rect x="619.6" y="185.6" width="5.4" height="22.6" fill="#16a34a" opacity="0.82" rx="1"/>
<line x1="631.2" y1="153.7" x2="631.2" y2="186.1" stroke="#16a34a" stroke-width="1"/><rect x="628.5" y="163.4" width="5.4" height="22.2" fill="#16a34a" opacity="0.82" rx="1"/>
<line x1="640.1" y1="157.0" x2="640.1" y2="174.5" stroke="#dc2626" stroke-width="1"/><rect x="637.4" y="163.3" width="5.4" height="9.1" fill="#dc2626" opacity="0.82" rx="1"/>
<line x1="649.0" y1="152.4" x2="649.0" y2="186.4" stroke="#dc2626" stroke-width="1"/><rect x="646.2" y="172.4" width="5.4" height="8.7" fill="#dc2626" opacity="0.82" rx="1"/>
<line x1="657.8" y1="160.2" x2="657.8" y2="194.6" stroke="#dc2626" stroke-width="1"/><rect x="655.1" y="181.1" width="5.4" height="10.4" fill="#dc2626" opacity="0.82" rx="1"/>
<line x1="666.7" y1="166.7" x2="666.7" y2="199.0" stroke="#16a34a" stroke-width="1"/><rect x="664.0" y="170.1" width="5.4" height="21.4" fill="#16a34a" opacity="0.82" rx="1"/>
<line x1="675.6" y1="137.7" x2="675.6" y2="176.7" stroke="#16a34a" stroke-width="1"/><rect x="672.9" y="154.2" width="5.4" height="15.9" fill="#16a34a" opacity="0.82" rx="1"/>
<line x1="684.5" y1="131.0" x2="684.5" y2="156.5" stroke="#16a34a" stroke-width="1"/><rect x="681.8" y="132.9" width="5.4" height="21.3" fill="#16a34a" opacity="0.82" rx="1"/>
<line x1="693.3" y1="106.4" x2="693.3" y2="137.4" stroke="#16a34a" stroke-width="1"/><rect x="690.6" y="112.3" width="5.4" height="20.6" fill="#16a34a" opacity="0.82" rx="1"/>
<line x1="702.2" y1="91.5" x2="702.2" y2="121.2" stroke="#16a34a" stroke-width="1"/><rect x="699.5" y="103.9" width="5.4" height="8.2" fill="#16a34a" opacity="0.82" rx="1"/>
<line x1="711.1" y1="92.5" x2="711.1" y2="135.4" stroke="#dc2626" stroke-width="1"/><rect x="708.4" y="103.9" width="5.4" height="20.6" fill="#dc2626" opacity="0.82" rx="1"/>
<line x1="720.0" y1="92.8" x2="720.0" y2="133.0" stroke="#16a34a" stroke-width="1"/><rect x="717.3" y="98.4" width="5.4" height="26.0" fill="#16a34a" opacity="0.82" rx="1"/>
<line x1="728.9" y1="93.3" x2="728.9" y2="162.0" stroke="#dc2626" stroke-width="1"/><rect x="726.1" y="98.4" width="5.4" height="55.7" fill="#dc2626" opacity="0.82" rx="1"/>
<line x1="737.7" y1="145.3" x2="737.7" y2="196.6" stroke="#dc2626" stroke-width="1"/><rect x="735.0" y="154.1" width="5.4" height="25.3" fill="#dc2626" opacity="0.82" rx="1"/>
<line x1="746.6" y1="171.7" x2="746.6" y2="203.3" stroke="#dc2626" stroke-width="1"/><rect x="743.9" y="179.5" width="5.4" height="18.1" fill="#dc2626" opacity="0.82" rx="1"/>
<line x1="755.5" y1="176.0" x2="755.5" y2="199.8" stroke="#16a34a" stroke-width="1"/><rect x="752.8" y="179.8" width="5.4" height="17.7" fill="#16a34a" opacity="0.82" rx="1"/>
<line x1="764.4" y1="146.6" x2="764.4" y2="182.3" stroke="#16a34a" stroke-width="1"/><rect x="761.6" y="157.4" width="5.4" height="22.5" fill="#16a34a" opacity="0.82" rx="1"/>
<line x1="773.2" y1="156.3" x2="773.2" y2="193.3" stroke="#dc2626" stroke-width="1"/><rect x="770.5" y="157.3" width="5.4" height="33.4" fill="#dc2626" opacity="0.82" rx="1"/>
<line x1="782.1" y1="187.5" x2="782.1" y2="219.0" stroke="#dc2626" stroke-width="1"/><rect x="779.4" y="190.6" width="5.4" height="24.7" fill="#dc2626" opacity="0.82" rx="1"/>
<line x1="791.0" y1="180.4" x2="791.0" y2="217.7" stroke="#16a34a" stroke-width="1"/><rect x="788.3" y="184.3" width="5.4" height="31.0" fill="#16a34a" opacity="0.82" rx="1"/>
<line x1="799.9" y1="165.1" x2="799.9" y2="196.1" stroke="#16a34a" stroke-width="1"/><rect x="797.1" y="182.5" width="5.4" height="1.8" fill="#16a34a" opacity="0.82" rx="1"/>
<line x1="808.7" y1="173.6" x2="808.7" y2="194.0" stroke="#16a34a" stroke-width="1"/><rect x="806.0" y="174.6" width="5.4" height="7.9" fill="#16a34a" opacity="0.82" rx="1"/>
<line x1="817.6" y1="155.7" x2="817.6" y2="180.7" stroke="#16a34a" stroke-width="1"/><rect x="814.9" y="156.9" width="5.4" height="17.8" fill="#16a34a" opacity="0.82" rx="1"/>
<line x1="826.5" y1="130.7" x2="826.5" y2="161.3" stroke="#16a34a" stroke-width="1"/><rect x="823.8" y="140.6" width="5.4" height="16.3" fill="#16a34a" opacity="0.82" rx="1"/>
<line x1="835.4" y1="85.1" x2="835.4" y2="143.5" stroke="#16a34a" stroke-width="1"/><rect x="832.6" y="103.9" width="5.4" height="36.7" fill="#16a34a" opacity="0.82" rx="1"/>
<line x1="844.2" y1="86.3" x2="844.2" y2="123.8" stroke="#dc2626" stroke-width="1"/><rect x="841.5" y="103.9" width="5.4" height="13.4" fill="#dc2626" opacity="0.82" rx="1"/>
<line x1="853.1" y1="103.1" x2="853.1" y2="142.5" stroke="#dc2626" stroke-width="1"/><rect x="850.4" y="117.2" width="5.4" height="15.4" fill="#dc2626" opacity="0.82" rx="1"/>
<line x1="862.0" y1="132.6" x2="862.0" y2="134.3" stroke="#dc2626" stroke-width="1"/><rect x="859.3" y="132.6" width="5.4" height="1.2" fill="#dc2626" opacity="0.82" rx="1"/>
<line x1="72" y1="181.1" x2="862" y2="181.1" stroke="#16a34a" stroke-width="1.8" stroke-dasharray="6 4" /><rect x="874" y="161.1" width="166" height="23" rx="5" fill="#ffffff" stroke="#16a34a" opacity="0.97"/><text x="881" y="177.1" fill="#16a34a" font-size="15" font-weight="700">支撑 59.52</text>
<line x1="72" y1="55.1" x2="862" y2="55.1" stroke="#dc2626" stroke-width="1.8" stroke-dasharray="6 4" /><rect x="874" y="35.1" width="166" height="23" rx="5" fill="#ffffff" stroke="#dc2626" opacity="0.97"/><text x="881" y="51.1" fill="#dc2626" font-size="15" font-weight="700">压力 82.46</text>
<line x1="72" y1="133.8" x2="862" y2="133.8" stroke="#111827" stroke-width="1.8" stroke-dasharray="2 2" /><rect x="874" y="113.8" width="166" height="23" rx="5" fill="#ffffff" stroke="#111827" opacity="0.97"/><text x="881" y="129.8" fill="#111827" font-size="15" font-weight="700">现价 68.12</text>
<text x="72" y="396" fill="#16a34a" font-size="14" font-weight="700">日线做多计划</text><rect x="72" y="404" width="790" height="48" rx="6" fill="#f9fafb" stroke="#e5e7eb"/><line x1="94" y1="412" x2="840" y2="412" stroke="#16a34a" stroke-width="3"/><circle cx="132.0" cy="412" r="5" fill="#16a34a"/><text x="132.0" y="434" fill="#374151" font-size="12" text-anchor="middle">入场 止跌/突破回踩</text><circle cx="451.2" cy="412" r="5" fill="#16a34a"/><text x="451.2" y="434" fill="#374151" font-size="12" text-anchor="middle">止损 59.52</text><circle cx="712.0" cy="412" r="5" fill="#16a34a"/><text x="712.0" y="434" fill="#374151" font-size="12" text-anchor="middle">目标一 82.46</text><circle cx="814.0" cy="412" r="5" fill="#16a34a"/><text x="814.0" y="434" fill="#374151" font-size="12" text-anchor="middle">目标二 91.07</text>
<text x="72" y="482" fill="#dc2626" font-size="14" font-weight="700">日线做空计划</text><rect x="72" y="490" width="790" height="48" rx="6" fill="#f9fafb" stroke="#e5e7eb"/><line x1="94" y1="498" x2="840" y2="498" stroke="#dc2626" stroke-width="3"/><circle cx="132.0" cy="498" r="5" fill="#dc2626"/><text x="132.0" y="520" fill="#374151" font-size="12" text-anchor="middle">入场 反弹承压/破位回抽</text><circle cx="451.2" cy="498" r="5" fill="#dc2626"/><text x="451.2" y="520" fill="#374151" font-size="12" text-anchor="middle">止损 82.46</text><circle cx="712.0" cy="498" r="5" fill="#dc2626"/><text x="712.0" y="520" fill="#374151" font-size="12" text-anchor="middle">目标一 59.52</text><circle cx="814.0" cy="498" r="5" fill="#dc2626"/><text x="814.0" y="520" fill="#374151" font-size="12" text-anchor="middle">目标二 53.78</text>
</svg>