<svg xmlns="http://www.w3.org/2000/svg" width="1080" height="560" viewBox="0 0 1080 560">
<rect width="100%" height="100%" fill="#ffffff"/>
<text x="72" y="23" fill="#111827" font-size="21" font-weight="800">BTC 小时线K线支撑压力图</text>
<text x="862" y="42" fill="#374151" font-size="15" text-anchor="end">最新价 62,811</text>
<line x1="72" y1="34" x2="72" y2="340" stroke="#d1d5db"/>
<line x1="72" y1="340" x2="862" y2="340" stroke="#d1d5db"/>
<line x1="72" y1="340.0" x2="862" y2="340.0" stroke="#f3f4f6"/>
<text x="8" y="345.0" fill="#4b5563" font-size="14">61,830</text>
<line x1="72" y1="263.5" x2="862" y2="263.5" stroke="#f3f4f6"/>
<text x="8" y="268.5" fill="#4b5563" font-size="14">63,287</text>
<line x1="72" y1="187.0" x2="862" y2="187.0" stroke="#f3f4f6"/>
<text x="8" y="192.0" fill="#4b5563" font-size="14">64,744</text>
<line x1="72" y1="110.5" x2="862" y2="110.5" stroke="#f3f4f6"/>
<text x="8" y="115.5" fill="#4b5563" font-size="14">66,201</text>
<line x1="72" y1="34.0" x2="862" y2="34.0" stroke="#f3f4f6"/>
<text x="8" y="39.0" fill="#4b5563" font-size="14">67,657</text>
<line x1="72.0" y1="87.1" x2="72.0" y2="107.1" stroke="#16a34a" stroke-width="1"/><rect x="69.3" y="92.0" width="5.4" height="7.4" fill="#16a34a" opacity="0.82" rx="1"/>
<line x1="80.9" y1="55.1" x2="80.9" y2="92.6" stroke="#16a34a" stroke-width="1"/><rect x="78.2" y="55.5" width="5.4" height="36.6" fill="#16a34a" opacity="0.82" rx="1"/>
<line x1="89.8" y1="55.2" x2="89.8" y2="65.8" stroke="#dc2626" stroke-width="1"/><rect x="87.0" y="55.5" width="5.4" height="6.6" fill="#dc2626" opacity="0.82" rx="1"/>
<line x1="98.6" y1="62.1" x2="98.6" y2="87.7" stroke="#dc2626" stroke-width="1"/><rect x="95.9" y="62.1" width="5.4" height="15.8" fill="#dc2626" opacity="0.82" rx="1"/>
<line x1="107.5" y1="73.8" x2="107.5" y2="85.4" stroke="#dc2626" stroke-width="1"/><rect x="104.8" y="77.9" width="5.4" height="5.0" fill="#dc2626" opacity="0.82" rx="1"/>
<line x1="116.4" y1="76.1" x2="116.4" y2="105.1" stroke="#dc2626" stroke-width="1"/><rect x="113.7" y="82.9" width="5.4" height="7.7" fill="#dc2626" opacity="0.82" rx="1"/>
<line x1="125.3" y1="86.5" x2="125.3" y2="97.7" stroke="#dc2626" stroke-width="1"/><rect x="122.5" y="90.6" width="5.4" height="4.7" fill="#dc2626" opacity="0.82" rx="1"/>
<line x1="134.1" y1="92.9" x2="134.1" y2="106.1" stroke="#dc2626" stroke-width="1"/><rect x="131.4" y="95.3" width="5.4" height="8.0" fill="#dc2626" opacity="0.82" rx="1"/>
<line x1="143.0" y1="97.6" x2="143.0" y2="117.6" stroke="#dc2626" stroke-width="1"/><rect x="140.3" y="103.3" width="5.4" height="8.8" fill="#dc2626" opacity="0.82" rx="1"/>
<line x1="151.9" y1="103.4" x2="151.9" y2="116.5" stroke="#16a34a" stroke-width="1"/><rect x="149.2" y="106.0" width="5.4" height="6.1" fill="#16a34a" opacity="0.82" rx="1"/>
<line x1="160.8" y1="98.6" x2="160.8" y2="110.7" stroke="#dc2626" stroke-width="1"/><rect x="158.0" y="106.0" width="5.4" height="3.6" fill="#dc2626" opacity="0.82" rx="1"/>
<line x1="169.6" y1="100.6" x2="169.6" y2="110.2" stroke="#16a34a" stroke-width="1"/><rect x="166.9" y="104.8" width="5.4" height="4.9" fill="#16a34a" opacity="0.82" rx="1"/>
<line x1="178.5" y1="103.6" x2="178.5" y2="139.1" stroke="#dc2626" stroke-width="1"/><rect x="175.8" y="104.8" width="5.4" height="31.3" fill="#dc2626" opacity="0.82" rx="1"/>
<line x1="187.4" y1="113.4" x2="187.4" y2="141.7" stroke="#16a34a" stroke-width="1"/><rect x="184.7" y="114.4" width="5.4" height="21.6" fill="#16a34a" opacity="0.82" rx="1"/>
<line x1="196.3" y1="107.8" x2="196.3" y2="133.2" stroke="#dc2626" stroke-width="1"/><rect x="193.5" y="114.4" width="5.4" height="16.5" fill="#dc2626" opacity="0.82" rx="1"/>
<line x1="205.1" y1="114.7" x2="205.1" y2="130.9" stroke="#16a34a" stroke-width="1"/><rect x="202.4" y="119.6" width="5.4" height="11.4" fill="#16a34a" opacity="0.82" rx="1"/>
<line x1="214.0" y1="92.5" x2="214.0" y2="119.7" stroke="#16a34a" stroke-width="1"/><rect x="211.3" y="99.7" width="5.4" height="19.9" fill="#16a34a" opacity="0.82" rx="1"/>
<line x1="222.9" y1="94.9" x2="222.9" y2="106.7" stroke="#dc2626" stroke-width="1"/><rect x="220.2" y="99.7" width="5.4" height="3.4" fill="#dc2626" opacity="0.82" rx="1"/>
<line x1="231.8" y1="70.8" x2="231.8" y2="104.7" stroke="#16a34a" stroke-width="1"/><rect x="229.1" y="75.7" width="5.4" height="27.4" fill="#16a34a" opacity="0.82" rx="1"/>
<line x1="240.7" y1="74.6" x2="240.7" y2="97.9" stroke="#dc2626" stroke-width="1"/><rect x="237.9" y="75.7" width="5.4" height="20.2" fill="#dc2626" opacity="0.82" rx="1"/>
<line x1="249.5" y1="81.4" x2="249.5" y2="97.3" stroke="#dc2626" stroke-width="1"/><rect x="246.8" y="95.9" width="5.4" height="1.2" fill="#dc2626" opacity="0.82" rx="1"/>
<line x1="258.4" y1="88.5" x2="258.4" y2="103.9" stroke="#dc2626" stroke-width="1"/><rect x="255.7" y="96.0" width="5.4" height="1.2" fill="#dc2626" opacity="0.82" rx="1"/>
<line x1="267.3" y1="79.7" x2="267.3" y2="104.0" stroke="#dc2626" stroke-width="1"/><rect x="264.6" y="97.1" width="5.4" height="3.4" fill="#dc2626" opacity="0.82" rx="1"/>
<line x1="276.2" y1="98.2" x2="276.2" y2="126.6" stroke="#dc2626" stroke-width="1"/><rect x="273.4" y="100.5" width="5.4" height="19.8" fill="#dc2626" opacity="0.82" rx="1"/>
<line x1="285.0" y1="108.5" x2="285.0" y2="156.3" stroke="#dc2626" stroke-width="1"/><rect x="282.3" y="120.4" width="5.4" height="20.1" fill="#dc2626" opacity="0.82" rx="1"/>
<line x1="293.9" y1="122.0" x2="293.9" y2="143.1" stroke="#16a34a" stroke-width="1"/><rect x="291.2" y="129.3" width="5.4" height="11.1" fill="#16a34a" opacity="0.82" rx="1"/>
<line x1="302.8" y1="124.6" x2="302.8" y2="138.1" stroke="#dc2626" stroke-width="1"/><rect x="300.1" y="129.3" width="5.4" height="5.8" fill="#dc2626" opacity="0.82" rx="1"/>
<line x1="311.7" y1="121.5" x2="311.7" y2="138.0" stroke="#16a34a" stroke-width="1"/><rect x="308.9" y="123.9" width="5.4" height="11.3" fill="#16a34a" opacity="0.82" rx="1"/>
<line x1="320.5" y1="108.1" x2="320.5" y2="133.3" stroke="#dc2626" stroke-width="1"/><rect x="317.8" y="123.9" width="5.4" height="6.5" fill="#dc2626" opacity="0.82" rx="1"/>
<line x1="329.4" y1="130.4" x2="329.4" y2="145.8" stroke="#dc2626" stroke-width="1"/><rect x="326.7" y="130.4" width="5.4" height="8.9" fill="#dc2626" opacity="0.82" rx="1"/>
<line x1="338.3" y1="129.8" x2="338.3" y2="144.1" stroke="#16a34a" stroke-width="1"/><rect x="335.6" y="130.3" width="5.4" height="9.0" fill="#16a34a" opacity="0.82" rx="1"/>
<line x1="347.2" y1="125.8" x2="347.2" y2="141.5" stroke="#dc2626" stroke-width="1"/><rect x="344.4" y="130.3" width="5.4" height="4.3" fill="#dc2626" opacity="0.82" rx="1"/>
<line x1="356.0" y1="128.6" x2="356.0" y2="139.7" stroke="#16a34a" stroke-width="1"/><rect x="353.3" y="134.4" width="5.4" height="1.2" fill="#16a34a" opacity="0.82" rx="1"/>
<line x1="364.9" y1="131.3" x2="364.9" y2="143.1" stroke="#dc2626" stroke-width="1"/><rect x="362.2" y="134.4" width="5.4" height="5.3" fill="#dc2626" opacity="0.82" rx="1"/>
<line x1="373.8" y1="130.4" x2="373.8" y2="139.7" stroke="#16a34a" stroke-width="1"/><rect x="371.1" y="137.9" width="5.4" height="1.8" fill="#16a34a" opacity="0.82" rx="1"/>
<line x1="382.7" y1="125.0" x2="382.7" y2="151.1" stroke="#16a34a" stroke-width="1"/><rect x="380.0" y="126.2" width="5.4" height="11.6" fill="#16a34a" opacity="0.82" rx="1"/>
<line x1="391.6" y1="116.2" x2="391.6" y2="134.5" stroke="#dc2626" stroke-width="1"/><rect x="388.8" y="126.2" width="5.4" height="1.5" fill="#dc2626" opacity="0.82" rx="1"/>
<line x1="400.4" y1="127.7" x2="400.4" y2="138.3" stroke="#dc2626" stroke-width="1"/><rect x="397.7" y="127.7" width="5.4" height="2.8" fill="#dc2626" opacity="0.82" rx="1"/>
<line x1="409.3" y1="120.0" x2="409.3" y2="134.5" stroke="#16a34a" stroke-width="1"/><rect x="406.6" y="128.8" width="5.4" height="1.8" fill="#16a34a" opacity="0.82" rx="1"/>
<line x1="418.2" y1="123.7" x2="418.2" y2="136.6" stroke="#dc2626" stroke-width="1"/><rect x="415.5" y="128.8" width="5.4" height="3.0" fill="#dc2626" opacity="0.82" rx="1"/>
<line x1="427.1" y1="127.9" x2="427.1" y2="145.4" stroke="#dc2626" stroke-width="1"/><rect x="424.3" y="131.7" width="5.4" height="10.9" fill="#dc2626" opacity="0.82" rx="1"/>
<line x1="435.9" y1="137.8" x2="435.9" y2="163.0" stroke="#dc2626" stroke-width="1"/><rect x="433.2" y="142.6" width="5.4" height="4.5" fill="#dc2626" opacity="0.82" rx="1"/>
<line x1="444.8" y1="144.7" x2="444.8" y2="184.0" stroke="#dc2626" stroke-width="1"/><rect x="442.1" y="147.1" width="5.4" height="32.2" fill="#dc2626" opacity="0.82" rx="1"/>
<line x1="453.7" y1="171.2" x2="453.7" y2="184.0" stroke="#dc2626" stroke-width="1"/><rect x="451.0" y="179.3" width="5.4" height="1.2" fill="#dc2626" opacity="0.82" rx="1"/>
<line x1="462.6" y1="175.4" x2="462.6" y2="187.5" stroke="#dc2626" stroke-width="1"/><rect x="459.8" y="179.8" width="5.4" height="5.8" fill="#dc2626" opacity="0.82" rx="1"/>
<line x1="471.4" y1="182.2" x2="471.4" y2="198.5" stroke="#16a34a" stroke-width="1"/><rect x="468.7" y="185.4" width="5.4" height="1.2" fill="#16a34a" opacity="0.82" rx="1"/>
<line x1="480.3" y1="169.3" x2="480.3" y2="197.1" stroke="#16a34a" stroke-width="1"/><rect x="477.6" y="173.3" width="5.4" height="12.1" fill="#16a34a" opacity="0.82" rx="1"/>
<line x1="489.2" y1="156.1" x2="489.2" y2="183.8" stroke="#16a34a" stroke-width="1"/><rect x="486.5" y="161.3" width="5.4" height="12.0" fill="#16a34a" opacity="0.82" rx="1"/>
<line x1="498.1" y1="150.7" x2="498.1" y2="188.1" stroke="#dc2626" stroke-width="1"/><rect x="495.3" y="161.3" width="5.4" height="8.4" fill="#dc2626" opacity="0.82" rx="1"/>
<line x1="506.9" y1="129.7" x2="506.9" y2="176.5" stroke="#16a34a" stroke-width="1"/><rect x="504.2" y="136.1" width="5.4" height="33.6" fill="#16a34a" opacity="0.82" rx="1"/>
<line x1="515.8" y1="99.0" x2="515.8" y2="138.0" stroke="#16a34a" stroke-width="1"/><rect x="513.1" y="130.0" width="5.4" height="6.1" fill="#16a34a" opacity="0.82" rx="1"/>
<line x1="524.7" y1="112.6" x2="524.7" y2="133.9" stroke="#16a34a" stroke-width="1"/><rect x="522.0" y="117.2" width="5.4" height="12.8" fill="#16a34a" opacity="0.82" rx="1"/>
<line x1="533.6" y1="116.5" x2="533.6" y2="186.9" stroke="#dc2626" stroke-width="1"/><rect x="530.9" y="117.2" width="5.4" height="31.1" fill="#dc2626" opacity="0.82" rx="1"/>
<line x1="542.4" y1="140.4" x2="542.4" y2="225.3" stroke="#dc2626" stroke-width="1"/><rect x="539.7" y="148.3" width="5.4" height="63.5" fill="#dc2626" opacity="0.82" rx="1"/>
<line x1="551.3" y1="201.9" x2="551.3" y2="218.9" stroke="#16a34a" stroke-width="1"/><rect x="548.6" y="204.7" width="5.4" height="7.1" fill="#16a34a" opacity="0.82" rx="1"/>
<line x1="560.2" y1="203.6" x2="560.2" y2="220.6" stroke="#dc2626" stroke-width="1"/><rect x="557.5" y="204.7" width="5.4" height="9.3" fill="#dc2626" opacity="0.82" rx="1"/>
<line x1="569.1" y1="204.2" x2="569.1" y2="232.3" stroke="#16a34a" stroke-width="1"/><rect x="566.4" y="212.1" width="5.4" height="1.9" fill="#16a34a" opacity="0.82" rx="1"/>
<line x1="578.0" y1="200.0" x2="578.0" y2="214.7" stroke="#16a34a" stroke-width="1"/><rect x="575.2" y="201.2" width="5.4" height="10.9" fill="#16a34a" opacity="0.82" rx="1"/>
<line x1="586.8" y1="190.5" x2="586.8" y2="203.9" stroke="#dc2626" stroke-width="1"/><rect x="584.1" y="201.2" width="5.4" height="2.1" fill="#dc2626" opacity="0.82" rx="1"/>
<line x1="595.7" y1="185.1" x2="595.7" y2="203.5" stroke="#16a34a" stroke-width="1"/><rect x="593.0" y="198.7" width="5.4" height="4.6" fill="#16a34a" opacity="0.82" rx="1"/>
<line x1="604.6" y1="186.7" x2="604.6" y2="202.3" stroke="#16a34a" stroke-width="1"/><rect x="601.9" y="191.8" width="5.4" height="6.9" fill="#16a34a" opacity="0.82" rx="1"/>
<line x1="613.5" y1="191.8" x2="613.5" y2="214.0" stroke="#dc2626" stroke-width="1"/><rect x="610.7" y="191.8" width="5.4" height="20.9" fill="#dc2626" opacity="0.82" rx="1"/>
<line x1="622.3" y1="209.1" x2="622.3" y2="237.3" stroke="#dc2626" stroke-width="1"/><rect x="619.6" y="212.7" width="5.4" height="21.3" fill="#dc2626" opacity="0.82" rx="1"/>
<line x1="631.2" y1="226.1" x2="631.2" y2="243.9" stroke="#16a34a" stroke-width="1"/><rect x="628.5" y="228.1" width="5.4" height="5.9" fill="#16a34a" opacity="0.82" rx="1"/>
<line x1="640.1" y1="220.9" x2="640.1" y2="236.0" stroke="#16a34a" stroke-width="1"/><rect x="637.4" y="223.2" width="5.4" height="4.9" fill="#16a34a" opacity="0.82" rx="1"/>
<line x1="649.0" y1="200.3" x2="649.0" y2="226.8" stroke="#16a34a" stroke-width="1"/><rect x="646.2" y="201.4" width="5.4" height="21.8" fill="#16a34a" opacity="0.82" rx="1"/>
<line x1="657.8" y1="192.9" x2="657.8" y2="207.7" stroke="#dc2626" stroke-width="1"/><rect x="655.1" y="201.4" width="5.4" height="5.3" fill="#dc2626" opacity="0.82" rx="1"/>
<line x1="666.7" y1="202.4" x2="666.7" y2="217.5" stroke="#dc2626" stroke-width="1"/><rect x="664.0" y="206.6" width="5.4" height="10.4" fill="#dc2626" opacity="0.82" rx="1"/>
<line x1="675.6" y1="215.7" x2="675.6" y2="232.3" stroke="#dc2626" stroke-width="1"/><rect x="672.9" y="217.0" width="5.4" height="6.4" fill="#dc2626" opacity="0.82" rx="1"/>
<line x1="684.5" y1="216.8" x2="684.5" y2="233.7" stroke="#dc2626" stroke-width="1"/><rect x="681.8" y="223.4" width="5.4" height="5.8" fill="#dc2626" opacity="0.82" rx="1"/>
<line x1="693.3" y1="206.2" x2="693.3" y2="231.7" stroke="#16a34a" stroke-width="1"/><rect x="690.6" y="207.9" width="5.4" height="21.3" fill="#16a34a" opacity="0.82" rx="1"/>
<line x1="702.2" y1="203.8" x2="702.2" y2="239.0" stroke="#dc2626" stroke-width="1"/><rect x="699.5" y="207.9" width="5.4" height="20.7" fill="#dc2626" opacity="0.82" rx="1"/>
<line x1="711.1" y1="216.5" x2="711.1" y2="248.9" stroke="#dc2626" stroke-width="1"/><rect x="708.4" y="228.6" width="5.4" height="8.8" fill="#dc2626" opacity="0.82" rx="1"/>
<line x1="720.0" y1="236.7" x2="720.0" y2="318.9" stroke="#dc2626" stroke-width="1"/><rect x="717.3" y="237.4" width="5.4" height="76.0" fill="#dc2626" opacity="0.82" rx="1"/>
<line x1="728.9" y1="289.7" x2="728.9" y2="314.9" stroke="#16a34a" stroke-width="1"/><rect x="726.1" y="296.2" width="5.4" height="17.1" fill="#16a34a" opacity="0.82" rx="1"/>
<line x1="737.7" y1="292.7" x2="737.7" y2="318.4" stroke="#dc2626" stroke-width="1"/><rect x="735.0" y="296.2" width="5.4" height="4.5" fill="#dc2626" opacity="0.82" rx="1"/>
<line x1="746.6" y1="282.1" x2="746.6" y2="302.1" stroke="#16a34a" stroke-width="1"/><rect x="743.9" y="295.2" width="5.4" height="5.5" fill="#16a34a" opacity="0.82" rx="1"/>
<line x1="755.5" y1="279.4" x2="755.5" y2="299.2" stroke="#16a34a" stroke-width="1"/><rect x="752.8" y="282.5" width="5.4" height="12.7" fill="#16a34a" opacity="0.82" rx="1"/>
<line x1="764.4" y1="264.6" x2="764.4" y2="282.5" stroke="#16a34a" stroke-width="1"/><rect x="761.6" y="275.3" width="5.4" height="7.2" fill="#16a34a" opacity="0.82" rx="1"/>
<line x1="773.2" y1="273.4" x2="773.2" y2="287.4" stroke="#dc2626" stroke-width="1"/><rect x="770.5" y="275.3" width="5.4" height="6.7" fill="#dc2626" opacity="0.82" rx="1"/>
<line x1="782.1" y1="280.6" x2="782.1" y2="293.8" stroke="#dc2626" stroke-width="1"/><rect x="779.4" y="281.9" width="5.4" height="4.4" fill="#dc2626" opacity="0.82" rx="1"/>
<line x1="791.0" y1="280.7" x2="791.0" y2="293.4" stroke="#16a34a" stroke-width="1"/><rect x="788.3" y="282.6" width="5.4" height="3.7" fill="#16a34a" opacity="0.82" rx="1"/>
<line x1="799.9" y1="275.1" x2="799.9" y2="288.4" stroke="#16a34a" stroke-width="1"/><rect x="797.1" y="279.0" width="5.4" height="3.6" fill="#16a34a" opacity="0.82" rx="1"/>
<line x1="808.7" y1="274.7" x2="808.7" y2="288.3" stroke="#16a34a" stroke-width="1"/><rect x="806.0" y="278.9" width="5.4" height="1.2" fill="#16a34a" opacity="0.82" rx="1"/>
<line x1="817.6" y1="273.9" x2="817.6" y2="286.0" stroke="#dc2626" stroke-width="1"/><rect x="814.9" y="278.9" width="5.4" height="1.2" fill="#dc2626" opacity="0.82" rx="1"/>
<line x1="826.5" y1="278.3" x2="826.5" y2="318.6" stroke="#dc2626" stroke-width="1"/><rect x="823.8" y="279.9" width="5.4" height="12.0" fill="#dc2626" opacity="0.82" rx="1"/>
<line x1="835.4" y1="284.4" x2="835.4" y2="311.4" stroke="#dc2626" stroke-width="1"/><rect x="832.6" y="292.0" width="5.4" height="17.0" fill="#dc2626" opacity="0.82" rx="1"/>
<line x1="844.2" y1="293.5" x2="844.2" y2="309.2" stroke="#16a34a" stroke-width="1"/><rect x="841.5" y="294.0" width="5.4" height="15.0" fill="#16a34a" opacity="0.82" rx="1"/>
<line x1="853.1" y1="284.4" x2="853.1" y2="294.8" stroke="#16a34a" stroke-width="1"/><rect x="850.4" y="285.7" width="5.4" height="8.3" fill="#16a34a" opacity="0.82" rx="1"/>
<line x1="862.0" y1="284.0" x2="862.0" y2="288.5" stroke="#dc2626" stroke-width="1"/><rect x="859.3" y="285.7" width="5.4" height="2.9" fill="#dc2626" opacity="0.82" rx="1"/>
<line x1="72" y1="313.6" x2="862" y2="313.6" stroke="#16a34a" stroke-width="1.8" stroke-dasharray="6 4" /><rect x="874" y="293.6" width="166" height="23" rx="5" fill="#ffffff" stroke="#16a34a" opacity="0.97"/><text x="881" y="309.6" fill="#16a34a" font-size="15" font-weight="700">日内支撑 62,332</text>
<line x1="72" y1="246.7" x2="862" y2="246.7" stroke="#dc2626" stroke-width="1.8" stroke-dasharray="6 4" /><rect x="874" y="226.7" width="166" height="23" rx="5" fill="#ffffff" stroke="#dc2626" opacity="0.97"/><text x="881" y="242.7" fill="#dc2626" font-size="15" font-weight="700">日内压力 63,608</text>
<line x1="72" y1="288.5" x2="862" y2="288.5" stroke="#111827" stroke-width="1.8" stroke-dasharray="2 2" /><rect x="874" y="268.5" width="166" height="23" rx="5" fill="#ffffff" stroke="#111827" opacity="0.97"/><text x="881" y="284.5" fill="#111827" font-size="15" font-weight="700">现价 62,811</text>
<text x="72" y="396" fill="#16a34a" font-size="14" font-weight="700">日内做多计划</text><rect x="72" y="404" width="790" height="48" rx="6" fill="#f9fafb" stroke="#e5e7eb"/><line x1="94" y1="412" x2="840" y2="412" stroke="#16a34a" stroke-width="3"/><circle cx="132.0" cy="412" r="5" fill="#16a34a"/><text x="132.0" y="434" fill="#374151" font-size="12" text-anchor="middle">入场 止跌/突破回踩</text><circle cx="451.2" cy="412" r="5" fill="#16a34a"/><text x="451.2" y="434" fill="#374151" font-size="12" text-anchor="middle">止损 62,332</text><circle cx="712.0" cy="412" r="5" fill="#16a34a"/><text x="712.0" y="434" fill="#374151" font-size="12" text-anchor="middle">目标一 63,608</text><circle cx="814.0" cy="412" r="5" fill="#16a34a"/><text x="814.0" y="434" fill="#374151" font-size="12" text-anchor="middle">目标二 63,927</text>
<text x="72" y="482" fill="#dc2626" font-size="14" font-weight="700">日内做空计划</text><rect x="72" y="490" width="790" height="48" rx="6" fill="#f9fafb" stroke="#e5e7eb"/><line x1="94" y1="498" x2="840" y2="498" stroke="#dc2626" stroke-width="3"/><circle cx="132.0" cy="498" r="5" fill="#dc2626"/><text x="132.0" y="520" fill="#374151" font-size="12" text-anchor="middle">入场 反弹承压/破位回抽</text><circle cx="451.2" cy="498" r="5" fill="#dc2626"/><text x="451.2" y="520" fill="#374151" font-size="12" text-anchor="middle">止损 63,608</text><circle cx="712.0" cy="498" r="5" fill="#dc2626"/><text x="712.0" y="520" fill="#374151" font-size="12" text-anchor="middle">目标一 62,332</text><circle cx="814.0" cy="498" r="5" fill="#dc2626"/><text x="814.0" y="520" fill="#374151" font-size="12" text-anchor="middle">目标二 62,013</text>
</svg>