<svg xmlns="http://www.w3.org/2000/svg" width="1080" height="560" viewBox="0 0 1080 560">
<rect width="100%" height="100%" fill="#ffffff"/>
<text x="72" y="23" fill="#111827" font-size="21" font-weight="800">DRAM 小时线K线支撑压力图</text>
<text x="862" y="42" fill="#374151" font-size="15" text-anchor="end">最新价 78.64</text>
<line x1="72" y1="34" x2="72" y2="340" stroke="#d1d5db"/>
<line x1="72" y1="340" x2="862" y2="340" stroke="#d1d5db"/>
<line x1="72" y1="340.0" x2="862" y2="340.0" stroke="#f3f4f6"/>
<text x="8" y="345.0" fill="#4b5563" font-size="14">66.73</text>
<line x1="72" y1="263.5" x2="862" y2="263.5" stroke="#f3f4f6"/>
<text x="8" y="268.5" fill="#4b5563" font-size="14">70.53</text>
<line x1="72" y1="187.0" x2="862" y2="187.0" stroke="#f3f4f6"/>
<text x="8" y="192.0" fill="#4b5563" font-size="14">74.34</text>
<line x1="72" y1="110.5" x2="862" y2="110.5" stroke="#f3f4f6"/>
<text x="8" y="115.5" fill="#4b5563" font-size="14">78.14</text>
<line x1="72" y1="34.0" x2="862" y2="34.0" stroke="#f3f4f6"/>
<text x="8" y="39.0" fill="#4b5563" font-size="14">81.94</text>
<line x1="72.0" y1="308.6" x2="72.0" y2="315.3" stroke="#16a34a" stroke-width="1"/><rect x="69.3" y="312.1" width="5.4" height="2.2" fill="#16a34a" opacity="0.82" rx="1"/>
<line x1="80.9" y1="292.3" x2="80.9" y2="312.9" stroke="#16a34a" stroke-width="1"/><rect x="78.2" y="297.4" width="5.4" height="14.7" fill="#16a34a" opacity="0.82" rx="1"/>
<line x1="89.8" y1="293.3" x2="89.8" y2="307.0" stroke="#dc2626" stroke-width="1"/><rect x="87.0" y="297.4" width="5.4" height="4.2" fill="#dc2626" opacity="0.82" rx="1"/>
<line x1="98.6" y1="295.8" x2="98.6" y2="303.4" stroke="#16a34a" stroke-width="1"/><rect x="95.9" y="298.4" width="5.4" height="3.2" fill="#16a34a" opacity="0.82" rx="1"/>
<line x1="107.5" y1="285.9" x2="107.5" y2="299.6" stroke="#16a34a" stroke-width="1"/><rect x="104.8" y="293.5" width="5.4" height="4.6" fill="#16a34a" opacity="0.82" rx="1"/>
<line x1="116.4" y1="287.3" x2="116.4" y2="293.7" stroke="#16a34a" stroke-width="1"/><rect x="113.7" y="288.3" width="5.4" height="5.0" fill="#16a34a" opacity="0.82" rx="1"/>
<line x1="125.3" y1="265.2" x2="125.3" y2="295.4" stroke="#dc2626" stroke-width="1"/><rect x="122.5" y="288.3" width="5.4" height="4.8" fill="#dc2626" opacity="0.82" rx="1"/>
<line x1="134.1" y1="272.4" x2="134.1" y2="298.6" stroke="#16a34a" stroke-width="1"/><rect x="131.4" y="277.9" width="5.4" height="15.1" fill="#16a34a" opacity="0.82" rx="1"/>
<line x1="143.0" y1="263.8" x2="143.0" y2="277.7" stroke="#16a34a" stroke-width="1"/><rect x="140.3" y="267.0" width="5.4" height="10.5" fill="#16a34a" opacity="0.82" rx="1"/>
<line x1="151.9" y1="257.7" x2="151.9" y2="267.4" stroke="#16a34a" stroke-width="1"/><rect x="149.2" y="265.2" width="5.4" height="1.6" fill="#16a34a" opacity="0.82" rx="1"/>
<line x1="160.8" y1="258.7" x2="160.8" y2="268.0" stroke="#16a34a" stroke-width="1"/><rect x="158.0" y="263.0" width="5.4" height="2.4" fill="#16a34a" opacity="0.82" rx="1"/>
<line x1="169.6" y1="249.9" x2="169.6" y2="265.6" stroke="#16a34a" stroke-width="1"/><rect x="166.9" y="257.1" width="5.4" height="5.4" fill="#16a34a" opacity="0.82" rx="1"/>
<line x1="178.5" y1="250.1" x2="178.5" y2="258.9" stroke="#16a34a" stroke-width="1"/><rect x="175.8" y="251.3" width="5.4" height="5.2" fill="#16a34a" opacity="0.82" rx="1"/>
<line x1="187.4" y1="247.1" x2="187.4" y2="263.4" stroke="#dc2626" stroke-width="1"/><rect x="184.7" y="251.1" width="5.4" height="5.8" fill="#dc2626" opacity="0.82" rx="1"/>
<line x1="196.3" y1="250.9" x2="196.3" y2="259.3" stroke="#16a34a" stroke-width="1"/><rect x="193.5" y="253.5" width="5.4" height="3.8" fill="#16a34a" opacity="0.82" rx="1"/>
<line x1="205.1" y1="249.3" x2="205.1" y2="265.2" stroke="#dc2626" stroke-width="1"/><rect x="202.4" y="253.9" width="5.4" height="2.6" fill="#dc2626" opacity="0.82" rx="1"/>
<line x1="214.0" y1="253.9" x2="214.0" y2="261.6" stroke="#dc2626" stroke-width="1"/><rect x="211.3" y="256.7" width="5.4" height="1.2" fill="#dc2626" opacity="0.82" rx="1"/>
<line x1="222.9" y1="256.1" x2="222.9" y2="289.1" stroke="#dc2626" stroke-width="1"/><rect x="220.2" y="257.5" width="5.4" height="31.6" fill="#dc2626" opacity="0.82" rx="1"/>
<line x1="231.8" y1="274.6" x2="231.8" y2="302.0" stroke="#16a34a" stroke-width="1"/><rect x="229.1" y="278.5" width="5.4" height="10.5" fill="#16a34a" opacity="0.82" rx="1"/>
<line x1="240.7" y1="271.4" x2="240.7" y2="281.9" stroke="#16a34a" stroke-width="1"/><rect x="237.9" y="274.4" width="5.4" height="4.0" fill="#16a34a" opacity="0.82" rx="1"/>
<line x1="249.5" y1="254.9" x2="249.5" y2="277.5" stroke="#16a34a" stroke-width="1"/><rect x="246.8" y="259.3" width="5.4" height="15.1" fill="#16a34a" opacity="0.82" rx="1"/>
<line x1="258.4" y1="252.9" x2="258.4" y2="262.8" stroke="#16a34a" stroke-width="1"/><rect x="255.7" y="257.5" width="5.4" height="2.4" fill="#16a34a" opacity="0.82" rx="1"/>
<line x1="267.3" y1="254.1" x2="267.3" y2="269.8" stroke="#dc2626" stroke-width="1"/><rect x="264.6" y="257.7" width="5.4" height="11.5" fill="#dc2626" opacity="0.82" rx="1"/>
<line x1="276.2" y1="255.7" x2="276.2" y2="269.2" stroke="#16a34a" stroke-width="1"/><rect x="273.4" y="256.1" width="5.4" height="12.9" fill="#16a34a" opacity="0.82" rx="1"/>
<line x1="285.0" y1="252.9" x2="285.0" y2="257.7" stroke="#dc2626" stroke-width="1"/><rect x="282.3" y="256.1" width="5.4" height="1.2" fill="#dc2626" opacity="0.82" rx="1"/>
<line x1="293.9" y1="219.3" x2="293.9" y2="256.5" stroke="#16a34a" stroke-width="1"/><rect x="291.2" y="221.9" width="5.4" height="34.2" fill="#16a34a" opacity="0.82" rx="1"/>
<line x1="302.8" y1="216.1" x2="302.8" y2="229.8" stroke="#dc2626" stroke-width="1"/><rect x="300.1" y="222.3" width="5.4" height="4.8" fill="#dc2626" opacity="0.82" rx="1"/>
<line x1="311.7" y1="219.1" x2="311.7" y2="232.0" stroke="#16a34a" stroke-width="1"/><rect x="308.9" y="219.9" width="5.4" height="7.8" fill="#16a34a" opacity="0.82" rx="1"/>
<line x1="320.5" y1="212.3" x2="320.5" y2="223.7" stroke="#16a34a" stroke-width="1"/><rect x="317.8" y="217.7" width="5.4" height="2.6" fill="#16a34a" opacity="0.82" rx="1"/>
<line x1="329.4" y1="215.1" x2="329.4" y2="244.1" stroke="#dc2626" stroke-width="1"/><rect x="326.7" y="217.9" width="5.4" height="20.7" fill="#dc2626" opacity="0.82" rx="1"/>
<line x1="338.3" y1="220.1" x2="338.3" y2="250.7" stroke="#16a34a" stroke-width="1"/><rect x="335.6" y="238.0" width="5.4" height="1.2" fill="#16a34a" opacity="0.82" rx="1"/>
<line x1="347.2" y1="235.6" x2="347.2" y2="284.9" stroke="#dc2626" stroke-width="1"/><rect x="344.4" y="238.0" width="5.4" height="41.8" fill="#dc2626" opacity="0.82" rx="1"/>
<line x1="356.0" y1="269.0" x2="356.0" y2="318.9" stroke="#dc2626" stroke-width="1"/><rect x="353.3" y="279.9" width="5.4" height="18.5" fill="#dc2626" opacity="0.82" rx="1"/>
<line x1="364.9" y1="276.4" x2="364.9" y2="299.0" stroke="#16a34a" stroke-width="1"/><rect x="362.2" y="287.7" width="5.4" height="11.1" fill="#16a34a" opacity="0.82" rx="1"/>
<line x1="373.8" y1="282.3" x2="373.8" y2="301.0" stroke="#16a34a" stroke-width="1"/><rect x="371.1" y="287.5" width="5.4" height="1.2" fill="#16a34a" opacity="0.82" rx="1"/>
<line x1="382.7" y1="283.7" x2="382.7" y2="306.8" stroke="#dc2626" stroke-width="1"/><rect x="380.0" y="287.7" width="5.4" height="15.7" fill="#dc2626" opacity="0.82" rx="1"/>
<line x1="391.6" y1="294.4" x2="391.6" y2="314.1" stroke="#dc2626" stroke-width="1"/><rect x="388.8" y="303.4" width="5.4" height="9.5" fill="#dc2626" opacity="0.82" rx="1"/>
<line x1="400.4" y1="281.5" x2="400.4" y2="313.5" stroke="#16a34a" stroke-width="1"/><rect x="397.7" y="309.2" width="5.4" height="3.8" fill="#16a34a" opacity="0.82" rx="1"/>
<line x1="409.3" y1="299.6" x2="409.3" y2="309.6" stroke="#16a34a" stroke-width="1"/><rect x="406.6" y="304.8" width="5.4" height="4.4" fill="#16a34a" opacity="0.82" rx="1"/>
<line x1="418.2" y1="290.3" x2="418.2" y2="309.4" stroke="#16a34a" stroke-width="1"/><rect x="415.5" y="291.7" width="5.4" height="12.7" fill="#16a34a" opacity="0.82" rx="1"/>
<line x1="427.1" y1="281.1" x2="427.1" y2="301.8" stroke="#dc2626" stroke-width="1"/><rect x="424.3" y="291.9" width="5.4" height="4.6" fill="#dc2626" opacity="0.82" rx="1"/>
<line x1="435.9" y1="268.6" x2="435.9" y2="297.2" stroke="#16a34a" stroke-width="1"/><rect x="433.2" y="277.3" width="5.4" height="19.3" fill="#16a34a" opacity="0.82" rx="1"/>
<line x1="444.8" y1="269.6" x2="444.8" y2="281.9" stroke="#16a34a" stroke-width="1"/><rect x="442.1" y="270.4" width="5.4" height="7.0" fill="#16a34a" opacity="0.82" rx="1"/>
<line x1="453.7" y1="264.4" x2="453.7" y2="274.0" stroke="#16a34a" stroke-width="1"/><rect x="451.0" y="268.0" width="5.4" height="2.8" fill="#16a34a" opacity="0.82" rx="1"/>
<line x1="462.6" y1="267.2" x2="462.6" y2="276.4" stroke="#dc2626" stroke-width="1"/><rect x="459.8" y="267.8" width="5.4" height="2.4" fill="#dc2626" opacity="0.82" rx="1"/>
<line x1="471.4" y1="244.3" x2="471.4" y2="270.8" stroke="#16a34a" stroke-width="1"/><rect x="468.7" y="246.3" width="5.4" height="23.7" fill="#16a34a" opacity="0.82" rx="1"/>
<line x1="480.3" y1="231.0" x2="480.3" y2="250.3" stroke="#16a34a" stroke-width="1"/><rect x="477.6" y="237.4" width="5.4" height="9.3" fill="#16a34a" opacity="0.82" rx="1"/>
<line x1="489.2" y1="233.8" x2="489.2" y2="239.8" stroke="#16a34a" stroke-width="1"/><rect x="486.5" y="235.4" width="5.4" height="2.4" fill="#16a34a" opacity="0.82" rx="1"/>
<line x1="498.1" y1="229.4" x2="498.1" y2="237.2" stroke="#16a34a" stroke-width="1"/><rect x="495.3" y="233.2" width="5.4" height="2.4" fill="#16a34a" opacity="0.82" rx="1"/>
<line x1="506.9" y1="228.8" x2="506.9" y2="251.3" stroke="#dc2626" stroke-width="1"/><rect x="504.2" y="233.2" width="5.4" height="10.9" fill="#dc2626" opacity="0.82" rx="1"/>
<line x1="515.8" y1="239.0" x2="515.8" y2="252.1" stroke="#dc2626" stroke-width="1"/><rect x="513.1" y="243.9" width="5.4" height="4.0" fill="#dc2626" opacity="0.82" rx="1"/>
<line x1="524.7" y1="247.1" x2="524.7" y2="257.1" stroke="#dc2626" stroke-width="1"/><rect x="522.0" y="248.1" width="5.4" height="4.0" fill="#dc2626" opacity="0.82" rx="1"/>
<line x1="533.6" y1="246.9" x2="533.6" y2="266.4" stroke="#dc2626" stroke-width="1"/><rect x="530.9" y="251.9" width="5.4" height="9.5" fill="#dc2626" opacity="0.82" rx="1"/>
<line x1="542.4" y1="241.2" x2="542.4" y2="261.4" stroke="#16a34a" stroke-width="1"/><rect x="539.7" y="246.9" width="5.4" height="14.5" fill="#16a34a" opacity="0.82" rx="1"/>
<line x1="551.3" y1="239.4" x2="551.3" y2="278.9" stroke="#dc2626" stroke-width="1"/><rect x="548.6" y="246.9" width="5.4" height="31.0" fill="#dc2626" opacity="0.82" rx="1"/>
<line x1="560.2" y1="247.9" x2="560.2" y2="279.7" stroke="#16a34a" stroke-width="1"/><rect x="557.5" y="264.2" width="5.4" height="13.7" fill="#16a34a" opacity="0.82" rx="1"/>
<line x1="569.1" y1="234.2" x2="569.1" y2="265.4" stroke="#16a34a" stroke-width="1"/><rect x="566.4" y="234.6" width="5.4" height="29.0" fill="#16a34a" opacity="0.82" rx="1"/>
<line x1="578.0" y1="229.6" x2="578.0" y2="241.2" stroke="#dc2626" stroke-width="1"/><rect x="575.2" y="234.6" width="5.4" height="2.2" fill="#dc2626" opacity="0.82" rx="1"/>
<line x1="586.8" y1="223.5" x2="586.8" y2="244.1" stroke="#16a34a" stroke-width="1"/><rect x="584.1" y="224.3" width="5.4" height="12.5" fill="#16a34a" opacity="0.82" rx="1"/>
<line x1="595.7" y1="208.0" x2="595.7" y2="269.8" stroke="#dc2626" stroke-width="1"/><rect x="593.0" y="224.1" width="5.4" height="8.2" fill="#dc2626" opacity="0.82" rx="1"/>
<line x1="604.6" y1="219.5" x2="604.6" y2="278.9" stroke="#dc2626" stroke-width="1"/><rect x="601.9" y="232.2" width="5.4" height="44.1" fill="#dc2626" opacity="0.82" rx="1"/>
<line x1="613.5" y1="252.7" x2="613.5" y2="276.4" stroke="#16a34a" stroke-width="1"/><rect x="610.7" y="259.1" width="5.4" height="17.1" fill="#16a34a" opacity="0.82" rx="1"/>
<line x1="622.3" y1="243.9" x2="622.3" y2="259.5" stroke="#16a34a" stroke-width="1"/><rect x="619.6" y="251.7" width="5.4" height="7.6" fill="#16a34a" opacity="0.82" rx="1"/>
<line x1="631.2" y1="234.0" x2="631.2" y2="262.4" stroke="#16a34a" stroke-width="1"/><rect x="628.5" y="236.4" width="5.4" height="15.3" fill="#16a34a" opacity="0.82" rx="1"/>
<line x1="640.1" y1="218.5" x2="640.1" y2="238.6" stroke="#16a34a" stroke-width="1"/><rect x="637.4" y="224.5" width="5.4" height="11.7" fill="#16a34a" opacity="0.82" rx="1"/>
<line x1="649.0" y1="200.8" x2="649.0" y2="229.6" stroke="#16a34a" stroke-width="1"/><rect x="646.2" y="215.1" width="5.4" height="9.1" fill="#16a34a" opacity="0.82" rx="1"/>
<line x1="657.8" y1="205.8" x2="657.8" y2="215.9" stroke="#16a34a" stroke-width="1"/><rect x="655.1" y="213.7" width="5.4" height="2.0" fill="#16a34a" opacity="0.82" rx="1"/>
<line x1="666.7" y1="206.0" x2="666.7" y2="215.7" stroke="#16a34a" stroke-width="1"/><rect x="664.0" y="207.4" width="5.4" height="6.0" fill="#16a34a" opacity="0.82" rx="1"/>
<line x1="675.6" y1="184.9" x2="675.6" y2="208.2" stroke="#16a34a" stroke-width="1"/><rect x="672.9" y="189.1" width="5.4" height="18.3" fill="#16a34a" opacity="0.82" rx="1"/>
<line x1="684.5" y1="179.1" x2="684.5" y2="200.8" stroke="#dc2626" stroke-width="1"/><rect x="681.8" y="189.1" width="5.4" height="6.6" fill="#dc2626" opacity="0.82" rx="1"/>
<line x1="693.3" y1="171.6" x2="693.3" y2="199.4" stroke="#16a34a" stroke-width="1"/><rect x="690.6" y="175.9" width="5.4" height="19.7" fill="#16a34a" opacity="0.82" rx="1"/>
<line x1="702.2" y1="176.1" x2="702.2" y2="188.5" stroke="#dc2626" stroke-width="1"/><rect x="699.5" y="176.1" width="5.4" height="7.8" fill="#dc2626" opacity="0.82" rx="1"/>
<line x1="711.1" y1="181.7" x2="711.1" y2="190.1" stroke="#16a34a" stroke-width="1"/><rect x="708.4" y="182.1" width="5.4" height="1.4" fill="#16a34a" opacity="0.82" rx="1"/>
<line x1="720.0" y1="174.0" x2="720.0" y2="193.4" stroke="#dc2626" stroke-width="1"/><rect x="717.3" y="182.1" width="5.4" height="10.7" fill="#dc2626" opacity="0.82" rx="1"/>
<line x1="728.9" y1="181.7" x2="728.9" y2="194.2" stroke="#16a34a" stroke-width="1"/><rect x="726.1" y="187.3" width="5.4" height="5.6" fill="#16a34a" opacity="0.82" rx="1"/>
<line x1="737.7" y1="184.5" x2="737.7" y2="192.6" stroke="#dc2626" stroke-width="1"/><rect x="735.0" y="187.5" width="5.4" height="2.4" fill="#dc2626" opacity="0.82" rx="1"/>
<line x1="746.6" y1="179.9" x2="746.6" y2="193.2" stroke="#16a34a" stroke-width="1"/><rect x="743.9" y="184.7" width="5.4" height="5.2" fill="#16a34a" opacity="0.82" rx="1"/>
<line x1="755.5" y1="172.4" x2="755.5" y2="187.9" stroke="#16a34a" stroke-width="1"/><rect x="752.8" y="174.0" width="5.4" height="10.5" fill="#16a34a" opacity="0.82" rx="1"/>
<line x1="764.4" y1="150.9" x2="764.4" y2="179.7" stroke="#16a34a" stroke-width="1"/><rect x="761.6" y="160.4" width="5.4" height="13.9" fill="#16a34a" opacity="0.82" rx="1"/>
<line x1="773.2" y1="124.3" x2="773.2" y2="161.2" stroke="#16a34a" stroke-width="1"/><rect x="770.5" y="129.4" width="5.4" height="31.2" fill="#16a34a" opacity="0.82" rx="1"/>
<line x1="782.1" y1="121.5" x2="782.1" y2="144.7" stroke="#dc2626" stroke-width="1"/><rect x="779.4" y="129.4" width="5.4" height="8.4" fill="#dc2626" opacity="0.82" rx="1"/>
<line x1="791.0" y1="128.8" x2="791.0" y2="139.6" stroke="#16a34a" stroke-width="1"/><rect x="788.3" y="133.0" width="5.4" height="4.8" fill="#16a34a" opacity="0.82" rx="1"/>
<line x1="799.9" y1="125.0" x2="799.9" y2="137.4" stroke="#16a34a" stroke-width="1"/><rect x="797.1" y="129.8" width="5.4" height="3.0" fill="#16a34a" opacity="0.82" rx="1"/>
<line x1="808.7" y1="118.3" x2="808.7" y2="129.8" stroke="#16a34a" stroke-width="1"/><rect x="806.0" y="125.8" width="5.4" height="4.0" fill="#16a34a" opacity="0.82" rx="1"/>
<line x1="817.6" y1="116.7" x2="817.6" y2="136.4" stroke="#dc2626" stroke-width="1"/><rect x="814.9" y="125.6" width="5.4" height="10.9" fill="#dc2626" opacity="0.82" rx="1"/>
<line x1="826.5" y1="124.3" x2="826.5" y2="137.8" stroke="#16a34a" stroke-width="1"/><rect x="823.8" y="124.5" width="5.4" height="11.9" fill="#16a34a" opacity="0.82" rx="1"/>
<line x1="835.4" y1="112.5" x2="835.4" y2="126.2" stroke="#16a34a" stroke-width="1"/><rect x="832.6" y="112.9" width="5.4" height="11.5" fill="#16a34a" opacity="0.82" rx="1"/>
<line x1="844.2" y1="102.4" x2="844.2" y2="117.9" stroke="#16a34a" stroke-width="1"/><rect x="841.5" y="112.3" width="5.4" height="1.2" fill="#16a34a" opacity="0.82" rx="1"/>
<line x1="853.1" y1="106.2" x2="853.1" y2="119.3" stroke="#16a34a" stroke-width="1"/><rect x="850.4" y="108.5" width="5.4" height="3.6" fill="#16a34a" opacity="0.82" rx="1"/>
<line x1="862.0" y1="99.4" x2="862.0" y2="125.4" stroke="#16a34a" stroke-width="1"/><rect x="859.3" y="100.4" width="5.4" height="8.2" fill="#16a34a" opacity="0.82" rx="1"/>
<line x1="72" y1="127.6" x2="862" y2="127.6" stroke="#16a34a" stroke-width="1.8" stroke-dasharray="6 4" /><rect x="874" y="107.6" width="166" height="23" rx="5" fill="#ffffff" stroke="#16a34a" opacity="0.97"/><text x="881" y="123.6" fill="#16a34a" font-size="15" font-weight="700">日内支撑 77.29</text>
<line x1="72" y1="55.1" x2="862" y2="55.1" stroke="#dc2626" stroke-width="1.8" stroke-dasharray="6 4" /><rect x="874" y="35.1" width="166" height="23" rx="5" fill="#ffffff" stroke="#dc2626" opacity="0.97"/><text x="881" y="51.1" fill="#dc2626" font-size="15" font-weight="700">日内压力 80.89</text>
<line x1="72" y1="100.4" x2="862" y2="100.4" stroke="#111827" stroke-width="1.8" stroke-dasharray="2 2" /><rect x="874" y="80.4" width="166" height="23" rx="5" fill="#ffffff" stroke="#111827" opacity="0.97"/><text x="881" y="96.4" fill="#111827" font-size="15" font-weight="700">现价 78.64</text>
<text x="72" y="396" fill="#16a34a" font-size="14" font-weight="700">日内做多计划</text><rect x="72" y="404" width="790" height="48" rx="6" fill="#f9fafb" stroke="#e5e7eb"/><line x1="94" y1="412" x2="840" y2="412" stroke="#16a34a" stroke-width="3"/><circle cx="132.0" cy="412" r="5" fill="#16a34a"/><text x="132.0" y="434" fill="#374151" font-size="12" text-anchor="middle">入场 止跌/突破回踩</text><circle cx="451.2" cy="412" r="5" fill="#16a34a"/><text x="451.2" y="434" fill="#374151" font-size="12" text-anchor="middle">止损 77.29</text><circle cx="712.0" cy="412" r="5" fill="#16a34a"/><text x="712.0" y="434" fill="#374151" font-size="12" text-anchor="middle">目标一 80.89</text><circle cx="814.0" cy="412" r="5" fill="#16a34a"/><text x="814.0" y="434" fill="#374151" font-size="12" text-anchor="middle">目标二 81.79</text>
<text x="72" y="482" fill="#dc2626" font-size="14" font-weight="700">日内做空计划</text><rect x="72" y="490" width="790" height="48" rx="6" fill="#f9fafb" stroke="#e5e7eb"/><line x1="94" y1="498" x2="840" y2="498" stroke="#dc2626" stroke-width="3"/><circle cx="132.0" cy="498" r="5" fill="#dc2626"/><text x="132.0" y="520" fill="#374151" font-size="12" text-anchor="middle">入场 反弹承压/破位回抽</text><circle cx="451.2" cy="498" r="5" fill="#dc2626"/><text x="451.2" y="520" fill="#374151" font-size="12" text-anchor="middle">止损 80.89</text><circle cx="712.0" cy="498" r="5" fill="#dc2626"/><text x="712.0" y="520" fill="#374151" font-size="12" text-anchor="middle">目标一 77.29</text><circle cx="814.0" cy="498" r="5" fill="#dc2626"/><text x="814.0" y="520" fill="#374151" font-size="12" text-anchor="middle">目标二 76.39</text>
</svg>