<svg xmlns="http://www.w3.org/2000/svg" width="1080" height="560" viewBox="0 0 1080 560">
<rect width="100%" height="100%" fill="#ffffff"/>
<text x="72" y="23" fill="#111827" font-size="21" font-weight="800">DRAM 日线K线支撑压力图</text>
<text x="862" y="42" fill="#374151" font-size="15" text-anchor="end">最新价 69.75</text>
<line x1="72" y1="34" x2="72" y2="340" stroke="#d1d5db"/>
<line x1="72" y1="340" x2="862" y2="340" stroke="#d1d5db"/>
<line x1="72" y1="340.0" x2="862" y2="340.0" stroke="#f3f4f6"/>
<text x="8" y="345.0" fill="#4b5563" font-size="14">43.48</text>
<line x1="72" y1="263.5" x2="862" y2="263.5" stroke="#f3f4f6"/>
<text x="8" y="268.5" fill="#4b5563" font-size="14">54.58</text>
<line x1="72" y1="187.0" x2="862" y2="187.0" stroke="#f3f4f6"/>
<text x="8" y="192.0" fill="#4b5563" font-size="14">65.68</text>
<line x1="72" y1="110.5" x2="862" y2="110.5" stroke="#f3f4f6"/>
<text x="8" y="115.5" fill="#4b5563" font-size="14">76.77</text>
<line x1="72" y1="34.0" x2="862" y2="34.0" stroke="#f3f4f6"/>
<text x="8" y="39.0" fill="#4b5563" font-size="14">87.87</text>
<line x1="72.0" y1="282.0" x2="72.0" y2="308.2" stroke="#dc2626" stroke-width="1"/><rect x="67.5" y="286.5" width="9.0" height="10.1" fill="#dc2626" opacity="0.82" rx="1"/>
<line x1="90.0" y1="287.9" x2="90.0" y2="318.9" stroke="#16a34a" stroke-width="1"/><rect x="85.5" y="295.0" width="9.0" height="1.5" fill="#16a34a" opacity="0.82" rx="1"/>
<line x1="107.9" y1="280.9" x2="107.9" y2="309.0" stroke="#16a34a" stroke-width="1"/><rect x="103.4" y="283.1" width="9.0" height="12.0" fill="#16a34a" opacity="0.82" rx="1"/>
<line x1="125.9" y1="258.9" x2="125.9" y2="287.4" stroke="#16a34a" stroke-width="1"/><rect x="121.4" y="261.8" width="9.0" height="21.3" fill="#16a34a" opacity="0.82" rx="1"/>
<line x1="143.8" y1="261.5" x2="143.8" y2="277.2" stroke="#dc2626" stroke-width="1"/><rect x="139.3" y="261.8" width="9.0" height="15.1" fill="#dc2626" opacity="0.82" rx="1"/>
<line x1="161.8" y1="253.3" x2="161.8" y2="292.1" stroke="#16a34a" stroke-width="1"/><rect x="157.3" y="265.3" width="9.0" height="11.4" fill="#16a34a" opacity="0.82" rx="1"/>
<line x1="179.7" y1="253.0" x2="179.7" y2="266.7" stroke="#16a34a" stroke-width="1"/><rect x="175.2" y="258.0" width="9.0" height="7.2" fill="#16a34a" opacity="0.82" rx="1"/>
<line x1="197.7" y1="235.6" x2="197.7" y2="259.9" stroke="#16a34a" stroke-width="1"/><rect x="193.2" y="250.2" width="9.0" height="7.7" fill="#16a34a" opacity="0.82" rx="1"/>
<line x1="215.6" y1="203.4" x2="215.6" y2="262.9" stroke="#16a34a" stroke-width="1"/><rect x="211.1" y="210.9" width="9.0" height="39.4" fill="#16a34a" opacity="0.82" rx="1"/>
<line x1="233.6" y1="200.7" x2="233.6" y2="232.5" stroke="#dc2626" stroke-width="1"/><rect x="229.1" y="211.0" width="9.0" height="17.8" fill="#dc2626" opacity="0.82" rx="1"/>
<line x1="251.5" y1="200.2" x2="251.5" y2="243.8" stroke="#16a34a" stroke-width="1"/><rect x="247.0" y="205.1" width="9.0" height="23.6" fill="#16a34a" opacity="0.82" rx="1"/>
<line x1="269.5" y1="196.1" x2="269.5" y2="215.4" stroke="#16a34a" stroke-width="1"/><rect x="265.0" y="203.3" width="9.0" height="1.7" fill="#16a34a" opacity="0.82" rx="1"/>
<line x1="287.5" y1="185.0" x2="287.5" y2="206.1" stroke="#16a34a" stroke-width="1"/><rect x="283.0" y="186.1" width="9.0" height="17.2" fill="#16a34a" opacity="0.82" rx="1"/>
<line x1="305.4" y1="174.6" x2="305.4" y2="190.1" stroke="#16a34a" stroke-width="1"/><rect x="300.9" y="183.9" width="9.0" height="2.2" fill="#16a34a" opacity="0.82" rx="1"/>
<line x1="323.4" y1="163.5" x2="323.4" y2="196.1" stroke="#16a34a" stroke-width="1"/><rect x="318.9" y="169.6" width="9.0" height="14.1" fill="#16a34a" opacity="0.82" rx="1"/>
<line x1="341.3" y1="156.0" x2="341.3" y2="188.8" stroke="#16a34a" stroke-width="1"/><rect x="336.8" y="161.0" width="9.0" height="8.8" fill="#16a34a" opacity="0.82" rx="1"/>
<line x1="359.3" y1="155.0" x2="359.3" y2="182.0" stroke="#dc2626" stroke-width="1"/><rect x="354.8" y="160.9" width="9.0" height="19.0" fill="#dc2626" opacity="0.82" rx="1"/>
<line x1="377.2" y1="170.9" x2="377.2" y2="204.2" stroke="#dc2626" stroke-width="1"/><rect x="372.7" y="179.9" width="9.0" height="23.1" fill="#dc2626" opacity="0.82" rx="1"/>
<line x1="395.2" y1="197.7" x2="395.2" y2="271.2" stroke="#dc2626" stroke-width="1"/><rect x="390.7" y="203.0" width="9.0" height="54.6" fill="#dc2626" opacity="0.82" rx="1"/>
<line x1="413.1" y1="250.5" x2="413.1" y2="277.7" stroke="#16a34a" stroke-width="1"/><rect x="408.6" y="255.6" width="9.0" height="2.1" fill="#16a34a" opacity="0.82" rx="1"/>
<line x1="431.1" y1="227.3" x2="431.1" y2="260.6" stroke="#16a34a" stroke-width="1"/><rect x="426.6" y="250.6" width="9.0" height="5.0" fill="#16a34a" opacity="0.82" rx="1"/>
<line x1="449.0" y1="214.6" x2="449.0" y2="253.6" stroke="#16a34a" stroke-width="1"/><rect x="444.5" y="220.0" width="9.0" height="30.7" fill="#16a34a" opacity="0.82" rx="1"/>
<line x1="467.0" y1="197.2" x2="467.0" y2="257.5" stroke="#dc2626" stroke-width="1"/><rect x="462.5" y="219.9" width="9.0" height="8.0" fill="#dc2626" opacity="0.82" rx="1"/>
<line x1="485.0" y1="215.5" x2="485.0" y2="256.5" stroke="#dc2626" stroke-width="1"/><rect x="480.5" y="227.9" width="9.0" height="22.7" fill="#dc2626" opacity="0.82" rx="1"/>
<line x1="502.9" y1="180.0" x2="502.9" y2="252.4" stroke="#16a34a" stroke-width="1"/><rect x="498.4" y="184.6" width="9.0" height="65.8" fill="#16a34a" opacity="0.82" rx="1"/>
<line x1="520.9" y1="183.5" x2="520.9" y2="210.5" stroke="#dc2626" stroke-width="1"/><rect x="516.4" y="184.7" width="9.0" height="2.6" fill="#dc2626" opacity="0.82" rx="1"/>
<line x1="538.8" y1="184.9" x2="538.8" y2="199.3" stroke="#16a34a" stroke-width="1"/><rect x="534.3" y="186.3" width="9.0" height="1.2" fill="#16a34a" opacity="0.82" rx="1"/>
<line x1="556.8" y1="162.5" x2="556.8" y2="187.7" stroke="#16a34a" stroke-width="1"/><rect x="552.3" y="169.1" width="9.0" height="17.2" fill="#16a34a" opacity="0.82" rx="1"/>
<line x1="574.7" y1="147.9" x2="574.7" y2="175.3" stroke="#16a34a" stroke-width="1"/><rect x="570.2" y="151.3" width="9.0" height="17.9" fill="#16a34a" opacity="0.82" rx="1"/>
<line x1="592.7" y1="136.0" x2="592.7" y2="172.5" stroke="#dc2626" stroke-width="1"/><rect x="588.2" y="151.5" width="9.0" height="13.4" fill="#dc2626" opacity="0.82" rx="1"/>
<line x1="610.6" y1="134.5" x2="610.6" y2="165.0" stroke="#16a34a" stroke-width="1"/><rect x="606.1" y="140.2" width="9.0" height="24.7" fill="#16a34a" opacity="0.82" rx="1"/>
<line x1="628.6" y1="98.3" x2="628.6" y2="141.9" stroke="#16a34a" stroke-width="1"/><rect x="624.1" y="100.4" width="9.0" height="39.6" fill="#16a34a" opacity="0.82" rx="1"/>
<line x1="646.5" y1="97.3" x2="646.5" y2="123.8" stroke="#dc2626" stroke-width="1"/><rect x="642.0" y="100.5" width="9.0" height="4.1" fill="#dc2626" opacity="0.82" rx="1"/>
<line x1="664.5" y1="82.3" x2="664.5" y2="106.0" stroke="#16a34a" stroke-width="1"/><rect x="660.0" y="87.5" width="9.0" height="17.2" fill="#16a34a" opacity="0.82" rx="1"/>
<line x1="682.5" y1="78.8" x2="682.5" y2="112.0" stroke="#dc2626" stroke-width="1"/><rect x="678.0" y="87.6" width="9.0" height="19.9" fill="#dc2626" opacity="0.82" rx="1"/>
<line x1="700.4" y1="74.8" x2="700.4" y2="122.7" stroke="#16a34a" stroke-width="1"/><rect x="695.9" y="84.8" width="9.0" height="22.6" fill="#16a34a" opacity="0.82" rx="1"/>
<line x1="718.4" y1="84.2" x2="718.4" y2="166.2" stroke="#dc2626" stroke-width="1"/><rect x="713.9" y="84.8" width="9.0" height="68.7" fill="#dc2626" opacity="0.82" rx="1"/>
<line x1="736.3" y1="77.9" x2="736.3" y2="176.3" stroke="#16a34a" stroke-width="1"/><rect x="731.8" y="86.5" width="9.0" height="66.9" fill="#16a34a" opacity="0.82" rx="1"/>
<line x1="754.3" y1="85.6" x2="754.3" y2="132.9" stroke="#dc2626" stroke-width="1"/><rect x="749.8" y="86.4" width="9.0" height="25.8" fill="#dc2626" opacity="0.82" rx="1"/>
<line x1="772.2" y1="109.9" x2="772.2" y2="150.3" stroke="#dc2626" stroke-width="1"/><rect x="767.7" y="112.2" width="9.0" height="29.0" fill="#dc2626" opacity="0.82" rx="1"/>
<line x1="790.2" y1="135.1" x2="790.2" y2="143.2" stroke="#dc2626" stroke-width="1"/><rect x="785.7" y="141.1" width="9.0" height="1.2" fill="#dc2626" opacity="0.82" rx="1"/>
<line x1="808.1" y1="120.8" x2="808.1" y2="146.0" stroke="#16a34a" stroke-width="1"/><rect x="803.6" y="138.4" width="9.0" height="3.2" fill="#16a34a" opacity="0.82" rx="1"/>
<line x1="826.1" y1="134.2" x2="826.1" y2="181.3" stroke="#dc2626" stroke-width="1"/><rect x="821.6" y="138.4" width="9.0" height="6.7" fill="#dc2626" opacity="0.82" rx="1"/>
<line x1="844.0" y1="128.2" x2="844.0" y2="155.7" stroke="#16a34a" stroke-width="1"/><rect x="839.5" y="133.1" width="9.0" height="12.0" fill="#16a34a" opacity="0.82" rx="1"/>
<line x1="862.0" y1="130.0" x2="862.0" y2="160.3" stroke="#dc2626" stroke-width="1"/><rect x="857.5" y="133.0" width="9.0" height="25.9" fill="#dc2626" opacity="0.82" rx="1"/>
<line x1="72" y1="221.2" x2="862" y2="221.2" stroke="#16a34a" stroke-width="1.8" stroke-dasharray="6 4" /><rect x="874" y="201.2" width="166" height="23" rx="5" fill="#ffffff" stroke="#16a34a" opacity="0.97"/><text x="881" y="217.2" fill="#16a34a" font-size="15" font-weight="700">支撑 60.71</text>
<line x1="72" y1="55.1" x2="862" y2="55.1" stroke="#dc2626" stroke-width="1.8" stroke-dasharray="6 4" /><rect x="874" y="35.1" width="166" height="23" rx="5" fill="#ffffff" stroke="#dc2626" opacity="0.97"/><text x="881" y="51.1" fill="#dc2626" font-size="15" font-weight="700">压力 84.81</text>
<line x1="72" y1="158.9" x2="862" y2="158.9" stroke="#111827" stroke-width="1.8" stroke-dasharray="2 2" /><rect x="874" y="138.9" width="166" height="23" rx="5" fill="#ffffff" stroke="#111827" opacity="0.97"/><text x="881" y="154.9" fill="#111827" font-size="15" font-weight="700">现价 69.75</text>
<text x="72" y="396" fill="#16a34a" font-size="14" font-weight="700">日线做多计划</text><rect x="72" y="404" width="790" height="48" rx="6" fill="#f9fafb" stroke="#e5e7eb"/><line x1="94" y1="412" x2="840" y2="412" stroke="#16a34a" stroke-width="3"/><circle cx="132.0" cy="412" r="5" fill="#16a34a"/><text x="132.0" y="434" fill="#374151" font-size="12" text-anchor="middle">入场 止跌/突破回踩</text><circle cx="451.2" cy="412" r="5" fill="#16a34a"/><text x="451.2" y="434" fill="#374151" font-size="12" text-anchor="middle">止损 60.71</text><circle cx="712.0" cy="412" r="5" fill="#16a34a"/><text x="712.0" y="434" fill="#374151" font-size="12" text-anchor="middle">目标一 84.81</text><circle cx="814.0" cy="412" r="5" fill="#16a34a"/><text x="814.0" y="434" fill="#374151" font-size="12" text-anchor="middle">目标二 93.85</text>
<text x="72" y="482" fill="#dc2626" font-size="14" font-weight="700">日线做空计划</text><rect x="72" y="490" width="790" height="48" rx="6" fill="#f9fafb" stroke="#e5e7eb"/><line x1="94" y1="498" x2="840" y2="498" stroke="#dc2626" stroke-width="3"/><circle cx="132.0" cy="498" r="5" fill="#dc2626"/><text x="132.0" y="520" fill="#374151" font-size="12" text-anchor="middle">入场 反弹承压/破位回抽</text><circle cx="451.2" cy="498" r="5" fill="#dc2626"/><text x="451.2" y="520" fill="#374151" font-size="12" text-anchor="middle">止损 84.81</text><circle cx="712.0" cy="498" r="5" fill="#dc2626"/><text x="712.0" y="520" fill="#374151" font-size="12" text-anchor="middle">目标一 60.71</text><circle cx="814.0" cy="498" r="5" fill="#dc2626"/><text x="814.0" y="520" fill="#374151" font-size="12" text-anchor="middle">目标二 54.69</text>
</svg>