<svg xmlns="http://www.w3.org/2000/svg" width="1080" height="560" viewBox="0 0 1080 560">
<rect width="100%" height="100%" fill="#ffffff"/>
<text x="72" y="23" fill="#111827" font-size="21" font-weight="800">HYPE 小时线K线支撑压力图</text>
<text x="862" y="42" fill="#374151" font-size="15" text-anchor="end">最新价 65.09</text>
<line x1="72" y1="34" x2="72" y2="340" stroke="#d1d5db"/>
<line x1="72" y1="340" x2="862" y2="340" stroke="#d1d5db"/>
<line x1="72" y1="340.0" x2="862" y2="340.0" stroke="#f3f4f6"/>
<text x="8" y="345.0" fill="#4b5563" font-size="14">59.98</text>
<line x1="72" y1="263.5" x2="862" y2="263.5" stroke="#f3f4f6"/>
<text x="8" y="268.5" fill="#4b5563" font-size="14">62.07</text>
<line x1="72" y1="187.0" x2="862" y2="187.0" stroke="#f3f4f6"/>
<text x="8" y="192.0" fill="#4b5563" font-size="14">64.16</text>
<line x1="72" y1="110.5" x2="862" y2="110.5" stroke="#f3f4f6"/>
<text x="8" y="115.5" fill="#4b5563" font-size="14">66.25</text>
<line x1="72" y1="34.0" x2="862" y2="34.0" stroke="#f3f4f6"/>
<text x="8" y="39.0" fill="#4b5563" font-size="14">68.34</text>
<line x1="72.0" y1="201.3" x2="72.0" y2="220.4" stroke="#16a34a" stroke-width="1"/><rect x="69.3" y="208.7" width="5.4" height="3.4" fill="#16a34a" opacity="0.82" rx="1"/>
<line x1="80.9" y1="195.6" x2="80.9" y2="219.0" stroke="#dc2626" stroke-width="1"/><rect x="78.2" y="208.9" width="5.4" height="5.5" fill="#dc2626" opacity="0.82" rx="1"/>
<line x1="89.8" y1="212.3" x2="89.8" y2="243.4" stroke="#dc2626" stroke-width="1"/><rect x="87.0" y="214.4" width="5.4" height="20.3" fill="#dc2626" opacity="0.82" rx="1"/>
<line x1="98.6" y1="220.7" x2="98.6" y2="235.7" stroke="#16a34a" stroke-width="1"/><rect x="95.9" y="220.9" width="5.4" height="13.8" fill="#16a34a" opacity="0.82" rx="1"/>
<line x1="107.5" y1="202.7" x2="107.5" y2="237.7" stroke="#16a34a" stroke-width="1"/><rect x="104.8" y="214.6" width="5.4" height="6.2" fill="#16a34a" opacity="0.82" rx="1"/>
<line x1="116.4" y1="214.2" x2="116.4" y2="234.9" stroke="#dc2626" stroke-width="1"/><rect x="113.7" y="214.9" width="5.4" height="6.4" fill="#dc2626" opacity="0.82" rx="1"/>
<line x1="125.3" y1="194.9" x2="125.3" y2="223.8" stroke="#16a34a" stroke-width="1"/><rect x="122.5" y="204.9" width="5.4" height="15.6" fill="#16a34a" opacity="0.82" rx="1"/>
<line x1="134.1" y1="185.3" x2="134.1" y2="212.8" stroke="#16a34a" stroke-width="1"/><rect x="131.4" y="201.1" width="5.4" height="3.6" fill="#16a34a" opacity="0.82" rx="1"/>
<line x1="143.0" y1="167.5" x2="143.0" y2="200.5" stroke="#16a34a" stroke-width="1"/><rect x="140.3" y="178.3" width="5.4" height="22.2" fill="#16a34a" opacity="0.82" rx="1"/>
<line x1="151.9" y1="178.0" x2="151.9" y2="197.8" stroke="#dc2626" stroke-width="1"/><rect x="149.2" y="178.7" width="5.4" height="7.4" fill="#dc2626" opacity="0.82" rx="1"/>
<line x1="160.8" y1="185.8" x2="160.8" y2="230.2" stroke="#dc2626" stroke-width="1"/><rect x="158.0" y="186.1" width="5.4" height="42.9" fill="#dc2626" opacity="0.82" rx="1"/>
<line x1="169.6" y1="222.1" x2="169.6" y2="236.5" stroke="#dc2626" stroke-width="1"/><rect x="166.9" y="228.9" width="5.4" height="1.2" fill="#dc2626" opacity="0.82" rx="1"/>
<line x1="178.5" y1="223.8" x2="178.5" y2="262.3" stroke="#dc2626" stroke-width="1"/><rect x="175.8" y="229.0" width="5.4" height="30.7" fill="#dc2626" opacity="0.82" rx="1"/>
<line x1="187.4" y1="248.3" x2="187.4" y2="267.8" stroke="#16a34a" stroke-width="1"/><rect x="184.7" y="252.1" width="5.4" height="7.7" fill="#16a34a" opacity="0.82" rx="1"/>
<line x1="196.3" y1="236.9" x2="196.3" y2="258.2" stroke="#16a34a" stroke-width="1"/><rect x="193.5" y="248.8" width="5.4" height="3.3" fill="#16a34a" opacity="0.82" rx="1"/>
<line x1="205.1" y1="244.2" x2="205.1" y2="276.9" stroke="#16a34a" stroke-width="1"/><rect x="202.4" y="244.8" width="5.4" height="4.0" fill="#16a34a" opacity="0.82" rx="1"/>
<line x1="214.0" y1="243.3" x2="214.0" y2="286.4" stroke="#dc2626" stroke-width="1"/><rect x="211.3" y="244.8" width="5.4" height="35.0" fill="#dc2626" opacity="0.82" rx="1"/>
<line x1="222.9" y1="261.6" x2="222.9" y2="283.0" stroke="#16a34a" stroke-width="1"/><rect x="220.2" y="275.8" width="5.4" height="4.1" fill="#16a34a" opacity="0.82" rx="1"/>
<line x1="231.8" y1="264.1" x2="231.8" y2="290.6" stroke="#16a34a" stroke-width="1"/><rect x="229.1" y="269.0" width="5.4" height="6.7" fill="#16a34a" opacity="0.82" rx="1"/>
<line x1="240.7" y1="262.7" x2="240.7" y2="279.5" stroke="#dc2626" stroke-width="1"/><rect x="237.9" y="269.0" width="5.4" height="2.0" fill="#dc2626" opacity="0.82" rx="1"/>
<line x1="249.5" y1="258.1" x2="249.5" y2="272.2" stroke="#16a34a" stroke-width="1"/><rect x="246.8" y="259.3" width="5.4" height="11.2" fill="#16a34a" opacity="0.82" rx="1"/>
<line x1="258.4" y1="256.4" x2="258.4" y2="273.7" stroke="#dc2626" stroke-width="1"/><rect x="255.7" y="259.2" width="5.4" height="10.2" fill="#dc2626" opacity="0.82" rx="1"/>
<line x1="267.3" y1="264.1" x2="267.3" y2="280.6" stroke="#16a34a" stroke-width="1"/><rect x="264.6" y="268.7" width="5.4" height="1.2" fill="#16a34a" opacity="0.82" rx="1"/>
<line x1="276.2" y1="259.6" x2="276.2" y2="281.8" stroke="#16a34a" stroke-width="1"/><rect x="273.4" y="268.0" width="5.4" height="1.2" fill="#16a34a" opacity="0.82" rx="1"/>
<line x1="285.0" y1="242.4" x2="285.0" y2="268.1" stroke="#16a34a" stroke-width="1"/><rect x="282.3" y="243.6" width="5.4" height="24.4" fill="#16a34a" opacity="0.82" rx="1"/>
<line x1="293.9" y1="213.6" x2="293.9" y2="255.0" stroke="#16a34a" stroke-width="1"/><rect x="291.2" y="227.5" width="5.4" height="15.9" fill="#16a34a" opacity="0.82" rx="1"/>
<line x1="302.8" y1="225.4" x2="302.8" y2="238.5" stroke="#dc2626" stroke-width="1"/><rect x="300.1" y="227.1" width="5.4" height="8.9" fill="#dc2626" opacity="0.82" rx="1"/>
<line x1="311.7" y1="225.8" x2="311.7" y2="250.7" stroke="#dc2626" stroke-width="1"/><rect x="308.9" y="236.2" width="5.4" height="1.2" fill="#dc2626" opacity="0.82" rx="1"/>
<line x1="320.5" y1="210.6" x2="320.5" y2="237.2" stroke="#16a34a" stroke-width="1"/><rect x="317.8" y="223.3" width="5.4" height="13.0" fill="#16a34a" opacity="0.82" rx="1"/>
<line x1="329.4" y1="211.5" x2="329.4" y2="236.4" stroke="#dc2626" stroke-width="1"/><rect x="326.7" y="223.2" width="5.4" height="4.7" fill="#dc2626" opacity="0.82" rx="1"/>
<line x1="338.3" y1="220.6" x2="338.3" y2="248.4" stroke="#dc2626" stroke-width="1"/><rect x="335.6" y="227.8" width="5.4" height="10.7" fill="#dc2626" opacity="0.82" rx="1"/>
<line x1="347.2" y1="221.9" x2="347.2" y2="242.0" stroke="#dc2626" stroke-width="1"/><rect x="344.4" y="238.0" width="5.4" height="3.5" fill="#dc2626" opacity="0.82" rx="1"/>
<line x1="356.0" y1="223.3" x2="356.0" y2="245.5" stroke="#16a34a" stroke-width="1"/><rect x="353.3" y="227.6" width="5.4" height="13.9" fill="#16a34a" opacity="0.82" rx="1"/>
<line x1="364.9" y1="221.7" x2="364.9" y2="255.2" stroke="#dc2626" stroke-width="1"/><rect x="362.2" y="227.5" width="5.4" height="16.5" fill="#dc2626" opacity="0.82" rx="1"/>
<line x1="373.8" y1="230.2" x2="373.8" y2="252.7" stroke="#16a34a" stroke-width="1"/><rect x="371.1" y="238.3" width="5.4" height="5.8" fill="#16a34a" opacity="0.82" rx="1"/>
<line x1="382.7" y1="237.1" x2="382.7" y2="271.9" stroke="#dc2626" stroke-width="1"/><rect x="380.0" y="238.1" width="5.4" height="24.2" fill="#dc2626" opacity="0.82" rx="1"/>
<line x1="391.6" y1="257.2" x2="391.6" y2="280.2" stroke="#dc2626" stroke-width="1"/><rect x="388.8" y="262.3" width="5.4" height="5.9" fill="#dc2626" opacity="0.82" rx="1"/>
<line x1="400.4" y1="251.0" x2="400.4" y2="272.9" stroke="#dc2626" stroke-width="1"/><rect x="397.7" y="268.2" width="5.4" height="2.2" fill="#dc2626" opacity="0.82" rx="1"/>
<line x1="409.3" y1="270.1" x2="409.3" y2="315.6" stroke="#dc2626" stroke-width="1"/><rect x="406.6" y="270.4" width="5.4" height="40.2" fill="#dc2626" opacity="0.82" rx="1"/>
<line x1="418.2" y1="284.7" x2="418.2" y2="318.9" stroke="#16a34a" stroke-width="1"/><rect x="415.5" y="309.1" width="5.4" height="2.7" fill="#16a34a" opacity="0.82" rx="1"/>
<line x1="427.1" y1="278.5" x2="427.1" y2="311.4" stroke="#16a34a" stroke-width="1"/><rect x="424.3" y="287.9" width="5.4" height="21.3" fill="#16a34a" opacity="0.82" rx="1"/>
<line x1="435.9" y1="277.2" x2="435.9" y2="314.1" stroke="#16a34a" stroke-width="1"/><rect x="433.2" y="277.9" width="5.4" height="9.7" fill="#16a34a" opacity="0.82" rx="1"/>
<line x1="444.8" y1="265.5" x2="444.8" y2="297.7" stroke="#16a34a" stroke-width="1"/><rect x="442.1" y="268.9" width="5.4" height="9.4" fill="#16a34a" opacity="0.82" rx="1"/>
<line x1="453.7" y1="244.5" x2="453.7" y2="290.2" stroke="#16a34a" stroke-width="1"/><rect x="451.0" y="249.6" width="5.4" height="19.5" fill="#16a34a" opacity="0.82" rx="1"/>
<line x1="462.6" y1="233.7" x2="462.6" y2="258.6" stroke="#16a34a" stroke-width="1"/><rect x="459.8" y="240.1" width="5.4" height="9.3" fill="#16a34a" opacity="0.82" rx="1"/>
<line x1="471.4" y1="236.5" x2="471.4" y2="268.1" stroke="#dc2626" stroke-width="1"/><rect x="468.7" y="240.1" width="5.4" height="24.9" fill="#dc2626" opacity="0.82" rx="1"/>
<line x1="480.3" y1="231.0" x2="480.3" y2="283.5" stroke="#16a34a" stroke-width="1"/><rect x="477.6" y="231.8" width="5.4" height="33.2" fill="#16a34a" opacity="0.82" rx="1"/>
<line x1="489.2" y1="222.2" x2="489.2" y2="242.9" stroke="#dc2626" stroke-width="1"/><rect x="486.5" y="231.8" width="5.4" height="11.1" fill="#dc2626" opacity="0.82" rx="1"/>
<line x1="498.1" y1="232.9" x2="498.1" y2="250.3" stroke="#dc2626" stroke-width="1"/><rect x="495.3" y="242.8" width="5.4" height="2.0" fill="#dc2626" opacity="0.82" rx="1"/>
<line x1="506.9" y1="238.3" x2="506.9" y2="253.9" stroke="#dc2626" stroke-width="1"/><rect x="504.2" y="244.9" width="5.4" height="7.9" fill="#dc2626" opacity="0.82" rx="1"/>
<line x1="515.8" y1="238.3" x2="515.8" y2="255.9" stroke="#16a34a" stroke-width="1"/><rect x="513.1" y="245.1" width="5.4" height="7.6" fill="#16a34a" opacity="0.82" rx="1"/>
<line x1="524.7" y1="198.9" x2="524.7" y2="245.0" stroke="#16a34a" stroke-width="1"/><rect x="522.0" y="206.2" width="5.4" height="38.8" fill="#16a34a" opacity="0.82" rx="1"/>
<line x1="533.6" y1="204.3" x2="533.6" y2="233.9" stroke="#dc2626" stroke-width="1"/><rect x="530.9" y="206.2" width="5.4" height="9.8" fill="#dc2626" opacity="0.82" rx="1"/>
<line x1="542.4" y1="170.9" x2="542.4" y2="226.0" stroke="#16a34a" stroke-width="1"/><rect x="539.7" y="200.5" width="5.4" height="15.5" fill="#16a34a" opacity="0.82" rx="1"/>
<line x1="551.3" y1="157.5" x2="551.3" y2="225.1" stroke="#16a34a" stroke-width="1"/><rect x="548.6" y="196.4" width="5.4" height="4.1" fill="#16a34a" opacity="0.82" rx="1"/>
<line x1="560.2" y1="176.3" x2="560.2" y2="221.7" stroke="#16a34a" stroke-width="1"/><rect x="557.5" y="179.4" width="5.4" height="16.9" fill="#16a34a" opacity="0.82" rx="1"/>
<line x1="569.1" y1="158.4" x2="569.1" y2="203.7" stroke="#16a34a" stroke-width="1"/><rect x="566.4" y="161.8" width="5.4" height="17.5" fill="#16a34a" opacity="0.82" rx="1"/>
<line x1="578.0" y1="146.2" x2="578.0" y2="184.8" stroke="#dc2626" stroke-width="1"/><rect x="575.2" y="161.8" width="5.4" height="6.3" fill="#dc2626" opacity="0.82" rx="1"/>
<line x1="586.8" y1="88.0" x2="586.8" y2="168.4" stroke="#16a34a" stroke-width="1"/><rect x="584.1" y="107.0" width="5.4" height="61.4" fill="#16a34a" opacity="0.82" rx="1"/>
<line x1="595.7" y1="104.8" x2="595.7" y2="133.5" stroke="#dc2626" stroke-width="1"/><rect x="593.0" y="107.0" width="5.4" height="21.2" fill="#dc2626" opacity="0.82" rx="1"/>
<line x1="604.6" y1="79.2" x2="604.6" y2="143.5" stroke="#16a34a" stroke-width="1"/><rect x="601.9" y="87.1" width="5.4" height="41.0" fill="#16a34a" opacity="0.82" rx="1"/>
<line x1="613.5" y1="84.4" x2="613.5" y2="109.5" stroke="#dc2626" stroke-width="1"/><rect x="610.7" y="87.4" width="5.4" height="21.4" fill="#dc2626" opacity="0.82" rx="1"/>
<line x1="622.3" y1="55.9" x2="622.3" y2="112.1" stroke="#16a34a" stroke-width="1"/><rect x="619.6" y="64.1" width="5.4" height="44.7" fill="#16a34a" opacity="0.82" rx="1"/>
<line x1="631.2" y1="55.1" x2="631.2" y2="95.0" stroke="#dc2626" stroke-width="1"/><rect x="628.5" y="64.1" width="5.4" height="21.6" fill="#dc2626" opacity="0.82" rx="1"/>
<line x1="640.1" y1="74.5" x2="640.1" y2="97.9" stroke="#dc2626" stroke-width="1"/><rect x="637.4" y="85.3" width="5.4" height="1.2" fill="#dc2626" opacity="0.82" rx="1"/>
<line x1="649.0" y1="85.4" x2="649.0" y2="131.8" stroke="#dc2626" stroke-width="1"/><rect x="646.2" y="87.1" width="5.4" height="32.8" fill="#dc2626" opacity="0.82" rx="1"/>
<line x1="657.8" y1="101.0" x2="657.8" y2="138.8" stroke="#16a34a" stroke-width="1"/><rect x="655.1" y="106.3" width="5.4" height="13.5" fill="#16a34a" opacity="0.82" rx="1"/>
<line x1="666.7" y1="104.2" x2="666.7" y2="135.8" stroke="#dc2626" stroke-width="1"/><rect x="664.0" y="106.2" width="5.4" height="24.8" fill="#dc2626" opacity="0.82" rx="1"/>
<line x1="675.6" y1="115.2" x2="675.6" y2="131.2" stroke="#16a34a" stroke-width="1"/><rect x="672.9" y="129.9" width="5.4" height="1.2" fill="#16a34a" opacity="0.82" rx="1"/>
<line x1="684.5" y1="103.1" x2="684.5" y2="137.5" stroke="#16a34a" stroke-width="1"/><rect x="681.8" y="113.0" width="5.4" height="16.9" fill="#16a34a" opacity="0.82" rx="1"/>
<line x1="693.3" y1="109.2" x2="693.3" y2="132.3" stroke="#dc2626" stroke-width="1"/><rect x="690.6" y="113.0" width="5.4" height="5.8" fill="#dc2626" opacity="0.82" rx="1"/>
<line x1="702.2" y1="118.4" x2="702.2" y2="143.7" stroke="#dc2626" stroke-width="1"/><rect x="699.5" y="118.8" width="5.4" height="20.5" fill="#dc2626" opacity="0.82" rx="1"/>
<line x1="711.1" y1="130.3" x2="711.1" y2="150.0" stroke="#16a34a" stroke-width="1"/><rect x="708.4" y="133.0" width="5.4" height="6.4" fill="#16a34a" opacity="0.82" rx="1"/>
<line x1="720.0" y1="130.1" x2="720.0" y2="154.0" stroke="#dc2626" stroke-width="1"/><rect x="717.3" y="132.9" width="5.4" height="18.0" fill="#dc2626" opacity="0.82" rx="1"/>
<line x1="728.9" y1="140.6" x2="728.9" y2="157.1" stroke="#16a34a" stroke-width="1"/><rect x="726.1" y="145.5" width="5.4" height="5.5" fill="#16a34a" opacity="0.82" rx="1"/>
<line x1="737.7" y1="111.6" x2="737.7" y2="151.8" stroke="#16a34a" stroke-width="1"/><rect x="735.0" y="117.2" width="5.4" height="28.1" fill="#16a34a" opacity="0.82" rx="1"/>
<line x1="746.6" y1="106.1" x2="746.6" y2="139.1" stroke="#dc2626" stroke-width="1"/><rect x="743.9" y="117.5" width="5.4" height="13.4" fill="#dc2626" opacity="0.82" rx="1"/>
<line x1="755.5" y1="131.0" x2="755.5" y2="177.5" stroke="#dc2626" stroke-width="1"/><rect x="752.8" y="131.0" width="5.4" height="42.8" fill="#dc2626" opacity="0.82" rx="1"/>
<line x1="764.4" y1="137.8" x2="764.4" y2="179.2" stroke="#16a34a" stroke-width="1"/><rect x="761.6" y="148.5" width="5.4" height="25.3" fill="#16a34a" opacity="0.82" rx="1"/>
<line x1="773.2" y1="120.2" x2="773.2" y2="168.6" stroke="#dc2626" stroke-width="1"/><rect x="770.5" y="147.9" width="5.4" height="16.6" fill="#dc2626" opacity="0.82" rx="1"/>
<line x1="782.1" y1="141.0" x2="782.1" y2="175.3" stroke="#16a34a" stroke-width="1"/><rect x="779.4" y="156.2" width="5.4" height="8.5" fill="#16a34a" opacity="0.82" rx="1"/>
<line x1="791.0" y1="145.8" x2="791.0" y2="188.7" stroke="#dc2626" stroke-width="1"/><rect x="788.3" y="156.2" width="5.4" height="12.9" fill="#dc2626" opacity="0.82" rx="1"/>
<line x1="799.9" y1="150.4" x2="799.9" y2="175.9" stroke="#dc2626" stroke-width="1"/><rect x="797.1" y="169.1" width="5.4" height="3.9" fill="#dc2626" opacity="0.82" rx="1"/>
<line x1="808.7" y1="148.6" x2="808.7" y2="176.7" stroke="#16a34a" stroke-width="1"/><rect x="806.0" y="157.1" width="5.4" height="15.7" fill="#16a34a" opacity="0.82" rx="1"/>
<line x1="817.6" y1="135.9" x2="817.6" y2="165.4" stroke="#16a34a" stroke-width="1"/><rect x="814.9" y="138.9" width="5.4" height="18.2" fill="#16a34a" opacity="0.82" rx="1"/>
<line x1="826.5" y1="129.8" x2="826.5" y2="169.4" stroke="#dc2626" stroke-width="1"/><rect x="823.8" y="138.7" width="5.4" height="29.9" fill="#dc2626" opacity="0.82" rx="1"/>
<line x1="835.4" y1="160.3" x2="835.4" y2="188.7" stroke="#16a34a" stroke-width="1"/><rect x="832.6" y="168.2" width="5.4" height="1.2" fill="#16a34a" opacity="0.82" rx="1"/>
<line x1="844.2" y1="161.0" x2="844.2" y2="181.7" stroke="#dc2626" stroke-width="1"/><rect x="841.5" y="167.8" width="5.4" height="2.6" fill="#dc2626" opacity="0.82" rx="1"/>
<line x1="853.1" y1="153.6" x2="853.1" y2="174.6" stroke="#16a34a" stroke-width="1"/><rect x="850.4" y="155.6" width="5.4" height="14.9" fill="#16a34a" opacity="0.82" rx="1"/>
<line x1="862.0" y1="150.4" x2="862.0" y2="157.4" stroke="#16a34a" stroke-width="1"/><rect x="859.3" y="153.0" width="5.4" height="2.2" fill="#16a34a" opacity="0.82" rx="1"/>
<line x1="72" y1="200.8" x2="862" y2="200.8" stroke="#16a34a" stroke-width="1.8" stroke-dasharray="6 4" /><rect x="874" y="180.8" width="166" height="23" rx="5" fill="#ffffff" stroke="#16a34a" opacity="0.97"/><text x="881" y="196.8" fill="#16a34a" font-size="15" font-weight="700">日内支撑 63.78</text>
<line x1="72" y1="73.3" x2="862" y2="73.3" stroke="#dc2626" stroke-width="1.8" stroke-dasharray="6 4" /><rect x="874" y="53.3" width="166" height="23" rx="5" fill="#ffffff" stroke="#dc2626" opacity="0.97"/><text x="881" y="69.3" fill="#dc2626" font-size="15" font-weight="700">日内压力 67.26</text>
<line x1="72" y1="153.0" x2="862" y2="153.0" stroke="#111827" stroke-width="1.8" stroke-dasharray="2 2" /><rect x="874" y="133.0" width="166" height="23" rx="5" fill="#ffffff" stroke="#111827" opacity="0.97"/><text x="881" y="149.0" fill="#111827" font-size="15" font-weight="700">现价 65.09</text>
<text x="72" y="396" fill="#16a34a" font-size="14" font-weight="700">日内做多计划</text><rect x="72" y="404" width="790" height="48" rx="6" fill="#f9fafb" stroke="#e5e7eb"/><line x1="94" y1="412" x2="840" y2="412" stroke="#16a34a" stroke-width="3"/><circle cx="132.0" cy="412" r="5" fill="#16a34a"/><text x="132.0" y="434" fill="#374151" font-size="12" text-anchor="middle">入场 止跌/突破回踩</text><circle cx="451.2" cy="412" r="5" fill="#16a34a"/><text x="451.2" y="434" fill="#374151" font-size="12" text-anchor="middle">止损 63.78</text><circle cx="712.0" cy="412" r="5" fill="#16a34a"/><text x="712.0" y="434" fill="#374151" font-size="12" text-anchor="middle">目标一 67.26</text><circle cx="814.0" cy="412" r="5" fill="#16a34a"/><text x="814.0" y="434" fill="#374151" font-size="12" text-anchor="middle">目标二 68.13</text>
<text x="72" y="482" fill="#dc2626" font-size="14" font-weight="700">日内做空计划</text><rect x="72" y="490" width="790" height="48" rx="6" fill="#f9fafb" stroke="#e5e7eb"/><line x1="94" y1="498" x2="840" y2="498" stroke="#dc2626" stroke-width="3"/><circle cx="132.0" cy="498" r="5" fill="#dc2626"/><text x="132.0" y="520" fill="#374151" font-size="12" text-anchor="middle">入场 反弹承压/破位回抽</text><circle cx="451.2" cy="498" r="5" fill="#dc2626"/><text x="451.2" y="520" fill="#374151" font-size="12" text-anchor="middle">止损 67.26</text><circle cx="712.0" cy="498" r="5" fill="#dc2626"/><text x="712.0" y="520" fill="#374151" font-size="12" text-anchor="middle">目标一 63.78</text><circle cx="814.0" cy="498" r="5" fill="#dc2626"/><text x="814.0" y="520" fill="#374151" font-size="12" text-anchor="middle">目标二 62.91</text>
</svg>