<svg xmlns="http://www.w3.org/2000/svg" width="1080" height="560" viewBox="0 0 1080 560">
<rect width="100%" height="100%" fill="#ffffff"/>
<text x="72" y="23" fill="#111827" font-size="21" font-weight="800">BTC 日线K线支撑压力图</text>
<text x="862" y="42" fill="#374151" font-size="15" text-anchor="end">最新价 58,706</text>
<line x1="72" y1="34" x2="72" y2="340" stroke="#d1d5db"/>
<line x1="72" y1="340" x2="862" y2="340" stroke="#d1d5db"/>
<line x1="72" y1="340.0" x2="862" y2="340.0" stroke="#f3f4f6"/>
<text x="8" y="345.0" fill="#4b5563" font-size="14">53,468</text>
<line x1="72" y1="263.5" x2="862" y2="263.5" stroke="#f3f4f6"/>
<text x="8" y="268.5" fill="#4b5563" font-size="14">61,352</text>
<line x1="72" y1="187.0" x2="862" y2="187.0" stroke="#f3f4f6"/>
<text x="8" y="192.0" fill="#4b5563" font-size="14">69,236</text>
<line x1="72" y1="110.5" x2="862" y2="110.5" stroke="#f3f4f6"/>
<text x="8" y="115.5" fill="#4b5563" font-size="14">77,120</text>
<line x1="72" y1="34.0" x2="862" y2="34.0" stroke="#f3f4f6"/>
<text x="8" y="39.0" fill="#4b5563" font-size="14">85,004</text>
<line x1="72.0" y1="205.3" x2="72.0" y2="216.1" stroke="#16a34a" stroke-width="1"/><rect x="69.3" y="209.4" width="5.4" height="1.2" fill="#16a34a" opacity="0.82" rx="1"/>
<line x1="80.9" y1="203.3" x2="80.9" y2="211.2" stroke="#16a34a" stroke-width="1"/><rect x="78.2" y="206.1" width="5.4" height="3.3" fill="#16a34a" opacity="0.82" rx="1"/>
<line x1="89.8" y1="188.2" x2="89.8" y2="212.8" stroke="#16a34a" stroke-width="1"/><rect x="87.0" y="189.3" width="5.4" height="16.8" fill="#16a34a" opacity="0.82" rx="1"/>
<line x1="98.6" y1="176.4" x2="98.6" y2="196.8" stroke="#dc2626" stroke-width="1"/><rect x="95.9" y="189.3" width="5.4" height="1.7" fill="#dc2626" opacity="0.82" rx="1"/>
<line x1="107.5" y1="153.0" x2="107.5" y2="201.8" stroke="#16a34a" stroke-width="1"/><rect x="104.8" y="161.2" width="5.4" height="29.8" fill="#16a34a" opacity="0.82" rx="1"/>
<line x1="116.4" y1="151.8" x2="116.4" y2="173.1" stroke="#dc2626" stroke-width="1"/><rect x="113.7" y="161.2" width="5.4" height="8.3" fill="#dc2626" opacity="0.82" rx="1"/>
<line x1="125.3" y1="149.2" x2="125.3" y2="175.4" stroke="#16a34a" stroke-width="1"/><rect x="122.5" y="162.6" width="5.4" height="6.9" fill="#16a34a" opacity="0.82" rx="1"/>
<line x1="134.1" y1="146.1" x2="134.1" y2="166.2" stroke="#16a34a" stroke-width="1"/><rect x="131.4" y="151.3" width="5.4" height="11.3" fill="#16a34a" opacity="0.82" rx="1"/>
<line x1="143.0" y1="143.0" x2="143.0" y2="155.8" stroke="#16a34a" stroke-width="1"/><rect x="140.3" y="150.3" width="5.4" height="1.2" fill="#16a34a" opacity="0.82" rx="1"/>
<line x1="151.9" y1="149.6" x2="151.9" y2="175.1" stroke="#dc2626" stroke-width="1"/><rect x="149.2" y="150.3" width="5.4" height="22.3" fill="#dc2626" opacity="0.82" rx="1"/>
<line x1="160.8" y1="132.3" x2="160.8" y2="174.6" stroke="#16a34a" stroke-width="1"/><rect x="158.0" y="137.0" width="5.4" height="35.6" fill="#16a34a" opacity="0.82" rx="1"/>
<line x1="169.6" y1="121.3" x2="169.6" y2="143.0" stroke="#dc2626" stroke-width="1"/><rect x="166.9" y="137.0" width="5.4" height="2.7" fill="#dc2626" opacity="0.82" rx="1"/>
<line x1="178.5" y1="126.9" x2="178.5" y2="146.1" stroke="#16a34a" stroke-width="1"/><rect x="175.8" y="133.2" width="5.4" height="6.5" fill="#16a34a" opacity="0.82" rx="1"/>
<line x1="187.4" y1="126.2" x2="187.4" y2="148.0" stroke="#16a34a" stroke-width="1"/><rect x="184.7" y="130.0" width="5.4" height="3.2" fill="#16a34a" opacity="0.82" rx="1"/>
<line x1="196.3" y1="99.0" x2="196.3" y2="136.1" stroke="#16a34a" stroke-width="1"/><rect x="193.5" y="111.4" width="5.4" height="18.7" fill="#16a34a" opacity="0.82" rx="1"/>
<line x1="205.1" y1="108.0" x2="205.1" y2="127.2" stroke="#dc2626" stroke-width="1"/><rect x="202.4" y="111.4" width="5.4" height="13.4" fill="#dc2626" opacity="0.82" rx="1"/>
<line x1="214.0" y1="119.4" x2="214.0" y2="143.7" stroke="#dc2626" stroke-width="1"/><rect x="211.3" y="124.7" width="5.4" height="18.4" fill="#dc2626" opacity="0.82" rx="1"/>
<line x1="222.9" y1="116.2" x2="222.9" y2="144.0" stroke="#16a34a" stroke-width="1"/><rect x="220.2" y="123.4" width="5.4" height="19.7" fill="#16a34a" opacity="0.82" rx="1"/>
<line x1="231.8" y1="111.7" x2="231.8" y2="133.2" stroke="#16a34a" stroke-width="1"/><rect x="229.1" y="118.6" width="5.4" height="4.8" fill="#16a34a" opacity="0.82" rx="1"/>
<line x1="240.7" y1="87.9" x2="240.7" y2="120.6" stroke="#16a34a" stroke-width="1"/><rect x="237.9" y="100.6" width="5.4" height="18.0" fill="#16a34a" opacity="0.82" rx="1"/>
<line x1="249.5" y1="95.7" x2="249.5" y2="116.5" stroke="#16a34a" stroke-width="1"/><rect x="246.8" y="99.9" width="5.4" height="1.2" fill="#16a34a" opacity="0.82" rx="1"/>
<line x1="258.4" y1="96.7" x2="258.4" y2="109.7" stroke="#dc2626" stroke-width="1"/><rect x="255.7" y="99.8" width="5.4" height="8.0" fill="#dc2626" opacity="0.82" rx="1"/>
<line x1="267.3" y1="103.4" x2="267.3" y2="110.7" stroke="#16a34a" stroke-width="1"/><rect x="264.6" y="106.0" width="5.4" height="1.8" fill="#16a34a" opacity="0.82" rx="1"/>
<line x1="276.2" y1="92.3" x2="276.2" y2="108.9" stroke="#16a34a" stroke-width="1"/><rect x="273.4" y="96.0" width="5.4" height="10.0" fill="#16a34a" opacity="0.82" rx="1"/>
<line x1="285.0" y1="87.8" x2="285.0" y2="117.5" stroke="#dc2626" stroke-width="1"/><rect x="282.3" y="96.0" width="5.4" height="12.5" fill="#dc2626" opacity="0.82" rx="1"/>
<line x1="293.9" y1="107.3" x2="293.9" y2="124.9" stroke="#dc2626" stroke-width="1"/><rect x="291.2" y="108.4" width="5.4" height="10.0" fill="#dc2626" opacity="0.82" rx="1"/>
<line x1="302.8" y1="103.2" x2="302.8" y2="132.3" stroke="#dc2626" stroke-width="1"/><rect x="300.1" y="118.5" width="5.4" height="5.3" fill="#dc2626" opacity="0.82" rx="1"/>
<line x1="311.7" y1="115.2" x2="311.7" y2="128.4" stroke="#16a34a" stroke-width="1"/><rect x="308.9" y="118.4" width="5.4" height="5.4" fill="#16a34a" opacity="0.82" rx="1"/>
<line x1="320.5" y1="93.4" x2="320.5" y2="118.8" stroke="#16a34a" stroke-width="1"/><rect x="317.8" y="100.1" width="5.4" height="18.3" fill="#16a34a" opacity="0.82" rx="1"/>
<line x1="329.4" y1="90.8" x2="329.4" y2="102.2" stroke="#16a34a" stroke-width="1"/><rect x="326.7" y="95.6" width="5.4" height="4.5" fill="#16a34a" opacity="0.82" rx="1"/>
<line x1="338.3" y1="88.1" x2="338.3" y2="101.7" stroke="#dc2626" stroke-width="1"/><rect x="335.6" y="95.6" width="5.4" height="1.2" fill="#dc2626" opacity="0.82" rx="1"/>
<line x1="347.2" y1="75.1" x2="347.2" y2="100.7" stroke="#16a34a" stroke-width="1"/><rect x="344.4" y="84.2" width="5.4" height="12.6" fill="#16a34a" opacity="0.82" rx="1"/>
<line x1="356.0" y1="65.6" x2="356.0" y2="84.9" stroke="#16a34a" stroke-width="1"/><rect x="353.3" y="74.2" width="5.4" height="10.1" fill="#16a34a" opacity="0.82" rx="1"/>
<line x1="364.9" y1="55.1" x2="364.9" y2="76.2" stroke="#16a34a" stroke-width="1"/><rect x="362.2" y="69.1" width="5.4" height="5.1" fill="#16a34a" opacity="0.82" rx="1"/>
<line x1="373.8" y1="66.2" x2="373.8" y2="87.8" stroke="#dc2626" stroke-width="1"/><rect x="371.1" y="69.1" width="5.4" height="13.8" fill="#dc2626" opacity="0.82" rx="1"/>
<line x1="382.7" y1="77.9" x2="382.7" y2="90.9" stroke="#16a34a" stroke-width="1"/><rect x="380.0" y="81.0" width="5.4" height="1.8" fill="#16a34a" opacity="0.82" rx="1"/>
<line x1="391.6" y1="72.4" x2="391.6" y2="81.8" stroke="#16a34a" stroke-width="1"/><rect x="388.8" y="76.4" width="5.4" height="4.6" fill="#16a34a" opacity="0.82" rx="1"/>
<line x1="400.4" y1="58.7" x2="400.4" y2="80.4" stroke="#16a34a" stroke-width="1"/><rect x="397.7" y="61.4" width="5.4" height="15.0" fill="#16a34a" opacity="0.82" rx="1"/>
<line x1="409.3" y1="59.7" x2="409.3" y2="78.7" stroke="#dc2626" stroke-width="1"/><rect x="406.6" y="61.4" width="5.4" height="4.6" fill="#dc2626" opacity="0.82" rx="1"/>
<line x1="418.2" y1="65.5" x2="418.2" y2="84.5" stroke="#dc2626" stroke-width="1"/><rect x="415.5" y="66.1" width="5.4" height="12.0" fill="#dc2626" opacity="0.82" rx="1"/>
<line x1="427.1" y1="70.2" x2="427.1" y2="95.0" stroke="#dc2626" stroke-width="1"/><rect x="424.3" y="78.1" width="5.4" height="11.4" fill="#dc2626" opacity="0.82" rx="1"/>
<line x1="435.9" y1="63.2" x2="435.9" y2="93.5" stroke="#16a34a" stroke-width="1"/><rect x="433.2" y="72.4" width="5.4" height="17.1" fill="#16a34a" opacity="0.82" rx="1"/>
<line x1="444.8" y1="66.8" x2="444.8" y2="96.0" stroke="#dc2626" stroke-width="1"/><rect x="442.1" y="72.4" width="5.4" height="19.2" fill="#dc2626" opacity="0.82" rx="1"/>
<line x1="453.7" y1="90.3" x2="453.7" y2="105.8" stroke="#dc2626" stroke-width="1"/><rect x="451.0" y="91.5" width="5.4" height="9.4" fill="#dc2626" opacity="0.82" rx="1"/>
<line x1="462.6" y1="96.5" x2="462.6" y2="114.9" stroke="#dc2626" stroke-width="1"/><rect x="459.8" y="100.9" width="5.4" height="6.5" fill="#dc2626" opacity="0.82" rx="1"/>
<line x1="471.4" y1="104.3" x2="471.4" y2="121.2" stroke="#dc2626" stroke-width="1"/><rect x="468.7" y="107.5" width="5.4" height="4.5" fill="#dc2626" opacity="0.82" rx="1"/>
<line x1="480.3" y1="107.9" x2="480.3" y2="120.3" stroke="#dc2626" stroke-width="1"/><rect x="477.6" y="112.0" width="5.4" height="1.6" fill="#dc2626" opacity="0.82" rx="1"/>
<line x1="489.2" y1="103.6" x2="489.2" y2="116.7" stroke="#16a34a" stroke-width="1"/><rect x="486.5" y="106.7" width="5.4" height="6.9" fill="#16a34a" opacity="0.82" rx="1"/>
<line x1="498.1" y1="100.2" x2="498.1" y2="114.6" stroke="#16a34a" stroke-width="1"/><rect x="495.3" y="106.0" width="5.4" height="1.2" fill="#16a34a" opacity="0.82" rx="1"/>
<line x1="506.9" y1="103.3" x2="506.9" y2="127.9" stroke="#dc2626" stroke-width="1"/><rect x="504.2" y="106.0" width="5.4" height="20.1" fill="#dc2626" opacity="0.82" rx="1"/>
<line x1="515.8" y1="107.5" x2="515.8" y2="138.8" stroke="#16a34a" stroke-width="1"/><rect x="513.1" y="114.4" width="5.4" height="11.7" fill="#16a34a" opacity="0.82" rx="1"/>
<line x1="524.7" y1="105.8" x2="524.7" y2="120.8" stroke="#16a34a" stroke-width="1"/><rect x="522.0" y="111.4" width="5.4" height="3.1" fill="#16a34a" opacity="0.82" rx="1"/>
<line x1="533.6" y1="103.0" x2="533.6" y2="112.9" stroke="#16a34a" stroke-width="1"/><rect x="530.9" y="108.9" width="5.4" height="2.4" fill="#16a34a" opacity="0.82" rx="1"/>
<line x1="542.4" y1="101.2" x2="542.4" y2="124.8" stroke="#dc2626" stroke-width="1"/><rect x="539.7" y="108.9" width="5.4" height="13.4" fill="#dc2626" opacity="0.82" rx="1"/>
<line x1="551.3" y1="119.9" x2="551.3" y2="138.7" stroke="#dc2626" stroke-width="1"/><rect x="548.6" y="122.3" width="5.4" height="14.4" fill="#dc2626" opacity="0.82" rx="1"/>
<line x1="560.2" y1="135.3" x2="560.2" y2="154.8" stroke="#dc2626" stroke-width="1"/><rect x="557.5" y="136.7" width="5.4" height="8.0" fill="#dc2626" opacity="0.82" rx="1"/>
<line x1="569.1" y1="137.9" x2="569.1" y2="155.9" stroke="#dc2626" stroke-width="1"/><rect x="566.4" y="144.7" width="5.4" height="1.6" fill="#dc2626" opacity="0.82" rx="1"/>
<line x1="578.0" y1="139.7" x2="578.0" y2="149.2" stroke="#16a34a" stroke-width="1"/><rect x="575.2" y="142.2" width="5.4" height="4.2" fill="#16a34a" opacity="0.82" rx="1"/>
<line x1="586.8" y1="138.3" x2="586.8" y2="147.2" stroke="#dc2626" stroke-width="1"/><rect x="584.1" y="142.2" width="5.4" height="2.0" fill="#dc2626" opacity="0.82" rx="1"/>
<line x1="595.7" y1="140.1" x2="595.7" y2="173.3" stroke="#dc2626" stroke-width="1"/><rect x="593.0" y="144.1" width="5.4" height="21.9" fill="#dc2626" opacity="0.82" rx="1"/>
<line x1="604.6" y1="166.0" x2="604.6" y2="216.9" stroke="#dc2626" stroke-width="1"/><rect x="601.9" y="166.1" width="5.4" height="45.2" fill="#dc2626" opacity="0.82" rx="1"/>
<line x1="613.5" y1="203.9" x2="613.5" y2="237.3" stroke="#dc2626" stroke-width="1"/><rect x="610.7" y="211.3" width="5.4" height="25.3" fill="#dc2626" opacity="0.82" rx="1"/>
<line x1="622.3" y1="230.6" x2="622.3" y2="263.6" stroke="#dc2626" stroke-width="1"/><rect x="619.6" y="236.7" width="5.4" height="2.6" fill="#dc2626" opacity="0.82" rx="1"/>
<line x1="631.2" y1="238.2" x2="631.2" y2="285.5" stroke="#dc2626" stroke-width="1"/><rect x="628.5" y="239.2" width="5.4" height="27.5" fill="#dc2626" opacity="0.82" rx="1"/>
<line x1="640.1" y1="262.1" x2="640.1" y2="281.9" stroke="#dc2626" stroke-width="1"/><rect x="637.4" y="266.7" width="5.4" height="1.7" fill="#dc2626" opacity="0.82" rx="1"/>
<line x1="649.0" y1="235.4" x2="649.0" y2="269.7" stroke="#16a34a" stroke-width="1"/><rect x="646.2" y="244.6" width="5.4" height="23.8" fill="#16a34a" opacity="0.82" rx="1"/>
<line x1="657.8" y1="236.1" x2="657.8" y2="253.6" stroke="#dc2626" stroke-width="1"/><rect x="655.1" y="244.6" width="5.4" height="2.3" fill="#dc2626" opacity="0.82" rx="1"/>
<line x1="666.7" y1="242.7" x2="666.7" y2="269.3" stroke="#dc2626" stroke-width="1"/><rect x="664.0" y="246.9" width="5.4" height="13.2" fill="#dc2626" opacity="0.82" rx="1"/>
<line x1="675.6" y1="249.1" x2="675.6" y2="269.9" stroke="#dc2626" stroke-width="1"/><rect x="672.9" y="260.2" width="5.4" height="2.0" fill="#dc2626" opacity="0.82" rx="1"/>
<line x1="684.5" y1="238.6" x2="684.5" y2="262.2" stroke="#16a34a" stroke-width="1"/><rect x="681.8" y="241.7" width="5.4" height="20.5" fill="#16a34a" opacity="0.82" rx="1"/>
<line x1="693.3" y1="234.3" x2="693.3" y2="249.4" stroke="#dc2626" stroke-width="1"/><rect x="690.6" y="241.7" width="5.4" height="1.2" fill="#dc2626" opacity="0.82" rx="1"/>
<line x1="702.2" y1="230.6" x2="702.2" y2="244.0" stroke="#16a34a" stroke-width="1"/><rect x="699.5" y="233.7" width="5.4" height="8.5" fill="#16a34a" opacity="0.82" rx="1"/>
<line x1="711.1" y1="220.6" x2="711.1" y2="241.2" stroke="#16a34a" stroke-width="1"/><rect x="708.4" y="221.3" width="5.4" height="12.5" fill="#16a34a" opacity="0.82" rx="1"/>
<line x1="720.0" y1="206.2" x2="720.0" y2="225.0" stroke="#16a34a" stroke-width="1"/><rect x="717.3" y="215.6" width="5.4" height="5.7" fill="#16a34a" opacity="0.82" rx="1"/>
<line x1="728.9" y1="209.1" x2="728.9" y2="224.9" stroke="#dc2626" stroke-width="1"/><rect x="726.1" y="215.6" width="5.4" height="6.2" fill="#dc2626" opacity="0.82" rx="1"/>
<line x1="737.7" y1="214.3" x2="737.7" y2="239.0" stroke="#dc2626" stroke-width="1"/><rect x="735.0" y="221.8" width="5.4" height="11.4" fill="#dc2626" opacity="0.82" rx="1"/>
<line x1="746.6" y1="230.2" x2="746.6" y2="255.0" stroke="#dc2626" stroke-width="1"/><rect x="743.9" y="233.2" width="5.4" height="15.0" fill="#dc2626" opacity="0.82" rx="1"/>
<line x1="755.5" y1="241.2" x2="755.5" y2="254.9" stroke="#16a34a" stroke-width="1"/><rect x="752.8" y="242.5" width="5.4" height="5.7" fill="#16a34a" opacity="0.82" rx="1"/>
<line x1="764.4" y1="234.2" x2="764.4" y2="246.2" stroke="#16a34a" stroke-width="1"/><rect x="761.6" y="235.2" width="5.4" height="7.4" fill="#16a34a" opacity="0.82" rx="1"/>
<line x1="773.2" y1="232.3" x2="773.2" y2="245.4" stroke="#dc2626" stroke-width="1"/><rect x="770.5" y="235.2" width="5.4" height="9.5" fill="#dc2626" opacity="0.82" rx="1"/>
<line x1="782.1" y1="222.3" x2="782.1" y2="244.7" stroke="#16a34a" stroke-width="1"/><rect x="779.4" y="237.9" width="5.4" height="6.8" fill="#16a34a" opacity="0.82" rx="1"/>
<line x1="791.0" y1="235.4" x2="791.0" y2="258.5" stroke="#dc2626" stroke-width="1"/><rect x="788.3" y="237.9" width="5.4" height="12.6" fill="#dc2626" opacity="0.82" rx="1"/>
<line x1="799.9" y1="245.5" x2="799.9" y2="285.7" stroke="#dc2626" stroke-width="1"/><rect x="797.1" y="250.4" width="5.4" height="16.0" fill="#dc2626" opacity="0.82" rx="1"/>
<line x1="808.7" y1="257.9" x2="808.7" y2="295.7" stroke="#dc2626" stroke-width="1"/><rect x="806.0" y="266.4" width="5.4" height="12.4" fill="#dc2626" opacity="0.82" rx="1"/>
<line x1="817.6" y1="269.5" x2="817.6" y2="293.2" stroke="#16a34a" stroke-width="1"/><rect x="814.9" y="275.9" width="5.4" height="2.9" fill="#16a34a" opacity="0.82" rx="1"/>
<line x1="826.5" y1="267.6" x2="826.5" y2="278.4" stroke="#dc2626" stroke-width="1"/><rect x="823.8" y="275.9" width="5.4" height="1.2" fill="#dc2626" opacity="0.82" rx="1"/>
<line x1="835.4" y1="271.3" x2="835.4" y2="287.4" stroke="#dc2626" stroke-width="1"/><rect x="832.6" y="276.6" width="5.4" height="4.4" fill="#dc2626" opacity="0.82" rx="1"/>
<line x1="844.2" y1="269.3" x2="844.2" y2="287.8" stroke="#16a34a" stroke-width="1"/><rect x="841.5" y="274.4" width="5.4" height="6.5" fill="#16a34a" opacity="0.82" rx="1"/>
<line x1="853.1" y1="274.2" x2="853.1" y2="294.5" stroke="#dc2626" stroke-width="1"/><rect x="850.4" y="274.4" width="5.4" height="15.7" fill="#dc2626" opacity="0.82" rx="1"/>
<line x1="862.0" y1="289.0" x2="862.0" y2="290.1" stroke="#16a34a" stroke-width="1"/><rect x="859.3" y="289.2" width="5.4" height="1.2" fill="#16a34a" opacity="0.82" rx="1"/>
<line x1="72" y1="318.9" x2="862" y2="318.9" stroke="#16a34a" stroke-width="1.8" stroke-dasharray="6 4" /><rect x="874" y="298.9" width="166" height="23" rx="5" fill="#ffffff" stroke="#16a34a" opacity="0.97"/><text x="881" y="314.9" fill="#16a34a" font-size="15" font-weight="700">支撑 55,643</text>
<line x1="72" y1="239.6" x2="862" y2="239.6" stroke="#dc2626" stroke-width="1.8" stroke-dasharray="6 4" /><rect x="874" y="219.6" width="166" height="23" rx="5" fill="#ffffff" stroke="#dc2626" opacity="0.97"/><text x="881" y="235.6" fill="#dc2626" font-size="15" font-weight="700">压力 63,813</text>
<line x1="72" y1="289.2" x2="862" y2="289.2" stroke="#111827" stroke-width="1.8" stroke-dasharray="2 2" /><rect x="874" y="269.2" width="166" height="23" rx="5" fill="#ffffff" stroke="#111827" opacity="0.97"/><text x="881" y="285.2" fill="#111827" font-size="15" font-weight="700">现价 58,706</text>
<text x="72" y="396" fill="#16a34a" font-size="14" font-weight="700">日线做多计划</text><rect x="72" y="404" width="790" height="48" rx="6" fill="#f9fafb" stroke="#e5e7eb"/><line x1="94" y1="412" x2="840" y2="412" stroke="#16a34a" stroke-width="3"/><circle cx="132.0" cy="412" r="5" fill="#16a34a"/><text x="132.0" y="434" fill="#374151" font-size="12" text-anchor="middle">入场 止跌/突破回踩</text><circle cx="451.2" cy="412" r="5" fill="#16a34a"/><text x="451.2" y="434" fill="#374151" font-size="12" text-anchor="middle">止损 55,643</text><circle cx="712.0" cy="412" r="5" fill="#16a34a"/><text x="712.0" y="434" fill="#374151" font-size="12" text-anchor="middle">目标一 63,813</text><circle cx="814.0" cy="412" r="5" fill="#16a34a"/><text x="814.0" y="434" fill="#374151" font-size="12" text-anchor="middle">目标二 66,877</text>
<text x="72" y="482" fill="#dc2626" font-size="14" font-weight="700">日线做空计划</text><rect x="72" y="490" width="790" height="48" rx="6" fill="#f9fafb" stroke="#e5e7eb"/><line x1="94" y1="498" x2="840" y2="498" stroke="#dc2626" stroke-width="3"/><circle cx="132.0" cy="498" r="5" fill="#dc2626"/><text x="132.0" y="520" fill="#374151" font-size="12" text-anchor="middle">入场 反弹承压/破位回抽</text><circle cx="451.2" cy="498" r="5" fill="#dc2626"/><text x="451.2" y="520" fill="#374151" font-size="12" text-anchor="middle">止损 63,813</text><circle cx="712.0" cy="498" r="5" fill="#dc2626"/><text x="712.0" y="520" fill="#374151" font-size="12" text-anchor="middle">目标一 55,643</text><circle cx="814.0" cy="498" r="5" fill="#dc2626"/><text x="814.0" y="520" fill="#374151" font-size="12" text-anchor="middle">目标二 53,600</text>
</svg>