<svg xmlns="http://www.w3.org/2000/svg" width="1080" height="560" viewBox="0 0 1080 560">
<rect width="100%" height="100%" fill="#ffffff"/>
<text x="72" y="23" fill="#111827" font-size="21" font-weight="800">BTC 小时线K线支撑压力图</text>
<text x="862" y="42" fill="#374151" font-size="15" text-anchor="end">最新价 58,720</text>
<line x1="72" y1="34" x2="72" y2="340" stroke="#d1d5db"/>
<line x1="72" y1="340" x2="862" y2="340" stroke="#d1d5db"/>
<line x1="72" y1="340.0" x2="862" y2="340.0" stroke="#f3f4f6"/>
<text x="8" y="345.0" fill="#4b5563" font-size="14">57,505</text>
<line x1="72" y1="263.5" x2="862" y2="263.5" stroke="#f3f4f6"/>
<text x="8" y="268.5" fill="#4b5563" font-size="14">58,423</text>
<line x1="72" y1="187.0" x2="862" y2="187.0" stroke="#f3f4f6"/>
<text x="8" y="192.0" fill="#4b5563" font-size="14">59,342</text>
<line x1="72" y1="110.5" x2="862" y2="110.5" stroke="#f3f4f6"/>
<text x="8" y="115.5" fill="#4b5563" font-size="14">60,260</text>
<line x1="72" y1="34.0" x2="862" y2="34.0" stroke="#f3f4f6"/>
<text x="8" y="39.0" fill="#4b5563" font-size="14">61,178</text>
<line x1="72.0" y1="74.0" x2="72.0" y2="92.2" stroke="#16a34a" stroke-width="1"/><rect x="69.3" y="83.1" width="5.4" height="2.9" fill="#16a34a" opacity="0.82" rx="1"/>
<line x1="80.9" y1="55.1" x2="80.9" y2="87.1" stroke="#16a34a" stroke-width="1"/><rect x="78.2" y="64.1" width="5.4" height="19.0" fill="#16a34a" opacity="0.82" rx="1"/>
<line x1="89.8" y1="61.3" x2="89.8" y2="78.1" stroke="#dc2626" stroke-width="1"/><rect x="87.0" y="64.1" width="5.4" height="2.7" fill="#dc2626" opacity="0.82" rx="1"/>
<line x1="98.6" y1="65.8" x2="98.6" y2="100.2" stroke="#dc2626" stroke-width="1"/><rect x="95.9" y="66.8" width="5.4" height="24.1" fill="#dc2626" opacity="0.82" rx="1"/>
<line x1="107.5" y1="86.5" x2="107.5" y2="97.1" stroke="#16a34a" stroke-width="1"/><rect x="104.8" y="87.3" width="5.4" height="3.5" fill="#16a34a" opacity="0.82" rx="1"/>
<line x1="116.4" y1="84.1" x2="116.4" y2="128.0" stroke="#dc2626" stroke-width="1"/><rect x="113.7" y="87.3" width="5.4" height="32.3" fill="#dc2626" opacity="0.82" rx="1"/>
<line x1="125.3" y1="108.5" x2="125.3" y2="120.3" stroke="#16a34a" stroke-width="1"/><rect x="122.5" y="109.4" width="5.4" height="10.2" fill="#16a34a" opacity="0.82" rx="1"/>
<line x1="134.1" y1="93.0" x2="134.1" y2="123.1" stroke="#dc2626" stroke-width="1"/><rect x="131.4" y="109.4" width="5.4" height="8.3" fill="#dc2626" opacity="0.82" rx="1"/>
<line x1="143.0" y1="113.0" x2="143.0" y2="147.2" stroke="#16a34a" stroke-width="1"/><rect x="140.3" y="115.1" width="5.4" height="2.6" fill="#16a34a" opacity="0.82" rx="1"/>
<line x1="151.9" y1="106.9" x2="151.9" y2="139.3" stroke="#dc2626" stroke-width="1"/><rect x="149.2" y="115.1" width="5.4" height="17.0" fill="#dc2626" opacity="0.82" rx="1"/>
<line x1="160.8" y1="118.1" x2="160.8" y2="133.5" stroke="#16a34a" stroke-width="1"/><rect x="158.0" y="121.7" width="5.4" height="10.4" fill="#16a34a" opacity="0.82" rx="1"/>
<line x1="169.6" y1="110.8" x2="169.6" y2="136.3" stroke="#16a34a" stroke-width="1"/><rect x="166.9" y="116.1" width="5.4" height="5.7" fill="#16a34a" opacity="0.82" rx="1"/>
<line x1="178.5" y1="106.0" x2="178.5" y2="130.7" stroke="#dc2626" stroke-width="1"/><rect x="175.8" y="116.1" width="5.4" height="6.0" fill="#dc2626" opacity="0.82" rx="1"/>
<line x1="187.4" y1="111.3" x2="187.4" y2="122.0" stroke="#16a34a" stroke-width="1"/><rect x="184.7" y="118.0" width="5.4" height="4.0" fill="#16a34a" opacity="0.82" rx="1"/>
<line x1="196.3" y1="115.0" x2="196.3" y2="127.1" stroke="#dc2626" stroke-width="1"/><rect x="193.5" y="118.0" width="5.4" height="5.1" fill="#dc2626" opacity="0.82" rx="1"/>
<line x1="205.1" y1="122.8" x2="205.1" y2="155.9" stroke="#dc2626" stroke-width="1"/><rect x="202.4" y="123.1" width="5.4" height="12.6" fill="#dc2626" opacity="0.82" rx="1"/>
<line x1="214.0" y1="130.5" x2="214.0" y2="151.1" stroke="#16a34a" stroke-width="1"/><rect x="211.3" y="134.6" width="5.4" height="1.2" fill="#16a34a" opacity="0.82" rx="1"/>
<line x1="222.9" y1="111.6" x2="222.9" y2="135.0" stroke="#16a34a" stroke-width="1"/><rect x="220.2" y="116.1" width="5.4" height="18.5" fill="#16a34a" opacity="0.82" rx="1"/>
<line x1="231.8" y1="86.9" x2="231.8" y2="123.0" stroke="#16a34a" stroke-width="1"/><rect x="229.1" y="103.8" width="5.4" height="12.3" fill="#16a34a" opacity="0.82" rx="1"/>
<line x1="240.7" y1="95.2" x2="240.7" y2="113.6" stroke="#dc2626" stroke-width="1"/><rect x="237.9" y="103.8" width="5.4" height="9.2" fill="#dc2626" opacity="0.82" rx="1"/>
<line x1="249.5" y1="109.5" x2="249.5" y2="129.1" stroke="#dc2626" stroke-width="1"/><rect x="246.8" y="113.0" width="5.4" height="7.6" fill="#dc2626" opacity="0.82" rx="1"/>
<line x1="258.4" y1="102.9" x2="258.4" y2="124.5" stroke="#16a34a" stroke-width="1"/><rect x="255.7" y="105.9" width="5.4" height="14.7" fill="#16a34a" opacity="0.82" rx="1"/>
<line x1="267.3" y1="95.8" x2="267.3" y2="118.7" stroke="#dc2626" stroke-width="1"/><rect x="264.6" y="105.9" width="5.4" height="3.7" fill="#dc2626" opacity="0.82" rx="1"/>
<line x1="276.2" y1="109.7" x2="276.2" y2="137.6" stroke="#dc2626" stroke-width="1"/><rect x="273.4" y="109.7" width="5.4" height="18.8" fill="#dc2626" opacity="0.82" rx="1"/>
<line x1="285.0" y1="113.1" x2="285.0" y2="133.6" stroke="#dc2626" stroke-width="1"/><rect x="282.3" y="128.4" width="5.4" height="4.1" fill="#dc2626" opacity="0.82" rx="1"/>
<line x1="293.9" y1="123.5" x2="293.9" y2="150.3" stroke="#dc2626" stroke-width="1"/><rect x="291.2" y="132.5" width="5.4" height="12.1" fill="#dc2626" opacity="0.82" rx="1"/>
<line x1="302.8" y1="139.2" x2="302.8" y2="169.6" stroke="#dc2626" stroke-width="1"/><rect x="300.1" y="144.6" width="5.4" height="16.2" fill="#dc2626" opacity="0.82" rx="1"/>
<line x1="311.7" y1="147.0" x2="311.7" y2="184.9" stroke="#dc2626" stroke-width="1"/><rect x="308.9" y="160.8" width="5.4" height="8.2" fill="#dc2626" opacity="0.82" rx="1"/>
<line x1="320.5" y1="158.9" x2="320.5" y2="176.6" stroke="#16a34a" stroke-width="1"/><rect x="317.8" y="167.1" width="5.4" height="1.9" fill="#16a34a" opacity="0.82" rx="1"/>
<line x1="329.4" y1="160.6" x2="329.4" y2="196.8" stroke="#dc2626" stroke-width="1"/><rect x="326.7" y="167.1" width="5.4" height="10.8" fill="#dc2626" opacity="0.82" rx="1"/>
<line x1="338.3" y1="153.2" x2="338.3" y2="178.5" stroke="#16a34a" stroke-width="1"/><rect x="335.6" y="162.6" width="5.4" height="15.2" fill="#16a34a" opacity="0.82" rx="1"/>
<line x1="347.2" y1="151.0" x2="347.2" y2="190.5" stroke="#dc2626" stroke-width="1"/><rect x="344.4" y="162.6" width="5.4" height="18.0" fill="#dc2626" opacity="0.82" rx="1"/>
<line x1="356.0" y1="141.9" x2="356.0" y2="224.8" stroke="#dc2626" stroke-width="1"/><rect x="353.3" y="180.6" width="5.4" height="31.5" fill="#dc2626" opacity="0.82" rx="1"/>
<line x1="364.9" y1="147.1" x2="364.9" y2="217.5" stroke="#16a34a" stroke-width="1"/><rect x="362.2" y="169.6" width="5.4" height="42.5" fill="#16a34a" opacity="0.82" rx="1"/>
<line x1="373.8" y1="159.0" x2="373.8" y2="217.3" stroke="#16a34a" stroke-width="1"/><rect x="371.1" y="162.4" width="5.4" height="7.3" fill="#16a34a" opacity="0.82" rx="1"/>
<line x1="382.7" y1="159.3" x2="382.7" y2="201.3" stroke="#dc2626" stroke-width="1"/><rect x="380.0" y="162.4" width="5.4" height="18.7" fill="#dc2626" opacity="0.82" rx="1"/>
<line x1="391.6" y1="149.8" x2="391.6" y2="228.0" stroke="#16a34a" stroke-width="1"/><rect x="388.8" y="154.5" width="5.4" height="26.6" fill="#16a34a" opacity="0.82" rx="1"/>
<line x1="400.4" y1="113.9" x2="400.4" y2="154.5" stroke="#16a34a" stroke-width="1"/><rect x="397.7" y="130.5" width="5.4" height="24.0" fill="#16a34a" opacity="0.82" rx="1"/>
<line x1="409.3" y1="129.5" x2="409.3" y2="155.7" stroke="#dc2626" stroke-width="1"/><rect x="406.6" y="130.5" width="5.4" height="17.8" fill="#dc2626" opacity="0.82" rx="1"/>
<line x1="418.2" y1="124.8" x2="418.2" y2="185.4" stroke="#16a34a" stroke-width="1"/><rect x="415.5" y="125.3" width="5.4" height="23.0" fill="#16a34a" opacity="0.82" rx="1"/>
<line x1="427.1" y1="105.1" x2="427.1" y2="130.3" stroke="#dc2626" stroke-width="1"/><rect x="424.3" y="125.3" width="5.4" height="2.6" fill="#dc2626" opacity="0.82" rx="1"/>
<line x1="435.9" y1="118.6" x2="435.9" y2="140.4" stroke="#dc2626" stroke-width="1"/><rect x="433.2" y="127.9" width="5.4" height="4.3" fill="#dc2626" opacity="0.82" rx="1"/>
<line x1="444.8" y1="126.3" x2="444.8" y2="156.1" stroke="#dc2626" stroke-width="1"/><rect x="442.1" y="132.2" width="5.4" height="16.0" fill="#dc2626" opacity="0.82" rx="1"/>
<line x1="453.7" y1="124.7" x2="453.7" y2="153.0" stroke="#16a34a" stroke-width="1"/><rect x="451.0" y="129.5" width="5.4" height="18.7" fill="#16a34a" opacity="0.82" rx="1"/>
<line x1="462.6" y1="108.2" x2="462.6" y2="129.5" stroke="#16a34a" stroke-width="1"/><rect x="459.8" y="126.9" width="5.4" height="2.6" fill="#16a34a" opacity="0.82" rx="1"/>
<line x1="471.4" y1="116.1" x2="471.4" y2="151.3" stroke="#dc2626" stroke-width="1"/><rect x="468.7" y="127.0" width="5.4" height="11.3" fill="#dc2626" opacity="0.82" rx="1"/>
<line x1="480.3" y1="69.0" x2="480.3" y2="169.4" stroke="#dc2626" stroke-width="1"/><rect x="477.6" y="138.2" width="5.4" height="1.2" fill="#dc2626" opacity="0.82" rx="1"/>
<line x1="489.2" y1="106.1" x2="489.2" y2="190.2" stroke="#dc2626" stroke-width="1"/><rect x="486.5" y="138.5" width="5.4" height="30.3" fill="#dc2626" opacity="0.82" rx="1"/>
<line x1="498.1" y1="158.0" x2="498.1" y2="216.5" stroke="#dc2626" stroke-width="1"/><rect x="495.3" y="168.9" width="5.4" height="9.6" fill="#dc2626" opacity="0.82" rx="1"/>
<line x1="506.9" y1="137.2" x2="506.9" y2="209.8" stroke="#16a34a" stroke-width="1"/><rect x="504.2" y="148.8" width="5.4" height="29.7" fill="#16a34a" opacity="0.82" rx="1"/>
<line x1="515.8" y1="132.2" x2="515.8" y2="168.6" stroke="#16a34a" stroke-width="1"/><rect x="513.1" y="142.9" width="5.4" height="5.9" fill="#16a34a" opacity="0.82" rx="1"/>
<line x1="524.7" y1="76.6" x2="524.7" y2="142.9" stroke="#16a34a" stroke-width="1"/><rect x="522.0" y="99.2" width="5.4" height="43.8" fill="#16a34a" opacity="0.82" rx="1"/>
<line x1="533.6" y1="90.5" x2="533.6" y2="119.6" stroke="#dc2626" stroke-width="1"/><rect x="530.9" y="99.2" width="5.4" height="10.0" fill="#dc2626" opacity="0.82" rx="1"/>
<line x1="542.4" y1="87.2" x2="542.4" y2="121.5" stroke="#16a34a" stroke-width="1"/><rect x="539.7" y="98.0" width="5.4" height="11.2" fill="#16a34a" opacity="0.82" rx="1"/>
<line x1="551.3" y1="87.6" x2="551.3" y2="110.1" stroke="#dc2626" stroke-width="1"/><rect x="548.6" y="98.0" width="5.4" height="11.5" fill="#dc2626" opacity="0.82" rx="1"/>
<line x1="560.2" y1="85.0" x2="560.2" y2="112.8" stroke="#16a34a" stroke-width="1"/><rect x="557.5" y="94.2" width="5.4" height="15.3" fill="#16a34a" opacity="0.82" rx="1"/>
<line x1="569.1" y1="91.1" x2="569.1" y2="106.0" stroke="#dc2626" stroke-width="1"/><rect x="566.4" y="94.2" width="5.4" height="10.7" fill="#dc2626" opacity="0.82" rx="1"/>
<line x1="578.0" y1="102.7" x2="578.0" y2="121.0" stroke="#dc2626" stroke-width="1"/><rect x="575.2" y="105.0" width="5.4" height="8.5" fill="#dc2626" opacity="0.82" rx="1"/>
<line x1="586.8" y1="111.3" x2="586.8" y2="159.9" stroke="#dc2626" stroke-width="1"/><rect x="584.1" y="113.4" width="5.4" height="34.9" fill="#dc2626" opacity="0.82" rx="1"/>
<line x1="595.7" y1="130.1" x2="595.7" y2="153.8" stroke="#16a34a" stroke-width="1"/><rect x="593.0" y="138.8" width="5.4" height="9.5" fill="#16a34a" opacity="0.82" rx="1"/>
<line x1="604.6" y1="130.4" x2="604.6" y2="155.5" stroke="#16a34a" stroke-width="1"/><rect x="601.9" y="138.8" width="5.4" height="1.2" fill="#16a34a" opacity="0.82" rx="1"/>
<line x1="613.5" y1="131.5" x2="613.5" y2="168.0" stroke="#dc2626" stroke-width="1"/><rect x="610.7" y="138.8" width="5.4" height="27.0" fill="#dc2626" opacity="0.82" rx="1"/>
<line x1="622.3" y1="159.5" x2="622.3" y2="182.1" stroke="#dc2626" stroke-width="1"/><rect x="619.6" y="165.8" width="5.4" height="11.5" fill="#dc2626" opacity="0.82" rx="1"/>
<line x1="631.2" y1="162.7" x2="631.2" y2="188.0" stroke="#16a34a" stroke-width="1"/><rect x="628.5" y="163.2" width="5.4" height="14.1" fill="#16a34a" opacity="0.82" rx="1"/>
<line x1="640.1" y1="157.2" x2="640.1" y2="174.8" stroke="#dc2626" stroke-width="1"/><rect x="637.4" y="163.2" width="5.4" height="4.7" fill="#dc2626" opacity="0.82" rx="1"/>
<line x1="649.0" y1="164.5" x2="649.0" y2="180.2" stroke="#dc2626" stroke-width="1"/><rect x="646.2" y="167.8" width="5.4" height="6.2" fill="#dc2626" opacity="0.82" rx="1"/>
<line x1="657.8" y1="171.1" x2="657.8" y2="202.2" stroke="#dc2626" stroke-width="1"/><rect x="655.1" y="174.0" width="5.4" height="17.7" fill="#dc2626" opacity="0.82" rx="1"/>
<line x1="666.7" y1="182.4" x2="666.7" y2="196.7" stroke="#16a34a" stroke-width="1"/><rect x="664.0" y="186.4" width="5.4" height="5.2" fill="#16a34a" opacity="0.82" rx="1"/>
<line x1="675.6" y1="181.9" x2="675.6" y2="193.4" stroke="#dc2626" stroke-width="1"/><rect x="672.9" y="186.4" width="5.4" height="3.8" fill="#dc2626" opacity="0.82" rx="1"/>
<line x1="684.5" y1="182.2" x2="684.5" y2="207.1" stroke="#dc2626" stroke-width="1"/><rect x="681.8" y="190.2" width="5.4" height="11.8" fill="#dc2626" opacity="0.82" rx="1"/>
<line x1="693.3" y1="201.9" x2="693.3" y2="269.5" stroke="#dc2626" stroke-width="1"/><rect x="690.6" y="202.0" width="5.4" height="65.6" fill="#dc2626" opacity="0.82" rx="1"/>
<line x1="702.2" y1="232.8" x2="702.2" y2="282.1" stroke="#16a34a" stroke-width="1"/><rect x="699.5" y="239.5" width="5.4" height="28.1" fill="#16a34a" opacity="0.82" rx="1"/>
<line x1="711.1" y1="193.4" x2="711.1" y2="265.4" stroke="#dc2626" stroke-width="1"/><rect x="708.4" y="239.5" width="5.4" height="21.1" fill="#dc2626" opacity="0.82" rx="1"/>
<line x1="720.0" y1="233.3" x2="720.0" y2="285.5" stroke="#dc2626" stroke-width="1"/><rect x="717.3" y="260.6" width="5.4" height="8.5" fill="#dc2626" opacity="0.82" rx="1"/>
<line x1="728.9" y1="247.3" x2="728.9" y2="280.2" stroke="#16a34a" stroke-width="1"/><rect x="726.1" y="258.8" width="5.4" height="10.3" fill="#16a34a" opacity="0.82" rx="1"/>
<line x1="737.7" y1="248.4" x2="737.7" y2="274.6" stroke="#dc2626" stroke-width="1"/><rect x="735.0" y="258.9" width="5.4" height="6.9" fill="#dc2626" opacity="0.82" rx="1"/>
<line x1="746.6" y1="242.5" x2="746.6" y2="271.0" stroke="#16a34a" stroke-width="1"/><rect x="743.9" y="243.8" width="5.4" height="21.9" fill="#16a34a" opacity="0.82" rx="1"/>
<line x1="755.5" y1="230.5" x2="755.5" y2="252.1" stroke="#16a34a" stroke-width="1"/><rect x="752.8" y="232.6" width="5.4" height="11.2" fill="#16a34a" opacity="0.82" rx="1"/>
<line x1="764.4" y1="228.0" x2="764.4" y2="247.0" stroke="#dc2626" stroke-width="1"/><rect x="761.6" y="232.6" width="5.4" height="7.2" fill="#dc2626" opacity="0.82" rx="1"/>
<line x1="773.2" y1="236.8" x2="773.2" y2="259.4" stroke="#dc2626" stroke-width="1"/><rect x="770.5" y="239.8" width="5.4" height="8.0" fill="#dc2626" opacity="0.82" rx="1"/>
<line x1="782.1" y1="233.8" x2="782.1" y2="259.0" stroke="#dc2626" stroke-width="1"/><rect x="779.4" y="247.8" width="5.4" height="3.0" fill="#dc2626" opacity="0.82" rx="1"/>
<line x1="791.0" y1="245.7" x2="791.0" y2="255.6" stroke="#16a34a" stroke-width="1"/><rect x="788.3" y="248.3" width="5.4" height="2.5" fill="#16a34a" opacity="0.82" rx="1"/>
<line x1="799.9" y1="238.8" x2="799.9" y2="276.3" stroke="#dc2626" stroke-width="1"/><rect x="797.1" y="248.3" width="5.4" height="4.7" fill="#dc2626" opacity="0.82" rx="1"/>
<line x1="808.7" y1="216.2" x2="808.7" y2="318.9" stroke="#16a34a" stroke-width="1"/><rect x="806.0" y="237.0" width="5.4" height="16.1" fill="#16a34a" opacity="0.82" rx="1"/>
<line x1="817.6" y1="202.8" x2="817.6" y2="246.1" stroke="#16a34a" stroke-width="1"/><rect x="814.9" y="210.2" width="5.4" height="26.8" fill="#16a34a" opacity="0.82" rx="1"/>
<line x1="826.5" y1="190.6" x2="826.5" y2="230.1" stroke="#16a34a" stroke-width="1"/><rect x="823.8" y="201.3" width="5.4" height="8.9" fill="#16a34a" opacity="0.82" rx="1"/>
<line x1="835.4" y1="178.4" x2="835.4" y2="212.9" stroke="#16a34a" stroke-width="1"/><rect x="832.6" y="189.5" width="5.4" height="11.8" fill="#16a34a" opacity="0.82" rx="1"/>
<line x1="844.2" y1="186.3" x2="844.2" y2="208.4" stroke="#dc2626" stroke-width="1"/><rect x="841.5" y="189.5" width="5.4" height="15.7" fill="#dc2626" opacity="0.82" rx="1"/>
<line x1="853.1" y1="204.6" x2="853.1" y2="257.1" stroke="#dc2626" stroke-width="1"/><rect x="850.4" y="205.3" width="5.4" height="33.0" fill="#dc2626" opacity="0.82" rx="1"/>
<line x1="862.0" y1="235.0" x2="862.0" y2="242.7" stroke="#dc2626" stroke-width="1"/><rect x="859.3" y="238.2" width="5.4" height="1.2" fill="#dc2626" opacity="0.82" rx="1"/>
<line x1="72" y1="288.8" x2="862" y2="288.8" stroke="#16a34a" stroke-width="1.8" stroke-dasharray="6 4" /><rect x="874" y="268.8" width="166" height="23" rx="5" fill="#ffffff" stroke="#16a34a" opacity="0.97"/><text x="881" y="284.8" fill="#16a34a" font-size="15" font-weight="700">日内支撑 58,120</text>
<line x1="72" y1="155.5" x2="862" y2="155.5" stroke="#dc2626" stroke-width="1.8" stroke-dasharray="6 4" /><rect x="874" y="135.5" width="166" height="23" rx="5" fill="#ffffff" stroke="#dc2626" opacity="0.97"/><text x="881" y="151.5" fill="#dc2626" font-size="15" font-weight="700">日内压力 59,720</text>
<line x1="72" y1="238.8" x2="862" y2="238.8" stroke="#111827" stroke-width="1.8" stroke-dasharray="2 2" /><rect x="874" y="218.8" width="166" height="23" rx="5" fill="#ffffff" stroke="#111827" opacity="0.97"/><text x="881" y="234.8" fill="#111827" font-size="15" font-weight="700">现价 58,720</text>
<text x="72" y="396" fill="#16a34a" font-size="14" font-weight="700">日内做多计划</text><rect x="72" y="404" width="790" height="48" rx="6" fill="#f9fafb" stroke="#e5e7eb"/><line x1="94" y1="412" x2="840" y2="412" stroke="#16a34a" stroke-width="3"/><circle cx="132.0" cy="412" r="5" fill="#16a34a"/><text x="132.0" y="434" fill="#374151" font-size="12" text-anchor="middle">入场 止跌/突破回踩</text><circle cx="451.2" cy="412" r="5" fill="#16a34a"/><text x="451.2" y="434" fill="#374151" font-size="12" text-anchor="middle">止损 58,120</text><circle cx="712.0" cy="412" r="5" fill="#16a34a"/><text x="712.0" y="434" fill="#374151" font-size="12" text-anchor="middle">目标一 59,720</text><circle cx="814.0" cy="412" r="5" fill="#16a34a"/><text x="814.0" y="434" fill="#374151" font-size="12" text-anchor="middle">目标二 60,120</text>
<text x="72" y="482" fill="#dc2626" font-size="14" font-weight="700">日内做空计划</text><rect x="72" y="490" width="790" height="48" rx="6" fill="#f9fafb" stroke="#e5e7eb"/><line x1="94" y1="498" x2="840" y2="498" stroke="#dc2626" stroke-width="3"/><circle cx="132.0" cy="498" r="5" fill="#dc2626"/><text x="132.0" y="520" fill="#374151" font-size="12" text-anchor="middle">入场 反弹承压/破位回抽</text><circle cx="451.2" cy="498" r="5" fill="#dc2626"/><text x="451.2" y="520" fill="#374151" font-size="12" text-anchor="middle">止损 59,720</text><circle cx="712.0" cy="498" r="5" fill="#dc2626"/><text x="712.0" y="520" fill="#374151" font-size="12" text-anchor="middle">目标一 58,120</text><circle cx="814.0" cy="498" r="5" fill="#dc2626"/><text x="814.0" y="520" fill="#374151" font-size="12" text-anchor="middle">目标二 57,720</text>
</svg>