<svg xmlns="http://www.w3.org/2000/svg" width="1080" height="560" viewBox="0 0 1080 560">
<rect width="100%" height="100%" fill="#ffffff"/>
<text x="72" y="23" fill="#111827" font-size="21" font-weight="800">BTC 日线K线支撑压力图</text>
<text x="862" y="42" fill="#374151" font-size="15" text-anchor="end">最新价 58,720</text>
<line x1="72" y1="34" x2="72" y2="340" stroke="#d1d5db"/>
<line x1="72" y1="340" x2="862" y2="340" stroke="#d1d5db"/>
<line x1="72" y1="340.0" x2="862" y2="340.0" stroke="#f3f4f6"/>
<text x="8" y="345.0" fill="#4b5563" font-size="14">53,300</text>
<line x1="72" y1="263.5" x2="862" y2="263.5" stroke="#f3f4f6"/>
<text x="8" y="268.5" fill="#4b5563" font-size="14">61,229</text>
<line x1="72" y1="187.0" x2="862" y2="187.0" stroke="#f3f4f6"/>
<text x="8" y="192.0" fill="#4b5563" font-size="14">69,158</text>
<line x1="72" y1="110.5" x2="862" y2="110.5" stroke="#f3f4f6"/>
<text x="8" y="115.5" fill="#4b5563" font-size="14">77,087</text>
<line x1="72" y1="34.0" x2="862" y2="34.0" stroke="#f3f4f6"/>
<text x="8" y="39.0" fill="#4b5563" font-size="14">85,016</text>
<line x1="72.0" y1="204.4" x2="72.0" y2="215.2" stroke="#16a34a" stroke-width="1"/><rect x="69.3" y="208.5" width="5.4" height="1.2" fill="#16a34a" opacity="0.82" rx="1"/>
<line x1="80.9" y1="202.5" x2="80.9" y2="210.3" stroke="#16a34a" stroke-width="1"/><rect x="78.2" y="205.2" width="5.4" height="3.3" fill="#16a34a" opacity="0.82" rx="1"/>
<line x1="89.8" y1="187.5" x2="89.8" y2="211.9" stroke="#16a34a" stroke-width="1"/><rect x="87.0" y="188.5" width="5.4" height="16.7" fill="#16a34a" opacity="0.82" rx="1"/>
<line x1="98.6" y1="175.7" x2="98.6" y2="196.0" stroke="#dc2626" stroke-width="1"/><rect x="95.9" y="188.5" width="5.4" height="1.7" fill="#dc2626" opacity="0.82" rx="1"/>
<line x1="107.5" y1="152.4" x2="107.5" y2="201.0" stroke="#16a34a" stroke-width="1"/><rect x="104.8" y="160.6" width="5.4" height="29.6" fill="#16a34a" opacity="0.82" rx="1"/>
<line x1="116.4" y1="151.3" x2="116.4" y2="172.4" stroke="#dc2626" stroke-width="1"/><rect x="113.7" y="160.6" width="5.4" height="8.2" fill="#dc2626" opacity="0.82" rx="1"/>
<line x1="125.3" y1="148.7" x2="125.3" y2="174.7" stroke="#16a34a" stroke-width="1"/><rect x="122.5" y="162.0" width="5.4" height="6.9" fill="#16a34a" opacity="0.82" rx="1"/>
<line x1="134.1" y1="145.6" x2="134.1" y2="165.5" stroke="#16a34a" stroke-width="1"/><rect x="131.4" y="150.7" width="5.4" height="11.3" fill="#16a34a" opacity="0.82" rx="1"/>
<line x1="143.0" y1="142.5" x2="143.0" y2="155.2" stroke="#16a34a" stroke-width="1"/><rect x="140.3" y="149.8" width="5.4" height="1.2" fill="#16a34a" opacity="0.82" rx="1"/>
<line x1="151.9" y1="149.0" x2="151.9" y2="174.5" stroke="#dc2626" stroke-width="1"/><rect x="149.2" y="149.8" width="5.4" height="22.2" fill="#dc2626" opacity="0.82" rx="1"/>
<line x1="160.8" y1="131.9" x2="160.8" y2="173.9" stroke="#16a34a" stroke-width="1"/><rect x="158.0" y="136.6" width="5.4" height="35.4" fill="#16a34a" opacity="0.82" rx="1"/>
<line x1="169.6" y1="120.9" x2="169.6" y2="142.5" stroke="#dc2626" stroke-width="1"/><rect x="166.9" y="136.6" width="5.4" height="2.7" fill="#dc2626" opacity="0.82" rx="1"/>
<line x1="178.5" y1="126.5" x2="178.5" y2="145.6" stroke="#16a34a" stroke-width="1"/><rect x="175.8" y="132.8" width="5.4" height="6.5" fill="#16a34a" opacity="0.82" rx="1"/>
<line x1="187.4" y1="125.8" x2="187.4" y2="147.5" stroke="#16a34a" stroke-width="1"/><rect x="184.7" y="129.6" width="5.4" height="3.2" fill="#16a34a" opacity="0.82" rx="1"/>
<line x1="196.3" y1="98.8" x2="196.3" y2="135.7" stroke="#16a34a" stroke-width="1"/><rect x="193.5" y="111.0" width="5.4" height="18.6" fill="#16a34a" opacity="0.82" rx="1"/>
<line x1="205.1" y1="107.7" x2="205.1" y2="126.8" stroke="#dc2626" stroke-width="1"/><rect x="202.4" y="111.0" width="5.4" height="13.3" fill="#dc2626" opacity="0.82" rx="1"/>
<line x1="214.0" y1="119.1" x2="214.0" y2="143.2" stroke="#dc2626" stroke-width="1"/><rect x="211.3" y="124.3" width="5.4" height="18.3" fill="#dc2626" opacity="0.82" rx="1"/>
<line x1="222.9" y1="115.9" x2="222.9" y2="143.5" stroke="#16a34a" stroke-width="1"/><rect x="220.2" y="123.0" width="5.4" height="19.6" fill="#16a34a" opacity="0.82" rx="1"/>
<line x1="231.8" y1="111.4" x2="231.8" y2="132.8" stroke="#16a34a" stroke-width="1"/><rect x="229.1" y="118.2" width="5.4" height="4.8" fill="#16a34a" opacity="0.82" rx="1"/>
<line x1="240.7" y1="87.8" x2="240.7" y2="120.2" stroke="#16a34a" stroke-width="1"/><rect x="237.9" y="100.3" width="5.4" height="17.9" fill="#16a34a" opacity="0.82" rx="1"/>
<line x1="249.5" y1="95.4" x2="249.5" y2="116.1" stroke="#16a34a" stroke-width="1"/><rect x="246.8" y="99.6" width="5.4" height="1.2" fill="#16a34a" opacity="0.82" rx="1"/>
<line x1="258.4" y1="96.4" x2="258.4" y2="109.3" stroke="#dc2626" stroke-width="1"/><rect x="255.7" y="99.6" width="5.4" height="7.9" fill="#dc2626" opacity="0.82" rx="1"/>
<line x1="267.3" y1="103.2" x2="267.3" y2="110.4" stroke="#16a34a" stroke-width="1"/><rect x="264.6" y="105.7" width="5.4" height="1.8" fill="#16a34a" opacity="0.82" rx="1"/>
<line x1="276.2" y1="92.1" x2="276.2" y2="108.6" stroke="#16a34a" stroke-width="1"/><rect x="273.4" y="95.8" width="5.4" height="9.9" fill="#16a34a" opacity="0.82" rx="1"/>
<line x1="285.0" y1="87.7" x2="285.0" y2="117.1" stroke="#dc2626" stroke-width="1"/><rect x="282.3" y="95.8" width="5.4" height="12.4" fill="#dc2626" opacity="0.82" rx="1"/>
<line x1="293.9" y1="107.0" x2="293.9" y2="124.5" stroke="#dc2626" stroke-width="1"/><rect x="291.2" y="108.1" width="5.4" height="10.0" fill="#dc2626" opacity="0.82" rx="1"/>
<line x1="302.8" y1="102.9" x2="302.8" y2="131.9" stroke="#dc2626" stroke-width="1"/><rect x="300.1" y="118.1" width="5.4" height="5.3" fill="#dc2626" opacity="0.82" rx="1"/>
<line x1="311.7" y1="114.9" x2="311.7" y2="128.0" stroke="#16a34a" stroke-width="1"/><rect x="308.9" y="118.0" width="5.4" height="5.4" fill="#16a34a" opacity="0.82" rx="1"/>
<line x1="320.5" y1="93.2" x2="320.5" y2="118.4" stroke="#16a34a" stroke-width="1"/><rect x="317.8" y="99.8" width="5.4" height="18.2" fill="#16a34a" opacity="0.82" rx="1"/>
<line x1="329.4" y1="90.6" x2="329.4" y2="101.9" stroke="#16a34a" stroke-width="1"/><rect x="326.7" y="95.4" width="5.4" height="4.4" fill="#16a34a" opacity="0.82" rx="1"/>
<line x1="338.3" y1="87.9" x2="338.3" y2="101.4" stroke="#dc2626" stroke-width="1"/><rect x="335.6" y="95.4" width="5.4" height="1.2" fill="#dc2626" opacity="0.82" rx="1"/>
<line x1="347.2" y1="74.9" x2="347.2" y2="100.5" stroke="#16a34a" stroke-width="1"/><rect x="344.4" y="84.1" width="5.4" height="12.5" fill="#16a34a" opacity="0.82" rx="1"/>
<line x1="356.0" y1="65.6" x2="356.0" y2="84.7" stroke="#16a34a" stroke-width="1"/><rect x="353.3" y="74.1" width="5.4" height="10.0" fill="#16a34a" opacity="0.82" rx="1"/>
<line x1="364.9" y1="55.1" x2="364.9" y2="76.1" stroke="#16a34a" stroke-width="1"/><rect x="362.2" y="69.0" width="5.4" height="5.1" fill="#16a34a" opacity="0.82" rx="1"/>
<line x1="373.8" y1="66.2" x2="373.8" y2="87.6" stroke="#dc2626" stroke-width="1"/><rect x="371.1" y="69.0" width="5.4" height="13.7" fill="#dc2626" opacity="0.82" rx="1"/>
<line x1="382.7" y1="77.8" x2="382.7" y2="90.7" stroke="#16a34a" stroke-width="1"/><rect x="380.0" y="80.9" width="5.4" height="1.8" fill="#16a34a" opacity="0.82" rx="1"/>
<line x1="391.6" y1="72.3" x2="391.6" y2="81.6" stroke="#16a34a" stroke-width="1"/><rect x="388.8" y="76.3" width="5.4" height="4.6" fill="#16a34a" opacity="0.82" rx="1"/>
<line x1="400.4" y1="58.7" x2="400.4" y2="80.2" stroke="#16a34a" stroke-width="1"/><rect x="397.7" y="61.4" width="5.4" height="14.9" fill="#16a34a" opacity="0.82" rx="1"/>
<line x1="409.3" y1="59.7" x2="409.3" y2="78.6" stroke="#dc2626" stroke-width="1"/><rect x="406.6" y="61.4" width="5.4" height="4.6" fill="#dc2626" opacity="0.82" rx="1"/>
<line x1="418.2" y1="65.4" x2="418.2" y2="84.3" stroke="#dc2626" stroke-width="1"/><rect x="415.5" y="66.0" width="5.4" height="11.9" fill="#dc2626" opacity="0.82" rx="1"/>
<line x1="427.1" y1="70.1" x2="427.1" y2="94.8" stroke="#dc2626" stroke-width="1"/><rect x="424.3" y="77.9" width="5.4" height="11.3" fill="#dc2626" opacity="0.82" rx="1"/>
<line x1="435.9" y1="63.1" x2="435.9" y2="93.3" stroke="#16a34a" stroke-width="1"/><rect x="433.2" y="72.3" width="5.4" height="17.0" fill="#16a34a" opacity="0.82" rx="1"/>
<line x1="444.8" y1="66.7" x2="444.8" y2="95.8" stroke="#dc2626" stroke-width="1"/><rect x="442.1" y="72.3" width="5.4" height="19.1" fill="#dc2626" opacity="0.82" rx="1"/>
<line x1="453.7" y1="90.1" x2="453.7" y2="105.5" stroke="#dc2626" stroke-width="1"/><rect x="451.0" y="91.3" width="5.4" height="9.4" fill="#dc2626" opacity="0.82" rx="1"/>
<line x1="462.6" y1="96.2" x2="462.6" y2="114.6" stroke="#dc2626" stroke-width="1"/><rect x="459.8" y="100.7" width="5.4" height="6.5" fill="#dc2626" opacity="0.82" rx="1"/>
<line x1="471.4" y1="104.0" x2="471.4" y2="120.9" stroke="#dc2626" stroke-width="1"/><rect x="468.7" y="107.2" width="5.4" height="4.5" fill="#dc2626" opacity="0.82" rx="1"/>
<line x1="480.3" y1="107.6" x2="480.3" y2="120.0" stroke="#dc2626" stroke-width="1"/><rect x="477.6" y="111.7" width="5.4" height="1.6" fill="#dc2626" opacity="0.82" rx="1"/>
<line x1="489.2" y1="103.4" x2="489.2" y2="116.3" stroke="#16a34a" stroke-width="1"/><rect x="486.5" y="106.4" width="5.4" height="6.9" fill="#16a34a" opacity="0.82" rx="1"/>
<line x1="498.1" y1="100.0" x2="498.1" y2="114.3" stroke="#16a34a" stroke-width="1"/><rect x="495.3" y="105.7" width="5.4" height="1.2" fill="#16a34a" opacity="0.82" rx="1"/>
<line x1="506.9" y1="103.0" x2="506.9" y2="127.5" stroke="#dc2626" stroke-width="1"/><rect x="504.2" y="105.7" width="5.4" height="20.0" fill="#dc2626" opacity="0.82" rx="1"/>
<line x1="515.8" y1="107.2" x2="515.8" y2="138.3" stroke="#16a34a" stroke-width="1"/><rect x="513.1" y="114.1" width="5.4" height="11.6" fill="#16a34a" opacity="0.82" rx="1"/>
<line x1="524.7" y1="105.6" x2="524.7" y2="120.4" stroke="#16a34a" stroke-width="1"/><rect x="522.0" y="111.0" width="5.4" height="3.0" fill="#16a34a" opacity="0.82" rx="1"/>
<line x1="533.6" y1="102.8" x2="533.6" y2="112.6" stroke="#16a34a" stroke-width="1"/><rect x="530.9" y="108.6" width="5.4" height="2.4" fill="#16a34a" opacity="0.82" rx="1"/>
<line x1="542.4" y1="100.9" x2="542.4" y2="124.5" stroke="#dc2626" stroke-width="1"/><rect x="539.7" y="108.6" width="5.4" height="13.3" fill="#dc2626" opacity="0.82" rx="1"/>
<line x1="551.3" y1="119.5" x2="551.3" y2="138.3" stroke="#dc2626" stroke-width="1"/><rect x="548.6" y="121.9" width="5.4" height="14.4" fill="#dc2626" opacity="0.82" rx="1"/>
<line x1="560.2" y1="134.8" x2="560.2" y2="154.2" stroke="#dc2626" stroke-width="1"/><rect x="557.5" y="136.3" width="5.4" height="8.0" fill="#dc2626" opacity="0.82" rx="1"/>
<line x1="569.1" y1="137.5" x2="569.1" y2="155.4" stroke="#dc2626" stroke-width="1"/><rect x="566.4" y="144.2" width="5.4" height="1.6" fill="#dc2626" opacity="0.82" rx="1"/>
<line x1="578.0" y1="139.2" x2="578.0" y2="148.7" stroke="#16a34a" stroke-width="1"/><rect x="575.2" y="141.7" width="5.4" height="4.1" fill="#16a34a" opacity="0.82" rx="1"/>
<line x1="586.8" y1="137.9" x2="586.8" y2="146.6" stroke="#dc2626" stroke-width="1"/><rect x="584.1" y="141.7" width="5.4" height="2.0" fill="#dc2626" opacity="0.82" rx="1"/>
<line x1="595.7" y1="139.6" x2="595.7" y2="172.6" stroke="#dc2626" stroke-width="1"/><rect x="593.0" y="143.6" width="5.4" height="21.8" fill="#dc2626" opacity="0.82" rx="1"/>
<line x1="604.6" y1="165.4" x2="604.6" y2="216.0" stroke="#dc2626" stroke-width="1"/><rect x="601.9" y="165.5" width="5.4" height="45.0" fill="#dc2626" opacity="0.82" rx="1"/>
<line x1="613.5" y1="203.1" x2="613.5" y2="236.3" stroke="#dc2626" stroke-width="1"/><rect x="610.7" y="210.4" width="5.4" height="25.2" fill="#dc2626" opacity="0.82" rx="1"/>
<line x1="622.3" y1="229.6" x2="622.3" y2="262.4" stroke="#dc2626" stroke-width="1"/><rect x="619.6" y="235.6" width="5.4" height="2.6" fill="#dc2626" opacity="0.82" rx="1"/>
<line x1="631.2" y1="237.2" x2="631.2" y2="284.2" stroke="#dc2626" stroke-width="1"/><rect x="628.5" y="238.2" width="5.4" height="27.3" fill="#dc2626" opacity="0.82" rx="1"/>
<line x1="640.1" y1="260.9" x2="640.1" y2="280.7" stroke="#dc2626" stroke-width="1"/><rect x="637.4" y="265.5" width="5.4" height="1.7" fill="#dc2626" opacity="0.82" rx="1"/>
<line x1="649.0" y1="234.4" x2="649.0" y2="268.5" stroke="#16a34a" stroke-width="1"/><rect x="646.2" y="243.5" width="5.4" height="23.6" fill="#16a34a" opacity="0.82" rx="1"/>
<line x1="657.8" y1="235.0" x2="657.8" y2="252.4" stroke="#dc2626" stroke-width="1"/><rect x="655.1" y="243.5" width="5.4" height="2.3" fill="#dc2626" opacity="0.82" rx="1"/>
<line x1="666.7" y1="241.6" x2="666.7" y2="268.1" stroke="#dc2626" stroke-width="1"/><rect x="664.0" y="245.9" width="5.4" height="13.1" fill="#dc2626" opacity="0.82" rx="1"/>
<line x1="675.6" y1="248.0" x2="675.6" y2="268.7" stroke="#dc2626" stroke-width="1"/><rect x="672.9" y="259.0" width="5.4" height="2.0" fill="#dc2626" opacity="0.82" rx="1"/>
<line x1="684.5" y1="237.6" x2="684.5" y2="261.0" stroke="#16a34a" stroke-width="1"/><rect x="681.8" y="240.6" width="5.4" height="20.4" fill="#16a34a" opacity="0.82" rx="1"/>
<line x1="693.3" y1="233.3" x2="693.3" y2="248.3" stroke="#dc2626" stroke-width="1"/><rect x="690.6" y="240.6" width="5.4" height="1.2" fill="#dc2626" opacity="0.82" rx="1"/>
<line x1="702.2" y1="229.6" x2="702.2" y2="242.9" stroke="#16a34a" stroke-width="1"/><rect x="699.5" y="232.7" width="5.4" height="8.4" fill="#16a34a" opacity="0.82" rx="1"/>
<line x1="711.1" y1="219.6" x2="711.1" y2="240.1" stroke="#16a34a" stroke-width="1"/><rect x="708.4" y="220.3" width="5.4" height="12.4" fill="#16a34a" opacity="0.82" rx="1"/>
<line x1="720.0" y1="205.4" x2="720.0" y2="224.1" stroke="#16a34a" stroke-width="1"/><rect x="717.3" y="214.7" width="5.4" height="5.6" fill="#16a34a" opacity="0.82" rx="1"/>
<line x1="728.9" y1="208.2" x2="728.9" y2="223.9" stroke="#dc2626" stroke-width="1"/><rect x="726.1" y="214.7" width="5.4" height="6.2" fill="#dc2626" opacity="0.82" rx="1"/>
<line x1="737.7" y1="213.4" x2="737.7" y2="237.9" stroke="#dc2626" stroke-width="1"/><rect x="735.0" y="220.9" width="5.4" height="11.3" fill="#dc2626" opacity="0.82" rx="1"/>
<line x1="746.6" y1="229.2" x2="746.6" y2="253.8" stroke="#dc2626" stroke-width="1"/><rect x="743.9" y="232.2" width="5.4" height="14.9" fill="#dc2626" opacity="0.82" rx="1"/>
<line x1="755.5" y1="240.2" x2="755.5" y2="253.8" stroke="#16a34a" stroke-width="1"/><rect x="752.8" y="241.5" width="5.4" height="5.7" fill="#16a34a" opacity="0.82" rx="1"/>
<line x1="764.4" y1="233.2" x2="764.4" y2="245.1" stroke="#16a34a" stroke-width="1"/><rect x="761.6" y="234.2" width="5.4" height="7.3" fill="#16a34a" opacity="0.82" rx="1"/>
<line x1="773.2" y1="231.3" x2="773.2" y2="244.3" stroke="#dc2626" stroke-width="1"/><rect x="770.5" y="234.2" width="5.4" height="9.5" fill="#dc2626" opacity="0.82" rx="1"/>
<line x1="782.1" y1="221.4" x2="782.1" y2="243.7" stroke="#16a34a" stroke-width="1"/><rect x="779.4" y="236.9" width="5.4" height="6.8" fill="#16a34a" opacity="0.82" rx="1"/>
<line x1="791.0" y1="234.4" x2="791.0" y2="257.3" stroke="#dc2626" stroke-width="1"/><rect x="788.3" y="236.9" width="5.4" height="12.5" fill="#dc2626" opacity="0.82" rx="1"/>
<line x1="799.9" y1="244.4" x2="799.9" y2="284.4" stroke="#dc2626" stroke-width="1"/><rect x="797.1" y="249.3" width="5.4" height="15.9" fill="#dc2626" opacity="0.82" rx="1"/>
<line x1="808.7" y1="256.7" x2="808.7" y2="294.4" stroke="#dc2626" stroke-width="1"/><rect x="806.0" y="265.2" width="5.4" height="12.3" fill="#dc2626" opacity="0.82" rx="1"/>
<line x1="817.6" y1="268.3" x2="817.6" y2="291.9" stroke="#16a34a" stroke-width="1"/><rect x="814.9" y="274.7" width="5.4" height="2.9" fill="#16a34a" opacity="0.82" rx="1"/>
<line x1="826.5" y1="266.4" x2="826.5" y2="277.1" stroke="#dc2626" stroke-width="1"/><rect x="823.8" y="274.7" width="5.4" height="1.2" fill="#dc2626" opacity="0.82" rx="1"/>
<line x1="835.4" y1="270.1" x2="835.4" y2="286.1" stroke="#dc2626" stroke-width="1"/><rect x="832.6" y="275.4" width="5.4" height="4.3" fill="#dc2626" opacity="0.82" rx="1"/>
<line x1="844.2" y1="268.0" x2="844.2" y2="286.5" stroke="#16a34a" stroke-width="1"/><rect x="841.5" y="273.2" width="5.4" height="6.5" fill="#16a34a" opacity="0.82" rx="1"/>
<line x1="853.1" y1="272.9" x2="853.1" y2="293.1" stroke="#dc2626" stroke-width="1"/><rect x="850.4" y="273.2" width="5.4" height="15.6" fill="#dc2626" opacity="0.82" rx="1"/>
<line x1="862.0" y1="280.7" x2="862.0" y2="297.0" stroke="#16a34a" stroke-width="1"/><rect x="859.3" y="287.7" width="5.4" height="1.2" fill="#16a34a" opacity="0.82" rx="1"/>
<line x1="72" y1="318.9" x2="862" y2="318.9" stroke="#16a34a" stroke-width="1.8" stroke-dasharray="6 4" /><rect x="874" y="298.9" width="166" height="23" rx="5" fill="#ffffff" stroke="#16a34a" opacity="0.97"/><text x="881" y="314.9" fill="#16a34a" font-size="15" font-weight="700">支撑 55,488</text>
<line x1="72" y1="235.7" x2="862" y2="235.7" stroke="#dc2626" stroke-width="1.8" stroke-dasharray="6 4" /><rect x="874" y="215.7" width="166" height="23" rx="5" fill="#ffffff" stroke="#dc2626" opacity="0.97"/><text x="881" y="231.7" fill="#dc2626" font-size="15" font-weight="700">压力 64,107</text>
<line x1="72" y1="287.7" x2="862" y2="287.7" stroke="#111827" stroke-width="1.8" stroke-dasharray="2 2" /><rect x="874" y="267.7" width="166" height="23" rx="5" fill="#ffffff" stroke="#111827" opacity="0.97"/><text x="881" y="283.7" fill="#111827" font-size="15" font-weight="700">现价 58,720</text>
<text x="72" y="396" fill="#16a34a" font-size="14" font-weight="700">日线做多计划</text><rect x="72" y="404" width="790" height="48" rx="6" fill="#f9fafb" stroke="#e5e7eb"/><line x1="94" y1="412" x2="840" y2="412" stroke="#16a34a" stroke-width="3"/><circle cx="132.0" cy="412" r="5" fill="#16a34a"/><text x="132.0" y="434" fill="#374151" font-size="12" text-anchor="middle">入场 止跌/突破回踩</text><circle cx="451.2" cy="412" r="5" fill="#16a34a"/><text x="451.2" y="434" fill="#374151" font-size="12" text-anchor="middle">止损 55,488</text><circle cx="712.0" cy="412" r="5" fill="#16a34a"/><text x="712.0" y="434" fill="#374151" font-size="12" text-anchor="middle">目标一 64,107</text><circle cx="814.0" cy="412" r="5" fill="#16a34a"/><text x="814.0" y="434" fill="#374151" font-size="12" text-anchor="middle">目标二 67,339</text>
<text x="72" y="482" fill="#dc2626" font-size="14" font-weight="700">日线做空计划</text><rect x="72" y="490" width="790" height="48" rx="6" fill="#f9fafb" stroke="#e5e7eb"/><line x1="94" y1="498" x2="840" y2="498" stroke="#dc2626" stroke-width="3"/><circle cx="132.0" cy="498" r="5" fill="#dc2626"/><text x="132.0" y="520" fill="#374151" font-size="12" text-anchor="middle">入场 反弹承压/破位回抽</text><circle cx="451.2" cy="498" r="5" fill="#dc2626"/><text x="451.2" y="520" fill="#374151" font-size="12" text-anchor="middle">止损 64,107</text><circle cx="712.0" cy="498" r="5" fill="#dc2626"/><text x="712.0" y="520" fill="#374151" font-size="12" text-anchor="middle">目标一 55,488</text><circle cx="814.0" cy="498" r="5" fill="#dc2626"/><text x="814.0" y="520" fill="#374151" font-size="12" text-anchor="middle">目标二 53,333</text>
</svg>