<svg xmlns="http://www.w3.org/2000/svg" width="1080" height="560" viewBox="0 0 1080 560">
<rect width="100%" height="100%" fill="#ffffff"/>
<text x="72" y="23" fill="#111827" font-size="21" font-weight="800">DRAM 小时线K线支撑压力图</text>
<text x="862" y="42" fill="#374151" font-size="15" text-anchor="end">最新价 73.22</text>
<line x1="72" y1="34" x2="72" y2="340" stroke="#d1d5db"/>
<line x1="72" y1="340" x2="862" y2="340" stroke="#d1d5db"/>
<line x1="72" y1="340.0" x2="862" y2="340.0" stroke="#f3f4f6"/>
<text x="8" y="345.0" fill="#4b5563" font-size="14">65.80</text>
<line x1="72" y1="263.5" x2="862" y2="263.5" stroke="#f3f4f6"/>
<text x="8" y="268.5" fill="#4b5563" font-size="14">68.34</text>
<line x1="72" y1="187.0" x2="862" y2="187.0" stroke="#f3f4f6"/>
<text x="8" y="192.0" fill="#4b5563" font-size="14">70.89</text>
<line x1="72" y1="110.5" x2="862" y2="110.5" stroke="#f3f4f6"/>
<text x="8" y="115.5" fill="#4b5563" font-size="14">73.44</text>
<line x1="72" y1="34.0" x2="862" y2="34.0" stroke="#f3f4f6"/>
<text x="8" y="39.0" fill="#4b5563" font-size="14">75.98</text>
<line x1="72.0" y1="128.7" x2="72.0" y2="138.6" stroke="#16a34a" stroke-width="1"/><rect x="69.3" y="130.5" width="5.4" height="1.5" fill="#16a34a" opacity="0.82" rx="1"/>
<line x1="80.9" y1="129.6" x2="80.9" y2="147.6" stroke="#dc2626" stroke-width="1"/><rect x="78.2" y="130.2" width="5.4" height="13.2" fill="#dc2626" opacity="0.82" rx="1"/>
<line x1="89.8" y1="137.1" x2="89.8" y2="147.3" stroke="#16a34a" stroke-width="1"/><rect x="87.0" y="139.8" width="5.4" height="3.9" fill="#16a34a" opacity="0.82" rx="1"/>
<line x1="98.6" y1="134.1" x2="98.6" y2="140.4" stroke="#16a34a" stroke-width="1"/><rect x="95.9" y="135.9" width="5.4" height="3.9" fill="#16a34a" opacity="0.82" rx="1"/>
<line x1="107.5" y1="135.0" x2="107.5" y2="142.2" stroke="#dc2626" stroke-width="1"/><rect x="104.8" y="135.9" width="5.4" height="5.4" fill="#dc2626" opacity="0.82" rx="1"/>
<line x1="116.4" y1="135.0" x2="116.4" y2="143.7" stroke="#16a34a" stroke-width="1"/><rect x="113.7" y="135.6" width="5.4" height="5.1" fill="#16a34a" opacity="0.82" rx="1"/>
<line x1="125.3" y1="124.5" x2="125.3" y2="138.6" stroke="#16a34a" stroke-width="1"/><rect x="122.5" y="126.0" width="5.4" height="9.6" fill="#16a34a" opacity="0.82" rx="1"/>
<line x1="134.1" y1="124.8" x2="134.1" y2="141.6" stroke="#dc2626" stroke-width="1"/><rect x="131.4" y="125.7" width="5.4" height="12.3" fill="#dc2626" opacity="0.82" rx="1"/>
<line x1="143.0" y1="130.5" x2="143.0" y2="140.1" stroke="#16a34a" stroke-width="1"/><rect x="140.3" y="135.3" width="5.4" height="3.0" fill="#16a34a" opacity="0.82" rx="1"/>
<line x1="151.9" y1="135.0" x2="151.9" y2="145.2" stroke="#dc2626" stroke-width="1"/><rect x="149.2" y="135.3" width="5.4" height="5.7" fill="#dc2626" opacity="0.82" rx="1"/>
<line x1="160.8" y1="139.8" x2="160.8" y2="148.8" stroke="#dc2626" stroke-width="1"/><rect x="158.0" y="140.7" width="5.4" height="5.4" fill="#dc2626" opacity="0.82" rx="1"/>
<line x1="169.6" y1="137.4" x2="169.6" y2="146.1" stroke="#16a34a" stroke-width="1"/><rect x="166.9" y="138.3" width="5.4" height="7.8" fill="#16a34a" opacity="0.82" rx="1"/>
<line x1="178.5" y1="132.3" x2="178.5" y2="146.7" stroke="#dc2626" stroke-width="1"/><rect x="175.8" y="138.0" width="5.4" height="7.2" fill="#dc2626" opacity="0.82" rx="1"/>
<line x1="187.4" y1="132.0" x2="187.4" y2="145.2" stroke="#16a34a" stroke-width="1"/><rect x="184.7" y="137.4" width="5.4" height="7.8" fill="#16a34a" opacity="0.82" rx="1"/>
<line x1="196.3" y1="128.7" x2="196.3" y2="139.2" stroke="#dc2626" stroke-width="1"/><rect x="193.5" y="137.4" width="5.4" height="1.2" fill="#dc2626" opacity="0.82" rx="1"/>
<line x1="205.1" y1="136.5" x2="205.1" y2="149.1" stroke="#dc2626" stroke-width="1"/><rect x="202.4" y="138.6" width="5.4" height="7.2" fill="#dc2626" opacity="0.82" rx="1"/>
<line x1="214.0" y1="138.0" x2="214.0" y2="148.8" stroke="#16a34a" stroke-width="1"/><rect x="211.3" y="145.8" width="5.4" height="1.2" fill="#16a34a" opacity="0.82" rx="1"/>
<line x1="222.9" y1="136.8" x2="222.9" y2="161.8" stroke="#dc2626" stroke-width="1"/><rect x="220.2" y="145.8" width="5.4" height="15.6" fill="#dc2626" opacity="0.82" rx="1"/>
<line x1="231.8" y1="148.2" x2="231.8" y2="165.1" stroke="#16a34a" stroke-width="1"/><rect x="229.1" y="149.1" width="5.4" height="12.9" fill="#16a34a" opacity="0.82" rx="1"/>
<line x1="240.7" y1="143.1" x2="240.7" y2="163.9" stroke="#16a34a" stroke-width="1"/><rect x="237.9" y="147.6" width="5.4" height="1.5" fill="#16a34a" opacity="0.82" rx="1"/>
<line x1="249.5" y1="140.1" x2="249.5" y2="150.3" stroke="#16a34a" stroke-width="1"/><rect x="246.8" y="147.6" width="5.4" height="1.2" fill="#16a34a" opacity="0.82" rx="1"/>
<line x1="258.4" y1="138.9" x2="258.4" y2="150.3" stroke="#16a34a" stroke-width="1"/><rect x="255.7" y="140.7" width="5.4" height="7.2" fill="#16a34a" opacity="0.82" rx="1"/>
<line x1="267.3" y1="139.5" x2="267.3" y2="155.5" stroke="#dc2626" stroke-width="1"/><rect x="264.6" y="140.1" width="5.4" height="6.9" fill="#dc2626" opacity="0.82" rx="1"/>
<line x1="276.2" y1="141.9" x2="276.2" y2="151.2" stroke="#16a34a" stroke-width="1"/><rect x="273.4" y="144.6" width="5.4" height="2.1" fill="#16a34a" opacity="0.82" rx="1"/>
<line x1="285.0" y1="120.3" x2="285.0" y2="145.8" stroke="#16a34a" stroke-width="1"/><rect x="282.3" y="127.5" width="5.4" height="17.1" fill="#16a34a" opacity="0.82" rx="1"/>
<line x1="293.9" y1="110.4" x2="293.9" y2="128.1" stroke="#16a34a" stroke-width="1"/><rect x="291.2" y="114.6" width="5.4" height="12.9" fill="#16a34a" opacity="0.82" rx="1"/>
<line x1="302.8" y1="102.9" x2="302.8" y2="122.4" stroke="#dc2626" stroke-width="1"/><rect x="300.1" y="114.9" width="5.4" height="3.9" fill="#dc2626" opacity="0.82" rx="1"/>
<line x1="311.7" y1="114.0" x2="311.7" y2="125.1" stroke="#16a34a" stroke-width="1"/><rect x="308.9" y="118.5" width="5.4" height="1.2" fill="#16a34a" opacity="0.82" rx="1"/>
<line x1="320.5" y1="98.1" x2="320.5" y2="118.8" stroke="#16a34a" stroke-width="1"/><rect x="317.8" y="108.9" width="5.4" height="9.9" fill="#16a34a" opacity="0.82" rx="1"/>
<line x1="329.4" y1="105.0" x2="329.4" y2="114.0" stroke="#dc2626" stroke-width="1"/><rect x="326.7" y="108.9" width="5.4" height="1.2" fill="#dc2626" opacity="0.82" rx="1"/>
<line x1="338.3" y1="94.5" x2="338.3" y2="115.8" stroke="#16a34a" stroke-width="1"/><rect x="335.6" y="101.7" width="5.4" height="8.7" fill="#16a34a" opacity="0.82" rx="1"/>
<line x1="347.2" y1="90.9" x2="347.2" y2="103.8" stroke="#dc2626" stroke-width="1"/><rect x="344.4" y="101.7" width="5.4" height="1.2" fill="#dc2626" opacity="0.82" rx="1"/>
<line x1="356.0" y1="96.0" x2="356.0" y2="104.7" stroke="#16a34a" stroke-width="1"/><rect x="353.3" y="99.6" width="5.4" height="3.0" fill="#16a34a" opacity="0.82" rx="1"/>
<line x1="364.9" y1="89.1" x2="364.9" y2="106.8" stroke="#16a34a" stroke-width="1"/><rect x="362.2" y="90.9" width="5.4" height="8.7" fill="#16a34a" opacity="0.82" rx="1"/>
<line x1="373.8" y1="89.1" x2="373.8" y2="102.0" stroke="#dc2626" stroke-width="1"/><rect x="371.1" y="90.6" width="5.4" height="4.2" fill="#dc2626" opacity="0.82" rx="1"/>
<line x1="382.7" y1="91.5" x2="382.7" y2="95.7" stroke="#16a34a" stroke-width="1"/><rect x="380.0" y="94.5" width="5.4" height="1.2" fill="#16a34a" opacity="0.82" rx="1"/>
<line x1="391.6" y1="90.9" x2="391.6" y2="105.0" stroke="#dc2626" stroke-width="1"/><rect x="388.8" y="94.2" width="5.4" height="7.2" fill="#dc2626" opacity="0.82" rx="1"/>
<line x1="400.4" y1="80.0" x2="400.4" y2="102.3" stroke="#16a34a" stroke-width="1"/><rect x="397.7" y="85.4" width="5.4" height="15.6" fill="#16a34a" opacity="0.82" rx="1"/>
<line x1="409.3" y1="83.3" x2="409.3" y2="116.1" stroke="#dc2626" stroke-width="1"/><rect x="406.6" y="85.4" width="5.4" height="27.6" fill="#dc2626" opacity="0.82" rx="1"/>
<line x1="418.2" y1="55.1" x2="418.2" y2="115.2" stroke="#16a34a" stroke-width="1"/><rect x="415.5" y="77.6" width="5.4" height="35.5" fill="#16a34a" opacity="0.82" rx="1"/>
<line x1="427.1" y1="77.3" x2="427.1" y2="132.9" stroke="#dc2626" stroke-width="1"/><rect x="424.3" y="77.6" width="5.4" height="54.4" fill="#dc2626" opacity="0.82" rx="1"/>
<line x1="435.9" y1="113.4" x2="435.9" y2="219.7" stroke="#dc2626" stroke-width="1"/><rect x="433.2" y="131.7" width="5.4" height="45.1" fill="#dc2626" opacity="0.82" rx="1"/>
<line x1="444.8" y1="161.5" x2="444.8" y2="212.8" stroke="#dc2626" stroke-width="1"/><rect x="442.1" y="177.1" width="5.4" height="9.6" fill="#dc2626" opacity="0.82" rx="1"/>
<line x1="453.7" y1="182.8" x2="453.7" y2="208.6" stroke="#dc2626" stroke-width="1"/><rect x="451.0" y="186.7" width="5.4" height="9.6" fill="#dc2626" opacity="0.82" rx="1"/>
<line x1="462.6" y1="183.7" x2="462.6" y2="214.6" stroke="#16a34a" stroke-width="1"/><rect x="459.8" y="190.0" width="5.4" height="6.0" fill="#16a34a" opacity="0.82" rx="1"/>
<line x1="471.4" y1="188.5" x2="471.4" y2="223.4" stroke="#dc2626" stroke-width="1"/><rect x="468.7" y="190.3" width="5.4" height="28.8" fill="#dc2626" opacity="0.82" rx="1"/>
<line x1="480.3" y1="138.6" x2="480.3" y2="224.9" stroke="#16a34a" stroke-width="1"/><rect x="477.6" y="141.9" width="5.4" height="76.9" fill="#16a34a" opacity="0.82" rx="1"/>
<line x1="489.2" y1="141.3" x2="489.2" y2="169.9" stroke="#dc2626" stroke-width="1"/><rect x="486.5" y="141.9" width="5.4" height="21.9" fill="#dc2626" opacity="0.82" rx="1"/>
<line x1="498.1" y1="153.7" x2="498.1" y2="172.9" stroke="#16a34a" stroke-width="1"/><rect x="495.3" y="158.5" width="5.4" height="5.1" fill="#16a34a" opacity="0.82" rx="1"/>
<line x1="506.9" y1="149.4" x2="506.9" y2="170.2" stroke="#dc2626" stroke-width="1"/><rect x="504.2" y="157.9" width="5.4" height="9.3" fill="#dc2626" opacity="0.82" rx="1"/>
<line x1="515.8" y1="167.2" x2="515.8" y2="187.3" stroke="#dc2626" stroke-width="1"/><rect x="513.1" y="167.5" width="5.4" height="6.6" fill="#dc2626" opacity="0.82" rx="1"/>
<line x1="524.7" y1="161.8" x2="524.7" y2="178.3" stroke="#16a34a" stroke-width="1"/><rect x="522.0" y="168.7" width="5.4" height="5.1" fill="#16a34a" opacity="0.82" rx="1"/>
<line x1="533.6" y1="165.1" x2="533.6" y2="194.5" stroke="#dc2626" stroke-width="1"/><rect x="530.9" y="168.4" width="5.4" height="18.3" fill="#dc2626" opacity="0.82" rx="1"/>
<line x1="542.4" y1="175.6" x2="542.4" y2="199.0" stroke="#16a34a" stroke-width="1"/><rect x="539.7" y="183.7" width="5.4" height="3.0" fill="#16a34a" opacity="0.82" rx="1"/>
<line x1="551.3" y1="173.2" x2="551.3" y2="269.6" stroke="#dc2626" stroke-width="1"/><rect x="548.6" y="183.7" width="5.4" height="81.7" fill="#dc2626" opacity="0.82" rx="1"/>
<line x1="560.2" y1="257.6" x2="560.2" y2="318.9" stroke="#16a34a" stroke-width="1"/><rect x="557.5" y="259.7" width="5.4" height="5.7" fill="#16a34a" opacity="0.82" rx="1"/>
<line x1="569.1" y1="215.2" x2="569.1" y2="267.8" stroke="#16a34a" stroke-width="1"/><rect x="566.4" y="220.3" width="5.4" height="39.1" fill="#16a34a" opacity="0.82" rx="1"/>
<line x1="578.0" y1="180.7" x2="578.0" y2="221.6" stroke="#16a34a" stroke-width="1"/><rect x="575.2" y="187.0" width="5.4" height="33.7" fill="#16a34a" opacity="0.82" rx="1"/>
<line x1="586.8" y1="175.3" x2="586.8" y2="204.1" stroke="#dc2626" stroke-width="1"/><rect x="584.1" y="187.0" width="5.4" height="4.2" fill="#dc2626" opacity="0.82" rx="1"/>
<line x1="595.7" y1="160.9" x2="595.7" y2="191.8" stroke="#16a34a" stroke-width="1"/><rect x="593.0" y="172.6" width="5.4" height="18.6" fill="#16a34a" opacity="0.82" rx="1"/>
<line x1="604.6" y1="150.6" x2="604.6" y2="179.2" stroke="#16a34a" stroke-width="1"/><rect x="601.9" y="154.0" width="5.4" height="18.6" fill="#16a34a" opacity="0.82" rx="1"/>
<line x1="613.5" y1="141.6" x2="613.5" y2="163.0" stroke="#16a34a" stroke-width="1"/><rect x="610.7" y="153.3" width="5.4" height="1.2" fill="#16a34a" opacity="0.82" rx="1"/>
<line x1="622.3" y1="149.4" x2="622.3" y2="165.7" stroke="#dc2626" stroke-width="1"/><rect x="619.6" y="153.0" width="5.4" height="7.2" fill="#dc2626" opacity="0.82" rx="1"/>
<line x1="631.2" y1="153.7" x2="631.2" y2="166.9" stroke="#16a34a" stroke-width="1"/><rect x="628.5" y="158.2" width="5.4" height="1.8" fill="#16a34a" opacity="0.82" rx="1"/>
<line x1="640.1" y1="150.0" x2="640.1" y2="164.2" stroke="#dc2626" stroke-width="1"/><rect x="637.4" y="158.2" width="5.4" height="2.7" fill="#dc2626" opacity="0.82" rx="1"/>
<line x1="649.0" y1="131.1" x2="649.0" y2="207.4" stroke="#dc2626" stroke-width="1"/><rect x="646.2" y="160.9" width="5.4" height="27.3" fill="#dc2626" opacity="0.82" rx="1"/>
<line x1="657.8" y1="165.1" x2="657.8" y2="201.4" stroke="#16a34a" stroke-width="1"/><rect x="655.1" y="167.5" width="5.4" height="19.8" fill="#16a34a" opacity="0.82" rx="1"/>
<line x1="666.7" y1="143.7" x2="666.7" y2="178.3" stroke="#16a34a" stroke-width="1"/><rect x="664.0" y="146.4" width="5.4" height="20.7" fill="#16a34a" opacity="0.82" rx="1"/>
<line x1="675.6" y1="134.1" x2="675.6" y2="152.4" stroke="#dc2626" stroke-width="1"/><rect x="672.9" y="145.8" width="5.4" height="3.9" fill="#dc2626" opacity="0.82" rx="1"/>
<line x1="684.5" y1="93.6" x2="684.5" y2="149.4" stroke="#16a34a" stroke-width="1"/><rect x="681.8" y="101.4" width="5.4" height="48.1" fill="#16a34a" opacity="0.82" rx="1"/>
<line x1="693.3" y1="92.7" x2="693.3" y2="125.1" stroke="#dc2626" stroke-width="1"/><rect x="690.6" y="101.1" width="5.4" height="14.1" fill="#dc2626" opacity="0.82" rx="1"/>
<line x1="702.2" y1="112.8" x2="702.2" y2="142.2" stroke="#dc2626" stroke-width="1"/><rect x="699.5" y="114.9" width="5.4" height="19.2" fill="#dc2626" opacity="0.82" rx="1"/>
<line x1="711.1" y1="126.9" x2="711.1" y2="144.6" stroke="#dc2626" stroke-width="1"/><rect x="708.4" y="134.1" width="5.4" height="8.7" fill="#dc2626" opacity="0.82" rx="1"/>
<line x1="720.0" y1="137.4" x2="720.0" y2="159.4" stroke="#dc2626" stroke-width="1"/><rect x="717.3" y="142.8" width="5.4" height="3.6" fill="#dc2626" opacity="0.82" rx="1"/>
<line x1="728.9" y1="141.6" x2="728.9" y2="158.8" stroke="#dc2626" stroke-width="1"/><rect x="726.1" y="146.7" width="5.4" height="8.4" fill="#dc2626" opacity="0.82" rx="1"/>
<line x1="737.7" y1="142.5" x2="737.7" y2="165.1" stroke="#16a34a" stroke-width="1"/><rect x="735.0" y="145.5" width="5.4" height="9.9" fill="#16a34a" opacity="0.82" rx="1"/>
<line x1="746.6" y1="135.6" x2="746.6" y2="152.1" stroke="#16a34a" stroke-width="1"/><rect x="743.9" y="139.8" width="5.4" height="5.7" fill="#16a34a" opacity="0.82" rx="1"/>
<line x1="755.5" y1="132.9" x2="755.5" y2="163.3" stroke="#dc2626" stroke-width="1"/><rect x="752.8" y="139.8" width="5.4" height="16.8" fill="#dc2626" opacity="0.82" rx="1"/>
<line x1="764.4" y1="109.5" x2="764.4" y2="160.3" stroke="#16a34a" stroke-width="1"/><rect x="761.6" y="114.9" width="5.4" height="41.5" fill="#16a34a" opacity="0.82" rx="1"/>
<line x1="773.2" y1="99.9" x2="773.2" y2="135.3" stroke="#dc2626" stroke-width="1"/><rect x="770.5" y="114.6" width="5.4" height="17.1" fill="#dc2626" opacity="0.82" rx="1"/>
<line x1="782.1" y1="113.1" x2="782.1" y2="131.4" stroke="#16a34a" stroke-width="1"/><rect x="779.4" y="120.3" width="5.4" height="11.1" fill="#16a34a" opacity="0.82" rx="1"/>
<line x1="791.0" y1="95.4" x2="791.0" y2="120.6" stroke="#16a34a" stroke-width="1"/><rect x="788.3" y="108.9" width="5.4" height="11.4" fill="#16a34a" opacity="0.82" rx="1"/>
<line x1="799.9" y1="93.6" x2="799.9" y2="111.0" stroke="#16a34a" stroke-width="1"/><rect x="797.1" y="102.6" width="5.4" height="6.3" fill="#16a34a" opacity="0.82" rx="1"/>
<line x1="808.7" y1="93.3" x2="808.7" y2="108.9" stroke="#16a34a" stroke-width="1"/><rect x="806.0" y="94.2" width="5.4" height="8.1" fill="#16a34a" opacity="0.82" rx="1"/>
<line x1="817.6" y1="87.3" x2="817.6" y2="105.0" stroke="#dc2626" stroke-width="1"/><rect x="814.9" y="94.2" width="5.4" height="3.6" fill="#dc2626" opacity="0.82" rx="1"/>
<line x1="826.5" y1="92.1" x2="826.5" y2="113.4" stroke="#dc2626" stroke-width="1"/><rect x="823.8" y="97.5" width="5.4" height="9.3" fill="#dc2626" opacity="0.82" rx="1"/>
<line x1="835.4" y1="99.9" x2="835.4" y2="107.7" stroke="#16a34a" stroke-width="1"/><rect x="832.6" y="101.1" width="5.4" height="6.0" fill="#16a34a" opacity="0.82" rx="1"/>
<line x1="844.2" y1="93.9" x2="844.2" y2="105.0" stroke="#dc2626" stroke-width="1"/><rect x="841.5" y="101.4" width="5.4" height="1.2" fill="#dc2626" opacity="0.82" rx="1"/>
<line x1="853.1" y1="101.7" x2="853.1" y2="114.3" stroke="#dc2626" stroke-width="1"/><rect x="850.4" y="101.7" width="5.4" height="6.9" fill="#dc2626" opacity="0.82" rx="1"/>
<line x1="862.0" y1="95.1" x2="862.0" y2="117.3" stroke="#dc2626" stroke-width="1"/><rect x="859.3" y="108.3" width="5.4" height="8.7" fill="#dc2626" opacity="0.82" rx="1"/>
<line x1="72" y1="149.4" x2="862" y2="149.4" stroke="#16a34a" stroke-width="1.8" stroke-dasharray="6 4" /><rect x="874" y="129.4" width="166" height="23" rx="5" fill="#ffffff" stroke="#16a34a" opacity="0.97"/><text x="881" y="145.4" fill="#16a34a" font-size="15" font-weight="700">日内支撑 72.14</text>
<line x1="72" y1="62.9" x2="862" y2="62.9" stroke="#dc2626" stroke-width="1.8" stroke-dasharray="6 4" /><rect x="874" y="42.9" width="166" height="23" rx="5" fill="#ffffff" stroke="#dc2626" opacity="0.97"/><text x="881" y="58.9" fill="#dc2626" font-size="15" font-weight="700">日内压力 75.02</text>
<line x1="72" y1="117.0" x2="862" y2="117.0" stroke="#111827" stroke-width="1.8" stroke-dasharray="2 2" /><rect x="874" y="97.0" width="166" height="23" rx="5" fill="#ffffff" stroke="#111827" opacity="0.97"/><text x="881" y="113.0" fill="#111827" font-size="15" font-weight="700">现价 73.22</text>
<text x="72" y="396" fill="#16a34a" font-size="14" font-weight="700">日内做多计划</text><rect x="72" y="404" width="790" height="48" rx="6" fill="#f9fafb" stroke="#e5e7eb"/><line x1="94" y1="412" x2="840" y2="412" stroke="#16a34a" stroke-width="3"/><circle cx="132.0" cy="412" r="5" fill="#16a34a"/><text x="132.0" y="434" fill="#374151" font-size="12" text-anchor="middle">入场 止跌/突破回踩</text><circle cx="451.2" cy="412" r="5" fill="#16a34a"/><text x="451.2" y="434" fill="#374151" font-size="12" text-anchor="middle">止损 72.14</text><circle cx="712.0" cy="412" r="5" fill="#16a34a"/><text x="712.0" y="434" fill="#374151" font-size="12" text-anchor="middle">目标一 75.02</text><circle cx="814.0" cy="412" r="5" fill="#16a34a"/><text x="814.0" y="434" fill="#374151" font-size="12" text-anchor="middle">目标二 75.74</text>
<text x="72" y="482" fill="#dc2626" font-size="14" font-weight="700">日内做空计划</text><rect x="72" y="490" width="790" height="48" rx="6" fill="#f9fafb" stroke="#e5e7eb"/><line x1="94" y1="498" x2="840" y2="498" stroke="#dc2626" stroke-width="3"/><circle cx="132.0" cy="498" r="5" fill="#dc2626"/><text x="132.0" y="520" fill="#374151" font-size="12" text-anchor="middle">入场 反弹承压/破位回抽</text><circle cx="451.2" cy="498" r="5" fill="#dc2626"/><text x="451.2" y="520" fill="#374151" font-size="12" text-anchor="middle">止损 75.02</text><circle cx="712.0" cy="498" r="5" fill="#dc2626"/><text x="712.0" y="520" fill="#374151" font-size="12" text-anchor="middle">目标一 72.14</text><circle cx="814.0" cy="498" r="5" fill="#dc2626"/><text x="814.0" y="520" fill="#374151" font-size="12" text-anchor="middle">目标二 71.42</text>
</svg>