<svg xmlns="http://www.w3.org/2000/svg" width="1080" height="560" viewBox="0 0 1080 560">
<rect width="100%" height="100%" fill="#ffffff"/>
<text x="72" y="23" fill="#111827" font-size="21" font-weight="800">DRAM 日线K线支撑压力图</text>
<text x="862" y="42" fill="#374151" font-size="15" text-anchor="end">最新价 72.68</text>
<line x1="72" y1="34" x2="72" y2="340" stroke="#d1d5db"/>
<line x1="72" y1="340" x2="862" y2="340" stroke="#d1d5db"/>
<line x1="72" y1="340.0" x2="862" y2="340.0" stroke="#f3f4f6"/>
<text x="8" y="345.0" fill="#4b5563" font-size="14">43.28</text>
<line x1="72" y1="263.5" x2="862" y2="263.5" stroke="#f3f4f6"/>
<text x="8" y="268.5" fill="#4b5563" font-size="14">55.09</text>
<line x1="72" y1="187.0" x2="862" y2="187.0" stroke="#f3f4f6"/>
<text x="8" y="192.0" fill="#4b5563" font-size="14">66.91</text>
<line x1="72" y1="110.5" x2="862" y2="110.5" stroke="#f3f4f6"/>
<text x="8" y="115.5" fill="#4b5563" font-size="14">78.72</text>
<line x1="72" y1="34.0" x2="862" y2="34.0" stroke="#f3f4f6"/>
<text x="8" y="39.0" fill="#4b5563" font-size="14">90.54</text>
<line x1="72.0" y1="284.3" x2="72.0" y2="308.9" stroke="#dc2626" stroke-width="1"/><rect x="67.5" y="288.5" width="9.0" height="9.5" fill="#dc2626" opacity="0.82" rx="1"/>
<line x1="90.4" y1="289.8" x2="90.4" y2="318.9" stroke="#16a34a" stroke-width="1"/><rect x="85.9" y="296.4" width="9.0" height="1.4" fill="#16a34a" opacity="0.82" rx="1"/>
<line x1="108.7" y1="283.2" x2="108.7" y2="309.6" stroke="#16a34a" stroke-width="1"/><rect x="104.2" y="285.3" width="9.0" height="11.3" fill="#16a34a" opacity="0.82" rx="1"/>
<line x1="127.1" y1="262.5" x2="127.1" y2="289.3" stroke="#16a34a" stroke-width="1"/><rect x="122.6" y="265.3" width="9.0" height="20.0" fill="#16a34a" opacity="0.82" rx="1"/>
<line x1="145.5" y1="265.0" x2="145.5" y2="279.7" stroke="#dc2626" stroke-width="1"/><rect x="141.0" y="265.3" width="9.0" height="14.2" fill="#dc2626" opacity="0.82" rx="1"/>
<line x1="163.9" y1="257.2" x2="163.9" y2="293.7" stroke="#16a34a" stroke-width="1"/><rect x="159.4" y="268.6" width="9.0" height="10.7" fill="#16a34a" opacity="0.82" rx="1"/>
<line x1="182.2" y1="257.0" x2="182.2" y2="269.9" stroke="#16a34a" stroke-width="1"/><rect x="177.7" y="261.7" width="9.0" height="6.7" fill="#16a34a" opacity="0.82" rx="1"/>
<line x1="200.6" y1="240.6" x2="200.6" y2="263.5" stroke="#16a34a" stroke-width="1"/><rect x="196.1" y="254.4" width="9.0" height="7.3" fill="#16a34a" opacity="0.82" rx="1"/>
<line x1="219.0" y1="210.4" x2="219.0" y2="266.2" stroke="#16a34a" stroke-width="1"/><rect x="214.5" y="217.4" width="9.0" height="37.0" fill="#16a34a" opacity="0.82" rx="1"/>
<line x1="237.3" y1="207.8" x2="237.3" y2="237.7" stroke="#dc2626" stroke-width="1"/><rect x="232.8" y="217.5" width="9.0" height="16.7" fill="#dc2626" opacity="0.82" rx="1"/>
<line x1="255.7" y1="207.4" x2="255.7" y2="248.3" stroke="#16a34a" stroke-width="1"/><rect x="251.2" y="212.0" width="9.0" height="22.2" fill="#16a34a" opacity="0.82" rx="1"/>
<line x1="274.1" y1="203.6" x2="274.1" y2="221.6" stroke="#16a34a" stroke-width="1"/><rect x="269.6" y="210.3" width="9.0" height="1.6" fill="#16a34a" opacity="0.82" rx="1"/>
<line x1="292.5" y1="193.1" x2="292.5" y2="213.0" stroke="#16a34a" stroke-width="1"/><rect x="288.0" y="194.2" width="9.0" height="16.1" fill="#16a34a" opacity="0.82" rx="1"/>
<line x1="310.8" y1="183.3" x2="310.8" y2="197.9" stroke="#16a34a" stroke-width="1"/><rect x="306.3" y="192.0" width="9.0" height="2.1" fill="#16a34a" opacity="0.82" rx="1"/>
<line x1="329.2" y1="172.9" x2="329.2" y2="203.6" stroke="#16a34a" stroke-width="1"/><rect x="324.7" y="178.6" width="9.0" height="13.3" fill="#16a34a" opacity="0.82" rx="1"/>
<line x1="347.6" y1="165.8" x2="347.6" y2="196.7" stroke="#16a34a" stroke-width="1"/><rect x="343.1" y="170.5" width="9.0" height="8.3" fill="#16a34a" opacity="0.82" rx="1"/>
<line x1="366.0" y1="164.9" x2="366.0" y2="190.3" stroke="#dc2626" stroke-width="1"/><rect x="361.5" y="170.5" width="9.0" height="17.8" fill="#dc2626" opacity="0.82" rx="1"/>
<line x1="384.3" y1="179.9" x2="384.3" y2="211.1" stroke="#dc2626" stroke-width="1"/><rect x="379.8" y="188.3" width="9.0" height="21.7" fill="#dc2626" opacity="0.82" rx="1"/>
<line x1="402.7" y1="205.0" x2="402.7" y2="274.1" stroke="#dc2626" stroke-width="1"/><rect x="398.2" y="210.0" width="9.0" height="51.3" fill="#dc2626" opacity="0.82" rx="1"/>
<line x1="421.1" y1="254.7" x2="421.1" y2="280.2" stroke="#16a34a" stroke-width="1"/><rect x="416.6" y="259.4" width="9.0" height="2.0" fill="#16a34a" opacity="0.82" rx="1"/>
<line x1="439.4" y1="232.8" x2="439.4" y2="264.1" stroke="#16a34a" stroke-width="1"/><rect x="434.9" y="254.7" width="9.0" height="4.7" fill="#16a34a" opacity="0.82" rx="1"/>
<line x1="457.8" y1="220.9" x2="457.8" y2="257.5" stroke="#16a34a" stroke-width="1"/><rect x="453.3" y="226.0" width="9.0" height="28.8" fill="#16a34a" opacity="0.82" rx="1"/>
<line x1="476.2" y1="204.5" x2="476.2" y2="261.2" stroke="#dc2626" stroke-width="1"/><rect x="471.7" y="225.9" width="9.0" height="7.5" fill="#dc2626" opacity="0.82" rx="1"/>
<line x1="494.6" y1="221.8" x2="494.6" y2="260.3" stroke="#dc2626" stroke-width="1"/><rect x="490.1" y="233.4" width="9.0" height="21.4" fill="#dc2626" opacity="0.82" rx="1"/>
<line x1="512.9" y1="188.4" x2="512.9" y2="256.4" stroke="#16a34a" stroke-width="1"/><rect x="508.4" y="192.8" width="9.0" height="61.8" fill="#16a34a" opacity="0.82" rx="1"/>
<line x1="531.3" y1="191.7" x2="531.3" y2="217.1" stroke="#dc2626" stroke-width="1"/><rect x="526.8" y="192.8" width="9.0" height="2.4" fill="#dc2626" opacity="0.82" rx="1"/>
<line x1="549.7" y1="193.0" x2="549.7" y2="206.5" stroke="#16a34a" stroke-width="1"/><rect x="545.2" y="194.4" width="9.0" height="1.2" fill="#16a34a" opacity="0.82" rx="1"/>
<line x1="568.0" y1="172.0" x2="568.0" y2="195.7" stroke="#16a34a" stroke-width="1"/><rect x="563.5" y="178.2" width="9.0" height="16.1" fill="#16a34a" opacity="0.82" rx="1"/>
<line x1="586.4" y1="158.2" x2="586.4" y2="183.9" stroke="#16a34a" stroke-width="1"/><rect x="581.9" y="161.5" width="9.0" height="16.8" fill="#16a34a" opacity="0.82" rx="1"/>
<line x1="604.8" y1="147.0" x2="604.8" y2="181.4" stroke="#dc2626" stroke-width="1"/><rect x="600.3" y="161.6" width="9.0" height="12.6" fill="#dc2626" opacity="0.82" rx="1"/>
<line x1="623.2" y1="145.7" x2="623.2" y2="174.4" stroke="#16a34a" stroke-width="1"/><rect x="618.7" y="151.0" width="9.0" height="23.2" fill="#16a34a" opacity="0.82" rx="1"/>
<line x1="641.5" y1="111.7" x2="641.5" y2="152.6" stroke="#16a34a" stroke-width="1"/><rect x="637.0" y="113.6" width="9.0" height="37.2" fill="#16a34a" opacity="0.82" rx="1"/>
<line x1="659.9" y1="110.7" x2="659.9" y2="135.6" stroke="#dc2626" stroke-width="1"/><rect x="655.4" y="113.7" width="9.0" height="3.9" fill="#dc2626" opacity="0.82" rx="1"/>
<line x1="678.3" y1="96.6" x2="678.3" y2="118.9" stroke="#16a34a" stroke-width="1"/><rect x="673.8" y="101.5" width="9.0" height="16.2" fill="#16a34a" opacity="0.82" rx="1"/>
<line x1="696.7" y1="93.4" x2="696.7" y2="124.6" stroke="#dc2626" stroke-width="1"/><rect x="692.2" y="101.6" width="9.0" height="18.6" fill="#dc2626" opacity="0.82" rx="1"/>
<line x1="715.0" y1="89.5" x2="715.0" y2="134.6" stroke="#16a34a" stroke-width="1"/><rect x="710.5" y="99.0" width="9.0" height="21.2" fill="#16a34a" opacity="0.82" rx="1"/>
<line x1="733.4" y1="98.4" x2="733.4" y2="175.4" stroke="#dc2626" stroke-width="1"/><rect x="728.9" y="99.0" width="9.0" height="64.6" fill="#dc2626" opacity="0.82" rx="1"/>
<line x1="751.8" y1="92.4" x2="751.8" y2="184.9" stroke="#16a34a" stroke-width="1"/><rect x="747.3" y="100.6" width="9.0" height="62.9" fill="#16a34a" opacity="0.82" rx="1"/>
<line x1="770.1" y1="99.8" x2="770.1" y2="144.2" stroke="#dc2626" stroke-width="1"/><rect x="765.6" y="100.5" width="9.0" height="24.3" fill="#dc2626" opacity="0.82" rx="1"/>
<line x1="788.5" y1="122.6" x2="788.5" y2="160.5" stroke="#dc2626" stroke-width="1"/><rect x="784.0" y="124.7" width="9.0" height="27.3" fill="#dc2626" opacity="0.82" rx="1"/>
<line x1="806.9" y1="146.3" x2="806.9" y2="153.8" stroke="#dc2626" stroke-width="1"/><rect x="802.4" y="151.9" width="9.0" height="1.2" fill="#dc2626" opacity="0.82" rx="1"/>
<line x1="825.3" y1="132.8" x2="825.3" y2="156.5" stroke="#16a34a" stroke-width="1"/><rect x="820.8" y="149.4" width="9.0" height="3.0" fill="#16a34a" opacity="0.82" rx="1"/>
<line x1="843.6" y1="145.4" x2="843.6" y2="189.6" stroke="#dc2626" stroke-width="1"/><rect x="839.1" y="149.3" width="9.0" height="6.3" fill="#dc2626" opacity="0.82" rx="1"/>
<line x1="862.0" y1="149.6" x2="862.0" y2="158.4" stroke="#16a34a" stroke-width="1"/><rect x="857.5" y="149.6" width="9.0" height="6.0" fill="#16a34a" opacity="0.82" rx="1"/>
<line x1="72" y1="206.3" x2="862" y2="206.3" stroke="#16a34a" stroke-width="1.8" stroke-dasharray="6 4" /><rect x="874" y="186.3" width="166" height="23" rx="5" fill="#ffffff" stroke="#16a34a" opacity="0.97"/><text x="881" y="202.3" fill="#16a34a" font-size="15" font-weight="700">支撑 63.92</text>
<line x1="72" y1="55.1" x2="862" y2="55.1" stroke="#dc2626" stroke-width="1.8" stroke-dasharray="6 4" /><rect x="874" y="35.1" width="166" height="23" rx="5" fill="#ffffff" stroke="#dc2626" opacity="0.97"/><text x="881" y="51.1" fill="#dc2626" font-size="15" font-weight="700">压力 87.28</text>
<line x1="72" y1="149.6" x2="862" y2="149.6" stroke="#111827" stroke-width="1.8" stroke-dasharray="2 2" /><rect x="874" y="129.6" width="166" height="23" rx="5" fill="#ffffff" stroke="#111827" opacity="0.97"/><text x="881" y="145.6" fill="#111827" font-size="15" font-weight="700">现价 72.68</text>
<text x="72" y="396" fill="#16a34a" font-size="14" font-weight="700">日线做多计划</text><rect x="72" y="404" width="790" height="48" rx="6" fill="#f9fafb" stroke="#e5e7eb"/><line x1="94" y1="412" x2="840" y2="412" stroke="#16a34a" stroke-width="3"/><circle cx="132.0" cy="412" r="5" fill="#16a34a"/><text x="132.0" y="434" fill="#374151" font-size="12" text-anchor="middle">入场 止跌/突破回踩</text><circle cx="451.2" cy="412" r="5" fill="#16a34a"/><text x="451.2" y="434" fill="#374151" font-size="12" text-anchor="middle">止损 63.92</text><circle cx="712.0" cy="412" r="5" fill="#16a34a"/><text x="712.0" y="434" fill="#374151" font-size="12" text-anchor="middle">目标一 87.28</text><circle cx="814.0" cy="412" r="5" fill="#16a34a"/><text x="814.0" y="434" fill="#374151" font-size="12" text-anchor="middle">目标二 96.03</text>
<text x="72" y="482" fill="#dc2626" font-size="14" font-weight="700">日线做空计划</text><rect x="72" y="490" width="790" height="48" rx="6" fill="#f9fafb" stroke="#e5e7eb"/><line x1="94" y1="498" x2="840" y2="498" stroke="#dc2626" stroke-width="3"/><circle cx="132.0" cy="498" r="5" fill="#dc2626"/><text x="132.0" y="520" fill="#374151" font-size="12" text-anchor="middle">入场 反弹承压/破位回抽</text><circle cx="451.2" cy="498" r="5" fill="#dc2626"/><text x="451.2" y="520" fill="#374151" font-size="12" text-anchor="middle">止损 87.28</text><circle cx="712.0" cy="498" r="5" fill="#dc2626"/><text x="712.0" y="520" fill="#374151" font-size="12" text-anchor="middle">目标一 63.92</text><circle cx="814.0" cy="498" r="5" fill="#dc2626"/><text x="814.0" y="520" fill="#374151" font-size="12" text-anchor="middle">目标二 58.08</text>
</svg>