<svg xmlns="http://www.w3.org/2000/svg" width="1080" height="560" viewBox="0 0 1080 560">
<rect width="100%" height="100%" fill="#ffffff"/>
<text x="72" y="23" fill="#111827" font-size="21" font-weight="800">BTC 小时线K线支撑压力图</text>
<text x="862" y="42" fill="#374151" font-size="15" text-anchor="end">最新价 59,603</text>
<line x1="72" y1="34" x2="72" y2="340" stroke="#d1d5db"/>
<line x1="72" y1="340" x2="862" y2="340" stroke="#d1d5db"/>
<line x1="72" y1="340.0" x2="862" y2="340.0" stroke="#f3f4f6"/>
<text x="8" y="345.0" fill="#4b5563" font-size="14">58,684</text>
<line x1="72" y1="263.5" x2="862" y2="263.5" stroke="#f3f4f6"/>
<text x="8" y="268.5" fill="#4b5563" font-size="14">59,286</text>
<line x1="72" y1="187.0" x2="862" y2="187.0" stroke="#f3f4f6"/>
<text x="8" y="192.0" fill="#4b5563" font-size="14">59,887</text>
<line x1="72" y1="110.5" x2="862" y2="110.5" stroke="#f3f4f6"/>
<text x="8" y="115.5" fill="#4b5563" font-size="14">60,489</text>
<line x1="72" y1="34.0" x2="862" y2="34.0" stroke="#f3f4f6"/>
<text x="8" y="39.0" fill="#4b5563" font-size="14">61,091</text>
<line x1="72.0" y1="137.8" x2="72.0" y2="254.2" stroke="#dc2626" stroke-width="1"/><rect x="69.3" y="153.2" width="5.4" height="74.3" fill="#dc2626" opacity="0.82" rx="1"/>
<line x1="80.9" y1="109.9" x2="80.9" y2="228.6" stroke="#16a34a" stroke-width="1"/><rect x="78.2" y="135.0" width="5.4" height="92.5" fill="#16a34a" opacity="0.82" rx="1"/>
<line x1="89.8" y1="98.9" x2="89.8" y2="181.2" stroke="#dc2626" stroke-width="1"/><rect x="87.0" y="134.9" width="5.4" height="35.5" fill="#dc2626" opacity="0.82" rx="1"/>
<line x1="98.6" y1="137.5" x2="98.6" y2="182.7" stroke="#dc2626" stroke-width="1"/><rect x="95.9" y="170.4" width="5.4" height="2.3" fill="#dc2626" opacity="0.82" rx="1"/>
<line x1="107.5" y1="154.8" x2="107.5" y2="232.3" stroke="#dc2626" stroke-width="1"/><rect x="104.8" y="172.7" width="5.4" height="44.6" fill="#dc2626" opacity="0.82" rx="1"/>
<line x1="116.4" y1="162.8" x2="116.4" y2="225.3" stroke="#16a34a" stroke-width="1"/><rect x="113.7" y="208.3" width="5.4" height="9.0" fill="#16a34a" opacity="0.82" rx="1"/>
<line x1="125.3" y1="176.5" x2="125.3" y2="229.1" stroke="#dc2626" stroke-width="1"/><rect x="122.5" y="208.3" width="5.4" height="3.2" fill="#dc2626" opacity="0.82" rx="1"/>
<line x1="134.1" y1="169.1" x2="134.1" y2="217.3" stroke="#16a34a" stroke-width="1"/><rect x="131.4" y="187.0" width="5.4" height="24.5" fill="#16a34a" opacity="0.82" rx="1"/>
<line x1="143.0" y1="166.2" x2="143.0" y2="208.6" stroke="#16a34a" stroke-width="1"/><rect x="140.3" y="171.7" width="5.4" height="15.2" fill="#16a34a" opacity="0.82" rx="1"/>
<line x1="151.9" y1="161.1" x2="151.9" y2="189.0" stroke="#16a34a" stroke-width="1"/><rect x="149.2" y="163.5" width="5.4" height="8.2" fill="#16a34a" opacity="0.82" rx="1"/>
<line x1="160.8" y1="151.4" x2="160.8" y2="192.2" stroke="#dc2626" stroke-width="1"/><rect x="158.0" y="163.5" width="5.4" height="4.9" fill="#dc2626" opacity="0.82" rx="1"/>
<line x1="169.6" y1="166.7" x2="169.6" y2="184.8" stroke="#dc2626" stroke-width="1"/><rect x="166.9" y="168.4" width="5.4" height="14.5" fill="#dc2626" opacity="0.82" rx="1"/>
<line x1="178.5" y1="128.3" x2="178.5" y2="186.8" stroke="#16a34a" stroke-width="1"/><rect x="175.8" y="140.1" width="5.4" height="42.9" fill="#16a34a" opacity="0.82" rx="1"/>
<line x1="187.4" y1="123.4" x2="187.4" y2="155.6" stroke="#16a34a" stroke-width="1"/><rect x="184.7" y="137.7" width="5.4" height="2.3" fill="#16a34a" opacity="0.82" rx="1"/>
<line x1="196.3" y1="112.6" x2="196.3" y2="148.6" stroke="#dc2626" stroke-width="1"/><rect x="193.5" y="137.7" width="5.4" height="7.5" fill="#dc2626" opacity="0.82" rx="1"/>
<line x1="205.1" y1="136.3" x2="205.1" y2="159.7" stroke="#dc2626" stroke-width="1"/><rect x="202.4" y="145.2" width="5.4" height="1.2" fill="#dc2626" opacity="0.82" rx="1"/>
<line x1="214.0" y1="110.1" x2="214.0" y2="163.2" stroke="#16a34a" stroke-width="1"/><rect x="211.3" y="128.8" width="5.4" height="17.4" fill="#16a34a" opacity="0.82" rx="1"/>
<line x1="222.9" y1="101.8" x2="222.9" y2="138.9" stroke="#16a34a" stroke-width="1"/><rect x="220.2" y="106.3" width="5.4" height="22.5" fill="#16a34a" opacity="0.82" rx="1"/>
<line x1="231.8" y1="106.2" x2="231.8" y2="129.9" stroke="#dc2626" stroke-width="1"/><rect x="229.1" y="106.3" width="5.4" height="12.4" fill="#dc2626" opacity="0.82" rx="1"/>
<line x1="240.7" y1="111.3" x2="240.7" y2="139.5" stroke="#dc2626" stroke-width="1"/><rect x="237.9" y="118.6" width="5.4" height="4.3" fill="#dc2626" opacity="0.82" rx="1"/>
<line x1="249.5" y1="113.4" x2="249.5" y2="128.2" stroke="#dc2626" stroke-width="1"/><rect x="246.8" y="122.9" width="5.4" height="1.2" fill="#dc2626" opacity="0.82" rx="1"/>
<line x1="258.4" y1="118.6" x2="258.4" y2="152.1" stroke="#dc2626" stroke-width="1"/><rect x="255.7" y="123.1" width="5.4" height="7.4" fill="#dc2626" opacity="0.82" rx="1"/>
<line x1="267.3" y1="120.9" x2="267.3" y2="144.4" stroke="#16a34a" stroke-width="1"/><rect x="264.6" y="122.6" width="5.4" height="7.9" fill="#16a34a" opacity="0.82" rx="1"/>
<line x1="276.2" y1="90.9" x2="276.2" y2="127.4" stroke="#16a34a" stroke-width="1"/><rect x="273.4" y="102.2" width="5.4" height="20.4" fill="#16a34a" opacity="0.82" rx="1"/>
<line x1="285.0" y1="84.0" x2="285.0" y2="111.6" stroke="#16a34a" stroke-width="1"/><rect x="282.3" y="97.8" width="5.4" height="4.4" fill="#16a34a" opacity="0.82" rx="1"/>
<line x1="293.9" y1="55.1" x2="293.9" y2="103.9" stroke="#16a34a" stroke-width="1"/><rect x="291.2" y="68.8" width="5.4" height="29.0" fill="#16a34a" opacity="0.82" rx="1"/>
<line x1="302.8" y1="64.6" x2="302.8" y2="90.3" stroke="#dc2626" stroke-width="1"/><rect x="300.1" y="68.8" width="5.4" height="4.1" fill="#dc2626" opacity="0.82" rx="1"/>
<line x1="311.7" y1="71.4" x2="311.7" y2="124.0" stroke="#dc2626" stroke-width="1"/><rect x="308.9" y="72.9" width="5.4" height="36.8" fill="#dc2626" opacity="0.82" rx="1"/>
<line x1="320.5" y1="103.1" x2="320.5" y2="119.2" stroke="#16a34a" stroke-width="1"/><rect x="317.8" y="104.3" width="5.4" height="5.4" fill="#16a34a" opacity="0.82" rx="1"/>
<line x1="329.4" y1="99.3" x2="329.4" y2="166.3" stroke="#dc2626" stroke-width="1"/><rect x="326.7" y="104.3" width="5.4" height="49.3" fill="#dc2626" opacity="0.82" rx="1"/>
<line x1="338.3" y1="136.6" x2="338.3" y2="154.7" stroke="#16a34a" stroke-width="1"/><rect x="335.6" y="138.0" width="5.4" height="15.6" fill="#16a34a" opacity="0.82" rx="1"/>
<line x1="347.2" y1="112.9" x2="347.2" y2="158.8" stroke="#dc2626" stroke-width="1"/><rect x="344.4" y="138.0" width="5.4" height="12.6" fill="#dc2626" opacity="0.82" rx="1"/>
<line x1="356.0" y1="143.4" x2="356.0" y2="195.6" stroke="#16a34a" stroke-width="1"/><rect x="353.3" y="146.7" width="5.4" height="3.9" fill="#16a34a" opacity="0.82" rx="1"/>
<line x1="364.9" y1="134.1" x2="364.9" y2="183.6" stroke="#dc2626" stroke-width="1"/><rect x="362.2" y="146.7" width="5.4" height="25.9" fill="#dc2626" opacity="0.82" rx="1"/>
<line x1="373.8" y1="151.2" x2="373.8" y2="174.8" stroke="#16a34a" stroke-width="1"/><rect x="371.1" y="156.8" width="5.4" height="15.9" fill="#16a34a" opacity="0.82" rx="1"/>
<line x1="382.7" y1="140.0" x2="382.7" y2="179.0" stroke="#16a34a" stroke-width="1"/><rect x="380.0" y="148.1" width="5.4" height="8.6" fill="#16a34a" opacity="0.82" rx="1"/>
<line x1="391.6" y1="132.7" x2="391.6" y2="170.5" stroke="#dc2626" stroke-width="1"/><rect x="388.8" y="148.1" width="5.4" height="9.1" fill="#dc2626" opacity="0.82" rx="1"/>
<line x1="400.4" y1="140.8" x2="400.4" y2="157.3" stroke="#16a34a" stroke-width="1"/><rect x="397.7" y="151.1" width="5.4" height="6.1" fill="#16a34a" opacity="0.82" rx="1"/>
<line x1="409.3" y1="146.6" x2="409.3" y2="165.0" stroke="#dc2626" stroke-width="1"/><rect x="406.6" y="151.1" width="5.4" height="7.8" fill="#dc2626" opacity="0.82" rx="1"/>
<line x1="418.2" y1="158.4" x2="418.2" y2="208.9" stroke="#dc2626" stroke-width="1"/><rect x="415.5" y="158.9" width="5.4" height="19.3" fill="#dc2626" opacity="0.82" rx="1"/>
<line x1="427.1" y1="170.1" x2="427.1" y2="201.6" stroke="#16a34a" stroke-width="1"/><rect x="424.3" y="176.5" width="5.4" height="1.7" fill="#16a34a" opacity="0.82" rx="1"/>
<line x1="435.9" y1="141.3" x2="435.9" y2="177.0" stroke="#16a34a" stroke-width="1"/><rect x="433.2" y="148.2" width="5.4" height="28.3" fill="#16a34a" opacity="0.82" rx="1"/>
<line x1="444.8" y1="103.6" x2="444.8" y2="158.8" stroke="#16a34a" stroke-width="1"/><rect x="442.1" y="129.4" width="5.4" height="18.8" fill="#16a34a" opacity="0.82" rx="1"/>
<line x1="453.7" y1="116.2" x2="453.7" y2="144.3" stroke="#dc2626" stroke-width="1"/><rect x="451.0" y="129.4" width="5.4" height="14.0" fill="#dc2626" opacity="0.82" rx="1"/>
<line x1="462.6" y1="138.1" x2="462.6" y2="168.0" stroke="#dc2626" stroke-width="1"/><rect x="459.8" y="143.4" width="5.4" height="11.6" fill="#dc2626" opacity="0.82" rx="1"/>
<line x1="471.4" y1="128.0" x2="471.4" y2="161.1" stroke="#16a34a" stroke-width="1"/><rect x="468.7" y="132.6" width="5.4" height="22.4" fill="#16a34a" opacity="0.82" rx="1"/>
<line x1="480.3" y1="117.3" x2="480.3" y2="152.2" stroke="#dc2626" stroke-width="1"/><rect x="477.6" y="132.6" width="5.4" height="5.7" fill="#dc2626" opacity="0.82" rx="1"/>
<line x1="489.2" y1="138.4" x2="489.2" y2="181.0" stroke="#dc2626" stroke-width="1"/><rect x="486.5" y="138.4" width="5.4" height="28.7" fill="#dc2626" opacity="0.82" rx="1"/>
<line x1="498.1" y1="143.6" x2="498.1" y2="174.8" stroke="#dc2626" stroke-width="1"/><rect x="495.3" y="167.0" width="5.4" height="6.3" fill="#dc2626" opacity="0.82" rx="1"/>
<line x1="506.9" y1="159.6" x2="506.9" y2="200.4" stroke="#dc2626" stroke-width="1"/><rect x="504.2" y="173.3" width="5.4" height="18.5" fill="#dc2626" opacity="0.82" rx="1"/>
<line x1="515.8" y1="183.4" x2="515.8" y2="229.9" stroke="#dc2626" stroke-width="1"/><rect x="513.1" y="191.7" width="5.4" height="24.7" fill="#dc2626" opacity="0.82" rx="1"/>
<line x1="524.7" y1="195.3" x2="524.7" y2="253.2" stroke="#dc2626" stroke-width="1"/><rect x="522.0" y="216.4" width="5.4" height="12.5" fill="#dc2626" opacity="0.82" rx="1"/>
<line x1="533.6" y1="213.5" x2="533.6" y2="240.5" stroke="#16a34a" stroke-width="1"/><rect x="530.9" y="226.0" width="5.4" height="3.0" fill="#16a34a" opacity="0.82" rx="1"/>
<line x1="542.4" y1="216.1" x2="542.4" y2="271.3" stroke="#dc2626" stroke-width="1"/><rect x="539.7" y="226.0" width="5.4" height="16.4" fill="#dc2626" opacity="0.82" rx="1"/>
<line x1="551.3" y1="204.8" x2="551.3" y2="243.4" stroke="#16a34a" stroke-width="1"/><rect x="548.6" y="219.2" width="5.4" height="23.2" fill="#16a34a" opacity="0.82" rx="1"/>
<line x1="560.2" y1="201.4" x2="560.2" y2="261.7" stroke="#dc2626" stroke-width="1"/><rect x="557.5" y="219.2" width="5.4" height="27.5" fill="#dc2626" opacity="0.82" rx="1"/>
<line x1="569.1" y1="187.5" x2="569.1" y2="314.1" stroke="#dc2626" stroke-width="1"/><rect x="566.4" y="246.7" width="5.4" height="48.1" fill="#dc2626" opacity="0.82" rx="1"/>
<line x1="578.0" y1="195.5" x2="578.0" y2="303.0" stroke="#16a34a" stroke-width="1"/><rect x="575.2" y="229.9" width="5.4" height="64.9" fill="#16a34a" opacity="0.82" rx="1"/>
<line x1="586.8" y1="213.6" x2="586.8" y2="302.6" stroke="#16a34a" stroke-width="1"/><rect x="584.1" y="218.8" width="5.4" height="11.1" fill="#16a34a" opacity="0.82" rx="1"/>
<line x1="595.7" y1="214.1" x2="595.7" y2="278.1" stroke="#dc2626" stroke-width="1"/><rect x="593.0" y="218.8" width="5.4" height="28.5" fill="#dc2626" opacity="0.82" rx="1"/>
<line x1="604.6" y1="199.6" x2="604.6" y2="318.9" stroke="#16a34a" stroke-width="1"/><rect x="601.9" y="206.8" width="5.4" height="40.5" fill="#16a34a" opacity="0.82" rx="1"/>
<line x1="613.5" y1="144.8" x2="613.5" y2="206.8" stroke="#16a34a" stroke-width="1"/><rect x="610.7" y="170.2" width="5.4" height="36.6" fill="#16a34a" opacity="0.82" rx="1"/>
<line x1="622.3" y1="168.7" x2="622.3" y2="208.7" stroke="#dc2626" stroke-width="1"/><rect x="619.6" y="170.1" width="5.4" height="27.2" fill="#dc2626" opacity="0.82" rx="1"/>
<line x1="631.2" y1="161.5" x2="631.2" y2="254.0" stroke="#16a34a" stroke-width="1"/><rect x="628.5" y="162.2" width="5.4" height="35.2" fill="#16a34a" opacity="0.82" rx="1"/>
<line x1="640.1" y1="131.4" x2="640.1" y2="169.9" stroke="#dc2626" stroke-width="1"/><rect x="637.4" y="162.2" width="5.4" height="4.0" fill="#dc2626" opacity="0.82" rx="1"/>
<line x1="649.0" y1="152.0" x2="649.0" y2="185.3" stroke="#dc2626" stroke-width="1"/><rect x="646.2" y="166.2" width="5.4" height="6.6" fill="#dc2626" opacity="0.82" rx="1"/>
<line x1="657.8" y1="163.8" x2="657.8" y2="209.2" stroke="#dc2626" stroke-width="1"/><rect x="655.1" y="172.8" width="5.4" height="24.4" fill="#dc2626" opacity="0.82" rx="1"/>
<line x1="666.7" y1="161.3" x2="666.7" y2="204.5" stroke="#16a34a" stroke-width="1"/><rect x="664.0" y="168.7" width="5.4" height="28.5" fill="#16a34a" opacity="0.82" rx="1"/>
<line x1="675.6" y1="136.2" x2="675.6" y2="168.7" stroke="#16a34a" stroke-width="1"/><rect x="672.9" y="164.7" width="5.4" height="4.0" fill="#16a34a" opacity="0.82" rx="1"/>
<line x1="684.5" y1="148.1" x2="684.5" y2="201.9" stroke="#dc2626" stroke-width="1"/><rect x="681.8" y="164.8" width="5.4" height="17.2" fill="#dc2626" opacity="0.82" rx="1"/>
<line x1="693.3" y1="76.3" x2="693.3" y2="229.6" stroke="#dc2626" stroke-width="1"/><rect x="690.6" y="181.9" width="5.4" height="1.2" fill="#dc2626" opacity="0.82" rx="1"/>
<line x1="702.2" y1="132.9" x2="702.2" y2="261.3" stroke="#dc2626" stroke-width="1"/><rect x="699.5" y="182.4" width="5.4" height="46.3" fill="#dc2626" opacity="0.82" rx="1"/>
<line x1="711.1" y1="212.1" x2="711.1" y2="301.4" stroke="#dc2626" stroke-width="1"/><rect x="708.4" y="228.7" width="5.4" height="14.7" fill="#dc2626" opacity="0.82" rx="1"/>
<line x1="720.0" y1="180.4" x2="720.0" y2="291.2" stroke="#16a34a" stroke-width="1"/><rect x="717.3" y="198.1" width="5.4" height="45.3" fill="#16a34a" opacity="0.82" rx="1"/>
<line x1="728.9" y1="172.8" x2="728.9" y2="228.3" stroke="#16a34a" stroke-width="1"/><rect x="726.1" y="189.1" width="5.4" height="9.0" fill="#16a34a" opacity="0.82" rx="1"/>
<line x1="737.7" y1="87.9" x2="737.7" y2="189.1" stroke="#16a34a" stroke-width="1"/><rect x="735.0" y="122.3" width="5.4" height="66.8" fill="#16a34a" opacity="0.82" rx="1"/>
<line x1="746.6" y1="109.1" x2="746.6" y2="153.6" stroke="#dc2626" stroke-width="1"/><rect x="743.9" y="122.3" width="5.4" height="15.3" fill="#dc2626" opacity="0.82" rx="1"/>
<line x1="755.5" y1="104.0" x2="755.5" y2="156.5" stroke="#16a34a" stroke-width="1"/><rect x="752.8" y="120.6" width="5.4" height="17.0" fill="#16a34a" opacity="0.82" rx="1"/>
<line x1="764.4" y1="104.7" x2="764.4" y2="139.0" stroke="#dc2626" stroke-width="1"/><rect x="761.6" y="120.6" width="5.4" height="17.6" fill="#dc2626" opacity="0.82" rx="1"/>
<line x1="773.2" y1="100.8" x2="773.2" y2="143.2" stroke="#16a34a" stroke-width="1"/><rect x="770.5" y="114.8" width="5.4" height="23.4" fill="#16a34a" opacity="0.82" rx="1"/>
<line x1="782.1" y1="110.0" x2="782.1" y2="132.8" stroke="#dc2626" stroke-width="1"/><rect x="779.4" y="114.8" width="5.4" height="16.3" fill="#dc2626" opacity="0.82" rx="1"/>
<line x1="791.0" y1="127.7" x2="791.0" y2="155.6" stroke="#dc2626" stroke-width="1"/><rect x="788.3" y="131.2" width="5.4" height="12.9" fill="#dc2626" opacity="0.82" rx="1"/>
<line x1="799.9" y1="140.9" x2="799.9" y2="215.0" stroke="#dc2626" stroke-width="1"/><rect x="797.1" y="144.1" width="5.4" height="53.2" fill="#dc2626" opacity="0.82" rx="1"/>
<line x1="808.7" y1="169.5" x2="808.7" y2="205.7" stroke="#16a34a" stroke-width="1"/><rect x="806.0" y="182.9" width="5.4" height="14.4" fill="#16a34a" opacity="0.82" rx="1"/>
<line x1="817.6" y1="170.0" x2="817.6" y2="208.3" stroke="#16a34a" stroke-width="1"/><rect x="814.9" y="182.8" width="5.4" height="1.2" fill="#16a34a" opacity="0.82" rx="1"/>
<line x1="826.5" y1="171.7" x2="826.5" y2="227.4" stroke="#dc2626" stroke-width="1"/><rect x="823.8" y="182.8" width="5.4" height="41.2" fill="#dc2626" opacity="0.82" rx="1"/>
<line x1="835.4" y1="214.4" x2="835.4" y2="249.0" stroke="#dc2626" stroke-width="1"/><rect x="832.6" y="224.0" width="5.4" height="17.5" fill="#dc2626" opacity="0.82" rx="1"/>
<line x1="844.2" y1="219.3" x2="844.2" y2="258.0" stroke="#16a34a" stroke-width="1"/><rect x="841.5" y="220.0" width="5.4" height="21.5" fill="#16a34a" opacity="0.82" rx="1"/>
<line x1="853.1" y1="211.0" x2="853.1" y2="237.7" stroke="#dc2626" stroke-width="1"/><rect x="850.4" y="220.0" width="5.4" height="7.1" fill="#dc2626" opacity="0.82" rx="1"/>
<line x1="862.0" y1="222.0" x2="862.0" y2="229.1" stroke="#16a34a" stroke-width="1"/><rect x="859.3" y="223.2" width="5.4" height="4.0" fill="#16a34a" opacity="0.82" rx="1"/>
<line x1="72" y1="280.6" x2="862" y2="280.6" stroke="#16a34a" stroke-width="1.8" stroke-dasharray="6 4" /><rect x="874" y="260.6" width="166" height="23" rx="5" fill="#ffffff" stroke="#16a34a" opacity="0.97"/><text x="881" y="276.6" fill="#16a34a" font-size="15" font-weight="700">日内支撑 59,151</text>
<line x1="72" y1="127.5" x2="862" y2="127.5" stroke="#dc2626" stroke-width="1.8" stroke-dasharray="6 4" /><rect x="874" y="107.5" width="166" height="23" rx="5" fill="#ffffff" stroke="#dc2626" opacity="0.97"/><text x="881" y="123.5" fill="#dc2626" font-size="15" font-weight="700">日内压力 60,356</text>
<line x1="72" y1="223.2" x2="862" y2="223.2" stroke="#111827" stroke-width="1.8" stroke-dasharray="2 2" /><rect x="874" y="203.2" width="166" height="23" rx="5" fill="#ffffff" stroke="#111827" opacity="0.97"/><text x="881" y="219.2" fill="#111827" font-size="15" font-weight="700">现价 59,603</text>
<text x="72" y="396" fill="#16a34a" font-size="14" font-weight="700">日内做多计划</text><rect x="72" y="404" width="790" height="48" rx="6" fill="#f9fafb" stroke="#e5e7eb"/><line x1="94" y1="412" x2="840" y2="412" stroke="#16a34a" stroke-width="3"/><circle cx="132.0" cy="412" r="5" fill="#16a34a"/><text x="132.0" y="434" fill="#374151" font-size="12" text-anchor="middle">入场 止跌/突破回踩</text><circle cx="451.2" cy="412" r="5" fill="#16a34a"/><text x="451.2" y="434" fill="#374151" font-size="12" text-anchor="middle">止损 59,151</text><circle cx="712.0" cy="412" r="5" fill="#16a34a"/><text x="712.0" y="434" fill="#374151" font-size="12" text-anchor="middle">目标一 60,356</text><circle cx="814.0" cy="412" r="5" fill="#16a34a"/><text x="814.0" y="434" fill="#374151" font-size="12" text-anchor="middle">目标二 60,657</text>
<text x="72" y="482" fill="#dc2626" font-size="14" font-weight="700">日内做空计划</text><rect x="72" y="490" width="790" height="48" rx="6" fill="#f9fafb" stroke="#e5e7eb"/><line x1="94" y1="498" x2="840" y2="498" stroke="#dc2626" stroke-width="3"/><circle cx="132.0" cy="498" r="5" fill="#dc2626"/><text x="132.0" y="520" fill="#374151" font-size="12" text-anchor="middle">入场 反弹承压/破位回抽</text><circle cx="451.2" cy="498" r="5" fill="#dc2626"/><text x="451.2" y="520" fill="#374151" font-size="12" text-anchor="middle">止损 60,356</text><circle cx="712.0" cy="498" r="5" fill="#dc2626"/><text x="712.0" y="520" fill="#374151" font-size="12" text-anchor="middle">目标一 59,151</text><circle cx="814.0" cy="498" r="5" fill="#dc2626"/><text x="814.0" y="520" fill="#374151" font-size="12" text-anchor="middle">目标二 58,850</text>
</svg>