<svg xmlns="http://www.w3.org/2000/svg" width="1080" height="560" viewBox="0 0 1080 560">
<rect width="100%" height="100%" fill="#ffffff"/>
<text x="72" y="23" fill="#111827" font-size="21" font-weight="800">BTC 小时线K线支撑压力图</text>
<text x="862" y="42" fill="#374151" font-size="15" text-anchor="end">最新价 60,208</text>
<line x1="72" y1="34" x2="72" y2="340" stroke="#d1d5db"/>
<line x1="72" y1="340" x2="862" y2="340" stroke="#d1d5db"/>
<line x1="72" y1="340.0" x2="862" y2="340.0" stroke="#f3f4f6"/>
<text x="8" y="345.0" fill="#4b5563" font-size="14">58,138</text>
<line x1="72" y1="263.5" x2="862" y2="263.5" stroke="#f3f4f6"/>
<text x="8" y="268.5" fill="#4b5563" font-size="14">59,044</text>
<line x1="72" y1="187.0" x2="862" y2="187.0" stroke="#f3f4f6"/>
<text x="8" y="192.0" fill="#4b5563" font-size="14">59,949</text>
<line x1="72" y1="110.5" x2="862" y2="110.5" stroke="#f3f4f6"/>
<text x="8" y="115.5" fill="#4b5563" font-size="14">60,855</text>
<line x1="72" y1="34.0" x2="862" y2="34.0" stroke="#f3f4f6"/>
<text x="8" y="39.0" fill="#4b5563" font-size="14">61,760</text>
<line x1="72.0" y1="120.7" x2="72.0" y2="161.4" stroke="#16a34a" stroke-width="1"/><rect x="69.3" y="141.2" width="5.4" height="16.2" fill="#16a34a" opacity="0.82" rx="1"/>
<line x1="80.9" y1="136.9" x2="80.9" y2="173.2" stroke="#dc2626" stroke-width="1"/><rect x="78.2" y="141.2" width="5.4" height="23.3" fill="#dc2626" opacity="0.82" rx="1"/>
<line x1="89.8" y1="163.3" x2="89.8" y2="221.2" stroke="#dc2626" stroke-width="1"/><rect x="87.0" y="164.5" width="5.4" height="42.8" fill="#dc2626" opacity="0.82" rx="1"/>
<line x1="98.6" y1="196.7" x2="98.6" y2="249.4" stroke="#dc2626" stroke-width="1"/><rect x="95.9" y="207.3" width="5.4" height="35.4" fill="#dc2626" opacity="0.82" rx="1"/>
<line x1="107.5" y1="219.1" x2="107.5" y2="247.5" stroke="#16a34a" stroke-width="1"/><rect x="104.8" y="234.0" width="5.4" height="8.7" fill="#16a34a" opacity="0.82" rx="1"/>
<line x1="116.4" y1="182.8" x2="116.4" y2="272.3" stroke="#dc2626" stroke-width="1"/><rect x="113.7" y="234.0" width="5.4" height="19.0" fill="#dc2626" opacity="0.82" rx="1"/>
<line x1="125.3" y1="166.7" x2="125.3" y2="318.9" stroke="#16a34a" stroke-width="1"/><rect x="122.5" y="169.7" width="5.4" height="83.3" fill="#16a34a" opacity="0.82" rx="1"/>
<line x1="134.1" y1="159.5" x2="134.1" y2="236.9" stroke="#dc2626" stroke-width="1"/><rect x="131.4" y="169.7" width="5.4" height="49.4" fill="#dc2626" opacity="0.82" rx="1"/>
<line x1="143.0" y1="141.0" x2="143.0" y2="219.9" stroke="#16a34a" stroke-width="1"/><rect x="140.3" y="157.6" width="5.4" height="61.5" fill="#16a34a" opacity="0.82" rx="1"/>
<line x1="151.9" y1="133.7" x2="151.9" y2="188.4" stroke="#dc2626" stroke-width="1"/><rect x="149.2" y="157.6" width="5.4" height="23.6" fill="#dc2626" opacity="0.82" rx="1"/>
<line x1="160.8" y1="159.3" x2="160.8" y2="189.3" stroke="#dc2626" stroke-width="1"/><rect x="158.0" y="181.2" width="5.4" height="1.5" fill="#dc2626" opacity="0.82" rx="1"/>
<line x1="169.6" y1="170.8" x2="169.6" y2="222.4" stroke="#dc2626" stroke-width="1"/><rect x="166.9" y="182.7" width="5.4" height="29.7" fill="#dc2626" opacity="0.82" rx="1"/>
<line x1="178.5" y1="176.1" x2="178.5" y2="217.7" stroke="#16a34a" stroke-width="1"/><rect x="175.8" y="206.4" width="5.4" height="6.0" fill="#16a34a" opacity="0.82" rx="1"/>
<line x1="187.4" y1="185.2" x2="187.4" y2="220.2" stroke="#dc2626" stroke-width="1"/><rect x="184.7" y="206.4" width="5.4" height="2.1" fill="#dc2626" opacity="0.82" rx="1"/>
<line x1="196.3" y1="180.3" x2="196.3" y2="212.3" stroke="#16a34a" stroke-width="1"/><rect x="193.5" y="192.2" width="5.4" height="16.3" fill="#16a34a" opacity="0.82" rx="1"/>
<line x1="205.1" y1="178.4" x2="205.1" y2="206.6" stroke="#16a34a" stroke-width="1"/><rect x="202.4" y="182.1" width="5.4" height="10.1" fill="#16a34a" opacity="0.82" rx="1"/>
<line x1="214.0" y1="175.0" x2="214.0" y2="193.5" stroke="#16a34a" stroke-width="1"/><rect x="211.3" y="176.6" width="5.4" height="5.4" fill="#16a34a" opacity="0.82" rx="1"/>
<line x1="222.9" y1="168.6" x2="222.9" y2="195.7" stroke="#dc2626" stroke-width="1"/><rect x="220.2" y="176.6" width="5.4" height="3.3" fill="#dc2626" opacity="0.82" rx="1"/>
<line x1="231.8" y1="178.7" x2="231.8" y2="190.7" stroke="#dc2626" stroke-width="1"/><rect x="229.1" y="179.9" width="5.4" height="9.7" fill="#dc2626" opacity="0.82" rx="1"/>
<line x1="240.7" y1="153.2" x2="240.7" y2="192.1" stroke="#16a34a" stroke-width="1"/><rect x="237.9" y="161.0" width="5.4" height="28.5" fill="#16a34a" opacity="0.82" rx="1"/>
<line x1="249.5" y1="149.9" x2="249.5" y2="171.3" stroke="#16a34a" stroke-width="1"/><rect x="246.8" y="159.5" width="5.4" height="1.5" fill="#16a34a" opacity="0.82" rx="1"/>
<line x1="258.4" y1="142.8" x2="258.4" y2="166.7" stroke="#dc2626" stroke-width="1"/><rect x="255.7" y="159.5" width="5.4" height="5.0" fill="#dc2626" opacity="0.82" rx="1"/>
<line x1="267.3" y1="158.5" x2="267.3" y2="174.1" stroke="#dc2626" stroke-width="1"/><rect x="264.6" y="164.5" width="5.4" height="1.2" fill="#dc2626" opacity="0.82" rx="1"/>
<line x1="276.2" y1="141.1" x2="276.2" y2="176.4" stroke="#16a34a" stroke-width="1"/><rect x="273.4" y="153.5" width="5.4" height="11.6" fill="#16a34a" opacity="0.82" rx="1"/>
<line x1="285.0" y1="135.6" x2="285.0" y2="160.2" stroke="#16a34a" stroke-width="1"/><rect x="282.3" y="138.6" width="5.4" height="15.0" fill="#16a34a" opacity="0.82" rx="1"/>
<line x1="293.9" y1="138.6" x2="293.9" y2="154.3" stroke="#dc2626" stroke-width="1"/><rect x="291.2" y="138.6" width="5.4" height="8.2" fill="#dc2626" opacity="0.82" rx="1"/>
<line x1="302.8" y1="141.9" x2="302.8" y2="160.6" stroke="#dc2626" stroke-width="1"/><rect x="300.1" y="146.8" width="5.4" height="2.9" fill="#dc2626" opacity="0.82" rx="1"/>
<line x1="311.7" y1="143.3" x2="311.7" y2="153.1" stroke="#dc2626" stroke-width="1"/><rect x="308.9" y="149.6" width="5.4" height="1.2" fill="#dc2626" opacity="0.82" rx="1"/>
<line x1="320.5" y1="146.8" x2="320.5" y2="169.0" stroke="#dc2626" stroke-width="1"/><rect x="317.8" y="149.7" width="5.4" height="4.9" fill="#dc2626" opacity="0.82" rx="1"/>
<line x1="329.4" y1="148.3" x2="329.4" y2="163.9" stroke="#16a34a" stroke-width="1"/><rect x="326.7" y="149.4" width="5.4" height="5.2" fill="#16a34a" opacity="0.82" rx="1"/>
<line x1="338.3" y1="128.4" x2="338.3" y2="152.6" stroke="#16a34a" stroke-width="1"/><rect x="335.6" y="135.8" width="5.4" height="13.6" fill="#16a34a" opacity="0.82" rx="1"/>
<line x1="347.2" y1="123.8" x2="347.2" y2="142.1" stroke="#16a34a" stroke-width="1"/><rect x="344.4" y="132.9" width="5.4" height="2.9" fill="#16a34a" opacity="0.82" rx="1"/>
<line x1="356.0" y1="104.6" x2="356.0" y2="137.0" stroke="#16a34a" stroke-width="1"/><rect x="353.3" y="113.7" width="5.4" height="19.3" fill="#16a34a" opacity="0.82" rx="1"/>
<line x1="364.9" y1="110.9" x2="364.9" y2="127.9" stroke="#dc2626" stroke-width="1"/><rect x="362.2" y="113.6" width="5.4" height="2.7" fill="#dc2626" opacity="0.82" rx="1"/>
<line x1="373.8" y1="115.4" x2="373.8" y2="150.3" stroke="#dc2626" stroke-width="1"/><rect x="371.1" y="116.4" width="5.4" height="24.4" fill="#dc2626" opacity="0.82" rx="1"/>
<line x1="382.7" y1="136.5" x2="382.7" y2="147.2" stroke="#16a34a" stroke-width="1"/><rect x="380.0" y="137.3" width="5.4" height="3.6" fill="#16a34a" opacity="0.82" rx="1"/>
<line x1="391.6" y1="134.0" x2="391.6" y2="178.5" stroke="#dc2626" stroke-width="1"/><rect x="388.8" y="137.3" width="5.4" height="32.8" fill="#dc2626" opacity="0.82" rx="1"/>
<line x1="400.4" y1="158.8" x2="400.4" y2="170.7" stroke="#16a34a" stroke-width="1"/><rect x="397.7" y="159.7" width="5.4" height="10.4" fill="#16a34a" opacity="0.82" rx="1"/>
<line x1="409.3" y1="143.0" x2="409.3" y2="173.5" stroke="#dc2626" stroke-width="1"/><rect x="406.6" y="159.7" width="5.4" height="8.4" fill="#dc2626" opacity="0.82" rx="1"/>
<line x1="418.2" y1="163.3" x2="418.2" y2="197.9" stroke="#16a34a" stroke-width="1"/><rect x="415.5" y="165.4" width="5.4" height="2.6" fill="#16a34a" opacity="0.82" rx="1"/>
<line x1="427.1" y1="157.1" x2="427.1" y2="190.0" stroke="#dc2626" stroke-width="1"/><rect x="424.3" y="165.4" width="5.4" height="17.2" fill="#dc2626" opacity="0.82" rx="1"/>
<line x1="435.9" y1="168.4" x2="435.9" y2="184.1" stroke="#16a34a" stroke-width="1"/><rect x="433.2" y="172.1" width="5.4" height="10.5" fill="#16a34a" opacity="0.82" rx="1"/>
<line x1="444.8" y1="161.0" x2="444.8" y2="186.9" stroke="#16a34a" stroke-width="1"/><rect x="442.1" y="166.4" width="5.4" height="5.7" fill="#16a34a" opacity="0.82" rx="1"/>
<line x1="453.7" y1="156.1" x2="453.7" y2="181.2" stroke="#dc2626" stroke-width="1"/><rect x="451.0" y="166.4" width="5.4" height="6.1" fill="#dc2626" opacity="0.82" rx="1"/>
<line x1="462.6" y1="161.5" x2="462.6" y2="172.5" stroke="#16a34a" stroke-width="1"/><rect x="459.8" y="168.4" width="5.4" height="4.1" fill="#16a34a" opacity="0.82" rx="1"/>
<line x1="471.4" y1="165.3" x2="471.4" y2="177.6" stroke="#dc2626" stroke-width="1"/><rect x="468.7" y="168.4" width="5.4" height="5.2" fill="#dc2626" opacity="0.82" rx="1"/>
<line x1="480.3" y1="173.2" x2="480.3" y2="206.8" stroke="#dc2626" stroke-width="1"/><rect x="477.6" y="173.6" width="5.4" height="12.8" fill="#dc2626" opacity="0.82" rx="1"/>
<line x1="489.2" y1="181.0" x2="489.2" y2="201.9" stroke="#16a34a" stroke-width="1"/><rect x="486.5" y="185.2" width="5.4" height="1.2" fill="#16a34a" opacity="0.82" rx="1"/>
<line x1="498.1" y1="161.8" x2="498.1" y2="185.6" stroke="#16a34a" stroke-width="1"/><rect x="495.3" y="166.4" width="5.4" height="18.8" fill="#16a34a" opacity="0.82" rx="1"/>
<line x1="506.9" y1="136.8" x2="506.9" y2="173.4" stroke="#16a34a" stroke-width="1"/><rect x="504.2" y="154.0" width="5.4" height="12.5" fill="#16a34a" opacity="0.82" rx="1"/>
<line x1="515.8" y1="145.2" x2="515.8" y2="163.9" stroke="#dc2626" stroke-width="1"/><rect x="513.1" y="154.0" width="5.4" height="9.3" fill="#dc2626" opacity="0.82" rx="1"/>
<line x1="524.7" y1="159.7" x2="524.7" y2="179.6" stroke="#dc2626" stroke-width="1"/><rect x="522.0" y="163.3" width="5.4" height="7.7" fill="#dc2626" opacity="0.82" rx="1"/>
<line x1="533.6" y1="153.0" x2="533.6" y2="175.0" stroke="#16a34a" stroke-width="1"/><rect x="530.9" y="156.1" width="5.4" height="14.9" fill="#16a34a" opacity="0.82" rx="1"/>
<line x1="542.4" y1="145.9" x2="542.4" y2="169.1" stroke="#dc2626" stroke-width="1"/><rect x="539.7" y="156.1" width="5.4" height="3.8" fill="#dc2626" opacity="0.82" rx="1"/>
<line x1="551.3" y1="159.9" x2="551.3" y2="188.3" stroke="#dc2626" stroke-width="1"/><rect x="548.6" y="159.9" width="5.4" height="19.0" fill="#dc2626" opacity="0.82" rx="1"/>
<line x1="560.2" y1="163.4" x2="560.2" y2="184.1" stroke="#dc2626" stroke-width="1"/><rect x="557.5" y="178.9" width="5.4" height="4.2" fill="#dc2626" opacity="0.82" rx="1"/>
<line x1="569.1" y1="174.0" x2="569.1" y2="201.1" stroke="#dc2626" stroke-width="1"/><rect x="566.4" y="183.1" width="5.4" height="12.3" fill="#dc2626" opacity="0.82" rx="1"/>
<line x1="578.0" y1="189.8" x2="578.0" y2="220.7" stroke="#dc2626" stroke-width="1"/><rect x="575.2" y="195.4" width="5.4" height="16.4" fill="#dc2626" opacity="0.82" rx="1"/>
<line x1="586.8" y1="197.7" x2="586.8" y2="236.2" stroke="#dc2626" stroke-width="1"/><rect x="584.1" y="211.8" width="5.4" height="8.3" fill="#dc2626" opacity="0.82" rx="1"/>
<line x1="595.7" y1="209.8" x2="595.7" y2="227.7" stroke="#16a34a" stroke-width="1"/><rect x="593.0" y="218.1" width="5.4" height="2.0" fill="#16a34a" opacity="0.82" rx="1"/>
<line x1="604.6" y1="211.6" x2="604.6" y2="248.2" stroke="#dc2626" stroke-width="1"/><rect x="601.9" y="218.1" width="5.4" height="10.9" fill="#dc2626" opacity="0.82" rx="1"/>
<line x1="613.5" y1="204.0" x2="613.5" y2="229.7" stroke="#16a34a" stroke-width="1"/><rect x="610.7" y="213.6" width="5.4" height="15.4" fill="#16a34a" opacity="0.82" rx="1"/>
<line x1="622.3" y1="201.8" x2="622.3" y2="241.8" stroke="#dc2626" stroke-width="1"/><rect x="619.6" y="213.6" width="5.4" height="18.2" fill="#dc2626" opacity="0.82" rx="1"/>
<line x1="631.2" y1="192.6" x2="631.2" y2="276.7" stroke="#dc2626" stroke-width="1"/><rect x="628.5" y="231.9" width="5.4" height="31.9" fill="#dc2626" opacity="0.82" rx="1"/>
<line x1="640.1" y1="197.9" x2="640.1" y2="269.3" stroke="#16a34a" stroke-width="1"/><rect x="637.4" y="220.7" width="5.4" height="43.1" fill="#16a34a" opacity="0.82" rx="1"/>
<line x1="649.0" y1="209.9" x2="649.0" y2="269.0" stroke="#16a34a" stroke-width="1"/><rect x="646.2" y="213.3" width="5.4" height="7.4" fill="#16a34a" opacity="0.82" rx="1"/>
<line x1="657.8" y1="210.2" x2="657.8" y2="252.8" stroke="#dc2626" stroke-width="1"/><rect x="655.1" y="213.3" width="5.4" height="19.0" fill="#dc2626" opacity="0.82" rx="1"/>
<line x1="666.7" y1="200.6" x2="666.7" y2="279.9" stroke="#16a34a" stroke-width="1"/><rect x="664.0" y="205.4" width="5.4" height="26.9" fill="#16a34a" opacity="0.82" rx="1"/>
<line x1="675.6" y1="164.2" x2="675.6" y2="205.4" stroke="#16a34a" stroke-width="1"/><rect x="672.9" y="181.0" width="5.4" height="24.3" fill="#16a34a" opacity="0.82" rx="1"/>
<line x1="684.5" y1="180.0" x2="684.5" y2="206.6" stroke="#dc2626" stroke-width="1"/><rect x="681.8" y="181.0" width="5.4" height="18.1" fill="#dc2626" opacity="0.82" rx="1"/>
<line x1="693.3" y1="175.3" x2="693.3" y2="236.7" stroke="#16a34a" stroke-width="1"/><rect x="690.6" y="175.7" width="5.4" height="23.4" fill="#16a34a" opacity="0.82" rx="1"/>
<line x1="702.2" y1="155.2" x2="702.2" y2="180.8" stroke="#dc2626" stroke-width="1"/><rect x="699.5" y="175.7" width="5.4" height="2.7" fill="#dc2626" opacity="0.82" rx="1"/>
<line x1="711.1" y1="169.0" x2="711.1" y2="191.1" stroke="#dc2626" stroke-width="1"/><rect x="708.4" y="178.4" width="5.4" height="4.4" fill="#dc2626" opacity="0.82" rx="1"/>
<line x1="720.0" y1="176.8" x2="720.0" y2="207.0" stroke="#dc2626" stroke-width="1"/><rect x="717.3" y="182.8" width="5.4" height="16.2" fill="#dc2626" opacity="0.82" rx="1"/>
<line x1="728.9" y1="175.2" x2="728.9" y2="203.8" stroke="#16a34a" stroke-width="1"/><rect x="726.1" y="180.1" width="5.4" height="19.0" fill="#16a34a" opacity="0.82" rx="1"/>
<line x1="737.7" y1="158.4" x2="737.7" y2="180.1" stroke="#16a34a" stroke-width="1"/><rect x="735.0" y="177.4" width="5.4" height="2.6" fill="#16a34a" opacity="0.82" rx="1"/>
<line x1="746.6" y1="166.4" x2="746.6" y2="202.1" stroke="#dc2626" stroke-width="1"/><rect x="743.9" y="177.4" width="5.4" height="11.4" fill="#dc2626" opacity="0.82" rx="1"/>
<line x1="755.5" y1="118.6" x2="755.5" y2="220.5" stroke="#dc2626" stroke-width="1"/><rect x="752.8" y="188.9" width="5.4" height="1.2" fill="#dc2626" opacity="0.82" rx="1"/>
<line x1="764.4" y1="156.3" x2="764.4" y2="241.6" stroke="#dc2626" stroke-width="1"/><rect x="761.6" y="189.2" width="5.4" height="30.8" fill="#dc2626" opacity="0.82" rx="1"/>
<line x1="773.2" y1="208.9" x2="773.2" y2="268.2" stroke="#dc2626" stroke-width="1"/><rect x="770.5" y="219.9" width="5.4" height="9.8" fill="#dc2626" opacity="0.82" rx="1"/>
<line x1="782.1" y1="187.8" x2="782.1" y2="261.5" stroke="#16a34a" stroke-width="1"/><rect x="779.4" y="199.6" width="5.4" height="30.1" fill="#16a34a" opacity="0.82" rx="1"/>
<line x1="791.0" y1="182.8" x2="791.0" y2="219.7" stroke="#16a34a" stroke-width="1"/><rect x="788.3" y="193.6" width="5.4" height="6.0" fill="#16a34a" opacity="0.82" rx="1"/>
<line x1="799.9" y1="126.4" x2="799.9" y2="193.6" stroke="#16a34a" stroke-width="1"/><rect x="797.1" y="149.2" width="5.4" height="44.4" fill="#16a34a" opacity="0.82" rx="1"/>
<line x1="808.7" y1="140.4" x2="808.7" y2="170.0" stroke="#dc2626" stroke-width="1"/><rect x="806.0" y="149.2" width="5.4" height="10.2" fill="#dc2626" opacity="0.82" rx="1"/>
<line x1="817.6" y1="137.1" x2="817.6" y2="171.9" stroke="#16a34a" stroke-width="1"/><rect x="814.9" y="148.1" width="5.4" height="11.3" fill="#16a34a" opacity="0.82" rx="1"/>
<line x1="826.5" y1="137.5" x2="826.5" y2="160.3" stroke="#dc2626" stroke-width="1"/><rect x="823.8" y="148.1" width="5.4" height="11.7" fill="#dc2626" opacity="0.82" rx="1"/>
<line x1="835.4" y1="134.9" x2="835.4" y2="163.1" stroke="#16a34a" stroke-width="1"/><rect x="832.6" y="144.3" width="5.4" height="15.5" fill="#16a34a" opacity="0.82" rx="1"/>
<line x1="844.2" y1="141.0" x2="844.2" y2="156.2" stroke="#dc2626" stroke-width="1"/><rect x="841.5" y="144.3" width="5.4" height="10.8" fill="#dc2626" opacity="0.82" rx="1"/>
<line x1="853.1" y1="152.8" x2="853.1" y2="171.4" stroke="#dc2626" stroke-width="1"/><rect x="850.4" y="155.1" width="5.4" height="8.6" fill="#dc2626" opacity="0.82" rx="1"/>
<line x1="862.0" y1="161.6" x2="862.0" y2="168.8" stroke="#dc2626" stroke-width="1"/><rect x="859.3" y="163.7" width="5.4" height="1.4" fill="#dc2626" opacity="0.82" rx="1"/>
<line x1="72" y1="231.2" x2="862" y2="231.2" stroke="#16a34a" stroke-width="1.8" stroke-dasharray="6 4" /><rect x="874" y="211.2" width="166" height="23" rx="5" fill="#ffffff" stroke="#16a34a" opacity="0.97"/><text x="881" y="227.2" fill="#16a34a" font-size="15" font-weight="700">日内支撑 59,426</text>
<line x1="72" y1="55.1" x2="862" y2="55.1" stroke="#dc2626" stroke-width="1.8" stroke-dasharray="6 4" /><rect x="874" y="35.1" width="166" height="23" rx="5" fill="#ffffff" stroke="#dc2626" opacity="0.97"/><text x="881" y="51.1" fill="#dc2626" font-size="15" font-weight="700">日内压力 61,510</text>
<line x1="72" y1="165.2" x2="862" y2="165.2" stroke="#111827" stroke-width="1.8" stroke-dasharray="2 2" /><rect x="874" y="145.2" width="166" height="23" rx="5" fill="#ffffff" stroke="#111827" opacity="0.97"/><text x="881" y="161.2" fill="#111827" font-size="15" font-weight="700">现价 60,208</text>
<text x="72" y="396" fill="#16a34a" font-size="14" font-weight="700">日内做多计划</text><rect x="72" y="404" width="790" height="48" rx="6" fill="#f9fafb" stroke="#e5e7eb"/><line x1="94" y1="412" x2="840" y2="412" stroke="#16a34a" stroke-width="3"/><circle cx="132.0" cy="412" r="5" fill="#16a34a"/><text x="132.0" y="434" fill="#374151" font-size="12" text-anchor="middle">入场 止跌/突破回踩</text><circle cx="451.2" cy="412" r="5" fill="#16a34a"/><text x="451.2" y="434" fill="#374151" font-size="12" text-anchor="middle">止损 59,426</text><circle cx="712.0" cy="412" r="5" fill="#16a34a"/><text x="712.0" y="434" fill="#374151" font-size="12" text-anchor="middle">目标一 61,510</text><circle cx="814.0" cy="412" r="5" fill="#16a34a"/><text x="814.0" y="434" fill="#374151" font-size="12" text-anchor="middle">目标二 62,031</text>
<text x="72" y="482" fill="#dc2626" font-size="14" font-weight="700">日内做空计划</text><rect x="72" y="490" width="790" height="48" rx="6" fill="#f9fafb" stroke="#e5e7eb"/><line x1="94" y1="498" x2="840" y2="498" stroke="#dc2626" stroke-width="3"/><circle cx="132.0" cy="498" r="5" fill="#dc2626"/><text x="132.0" y="520" fill="#374151" font-size="12" text-anchor="middle">入场 反弹承压/破位回抽</text><circle cx="451.2" cy="498" r="5" fill="#dc2626"/><text x="451.2" y="520" fill="#374151" font-size="12" text-anchor="middle">止损 61,510</text><circle cx="712.0" cy="498" r="5" fill="#dc2626"/><text x="712.0" y="520" fill="#374151" font-size="12" text-anchor="middle">目标一 59,426</text><circle cx="814.0" cy="498" r="5" fill="#dc2626"/><text x="814.0" y="520" fill="#374151" font-size="12" text-anchor="middle">目标二 58,905</text>
</svg>