<svg xmlns="http://www.w3.org/2000/svg" width="1080" height="560" viewBox="0 0 1080 560">
<rect width="100%" height="100%" fill="#ffffff"/>
<text x="72" y="23" fill="#111827" font-size="21" font-weight="800">HYPE 日线K线支撑压力图</text>
<text x="862" y="42" fill="#374151" font-size="15" text-anchor="end">最新价 65.60</text>
<line x1="72" y1="34" x2="72" y2="340" stroke="#d1d5db"/>
<line x1="72" y1="340" x2="862" y2="340" stroke="#d1d5db"/>
<line x1="72" y1="340.0" x2="862" y2="340.0" stroke="#f3f4f6"/>
<text x="8" y="345.0" fill="#4b5563" font-size="14">30.94</text>
<line x1="72" y1="263.5" x2="862" y2="263.5" stroke="#f3f4f6"/>
<text x="8" y="268.5" fill="#4b5563" font-size="14">43.56</text>
<line x1="72" y1="187.0" x2="862" y2="187.0" stroke="#f3f4f6"/>
<text x="8" y="192.0" fill="#4b5563" font-size="14">56.18</text>
<line x1="72" y1="110.5" x2="862" y2="110.5" stroke="#f3f4f6"/>
<text x="8" y="115.5" fill="#4b5563" font-size="14">68.80</text>
<line x1="72" y1="34.0" x2="862" y2="34.0" stroke="#f3f4f6"/>
<text x="8" y="39.0" fill="#4b5563" font-size="14">81.43</text>
<line x1="72.0" y1="307.7" x2="72.0" y2="318.9" stroke="#dc2626" stroke-width="1"/><rect x="69.3" y="309.3" width="5.4" height="5.1" fill="#dc2626" opacity="0.82" rx="1"/>
<line x1="80.9" y1="308.7" x2="80.9" y2="315.0" stroke="#16a34a" stroke-width="1"/><rect x="78.2" y="311.8" width="5.4" height="2.5" fill="#16a34a" opacity="0.82" rx="1"/>
<line x1="89.8" y1="306.0" x2="89.8" y2="312.4" stroke="#16a34a" stroke-width="1"/><rect x="87.0" y="307.2" width="5.4" height="4.6" fill="#16a34a" opacity="0.82" rx="1"/>
<line x1="98.6" y1="303.3" x2="98.6" y2="314.7" stroke="#16a34a" stroke-width="1"/><rect x="95.9" y="304.2" width="5.4" height="3.0" fill="#16a34a" opacity="0.82" rx="1"/>
<line x1="107.5" y1="298.7" x2="107.5" y2="309.6" stroke="#dc2626" stroke-width="1"/><rect x="104.8" y="304.1" width="5.4" height="3.5" fill="#dc2626" opacity="0.82" rx="1"/>
<line x1="116.4" y1="290.2" x2="116.4" y2="311.1" stroke="#16a34a" stroke-width="1"/><rect x="113.7" y="293.5" width="5.4" height="14.1" fill="#16a34a" opacity="0.82" rx="1"/>
<line x1="125.3" y1="286.3" x2="125.3" y2="298.7" stroke="#16a34a" stroke-width="1"/><rect x="122.5" y="292.6" width="5.4" height="1.2" fill="#16a34a" opacity="0.82" rx="1"/>
<line x1="134.1" y1="282.7" x2="134.1" y2="296.3" stroke="#16a34a" stroke-width="1"/><rect x="131.4" y="288.4" width="5.4" height="4.2" fill="#16a34a" opacity="0.82" rx="1"/>
<line x1="143.0" y1="271.5" x2="143.0" y2="288.6" stroke="#16a34a" stroke-width="1"/><rect x="140.3" y="275.4" width="5.4" height="12.9" fill="#16a34a" opacity="0.82" rx="1"/>
<line x1="151.9" y1="265.9" x2="151.9" y2="276.1" stroke="#16a34a" stroke-width="1"/><rect x="149.2" y="271.3" width="5.4" height="4.1" fill="#16a34a" opacity="0.82" rx="1"/>
<line x1="160.8" y1="268.0" x2="160.8" y2="283.9" stroke="#dc2626" stroke-width="1"/><rect x="158.0" y="271.3" width="5.4" height="8.7" fill="#dc2626" opacity="0.82" rx="1"/>
<line x1="169.6" y1="257.1" x2="169.6" y2="280.3" stroke="#16a34a" stroke-width="1"/><rect x="166.9" y="258.8" width="5.4" height="21.2" fill="#16a34a" opacity="0.82" rx="1"/>
<line x1="178.5" y1="252.7" x2="178.5" y2="267.4" stroke="#dc2626" stroke-width="1"/><rect x="175.8" y="258.9" width="5.4" height="4.8" fill="#dc2626" opacity="0.82" rx="1"/>
<line x1="187.4" y1="252.0" x2="187.4" y2="266.1" stroke="#16a34a" stroke-width="1"/><rect x="184.7" y="257.0" width="5.4" height="6.7" fill="#16a34a" opacity="0.82" rx="1"/>
<line x1="196.3" y1="250.2" x2="196.3" y2="265.1" stroke="#dc2626" stroke-width="1"/><rect x="193.5" y="257.0" width="5.4" height="5.0" fill="#dc2626" opacity="0.82" rx="1"/>
<line x1="205.1" y1="251.8" x2="205.1" y2="265.9" stroke="#16a34a" stroke-width="1"/><rect x="202.4" y="257.1" width="5.4" height="4.9" fill="#16a34a" opacity="0.82" rx="1"/>
<line x1="214.0" y1="252.0" x2="214.0" y2="262.6" stroke="#dc2626" stroke-width="1"/><rect x="211.3" y="257.1" width="5.4" height="5.1" fill="#dc2626" opacity="0.82" rx="1"/>
<line x1="222.9" y1="261.2" x2="222.9" y2="282.1" stroke="#dc2626" stroke-width="1"/><rect x="220.2" y="262.2" width="5.4" height="18.7" fill="#dc2626" opacity="0.82" rx="1"/>
<line x1="231.8" y1="274.2" x2="231.8" y2="281.7" stroke="#16a34a" stroke-width="1"/><rect x="229.1" y="280.8" width="5.4" height="1.2" fill="#16a34a" opacity="0.82" rx="1"/>
<line x1="240.7" y1="276.4" x2="240.7" y2="291.8" stroke="#dc2626" stroke-width="1"/><rect x="237.9" y="280.8" width="5.4" height="5.7" fill="#dc2626" opacity="0.82" rx="1"/>
<line x1="249.5" y1="274.5" x2="249.5" y2="287.4" stroke="#16a34a" stroke-width="1"/><rect x="246.8" y="278.1" width="5.4" height="8.5" fill="#16a34a" opacity="0.82" rx="1"/>
<line x1="258.4" y1="273.8" x2="258.4" y2="281.9" stroke="#16a34a" stroke-width="1"/><rect x="255.7" y="277.2" width="5.4" height="1.2" fill="#16a34a" opacity="0.82" rx="1"/>
<line x1="267.3" y1="275.8" x2="267.3" y2="280.9" stroke="#dc2626" stroke-width="1"/><rect x="264.6" y="277.1" width="5.4" height="1.2" fill="#dc2626" opacity="0.82" rx="1"/>
<line x1="276.2" y1="273.5" x2="276.2" y2="280.1" stroke="#16a34a" stroke-width="1"/><rect x="273.4" y="276.0" width="5.4" height="2.0" fill="#16a34a" opacity="0.82" rx="1"/>
<line x1="285.0" y1="269.3" x2="285.0" y2="279.3" stroke="#16a34a" stroke-width="1"/><rect x="282.3" y="270.2" width="5.4" height="5.8" fill="#16a34a" opacity="0.82" rx="1"/>
<line x1="293.9" y1="263.5" x2="293.9" y2="277.4" stroke="#dc2626" stroke-width="1"/><rect x="291.2" y="270.2" width="5.4" height="4.9" fill="#dc2626" opacity="0.82" rx="1"/>
<line x1="302.8" y1="274.0" x2="302.8" y2="288.9" stroke="#dc2626" stroke-width="1"/><rect x="300.1" y="275.1" width="5.4" height="9.0" fill="#dc2626" opacity="0.82" rx="1"/>
<line x1="311.7" y1="280.2" x2="311.7" y2="290.2" stroke="#dc2626" stroke-width="1"/><rect x="308.9" y="284.1" width="5.4" height="1.4" fill="#dc2626" opacity="0.82" rx="1"/>
<line x1="320.5" y1="283.1" x2="320.5" y2="292.9" stroke="#dc2626" stroke-width="1"/><rect x="317.8" y="285.5" width="5.4" height="1.5" fill="#dc2626" opacity="0.82" rx="1"/>
<line x1="329.4" y1="278.2" x2="329.4" y2="287.1" stroke="#16a34a" stroke-width="1"/><rect x="326.7" y="278.2" width="5.4" height="8.7" fill="#16a34a" opacity="0.82" rx="1"/>
<line x1="338.3" y1="270.3" x2="338.3" y2="279.1" stroke="#16a34a" stroke-width="1"/><rect x="335.6" y="277.5" width="5.4" height="1.2" fill="#16a34a" opacity="0.82" rx="1"/>
<line x1="347.2" y1="274.6" x2="347.2" y2="281.0" stroke="#16a34a" stroke-width="1"/><rect x="344.4" y="275.7" width="5.4" height="1.8" fill="#16a34a" opacity="0.82" rx="1"/>
<line x1="356.0" y1="269.3" x2="356.0" y2="280.1" stroke="#16a34a" stroke-width="1"/><rect x="353.3" y="274.1" width="5.4" height="1.6" fill="#16a34a" opacity="0.82" rx="1"/>
<line x1="364.9" y1="257.0" x2="364.9" y2="274.4" stroke="#16a34a" stroke-width="1"/><rect x="362.2" y="262.6" width="5.4" height="11.5" fill="#16a34a" opacity="0.82" rx="1"/>
<line x1="373.8" y1="256.2" x2="373.8" y2="267.5" stroke="#dc2626" stroke-width="1"/><rect x="371.1" y="262.6" width="5.4" height="3.5" fill="#dc2626" opacity="0.82" rx="1"/>
<line x1="382.7" y1="263.5" x2="382.7" y2="273.8" stroke="#dc2626" stroke-width="1"/><rect x="380.0" y="266.1" width="5.4" height="3.7" fill="#dc2626" opacity="0.82" rx="1"/>
<line x1="391.6" y1="263.9" x2="391.6" y2="272.7" stroke="#16a34a" stroke-width="1"/><rect x="388.8" y="265.3" width="5.4" height="4.5" fill="#16a34a" opacity="0.82" rx="1"/>
<line x1="400.4" y1="258.3" x2="400.4" y2="267.9" stroke="#dc2626" stroke-width="1"/><rect x="397.7" y="265.3" width="5.4" height="2.2" fill="#dc2626" opacity="0.82" rx="1"/>
<line x1="409.3" y1="262.7" x2="409.3" y2="272.3" stroke="#16a34a" stroke-width="1"/><rect x="406.6" y="266.8" width="5.4" height="1.2" fill="#16a34a" opacity="0.82" rx="1"/>
<line x1="418.2" y1="266.0" x2="418.2" y2="280.1" stroke="#dc2626" stroke-width="1"/><rect x="415.5" y="266.8" width="5.4" height="6.2" fill="#dc2626" opacity="0.82" rx="1"/>
<line x1="427.1" y1="272.7" x2="427.1" y2="286.4" stroke="#dc2626" stroke-width="1"/><rect x="424.3" y="273.0" width="5.4" height="10.6" fill="#dc2626" opacity="0.82" rx="1"/>
<line x1="435.9" y1="280.8" x2="435.9" y2="292.9" stroke="#dc2626" stroke-width="1"/><rect x="433.2" y="283.5" width="5.4" height="8.7" fill="#dc2626" opacity="0.82" rx="1"/>
<line x1="444.8" y1="256.2" x2="444.8" y2="296.2" stroke="#16a34a" stroke-width="1"/><rect x="442.1" y="260.0" width="5.4" height="32.2" fill="#16a34a" opacity="0.82" rx="1"/>
<line x1="453.7" y1="242.3" x2="453.7" y2="268.1" stroke="#16a34a" stroke-width="1"/><rect x="451.0" y="259.9" width="5.4" height="1.2" fill="#16a34a" opacity="0.82" rx="1"/>
<line x1="462.6" y1="257.9" x2="462.6" y2="282.9" stroke="#dc2626" stroke-width="1"/><rect x="459.8" y="259.9" width="5.4" height="14.2" fill="#dc2626" opacity="0.82" rx="1"/>
<line x1="471.4" y1="241.7" x2="471.4" y2="277.0" stroke="#16a34a" stroke-width="1"/><rect x="468.7" y="250.6" width="5.4" height="23.4" fill="#16a34a" opacity="0.82" rx="1"/>
<line x1="480.3" y1="236.6" x2="480.3" y2="259.7" stroke="#16a34a" stroke-width="1"/><rect x="477.6" y="238.1" width="5.4" height="12.6" fill="#16a34a" opacity="0.82" rx="1"/>
<line x1="489.2" y1="231.2" x2="489.2" y2="243.9" stroke="#16a34a" stroke-width="1"/><rect x="486.5" y="236.5" width="5.4" height="1.5" fill="#16a34a" opacity="0.82" rx="1"/>
<line x1="498.1" y1="195.1" x2="498.1" y2="242.2" stroke="#16a34a" stroke-width="1"/><rect x="495.3" y="195.2" width="5.4" height="41.4" fill="#16a34a" opacity="0.82" rx="1"/>
<line x1="506.9" y1="148.1" x2="506.9" y2="195.9" stroke="#16a34a" stroke-width="1"/><rect x="504.2" y="172.5" width="5.4" height="22.8" fill="#16a34a" opacity="0.82" rx="1"/>
<line x1="515.8" y1="152.0" x2="515.8" y2="198.5" stroke="#dc2626" stroke-width="1"/><rect x="513.1" y="172.5" width="5.4" height="24.2" fill="#dc2626" opacity="0.82" rx="1"/>
<line x1="524.7" y1="164.5" x2="524.7" y2="200.2" stroke="#16a34a" stroke-width="1"/><rect x="522.0" y="171.7" width="5.4" height="25.0" fill="#16a34a" opacity="0.82" rx="1"/>
<line x1="533.6" y1="136.6" x2="533.6" y2="172.3" stroke="#16a34a" stroke-width="1"/><rect x="530.9" y="147.2" width="5.4" height="24.5" fill="#16a34a" opacity="0.82" rx="1"/>
<line x1="542.4" y1="140.2" x2="542.4" y2="159.6" stroke="#dc2626" stroke-width="1"/><rect x="539.7" y="147.1" width="5.4" height="10.1" fill="#dc2626" opacity="0.82" rx="1"/>
<line x1="551.3" y1="135.1" x2="551.3" y2="172.7" stroke="#dc2626" stroke-width="1"/><rect x="548.6" y="157.2" width="5.4" height="9.6" fill="#dc2626" opacity="0.82" rx="1"/>
<line x1="560.2" y1="143.8" x2="560.2" y2="181.7" stroke="#dc2626" stroke-width="1"/><rect x="557.5" y="166.8" width="5.4" height="11.5" fill="#dc2626" opacity="0.82" rx="1"/>
<line x1="569.1" y1="150.9" x2="569.1" y2="186.6" stroke="#16a34a" stroke-width="1"/><rect x="566.4" y="154.7" width="5.4" height="23.7" fill="#16a34a" opacity="0.82" rx="1"/>
<line x1="578.0" y1="118.9" x2="578.0" y2="161.9" stroke="#16a34a" stroke-width="1"/><rect x="575.2" y="137.1" width="5.4" height="17.5" fill="#16a34a" opacity="0.82" rx="1"/>
<line x1="586.8" y1="111.5" x2="586.8" y2="139.6" stroke="#16a34a" stroke-width="1"/><rect x="584.1" y="113.6" width="5.4" height="23.6" fill="#16a34a" opacity="0.82" rx="1"/>
<line x1="595.7" y1="84.4" x2="595.7" y2="118.6" stroke="#16a34a" stroke-width="1"/><rect x="593.0" y="90.8" width="5.4" height="22.7" fill="#16a34a" opacity="0.82" rx="1"/>
<line x1="604.6" y1="67.9" x2="604.6" y2="100.7" stroke="#16a34a" stroke-width="1"/><rect x="601.9" y="81.5" width="5.4" height="9.0" fill="#16a34a" opacity="0.82" rx="1"/>
<line x1="613.5" y1="69.0" x2="613.5" y2="116.4" stroke="#dc2626" stroke-width="1"/><rect x="610.7" y="81.5" width="5.4" height="22.7" fill="#dc2626" opacity="0.82" rx="1"/>
<line x1="622.3" y1="69.3" x2="622.3" y2="113.7" stroke="#16a34a" stroke-width="1"/><rect x="619.6" y="75.5" width="5.4" height="28.7" fill="#16a34a" opacity="0.82" rx="1"/>
<line x1="631.2" y1="69.9" x2="631.2" y2="145.7" stroke="#dc2626" stroke-width="1"/><rect x="628.5" y="75.5" width="5.4" height="61.5" fill="#dc2626" opacity="0.82" rx="1"/>
<line x1="640.1" y1="127.3" x2="640.1" y2="183.9" stroke="#dc2626" stroke-width="1"/><rect x="637.4" y="137.0" width="5.4" height="27.9" fill="#dc2626" opacity="0.82" rx="1"/>
<line x1="649.0" y1="156.5" x2="649.0" y2="191.3" stroke="#dc2626" stroke-width="1"/><rect x="646.2" y="165.0" width="5.4" height="20.0" fill="#dc2626" opacity="0.82" rx="1"/>
<line x1="657.8" y1="161.2" x2="657.8" y2="187.5" stroke="#16a34a" stroke-width="1"/><rect x="655.1" y="165.4" width="5.4" height="19.5" fill="#16a34a" opacity="0.82" rx="1"/>
<line x1="666.7" y1="128.7" x2="666.7" y2="168.1" stroke="#16a34a" stroke-width="1"/><rect x="664.0" y="140.6" width="5.4" height="24.8" fill="#16a34a" opacity="0.82" rx="1"/>
<line x1="675.6" y1="139.4" x2="675.6" y2="180.3" stroke="#dc2626" stroke-width="1"/><rect x="672.9" y="140.6" width="5.4" height="36.8" fill="#dc2626" opacity="0.82" rx="1"/>
<line x1="684.5" y1="173.9" x2="684.5" y2="208.6" stroke="#dc2626" stroke-width="1"/><rect x="681.8" y="177.3" width="5.4" height="27.3" fill="#dc2626" opacity="0.82" rx="1"/>
<line x1="693.3" y1="166.0" x2="693.3" y2="207.2" stroke="#16a34a" stroke-width="1"/><rect x="690.6" y="170.3" width="5.4" height="34.2" fill="#16a34a" opacity="0.82" rx="1"/>
<line x1="702.2" y1="149.2" x2="702.2" y2="183.4" stroke="#16a34a" stroke-width="1"/><rect x="699.5" y="168.3" width="5.4" height="2.0" fill="#16a34a" opacity="0.82" rx="1"/>
<line x1="711.1" y1="158.5" x2="711.1" y2="181.0" stroke="#16a34a" stroke-width="1"/><rect x="708.4" y="159.6" width="5.4" height="8.7" fill="#16a34a" opacity="0.82" rx="1"/>
<line x1="720.0" y1="138.8" x2="720.0" y2="166.3" stroke="#16a34a" stroke-width="1"/><rect x="717.3" y="140.1" width="5.4" height="19.6" fill="#16a34a" opacity="0.82" rx="1"/>
<line x1="728.9" y1="111.1" x2="728.9" y2="145.0" stroke="#16a34a" stroke-width="1"/><rect x="726.1" y="122.1" width="5.4" height="18.0" fill="#16a34a" opacity="0.82" rx="1"/>
<line x1="737.7" y1="60.8" x2="737.7" y2="125.3" stroke="#16a34a" stroke-width="1"/><rect x="735.0" y="81.6" width="5.4" height="40.5" fill="#16a34a" opacity="0.82" rx="1"/>
<line x1="746.6" y1="62.2" x2="746.6" y2="103.6" stroke="#dc2626" stroke-width="1"/><rect x="743.9" y="81.6" width="5.4" height="14.8" fill="#dc2626" opacity="0.82" rx="1"/>
<line x1="755.5" y1="80.7" x2="755.5" y2="124.2" stroke="#dc2626" stroke-width="1"/><rect x="752.8" y="96.3" width="5.4" height="17.0" fill="#dc2626" opacity="0.82" rx="1"/>
<line x1="764.4" y1="94.8" x2="764.4" y2="129.7" stroke="#16a34a" stroke-width="1"/><rect x="761.6" y="101.7" width="5.4" height="11.6" fill="#16a34a" opacity="0.82" rx="1"/>
<line x1="773.2" y1="94.6" x2="773.2" y2="112.9" stroke="#16a34a" stroke-width="1"/><rect x="770.5" y="98.8" width="5.4" height="2.9" fill="#16a34a" opacity="0.82" rx="1"/>
<line x1="782.1" y1="97.7" x2="782.1" y2="124.3" stroke="#dc2626" stroke-width="1"/><rect x="779.4" y="98.8" width="5.4" height="23.3" fill="#dc2626" opacity="0.82" rx="1"/>
<line x1="791.0" y1="105.8" x2="791.0" y2="133.0" stroke="#dc2626" stroke-width="1"/><rect x="788.3" y="122.0" width="5.4" height="3.9" fill="#dc2626" opacity="0.82" rx="1"/>
<line x1="799.9" y1="119.3" x2="799.9" y2="154.0" stroke="#dc2626" stroke-width="1"/><rect x="797.1" y="126.0" width="5.4" height="24.9" fill="#dc2626" opacity="0.82" rx="1"/>
<line x1="808.7" y1="138.0" x2="808.7" y2="169.6" stroke="#16a34a" stroke-width="1"/><rect x="806.0" y="140.3" width="5.4" height="10.5" fill="#16a34a" opacity="0.82" rx="1"/>
<line x1="817.6" y1="131.1" x2="817.6" y2="174.0" stroke="#16a34a" stroke-width="1"/><rect x="814.9" y="139.2" width="5.4" height="1.2" fill="#16a34a" opacity="0.82" rx="1"/>
<line x1="826.5" y1="131.0" x2="826.5" y2="158.5" stroke="#16a34a" stroke-width="1"/><rect x="823.8" y="137.6" width="5.4" height="1.6" fill="#16a34a" opacity="0.82" rx="1"/>
<line x1="835.4" y1="135.3" x2="835.4" y2="155.1" stroke="#dc2626" stroke-width="1"/><rect x="832.6" y="137.6" width="5.4" height="16.5" fill="#dc2626" opacity="0.82" rx="1"/>
<line x1="844.2" y1="142.6" x2="844.2" y2="160.5" stroke="#dc2626" stroke-width="1"/><rect x="841.5" y="154.0" width="5.4" height="1.3" fill="#dc2626" opacity="0.82" rx="1"/>
<line x1="853.1" y1="116.8" x2="853.1" y2="159.7" stroke="#16a34a" stroke-width="1"/><rect x="850.4" y="122.0" width="5.4" height="33.3" fill="#16a34a" opacity="0.82" rx="1"/>
<line x1="862.0" y1="121.8" x2="862.0" y2="131.5" stroke="#dc2626" stroke-width="1"/><rect x="859.3" y="122.1" width="5.4" height="7.8" fill="#dc2626" opacity="0.82" rx="1"/>
<line x1="72" y1="174.8" x2="862" y2="174.8" stroke="#16a34a" stroke-width="1.8" stroke-dasharray="6 4" /><rect x="874" y="154.8" width="166" height="23" rx="5" fill="#ffffff" stroke="#16a34a" opacity="0.97"/><text x="881" y="170.8" fill="#16a34a" font-size="15" font-weight="700">支撑 58.20</text>
<line x1="72" y1="55.1" x2="862" y2="55.1" stroke="#dc2626" stroke-width="1.8" stroke-dasharray="6 4" /><rect x="874" y="35.1" width="166" height="23" rx="5" fill="#ffffff" stroke="#dc2626" opacity="0.97"/><text x="881" y="51.1" fill="#dc2626" font-size="15" font-weight="700">压力 77.94</text>
<line x1="72" y1="129.9" x2="862" y2="129.9" stroke="#111827" stroke-width="1.8" stroke-dasharray="2 2" /><rect x="874" y="109.9" width="166" height="23" rx="5" fill="#ffffff" stroke="#111827" opacity="0.97"/><text x="881" y="125.9" fill="#111827" font-size="15" font-weight="700">现价 65.60</text>
<text x="72" y="396" fill="#16a34a" font-size="14" font-weight="700">日线做多计划</text><rect x="72" y="404" width="790" height="48" rx="6" fill="#f9fafb" stroke="#e5e7eb"/><line x1="94" y1="412" x2="840" y2="412" stroke="#16a34a" stroke-width="3"/><circle cx="132.0" cy="412" r="5" fill="#16a34a"/><text x="132.0" y="434" fill="#374151" font-size="12" text-anchor="middle">入场 止跌/突破回踩</text><circle cx="451.2" cy="412" r="5" fill="#16a34a"/><text x="451.2" y="434" fill="#374151" font-size="12" text-anchor="middle">止损 58.20</text><circle cx="712.0" cy="412" r="5" fill="#16a34a"/><text x="712.0" y="434" fill="#374151" font-size="12" text-anchor="middle">目标一 77.94</text><circle cx="814.0" cy="412" r="5" fill="#16a34a"/><text x="814.0" y="434" fill="#374151" font-size="12" text-anchor="middle">目标二 85.35</text>
<text x="72" y="482" fill="#dc2626" font-size="14" font-weight="700">日线做空计划</text><rect x="72" y="490" width="790" height="48" rx="6" fill="#f9fafb" stroke="#e5e7eb"/><line x1="94" y1="498" x2="840" y2="498" stroke="#dc2626" stroke-width="3"/><circle cx="132.0" cy="498" r="5" fill="#dc2626"/><text x="132.0" y="520" fill="#374151" font-size="12" text-anchor="middle">入场 反弹承压/破位回抽</text><circle cx="451.2" cy="498" r="5" fill="#dc2626"/><text x="451.2" y="520" fill="#374151" font-size="12" text-anchor="middle">止损 77.94</text><circle cx="712.0" cy="498" r="5" fill="#dc2626"/><text x="712.0" y="520" fill="#374151" font-size="12" text-anchor="middle">目标一 58.20</text><circle cx="814.0" cy="498" r="5" fill="#dc2626"/><text x="814.0" y="520" fill="#374151" font-size="12" text-anchor="middle">目标二 53.26</text>
</svg>