<svg xmlns="http://www.w3.org/2000/svg" width="1080" height="560" viewBox="0 0 1080 560">
<rect width="100%" height="100%" fill="#ffffff"/>
<text x="72" y="23" fill="#111827" font-size="21" font-weight="800">HYPE 小时线K线支撑压力图</text>
<text x="862" y="42" fill="#374151" font-size="15" text-anchor="end">最新价 65.60</text>
<line x1="72" y1="34" x2="72" y2="340" stroke="#d1d5db"/>
<line x1="72" y1="340" x2="862" y2="340" stroke="#d1d5db"/>
<line x1="72" y1="340.0" x2="862" y2="340.0" stroke="#f3f4f6"/>
<text x="8" y="345.0" fill="#4b5563" font-size="14">59.97</text>
<line x1="72" y1="263.5" x2="862" y2="263.5" stroke="#f3f4f6"/>
<text x="8" y="268.5" fill="#4b5563" font-size="14">62.09</text>
<line x1="72" y1="187.0" x2="862" y2="187.0" stroke="#f3f4f6"/>
<text x="8" y="192.0" fill="#4b5563" font-size="14">64.20</text>
<line x1="72" y1="110.5" x2="862" y2="110.5" stroke="#f3f4f6"/>
<text x="8" y="115.5" fill="#4b5563" font-size="14">66.32</text>
<line x1="72" y1="34.0" x2="862" y2="34.0" stroke="#f3f4f6"/>
<text x="8" y="39.0" fill="#4b5563" font-size="14">68.44</text>
<line x1="72.0" y1="169.6" x2="72.0" y2="213.8" stroke="#16a34a" stroke-width="1"/><rect x="69.3" y="197.9" width="5.4" height="5.9" fill="#16a34a" opacity="0.82" rx="1"/>
<line x1="80.9" y1="156.5" x2="80.9" y2="200.3" stroke="#16a34a" stroke-width="1"/><rect x="78.2" y="164.6" width="5.4" height="33.1" fill="#16a34a" opacity="0.82" rx="1"/>
<line x1="89.8" y1="146.8" x2="89.8" y2="188.4" stroke="#16a34a" stroke-width="1"/><rect x="87.0" y="160.9" width="5.4" height="3.5" fill="#16a34a" opacity="0.82" rx="1"/>
<line x1="98.6" y1="142.8" x2="98.6" y2="183.4" stroke="#dc2626" stroke-width="1"/><rect x="95.9" y="160.8" width="5.4" height="15.7" fill="#dc2626" opacity="0.82" rx="1"/>
<line x1="107.5" y1="152.2" x2="107.5" y2="198.0" stroke="#dc2626" stroke-width="1"/><rect x="104.8" y="176.4" width="5.4" height="19.4" fill="#dc2626" opacity="0.82" rx="1"/>
<line x1="116.4" y1="146.2" x2="116.4" y2="202.0" stroke="#16a34a" stroke-width="1"/><rect x="113.7" y="169.8" width="5.4" height="25.7" fill="#16a34a" opacity="0.82" rx="1"/>
<line x1="125.3" y1="154.7" x2="125.3" y2="209.9" stroke="#dc2626" stroke-width="1"/><rect x="122.5" y="169.9" width="5.4" height="36.9" fill="#dc2626" opacity="0.82" rx="1"/>
<line x1="134.1" y1="178.6" x2="134.1" y2="223.0" stroke="#16a34a" stroke-width="1"/><rect x="131.4" y="198.1" width="5.4" height="8.7" fill="#16a34a" opacity="0.82" rx="1"/>
<line x1="143.0" y1="188.8" x2="143.0" y2="211.5" stroke="#16a34a" stroke-width="1"/><rect x="140.3" y="188.8" width="5.4" height="9.4" fill="#16a34a" opacity="0.82" rx="1"/>
<line x1="151.9" y1="171.7" x2="151.9" y2="189.7" stroke="#16a34a" stroke-width="1"/><rect x="149.2" y="182.5" width="5.4" height="6.5" fill="#16a34a" opacity="0.82" rx="1"/>
<line x1="160.8" y1="181.2" x2="160.8" y2="222.9" stroke="#dc2626" stroke-width="1"/><rect x="158.0" y="182.3" width="5.4" height="26.2" fill="#dc2626" opacity="0.82" rx="1"/>
<line x1="169.6" y1="204.6" x2="169.6" y2="220.9" stroke="#dc2626" stroke-width="1"/><rect x="166.9" y="208.4" width="5.4" height="8.7" fill="#dc2626" opacity="0.82" rx="1"/>
<line x1="178.5" y1="178.2" x2="178.5" y2="223.5" stroke="#16a34a" stroke-width="1"/><rect x="175.8" y="187.0" width="5.4" height="30.4" fill="#16a34a" opacity="0.82" rx="1"/>
<line x1="187.4" y1="181.4" x2="187.4" y2="200.6" stroke="#dc2626" stroke-width="1"/><rect x="184.7" y="187.1" width="5.4" height="8.6" fill="#dc2626" opacity="0.82" rx="1"/>
<line x1="196.3" y1="168.9" x2="196.3" y2="198.8" stroke="#dc2626" stroke-width="1"/><rect x="193.5" y="196.0" width="5.4" height="1.2" fill="#dc2626" opacity="0.82" rx="1"/>
<line x1="205.1" y1="193.5" x2="205.1" y2="207.2" stroke="#dc2626" stroke-width="1"/><rect x="202.4" y="195.4" width="5.4" height="8.7" fill="#dc2626" opacity="0.82" rx="1"/>
<line x1="214.0" y1="196.7" x2="214.0" y2="227.1" stroke="#dc2626" stroke-width="1"/><rect x="211.3" y="204.1" width="5.4" height="9.3" fill="#dc2626" opacity="0.82" rx="1"/>
<line x1="222.9" y1="202.8" x2="222.9" y2="221.7" stroke="#16a34a" stroke-width="1"/><rect x="220.2" y="210.1" width="5.4" height="3.4" fill="#16a34a" opacity="0.82" rx="1"/>
<line x1="231.8" y1="197.2" x2="231.8" y2="220.4" stroke="#dc2626" stroke-width="1"/><rect x="229.1" y="210.3" width="5.4" height="5.5" fill="#dc2626" opacity="0.82" rx="1"/>
<line x1="240.7" y1="213.7" x2="240.7" y2="244.4" stroke="#dc2626" stroke-width="1"/><rect x="237.9" y="215.7" width="5.4" height="20.0" fill="#dc2626" opacity="0.82" rx="1"/>
<line x1="249.5" y1="222.0" x2="249.5" y2="236.8" stroke="#16a34a" stroke-width="1"/><rect x="246.8" y="222.2" width="5.4" height="13.6" fill="#16a34a" opacity="0.82" rx="1"/>
<line x1="258.4" y1="204.3" x2="258.4" y2="238.8" stroke="#16a34a" stroke-width="1"/><rect x="255.7" y="216.0" width="5.4" height="6.1" fill="#16a34a" opacity="0.82" rx="1"/>
<line x1="267.3" y1="215.6" x2="267.3" y2="236.0" stroke="#dc2626" stroke-width="1"/><rect x="264.6" y="216.3" width="5.4" height="6.3" fill="#dc2626" opacity="0.82" rx="1"/>
<line x1="276.2" y1="196.6" x2="276.2" y2="225.1" stroke="#16a34a" stroke-width="1"/><rect x="273.4" y="206.4" width="5.4" height="15.4" fill="#16a34a" opacity="0.82" rx="1"/>
<line x1="285.0" y1="187.0" x2="285.0" y2="214.2" stroke="#16a34a" stroke-width="1"/><rect x="282.3" y="202.6" width="5.4" height="3.5" fill="#16a34a" opacity="0.82" rx="1"/>
<line x1="293.9" y1="169.5" x2="293.9" y2="202.0" stroke="#16a34a" stroke-width="1"/><rect x="291.2" y="180.1" width="5.4" height="21.9" fill="#16a34a" opacity="0.82" rx="1"/>
<line x1="302.8" y1="179.8" x2="302.8" y2="199.4" stroke="#dc2626" stroke-width="1"/><rect x="300.1" y="180.6" width="5.4" height="7.3" fill="#dc2626" opacity="0.82" rx="1"/>
<line x1="311.7" y1="187.6" x2="311.7" y2="231.4" stroke="#dc2626" stroke-width="1"/><rect x="308.9" y="187.9" width="5.4" height="42.3" fill="#dc2626" opacity="0.82" rx="1"/>
<line x1="320.5" y1="223.4" x2="320.5" y2="237.6" stroke="#dc2626" stroke-width="1"/><rect x="317.8" y="230.1" width="5.4" height="1.2" fill="#dc2626" opacity="0.82" rx="1"/>
<line x1="329.4" y1="225.1" x2="329.4" y2="263.0" stroke="#dc2626" stroke-width="1"/><rect x="326.7" y="230.2" width="5.4" height="30.3" fill="#dc2626" opacity="0.82" rx="1"/>
<line x1="338.3" y1="249.2" x2="338.3" y2="268.4" stroke="#16a34a" stroke-width="1"/><rect x="335.6" y="252.9" width="5.4" height="7.6" fill="#16a34a" opacity="0.82" rx="1"/>
<line x1="347.2" y1="238.0" x2="347.2" y2="259.0" stroke="#16a34a" stroke-width="1"/><rect x="344.4" y="249.7" width="5.4" height="3.2" fill="#16a34a" opacity="0.82" rx="1"/>
<line x1="356.0" y1="245.2" x2="356.0" y2="277.5" stroke="#16a34a" stroke-width="1"/><rect x="353.3" y="245.8" width="5.4" height="3.9" fill="#16a34a" opacity="0.82" rx="1"/>
<line x1="364.9" y1="244.3" x2="364.9" y2="286.8" stroke="#dc2626" stroke-width="1"/><rect x="362.2" y="245.8" width="5.4" height="34.6" fill="#dc2626" opacity="0.82" rx="1"/>
<line x1="373.8" y1="262.3" x2="373.8" y2="283.5" stroke="#16a34a" stroke-width="1"/><rect x="371.1" y="276.3" width="5.4" height="4.0" fill="#16a34a" opacity="0.82" rx="1"/>
<line x1="382.7" y1="264.9" x2="382.7" y2="291.0" stroke="#16a34a" stroke-width="1"/><rect x="380.0" y="269.7" width="5.4" height="6.6" fill="#16a34a" opacity="0.82" rx="1"/>
<line x1="391.6" y1="263.4" x2="391.6" y2="280.1" stroke="#dc2626" stroke-width="1"/><rect x="388.8" y="269.6" width="5.4" height="2.0" fill="#dc2626" opacity="0.82" rx="1"/>
<line x1="400.4" y1="258.9" x2="400.4" y2="272.8" stroke="#16a34a" stroke-width="1"/><rect x="397.7" y="260.1" width="5.4" height="11.0" fill="#16a34a" opacity="0.82" rx="1"/>
<line x1="409.3" y1="257.2" x2="409.3" y2="274.3" stroke="#dc2626" stroke-width="1"/><rect x="406.6" y="260.0" width="5.4" height="10.1" fill="#dc2626" opacity="0.82" rx="1"/>
<line x1="418.2" y1="264.8" x2="418.2" y2="281.1" stroke="#16a34a" stroke-width="1"/><rect x="415.5" y="269.3" width="5.4" height="1.2" fill="#16a34a" opacity="0.82" rx="1"/>
<line x1="427.1" y1="260.3" x2="427.1" y2="282.3" stroke="#16a34a" stroke-width="1"/><rect x="424.3" y="268.7" width="5.4" height="1.2" fill="#16a34a" opacity="0.82" rx="1"/>
<line x1="435.9" y1="243.4" x2="435.9" y2="268.8" stroke="#16a34a" stroke-width="1"/><rect x="433.2" y="244.6" width="5.4" height="24.1" fill="#16a34a" opacity="0.82" rx="1"/>
<line x1="444.8" y1="214.9" x2="444.8" y2="255.8" stroke="#16a34a" stroke-width="1"/><rect x="442.1" y="228.7" width="5.4" height="15.7" fill="#16a34a" opacity="0.82" rx="1"/>
<line x1="453.7" y1="226.6" x2="453.7" y2="239.5" stroke="#dc2626" stroke-width="1"/><rect x="451.0" y="228.3" width="5.4" height="8.8" fill="#dc2626" opacity="0.82" rx="1"/>
<line x1="462.6" y1="227.0" x2="462.6" y2="251.6" stroke="#dc2626" stroke-width="1"/><rect x="459.8" y="237.3" width="5.4" height="1.2" fill="#dc2626" opacity="0.82" rx="1"/>
<line x1="471.4" y1="212.0" x2="471.4" y2="238.3" stroke="#16a34a" stroke-width="1"/><rect x="468.7" y="224.5" width="5.4" height="12.8" fill="#16a34a" opacity="0.82" rx="1"/>
<line x1="480.3" y1="212.9" x2="480.3" y2="237.5" stroke="#dc2626" stroke-width="1"/><rect x="477.6" y="224.5" width="5.4" height="4.6" fill="#dc2626" opacity="0.82" rx="1"/>
<line x1="489.2" y1="221.9" x2="489.2" y2="249.3" stroke="#dc2626" stroke-width="1"/><rect x="486.5" y="229.0" width="5.4" height="10.5" fill="#dc2626" opacity="0.82" rx="1"/>
<line x1="498.1" y1="223.1" x2="498.1" y2="243.0" stroke="#dc2626" stroke-width="1"/><rect x="495.3" y="239.1" width="5.4" height="3.4" fill="#dc2626" opacity="0.82" rx="1"/>
<line x1="506.9" y1="224.6" x2="506.9" y2="246.5" stroke="#16a34a" stroke-width="1"/><rect x="504.2" y="228.8" width="5.4" height="13.7" fill="#16a34a" opacity="0.82" rx="1"/>
<line x1="515.8" y1="223.0" x2="515.8" y2="256.1" stroke="#dc2626" stroke-width="1"/><rect x="513.1" y="228.7" width="5.4" height="16.3" fill="#dc2626" opacity="0.82" rx="1"/>
<line x1="524.7" y1="231.4" x2="524.7" y2="253.6" stroke="#16a34a" stroke-width="1"/><rect x="522.0" y="239.3" width="5.4" height="5.7" fill="#16a34a" opacity="0.82" rx="1"/>
<line x1="533.6" y1="238.1" x2="533.6" y2="272.5" stroke="#dc2626" stroke-width="1"/><rect x="530.9" y="239.1" width="5.4" height="23.9" fill="#dc2626" opacity="0.82" rx="1"/>
<line x1="542.4" y1="258.0" x2="542.4" y2="280.7" stroke="#dc2626" stroke-width="1"/><rect x="539.7" y="263.0" width="5.4" height="5.9" fill="#dc2626" opacity="0.82" rx="1"/>
<line x1="551.3" y1="251.9" x2="551.3" y2="273.5" stroke="#dc2626" stroke-width="1"/><rect x="548.6" y="268.8" width="5.4" height="2.2" fill="#dc2626" opacity="0.82" rx="1"/>
<line x1="560.2" y1="270.7" x2="560.2" y2="315.6" stroke="#dc2626" stroke-width="1"/><rect x="557.5" y="271.1" width="5.4" height="39.6" fill="#dc2626" opacity="0.82" rx="1"/>
<line x1="569.1" y1="285.2" x2="569.1" y2="318.9" stroke="#16a34a" stroke-width="1"/><rect x="566.4" y="309.2" width="5.4" height="2.7" fill="#16a34a" opacity="0.82" rx="1"/>
<line x1="578.0" y1="279.0" x2="578.0" y2="311.5" stroke="#16a34a" stroke-width="1"/><rect x="575.2" y="288.3" width="5.4" height="21.0" fill="#16a34a" opacity="0.82" rx="1"/>
<line x1="586.8" y1="277.7" x2="586.8" y2="314.2" stroke="#16a34a" stroke-width="1"/><rect x="584.1" y="278.4" width="5.4" height="9.6" fill="#16a34a" opacity="0.82" rx="1"/>
<line x1="595.7" y1="266.2" x2="595.7" y2="298.0" stroke="#16a34a" stroke-width="1"/><rect x="593.0" y="269.5" width="5.4" height="9.3" fill="#16a34a" opacity="0.82" rx="1"/>
<line x1="604.6" y1="245.5" x2="604.6" y2="290.6" stroke="#16a34a" stroke-width="1"/><rect x="601.9" y="250.5" width="5.4" height="19.2" fill="#16a34a" opacity="0.82" rx="1"/>
<line x1="613.5" y1="234.8" x2="613.5" y2="259.4" stroke="#16a34a" stroke-width="1"/><rect x="610.7" y="241.1" width="5.4" height="9.2" fill="#16a34a" opacity="0.82" rx="1"/>
<line x1="622.3" y1="237.6" x2="622.3" y2="268.7" stroke="#dc2626" stroke-width="1"/><rect x="619.6" y="241.1" width="5.4" height="24.6" fill="#dc2626" opacity="0.82" rx="1"/>
<line x1="631.2" y1="232.1" x2="631.2" y2="284.0" stroke="#16a34a" stroke-width="1"/><rect x="628.5" y="233.0" width="5.4" height="32.7" fill="#16a34a" opacity="0.82" rx="1"/>
<line x1="640.1" y1="223.4" x2="640.1" y2="243.9" stroke="#dc2626" stroke-width="1"/><rect x="637.4" y="232.9" width="5.4" height="10.9" fill="#dc2626" opacity="0.82" rx="1"/>
<line x1="649.0" y1="234.1" x2="649.0" y2="251.2" stroke="#dc2626" stroke-width="1"/><rect x="646.2" y="243.8" width="5.4" height="2.0" fill="#dc2626" opacity="0.82" rx="1"/>
<line x1="657.8" y1="239.3" x2="657.8" y2="254.7" stroke="#dc2626" stroke-width="1"/><rect x="655.1" y="245.9" width="5.4" height="7.8" fill="#dc2626" opacity="0.82" rx="1"/>
<line x1="666.7" y1="239.4" x2="666.7" y2="256.8" stroke="#16a34a" stroke-width="1"/><rect x="664.0" y="246.0" width="5.4" height="7.5" fill="#16a34a" opacity="0.82" rx="1"/>
<line x1="675.6" y1="200.5" x2="675.6" y2="246.0" stroke="#16a34a" stroke-width="1"/><rect x="672.9" y="207.7" width="5.4" height="38.3" fill="#16a34a" opacity="0.82" rx="1"/>
<line x1="684.5" y1="205.8" x2="684.5" y2="235.0" stroke="#dc2626" stroke-width="1"/><rect x="681.8" y="207.7" width="5.4" height="9.6" fill="#dc2626" opacity="0.82" rx="1"/>
<line x1="693.3" y1="172.9" x2="693.3" y2="227.2" stroke="#16a34a" stroke-width="1"/><rect x="690.6" y="202.1" width="5.4" height="15.3" fill="#16a34a" opacity="0.82" rx="1"/>
<line x1="702.2" y1="159.6" x2="702.2" y2="226.3" stroke="#16a34a" stroke-width="1"/><rect x="699.5" y="198.0" width="5.4" height="4.0" fill="#16a34a" opacity="0.82" rx="1"/>
<line x1="711.1" y1="178.1" x2="711.1" y2="223.0" stroke="#16a34a" stroke-width="1"/><rect x="708.4" y="181.3" width="5.4" height="16.7" fill="#16a34a" opacity="0.82" rx="1"/>
<line x1="720.0" y1="160.5" x2="720.0" y2="205.2" stroke="#16a34a" stroke-width="1"/><rect x="717.3" y="163.9" width="5.4" height="17.2" fill="#16a34a" opacity="0.82" rx="1"/>
<line x1="728.9" y1="148.5" x2="728.9" y2="186.6" stroke="#dc2626" stroke-width="1"/><rect x="726.1" y="163.8" width="5.4" height="6.2" fill="#dc2626" opacity="0.82" rx="1"/>
<line x1="737.7" y1="91.1" x2="737.7" y2="170.3" stroke="#16a34a" stroke-width="1"/><rect x="735.0" y="109.8" width="5.4" height="60.6" fill="#16a34a" opacity="0.82" rx="1"/>
<line x1="746.6" y1="107.6" x2="746.6" y2="136.0" stroke="#dc2626" stroke-width="1"/><rect x="743.9" y="109.8" width="5.4" height="20.9" fill="#dc2626" opacity="0.82" rx="1"/>
<line x1="755.5" y1="82.3" x2="755.5" y2="145.8" stroke="#16a34a" stroke-width="1"/><rect x="752.8" y="90.2" width="5.4" height="40.5" fill="#16a34a" opacity="0.82" rx="1"/>
<line x1="764.4" y1="87.5" x2="764.4" y2="112.3" stroke="#dc2626" stroke-width="1"/><rect x="761.6" y="90.4" width="5.4" height="21.2" fill="#dc2626" opacity="0.82" rx="1"/>
<line x1="773.2" y1="59.4" x2="773.2" y2="114.8" stroke="#16a34a" stroke-width="1"/><rect x="770.5" y="67.5" width="5.4" height="44.1" fill="#16a34a" opacity="0.82" rx="1"/>
<line x1="782.1" y1="58.6" x2="782.1" y2="98.0" stroke="#dc2626" stroke-width="1"/><rect x="779.4" y="67.5" width="5.4" height="21.3" fill="#dc2626" opacity="0.82" rx="1"/>
<line x1="791.0" y1="77.7" x2="791.0" y2="100.8" stroke="#dc2626" stroke-width="1"/><rect x="788.3" y="88.4" width="5.4" height="1.2" fill="#dc2626" opacity="0.82" rx="1"/>
<line x1="799.9" y1="88.5" x2="799.9" y2="134.3" stroke="#dc2626" stroke-width="1"/><rect x="797.1" y="90.2" width="5.4" height="32.4" fill="#dc2626" opacity="0.82" rx="1"/>
<line x1="808.7" y1="103.8" x2="808.7" y2="141.2" stroke="#16a34a" stroke-width="1"/><rect x="806.0" y="109.1" width="5.4" height="13.3" fill="#16a34a" opacity="0.82" rx="1"/>
<line x1="817.6" y1="107.1" x2="817.6" y2="138.3" stroke="#dc2626" stroke-width="1"/><rect x="814.9" y="109.0" width="5.4" height="24.5" fill="#dc2626" opacity="0.82" rx="1"/>
<line x1="826.5" y1="117.9" x2="826.5" y2="133.7" stroke="#16a34a" stroke-width="1"/><rect x="823.8" y="132.4" width="5.4" height="1.2" fill="#16a34a" opacity="0.82" rx="1"/>
<line x1="835.4" y1="105.9" x2="835.4" y2="139.9" stroke="#16a34a" stroke-width="1"/><rect x="832.6" y="115.7" width="5.4" height="16.7" fill="#16a34a" opacity="0.82" rx="1"/>
<line x1="844.2" y1="111.9" x2="844.2" y2="134.7" stroke="#dc2626" stroke-width="1"/><rect x="841.5" y="115.7" width="5.4" height="5.7" fill="#dc2626" opacity="0.82" rx="1"/>
<line x1="853.1" y1="121.0" x2="853.1" y2="146.0" stroke="#dc2626" stroke-width="1"/><rect x="850.4" y="121.4" width="5.4" height="20.2" fill="#dc2626" opacity="0.82" rx="1"/>
<line x1="862.0" y1="136.2" x2="862.0" y2="145.5" stroke="#16a34a" stroke-width="1"/><rect x="859.3" y="136.5" width="5.4" height="5.3" fill="#16a34a" opacity="0.82" rx="1"/>
<line x1="72" y1="185.3" x2="862" y2="185.3" stroke="#16a34a" stroke-width="1.8" stroke-dasharray="6 4" /><rect x="874" y="165.3" width="166" height="23" rx="5" fill="#ffffff" stroke="#16a34a" opacity="0.97"/><text x="881" y="181.3" fill="#16a34a" font-size="15" font-weight="700">日内支撑 64.25</text>
<line x1="72" y1="55.1" x2="862" y2="55.1" stroke="#dc2626" stroke-width="1.8" stroke-dasharray="6 4" /><rect x="874" y="35.1" width="166" height="23" rx="5" fill="#ffffff" stroke="#dc2626" opacity="0.97"/><text x="881" y="51.1" fill="#dc2626" font-size="15" font-weight="700">日内压力 67.86</text>
<line x1="72" y1="136.5" x2="862" y2="136.5" stroke="#111827" stroke-width="1.8" stroke-dasharray="2 2" /><rect x="874" y="116.5" width="166" height="23" rx="5" fill="#ffffff" stroke="#111827" opacity="0.97"/><text x="881" y="132.5" fill="#111827" font-size="15" font-weight="700">现价 65.60</text>
<text x="72" y="396" fill="#16a34a" font-size="14" font-weight="700">日内做多计划</text><rect x="72" y="404" width="790" height="48" rx="6" fill="#f9fafb" stroke="#e5e7eb"/><line x1="94" y1="412" x2="840" y2="412" stroke="#16a34a" stroke-width="3"/><circle cx="132.0" cy="412" r="5" fill="#16a34a"/><text x="132.0" y="434" fill="#374151" font-size="12" text-anchor="middle">入场 止跌/突破回踩</text><circle cx="451.2" cy="412" r="5" fill="#16a34a"/><text x="451.2" y="434" fill="#374151" font-size="12" text-anchor="middle">止损 64.25</text><circle cx="712.0" cy="412" r="5" fill="#16a34a"/><text x="712.0" y="434" fill="#374151" font-size="12" text-anchor="middle">目标一 67.86</text><circle cx="814.0" cy="412" r="5" fill="#16a34a"/><text x="814.0" y="434" fill="#374151" font-size="12" text-anchor="middle">目标二 68.76</text>
<text x="72" y="482" fill="#dc2626" font-size="14" font-weight="700">日内做空计划</text><rect x="72" y="490" width="790" height="48" rx="6" fill="#f9fafb" stroke="#e5e7eb"/><line x1="94" y1="498" x2="840" y2="498" stroke="#dc2626" stroke-width="3"/><circle cx="132.0" cy="498" r="5" fill="#dc2626"/><text x="132.0" y="520" fill="#374151" font-size="12" text-anchor="middle">入场 反弹承压/破位回抽</text><circle cx="451.2" cy="498" r="5" fill="#dc2626"/><text x="451.2" y="520" fill="#374151" font-size="12" text-anchor="middle">止损 67.86</text><circle cx="712.0" cy="498" r="5" fill="#dc2626"/><text x="712.0" y="520" fill="#374151" font-size="12" text-anchor="middle">目标一 64.25</text><circle cx="814.0" cy="498" r="5" fill="#dc2626"/><text x="814.0" y="520" fill="#374151" font-size="12" text-anchor="middle">目标二 63.35</text>
</svg>