<svg xmlns="http://www.w3.org/2000/svg" width="1080" height="560" viewBox="0 0 1080 560">
<rect width="100%" height="100%" fill="#ffffff"/>
<text x="72" y="23" fill="#111827" font-size="21" font-weight="800">BTC 日线K线支撑压力图</text>
<text x="862" y="42" fill="#374151" font-size="15" text-anchor="end">最新价 60,208</text>
<line x1="72" y1="34" x2="72" y2="340" stroke="#d1d5db"/>
<line x1="72" y1="340" x2="862" y2="340" stroke="#d1d5db"/>
<line x1="72" y1="340.0" x2="862" y2="340.0" stroke="#f3f4f6"/>
<text x="8" y="345.0" fill="#4b5563" font-size="14">55,040</text>
<line x1="72" y1="263.5" x2="862" y2="263.5" stroke="#f3f4f6"/>
<text x="8" y="268.5" fill="#4b5563" font-size="14">62,502</text>
<line x1="72" y1="187.0" x2="862" y2="187.0" stroke="#f3f4f6"/>
<text x="8" y="192.0" fill="#4b5563" font-size="14">69,964</text>
<line x1="72" y1="110.5" x2="862" y2="110.5" stroke="#f3f4f6"/>
<text x="8" y="115.5" fill="#4b5563" font-size="14">77,425</text>
<line x1="72" y1="34.0" x2="862" y2="34.0" stroke="#f3f4f6"/>
<text x="8" y="39.0" fill="#4b5563" font-size="14">84,887</text>
<line x1="72.0" y1="200.6" x2="72.0" y2="231.0" stroke="#dc2626" stroke-width="1"/><rect x="69.3" y="206.2" width="5.4" height="12.5" fill="#dc2626" opacity="0.82" rx="1"/>
<line x1="80.9" y1="213.8" x2="80.9" y2="225.2" stroke="#16a34a" stroke-width="1"/><rect x="78.2" y="218.1" width="5.4" height="1.2" fill="#16a34a" opacity="0.82" rx="1"/>
<line x1="89.8" y1="211.7" x2="89.8" y2="220.0" stroke="#16a34a" stroke-width="1"/><rect x="87.0" y="214.6" width="5.4" height="3.5" fill="#16a34a" opacity="0.82" rx="1"/>
<line x1="98.6" y1="195.8" x2="98.6" y2="221.7" stroke="#16a34a" stroke-width="1"/><rect x="95.9" y="196.9" width="5.4" height="17.7" fill="#16a34a" opacity="0.82" rx="1"/>
<line x1="107.5" y1="183.2" x2="107.5" y2="204.8" stroke="#dc2626" stroke-width="1"/><rect x="104.8" y="196.9" width="5.4" height="1.8" fill="#dc2626" opacity="0.82" rx="1"/>
<line x1="116.4" y1="158.5" x2="116.4" y2="210.1" stroke="#16a34a" stroke-width="1"/><rect x="113.7" y="167.2" width="5.4" height="31.5" fill="#16a34a" opacity="0.82" rx="1"/>
<line x1="125.3" y1="157.3" x2="125.3" y2="179.7" stroke="#dc2626" stroke-width="1"/><rect x="122.5" y="167.2" width="5.4" height="8.7" fill="#dc2626" opacity="0.82" rx="1"/>
<line x1="134.1" y1="154.6" x2="134.1" y2="182.2" stroke="#16a34a" stroke-width="1"/><rect x="131.4" y="168.7" width="5.4" height="7.3" fill="#16a34a" opacity="0.82" rx="1"/>
<line x1="143.0" y1="151.3" x2="143.0" y2="172.5" stroke="#16a34a" stroke-width="1"/><rect x="140.3" y="156.7" width="5.4" height="12.0" fill="#16a34a" opacity="0.82" rx="1"/>
<line x1="151.9" y1="147.9" x2="151.9" y2="161.5" stroke="#16a34a" stroke-width="1"/><rect x="149.2" y="155.7" width="5.4" height="1.2" fill="#16a34a" opacity="0.82" rx="1"/>
<line x1="160.8" y1="154.9" x2="160.8" y2="181.9" stroke="#dc2626" stroke-width="1"/><rect x="158.0" y="155.7" width="5.4" height="23.6" fill="#dc2626" opacity="0.82" rx="1"/>
<line x1="169.6" y1="136.7" x2="169.6" y2="181.3" stroke="#16a34a" stroke-width="1"/><rect x="166.9" y="141.7" width="5.4" height="37.7" fill="#16a34a" opacity="0.82" rx="1"/>
<line x1="178.5" y1="125.0" x2="178.5" y2="148.0" stroke="#dc2626" stroke-width="1"/><rect x="175.8" y="141.7" width="5.4" height="2.9" fill="#dc2626" opacity="0.82" rx="1"/>
<line x1="187.4" y1="131.0" x2="187.4" y2="151.3" stroke="#16a34a" stroke-width="1"/><rect x="184.7" y="137.7" width="5.4" height="6.9" fill="#16a34a" opacity="0.82" rx="1"/>
<line x1="196.3" y1="130.2" x2="196.3" y2="153.2" stroke="#16a34a" stroke-width="1"/><rect x="193.5" y="134.3" width="5.4" height="3.4" fill="#16a34a" opacity="0.82" rx="1"/>
<line x1="205.1" y1="101.5" x2="205.1" y2="140.7" stroke="#16a34a" stroke-width="1"/><rect x="202.4" y="114.5" width="5.4" height="19.7" fill="#16a34a" opacity="0.82" rx="1"/>
<line x1="214.0" y1="111.0" x2="214.0" y2="131.3" stroke="#dc2626" stroke-width="1"/><rect x="211.3" y="114.5" width="5.4" height="14.1" fill="#dc2626" opacity="0.82" rx="1"/>
<line x1="222.9" y1="123.1" x2="222.9" y2="148.7" stroke="#dc2626" stroke-width="1"/><rect x="220.2" y="128.7" width="5.4" height="19.4" fill="#dc2626" opacity="0.82" rx="1"/>
<line x1="231.8" y1="119.7" x2="231.8" y2="149.0" stroke="#16a34a" stroke-width="1"/><rect x="229.1" y="127.3" width="5.4" height="20.8" fill="#16a34a" opacity="0.82" rx="1"/>
<line x1="240.7" y1="114.9" x2="240.7" y2="137.6" stroke="#16a34a" stroke-width="1"/><rect x="237.9" y="122.2" width="5.4" height="5.1" fill="#16a34a" opacity="0.82" rx="1"/>
<line x1="249.5" y1="89.8" x2="249.5" y2="124.3" stroke="#16a34a" stroke-width="1"/><rect x="246.8" y="103.2" width="5.4" height="19.0" fill="#16a34a" opacity="0.82" rx="1"/>
<line x1="258.4" y1="98.0" x2="258.4" y2="119.9" stroke="#16a34a" stroke-width="1"/><rect x="255.7" y="102.4" width="5.4" height="1.2" fill="#16a34a" opacity="0.82" rx="1"/>
<line x1="267.3" y1="99.0" x2="267.3" y2="112.7" stroke="#dc2626" stroke-width="1"/><rect x="264.6" y="102.4" width="5.4" height="8.4" fill="#dc2626" opacity="0.82" rx="1"/>
<line x1="276.2" y1="106.2" x2="276.2" y2="113.8" stroke="#16a34a" stroke-width="1"/><rect x="273.4" y="108.9" width="5.4" height="1.9" fill="#16a34a" opacity="0.82" rx="1"/>
<line x1="285.0" y1="94.4" x2="285.0" y2="112.0" stroke="#16a34a" stroke-width="1"/><rect x="282.3" y="98.3" width="5.4" height="10.5" fill="#16a34a" opacity="0.82" rx="1"/>
<line x1="293.9" y1="89.7" x2="293.9" y2="121.0" stroke="#dc2626" stroke-width="1"/><rect x="291.2" y="98.3" width="5.4" height="13.2" fill="#dc2626" opacity="0.82" rx="1"/>
<line x1="302.8" y1="110.2" x2="302.8" y2="128.8" stroke="#dc2626" stroke-width="1"/><rect x="300.1" y="111.5" width="5.4" height="10.6" fill="#dc2626" opacity="0.82" rx="1"/>
<line x1="311.7" y1="105.9" x2="311.7" y2="136.7" stroke="#dc2626" stroke-width="1"/><rect x="308.9" y="122.1" width="5.4" height="5.6" fill="#dc2626" opacity="0.82" rx="1"/>
<line x1="320.5" y1="118.7" x2="320.5" y2="132.6" stroke="#16a34a" stroke-width="1"/><rect x="317.8" y="122.0" width="5.4" height="5.7" fill="#16a34a" opacity="0.82" rx="1"/>
<line x1="329.4" y1="95.6" x2="329.4" y2="122.4" stroke="#16a34a" stroke-width="1"/><rect x="326.7" y="102.6" width="5.4" height="19.3" fill="#16a34a" opacity="0.82" rx="1"/>
<line x1="338.3" y1="92.9" x2="338.3" y2="104.8" stroke="#16a34a" stroke-width="1"/><rect x="335.6" y="97.9" width="5.4" height="4.7" fill="#16a34a" opacity="0.82" rx="1"/>
<line x1="347.2" y1="90.0" x2="347.2" y2="104.3" stroke="#dc2626" stroke-width="1"/><rect x="344.4" y="97.9" width="5.4" height="1.3" fill="#dc2626" opacity="0.82" rx="1"/>
<line x1="356.0" y1="76.2" x2="356.0" y2="103.3" stroke="#16a34a" stroke-width="1"/><rect x="353.3" y="85.9" width="5.4" height="13.3" fill="#16a34a" opacity="0.82" rx="1"/>
<line x1="364.9" y1="66.2" x2="364.9" y2="86.6" stroke="#16a34a" stroke-width="1"/><rect x="362.2" y="75.3" width="5.4" height="10.6" fill="#16a34a" opacity="0.82" rx="1"/>
<line x1="373.8" y1="55.1" x2="373.8" y2="77.4" stroke="#16a34a" stroke-width="1"/><rect x="371.1" y="69.9" width="5.4" height="5.4" fill="#16a34a" opacity="0.82" rx="1"/>
<line x1="382.7" y1="66.9" x2="382.7" y2="89.6" stroke="#dc2626" stroke-width="1"/><rect x="380.0" y="69.9" width="5.4" height="14.6" fill="#dc2626" opacity="0.82" rx="1"/>
<line x1="391.6" y1="79.2" x2="391.6" y2="92.9" stroke="#16a34a" stroke-width="1"/><rect x="388.8" y="82.5" width="5.4" height="1.9" fill="#16a34a" opacity="0.82" rx="1"/>
<line x1="400.4" y1="73.4" x2="400.4" y2="83.3" stroke="#16a34a" stroke-width="1"/><rect x="397.7" y="77.6" width="5.4" height="4.9" fill="#16a34a" opacity="0.82" rx="1"/>
<line x1="409.3" y1="58.9" x2="409.3" y2="81.8" stroke="#16a34a" stroke-width="1"/><rect x="406.6" y="61.8" width="5.4" height="15.8" fill="#16a34a" opacity="0.82" rx="1"/>
<line x1="418.2" y1="60.0" x2="418.2" y2="80.1" stroke="#dc2626" stroke-width="1"/><rect x="415.5" y="61.8" width="5.4" height="4.9" fill="#dc2626" opacity="0.82" rx="1"/>
<line x1="427.1" y1="66.1" x2="427.1" y2="86.1" stroke="#dc2626" stroke-width="1"/><rect x="424.3" y="66.7" width="5.4" height="12.7" fill="#dc2626" opacity="0.82" rx="1"/>
<line x1="435.9" y1="71.1" x2="435.9" y2="97.3" stroke="#dc2626" stroke-width="1"/><rect x="433.2" y="79.4" width="5.4" height="12.0" fill="#dc2626" opacity="0.82" rx="1"/>
<line x1="444.8" y1="63.6" x2="444.8" y2="95.7" stroke="#16a34a" stroke-width="1"/><rect x="442.1" y="73.4" width="5.4" height="18.1" fill="#16a34a" opacity="0.82" rx="1"/>
<line x1="453.7" y1="67.5" x2="453.7" y2="98.4" stroke="#dc2626" stroke-width="1"/><rect x="451.0" y="73.4" width="5.4" height="20.2" fill="#dc2626" opacity="0.82" rx="1"/>
<line x1="462.6" y1="92.3" x2="462.6" y2="108.7" stroke="#dc2626" stroke-width="1"/><rect x="459.8" y="93.6" width="5.4" height="9.9" fill="#dc2626" opacity="0.82" rx="1"/>
<line x1="471.4" y1="98.8" x2="471.4" y2="118.3" stroke="#dc2626" stroke-width="1"/><rect x="468.7" y="103.5" width="5.4" height="6.9" fill="#dc2626" opacity="0.82" rx="1"/>
<line x1="480.3" y1="107.1" x2="480.3" y2="125.0" stroke="#dc2626" stroke-width="1"/><rect x="477.6" y="110.4" width="5.4" height="4.8" fill="#dc2626" opacity="0.82" rx="1"/>
<line x1="489.2" y1="110.9" x2="489.2" y2="124.0" stroke="#dc2626" stroke-width="1"/><rect x="486.5" y="115.2" width="5.4" height="1.7" fill="#dc2626" opacity="0.82" rx="1"/>
<line x1="498.1" y1="106.4" x2="498.1" y2="120.1" stroke="#16a34a" stroke-width="1"/><rect x="495.3" y="109.6" width="5.4" height="7.3" fill="#16a34a" opacity="0.82" rx="1"/>
<line x1="506.9" y1="102.8" x2="506.9" y2="118.0" stroke="#16a34a" stroke-width="1"/><rect x="504.2" y="108.9" width="5.4" height="1.2" fill="#16a34a" opacity="0.82" rx="1"/>
<line x1="515.8" y1="106.0" x2="515.8" y2="132.1" stroke="#dc2626" stroke-width="1"/><rect x="513.1" y="108.9" width="5.4" height="21.3" fill="#dc2626" opacity="0.82" rx="1"/>
<line x1="524.7" y1="110.5" x2="524.7" y2="143.5" stroke="#16a34a" stroke-width="1"/><rect x="522.0" y="117.8" width="5.4" height="12.3" fill="#16a34a" opacity="0.82" rx="1"/>
<line x1="533.6" y1="108.7" x2="533.6" y2="124.5" stroke="#16a34a" stroke-width="1"/><rect x="530.9" y="114.6" width="5.4" height="3.2" fill="#16a34a" opacity="0.82" rx="1"/>
<line x1="542.4" y1="105.8" x2="542.4" y2="116.2" stroke="#16a34a" stroke-width="1"/><rect x="539.7" y="112.0" width="5.4" height="2.6" fill="#16a34a" opacity="0.82" rx="1"/>
<line x1="551.3" y1="103.8" x2="551.3" y2="128.8" stroke="#dc2626" stroke-width="1"/><rect x="548.6" y="112.0" width="5.4" height="14.1" fill="#dc2626" opacity="0.82" rx="1"/>
<line x1="560.2" y1="123.5" x2="560.2" y2="143.5" stroke="#dc2626" stroke-width="1"/><rect x="557.5" y="126.1" width="5.4" height="15.3" fill="#dc2626" opacity="0.82" rx="1"/>
<line x1="569.1" y1="139.8" x2="569.1" y2="160.4" stroke="#dc2626" stroke-width="1"/><rect x="566.4" y="141.3" width="5.4" height="8.5" fill="#dc2626" opacity="0.82" rx="1"/>
<line x1="578.0" y1="142.6" x2="578.0" y2="161.7" stroke="#dc2626" stroke-width="1"/><rect x="575.2" y="149.8" width="5.4" height="1.7" fill="#dc2626" opacity="0.82" rx="1"/>
<line x1="586.8" y1="144.5" x2="586.8" y2="154.5" stroke="#16a34a" stroke-width="1"/><rect x="584.1" y="147.1" width="5.4" height="4.4" fill="#16a34a" opacity="0.82" rx="1"/>
<line x1="595.7" y1="143.1" x2="595.7" y2="152.4" stroke="#dc2626" stroke-width="1"/><rect x="593.0" y="147.1" width="5.4" height="2.1" fill="#dc2626" opacity="0.82" rx="1"/>
<line x1="604.6" y1="144.9" x2="604.6" y2="180.0" stroke="#dc2626" stroke-width="1"/><rect x="601.9" y="149.2" width="5.4" height="23.2" fill="#dc2626" opacity="0.82" rx="1"/>
<line x1="613.5" y1="172.3" x2="613.5" y2="226.1" stroke="#dc2626" stroke-width="1"/><rect x="610.7" y="172.4" width="5.4" height="47.8" fill="#dc2626" opacity="0.82" rx="1"/>
<line x1="622.3" y1="212.3" x2="622.3" y2="247.6" stroke="#dc2626" stroke-width="1"/><rect x="619.6" y="220.2" width="5.4" height="26.8" fill="#dc2626" opacity="0.82" rx="1"/>
<line x1="631.2" y1="240.6" x2="631.2" y2="275.4" stroke="#dc2626" stroke-width="1"/><rect x="628.5" y="246.9" width="5.4" height="2.7" fill="#dc2626" opacity="0.82" rx="1"/>
<line x1="640.1" y1="248.6" x2="640.1" y2="298.6" stroke="#dc2626" stroke-width="1"/><rect x="637.4" y="249.6" width="5.4" height="29.0" fill="#dc2626" opacity="0.82" rx="1"/>
<line x1="649.0" y1="273.8" x2="649.0" y2="294.8" stroke="#dc2626" stroke-width="1"/><rect x="646.2" y="278.7" width="5.4" height="1.8" fill="#dc2626" opacity="0.82" rx="1"/>
<line x1="657.8" y1="245.6" x2="657.8" y2="281.9" stroke="#16a34a" stroke-width="1"/><rect x="655.1" y="255.3" width="5.4" height="25.1" fill="#16a34a" opacity="0.82" rx="1"/>
<line x1="666.7" y1="246.3" x2="666.7" y2="264.8" stroke="#dc2626" stroke-width="1"/><rect x="664.0" y="255.3" width="5.4" height="2.5" fill="#dc2626" opacity="0.82" rx="1"/>
<line x1="675.6" y1="253.3" x2="675.6" y2="281.4" stroke="#dc2626" stroke-width="1"/><rect x="672.9" y="257.8" width="5.4" height="14.0" fill="#dc2626" opacity="0.82" rx="1"/>
<line x1="684.5" y1="260.0" x2="684.5" y2="282.1" stroke="#dc2626" stroke-width="1"/><rect x="681.8" y="271.8" width="5.4" height="2.2" fill="#dc2626" opacity="0.82" rx="1"/>
<line x1="693.3" y1="249.0" x2="693.3" y2="273.9" stroke="#16a34a" stroke-width="1"/><rect x="690.6" y="252.3" width="5.4" height="21.7" fill="#16a34a" opacity="0.82" rx="1"/>
<line x1="702.2" y1="244.4" x2="702.2" y2="260.4" stroke="#dc2626" stroke-width="1"/><rect x="699.5" y="252.3" width="5.4" height="1.2" fill="#dc2626" opacity="0.82" rx="1"/>
<line x1="711.1" y1="240.6" x2="711.1" y2="254.7" stroke="#16a34a" stroke-width="1"/><rect x="708.4" y="243.9" width="5.4" height="8.9" fill="#16a34a" opacity="0.82" rx="1"/>
<line x1="720.0" y1="229.9" x2="720.0" y2="251.7" stroke="#16a34a" stroke-width="1"/><rect x="717.3" y="230.7" width="5.4" height="13.2" fill="#16a34a" opacity="0.82" rx="1"/>
<line x1="728.9" y1="214.8" x2="728.9" y2="234.7" stroke="#16a34a" stroke-width="1"/><rect x="726.1" y="224.7" width="5.4" height="6.0" fill="#16a34a" opacity="0.82" rx="1"/>
<line x1="737.7" y1="217.8" x2="737.7" y2="234.5" stroke="#dc2626" stroke-width="1"/><rect x="735.0" y="224.7" width="5.4" height="6.6" fill="#dc2626" opacity="0.82" rx="1"/>
<line x1="746.6" y1="223.3" x2="746.6" y2="249.4" stroke="#dc2626" stroke-width="1"/><rect x="743.9" y="231.3" width="5.4" height="12.0" fill="#dc2626" opacity="0.82" rx="1"/>
<line x1="755.5" y1="240.1" x2="755.5" y2="266.3" stroke="#dc2626" stroke-width="1"/><rect x="752.8" y="243.3" width="5.4" height="15.9" fill="#dc2626" opacity="0.82" rx="1"/>
<line x1="764.4" y1="251.8" x2="764.4" y2="266.2" stroke="#16a34a" stroke-width="1"/><rect x="761.6" y="253.1" width="5.4" height="6.0" fill="#16a34a" opacity="0.82" rx="1"/>
<line x1="773.2" y1="244.3" x2="773.2" y2="257.0" stroke="#16a34a" stroke-width="1"/><rect x="770.5" y="245.4" width="5.4" height="7.8" fill="#16a34a" opacity="0.82" rx="1"/>
<line x1="782.1" y1="242.3" x2="782.1" y2="256.1" stroke="#dc2626" stroke-width="1"/><rect x="779.4" y="245.4" width="5.4" height="10.1" fill="#dc2626" opacity="0.82" rx="1"/>
<line x1="791.0" y1="231.8" x2="791.0" y2="255.5" stroke="#16a34a" stroke-width="1"/><rect x="788.3" y="248.2" width="5.4" height="7.2" fill="#16a34a" opacity="0.82" rx="1"/>
<line x1="799.9" y1="245.6" x2="799.9" y2="270.0" stroke="#dc2626" stroke-width="1"/><rect x="797.1" y="248.2" width="5.4" height="13.3" fill="#dc2626" opacity="0.82" rx="1"/>
<line x1="808.7" y1="256.2" x2="808.7" y2="298.8" stroke="#dc2626" stroke-width="1"/><rect x="806.0" y="261.5" width="5.4" height="16.9" fill="#dc2626" opacity="0.82" rx="1"/>
<line x1="817.6" y1="269.4" x2="817.6" y2="309.3" stroke="#dc2626" stroke-width="1"/><rect x="814.9" y="278.4" width="5.4" height="13.1" fill="#dc2626" opacity="0.82" rx="1"/>
<line x1="826.5" y1="281.6" x2="826.5" y2="306.7" stroke="#16a34a" stroke-width="1"/><rect x="823.8" y="288.4" width="5.4" height="3.1" fill="#16a34a" opacity="0.82" rx="1"/>
<line x1="835.4" y1="279.7" x2="835.4" y2="291.0" stroke="#dc2626" stroke-width="1"/><rect x="832.6" y="288.4" width="5.4" height="1.2" fill="#dc2626" opacity="0.82" rx="1"/>
<line x1="844.2" y1="283.6" x2="844.2" y2="300.6" stroke="#dc2626" stroke-width="1"/><rect x="841.5" y="289.1" width="5.4" height="4.6" fill="#dc2626" opacity="0.82" rx="1"/>
<line x1="853.1" y1="281.4" x2="853.1" y2="300.9" stroke="#16a34a" stroke-width="1"/><rect x="850.4" y="286.8" width="5.4" height="6.9" fill="#16a34a" opacity="0.82" rx="1"/>
<line x1="862.0" y1="286.6" x2="862.0" y2="287.5" stroke="#dc2626" stroke-width="1"/><rect x="859.3" y="286.8" width="5.4" height="1.2" fill="#dc2626" opacity="0.82" rx="1"/>
<line x1="72" y1="318.9" x2="862" y2="318.9" stroke="#16a34a" stroke-width="1.8" stroke-dasharray="6 4" /><rect x="874" y="298.9" width="166" height="23" rx="5" fill="#ffffff" stroke="#16a34a" opacity="0.97"/><text x="881" y="314.9" fill="#16a34a" font-size="15" font-weight="700">支撑 57,099</text>
<line x1="72" y1="233.9" x2="862" y2="233.9" stroke="#dc2626" stroke-width="1.8" stroke-dasharray="6 4" /><rect x="874" y="213.9" width="166" height="23" rx="5" fill="#ffffff" stroke="#dc2626" opacity="0.97"/><text x="881" y="229.9" fill="#dc2626" font-size="15" font-weight="700">压力 65,389</text>
<line x1="72" y1="287.0" x2="862" y2="287.0" stroke="#111827" stroke-width="1.8" stroke-dasharray="2 2" /><rect x="874" y="267.0" width="166" height="23" rx="5" fill="#ffffff" stroke="#111827" opacity="0.97"/><text x="881" y="283.0" fill="#111827" font-size="15" font-weight="700">现价 60,208</text>
<text x="72" y="396" fill="#16a34a" font-size="14" font-weight="700">日线做多计划</text><rect x="72" y="404" width="790" height="48" rx="6" fill="#f9fafb" stroke="#e5e7eb"/><line x1="94" y1="412" x2="840" y2="412" stroke="#16a34a" stroke-width="3"/><circle cx="132.0" cy="412" r="5" fill="#16a34a"/><text x="132.0" y="434" fill="#374151" font-size="12" text-anchor="middle">入场 止跌/突破回踩</text><circle cx="451.2" cy="412" r="5" fill="#16a34a"/><text x="451.2" y="434" fill="#374151" font-size="12" text-anchor="middle">止损 57,099</text><circle cx="712.0" cy="412" r="5" fill="#16a34a"/><text x="712.0" y="434" fill="#374151" font-size="12" text-anchor="middle">目标一 65,389</text><circle cx="814.0" cy="412" r="5" fill="#16a34a"/><text x="814.0" y="434" fill="#374151" font-size="12" text-anchor="middle">目标二 68,498</text>
<text x="72" y="482" fill="#dc2626" font-size="14" font-weight="700">日线做空计划</text><rect x="72" y="490" width="790" height="48" rx="6" fill="#f9fafb" stroke="#e5e7eb"/><line x1="94" y1="498" x2="840" y2="498" stroke="#dc2626" stroke-width="3"/><circle cx="132.0" cy="498" r="5" fill="#dc2626"/><text x="132.0" y="520" fill="#374151" font-size="12" text-anchor="middle">入场 反弹承压/破位回抽</text><circle cx="451.2" cy="498" r="5" fill="#dc2626"/><text x="451.2" y="520" fill="#374151" font-size="12" text-anchor="middle">止损 65,389</text><circle cx="712.0" cy="498" r="5" fill="#dc2626"/><text x="712.0" y="520" fill="#374151" font-size="12" text-anchor="middle">目标一 57,099</text><circle cx="814.0" cy="498" r="5" fill="#dc2626"/><text x="814.0" y="520" fill="#374151" font-size="12" text-anchor="middle">目标二 55,026</text>
</svg>