<svg xmlns="http://www.w3.org/2000/svg" width="1080" height="560" viewBox="0 0 1080 560">
<rect width="100%" height="100%" fill="#ffffff"/>
<text x="72" y="23" fill="#111827" font-size="21" font-weight="800">DRAM 日线K线支撑压力图</text>
<text x="862" y="42" fill="#374151" font-size="15" text-anchor="end">最新价 72.71</text>
<line x1="72" y1="34" x2="72" y2="340" stroke="#d1d5db"/>
<line x1="72" y1="340" x2="862" y2="340" stroke="#d1d5db"/>
<line x1="72" y1="340.0" x2="862" y2="340.0" stroke="#f3f4f6"/>
<text x="8" y="345.0" fill="#4b5563" font-size="14">43.24</text>
<line x1="72" y1="263.5" x2="862" y2="263.5" stroke="#f3f4f6"/>
<text x="8" y="268.5" fill="#4b5563" font-size="14">55.19</text>
<line x1="72" y1="187.0" x2="862" y2="187.0" stroke="#f3f4f6"/>
<text x="8" y="192.0" fill="#4b5563" font-size="14">67.14</text>
<line x1="72" y1="110.5" x2="862" y2="110.5" stroke="#f3f4f6"/>
<text x="8" y="115.5" fill="#4b5563" font-size="14">79.09</text>
<line x1="72" y1="34.0" x2="862" y2="34.0" stroke="#f3f4f6"/>
<text x="8" y="39.0" fill="#4b5563" font-size="14">91.04</text>
<line x1="72.0" y1="284.6" x2="72.0" y2="309.0" stroke="#dc2626" stroke-width="1"/><rect x="67.5" y="288.8" width="9.0" height="9.3" fill="#dc2626" opacity="0.82" rx="1"/>
<line x1="90.4" y1="290.1" x2="90.4" y2="318.9" stroke="#16a34a" stroke-width="1"/><rect x="85.9" y="296.7" width="9.0" height="1.4" fill="#16a34a" opacity="0.82" rx="1"/>
<line x1="108.7" y1="283.6" x2="108.7" y2="309.7" stroke="#16a34a" stroke-width="1"/><rect x="104.2" y="285.7" width="9.0" height="11.1" fill="#16a34a" opacity="0.82" rx="1"/>
<line x1="127.1" y1="263.1" x2="127.1" y2="289.6" stroke="#16a34a" stroke-width="1"/><rect x="122.6" y="265.9" width="9.0" height="19.8" fill="#16a34a" opacity="0.82" rx="1"/>
<line x1="145.5" y1="265.6" x2="145.5" y2="280.2" stroke="#dc2626" stroke-width="1"/><rect x="141.0" y="265.9" width="9.0" height="14.0" fill="#dc2626" opacity="0.82" rx="1"/>
<line x1="163.9" y1="257.9" x2="163.9" y2="294.0" stroke="#16a34a" stroke-width="1"/><rect x="159.4" y="269.2" width="9.0" height="10.6" fill="#16a34a" opacity="0.82" rx="1"/>
<line x1="182.2" y1="257.7" x2="182.2" y2="270.4" stroke="#16a34a" stroke-width="1"/><rect x="177.7" y="262.4" width="9.0" height="6.7" fill="#16a34a" opacity="0.82" rx="1"/>
<line x1="200.6" y1="241.5" x2="200.6" y2="264.1" stroke="#16a34a" stroke-width="1"/><rect x="196.1" y="255.1" width="9.0" height="7.2" fill="#16a34a" opacity="0.82" rx="1"/>
<line x1="219.0" y1="211.6" x2="219.0" y2="266.8" stroke="#16a34a" stroke-width="1"/><rect x="214.5" y="218.6" width="9.0" height="36.6" fill="#16a34a" opacity="0.82" rx="1"/>
<line x1="237.3" y1="209.1" x2="237.3" y2="238.6" stroke="#dc2626" stroke-width="1"/><rect x="232.8" y="218.6" width="9.0" height="16.5" fill="#dc2626" opacity="0.82" rx="1"/>
<line x1="255.7" y1="208.7" x2="255.7" y2="249.1" stroke="#16a34a" stroke-width="1"/><rect x="251.2" y="213.2" width="9.0" height="22.0" fill="#16a34a" opacity="0.82" rx="1"/>
<line x1="274.1" y1="204.9" x2="274.1" y2="222.7" stroke="#16a34a" stroke-width="1"/><rect x="269.6" y="211.5" width="9.0" height="1.5" fill="#16a34a" opacity="0.82" rx="1"/>
<line x1="292.5" y1="194.6" x2="292.5" y2="214.2" stroke="#16a34a" stroke-width="1"/><rect x="288.0" y="195.6" width="9.0" height="15.9" fill="#16a34a" opacity="0.82" rx="1"/>
<line x1="310.8" y1="184.8" x2="310.8" y2="199.3" stroke="#16a34a" stroke-width="1"/><rect x="306.3" y="193.5" width="9.0" height="2.0" fill="#16a34a" opacity="0.82" rx="1"/>
<line x1="329.2" y1="174.6" x2="329.2" y2="204.9" stroke="#16a34a" stroke-width="1"/><rect x="324.7" y="180.2" width="9.0" height="13.1" fill="#16a34a" opacity="0.82" rx="1"/>
<line x1="347.6" y1="167.6" x2="347.6" y2="198.1" stroke="#16a34a" stroke-width="1"/><rect x="343.1" y="172.2" width="9.0" height="8.2" fill="#16a34a" opacity="0.82" rx="1"/>
<line x1="366.0" y1="166.7" x2="366.0" y2="191.8" stroke="#dc2626" stroke-width="1"/><rect x="361.5" y="172.2" width="9.0" height="17.6" fill="#dc2626" opacity="0.82" rx="1"/>
<line x1="384.3" y1="181.4" x2="384.3" y2="212.4" stroke="#dc2626" stroke-width="1"/><rect x="379.8" y="189.8" width="9.0" height="21.4" fill="#dc2626" opacity="0.82" rx="1"/>
<line x1="402.7" y1="206.3" x2="402.7" y2="274.6" stroke="#dc2626" stroke-width="1"/><rect x="398.2" y="211.3" width="9.0" height="50.7" fill="#dc2626" opacity="0.82" rx="1"/>
<line x1="421.1" y1="255.4" x2="421.1" y2="280.7" stroke="#16a34a" stroke-width="1"/><rect x="416.6" y="260.1" width="9.0" height="2.0" fill="#16a34a" opacity="0.82" rx="1"/>
<line x1="439.4" y1="233.8" x2="439.4" y2="264.7" stroke="#16a34a" stroke-width="1"/><rect x="434.9" y="255.5" width="9.0" height="4.7" fill="#16a34a" opacity="0.82" rx="1"/>
<line x1="457.8" y1="222.0" x2="457.8" y2="258.2" stroke="#16a34a" stroke-width="1"/><rect x="453.3" y="227.0" width="9.0" height="28.5" fill="#16a34a" opacity="0.82" rx="1"/>
<line x1="476.2" y1="205.8" x2="476.2" y2="261.9" stroke="#dc2626" stroke-width="1"/><rect x="471.7" y="227.0" width="9.0" height="7.4" fill="#dc2626" opacity="0.82" rx="1"/>
<line x1="494.6" y1="222.9" x2="494.6" y2="261.0" stroke="#dc2626" stroke-width="1"/><rect x="490.1" y="234.4" width="9.0" height="21.1" fill="#dc2626" opacity="0.82" rx="1"/>
<line x1="512.9" y1="189.9" x2="512.9" y2="257.1" stroke="#16a34a" stroke-width="1"/><rect x="508.4" y="194.2" width="9.0" height="61.1" fill="#16a34a" opacity="0.82" rx="1"/>
<line x1="531.3" y1="193.2" x2="531.3" y2="218.3" stroke="#dc2626" stroke-width="1"/><rect x="526.8" y="194.2" width="9.0" height="2.4" fill="#dc2626" opacity="0.82" rx="1"/>
<line x1="549.7" y1="194.4" x2="549.7" y2="207.8" stroke="#16a34a" stroke-width="1"/><rect x="545.2" y="195.8" width="9.0" height="1.2" fill="#16a34a" opacity="0.82" rx="1"/>
<line x1="568.0" y1="173.6" x2="568.0" y2="197.1" stroke="#16a34a" stroke-width="1"/><rect x="563.5" y="179.8" width="9.0" height="15.9" fill="#16a34a" opacity="0.82" rx="1"/>
<line x1="586.4" y1="160.1" x2="586.4" y2="185.5" stroke="#16a34a" stroke-width="1"/><rect x="581.9" y="163.3" width="9.0" height="16.6" fill="#16a34a" opacity="0.82" rx="1"/>
<line x1="604.8" y1="149.0" x2="604.8" y2="182.9" stroke="#dc2626" stroke-width="1"/><rect x="600.3" y="163.4" width="9.0" height="12.4" fill="#dc2626" opacity="0.82" rx="1"/>
<line x1="623.2" y1="147.6" x2="623.2" y2="176.0" stroke="#16a34a" stroke-width="1"/><rect x="618.7" y="152.9" width="9.0" height="22.9" fill="#16a34a" opacity="0.82" rx="1"/>
<line x1="641.5" y1="114.0" x2="641.5" y2="154.5" stroke="#16a34a" stroke-width="1"/><rect x="637.0" y="115.9" width="9.0" height="36.8" fill="#16a34a" opacity="0.82" rx="1"/>
<line x1="659.9" y1="113.1" x2="659.9" y2="137.7" stroke="#dc2626" stroke-width="1"/><rect x="655.4" y="116.0" width="9.0" height="3.8" fill="#dc2626" opacity="0.82" rx="1"/>
<line x1="678.3" y1="99.1" x2="678.3" y2="121.1" stroke="#16a34a" stroke-width="1"/><rect x="673.8" y="104.0" width="9.0" height="16.0" fill="#16a34a" opacity="0.82" rx="1"/>
<line x1="696.7" y1="95.9" x2="696.7" y2="126.8" stroke="#dc2626" stroke-width="1"/><rect x="692.2" y="104.0" width="9.0" height="18.4" fill="#dc2626" opacity="0.82" rx="1"/>
<line x1="715.0" y1="92.1" x2="715.0" y2="136.7" stroke="#16a34a" stroke-width="1"/><rect x="710.5" y="101.5" width="9.0" height="21.0" fill="#16a34a" opacity="0.82" rx="1"/>
<line x1="733.4" y1="100.9" x2="733.4" y2="177.0" stroke="#dc2626" stroke-width="1"/><rect x="728.9" y="101.5" width="9.0" height="63.8" fill="#dc2626" opacity="0.82" rx="1"/>
<line x1="751.8" y1="95.0" x2="751.8" y2="186.4" stroke="#16a34a" stroke-width="1"/><rect x="747.3" y="103.1" width="9.0" height="62.2" fill="#16a34a" opacity="0.82" rx="1"/>
<line x1="770.1" y1="102.2" x2="770.1" y2="146.2" stroke="#dc2626" stroke-width="1"/><rect x="765.6" y="103.0" width="9.0" height="24.0" fill="#dc2626" opacity="0.82" rx="1"/>
<line x1="788.5" y1="124.8" x2="788.5" y2="162.3" stroke="#dc2626" stroke-width="1"/><rect x="784.0" y="126.9" width="9.0" height="27.0" fill="#dc2626" opacity="0.82" rx="1"/>
<line x1="806.9" y1="148.2" x2="806.9" y2="155.7" stroke="#dc2626" stroke-width="1"/><rect x="802.4" y="153.8" width="9.0" height="1.2" fill="#dc2626" opacity="0.82" rx="1"/>
<line x1="825.3" y1="134.9" x2="825.3" y2="158.3" stroke="#16a34a" stroke-width="1"/><rect x="820.8" y="151.3" width="9.0" height="2.9" fill="#16a34a" opacity="0.82" rx="1"/>
<line x1="843.6" y1="147.3" x2="843.6" y2="191.1" stroke="#dc2626" stroke-width="1"/><rect x="839.1" y="151.2" width="9.0" height="6.2" fill="#dc2626" opacity="0.82" rx="1"/>
<line x1="862.0" y1="142.9" x2="862.0" y2="167.4" stroke="#16a34a" stroke-width="1"/><rect x="857.5" y="151.4" width="9.0" height="6.1" fill="#16a34a" opacity="0.82" rx="1"/>
<line x1="72" y1="209.1" x2="862" y2="209.1" stroke="#16a34a" stroke-width="1.8" stroke-dasharray="6 4" /><rect x="874" y="189.1" width="166" height="23" rx="5" fill="#ffffff" stroke="#16a34a" opacity="0.97"/><text x="881" y="205.1" fill="#16a34a" font-size="15" font-weight="700">支撑 63.69</text>
<line x1="72" y1="55.1" x2="862" y2="55.1" stroke="#dc2626" stroke-width="1.8" stroke-dasharray="6 4" /><rect x="874" y="35.1" width="166" height="23" rx="5" fill="#ffffff" stroke="#dc2626" opacity="0.97"/><text x="881" y="51.1" fill="#dc2626" font-size="15" font-weight="700">压力 87.74</text>
<line x1="72" y1="151.4" x2="862" y2="151.4" stroke="#111827" stroke-width="1.8" stroke-dasharray="2 2" /><rect x="874" y="131.4" width="166" height="23" rx="5" fill="#ffffff" stroke="#111827" opacity="0.97"/><text x="881" y="147.4" fill="#111827" font-size="15" font-weight="700">现价 72.71</text>
<text x="72" y="396" fill="#16a34a" font-size="14" font-weight="700">日线做多计划</text><rect x="72" y="404" width="790" height="48" rx="6" fill="#f9fafb" stroke="#e5e7eb"/><line x1="94" y1="412" x2="840" y2="412" stroke="#16a34a" stroke-width="3"/><circle cx="132.0" cy="412" r="5" fill="#16a34a"/><text x="132.0" y="434" fill="#374151" font-size="12" text-anchor="middle">入场 止跌/突破回踩</text><circle cx="451.2" cy="412" r="5" fill="#16a34a"/><text x="451.2" y="434" fill="#374151" font-size="12" text-anchor="middle">止损 63.69</text><circle cx="712.0" cy="412" r="5" fill="#16a34a"/><text x="712.0" y="434" fill="#374151" font-size="12" text-anchor="middle">目标一 87.74</text><circle cx="814.0" cy="412" r="5" fill="#16a34a"/><text x="814.0" y="434" fill="#374151" font-size="12" text-anchor="middle">目标二 96.76</text>
<text x="72" y="482" fill="#dc2626" font-size="14" font-weight="700">日线做空计划</text><rect x="72" y="490" width="790" height="48" rx="6" fill="#f9fafb" stroke="#e5e7eb"/><line x1="94" y1="498" x2="840" y2="498" stroke="#dc2626" stroke-width="3"/><circle cx="132.0" cy="498" r="5" fill="#dc2626"/><text x="132.0" y="520" fill="#374151" font-size="12" text-anchor="middle">入场 反弹承压/破位回抽</text><circle cx="451.2" cy="498" r="5" fill="#dc2626"/><text x="451.2" y="520" fill="#374151" font-size="12" text-anchor="middle">止损 87.74</text><circle cx="712.0" cy="498" r="5" fill="#dc2626"/><text x="712.0" y="520" fill="#374151" font-size="12" text-anchor="middle">目标一 63.69</text><circle cx="814.0" cy="498" r="5" fill="#dc2626"/><text x="814.0" y="520" fill="#374151" font-size="12" text-anchor="middle">目标二 57.68</text>
</svg>