<svg xmlns="http://www.w3.org/2000/svg" width="1080" height="560" viewBox="0 0 1080 560">
<rect width="100%" height="100%" fill="#ffffff"/>
<text x="72" y="23" fill="#111827" font-size="21" font-weight="800">HYPE 小时线K线支撑压力图</text>
<text x="862" y="42" fill="#374151" font-size="15" text-anchor="end">最新价 66.63</text>
<line x1="72" y1="34" x2="72" y2="340" stroke="#d1d5db"/>
<line x1="72" y1="340" x2="862" y2="340" stroke="#d1d5db"/>
<line x1="72" y1="340.0" x2="862" y2="340.0" stroke="#f3f4f6"/>
<text x="8" y="345.0" fill="#4b5563" font-size="14">59.83</text>
<line x1="72" y1="263.5" x2="862" y2="263.5" stroke="#f3f4f6"/>
<text x="8" y="268.5" fill="#4b5563" font-size="14">62.46</text>
<line x1="72" y1="187.0" x2="862" y2="187.0" stroke="#f3f4f6"/>
<text x="8" y="192.0" fill="#4b5563" font-size="14">65.08</text>
<line x1="72" y1="110.5" x2="862" y2="110.5" stroke="#f3f4f6"/>
<text x="8" y="115.5" fill="#4b5563" font-size="14">67.71</text>
<line x1="72" y1="34.0" x2="862" y2="34.0" stroke="#f3f4f6"/>
<text x="8" y="39.0" fill="#4b5563" font-size="14">70.34</text>
<line x1="72.0" y1="187.9" x2="72.0" y2="238.5" stroke="#16a34a" stroke-width="1"/><rect x="69.3" y="189.3" width="5.4" height="38.6" fill="#16a34a" opacity="0.82" rx="1"/>
<line x1="80.9" y1="177.2" x2="80.9" y2="220.7" stroke="#dc2626" stroke-width="1"/><rect x="78.2" y="189.9" width="5.4" height="28.6" fill="#dc2626" opacity="0.82" rx="1"/>
<line x1="89.8" y1="217.9" x2="89.8" y2="260.5" stroke="#dc2626" stroke-width="1"/><rect x="87.0" y="218.2" width="5.4" height="41.5" fill="#dc2626" opacity="0.82" rx="1"/>
<line x1="98.6" y1="259.6" x2="98.6" y2="282.6" stroke="#dc2626" stroke-width="1"/><rect x="95.9" y="259.6" width="5.4" height="19.5" fill="#dc2626" opacity="0.82" rx="1"/>
<line x1="107.5" y1="266.2" x2="107.5" y2="285.4" stroke="#16a34a" stroke-width="1"/><rect x="104.8" y="275.7" width="5.4" height="3.4" fill="#16a34a" opacity="0.82" rx="1"/>
<line x1="116.4" y1="259.3" x2="116.4" y2="304.0" stroke="#dc2626" stroke-width="1"/><rect x="113.7" y="275.7" width="5.4" height="16.8" fill="#dc2626" opacity="0.82" rx="1"/>
<line x1="125.3" y1="222.4" x2="125.3" y2="309.0" stroke="#16a34a" stroke-width="1"/><rect x="122.5" y="226.0" width="5.4" height="66.3" fill="#16a34a" opacity="0.82" rx="1"/>
<line x1="134.1" y1="198.6" x2="134.1" y2="234.2" stroke="#16a34a" stroke-width="1"/><rect x="131.4" y="221.3" width="5.4" height="4.7" fill="#16a34a" opacity="0.82" rx="1"/>
<line x1="143.0" y1="188.0" x2="143.0" y2="223.3" stroke="#16a34a" stroke-width="1"/><rect x="140.3" y="194.5" width="5.4" height="26.7" fill="#16a34a" opacity="0.82" rx="1"/>
<line x1="151.9" y1="180.2" x2="151.9" y2="213.7" stroke="#16a34a" stroke-width="1"/><rect x="149.2" y="191.6" width="5.4" height="2.8" fill="#16a34a" opacity="0.82" rx="1"/>
<line x1="160.8" y1="176.9" x2="160.8" y2="209.7" stroke="#dc2626" stroke-width="1"/><rect x="158.0" y="191.4" width="5.4" height="12.6" fill="#dc2626" opacity="0.82" rx="1"/>
<line x1="169.6" y1="184.5" x2="169.6" y2="221.5" stroke="#dc2626" stroke-width="1"/><rect x="166.9" y="204.1" width="5.4" height="15.6" fill="#dc2626" opacity="0.82" rx="1"/>
<line x1="178.5" y1="179.7" x2="178.5" y2="224.7" stroke="#16a34a" stroke-width="1"/><rect x="175.8" y="198.7" width="5.4" height="20.7" fill="#16a34a" opacity="0.82" rx="1"/>
<line x1="187.4" y1="186.5" x2="187.4" y2="231.0" stroke="#dc2626" stroke-width="1"/><rect x="184.7" y="198.8" width="5.4" height="29.8" fill="#dc2626" opacity="0.82" rx="1"/>
<line x1="196.3" y1="205.8" x2="196.3" y2="241.6" stroke="#16a34a" stroke-width="1"/><rect x="193.5" y="221.5" width="5.4" height="7.0" fill="#16a34a" opacity="0.82" rx="1"/>
<line x1="205.1" y1="214.0" x2="205.1" y2="232.3" stroke="#16a34a" stroke-width="1"/><rect x="202.4" y="214.0" width="5.4" height="7.5" fill="#16a34a" opacity="0.82" rx="1"/>
<line x1="214.0" y1="200.3" x2="214.0" y2="214.8" stroke="#16a34a" stroke-width="1"/><rect x="211.3" y="208.9" width="5.4" height="5.3" fill="#16a34a" opacity="0.82" rx="1"/>
<line x1="222.9" y1="207.9" x2="222.9" y2="241.5" stroke="#dc2626" stroke-width="1"/><rect x="220.2" y="208.8" width="5.4" height="21.1" fill="#dc2626" opacity="0.82" rx="1"/>
<line x1="231.8" y1="226.8" x2="231.8" y2="239.9" stroke="#dc2626" stroke-width="1"/><rect x="229.1" y="229.8" width="5.4" height="7.0" fill="#dc2626" opacity="0.82" rx="1"/>
<line x1="240.7" y1="205.5" x2="240.7" y2="242.0" stroke="#16a34a" stroke-width="1"/><rect x="237.9" y="212.6" width="5.4" height="24.5" fill="#16a34a" opacity="0.82" rx="1"/>
<line x1="249.5" y1="208.1" x2="249.5" y2="223.6" stroke="#dc2626" stroke-width="1"/><rect x="246.8" y="212.7" width="5.4" height="6.9" fill="#dc2626" opacity="0.82" rx="1"/>
<line x1="258.4" y1="198.0" x2="258.4" y2="222.1" stroke="#dc2626" stroke-width="1"/><rect x="255.7" y="219.8" width="5.4" height="1.2" fill="#dc2626" opacity="0.82" rx="1"/>
<line x1="267.3" y1="217.8" x2="267.3" y2="228.9" stroke="#dc2626" stroke-width="1"/><rect x="264.6" y="219.4" width="5.4" height="7.0" fill="#dc2626" opacity="0.82" rx="1"/>
<line x1="276.2" y1="220.4" x2="276.2" y2="244.9" stroke="#dc2626" stroke-width="1"/><rect x="273.4" y="226.4" width="5.4" height="7.5" fill="#dc2626" opacity="0.82" rx="1"/>
<line x1="285.0" y1="225.3" x2="285.0" y2="240.5" stroke="#16a34a" stroke-width="1"/><rect x="282.3" y="231.2" width="5.4" height="2.7" fill="#16a34a" opacity="0.82" rx="1"/>
<line x1="293.9" y1="220.8" x2="293.9" y2="239.5" stroke="#dc2626" stroke-width="1"/><rect x="291.2" y="231.4" width="5.4" height="4.4" fill="#dc2626" opacity="0.82" rx="1"/>
<line x1="302.8" y1="234.1" x2="302.8" y2="258.8" stroke="#dc2626" stroke-width="1"/><rect x="300.1" y="235.7" width="5.4" height="16.1" fill="#dc2626" opacity="0.82" rx="1"/>
<line x1="311.7" y1="240.8" x2="311.7" y2="252.7" stroke="#16a34a" stroke-width="1"/><rect x="308.9" y="241.0" width="5.4" height="11.0" fill="#16a34a" opacity="0.82" rx="1"/>
<line x1="320.5" y1="226.5" x2="320.5" y2="254.3" stroke="#16a34a" stroke-width="1"/><rect x="317.8" y="235.9" width="5.4" height="4.9" fill="#16a34a" opacity="0.82" rx="1"/>
<line x1="329.4" y1="235.6" x2="329.4" y2="252.0" stroke="#dc2626" stroke-width="1"/><rect x="326.7" y="236.2" width="5.4" height="5.1" fill="#dc2626" opacity="0.82" rx="1"/>
<line x1="338.3" y1="220.3" x2="338.3" y2="243.3" stroke="#16a34a" stroke-width="1"/><rect x="335.6" y="228.2" width="5.4" height="12.4" fill="#16a34a" opacity="0.82" rx="1"/>
<line x1="347.2" y1="212.6" x2="347.2" y2="234.5" stroke="#16a34a" stroke-width="1"/><rect x="344.4" y="225.2" width="5.4" height="2.9" fill="#16a34a" opacity="0.82" rx="1"/>
<line x1="356.0" y1="198.4" x2="356.0" y2="224.7" stroke="#16a34a" stroke-width="1"/><rect x="353.3" y="207.0" width="5.4" height="17.6" fill="#16a34a" opacity="0.82" rx="1"/>
<line x1="364.9" y1="206.8" x2="364.9" y2="222.6" stroke="#dc2626" stroke-width="1"/><rect x="362.2" y="207.4" width="5.4" height="5.9" fill="#dc2626" opacity="0.82" rx="1"/>
<line x1="373.8" y1="213.1" x2="373.8" y2="248.4" stroke="#dc2626" stroke-width="1"/><rect x="371.1" y="213.3" width="5.4" height="34.1" fill="#dc2626" opacity="0.82" rx="1"/>
<line x1="382.7" y1="241.9" x2="382.7" y2="253.4" stroke="#dc2626" stroke-width="1"/><rect x="380.0" y="247.3" width="5.4" height="1.2" fill="#dc2626" opacity="0.82" rx="1"/>
<line x1="391.6" y1="243.3" x2="391.6" y2="273.9" stroke="#dc2626" stroke-width="1"/><rect x="388.8" y="247.4" width="5.4" height="24.4" fill="#dc2626" opacity="0.82" rx="1"/>
<line x1="400.4" y1="262.7" x2="400.4" y2="278.2" stroke="#16a34a" stroke-width="1"/><rect x="397.7" y="265.7" width="5.4" height="6.1" fill="#16a34a" opacity="0.82" rx="1"/>
<line x1="409.3" y1="253.7" x2="409.3" y2="270.6" stroke="#16a34a" stroke-width="1"/><rect x="406.6" y="263.1" width="5.4" height="2.6" fill="#16a34a" opacity="0.82" rx="1"/>
<line x1="418.2" y1="259.5" x2="418.2" y2="285.5" stroke="#16a34a" stroke-width="1"/><rect x="415.5" y="260.0" width="5.4" height="3.1" fill="#16a34a" opacity="0.82" rx="1"/>
<line x1="427.1" y1="258.8" x2="427.1" y2="293.0" stroke="#dc2626" stroke-width="1"/><rect x="424.3" y="260.0" width="5.4" height="27.9" fill="#dc2626" opacity="0.82" rx="1"/>
<line x1="435.9" y1="273.3" x2="435.9" y2="290.4" stroke="#16a34a" stroke-width="1"/><rect x="433.2" y="284.6" width="5.4" height="3.2" fill="#16a34a" opacity="0.82" rx="1"/>
<line x1="444.8" y1="275.3" x2="444.8" y2="296.4" stroke="#16a34a" stroke-width="1"/><rect x="442.1" y="279.2" width="5.4" height="5.4" fill="#16a34a" opacity="0.82" rx="1"/>
<line x1="453.7" y1="274.2" x2="453.7" y2="287.6" stroke="#dc2626" stroke-width="1"/><rect x="451.0" y="279.2" width="5.4" height="1.6" fill="#dc2626" opacity="0.82" rx="1"/>
<line x1="462.6" y1="270.5" x2="462.6" y2="281.7" stroke="#16a34a" stroke-width="1"/><rect x="459.8" y="271.5" width="5.4" height="8.9" fill="#16a34a" opacity="0.82" rx="1"/>
<line x1="471.4" y1="269.2" x2="471.4" y2="282.9" stroke="#dc2626" stroke-width="1"/><rect x="468.7" y="271.4" width="5.4" height="8.2" fill="#dc2626" opacity="0.82" rx="1"/>
<line x1="480.3" y1="275.3" x2="480.3" y2="288.4" stroke="#16a34a" stroke-width="1"/><rect x="477.6" y="279.0" width="5.4" height="1.2" fill="#16a34a" opacity="0.82" rx="1"/>
<line x1="489.2" y1="271.7" x2="489.2" y2="289.4" stroke="#16a34a" stroke-width="1"/><rect x="486.5" y="278.4" width="5.4" height="1.2" fill="#16a34a" opacity="0.82" rx="1"/>
<line x1="498.1" y1="258.0" x2="498.1" y2="278.5" stroke="#16a34a" stroke-width="1"/><rect x="495.3" y="259.0" width="5.4" height="19.4" fill="#16a34a" opacity="0.82" rx="1"/>
<line x1="506.9" y1="235.1" x2="506.9" y2="268.0" stroke="#16a34a" stroke-width="1"/><rect x="504.2" y="246.2" width="5.4" height="12.6" fill="#16a34a" opacity="0.82" rx="1"/>
<line x1="515.8" y1="244.5" x2="515.8" y2="254.9" stroke="#dc2626" stroke-width="1"/><rect x="513.1" y="245.9" width="5.4" height="7.1" fill="#dc2626" opacity="0.82" rx="1"/>
<line x1="524.7" y1="244.9" x2="524.7" y2="264.6" stroke="#dc2626" stroke-width="1"/><rect x="522.0" y="253.1" width="5.4" height="1.2" fill="#dc2626" opacity="0.82" rx="1"/>
<line x1="533.6" y1="232.7" x2="533.6" y2="253.9" stroke="#16a34a" stroke-width="1"/><rect x="530.9" y="242.8" width="5.4" height="10.3" fill="#16a34a" opacity="0.82" rx="1"/>
<line x1="542.4" y1="233.4" x2="542.4" y2="253.3" stroke="#dc2626" stroke-width="1"/><rect x="539.7" y="242.8" width="5.4" height="3.7" fill="#dc2626" opacity="0.82" rx="1"/>
<line x1="551.3" y1="240.7" x2="551.3" y2="262.8" stroke="#dc2626" stroke-width="1"/><rect x="548.6" y="246.4" width="5.4" height="8.5" fill="#dc2626" opacity="0.82" rx="1"/>
<line x1="560.2" y1="241.7" x2="560.2" y2="257.7" stroke="#dc2626" stroke-width="1"/><rect x="557.5" y="254.6" width="5.4" height="2.8" fill="#dc2626" opacity="0.82" rx="1"/>
<line x1="569.1" y1="242.9" x2="569.1" y2="260.5" stroke="#16a34a" stroke-width="1"/><rect x="566.4" y="246.3" width="5.4" height="11.1" fill="#16a34a" opacity="0.82" rx="1"/>
<line x1="578.0" y1="241.6" x2="578.0" y2="268.3" stroke="#dc2626" stroke-width="1"/><rect x="575.2" y="246.2" width="5.4" height="13.1" fill="#dc2626" opacity="0.82" rx="1"/>
<line x1="586.8" y1="248.4" x2="586.8" y2="266.2" stroke="#16a34a" stroke-width="1"/><rect x="584.1" y="254.8" width="5.4" height="4.6" fill="#16a34a" opacity="0.82" rx="1"/>
<line x1="595.7" y1="253.8" x2="595.7" y2="281.5" stroke="#dc2626" stroke-width="1"/><rect x="593.0" y="254.6" width="5.4" height="19.2" fill="#dc2626" opacity="0.82" rx="1"/>
<line x1="604.6" y1="269.8" x2="604.6" y2="288.1" stroke="#dc2626" stroke-width="1"/><rect x="601.9" y="273.9" width="5.4" height="4.7" fill="#dc2626" opacity="0.82" rx="1"/>
<line x1="613.5" y1="264.9" x2="613.5" y2="282.3" stroke="#dc2626" stroke-width="1"/><rect x="610.7" y="278.5" width="5.4" height="1.8" fill="#dc2626" opacity="0.82" rx="1"/>
<line x1="622.3" y1="280.1" x2="622.3" y2="316.2" stroke="#dc2626" stroke-width="1"/><rect x="619.6" y="280.3" width="5.4" height="31.9" fill="#dc2626" opacity="0.82" rx="1"/>
<line x1="631.2" y1="291.7" x2="631.2" y2="318.9" stroke="#16a34a" stroke-width="1"/><rect x="628.5" y="311.1" width="5.4" height="2.2" fill="#16a34a" opacity="0.82" rx="1"/>
<line x1="640.1" y1="286.8" x2="640.1" y2="312.9" stroke="#16a34a" stroke-width="1"/><rect x="637.4" y="294.3" width="5.4" height="16.9" fill="#16a34a" opacity="0.82" rx="1"/>
<line x1="649.0" y1="285.7" x2="649.0" y2="315.1" stroke="#16a34a" stroke-width="1"/><rect x="646.2" y="286.3" width="5.4" height="7.7" fill="#16a34a" opacity="0.82" rx="1"/>
<line x1="657.8" y1="276.4" x2="657.8" y2="302.1" stroke="#16a34a" stroke-width="1"/><rect x="655.1" y="279.1" width="5.4" height="7.5" fill="#16a34a" opacity="0.82" rx="1"/>
<line x1="666.7" y1="259.7" x2="666.7" y2="296.1" stroke="#16a34a" stroke-width="1"/><rect x="664.0" y="263.8" width="5.4" height="15.5" fill="#16a34a" opacity="0.82" rx="1"/>
<line x1="675.6" y1="251.1" x2="675.6" y2="271.0" stroke="#16a34a" stroke-width="1"/><rect x="672.9" y="256.2" width="5.4" height="7.4" fill="#16a34a" opacity="0.82" rx="1"/>
<line x1="684.5" y1="253.3" x2="684.5" y2="278.5" stroke="#dc2626" stroke-width="1"/><rect x="681.8" y="256.2" width="5.4" height="19.8" fill="#dc2626" opacity="0.82" rx="1"/>
<line x1="693.3" y1="249.0" x2="693.3" y2="290.7" stroke="#16a34a" stroke-width="1"/><rect x="690.6" y="249.6" width="5.4" height="26.4" fill="#16a34a" opacity="0.82" rx="1"/>
<line x1="702.2" y1="241.9" x2="702.2" y2="258.4" stroke="#dc2626" stroke-width="1"/><rect x="699.5" y="249.6" width="5.4" height="8.8" fill="#dc2626" opacity="0.82" rx="1"/>
<line x1="711.1" y1="250.5" x2="711.1" y2="264.4" stroke="#dc2626" stroke-width="1"/><rect x="708.4" y="258.4" width="5.4" height="1.6" fill="#dc2626" opacity="0.82" rx="1"/>
<line x1="720.0" y1="254.8" x2="720.0" y2="267.2" stroke="#dc2626" stroke-width="1"/><rect x="717.3" y="260.1" width="5.4" height="6.3" fill="#dc2626" opacity="0.82" rx="1"/>
<line x1="728.9" y1="254.8" x2="728.9" y2="268.8" stroke="#16a34a" stroke-width="1"/><rect x="726.1" y="260.2" width="5.4" height="6.1" fill="#16a34a" opacity="0.82" rx="1"/>
<line x1="737.7" y1="223.4" x2="737.7" y2="260.1" stroke="#16a34a" stroke-width="1"/><rect x="735.0" y="229.3" width="5.4" height="30.9" fill="#16a34a" opacity="0.82" rx="1"/>
<line x1="746.6" y1="227.7" x2="746.6" y2="251.3" stroke="#dc2626" stroke-width="1"/><rect x="743.9" y="229.2" width="5.4" height="7.8" fill="#dc2626" opacity="0.82" rx="1"/>
<line x1="755.5" y1="201.2" x2="755.5" y2="245.0" stroke="#16a34a" stroke-width="1"/><rect x="752.8" y="224.7" width="5.4" height="12.3" fill="#16a34a" opacity="0.82" rx="1"/>
<line x1="764.4" y1="190.5" x2="764.4" y2="244.3" stroke="#16a34a" stroke-width="1"/><rect x="761.6" y="221.5" width="5.4" height="3.3" fill="#16a34a" opacity="0.82" rx="1"/>
<line x1="773.2" y1="205.4" x2="773.2" y2="241.6" stroke="#16a34a" stroke-width="1"/><rect x="770.5" y="208.0" width="5.4" height="13.5" fill="#16a34a" opacity="0.82" rx="1"/>
<line x1="782.1" y1="191.2" x2="782.1" y2="227.2" stroke="#16a34a" stroke-width="1"/><rect x="779.4" y="193.9" width="5.4" height="13.9" fill="#16a34a" opacity="0.82" rx="1"/>
<line x1="791.0" y1="181.5" x2="791.0" y2="212.2" stroke="#dc2626" stroke-width="1"/><rect x="788.3" y="193.9" width="5.4" height="5.0" fill="#dc2626" opacity="0.82" rx="1"/>
<line x1="799.9" y1="135.3" x2="799.9" y2="199.1" stroke="#16a34a" stroke-width="1"/><rect x="797.1" y="150.3" width="5.4" height="48.8" fill="#16a34a" opacity="0.82" rx="1"/>
<line x1="808.7" y1="148.6" x2="808.7" y2="171.4" stroke="#dc2626" stroke-width="1"/><rect x="806.0" y="150.3" width="5.4" height="16.9" fill="#dc2626" opacity="0.82" rx="1"/>
<line x1="817.6" y1="128.2" x2="817.6" y2="179.3" stroke="#16a34a" stroke-width="1"/><rect x="814.9" y="134.5" width="5.4" height="32.6" fill="#16a34a" opacity="0.82" rx="1"/>
<line x1="826.5" y1="132.4" x2="826.5" y2="152.4" stroke="#dc2626" stroke-width="1"/><rect x="823.8" y="134.7" width="5.4" height="17.1" fill="#dc2626" opacity="0.82" rx="1"/>
<line x1="835.4" y1="109.7" x2="835.4" y2="154.4" stroke="#16a34a" stroke-width="1"/><rect x="832.6" y="116.2" width="5.4" height="35.5" fill="#16a34a" opacity="0.82" rx="1"/>
<line x1="844.2" y1="109.1" x2="844.2" y2="140.8" stroke="#dc2626" stroke-width="1"/><rect x="841.5" y="116.2" width="5.4" height="17.1" fill="#dc2626" opacity="0.82" rx="1"/>
<line x1="853.1" y1="124.5" x2="853.1" y2="143.1" stroke="#dc2626" stroke-width="1"/><rect x="850.4" y="133.1" width="5.4" height="1.2" fill="#dc2626" opacity="0.82" rx="1"/>
<line x1="862.0" y1="133.2" x2="862.0" y2="142.8" stroke="#dc2626" stroke-width="1"/><rect x="859.3" y="134.5" width="5.4" height="7.4" fill="#dc2626" opacity="0.82" rx="1"/>
<line x1="72" y1="194.1" x2="862" y2="194.1" stroke="#16a34a" stroke-width="1.8" stroke-dasharray="6 4" /><rect x="874" y="174.1" width="166" height="23" rx="5" fill="#ffffff" stroke="#16a34a" opacity="0.97"/><text x="881" y="190.1" fill="#16a34a" font-size="15" font-weight="700">日内支撑 64.84</text>
<line x1="72" y1="55.1" x2="862" y2="55.1" stroke="#dc2626" stroke-width="1.8" stroke-dasharray="6 4" /><rect x="874" y="35.1" width="166" height="23" rx="5" fill="#ffffff" stroke="#dc2626" opacity="0.97"/><text x="881" y="51.1" fill="#dc2626" font-size="15" font-weight="700">日内压力 69.61</text>
<line x1="72" y1="142.0" x2="862" y2="142.0" stroke="#111827" stroke-width="1.8" stroke-dasharray="2 2" /><rect x="874" y="122.0" width="166" height="23" rx="5" fill="#ffffff" stroke="#111827" opacity="0.97"/><text x="881" y="138.0" fill="#111827" font-size="15" font-weight="700">现价 66.63</text>
<text x="72" y="396" fill="#16a34a" font-size="14" font-weight="700">日内做多计划</text><rect x="72" y="404" width="790" height="48" rx="6" fill="#f9fafb" stroke="#e5e7eb"/><line x1="94" y1="412" x2="840" y2="412" stroke="#16a34a" stroke-width="3"/><circle cx="132.0" cy="412" r="5" fill="#16a34a"/><text x="132.0" y="434" fill="#374151" font-size="12" text-anchor="middle">入场 止跌/突破回踩</text><circle cx="451.2" cy="412" r="5" fill="#16a34a"/><text x="451.2" y="434" fill="#374151" font-size="12" text-anchor="middle">止损 64.84</text><circle cx="712.0" cy="412" r="5" fill="#16a34a"/><text x="712.0" y="434" fill="#374151" font-size="12" text-anchor="middle">目标一 69.61</text><circle cx="814.0" cy="412" r="5" fill="#16a34a"/><text x="814.0" y="434" fill="#374151" font-size="12" text-anchor="middle">目标二 70.81</text>
<text x="72" y="482" fill="#dc2626" font-size="14" font-weight="700">日内做空计划</text><rect x="72" y="490" width="790" height="48" rx="6" fill="#f9fafb" stroke="#e5e7eb"/><line x1="94" y1="498" x2="840" y2="498" stroke="#dc2626" stroke-width="3"/><circle cx="132.0" cy="498" r="5" fill="#dc2626"/><text x="132.0" y="520" fill="#374151" font-size="12" text-anchor="middle">入场 反弹承压/破位回抽</text><circle cx="451.2" cy="498" r="5" fill="#dc2626"/><text x="451.2" y="520" fill="#374151" font-size="12" text-anchor="middle">止损 69.61</text><circle cx="712.0" cy="498" r="5" fill="#dc2626"/><text x="712.0" y="520" fill="#374151" font-size="12" text-anchor="middle">目标一 64.84</text><circle cx="814.0" cy="498" r="5" fill="#dc2626"/><text x="814.0" y="520" fill="#374151" font-size="12" text-anchor="middle">目标二 63.65</text>
</svg>