<svg xmlns="http://www.w3.org/2000/svg" width="1080" height="560" viewBox="0 0 1080 560">
<rect width="100%" height="100%" fill="#ffffff"/>
<text x="72" y="23" fill="#111827" font-size="21" font-weight="800">DRAM 小时线K线支撑压力图</text>
<text x="862" y="42" fill="#374151" font-size="15" text-anchor="end">最新价 67.03</text>
<line x1="72" y1="34" x2="72" y2="340" stroke="#d1d5db"/>
<line x1="72" y1="340" x2="862" y2="340" stroke="#d1d5db"/>
<line x1="72" y1="340.0" x2="862" y2="340.0" stroke="#f3f4f6"/>
<text x="8" y="345.0" fill="#4b5563" font-size="14">58.20</text>
<line x1="72" y1="263.5" x2="862" y2="263.5" stroke="#f3f4f6"/>
<text x="8" y="268.5" fill="#4b5563" font-size="14">60.93</text>
<line x1="72" y1="187.0" x2="862" y2="187.0" stroke="#f3f4f6"/>
<text x="8" y="192.0" fill="#4b5563" font-size="14">63.67</text>
<line x1="72" y1="110.5" x2="862" y2="110.5" stroke="#f3f4f6"/>
<text x="8" y="115.5" fill="#4b5563" font-size="14">66.40</text>
<line x1="72" y1="34.0" x2="862" y2="34.0" stroke="#f3f4f6"/>
<text x="8" y="39.0" fill="#4b5563" font-size="14">69.14</text>
<line x1="72.0" y1="209.5" x2="72.0" y2="237.2" stroke="#16a34a" stroke-width="1"/><rect x="69.3" y="215.4" width="5.4" height="7.0" fill="#16a34a" opacity="0.82" rx="1"/>
<line x1="80.9" y1="181.6" x2="80.9" y2="234.4" stroke="#16a34a" stroke-width="1"/><rect x="78.2" y="184.4" width="5.4" height="30.8" fill="#16a34a" opacity="0.82" rx="1"/>
<line x1="89.8" y1="184.6" x2="89.8" y2="212.3" stroke="#dc2626" stroke-width="1"/><rect x="87.0" y="184.6" width="5.4" height="26.0" fill="#dc2626" opacity="0.82" rx="1"/>
<line x1="98.6" y1="203.1" x2="98.6" y2="220.2" stroke="#16a34a" stroke-width="1"/><rect x="95.9" y="206.7" width="5.4" height="3.6" fill="#16a34a" opacity="0.82" rx="1"/>
<line x1="107.5" y1="186.6" x2="107.5" y2="215.4" stroke="#16a34a" stroke-width="1"/><rect x="104.8" y="194.4" width="5.4" height="12.6" fill="#16a34a" opacity="0.82" rx="1"/>
<line x1="116.4" y1="101.0" x2="116.4" y2="198.6" stroke="#16a34a" stroke-width="1"/><rect x="113.7" y="151.6" width="5.4" height="42.5" fill="#16a34a" opacity="0.82" rx="1"/>
<line x1="125.3" y1="128.2" x2="125.3" y2="182.1" stroke="#16a34a" stroke-width="1"/><rect x="122.5" y="134.0" width="5.4" height="17.6" fill="#16a34a" opacity="0.82" rx="1"/>
<line x1="134.1" y1="126.2" x2="134.1" y2="257.4" stroke="#dc2626" stroke-width="1"/><rect x="131.4" y="133.7" width="5.4" height="106.3" fill="#dc2626" opacity="0.82" rx="1"/>
<line x1="143.0" y1="216.3" x2="143.0" y2="271.6" stroke="#dc2626" stroke-width="1"/><rect x="140.3" y="239.7" width="5.4" height="7.3" fill="#dc2626" opacity="0.82" rx="1"/>
<line x1="151.9" y1="245.1" x2="151.9" y2="289.2" stroke="#dc2626" stroke-width="1"/><rect x="149.2" y="246.7" width="5.4" height="36.4" fill="#dc2626" opacity="0.82" rx="1"/>
<line x1="160.8" y1="273.0" x2="160.8" y2="318.9" stroke="#dc2626" stroke-width="1"/><rect x="158.0" y="283.1" width="5.4" height="34.1" fill="#dc2626" opacity="0.82" rx="1"/>
<line x1="169.6" y1="269.4" x2="169.6" y2="318.1" stroke="#16a34a" stroke-width="1"/><rect x="166.9" y="275.8" width="5.4" height="41.4" fill="#16a34a" opacity="0.82" rx="1"/>
<line x1="178.5" y1="262.7" x2="178.5" y2="308.0" stroke="#16a34a" stroke-width="1"/><rect x="175.8" y="266.9" width="5.4" height="8.9" fill="#16a34a" opacity="0.82" rx="1"/>
<line x1="187.4" y1="250.4" x2="187.4" y2="275.8" stroke="#16a34a" stroke-width="1"/><rect x="184.7" y="263.0" width="5.4" height="3.9" fill="#16a34a" opacity="0.82" rx="1"/>
<line x1="196.3" y1="259.0" x2="196.3" y2="270.2" stroke="#dc2626" stroke-width="1"/><rect x="193.5" y="263.0" width="5.4" height="3.6" fill="#dc2626" opacity="0.82" rx="1"/>
<line x1="205.1" y1="261.8" x2="205.1" y2="276.1" stroke="#dc2626" stroke-width="1"/><rect x="202.4" y="266.6" width="5.4" height="5.6" fill="#dc2626" opacity="0.82" rx="1"/>
<line x1="214.0" y1="237.5" x2="214.0" y2="284.2" stroke="#16a34a" stroke-width="1"/><rect x="211.3" y="256.5" width="5.4" height="15.9" fill="#16a34a" opacity="0.82" rx="1"/>
<line x1="222.9" y1="235.0" x2="222.9" y2="297.9" stroke="#dc2626" stroke-width="1"/><rect x="220.2" y="256.5" width="5.4" height="37.8" fill="#dc2626" opacity="0.82" rx="1"/>
<line x1="231.8" y1="221.3" x2="231.8" y2="298.8" stroke="#16a34a" stroke-width="1"/><rect x="229.1" y="228.8" width="5.4" height="65.4" fill="#16a34a" opacity="0.82" rx="1"/>
<line x1="240.7" y1="221.8" x2="240.7" y2="249.3" stroke="#dc2626" stroke-width="1"/><rect x="237.9" y="228.6" width="5.4" height="1.4" fill="#dc2626" opacity="0.82" rx="1"/>
<line x1="249.5" y1="220.2" x2="249.5" y2="252.9" stroke="#16a34a" stroke-width="1"/><rect x="246.8" y="223.8" width="5.4" height="6.7" fill="#16a34a" opacity="0.82" rx="1"/>
<line x1="258.4" y1="183.5" x2="258.4" y2="225.8" stroke="#16a34a" stroke-width="1"/><rect x="255.7" y="192.8" width="5.4" height="31.3" fill="#16a34a" opacity="0.82" rx="1"/>
<line x1="267.3" y1="181.3" x2="267.3" y2="210.1" stroke="#dc2626" stroke-width="1"/><rect x="264.6" y="193.0" width="5.4" height="2.5" fill="#dc2626" opacity="0.82" rx="1"/>
<line x1="276.2" y1="188.6" x2="276.2" y2="213.2" stroke="#dc2626" stroke-width="1"/><rect x="273.4" y="195.6" width="5.4" height="4.5" fill="#dc2626" opacity="0.82" rx="1"/>
<line x1="285.0" y1="179.1" x2="285.0" y2="199.8" stroke="#16a34a" stroke-width="1"/><rect x="282.3" y="191.9" width="5.4" height="7.6" fill="#16a34a" opacity="0.82" rx="1"/>
<line x1="293.9" y1="152.8" x2="293.9" y2="191.9" stroke="#16a34a" stroke-width="1"/><rect x="291.2" y="165.3" width="5.4" height="26.3" fill="#16a34a" opacity="0.82" rx="1"/>
<line x1="302.8" y1="157.5" x2="302.8" y2="171.8" stroke="#16a34a" stroke-width="1"/><rect x="300.1" y="162.0" width="5.4" height="3.1" fill="#16a34a" opacity="0.82" rx="1"/>
<line x1="311.7" y1="148.0" x2="311.7" y2="165.3" stroke="#16a34a" stroke-width="1"/><rect x="308.9" y="151.9" width="5.4" height="9.8" fill="#16a34a" opacity="0.82" rx="1"/>
<line x1="320.5" y1="135.7" x2="320.5" y2="153.6" stroke="#16a34a" stroke-width="1"/><rect x="317.8" y="144.1" width="5.4" height="7.6" fill="#16a34a" opacity="0.82" rx="1"/>
<line x1="329.4" y1="136.5" x2="329.4" y2="164.8" stroke="#dc2626" stroke-width="1"/><rect x="326.7" y="143.8" width="5.4" height="11.5" fill="#dc2626" opacity="0.82" rx="1"/>
<line x1="338.3" y1="147.4" x2="338.3" y2="162.8" stroke="#16a34a" stroke-width="1"/><rect x="335.6" y="149.7" width="5.4" height="5.6" fill="#16a34a" opacity="0.82" rx="1"/>
<line x1="347.2" y1="139.9" x2="347.2" y2="157.8" stroke="#16a34a" stroke-width="1"/><rect x="344.4" y="146.6" width="5.4" height="3.1" fill="#16a34a" opacity="0.82" rx="1"/>
<line x1="356.0" y1="140.7" x2="356.0" y2="151.9" stroke="#16a34a" stroke-width="1"/><rect x="353.3" y="144.4" width="5.4" height="2.0" fill="#16a34a" opacity="0.82" rx="1"/>
<line x1="364.9" y1="140.2" x2="364.9" y2="150.5" stroke="#dc2626" stroke-width="1"/><rect x="362.2" y="144.4" width="5.4" height="4.5" fill="#dc2626" opacity="0.82" rx="1"/>
<line x1="373.8" y1="139.9" x2="373.8" y2="149.7" stroke="#16a34a" stroke-width="1"/><rect x="371.1" y="145.2" width="5.4" height="3.6" fill="#16a34a" opacity="0.82" rx="1"/>
<line x1="382.7" y1="138.8" x2="382.7" y2="161.4" stroke="#dc2626" stroke-width="1"/><rect x="380.0" y="144.9" width="5.4" height="5.3" fill="#dc2626" opacity="0.82" rx="1"/>
<line x1="391.6" y1="139.6" x2="391.6" y2="153.3" stroke="#dc2626" stroke-width="1"/><rect x="388.8" y="150.0" width="5.4" height="1.2" fill="#dc2626" opacity="0.82" rx="1"/>
<line x1="400.4" y1="145.5" x2="400.4" y2="157.0" stroke="#16a34a" stroke-width="1"/><rect x="397.7" y="147.7" width="5.4" height="3.4" fill="#16a34a" opacity="0.82" rx="1"/>
<line x1="409.3" y1="138.8" x2="409.3" y2="150.0" stroke="#16a34a" stroke-width="1"/><rect x="406.6" y="139.9" width="5.4" height="7.6" fill="#16a34a" opacity="0.82" rx="1"/>
<line x1="418.2" y1="138.8" x2="418.2" y2="147.2" stroke="#dc2626" stroke-width="1"/><rect x="415.5" y="139.9" width="5.4" height="2.8" fill="#dc2626" opacity="0.82" rx="1"/>
<line x1="427.1" y1="138.5" x2="427.1" y2="147.2" stroke="#16a34a" stroke-width="1"/><rect x="424.3" y="140.2" width="5.4" height="2.5" fill="#16a34a" opacity="0.82" rx="1"/>
<line x1="435.9" y1="136.3" x2="435.9" y2="147.7" stroke="#dc2626" stroke-width="1"/><rect x="433.2" y="139.6" width="5.4" height="2.8" fill="#dc2626" opacity="0.82" rx="1"/>
<line x1="444.8" y1="142.7" x2="444.8" y2="158.1" stroke="#dc2626" stroke-width="1"/><rect x="442.1" y="142.7" width="5.4" height="6.4" fill="#dc2626" opacity="0.82" rx="1"/>
<line x1="453.7" y1="144.1" x2="453.7" y2="149.4" stroke="#16a34a" stroke-width="1"/><rect x="451.0" y="148.0" width="5.4" height="1.2" fill="#16a34a" opacity="0.82" rx="1"/>
<line x1="462.6" y1="143.5" x2="462.6" y2="150.5" stroke="#16a34a" stroke-width="1"/><rect x="459.8" y="147.2" width="5.4" height="1.2" fill="#16a34a" opacity="0.82" rx="1"/>
<line x1="471.4" y1="146.3" x2="471.4" y2="154.2" stroke="#dc2626" stroke-width="1"/><rect x="468.7" y="147.2" width="5.4" height="5.3" fill="#dc2626" opacity="0.82" rx="1"/>
<line x1="480.3" y1="150.2" x2="480.3" y2="168.1" stroke="#dc2626" stroke-width="1"/><rect x="477.6" y="152.2" width="5.4" height="5.3" fill="#dc2626" opacity="0.82" rx="1"/>
<line x1="489.2" y1="151.4" x2="489.2" y2="157.8" stroke="#16a34a" stroke-width="1"/><rect x="486.5" y="153.3" width="5.4" height="4.2" fill="#16a34a" opacity="0.82" rx="1"/>
<line x1="498.1" y1="148.8" x2="498.1" y2="155.0" stroke="#16a34a" stroke-width="1"/><rect x="495.3" y="150.2" width="5.4" height="3.4" fill="#16a34a" opacity="0.82" rx="1"/>
<line x1="506.9" y1="146.3" x2="506.9" y2="157.8" stroke="#dc2626" stroke-width="1"/><rect x="504.2" y="149.7" width="5.4" height="6.2" fill="#dc2626" opacity="0.82" rx="1"/>
<line x1="515.8" y1="151.6" x2="515.8" y2="157.5" stroke="#16a34a" stroke-width="1"/><rect x="513.1" y="152.2" width="5.4" height="3.6" fill="#16a34a" opacity="0.82" rx="1"/>
<line x1="524.7" y1="146.3" x2="524.7" y2="153.9" stroke="#16a34a" stroke-width="1"/><rect x="522.0" y="148.8" width="5.4" height="3.4" fill="#16a34a" opacity="0.82" rx="1"/>
<line x1="533.6" y1="148.6" x2="533.6" y2="154.7" stroke="#dc2626" stroke-width="1"/><rect x="530.9" y="149.1" width="5.4" height="2.0" fill="#dc2626" opacity="0.82" rx="1"/>
<line x1="542.4" y1="150.2" x2="542.4" y2="155.0" stroke="#dc2626" stroke-width="1"/><rect x="539.7" y="150.8" width="5.4" height="2.2" fill="#dc2626" opacity="0.82" rx="1"/>
<line x1="551.3" y1="150.8" x2="551.3" y2="158.4" stroke="#dc2626" stroke-width="1"/><rect x="548.6" y="153.0" width="5.4" height="2.8" fill="#dc2626" opacity="0.82" rx="1"/>
<line x1="560.2" y1="152.5" x2="560.2" y2="157.0" stroke="#16a34a" stroke-width="1"/><rect x="557.5" y="153.6" width="5.4" height="2.2" fill="#16a34a" opacity="0.82" rx="1"/>
<line x1="569.1" y1="147.4" x2="569.1" y2="154.2" stroke="#16a34a" stroke-width="1"/><rect x="566.4" y="150.2" width="5.4" height="3.4" fill="#16a34a" opacity="0.82" rx="1"/>
<line x1="578.0" y1="150.0" x2="578.0" y2="159.5" stroke="#dc2626" stroke-width="1"/><rect x="575.2" y="150.2" width="5.4" height="8.9" fill="#dc2626" opacity="0.82" rx="1"/>
<line x1="586.8" y1="147.7" x2="586.8" y2="162.6" stroke="#16a34a" stroke-width="1"/><rect x="584.1" y="151.6" width="5.4" height="7.6" fill="#16a34a" opacity="0.82" rx="1"/>
<line x1="595.7" y1="148.0" x2="595.7" y2="153.6" stroke="#16a34a" stroke-width="1"/><rect x="593.0" y="148.3" width="5.4" height="3.6" fill="#16a34a" opacity="0.82" rx="1"/>
<line x1="604.6" y1="143.5" x2="604.6" y2="150.0" stroke="#16a34a" stroke-width="1"/><rect x="601.9" y="146.6" width="5.4" height="2.0" fill="#16a34a" opacity="0.82" rx="1"/>
<line x1="613.5" y1="144.4" x2="613.5" y2="158.9" stroke="#dc2626" stroke-width="1"/><rect x="610.7" y="146.3" width="5.4" height="3.9" fill="#dc2626" opacity="0.82" rx="1"/>
<line x1="622.3" y1="146.3" x2="622.3" y2="150.2" stroke="#16a34a" stroke-width="1"/><rect x="619.6" y="147.2" width="5.4" height="3.1" fill="#16a34a" opacity="0.82" rx="1"/>
<line x1="631.2" y1="139.9" x2="631.2" y2="149.1" stroke="#16a34a" stroke-width="1"/><rect x="628.5" y="141.6" width="5.4" height="5.9" fill="#16a34a" opacity="0.82" rx="1"/>
<line x1="640.1" y1="140.2" x2="640.1" y2="148.0" stroke="#dc2626" stroke-width="1"/><rect x="637.4" y="141.6" width="5.4" height="2.0" fill="#dc2626" opacity="0.82" rx="1"/>
<line x1="649.0" y1="137.4" x2="649.0" y2="148.8" stroke="#16a34a" stroke-width="1"/><rect x="646.2" y="140.2" width="5.4" height="3.6" fill="#16a34a" opacity="0.82" rx="1"/>
<line x1="657.8" y1="137.1" x2="657.8" y2="142.4" stroke="#16a34a" stroke-width="1"/><rect x="655.1" y="137.9" width="5.4" height="2.2" fill="#16a34a" opacity="0.82" rx="1"/>
<line x1="666.7" y1="134.0" x2="666.7" y2="142.7" stroke="#16a34a" stroke-width="1"/><rect x="664.0" y="137.4" width="5.4" height="1.2" fill="#16a34a" opacity="0.82" rx="1"/>
<line x1="675.6" y1="134.9" x2="675.6" y2="138.8" stroke="#16a34a" stroke-width="1"/><rect x="672.9" y="136.8" width="5.4" height="1.2" fill="#16a34a" opacity="0.82" rx="1"/>
<line x1="684.5" y1="131.8" x2="684.5" y2="138.2" stroke="#16a34a" stroke-width="1"/><rect x="681.8" y="133.5" width="5.4" height="3.4" fill="#16a34a" opacity="0.82" rx="1"/>
<line x1="693.3" y1="130.7" x2="693.3" y2="137.9" stroke="#dc2626" stroke-width="1"/><rect x="690.6" y="133.5" width="5.4" height="2.0" fill="#dc2626" opacity="0.82" rx="1"/>
<line x1="702.2" y1="132.3" x2="702.2" y2="137.1" stroke="#16a34a" stroke-width="1"/><rect x="699.5" y="133.7" width="5.4" height="2.0" fill="#16a34a" opacity="0.82" rx="1"/>
<line x1="711.1" y1="127.9" x2="711.1" y2="135.4" stroke="#16a34a" stroke-width="1"/><rect x="708.4" y="133.7" width="5.4" height="1.2" fill="#16a34a" opacity="0.82" rx="1"/>
<line x1="720.0" y1="132.3" x2="720.0" y2="137.1" stroke="#dc2626" stroke-width="1"/><rect x="717.3" y="133.7" width="5.4" height="2.8" fill="#dc2626" opacity="0.82" rx="1"/>
<line x1="728.9" y1="135.7" x2="728.9" y2="145.8" stroke="#dc2626" stroke-width="1"/><rect x="726.1" y="136.8" width="5.4" height="5.6" fill="#dc2626" opacity="0.82" rx="1"/>
<line x1="737.7" y1="130.1" x2="737.7" y2="143.8" stroke="#16a34a" stroke-width="1"/><rect x="735.0" y="133.7" width="5.4" height="8.4" fill="#16a34a" opacity="0.82" rx="1"/>
<line x1="746.6" y1="125.6" x2="746.6" y2="135.4" stroke="#16a34a" stroke-width="1"/><rect x="743.9" y="126.5" width="5.4" height="7.0" fill="#16a34a" opacity="0.82" rx="1"/>
<line x1="755.5" y1="123.7" x2="755.5" y2="135.4" stroke="#16a34a" stroke-width="1"/><rect x="752.8" y="124.0" width="5.4" height="2.5" fill="#16a34a" opacity="0.82" rx="1"/>
<line x1="764.4" y1="122.6" x2="764.4" y2="133.5" stroke="#dc2626" stroke-width="1"/><rect x="761.6" y="124.0" width="5.4" height="8.4" fill="#dc2626" opacity="0.82" rx="1"/>
<line x1="773.2" y1="130.4" x2="773.2" y2="144.1" stroke="#dc2626" stroke-width="1"/><rect x="770.5" y="132.3" width="5.4" height="9.5" fill="#dc2626" opacity="0.82" rx="1"/>
<line x1="782.1" y1="136.3" x2="782.1" y2="144.1" stroke="#16a34a" stroke-width="1"/><rect x="779.4" y="136.5" width="5.4" height="5.6" fill="#16a34a" opacity="0.82" rx="1"/>
<line x1="791.0" y1="130.9" x2="791.0" y2="137.7" stroke="#16a34a" stroke-width="1"/><rect x="788.3" y="134.6" width="5.4" height="2.5" fill="#16a34a" opacity="0.82" rx="1"/>
<line x1="799.9" y1="128.4" x2="799.9" y2="135.4" stroke="#16a34a" stroke-width="1"/><rect x="797.1" y="129.0" width="5.4" height="5.3" fill="#16a34a" opacity="0.82" rx="1"/>
<line x1="808.7" y1="126.8" x2="808.7" y2="131.8" stroke="#dc2626" stroke-width="1"/><rect x="806.0" y="128.7" width="5.4" height="1.4" fill="#dc2626" opacity="0.82" rx="1"/>
<line x1="817.6" y1="123.1" x2="817.6" y2="130.7" stroke="#16a34a" stroke-width="1"/><rect x="814.9" y="123.1" width="5.4" height="6.7" fill="#16a34a" opacity="0.82" rx="1"/>
<line x1="826.5" y1="122.0" x2="826.5" y2="129.0" stroke="#dc2626" stroke-width="1"/><rect x="823.8" y="123.1" width="5.4" height="4.2" fill="#dc2626" opacity="0.82" rx="1"/>
<line x1="835.4" y1="126.8" x2="835.4" y2="140.5" stroke="#dc2626" stroke-width="1"/><rect x="832.6" y="127.3" width="5.4" height="2.2" fill="#dc2626" opacity="0.82" rx="1"/>
<line x1="844.2" y1="114.4" x2="844.2" y2="132.6" stroke="#16a34a" stroke-width="1"/><rect x="841.5" y="123.4" width="5.4" height="5.9" fill="#16a34a" opacity="0.82" rx="1"/>
<line x1="853.1" y1="109.4" x2="853.1" y2="152.5" stroke="#dc2626" stroke-width="1"/><rect x="850.4" y="123.7" width="5.4" height="15.1" fill="#dc2626" opacity="0.82" rx="1"/>
<line x1="862.0" y1="92.9" x2="862.0" y2="142.4" stroke="#16a34a" stroke-width="1"/><rect x="859.3" y="92.9" width="5.4" height="45.0" fill="#16a34a" opacity="0.82" rx="1"/>
<line x1="72" y1="115.6" x2="862" y2="115.6" stroke="#16a34a" stroke-width="1.8" stroke-dasharray="6 4" /><rect x="874" y="95.6" width="166" height="23" rx="5" fill="#ffffff" stroke="#16a34a" opacity="0.97"/><text x="881" y="111.6" fill="#16a34a" font-size="15" font-weight="700">日内支撑 66.22</text>
<line x1="72" y1="55.1" x2="862" y2="55.1" stroke="#dc2626" stroke-width="1.8" stroke-dasharray="6 4" /><rect x="874" y="35.1" width="166" height="23" rx="5" fill="#ffffff" stroke="#dc2626" opacity="0.97"/><text x="881" y="51.1" fill="#dc2626" font-size="15" font-weight="700">日内压力 68.38</text>
<line x1="72" y1="92.9" x2="862" y2="92.9" stroke="#111827" stroke-width="1.8" stroke-dasharray="2 2" /><rect x="874" y="72.9" width="166" height="23" rx="5" fill="#ffffff" stroke="#111827" opacity="0.97"/><text x="881" y="88.9" fill="#111827" font-size="15" font-weight="700">现价 67.03</text>
<text x="72" y="396" fill="#16a34a" font-size="14" font-weight="700">日内做多计划</text><rect x="72" y="404" width="790" height="48" rx="6" fill="#f9fafb" stroke="#e5e7eb"/><line x1="94" y1="412" x2="840" y2="412" stroke="#16a34a" stroke-width="3"/><circle cx="132.0" cy="412" r="5" fill="#16a34a"/><text x="132.0" y="434" fill="#374151" font-size="12" text-anchor="middle">入场 止跌/突破回踩</text><circle cx="451.2" cy="412" r="5" fill="#16a34a"/><text x="451.2" y="434" fill="#374151" font-size="12" text-anchor="middle">止损 66.22</text><circle cx="712.0" cy="412" r="5" fill="#16a34a"/><text x="712.0" y="434" fill="#374151" font-size="12" text-anchor="middle">目标一 68.38</text><circle cx="814.0" cy="412" r="5" fill="#16a34a"/><text x="814.0" y="434" fill="#374151" font-size="12" text-anchor="middle">目标二 68.92</text>
<text x="72" y="482" fill="#dc2626" font-size="14" font-weight="700">日内做空计划</text><rect x="72" y="490" width="790" height="48" rx="6" fill="#f9fafb" stroke="#e5e7eb"/><line x1="94" y1="498" x2="840" y2="498" stroke="#dc2626" stroke-width="3"/><circle cx="132.0" cy="498" r="5" fill="#dc2626"/><text x="132.0" y="520" fill="#374151" font-size="12" text-anchor="middle">入场 反弹承压/破位回抽</text><circle cx="451.2" cy="498" r="5" fill="#dc2626"/><text x="451.2" y="520" fill="#374151" font-size="12" text-anchor="middle">止损 68.38</text><circle cx="712.0" cy="498" r="5" fill="#dc2626"/><text x="712.0" y="520" fill="#374151" font-size="12" text-anchor="middle">目标一 66.22</text><circle cx="814.0" cy="498" r="5" fill="#dc2626"/><text x="814.0" y="520" fill="#374151" font-size="12" text-anchor="middle">目标二 65.68</text>
</svg>