<svg xmlns="http://www.w3.org/2000/svg" width="1080" height="560" viewBox="0 0 1080 560">
<rect width="100%" height="100%" fill="#ffffff"/>
<text x="72" y="23" fill="#111827" font-size="21" font-weight="800">DRAM 小时线K线支撑压力图</text>
<text x="862" y="42" fill="#374151" font-size="15" text-anchor="end">最新价 65.33</text>
<line x1="72" y1="34" x2="72" y2="340" stroke="#d1d5db"/>
<line x1="72" y1="340" x2="862" y2="340" stroke="#d1d5db"/>
<line x1="72" y1="340.0" x2="862" y2="340.0" stroke="#f3f4f6"/>
<text x="8" y="345.0" fill="#4b5563" font-size="14">58.24</text>
<line x1="72" y1="263.5" x2="862" y2="263.5" stroke="#f3f4f6"/>
<text x="8" y="268.5" fill="#4b5563" font-size="14">60.81</text>
<line x1="72" y1="187.0" x2="862" y2="187.0" stroke="#f3f4f6"/>
<text x="8" y="192.0" fill="#4b5563" font-size="14">63.39</text>
<line x1="72" y1="110.5" x2="862" y2="110.5" stroke="#f3f4f6"/>
<text x="8" y="115.5" fill="#4b5563" font-size="14">65.96</text>
<line x1="72" y1="34.0" x2="862" y2="34.0" stroke="#f3f4f6"/>
<text x="8" y="39.0" fill="#4b5563" font-size="14">68.54</text>
<line x1="72.0" y1="114.1" x2="72.0" y2="253.5" stroke="#dc2626" stroke-width="1"/><rect x="69.3" y="122.2" width="5.4" height="112.9" fill="#dc2626" opacity="0.82" rx="1"/>
<line x1="80.9" y1="209.8" x2="80.9" y2="268.7" stroke="#dc2626" stroke-width="1"/><rect x="78.2" y="234.8" width="5.4" height="7.7" fill="#dc2626" opacity="0.82" rx="1"/>
<line x1="89.8" y1="240.4" x2="89.8" y2="287.4" stroke="#dc2626" stroke-width="1"/><rect x="87.0" y="242.2" width="5.4" height="38.6" fill="#dc2626" opacity="0.82" rx="1"/>
<line x1="98.6" y1="270.2" x2="98.6" y2="318.9" stroke="#dc2626" stroke-width="1"/><rect x="95.9" y="280.9" width="5.4" height="36.3" fill="#dc2626" opacity="0.82" rx="1"/>
<line x1="107.5" y1="266.3" x2="107.5" y2="318.0" stroke="#16a34a" stroke-width="1"/><rect x="104.8" y="273.1" width="5.4" height="44.0" fill="#16a34a" opacity="0.82" rx="1"/>
<line x1="116.4" y1="259.2" x2="116.4" y2="307.3" stroke="#16a34a" stroke-width="1"/><rect x="113.7" y="263.6" width="5.4" height="9.5" fill="#16a34a" opacity="0.82" rx="1"/>
<line x1="125.3" y1="246.1" x2="125.3" y2="273.1" stroke="#16a34a" stroke-width="1"/><rect x="122.5" y="259.5" width="5.4" height="4.2" fill="#16a34a" opacity="0.82" rx="1"/>
<line x1="134.1" y1="255.3" x2="134.1" y2="267.2" stroke="#dc2626" stroke-width="1"/><rect x="131.4" y="259.5" width="5.4" height="3.9" fill="#dc2626" opacity="0.82" rx="1"/>
<line x1="143.0" y1="258.3" x2="143.0" y2="273.4" stroke="#dc2626" stroke-width="1"/><rect x="140.3" y="263.3" width="5.4" height="5.9" fill="#dc2626" opacity="0.82" rx="1"/>
<line x1="151.9" y1="232.4" x2="151.9" y2="282.0" stroke="#16a34a" stroke-width="1"/><rect x="149.2" y="252.6" width="5.4" height="16.9" fill="#16a34a" opacity="0.82" rx="1"/>
<line x1="160.8" y1="229.7" x2="160.8" y2="296.6" stroke="#dc2626" stroke-width="1"/><rect x="158.0" y="252.6" width="5.4" height="40.1" fill="#dc2626" opacity="0.82" rx="1"/>
<line x1="169.6" y1="215.2" x2="169.6" y2="297.5" stroke="#16a34a" stroke-width="1"/><rect x="166.9" y="223.2" width="5.4" height="69.5" fill="#16a34a" opacity="0.82" rx="1"/>
<line x1="178.5" y1="215.8" x2="178.5" y2="244.9" stroke="#dc2626" stroke-width="1"/><rect x="175.8" y="222.9" width="5.4" height="1.5" fill="#dc2626" opacity="0.82" rx="1"/>
<line x1="187.4" y1="214.0" x2="187.4" y2="248.8" stroke="#16a34a" stroke-width="1"/><rect x="184.7" y="217.9" width="5.4" height="7.1" fill="#16a34a" opacity="0.82" rx="1"/>
<line x1="196.3" y1="175.1" x2="196.3" y2="219.9" stroke="#16a34a" stroke-width="1"/><rect x="193.5" y="184.9" width="5.4" height="33.3" fill="#16a34a" opacity="0.82" rx="1"/>
<line x1="205.1" y1="172.7" x2="205.1" y2="203.3" stroke="#dc2626" stroke-width="1"/><rect x="202.4" y="185.2" width="5.4" height="2.7" fill="#dc2626" opacity="0.82" rx="1"/>
<line x1="214.0" y1="180.4" x2="214.0" y2="206.6" stroke="#dc2626" stroke-width="1"/><rect x="211.3" y="187.8" width="5.4" height="4.8" fill="#dc2626" opacity="0.82" rx="1"/>
<line x1="222.9" y1="170.3" x2="222.9" y2="192.3" stroke="#16a34a" stroke-width="1"/><rect x="220.2" y="184.0" width="5.4" height="8.0" fill="#16a34a" opacity="0.82" rx="1"/>
<line x1="231.8" y1="142.4" x2="231.8" y2="184.0" stroke="#16a34a" stroke-width="1"/><rect x="229.1" y="155.7" width="5.4" height="27.9" fill="#16a34a" opacity="0.82" rx="1"/>
<line x1="240.7" y1="147.4" x2="240.7" y2="162.6" stroke="#16a34a" stroke-width="1"/><rect x="237.9" y="152.2" width="5.4" height="3.3" fill="#16a34a" opacity="0.82" rx="1"/>
<line x1="249.5" y1="137.3" x2="249.5" y2="155.7" stroke="#16a34a" stroke-width="1"/><rect x="246.8" y="141.5" width="5.4" height="10.4" fill="#16a34a" opacity="0.82" rx="1"/>
<line x1="258.4" y1="124.2" x2="258.4" y2="143.3" stroke="#16a34a" stroke-width="1"/><rect x="255.7" y="133.2" width="5.4" height="8.0" fill="#16a34a" opacity="0.82" rx="1"/>
<line x1="267.3" y1="125.1" x2="267.3" y2="155.1" stroke="#dc2626" stroke-width="1"/><rect x="264.6" y="132.9" width="5.4" height="12.2" fill="#dc2626" opacity="0.82" rx="1"/>
<line x1="276.2" y1="136.7" x2="276.2" y2="153.1" stroke="#16a34a" stroke-width="1"/><rect x="273.4" y="139.1" width="5.4" height="5.9" fill="#16a34a" opacity="0.82" rx="1"/>
<line x1="285.0" y1="128.7" x2="285.0" y2="147.7" stroke="#16a34a" stroke-width="1"/><rect x="282.3" y="135.8" width="5.4" height="3.3" fill="#16a34a" opacity="0.82" rx="1"/>
<line x1="293.9" y1="129.6" x2="293.9" y2="141.5" stroke="#16a34a" stroke-width="1"/><rect x="291.2" y="133.5" width="5.4" height="2.1" fill="#16a34a" opacity="0.82" rx="1"/>
<line x1="302.8" y1="129.0" x2="302.8" y2="140.0" stroke="#dc2626" stroke-width="1"/><rect x="300.1" y="133.5" width="5.4" height="4.8" fill="#dc2626" opacity="0.82" rx="1"/>
<line x1="311.7" y1="128.7" x2="311.7" y2="139.1" stroke="#16a34a" stroke-width="1"/><rect x="308.9" y="134.3" width="5.4" height="3.9" fill="#16a34a" opacity="0.82" rx="1"/>
<line x1="320.5" y1="127.5" x2="320.5" y2="151.6" stroke="#dc2626" stroke-width="1"/><rect x="317.8" y="134.0" width="5.4" height="5.6" fill="#dc2626" opacity="0.82" rx="1"/>
<line x1="329.4" y1="128.4" x2="329.4" y2="143.0" stroke="#dc2626" stroke-width="1"/><rect x="326.7" y="139.4" width="5.4" height="1.2" fill="#dc2626" opacity="0.82" rx="1"/>
<line x1="338.3" y1="134.6" x2="338.3" y2="146.8" stroke="#16a34a" stroke-width="1"/><rect x="335.6" y="137.0" width="5.4" height="3.6" fill="#16a34a" opacity="0.82" rx="1"/>
<line x1="347.2" y1="127.5" x2="347.2" y2="139.4" stroke="#16a34a" stroke-width="1"/><rect x="344.4" y="128.7" width="5.4" height="8.0" fill="#16a34a" opacity="0.82" rx="1"/>
<line x1="356.0" y1="127.5" x2="356.0" y2="136.4" stroke="#dc2626" stroke-width="1"/><rect x="353.3" y="128.7" width="5.4" height="3.0" fill="#dc2626" opacity="0.82" rx="1"/>
<line x1="364.9" y1="127.2" x2="364.9" y2="136.4" stroke="#16a34a" stroke-width="1"/><rect x="362.2" y="129.0" width="5.4" height="2.7" fill="#16a34a" opacity="0.82" rx="1"/>
<line x1="373.8" y1="124.8" x2="373.8" y2="137.0" stroke="#dc2626" stroke-width="1"/><rect x="371.1" y="128.4" width="5.4" height="3.0" fill="#dc2626" opacity="0.82" rx="1"/>
<line x1="382.7" y1="131.7" x2="382.7" y2="148.0" stroke="#dc2626" stroke-width="1"/><rect x="380.0" y="131.7" width="5.4" height="6.8" fill="#dc2626" opacity="0.82" rx="1"/>
<line x1="391.6" y1="133.2" x2="391.6" y2="138.8" stroke="#16a34a" stroke-width="1"/><rect x="388.8" y="137.3" width="5.4" height="1.2" fill="#16a34a" opacity="0.82" rx="1"/>
<line x1="400.4" y1="132.6" x2="400.4" y2="140.0" stroke="#16a34a" stroke-width="1"/><rect x="397.7" y="136.4" width="5.4" height="1.2" fill="#16a34a" opacity="0.82" rx="1"/>
<line x1="409.3" y1="135.5" x2="409.3" y2="143.9" stroke="#dc2626" stroke-width="1"/><rect x="406.6" y="136.4" width="5.4" height="5.6" fill="#dc2626" opacity="0.82" rx="1"/>
<line x1="418.2" y1="139.7" x2="418.2" y2="158.7" stroke="#dc2626" stroke-width="1"/><rect x="415.5" y="141.8" width="5.4" height="5.6" fill="#dc2626" opacity="0.82" rx="1"/>
<line x1="427.1" y1="140.9" x2="427.1" y2="147.7" stroke="#16a34a" stroke-width="1"/><rect x="424.3" y="143.0" width="5.4" height="4.5" fill="#16a34a" opacity="0.82" rx="1"/>
<line x1="435.9" y1="138.2" x2="435.9" y2="144.7" stroke="#16a34a" stroke-width="1"/><rect x="433.2" y="139.7" width="5.4" height="3.6" fill="#16a34a" opacity="0.82" rx="1"/>
<line x1="444.8" y1="135.5" x2="444.8" y2="147.7" stroke="#dc2626" stroke-width="1"/><rect x="442.1" y="139.1" width="5.4" height="6.5" fill="#dc2626" opacity="0.82" rx="1"/>
<line x1="453.7" y1="141.2" x2="453.7" y2="147.4" stroke="#16a34a" stroke-width="1"/><rect x="451.0" y="141.8" width="5.4" height="3.9" fill="#16a34a" opacity="0.82" rx="1"/>
<line x1="462.6" y1="135.5" x2="462.6" y2="143.6" stroke="#16a34a" stroke-width="1"/><rect x="459.8" y="138.2" width="5.4" height="3.6" fill="#16a34a" opacity="0.82" rx="1"/>
<line x1="471.4" y1="137.9" x2="471.4" y2="144.4" stroke="#dc2626" stroke-width="1"/><rect x="468.7" y="138.5" width="5.4" height="2.1" fill="#dc2626" opacity="0.82" rx="1"/>
<line x1="480.3" y1="139.7" x2="480.3" y2="144.7" stroke="#dc2626" stroke-width="1"/><rect x="477.6" y="140.3" width="5.4" height="2.4" fill="#dc2626" opacity="0.82" rx="1"/>
<line x1="489.2" y1="140.3" x2="489.2" y2="148.3" stroke="#dc2626" stroke-width="1"/><rect x="486.5" y="142.7" width="5.4" height="3.0" fill="#dc2626" opacity="0.82" rx="1"/>
<line x1="498.1" y1="142.1" x2="498.1" y2="146.8" stroke="#16a34a" stroke-width="1"/><rect x="495.3" y="143.3" width="5.4" height="2.4" fill="#16a34a" opacity="0.82" rx="1"/>
<line x1="506.9" y1="136.7" x2="506.9" y2="143.9" stroke="#16a34a" stroke-width="1"/><rect x="504.2" y="139.7" width="5.4" height="3.6" fill="#16a34a" opacity="0.82" rx="1"/>
<line x1="515.8" y1="139.4" x2="515.8" y2="149.5" stroke="#dc2626" stroke-width="1"/><rect x="513.1" y="139.7" width="5.4" height="9.5" fill="#dc2626" opacity="0.82" rx="1"/>
<line x1="524.7" y1="137.0" x2="524.7" y2="152.8" stroke="#16a34a" stroke-width="1"/><rect x="522.0" y="141.2" width="5.4" height="8.0" fill="#16a34a" opacity="0.82" rx="1"/>
<line x1="533.6" y1="137.3" x2="533.6" y2="143.3" stroke="#16a34a" stroke-width="1"/><rect x="530.9" y="137.6" width="5.4" height="3.9" fill="#16a34a" opacity="0.82" rx="1"/>
<line x1="542.4" y1="132.6" x2="542.4" y2="139.4" stroke="#16a34a" stroke-width="1"/><rect x="539.7" y="135.8" width="5.4" height="2.1" fill="#16a34a" opacity="0.82" rx="1"/>
<line x1="551.3" y1="133.5" x2="551.3" y2="148.9" stroke="#dc2626" stroke-width="1"/><rect x="548.6" y="135.5" width="5.4" height="4.2" fill="#dc2626" opacity="0.82" rx="1"/>
<line x1="560.2" y1="135.5" x2="560.2" y2="139.7" stroke="#16a34a" stroke-width="1"/><rect x="557.5" y="136.4" width="5.4" height="3.3" fill="#16a34a" opacity="0.82" rx="1"/>
<line x1="569.1" y1="128.7" x2="569.1" y2="138.5" stroke="#16a34a" stroke-width="1"/><rect x="566.4" y="130.5" width="5.4" height="6.2" fill="#16a34a" opacity="0.82" rx="1"/>
<line x1="578.0" y1="129.0" x2="578.0" y2="137.3" stroke="#dc2626" stroke-width="1"/><rect x="575.2" y="130.5" width="5.4" height="2.1" fill="#dc2626" opacity="0.82" rx="1"/>
<line x1="586.8" y1="126.0" x2="586.8" y2="138.2" stroke="#16a34a" stroke-width="1"/><rect x="584.1" y="129.0" width="5.4" height="3.9" fill="#16a34a" opacity="0.82" rx="1"/>
<line x1="595.7" y1="125.7" x2="595.7" y2="131.4" stroke="#16a34a" stroke-width="1"/><rect x="593.0" y="126.6" width="5.4" height="2.4" fill="#16a34a" opacity="0.82" rx="1"/>
<line x1="604.6" y1="122.5" x2="604.6" y2="131.7" stroke="#16a34a" stroke-width="1"/><rect x="601.9" y="126.0" width="5.4" height="1.2" fill="#16a34a" opacity="0.82" rx="1"/>
<line x1="613.5" y1="123.3" x2="613.5" y2="127.5" stroke="#16a34a" stroke-width="1"/><rect x="610.7" y="125.4" width="5.4" height="1.2" fill="#16a34a" opacity="0.82" rx="1"/>
<line x1="622.3" y1="120.1" x2="622.3" y2="126.9" stroke="#16a34a" stroke-width="1"/><rect x="619.6" y="121.9" width="5.4" height="3.6" fill="#16a34a" opacity="0.82" rx="1"/>
<line x1="631.2" y1="118.9" x2="631.2" y2="126.6" stroke="#dc2626" stroke-width="1"/><rect x="628.5" y="121.9" width="5.4" height="2.1" fill="#dc2626" opacity="0.82" rx="1"/>
<line x1="640.1" y1="120.7" x2="640.1" y2="125.7" stroke="#16a34a" stroke-width="1"/><rect x="637.4" y="122.2" width="5.4" height="2.1" fill="#16a34a" opacity="0.82" rx="1"/>
<line x1="649.0" y1="115.9" x2="649.0" y2="123.9" stroke="#16a34a" stroke-width="1"/><rect x="646.2" y="122.2" width="5.4" height="1.2" fill="#16a34a" opacity="0.82" rx="1"/>
<line x1="657.8" y1="120.7" x2="657.8" y2="125.7" stroke="#dc2626" stroke-width="1"/><rect x="655.1" y="122.2" width="5.4" height="3.0" fill="#dc2626" opacity="0.82" rx="1"/>
<line x1="666.7" y1="124.2" x2="666.7" y2="134.9" stroke="#dc2626" stroke-width="1"/><rect x="664.0" y="125.4" width="5.4" height="5.9" fill="#dc2626" opacity="0.82" rx="1"/>
<line x1="675.6" y1="118.3" x2="675.6" y2="132.9" stroke="#16a34a" stroke-width="1"/><rect x="672.9" y="122.2" width="5.4" height="8.9" fill="#16a34a" opacity="0.82" rx="1"/>
<line x1="684.5" y1="113.5" x2="684.5" y2="123.9" stroke="#16a34a" stroke-width="1"/><rect x="681.8" y="114.4" width="5.4" height="7.4" fill="#16a34a" opacity="0.82" rx="1"/>
<line x1="693.3" y1="111.5" x2="693.3" y2="123.9" stroke="#16a34a" stroke-width="1"/><rect x="690.6" y="111.8" width="5.4" height="2.7" fill="#16a34a" opacity="0.82" rx="1"/>
<line x1="702.2" y1="110.3" x2="702.2" y2="121.9" stroke="#dc2626" stroke-width="1"/><rect x="699.5" y="111.8" width="5.4" height="8.9" fill="#dc2626" opacity="0.82" rx="1"/>
<line x1="711.1" y1="118.6" x2="711.1" y2="133.2" stroke="#dc2626" stroke-width="1"/><rect x="708.4" y="120.7" width="5.4" height="10.1" fill="#dc2626" opacity="0.82" rx="1"/>
<line x1="720.0" y1="124.8" x2="720.0" y2="133.2" stroke="#16a34a" stroke-width="1"/><rect x="717.3" y="125.1" width="5.4" height="5.9" fill="#16a34a" opacity="0.82" rx="1"/>
<line x1="728.9" y1="119.2" x2="728.9" y2="126.3" stroke="#16a34a" stroke-width="1"/><rect x="726.1" y="123.1" width="5.4" height="2.7" fill="#16a34a" opacity="0.82" rx="1"/>
<line x1="737.7" y1="116.5" x2="737.7" y2="123.9" stroke="#16a34a" stroke-width="1"/><rect x="735.0" y="117.1" width="5.4" height="5.6" fill="#16a34a" opacity="0.82" rx="1"/>
<line x1="746.6" y1="114.7" x2="746.6" y2="120.1" stroke="#dc2626" stroke-width="1"/><rect x="743.9" y="116.8" width="5.4" height="1.5" fill="#dc2626" opacity="0.82" rx="1"/>
<line x1="755.5" y1="110.9" x2="755.5" y2="118.9" stroke="#16a34a" stroke-width="1"/><rect x="752.8" y="110.9" width="5.4" height="7.1" fill="#16a34a" opacity="0.82" rx="1"/>
<line x1="764.4" y1="109.7" x2="764.4" y2="117.1" stroke="#dc2626" stroke-width="1"/><rect x="761.6" y="110.9" width="5.4" height="4.5" fill="#dc2626" opacity="0.82" rx="1"/>
<line x1="773.2" y1="114.7" x2="773.2" y2="129.3" stroke="#dc2626" stroke-width="1"/><rect x="770.5" y="115.3" width="5.4" height="2.4" fill="#dc2626" opacity="0.82" rx="1"/>
<line x1="782.1" y1="101.7" x2="782.1" y2="121.0" stroke="#16a34a" stroke-width="1"/><rect x="779.4" y="111.2" width="5.4" height="6.2" fill="#16a34a" opacity="0.82" rx="1"/>
<line x1="791.0" y1="96.3" x2="791.0" y2="142.1" stroke="#dc2626" stroke-width="1"/><rect x="788.3" y="111.5" width="5.4" height="16.0" fill="#dc2626" opacity="0.82" rx="1"/>
<line x1="799.9" y1="71.0" x2="799.9" y2="131.4" stroke="#16a34a" stroke-width="1"/><rect x="797.1" y="83.8" width="5.4" height="42.8" fill="#16a34a" opacity="0.82" rx="1"/>
<line x1="808.7" y1="81.1" x2="808.7" y2="142.7" stroke="#dc2626" stroke-width="1"/><rect x="806.0" y="83.8" width="5.4" height="44.3" fill="#dc2626" opacity="0.82" rx="1"/>
<line x1="817.6" y1="120.4" x2="817.6" y2="183.1" stroke="#dc2626" stroke-width="1"/><rect x="814.9" y="127.8" width="5.4" height="28.8" fill="#dc2626" opacity="0.82" rx="1"/>
<line x1="826.5" y1="127.2" x2="826.5" y2="160.5" stroke="#16a34a" stroke-width="1"/><rect x="823.8" y="141.8" width="5.4" height="14.6" fill="#16a34a" opacity="0.82" rx="1"/>
<line x1="835.4" y1="110.9" x2="835.4" y2="151.9" stroke="#16a34a" stroke-width="1"/><rect x="832.6" y="118.9" width="5.4" height="22.9" fill="#16a34a" opacity="0.82" rx="1"/>
<line x1="844.2" y1="117.4" x2="844.2" y2="143.3" stroke="#dc2626" stroke-width="1"/><rect x="841.5" y="118.9" width="5.4" height="2.1" fill="#dc2626" opacity="0.82" rx="1"/>
<line x1="853.1" y1="115.6" x2="853.1" y2="141.2" stroke="#dc2626" stroke-width="1"/><rect x="850.4" y="121.0" width="5.4" height="11.0" fill="#dc2626" opacity="0.82" rx="1"/>
<line x1="862.0" y1="129.3" x2="862.0" y2="134.0" stroke="#16a34a" stroke-width="1"/><rect x="859.3" y="129.3" width="5.4" height="3.0" fill="#16a34a" opacity="0.82" rx="1"/>
<line x1="72" y1="173.8" x2="862" y2="173.8" stroke="#16a34a" stroke-width="1.8" stroke-dasharray="6 4" /><rect x="874" y="153.8" width="166" height="23" rx="5" fill="#ffffff" stroke="#16a34a" opacity="0.97"/><text x="881" y="169.8" fill="#16a34a" font-size="15" font-weight="700">日内支撑 63.83</text>
<line x1="72" y1="55.1" x2="862" y2="55.1" stroke="#dc2626" stroke-width="1.8" stroke-dasharray="6 4" /><rect x="874" y="35.1" width="166" height="23" rx="5" fill="#ffffff" stroke="#dc2626" opacity="0.97"/><text x="881" y="51.1" fill="#dc2626" font-size="15" font-weight="700">日内压力 67.83</text>
<line x1="72" y1="129.3" x2="862" y2="129.3" stroke="#111827" stroke-width="1.8" stroke-dasharray="2 2" /><rect x="874" y="109.3" width="166" height="23" rx="5" fill="#ffffff" stroke="#111827" opacity="0.97"/><text x="881" y="125.3" fill="#111827" font-size="15" font-weight="700">现价 65.33</text>
<text x="72" y="396" fill="#16a34a" font-size="14" font-weight="700">日内做多计划</text><rect x="72" y="404" width="790" height="48" rx="6" fill="#f9fafb" stroke="#e5e7eb"/><line x1="94" y1="412" x2="840" y2="412" stroke="#16a34a" stroke-width="3"/><circle cx="132.0" cy="412" r="5" fill="#16a34a"/><text x="132.0" y="434" fill="#374151" font-size="12" text-anchor="middle">入场 止跌/突破回踩</text><circle cx="451.2" cy="412" r="5" fill="#16a34a"/><text x="451.2" y="434" fill="#374151" font-size="12" text-anchor="middle">止损 63.83</text><circle cx="712.0" cy="412" r="5" fill="#16a34a"/><text x="712.0" y="434" fill="#374151" font-size="12" text-anchor="middle">目标一 67.83</text><circle cx="814.0" cy="412" r="5" fill="#16a34a"/><text x="814.0" y="434" fill="#374151" font-size="12" text-anchor="middle">目标二 68.82</text>
<text x="72" y="482" fill="#dc2626" font-size="14" font-weight="700">日内做空计划</text><rect x="72" y="490" width="790" height="48" rx="6" fill="#f9fafb" stroke="#e5e7eb"/><line x1="94" y1="498" x2="840" y2="498" stroke="#dc2626" stroke-width="3"/><circle cx="132.0" cy="498" r="5" fill="#dc2626"/><text x="132.0" y="520" fill="#374151" font-size="12" text-anchor="middle">入场 反弹承压/破位回抽</text><circle cx="451.2" cy="498" r="5" fill="#dc2626"/><text x="451.2" y="520" fill="#374151" font-size="12" text-anchor="middle">止损 67.83</text><circle cx="712.0" cy="498" r="5" fill="#dc2626"/><text x="712.0" y="520" fill="#374151" font-size="12" text-anchor="middle">目标一 63.83</text><circle cx="814.0" cy="498" r="5" fill="#dc2626"/><text x="814.0" y="520" fill="#374151" font-size="12" text-anchor="middle">目标二 62.83</text>
</svg>