<svg xmlns="http://www.w3.org/2000/svg" width="1080" height="560" viewBox="0 0 1080 560">
<rect width="100%" height="100%" fill="#ffffff"/>
<text x="72" y="23" fill="#111827" font-size="21" font-weight="800">HYPE 日线K线支撑压力图</text>
<text x="862" y="42" fill="#374151" font-size="15" text-anchor="end">最新价 71.06</text>
<line x1="72" y1="34" x2="72" y2="340" stroke="#d1d5db"/>
<line x1="72" y1="340" x2="862" y2="340" stroke="#d1d5db"/>
<line x1="72" y1="340.0" x2="862" y2="340.0" stroke="#f3f4f6"/>
<text x="8" y="345.0" fill="#4b5563" font-size="14">34.20</text>
<line x1="72" y1="263.5" x2="862" y2="263.5" stroke="#f3f4f6"/>
<text x="8" y="268.5" fill="#4b5563" font-size="14">47.07</text>
<line x1="72" y1="187.0" x2="862" y2="187.0" stroke="#f3f4f6"/>
<text x="8" y="192.0" fill="#4b5563" font-size="14">59.93</text>
<line x1="72" y1="110.5" x2="862" y2="110.5" stroke="#f3f4f6"/>
<text x="8" y="115.5" fill="#4b5563" font-size="14">72.80</text>
<line x1="72" y1="34.0" x2="862" y2="34.0" stroke="#f3f4f6"/>
<text x="8" y="39.0" fill="#4b5563" font-size="14">85.66</text>
<line x1="72.0" y1="306.8" x2="72.0" y2="318.9" stroke="#16a34a" stroke-width="1"/><rect x="69.3" y="312.9" width="5.4" height="1.2" fill="#16a34a" opacity="0.82" rx="1"/>
<line x1="80.9" y1="303.2" x2="80.9" y2="316.5" stroke="#16a34a" stroke-width="1"/><rect x="78.2" y="308.7" width="5.4" height="4.2" fill="#16a34a" opacity="0.82" rx="1"/>
<line x1="89.8" y1="292.2" x2="89.8" y2="308.9" stroke="#16a34a" stroke-width="1"/><rect x="87.0" y="296.0" width="5.4" height="12.6" fill="#16a34a" opacity="0.82" rx="1"/>
<line x1="98.6" y1="286.7" x2="98.6" y2="296.7" stroke="#16a34a" stroke-width="1"/><rect x="95.9" y="292.0" width="5.4" height="4.1" fill="#16a34a" opacity="0.82" rx="1"/>
<line x1="107.5" y1="288.7" x2="107.5" y2="304.4" stroke="#dc2626" stroke-width="1"/><rect x="104.8" y="292.0" width="5.4" height="8.5" fill="#dc2626" opacity="0.82" rx="1"/>
<line x1="116.4" y1="278.1" x2="116.4" y2="300.9" stroke="#16a34a" stroke-width="1"/><rect x="113.7" y="279.7" width="5.4" height="20.8" fill="#16a34a" opacity="0.82" rx="1"/>
<line x1="125.3" y1="273.8" x2="125.3" y2="288.1" stroke="#dc2626" stroke-width="1"/><rect x="122.5" y="279.8" width="5.4" height="4.7" fill="#dc2626" opacity="0.82" rx="1"/>
<line x1="134.1" y1="273.0" x2="134.1" y2="286.9" stroke="#16a34a" stroke-width="1"/><rect x="131.4" y="277.9" width="5.4" height="6.6" fill="#16a34a" opacity="0.82" rx="1"/>
<line x1="143.0" y1="271.3" x2="143.0" y2="285.9" stroke="#dc2626" stroke-width="1"/><rect x="140.3" y="277.9" width="5.4" height="4.9" fill="#dc2626" opacity="0.82" rx="1"/>
<line x1="151.9" y1="272.8" x2="151.9" y2="286.7" stroke="#16a34a" stroke-width="1"/><rect x="149.2" y="278.0" width="5.4" height="4.8" fill="#16a34a" opacity="0.82" rx="1"/>
<line x1="160.8" y1="273.1" x2="160.8" y2="283.4" stroke="#dc2626" stroke-width="1"/><rect x="158.0" y="278.0" width="5.4" height="5.0" fill="#dc2626" opacity="0.82" rx="1"/>
<line x1="169.6" y1="282.1" x2="169.6" y2="302.5" stroke="#dc2626" stroke-width="1"/><rect x="166.9" y="283.0" width="5.4" height="18.4" fill="#dc2626" opacity="0.82" rx="1"/>
<line x1="178.5" y1="294.9" x2="178.5" y2="302.2" stroke="#16a34a" stroke-width="1"/><rect x="175.8" y="301.3" width="5.4" height="1.2" fill="#16a34a" opacity="0.82" rx="1"/>
<line x1="187.4" y1="297.0" x2="187.4" y2="312.1" stroke="#dc2626" stroke-width="1"/><rect x="184.7" y="301.4" width="5.4" height="5.6" fill="#dc2626" opacity="0.82" rx="1"/>
<line x1="196.3" y1="295.1" x2="196.3" y2="307.8" stroke="#16a34a" stroke-width="1"/><rect x="193.5" y="298.6" width="5.4" height="8.3" fill="#16a34a" opacity="0.82" rx="1"/>
<line x1="205.1" y1="294.5" x2="205.1" y2="302.4" stroke="#16a34a" stroke-width="1"/><rect x="202.4" y="297.8" width="5.4" height="1.2" fill="#16a34a" opacity="0.82" rx="1"/>
<line x1="214.0" y1="296.4" x2="214.0" y2="301.5" stroke="#dc2626" stroke-width="1"/><rect x="211.3" y="297.7" width="5.4" height="1.2" fill="#dc2626" opacity="0.82" rx="1"/>
<line x1="222.9" y1="294.2" x2="222.9" y2="300.6" stroke="#16a34a" stroke-width="1"/><rect x="220.2" y="296.6" width="5.4" height="2.0" fill="#16a34a" opacity="0.82" rx="1"/>
<line x1="231.8" y1="290.0" x2="231.8" y2="299.9" stroke="#16a34a" stroke-width="1"/><rect x="229.1" y="290.9" width="5.4" height="5.7" fill="#16a34a" opacity="0.82" rx="1"/>
<line x1="240.7" y1="284.3" x2="240.7" y2="298.0" stroke="#dc2626" stroke-width="1"/><rect x="237.9" y="290.9" width="5.4" height="4.8" fill="#dc2626" opacity="0.82" rx="1"/>
<line x1="249.5" y1="294.6" x2="249.5" y2="309.2" stroke="#dc2626" stroke-width="1"/><rect x="246.8" y="295.7" width="5.4" height="8.8" fill="#dc2626" opacity="0.82" rx="1"/>
<line x1="258.4" y1="300.8" x2="258.4" y2="310.5" stroke="#dc2626" stroke-width="1"/><rect x="255.7" y="304.6" width="5.4" height="1.3" fill="#dc2626" opacity="0.82" rx="1"/>
<line x1="267.3" y1="303.6" x2="267.3" y2="313.2" stroke="#dc2626" stroke-width="1"/><rect x="264.6" y="305.9" width="5.4" height="1.5" fill="#dc2626" opacity="0.82" rx="1"/>
<line x1="276.2" y1="298.7" x2="276.2" y2="307.5" stroke="#16a34a" stroke-width="1"/><rect x="273.4" y="298.8" width="5.4" height="8.6" fill="#16a34a" opacity="0.82" rx="1"/>
<line x1="285.0" y1="291.0" x2="285.0" y2="299.7" stroke="#16a34a" stroke-width="1"/><rect x="282.3" y="298.1" width="5.4" height="1.2" fill="#16a34a" opacity="0.82" rx="1"/>
<line x1="293.9" y1="295.2" x2="293.9" y2="301.5" stroke="#16a34a" stroke-width="1"/><rect x="291.2" y="296.3" width="5.4" height="1.8" fill="#16a34a" opacity="0.82" rx="1"/>
<line x1="302.8" y1="290.1" x2="302.8" y2="300.7" stroke="#16a34a" stroke-width="1"/><rect x="300.1" y="294.7" width="5.4" height="1.5" fill="#16a34a" opacity="0.82" rx="1"/>
<line x1="311.7" y1="278.0" x2="311.7" y2="295.0" stroke="#16a34a" stroke-width="1"/><rect x="308.9" y="283.5" width="5.4" height="11.3" fill="#16a34a" opacity="0.82" rx="1"/>
<line x1="320.5" y1="277.2" x2="320.5" y2="288.3" stroke="#dc2626" stroke-width="1"/><rect x="317.8" y="283.5" width="5.4" height="3.5" fill="#dc2626" opacity="0.82" rx="1"/>
<line x1="329.4" y1="284.4" x2="329.4" y2="294.5" stroke="#dc2626" stroke-width="1"/><rect x="326.7" y="286.9" width="5.4" height="3.6" fill="#dc2626" opacity="0.82" rx="1"/>
<line x1="338.3" y1="284.7" x2="338.3" y2="293.4" stroke="#16a34a" stroke-width="1"/><rect x="335.6" y="286.1" width="5.4" height="4.4" fill="#16a34a" opacity="0.82" rx="1"/>
<line x1="347.2" y1="279.3" x2="347.2" y2="288.7" stroke="#dc2626" stroke-width="1"/><rect x="344.4" y="286.1" width="5.4" height="2.1" fill="#dc2626" opacity="0.82" rx="1"/>
<line x1="356.0" y1="283.5" x2="356.0" y2="292.9" stroke="#16a34a" stroke-width="1"/><rect x="353.3" y="287.6" width="5.4" height="1.2" fill="#16a34a" opacity="0.82" rx="1"/>
<line x1="364.9" y1="286.8" x2="364.9" y2="300.6" stroke="#dc2626" stroke-width="1"/><rect x="362.2" y="287.6" width="5.4" height="6.1" fill="#dc2626" opacity="0.82" rx="1"/>
<line x1="373.8" y1="293.3" x2="373.8" y2="306.8" stroke="#dc2626" stroke-width="1"/><rect x="371.1" y="293.6" width="5.4" height="10.4" fill="#dc2626" opacity="0.82" rx="1"/>
<line x1="382.7" y1="301.3" x2="382.7" y2="313.2" stroke="#dc2626" stroke-width="1"/><rect x="380.0" y="304.0" width="5.4" height="8.5" fill="#dc2626" opacity="0.82" rx="1"/>
<line x1="391.6" y1="277.2" x2="391.6" y2="316.4" stroke="#16a34a" stroke-width="1"/><rect x="388.8" y="280.9" width="5.4" height="31.6" fill="#16a34a" opacity="0.82" rx="1"/>
<line x1="400.4" y1="263.5" x2="400.4" y2="288.9" stroke="#16a34a" stroke-width="1"/><rect x="397.7" y="280.8" width="5.4" height="1.2" fill="#16a34a" opacity="0.82" rx="1"/>
<line x1="409.3" y1="278.9" x2="409.3" y2="303.3" stroke="#dc2626" stroke-width="1"/><rect x="406.6" y="280.8" width="5.4" height="13.9" fill="#dc2626" opacity="0.82" rx="1"/>
<line x1="418.2" y1="263.0" x2="418.2" y2="297.6" stroke="#16a34a" stroke-width="1"/><rect x="415.5" y="271.7" width="5.4" height="23.0" fill="#16a34a" opacity="0.82" rx="1"/>
<line x1="427.1" y1="258.0" x2="427.1" y2="280.6" stroke="#16a34a" stroke-width="1"/><rect x="424.3" y="259.4" width="5.4" height="12.3" fill="#16a34a" opacity="0.82" rx="1"/>
<line x1="435.9" y1="252.6" x2="435.9" y2="265.1" stroke="#16a34a" stroke-width="1"/><rect x="433.2" y="257.9" width="5.4" height="1.5" fill="#16a34a" opacity="0.82" rx="1"/>
<line x1="444.8" y1="217.3" x2="444.8" y2="263.4" stroke="#16a34a" stroke-width="1"/><rect x="442.1" y="217.3" width="5.4" height="40.7" fill="#16a34a" opacity="0.82" rx="1"/>
<line x1="453.7" y1="171.2" x2="453.7" y2="218.0" stroke="#16a34a" stroke-width="1"/><rect x="451.0" y="195.0" width="5.4" height="22.3" fill="#16a34a" opacity="0.82" rx="1"/>
<line x1="462.6" y1="174.9" x2="462.6" y2="220.6" stroke="#dc2626" stroke-width="1"/><rect x="459.8" y="195.1" width="5.4" height="23.8" fill="#dc2626" opacity="0.82" rx="1"/>
<line x1="471.4" y1="187.2" x2="471.4" y2="222.3" stroke="#16a34a" stroke-width="1"/><rect x="468.7" y="194.3" width="5.4" height="24.5" fill="#16a34a" opacity="0.82" rx="1"/>
<line x1="480.3" y1="159.8" x2="480.3" y2="194.8" stroke="#16a34a" stroke-width="1"/><rect x="477.6" y="170.3" width="5.4" height="24.0" fill="#16a34a" opacity="0.82" rx="1"/>
<line x1="489.2" y1="163.4" x2="489.2" y2="182.4" stroke="#dc2626" stroke-width="1"/><rect x="486.5" y="170.2" width="5.4" height="9.9" fill="#dc2626" opacity="0.82" rx="1"/>
<line x1="498.1" y1="158.4" x2="498.1" y2="195.2" stroke="#dc2626" stroke-width="1"/><rect x="495.3" y="180.1" width="5.4" height="9.4" fill="#dc2626" opacity="0.82" rx="1"/>
<line x1="506.9" y1="166.9" x2="506.9" y2="204.1" stroke="#dc2626" stroke-width="1"/><rect x="504.2" y="189.5" width="5.4" height="11.2" fill="#dc2626" opacity="0.82" rx="1"/>
<line x1="515.8" y1="173.9" x2="515.8" y2="208.9" stroke="#16a34a" stroke-width="1"/><rect x="513.1" y="177.6" width="5.4" height="23.2" fill="#16a34a" opacity="0.82" rx="1"/>
<line x1="524.7" y1="142.5" x2="524.7" y2="184.7" stroke="#16a34a" stroke-width="1"/><rect x="522.0" y="160.4" width="5.4" height="17.2" fill="#16a34a" opacity="0.82" rx="1"/>
<line x1="533.6" y1="135.2" x2="533.6" y2="162.8" stroke="#16a34a" stroke-width="1"/><rect x="530.9" y="137.3" width="5.4" height="23.1" fill="#16a34a" opacity="0.82" rx="1"/>
<line x1="542.4" y1="108.6" x2="542.4" y2="142.2" stroke="#16a34a" stroke-width="1"/><rect x="539.7" y="114.9" width="5.4" height="22.3" fill="#16a34a" opacity="0.82" rx="1"/>
<line x1="551.3" y1="92.5" x2="551.3" y2="124.6" stroke="#16a34a" stroke-width="1"/><rect x="548.6" y="105.8" width="5.4" height="8.8" fill="#16a34a" opacity="0.82" rx="1"/>
<line x1="560.2" y1="93.6" x2="560.2" y2="140.0" stroke="#dc2626" stroke-width="1"/><rect x="557.5" y="105.8" width="5.4" height="22.3" fill="#dc2626" opacity="0.82" rx="1"/>
<line x1="569.1" y1="93.8" x2="569.1" y2="137.4" stroke="#16a34a" stroke-width="1"/><rect x="566.4" y="99.9" width="5.4" height="28.2" fill="#16a34a" opacity="0.82" rx="1"/>
<line x1="578.0" y1="94.4" x2="578.0" y2="168.8" stroke="#dc2626" stroke-width="1"/><rect x="575.2" y="99.9" width="5.4" height="60.3" fill="#dc2626" opacity="0.82" rx="1"/>
<line x1="586.8" y1="150.7" x2="586.8" y2="206.3" stroke="#dc2626" stroke-width="1"/><rect x="584.1" y="160.3" width="5.4" height="27.4" fill="#dc2626" opacity="0.82" rx="1"/>
<line x1="595.7" y1="179.3" x2="595.7" y2="213.5" stroke="#dc2626" stroke-width="1"/><rect x="593.0" y="187.7" width="5.4" height="19.6" fill="#dc2626" opacity="0.82" rx="1"/>
<line x1="604.6" y1="184.0" x2="604.6" y2="209.8" stroke="#16a34a" stroke-width="1"/><rect x="601.9" y="188.1" width="5.4" height="19.2" fill="#16a34a" opacity="0.82" rx="1"/>
<line x1="613.5" y1="152.1" x2="613.5" y2="190.7" stroke="#16a34a" stroke-width="1"/><rect x="610.7" y="163.8" width="5.4" height="24.3" fill="#16a34a" opacity="0.82" rx="1"/>
<line x1="622.3" y1="162.6" x2="622.3" y2="202.7" stroke="#dc2626" stroke-width="1"/><rect x="619.6" y="163.7" width="5.4" height="36.1" fill="#dc2626" opacity="0.82" rx="1"/>
<line x1="631.2" y1="196.4" x2="631.2" y2="230.5" stroke="#dc2626" stroke-width="1"/><rect x="628.5" y="199.8" width="5.4" height="26.7" fill="#dc2626" opacity="0.82" rx="1"/>
<line x1="640.1" y1="188.7" x2="640.1" y2="229.1" stroke="#16a34a" stroke-width="1"/><rect x="637.4" y="192.9" width="5.4" height="33.5" fill="#16a34a" opacity="0.82" rx="1"/>
<line x1="649.0" y1="172.2" x2="649.0" y2="205.7" stroke="#16a34a" stroke-width="1"/><rect x="646.2" y="191.0" width="5.4" height="2.0" fill="#16a34a" opacity="0.82" rx="1"/>
<line x1="657.8" y1="181.4" x2="657.8" y2="203.4" stroke="#16a34a" stroke-width="1"/><rect x="655.1" y="182.4" width="5.4" height="8.6" fill="#16a34a" opacity="0.82" rx="1"/>
<line x1="666.7" y1="162.0" x2="666.7" y2="189.0" stroke="#16a34a" stroke-width="1"/><rect x="664.0" y="163.3" width="5.4" height="19.2" fill="#16a34a" opacity="0.82" rx="1"/>
<line x1="675.6" y1="134.9" x2="675.6" y2="168.1" stroke="#16a34a" stroke-width="1"/><rect x="672.9" y="145.7" width="5.4" height="17.6" fill="#16a34a" opacity="0.82" rx="1"/>
<line x1="684.5" y1="85.5" x2="684.5" y2="148.8" stroke="#16a34a" stroke-width="1"/><rect x="681.8" y="105.8" width="5.4" height="39.8" fill="#16a34a" opacity="0.82" rx="1"/>
<line x1="693.3" y1="86.8" x2="693.3" y2="127.5" stroke="#dc2626" stroke-width="1"/><rect x="690.6" y="105.8" width="5.4" height="14.5" fill="#dc2626" opacity="0.82" rx="1"/>
<line x1="702.2" y1="105.0" x2="702.2" y2="147.6" stroke="#dc2626" stroke-width="1"/><rect x="699.5" y="120.3" width="5.4" height="16.6" fill="#dc2626" opacity="0.82" rx="1"/>
<line x1="711.1" y1="118.9" x2="711.1" y2="153.1" stroke="#16a34a" stroke-width="1"/><rect x="708.4" y="125.6" width="5.4" height="11.4" fill="#16a34a" opacity="0.82" rx="1"/>
<line x1="720.0" y1="118.6" x2="720.0" y2="136.6" stroke="#16a34a" stroke-width="1"/><rect x="717.3" y="122.7" width="5.4" height="2.8" fill="#16a34a" opacity="0.82" rx="1"/>
<line x1="728.9" y1="121.7" x2="728.9" y2="147.7" stroke="#dc2626" stroke-width="1"/><rect x="726.1" y="122.7" width="5.4" height="22.8" fill="#dc2626" opacity="0.82" rx="1"/>
<line x1="737.7" y1="129.6" x2="737.7" y2="156.3" stroke="#dc2626" stroke-width="1"/><rect x="735.0" y="145.6" width="5.4" height="3.8" fill="#dc2626" opacity="0.82" rx="1"/>
<line x1="746.6" y1="142.9" x2="746.6" y2="177.0" stroke="#dc2626" stroke-width="1"/><rect x="743.9" y="149.4" width="5.4" height="24.4" fill="#dc2626" opacity="0.82" rx="1"/>
<line x1="755.5" y1="161.2" x2="755.5" y2="192.2" stroke="#16a34a" stroke-width="1"/><rect x="752.8" y="163.5" width="5.4" height="10.3" fill="#16a34a" opacity="0.82" rx="1"/>
<line x1="764.4" y1="154.5" x2="764.4" y2="196.5" stroke="#16a34a" stroke-width="1"/><rect x="761.6" y="162.4" width="5.4" height="1.2" fill="#16a34a" opacity="0.82" rx="1"/>
<line x1="773.2" y1="154.3" x2="773.2" y2="181.3" stroke="#16a34a" stroke-width="1"/><rect x="770.5" y="160.8" width="5.4" height="1.6" fill="#16a34a" opacity="0.82" rx="1"/>
<line x1="782.1" y1="158.6" x2="782.1" y2="178.0" stroke="#dc2626" stroke-width="1"/><rect x="779.4" y="160.8" width="5.4" height="16.1" fill="#dc2626" opacity="0.82" rx="1"/>
<line x1="791.0" y1="165.7" x2="791.0" y2="183.3" stroke="#dc2626" stroke-width="1"/><rect x="788.3" y="177.0" width="5.4" height="1.3" fill="#dc2626" opacity="0.82" rx="1"/>
<line x1="799.9" y1="140.4" x2="799.9" y2="182.5" stroke="#16a34a" stroke-width="1"/><rect x="797.1" y="145.6" width="5.4" height="32.7" fill="#16a34a" opacity="0.82" rx="1"/>
<line x1="808.7" y1="145.4" x2="808.7" y2="162.2" stroke="#dc2626" stroke-width="1"/><rect x="806.0" y="145.7" width="5.4" height="11.1" fill="#dc2626" opacity="0.82" rx="1"/>
<line x1="817.6" y1="150.9" x2="817.6" y2="175.7" stroke="#dc2626" stroke-width="1"/><rect x="814.9" y="156.7" width="5.4" height="15.9" fill="#dc2626" opacity="0.82" rx="1"/>
<line x1="826.5" y1="144.1" x2="826.5" y2="176.8" stroke="#16a34a" stroke-width="1"/><rect x="823.8" y="145.6" width="5.4" height="27.1" fill="#16a34a" opacity="0.82" rx="1"/>
<line x1="835.4" y1="119.6" x2="835.4" y2="151.9" stroke="#16a34a" stroke-width="1"/><rect x="832.6" y="123.4" width="5.4" height="22.3" fill="#16a34a" opacity="0.82" rx="1"/>
<line x1="844.2" y1="115.2" x2="844.2" y2="131.0" stroke="#dc2626" stroke-width="1"/><rect x="841.5" y="123.3" width="5.4" height="4.8" fill="#dc2626" opacity="0.82" rx="1"/>
<line x1="853.1" y1="117.0" x2="853.1" y2="137.8" stroke="#16a34a" stroke-width="1"/><rect x="850.4" y="119.2" width="5.4" height="8.8" fill="#16a34a" opacity="0.82" rx="1"/>
<line x1="862.0" y1="111.7" x2="862.0" y2="123.3" stroke="#dc2626" stroke-width="1"/><rect x="859.3" y="119.2" width="5.4" height="1.6" fill="#dc2626" opacity="0.82" rx="1"/>
<line x1="72" y1="160.2" x2="862" y2="160.2" stroke="#16a34a" stroke-width="1.8" stroke-dasharray="6 4" /><rect x="874" y="140.2" width="166" height="23" rx="5" fill="#ffffff" stroke="#16a34a" opacity="0.97"/><text x="881" y="156.2" fill="#16a34a" font-size="15" font-weight="700">支撑 64.44</text>
<line x1="72" y1="55.1" x2="862" y2="55.1" stroke="#dc2626" stroke-width="1.8" stroke-dasharray="6 4" /><rect x="874" y="35.1" width="166" height="23" rx="5" fill="#ffffff" stroke="#dc2626" opacity="0.97"/><text x="881" y="51.1" fill="#dc2626" font-size="15" font-weight="700">压力 82.11</text>
<line x1="72" y1="120.8" x2="862" y2="120.8" stroke="#111827" stroke-width="1.8" stroke-dasharray="2 2" /><rect x="874" y="100.8" width="166" height="23" rx="5" fill="#ffffff" stroke="#111827" opacity="0.97"/><text x="881" y="116.8" fill="#111827" font-size="15" font-weight="700">现价 71.06</text>
<text x="72" y="396" fill="#16a34a" font-size="14" font-weight="700">日线做多计划</text><rect x="72" y="404" width="790" height="48" rx="6" fill="#f9fafb" stroke="#e5e7eb"/><line x1="94" y1="412" x2="840" y2="412" stroke="#16a34a" stroke-width="3"/><circle cx="132.0" cy="412" r="5" fill="#16a34a"/><text x="132.0" y="434" fill="#374151" font-size="12" text-anchor="middle">入场 止跌/突破回踩</text><circle cx="451.2" cy="412" r="5" fill="#16a34a"/><text x="451.2" y="434" fill="#374151" font-size="12" text-anchor="middle">止损 64.44</text><circle cx="712.0" cy="412" r="5" fill="#16a34a"/><text x="712.0" y="434" fill="#374151" font-size="12" text-anchor="middle">目标一 82.11</text><circle cx="814.0" cy="412" r="5" fill="#16a34a"/><text x="814.0" y="434" fill="#374151" font-size="12" text-anchor="middle">目标二 88.74</text>
<text x="72" y="482" fill="#dc2626" font-size="14" font-weight="700">日线做空计划</text><rect x="72" y="490" width="790" height="48" rx="6" fill="#f9fafb" stroke="#e5e7eb"/><line x1="94" y1="498" x2="840" y2="498" stroke="#dc2626" stroke-width="3"/><circle cx="132.0" cy="498" r="5" fill="#dc2626"/><text x="132.0" y="520" fill="#374151" font-size="12" text-anchor="middle">入场 反弹承压/破位回抽</text><circle cx="451.2" cy="498" r="5" fill="#dc2626"/><text x="451.2" y="520" fill="#374151" font-size="12" text-anchor="middle">止损 82.11</text><circle cx="712.0" cy="498" r="5" fill="#dc2626"/><text x="712.0" y="520" fill="#374151" font-size="12" text-anchor="middle">目标一 64.44</text><circle cx="814.0" cy="498" r="5" fill="#dc2626"/><text x="814.0" y="520" fill="#374151" font-size="12" text-anchor="middle">目标二 60.02</text>
</svg>