<svg xmlns="http://www.w3.org/2000/svg" width="1080" height="560" viewBox="0 0 1080 560">
<rect width="100%" height="100%" fill="#ffffff"/>
<text x="72" y="23" fill="#111827" font-size="21" font-weight="800">HYPE 日线K线支撑压力图</text>
<text x="862" y="42" fill="#374151" font-size="15" text-anchor="end">最新价 71.77</text>
<line x1="72" y1="34" x2="72" y2="340" stroke="#d1d5db"/>
<line x1="72" y1="340" x2="862" y2="340" stroke="#d1d5db"/>
<line x1="72" y1="340.0" x2="862" y2="340.0" stroke="#f3f4f6"/>
<text x="8" y="345.0" fill="#4b5563" font-size="14">34.16</text>
<line x1="72" y1="263.5" x2="862" y2="263.5" stroke="#f3f4f6"/>
<text x="8" y="268.5" fill="#4b5563" font-size="14">47.18</text>
<line x1="72" y1="187.0" x2="862" y2="187.0" stroke="#f3f4f6"/>
<text x="8" y="192.0" fill="#4b5563" font-size="14">60.19</text>
<line x1="72" y1="110.5" x2="862" y2="110.5" stroke="#f3f4f6"/>
<text x="8" y="115.5" fill="#4b5563" font-size="14">73.21</text>
<line x1="72" y1="34.0" x2="862" y2="34.0" stroke="#f3f4f6"/>
<text x="8" y="39.0" fill="#4b5563" font-size="14">86.23</text>
<line x1="72.0" y1="306.9" x2="72.0" y2="318.9" stroke="#16a34a" stroke-width="1"/><rect x="69.3" y="313.0" width="5.4" height="1.2" fill="#16a34a" opacity="0.82" rx="1"/>
<line x1="80.9" y1="303.3" x2="80.9" y2="316.6" stroke="#16a34a" stroke-width="1"/><rect x="78.2" y="308.9" width="5.4" height="4.1" fill="#16a34a" opacity="0.82" rx="1"/>
<line x1="89.8" y1="292.5" x2="89.8" y2="309.1" stroke="#16a34a" stroke-width="1"/><rect x="87.0" y="296.3" width="5.4" height="12.5" fill="#16a34a" opacity="0.82" rx="1"/>
<line x1="98.6" y1="287.0" x2="98.6" y2="297.0" stroke="#16a34a" stroke-width="1"/><rect x="95.9" y="292.3" width="5.4" height="4.0" fill="#16a34a" opacity="0.82" rx="1"/>
<line x1="107.5" y1="289.1" x2="107.5" y2="304.6" stroke="#dc2626" stroke-width="1"/><rect x="104.8" y="292.3" width="5.4" height="8.4" fill="#dc2626" opacity="0.82" rx="1"/>
<line x1="116.4" y1="278.5" x2="116.4" y2="301.1" stroke="#16a34a" stroke-width="1"/><rect x="113.7" y="280.2" width="5.4" height="20.5" fill="#16a34a" opacity="0.82" rx="1"/>
<line x1="125.3" y1="274.3" x2="125.3" y2="288.5" stroke="#dc2626" stroke-width="1"/><rect x="122.5" y="280.3" width="5.4" height="4.7" fill="#dc2626" opacity="0.82" rx="1"/>
<line x1="134.1" y1="273.6" x2="134.1" y2="287.3" stroke="#16a34a" stroke-width="1"/><rect x="131.4" y="278.4" width="5.4" height="6.5" fill="#16a34a" opacity="0.82" rx="1"/>
<line x1="143.0" y1="271.8" x2="143.0" y2="286.3" stroke="#dc2626" stroke-width="1"/><rect x="140.3" y="278.4" width="5.4" height="4.9" fill="#dc2626" opacity="0.82" rx="1"/>
<line x1="151.9" y1="273.4" x2="151.9" y2="287.0" stroke="#16a34a" stroke-width="1"/><rect x="149.2" y="278.5" width="5.4" height="4.7" fill="#16a34a" opacity="0.82" rx="1"/>
<line x1="160.8" y1="273.6" x2="160.8" y2="283.8" stroke="#dc2626" stroke-width="1"/><rect x="158.0" y="278.5" width="5.4" height="4.9" fill="#dc2626" opacity="0.82" rx="1"/>
<line x1="169.6" y1="282.6" x2="169.6" y2="302.7" stroke="#dc2626" stroke-width="1"/><rect x="166.9" y="283.5" width="5.4" height="18.2" fill="#dc2626" opacity="0.82" rx="1"/>
<line x1="178.5" y1="295.2" x2="178.5" y2="302.4" stroke="#16a34a" stroke-width="1"/><rect x="175.8" y="301.5" width="5.4" height="1.2" fill="#16a34a" opacity="0.82" rx="1"/>
<line x1="187.4" y1="297.3" x2="187.4" y2="312.2" stroke="#dc2626" stroke-width="1"/><rect x="184.7" y="301.6" width="5.4" height="5.5" fill="#dc2626" opacity="0.82" rx="1"/>
<line x1="196.3" y1="295.4" x2="196.3" y2="307.9" stroke="#16a34a" stroke-width="1"/><rect x="193.5" y="298.9" width="5.4" height="8.2" fill="#16a34a" opacity="0.82" rx="1"/>
<line x1="205.1" y1="294.7" x2="205.1" y2="302.6" stroke="#16a34a" stroke-width="1"/><rect x="202.4" y="298.0" width="5.4" height="1.2" fill="#16a34a" opacity="0.82" rx="1"/>
<line x1="214.0" y1="296.6" x2="214.0" y2="301.7" stroke="#dc2626" stroke-width="1"/><rect x="211.3" y="298.0" width="5.4" height="1.2" fill="#dc2626" opacity="0.82" rx="1"/>
<line x1="222.9" y1="294.5" x2="222.9" y2="300.8" stroke="#16a34a" stroke-width="1"/><rect x="220.2" y="296.8" width="5.4" height="1.9" fill="#16a34a" opacity="0.82" rx="1"/>
<line x1="231.8" y1="290.4" x2="231.8" y2="300.1" stroke="#16a34a" stroke-width="1"/><rect x="229.1" y="291.2" width="5.4" height="5.6" fill="#16a34a" opacity="0.82" rx="1"/>
<line x1="240.7" y1="284.7" x2="240.7" y2="298.2" stroke="#dc2626" stroke-width="1"/><rect x="237.9" y="291.2" width="5.4" height="4.8" fill="#dc2626" opacity="0.82" rx="1"/>
<line x1="249.5" y1="294.9" x2="249.5" y2="309.3" stroke="#dc2626" stroke-width="1"/><rect x="246.8" y="296.0" width="5.4" height="8.7" fill="#dc2626" opacity="0.82" rx="1"/>
<line x1="258.4" y1="301.0" x2="258.4" y2="310.6" stroke="#dc2626" stroke-width="1"/><rect x="255.7" y="304.7" width="5.4" height="1.3" fill="#dc2626" opacity="0.82" rx="1"/>
<line x1="267.3" y1="303.7" x2="267.3" y2="313.3" stroke="#dc2626" stroke-width="1"/><rect x="264.6" y="306.1" width="5.4" height="1.4" fill="#dc2626" opacity="0.82" rx="1"/>
<line x1="276.2" y1="299.0" x2="276.2" y2="307.6" stroke="#16a34a" stroke-width="1"/><rect x="273.4" y="299.0" width="5.4" height="8.5" fill="#16a34a" opacity="0.82" rx="1"/>
<line x1="285.0" y1="291.3" x2="285.0" y2="299.9" stroke="#16a34a" stroke-width="1"/><rect x="282.3" y="298.3" width="5.4" height="1.2" fill="#16a34a" opacity="0.82" rx="1"/>
<line x1="293.9" y1="295.5" x2="293.9" y2="301.7" stroke="#16a34a" stroke-width="1"/><rect x="291.2" y="296.6" width="5.4" height="1.8" fill="#16a34a" opacity="0.82" rx="1"/>
<line x1="302.8" y1="290.4" x2="302.8" y2="300.9" stroke="#16a34a" stroke-width="1"/><rect x="300.1" y="295.0" width="5.4" height="1.5" fill="#16a34a" opacity="0.82" rx="1"/>
<line x1="311.7" y1="278.4" x2="311.7" y2="295.3" stroke="#16a34a" stroke-width="1"/><rect x="308.9" y="283.9" width="5.4" height="11.1" fill="#16a34a" opacity="0.82" rx="1"/>
<line x1="320.5" y1="277.7" x2="320.5" y2="288.6" stroke="#dc2626" stroke-width="1"/><rect x="317.8" y="283.9" width="5.4" height="3.4" fill="#dc2626" opacity="0.82" rx="1"/>
<line x1="329.4" y1="284.8" x2="329.4" y2="294.8" stroke="#dc2626" stroke-width="1"/><rect x="326.7" y="287.3" width="5.4" height="3.6" fill="#dc2626" opacity="0.82" rx="1"/>
<line x1="338.3" y1="285.1" x2="338.3" y2="293.7" stroke="#16a34a" stroke-width="1"/><rect x="335.6" y="286.5" width="5.4" height="4.3" fill="#16a34a" opacity="0.82" rx="1"/>
<line x1="347.2" y1="279.7" x2="347.2" y2="289.0" stroke="#dc2626" stroke-width="1"/><rect x="344.4" y="286.5" width="5.4" height="2.1" fill="#dc2626" opacity="0.82" rx="1"/>
<line x1="356.0" y1="283.9" x2="356.0" y2="293.2" stroke="#16a34a" stroke-width="1"/><rect x="353.3" y="288.0" width="5.4" height="1.2" fill="#16a34a" opacity="0.82" rx="1"/>
<line x1="364.9" y1="287.2" x2="364.9" y2="300.8" stroke="#dc2626" stroke-width="1"/><rect x="362.2" y="288.0" width="5.4" height="6.0" fill="#dc2626" opacity="0.82" rx="1"/>
<line x1="373.8" y1="293.6" x2="373.8" y2="307.0" stroke="#dc2626" stroke-width="1"/><rect x="371.1" y="293.9" width="5.4" height="10.2" fill="#dc2626" opacity="0.82" rx="1"/>
<line x1="382.7" y1="301.5" x2="382.7" y2="313.2" stroke="#dc2626" stroke-width="1"/><rect x="380.0" y="304.2" width="5.4" height="8.4" fill="#dc2626" opacity="0.82" rx="1"/>
<line x1="391.6" y1="277.7" x2="391.6" y2="316.5" stroke="#16a34a" stroke-width="1"/><rect x="388.8" y="281.4" width="5.4" height="31.2" fill="#16a34a" opacity="0.82" rx="1"/>
<line x1="400.4" y1="264.2" x2="400.4" y2="289.2" stroke="#16a34a" stroke-width="1"/><rect x="397.7" y="281.3" width="5.4" height="1.2" fill="#16a34a" opacity="0.82" rx="1"/>
<line x1="409.3" y1="279.3" x2="409.3" y2="303.5" stroke="#dc2626" stroke-width="1"/><rect x="406.6" y="281.3" width="5.4" height="13.7" fill="#dc2626" opacity="0.82" rx="1"/>
<line x1="418.2" y1="263.7" x2="418.2" y2="297.8" stroke="#16a34a" stroke-width="1"/><rect x="415.5" y="272.3" width="5.4" height="22.7" fill="#16a34a" opacity="0.82" rx="1"/>
<line x1="427.1" y1="258.7" x2="427.1" y2="281.0" stroke="#16a34a" stroke-width="1"/><rect x="424.3" y="260.1" width="5.4" height="12.2" fill="#16a34a" opacity="0.82" rx="1"/>
<line x1="435.9" y1="253.4" x2="435.9" y2="265.7" stroke="#16a34a" stroke-width="1"/><rect x="433.2" y="258.6" width="5.4" height="1.5" fill="#16a34a" opacity="0.82" rx="1"/>
<line x1="444.8" y1="218.4" x2="444.8" y2="264.1" stroke="#16a34a" stroke-width="1"/><rect x="442.1" y="218.5" width="5.4" height="40.2" fill="#16a34a" opacity="0.82" rx="1"/>
<line x1="453.7" y1="172.9" x2="453.7" y2="219.2" stroke="#16a34a" stroke-width="1"/><rect x="451.0" y="196.5" width="5.4" height="22.1" fill="#16a34a" opacity="0.82" rx="1"/>
<line x1="462.6" y1="176.6" x2="462.6" y2="221.8" stroke="#dc2626" stroke-width="1"/><rect x="459.8" y="196.5" width="5.4" height="23.5" fill="#dc2626" opacity="0.82" rx="1"/>
<line x1="471.4" y1="188.7" x2="471.4" y2="223.4" stroke="#16a34a" stroke-width="1"/><rect x="468.7" y="195.8" width="5.4" height="24.2" fill="#16a34a" opacity="0.82" rx="1"/>
<line x1="480.3" y1="161.7" x2="480.3" y2="196.3" stroke="#16a34a" stroke-width="1"/><rect x="477.6" y="172.0" width="5.4" height="23.7" fill="#16a34a" opacity="0.82" rx="1"/>
<line x1="489.2" y1="165.2" x2="489.2" y2="184.0" stroke="#dc2626" stroke-width="1"/><rect x="486.5" y="171.9" width="5.4" height="9.8" fill="#dc2626" opacity="0.82" rx="1"/>
<line x1="498.1" y1="160.3" x2="498.1" y2="196.7" stroke="#dc2626" stroke-width="1"/><rect x="495.3" y="181.7" width="5.4" height="9.3" fill="#dc2626" opacity="0.82" rx="1"/>
<line x1="506.9" y1="168.6" x2="506.9" y2="205.4" stroke="#dc2626" stroke-width="1"/><rect x="504.2" y="191.0" width="5.4" height="11.1" fill="#dc2626" opacity="0.82" rx="1"/>
<line x1="515.8" y1="175.6" x2="515.8" y2="210.2" stroke="#16a34a" stroke-width="1"/><rect x="513.1" y="179.2" width="5.4" height="22.9" fill="#16a34a" opacity="0.82" rx="1"/>
<line x1="524.7" y1="144.5" x2="524.7" y2="186.2" stroke="#16a34a" stroke-width="1"/><rect x="522.0" y="162.2" width="5.4" height="17.0" fill="#16a34a" opacity="0.82" rx="1"/>
<line x1="533.6" y1="137.4" x2="533.6" y2="164.6" stroke="#16a34a" stroke-width="1"/><rect x="530.9" y="139.4" width="5.4" height="22.8" fill="#16a34a" opacity="0.82" rx="1"/>
<line x1="542.4" y1="111.0" x2="542.4" y2="144.2" stroke="#16a34a" stroke-width="1"/><rect x="539.7" y="117.3" width="5.4" height="22.1" fill="#16a34a" opacity="0.82" rx="1"/>
<line x1="551.3" y1="95.1" x2="551.3" y2="126.9" stroke="#16a34a" stroke-width="1"/><rect x="548.6" y="108.3" width="5.4" height="8.7" fill="#16a34a" opacity="0.82" rx="1"/>
<line x1="560.2" y1="96.2" x2="560.2" y2="142.1" stroke="#dc2626" stroke-width="1"/><rect x="557.5" y="108.3" width="5.4" height="22.0" fill="#dc2626" opacity="0.82" rx="1"/>
<line x1="569.1" y1="96.5" x2="569.1" y2="139.5" stroke="#16a34a" stroke-width="1"/><rect x="566.4" y="102.5" width="5.4" height="27.9" fill="#16a34a" opacity="0.82" rx="1"/>
<line x1="578.0" y1="97.0" x2="578.0" y2="170.5" stroke="#dc2626" stroke-width="1"/><rect x="575.2" y="102.5" width="5.4" height="59.6" fill="#dc2626" opacity="0.82" rx="1"/>
<line x1="586.8" y1="152.7" x2="586.8" y2="207.6" stroke="#dc2626" stroke-width="1"/><rect x="584.1" y="162.1" width="5.4" height="27.1" fill="#dc2626" opacity="0.82" rx="1"/>
<line x1="595.7" y1="181.0" x2="595.7" y2="214.7" stroke="#dc2626" stroke-width="1"/><rect x="593.0" y="189.3" width="5.4" height="19.4" fill="#dc2626" opacity="0.82" rx="1"/>
<line x1="604.6" y1="185.5" x2="604.6" y2="211.0" stroke="#16a34a" stroke-width="1"/><rect x="601.9" y="189.6" width="5.4" height="18.9" fill="#16a34a" opacity="0.82" rx="1"/>
<line x1="613.5" y1="154.0" x2="613.5" y2="192.2" stroke="#16a34a" stroke-width="1"/><rect x="610.7" y="165.6" width="5.4" height="24.0" fill="#16a34a" opacity="0.82" rx="1"/>
<line x1="622.3" y1="164.4" x2="622.3" y2="204.0" stroke="#dc2626" stroke-width="1"/><rect x="619.6" y="165.5" width="5.4" height="35.7" fill="#dc2626" opacity="0.82" rx="1"/>
<line x1="631.2" y1="197.8" x2="631.2" y2="231.6" stroke="#dc2626" stroke-width="1"/><rect x="628.5" y="201.2" width="5.4" height="26.4" fill="#dc2626" opacity="0.82" rx="1"/>
<line x1="640.1" y1="190.2" x2="640.1" y2="230.1" stroke="#16a34a" stroke-width="1"/><rect x="637.4" y="194.4" width="5.4" height="33.1" fill="#16a34a" opacity="0.82" rx="1"/>
<line x1="649.0" y1="173.9" x2="649.0" y2="207.0" stroke="#16a34a" stroke-width="1"/><rect x="646.2" y="192.5" width="5.4" height="2.0" fill="#16a34a" opacity="0.82" rx="1"/>
<line x1="657.8" y1="183.0" x2="657.8" y2="204.8" stroke="#16a34a" stroke-width="1"/><rect x="655.1" y="184.0" width="5.4" height="8.5" fill="#16a34a" opacity="0.82" rx="1"/>
<line x1="666.7" y1="163.8" x2="666.7" y2="190.5" stroke="#16a34a" stroke-width="1"/><rect x="664.0" y="165.1" width="5.4" height="19.0" fill="#16a34a" opacity="0.82" rx="1"/>
<line x1="675.6" y1="137.0" x2="675.6" y2="169.8" stroke="#16a34a" stroke-width="1"/><rect x="672.9" y="147.7" width="5.4" height="17.4" fill="#16a34a" opacity="0.82" rx="1"/>
<line x1="684.5" y1="88.2" x2="684.5" y2="150.7" stroke="#16a34a" stroke-width="1"/><rect x="681.8" y="108.3" width="5.4" height="39.3" fill="#16a34a" opacity="0.82" rx="1"/>
<line x1="693.3" y1="89.5" x2="693.3" y2="129.7" stroke="#dc2626" stroke-width="1"/><rect x="690.6" y="108.3" width="5.4" height="14.3" fill="#dc2626" opacity="0.82" rx="1"/>
<line x1="702.2" y1="107.5" x2="702.2" y2="149.6" stroke="#dc2626" stroke-width="1"/><rect x="699.5" y="122.6" width="5.4" height="16.4" fill="#dc2626" opacity="0.82" rx="1"/>
<line x1="711.1" y1="121.2" x2="711.1" y2="155.0" stroke="#16a34a" stroke-width="1"/><rect x="708.4" y="127.8" width="5.4" height="11.3" fill="#16a34a" opacity="0.82" rx="1"/>
<line x1="720.0" y1="121.0" x2="720.0" y2="138.7" stroke="#16a34a" stroke-width="1"/><rect x="717.3" y="125.0" width="5.4" height="2.8" fill="#16a34a" opacity="0.82" rx="1"/>
<line x1="728.9" y1="124.0" x2="728.9" y2="149.7" stroke="#dc2626" stroke-width="1"/><rect x="726.1" y="125.0" width="5.4" height="22.6" fill="#dc2626" opacity="0.82" rx="1"/>
<line x1="737.7" y1="131.8" x2="737.7" y2="158.2" stroke="#dc2626" stroke-width="1"/><rect x="735.0" y="147.6" width="5.4" height="3.8" fill="#dc2626" opacity="0.82" rx="1"/>
<line x1="746.6" y1="145.0" x2="746.6" y2="178.6" stroke="#dc2626" stroke-width="1"/><rect x="743.9" y="151.4" width="5.4" height="24.2" fill="#dc2626" opacity="0.82" rx="1"/>
<line x1="755.5" y1="163.0" x2="755.5" y2="193.7" stroke="#16a34a" stroke-width="1"/><rect x="752.8" y="165.3" width="5.4" height="10.2" fill="#16a34a" opacity="0.82" rx="1"/>
<line x1="764.4" y1="156.4" x2="764.4" y2="198.0" stroke="#16a34a" stroke-width="1"/><rect x="761.6" y="164.2" width="5.4" height="1.2" fill="#16a34a" opacity="0.82" rx="1"/>
<line x1="773.2" y1="156.2" x2="773.2" y2="182.9" stroke="#16a34a" stroke-width="1"/><rect x="770.5" y="162.7" width="5.4" height="1.5" fill="#16a34a" opacity="0.82" rx="1"/>
<line x1="782.1" y1="160.5" x2="782.1" y2="179.7" stroke="#dc2626" stroke-width="1"/><rect x="779.4" y="162.7" width="5.4" height="16.0" fill="#dc2626" opacity="0.82" rx="1"/>
<line x1="791.0" y1="167.5" x2="791.0" y2="184.9" stroke="#dc2626" stroke-width="1"/><rect x="788.3" y="178.6" width="5.4" height="1.3" fill="#dc2626" opacity="0.82" rx="1"/>
<line x1="799.9" y1="142.5" x2="799.9" y2="184.1" stroke="#16a34a" stroke-width="1"/><rect x="797.1" y="147.6" width="5.4" height="32.3" fill="#16a34a" opacity="0.82" rx="1"/>
<line x1="808.7" y1="147.4" x2="808.7" y2="164.0" stroke="#dc2626" stroke-width="1"/><rect x="806.0" y="147.7" width="5.4" height="11.0" fill="#dc2626" opacity="0.82" rx="1"/>
<line x1="817.6" y1="152.9" x2="817.6" y2="177.4" stroke="#dc2626" stroke-width="1"/><rect x="814.9" y="158.6" width="5.4" height="15.8" fill="#dc2626" opacity="0.82" rx="1"/>
<line x1="826.5" y1="146.2" x2="826.5" y2="178.5" stroke="#16a34a" stroke-width="1"/><rect x="823.8" y="147.6" width="5.4" height="26.7" fill="#16a34a" opacity="0.82" rx="1"/>
<line x1="835.4" y1="121.9" x2="835.4" y2="153.8" stroke="#16a34a" stroke-width="1"/><rect x="832.6" y="125.6" width="5.4" height="22.0" fill="#16a34a" opacity="0.82" rx="1"/>
<line x1="844.2" y1="117.6" x2="844.2" y2="133.2" stroke="#dc2626" stroke-width="1"/><rect x="841.5" y="125.6" width="5.4" height="4.7" fill="#dc2626" opacity="0.82" rx="1"/>
<line x1="853.1" y1="119.3" x2="853.1" y2="139.9" stroke="#16a34a" stroke-width="1"/><rect x="850.4" y="121.6" width="5.4" height="8.7" fill="#16a34a" opacity="0.82" rx="1"/>
<line x1="862.0" y1="117.2" x2="862.0" y2="122.8" stroke="#16a34a" stroke-width="1"/><rect x="859.3" y="119.0" width="5.4" height="2.6" fill="#16a34a" opacity="0.82" rx="1"/>
<line x1="72" y1="157.3" x2="862" y2="157.3" stroke="#16a34a" stroke-width="1.8" stroke-dasharray="6 4" /><rect x="874" y="137.3" width="166" height="23" rx="5" fill="#ffffff" stroke="#16a34a" opacity="0.97"/><text x="881" y="153.3" fill="#16a34a" font-size="15" font-weight="700">支撑 65.25</text>
<line x1="72" y1="55.1" x2="862" y2="55.1" stroke="#dc2626" stroke-width="1.8" stroke-dasharray="6 4" /><rect x="874" y="35.1" width="166" height="23" rx="5" fill="#ffffff" stroke="#dc2626" opacity="0.97"/><text x="881" y="51.1" fill="#dc2626" font-size="15" font-weight="700">压力 82.64</text>
<line x1="72" y1="119.0" x2="862" y2="119.0" stroke="#111827" stroke-width="1.8" stroke-dasharray="2 2" /><rect x="874" y="99.0" width="166" height="23" rx="5" fill="#ffffff" stroke="#111827" opacity="0.97"/><text x="881" y="115.0" fill="#111827" font-size="15" font-weight="700">现价 71.77</text>
<text x="72" y="396" fill="#16a34a" font-size="14" font-weight="700">日线做多计划</text><rect x="72" y="404" width="790" height="48" rx="6" fill="#f9fafb" stroke="#e5e7eb"/><line x1="94" y1="412" x2="840" y2="412" stroke="#16a34a" stroke-width="3"/><circle cx="132.0" cy="412" r="5" fill="#16a34a"/><text x="132.0" y="434" fill="#374151" font-size="12" text-anchor="middle">入场 止跌/突破回踩</text><circle cx="451.2" cy="412" r="5" fill="#16a34a"/><text x="451.2" y="434" fill="#374151" font-size="12" text-anchor="middle">止损 65.25</text><circle cx="712.0" cy="412" r="5" fill="#16a34a"/><text x="712.0" y="434" fill="#374151" font-size="12" text-anchor="middle">目标一 82.64</text><circle cx="814.0" cy="412" r="5" fill="#16a34a"/><text x="814.0" y="434" fill="#374151" font-size="12" text-anchor="middle">目标二 89.16</text>
<text x="72" y="482" fill="#dc2626" font-size="14" font-weight="700">日线做空计划</text><rect x="72" y="490" width="790" height="48" rx="6" fill="#f9fafb" stroke="#e5e7eb"/><line x1="94" y1="498" x2="840" y2="498" stroke="#dc2626" stroke-width="3"/><circle cx="132.0" cy="498" r="5" fill="#dc2626"/><text x="132.0" y="520" fill="#374151" font-size="12" text-anchor="middle">入场 反弹承压/破位回抽</text><circle cx="451.2" cy="498" r="5" fill="#dc2626"/><text x="451.2" y="520" fill="#374151" font-size="12" text-anchor="middle">止损 82.64</text><circle cx="712.0" cy="498" r="5" fill="#dc2626"/><text x="712.0" y="520" fill="#374151" font-size="12" text-anchor="middle">目标一 65.25</text><circle cx="814.0" cy="498" r="5" fill="#dc2626"/><text x="814.0" y="520" fill="#374151" font-size="12" text-anchor="middle">目标二 60.90</text>
</svg>