<svg xmlns="http://www.w3.org/2000/svg" width="1080" height="560" viewBox="0 0 1080 560">
<rect width="100%" height="100%" fill="#ffffff"/>
<text x="72" y="23" fill="#111827" font-size="21" font-weight="800">BTC 小时线K线支撑压力图</text>
<text x="862" y="42" fill="#374151" font-size="15" text-anchor="end">最新价 63,527</text>
<line x1="72" y1="34" x2="72" y2="340" stroke="#d1d5db"/>
<line x1="72" y1="340" x2="862" y2="340" stroke="#d1d5db"/>
<line x1="72" y1="340.0" x2="862" y2="340.0" stroke="#f3f4f6"/>
<text x="8" y="345.0" fill="#4b5563" font-size="14">59,743</text>
<line x1="72" y1="263.5" x2="862" y2="263.5" stroke="#f3f4f6"/>
<text x="8" y="268.5" fill="#4b5563" font-size="14">60,967</text>
<line x1="72" y1="187.0" x2="862" y2="187.0" stroke="#f3f4f6"/>
<text x="8" y="192.0" fill="#4b5563" font-size="14">62,191</text>
<line x1="72" y1="110.5" x2="862" y2="110.5" stroke="#f3f4f6"/>
<text x="8" y="115.5" fill="#4b5563" font-size="14">63,416</text>
<line x1="72" y1="34.0" x2="862" y2="34.0" stroke="#f3f4f6"/>
<text x="8" y="39.0" fill="#4b5563" font-size="14">64,640</text>
<line x1="72.0" y1="306.0" x2="72.0" y2="318.9" stroke="#dc2626" stroke-width="1"/><rect x="69.3" y="308.5" width="5.4" height="7.6" fill="#dc2626" opacity="0.82" rx="1"/>
<line x1="80.9" y1="290.1" x2="80.9" y2="316.9" stroke="#16a34a" stroke-width="1"/><rect x="78.2" y="293.5" width="5.4" height="22.6" fill="#16a34a" opacity="0.82" rx="1"/>
<line x1="89.8" y1="233.5" x2="89.8" y2="302.5" stroke="#16a34a" stroke-width="1"/><rect x="87.0" y="251.5" width="5.4" height="42.1" fill="#16a34a" opacity="0.82" rx="1"/>
<line x1="98.6" y1="240.8" x2="98.6" y2="260.2" stroke="#16a34a" stroke-width="1"/><rect x="95.9" y="246.6" width="5.4" height="4.9" fill="#16a34a" opacity="0.82" rx="1"/>
<line x1="107.5" y1="238.5" x2="107.5" y2="255.2" stroke="#16a34a" stroke-width="1"/><rect x="104.8" y="240.9" width="5.4" height="5.7" fill="#16a34a" opacity="0.82" rx="1"/>
<line x1="116.4" y1="224.5" x2="116.4" y2="254.6" stroke="#16a34a" stroke-width="1"/><rect x="113.7" y="229.8" width="5.4" height="11.1" fill="#16a34a" opacity="0.82" rx="1"/>
<line x1="125.3" y1="194.1" x2="125.3" y2="232.0" stroke="#16a34a" stroke-width="1"/><rect x="122.5" y="204.4" width="5.4" height="25.4" fill="#16a34a" opacity="0.82" rx="1"/>
<line x1="134.1" y1="187.7" x2="134.1" y2="238.4" stroke="#dc2626" stroke-width="1"/><rect x="131.4" y="204.4" width="5.4" height="15.2" fill="#dc2626" opacity="0.82" rx="1"/>
<line x1="143.0" y1="208.7" x2="143.0" y2="236.5" stroke="#dc2626" stroke-width="1"/><rect x="140.3" y="219.6" width="5.4" height="5.4" fill="#dc2626" opacity="0.82" rx="1"/>
<line x1="151.9" y1="214.3" x2="151.9" y2="254.3" stroke="#16a34a" stroke-width="1"/><rect x="149.2" y="221.0" width="5.4" height="3.9" fill="#16a34a" opacity="0.82" rx="1"/>
<line x1="160.8" y1="205.2" x2="160.8" y2="224.4" stroke="#dc2626" stroke-width="1"/><rect x="158.0" y="221.0" width="5.4" height="1.2" fill="#dc2626" opacity="0.82" rx="1"/>
<line x1="169.6" y1="208.5" x2="169.6" y2="221.9" stroke="#16a34a" stroke-width="1"/><rect x="166.9" y="215.6" width="5.4" height="5.7" fill="#16a34a" opacity="0.82" rx="1"/>
<line x1="178.5" y1="215.2" x2="178.5" y2="237.2" stroke="#dc2626" stroke-width="1"/><rect x="175.8" y="215.6" width="5.4" height="17.6" fill="#dc2626" opacity="0.82" rx="1"/>
<line x1="187.4" y1="225.4" x2="187.4" y2="242.2" stroke="#16a34a" stroke-width="1"/><rect x="184.7" y="226.8" width="5.4" height="6.4" fill="#16a34a" opacity="0.82" rx="1"/>
<line x1="196.3" y1="221.8" x2="196.3" y2="230.2" stroke="#16a34a" stroke-width="1"/><rect x="193.5" y="225.8" width="5.4" height="1.2" fill="#16a34a" opacity="0.82" rx="1"/>
<line x1="205.1" y1="225.8" x2="205.1" y2="237.2" stroke="#dc2626" stroke-width="1"/><rect x="202.4" y="225.8" width="5.4" height="7.8" fill="#dc2626" opacity="0.82" rx="1"/>
<line x1="214.0" y1="224.7" x2="214.0" y2="240.6" stroke="#16a34a" stroke-width="1"/><rect x="211.3" y="227.7" width="5.4" height="6.0" fill="#16a34a" opacity="0.82" rx="1"/>
<line x1="222.9" y1="226.5" x2="222.9" y2="247.1" stroke="#dc2626" stroke-width="1"/><rect x="220.2" y="227.7" width="5.4" height="16.0" fill="#dc2626" opacity="0.82" rx="1"/>
<line x1="231.8" y1="216.0" x2="231.8" y2="245.1" stroke="#16a34a" stroke-width="1"/><rect x="229.1" y="226.1" width="5.4" height="17.7" fill="#16a34a" opacity="0.82" rx="1"/>
<line x1="240.7" y1="221.0" x2="240.7" y2="244.5" stroke="#dc2626" stroke-width="1"/><rect x="237.9" y="226.1" width="5.4" height="9.7" fill="#dc2626" opacity="0.82" rx="1"/>
<line x1="249.5" y1="226.6" x2="249.5" y2="242.7" stroke="#dc2626" stroke-width="1"/><rect x="246.8" y="235.7" width="5.4" height="1.2" fill="#dc2626" opacity="0.82" rx="1"/>
<line x1="258.4" y1="229.9" x2="258.4" y2="242.7" stroke="#16a34a" stroke-width="1"/><rect x="255.7" y="235.2" width="5.4" height="1.2" fill="#16a34a" opacity="0.82" rx="1"/>
<line x1="267.3" y1="212.2" x2="267.3" y2="236.3" stroke="#16a34a" stroke-width="1"/><rect x="264.6" y="219.3" width="5.4" height="15.9" fill="#16a34a" opacity="0.82" rx="1"/>
<line x1="276.2" y1="209.9" x2="276.2" y2="225.0" stroke="#16a34a" stroke-width="1"/><rect x="273.4" y="218.9" width="5.4" height="1.2" fill="#16a34a" opacity="0.82" rx="1"/>
<line x1="285.0" y1="208.4" x2="285.0" y2="221.8" stroke="#16a34a" stroke-width="1"/><rect x="282.3" y="215.6" width="5.4" height="3.3" fill="#16a34a" opacity="0.82" rx="1"/>
<line x1="293.9" y1="206.8" x2="293.9" y2="228.6" stroke="#dc2626" stroke-width="1"/><rect x="291.2" y="215.6" width="5.4" height="11.3" fill="#dc2626" opacity="0.82" rx="1"/>
<line x1="302.8" y1="213.9" x2="302.8" y2="231.4" stroke="#16a34a" stroke-width="1"/><rect x="300.1" y="218.5" width="5.4" height="8.3" fill="#16a34a" opacity="0.82" rx="1"/>
<line x1="311.7" y1="197.9" x2="311.7" y2="221.5" stroke="#16a34a" stroke-width="1"/><rect x="308.9" y="206.1" width="5.4" height="12.5" fill="#16a34a" opacity="0.82" rx="1"/>
<line x1="320.5" y1="194.1" x2="320.5" y2="211.0" stroke="#16a34a" stroke-width="1"/><rect x="317.8" y="199.4" width="5.4" height="6.6" fill="#16a34a" opacity="0.82" rx="1"/>
<line x1="329.4" y1="189.6" x2="329.4" y2="208.9" stroke="#dc2626" stroke-width="1"/><rect x="326.7" y="199.4" width="5.4" height="2.5" fill="#dc2626" opacity="0.82" rx="1"/>
<line x1="338.3" y1="182.0" x2="338.3" y2="204.6" stroke="#16a34a" stroke-width="1"/><rect x="335.6" y="193.7" width="5.4" height="8.2" fill="#16a34a" opacity="0.82" rx="1"/>
<line x1="347.2" y1="182.9" x2="347.2" y2="220.7" stroke="#16a34a" stroke-width="1"/><rect x="344.4" y="190.0" width="5.4" height="3.7" fill="#16a34a" opacity="0.82" rx="1"/>
<line x1="356.0" y1="174.8" x2="356.0" y2="212.8" stroke="#dc2626" stroke-width="1"/><rect x="353.3" y="190.0" width="5.4" height="15.5" fill="#dc2626" opacity="0.82" rx="1"/>
<line x1="364.9" y1="192.5" x2="364.9" y2="206.6" stroke="#16a34a" stroke-width="1"/><rect x="362.2" y="193.8" width="5.4" height="11.7" fill="#16a34a" opacity="0.82" rx="1"/>
<line x1="373.8" y1="182.3" x2="373.8" y2="196.7" stroke="#16a34a" stroke-width="1"/><rect x="371.1" y="188.2" width="5.4" height="5.6" fill="#16a34a" opacity="0.82" rx="1"/>
<line x1="382.7" y1="185.0" x2="382.7" y2="193.5" stroke="#16a34a" stroke-width="1"/><rect x="380.0" y="187.7" width="5.4" height="1.2" fill="#16a34a" opacity="0.82" rx="1"/>
<line x1="391.6" y1="180.7" x2="391.6" y2="191.5" stroke="#dc2626" stroke-width="1"/><rect x="388.8" y="187.7" width="5.4" height="1.2" fill="#dc2626" opacity="0.82" rx="1"/>
<line x1="400.4" y1="142.8" x2="400.4" y2="189.5" stroke="#16a34a" stroke-width="1"/><rect x="397.7" y="151.5" width="5.4" height="36.3" fill="#16a34a" opacity="0.82" rx="1"/>
<line x1="409.3" y1="139.1" x2="409.3" y2="168.4" stroke="#dc2626" stroke-width="1"/><rect x="406.6" y="151.5" width="5.4" height="3.3" fill="#dc2626" opacity="0.82" rx="1"/>
<line x1="418.2" y1="153.6" x2="418.2" y2="166.9" stroke="#dc2626" stroke-width="1"/><rect x="415.5" y="154.8" width="5.4" height="9.8" fill="#dc2626" opacity="0.82" rx="1"/>
<line x1="427.1" y1="156.0" x2="427.1" y2="167.3" stroke="#16a34a" stroke-width="1"/><rect x="424.3" y="163.6" width="5.4" height="1.2" fill="#16a34a" opacity="0.82" rx="1"/>
<line x1="435.9" y1="141.1" x2="435.9" y2="163.9" stroke="#16a34a" stroke-width="1"/><rect x="433.2" y="153.0" width="5.4" height="10.6" fill="#16a34a" opacity="0.82" rx="1"/>
<line x1="444.8" y1="153.0" x2="444.8" y2="175.1" stroke="#dc2626" stroke-width="1"/><rect x="442.1" y="153.0" width="5.4" height="17.8" fill="#dc2626" opacity="0.82" rx="1"/>
<line x1="453.7" y1="164.2" x2="453.7" y2="173.7" stroke="#16a34a" stroke-width="1"/><rect x="451.0" y="166.8" width="5.4" height="4.0" fill="#16a34a" opacity="0.82" rx="1"/>
<line x1="462.6" y1="153.1" x2="462.6" y2="170.2" stroke="#16a34a" stroke-width="1"/><rect x="459.8" y="160.9" width="5.4" height="6.0" fill="#16a34a" opacity="0.82" rx="1"/>
<line x1="471.4" y1="153.0" x2="471.4" y2="163.4" stroke="#16a34a" stroke-width="1"/><rect x="468.7" y="157.6" width="5.4" height="3.2" fill="#16a34a" opacity="0.82" rx="1"/>
<line x1="480.3" y1="157.6" x2="480.3" y2="174.2" stroke="#dc2626" stroke-width="1"/><rect x="477.6" y="157.6" width="5.4" height="13.5" fill="#dc2626" opacity="0.82" rx="1"/>
<line x1="489.2" y1="165.3" x2="489.2" y2="180.1" stroke="#16a34a" stroke-width="1"/><rect x="486.5" y="169.4" width="5.4" height="1.7" fill="#16a34a" opacity="0.82" rx="1"/>
<line x1="498.1" y1="160.7" x2="498.1" y2="171.4" stroke="#16a34a" stroke-width="1"/><rect x="495.3" y="164.7" width="5.4" height="4.7" fill="#16a34a" opacity="0.82" rx="1"/>
<line x1="506.9" y1="158.1" x2="506.9" y2="168.7" stroke="#dc2626" stroke-width="1"/><rect x="504.2" y="164.7" width="5.4" height="1.3" fill="#dc2626" opacity="0.82" rx="1"/>
<line x1="515.8" y1="164.0" x2="515.8" y2="174.8" stroke="#dc2626" stroke-width="1"/><rect x="513.1" y="166.0" width="5.4" height="3.9" fill="#dc2626" opacity="0.82" rx="1"/>
<line x1="524.7" y1="166.5" x2="524.7" y2="172.8" stroke="#16a34a" stroke-width="1"/><rect x="522.0" y="168.7" width="5.4" height="1.2" fill="#16a34a" opacity="0.82" rx="1"/>
<line x1="533.6" y1="164.9" x2="533.6" y2="172.1" stroke="#dc2626" stroke-width="1"/><rect x="530.9" y="168.7" width="5.4" height="1.6" fill="#dc2626" opacity="0.82" rx="1"/>
<line x1="542.4" y1="157.0" x2="542.4" y2="170.3" stroke="#16a34a" stroke-width="1"/><rect x="539.7" y="159.3" width="5.4" height="11.0" fill="#16a34a" opacity="0.82" rx="1"/>
<line x1="551.3" y1="151.8" x2="551.3" y2="167.1" stroke="#dc2626" stroke-width="1"/><rect x="548.6" y="159.3" width="5.4" height="4.4" fill="#dc2626" opacity="0.82" rx="1"/>
<line x1="560.2" y1="154.0" x2="560.2" y2="163.8" stroke="#16a34a" stroke-width="1"/><rect x="557.5" y="157.0" width="5.4" height="6.8" fill="#16a34a" opacity="0.82" rx="1"/>
<line x1="569.1" y1="132.1" x2="569.1" y2="157.3" stroke="#16a34a" stroke-width="1"/><rect x="566.4" y="142.2" width="5.4" height="14.8" fill="#16a34a" opacity="0.82" rx="1"/>
<line x1="578.0" y1="140.0" x2="578.0" y2="151.9" stroke="#dc2626" stroke-width="1"/><rect x="575.2" y="142.2" width="5.4" height="1.2" fill="#dc2626" opacity="0.82" rx="1"/>
<line x1="586.8" y1="110.2" x2="586.8" y2="150.9" stroke="#16a34a" stroke-width="1"/><rect x="584.1" y="121.1" width="5.4" height="21.9" fill="#16a34a" opacity="0.82" rx="1"/>
<line x1="595.7" y1="116.2" x2="595.7" y2="132.1" stroke="#dc2626" stroke-width="1"/><rect x="593.0" y="121.1" width="5.4" height="6.7" fill="#dc2626" opacity="0.82" rx="1"/>
<line x1="604.6" y1="108.4" x2="604.6" y2="130.8" stroke="#16a34a" stroke-width="1"/><rect x="601.9" y="119.7" width="5.4" height="8.2" fill="#16a34a" opacity="0.82" rx="1"/>
<line x1="613.5" y1="113.5" x2="613.5" y2="128.4" stroke="#dc2626" stroke-width="1"/><rect x="610.7" y="119.7" width="5.4" height="3.7" fill="#dc2626" opacity="0.82" rx="1"/>
<line x1="622.3" y1="109.6" x2="622.3" y2="125.7" stroke="#16a34a" stroke-width="1"/><rect x="619.6" y="119.3" width="5.4" height="4.1" fill="#16a34a" opacity="0.82" rx="1"/>
<line x1="631.2" y1="118.6" x2="631.2" y2="128.4" stroke="#dc2626" stroke-width="1"/><rect x="628.5" y="119.3" width="5.4" height="6.7" fill="#dc2626" opacity="0.82" rx="1"/>
<line x1="640.1" y1="123.0" x2="640.1" y2="142.6" stroke="#dc2626" stroke-width="1"/><rect x="637.4" y="126.0" width="5.4" height="3.3" fill="#dc2626" opacity="0.82" rx="1"/>
<line x1="649.0" y1="129.3" x2="649.0" y2="147.4" stroke="#dc2626" stroke-width="1"/><rect x="646.2" y="129.3" width="5.4" height="9.5" fill="#dc2626" opacity="0.82" rx="1"/>
<line x1="657.8" y1="135.1" x2="657.8" y2="151.3" stroke="#dc2626" stroke-width="1"/><rect x="655.1" y="138.8" width="5.4" height="6.4" fill="#dc2626" opacity="0.82" rx="1"/>
<line x1="666.7" y1="142.6" x2="666.7" y2="164.6" stroke="#dc2626" stroke-width="1"/><rect x="664.0" y="145.2" width="5.4" height="11.6" fill="#dc2626" opacity="0.82" rx="1"/>
<line x1="675.6" y1="151.1" x2="675.6" y2="159.8" stroke="#16a34a" stroke-width="1"/><rect x="672.9" y="152.8" width="5.4" height="4.1" fill="#16a34a" opacity="0.82" rx="1"/>
<line x1="684.5" y1="141.0" x2="684.5" y2="156.5" stroke="#16a34a" stroke-width="1"/><rect x="681.8" y="149.8" width="5.4" height="3.0" fill="#16a34a" opacity="0.82" rx="1"/>
<line x1="693.3" y1="149.7" x2="693.3" y2="159.7" stroke="#dc2626" stroke-width="1"/><rect x="690.6" y="149.8" width="5.4" height="4.4" fill="#dc2626" opacity="0.82" rx="1"/>
<line x1="702.2" y1="149.0" x2="702.2" y2="158.7" stroke="#16a34a" stroke-width="1"/><rect x="699.5" y="152.1" width="5.4" height="2.1" fill="#16a34a" opacity="0.82" rx="1"/>
<line x1="711.1" y1="134.0" x2="711.1" y2="155.8" stroke="#16a34a" stroke-width="1"/><rect x="708.4" y="136.8" width="5.4" height="15.3" fill="#16a34a" opacity="0.82" rx="1"/>
<line x1="720.0" y1="131.2" x2="720.0" y2="144.7" stroke="#dc2626" stroke-width="1"/><rect x="717.3" y="136.8" width="5.4" height="6.4" fill="#dc2626" opacity="0.82" rx="1"/>
<line x1="728.9" y1="142.2" x2="728.9" y2="173.3" stroke="#dc2626" stroke-width="1"/><rect x="726.1" y="143.1" width="5.4" height="18.3" fill="#dc2626" opacity="0.82" rx="1"/>
<line x1="737.7" y1="152.9" x2="737.7" y2="167.3" stroke="#16a34a" stroke-width="1"/><rect x="735.0" y="152.9" width="5.4" height="8.6" fill="#16a34a" opacity="0.82" rx="1"/>
<line x1="746.6" y1="149.0" x2="746.6" y2="162.6" stroke="#dc2626" stroke-width="1"/><rect x="743.9" y="152.9" width="5.4" height="6.7" fill="#dc2626" opacity="0.82" rx="1"/>
<line x1="755.5" y1="152.0" x2="755.5" y2="165.6" stroke="#16a34a" stroke-width="1"/><rect x="752.8" y="154.1" width="5.4" height="5.5" fill="#16a34a" opacity="0.82" rx="1"/>
<line x1="764.4" y1="149.1" x2="764.4" y2="160.4" stroke="#16a34a" stroke-width="1"/><rect x="761.6" y="150.9" width="5.4" height="3.2" fill="#16a34a" opacity="0.82" rx="1"/>
<line x1="773.2" y1="149.4" x2="773.2" y2="160.1" stroke="#16a34a" stroke-width="1"/><rect x="770.5" y="149.9" width="5.4" height="1.2" fill="#16a34a" opacity="0.82" rx="1"/>
<line x1="782.1" y1="141.2" x2="782.1" y2="158.5" stroke="#dc2626" stroke-width="1"/><rect x="779.4" y="149.9" width="5.4" height="4.6" fill="#dc2626" opacity="0.82" rx="1"/>
<line x1="791.0" y1="152.4" x2="791.0" y2="163.3" stroke="#dc2626" stroke-width="1"/><rect x="788.3" y="154.5" width="5.4" height="6.2" fill="#dc2626" opacity="0.82" rx="1"/>
<line x1="799.9" y1="149.0" x2="799.9" y2="163.7" stroke="#dc2626" stroke-width="1"/><rect x="797.1" y="160.7" width="5.4" height="1.2" fill="#dc2626" opacity="0.82" rx="1"/>
<line x1="808.7" y1="144.9" x2="808.7" y2="162.2" stroke="#16a34a" stroke-width="1"/><rect x="806.0" y="149.7" width="5.4" height="11.6" fill="#16a34a" opacity="0.82" rx="1"/>
<line x1="817.6" y1="145.9" x2="817.6" y2="155.8" stroke="#dc2626" stroke-width="1"/><rect x="814.9" y="149.7" width="5.4" height="2.7" fill="#dc2626" opacity="0.82" rx="1"/>
<line x1="826.5" y1="148.0" x2="826.5" y2="157.3" stroke="#dc2626" stroke-width="1"/><rect x="823.8" y="152.5" width="5.4" height="2.5" fill="#dc2626" opacity="0.82" rx="1"/>
<line x1="835.4" y1="122.4" x2="835.4" y2="162.7" stroke="#16a34a" stroke-width="1"/><rect x="832.6" y="132.1" width="5.4" height="22.8" fill="#16a34a" opacity="0.82" rx="1"/>
<line x1="844.2" y1="75.3" x2="844.2" y2="138.0" stroke="#16a34a" stroke-width="1"/><rect x="841.5" y="91.7" width="5.4" height="40.4" fill="#16a34a" opacity="0.82" rx="1"/>
<line x1="853.1" y1="74.6" x2="853.1" y2="102.6" stroke="#dc2626" stroke-width="1"/><rect x="850.4" y="91.7" width="5.4" height="6.2" fill="#dc2626" opacity="0.82" rx="1"/>
<line x1="862.0" y1="92.7" x2="862.0" y2="104.3" stroke="#dc2626" stroke-width="1"/><rect x="859.3" y="97.9" width="5.4" height="5.6" fill="#dc2626" opacity="0.82" rx="1"/>
<line x1="72" y1="132.6" x2="862" y2="132.6" stroke="#16a34a" stroke-width="1.8" stroke-dasharray="6 4" /><rect x="874" y="112.6" width="166" height="23" rx="5" fill="#ffffff" stroke="#16a34a" opacity="0.97"/><text x="881" y="128.6" fill="#16a34a" font-size="15" font-weight="700">日内支撑 63,062</text>
<line x1="72" y1="55.1" x2="862" y2="55.1" stroke="#dc2626" stroke-width="1.8" stroke-dasharray="6 4" /><rect x="874" y="35.1" width="166" height="23" rx="5" fill="#ffffff" stroke="#dc2626" opacity="0.97"/><text x="881" y="51.1" fill="#dc2626" font-size="15" font-weight="700">日内压力 64,302</text>
<line x1="72" y1="103.5" x2="862" y2="103.5" stroke="#111827" stroke-width="1.8" stroke-dasharray="2 2" /><rect x="874" y="83.5" width="166" height="23" rx="5" fill="#ffffff" stroke="#111827" opacity="0.97"/><text x="881" y="99.5" fill="#111827" font-size="15" font-weight="700">现价 63,527</text>
<text x="72" y="396" fill="#16a34a" font-size="14" font-weight="700">日内做多计划</text><rect x="72" y="404" width="790" height="48" rx="6" fill="#f9fafb" stroke="#e5e7eb"/><line x1="94" y1="412" x2="840" y2="412" stroke="#16a34a" stroke-width="3"/><circle cx="132.0" cy="412" r="5" fill="#16a34a"/><text x="132.0" y="434" fill="#374151" font-size="12" text-anchor="middle">入场 止跌/突破回踩</text><circle cx="451.2" cy="412" r="5" fill="#16a34a"/><text x="451.2" y="434" fill="#374151" font-size="12" text-anchor="middle">止损 63,062</text><circle cx="712.0" cy="412" r="5" fill="#16a34a"/><text x="712.0" y="434" fill="#374151" font-size="12" text-anchor="middle">目标一 64,302</text><circle cx="814.0" cy="412" r="5" fill="#16a34a"/><text x="814.0" y="434" fill="#374151" font-size="12" text-anchor="middle">目标二 64,612</text>
<text x="72" y="482" fill="#dc2626" font-size="14" font-weight="700">日内做空计划</text><rect x="72" y="490" width="790" height="48" rx="6" fill="#f9fafb" stroke="#e5e7eb"/><line x1="94" y1="498" x2="840" y2="498" stroke="#dc2626" stroke-width="3"/><circle cx="132.0" cy="498" r="5" fill="#dc2626"/><text x="132.0" y="520" fill="#374151" font-size="12" text-anchor="middle">入场 反弹承压/破位回抽</text><circle cx="451.2" cy="498" r="5" fill="#dc2626"/><text x="451.2" y="520" fill="#374151" font-size="12" text-anchor="middle">止损 64,302</text><circle cx="712.0" cy="498" r="5" fill="#dc2626"/><text x="712.0" y="520" fill="#374151" font-size="12" text-anchor="middle">目标一 63,062</text><circle cx="814.0" cy="498" r="5" fill="#dc2626"/><text x="814.0" y="520" fill="#374151" font-size="12" text-anchor="middle">目标二 62,752</text>
</svg>