<svg xmlns="http://www.w3.org/2000/svg" width="1080" height="560" viewBox="0 0 1080 560">
<rect width="100%" height="100%" fill="#ffffff"/>
<text x="72" y="23" fill="#111827" font-size="21" font-weight="800">HYPE 日线K线支撑压力图</text>
<text x="862" y="42" fill="#374151" font-size="15" text-anchor="end">最新价 62.24</text>
<line x1="72" y1="34" x2="72" y2="340" stroke="#d1d5db"/>
<line x1="72" y1="340" x2="862" y2="340" stroke="#d1d5db"/>
<line x1="72" y1="340.0" x2="862" y2="340.0" stroke="#f3f4f6"/>
<text x="8" y="345.0" fill="#4b5563" font-size="14">31.77</text>
<line x1="72" y1="263.5" x2="862" y2="263.5" stroke="#f3f4f6"/>
<text x="8" y="268.5" fill="#4b5563" font-size="14">43.91</text>
<line x1="72" y1="187.0" x2="862" y2="187.0" stroke="#f3f4f6"/>
<text x="8" y="192.0" fill="#4b5563" font-size="14">56.06</text>
<line x1="72" y1="110.5" x2="862" y2="110.5" stroke="#f3f4f6"/>
<text x="8" y="115.5" fill="#4b5563" font-size="14">68.20</text>
<line x1="72" y1="34.0" x2="862" y2="34.0" stroke="#f3f4f6"/>
<text x="8" y="39.0" fill="#4b5563" font-size="14">80.35</text>
<line x1="72.0" y1="309.9" x2="72.0" y2="316.5" stroke="#16a34a" stroke-width="1"/><rect x="69.3" y="311.1" width="5.4" height="4.8" fill="#16a34a" opacity="0.82" rx="1"/>
<line x1="80.9" y1="307.0" x2="80.9" y2="318.9" stroke="#16a34a" stroke-width="1"/><rect x="78.2" y="308.0" width="5.4" height="3.1" fill="#16a34a" opacity="0.82" rx="1"/>
<line x1="89.8" y1="302.3" x2="89.8" y2="313.6" stroke="#dc2626" stroke-width="1"/><rect x="87.0" y="307.9" width="5.4" height="3.6" fill="#dc2626" opacity="0.82" rx="1"/>
<line x1="98.6" y1="293.4" x2="98.6" y2="315.1" stroke="#16a34a" stroke-width="1"/><rect x="95.9" y="296.9" width="5.4" height="14.6" fill="#16a34a" opacity="0.82" rx="1"/>
<line x1="107.5" y1="289.5" x2="107.5" y2="302.3" stroke="#16a34a" stroke-width="1"/><rect x="104.8" y="296.0" width="5.4" height="1.2" fill="#16a34a" opacity="0.82" rx="1"/>
<line x1="116.4" y1="285.6" x2="116.4" y2="299.8" stroke="#16a34a" stroke-width="1"/><rect x="113.7" y="291.6" width="5.4" height="4.4" fill="#16a34a" opacity="0.82" rx="1"/>
<line x1="125.3" y1="274.1" x2="125.3" y2="291.8" stroke="#16a34a" stroke-width="1"/><rect x="122.5" y="278.1" width="5.4" height="13.4" fill="#16a34a" opacity="0.82" rx="1"/>
<line x1="134.1" y1="268.2" x2="134.1" y2="278.8" stroke="#16a34a" stroke-width="1"/><rect x="131.4" y="273.8" width="5.4" height="4.3" fill="#16a34a" opacity="0.82" rx="1"/>
<line x1="143.0" y1="270.4" x2="143.0" y2="287.0" stroke="#dc2626" stroke-width="1"/><rect x="140.3" y="273.8" width="5.4" height="9.0" fill="#dc2626" opacity="0.82" rx="1"/>
<line x1="151.9" y1="259.1" x2="151.9" y2="283.2" stroke="#16a34a" stroke-width="1"/><rect x="149.2" y="260.8" width="5.4" height="22.0" fill="#16a34a" opacity="0.82" rx="1"/>
<line x1="160.8" y1="254.5" x2="160.8" y2="269.7" stroke="#dc2626" stroke-width="1"/><rect x="158.0" y="260.9" width="5.4" height="5.0" fill="#dc2626" opacity="0.82" rx="1"/>
<line x1="169.6" y1="253.7" x2="169.6" y2="268.4" stroke="#16a34a" stroke-width="1"/><rect x="166.9" y="258.9" width="5.4" height="7.0" fill="#16a34a" opacity="0.82" rx="1"/>
<line x1="178.5" y1="251.8" x2="178.5" y2="267.3" stroke="#dc2626" stroke-width="1"/><rect x="175.8" y="258.9" width="5.4" height="5.2" fill="#dc2626" opacity="0.82" rx="1"/>
<line x1="187.4" y1="253.5" x2="187.4" y2="268.2" stroke="#16a34a" stroke-width="1"/><rect x="184.7" y="259.0" width="5.4" height="5.1" fill="#16a34a" opacity="0.82" rx="1"/>
<line x1="196.3" y1="253.8" x2="196.3" y2="264.7" stroke="#dc2626" stroke-width="1"/><rect x="193.5" y="259.0" width="5.4" height="5.3" fill="#dc2626" opacity="0.82" rx="1"/>
<line x1="205.1" y1="263.4" x2="205.1" y2="285.0" stroke="#dc2626" stroke-width="1"/><rect x="202.4" y="264.3" width="5.4" height="19.5" fill="#dc2626" opacity="0.82" rx="1"/>
<line x1="214.0" y1="276.9" x2="214.0" y2="284.6" stroke="#16a34a" stroke-width="1"/><rect x="211.3" y="283.7" width="5.4" height="1.2" fill="#16a34a" opacity="0.82" rx="1"/>
<line x1="222.9" y1="279.2" x2="222.9" y2="295.2" stroke="#dc2626" stroke-width="1"/><rect x="220.2" y="283.7" width="5.4" height="5.9" fill="#dc2626" opacity="0.82" rx="1"/>
<line x1="231.8" y1="277.1" x2="231.8" y2="290.5" stroke="#16a34a" stroke-width="1"/><rect x="229.1" y="280.8" width="5.4" height="8.8" fill="#16a34a" opacity="0.82" rx="1"/>
<line x1="240.7" y1="276.4" x2="240.7" y2="284.9" stroke="#16a34a" stroke-width="1"/><rect x="237.9" y="279.9" width="5.4" height="1.2" fill="#16a34a" opacity="0.82" rx="1"/>
<line x1="249.5" y1="278.4" x2="249.5" y2="283.8" stroke="#dc2626" stroke-width="1"/><rect x="246.8" y="279.9" width="5.4" height="1.2" fill="#dc2626" opacity="0.82" rx="1"/>
<line x1="258.4" y1="276.1" x2="258.4" y2="282.9" stroke="#16a34a" stroke-width="1"/><rect x="255.7" y="278.7" width="5.4" height="2.1" fill="#16a34a" opacity="0.82" rx="1"/>
<line x1="267.3" y1="271.7" x2="267.3" y2="282.2" stroke="#16a34a" stroke-width="1"/><rect x="264.6" y="272.7" width="5.4" height="6.0" fill="#16a34a" opacity="0.82" rx="1"/>
<line x1="276.2" y1="265.7" x2="276.2" y2="280.1" stroke="#dc2626" stroke-width="1"/><rect x="273.4" y="272.7" width="5.4" height="5.1" fill="#dc2626" opacity="0.82" rx="1"/>
<line x1="285.0" y1="276.6" x2="285.0" y2="292.1" stroke="#dc2626" stroke-width="1"/><rect x="282.3" y="277.8" width="5.4" height="9.3" fill="#dc2626" opacity="0.82" rx="1"/>
<line x1="293.9" y1="283.1" x2="293.9" y2="293.5" stroke="#dc2626" stroke-width="1"/><rect x="291.2" y="287.1" width="5.4" height="1.4" fill="#dc2626" opacity="0.82" rx="1"/>
<line x1="302.8" y1="286.1" x2="302.8" y2="296.3" stroke="#dc2626" stroke-width="1"/><rect x="300.1" y="288.6" width="5.4" height="1.5" fill="#dc2626" opacity="0.82" rx="1"/>
<line x1="311.7" y1="281.0" x2="311.7" y2="290.2" stroke="#16a34a" stroke-width="1"/><rect x="308.9" y="281.0" width="5.4" height="9.1" fill="#16a34a" opacity="0.82" rx="1"/>
<line x1="320.5" y1="272.7" x2="320.5" y2="282.0" stroke="#16a34a" stroke-width="1"/><rect x="317.8" y="280.2" width="5.4" height="1.2" fill="#16a34a" opacity="0.82" rx="1"/>
<line x1="329.4" y1="277.2" x2="329.4" y2="283.9" stroke="#16a34a" stroke-width="1"/><rect x="326.7" y="278.4" width="5.4" height="1.9" fill="#16a34a" opacity="0.82" rx="1"/>
<line x1="338.3" y1="271.8" x2="338.3" y2="283.0" stroke="#16a34a" stroke-width="1"/><rect x="335.6" y="276.7" width="5.4" height="1.6" fill="#16a34a" opacity="0.82" rx="1"/>
<line x1="347.2" y1="259.0" x2="347.2" y2="277.0" stroke="#16a34a" stroke-width="1"/><rect x="344.4" y="264.8" width="5.4" height="11.9" fill="#16a34a" opacity="0.82" rx="1"/>
<line x1="356.0" y1="258.2" x2="356.0" y2="269.9" stroke="#dc2626" stroke-width="1"/><rect x="353.3" y="264.8" width="5.4" height="3.7" fill="#dc2626" opacity="0.82" rx="1"/>
<line x1="364.9" y1="265.7" x2="364.9" y2="276.5" stroke="#dc2626" stroke-width="1"/><rect x="362.2" y="268.5" width="5.4" height="3.8" fill="#dc2626" opacity="0.82" rx="1"/>
<line x1="373.8" y1="266.1" x2="373.8" y2="275.3" stroke="#16a34a" stroke-width="1"/><rect x="371.1" y="267.6" width="5.4" height="4.7" fill="#16a34a" opacity="0.82" rx="1"/>
<line x1="382.7" y1="260.3" x2="382.7" y2="270.3" stroke="#dc2626" stroke-width="1"/><rect x="380.0" y="267.6" width="5.4" height="2.2" fill="#dc2626" opacity="0.82" rx="1"/>
<line x1="391.6" y1="264.8" x2="391.6" y2="274.8" stroke="#16a34a" stroke-width="1"/><rect x="388.8" y="269.2" width="5.4" height="1.2" fill="#16a34a" opacity="0.82" rx="1"/>
<line x1="400.4" y1="268.3" x2="400.4" y2="283.0" stroke="#dc2626" stroke-width="1"/><rect x="397.7" y="269.2" width="5.4" height="6.4" fill="#dc2626" opacity="0.82" rx="1"/>
<line x1="409.3" y1="275.2" x2="409.3" y2="289.5" stroke="#dc2626" stroke-width="1"/><rect x="406.6" y="275.6" width="5.4" height="11.0" fill="#dc2626" opacity="0.82" rx="1"/>
<line x1="418.2" y1="283.7" x2="418.2" y2="296.2" stroke="#dc2626" stroke-width="1"/><rect x="415.5" y="286.5" width="5.4" height="9.0" fill="#dc2626" opacity="0.82" rx="1"/>
<line x1="427.1" y1="258.2" x2="427.1" y2="299.7" stroke="#16a34a" stroke-width="1"/><rect x="424.3" y="262.1" width="5.4" height="33.5" fill="#16a34a" opacity="0.82" rx="1"/>
<line x1="435.9" y1="243.7" x2="435.9" y2="270.5" stroke="#16a34a" stroke-width="1"/><rect x="433.2" y="262.0" width="5.4" height="1.2" fill="#16a34a" opacity="0.82" rx="1"/>
<line x1="444.8" y1="259.9" x2="444.8" y2="285.8" stroke="#dc2626" stroke-width="1"/><rect x="442.1" y="262.0" width="5.4" height="14.7" fill="#dc2626" opacity="0.82" rx="1"/>
<line x1="453.7" y1="243.1" x2="453.7" y2="279.8" stroke="#16a34a" stroke-width="1"/><rect x="451.0" y="252.3" width="5.4" height="24.3" fill="#16a34a" opacity="0.82" rx="1"/>
<line x1="462.6" y1="237.8" x2="462.6" y2="261.7" stroke="#16a34a" stroke-width="1"/><rect x="459.8" y="239.3" width="5.4" height="13.1" fill="#16a34a" opacity="0.82" rx="1"/>
<line x1="471.4" y1="232.1" x2="471.4" y2="245.3" stroke="#16a34a" stroke-width="1"/><rect x="468.7" y="237.7" width="5.4" height="1.6" fill="#16a34a" opacity="0.82" rx="1"/>
<line x1="480.3" y1="194.7" x2="480.3" y2="243.6" stroke="#16a34a" stroke-width="1"/><rect x="477.6" y="194.7" width="5.4" height="43.1" fill="#16a34a" opacity="0.82" rx="1"/>
<line x1="489.2" y1="145.8" x2="489.2" y2="195.5" stroke="#16a34a" stroke-width="1"/><rect x="486.5" y="171.1" width="5.4" height="23.7" fill="#16a34a" opacity="0.82" rx="1"/>
<line x1="498.1" y1="149.8" x2="498.1" y2="198.2" stroke="#dc2626" stroke-width="1"/><rect x="495.3" y="171.2" width="5.4" height="25.2" fill="#dc2626" opacity="0.82" rx="1"/>
<line x1="506.9" y1="162.8" x2="506.9" y2="200.0" stroke="#16a34a" stroke-width="1"/><rect x="504.2" y="170.3" width="5.4" height="26.0" fill="#16a34a" opacity="0.82" rx="1"/>
<line x1="515.8" y1="133.8" x2="515.8" y2="170.9" stroke="#16a34a" stroke-width="1"/><rect x="513.1" y="144.9" width="5.4" height="25.5" fill="#16a34a" opacity="0.82" rx="1"/>
<line x1="524.7" y1="137.6" x2="524.7" y2="157.7" stroke="#dc2626" stroke-width="1"/><rect x="522.0" y="144.8" width="5.4" height="10.5" fill="#dc2626" opacity="0.82" rx="1"/>
<line x1="533.6" y1="132.3" x2="533.6" y2="171.3" stroke="#dc2626" stroke-width="1"/><rect x="530.9" y="155.3" width="5.4" height="10.0" fill="#dc2626" opacity="0.82" rx="1"/>
<line x1="542.4" y1="141.3" x2="542.4" y2="180.7" stroke="#dc2626" stroke-width="1"/><rect x="539.7" y="165.3" width="5.4" height="11.9" fill="#dc2626" opacity="0.82" rx="1"/>
<line x1="551.3" y1="148.7" x2="551.3" y2="185.8" stroke="#16a34a" stroke-width="1"/><rect x="548.6" y="152.6" width="5.4" height="24.6" fill="#16a34a" opacity="0.82" rx="1"/>
<line x1="560.2" y1="115.5" x2="560.2" y2="160.1" stroke="#16a34a" stroke-width="1"/><rect x="557.5" y="134.4" width="5.4" height="18.2" fill="#16a34a" opacity="0.82" rx="1"/>
<line x1="569.1" y1="107.8" x2="569.1" y2="137.0" stroke="#16a34a" stroke-width="1"/><rect x="566.4" y="110.0" width="5.4" height="24.5" fill="#16a34a" opacity="0.82" rx="1"/>
<line x1="578.0" y1="79.6" x2="578.0" y2="115.1" stroke="#16a34a" stroke-width="1"/><rect x="575.2" y="86.3" width="5.4" height="23.6" fill="#16a34a" opacity="0.82" rx="1"/>
<line x1="586.8" y1="62.5" x2="586.8" y2="96.6" stroke="#16a34a" stroke-width="1"/><rect x="584.1" y="76.6" width="5.4" height="9.4" fill="#16a34a" opacity="0.82" rx="1"/>
<line x1="595.7" y1="63.7" x2="595.7" y2="112.8" stroke="#dc2626" stroke-width="1"/><rect x="593.0" y="76.6" width="5.4" height="23.6" fill="#dc2626" opacity="0.82" rx="1"/>
<line x1="604.6" y1="63.9" x2="604.6" y2="110.1" stroke="#16a34a" stroke-width="1"/><rect x="601.9" y="70.4" width="5.4" height="29.9" fill="#16a34a" opacity="0.82" rx="1"/>
<line x1="613.5" y1="64.6" x2="613.5" y2="143.3" stroke="#dc2626" stroke-width="1"/><rect x="610.7" y="70.4" width="5.4" height="63.9" fill="#dc2626" opacity="0.82" rx="1"/>
<line x1="622.3" y1="124.2" x2="622.3" y2="183.0" stroke="#dc2626" stroke-width="1"/><rect x="619.6" y="134.3" width="5.4" height="29.0" fill="#dc2626" opacity="0.82" rx="1"/>
<line x1="631.2" y1="154.5" x2="631.2" y2="190.6" stroke="#dc2626" stroke-width="1"/><rect x="628.5" y="163.4" width="5.4" height="20.8" fill="#dc2626" opacity="0.82" rx="1"/>
<line x1="640.1" y1="159.4" x2="640.1" y2="186.7" stroke="#16a34a" stroke-width="1"/><rect x="637.4" y="163.8" width="5.4" height="20.3" fill="#16a34a" opacity="0.82" rx="1"/>
<line x1="649.0" y1="125.6" x2="649.0" y2="166.6" stroke="#16a34a" stroke-width="1"/><rect x="646.2" y="138.0" width="5.4" height="25.8" fill="#16a34a" opacity="0.82" rx="1"/>
<line x1="657.8" y1="136.7" x2="657.8" y2="179.2" stroke="#dc2626" stroke-width="1"/><rect x="655.1" y="138.0" width="5.4" height="38.3" fill="#dc2626" opacity="0.82" rx="1"/>
<line x1="666.7" y1="172.6" x2="666.7" y2="208.7" stroke="#dc2626" stroke-width="1"/><rect x="664.0" y="176.2" width="5.4" height="28.3" fill="#dc2626" opacity="0.82" rx="1"/>
<line x1="675.6" y1="164.4" x2="675.6" y2="207.2" stroke="#16a34a" stroke-width="1"/><rect x="672.9" y="168.9" width="5.4" height="35.5" fill="#16a34a" opacity="0.82" rx="1"/>
<line x1="684.5" y1="146.9" x2="684.5" y2="182.4" stroke="#16a34a" stroke-width="1"/><rect x="681.8" y="166.8" width="5.4" height="2.1" fill="#16a34a" opacity="0.82" rx="1"/>
<line x1="693.3" y1="156.6" x2="693.3" y2="180.0" stroke="#16a34a" stroke-width="1"/><rect x="690.6" y="157.8" width="5.4" height="9.1" fill="#16a34a" opacity="0.82" rx="1"/>
<line x1="702.2" y1="136.1" x2="702.2" y2="164.7" stroke="#16a34a" stroke-width="1"/><rect x="699.5" y="137.5" width="5.4" height="20.4" fill="#16a34a" opacity="0.82" rx="1"/>
<line x1="711.1" y1="107.4" x2="711.1" y2="142.6" stroke="#16a34a" stroke-width="1"/><rect x="708.4" y="118.8" width="5.4" height="18.7" fill="#16a34a" opacity="0.82" rx="1"/>
<line x1="720.0" y1="55.1" x2="720.0" y2="122.1" stroke="#16a34a" stroke-width="1"/><rect x="717.3" y="76.7" width="5.4" height="42.1" fill="#16a34a" opacity="0.82" rx="1"/>
<line x1="728.9" y1="56.5" x2="728.9" y2="99.5" stroke="#dc2626" stroke-width="1"/><rect x="726.1" y="76.6" width="5.4" height="15.4" fill="#dc2626" opacity="0.82" rx="1"/>
<line x1="737.7" y1="75.7" x2="737.7" y2="120.9" stroke="#dc2626" stroke-width="1"/><rect x="735.0" y="92.0" width="5.4" height="17.6" fill="#dc2626" opacity="0.82" rx="1"/>
<line x1="746.6" y1="90.4" x2="746.6" y2="126.7" stroke="#16a34a" stroke-width="1"/><rect x="743.9" y="97.5" width="5.4" height="12.1" fill="#16a34a" opacity="0.82" rx="1"/>
<line x1="755.5" y1="90.2" x2="755.5" y2="109.3" stroke="#16a34a" stroke-width="1"/><rect x="752.8" y="94.5" width="5.4" height="3.0" fill="#16a34a" opacity="0.82" rx="1"/>
<line x1="764.4" y1="93.4" x2="764.4" y2="121.0" stroke="#dc2626" stroke-width="1"/><rect x="761.6" y="94.5" width="5.4" height="24.2" fill="#dc2626" opacity="0.82" rx="1"/>
<line x1="773.2" y1="101.8" x2="773.2" y2="130.1" stroke="#dc2626" stroke-width="1"/><rect x="770.5" y="118.7" width="5.4" height="4.1" fill="#dc2626" opacity="0.82" rx="1"/>
<line x1="782.1" y1="115.9" x2="782.1" y2="152.0" stroke="#dc2626" stroke-width="1"/><rect x="779.4" y="122.8" width="5.4" height="25.9" fill="#dc2626" opacity="0.82" rx="1"/>
<line x1="791.0" y1="135.3" x2="791.0" y2="168.2" stroke="#16a34a" stroke-width="1"/><rect x="788.3" y="137.7" width="5.4" height="11.0" fill="#16a34a" opacity="0.82" rx="1"/>
<line x1="799.9" y1="128.2" x2="799.9" y2="172.7" stroke="#16a34a" stroke-width="1"/><rect x="797.1" y="136.6" width="5.4" height="1.2" fill="#16a34a" opacity="0.82" rx="1"/>
<line x1="808.7" y1="128.0" x2="808.7" y2="156.6" stroke="#16a34a" stroke-width="1"/><rect x="806.0" y="134.9" width="5.4" height="1.7" fill="#16a34a" opacity="0.82" rx="1"/>
<line x1="817.6" y1="132.5" x2="817.6" y2="153.1" stroke="#dc2626" stroke-width="1"/><rect x="814.9" y="134.9" width="5.4" height="17.1" fill="#dc2626" opacity="0.82" rx="1"/>
<line x1="826.5" y1="140.1" x2="826.5" y2="158.7" stroke="#dc2626" stroke-width="1"/><rect x="823.8" y="152.0" width="5.4" height="1.4" fill="#dc2626" opacity="0.82" rx="1"/>
<line x1="835.4" y1="113.3" x2="835.4" y2="157.9" stroke="#16a34a" stroke-width="1"/><rect x="832.6" y="118.7" width="5.4" height="34.6" fill="#16a34a" opacity="0.82" rx="1"/>
<line x1="844.2" y1="118.5" x2="844.2" y2="136.3" stroke="#dc2626" stroke-width="1"/><rect x="841.5" y="118.8" width="5.4" height="11.8" fill="#dc2626" opacity="0.82" rx="1"/>
<line x1="853.1" y1="124.4" x2="853.1" y2="150.6" stroke="#dc2626" stroke-width="1"/><rect x="850.4" y="130.5" width="5.4" height="16.9" fill="#dc2626" opacity="0.82" rx="1"/>
<line x1="862.0" y1="147.2" x2="862.0" y2="148.7" stroke="#dc2626" stroke-width="1"/><rect x="859.3" y="147.4" width="5.4" height="1.2" fill="#dc2626" opacity="0.82" rx="1"/>
<line x1="72" y1="189.0" x2="862" y2="189.0" stroke="#16a34a" stroke-width="1.8" stroke-dasharray="6 4" /><rect x="874" y="169.0" width="166" height="23" rx="5" fill="#ffffff" stroke="#16a34a" opacity="0.97"/><text x="881" y="185.0" fill="#16a34a" font-size="15" font-weight="700">支撑 55.74</text>
<line x1="72" y1="79.8" x2="862" y2="79.8" stroke="#dc2626" stroke-width="1.8" stroke-dasharray="6 4" /><rect x="874" y="59.8" width="166" height="23" rx="5" fill="#ffffff" stroke="#dc2626" opacity="0.97"/><text x="881" y="75.8" fill="#dc2626" font-size="15" font-weight="700">压力 73.09</text>
<line x1="72" y1="148.0" x2="862" y2="148.0" stroke="#111827" stroke-width="1.8" stroke-dasharray="2 2" /><rect x="874" y="128.0" width="166" height="23" rx="5" fill="#ffffff" stroke="#111827" opacity="0.97"/><text x="881" y="144.0" fill="#111827" font-size="15" font-weight="700">现价 62.24</text>
<text x="72" y="396" fill="#16a34a" font-size="14" font-weight="700">日线做多计划</text><rect x="72" y="404" width="790" height="48" rx="6" fill="#f9fafb" stroke="#e5e7eb"/><line x1="94" y1="412" x2="840" y2="412" stroke="#16a34a" stroke-width="3"/><circle cx="132.0" cy="412" r="5" fill="#16a34a"/><text x="132.0" y="434" fill="#374151" font-size="12" text-anchor="middle">入场 止跌/突破回踩</text><circle cx="451.2" cy="412" r="5" fill="#16a34a"/><text x="451.2" y="434" fill="#374151" font-size="12" text-anchor="middle">止损 55.74</text><circle cx="712.0" cy="412" r="5" fill="#16a34a"/><text x="712.0" y="434" fill="#374151" font-size="12" text-anchor="middle">目标一 73.09</text><circle cx="814.0" cy="412" r="5" fill="#16a34a"/><text x="814.0" y="434" fill="#374151" font-size="12" text-anchor="middle">目标二 79.59</text>
<text x="72" y="482" fill="#dc2626" font-size="14" font-weight="700">日线做空计划</text><rect x="72" y="490" width="790" height="48" rx="6" fill="#f9fafb" stroke="#e5e7eb"/><line x1="94" y1="498" x2="840" y2="498" stroke="#dc2626" stroke-width="3"/><circle cx="132.0" cy="498" r="5" fill="#dc2626"/><text x="132.0" y="520" fill="#374151" font-size="12" text-anchor="middle">入场 反弹承压/破位回抽</text><circle cx="451.2" cy="498" r="5" fill="#dc2626"/><text x="451.2" y="520" fill="#374151" font-size="12" text-anchor="middle">止损 73.09</text><circle cx="712.0" cy="498" r="5" fill="#dc2626"/><text x="712.0" y="520" fill="#374151" font-size="12" text-anchor="middle">目标一 55.74</text><circle cx="814.0" cy="498" r="5" fill="#dc2626"/><text x="814.0" y="520" fill="#374151" font-size="12" text-anchor="middle">目标二 51.40</text>
</svg>