<svg xmlns="http://www.w3.org/2000/svg" width="1080" height="560" viewBox="0 0 1080 560">
<rect width="100%" height="100%" fill="#ffffff"/>
<text x="72" y="23" fill="#111827" font-size="21" font-weight="800">DRAM 小时线K线支撑压力图</text>
<text x="862" y="42" fill="#374151" font-size="15" text-anchor="end">最新价 64.38</text>
<line x1="72" y1="34" x2="72" y2="340" stroke="#d1d5db"/>
<line x1="72" y1="340" x2="862" y2="340" stroke="#d1d5db"/>
<line x1="72" y1="340.0" x2="862" y2="340.0" stroke="#f3f4f6"/>
<text x="8" y="345.0" fill="#4b5563" font-size="14">61.69</text>
<line x1="72" y1="263.5" x2="862" y2="263.5" stroke="#f3f4f6"/>
<text x="8" y="268.5" fill="#4b5563" font-size="14">65.34</text>
<line x1="72" y1="187.0" x2="862" y2="187.0" stroke="#f3f4f6"/>
<text x="8" y="192.0" fill="#4b5563" font-size="14">68.99</text>
<line x1="72" y1="110.5" x2="862" y2="110.5" stroke="#f3f4f6"/>
<text x="8" y="115.5" fill="#4b5563" font-size="14">72.64</text>
<line x1="72" y1="34.0" x2="862" y2="34.0" stroke="#f3f4f6"/>
<text x="8" y="39.0" fill="#4b5563" font-size="14">76.29</text>
<line x1="72.0" y1="100.6" x2="72.0" y2="118.4" stroke="#16a34a" stroke-width="1"/><rect x="69.3" y="105.6" width="5.4" height="12.0" fill="#16a34a" opacity="0.82" rx="1"/>
<line x1="80.9" y1="93.7" x2="80.9" y2="106.1" stroke="#16a34a" stroke-width="1"/><rect x="78.2" y="96.6" width="5.4" height="9.0" fill="#16a34a" opacity="0.82" rx="1"/>
<line x1="89.8" y1="88.4" x2="89.8" y2="102.1" stroke="#dc2626" stroke-width="1"/><rect x="87.0" y="96.8" width="5.4" height="2.7" fill="#dc2626" opacity="0.82" rx="1"/>
<line x1="98.6" y1="96.2" x2="98.6" y2="104.0" stroke="#16a34a" stroke-width="1"/><rect x="95.9" y="99.3" width="5.4" height="1.2" fill="#16a34a" opacity="0.82" rx="1"/>
<line x1="107.5" y1="85.1" x2="107.5" y2="99.6" stroke="#16a34a" stroke-width="1"/><rect x="104.8" y="92.6" width="5.4" height="6.9" fill="#16a34a" opacity="0.82" rx="1"/>
<line x1="116.4" y1="89.9" x2="116.4" y2="96.2" stroke="#dc2626" stroke-width="1"/><rect x="113.7" y="92.6" width="5.4" height="1.2" fill="#dc2626" opacity="0.82" rx="1"/>
<line x1="125.3" y1="82.6" x2="125.3" y2="97.5" stroke="#16a34a" stroke-width="1"/><rect x="122.5" y="87.6" width="5.4" height="6.1" fill="#16a34a" opacity="0.82" rx="1"/>
<line x1="134.1" y1="80.1" x2="134.1" y2="89.1" stroke="#dc2626" stroke-width="1"/><rect x="131.4" y="87.6" width="5.4" height="1.2" fill="#dc2626" opacity="0.82" rx="1"/>
<line x1="143.0" y1="83.6" x2="143.0" y2="89.7" stroke="#16a34a" stroke-width="1"/><rect x="140.3" y="86.1" width="5.4" height="2.1" fill="#16a34a" opacity="0.82" rx="1"/>
<line x1="151.9" y1="78.8" x2="151.9" y2="91.2" stroke="#16a34a" stroke-width="1"/><rect x="149.2" y="80.1" width="5.4" height="6.1" fill="#16a34a" opacity="0.82" rx="1"/>
<line x1="160.8" y1="78.8" x2="160.8" y2="87.8" stroke="#dc2626" stroke-width="1"/><rect x="158.0" y="79.8" width="5.4" height="2.9" fill="#dc2626" opacity="0.82" rx="1"/>
<line x1="169.6" y1="80.5" x2="169.6" y2="83.4" stroke="#16a34a" stroke-width="1"/><rect x="166.9" y="82.6" width="5.4" height="1.2" fill="#16a34a" opacity="0.82" rx="1"/>
<line x1="178.5" y1="80.1" x2="178.5" y2="89.9" stroke="#dc2626" stroke-width="1"/><rect x="175.8" y="82.4" width="5.4" height="5.0" fill="#dc2626" opacity="0.82" rx="1"/>
<line x1="187.4" y1="72.5" x2="187.4" y2="88.0" stroke="#16a34a" stroke-width="1"/><rect x="184.7" y="76.3" width="5.4" height="10.9" fill="#16a34a" opacity="0.82" rx="1"/>
<line x1="196.3" y1="74.8" x2="196.3" y2="97.7" stroke="#dc2626" stroke-width="1"/><rect x="193.5" y="76.3" width="5.4" height="19.3" fill="#dc2626" opacity="0.82" rx="1"/>
<line x1="205.1" y1="55.1" x2="205.1" y2="97.0" stroke="#16a34a" stroke-width="1"/><rect x="202.4" y="70.8" width="5.4" height="24.7" fill="#16a34a" opacity="0.82" rx="1"/>
<line x1="214.0" y1="70.6" x2="214.0" y2="109.4" stroke="#dc2626" stroke-width="1"/><rect x="211.3" y="70.8" width="5.4" height="37.9" fill="#dc2626" opacity="0.82" rx="1"/>
<line x1="222.9" y1="95.8" x2="222.9" y2="170.0" stroke="#dc2626" stroke-width="1"/><rect x="220.2" y="108.6" width="5.4" height="31.4" fill="#dc2626" opacity="0.82" rx="1"/>
<line x1="231.8" y1="129.3" x2="231.8" y2="165.2" stroke="#dc2626" stroke-width="1"/><rect x="229.1" y="140.2" width="5.4" height="6.7" fill="#dc2626" opacity="0.82" rx="1"/>
<line x1="240.7" y1="144.2" x2="240.7" y2="162.2" stroke="#dc2626" stroke-width="1"/><rect x="237.9" y="146.9" width="5.4" height="6.7" fill="#dc2626" opacity="0.82" rx="1"/>
<line x1="249.5" y1="144.8" x2="249.5" y2="166.4" stroke="#16a34a" stroke-width="1"/><rect x="246.8" y="149.2" width="5.4" height="4.2" fill="#16a34a" opacity="0.82" rx="1"/>
<line x1="258.4" y1="148.2" x2="258.4" y2="172.5" stroke="#dc2626" stroke-width="1"/><rect x="255.7" y="149.4" width="5.4" height="20.1" fill="#dc2626" opacity="0.82" rx="1"/>
<line x1="267.3" y1="113.4" x2="267.3" y2="173.6" stroke="#16a34a" stroke-width="1"/><rect x="264.6" y="115.7" width="5.4" height="53.7" fill="#16a34a" opacity="0.82" rx="1"/>
<line x1="276.2" y1="115.3" x2="276.2" y2="135.2" stroke="#dc2626" stroke-width="1"/><rect x="273.4" y="115.7" width="5.4" height="15.3" fill="#dc2626" opacity="0.82" rx="1"/>
<line x1="285.0" y1="123.9" x2="285.0" y2="137.3" stroke="#16a34a" stroke-width="1"/><rect x="282.3" y="127.2" width="5.4" height="3.6" fill="#16a34a" opacity="0.82" rx="1"/>
<line x1="293.9" y1="120.9" x2="293.9" y2="135.4" stroke="#dc2626" stroke-width="1"/><rect x="291.2" y="126.8" width="5.4" height="6.5" fill="#dc2626" opacity="0.82" rx="1"/>
<line x1="302.8" y1="133.3" x2="302.8" y2="147.4" stroke="#dc2626" stroke-width="1"/><rect x="300.1" y="133.5" width="5.4" height="4.6" fill="#dc2626" opacity="0.82" rx="1"/>
<line x1="311.7" y1="129.5" x2="311.7" y2="141.1" stroke="#16a34a" stroke-width="1"/><rect x="308.9" y="134.4" width="5.4" height="3.6" fill="#16a34a" opacity="0.82" rx="1"/>
<line x1="320.5" y1="131.8" x2="320.5" y2="152.4" stroke="#dc2626" stroke-width="1"/><rect x="317.8" y="134.1" width="5.4" height="12.8" fill="#dc2626" opacity="0.82" rx="1"/>
<line x1="329.4" y1="139.2" x2="329.4" y2="155.5" stroke="#16a34a" stroke-width="1"/><rect x="326.7" y="144.8" width="5.4" height="2.1" fill="#16a34a" opacity="0.82" rx="1"/>
<line x1="338.3" y1="137.5" x2="338.3" y2="204.8" stroke="#dc2626" stroke-width="1"/><rect x="335.6" y="144.8" width="5.4" height="57.0" fill="#dc2626" opacity="0.82" rx="1"/>
<line x1="347.2" y1="196.4" x2="347.2" y2="239.2" stroke="#16a34a" stroke-width="1"/><rect x="344.4" y="197.9" width="5.4" height="4.0" fill="#16a34a" opacity="0.82" rx="1"/>
<line x1="356.0" y1="166.9" x2="356.0" y2="203.5" stroke="#16a34a" stroke-width="1"/><rect x="353.3" y="170.4" width="5.4" height="27.3" fill="#16a34a" opacity="0.82" rx="1"/>
<line x1="364.9" y1="142.7" x2="364.9" y2="171.3" stroke="#16a34a" stroke-width="1"/><rect x="362.2" y="147.1" width="5.4" height="23.5" fill="#16a34a" opacity="0.82" rx="1"/>
<line x1="373.8" y1="139.0" x2="373.8" y2="159.1" stroke="#dc2626" stroke-width="1"/><rect x="371.1" y="147.1" width="5.4" height="2.9" fill="#dc2626" opacity="0.82" rx="1"/>
<line x1="382.7" y1="128.9" x2="382.7" y2="150.5" stroke="#16a34a" stroke-width="1"/><rect x="380.0" y="137.1" width="5.4" height="13.0" fill="#16a34a" opacity="0.82" rx="1"/>
<line x1="391.6" y1="121.8" x2="391.6" y2="141.7" stroke="#16a34a" stroke-width="1"/><rect x="388.8" y="124.1" width="5.4" height="13.0" fill="#16a34a" opacity="0.82" rx="1"/>
<line x1="400.4" y1="115.5" x2="400.4" y2="130.4" stroke="#16a34a" stroke-width="1"/><rect x="397.7" y="123.7" width="5.4" height="1.2" fill="#16a34a" opacity="0.82" rx="1"/>
<line x1="409.3" y1="120.9" x2="409.3" y2="132.3" stroke="#dc2626" stroke-width="1"/><rect x="406.6" y="123.5" width="5.4" height="5.0" fill="#dc2626" opacity="0.82" rx="1"/>
<line x1="418.2" y1="123.9" x2="418.2" y2="133.1" stroke="#16a34a" stroke-width="1"/><rect x="415.5" y="127.0" width="5.4" height="1.3" fill="#16a34a" opacity="0.82" rx="1"/>
<line x1="427.1" y1="121.4" x2="427.1" y2="131.2" stroke="#dc2626" stroke-width="1"/><rect x="424.3" y="127.0" width="5.4" height="1.9" fill="#dc2626" opacity="0.82" rx="1"/>
<line x1="435.9" y1="108.1" x2="435.9" y2="161.4" stroke="#dc2626" stroke-width="1"/><rect x="433.2" y="128.9" width="5.4" height="19.1" fill="#dc2626" opacity="0.82" rx="1"/>
<line x1="444.8" y1="131.8" x2="444.8" y2="157.2" stroke="#16a34a" stroke-width="1"/><rect x="442.1" y="133.5" width="5.4" height="13.8" fill="#16a34a" opacity="0.82" rx="1"/>
<line x1="453.7" y1="117.0" x2="453.7" y2="141.1" stroke="#16a34a" stroke-width="1"/><rect x="451.0" y="118.8" width="5.4" height="14.5" fill="#16a34a" opacity="0.82" rx="1"/>
<line x1="462.6" y1="110.2" x2="462.6" y2="123.0" stroke="#dc2626" stroke-width="1"/><rect x="459.8" y="118.4" width="5.4" height="2.7" fill="#dc2626" opacity="0.82" rx="1"/>
<line x1="471.4" y1="81.9" x2="471.4" y2="120.9" stroke="#16a34a" stroke-width="1"/><rect x="468.7" y="87.4" width="5.4" height="33.5" fill="#16a34a" opacity="0.82" rx="1"/>
<line x1="480.3" y1="81.3" x2="480.3" y2="104.0" stroke="#dc2626" stroke-width="1"/><rect x="477.6" y="87.2" width="5.4" height="9.9" fill="#dc2626" opacity="0.82" rx="1"/>
<line x1="489.2" y1="95.4" x2="489.2" y2="115.9" stroke="#dc2626" stroke-width="1"/><rect x="486.5" y="96.8" width="5.4" height="13.4" fill="#dc2626" opacity="0.82" rx="1"/>
<line x1="498.1" y1="105.2" x2="498.1" y2="117.6" stroke="#dc2626" stroke-width="1"/><rect x="495.3" y="110.2" width="5.4" height="6.1" fill="#dc2626" opacity="0.82" rx="1"/>
<line x1="506.9" y1="112.5" x2="506.9" y2="127.9" stroke="#dc2626" stroke-width="1"/><rect x="504.2" y="116.3" width="5.4" height="2.5" fill="#dc2626" opacity="0.82" rx="1"/>
<line x1="515.8" y1="115.5" x2="515.8" y2="127.4" stroke="#dc2626" stroke-width="1"/><rect x="513.1" y="119.0" width="5.4" height="5.9" fill="#dc2626" opacity="0.82" rx="1"/>
<line x1="524.7" y1="116.1" x2="524.7" y2="131.8" stroke="#16a34a" stroke-width="1"/><rect x="522.0" y="118.2" width="5.4" height="6.9" fill="#16a34a" opacity="0.82" rx="1"/>
<line x1="533.6" y1="111.3" x2="533.6" y2="122.8" stroke="#16a34a" stroke-width="1"/><rect x="530.9" y="114.2" width="5.4" height="4.0" fill="#16a34a" opacity="0.82" rx="1"/>
<line x1="542.4" y1="109.4" x2="542.4" y2="130.6" stroke="#dc2626" stroke-width="1"/><rect x="539.7" y="114.2" width="5.4" height="11.7" fill="#dc2626" opacity="0.82" rx="1"/>
<line x1="551.3" y1="93.1" x2="551.3" y2="128.5" stroke="#16a34a" stroke-width="1"/><rect x="548.6" y="96.8" width="5.4" height="28.9" fill="#16a34a" opacity="0.82" rx="1"/>
<line x1="560.2" y1="86.3" x2="560.2" y2="111.1" stroke="#dc2626" stroke-width="1"/><rect x="557.5" y="96.6" width="5.4" height="12.0" fill="#dc2626" opacity="0.82" rx="1"/>
<line x1="569.1" y1="95.6" x2="569.1" y2="108.4" stroke="#16a34a" stroke-width="1"/><rect x="566.4" y="100.6" width="5.4" height="7.8" fill="#16a34a" opacity="0.82" rx="1"/>
<line x1="578.0" y1="83.2" x2="578.0" y2="100.8" stroke="#16a34a" stroke-width="1"/><rect x="575.2" y="92.6" width="5.4" height="8.0" fill="#16a34a" opacity="0.82" rx="1"/>
<line x1="586.8" y1="81.9" x2="586.8" y2="94.1" stroke="#16a34a" stroke-width="1"/><rect x="584.1" y="88.2" width="5.4" height="4.4" fill="#16a34a" opacity="0.82" rx="1"/>
<line x1="595.7" y1="81.7" x2="595.7" y2="92.6" stroke="#16a34a" stroke-width="1"/><rect x="593.0" y="82.4" width="5.4" height="5.7" fill="#16a34a" opacity="0.82" rx="1"/>
<line x1="604.6" y1="77.5" x2="604.6" y2="89.9" stroke="#dc2626" stroke-width="1"/><rect x="601.9" y="82.4" width="5.4" height="2.5" fill="#dc2626" opacity="0.82" rx="1"/>
<line x1="613.5" y1="80.9" x2="613.5" y2="95.8" stroke="#dc2626" stroke-width="1"/><rect x="610.7" y="84.7" width="5.4" height="6.5" fill="#dc2626" opacity="0.82" rx="1"/>
<line x1="622.3" y1="86.3" x2="622.3" y2="91.8" stroke="#16a34a" stroke-width="1"/><rect x="619.6" y="87.2" width="5.4" height="4.2" fill="#16a34a" opacity="0.82" rx="1"/>
<line x1="631.2" y1="82.1" x2="631.2" y2="89.9" stroke="#dc2626" stroke-width="1"/><rect x="628.5" y="87.4" width="5.4" height="1.2" fill="#dc2626" opacity="0.82" rx="1"/>
<line x1="640.1" y1="87.6" x2="640.1" y2="96.4" stroke="#dc2626" stroke-width="1"/><rect x="637.4" y="87.6" width="5.4" height="4.8" fill="#dc2626" opacity="0.82" rx="1"/>
<line x1="649.0" y1="83.0" x2="649.0" y2="140.2" stroke="#dc2626" stroke-width="1"/><rect x="646.2" y="92.2" width="5.4" height="46.8" fill="#dc2626" opacity="0.82" rx="1"/>
<line x1="657.8" y1="132.7" x2="657.8" y2="160.1" stroke="#dc2626" stroke-width="1"/><rect x="655.1" y="139.4" width="5.4" height="19.3" fill="#dc2626" opacity="0.82" rx="1"/>
<line x1="666.7" y1="148.2" x2="666.7" y2="175.2" stroke="#16a34a" stroke-width="1"/><rect x="664.0" y="153.6" width="5.4" height="4.8" fill="#16a34a" opacity="0.82" rx="1"/>
<line x1="675.6" y1="138.1" x2="675.6" y2="157.8" stroke="#16a34a" stroke-width="1"/><rect x="672.9" y="143.2" width="5.4" height="10.3" fill="#16a34a" opacity="0.82" rx="1"/>
<line x1="684.5" y1="138.5" x2="684.5" y2="151.8" stroke="#dc2626" stroke-width="1"/><rect x="681.8" y="143.2" width="5.4" height="2.9" fill="#dc2626" opacity="0.82" rx="1"/>
<line x1="693.3" y1="143.2" x2="693.3" y2="159.1" stroke="#dc2626" stroke-width="1"/><rect x="690.6" y="146.3" width="5.4" height="12.0" fill="#dc2626" opacity="0.82" rx="1"/>
<line x1="702.2" y1="154.7" x2="702.2" y2="168.3" stroke="#dc2626" stroke-width="1"/><rect x="699.5" y="158.0" width="5.4" height="8.4" fill="#dc2626" opacity="0.82" rx="1"/>
<line x1="711.1" y1="165.8" x2="711.1" y2="175.4" stroke="#dc2626" stroke-width="1"/><rect x="708.4" y="166.2" width="5.4" height="4.8" fill="#dc2626" opacity="0.82" rx="1"/>
<line x1="720.0" y1="162.4" x2="720.0" y2="184.9" stroke="#16a34a" stroke-width="1"/><rect x="717.3" y="168.5" width="5.4" height="2.5" fill="#16a34a" opacity="0.82" rx="1"/>
<line x1="728.9" y1="168.7" x2="728.9" y2="181.5" stroke="#dc2626" stroke-width="1"/><rect x="726.1" y="168.7" width="5.4" height="5.5" fill="#dc2626" opacity="0.82" rx="1"/>
<line x1="737.7" y1="171.9" x2="737.7" y2="182.8" stroke="#16a34a" stroke-width="1"/><rect x="735.0" y="174.0" width="5.4" height="1.2" fill="#16a34a" opacity="0.82" rx="1"/>
<line x1="746.6" y1="162.2" x2="746.6" y2="173.8" stroke="#16a34a" stroke-width="1"/><rect x="743.9" y="168.7" width="5.4" height="5.0" fill="#16a34a" opacity="0.82" rx="1"/>
<line x1="755.5" y1="160.6" x2="755.5" y2="214.4" stroke="#dc2626" stroke-width="1"/><rect x="752.8" y="168.5" width="5.4" height="39.2" fill="#dc2626" opacity="0.82" rx="1"/>
<line x1="764.4" y1="191.4" x2="764.4" y2="227.0" stroke="#16a34a" stroke-width="1"/><rect x="761.6" y="203.8" width="5.4" height="3.8" fill="#16a34a" opacity="0.82" rx="1"/>
<line x1="773.2" y1="193.7" x2="773.2" y2="238.6" stroke="#dc2626" stroke-width="1"/><rect x="770.5" y="203.8" width="5.4" height="31.0" fill="#dc2626" opacity="0.82" rx="1"/>
<line x1="782.1" y1="213.2" x2="782.1" y2="234.8" stroke="#16a34a" stroke-width="1"/><rect x="779.4" y="229.5" width="5.4" height="5.0" fill="#16a34a" opacity="0.82" rx="1"/>
<line x1="791.0" y1="220.1" x2="791.0" y2="234.4" stroke="#dc2626" stroke-width="1"/><rect x="788.3" y="229.5" width="5.4" height="3.6" fill="#dc2626" opacity="0.82" rx="1"/>
<line x1="799.9" y1="227.9" x2="799.9" y2="245.9" stroke="#dc2626" stroke-width="1"/><rect x="797.1" y="233.3" width="5.4" height="11.3" fill="#dc2626" opacity="0.82" rx="1"/>
<line x1="808.7" y1="236.7" x2="808.7" y2="250.1" stroke="#dc2626" stroke-width="1"/><rect x="806.0" y="244.4" width="5.4" height="1.2" fill="#dc2626" opacity="0.82" rx="1"/>
<line x1="817.6" y1="223.2" x2="817.6" y2="252.2" stroke="#dc2626" stroke-width="1"/><rect x="814.9" y="244.4" width="5.4" height="7.8" fill="#dc2626" opacity="0.82" rx="1"/>
<line x1="826.5" y1="243.0" x2="826.5" y2="265.8" stroke="#16a34a" stroke-width="1"/><rect x="823.8" y="247.4" width="5.4" height="4.0" fill="#16a34a" opacity="0.82" rx="1"/>
<line x1="835.4" y1="239.2" x2="835.4" y2="248.2" stroke="#16a34a" stroke-width="1"/><rect x="832.6" y="242.5" width="5.4" height="4.8" fill="#16a34a" opacity="0.82" rx="1"/>
<line x1="844.2" y1="241.5" x2="844.2" y2="249.2" stroke="#dc2626" stroke-width="1"/><rect x="841.5" y="242.5" width="5.4" height="1.3" fill="#dc2626" opacity="0.82" rx="1"/>
<line x1="853.1" y1="243.8" x2="853.1" y2="276.9" stroke="#dc2626" stroke-width="1"/><rect x="850.4" y="243.8" width="5.4" height="29.6" fill="#dc2626" opacity="0.82" rx="1"/>
<line x1="862.0" y1="270.2" x2="862.0" y2="284.3" stroke="#dc2626" stroke-width="1"/><rect x="859.3" y="273.1" width="5.4" height="10.5" fill="#dc2626" opacity="0.82" rx="1"/>
<line x1="72" y1="318.9" x2="862" y2="318.9" stroke="#16a34a" stroke-width="1.8" stroke-dasharray="6 4" /><rect x="874" y="298.9" width="166" height="23" rx="5" fill="#ffffff" stroke="#16a34a" opacity="0.97"/><text x="881" y="314.9" fill="#16a34a" font-size="15" font-weight="700">日内支撑 62.70</text>
<line x1="72" y1="224.9" x2="862" y2="224.9" stroke="#dc2626" stroke-width="1.8" stroke-dasharray="6 4" /><rect x="874" y="204.9" width="166" height="23" rx="5" fill="#ffffff" stroke="#dc2626" opacity="0.97"/><text x="881" y="220.9" fill="#dc2626" font-size="15" font-weight="700">日内压力 67.18</text>
<line x1="72" y1="283.6" x2="862" y2="283.6" stroke="#111827" stroke-width="1.8" stroke-dasharray="2 2" /><rect x="874" y="263.6" width="166" height="23" rx="5" fill="#ffffff" stroke="#111827" opacity="0.97"/><text x="881" y="279.6" fill="#111827" font-size="15" font-weight="700">现价 64.38</text>
<text x="72" y="396" fill="#16a34a" font-size="14" font-weight="700">日内做多计划</text><rect x="72" y="404" width="790" height="48" rx="6" fill="#f9fafb" stroke="#e5e7eb"/><line x1="94" y1="412" x2="840" y2="412" stroke="#16a34a" stroke-width="3"/><circle cx="132.0" cy="412" r="5" fill="#16a34a"/><text x="132.0" y="434" fill="#374151" font-size="12" text-anchor="middle">入场 止跌/突破回踩</text><circle cx="451.2" cy="412" r="5" fill="#16a34a"/><text x="451.2" y="434" fill="#374151" font-size="12" text-anchor="middle">止损 62.70</text><circle cx="712.0" cy="412" r="5" fill="#16a34a"/><text x="712.0" y="434" fill="#374151" font-size="12" text-anchor="middle">目标一 67.18</text><circle cx="814.0" cy="412" r="5" fill="#16a34a"/><text x="814.0" y="434" fill="#374151" font-size="12" text-anchor="middle">目标二 68.30</text>
<text x="72" y="482" fill="#dc2626" font-size="14" font-weight="700">日内做空计划</text><rect x="72" y="490" width="790" height="48" rx="6" fill="#f9fafb" stroke="#e5e7eb"/><line x1="94" y1="498" x2="840" y2="498" stroke="#dc2626" stroke-width="3"/><circle cx="132.0" cy="498" r="5" fill="#dc2626"/><text x="132.0" y="520" fill="#374151" font-size="12" text-anchor="middle">入场 反弹承压/破位回抽</text><circle cx="451.2" cy="498" r="5" fill="#dc2626"/><text x="451.2" y="520" fill="#374151" font-size="12" text-anchor="middle">止损 67.18</text><circle cx="712.0" cy="498" r="5" fill="#dc2626"/><text x="712.0" y="520" fill="#374151" font-size="12" text-anchor="middle">目标一 62.70</text><circle cx="814.0" cy="498" r="5" fill="#dc2626"/><text x="814.0" y="520" fill="#374151" font-size="12" text-anchor="middle">目标二 61.58</text>
</svg>