<svg xmlns="http://www.w3.org/2000/svg" width="1080" height="560" viewBox="0 0 1080 560">
<rect width="100%" height="100%" fill="#ffffff"/>
<text x="72" y="23" fill="#111827" font-size="21" font-weight="800">DRAM 日线K线支撑压力图</text>
<text x="862" y="42" fill="#374151" font-size="15" text-anchor="end">最新价 64.36</text>
<line x1="72" y1="34" x2="72" y2="340" stroke="#d1d5db"/>
<line x1="72" y1="340" x2="862" y2="340" stroke="#d1d5db"/>
<line x1="72" y1="340.0" x2="862" y2="340.0" stroke="#f3f4f6"/>
<text x="8" y="345.0" fill="#4b5563" font-size="14">43.71</text>
<line x1="72" y1="263.5" x2="862" y2="263.5" stroke="#f3f4f6"/>
<text x="8" y="268.5" fill="#4b5563" font-size="14">53.98</text>
<line x1="72" y1="187.0" x2="862" y2="187.0" stroke="#f3f4f6"/>
<text x="8" y="192.0" fill="#4b5563" font-size="14">64.25</text>
<line x1="72" y1="110.5" x2="862" y2="110.5" stroke="#f3f4f6"/>
<text x="8" y="115.5" fill="#4b5563" font-size="14">74.52</text>
<line x1="72" y1="34.0" x2="862" y2="34.0" stroke="#f3f4f6"/>
<text x="8" y="39.0" fill="#4b5563" font-size="14">84.79</text>
<line x1="72.0" y1="279.1" x2="72.0" y2="307.4" stroke="#dc2626" stroke-width="1"/><rect x="67.5" y="283.9" width="9.0" height="10.9" fill="#dc2626" opacity="0.82" rx="1"/>
<line x1="89.6" y1="285.4" x2="89.6" y2="318.9" stroke="#16a34a" stroke-width="1"/><rect x="85.1" y="293.1" width="9.0" height="1.6" fill="#16a34a" opacity="0.82" rx="1"/>
<line x1="107.1" y1="277.9" x2="107.1" y2="308.2" stroke="#16a34a" stroke-width="1"/><rect x="102.6" y="280.2" width="9.0" height="13.0" fill="#16a34a" opacity="0.82" rx="1"/>
<line x1="124.7" y1="254.0" x2="124.7" y2="284.9" stroke="#16a34a" stroke-width="1"/><rect x="120.2" y="257.2" width="9.0" height="23.0" fill="#16a34a" opacity="0.82" rx="1"/>
<line x1="142.2" y1="256.9" x2="142.2" y2="273.8" stroke="#dc2626" stroke-width="1"/><rect x="137.7" y="257.2" width="9.0" height="16.3" fill="#dc2626" opacity="0.82" rx="1"/>
<line x1="159.8" y1="248.0" x2="159.8" y2="289.9" stroke="#16a34a" stroke-width="1"/><rect x="155.3" y="261.0" width="9.0" height="12.4" fill="#16a34a" opacity="0.82" rx="1"/>
<line x1="177.3" y1="247.7" x2="177.3" y2="262.5" stroke="#16a34a" stroke-width="1"/><rect x="172.8" y="253.1" width="9.0" height="7.7" fill="#16a34a" opacity="0.82" rx="1"/>
<line x1="194.9" y1="228.9" x2="194.9" y2="255.1" stroke="#16a34a" stroke-width="1"/><rect x="190.4" y="244.7" width="9.0" height="8.3" fill="#16a34a" opacity="0.82" rx="1"/>
<line x1="212.4" y1="194.1" x2="212.4" y2="258.3" stroke="#16a34a" stroke-width="1"/><rect x="207.9" y="202.2" width="9.0" height="42.5" fill="#16a34a" opacity="0.82" rx="1"/>
<line x1="230.0" y1="191.2" x2="230.0" y2="225.5" stroke="#dc2626" stroke-width="1"/><rect x="225.5" y="202.3" width="9.0" height="19.2" fill="#dc2626" opacity="0.82" rx="1"/>
<line x1="247.6" y1="190.6" x2="247.6" y2="237.7" stroke="#16a34a" stroke-width="1"/><rect x="243.1" y="195.9" width="9.0" height="25.5" fill="#16a34a" opacity="0.82" rx="1"/>
<line x1="265.1" y1="186.3" x2="265.1" y2="207.0" stroke="#16a34a" stroke-width="1"/><rect x="260.6" y="194.0" width="9.0" height="1.8" fill="#16a34a" opacity="0.82" rx="1"/>
<line x1="282.7" y1="174.3" x2="282.7" y2="197.1" stroke="#16a34a" stroke-width="1"/><rect x="278.2" y="175.5" width="9.0" height="18.5" fill="#16a34a" opacity="0.82" rx="1"/>
<line x1="300.2" y1="162.9" x2="300.2" y2="179.8" stroke="#16a34a" stroke-width="1"/><rect x="295.7" y="173.0" width="9.0" height="2.4" fill="#16a34a" opacity="0.82" rx="1"/>
<line x1="317.8" y1="151.0" x2="317.8" y2="186.3" stroke="#16a34a" stroke-width="1"/><rect x="313.3" y="157.6" width="9.0" height="15.3" fill="#16a34a" opacity="0.82" rx="1"/>
<line x1="335.3" y1="142.8" x2="335.3" y2="178.4" stroke="#16a34a" stroke-width="1"/><rect x="330.8" y="148.3" width="9.0" height="9.5" fill="#16a34a" opacity="0.82" rx="1"/>
<line x1="352.9" y1="141.8" x2="352.9" y2="171.0" stroke="#dc2626" stroke-width="1"/><rect x="348.4" y="148.2" width="9.0" height="20.5" fill="#dc2626" opacity="0.82" rx="1"/>
<line x1="370.4" y1="159.0" x2="370.4" y2="195.0" stroke="#dc2626" stroke-width="1"/><rect x="365.9" y="168.8" width="9.0" height="24.9" fill="#dc2626" opacity="0.82" rx="1"/>
<line x1="388.0" y1="187.9" x2="388.0" y2="267.4" stroke="#dc2626" stroke-width="1"/><rect x="383.5" y="193.7" width="9.0" height="59.0" fill="#dc2626" opacity="0.82" rx="1"/>
<line x1="405.6" y1="245.0" x2="405.6" y2="274.4" stroke="#16a34a" stroke-width="1"/><rect x="401.1" y="250.5" width="9.0" height="2.3" fill="#16a34a" opacity="0.82" rx="1"/>
<line x1="423.1" y1="219.9" x2="423.1" y2="255.9" stroke="#16a34a" stroke-width="1"/><rect x="418.6" y="245.1" width="9.0" height="5.4" fill="#16a34a" opacity="0.82" rx="1"/>
<line x1="440.7" y1="206.2" x2="440.7" y2="248.3" stroke="#16a34a" stroke-width="1"/><rect x="436.2" y="212.0" width="9.0" height="33.1" fill="#16a34a" opacity="0.82" rx="1"/>
<line x1="458.2" y1="187.4" x2="458.2" y2="252.5" stroke="#dc2626" stroke-width="1"/><rect x="453.7" y="211.9" width="9.0" height="8.6" fill="#dc2626" opacity="0.82" rx="1"/>
<line x1="475.8" y1="207.2" x2="475.8" y2="251.5" stroke="#dc2626" stroke-width="1"/><rect x="471.3" y="220.6" width="9.0" height="24.6" fill="#dc2626" opacity="0.82" rx="1"/>
<line x1="493.3" y1="168.8" x2="493.3" y2="247.0" stroke="#16a34a" stroke-width="1"/><rect x="488.8" y="173.8" width="9.0" height="71.1" fill="#16a34a" opacity="0.82" rx="1"/>
<line x1="510.9" y1="172.6" x2="510.9" y2="201.8" stroke="#dc2626" stroke-width="1"/><rect x="506.4" y="173.9" width="9.0" height="2.8" fill="#dc2626" opacity="0.82" rx="1"/>
<line x1="528.4" y1="174.1" x2="528.4" y2="189.7" stroke="#16a34a" stroke-width="1"/><rect x="523.9" y="175.7" width="9.0" height="1.2" fill="#16a34a" opacity="0.82" rx="1"/>
<line x1="546.0" y1="149.9" x2="546.0" y2="177.2" stroke="#16a34a" stroke-width="1"/><rect x="541.5" y="157.1" width="9.0" height="18.5" fill="#16a34a" opacity="0.82" rx="1"/>
<line x1="563.6" y1="134.1" x2="563.6" y2="163.7" stroke="#16a34a" stroke-width="1"/><rect x="559.1" y="137.8" width="9.0" height="19.4" fill="#16a34a" opacity="0.82" rx="1"/>
<line x1="581.1" y1="121.2" x2="581.1" y2="160.7" stroke="#dc2626" stroke-width="1"/><rect x="576.6" y="138.0" width="9.0" height="14.4" fill="#dc2626" opacity="0.82" rx="1"/>
<line x1="598.7" y1="119.7" x2="598.7" y2="152.7" stroke="#16a34a" stroke-width="1"/><rect x="594.2" y="125.8" width="9.0" height="26.7" fill="#16a34a" opacity="0.82" rx="1"/>
<line x1="616.2" y1="80.6" x2="616.2" y2="127.6" stroke="#16a34a" stroke-width="1"/><rect x="611.7" y="82.8" width="9.0" height="42.8" fill="#16a34a" opacity="0.82" rx="1"/>
<line x1="633.8" y1="79.5" x2="633.8" y2="108.1" stroke="#dc2626" stroke-width="1"/><rect x="629.3" y="82.9" width="9.0" height="4.5" fill="#dc2626" opacity="0.82" rx="1"/>
<line x1="651.3" y1="63.2" x2="651.3" y2="88.8" stroke="#16a34a" stroke-width="1"/><rect x="646.8" y="68.9" width="9.0" height="18.6" fill="#16a34a" opacity="0.82" rx="1"/>
<line x1="668.9" y1="59.5" x2="668.9" y2="95.4" stroke="#dc2626" stroke-width="1"/><rect x="664.4" y="69.0" width="9.0" height="21.4" fill="#dc2626" opacity="0.82" rx="1"/>
<line x1="686.4" y1="55.1" x2="686.4" y2="106.9" stroke="#16a34a" stroke-width="1"/><rect x="681.9" y="66.0" width="9.0" height="24.4" fill="#16a34a" opacity="0.82" rx="1"/>
<line x1="704.0" y1="65.3" x2="704.0" y2="153.9" stroke="#dc2626" stroke-width="1"/><rect x="699.5" y="66.0" width="9.0" height="74.3" fill="#dc2626" opacity="0.82" rx="1"/>
<line x1="721.6" y1="58.5" x2="721.6" y2="164.8" stroke="#16a34a" stroke-width="1"/><rect x="717.1" y="67.8" width="9.0" height="72.3" fill="#16a34a" opacity="0.82" rx="1"/>
<line x1="739.1" y1="66.9" x2="739.1" y2="118.0" stroke="#dc2626" stroke-width="1"/><rect x="734.6" y="67.7" width="9.0" height="27.9" fill="#dc2626" opacity="0.82" rx="1"/>
<line x1="756.7" y1="93.1" x2="756.7" y2="136.7" stroke="#dc2626" stroke-width="1"/><rect x="752.2" y="95.5" width="9.0" height="31.4" fill="#dc2626" opacity="0.82" rx="1"/>
<line x1="774.2" y1="120.3" x2="774.2" y2="129.1" stroke="#dc2626" stroke-width="1"/><rect x="769.7" y="126.8" width="9.0" height="1.2" fill="#dc2626" opacity="0.82" rx="1"/>
<line x1="791.8" y1="104.9" x2="791.8" y2="132.1" stroke="#16a34a" stroke-width="1"/><rect x="787.3" y="123.9" width="9.0" height="3.4" fill="#16a34a" opacity="0.82" rx="1"/>
<line x1="809.3" y1="119.3" x2="809.3" y2="170.2" stroke="#dc2626" stroke-width="1"/><rect x="804.8" y="123.8" width="9.0" height="7.2" fill="#dc2626" opacity="0.82" rx="1"/>
<line x1="826.9" y1="112.8" x2="826.9" y2="142.6" stroke="#16a34a" stroke-width="1"/><rect x="822.4" y="118.1" width="9.0" height="13.0" fill="#16a34a" opacity="0.82" rx="1"/>
<line x1="844.4" y1="114.8" x2="844.4" y2="183.6" stroke="#dc2626" stroke-width="1"/><rect x="839.9" y="118.0" width="9.0" height="64.3" fill="#dc2626" opacity="0.82" rx="1"/>
<line x1="862.0" y1="181.3" x2="862.0" y2="186.3" stroke="#dc2626" stroke-width="1"/><rect x="857.5" y="182.3" width="9.0" height="3.9" fill="#dc2626" opacity="0.82" rx="1"/>
<line x1="72" y1="252.8" x2="862" y2="252.8" stroke="#16a34a" stroke-width="1.8" stroke-dasharray="6 4" /><rect x="874" y="232.8" width="166" height="23" rx="5" fill="#ffffff" stroke="#16a34a" opacity="0.97"/><text x="881" y="248.8" fill="#16a34a" font-size="15" font-weight="700">支撑 55.41</text>
<line x1="72" y1="75.1" x2="862" y2="75.1" stroke="#dc2626" stroke-width="1.8" stroke-dasharray="6 4" /><rect x="874" y="55.1" width="166" height="23" rx="5" fill="#ffffff" stroke="#dc2626" opacity="0.97"/><text x="881" y="71.1" fill="#dc2626" font-size="15" font-weight="700">压力 79.28</text>
<line x1="72" y1="186.2" x2="862" y2="186.2" stroke="#111827" stroke-width="1.8" stroke-dasharray="2 2" /><rect x="874" y="166.2" width="166" height="23" rx="5" fill="#ffffff" stroke="#111827" opacity="0.97"/><text x="881" y="182.2" fill="#111827" font-size="15" font-weight="700">现价 64.36</text>
<text x="72" y="396" fill="#16a34a" font-size="14" font-weight="700">日线做多计划</text><rect x="72" y="404" width="790" height="48" rx="6" fill="#f9fafb" stroke="#e5e7eb"/><line x1="94" y1="412" x2="840" y2="412" stroke="#16a34a" stroke-width="3"/><circle cx="132.0" cy="412" r="5" fill="#16a34a"/><text x="132.0" y="434" fill="#374151" font-size="12" text-anchor="middle">入场 止跌/突破回踩</text><circle cx="451.2" cy="412" r="5" fill="#16a34a"/><text x="451.2" y="434" fill="#374151" font-size="12" text-anchor="middle">止损 55.41</text><circle cx="712.0" cy="412" r="5" fill="#16a34a"/><text x="712.0" y="434" fill="#374151" font-size="12" text-anchor="middle">目标一 79.28</text><circle cx="814.0" cy="412" r="5" fill="#16a34a"/><text x="814.0" y="434" fill="#374151" font-size="12" text-anchor="middle">目标二 88.23</text>
<text x="72" y="482" fill="#dc2626" font-size="14" font-weight="700">日线做空计划</text><rect x="72" y="490" width="790" height="48" rx="6" fill="#f9fafb" stroke="#e5e7eb"/><line x1="94" y1="498" x2="840" y2="498" stroke="#dc2626" stroke-width="3"/><circle cx="132.0" cy="498" r="5" fill="#dc2626"/><text x="132.0" y="520" fill="#374151" font-size="12" text-anchor="middle">入场 反弹承压/破位回抽</text><circle cx="451.2" cy="498" r="5" fill="#dc2626"/><text x="451.2" y="520" fill="#374151" font-size="12" text-anchor="middle">止损 79.28</text><circle cx="712.0" cy="498" r="5" fill="#dc2626"/><text x="712.0" y="520" fill="#374151" font-size="12" text-anchor="middle">目标一 55.41</text><circle cx="814.0" cy="498" r="5" fill="#dc2626"/><text x="814.0" y="520" fill="#374151" font-size="12" text-anchor="middle">目标二 49.44</text>
</svg>