<svg xmlns="http://www.w3.org/2000/svg" width="1080" height="560" viewBox="0 0 1080 560">
<rect width="100%" height="100%" fill="#ffffff"/>
<text x="72" y="23" fill="#111827" font-size="21" font-weight="800">BTC 小时线K线支撑压力图</text>
<text x="862" y="42" fill="#374151" font-size="15" text-anchor="end">最新价 59,883</text>
<line x1="72" y1="34" x2="72" y2="340" stroke="#d1d5db"/>
<line x1="72" y1="340" x2="862" y2="340" stroke="#d1d5db"/>
<line x1="72" y1="340.0" x2="862" y2="340.0" stroke="#f3f4f6"/>
<text x="8" y="345.0" fill="#4b5563" font-size="14">57,474</text>
<line x1="72" y1="263.5" x2="862" y2="263.5" stroke="#f3f4f6"/>
<text x="8" y="268.5" fill="#4b5563" font-size="14">58,507</text>
<line x1="72" y1="187.0" x2="862" y2="187.0" stroke="#f3f4f6"/>
<text x="8" y="192.0" fill="#4b5563" font-size="14">59,540</text>
<line x1="72" y1="110.5" x2="862" y2="110.5" stroke="#f3f4f6"/>
<text x="8" y="115.5" fill="#4b5563" font-size="14">60,574</text>
<line x1="72" y1="34.0" x2="862" y2="34.0" stroke="#f3f4f6"/>
<text x="8" y="39.0" fill="#4b5563" font-size="14">61,607</text>
<line x1="72.0" y1="134.7" x2="72.0" y2="155.5" stroke="#16a34a" stroke-width="1"/><rect x="69.3" y="138.7" width="5.4" height="16.5" fill="#16a34a" opacity="0.82" rx="1"/>
<line x1="80.9" y1="112.7" x2="80.9" y2="144.9" stroke="#16a34a" stroke-width="1"/><rect x="78.2" y="127.8" width="5.4" height="10.9" fill="#16a34a" opacity="0.82" rx="1"/>
<line x1="89.8" y1="120.1" x2="89.8" y2="136.5" stroke="#dc2626" stroke-width="1"/><rect x="87.0" y="127.8" width="5.4" height="8.2" fill="#dc2626" opacity="0.82" rx="1"/>
<line x1="98.6" y1="132.8" x2="98.6" y2="150.2" stroke="#dc2626" stroke-width="1"/><rect x="95.9" y="135.9" width="5.4" height="6.8" fill="#dc2626" opacity="0.82" rx="1"/>
<line x1="107.5" y1="127.0" x2="107.5" y2="146.2" stroke="#16a34a" stroke-width="1"/><rect x="104.8" y="129.7" width="5.4" height="13.1" fill="#16a34a" opacity="0.82" rx="1"/>
<line x1="116.4" y1="120.7" x2="116.4" y2="141.0" stroke="#dc2626" stroke-width="1"/><rect x="113.7" y="129.7" width="5.4" height="3.3" fill="#dc2626" opacity="0.82" rx="1"/>
<line x1="125.3" y1="133.0" x2="125.3" y2="157.8" stroke="#dc2626" stroke-width="1"/><rect x="122.5" y="133.0" width="5.4" height="16.7" fill="#dc2626" opacity="0.82" rx="1"/>
<line x1="134.1" y1="136.1" x2="134.1" y2="154.2" stroke="#dc2626" stroke-width="1"/><rect x="131.4" y="149.7" width="5.4" height="3.6" fill="#dc2626" opacity="0.82" rx="1"/>
<line x1="143.0" y1="145.3" x2="143.0" y2="169.1" stroke="#dc2626" stroke-width="1"/><rect x="140.3" y="153.3" width="5.4" height="10.8" fill="#dc2626" opacity="0.82" rx="1"/>
<line x1="151.9" y1="159.2" x2="151.9" y2="186.3" stroke="#dc2626" stroke-width="1"/><rect x="149.2" y="164.1" width="5.4" height="14.4" fill="#dc2626" opacity="0.82" rx="1"/>
<line x1="160.8" y1="166.2" x2="160.8" y2="199.9" stroke="#dc2626" stroke-width="1"/><rect x="158.0" y="178.4" width="5.4" height="7.3" fill="#dc2626" opacity="0.82" rx="1"/>
<line x1="169.6" y1="176.7" x2="169.6" y2="192.4" stroke="#16a34a" stroke-width="1"/><rect x="166.9" y="184.0" width="5.4" height="1.7" fill="#16a34a" opacity="0.82" rx="1"/>
<line x1="178.5" y1="178.3" x2="178.5" y2="210.4" stroke="#dc2626" stroke-width="1"/><rect x="175.8" y="184.0" width="5.4" height="9.6" fill="#dc2626" opacity="0.82" rx="1"/>
<line x1="187.4" y1="171.6" x2="187.4" y2="194.1" stroke="#16a34a" stroke-width="1"/><rect x="184.7" y="180.1" width="5.4" height="13.5" fill="#16a34a" opacity="0.82" rx="1"/>
<line x1="196.3" y1="169.7" x2="196.3" y2="204.8" stroke="#dc2626" stroke-width="1"/><rect x="193.5" y="180.1" width="5.4" height="16.0" fill="#dc2626" opacity="0.82" rx="1"/>
<line x1="205.1" y1="161.6" x2="205.1" y2="235.3" stroke="#dc2626" stroke-width="1"/><rect x="202.4" y="196.0" width="5.4" height="28.0" fill="#dc2626" opacity="0.82" rx="1"/>
<line x1="214.0" y1="166.3" x2="214.0" y2="228.8" stroke="#16a34a" stroke-width="1"/><rect x="211.3" y="186.3" width="5.4" height="37.8" fill="#16a34a" opacity="0.82" rx="1"/>
<line x1="222.9" y1="176.8" x2="222.9" y2="228.6" stroke="#16a34a" stroke-width="1"/><rect x="220.2" y="179.8" width="5.4" height="6.4" fill="#16a34a" opacity="0.82" rx="1"/>
<line x1="231.8" y1="177.1" x2="231.8" y2="214.4" stroke="#dc2626" stroke-width="1"/><rect x="229.1" y="179.8" width="5.4" height="16.6" fill="#dc2626" opacity="0.82" rx="1"/>
<line x1="240.7" y1="168.7" x2="240.7" y2="238.1" stroke="#16a34a" stroke-width="1"/><rect x="237.9" y="172.8" width="5.4" height="23.6" fill="#16a34a" opacity="0.82" rx="1"/>
<line x1="249.5" y1="136.7" x2="249.5" y2="172.8" stroke="#16a34a" stroke-width="1"/><rect x="246.8" y="151.5" width="5.4" height="21.3" fill="#16a34a" opacity="0.82" rx="1"/>
<line x1="258.4" y1="150.6" x2="258.4" y2="173.9" stroke="#dc2626" stroke-width="1"/><rect x="255.7" y="151.5" width="5.4" height="15.8" fill="#dc2626" opacity="0.82" rx="1"/>
<line x1="267.3" y1="146.5" x2="267.3" y2="200.3" stroke="#16a34a" stroke-width="1"/><rect x="264.6" y="146.8" width="5.4" height="20.5" fill="#16a34a" opacity="0.82" rx="1"/>
<line x1="276.2" y1="128.9" x2="276.2" y2="151.3" stroke="#dc2626" stroke-width="1"/><rect x="273.4" y="146.8" width="5.4" height="2.3" fill="#dc2626" opacity="0.82" rx="1"/>
<line x1="285.0" y1="140.9" x2="285.0" y2="160.3" stroke="#dc2626" stroke-width="1"/><rect x="282.3" y="149.2" width="5.4" height="3.9" fill="#dc2626" opacity="0.82" rx="1"/>
<line x1="293.9" y1="147.8" x2="293.9" y2="174.2" stroke="#dc2626" stroke-width="1"/><rect x="291.2" y="153.1" width="5.4" height="14.2" fill="#dc2626" opacity="0.82" rx="1"/>
<line x1="302.8" y1="146.4" x2="302.8" y2="171.5" stroke="#16a34a" stroke-width="1"/><rect x="300.1" y="150.7" width="5.4" height="16.6" fill="#16a34a" opacity="0.82" rx="1"/>
<line x1="311.7" y1="131.7" x2="311.7" y2="150.7" stroke="#16a34a" stroke-width="1"/><rect x="308.9" y="148.3" width="5.4" height="2.3" fill="#16a34a" opacity="0.82" rx="1"/>
<line x1="320.5" y1="138.7" x2="320.5" y2="170.0" stroke="#dc2626" stroke-width="1"/><rect x="317.8" y="148.4" width="5.4" height="10.0" fill="#dc2626" opacity="0.82" rx="1"/>
<line x1="329.4" y1="96.8" x2="329.4" y2="186.1" stroke="#dc2626" stroke-width="1"/><rect x="326.7" y="158.4" width="5.4" height="1.2" fill="#dc2626" opacity="0.82" rx="1"/>
<line x1="338.3" y1="129.8" x2="338.3" y2="204.6" stroke="#dc2626" stroke-width="1"/><rect x="335.6" y="158.6" width="5.4" height="27.0" fill="#dc2626" opacity="0.82" rx="1"/>
<line x1="347.2" y1="175.9" x2="347.2" y2="227.9" stroke="#dc2626" stroke-width="1"/><rect x="344.4" y="185.6" width="5.4" height="8.5" fill="#dc2626" opacity="0.82" rx="1"/>
<line x1="356.0" y1="157.5" x2="356.0" y2="222.0" stroke="#16a34a" stroke-width="1"/><rect x="353.3" y="167.8" width="5.4" height="26.4" fill="#16a34a" opacity="0.82" rx="1"/>
<line x1="364.9" y1="153.0" x2="364.9" y2="185.3" stroke="#16a34a" stroke-width="1"/><rect x="362.2" y="162.5" width="5.4" height="5.2" fill="#16a34a" opacity="0.82" rx="1"/>
<line x1="373.8" y1="103.6" x2="373.8" y2="162.5" stroke="#16a34a" stroke-width="1"/><rect x="371.1" y="123.7" width="5.4" height="38.9" fill="#16a34a" opacity="0.82" rx="1"/>
<line x1="382.7" y1="115.9" x2="382.7" y2="141.9" stroke="#dc2626" stroke-width="1"/><rect x="380.0" y="123.7" width="5.4" height="8.9" fill="#dc2626" opacity="0.82" rx="1"/>
<line x1="391.6" y1="113.0" x2="391.6" y2="143.5" stroke="#16a34a" stroke-width="1"/><rect x="388.8" y="122.7" width="5.4" height="9.9" fill="#16a34a" opacity="0.82" rx="1"/>
<line x1="400.4" y1="113.4" x2="400.4" y2="133.3" stroke="#dc2626" stroke-width="1"/><rect x="397.7" y="122.7" width="5.4" height="10.2" fill="#dc2626" opacity="0.82" rx="1"/>
<line x1="409.3" y1="111.1" x2="409.3" y2="135.8" stroke="#16a34a" stroke-width="1"/><rect x="406.6" y="119.3" width="5.4" height="13.6" fill="#16a34a" opacity="0.82" rx="1"/>
<line x1="418.2" y1="116.5" x2="418.2" y2="129.7" stroke="#dc2626" stroke-width="1"/><rect x="415.5" y="119.3" width="5.4" height="9.5" fill="#dc2626" opacity="0.82" rx="1"/>
<line x1="427.1" y1="126.8" x2="427.1" y2="143.0" stroke="#dc2626" stroke-width="1"/><rect x="424.3" y="128.8" width="5.4" height="7.5" fill="#dc2626" opacity="0.82" rx="1"/>
<line x1="435.9" y1="134.5" x2="435.9" y2="177.6" stroke="#dc2626" stroke-width="1"/><rect x="433.2" y="136.3" width="5.4" height="31.0" fill="#dc2626" opacity="0.82" rx="1"/>
<line x1="444.8" y1="151.1" x2="444.8" y2="172.2" stroke="#16a34a" stroke-width="1"/><rect x="442.1" y="158.9" width="5.4" height="8.4" fill="#16a34a" opacity="0.82" rx="1"/>
<line x1="453.7" y1="151.4" x2="453.7" y2="173.7" stroke="#16a34a" stroke-width="1"/><rect x="451.0" y="158.9" width="5.4" height="1.2" fill="#16a34a" opacity="0.82" rx="1"/>
<line x1="462.6" y1="152.4" x2="462.6" y2="184.8" stroke="#dc2626" stroke-width="1"/><rect x="459.8" y="158.9" width="5.4" height="24.0" fill="#dc2626" opacity="0.82" rx="1"/>
<line x1="471.4" y1="177.2" x2="471.4" y2="197.4" stroke="#dc2626" stroke-width="1"/><rect x="468.7" y="182.9" width="5.4" height="10.2" fill="#dc2626" opacity="0.82" rx="1"/>
<line x1="480.3" y1="180.1" x2="480.3" y2="202.6" stroke="#16a34a" stroke-width="1"/><rect x="477.6" y="180.5" width="5.4" height="12.5" fill="#16a34a" opacity="0.82" rx="1"/>
<line x1="489.2" y1="175.3" x2="489.2" y2="190.8" stroke="#dc2626" stroke-width="1"/><rect x="486.5" y="180.5" width="5.4" height="4.2" fill="#dc2626" opacity="0.82" rx="1"/>
<line x1="498.1" y1="181.7" x2="498.1" y2="195.7" stroke="#dc2626" stroke-width="1"/><rect x="495.3" y="184.7" width="5.4" height="5.5" fill="#dc2626" opacity="0.82" rx="1"/>
<line x1="506.9" y1="187.6" x2="506.9" y2="215.2" stroke="#dc2626" stroke-width="1"/><rect x="504.2" y="190.2" width="5.4" height="15.7" fill="#dc2626" opacity="0.82" rx="1"/>
<line x1="515.8" y1="197.6" x2="515.8" y2="210.3" stroke="#16a34a" stroke-width="1"/><rect x="513.1" y="201.2" width="5.4" height="4.7" fill="#16a34a" opacity="0.82" rx="1"/>
<line x1="524.7" y1="197.2" x2="524.7" y2="207.4" stroke="#dc2626" stroke-width="1"/><rect x="522.0" y="201.2" width="5.4" height="3.3" fill="#dc2626" opacity="0.82" rx="1"/>
<line x1="533.6" y1="197.4" x2="533.6" y2="219.6" stroke="#dc2626" stroke-width="1"/><rect x="530.9" y="204.5" width="5.4" height="10.5" fill="#dc2626" opacity="0.82" rx="1"/>
<line x1="542.4" y1="215.0" x2="542.4" y2="275.0" stroke="#dc2626" stroke-width="1"/><rect x="539.7" y="215.0" width="5.4" height="58.3" fill="#dc2626" opacity="0.82" rx="1"/>
<line x1="551.3" y1="242.4" x2="551.3" y2="286.2" stroke="#16a34a" stroke-width="1"/><rect x="548.6" y="248.3" width="5.4" height="25.0" fill="#16a34a" opacity="0.82" rx="1"/>
<line x1="560.2" y1="207.4" x2="560.2" y2="271.4" stroke="#dc2626" stroke-width="1"/><rect x="557.5" y="248.3" width="5.4" height="18.7" fill="#dc2626" opacity="0.82" rx="1"/>
<line x1="569.1" y1="242.9" x2="569.1" y2="289.2" stroke="#dc2626" stroke-width="1"/><rect x="566.4" y="267.1" width="5.4" height="7.6" fill="#dc2626" opacity="0.82" rx="1"/>
<line x1="578.0" y1="255.3" x2="578.0" y2="284.5" stroke="#16a34a" stroke-width="1"/><rect x="575.2" y="265.5" width="5.4" height="9.1" fill="#16a34a" opacity="0.82" rx="1"/>
<line x1="586.8" y1="256.3" x2="586.8" y2="279.6" stroke="#dc2626" stroke-width="1"/><rect x="584.1" y="265.6" width="5.4" height="6.1" fill="#dc2626" opacity="0.82" rx="1"/>
<line x1="595.7" y1="251.1" x2="595.7" y2="276.3" stroke="#16a34a" stroke-width="1"/><rect x="593.0" y="252.2" width="5.4" height="19.5" fill="#16a34a" opacity="0.82" rx="1"/>
<line x1="604.6" y1="240.3" x2="604.6" y2="259.6" stroke="#16a34a" stroke-width="1"/><rect x="601.9" y="242.2" width="5.4" height="10.0" fill="#16a34a" opacity="0.82" rx="1"/>
<line x1="613.5" y1="238.1" x2="613.5" y2="255.0" stroke="#dc2626" stroke-width="1"/><rect x="610.7" y="242.2" width="5.4" height="6.4" fill="#dc2626" opacity="0.82" rx="1"/>
<line x1="622.3" y1="245.9" x2="622.3" y2="266.1" stroke="#dc2626" stroke-width="1"/><rect x="619.6" y="248.6" width="5.4" height="7.1" fill="#dc2626" opacity="0.82" rx="1"/>
<line x1="631.2" y1="243.3" x2="631.2" y2="265.7" stroke="#dc2626" stroke-width="1"/><rect x="628.5" y="255.7" width="5.4" height="2.7" fill="#dc2626" opacity="0.82" rx="1"/>
<line x1="640.1" y1="253.9" x2="640.1" y2="262.6" stroke="#16a34a" stroke-width="1"/><rect x="637.4" y="256.2" width="5.4" height="2.2" fill="#16a34a" opacity="0.82" rx="1"/>
<line x1="649.0" y1="247.7" x2="649.0" y2="281.0" stroke="#dc2626" stroke-width="1"/><rect x="646.2" y="256.2" width="5.4" height="4.2" fill="#dc2626" opacity="0.82" rx="1"/>
<line x1="657.8" y1="227.6" x2="657.8" y2="318.9" stroke="#16a34a" stroke-width="1"/><rect x="655.1" y="246.1" width="5.4" height="14.3" fill="#16a34a" opacity="0.82" rx="1"/>
<line x1="666.7" y1="215.7" x2="666.7" y2="254.2" stroke="#16a34a" stroke-width="1"/><rect x="664.0" y="222.3" width="5.4" height="23.8" fill="#16a34a" opacity="0.82" rx="1"/>
<line x1="675.6" y1="204.9" x2="675.6" y2="240.0" stroke="#16a34a" stroke-width="1"/><rect x="672.9" y="214.4" width="5.4" height="7.9" fill="#16a34a" opacity="0.82" rx="1"/>
<line x1="684.5" y1="194.1" x2="684.5" y2="224.7" stroke="#16a34a" stroke-width="1"/><rect x="681.8" y="204.0" width="5.4" height="10.5" fill="#16a34a" opacity="0.82" rx="1"/>
<line x1="693.3" y1="201.1" x2="693.3" y2="220.7" stroke="#dc2626" stroke-width="1"/><rect x="690.6" y="204.0" width="5.4" height="14.0" fill="#dc2626" opacity="0.82" rx="1"/>
<line x1="702.2" y1="217.4" x2="702.2" y2="264.0" stroke="#dc2626" stroke-width="1"/><rect x="699.5" y="217.9" width="5.4" height="29.3" fill="#dc2626" opacity="0.82" rx="1"/>
<line x1="711.1" y1="242.0" x2="711.1" y2="259.0" stroke="#16a34a" stroke-width="1"/><rect x="708.4" y="245.9" width="5.4" height="1.3" fill="#16a34a" opacity="0.82" rx="1"/>
<line x1="720.0" y1="229.6" x2="720.0" y2="267.7" stroke="#16a34a" stroke-width="1"/><rect x="717.3" y="230.6" width="5.4" height="15.3" fill="#16a34a" opacity="0.82" rx="1"/>
<line x1="728.9" y1="221.8" x2="728.9" y2="242.3" stroke="#dc2626" stroke-width="1"/><rect x="726.1" y="230.6" width="5.4" height="2.2" fill="#dc2626" opacity="0.82" rx="1"/>
<line x1="737.7" y1="232.7" x2="737.7" y2="257.3" stroke="#dc2626" stroke-width="1"/><rect x="735.0" y="232.8" width="5.4" height="21.5" fill="#dc2626" opacity="0.82" rx="1"/>
<line x1="746.6" y1="246.7" x2="746.6" y2="262.2" stroke="#dc2626" stroke-width="1"/><rect x="743.9" y="254.3" width="5.4" height="2.9" fill="#dc2626" opacity="0.82" rx="1"/>
<line x1="755.5" y1="252.5" x2="755.5" y2="279.3" stroke="#dc2626" stroke-width="1"/><rect x="752.8" y="257.1" width="5.4" height="7.2" fill="#dc2626" opacity="0.82" rx="1"/>
<line x1="764.4" y1="191.0" x2="764.4" y2="264.3" stroke="#16a34a" stroke-width="1"/><rect x="761.6" y="192.7" width="5.4" height="71.6" fill="#16a34a" opacity="0.82" rx="1"/>
<line x1="773.2" y1="147.9" x2="773.2" y2="209.2" stroke="#16a34a" stroke-width="1"/><rect x="770.5" y="188.2" width="5.4" height="4.5" fill="#16a34a" opacity="0.82" rx="1"/>
<line x1="782.1" y1="114.5" x2="782.1" y2="190.2" stroke="#16a34a" stroke-width="1"/><rect x="779.4" y="144.2" width="5.4" height="44.0" fill="#16a34a" opacity="0.82" rx="1"/>
<line x1="791.0" y1="134.9" x2="791.0" y2="165.1" stroke="#dc2626" stroke-width="1"/><rect x="788.3" y="144.2" width="5.4" height="16.0" fill="#dc2626" opacity="0.82" rx="1"/>
<line x1="799.9" y1="136.8" x2="799.9" y2="170.5" stroke="#16a34a" stroke-width="1"/><rect x="797.1" y="140.6" width="5.4" height="19.5" fill="#16a34a" opacity="0.82" rx="1"/>
<line x1="808.7" y1="132.3" x2="808.7" y2="153.5" stroke="#dc2626" stroke-width="1"/><rect x="806.0" y="140.6" width="5.4" height="1.9" fill="#dc2626" opacity="0.82" rx="1"/>
<line x1="817.6" y1="128.3" x2="817.6" y2="156.5" stroke="#dc2626" stroke-width="1"/><rect x="814.9" y="142.5" width="5.4" height="10.5" fill="#dc2626" opacity="0.82" rx="1"/>
<line x1="826.5" y1="140.4" x2="826.5" y2="164.5" stroke="#16a34a" stroke-width="1"/><rect x="823.8" y="145.5" width="5.4" height="7.4" fill="#16a34a" opacity="0.82" rx="1"/>
<line x1="835.4" y1="91.7" x2="835.4" y2="146.1" stroke="#16a34a" stroke-width="1"/><rect x="832.6" y="93.8" width="5.4" height="51.8" fill="#16a34a" opacity="0.82" rx="1"/>
<line x1="844.2" y1="55.1" x2="844.2" y2="129.3" stroke="#dc2626" stroke-width="1"/><rect x="841.5" y="93.8" width="5.4" height="26.2" fill="#dc2626" opacity="0.82" rx="1"/>
<line x1="853.1" y1="119.9" x2="853.1" y2="156.7" stroke="#dc2626" stroke-width="1"/><rect x="850.4" y="119.9" width="5.4" height="33.1" fill="#dc2626" opacity="0.82" rx="1"/>
<line x1="862.0" y1="152.5" x2="862.0" y2="162.8" stroke="#dc2626" stroke-width="1"/><rect x="859.3" y="153.0" width="5.4" height="8.6" fill="#dc2626" opacity="0.82" rx="1"/>
<line x1="72" y1="222.2" x2="862" y2="222.2" stroke="#16a34a" stroke-width="1.8" stroke-dasharray="6 4" /><rect x="874" y="202.2" width="166" height="23" rx="5" fill="#ffffff" stroke="#16a34a" opacity="0.97"/><text x="881" y="218.2" fill="#16a34a" font-size="15" font-weight="700">日内支撑 59,064</text>
<line x1="72" y1="60.6" x2="862" y2="60.6" stroke="#dc2626" stroke-width="1.8" stroke-dasharray="6 4" /><rect x="874" y="40.6" width="166" height="23" rx="5" fill="#ffffff" stroke="#dc2626" opacity="0.97"/><text x="881" y="56.6" fill="#dc2626" font-size="15" font-weight="700">日内压力 61,248</text>
<line x1="72" y1="161.6" x2="862" y2="161.6" stroke="#111827" stroke-width="1.8" stroke-dasharray="2 2" /><rect x="874" y="141.6" width="166" height="23" rx="5" fill="#ffffff" stroke="#111827" opacity="0.97"/><text x="881" y="157.6" fill="#111827" font-size="15" font-weight="700">现价 59,883</text>
<text x="72" y="396" fill="#16a34a" font-size="14" font-weight="700">日内做多计划</text><rect x="72" y="404" width="790" height="48" rx="6" fill="#f9fafb" stroke="#e5e7eb"/><line x1="94" y1="412" x2="840" y2="412" stroke="#16a34a" stroke-width="3"/><circle cx="132.0" cy="412" r="5" fill="#16a34a"/><text x="132.0" y="434" fill="#374151" font-size="12" text-anchor="middle">入场 止跌/突破回踩</text><circle cx="451.2" cy="412" r="5" fill="#16a34a"/><text x="451.2" y="434" fill="#374151" font-size="12" text-anchor="middle">止损 59,064</text><circle cx="712.0" cy="412" r="5" fill="#16a34a"/><text x="712.0" y="434" fill="#374151" font-size="12" text-anchor="middle">目标一 61,248</text><circle cx="814.0" cy="412" r="5" fill="#16a34a"/><text x="814.0" y="434" fill="#374151" font-size="12" text-anchor="middle">目标二 61,794</text>
<text x="72" y="482" fill="#dc2626" font-size="14" font-weight="700">日内做空计划</text><rect x="72" y="490" width="790" height="48" rx="6" fill="#f9fafb" stroke="#e5e7eb"/><line x1="94" y1="498" x2="840" y2="498" stroke="#dc2626" stroke-width="3"/><circle cx="132.0" cy="498" r="5" fill="#dc2626"/><text x="132.0" y="520" fill="#374151" font-size="12" text-anchor="middle">入场 反弹承压/破位回抽</text><circle cx="451.2" cy="498" r="5" fill="#dc2626"/><text x="451.2" y="520" fill="#374151" font-size="12" text-anchor="middle">止损 61,248</text><circle cx="712.0" cy="498" r="5" fill="#dc2626"/><text x="712.0" y="520" fill="#374151" font-size="12" text-anchor="middle">目标一 59,064</text><circle cx="814.0" cy="498" r="5" fill="#dc2626"/><text x="814.0" y="520" fill="#374151" font-size="12" text-anchor="middle">目标二 58,518</text>
</svg>