<svg xmlns="http://www.w3.org/2000/svg" width="1080" height="560" viewBox="0 0 1080 560">
<rect width="100%" height="100%" fill="#ffffff"/>
<text x="72" y="23" fill="#111827" font-size="21" font-weight="800">DRAM 小时线K线支撑压力图</text>
<text x="862" y="42" fill="#374151" font-size="15" text-anchor="end">最新价 65.13</text>
<line x1="72" y1="34" x2="72" y2="340" stroke="#d1d5db"/>
<line x1="72" y1="340" x2="862" y2="340" stroke="#d1d5db"/>
<line x1="72" y1="340.0" x2="862" y2="340.0" stroke="#f3f4f6"/>
<text x="8" y="345.0" fill="#4b5563" font-size="14">58.05</text>
<line x1="72" y1="263.5" x2="862" y2="263.5" stroke="#f3f4f6"/>
<text x="8" y="268.5" fill="#4b5563" font-size="14">61.32</text>
<line x1="72" y1="187.0" x2="862" y2="187.0" stroke="#f3f4f6"/>
<text x="8" y="192.0" fill="#4b5563" font-size="14">64.60</text>
<line x1="72" y1="110.5" x2="862" y2="110.5" stroke="#f3f4f6"/>
<text x="8" y="115.5" fill="#4b5563" font-size="14">67.88</text>
<line x1="72" y1="34.0" x2="862" y2="34.0" stroke="#f3f4f6"/>
<text x="8" y="39.0" fill="#4b5563" font-size="14">71.15</text>
<line x1="72.0" y1="60.9" x2="72.0" y2="71.7" stroke="#dc2626" stroke-width="1"/><rect x="69.3" y="61.4" width="5.4" height="5.4" fill="#dc2626" opacity="0.82" rx="1"/>
<line x1="80.9" y1="57.2" x2="80.9" y2="82.2" stroke="#16a34a" stroke-width="1"/><rect x="78.2" y="64.0" width="5.4" height="2.8" fill="#16a34a" opacity="0.82" rx="1"/>
<line x1="89.8" y1="64.2" x2="89.8" y2="78.4" stroke="#dc2626" stroke-width="1"/><rect x="87.0" y="64.2" width="5.4" height="6.1" fill="#dc2626" opacity="0.82" rx="1"/>
<line x1="98.6" y1="67.7" x2="98.6" y2="79.8" stroke="#16a34a" stroke-width="1"/><rect x="95.9" y="70.0" width="5.4" height="1.2" fill="#16a34a" opacity="0.82" rx="1"/>
<line x1="107.5" y1="57.0" x2="107.5" y2="69.8" stroke="#16a34a" stroke-width="1"/><rect x="104.8" y="64.2" width="5.4" height="5.6" fill="#16a34a" opacity="0.82" rx="1"/>
<line x1="116.4" y1="55.1" x2="116.4" y2="115.1" stroke="#dc2626" stroke-width="1"/><rect x="113.7" y="64.0" width="5.4" height="43.7" fill="#dc2626" opacity="0.82" rx="1"/>
<line x1="125.3" y1="89.4" x2="125.3" y2="129.1" stroke="#16a34a" stroke-width="1"/><rect x="122.5" y="103.2" width="5.4" height="4.2" fill="#16a34a" opacity="0.82" rx="1"/>
<line x1="134.1" y1="92.0" x2="134.1" y2="141.9" stroke="#dc2626" stroke-width="1"/><rect x="131.4" y="103.2" width="5.4" height="34.5" fill="#dc2626" opacity="0.82" rx="1"/>
<line x1="143.0" y1="113.7" x2="143.0" y2="137.7" stroke="#16a34a" stroke-width="1"/><rect x="140.3" y="131.9" width="5.4" height="5.6" fill="#16a34a" opacity="0.82" rx="1"/>
<line x1="151.9" y1="121.4" x2="151.9" y2="137.3" stroke="#dc2626" stroke-width="1"/><rect x="149.2" y="131.9" width="5.4" height="4.0" fill="#dc2626" opacity="0.82" rx="1"/>
<line x1="160.8" y1="130.0" x2="160.8" y2="150.1" stroke="#dc2626" stroke-width="1"/><rect x="158.0" y="136.1" width="5.4" height="12.6" fill="#dc2626" opacity="0.82" rx="1"/>
<line x1="169.6" y1="139.8" x2="169.6" y2="154.8" stroke="#dc2626" stroke-width="1"/><rect x="166.9" y="148.5" width="5.4" height="1.2" fill="#dc2626" opacity="0.82" rx="1"/>
<line x1="178.5" y1="124.9" x2="178.5" y2="157.1" stroke="#dc2626" stroke-width="1"/><rect x="175.8" y="148.5" width="5.4" height="8.6" fill="#dc2626" opacity="0.82" rx="1"/>
<line x1="187.4" y1="146.8" x2="187.4" y2="172.3" stroke="#16a34a" stroke-width="1"/><rect x="184.7" y="151.7" width="5.4" height="4.4" fill="#16a34a" opacity="0.82" rx="1"/>
<line x1="196.3" y1="142.6" x2="196.3" y2="152.7" stroke="#16a34a" stroke-width="1"/><rect x="193.5" y="146.4" width="5.4" height="5.4" fill="#16a34a" opacity="0.82" rx="1"/>
<line x1="205.1" y1="145.2" x2="205.1" y2="153.9" stroke="#dc2626" stroke-width="1"/><rect x="202.4" y="146.4" width="5.4" height="1.4" fill="#dc2626" opacity="0.82" rx="1"/>
<line x1="214.0" y1="147.8" x2="214.0" y2="184.7" stroke="#dc2626" stroke-width="1"/><rect x="211.3" y="147.8" width="5.4" height="32.9" fill="#dc2626" opacity="0.82" rx="1"/>
<line x1="222.9" y1="177.2" x2="222.9" y2="214.3" stroke="#dc2626" stroke-width="1"/><rect x="220.2" y="180.5" width="5.4" height="18.2" fill="#dc2626" opacity="0.82" rx="1"/>
<line x1="231.8" y1="156.4" x2="231.8" y2="201.2" stroke="#16a34a" stroke-width="1"/><rect x="229.1" y="157.1" width="5.4" height="41.6" fill="#16a34a" opacity="0.82" rx="1"/>
<line x1="240.7" y1="142.6" x2="240.7" y2="169.7" stroke="#dc2626" stroke-width="1"/><rect x="237.9" y="157.1" width="5.4" height="6.8" fill="#dc2626" opacity="0.82" rx="1"/>
<line x1="249.5" y1="160.9" x2="249.5" y2="187.2" stroke="#dc2626" stroke-width="1"/><rect x="246.8" y="163.9" width="5.4" height="17.5" fill="#dc2626" opacity="0.82" rx="1"/>
<line x1="258.4" y1="177.9" x2="258.4" y2="202.6" stroke="#dc2626" stroke-width="1"/><rect x="255.7" y="181.4" width="5.4" height="11.0" fill="#dc2626" opacity="0.82" rx="1"/>
<line x1="267.3" y1="184.4" x2="267.3" y2="219.0" stroke="#dc2626" stroke-width="1"/><rect x="264.6" y="192.4" width="5.4" height="26.4" fill="#dc2626" opacity="0.82" rx="1"/>
<line x1="276.2" y1="215.2" x2="276.2" y2="247.7" stroke="#dc2626" stroke-width="1"/><rect x="273.4" y="218.7" width="5.4" height="19.4" fill="#dc2626" opacity="0.82" rx="1"/>
<line x1="285.0" y1="227.6" x2="285.0" y2="250.7" stroke="#16a34a" stroke-width="1"/><rect x="282.3" y="232.5" width="5.4" height="5.8" fill="#16a34a" opacity="0.82" rx="1"/>
<line x1="293.9" y1="204.3" x2="293.9" y2="248.4" stroke="#16a34a" stroke-width="1"/><rect x="291.2" y="206.6" width="5.4" height="25.7" fill="#16a34a" opacity="0.82" rx="1"/>
<line x1="302.8" y1="206.8" x2="302.8" y2="230.0" stroke="#dc2626" stroke-width="1"/><rect x="300.1" y="206.8" width="5.4" height="21.7" fill="#dc2626" opacity="0.82" rx="1"/>
<line x1="311.7" y1="222.3" x2="311.7" y2="236.5" stroke="#16a34a" stroke-width="1"/><rect x="308.9" y="225.3" width="5.4" height="3.0" fill="#16a34a" opacity="0.82" rx="1"/>
<line x1="320.5" y1="208.5" x2="320.5" y2="232.5" stroke="#16a34a" stroke-width="1"/><rect x="317.8" y="215.0" width="5.4" height="10.5" fill="#16a34a" opacity="0.82" rx="1"/>
<line x1="329.4" y1="137.0" x2="329.4" y2="218.5" stroke="#16a34a" stroke-width="1"/><rect x="326.7" y="179.3" width="5.4" height="35.5" fill="#16a34a" opacity="0.82" rx="1"/>
<line x1="338.3" y1="159.7" x2="338.3" y2="204.7" stroke="#16a34a" stroke-width="1"/><rect x="335.6" y="164.6" width="5.4" height="14.7" fill="#16a34a" opacity="0.82" rx="1"/>
<line x1="347.2" y1="158.1" x2="347.2" y2="267.5" stroke="#dc2626" stroke-width="1"/><rect x="344.4" y="164.4" width="5.4" height="88.7" fill="#dc2626" opacity="0.82" rx="1"/>
<line x1="356.0" y1="233.2" x2="356.0" y2="279.4" stroke="#dc2626" stroke-width="1"/><rect x="353.3" y="252.8" width="5.4" height="6.1" fill="#dc2626" opacity="0.82" rx="1"/>
<line x1="364.9" y1="257.3" x2="364.9" y2="294.2" stroke="#dc2626" stroke-width="1"/><rect x="362.2" y="258.7" width="5.4" height="30.3" fill="#dc2626" opacity="0.82" rx="1"/>
<line x1="373.8" y1="280.6" x2="373.8" y2="318.9" stroke="#dc2626" stroke-width="1"/><rect x="371.1" y="289.0" width="5.4" height="28.5" fill="#dc2626" opacity="0.82" rx="1"/>
<line x1="382.7" y1="277.6" x2="382.7" y2="318.2" stroke="#16a34a" stroke-width="1"/><rect x="380.0" y="282.9" width="5.4" height="34.5" fill="#16a34a" opacity="0.82" rx="1"/>
<line x1="391.6" y1="272.0" x2="391.6" y2="309.8" stroke="#16a34a" stroke-width="1"/><rect x="388.8" y="275.5" width="5.4" height="7.5" fill="#16a34a" opacity="0.82" rx="1"/>
<line x1="400.4" y1="261.7" x2="400.4" y2="282.9" stroke="#16a34a" stroke-width="1"/><rect x="397.7" y="272.2" width="5.4" height="3.3" fill="#16a34a" opacity="0.82" rx="1"/>
<line x1="409.3" y1="268.9" x2="409.3" y2="278.3" stroke="#dc2626" stroke-width="1"/><rect x="406.6" y="272.2" width="5.4" height="3.0" fill="#dc2626" opacity="0.82" rx="1"/>
<line x1="418.2" y1="271.3" x2="418.2" y2="283.2" stroke="#dc2626" stroke-width="1"/><rect x="415.5" y="275.2" width="5.4" height="4.7" fill="#dc2626" opacity="0.82" rx="1"/>
<line x1="427.1" y1="251.0" x2="427.1" y2="289.9" stroke="#16a34a" stroke-width="1"/><rect x="424.3" y="266.8" width="5.4" height="13.3" fill="#16a34a" opacity="0.82" rx="1"/>
<line x1="435.9" y1="248.9" x2="435.9" y2="301.4" stroke="#dc2626" stroke-width="1"/><rect x="433.2" y="266.8" width="5.4" height="31.5" fill="#dc2626" opacity="0.82" rx="1"/>
<line x1="444.8" y1="237.4" x2="444.8" y2="302.1" stroke="#16a34a" stroke-width="1"/><rect x="442.1" y="243.7" width="5.4" height="54.6" fill="#16a34a" opacity="0.82" rx="1"/>
<line x1="453.7" y1="237.9" x2="453.7" y2="260.8" stroke="#dc2626" stroke-width="1"/><rect x="451.0" y="243.5" width="5.4" height="1.2" fill="#dc2626" opacity="0.82" rx="1"/>
<line x1="462.6" y1="236.5" x2="462.6" y2="263.8" stroke="#16a34a" stroke-width="1"/><rect x="459.8" y="239.5" width="5.4" height="5.6" fill="#16a34a" opacity="0.82" rx="1"/>
<line x1="471.4" y1="205.9" x2="471.4" y2="241.2" stroke="#16a34a" stroke-width="1"/><rect x="468.7" y="213.6" width="5.4" height="26.1" fill="#16a34a" opacity="0.82" rx="1"/>
<line x1="480.3" y1="204.0" x2="480.3" y2="228.1" stroke="#dc2626" stroke-width="1"/><rect x="477.6" y="213.8" width="5.4" height="2.1" fill="#dc2626" opacity="0.82" rx="1"/>
<line x1="489.2" y1="210.1" x2="489.2" y2="230.7" stroke="#dc2626" stroke-width="1"/><rect x="486.5" y="215.9" width="5.4" height="3.7" fill="#dc2626" opacity="0.82" rx="1"/>
<line x1="498.1" y1="202.2" x2="498.1" y2="219.4" stroke="#16a34a" stroke-width="1"/><rect x="495.3" y="212.9" width="5.4" height="6.3" fill="#16a34a" opacity="0.82" rx="1"/>
<line x1="506.9" y1="180.2" x2="506.9" y2="212.9" stroke="#16a34a" stroke-width="1"/><rect x="504.2" y="190.7" width="5.4" height="21.9" fill="#16a34a" opacity="0.82" rx="1"/>
<line x1="515.8" y1="184.2" x2="515.8" y2="196.1" stroke="#16a34a" stroke-width="1"/><rect x="513.1" y="187.9" width="5.4" height="2.6" fill="#16a34a" opacity="0.82" rx="1"/>
<line x1="524.7" y1="176.3" x2="524.7" y2="190.7" stroke="#16a34a" stroke-width="1"/><rect x="522.0" y="179.5" width="5.4" height="8.2" fill="#16a34a" opacity="0.82" rx="1"/>
<line x1="533.6" y1="166.0" x2="533.6" y2="180.9" stroke="#16a34a" stroke-width="1"/><rect x="530.9" y="173.0" width="5.4" height="6.3" fill="#16a34a" opacity="0.82" rx="1"/>
<line x1="542.4" y1="166.7" x2="542.4" y2="190.3" stroke="#dc2626" stroke-width="1"/><rect x="539.7" y="172.8" width="5.4" height="9.6" fill="#dc2626" opacity="0.82" rx="1"/>
<line x1="551.3" y1="175.8" x2="551.3" y2="188.6" stroke="#16a34a" stroke-width="1"/><rect x="548.6" y="177.7" width="5.4" height="4.7" fill="#16a34a" opacity="0.82" rx="1"/>
<line x1="560.2" y1="169.5" x2="560.2" y2="184.4" stroke="#16a34a" stroke-width="1"/><rect x="557.5" y="175.1" width="5.4" height="2.6" fill="#16a34a" opacity="0.82" rx="1"/>
<line x1="569.1" y1="170.2" x2="569.1" y2="179.5" stroke="#16a34a" stroke-width="1"/><rect x="566.4" y="173.2" width="5.4" height="1.6" fill="#16a34a" opacity="0.82" rx="1"/>
<line x1="578.0" y1="169.7" x2="578.0" y2="178.4" stroke="#dc2626" stroke-width="1"/><rect x="575.2" y="173.2" width="5.4" height="3.7" fill="#dc2626" opacity="0.82" rx="1"/>
<line x1="586.8" y1="169.5" x2="586.8" y2="177.7" stroke="#16a34a" stroke-width="1"/><rect x="584.1" y="173.9" width="5.4" height="3.0" fill="#16a34a" opacity="0.82" rx="1"/>
<line x1="595.7" y1="168.6" x2="595.7" y2="187.5" stroke="#dc2626" stroke-width="1"/><rect x="593.0" y="173.7" width="5.4" height="4.4" fill="#dc2626" opacity="0.82" rx="1"/>
<line x1="604.6" y1="169.3" x2="604.6" y2="180.7" stroke="#dc2626" stroke-width="1"/><rect x="601.9" y="177.9" width="5.4" height="1.2" fill="#dc2626" opacity="0.82" rx="1"/>
<line x1="613.5" y1="174.2" x2="613.5" y2="183.7" stroke="#16a34a" stroke-width="1"/><rect x="610.7" y="176.0" width="5.4" height="2.8" fill="#16a34a" opacity="0.82" rx="1"/>
<line x1="622.3" y1="168.6" x2="622.3" y2="177.9" stroke="#16a34a" stroke-width="1"/><rect x="619.6" y="169.5" width="5.4" height="6.3" fill="#16a34a" opacity="0.82" rx="1"/>
<line x1="631.2" y1="168.6" x2="631.2" y2="175.6" stroke="#dc2626" stroke-width="1"/><rect x="628.5" y="169.5" width="5.4" height="2.3" fill="#dc2626" opacity="0.82" rx="1"/>
<line x1="640.1" y1="168.3" x2="640.1" y2="175.6" stroke="#16a34a" stroke-width="1"/><rect x="637.4" y="169.7" width="5.4" height="2.1" fill="#16a34a" opacity="0.82" rx="1"/>
<line x1="649.0" y1="166.5" x2="649.0" y2="176.0" stroke="#dc2626" stroke-width="1"/><rect x="646.2" y="169.3" width="5.4" height="2.3" fill="#dc2626" opacity="0.82" rx="1"/>
<line x1="657.8" y1="171.8" x2="657.8" y2="184.7" stroke="#dc2626" stroke-width="1"/><rect x="655.1" y="171.8" width="5.4" height="5.4" fill="#dc2626" opacity="0.82" rx="1"/>
<line x1="666.7" y1="173.0" x2="666.7" y2="177.4" stroke="#16a34a" stroke-width="1"/><rect x="664.0" y="176.3" width="5.4" height="1.2" fill="#16a34a" opacity="0.82" rx="1"/>
<line x1="675.6" y1="172.5" x2="675.6" y2="178.4" stroke="#16a34a" stroke-width="1"/><rect x="672.9" y="175.6" width="5.4" height="1.2" fill="#16a34a" opacity="0.82" rx="1"/>
<line x1="684.5" y1="174.9" x2="684.5" y2="181.4" stroke="#dc2626" stroke-width="1"/><rect x="681.8" y="175.6" width="5.4" height="4.4" fill="#dc2626" opacity="0.82" rx="1"/>
<line x1="693.3" y1="178.1" x2="693.3" y2="193.1" stroke="#dc2626" stroke-width="1"/><rect x="690.6" y="179.8" width="5.4" height="4.4" fill="#dc2626" opacity="0.82" rx="1"/>
<line x1="702.2" y1="179.1" x2="702.2" y2="184.4" stroke="#16a34a" stroke-width="1"/><rect x="699.5" y="180.7" width="5.4" height="3.5" fill="#16a34a" opacity="0.82" rx="1"/>
<line x1="711.1" y1="177.0" x2="711.1" y2="182.1" stroke="#16a34a" stroke-width="1"/><rect x="708.4" y="178.1" width="5.4" height="2.8" fill="#16a34a" opacity="0.82" rx="1"/>
<line x1="720.0" y1="174.9" x2="720.0" y2="184.4" stroke="#dc2626" stroke-width="1"/><rect x="717.3" y="177.7" width="5.4" height="5.1" fill="#dc2626" opacity="0.82" rx="1"/>
<line x1="728.9" y1="179.3" x2="728.9" y2="184.2" stroke="#16a34a" stroke-width="1"/><rect x="726.1" y="179.8" width="5.4" height="3.0" fill="#16a34a" opacity="0.82" rx="1"/>
<line x1="737.7" y1="174.9" x2="737.7" y2="181.2" stroke="#16a34a" stroke-width="1"/><rect x="735.0" y="177.0" width="5.4" height="2.8" fill="#16a34a" opacity="0.82" rx="1"/>
<line x1="746.6" y1="176.7" x2="746.6" y2="181.9" stroke="#dc2626" stroke-width="1"/><rect x="743.9" y="177.2" width="5.4" height="1.6" fill="#dc2626" opacity="0.82" rx="1"/>
<line x1="755.5" y1="178.1" x2="755.5" y2="182.1" stroke="#dc2626" stroke-width="1"/><rect x="752.8" y="178.6" width="5.4" height="1.9" fill="#dc2626" opacity="0.82" rx="1"/>
<line x1="764.4" y1="178.6" x2="764.4" y2="184.9" stroke="#dc2626" stroke-width="1"/><rect x="761.6" y="180.5" width="5.4" height="2.3" fill="#dc2626" opacity="0.82" rx="1"/>
<line x1="773.2" y1="180.0" x2="773.2" y2="183.7" stroke="#16a34a" stroke-width="1"/><rect x="770.5" y="180.9" width="5.4" height="1.9" fill="#16a34a" opacity="0.82" rx="1"/>
<line x1="782.1" y1="175.8" x2="782.1" y2="181.4" stroke="#16a34a" stroke-width="1"/><rect x="779.4" y="178.1" width="5.4" height="2.8" fill="#16a34a" opacity="0.82" rx="1"/>
<line x1="791.0" y1="177.9" x2="791.0" y2="185.8" stroke="#dc2626" stroke-width="1"/><rect x="788.3" y="178.1" width="5.4" height="7.5" fill="#dc2626" opacity="0.82" rx="1"/>
<line x1="799.9" y1="176.0" x2="799.9" y2="188.4" stroke="#16a34a" stroke-width="1"/><rect x="797.1" y="179.3" width="5.4" height="6.3" fill="#16a34a" opacity="0.82" rx="1"/>
<line x1="808.7" y1="176.3" x2="808.7" y2="180.9" stroke="#16a34a" stroke-width="1"/><rect x="806.0" y="176.5" width="5.4" height="3.0" fill="#16a34a" opacity="0.82" rx="1"/>
<line x1="817.6" y1="172.5" x2="817.6" y2="177.9" stroke="#16a34a" stroke-width="1"/><rect x="814.9" y="175.1" width="5.4" height="1.6" fill="#16a34a" opacity="0.82" rx="1"/>
<line x1="826.5" y1="173.2" x2="826.5" y2="185.4" stroke="#dc2626" stroke-width="1"/><rect x="823.8" y="174.9" width="5.4" height="3.3" fill="#dc2626" opacity="0.82" rx="1"/>
<line x1="835.4" y1="174.9" x2="835.4" y2="178.1" stroke="#16a34a" stroke-width="1"/><rect x="832.6" y="175.6" width="5.4" height="2.6" fill="#16a34a" opacity="0.82" rx="1"/>
<line x1="844.2" y1="169.5" x2="844.2" y2="177.2" stroke="#16a34a" stroke-width="1"/><rect x="841.5" y="170.9" width="5.4" height="4.9" fill="#16a34a" opacity="0.82" rx="1"/>
<line x1="853.1" y1="169.7" x2="853.1" y2="176.3" stroke="#dc2626" stroke-width="1"/><rect x="850.4" y="170.9" width="5.4" height="1.6" fill="#dc2626" opacity="0.82" rx="1"/>
<line x1="862.0" y1="172.5" x2="862.0" y2="175.6" stroke="#dc2626" stroke-width="1"/><rect x="859.3" y="172.8" width="5.4" height="1.9" fill="#dc2626" opacity="0.82" rx="1"/>
<line x1="72" y1="184.0" x2="862" y2="184.0" stroke="#16a34a" stroke-width="1.8" stroke-dasharray="6 4" /><rect x="874" y="164.0" width="166" height="23" rx="5" fill="#ffffff" stroke="#16a34a" opacity="0.97"/><text x="881" y="180.0" fill="#16a34a" font-size="15" font-weight="700">日内支撑 64.73</text>
<line x1="72" y1="159.0" x2="862" y2="159.0" stroke="#dc2626" stroke-width="1.8" stroke-dasharray="6 4" /><rect x="874" y="139.0" width="166" height="23" rx="5" fill="#ffffff" stroke="#dc2626" opacity="0.97"/><text x="881" y="155.0" fill="#dc2626" font-size="15" font-weight="700">日内压力 65.80</text>
<line x1="72" y1="174.6" x2="862" y2="174.6" stroke="#111827" stroke-width="1.8" stroke-dasharray="2 2" /><rect x="874" y="154.6" width="166" height="23" rx="5" fill="#ffffff" stroke="#111827" opacity="0.97"/><text x="881" y="170.6" fill="#111827" font-size="15" font-weight="700">现价 65.13</text>
<text x="72" y="396" fill="#16a34a" font-size="14" font-weight="700">日内做多计划</text><rect x="72" y="404" width="790" height="48" rx="6" fill="#f9fafb" stroke="#e5e7eb"/><line x1="94" y1="412" x2="840" y2="412" stroke="#16a34a" stroke-width="3"/><circle cx="132.0" cy="412" r="5" fill="#16a34a"/><text x="132.0" y="434" fill="#374151" font-size="12" text-anchor="middle">入场 止跌/突破回踩</text><circle cx="451.2" cy="412" r="5" fill="#16a34a"/><text x="451.2" y="434" fill="#374151" font-size="12" text-anchor="middle">止损 64.73</text><circle cx="712.0" cy="412" r="5" fill="#16a34a"/><text x="712.0" y="434" fill="#374151" font-size="12" text-anchor="middle">目标一 65.80</text><circle cx="814.0" cy="412" r="5" fill="#16a34a"/><text x="814.0" y="434" fill="#374151" font-size="12" text-anchor="middle">目标二 66.07</text>
<text x="72" y="482" fill="#dc2626" font-size="14" font-weight="700">日内做空计划</text><rect x="72" y="490" width="790" height="48" rx="6" fill="#f9fafb" stroke="#e5e7eb"/><line x1="94" y1="498" x2="840" y2="498" stroke="#dc2626" stroke-width="3"/><circle cx="132.0" cy="498" r="5" fill="#dc2626"/><text x="132.0" y="520" fill="#374151" font-size="12" text-anchor="middle">入场 反弹承压/破位回抽</text><circle cx="451.2" cy="498" r="5" fill="#dc2626"/><text x="451.2" y="520" fill="#374151" font-size="12" text-anchor="middle">止损 65.80</text><circle cx="712.0" cy="498" r="5" fill="#dc2626"/><text x="712.0" y="520" fill="#374151" font-size="12" text-anchor="middle">目标一 64.73</text><circle cx="814.0" cy="498" r="5" fill="#dc2626"/><text x="814.0" y="520" fill="#374151" font-size="12" text-anchor="middle">目标二 64.46</text>
</svg>