<svg xmlns="http://www.w3.org/2000/svg" width="1080" height="560" viewBox="0 0 1080 560">
<rect width="100%" height="100%" fill="#ffffff"/>
<text x="72" y="23" fill="#111827" font-size="21" font-weight="800">HYPE 小时线K线支撑压力图</text>
<text x="862" y="42" fill="#374151" font-size="15" text-anchor="end">最新价 68.60</text>
<line x1="72" y1="34" x2="72" y2="340" stroke="#d1d5db"/>
<line x1="72" y1="340" x2="862" y2="340" stroke="#d1d5db"/>
<line x1="72" y1="340.0" x2="862" y2="340.0" stroke="#f3f4f6"/>
<text x="8" y="345.0" fill="#4b5563" font-size="14">60.82</text>
<line x1="72" y1="263.5" x2="862" y2="263.5" stroke="#f3f4f6"/>
<text x="8" y="268.5" fill="#4b5563" font-size="14">63.82</text>
<line x1="72" y1="187.0" x2="862" y2="187.0" stroke="#f3f4f6"/>
<text x="8" y="192.0" fill="#4b5563" font-size="14">66.82</text>
<line x1="72" y1="110.5" x2="862" y2="110.5" stroke="#f3f4f6"/>
<text x="8" y="115.5" fill="#4b5563" font-size="14">69.83</text>
<line x1="72" y1="34.0" x2="862" y2="34.0" stroke="#f3f4f6"/>
<text x="8" y="39.0" fill="#4b5563" font-size="14">72.83</text>
<line x1="72.0" y1="239.3" x2="72.0" y2="280.3" stroke="#dc2626" stroke-width="1"/><rect x="69.3" y="257.3" width="5.4" height="11.3" fill="#dc2626" opacity="0.82" rx="1"/>
<line x1="80.9" y1="237.8" x2="80.9" y2="270.4" stroke="#16a34a" stroke-width="1"/><rect x="78.2" y="243.3" width="5.4" height="25.2" fill="#16a34a" opacity="0.82" rx="1"/>
<line x1="89.8" y1="232.1" x2="89.8" y2="250.5" stroke="#dc2626" stroke-width="1"/><rect x="87.0" y="243.3" width="5.4" height="5.4" fill="#dc2626" opacity="0.82" rx="1"/>
<line x1="98.6" y1="242.7" x2="98.6" y2="258.6" stroke="#dc2626" stroke-width="1"/><rect x="95.9" y="248.4" width="5.4" height="1.2" fill="#dc2626" opacity="0.82" rx="1"/>
<line x1="107.5" y1="238.9" x2="107.5" y2="267.9" stroke="#dc2626" stroke-width="1"/><rect x="104.8" y="249.3" width="5.4" height="13.7" fill="#dc2626" opacity="0.82" rx="1"/>
<line x1="116.4" y1="255.4" x2="116.4" y2="288.6" stroke="#dc2626" stroke-width="1"/><rect x="113.7" y="263.3" width="5.4" height="22.1" fill="#dc2626" opacity="0.82" rx="1"/>
<line x1="125.3" y1="277.2" x2="125.3" y2="313.4" stroke="#dc2626" stroke-width="1"/><rect x="122.5" y="285.7" width="5.4" height="18.5" fill="#dc2626" opacity="0.82" rx="1"/>
<line x1="134.1" y1="264.3" x2="134.1" y2="314.1" stroke="#16a34a" stroke-width="1"/><rect x="131.4" y="274.1" width="5.4" height="30.2" fill="#16a34a" opacity="0.82" rx="1"/>
<line x1="143.0" y1="255.1" x2="143.0" y2="297.1" stroke="#dc2626" stroke-width="1"/><rect x="140.3" y="273.6" width="5.4" height="3.1" fill="#dc2626" opacity="0.82" rx="1"/>
<line x1="151.9" y1="276.7" x2="151.9" y2="302.0" stroke="#dc2626" stroke-width="1"/><rect x="149.2" y="276.7" width="5.4" height="24.4" fill="#dc2626" opacity="0.82" rx="1"/>
<line x1="160.8" y1="295.0" x2="160.8" y2="318.9" stroke="#dc2626" stroke-width="1"/><rect x="158.0" y="301.0" width="5.4" height="2.5" fill="#dc2626" opacity="0.82" rx="1"/>
<line x1="169.6" y1="280.2" x2="169.6" y2="305.8" stroke="#16a34a" stroke-width="1"/><rect x="166.9" y="289.7" width="5.4" height="13.8" fill="#16a34a" opacity="0.82" rx="1"/>
<line x1="178.5" y1="281.1" x2="178.5" y2="299.5" stroke="#16a34a" stroke-width="1"/><rect x="175.8" y="283.5" width="5.4" height="6.1" fill="#16a34a" opacity="0.82" rx="1"/>
<line x1="187.4" y1="267.2" x2="187.4" y2="290.6" stroke="#16a34a" stroke-width="1"/><rect x="184.7" y="268.9" width="5.4" height="14.6" fill="#16a34a" opacity="0.82" rx="1"/>
<line x1="196.3" y1="263.6" x2="196.3" y2="278.3" stroke="#16a34a" stroke-width="1"/><rect x="193.5" y="266.5" width="5.4" height="2.3" fill="#16a34a" opacity="0.82" rx="1"/>
<line x1="205.1" y1="264.1" x2="205.1" y2="276.3" stroke="#dc2626" stroke-width="1"/><rect x="202.4" y="266.6" width="5.4" height="8.4" fill="#dc2626" opacity="0.82" rx="1"/>
<line x1="214.0" y1="264.2" x2="214.0" y2="286.0" stroke="#dc2626" stroke-width="1"/><rect x="211.3" y="274.9" width="5.4" height="3.9" fill="#dc2626" opacity="0.82" rx="1"/>
<line x1="222.9" y1="274.2" x2="222.9" y2="287.8" stroke="#dc2626" stroke-width="1"/><rect x="220.2" y="278.8" width="5.4" height="2.5" fill="#dc2626" opacity="0.82" rx="1"/>
<line x1="231.8" y1="269.0" x2="231.8" y2="284.4" stroke="#16a34a" stroke-width="1"/><rect x="229.1" y="270.4" width="5.4" height="11.5" fill="#16a34a" opacity="0.82" rx="1"/>
<line x1="240.7" y1="256.0" x2="240.7" y2="274.4" stroke="#16a34a" stroke-width="1"/><rect x="237.9" y="261.4" width="5.4" height="8.9" fill="#16a34a" opacity="0.82" rx="1"/>
<line x1="249.5" y1="249.1" x2="249.5" y2="265.3" stroke="#16a34a" stroke-width="1"/><rect x="246.8" y="255.9" width="5.4" height="5.5" fill="#16a34a" opacity="0.82" rx="1"/>
<line x1="258.4" y1="225.7" x2="258.4" y2="256.6" stroke="#16a34a" stroke-width="1"/><rect x="255.7" y="231.0" width="5.4" height="24.7" fill="#16a34a" opacity="0.82" rx="1"/>
<line x1="267.3" y1="219.1" x2="267.3" y2="240.4" stroke="#16a34a" stroke-width="1"/><rect x="264.6" y="230.2" width="5.4" height="1.2" fill="#16a34a" opacity="0.82" rx="1"/>
<line x1="276.2" y1="202.7" x2="276.2" y2="232.1" stroke="#16a34a" stroke-width="1"/><rect x="273.4" y="210.3" width="5.4" height="19.7" fill="#16a34a" opacity="0.82" rx="1"/>
<line x1="285.0" y1="196.3" x2="285.0" y2="232.6" stroke="#dc2626" stroke-width="1"/><rect x="282.3" y="210.2" width="5.4" height="9.1" fill="#dc2626" opacity="0.82" rx="1"/>
<line x1="293.9" y1="216.5" x2="293.9" y2="236.0" stroke="#dc2626" stroke-width="1"/><rect x="291.2" y="219.2" width="5.4" height="5.0" fill="#dc2626" opacity="0.82" rx="1"/>
<line x1="302.8" y1="212.9" x2="302.8" y2="232.9" stroke="#16a34a" stroke-width="1"/><rect x="300.1" y="217.5" width="5.4" height="6.6" fill="#16a34a" opacity="0.82" rx="1"/>
<line x1="311.7" y1="202.3" x2="311.7" y2="222.2" stroke="#16a34a" stroke-width="1"/><rect x="308.9" y="210.0" width="5.4" height="7.5" fill="#16a34a" opacity="0.82" rx="1"/>
<line x1="320.5" y1="178.8" x2="320.5" y2="210.1" stroke="#16a34a" stroke-width="1"/><rect x="317.8" y="187.8" width="5.4" height="22.2" fill="#16a34a" opacity="0.82" rx="1"/>
<line x1="329.4" y1="184.5" x2="329.4" y2="204.4" stroke="#dc2626" stroke-width="1"/><rect x="326.7" y="187.8" width="5.4" height="15.1" fill="#dc2626" opacity="0.82" rx="1"/>
<line x1="338.3" y1="196.3" x2="338.3" y2="205.0" stroke="#16a34a" stroke-width="1"/><rect x="335.6" y="200.7" width="5.4" height="1.8" fill="#16a34a" opacity="0.82" rx="1"/>
<line x1="347.2" y1="199.7" x2="347.2" y2="218.1" stroke="#dc2626" stroke-width="1"/><rect x="344.4" y="200.7" width="5.4" height="9.5" fill="#dc2626" opacity="0.82" rx="1"/>
<line x1="356.0" y1="206.5" x2="356.0" y2="223.0" stroke="#dc2626" stroke-width="1"/><rect x="353.3" y="210.3" width="5.4" height="2.3" fill="#dc2626" opacity="0.82" rx="1"/>
<line x1="364.9" y1="183.2" x2="364.9" y2="216.8" stroke="#16a34a" stroke-width="1"/><rect x="362.2" y="185.1" width="5.4" height="27.5" fill="#16a34a" opacity="0.82" rx="1"/>
<line x1="373.8" y1="182.9" x2="373.8" y2="212.0" stroke="#dc2626" stroke-width="1"/><rect x="371.1" y="185.3" width="5.4" height="22.4" fill="#dc2626" opacity="0.82" rx="1"/>
<line x1="382.7" y1="181.7" x2="382.7" y2="207.9" stroke="#16a34a" stroke-width="1"/><rect x="380.0" y="187.0" width="5.4" height="20.6" fill="#16a34a" opacity="0.82" rx="1"/>
<line x1="391.6" y1="181.4" x2="391.6" y2="198.1" stroke="#dc2626" stroke-width="1"/><rect x="388.8" y="187.0" width="5.4" height="3.6" fill="#dc2626" opacity="0.82" rx="1"/>
<line x1="400.4" y1="187.7" x2="400.4" y2="200.3" stroke="#dc2626" stroke-width="1"/><rect x="397.7" y="190.6" width="5.4" height="1.2" fill="#dc2626" opacity="0.82" rx="1"/>
<line x1="409.3" y1="189.8" x2="409.3" y2="201.8" stroke="#dc2626" stroke-width="1"/><rect x="406.6" y="190.7" width="5.4" height="3.4" fill="#dc2626" opacity="0.82" rx="1"/>
<line x1="418.2" y1="163.8" x2="418.2" y2="195.1" stroke="#16a34a" stroke-width="1"/><rect x="415.5" y="175.1" width="5.4" height="19.0" fill="#16a34a" opacity="0.82" rx="1"/>
<line x1="427.1" y1="168.6" x2="427.1" y2="184.7" stroke="#dc2626" stroke-width="1"/><rect x="424.3" y="175.1" width="5.4" height="2.0" fill="#dc2626" opacity="0.82" rx="1"/>
<line x1="435.9" y1="171.2" x2="435.9" y2="183.9" stroke="#16a34a" stroke-width="1"/><rect x="433.2" y="175.0" width="5.4" height="2.2" fill="#16a34a" opacity="0.82" rx="1"/>
<line x1="444.8" y1="162.9" x2="444.8" y2="175.3" stroke="#16a34a" stroke-width="1"/><rect x="442.1" y="166.3" width="5.4" height="8.7" fill="#16a34a" opacity="0.82" rx="1"/>
<line x1="453.7" y1="144.6" x2="453.7" y2="171.1" stroke="#16a34a" stroke-width="1"/><rect x="451.0" y="165.9" width="5.4" height="1.2" fill="#16a34a" opacity="0.82" rx="1"/>
<line x1="462.6" y1="127.1" x2="462.6" y2="169.4" stroke="#16a34a" stroke-width="1"/><rect x="459.8" y="133.0" width="5.4" height="32.9" fill="#16a34a" opacity="0.82" rx="1"/>
<line x1="471.4" y1="117.4" x2="471.4" y2="135.9" stroke="#16a34a" stroke-width="1"/><rect x="468.7" y="125.3" width="5.4" height="7.6" fill="#16a34a" opacity="0.82" rx="1"/>
<line x1="480.3" y1="120.2" x2="480.3" y2="137.6" stroke="#dc2626" stroke-width="1"/><rect x="477.6" y="124.8" width="5.4" height="5.2" fill="#dc2626" opacity="0.82" rx="1"/>
<line x1="489.2" y1="108.0" x2="489.2" y2="131.5" stroke="#16a34a" stroke-width="1"/><rect x="486.5" y="114.4" width="5.4" height="15.9" fill="#16a34a" opacity="0.82" rx="1"/>
<line x1="498.1" y1="94.8" x2="498.1" y2="130.9" stroke="#16a34a" stroke-width="1"/><rect x="495.3" y="97.8" width="5.4" height="16.6" fill="#16a34a" opacity="0.82" rx="1"/>
<line x1="506.9" y1="87.5" x2="506.9" y2="110.8" stroke="#dc2626" stroke-width="1"/><rect x="504.2" y="97.8" width="5.4" height="10.3" fill="#dc2626" opacity="0.82" rx="1"/>
<line x1="515.8" y1="93.3" x2="515.8" y2="120.9" stroke="#dc2626" stroke-width="1"/><rect x="513.1" y="108.0" width="5.4" height="2.9" fill="#dc2626" opacity="0.82" rx="1"/>
<line x1="524.7" y1="88.3" x2="524.7" y2="116.2" stroke="#16a34a" stroke-width="1"/><rect x="522.0" y="88.3" width="5.4" height="22.6" fill="#16a34a" opacity="0.82" rx="1"/>
<line x1="533.6" y1="87.6" x2="533.6" y2="99.0" stroke="#dc2626" stroke-width="1"/><rect x="530.9" y="88.6" width="5.4" height="5.5" fill="#dc2626" opacity="0.82" rx="1"/>
<line x1="542.4" y1="92.4" x2="542.4" y2="101.6" stroke="#dc2626" stroke-width="1"/><rect x="539.7" y="94.1" width="5.4" height="6.0" fill="#dc2626" opacity="0.82" rx="1"/>
<line x1="551.3" y1="78.1" x2="551.3" y2="101.3" stroke="#16a34a" stroke-width="1"/><rect x="548.6" y="90.6" width="5.4" height="9.5" fill="#16a34a" opacity="0.82" rx="1"/>
<line x1="560.2" y1="73.8" x2="560.2" y2="97.3" stroke="#16a34a" stroke-width="1"/><rect x="557.5" y="84.0" width="5.4" height="6.6" fill="#16a34a" opacity="0.82" rx="1"/>
<line x1="569.1" y1="81.3" x2="569.1" y2="92.1" stroke="#dc2626" stroke-width="1"/><rect x="566.4" y="84.0" width="5.4" height="3.4" fill="#dc2626" opacity="0.82" rx="1"/>
<line x1="578.0" y1="80.2" x2="578.0" y2="99.7" stroke="#dc2626" stroke-width="1"/><rect x="575.2" y="87.5" width="5.4" height="2.4" fill="#dc2626" opacity="0.82" rx="1"/>
<line x1="586.8" y1="71.7" x2="586.8" y2="92.8" stroke="#16a34a" stroke-width="1"/><rect x="584.1" y="76.5" width="5.4" height="13.2" fill="#16a34a" opacity="0.82" rx="1"/>
<line x1="595.7" y1="76.5" x2="595.7" y2="103.0" stroke="#dc2626" stroke-width="1"/><rect x="593.0" y="76.5" width="5.4" height="23.9" fill="#dc2626" opacity="0.82" rx="1"/>
<line x1="604.6" y1="78.2" x2="604.6" y2="107.6" stroke="#16a34a" stroke-width="1"/><rect x="601.9" y="87.6" width="5.4" height="12.8" fill="#16a34a" opacity="0.82" rx="1"/>
<line x1="613.5" y1="64.3" x2="613.5" y2="92.2" stroke="#16a34a" stroke-width="1"/><rect x="610.7" y="72.6" width="5.4" height="15.0" fill="#16a34a" opacity="0.82" rx="1"/>
<line x1="622.3" y1="55.1" x2="622.3" y2="78.3" stroke="#16a34a" stroke-width="1"/><rect x="619.6" y="67.2" width="5.4" height="5.4" fill="#16a34a" opacity="0.82" rx="1"/>
<line x1="631.2" y1="63.0" x2="631.2" y2="80.6" stroke="#dc2626" stroke-width="1"/><rect x="628.5" y="67.2" width="5.4" height="3.0" fill="#dc2626" opacity="0.82" rx="1"/>
<line x1="640.1" y1="63.4" x2="640.1" y2="86.3" stroke="#dc2626" stroke-width="1"/><rect x="637.4" y="70.2" width="5.4" height="4.3" fill="#dc2626" opacity="0.82" rx="1"/>
<line x1="649.0" y1="61.3" x2="649.0" y2="77.9" stroke="#16a34a" stroke-width="1"/><rect x="646.2" y="68.2" width="5.4" height="6.3" fill="#16a34a" opacity="0.82" rx="1"/>
<line x1="657.8" y1="66.6" x2="657.8" y2="80.3" stroke="#dc2626" stroke-width="1"/><rect x="655.1" y="68.4" width="5.4" height="11.2" fill="#dc2626" opacity="0.82" rx="1"/>
<line x1="666.7" y1="74.2" x2="666.7" y2="89.6" stroke="#dc2626" stroke-width="1"/><rect x="664.0" y="79.0" width="5.4" height="3.9" fill="#dc2626" opacity="0.82" rx="1"/>
<line x1="675.6" y1="75.4" x2="675.6" y2="93.9" stroke="#dc2626" stroke-width="1"/><rect x="672.9" y="82.9" width="5.4" height="6.6" fill="#dc2626" opacity="0.82" rx="1"/>
<line x1="684.5" y1="87.1" x2="684.5" y2="96.4" stroke="#dc2626" stroke-width="1"/><rect x="681.8" y="89.6" width="5.4" height="1.5" fill="#dc2626" opacity="0.82" rx="1"/>
<line x1="693.3" y1="77.4" x2="693.3" y2="91.6" stroke="#16a34a" stroke-width="1"/><rect x="690.6" y="85.6" width="5.4" height="5.6" fill="#16a34a" opacity="0.82" rx="1"/>
<line x1="702.2" y1="74.0" x2="702.2" y2="98.3" stroke="#dc2626" stroke-width="1"/><rect x="699.5" y="85.6" width="5.4" height="8.0" fill="#dc2626" opacity="0.82" rx="1"/>
<line x1="711.1" y1="85.0" x2="711.1" y2="96.3" stroke="#16a34a" stroke-width="1"/><rect x="708.4" y="92.9" width="5.4" height="1.2" fill="#16a34a" opacity="0.82" rx="1"/>
<line x1="720.0" y1="75.8" x2="720.0" y2="94.4" stroke="#16a34a" stroke-width="1"/><rect x="717.3" y="90.3" width="5.4" height="2.5" fill="#16a34a" opacity="0.82" rx="1"/>
<line x1="728.9" y1="84.0" x2="728.9" y2="102.0" stroke="#dc2626" stroke-width="1"/><rect x="726.1" y="90.3" width="5.4" height="9.7" fill="#dc2626" opacity="0.82" rx="1"/>
<line x1="737.7" y1="85.7" x2="737.7" y2="106.0" stroke="#16a34a" stroke-width="1"/><rect x="735.0" y="90.3" width="5.4" height="9.8" fill="#16a34a" opacity="0.82" rx="1"/>
<line x1="746.6" y1="89.1" x2="746.6" y2="117.4" stroke="#dc2626" stroke-width="1"/><rect x="743.9" y="90.1" width="5.4" height="23.1" fill="#dc2626" opacity="0.82" rx="1"/>
<line x1="755.5" y1="105.9" x2="755.5" y2="122.5" stroke="#16a34a" stroke-width="1"/><rect x="752.8" y="109.1" width="5.4" height="4.2" fill="#16a34a" opacity="0.82" rx="1"/>
<line x1="764.4" y1="104.4" x2="764.4" y2="118.8" stroke="#dc2626" stroke-width="1"/><rect x="761.6" y="109.1" width="5.4" height="3.3" fill="#dc2626" opacity="0.82" rx="1"/>
<line x1="773.2" y1="99.8" x2="773.2" y2="114.0" stroke="#16a34a" stroke-width="1"/><rect x="770.5" y="103.0" width="5.4" height="9.2" fill="#16a34a" opacity="0.82" rx="1"/>
<line x1="782.1" y1="100.6" x2="782.1" y2="111.4" stroke="#dc2626" stroke-width="1"/><rect x="779.4" y="103.0" width="5.4" height="2.8" fill="#dc2626" opacity="0.82" rx="1"/>
<line x1="791.0" y1="104.2" x2="791.0" y2="115.8" stroke="#dc2626" stroke-width="1"/><rect x="788.3" y="105.6" width="5.4" height="4.5" fill="#dc2626" opacity="0.82" rx="1"/>
<line x1="799.9" y1="109.4" x2="799.9" y2="130.1" stroke="#dc2626" stroke-width="1"/><rect x="797.1" y="110.1" width="5.4" height="13.4" fill="#dc2626" opacity="0.82" rx="1"/>
<line x1="808.7" y1="122.8" x2="808.7" y2="141.8" stroke="#dc2626" stroke-width="1"/><rect x="806.0" y="123.5" width="5.4" height="8.7" fill="#dc2626" opacity="0.82" rx="1"/>
<line x1="817.6" y1="132.3" x2="817.6" y2="151.2" stroke="#dc2626" stroke-width="1"/><rect x="814.9" y="132.3" width="5.4" height="9.9" fill="#dc2626" opacity="0.82" rx="1"/>
<line x1="826.5" y1="138.9" x2="826.5" y2="148.4" stroke="#16a34a" stroke-width="1"/><rect x="823.8" y="140.3" width="5.4" height="1.9" fill="#16a34a" opacity="0.82" rx="1"/>
<line x1="835.4" y1="122.0" x2="835.4" y2="140.3" stroke="#16a34a" stroke-width="1"/><rect x="832.6" y="137.4" width="5.4" height="2.9" fill="#16a34a" opacity="0.82" rx="1"/>
<line x1="844.2" y1="137.6" x2="844.2" y2="151.6" stroke="#dc2626" stroke-width="1"/><rect x="841.5" y="137.6" width="5.4" height="6.5" fill="#dc2626" opacity="0.82" rx="1"/>
<line x1="853.1" y1="138.5" x2="853.1" y2="148.7" stroke="#16a34a" stroke-width="1"/><rect x="850.4" y="141.8" width="5.4" height="2.6" fill="#16a34a" opacity="0.82" rx="1"/>
<line x1="862.0" y1="140.2" x2="862.0" y2="141.8" stroke="#16a34a" stroke-width="1"/><rect x="859.3" y="141.6" width="5.4" height="1.2" fill="#16a34a" opacity="0.82" rx="1"/>
<line x1="72" y1="163.9" x2="862" y2="163.9" stroke="#16a34a" stroke-width="1.8" stroke-dasharray="6 4" /><rect x="874" y="143.9" width="166" height="23" rx="5" fill="#ffffff" stroke="#16a34a" opacity="0.97"/><text x="881" y="159.9" fill="#16a34a" font-size="15" font-weight="700">日内支撑 67.73</text>
<line x1="72" y1="104.4" x2="862" y2="104.4" stroke="#dc2626" stroke-width="1.8" stroke-dasharray="6 4" /><rect x="874" y="84.4" width="166" height="23" rx="5" fill="#ffffff" stroke="#dc2626" opacity="0.97"/><text x="881" y="100.4" fill="#dc2626" font-size="15" font-weight="700">日内压力 70.07</text>
<line x1="72" y1="141.6" x2="862" y2="141.6" stroke="#111827" stroke-width="1.8" stroke-dasharray="2 2" /><rect x="874" y="121.6" width="166" height="23" rx="5" fill="#ffffff" stroke="#111827" opacity="0.97"/><text x="881" y="137.6" fill="#111827" font-size="15" font-weight="700">现价 68.60</text>
<text x="72" y="396" fill="#16a34a" font-size="14" font-weight="700">日内做多计划</text><rect x="72" y="404" width="790" height="48" rx="6" fill="#f9fafb" stroke="#e5e7eb"/><line x1="94" y1="412" x2="840" y2="412" stroke="#16a34a" stroke-width="3"/><circle cx="132.0" cy="412" r="5" fill="#16a34a"/><text x="132.0" y="434" fill="#374151" font-size="12" text-anchor="middle">入场 止跌/突破回踩</text><circle cx="451.2" cy="412" r="5" fill="#16a34a"/><text x="451.2" y="434" fill="#374151" font-size="12" text-anchor="middle">止损 67.73</text><circle cx="712.0" cy="412" r="5" fill="#16a34a"/><text x="712.0" y="434" fill="#374151" font-size="12" text-anchor="middle">目标一 70.07</text><circle cx="814.0" cy="412" r="5" fill="#16a34a"/><text x="814.0" y="434" fill="#374151" font-size="12" text-anchor="middle">目标二 70.65</text>
<text x="72" y="482" fill="#dc2626" font-size="14" font-weight="700">日内做空计划</text><rect x="72" y="490" width="790" height="48" rx="6" fill="#f9fafb" stroke="#e5e7eb"/><line x1="94" y1="498" x2="840" y2="498" stroke="#dc2626" stroke-width="3"/><circle cx="132.0" cy="498" r="5" fill="#dc2626"/><text x="132.0" y="520" fill="#374151" font-size="12" text-anchor="middle">入场 反弹承压/破位回抽</text><circle cx="451.2" cy="498" r="5" fill="#dc2626"/><text x="451.2" y="520" fill="#374151" font-size="12" text-anchor="middle">止损 70.07</text><circle cx="712.0" cy="498" r="5" fill="#dc2626"/><text x="712.0" y="520" fill="#374151" font-size="12" text-anchor="middle">目标一 67.73</text><circle cx="814.0" cy="498" r="5" fill="#dc2626"/><text x="814.0" y="520" fill="#374151" font-size="12" text-anchor="middle">目标二 67.14</text>
</svg>