<svg xmlns="http://www.w3.org/2000/svg" width="1080" height="560" viewBox="0 0 1080 560">
<rect width="100%" height="100%" fill="#ffffff"/>
<text x="72" y="23" fill="#111827" font-size="21" font-weight="800">BTC 小时线K线支撑压力图</text>
<text x="862" y="42" fill="#374151" font-size="15" text-anchor="end">最新价 62,771</text>
<line x1="72" y1="34" x2="72" y2="340" stroke="#d1d5db"/>
<line x1="72" y1="340" x2="862" y2="340" stroke="#d1d5db"/>
<line x1="72" y1="340.0" x2="862" y2="340.0" stroke="#f3f4f6"/>
<text x="8" y="345.0" fill="#4b5563" font-size="14">58,903</text>
<line x1="72" y1="263.5" x2="862" y2="263.5" stroke="#f3f4f6"/>
<text x="8" y="268.5" fill="#4b5563" font-size="14">60,124</text>
<line x1="72" y1="187.0" x2="862" y2="187.0" stroke="#f3f4f6"/>
<text x="8" y="192.0" fill="#4b5563" font-size="14">61,345</text>
<line x1="72" y1="110.5" x2="862" y2="110.5" stroke="#f3f4f6"/>
<text x="8" y="115.5" fill="#4b5563" font-size="14">62,566</text>
<line x1="72" y1="34.0" x2="862" y2="34.0" stroke="#f3f4f6"/>
<text x="8" y="39.0" fill="#4b5563" font-size="14">63,787</text>
<line x1="72.0" y1="267.0" x2="72.0" y2="318.9" stroke="#16a34a" stroke-width="1"/><rect x="69.3" y="301.1" width="5.4" height="3.8" fill="#16a34a" opacity="0.82" rx="1"/>
<line x1="80.9" y1="238.7" x2="80.9" y2="302.8" stroke="#16a34a" stroke-width="1"/><rect x="78.2" y="263.8" width="5.4" height="37.3" fill="#16a34a" opacity="0.82" rx="1"/>
<line x1="89.8" y1="256.0" x2="89.8" y2="281.5" stroke="#dc2626" stroke-width="1"/><rect x="87.0" y="263.8" width="5.4" height="13.5" fill="#dc2626" opacity="0.82" rx="1"/>
<line x1="98.6" y1="257.6" x2="98.6" y2="286.1" stroke="#16a34a" stroke-width="1"/><rect x="95.9" y="260.8" width="5.4" height="16.5" fill="#16a34a" opacity="0.82" rx="1"/>
<line x1="107.5" y1="253.8" x2="107.5" y2="271.7" stroke="#dc2626" stroke-width="1"/><rect x="104.8" y="260.8" width="5.4" height="1.6" fill="#dc2626" opacity="0.82" rx="1"/>
<line x1="116.4" y1="250.4" x2="116.4" y2="274.3" stroke="#dc2626" stroke-width="1"/><rect x="113.7" y="262.4" width="5.4" height="8.9" fill="#dc2626" opacity="0.82" rx="1"/>
<line x1="125.3" y1="260.6" x2="125.3" y2="281.0" stroke="#16a34a" stroke-width="1"/><rect x="122.5" y="265.0" width="5.4" height="6.3" fill="#16a34a" opacity="0.82" rx="1"/>
<line x1="134.1" y1="219.4" x2="134.1" y2="265.5" stroke="#16a34a" stroke-width="1"/><rect x="131.4" y="221.2" width="5.4" height="43.8" fill="#16a34a" opacity="0.82" rx="1"/>
<line x1="143.0" y1="188.4" x2="143.0" y2="251.3" stroke="#dc2626" stroke-width="1"/><rect x="140.3" y="221.2" width="5.4" height="22.2" fill="#dc2626" opacity="0.82" rx="1"/>
<line x1="151.9" y1="243.3" x2="151.9" y2="274.5" stroke="#dc2626" stroke-width="1"/><rect x="149.2" y="243.3" width="5.4" height="28.0" fill="#dc2626" opacity="0.82" rx="1"/>
<line x1="160.8" y1="270.9" x2="160.8" y2="299.2" stroke="#dc2626" stroke-width="1"/><rect x="158.0" y="271.3" width="5.4" height="17.5" fill="#dc2626" opacity="0.82" rx="1"/>
<line x1="169.6" y1="252.6" x2="169.6" y2="290.8" stroke="#16a34a" stroke-width="1"/><rect x="166.9" y="261.9" width="5.4" height="27.0" fill="#16a34a" opacity="0.82" rx="1"/>
<line x1="178.5" y1="242.0" x2="178.5" y2="272.6" stroke="#16a34a" stroke-width="1"/><rect x="175.8" y="246.7" width="5.4" height="15.2" fill="#16a34a" opacity="0.82" rx="1"/>
<line x1="187.4" y1="202.2" x2="187.4" y2="255.0" stroke="#16a34a" stroke-width="1"/><rect x="184.7" y="206.6" width="5.4" height="40.1" fill="#16a34a" opacity="0.82" rx="1"/>
<line x1="196.3" y1="206.5" x2="196.3" y2="227.2" stroke="#dc2626" stroke-width="1"/><rect x="193.5" y="206.6" width="5.4" height="17.2" fill="#dc2626" opacity="0.82" rx="1"/>
<line x1="205.1" y1="217.8" x2="205.1" y2="243.1" stroke="#dc2626" stroke-width="1"/><rect x="202.4" y="223.8" width="5.4" height="17.4" fill="#dc2626" opacity="0.82" rx="1"/>
<line x1="214.0" y1="232.2" x2="214.0" y2="256.7" stroke="#dc2626" stroke-width="1"/><rect x="211.3" y="241.2" width="5.4" height="14.6" fill="#dc2626" opacity="0.82" rx="1"/>
<line x1="222.9" y1="253.2" x2="222.9" y2="266.2" stroke="#dc2626" stroke-width="1"/><rect x="220.2" y="255.8" width="5.4" height="7.6" fill="#dc2626" opacity="0.82" rx="1"/>
<line x1="231.8" y1="237.3" x2="231.8" y2="264.2" stroke="#16a34a" stroke-width="1"/><rect x="229.1" y="240.8" width="5.4" height="22.6" fill="#16a34a" opacity="0.82" rx="1"/>
<line x1="240.7" y1="180.6" x2="240.7" y2="249.8" stroke="#16a34a" stroke-width="1"/><rect x="237.9" y="198.6" width="5.4" height="42.2" fill="#16a34a" opacity="0.82" rx="1"/>
<line x1="249.5" y1="187.9" x2="249.5" y2="207.4" stroke="#16a34a" stroke-width="1"/><rect x="246.8" y="193.7" width="5.4" height="4.9" fill="#16a34a" opacity="0.82" rx="1"/>
<line x1="258.4" y1="185.6" x2="258.4" y2="202.3" stroke="#16a34a" stroke-width="1"/><rect x="255.7" y="188.0" width="5.4" height="5.7" fill="#16a34a" opacity="0.82" rx="1"/>
<line x1="267.3" y1="171.6" x2="267.3" y2="201.7" stroke="#16a34a" stroke-width="1"/><rect x="264.6" y="176.8" width="5.4" height="11.2" fill="#16a34a" opacity="0.82" rx="1"/>
<line x1="276.2" y1="141.1" x2="276.2" y2="179.0" stroke="#16a34a" stroke-width="1"/><rect x="273.4" y="151.4" width="5.4" height="25.5" fill="#16a34a" opacity="0.82" rx="1"/>
<line x1="285.0" y1="134.7" x2="285.0" y2="185.5" stroke="#dc2626" stroke-width="1"/><rect x="282.3" y="151.4" width="5.4" height="15.3" fill="#dc2626" opacity="0.82" rx="1"/>
<line x1="293.9" y1="155.7" x2="293.9" y2="183.6" stroke="#dc2626" stroke-width="1"/><rect x="291.2" y="166.7" width="5.4" height="5.4" fill="#dc2626" opacity="0.82" rx="1"/>
<line x1="302.8" y1="161.3" x2="302.8" y2="201.5" stroke="#16a34a" stroke-width="1"/><rect x="300.1" y="168.1" width="5.4" height="3.9" fill="#16a34a" opacity="0.82" rx="1"/>
<line x1="311.7" y1="152.2" x2="311.7" y2="171.5" stroke="#dc2626" stroke-width="1"/><rect x="308.9" y="168.1" width="5.4" height="1.2" fill="#dc2626" opacity="0.82" rx="1"/>
<line x1="320.5" y1="155.5" x2="320.5" y2="168.9" stroke="#16a34a" stroke-width="1"/><rect x="317.8" y="162.7" width="5.4" height="5.7" fill="#16a34a" opacity="0.82" rx="1"/>
<line x1="329.4" y1="162.3" x2="329.4" y2="184.3" stroke="#dc2626" stroke-width="1"/><rect x="326.7" y="162.7" width="5.4" height="17.6" fill="#dc2626" opacity="0.82" rx="1"/>
<line x1="338.3" y1="172.5" x2="338.3" y2="189.3" stroke="#16a34a" stroke-width="1"/><rect x="335.6" y="173.8" width="5.4" height="6.5" fill="#16a34a" opacity="0.82" rx="1"/>
<line x1="347.2" y1="168.9" x2="347.2" y2="177.3" stroke="#16a34a" stroke-width="1"/><rect x="344.4" y="172.9" width="5.4" height="1.2" fill="#16a34a" opacity="0.82" rx="1"/>
<line x1="356.0" y1="172.9" x2="356.0" y2="184.3" stroke="#dc2626" stroke-width="1"/><rect x="353.3" y="172.9" width="5.4" height="7.9" fill="#dc2626" opacity="0.82" rx="1"/>
<line x1="364.9" y1="171.8" x2="364.9" y2="187.7" stroke="#16a34a" stroke-width="1"/><rect x="362.2" y="174.7" width="5.4" height="6.0" fill="#16a34a" opacity="0.82" rx="1"/>
<line x1="373.8" y1="173.6" x2="373.8" y2="194.3" stroke="#dc2626" stroke-width="1"/><rect x="371.1" y="174.7" width="5.4" height="16.1" fill="#dc2626" opacity="0.82" rx="1"/>
<line x1="382.7" y1="163.0" x2="382.7" y2="192.3" stroke="#16a34a" stroke-width="1"/><rect x="380.0" y="173.1" width="5.4" height="17.7" fill="#16a34a" opacity="0.82" rx="1"/>
<line x1="391.6" y1="168.1" x2="391.6" y2="191.6" stroke="#dc2626" stroke-width="1"/><rect x="388.8" y="173.1" width="5.4" height="9.7" fill="#dc2626" opacity="0.82" rx="1"/>
<line x1="400.4" y1="173.7" x2="400.4" y2="189.8" stroke="#dc2626" stroke-width="1"/><rect x="397.7" y="182.8" width="5.4" height="1.2" fill="#dc2626" opacity="0.82" rx="1"/>
<line x1="409.3" y1="177.0" x2="409.3" y2="189.8" stroke="#16a34a" stroke-width="1"/><rect x="406.6" y="182.3" width="5.4" height="1.2" fill="#16a34a" opacity="0.82" rx="1"/>
<line x1="418.2" y1="159.2" x2="418.2" y2="183.4" stroke="#16a34a" stroke-width="1"/><rect x="415.5" y="166.3" width="5.4" height="15.9" fill="#16a34a" opacity="0.82" rx="1"/>
<line x1="427.1" y1="156.9" x2="427.1" y2="172.0" stroke="#16a34a" stroke-width="1"/><rect x="424.3" y="166.0" width="5.4" height="1.2" fill="#16a34a" opacity="0.82" rx="1"/>
<line x1="435.9" y1="155.4" x2="435.9" y2="168.9" stroke="#16a34a" stroke-width="1"/><rect x="433.2" y="162.6" width="5.4" height="3.3" fill="#16a34a" opacity="0.82" rx="1"/>
<line x1="444.8" y1="153.8" x2="444.8" y2="175.7" stroke="#dc2626" stroke-width="1"/><rect x="442.1" y="162.6" width="5.4" height="11.3" fill="#dc2626" opacity="0.82" rx="1"/>
<line x1="453.7" y1="161.0" x2="453.7" y2="178.5" stroke="#16a34a" stroke-width="1"/><rect x="451.0" y="165.6" width="5.4" height="8.3" fill="#16a34a" opacity="0.82" rx="1"/>
<line x1="462.6" y1="144.8" x2="462.6" y2="168.5" stroke="#16a34a" stroke-width="1"/><rect x="459.8" y="153.1" width="5.4" height="12.5" fill="#16a34a" opacity="0.82" rx="1"/>
<line x1="471.4" y1="141.0" x2="471.4" y2="158.0" stroke="#16a34a" stroke-width="1"/><rect x="468.7" y="146.4" width="5.4" height="6.7" fill="#16a34a" opacity="0.82" rx="1"/>
<line x1="480.3" y1="136.6" x2="480.3" y2="155.9" stroke="#dc2626" stroke-width="1"/><rect x="477.6" y="146.4" width="5.4" height="2.5" fill="#dc2626" opacity="0.82" rx="1"/>
<line x1="489.2" y1="128.9" x2="489.2" y2="151.6" stroke="#16a34a" stroke-width="1"/><rect x="486.5" y="140.7" width="5.4" height="8.2" fill="#16a34a" opacity="0.82" rx="1"/>
<line x1="498.1" y1="129.9" x2="498.1" y2="167.7" stroke="#16a34a" stroke-width="1"/><rect x="495.3" y="137.0" width="5.4" height="3.7" fill="#16a34a" opacity="0.82" rx="1"/>
<line x1="506.9" y1="121.7" x2="506.9" y2="159.9" stroke="#dc2626" stroke-width="1"/><rect x="504.2" y="137.0" width="5.4" height="15.5" fill="#dc2626" opacity="0.82" rx="1"/>
<line x1="515.8" y1="139.5" x2="515.8" y2="153.6" stroke="#16a34a" stroke-width="1"/><rect x="513.1" y="140.8" width="5.4" height="11.7" fill="#16a34a" opacity="0.82" rx="1"/>
<line x1="524.7" y1="129.2" x2="524.7" y2="143.7" stroke="#16a34a" stroke-width="1"/><rect x="522.0" y="135.2" width="5.4" height="5.6" fill="#16a34a" opacity="0.82" rx="1"/>
<line x1="533.6" y1="131.9" x2="533.6" y2="140.5" stroke="#16a34a" stroke-width="1"/><rect x="530.9" y="134.7" width="5.4" height="1.2" fill="#16a34a" opacity="0.82" rx="1"/>
<line x1="542.4" y1="127.6" x2="542.4" y2="138.4" stroke="#dc2626" stroke-width="1"/><rect x="539.7" y="134.7" width="5.4" height="1.2" fill="#dc2626" opacity="0.82" rx="1"/>
<line x1="551.3" y1="89.7" x2="551.3" y2="136.5" stroke="#16a34a" stroke-width="1"/><rect x="548.6" y="98.4" width="5.4" height="36.4" fill="#16a34a" opacity="0.82" rx="1"/>
<line x1="560.2" y1="86.0" x2="560.2" y2="115.3" stroke="#dc2626" stroke-width="1"/><rect x="557.5" y="98.4" width="5.4" height="3.3" fill="#dc2626" opacity="0.82" rx="1"/>
<line x1="569.1" y1="100.5" x2="569.1" y2="113.8" stroke="#dc2626" stroke-width="1"/><rect x="566.4" y="101.7" width="5.4" height="9.9" fill="#dc2626" opacity="0.82" rx="1"/>
<line x1="578.0" y1="102.8" x2="578.0" y2="114.2" stroke="#16a34a" stroke-width="1"/><rect x="575.2" y="110.5" width="5.4" height="1.2" fill="#16a34a" opacity="0.82" rx="1"/>
<line x1="586.8" y1="88.0" x2="586.8" y2="110.8" stroke="#16a34a" stroke-width="1"/><rect x="584.1" y="99.9" width="5.4" height="10.6" fill="#16a34a" opacity="0.82" rx="1"/>
<line x1="595.7" y1="99.9" x2="595.7" y2="122.0" stroke="#dc2626" stroke-width="1"/><rect x="593.0" y="99.9" width="5.4" height="17.9" fill="#dc2626" opacity="0.82" rx="1"/>
<line x1="604.6" y1="111.1" x2="604.6" y2="120.6" stroke="#16a34a" stroke-width="1"/><rect x="601.9" y="113.8" width="5.4" height="4.0" fill="#16a34a" opacity="0.82" rx="1"/>
<line x1="613.5" y1="99.9" x2="613.5" y2="117.1" stroke="#16a34a" stroke-width="1"/><rect x="610.7" y="107.8" width="5.4" height="6.0" fill="#16a34a" opacity="0.82" rx="1"/>
<line x1="622.3" y1="99.9" x2="622.3" y2="110.3" stroke="#16a34a" stroke-width="1"/><rect x="619.6" y="104.5" width="5.4" height="3.3" fill="#16a34a" opacity="0.82" rx="1"/>
<line x1="631.2" y1="104.5" x2="631.2" y2="121.2" stroke="#dc2626" stroke-width="1"/><rect x="628.5" y="104.5" width="5.4" height="13.5" fill="#dc2626" opacity="0.82" rx="1"/>
<line x1="640.1" y1="112.2" x2="640.1" y2="127.0" stroke="#16a34a" stroke-width="1"/><rect x="637.4" y="116.3" width="5.4" height="1.7" fill="#16a34a" opacity="0.82" rx="1"/>
<line x1="649.0" y1="107.6" x2="649.0" y2="118.3" stroke="#16a34a" stroke-width="1"/><rect x="646.2" y="111.6" width="5.4" height="4.8" fill="#16a34a" opacity="0.82" rx="1"/>
<line x1="657.8" y1="105.0" x2="657.8" y2="115.6" stroke="#dc2626" stroke-width="1"/><rect x="655.1" y="111.6" width="5.4" height="1.3" fill="#dc2626" opacity="0.82" rx="1"/>
<line x1="666.7" y1="110.9" x2="666.7" y2="121.8" stroke="#dc2626" stroke-width="1"/><rect x="664.0" y="112.9" width="5.4" height="3.9" fill="#dc2626" opacity="0.82" rx="1"/>
<line x1="675.6" y1="113.4" x2="675.6" y2="119.7" stroke="#16a34a" stroke-width="1"/><rect x="672.9" y="115.6" width="5.4" height="1.2" fill="#16a34a" opacity="0.82" rx="1"/>
<line x1="684.5" y1="111.8" x2="684.5" y2="119.0" stroke="#dc2626" stroke-width="1"/><rect x="681.8" y="115.6" width="5.4" height="1.6" fill="#dc2626" opacity="0.82" rx="1"/>
<line x1="693.3" y1="103.9" x2="693.3" y2="117.2" stroke="#16a34a" stroke-width="1"/><rect x="690.6" y="106.2" width="5.4" height="11.0" fill="#16a34a" opacity="0.82" rx="1"/>
<line x1="702.2" y1="98.6" x2="702.2" y2="114.0" stroke="#dc2626" stroke-width="1"/><rect x="699.5" y="106.2" width="5.4" height="4.4" fill="#dc2626" opacity="0.82" rx="1"/>
<line x1="711.1" y1="100.9" x2="711.1" y2="110.7" stroke="#16a34a" stroke-width="1"/><rect x="708.4" y="103.9" width="5.4" height="6.8" fill="#16a34a" opacity="0.82" rx="1"/>
<line x1="720.0" y1="78.9" x2="720.0" y2="104.2" stroke="#16a34a" stroke-width="1"/><rect x="717.3" y="89.0" width="5.4" height="14.8" fill="#16a34a" opacity="0.82" rx="1"/>
<line x1="728.9" y1="86.9" x2="728.9" y2="98.8" stroke="#dc2626" stroke-width="1"/><rect x="726.1" y="89.0" width="5.4" height="1.2" fill="#dc2626" opacity="0.82" rx="1"/>
<line x1="737.7" y1="57.0" x2="737.7" y2="97.7" stroke="#16a34a" stroke-width="1"/><rect x="735.0" y="67.9" width="5.4" height="22.0" fill="#16a34a" opacity="0.82" rx="1"/>
<line x1="746.6" y1="62.9" x2="746.6" y2="78.9" stroke="#dc2626" stroke-width="1"/><rect x="743.9" y="67.9" width="5.4" height="6.8" fill="#dc2626" opacity="0.82" rx="1"/>
<line x1="755.5" y1="55.1" x2="755.5" y2="77.7" stroke="#16a34a" stroke-width="1"/><rect x="752.8" y="66.5" width="5.4" height="8.2" fill="#16a34a" opacity="0.82" rx="1"/>
<line x1="764.4" y1="60.3" x2="764.4" y2="75.3" stroke="#dc2626" stroke-width="1"/><rect x="761.6" y="66.5" width="5.4" height="3.7" fill="#dc2626" opacity="0.82" rx="1"/>
<line x1="773.2" y1="56.4" x2="773.2" y2="72.5" stroke="#16a34a" stroke-width="1"/><rect x="770.5" y="66.1" width="5.4" height="4.1" fill="#16a34a" opacity="0.82" rx="1"/>
<line x1="782.1" y1="65.4" x2="782.1" y2="75.2" stroke="#dc2626" stroke-width="1"/><rect x="779.4" y="66.1" width="5.4" height="6.7" fill="#dc2626" opacity="0.82" rx="1"/>
<line x1="791.0" y1="69.8" x2="791.0" y2="89.4" stroke="#dc2626" stroke-width="1"/><rect x="788.3" y="72.8" width="5.4" height="3.3" fill="#dc2626" opacity="0.82" rx="1"/>
<line x1="799.9" y1="76.1" x2="799.9" y2="94.3" stroke="#dc2626" stroke-width="1"/><rect x="797.1" y="76.1" width="5.4" height="9.5" fill="#dc2626" opacity="0.82" rx="1"/>
<line x1="808.7" y1="81.9" x2="808.7" y2="98.2" stroke="#dc2626" stroke-width="1"/><rect x="806.0" y="85.6" width="5.4" height="6.4" fill="#dc2626" opacity="0.82" rx="1"/>
<line x1="817.6" y1="89.4" x2="817.6" y2="111.5" stroke="#dc2626" stroke-width="1"/><rect x="814.9" y="92.1" width="5.4" height="11.7" fill="#dc2626" opacity="0.82" rx="1"/>
<line x1="826.5" y1="98.0" x2="826.5" y2="106.7" stroke="#16a34a" stroke-width="1"/><rect x="823.8" y="99.6" width="5.4" height="4.1" fill="#16a34a" opacity="0.82" rx="1"/>
<line x1="835.4" y1="87.8" x2="835.4" y2="103.3" stroke="#16a34a" stroke-width="1"/><rect x="832.6" y="96.6" width="5.4" height="3.0" fill="#16a34a" opacity="0.82" rx="1"/>
<line x1="844.2" y1="96.6" x2="844.2" y2="106.6" stroke="#dc2626" stroke-width="1"/><rect x="841.5" y="96.6" width="5.4" height="4.4" fill="#dc2626" opacity="0.82" rx="1"/>
<line x1="853.1" y1="95.8" x2="853.1" y2="105.6" stroke="#16a34a" stroke-width="1"/><rect x="850.4" y="99.0" width="5.4" height="2.1" fill="#16a34a" opacity="0.82" rx="1"/>
<line x1="862.0" y1="97.4" x2="862.0" y2="99.0" stroke="#16a34a" stroke-width="1"/><rect x="859.3" y="97.6" width="5.4" height="1.4" fill="#16a34a" opacity="0.82" rx="1"/>
<line x1="72" y1="119.2" x2="862" y2="119.2" stroke="#16a34a" stroke-width="1.8" stroke-dasharray="6 4" /><rect x="874" y="99.2" width="166" height="23" rx="5" fill="#ffffff" stroke="#16a34a" opacity="0.97"/><text x="881" y="115.2" fill="#16a34a" font-size="15" font-weight="700">日内支撑 62,427</text>
<line x1="72" y1="61.7" x2="862" y2="61.7" stroke="#dc2626" stroke-width="1.8" stroke-dasharray="6 4" /><rect x="874" y="41.7" width="166" height="23" rx="5" fill="#ffffff" stroke="#dc2626" opacity="0.97"/><text x="881" y="57.7" fill="#dc2626" font-size="15" font-weight="700">日内压力 63,345</text>
<line x1="72" y1="97.6" x2="862" y2="97.6" stroke="#111827" stroke-width="1.8" stroke-dasharray="2 2" /><rect x="874" y="77.6" width="166" height="23" rx="5" fill="#ffffff" stroke="#111827" opacity="0.97"/><text x="881" y="93.6" fill="#111827" font-size="15" font-weight="700">现价 62,771</text>
<text x="72" y="396" fill="#16a34a" font-size="14" font-weight="700">日内做多计划</text><rect x="72" y="404" width="790" height="48" rx="6" fill="#f9fafb" stroke="#e5e7eb"/><line x1="94" y1="412" x2="840" y2="412" stroke="#16a34a" stroke-width="3"/><circle cx="132.0" cy="412" r="5" fill="#16a34a"/><text x="132.0" y="434" fill="#374151" font-size="12" text-anchor="middle">入场 止跌/突破回踩</text><circle cx="451.2" cy="412" r="5" fill="#16a34a"/><text x="451.2" y="434" fill="#374151" font-size="12" text-anchor="middle">止损 62,427</text><circle cx="712.0" cy="412" r="5" fill="#16a34a"/><text x="712.0" y="434" fill="#374151" font-size="12" text-anchor="middle">目标一 63,345</text><circle cx="814.0" cy="412" r="5" fill="#16a34a"/><text x="814.0" y="434" fill="#374151" font-size="12" text-anchor="middle">目标二 63,575</text>
<text x="72" y="482" fill="#dc2626" font-size="14" font-weight="700">日内做空计划</text><rect x="72" y="490" width="790" height="48" rx="6" fill="#f9fafb" stroke="#e5e7eb"/><line x1="94" y1="498" x2="840" y2="498" stroke="#dc2626" stroke-width="3"/><circle cx="132.0" cy="498" r="5" fill="#dc2626"/><text x="132.0" y="520" fill="#374151" font-size="12" text-anchor="middle">入场 反弹承压/破位回抽</text><circle cx="451.2" cy="498" r="5" fill="#dc2626"/><text x="451.2" y="520" fill="#374151" font-size="12" text-anchor="middle">止损 63,345</text><circle cx="712.0" cy="498" r="5" fill="#dc2626"/><text x="712.0" y="520" fill="#374151" font-size="12" text-anchor="middle">目标一 62,427</text><circle cx="814.0" cy="498" r="5" fill="#dc2626"/><text x="814.0" y="520" fill="#374151" font-size="12" text-anchor="middle">目标二 62,198</text>
</svg>