<svg xmlns="http://www.w3.org/2000/svg" width="1080" height="560" viewBox="0 0 1080 560">
<rect width="100%" height="100%" fill="#ffffff"/>
<text x="72" y="23" fill="#111827" font-size="21" font-weight="800">HYPE 日线K线支撑压力图</text>
<text x="862" y="42" fill="#374151" font-size="15" text-anchor="end">最新价 69.63</text>
<line x1="72" y1="34" x2="72" y2="340" stroke="#d1d5db"/>
<line x1="72" y1="340" x2="862" y2="340" stroke="#d1d5db"/>
<line x1="72" y1="340.0" x2="862" y2="340.0" stroke="#f3f4f6"/>
<text x="8" y="345.0" fill="#4b5563" font-size="14">32.13</text>
<line x1="72" y1="263.5" x2="862" y2="263.5" stroke="#f3f4f6"/>
<text x="8" y="268.5" fill="#4b5563" font-size="14">45.13</text>
<line x1="72" y1="187.0" x2="862" y2="187.0" stroke="#f3f4f6"/>
<text x="8" y="192.0" fill="#4b5563" font-size="14">58.13</text>
<line x1="72" y1="110.5" x2="862" y2="110.5" stroke="#f3f4f6"/>
<text x="8" y="115.5" fill="#4b5563" font-size="14">71.14</text>
<line x1="72" y1="34.0" x2="862" y2="34.0" stroke="#f3f4f6"/>
<text x="8" y="39.0" fill="#4b5563" font-size="14">84.14</text>
<line x1="72.0" y1="298.6" x2="72.0" y2="318.9" stroke="#16a34a" stroke-width="1"/><rect x="69.3" y="301.9" width="5.4" height="13.6" fill="#16a34a" opacity="0.82" rx="1"/>
<line x1="80.9" y1="294.9" x2="80.9" y2="306.9" stroke="#16a34a" stroke-width="1"/><rect x="78.2" y="301.0" width="5.4" height="1.2" fill="#16a34a" opacity="0.82" rx="1"/>
<line x1="89.8" y1="291.3" x2="89.8" y2="304.6" stroke="#16a34a" stroke-width="1"/><rect x="87.0" y="296.9" width="5.4" height="4.1" fill="#16a34a" opacity="0.82" rx="1"/>
<line x1="98.6" y1="280.5" x2="98.6" y2="297.1" stroke="#16a34a" stroke-width="1"/><rect x="95.9" y="284.3" width="5.4" height="12.5" fill="#16a34a" opacity="0.82" rx="1"/>
<line x1="107.5" y1="275.0" x2="107.5" y2="285.0" stroke="#16a34a" stroke-width="1"/><rect x="104.8" y="280.3" width="5.4" height="4.0" fill="#16a34a" opacity="0.82" rx="1"/>
<line x1="116.4" y1="277.1" x2="116.4" y2="292.6" stroke="#dc2626" stroke-width="1"/><rect x="113.7" y="280.3" width="5.4" height="8.4" fill="#dc2626" opacity="0.82" rx="1"/>
<line x1="125.3" y1="266.5" x2="125.3" y2="289.1" stroke="#16a34a" stroke-width="1"/><rect x="122.5" y="268.2" width="5.4" height="20.5" fill="#16a34a" opacity="0.82" rx="1"/>
<line x1="134.1" y1="262.3" x2="134.1" y2="276.5" stroke="#dc2626" stroke-width="1"/><rect x="131.4" y="268.2" width="5.4" height="4.7" fill="#dc2626" opacity="0.82" rx="1"/>
<line x1="143.0" y1="261.6" x2="143.0" y2="275.3" stroke="#16a34a" stroke-width="1"/><rect x="140.3" y="266.4" width="5.4" height="6.5" fill="#16a34a" opacity="0.82" rx="1"/>
<line x1="151.9" y1="259.8" x2="151.9" y2="274.2" stroke="#dc2626" stroke-width="1"/><rect x="149.2" y="266.4" width="5.4" height="4.9" fill="#dc2626" opacity="0.82" rx="1"/>
<line x1="160.8" y1="261.3" x2="160.8" y2="275.0" stroke="#16a34a" stroke-width="1"/><rect x="158.0" y="266.5" width="5.4" height="4.8" fill="#16a34a" opacity="0.82" rx="1"/>
<line x1="169.6" y1="261.6" x2="169.6" y2="271.8" stroke="#dc2626" stroke-width="1"/><rect x="166.9" y="266.5" width="5.4" height="4.9" fill="#dc2626" opacity="0.82" rx="1"/>
<line x1="178.5" y1="270.5" x2="178.5" y2="290.7" stroke="#dc2626" stroke-width="1"/><rect x="175.8" y="271.4" width="5.4" height="18.2" fill="#dc2626" opacity="0.82" rx="1"/>
<line x1="187.4" y1="283.2" x2="187.4" y2="290.4" stroke="#16a34a" stroke-width="1"/><rect x="184.7" y="289.5" width="5.4" height="1.2" fill="#16a34a" opacity="0.82" rx="1"/>
<line x1="196.3" y1="285.3" x2="196.3" y2="300.2" stroke="#dc2626" stroke-width="1"/><rect x="193.5" y="289.6" width="5.4" height="5.5" fill="#dc2626" opacity="0.82" rx="1"/>
<line x1="205.1" y1="283.4" x2="205.1" y2="295.9" stroke="#16a34a" stroke-width="1"/><rect x="202.4" y="286.9" width="5.4" height="8.2" fill="#16a34a" opacity="0.82" rx="1"/>
<line x1="214.0" y1="282.7" x2="214.0" y2="290.6" stroke="#16a34a" stroke-width="1"/><rect x="211.3" y="286.0" width="5.4" height="1.2" fill="#16a34a" opacity="0.82" rx="1"/>
<line x1="222.9" y1="284.6" x2="222.9" y2="289.7" stroke="#dc2626" stroke-width="1"/><rect x="220.2" y="286.0" width="5.4" height="1.2" fill="#dc2626" opacity="0.82" rx="1"/>
<line x1="231.8" y1="282.5" x2="231.8" y2="288.8" stroke="#16a34a" stroke-width="1"/><rect x="229.1" y="284.8" width="5.4" height="1.9" fill="#16a34a" opacity="0.82" rx="1"/>
<line x1="240.7" y1="278.3" x2="240.7" y2="288.1" stroke="#16a34a" stroke-width="1"/><rect x="237.9" y="279.2" width="5.4" height="5.6" fill="#16a34a" opacity="0.82" rx="1"/>
<line x1="249.5" y1="272.7" x2="249.5" y2="286.2" stroke="#dc2626" stroke-width="1"/><rect x="246.8" y="279.2" width="5.4" height="4.8" fill="#dc2626" opacity="0.82" rx="1"/>
<line x1="258.4" y1="282.9" x2="258.4" y2="297.3" stroke="#dc2626" stroke-width="1"/><rect x="255.7" y="284.0" width="5.4" height="8.7" fill="#dc2626" opacity="0.82" rx="1"/>
<line x1="267.3" y1="289.0" x2="267.3" y2="298.6" stroke="#dc2626" stroke-width="1"/><rect x="264.6" y="292.7" width="5.4" height="1.3" fill="#dc2626" opacity="0.82" rx="1"/>
<line x1="276.2" y1="291.7" x2="276.2" y2="301.3" stroke="#dc2626" stroke-width="1"/><rect x="273.4" y="294.1" width="5.4" height="1.4" fill="#dc2626" opacity="0.82" rx="1"/>
<line x1="285.0" y1="287.0" x2="285.0" y2="295.6" stroke="#16a34a" stroke-width="1"/><rect x="282.3" y="287.0" width="5.4" height="8.5" fill="#16a34a" opacity="0.82" rx="1"/>
<line x1="293.9" y1="279.3" x2="293.9" y2="287.9" stroke="#16a34a" stroke-width="1"/><rect x="291.2" y="286.3" width="5.4" height="1.2" fill="#16a34a" opacity="0.82" rx="1"/>
<line x1="302.8" y1="283.5" x2="302.8" y2="289.7" stroke="#16a34a" stroke-width="1"/><rect x="300.1" y="284.6" width="5.4" height="1.8" fill="#16a34a" opacity="0.82" rx="1"/>
<line x1="311.7" y1="278.4" x2="311.7" y2="288.9" stroke="#16a34a" stroke-width="1"/><rect x="308.9" y="283.0" width="5.4" height="1.5" fill="#16a34a" opacity="0.82" rx="1"/>
<line x1="320.5" y1="266.4" x2="320.5" y2="283.3" stroke="#16a34a" stroke-width="1"/><rect x="317.8" y="271.9" width="5.4" height="11.1" fill="#16a34a" opacity="0.82" rx="1"/>
<line x1="329.4" y1="265.7" x2="329.4" y2="276.6" stroke="#dc2626" stroke-width="1"/><rect x="326.7" y="271.9" width="5.4" height="3.4" fill="#dc2626" opacity="0.82" rx="1"/>
<line x1="338.3" y1="272.8" x2="338.3" y2="282.8" stroke="#dc2626" stroke-width="1"/><rect x="335.6" y="275.3" width="5.4" height="3.6" fill="#dc2626" opacity="0.82" rx="1"/>
<line x1="347.2" y1="273.1" x2="347.2" y2="281.7" stroke="#16a34a" stroke-width="1"/><rect x="344.4" y="274.5" width="5.4" height="4.4" fill="#16a34a" opacity="0.82" rx="1"/>
<line x1="356.0" y1="267.7" x2="356.0" y2="277.0" stroke="#dc2626" stroke-width="1"/><rect x="353.3" y="274.5" width="5.4" height="2.1" fill="#dc2626" opacity="0.82" rx="1"/>
<line x1="364.9" y1="271.9" x2="364.9" y2="281.2" stroke="#16a34a" stroke-width="1"/><rect x="362.2" y="276.0" width="5.4" height="1.2" fill="#16a34a" opacity="0.82" rx="1"/>
<line x1="373.8" y1="275.1" x2="373.8" y2="288.8" stroke="#dc2626" stroke-width="1"/><rect x="371.1" y="275.9" width="5.4" height="6.0" fill="#dc2626" opacity="0.82" rx="1"/>
<line x1="382.7" y1="281.6" x2="382.7" y2="295.0" stroke="#dc2626" stroke-width="1"/><rect x="380.0" y="281.9" width="5.4" height="10.3" fill="#dc2626" opacity="0.82" rx="1"/>
<line x1="391.6" y1="289.5" x2="391.6" y2="301.2" stroke="#dc2626" stroke-width="1"/><rect x="388.8" y="292.2" width="5.4" height="8.4" fill="#dc2626" opacity="0.82" rx="1"/>
<line x1="400.4" y1="265.7" x2="400.4" y2="304.5" stroke="#16a34a" stroke-width="1"/><rect x="397.7" y="269.4" width="5.4" height="31.3" fill="#16a34a" opacity="0.82" rx="1"/>
<line x1="409.3" y1="252.2" x2="409.3" y2="277.2" stroke="#16a34a" stroke-width="1"/><rect x="406.6" y="269.2" width="5.4" height="1.2" fill="#16a34a" opacity="0.82" rx="1"/>
<line x1="418.2" y1="267.3" x2="418.2" y2="291.5" stroke="#dc2626" stroke-width="1"/><rect x="415.5" y="269.2" width="5.4" height="13.7" fill="#dc2626" opacity="0.82" rx="1"/>
<line x1="427.1" y1="251.6" x2="427.1" y2="285.8" stroke="#16a34a" stroke-width="1"/><rect x="424.3" y="260.2" width="5.4" height="22.7" fill="#16a34a" opacity="0.82" rx="1"/>
<line x1="435.9" y1="246.6" x2="435.9" y2="269.0" stroke="#16a34a" stroke-width="1"/><rect x="433.2" y="248.0" width="5.4" height="12.2" fill="#16a34a" opacity="0.82" rx="1"/>
<line x1="444.8" y1="241.4" x2="444.8" y2="253.7" stroke="#16a34a" stroke-width="1"/><rect x="442.1" y="246.6" width="5.4" height="1.5" fill="#16a34a" opacity="0.82" rx="1"/>
<line x1="453.7" y1="206.4" x2="453.7" y2="252.0" stroke="#16a34a" stroke-width="1"/><rect x="451.0" y="206.4" width="5.4" height="40.2" fill="#16a34a" opacity="0.82" rx="1"/>
<line x1="462.6" y1="160.8" x2="462.6" y2="207.1" stroke="#16a34a" stroke-width="1"/><rect x="459.8" y="184.4" width="5.4" height="22.1" fill="#16a34a" opacity="0.82" rx="1"/>
<line x1="471.4" y1="164.5" x2="471.4" y2="209.7" stroke="#dc2626" stroke-width="1"/><rect x="468.7" y="184.4" width="5.4" height="23.5" fill="#dc2626" opacity="0.82" rx="1"/>
<line x1="480.3" y1="176.6" x2="480.3" y2="211.3" stroke="#16a34a" stroke-width="1"/><rect x="477.6" y="183.6" width="5.4" height="24.3" fill="#16a34a" opacity="0.82" rx="1"/>
<line x1="489.2" y1="149.5" x2="489.2" y2="184.2" stroke="#16a34a" stroke-width="1"/><rect x="486.5" y="159.9" width="5.4" height="23.8" fill="#16a34a" opacity="0.82" rx="1"/>
<line x1="498.1" y1="153.1" x2="498.1" y2="171.8" stroke="#dc2626" stroke-width="1"/><rect x="495.3" y="159.8" width="5.4" height="9.8" fill="#dc2626" opacity="0.82" rx="1"/>
<line x1="506.9" y1="148.1" x2="506.9" y2="184.6" stroke="#dc2626" stroke-width="1"/><rect x="504.2" y="169.6" width="5.4" height="9.3" fill="#dc2626" opacity="0.82" rx="1"/>
<line x1="515.8" y1="156.5" x2="515.8" y2="193.3" stroke="#dc2626" stroke-width="1"/><rect x="513.1" y="178.9" width="5.4" height="11.1" fill="#dc2626" opacity="0.82" rx="1"/>
<line x1="524.7" y1="163.5" x2="524.7" y2="198.1" stroke="#16a34a" stroke-width="1"/><rect x="522.0" y="167.1" width="5.4" height="23.0" fill="#16a34a" opacity="0.82" rx="1"/>
<line x1="533.6" y1="132.4" x2="533.6" y2="174.1" stroke="#16a34a" stroke-width="1"/><rect x="530.9" y="150.1" width="5.4" height="17.0" fill="#16a34a" opacity="0.82" rx="1"/>
<line x1="542.4" y1="125.2" x2="542.4" y2="152.5" stroke="#16a34a" stroke-width="1"/><rect x="539.7" y="127.2" width="5.4" height="22.9" fill="#16a34a" opacity="0.82" rx="1"/>
<line x1="551.3" y1="98.9" x2="551.3" y2="132.1" stroke="#16a34a" stroke-width="1"/><rect x="548.6" y="105.1" width="5.4" height="22.1" fill="#16a34a" opacity="0.82" rx="1"/>
<line x1="560.2" y1="82.9" x2="560.2" y2="114.7" stroke="#16a34a" stroke-width="1"/><rect x="557.5" y="96.1" width="5.4" height="8.7" fill="#16a34a" opacity="0.82" rx="1"/>
<line x1="569.1" y1="84.0" x2="569.1" y2="129.9" stroke="#dc2626" stroke-width="1"/><rect x="566.4" y="96.1" width="5.4" height="22.1" fill="#dc2626" opacity="0.82" rx="1"/>
<line x1="578.0" y1="84.2" x2="578.0" y2="127.3" stroke="#16a34a" stroke-width="1"/><rect x="575.2" y="90.3" width="5.4" height="27.9" fill="#16a34a" opacity="0.82" rx="1"/>
<line x1="586.8" y1="84.8" x2="586.8" y2="158.4" stroke="#dc2626" stroke-width="1"/><rect x="584.1" y="90.3" width="5.4" height="59.7" fill="#dc2626" opacity="0.82" rx="1"/>
<line x1="595.7" y1="140.5" x2="595.7" y2="195.5" stroke="#dc2626" stroke-width="1"/><rect x="593.0" y="150.0" width="5.4" height="27.1" fill="#dc2626" opacity="0.82" rx="1"/>
<line x1="604.6" y1="168.8" x2="604.6" y2="202.6" stroke="#dc2626" stroke-width="1"/><rect x="601.9" y="177.1" width="5.4" height="19.4" fill="#dc2626" opacity="0.82" rx="1"/>
<line x1="613.5" y1="173.4" x2="613.5" y2="198.9" stroke="#16a34a" stroke-width="1"/><rect x="610.7" y="177.5" width="5.4" height="19.0" fill="#16a34a" opacity="0.82" rx="1"/>
<line x1="622.3" y1="141.9" x2="622.3" y2="180.1" stroke="#16a34a" stroke-width="1"/><rect x="619.6" y="153.4" width="5.4" height="24.1" fill="#16a34a" opacity="0.82" rx="1"/>
<line x1="631.2" y1="152.3" x2="631.2" y2="191.9" stroke="#dc2626" stroke-width="1"/><rect x="628.5" y="153.4" width="5.4" height="35.8" fill="#dc2626" opacity="0.82" rx="1"/>
<line x1="640.1" y1="185.7" x2="640.1" y2="219.5" stroke="#dc2626" stroke-width="1"/><rect x="637.4" y="189.1" width="5.4" height="26.5" fill="#dc2626" opacity="0.82" rx="1"/>
<line x1="649.0" y1="178.1" x2="649.0" y2="218.1" stroke="#16a34a" stroke-width="1"/><rect x="646.2" y="182.3" width="5.4" height="33.2" fill="#16a34a" opacity="0.82" rx="1"/>
<line x1="657.8" y1="161.8" x2="657.8" y2="195.0" stroke="#16a34a" stroke-width="1"/><rect x="655.1" y="180.4" width="5.4" height="2.0" fill="#16a34a" opacity="0.82" rx="1"/>
<line x1="666.7" y1="170.8" x2="666.7" y2="192.7" stroke="#16a34a" stroke-width="1"/><rect x="664.0" y="171.9" width="5.4" height="8.5" fill="#16a34a" opacity="0.82" rx="1"/>
<line x1="675.6" y1="151.7" x2="675.6" y2="178.4" stroke="#16a34a" stroke-width="1"/><rect x="672.9" y="152.9" width="5.4" height="19.0" fill="#16a34a" opacity="0.82" rx="1"/>
<line x1="684.5" y1="124.8" x2="684.5" y2="157.7" stroke="#16a34a" stroke-width="1"/><rect x="681.8" y="135.5" width="5.4" height="17.4" fill="#16a34a" opacity="0.82" rx="1"/>
<line x1="693.3" y1="76.0" x2="693.3" y2="138.6" stroke="#16a34a" stroke-width="1"/><rect x="690.6" y="96.1" width="5.4" height="39.4" fill="#16a34a" opacity="0.82" rx="1"/>
<line x1="702.2" y1="77.3" x2="702.2" y2="117.5" stroke="#dc2626" stroke-width="1"/><rect x="699.5" y="96.1" width="5.4" height="14.3" fill="#dc2626" opacity="0.82" rx="1"/>
<line x1="711.1" y1="95.3" x2="711.1" y2="137.5" stroke="#dc2626" stroke-width="1"/><rect x="708.4" y="110.4" width="5.4" height="16.5" fill="#dc2626" opacity="0.82" rx="1"/>
<line x1="720.0" y1="109.0" x2="720.0" y2="142.9" stroke="#16a34a" stroke-width="1"/><rect x="717.3" y="115.6" width="5.4" height="11.3" fill="#16a34a" opacity="0.82" rx="1"/>
<line x1="728.9" y1="108.8" x2="728.9" y2="126.6" stroke="#16a34a" stroke-width="1"/><rect x="726.1" y="112.8" width="5.4" height="2.8" fill="#16a34a" opacity="0.82" rx="1"/>
<line x1="737.7" y1="111.8" x2="737.7" y2="137.6" stroke="#dc2626" stroke-width="1"/><rect x="735.0" y="112.8" width="5.4" height="22.6" fill="#dc2626" opacity="0.82" rx="1"/>
<line x1="746.6" y1="119.6" x2="746.6" y2="146.0" stroke="#dc2626" stroke-width="1"/><rect x="743.9" y="135.4" width="5.4" height="3.8" fill="#dc2626" opacity="0.82" rx="1"/>
<line x1="755.5" y1="132.8" x2="755.5" y2="166.5" stroke="#dc2626" stroke-width="1"/><rect x="752.8" y="139.2" width="5.4" height="24.2" fill="#dc2626" opacity="0.82" rx="1"/>
<line x1="764.4" y1="150.9" x2="764.4" y2="181.6" stroke="#16a34a" stroke-width="1"/><rect x="761.6" y="153.1" width="5.4" height="10.2" fill="#16a34a" opacity="0.82" rx="1"/>
<line x1="773.2" y1="144.3" x2="773.2" y2="185.9" stroke="#16a34a" stroke-width="1"/><rect x="770.5" y="152.1" width="5.4" height="1.2" fill="#16a34a" opacity="0.82" rx="1"/>
<line x1="782.1" y1="144.1" x2="782.1" y2="170.8" stroke="#16a34a" stroke-width="1"/><rect x="779.4" y="150.5" width="5.4" height="1.5" fill="#16a34a" opacity="0.82" rx="1"/>
<line x1="791.0" y1="148.3" x2="791.0" y2="167.5" stroke="#dc2626" stroke-width="1"/><rect x="788.3" y="150.5" width="5.4" height="16.0" fill="#dc2626" opacity="0.82" rx="1"/>
<line x1="799.9" y1="155.4" x2="799.9" y2="172.8" stroke="#dc2626" stroke-width="1"/><rect x="797.1" y="166.5" width="5.4" height="1.3" fill="#dc2626" opacity="0.82" rx="1"/>
<line x1="808.7" y1="130.4" x2="808.7" y2="172.0" stroke="#16a34a" stroke-width="1"/><rect x="806.0" y="135.4" width="5.4" height="32.3" fill="#16a34a" opacity="0.82" rx="1"/>
<line x1="817.6" y1="135.2" x2="817.6" y2="151.8" stroke="#dc2626" stroke-width="1"/><rect x="814.9" y="135.5" width="5.4" height="11.0" fill="#dc2626" opacity="0.82" rx="1"/>
<line x1="826.5" y1="140.7" x2="826.5" y2="165.2" stroke="#dc2626" stroke-width="1"/><rect x="823.8" y="146.5" width="5.4" height="15.8" fill="#dc2626" opacity="0.82" rx="1"/>
<line x1="835.4" y1="134.0" x2="835.4" y2="166.4" stroke="#16a34a" stroke-width="1"/><rect x="832.6" y="135.4" width="5.4" height="26.8" fill="#16a34a" opacity="0.82" rx="1"/>
<line x1="844.2" y1="109.7" x2="844.2" y2="141.7" stroke="#16a34a" stroke-width="1"/><rect x="841.5" y="113.5" width="5.4" height="22.0" fill="#16a34a" opacity="0.82" rx="1"/>
<line x1="853.1" y1="105.4" x2="853.1" y2="121.0" stroke="#dc2626" stroke-width="1"/><rect x="850.4" y="113.4" width="5.4" height="4.7" fill="#dc2626" opacity="0.82" rx="1"/>
<line x1="862.0" y1="118.0" x2="862.0" y2="119.6" stroke="#dc2626" stroke-width="1"/><rect x="859.3" y="118.1" width="5.4" height="1.2" fill="#dc2626" opacity="0.82" rx="1"/>
<line x1="72" y1="157.9" x2="862" y2="157.9" stroke="#16a34a" stroke-width="1.8" stroke-dasharray="6 4" /><rect x="874" y="137.9" width="166" height="23" rx="5" fill="#ffffff" stroke="#16a34a" opacity="0.97"/><text x="881" y="153.9" fill="#16a34a" font-size="15" font-weight="700">支撑 63.08</text>
<line x1="72" y1="55.1" x2="862" y2="55.1" stroke="#dc2626" stroke-width="1.8" stroke-dasharray="6 4" /><rect x="874" y="35.1" width="166" height="23" rx="5" fill="#ffffff" stroke="#dc2626" opacity="0.97"/><text x="881" y="51.1" fill="#dc2626" font-size="15" font-weight="700">压力 80.55</text>
<line x1="72" y1="119.4" x2="862" y2="119.4" stroke="#111827" stroke-width="1.8" stroke-dasharray="2 2" /><rect x="874" y="99.4" width="166" height="23" rx="5" fill="#ffffff" stroke="#111827" opacity="0.97"/><text x="881" y="115.4" fill="#111827" font-size="15" font-weight="700">现价 69.63</text>
<text x="72" y="396" fill="#16a34a" font-size="14" font-weight="700">日线做多计划</text><rect x="72" y="404" width="790" height="48" rx="6" fill="#f9fafb" stroke="#e5e7eb"/><line x1="94" y1="412" x2="840" y2="412" stroke="#16a34a" stroke-width="3"/><circle cx="132.0" cy="412" r="5" fill="#16a34a"/><text x="132.0" y="434" fill="#374151" font-size="12" text-anchor="middle">入场 止跌/突破回踩</text><circle cx="451.2" cy="412" r="5" fill="#16a34a"/><text x="451.2" y="434" fill="#374151" font-size="12" text-anchor="middle">止损 63.08</text><circle cx="712.0" cy="412" r="5" fill="#16a34a"/><text x="712.0" y="434" fill="#374151" font-size="12" text-anchor="middle">目标一 80.55</text><circle cx="814.0" cy="412" r="5" fill="#16a34a"/><text x="814.0" y="434" fill="#374151" font-size="12" text-anchor="middle">目标二 87.11</text>
<text x="72" y="482" fill="#dc2626" font-size="14" font-weight="700">日线做空计划</text><rect x="72" y="490" width="790" height="48" rx="6" fill="#f9fafb" stroke="#e5e7eb"/><line x1="94" y1="498" x2="840" y2="498" stroke="#dc2626" stroke-width="3"/><circle cx="132.0" cy="498" r="5" fill="#dc2626"/><text x="132.0" y="520" fill="#374151" font-size="12" text-anchor="middle">入场 反弹承压/破位回抽</text><circle cx="451.2" cy="498" r="5" fill="#dc2626"/><text x="451.2" y="520" fill="#374151" font-size="12" text-anchor="middle">止损 80.55</text><circle cx="712.0" cy="498" r="5" fill="#dc2626"/><text x="712.0" y="520" fill="#374151" font-size="12" text-anchor="middle">目标一 63.08</text><circle cx="814.0" cy="498" r="5" fill="#dc2626"/><text x="814.0" y="520" fill="#374151" font-size="12" text-anchor="middle">目标二 58.71</text>
</svg>