<svg xmlns="http://www.w3.org/2000/svg" width="1080" height="560" viewBox="0 0 1080 560">
<rect width="100%" height="100%" fill="#ffffff"/>
<text x="72" y="23" fill="#111827" font-size="21" font-weight="800">DRAM 日线K线支撑压力图</text>
<text x="862" y="42" fill="#374151" font-size="15" text-anchor="end">最新价 65.13</text>
<line x1="72" y1="34" x2="72" y2="340" stroke="#d1d5db"/>
<line x1="72" y1="340" x2="862" y2="340" stroke="#d1d5db"/>
<line x1="72" y1="340.0" x2="862" y2="340.0" stroke="#f3f4f6"/>
<text x="8" y="345.0" fill="#4b5563" font-size="14">43.71</text>
<line x1="72" y1="263.5" x2="862" y2="263.5" stroke="#f3f4f6"/>
<text x="8" y="268.5" fill="#4b5563" font-size="14">53.98</text>
<line x1="72" y1="187.0" x2="862" y2="187.0" stroke="#f3f4f6"/>
<text x="8" y="192.0" fill="#4b5563" font-size="14">64.25</text>
<line x1="72" y1="110.5" x2="862" y2="110.5" stroke="#f3f4f6"/>
<text x="8" y="115.5" fill="#4b5563" font-size="14">74.52</text>
<line x1="72" y1="34.0" x2="862" y2="34.0" stroke="#f3f4f6"/>
<text x="8" y="39.0" fill="#4b5563" font-size="14">84.79</text>
<line x1="72.0" y1="279.1" x2="72.0" y2="307.4" stroke="#dc2626" stroke-width="1"/><rect x="67.5" y="283.9" width="9.0" height="10.9" fill="#dc2626" opacity="0.82" rx="1"/>
<line x1="88.5" y1="285.4" x2="88.5" y2="318.9" stroke="#16a34a" stroke-width="1"/><rect x="84.0" y="293.1" width="9.0" height="1.6" fill="#16a34a" opacity="0.82" rx="1"/>
<line x1="104.9" y1="277.9" x2="104.9" y2="308.2" stroke="#16a34a" stroke-width="1"/><rect x="100.4" y="280.2" width="9.0" height="13.0" fill="#16a34a" opacity="0.82" rx="1"/>
<line x1="121.4" y1="254.0" x2="121.4" y2="284.9" stroke="#16a34a" stroke-width="1"/><rect x="116.9" y="257.2" width="9.0" height="23.0" fill="#16a34a" opacity="0.82" rx="1"/>
<line x1="137.8" y1="256.9" x2="137.8" y2="273.8" stroke="#dc2626" stroke-width="1"/><rect x="133.3" y="257.2" width="9.0" height="16.3" fill="#dc2626" opacity="0.82" rx="1"/>
<line x1="154.3" y1="248.0" x2="154.3" y2="289.9" stroke="#16a34a" stroke-width="1"/><rect x="149.8" y="261.0" width="9.0" height="12.4" fill="#16a34a" opacity="0.82" rx="1"/>
<line x1="170.8" y1="247.7" x2="170.8" y2="262.5" stroke="#16a34a" stroke-width="1"/><rect x="166.2" y="253.1" width="9.0" height="7.7" fill="#16a34a" opacity="0.82" rx="1"/>
<line x1="187.2" y1="228.9" x2="187.2" y2="255.1" stroke="#16a34a" stroke-width="1"/><rect x="182.7" y="244.7" width="9.0" height="8.3" fill="#16a34a" opacity="0.82" rx="1"/>
<line x1="203.7" y1="194.1" x2="203.7" y2="258.3" stroke="#16a34a" stroke-width="1"/><rect x="199.2" y="202.2" width="9.0" height="42.5" fill="#16a34a" opacity="0.82" rx="1"/>
<line x1="220.1" y1="191.2" x2="220.1" y2="225.5" stroke="#dc2626" stroke-width="1"/><rect x="215.6" y="202.3" width="9.0" height="19.2" fill="#dc2626" opacity="0.82" rx="1"/>
<line x1="236.6" y1="190.6" x2="236.6" y2="237.7" stroke="#16a34a" stroke-width="1"/><rect x="232.1" y="195.9" width="9.0" height="25.5" fill="#16a34a" opacity="0.82" rx="1"/>
<line x1="253.0" y1="186.3" x2="253.0" y2="207.0" stroke="#16a34a" stroke-width="1"/><rect x="248.5" y="194.0" width="9.0" height="1.8" fill="#16a34a" opacity="0.82" rx="1"/>
<line x1="269.5" y1="174.3" x2="269.5" y2="197.1" stroke="#16a34a" stroke-width="1"/><rect x="265.0" y="175.5" width="9.0" height="18.5" fill="#16a34a" opacity="0.82" rx="1"/>
<line x1="286.0" y1="162.9" x2="286.0" y2="179.8" stroke="#16a34a" stroke-width="1"/><rect x="281.5" y="173.0" width="9.0" height="2.4" fill="#16a34a" opacity="0.82" rx="1"/>
<line x1="302.4" y1="151.0" x2="302.4" y2="186.3" stroke="#16a34a" stroke-width="1"/><rect x="297.9" y="157.6" width="9.0" height="15.3" fill="#16a34a" opacity="0.82" rx="1"/>
<line x1="318.9" y1="142.8" x2="318.9" y2="178.4" stroke="#16a34a" stroke-width="1"/><rect x="314.4" y="148.3" width="9.0" height="9.5" fill="#16a34a" opacity="0.82" rx="1"/>
<line x1="335.3" y1="141.8" x2="335.3" y2="171.0" stroke="#dc2626" stroke-width="1"/><rect x="330.8" y="148.2" width="9.0" height="20.5" fill="#dc2626" opacity="0.82" rx="1"/>
<line x1="351.8" y1="159.0" x2="351.8" y2="195.0" stroke="#dc2626" stroke-width="1"/><rect x="347.3" y="168.8" width="9.0" height="24.9" fill="#dc2626" opacity="0.82" rx="1"/>
<line x1="368.2" y1="187.9" x2="368.2" y2="267.4" stroke="#dc2626" stroke-width="1"/><rect x="363.8" y="193.7" width="9.0" height="59.0" fill="#dc2626" opacity="0.82" rx="1"/>
<line x1="384.7" y1="245.0" x2="384.7" y2="274.4" stroke="#16a34a" stroke-width="1"/><rect x="380.2" y="250.5" width="9.0" height="2.3" fill="#16a34a" opacity="0.82" rx="1"/>
<line x1="401.2" y1="219.9" x2="401.2" y2="255.9" stroke="#16a34a" stroke-width="1"/><rect x="396.7" y="245.1" width="9.0" height="5.4" fill="#16a34a" opacity="0.82" rx="1"/>
<line x1="417.6" y1="206.2" x2="417.6" y2="248.3" stroke="#16a34a" stroke-width="1"/><rect x="413.1" y="212.0" width="9.0" height="33.1" fill="#16a34a" opacity="0.82" rx="1"/>
<line x1="434.1" y1="187.4" x2="434.1" y2="252.5" stroke="#dc2626" stroke-width="1"/><rect x="429.6" y="211.9" width="9.0" height="8.6" fill="#dc2626" opacity="0.82" rx="1"/>
<line x1="450.5" y1="207.2" x2="450.5" y2="251.5" stroke="#dc2626" stroke-width="1"/><rect x="446.0" y="220.6" width="9.0" height="24.6" fill="#dc2626" opacity="0.82" rx="1"/>
<line x1="467.0" y1="168.8" x2="467.0" y2="247.0" stroke="#16a34a" stroke-width="1"/><rect x="462.5" y="173.8" width="9.0" height="71.1" fill="#16a34a" opacity="0.82" rx="1"/>
<line x1="483.5" y1="172.6" x2="483.5" y2="201.8" stroke="#dc2626" stroke-width="1"/><rect x="479.0" y="173.9" width="9.0" height="2.8" fill="#dc2626" opacity="0.82" rx="1"/>
<line x1="499.9" y1="174.1" x2="499.9" y2="189.7" stroke="#16a34a" stroke-width="1"/><rect x="495.4" y="175.7" width="9.0" height="1.2" fill="#16a34a" opacity="0.82" rx="1"/>
<line x1="516.4" y1="149.9" x2="516.4" y2="177.2" stroke="#16a34a" stroke-width="1"/><rect x="511.9" y="157.1" width="9.0" height="18.5" fill="#16a34a" opacity="0.82" rx="1"/>
<line x1="532.8" y1="134.1" x2="532.8" y2="163.7" stroke="#16a34a" stroke-width="1"/><rect x="528.3" y="137.8" width="9.0" height="19.4" fill="#16a34a" opacity="0.82" rx="1"/>
<line x1="549.3" y1="121.2" x2="549.3" y2="160.7" stroke="#dc2626" stroke-width="1"/><rect x="544.8" y="138.0" width="9.0" height="14.4" fill="#dc2626" opacity="0.82" rx="1"/>
<line x1="565.8" y1="119.7" x2="565.8" y2="152.7" stroke="#16a34a" stroke-width="1"/><rect x="561.2" y="125.8" width="9.0" height="26.7" fill="#16a34a" opacity="0.82" rx="1"/>
<line x1="582.2" y1="80.6" x2="582.2" y2="127.6" stroke="#16a34a" stroke-width="1"/><rect x="577.7" y="82.8" width="9.0" height="42.8" fill="#16a34a" opacity="0.82" rx="1"/>
<line x1="598.7" y1="79.5" x2="598.7" y2="108.1" stroke="#dc2626" stroke-width="1"/><rect x="594.2" y="82.9" width="9.0" height="4.5" fill="#dc2626" opacity="0.82" rx="1"/>
<line x1="615.1" y1="63.2" x2="615.1" y2="88.8" stroke="#16a34a" stroke-width="1"/><rect x="610.6" y="68.9" width="9.0" height="18.6" fill="#16a34a" opacity="0.82" rx="1"/>
<line x1="631.6" y1="59.5" x2="631.6" y2="95.4" stroke="#dc2626" stroke-width="1"/><rect x="627.1" y="69.0" width="9.0" height="21.4" fill="#dc2626" opacity="0.82" rx="1"/>
<line x1="648.0" y1="55.1" x2="648.0" y2="106.9" stroke="#16a34a" stroke-width="1"/><rect x="643.5" y="66.0" width="9.0" height="24.4" fill="#16a34a" opacity="0.82" rx="1"/>
<line x1="664.5" y1="65.3" x2="664.5" y2="153.9" stroke="#dc2626" stroke-width="1"/><rect x="660.0" y="66.0" width="9.0" height="74.3" fill="#dc2626" opacity="0.82" rx="1"/>
<line x1="681.0" y1="58.5" x2="681.0" y2="164.8" stroke="#16a34a" stroke-width="1"/><rect x="676.5" y="67.8" width="9.0" height="72.3" fill="#16a34a" opacity="0.82" rx="1"/>
<line x1="697.4" y1="66.9" x2="697.4" y2="118.0" stroke="#dc2626" stroke-width="1"/><rect x="692.9" y="67.7" width="9.0" height="27.9" fill="#dc2626" opacity="0.82" rx="1"/>
<line x1="713.9" y1="93.1" x2="713.9" y2="136.7" stroke="#dc2626" stroke-width="1"/><rect x="709.4" y="95.5" width="9.0" height="31.4" fill="#dc2626" opacity="0.82" rx="1"/>
<line x1="730.3" y1="120.3" x2="730.3" y2="129.1" stroke="#dc2626" stroke-width="1"/><rect x="725.8" y="126.8" width="9.0" height="1.2" fill="#dc2626" opacity="0.82" rx="1"/>
<line x1="746.8" y1="104.9" x2="746.8" y2="132.1" stroke="#16a34a" stroke-width="1"/><rect x="742.3" y="123.9" width="9.0" height="3.4" fill="#16a34a" opacity="0.82" rx="1"/>
<line x1="763.2" y1="119.3" x2="763.2" y2="170.2" stroke="#dc2626" stroke-width="1"/><rect x="758.8" y="123.8" width="9.0" height="7.2" fill="#dc2626" opacity="0.82" rx="1"/>
<line x1="779.7" y1="112.8" x2="779.7" y2="142.6" stroke="#16a34a" stroke-width="1"/><rect x="775.2" y="118.1" width="9.0" height="13.0" fill="#16a34a" opacity="0.82" rx="1"/>
<line x1="796.2" y1="114.8" x2="796.2" y2="183.6" stroke="#dc2626" stroke-width="1"/><rect x="791.7" y="118.0" width="9.0" height="64.3" fill="#dc2626" opacity="0.82" rx="1"/>
<line x1="812.6" y1="168.5" x2="812.6" y2="226.5" stroke="#dc2626" stroke-width="1"/><rect x="808.1" y="182.3" width="9.0" height="27.6" fill="#dc2626" opacity="0.82" rx="1"/>
<line x1="829.1" y1="177.7" x2="829.1" y2="221.1" stroke="#16a34a" stroke-width="1"/><rect x="824.6" y="178.9" width="9.0" height="31.0" fill="#16a34a" opacity="0.82" rx="1"/>
<line x1="845.5" y1="177.8" x2="845.5" y2="186.3" stroke="#dc2626" stroke-width="1"/><rect x="841.0" y="178.7" width="9.0" height="1.2" fill="#dc2626" opacity="0.82" rx="1"/>
<line x1="862.0" y1="179.8" x2="862.0" y2="180.7" stroke="#dc2626" stroke-width="1"/><rect x="857.5" y="179.9" width="9.0" height="1.2" fill="#dc2626" opacity="0.82" rx="1"/>
<line x1="72" y1="248.8" x2="862" y2="248.8" stroke="#16a34a" stroke-width="1.8" stroke-dasharray="6 4" /><rect x="874" y="228.8" width="166" height="23" rx="5" fill="#ffffff" stroke="#16a34a" opacity="0.97"/><text x="881" y="244.8" fill="#16a34a" font-size="15" font-weight="700">支撑 55.95</text>
<line x1="72" y1="66.5" x2="862" y2="66.5" stroke="#dc2626" stroke-width="1.8" stroke-dasharray="6 4" /><rect x="874" y="46.5" width="166" height="23" rx="5" fill="#ffffff" stroke="#dc2626" opacity="0.97"/><text x="881" y="62.5" fill="#dc2626" font-size="15" font-weight="700">压力 80.43</text>
<line x1="72" y1="180.4" x2="862" y2="180.4" stroke="#111827" stroke-width="1.8" stroke-dasharray="2 2" /><rect x="874" y="160.4" width="166" height="23" rx="5" fill="#ffffff" stroke="#111827" opacity="0.97"/><text x="881" y="176.4" fill="#111827" font-size="15" font-weight="700">现价 65.13</text>
<text x="72" y="396" fill="#16a34a" font-size="14" font-weight="700">日线做多计划</text><rect x="72" y="404" width="790" height="48" rx="6" fill="#f9fafb" stroke="#e5e7eb"/><line x1="94" y1="412" x2="840" y2="412" stroke="#16a34a" stroke-width="3"/><circle cx="132.0" cy="412" r="5" fill="#16a34a"/><text x="132.0" y="434" fill="#374151" font-size="12" text-anchor="middle">入场 止跌/突破回踩</text><circle cx="451.2" cy="412" r="5" fill="#16a34a"/><text x="451.2" y="434" fill="#374151" font-size="12" text-anchor="middle">止损 55.95</text><circle cx="712.0" cy="412" r="5" fill="#16a34a"/><text x="712.0" y="434" fill="#374151" font-size="12" text-anchor="middle">目标一 80.43</text><circle cx="814.0" cy="412" r="5" fill="#16a34a"/><text x="814.0" y="434" fill="#374151" font-size="12" text-anchor="middle">目标二 89.60</text>
<text x="72" y="482" fill="#dc2626" font-size="14" font-weight="700">日线做空计划</text><rect x="72" y="490" width="790" height="48" rx="6" fill="#f9fafb" stroke="#e5e7eb"/><line x1="94" y1="498" x2="840" y2="498" stroke="#dc2626" stroke-width="3"/><circle cx="132.0" cy="498" r="5" fill="#dc2626"/><text x="132.0" y="520" fill="#374151" font-size="12" text-anchor="middle">入场 反弹承压/破位回抽</text><circle cx="451.2" cy="498" r="5" fill="#dc2626"/><text x="451.2" y="520" fill="#374151" font-size="12" text-anchor="middle">止损 80.43</text><circle cx="712.0" cy="498" r="5" fill="#dc2626"/><text x="712.0" y="520" fill="#374151" font-size="12" text-anchor="middle">目标一 55.95</text><circle cx="814.0" cy="498" r="5" fill="#dc2626"/><text x="814.0" y="520" fill="#374151" font-size="12" text-anchor="middle">目标二 49.83</text>
</svg>