<svg xmlns="http://www.w3.org/2000/svg" width="1080" height="560" viewBox="0 0 1080 560">
<rect width="100%" height="100%" fill="#ffffff"/>
<text x="72" y="23" fill="#111827" font-size="21" font-weight="800">HYPE 日线K线支撑压力图</text>
<text x="862" y="42" fill="#374151" font-size="15" text-anchor="end">最新价 71.08</text>
<line x1="72" y1="34" x2="72" y2="340" stroke="#d1d5db"/>
<line x1="72" y1="340" x2="862" y2="340" stroke="#d1d5db"/>
<line x1="72" y1="340.0" x2="862" y2="340.0" stroke="#f3f4f6"/>
<text x="8" y="345.0" fill="#4b5563" font-size="14">34.65</text>
<line x1="72" y1="263.5" x2="862" y2="263.5" stroke="#f3f4f6"/>
<text x="8" y="268.5" fill="#4b5563" font-size="14">47.34</text>
<line x1="72" y1="187.0" x2="862" y2="187.0" stroke="#f3f4f6"/>
<text x="8" y="192.0" fill="#4b5563" font-size="14">60.04</text>
<line x1="72" y1="110.5" x2="862" y2="110.5" stroke="#f3f4f6"/>
<text x="8" y="115.5" fill="#4b5563" font-size="14">72.73</text>
<line x1="72" y1="34.0" x2="862" y2="34.0" stroke="#f3f4f6"/>
<text x="8" y="39.0" fill="#4b5563" font-size="14">85.43</text>
<line x1="72.0" y1="305.3" x2="72.0" y2="318.9" stroke="#16a34a" stroke-width="1"/><rect x="69.3" y="311.0" width="5.4" height="4.2" fill="#16a34a" opacity="0.82" rx="1"/>
<line x1="80.9" y1="294.3" x2="80.9" y2="311.2" stroke="#16a34a" stroke-width="1"/><rect x="78.2" y="298.1" width="5.4" height="12.8" fill="#16a34a" opacity="0.82" rx="1"/>
<line x1="89.8" y1="288.6" x2="89.8" y2="298.8" stroke="#16a34a" stroke-width="1"/><rect x="87.0" y="294.0" width="5.4" height="4.1" fill="#16a34a" opacity="0.82" rx="1"/>
<line x1="98.6" y1="290.7" x2="98.6" y2="306.6" stroke="#dc2626" stroke-width="1"/><rect x="95.9" y="294.0" width="5.4" height="8.6" fill="#dc2626" opacity="0.82" rx="1"/>
<line x1="107.5" y1="279.9" x2="107.5" y2="303.0" stroke="#16a34a" stroke-width="1"/><rect x="104.8" y="281.6" width="5.4" height="21.0" fill="#16a34a" opacity="0.82" rx="1"/>
<line x1="116.4" y1="275.6" x2="116.4" y2="290.1" stroke="#dc2626" stroke-width="1"/><rect x="113.7" y="281.7" width="5.4" height="4.8" fill="#dc2626" opacity="0.82" rx="1"/>
<line x1="125.3" y1="274.8" x2="125.3" y2="288.9" stroke="#16a34a" stroke-width="1"/><rect x="122.5" y="279.8" width="5.4" height="6.7" fill="#16a34a" opacity="0.82" rx="1"/>
<line x1="134.1" y1="273.0" x2="134.1" y2="287.8" stroke="#dc2626" stroke-width="1"/><rect x="131.4" y="279.8" width="5.4" height="5.0" fill="#dc2626" opacity="0.82" rx="1"/>
<line x1="143.0" y1="274.6" x2="143.0" y2="288.6" stroke="#16a34a" stroke-width="1"/><rect x="140.3" y="279.9" width="5.4" height="4.9" fill="#16a34a" opacity="0.82" rx="1"/>
<line x1="151.9" y1="274.9" x2="151.9" y2="285.3" stroke="#dc2626" stroke-width="1"/><rect x="149.2" y="279.9" width="5.4" height="5.1" fill="#dc2626" opacity="0.82" rx="1"/>
<line x1="160.8" y1="284.0" x2="160.8" y2="304.7" stroke="#dc2626" stroke-width="1"/><rect x="158.0" y="285.0" width="5.4" height="18.6" fill="#dc2626" opacity="0.82" rx="1"/>
<line x1="169.6" y1="297.0" x2="169.6" y2="304.4" stroke="#16a34a" stroke-width="1"/><rect x="166.9" y="303.5" width="5.4" height="1.2" fill="#16a34a" opacity="0.82" rx="1"/>
<line x1="178.5" y1="299.1" x2="178.5" y2="314.5" stroke="#dc2626" stroke-width="1"/><rect x="175.8" y="303.5" width="5.4" height="5.6" fill="#dc2626" opacity="0.82" rx="1"/>
<line x1="187.4" y1="297.2" x2="187.4" y2="310.0" stroke="#16a34a" stroke-width="1"/><rect x="184.7" y="300.8" width="5.4" height="8.4" fill="#16a34a" opacity="0.82" rx="1"/>
<line x1="196.3" y1="296.5" x2="196.3" y2="304.6" stroke="#16a34a" stroke-width="1"/><rect x="193.5" y="299.9" width="5.4" height="1.2" fill="#16a34a" opacity="0.82" rx="1"/>
<line x1="205.1" y1="298.5" x2="205.1" y2="303.6" stroke="#dc2626" stroke-width="1"/><rect x="202.4" y="299.8" width="5.4" height="1.2" fill="#dc2626" opacity="0.82" rx="1"/>
<line x1="214.0" y1="296.3" x2="214.0" y2="302.7" stroke="#16a34a" stroke-width="1"/><rect x="211.3" y="298.7" width="5.4" height="2.0" fill="#16a34a" opacity="0.82" rx="1"/>
<line x1="222.9" y1="292.0" x2="222.9" y2="302.0" stroke="#16a34a" stroke-width="1"/><rect x="220.2" y="292.9" width="5.4" height="5.8" fill="#16a34a" opacity="0.82" rx="1"/>
<line x1="231.8" y1="286.2" x2="231.8" y2="300.1" stroke="#dc2626" stroke-width="1"/><rect x="229.1" y="292.9" width="5.4" height="4.9" fill="#dc2626" opacity="0.82" rx="1"/>
<line x1="240.7" y1="296.7" x2="240.7" y2="311.5" stroke="#dc2626" stroke-width="1"/><rect x="237.9" y="297.8" width="5.4" height="8.9" fill="#dc2626" opacity="0.82" rx="1"/>
<line x1="249.5" y1="302.9" x2="249.5" y2="312.8" stroke="#dc2626" stroke-width="1"/><rect x="246.8" y="306.8" width="5.4" height="1.4" fill="#dc2626" opacity="0.82" rx="1"/>
<line x1="258.4" y1="305.8" x2="258.4" y2="315.5" stroke="#dc2626" stroke-width="1"/><rect x="255.7" y="308.1" width="5.4" height="1.5" fill="#dc2626" opacity="0.82" rx="1"/>
<line x1="267.3" y1="300.9" x2="267.3" y2="309.7" stroke="#16a34a" stroke-width="1"/><rect x="264.6" y="300.9" width="5.4" height="8.7" fill="#16a34a" opacity="0.82" rx="1"/>
<line x1="276.2" y1="293.0" x2="276.2" y2="301.8" stroke="#16a34a" stroke-width="1"/><rect x="273.4" y="300.2" width="5.4" height="1.2" fill="#16a34a" opacity="0.82" rx="1"/>
<line x1="285.0" y1="297.3" x2="285.0" y2="303.7" stroke="#16a34a" stroke-width="1"/><rect x="282.3" y="298.4" width="5.4" height="1.8" fill="#16a34a" opacity="0.82" rx="1"/>
<line x1="293.9" y1="292.1" x2="293.9" y2="302.8" stroke="#16a34a" stroke-width="1"/><rect x="291.2" y="296.8" width="5.4" height="1.6" fill="#16a34a" opacity="0.82" rx="1"/>
<line x1="302.8" y1="279.8" x2="302.8" y2="297.1" stroke="#16a34a" stroke-width="1"/><rect x="300.1" y="285.4" width="5.4" height="11.4" fill="#16a34a" opacity="0.82" rx="1"/>
<line x1="311.7" y1="279.1" x2="311.7" y2="290.3" stroke="#dc2626" stroke-width="1"/><rect x="308.9" y="285.4" width="5.4" height="3.5" fill="#dc2626" opacity="0.82" rx="1"/>
<line x1="320.5" y1="286.3" x2="320.5" y2="296.6" stroke="#dc2626" stroke-width="1"/><rect x="317.8" y="288.9" width="5.4" height="3.7" fill="#dc2626" opacity="0.82" rx="1"/>
<line x1="329.4" y1="286.7" x2="329.4" y2="295.4" stroke="#16a34a" stroke-width="1"/><rect x="326.7" y="288.1" width="5.4" height="4.5" fill="#16a34a" opacity="0.82" rx="1"/>
<line x1="338.3" y1="281.1" x2="338.3" y2="290.7" stroke="#dc2626" stroke-width="1"/><rect x="335.6" y="288.1" width="5.4" height="2.1" fill="#dc2626" opacity="0.82" rx="1"/>
<line x1="347.2" y1="285.5" x2="347.2" y2="295.0" stroke="#16a34a" stroke-width="1"/><rect x="344.4" y="289.6" width="5.4" height="1.2" fill="#16a34a" opacity="0.82" rx="1"/>
<line x1="356.0" y1="288.8" x2="356.0" y2="302.8" stroke="#dc2626" stroke-width="1"/><rect x="353.3" y="289.6" width="5.4" height="6.1" fill="#dc2626" opacity="0.82" rx="1"/>
<line x1="364.9" y1="295.4" x2="364.9" y2="309.1" stroke="#dc2626" stroke-width="1"/><rect x="362.2" y="295.7" width="5.4" height="10.5" fill="#dc2626" opacity="0.82" rx="1"/>
<line x1="373.8" y1="303.5" x2="373.8" y2="315.5" stroke="#dc2626" stroke-width="1"/><rect x="371.1" y="306.2" width="5.4" height="8.7" fill="#dc2626" opacity="0.82" rx="1"/>
<line x1="382.7" y1="279.1" x2="382.7" y2="318.8" stroke="#16a34a" stroke-width="1"/><rect x="380.0" y="282.8" width="5.4" height="32.0" fill="#16a34a" opacity="0.82" rx="1"/>
<line x1="391.6" y1="265.2" x2="391.6" y2="290.9" stroke="#16a34a" stroke-width="1"/><rect x="388.8" y="282.7" width="5.4" height="1.2" fill="#16a34a" opacity="0.82" rx="1"/>
<line x1="400.4" y1="280.7" x2="400.4" y2="305.5" stroke="#dc2626" stroke-width="1"/><rect x="397.7" y="282.7" width="5.4" height="14.1" fill="#dc2626" opacity="0.82" rx="1"/>
<line x1="409.3" y1="264.7" x2="409.3" y2="299.7" stroke="#16a34a" stroke-width="1"/><rect x="406.6" y="273.5" width="5.4" height="23.3" fill="#16a34a" opacity="0.82" rx="1"/>
<line x1="418.2" y1="259.5" x2="418.2" y2="282.5" stroke="#16a34a" stroke-width="1"/><rect x="415.5" y="261.0" width="5.4" height="12.5" fill="#16a34a" opacity="0.82" rx="1"/>
<line x1="427.1" y1="254.1" x2="427.1" y2="266.8" stroke="#16a34a" stroke-width="1"/><rect x="424.3" y="259.5" width="5.4" height="1.5" fill="#16a34a" opacity="0.82" rx="1"/>
<line x1="435.9" y1="218.3" x2="435.9" y2="265.1" stroke="#16a34a" stroke-width="1"/><rect x="433.2" y="218.3" width="5.4" height="41.2" fill="#16a34a" opacity="0.82" rx="1"/>
<line x1="444.8" y1="171.6" x2="444.8" y2="219.1" stroke="#16a34a" stroke-width="1"/><rect x="442.1" y="195.8" width="5.4" height="22.6" fill="#16a34a" opacity="0.82" rx="1"/>
<line x1="453.7" y1="175.4" x2="453.7" y2="221.7" stroke="#dc2626" stroke-width="1"/><rect x="451.0" y="195.8" width="5.4" height="24.1" fill="#dc2626" opacity="0.82" rx="1"/>
<line x1="462.6" y1="187.8" x2="462.6" y2="223.4" stroke="#16a34a" stroke-width="1"/><rect x="459.8" y="195.0" width="5.4" height="24.9" fill="#16a34a" opacity="0.82" rx="1"/>
<line x1="471.4" y1="160.1" x2="471.4" y2="195.6" stroke="#16a34a" stroke-width="1"/><rect x="468.7" y="170.7" width="5.4" height="24.4" fill="#16a34a" opacity="0.82" rx="1"/>
<line x1="480.3" y1="163.7" x2="480.3" y2="182.9" stroke="#dc2626" stroke-width="1"/><rect x="477.6" y="170.6" width="5.4" height="10.0" fill="#dc2626" opacity="0.82" rx="1"/>
<line x1="489.2" y1="158.7" x2="489.2" y2="196.0" stroke="#dc2626" stroke-width="1"/><rect x="486.5" y="180.6" width="5.4" height="9.6" fill="#dc2626" opacity="0.82" rx="1"/>
<line x1="498.1" y1="167.2" x2="498.1" y2="204.9" stroke="#dc2626" stroke-width="1"/><rect x="495.3" y="190.2" width="5.4" height="11.4" fill="#dc2626" opacity="0.82" rx="1"/>
<line x1="506.9" y1="174.4" x2="506.9" y2="209.8" stroke="#16a34a" stroke-width="1"/><rect x="504.2" y="178.1" width="5.4" height="23.5" fill="#16a34a" opacity="0.82" rx="1"/>
<line x1="515.8" y1="142.5" x2="515.8" y2="185.3" stroke="#16a34a" stroke-width="1"/><rect x="513.1" y="160.7" width="5.4" height="17.4" fill="#16a34a" opacity="0.82" rx="1"/>
<line x1="524.7" y1="135.2" x2="524.7" y2="163.1" stroke="#16a34a" stroke-width="1"/><rect x="522.0" y="137.3" width="5.4" height="23.4" fill="#16a34a" opacity="0.82" rx="1"/>
<line x1="533.6" y1="108.2" x2="533.6" y2="142.2" stroke="#16a34a" stroke-width="1"/><rect x="530.9" y="114.6" width="5.4" height="22.6" fill="#16a34a" opacity="0.82" rx="1"/>
<line x1="542.4" y1="91.9" x2="542.4" y2="124.4" stroke="#16a34a" stroke-width="1"/><rect x="539.7" y="105.4" width="5.4" height="9.0" fill="#16a34a" opacity="0.82" rx="1"/>
<line x1="551.3" y1="93.0" x2="551.3" y2="140.0" stroke="#dc2626" stroke-width="1"/><rect x="548.6" y="105.4" width="5.4" height="22.6" fill="#dc2626" opacity="0.82" rx="1"/>
<line x1="560.2" y1="93.2" x2="560.2" y2="137.4" stroke="#16a34a" stroke-width="1"/><rect x="557.5" y="99.4" width="5.4" height="28.6" fill="#16a34a" opacity="0.82" rx="1"/>
<line x1="569.1" y1="93.8" x2="569.1" y2="169.1" stroke="#dc2626" stroke-width="1"/><rect x="566.4" y="99.4" width="5.4" height="61.1" fill="#dc2626" opacity="0.82" rx="1"/>
<line x1="578.0" y1="150.9" x2="578.0" y2="207.2" stroke="#dc2626" stroke-width="1"/><rect x="575.2" y="160.5" width="5.4" height="27.7" fill="#dc2626" opacity="0.82" rx="1"/>
<line x1="586.8" y1="179.9" x2="586.8" y2="214.5" stroke="#dc2626" stroke-width="1"/><rect x="584.1" y="188.4" width="5.4" height="19.9" fill="#dc2626" opacity="0.82" rx="1"/>
<line x1="595.7" y1="184.6" x2="595.7" y2="210.7" stroke="#16a34a" stroke-width="1"/><rect x="593.0" y="188.7" width="5.4" height="19.4" fill="#16a34a" opacity="0.82" rx="1"/>
<line x1="604.6" y1="152.3" x2="604.6" y2="191.4" stroke="#16a34a" stroke-width="1"/><rect x="601.9" y="164.1" width="5.4" height="24.6" fill="#16a34a" opacity="0.82" rx="1"/>
<line x1="613.5" y1="162.9" x2="613.5" y2="203.5" stroke="#dc2626" stroke-width="1"/><rect x="610.7" y="164.1" width="5.4" height="36.6" fill="#dc2626" opacity="0.82" rx="1"/>
<line x1="622.3" y1="197.2" x2="622.3" y2="231.8" stroke="#dc2626" stroke-width="1"/><rect x="619.6" y="200.6" width="5.4" height="27.1" fill="#dc2626" opacity="0.82" rx="1"/>
<line x1="631.2" y1="189.4" x2="631.2" y2="230.3" stroke="#16a34a" stroke-width="1"/><rect x="628.5" y="193.7" width="5.4" height="34.0" fill="#16a34a" opacity="0.82" rx="1"/>
<line x1="640.1" y1="172.6" x2="640.1" y2="206.6" stroke="#16a34a" stroke-width="1"/><rect x="637.4" y="191.7" width="5.4" height="2.0" fill="#16a34a" opacity="0.82" rx="1"/>
<line x1="649.0" y1="181.9" x2="649.0" y2="204.3" stroke="#16a34a" stroke-width="1"/><rect x="646.2" y="183.0" width="5.4" height="8.7" fill="#16a34a" opacity="0.82" rx="1"/>
<line x1="657.8" y1="162.3" x2="657.8" y2="189.7" stroke="#16a34a" stroke-width="1"/><rect x="655.1" y="163.6" width="5.4" height="19.5" fill="#16a34a" opacity="0.82" rx="1"/>
<line x1="666.7" y1="134.8" x2="666.7" y2="168.4" stroke="#16a34a" stroke-width="1"/><rect x="664.0" y="145.7" width="5.4" height="17.8" fill="#16a34a" opacity="0.82" rx="1"/>
<line x1="675.6" y1="84.8" x2="675.6" y2="148.9" stroke="#16a34a" stroke-width="1"/><rect x="672.9" y="105.4" width="5.4" height="40.3" fill="#16a34a" opacity="0.82" rx="1"/>
<line x1="684.5" y1="86.1" x2="684.5" y2="127.3" stroke="#dc2626" stroke-width="1"/><rect x="681.8" y="105.4" width="5.4" height="14.7" fill="#dc2626" opacity="0.82" rx="1"/>
<line x1="693.3" y1="104.5" x2="693.3" y2="147.8" stroke="#dc2626" stroke-width="1"/><rect x="690.6" y="120.0" width="5.4" height="16.9" fill="#dc2626" opacity="0.82" rx="1"/>
<line x1="702.2" y1="118.6" x2="702.2" y2="153.3" stroke="#16a34a" stroke-width="1"/><rect x="699.5" y="125.4" width="5.4" height="11.6" fill="#16a34a" opacity="0.82" rx="1"/>
<line x1="711.1" y1="118.4" x2="711.1" y2="136.6" stroke="#16a34a" stroke-width="1"/><rect x="708.4" y="122.5" width="5.4" height="2.9" fill="#16a34a" opacity="0.82" rx="1"/>
<line x1="720.0" y1="121.5" x2="720.0" y2="147.9" stroke="#dc2626" stroke-width="1"/><rect x="717.3" y="122.5" width="5.4" height="23.2" fill="#dc2626" opacity="0.82" rx="1"/>
<line x1="728.9" y1="129.5" x2="728.9" y2="156.5" stroke="#dc2626" stroke-width="1"/><rect x="726.1" y="145.6" width="5.4" height="3.9" fill="#dc2626" opacity="0.82" rx="1"/>
<line x1="737.7" y1="143.0" x2="737.7" y2="177.5" stroke="#dc2626" stroke-width="1"/><rect x="735.0" y="149.5" width="5.4" height="24.8" fill="#dc2626" opacity="0.82" rx="1"/>
<line x1="746.6" y1="161.5" x2="746.6" y2="192.9" stroke="#16a34a" stroke-width="1"/><rect x="743.9" y="163.8" width="5.4" height="10.5" fill="#16a34a" opacity="0.82" rx="1"/>
<line x1="755.5" y1="154.7" x2="755.5" y2="197.3" stroke="#16a34a" stroke-width="1"/><rect x="752.8" y="162.7" width="5.4" height="1.2" fill="#16a34a" opacity="0.82" rx="1"/>
<line x1="764.4" y1="154.5" x2="764.4" y2="181.8" stroke="#16a34a" stroke-width="1"/><rect x="761.6" y="161.1" width="5.4" height="1.6" fill="#16a34a" opacity="0.82" rx="1"/>
<line x1="773.2" y1="158.9" x2="773.2" y2="178.5" stroke="#dc2626" stroke-width="1"/><rect x="770.5" y="161.1" width="5.4" height="16.4" fill="#dc2626" opacity="0.82" rx="1"/>
<line x1="782.1" y1="166.1" x2="782.1" y2="183.9" stroke="#dc2626" stroke-width="1"/><rect x="779.4" y="177.5" width="5.4" height="1.3" fill="#dc2626" opacity="0.82" rx="1"/>
<line x1="791.0" y1="140.5" x2="791.0" y2="183.1" stroke="#16a34a" stroke-width="1"/><rect x="788.3" y="145.6" width="5.4" height="33.1" fill="#16a34a" opacity="0.82" rx="1"/>
<line x1="799.9" y1="145.4" x2="799.9" y2="162.5" stroke="#dc2626" stroke-width="1"/><rect x="797.1" y="145.7" width="5.4" height="11.3" fill="#dc2626" opacity="0.82" rx="1"/>
<line x1="808.7" y1="151.1" x2="808.7" y2="176.2" stroke="#dc2626" stroke-width="1"/><rect x="806.0" y="156.9" width="5.4" height="16.2" fill="#dc2626" opacity="0.82" rx="1"/>
<line x1="817.6" y1="144.2" x2="817.6" y2="177.3" stroke="#16a34a" stroke-width="1"/><rect x="814.9" y="145.7" width="5.4" height="27.4" fill="#16a34a" opacity="0.82" rx="1"/>
<line x1="826.5" y1="119.3" x2="826.5" y2="152.0" stroke="#16a34a" stroke-width="1"/><rect x="823.8" y="123.1" width="5.4" height="22.6" fill="#16a34a" opacity="0.82" rx="1"/>
<line x1="835.4" y1="114.9" x2="835.4" y2="130.8" stroke="#dc2626" stroke-width="1"/><rect x="832.6" y="123.1" width="5.4" height="4.8" fill="#dc2626" opacity="0.82" rx="1"/>
<line x1="844.2" y1="116.7" x2="844.2" y2="137.7" stroke="#16a34a" stroke-width="1"/><rect x="841.5" y="119.0" width="5.4" height="9.0" fill="#16a34a" opacity="0.82" rx="1"/>
<line x1="853.1" y1="111.3" x2="853.1" y2="135.3" stroke="#dc2626" stroke-width="1"/><rect x="850.4" y="119.0" width="5.4" height="4.5" fill="#dc2626" opacity="0.82" rx="1"/>
<line x1="862.0" y1="114.9" x2="862.0" y2="130.2" stroke="#16a34a" stroke-width="1"/><rect x="859.3" y="120.4" width="5.4" height="3.0" fill="#16a34a" opacity="0.82" rx="1"/>
<line x1="72" y1="159.6" x2="862" y2="159.6" stroke="#16a34a" stroke-width="1.8" stroke-dasharray="6 4" /><rect x="874" y="139.6" width="166" height="23" rx="5" fill="#ffffff" stroke="#16a34a" opacity="0.97"/><text x="881" y="155.6" fill="#16a34a" font-size="15" font-weight="700">支撑 64.58</text>
<line x1="72" y1="55.1" x2="862" y2="55.1" stroke="#dc2626" stroke-width="1.8" stroke-dasharray="6 4" /><rect x="874" y="35.1" width="166" height="23" rx="5" fill="#ffffff" stroke="#dc2626" opacity="0.97"/><text x="881" y="51.1" fill="#dc2626" font-size="15" font-weight="700">压力 81.92</text>
<line x1="72" y1="120.4" x2="862" y2="120.4" stroke="#111827" stroke-width="1.8" stroke-dasharray="2 2" /><rect x="874" y="100.4" width="166" height="23" rx="5" fill="#ffffff" stroke="#111827" opacity="0.97"/><text x="881" y="116.4" fill="#111827" font-size="15" font-weight="700">现价 71.08</text>
<text x="72" y="396" fill="#16a34a" font-size="14" font-weight="700">日线做多计划</text><rect x="72" y="404" width="790" height="48" rx="6" fill="#f9fafb" stroke="#e5e7eb"/><line x1="94" y1="412" x2="840" y2="412" stroke="#16a34a" stroke-width="3"/><circle cx="132.0" cy="412" r="5" fill="#16a34a"/><text x="132.0" y="434" fill="#374151" font-size="12" text-anchor="middle">入场 止跌/突破回踩</text><circle cx="451.2" cy="412" r="5" fill="#16a34a"/><text x="451.2" y="434" fill="#374151" font-size="12" text-anchor="middle">止损 64.58</text><circle cx="712.0" cy="412" r="5" fill="#16a34a"/><text x="712.0" y="434" fill="#374151" font-size="12" text-anchor="middle">目标一 81.92</text><circle cx="814.0" cy="412" r="5" fill="#16a34a"/><text x="814.0" y="434" fill="#374151" font-size="12" text-anchor="middle">目标二 88.43</text>
<text x="72" y="482" fill="#dc2626" font-size="14" font-weight="700">日线做空计划</text><rect x="72" y="490" width="790" height="48" rx="6" fill="#f9fafb" stroke="#e5e7eb"/><line x1="94" y1="498" x2="840" y2="498" stroke="#dc2626" stroke-width="3"/><circle cx="132.0" cy="498" r="5" fill="#dc2626"/><text x="132.0" y="520" fill="#374151" font-size="12" text-anchor="middle">入场 反弹承压/破位回抽</text><circle cx="451.2" cy="498" r="5" fill="#dc2626"/><text x="451.2" y="520" fill="#374151" font-size="12" text-anchor="middle">止损 81.92</text><circle cx="712.0" cy="498" r="5" fill="#dc2626"/><text x="712.0" y="520" fill="#374151" font-size="12" text-anchor="middle">目标一 64.58</text><circle cx="814.0" cy="498" r="5" fill="#dc2626"/><text x="814.0" y="520" fill="#374151" font-size="12" text-anchor="middle">目标二 60.24</text>
</svg>