<svg xmlns="http://www.w3.org/2000/svg" width="1080" height="560" viewBox="0 0 1080 560">
<rect width="100%" height="100%" fill="#ffffff"/>
<text x="72" y="23" fill="#111827" font-size="21" font-weight="800">HYPE 小时线K线支撑压力图</text>
<text x="862" y="42" fill="#374151" font-size="15" text-anchor="end">最新价 70.50</text>
<line x1="72" y1="34" x2="72" y2="340" stroke="#d1d5db"/>
<line x1="72" y1="340" x2="862" y2="340" stroke="#d1d5db"/>
<line x1="72" y1="340.0" x2="862" y2="340.0" stroke="#f3f4f6"/>
<text x="8" y="345.0" fill="#4b5563" font-size="14">66.49</text>
<line x1="72" y1="263.5" x2="862" y2="263.5" stroke="#f3f4f6"/>
<text x="8" y="268.5" fill="#4b5563" font-size="14">68.13</text>
<line x1="72" y1="187.0" x2="862" y2="187.0" stroke="#f3f4f6"/>
<text x="8" y="192.0" fill="#4b5563" font-size="14">69.77</text>
<line x1="72" y1="110.5" x2="862" y2="110.5" stroke="#f3f4f6"/>
<text x="8" y="115.5" fill="#4b5563" font-size="14">71.41</text>
<line x1="72" y1="34.0" x2="862" y2="34.0" stroke="#f3f4f6"/>
<text x="8" y="39.0" fill="#4b5563" font-size="14">73.05</text>
<line x1="72.0" y1="295.5" x2="72.0" y2="318.9" stroke="#16a34a" stroke-width="1"/><rect x="69.3" y="302.5" width="5.4" height="4.0" fill="#16a34a" opacity="0.82" rx="1"/>
<line x1="80.9" y1="280.3" x2="80.9" y2="303.1" stroke="#16a34a" stroke-width="1"/><rect x="78.2" y="286.6" width="5.4" height="15.9" fill="#16a34a" opacity="0.82" rx="1"/>
<line x1="89.8" y1="246.9" x2="89.8" y2="295.5" stroke="#16a34a" stroke-width="1"/><rect x="87.0" y="285.9" width="5.4" height="1.2" fill="#16a34a" opacity="0.82" rx="1"/>
<line x1="98.6" y1="214.9" x2="98.6" y2="292.3" stroke="#16a34a" stroke-width="1"/><rect x="95.9" y="225.7" width="5.4" height="60.2" fill="#16a34a" opacity="0.82" rx="1"/>
<line x1="107.5" y1="197.1" x2="107.5" y2="230.9" stroke="#16a34a" stroke-width="1"/><rect x="104.8" y="211.5" width="5.4" height="13.9" fill="#16a34a" opacity="0.82" rx="1"/>
<line x1="116.4" y1="202.3" x2="116.4" y2="234.0" stroke="#dc2626" stroke-width="1"/><rect x="113.7" y="210.8" width="5.4" height="9.5" fill="#dc2626" opacity="0.82" rx="1"/>
<line x1="125.3" y1="179.9" x2="125.3" y2="223.0" stroke="#16a34a" stroke-width="1"/><rect x="122.5" y="191.6" width="5.4" height="29.1" fill="#16a34a" opacity="0.82" rx="1"/>
<line x1="134.1" y1="155.8" x2="134.1" y2="221.9" stroke="#16a34a" stroke-width="1"/><rect x="131.4" y="161.2" width="5.4" height="30.4" fill="#16a34a" opacity="0.82" rx="1"/>
<line x1="143.0" y1="142.4" x2="143.0" y2="185.1" stroke="#dc2626" stroke-width="1"/><rect x="140.3" y="161.3" width="5.4" height="18.9" fill="#dc2626" opacity="0.82" rx="1"/>
<line x1="151.9" y1="153.0" x2="151.9" y2="203.5" stroke="#dc2626" stroke-width="1"/><rect x="149.2" y="180.0" width="5.4" height="5.3" fill="#dc2626" opacity="0.82" rx="1"/>
<line x1="160.8" y1="143.9" x2="160.8" y2="194.9" stroke="#16a34a" stroke-width="1"/><rect x="158.0" y="143.9" width="5.4" height="41.3" fill="#16a34a" opacity="0.82" rx="1"/>
<line x1="169.6" y1="142.5" x2="169.6" y2="163.5" stroke="#dc2626" stroke-width="1"/><rect x="166.9" y="144.4" width="5.4" height="10.1" fill="#dc2626" opacity="0.82" rx="1"/>
<line x1="178.5" y1="151.3" x2="178.5" y2="168.2" stroke="#dc2626" stroke-width="1"/><rect x="175.8" y="154.5" width="5.4" height="10.9" fill="#dc2626" opacity="0.82" rx="1"/>
<line x1="187.4" y1="125.1" x2="187.4" y2="167.7" stroke="#16a34a" stroke-width="1"/><rect x="184.7" y="148.0" width="5.4" height="17.3" fill="#16a34a" opacity="0.82" rx="1"/>
<line x1="196.3" y1="117.3" x2="196.3" y2="160.4" stroke="#16a34a" stroke-width="1"/><rect x="193.5" y="136.0" width="5.4" height="12.0" fill="#16a34a" opacity="0.82" rx="1"/>
<line x1="205.1" y1="131.0" x2="205.1" y2="150.8" stroke="#dc2626" stroke-width="1"/><rect x="202.4" y="136.0" width="5.4" height="6.3" fill="#dc2626" opacity="0.82" rx="1"/>
<line x1="214.0" y1="129.1" x2="214.0" y2="164.7" stroke="#dc2626" stroke-width="1"/><rect x="211.3" y="142.3" width="5.4" height="4.5" fill="#dc2626" opacity="0.82" rx="1"/>
<line x1="222.9" y1="113.5" x2="222.9" y2="152.0" stroke="#16a34a" stroke-width="1"/><rect x="220.2" y="122.2" width="5.4" height="24.1" fill="#16a34a" opacity="0.82" rx="1"/>
<line x1="231.8" y1="122.2" x2="231.8" y2="170.8" stroke="#dc2626" stroke-width="1"/><rect x="229.1" y="122.2" width="5.4" height="43.7" fill="#dc2626" opacity="0.82" rx="1"/>
<line x1="240.7" y1="125.3" x2="240.7" y2="179.2" stroke="#16a34a" stroke-width="1"/><rect x="237.9" y="142.6" width="5.4" height="23.4" fill="#16a34a" opacity="0.82" rx="1"/>
<line x1="249.5" y1="100.0" x2="249.5" y2="151.0" stroke="#16a34a" stroke-width="1"/><rect x="246.8" y="115.2" width="5.4" height="27.4" fill="#16a34a" opacity="0.82" rx="1"/>
<line x1="258.4" y1="83.1" x2="258.4" y2="125.6" stroke="#16a34a" stroke-width="1"/><rect x="255.7" y="105.1" width="5.4" height="9.9" fill="#16a34a" opacity="0.82" rx="1"/>
<line x1="267.3" y1="97.5" x2="267.3" y2="129.7" stroke="#dc2626" stroke-width="1"/><rect x="264.6" y="105.3" width="5.4" height="5.5" fill="#dc2626" opacity="0.82" rx="1"/>
<line x1="276.2" y1="98.2" x2="276.2" y2="140.2" stroke="#dc2626" stroke-width="1"/><rect x="273.4" y="110.8" width="5.4" height="7.9" fill="#dc2626" opacity="0.82" rx="1"/>
<line x1="285.0" y1="94.5" x2="285.0" y2="124.8" stroke="#16a34a" stroke-width="1"/><rect x="282.3" y="107.1" width="5.4" height="11.6" fill="#16a34a" opacity="0.82" rx="1"/>
<line x1="293.9" y1="104.1" x2="293.9" y2="129.2" stroke="#dc2626" stroke-width="1"/><rect x="291.2" y="107.4" width="5.4" height="20.5" fill="#dc2626" opacity="0.82" rx="1"/>
<line x1="302.8" y1="118.0" x2="302.8" y2="146.2" stroke="#dc2626" stroke-width="1"/><rect x="300.1" y="126.9" width="5.4" height="7.1" fill="#dc2626" opacity="0.82" rx="1"/>
<line x1="311.7" y1="120.2" x2="311.7" y2="154.1" stroke="#dc2626" stroke-width="1"/><rect x="308.9" y="134.0" width="5.4" height="12.2" fill="#dc2626" opacity="0.82" rx="1"/>
<line x1="320.5" y1="141.7" x2="320.5" y2="158.7" stroke="#dc2626" stroke-width="1"/><rect x="317.8" y="146.2" width="5.4" height="2.8" fill="#dc2626" opacity="0.82" rx="1"/>
<line x1="329.4" y1="123.9" x2="329.4" y2="149.9" stroke="#16a34a" stroke-width="1"/><rect x="326.7" y="138.9" width="5.4" height="10.2" fill="#16a34a" opacity="0.82" rx="1"/>
<line x1="338.3" y1="117.6" x2="338.3" y2="162.1" stroke="#dc2626" stroke-width="1"/><rect x="335.6" y="138.9" width="5.4" height="14.6" fill="#dc2626" opacity="0.82" rx="1"/>
<line x1="347.2" y1="137.8" x2="347.2" y2="158.5" stroke="#16a34a" stroke-width="1"/><rect x="344.4" y="152.2" width="5.4" height="1.3" fill="#16a34a" opacity="0.82" rx="1"/>
<line x1="356.0" y1="121.0" x2="356.0" y2="155.0" stroke="#16a34a" stroke-width="1"/><rect x="353.3" y="147.6" width="5.4" height="4.6" fill="#16a34a" opacity="0.82" rx="1"/>
<line x1="364.9" y1="136.0" x2="364.9" y2="169.0" stroke="#dc2626" stroke-width="1"/><rect x="362.2" y="147.6" width="5.4" height="17.7" fill="#dc2626" opacity="0.82" rx="1"/>
<line x1="373.8" y1="139.0" x2="373.8" y2="176.3" stroke="#16a34a" stroke-width="1"/><rect x="371.1" y="147.5" width="5.4" height="17.9" fill="#16a34a" opacity="0.82" rx="1"/>
<line x1="382.7" y1="145.2" x2="382.7" y2="197.1" stroke="#dc2626" stroke-width="1"/><rect x="380.0" y="147.2" width="5.4" height="42.3" fill="#dc2626" opacity="0.82" rx="1"/>
<line x1="391.6" y1="176.1" x2="391.6" y2="206.4" stroke="#16a34a" stroke-width="1"/><rect x="388.8" y="181.8" width="5.4" height="7.6" fill="#16a34a" opacity="0.82" rx="1"/>
<line x1="400.4" y1="173.3" x2="400.4" y2="199.7" stroke="#dc2626" stroke-width="1"/><rect x="397.7" y="181.8" width="5.4" height="6.0" fill="#dc2626" opacity="0.82" rx="1"/>
<line x1="409.3" y1="164.8" x2="409.3" y2="190.9" stroke="#16a34a" stroke-width="1"/><rect x="406.6" y="170.8" width="5.4" height="16.9" fill="#16a34a" opacity="0.82" rx="1"/>
<line x1="418.2" y1="166.4" x2="418.2" y2="186.1" stroke="#dc2626" stroke-width="1"/><rect x="415.5" y="170.8" width="5.4" height="5.1" fill="#dc2626" opacity="0.82" rx="1"/>
<line x1="427.1" y1="173.0" x2="427.1" y2="194.3" stroke="#dc2626" stroke-width="1"/><rect x="424.3" y="175.5" width="5.4" height="8.3" fill="#dc2626" opacity="0.82" rx="1"/>
<line x1="435.9" y1="182.5" x2="435.9" y2="220.4" stroke="#dc2626" stroke-width="1"/><rect x="433.2" y="183.8" width="5.4" height="24.6" fill="#dc2626" opacity="0.82" rx="1"/>
<line x1="444.8" y1="206.9" x2="444.8" y2="241.9" stroke="#dc2626" stroke-width="1"/><rect x="442.1" y="208.4" width="5.4" height="15.9" fill="#dc2626" opacity="0.82" rx="1"/>
<line x1="453.7" y1="224.4" x2="453.7" y2="259.0" stroke="#dc2626" stroke-width="1"/><rect x="451.0" y="224.4" width="5.4" height="18.1" fill="#dc2626" opacity="0.82" rx="1"/>
<line x1="462.6" y1="236.5" x2="462.6" y2="253.9" stroke="#16a34a" stroke-width="1"/><rect x="459.8" y="239.0" width="5.4" height="3.5" fill="#16a34a" opacity="0.82" rx="1"/>
<line x1="471.4" y1="205.6" x2="471.4" y2="239.1" stroke="#16a34a" stroke-width="1"/><rect x="468.7" y="233.8" width="5.4" height="5.2" fill="#16a34a" opacity="0.82" rx="1"/>
<line x1="480.3" y1="234.0" x2="480.3" y2="259.8" stroke="#dc2626" stroke-width="1"/><rect x="477.6" y="234.0" width="5.4" height="11.9" fill="#dc2626" opacity="0.82" rx="1"/>
<line x1="489.2" y1="235.8" x2="489.2" y2="254.5" stroke="#16a34a" stroke-width="1"/><rect x="486.5" y="241.8" width="5.4" height="4.8" fill="#16a34a" opacity="0.82" rx="1"/>
<line x1="498.1" y1="236.6" x2="498.1" y2="253.5" stroke="#16a34a" stroke-width="1"/><rect x="495.3" y="237.9" width="5.4" height="3.9" fill="#16a34a" opacity="0.82" rx="1"/>
<line x1="506.9" y1="225.1" x2="506.9" y2="248.1" stroke="#16a34a" stroke-width="1"/><rect x="504.2" y="228.5" width="5.4" height="9.4" fill="#16a34a" opacity="0.82" rx="1"/>
<line x1="515.8" y1="226.0" x2="515.8" y2="254.1" stroke="#dc2626" stroke-width="1"/><rect x="513.1" y="229.5" width="5.4" height="18.7" fill="#dc2626" opacity="0.82" rx="1"/>
<line x1="524.7" y1="218.6" x2="524.7" y2="252.8" stroke="#16a34a" stroke-width="1"/><rect x="522.0" y="224.7" width="5.4" height="23.5" fill="#16a34a" opacity="0.82" rx="1"/>
<line x1="533.6" y1="221.3" x2="533.6" y2="248.2" stroke="#dc2626" stroke-width="1"/><rect x="530.9" y="224.7" width="5.4" height="6.2" fill="#dc2626" opacity="0.82" rx="1"/>
<line x1="542.4" y1="201.0" x2="542.4" y2="239.3" stroke="#16a34a" stroke-width="1"/><rect x="539.7" y="215.0" width="5.4" height="15.4" fill="#16a34a" opacity="0.82" rx="1"/>
<line x1="551.3" y1="197.0" x2="551.3" y2="219.6" stroke="#16a34a" stroke-width="1"/><rect x="548.6" y="211.8" width="5.4" height="3.2" fill="#16a34a" opacity="0.82" rx="1"/>
<line x1="560.2" y1="201.4" x2="560.2" y2="223.4" stroke="#16a34a" stroke-width="1"/><rect x="557.5" y="202.9" width="5.4" height="8.9" fill="#16a34a" opacity="0.82" rx="1"/>
<line x1="569.1" y1="183.0" x2="569.1" y2="207.7" stroke="#16a34a" stroke-width="1"/><rect x="566.4" y="199.0" width="5.4" height="4.0" fill="#16a34a" opacity="0.82" rx="1"/>
<line x1="578.0" y1="198.5" x2="578.0" y2="215.9" stroke="#dc2626" stroke-width="1"/><rect x="575.2" y="199.1" width="5.4" height="7.2" fill="#dc2626" opacity="0.82" rx="1"/>
<line x1="586.8" y1="200.4" x2="586.8" y2="217.8" stroke="#dc2626" stroke-width="1"/><rect x="584.1" y="206.6" width="5.4" height="6.2" fill="#dc2626" opacity="0.82" rx="1"/>
<line x1="595.7" y1="205.3" x2="595.7" y2="218.4" stroke="#16a34a" stroke-width="1"/><rect x="593.0" y="212.4" width="5.4" height="1.2" fill="#16a34a" opacity="0.82" rx="1"/>
<line x1="604.6" y1="179.8" x2="604.6" y2="213.8" stroke="#16a34a" stroke-width="1"/><rect x="601.9" y="187.7" width="5.4" height="24.7" fill="#16a34a" opacity="0.82" rx="1"/>
<line x1="613.5" y1="133.8" x2="613.5" y2="189.7" stroke="#16a34a" stroke-width="1"/><rect x="610.7" y="136.3" width="5.4" height="51.0" fill="#16a34a" opacity="0.82" rx="1"/>
<line x1="622.3" y1="114.5" x2="622.3" y2="154.8" stroke="#16a34a" stroke-width="1"/><rect x="619.6" y="129.0" width="5.4" height="6.9" fill="#16a34a" opacity="0.82" rx="1"/>
<line x1="631.2" y1="96.9" x2="631.2" y2="136.4" stroke="#16a34a" stroke-width="1"/><rect x="628.5" y="105.0" width="5.4" height="24.0" fill="#16a34a" opacity="0.82" rx="1"/>
<line x1="640.1" y1="102.9" x2="640.1" y2="129.3" stroke="#dc2626" stroke-width="1"/><rect x="637.4" y="105.1" width="5.4" height="9.3" fill="#dc2626" opacity="0.82" rx="1"/>
<line x1="649.0" y1="60.3" x2="649.0" y2="124.3" stroke="#16a34a" stroke-width="1"/><rect x="646.2" y="60.9" width="5.4" height="53.5" fill="#16a34a" opacity="0.82" rx="1"/>
<line x1="657.8" y1="55.1" x2="657.8" y2="97.8" stroke="#dc2626" stroke-width="1"/><rect x="655.1" y="61.0" width="5.4" height="31.4" fill="#dc2626" opacity="0.82" rx="1"/>
<line x1="666.7" y1="66.5" x2="666.7" y2="105.9" stroke="#16a34a" stroke-width="1"/><rect x="664.0" y="73.0" width="5.4" height="19.5" fill="#16a34a" opacity="0.82" rx="1"/>
<line x1="675.6" y1="65.4" x2="675.6" y2="116.6" stroke="#dc2626" stroke-width="1"/><rect x="672.9" y="73.0" width="5.4" height="29.4" fill="#dc2626" opacity="0.82" rx="1"/>
<line x1="684.5" y1="94.6" x2="684.5" y2="125.8" stroke="#dc2626" stroke-width="1"/><rect x="681.8" y="102.5" width="5.4" height="1.2" fill="#dc2626" opacity="0.82" rx="1"/>
<line x1="693.3" y1="96.1" x2="693.3" y2="146.7" stroke="#dc2626" stroke-width="1"/><rect x="690.6" y="103.4" width="5.4" height="40.1" fill="#dc2626" opacity="0.82" rx="1"/>
<line x1="702.2" y1="120.8" x2="702.2" y2="146.4" stroke="#16a34a" stroke-width="1"/><rect x="699.5" y="123.4" width="5.4" height="20.1" fill="#16a34a" opacity="0.82" rx="1"/>
<line x1="711.1" y1="120.3" x2="711.1" y2="141.0" stroke="#dc2626" stroke-width="1"/><rect x="708.4" y="123.4" width="5.4" height="14.5" fill="#dc2626" opacity="0.82" rx="1"/>
<line x1="720.0" y1="125.8" x2="720.0" y2="175.4" stroke="#dc2626" stroke-width="1"/><rect x="717.3" y="137.9" width="5.4" height="25.9" fill="#dc2626" opacity="0.82" rx="1"/>
<line x1="728.9" y1="161.1" x2="728.9" y2="188.3" stroke="#dc2626" stroke-width="1"/><rect x="726.1" y="163.8" width="5.4" height="15.4" fill="#dc2626" opacity="0.82" rx="1"/>
<line x1="737.7" y1="149.4" x2="737.7" y2="179.4" stroke="#16a34a" stroke-width="1"/><rect x="735.0" y="157.8" width="5.4" height="21.5" fill="#16a34a" opacity="0.82" rx="1"/>
<line x1="746.6" y1="130.5" x2="746.6" y2="181.9" stroke="#dc2626" stroke-width="1"/><rect x="743.9" y="157.8" width="5.4" height="19.4" fill="#dc2626" opacity="0.82" rx="1"/>
<line x1="755.5" y1="173.5" x2="755.5" y2="222.2" stroke="#dc2626" stroke-width="1"/><rect x="752.8" y="176.5" width="5.4" height="41.4" fill="#dc2626" opacity="0.82" rx="1"/>
<line x1="764.4" y1="182.9" x2="764.4" y2="240.6" stroke="#16a34a" stroke-width="1"/><rect x="761.6" y="193.2" width="5.4" height="24.7" fill="#16a34a" opacity="0.82" rx="1"/>
<line x1="773.2" y1="162.9" x2="773.2" y2="201.8" stroke="#16a34a" stroke-width="1"/><rect x="770.5" y="185.6" width="5.4" height="7.4" fill="#16a34a" opacity="0.82" rx="1"/>
<line x1="782.1" y1="138.2" x2="782.1" y2="185.6" stroke="#16a34a" stroke-width="1"/><rect x="779.4" y="143.4" width="5.4" height="42.2" fill="#16a34a" opacity="0.82" rx="1"/>
<line x1="791.0" y1="117.8" x2="791.0" y2="145.4" stroke="#16a34a" stroke-width="1"/><rect x="788.3" y="117.8" width="5.4" height="25.1" fill="#16a34a" opacity="0.82" rx="1"/>
<line x1="799.9" y1="104.1" x2="799.9" y2="132.2" stroke="#dc2626" stroke-width="1"/><rect x="797.1" y="117.8" width="5.4" height="9.1" fill="#dc2626" opacity="0.82" rx="1"/>
<line x1="808.7" y1="101.8" x2="808.7" y2="128.3" stroke="#16a34a" stroke-width="1"/><rect x="806.0" y="120.9" width="5.4" height="5.8" fill="#16a34a" opacity="0.82" rx="1"/>
<line x1="817.6" y1="96.6" x2="817.6" y2="124.5" stroke="#16a34a" stroke-width="1"/><rect x="814.9" y="101.5" width="5.4" height="19.5" fill="#16a34a" opacity="0.82" rx="1"/>
<line x1="826.5" y1="101.9" x2="826.5" y2="139.1" stroke="#dc2626" stroke-width="1"/><rect x="823.8" y="102.2" width="5.4" height="31.3" fill="#dc2626" opacity="0.82" rx="1"/>
<line x1="835.4" y1="95.9" x2="835.4" y2="137.6" stroke="#16a34a" stroke-width="1"/><rect x="832.6" y="101.6" width="5.4" height="31.9" fill="#16a34a" opacity="0.82" rx="1"/>
<line x1="844.2" y1="100.9" x2="844.2" y2="130.7" stroke="#dc2626" stroke-width="1"/><rect x="841.5" y="101.4" width="5.4" height="24.2" fill="#dc2626" opacity="0.82" rx="1"/>
<line x1="853.1" y1="123.7" x2="853.1" y2="153.0" stroke="#dc2626" stroke-width="1"/><rect x="850.4" y="125.3" width="5.4" height="23.8" fill="#dc2626" opacity="0.82" rx="1"/>
<line x1="862.0" y1="147.9" x2="862.0" y2="156.6" stroke="#dc2626" stroke-width="1"/><rect x="859.3" y="149.3" width="5.4" height="3.5" fill="#dc2626" opacity="0.82" rx="1"/>
<line x1="72" y1="206.6" x2="862" y2="206.6" stroke="#16a34a" stroke-width="1.8" stroke-dasharray="6 4" /><rect x="874" y="186.6" width="166" height="23" rx="5" fill="#ffffff" stroke="#16a34a" opacity="0.97"/><text x="881" y="202.6" fill="#16a34a" font-size="15" font-weight="700">日内支撑 69.35</text>
<line x1="72" y1="63.3" x2="862" y2="63.3" stroke="#dc2626" stroke-width="1.8" stroke-dasharray="6 4" /><rect x="874" y="43.3" width="166" height="23" rx="5" fill="#ffffff" stroke="#dc2626" opacity="0.97"/><text x="881" y="59.3" fill="#dc2626" font-size="15" font-weight="700">日内压力 72.42</text>
<line x1="72" y1="152.8" x2="862" y2="152.8" stroke="#111827" stroke-width="1.8" stroke-dasharray="2 2" /><rect x="874" y="132.8" width="166" height="23" rx="5" fill="#ffffff" stroke="#111827" opacity="0.97"/><text x="881" y="148.8" fill="#111827" font-size="15" font-weight="700">现价 70.50</text>
<text x="72" y="396" fill="#16a34a" font-size="14" font-weight="700">日内做多计划</text><rect x="72" y="404" width="790" height="48" rx="6" fill="#f9fafb" stroke="#e5e7eb"/><line x1="94" y1="412" x2="840" y2="412" stroke="#16a34a" stroke-width="3"/><circle cx="132.0" cy="412" r="5" fill="#16a34a"/><text x="132.0" y="434" fill="#374151" font-size="12" text-anchor="middle">入场 止跌/突破回踩</text><circle cx="451.2" cy="412" r="5" fill="#16a34a"/><text x="451.2" y="434" fill="#374151" font-size="12" text-anchor="middle">止损 69.35</text><circle cx="712.0" cy="412" r="5" fill="#16a34a"/><text x="712.0" y="434" fill="#374151" font-size="12" text-anchor="middle">目标一 72.42</text><circle cx="814.0" cy="412" r="5" fill="#16a34a"/><text x="814.0" y="434" fill="#374151" font-size="12" text-anchor="middle">目标二 73.19</text>
<text x="72" y="482" fill="#dc2626" font-size="14" font-weight="700">日内做空计划</text><rect x="72" y="490" width="790" height="48" rx="6" fill="#f9fafb" stroke="#e5e7eb"/><line x1="94" y1="498" x2="840" y2="498" stroke="#dc2626" stroke-width="3"/><circle cx="132.0" cy="498" r="5" fill="#dc2626"/><text x="132.0" y="520" fill="#374151" font-size="12" text-anchor="middle">入场 反弹承压/破位回抽</text><circle cx="451.2" cy="498" r="5" fill="#dc2626"/><text x="451.2" y="520" fill="#374151" font-size="12" text-anchor="middle">止损 72.42</text><circle cx="712.0" cy="498" r="5" fill="#dc2626"/><text x="712.0" y="520" fill="#374151" font-size="12" text-anchor="middle">目标一 69.35</text><circle cx="814.0" cy="498" r="5" fill="#dc2626"/><text x="814.0" y="520" fill="#374151" font-size="12" text-anchor="middle">目标二 68.58</text>
</svg>