<svg xmlns="http://www.w3.org/2000/svg" width="1080" height="560" viewBox="0 0 1080 560">
<rect width="100%" height="100%" fill="#ffffff"/>
<text x="72" y="23" fill="#111827" font-size="21" font-weight="800">DRAM 小时线K线支撑压力图</text>
<text x="862" y="42" fill="#374151" font-size="15" text-anchor="end">最新价 61.77</text>
<line x1="72" y1="34" x2="72" y2="340" stroke="#d1d5db"/>
<line x1="72" y1="340" x2="862" y2="340" stroke="#d1d5db"/>
<line x1="72" y1="340.0" x2="862" y2="340.0" stroke="#f3f4f6"/>
<text x="8" y="345.0" fill="#4b5563" font-size="14">58.76</text>
<line x1="72" y1="263.5" x2="862" y2="263.5" stroke="#f3f4f6"/>
<text x="8" y="268.5" fill="#4b5563" font-size="14">61.05</text>
<line x1="72" y1="187.0" x2="862" y2="187.0" stroke="#f3f4f6"/>
<text x="8" y="192.0" fill="#4b5563" font-size="14">63.34</text>
<line x1="72" y1="110.5" x2="862" y2="110.5" stroke="#f3f4f6"/>
<text x="8" y="115.5" fill="#4b5563" font-size="14">65.63</text>
<line x1="72" y1="34.0" x2="862" y2="34.0" stroke="#f3f4f6"/>
<text x="8" y="39.0" fill="#4b5563" font-size="14">67.92</text>
<line x1="72.0" y1="119.9" x2="72.0" y2="141.3" stroke="#16a34a" stroke-width="1"/><rect x="69.3" y="127.9" width="5.4" height="3.7" fill="#16a34a" opacity="0.82" rx="1"/>
<line x1="80.9" y1="120.9" x2="80.9" y2="134.2" stroke="#16a34a" stroke-width="1"/><rect x="78.2" y="125.2" width="5.4" height="2.3" fill="#16a34a" opacity="0.82" rx="1"/>
<line x1="89.8" y1="120.2" x2="89.8" y2="132.6" stroke="#dc2626" stroke-width="1"/><rect x="87.0" y="125.2" width="5.4" height="5.3" fill="#dc2626" opacity="0.82" rx="1"/>
<line x1="98.6" y1="119.9" x2="98.6" y2="131.6" stroke="#16a34a" stroke-width="1"/><rect x="95.9" y="126.2" width="5.4" height="4.3" fill="#16a34a" opacity="0.82" rx="1"/>
<line x1="107.5" y1="118.5" x2="107.5" y2="145.6" stroke="#dc2626" stroke-width="1"/><rect x="104.8" y="125.9" width="5.4" height="6.3" fill="#dc2626" opacity="0.82" rx="1"/>
<line x1="116.4" y1="119.5" x2="116.4" y2="135.9" stroke="#dc2626" stroke-width="1"/><rect x="113.7" y="131.9" width="5.4" height="1.2" fill="#dc2626" opacity="0.82" rx="1"/>
<line x1="125.3" y1="126.6" x2="125.3" y2="140.3" stroke="#16a34a" stroke-width="1"/><rect x="122.5" y="129.2" width="5.4" height="4.0" fill="#16a34a" opacity="0.82" rx="1"/>
<line x1="134.1" y1="118.5" x2="134.1" y2="131.9" stroke="#16a34a" stroke-width="1"/><rect x="131.4" y="119.9" width="5.4" height="9.0" fill="#16a34a" opacity="0.82" rx="1"/>
<line x1="143.0" y1="118.5" x2="143.0" y2="128.6" stroke="#dc2626" stroke-width="1"/><rect x="140.3" y="119.9" width="5.4" height="3.3" fill="#dc2626" opacity="0.82" rx="1"/>
<line x1="151.9" y1="118.2" x2="151.9" y2="128.6" stroke="#16a34a" stroke-width="1"/><rect x="149.2" y="120.2" width="5.4" height="3.0" fill="#16a34a" opacity="0.82" rx="1"/>
<line x1="160.8" y1="115.5" x2="160.8" y2="129.2" stroke="#dc2626" stroke-width="1"/><rect x="158.0" y="119.5" width="5.4" height="3.3" fill="#dc2626" opacity="0.82" rx="1"/>
<line x1="169.6" y1="123.2" x2="169.6" y2="141.6" stroke="#dc2626" stroke-width="1"/><rect x="166.9" y="123.2" width="5.4" height="7.7" fill="#dc2626" opacity="0.82" rx="1"/>
<line x1="178.5" y1="124.9" x2="178.5" y2="131.2" stroke="#16a34a" stroke-width="1"/><rect x="175.8" y="129.6" width="5.4" height="1.3" fill="#16a34a" opacity="0.82" rx="1"/>
<line x1="187.4" y1="124.2" x2="187.4" y2="132.6" stroke="#16a34a" stroke-width="1"/><rect x="184.7" y="128.6" width="5.4" height="1.3" fill="#16a34a" opacity="0.82" rx="1"/>
<line x1="196.3" y1="127.6" x2="196.3" y2="136.9" stroke="#dc2626" stroke-width="1"/><rect x="193.5" y="128.6" width="5.4" height="6.3" fill="#dc2626" opacity="0.82" rx="1"/>
<line x1="205.1" y1="132.2" x2="205.1" y2="153.6" stroke="#dc2626" stroke-width="1"/><rect x="202.4" y="134.6" width="5.4" height="6.3" fill="#dc2626" opacity="0.82" rx="1"/>
<line x1="214.0" y1="133.6" x2="214.0" y2="141.3" stroke="#16a34a" stroke-width="1"/><rect x="211.3" y="135.9" width="5.4" height="5.0" fill="#16a34a" opacity="0.82" rx="1"/>
<line x1="222.9" y1="130.6" x2="222.9" y2="137.9" stroke="#16a34a" stroke-width="1"/><rect x="220.2" y="132.2" width="5.4" height="4.0" fill="#16a34a" opacity="0.82" rx="1"/>
<line x1="231.8" y1="127.6" x2="231.8" y2="141.3" stroke="#dc2626" stroke-width="1"/><rect x="229.1" y="131.6" width="5.4" height="7.3" fill="#dc2626" opacity="0.82" rx="1"/>
<line x1="240.7" y1="133.9" x2="240.7" y2="140.9" stroke="#16a34a" stroke-width="1"/><rect x="237.9" y="134.6" width="5.4" height="4.3" fill="#16a34a" opacity="0.82" rx="1"/>
<line x1="249.5" y1="127.6" x2="249.5" y2="136.6" stroke="#16a34a" stroke-width="1"/><rect x="246.8" y="130.6" width="5.4" height="4.0" fill="#16a34a" opacity="0.82" rx="1"/>
<line x1="258.4" y1="130.2" x2="258.4" y2="137.6" stroke="#dc2626" stroke-width="1"/><rect x="255.7" y="130.9" width="5.4" height="2.3" fill="#dc2626" opacity="0.82" rx="1"/>
<line x1="267.3" y1="132.2" x2="267.3" y2="137.9" stroke="#dc2626" stroke-width="1"/><rect x="264.6" y="132.9" width="5.4" height="2.7" fill="#dc2626" opacity="0.82" rx="1"/>
<line x1="276.2" y1="132.9" x2="276.2" y2="141.9" stroke="#dc2626" stroke-width="1"/><rect x="273.4" y="135.6" width="5.4" height="3.3" fill="#dc2626" opacity="0.82" rx="1"/>
<line x1="285.0" y1="134.9" x2="285.0" y2="140.3" stroke="#16a34a" stroke-width="1"/><rect x="282.3" y="136.2" width="5.4" height="2.7" fill="#16a34a" opacity="0.82" rx="1"/>
<line x1="293.9" y1="128.9" x2="293.9" y2="136.9" stroke="#16a34a" stroke-width="1"/><rect x="291.2" y="132.2" width="5.4" height="4.0" fill="#16a34a" opacity="0.82" rx="1"/>
<line x1="302.8" y1="131.9" x2="302.8" y2="143.3" stroke="#dc2626" stroke-width="1"/><rect x="300.1" y="132.2" width="5.4" height="10.7" fill="#dc2626" opacity="0.82" rx="1"/>
<line x1="311.7" y1="129.2" x2="311.7" y2="146.9" stroke="#16a34a" stroke-width="1"/><rect x="308.9" y="133.9" width="5.4" height="9.0" fill="#16a34a" opacity="0.82" rx="1"/>
<line x1="320.5" y1="129.6" x2="320.5" y2="136.2" stroke="#16a34a" stroke-width="1"/><rect x="317.8" y="129.9" width="5.4" height="4.3" fill="#16a34a" opacity="0.82" rx="1"/>
<line x1="329.4" y1="124.2" x2="329.4" y2="131.9" stroke="#16a34a" stroke-width="1"/><rect x="326.7" y="127.9" width="5.4" height="2.3" fill="#16a34a" opacity="0.82" rx="1"/>
<line x1="338.3" y1="125.2" x2="338.3" y2="142.6" stroke="#dc2626" stroke-width="1"/><rect x="335.6" y="127.6" width="5.4" height="4.7" fill="#dc2626" opacity="0.82" rx="1"/>
<line x1="347.2" y1="127.6" x2="347.2" y2="132.2" stroke="#16a34a" stroke-width="1"/><rect x="344.4" y="128.6" width="5.4" height="3.7" fill="#16a34a" opacity="0.82" rx="1"/>
<line x1="356.0" y1="119.9" x2="356.0" y2="130.9" stroke="#16a34a" stroke-width="1"/><rect x="353.3" y="121.9" width="5.4" height="7.0" fill="#16a34a" opacity="0.82" rx="1"/>
<line x1="364.9" y1="120.2" x2="364.9" y2="129.6" stroke="#dc2626" stroke-width="1"/><rect x="362.2" y="121.9" width="5.4" height="2.3" fill="#dc2626" opacity="0.82" rx="1"/>
<line x1="373.8" y1="116.9" x2="373.8" y2="130.6" stroke="#16a34a" stroke-width="1"/><rect x="371.1" y="120.2" width="5.4" height="4.3" fill="#16a34a" opacity="0.82" rx="1"/>
<line x1="382.7" y1="116.5" x2="382.7" y2="122.9" stroke="#16a34a" stroke-width="1"/><rect x="380.0" y="117.5" width="5.4" height="2.7" fill="#16a34a" opacity="0.82" rx="1"/>
<line x1="391.6" y1="112.9" x2="391.6" y2="123.2" stroke="#16a34a" stroke-width="1"/><rect x="388.8" y="116.9" width="5.4" height="1.2" fill="#16a34a" opacity="0.82" rx="1"/>
<line x1="400.4" y1="113.9" x2="400.4" y2="118.5" stroke="#16a34a" stroke-width="1"/><rect x="397.7" y="116.2" width="5.4" height="1.2" fill="#16a34a" opacity="0.82" rx="1"/>
<line x1="409.3" y1="110.2" x2="409.3" y2="117.9" stroke="#16a34a" stroke-width="1"/><rect x="406.6" y="112.2" width="5.4" height="4.0" fill="#16a34a" opacity="0.82" rx="1"/>
<line x1="418.2" y1="108.9" x2="418.2" y2="117.5" stroke="#dc2626" stroke-width="1"/><rect x="415.5" y="112.2" width="5.4" height="2.3" fill="#dc2626" opacity="0.82" rx="1"/>
<line x1="427.1" y1="110.9" x2="427.1" y2="116.5" stroke="#16a34a" stroke-width="1"/><rect x="424.3" y="112.5" width="5.4" height="2.3" fill="#16a34a" opacity="0.82" rx="1"/>
<line x1="435.9" y1="105.5" x2="435.9" y2="114.5" stroke="#16a34a" stroke-width="1"/><rect x="433.2" y="112.5" width="5.4" height="1.2" fill="#16a34a" opacity="0.82" rx="1"/>
<line x1="444.8" y1="110.9" x2="444.8" y2="116.5" stroke="#dc2626" stroke-width="1"/><rect x="442.1" y="112.5" width="5.4" height="3.3" fill="#dc2626" opacity="0.82" rx="1"/>
<line x1="453.7" y1="114.9" x2="453.7" y2="126.9" stroke="#dc2626" stroke-width="1"/><rect x="451.0" y="116.2" width="5.4" height="6.7" fill="#dc2626" opacity="0.82" rx="1"/>
<line x1="462.6" y1="108.2" x2="462.6" y2="124.6" stroke="#16a34a" stroke-width="1"/><rect x="459.8" y="112.5" width="5.4" height="10.0" fill="#16a34a" opacity="0.82" rx="1"/>
<line x1="471.4" y1="102.9" x2="471.4" y2="114.5" stroke="#16a34a" stroke-width="1"/><rect x="468.7" y="103.9" width="5.4" height="8.3" fill="#16a34a" opacity="0.82" rx="1"/>
<line x1="480.3" y1="100.5" x2="480.3" y2="114.5" stroke="#16a34a" stroke-width="1"/><rect x="477.6" y="100.8" width="5.4" height="3.0" fill="#16a34a" opacity="0.82" rx="1"/>
<line x1="489.2" y1="99.2" x2="489.2" y2="112.2" stroke="#dc2626" stroke-width="1"/><rect x="486.5" y="100.8" width="5.4" height="10.0" fill="#dc2626" opacity="0.82" rx="1"/>
<line x1="498.1" y1="108.5" x2="498.1" y2="124.9" stroke="#dc2626" stroke-width="1"/><rect x="495.3" y="110.9" width="5.4" height="11.4" fill="#dc2626" opacity="0.82" rx="1"/>
<line x1="506.9" y1="115.5" x2="506.9" y2="124.9" stroke="#16a34a" stroke-width="1"/><rect x="504.2" y="115.9" width="5.4" height="6.7" fill="#16a34a" opacity="0.82" rx="1"/>
<line x1="515.8" y1="109.2" x2="515.8" y2="117.2" stroke="#16a34a" stroke-width="1"/><rect x="513.1" y="113.5" width="5.4" height="3.0" fill="#16a34a" opacity="0.82" rx="1"/>
<line x1="524.7" y1="106.2" x2="524.7" y2="114.5" stroke="#16a34a" stroke-width="1"/><rect x="522.0" y="106.9" width="5.4" height="6.3" fill="#16a34a" opacity="0.82" rx="1"/>
<line x1="533.6" y1="104.2" x2="533.6" y2="110.2" stroke="#dc2626" stroke-width="1"/><rect x="530.9" y="106.5" width="5.4" height="1.7" fill="#dc2626" opacity="0.82" rx="1"/>
<line x1="542.4" y1="99.8" x2="542.4" y2="108.9" stroke="#16a34a" stroke-width="1"/><rect x="539.7" y="99.8" width="5.4" height="8.0" fill="#16a34a" opacity="0.82" rx="1"/>
<line x1="551.3" y1="98.5" x2="551.3" y2="106.9" stroke="#dc2626" stroke-width="1"/><rect x="548.6" y="99.8" width="5.4" height="5.0" fill="#dc2626" opacity="0.82" rx="1"/>
<line x1="560.2" y1="104.2" x2="560.2" y2="120.6" stroke="#dc2626" stroke-width="1"/><rect x="557.5" y="104.9" width="5.4" height="2.7" fill="#dc2626" opacity="0.82" rx="1"/>
<line x1="569.1" y1="89.5" x2="569.1" y2="111.2" stroke="#16a34a" stroke-width="1"/><rect x="566.4" y="100.2" width="5.4" height="7.0" fill="#16a34a" opacity="0.82" rx="1"/>
<line x1="578.0" y1="83.5" x2="578.0" y2="134.9" stroke="#dc2626" stroke-width="1"/><rect x="575.2" y="100.5" width="5.4" height="18.0" fill="#dc2626" opacity="0.82" rx="1"/>
<line x1="586.8" y1="55.1" x2="586.8" y2="122.9" stroke="#16a34a" stroke-width="1"/><rect x="584.1" y="69.5" width="5.4" height="48.1" fill="#16a34a" opacity="0.82" rx="1"/>
<line x1="595.7" y1="66.5" x2="595.7" y2="135.6" stroke="#dc2626" stroke-width="1"/><rect x="593.0" y="69.5" width="5.4" height="49.8" fill="#dc2626" opacity="0.82" rx="1"/>
<line x1="604.6" y1="110.5" x2="604.6" y2="181.0" stroke="#dc2626" stroke-width="1"/><rect x="601.9" y="118.9" width="5.4" height="32.4" fill="#dc2626" opacity="0.82" rx="1"/>
<line x1="613.5" y1="118.2" x2="613.5" y2="155.6" stroke="#16a34a" stroke-width="1"/><rect x="610.7" y="134.6" width="5.4" height="16.4" fill="#16a34a" opacity="0.82" rx="1"/>
<line x1="622.3" y1="99.8" x2="622.3" y2="145.9" stroke="#16a34a" stroke-width="1"/><rect x="619.6" y="108.9" width="5.4" height="25.7" fill="#16a34a" opacity="0.82" rx="1"/>
<line x1="631.2" y1="107.2" x2="631.2" y2="136.2" stroke="#dc2626" stroke-width="1"/><rect x="628.5" y="108.9" width="5.4" height="2.3" fill="#dc2626" opacity="0.82" rx="1"/>
<line x1="640.1" y1="105.2" x2="640.1" y2="133.9" stroke="#dc2626" stroke-width="1"/><rect x="637.4" y="111.2" width="5.4" height="12.4" fill="#dc2626" opacity="0.82" rx="1"/>
<line x1="649.0" y1="118.2" x2="649.0" y2="129.6" stroke="#dc2626" stroke-width="1"/><rect x="646.2" y="123.9" width="5.4" height="1.3" fill="#dc2626" opacity="0.82" rx="1"/>
<line x1="657.8" y1="114.9" x2="657.8" y2="134.9" stroke="#16a34a" stroke-width="1"/><rect x="655.1" y="123.9" width="5.4" height="1.7" fill="#16a34a" opacity="0.82" rx="1"/>
<line x1="666.7" y1="119.5" x2="666.7" y2="141.6" stroke="#dc2626" stroke-width="1"/><rect x="664.0" y="123.6" width="5.4" height="10.7" fill="#dc2626" opacity="0.82" rx="1"/>
<line x1="675.6" y1="129.2" x2="675.6" y2="139.9" stroke="#16a34a" stroke-width="1"/><rect x="672.9" y="129.9" width="5.4" height="4.3" fill="#16a34a" opacity="0.82" rx="1"/>
<line x1="684.5" y1="116.9" x2="684.5" y2="143.9" stroke="#16a34a" stroke-width="1"/><rect x="681.8" y="126.6" width="5.4" height="3.3" fill="#16a34a" opacity="0.82" rx="1"/>
<line x1="693.3" y1="112.5" x2="693.3" y2="131.2" stroke="#16a34a" stroke-width="1"/><rect x="690.6" y="116.9" width="5.4" height="9.7" fill="#16a34a" opacity="0.82" rx="1"/>
<line x1="702.2" y1="106.9" x2="702.2" y2="154.6" stroke="#dc2626" stroke-width="1"/><rect x="699.5" y="116.9" width="5.4" height="14.0" fill="#dc2626" opacity="0.82" rx="1"/>
<line x1="711.1" y1="97.8" x2="711.1" y2="133.9" stroke="#16a34a" stroke-width="1"/><rect x="708.4" y="114.5" width="5.4" height="16.0" fill="#16a34a" opacity="0.82" rx="1"/>
<line x1="720.0" y1="111.5" x2="720.0" y2="145.6" stroke="#16a34a" stroke-width="1"/><rect x="717.3" y="112.9" width="5.4" height="1.3" fill="#16a34a" opacity="0.82" rx="1"/>
<line x1="728.9" y1="104.5" x2="728.9" y2="126.6" stroke="#dc2626" stroke-width="1"/><rect x="726.1" y="113.2" width="5.4" height="12.0" fill="#dc2626" opacity="0.82" rx="1"/>
<line x1="737.7" y1="120.6" x2="737.7" y2="153.3" stroke="#dc2626" stroke-width="1"/><rect x="735.0" y="125.2" width="5.4" height="25.0" fill="#dc2626" opacity="0.82" rx="1"/>
<line x1="746.6" y1="131.6" x2="746.6" y2="150.3" stroke="#16a34a" stroke-width="1"/><rect x="743.9" y="136.2" width="5.4" height="14.0" fill="#16a34a" opacity="0.82" rx="1"/>
<line x1="755.5" y1="123.2" x2="755.5" y2="145.6" stroke="#dc2626" stroke-width="1"/><rect x="752.8" y="136.2" width="5.4" height="6.7" fill="#dc2626" opacity="0.82" rx="1"/>
<line x1="764.4" y1="129.6" x2="764.4" y2="143.9" stroke="#16a34a" stroke-width="1"/><rect x="761.6" y="130.2" width="5.4" height="12.7" fill="#16a34a" opacity="0.82" rx="1"/>
<line x1="773.2" y1="124.6" x2="773.2" y2="131.9" stroke="#16a34a" stroke-width="1"/><rect x="770.5" y="127.2" width="5.4" height="3.0" fill="#16a34a" opacity="0.82" rx="1"/>
<line x1="782.1" y1="115.2" x2="782.1" y2="191.3" stroke="#dc2626" stroke-width="1"/><rect x="779.4" y="126.9" width="5.4" height="48.1" fill="#dc2626" opacity="0.82" rx="1"/>
<line x1="791.0" y1="159.6" x2="791.0" y2="227.4" stroke="#dc2626" stroke-width="1"/><rect x="788.3" y="174.6" width="5.4" height="48.1" fill="#dc2626" opacity="0.82" rx="1"/>
<line x1="799.9" y1="180.7" x2="799.9" y2="235.8" stroke="#dc2626" stroke-width="1"/><rect x="797.1" y="223.1" width="5.4" height="9.0" fill="#dc2626" opacity="0.82" rx="1"/>
<line x1="808.7" y1="215.7" x2="808.7" y2="267.1" stroke="#dc2626" stroke-width="1"/><rect x="806.0" y="232.1" width="5.4" height="9.3" fill="#dc2626" opacity="0.82" rx="1"/>
<line x1="817.6" y1="229.1" x2="817.6" y2="270.1" stroke="#dc2626" stroke-width="1"/><rect x="814.9" y="241.1" width="5.4" height="21.4" fill="#dc2626" opacity="0.82" rx="1"/>
<line x1="826.5" y1="247.8" x2="826.5" y2="293.2" stroke="#dc2626" stroke-width="1"/><rect x="823.8" y="262.5" width="5.4" height="24.0" fill="#dc2626" opacity="0.82" rx="1"/>
<line x1="835.4" y1="273.8" x2="835.4" y2="309.5" stroke="#dc2626" stroke-width="1"/><rect x="832.6" y="286.5" width="5.4" height="11.7" fill="#dc2626" opacity="0.82" rx="1"/>
<line x1="844.2" y1="235.8" x2="844.2" y2="318.9" stroke="#16a34a" stroke-width="1"/><rect x="841.5" y="247.1" width="5.4" height="50.8" fill="#16a34a" opacity="0.82" rx="1"/>
<line x1="853.1" y1="233.1" x2="853.1" y2="273.5" stroke="#16a34a" stroke-width="1"/><rect x="850.4" y="240.4" width="5.4" height="6.0" fill="#16a34a" opacity="0.82" rx="1"/>
<line x1="862.0" y1="236.4" x2="862.0" y2="244.8" stroke="#16a34a" stroke-width="1"/><rect x="859.3" y="239.4" width="5.4" height="1.2" fill="#16a34a" opacity="0.82" rx="1"/>
<line x1="72" y1="300.2" x2="862" y2="300.2" stroke="#16a34a" stroke-width="1.8" stroke-dasharray="6 4" /><rect x="874" y="280.2" width="166" height="23" rx="5" fill="#ffffff" stroke="#16a34a" opacity="0.97"/><text x="881" y="296.2" fill="#16a34a" font-size="15" font-weight="700">日内支撑 59.95</text>
<line x1="72" y1="138.1" x2="862" y2="138.1" stroke="#dc2626" stroke-width="1.8" stroke-dasharray="6 4" /><rect x="874" y="118.1" width="166" height="23" rx="5" fill="#ffffff" stroke="#dc2626" opacity="0.97"/><text x="881" y="134.1" fill="#dc2626" font-size="15" font-weight="700">日内压力 64.80</text>
<line x1="72" y1="239.4" x2="862" y2="239.4" stroke="#111827" stroke-width="1.8" stroke-dasharray="2 2" /><rect x="874" y="219.4" width="166" height="23" rx="5" fill="#ffffff" stroke="#111827" opacity="0.97"/><text x="881" y="235.4" fill="#111827" font-size="15" font-weight="700">现价 61.77</text>
<text x="72" y="396" fill="#16a34a" font-size="14" font-weight="700">日内做多计划</text><rect x="72" y="404" width="790" height="48" rx="6" fill="#f9fafb" stroke="#e5e7eb"/><line x1="94" y1="412" x2="840" y2="412" stroke="#16a34a" stroke-width="3"/><circle cx="132.0" cy="412" r="5" fill="#16a34a"/><text x="132.0" y="434" fill="#374151" font-size="12" text-anchor="middle">入场 止跌/突破回踩</text><circle cx="451.2" cy="412" r="5" fill="#16a34a"/><text x="451.2" y="434" fill="#374151" font-size="12" text-anchor="middle">止损 59.95</text><circle cx="712.0" cy="412" r="5" fill="#16a34a"/><text x="712.0" y="434" fill="#374151" font-size="12" text-anchor="middle">目标一 64.80</text><circle cx="814.0" cy="412" r="5" fill="#16a34a"/><text x="814.0" y="434" fill="#374151" font-size="12" text-anchor="middle">目标二 66.02</text>
<text x="72" y="482" fill="#dc2626" font-size="14" font-weight="700">日内做空计划</text><rect x="72" y="490" width="790" height="48" rx="6" fill="#f9fafb" stroke="#e5e7eb"/><line x1="94" y1="498" x2="840" y2="498" stroke="#dc2626" stroke-width="3"/><circle cx="132.0" cy="498" r="5" fill="#dc2626"/><text x="132.0" y="520" fill="#374151" font-size="12" text-anchor="middle">入场 反弹承压/破位回抽</text><circle cx="451.2" cy="498" r="5" fill="#dc2626"/><text x="451.2" y="520" fill="#374151" font-size="12" text-anchor="middle">止损 64.80</text><circle cx="712.0" cy="498" r="5" fill="#dc2626"/><text x="712.0" y="520" fill="#374151" font-size="12" text-anchor="middle">目标一 59.95</text><circle cx="814.0" cy="498" r="5" fill="#dc2626"/><text x="814.0" y="520" fill="#374151" font-size="12" text-anchor="middle">目标二 58.74</text>
</svg>