<svg xmlns="http://www.w3.org/2000/svg" width="1080" height="560" viewBox="0 0 1080 560">
<rect width="100%" height="100%" fill="#ffffff"/>
<text x="72" y="23" fill="#111827" font-size="21" font-weight="800">HYPE 日线K线支撑压力图</text>
<text x="862" y="42" fill="#374151" font-size="15" text-anchor="end">最新价 70.50</text>
<line x1="72" y1="34" x2="72" y2="340" stroke="#d1d5db"/>
<line x1="72" y1="340" x2="862" y2="340" stroke="#d1d5db"/>
<line x1="72" y1="340.0" x2="862" y2="340.0" stroke="#f3f4f6"/>
<text x="8" y="345.0" fill="#4b5563" font-size="14">34.73</text>
<line x1="72" y1="263.5" x2="862" y2="263.5" stroke="#f3f4f6"/>
<text x="8" y="268.5" fill="#4b5563" font-size="14">47.13</text>
<line x1="72" y1="187.0" x2="862" y2="187.0" stroke="#f3f4f6"/>
<text x="8" y="192.0" fill="#4b5563" font-size="14">59.54</text>
<line x1="72" y1="110.5" x2="862" y2="110.5" stroke="#f3f4f6"/>
<text x="8" y="115.5" fill="#4b5563" font-size="14">71.94</text>
<line x1="72" y1="34.0" x2="862" y2="34.0" stroke="#f3f4f6"/>
<text x="8" y="39.0" fill="#4b5563" font-size="14">84.34</text>
<line x1="72.0" y1="305.0" x2="72.0" y2="318.9" stroke="#16a34a" stroke-width="1"/><rect x="69.3" y="310.8" width="5.4" height="4.3" fill="#16a34a" opacity="0.82" rx="1"/>
<line x1="80.9" y1="293.7" x2="80.9" y2="311.0" stroke="#16a34a" stroke-width="1"/><rect x="78.2" y="297.6" width="5.4" height="13.1" fill="#16a34a" opacity="0.82" rx="1"/>
<line x1="89.8" y1="287.9" x2="89.8" y2="298.4" stroke="#16a34a" stroke-width="1"/><rect x="87.0" y="293.4" width="5.4" height="4.2" fill="#16a34a" opacity="0.82" rx="1"/>
<line x1="98.6" y1="290.1" x2="98.6" y2="306.3" stroke="#dc2626" stroke-width="1"/><rect x="95.9" y="293.4" width="5.4" height="8.8" fill="#dc2626" opacity="0.82" rx="1"/>
<line x1="107.5" y1="279.0" x2="107.5" y2="302.7" stroke="#16a34a" stroke-width="1"/><rect x="104.8" y="280.7" width="5.4" height="21.5" fill="#16a34a" opacity="0.82" rx="1"/>
<line x1="116.4" y1="274.6" x2="116.4" y2="289.5" stroke="#dc2626" stroke-width="1"/><rect x="113.7" y="280.8" width="5.4" height="4.9" fill="#dc2626" opacity="0.82" rx="1"/>
<line x1="125.3" y1="273.8" x2="125.3" y2="288.2" stroke="#16a34a" stroke-width="1"/><rect x="122.5" y="278.9" width="5.4" height="6.8" fill="#16a34a" opacity="0.82" rx="1"/>
<line x1="134.1" y1="271.9" x2="134.1" y2="287.1" stroke="#dc2626" stroke-width="1"/><rect x="131.4" y="278.9" width="5.4" height="5.1" fill="#dc2626" opacity="0.82" rx="1"/>
<line x1="143.0" y1="273.6" x2="143.0" y2="287.9" stroke="#16a34a" stroke-width="1"/><rect x="140.3" y="279.0" width="5.4" height="5.0" fill="#16a34a" opacity="0.82" rx="1"/>
<line x1="151.9" y1="273.8" x2="151.9" y2="284.6" stroke="#dc2626" stroke-width="1"/><rect x="149.2" y="279.0" width="5.4" height="5.2" fill="#dc2626" opacity="0.82" rx="1"/>
<line x1="160.8" y1="283.2" x2="160.8" y2="304.4" stroke="#dc2626" stroke-width="1"/><rect x="158.0" y="284.2" width="5.4" height="19.1" fill="#dc2626" opacity="0.82" rx="1"/>
<line x1="169.6" y1="296.4" x2="169.6" y2="304.0" stroke="#16a34a" stroke-width="1"/><rect x="166.9" y="303.1" width="5.4" height="1.2" fill="#16a34a" opacity="0.82" rx="1"/>
<line x1="178.5" y1="298.7" x2="178.5" y2="314.4" stroke="#dc2626" stroke-width="1"/><rect x="175.8" y="303.2" width="5.4" height="5.8" fill="#dc2626" opacity="0.82" rx="1"/>
<line x1="187.4" y1="296.7" x2="187.4" y2="309.8" stroke="#16a34a" stroke-width="1"/><rect x="184.7" y="300.3" width="5.4" height="8.6" fill="#16a34a" opacity="0.82" rx="1"/>
<line x1="196.3" y1="296.0" x2="196.3" y2="304.3" stroke="#16a34a" stroke-width="1"/><rect x="193.5" y="299.4" width="5.4" height="1.2" fill="#16a34a" opacity="0.82" rx="1"/>
<line x1="205.1" y1="298.0" x2="205.1" y2="303.3" stroke="#dc2626" stroke-width="1"/><rect x="202.4" y="299.4" width="5.4" height="1.2" fill="#dc2626" opacity="0.82" rx="1"/>
<line x1="214.0" y1="295.7" x2="214.0" y2="302.4" stroke="#16a34a" stroke-width="1"/><rect x="211.3" y="298.2" width="5.4" height="2.0" fill="#16a34a" opacity="0.82" rx="1"/>
<line x1="222.9" y1="291.4" x2="222.9" y2="301.6" stroke="#16a34a" stroke-width="1"/><rect x="220.2" y="292.3" width="5.4" height="5.9" fill="#16a34a" opacity="0.82" rx="1"/>
<line x1="231.8" y1="285.5" x2="231.8" y2="299.7" stroke="#dc2626" stroke-width="1"/><rect x="229.1" y="292.3" width="5.4" height="5.0" fill="#dc2626" opacity="0.82" rx="1"/>
<line x1="240.7" y1="296.2" x2="240.7" y2="311.3" stroke="#dc2626" stroke-width="1"/><rect x="237.9" y="297.3" width="5.4" height="9.2" fill="#dc2626" opacity="0.82" rx="1"/>
<line x1="249.5" y1="302.6" x2="249.5" y2="312.7" stroke="#dc2626" stroke-width="1"/><rect x="246.8" y="306.5" width="5.4" height="1.4" fill="#dc2626" opacity="0.82" rx="1"/>
<line x1="258.4" y1="305.5" x2="258.4" y2="315.4" stroke="#dc2626" stroke-width="1"/><rect x="255.7" y="307.9" width="5.4" height="1.5" fill="#dc2626" opacity="0.82" rx="1"/>
<line x1="267.3" y1="300.4" x2="267.3" y2="309.5" stroke="#16a34a" stroke-width="1"/><rect x="264.6" y="300.5" width="5.4" height="8.9" fill="#16a34a" opacity="0.82" rx="1"/>
<line x1="276.2" y1="292.4" x2="276.2" y2="301.4" stroke="#16a34a" stroke-width="1"/><rect x="273.4" y="299.8" width="5.4" height="1.2" fill="#16a34a" opacity="0.82" rx="1"/>
<line x1="285.0" y1="296.8" x2="285.0" y2="303.3" stroke="#16a34a" stroke-width="1"/><rect x="282.3" y="297.9" width="5.4" height="1.8" fill="#16a34a" opacity="0.82" rx="1"/>
<line x1="293.9" y1="291.5" x2="293.9" y2="302.4" stroke="#16a34a" stroke-width="1"/><rect x="291.2" y="296.3" width="5.4" height="1.6" fill="#16a34a" opacity="0.82" rx="1"/>
<line x1="302.8" y1="278.9" x2="302.8" y2="296.6" stroke="#16a34a" stroke-width="1"/><rect x="300.1" y="284.6" width="5.4" height="11.7" fill="#16a34a" opacity="0.82" rx="1"/>
<line x1="311.7" y1="278.1" x2="311.7" y2="289.6" stroke="#dc2626" stroke-width="1"/><rect x="308.9" y="284.6" width="5.4" height="3.6" fill="#dc2626" opacity="0.82" rx="1"/>
<line x1="320.5" y1="285.6" x2="320.5" y2="296.0" stroke="#dc2626" stroke-width="1"/><rect x="317.8" y="288.2" width="5.4" height="3.7" fill="#dc2626" opacity="0.82" rx="1"/>
<line x1="329.4" y1="285.9" x2="329.4" y2="294.9" stroke="#16a34a" stroke-width="1"/><rect x="326.7" y="287.3" width="5.4" height="4.6" fill="#16a34a" opacity="0.82" rx="1"/>
<line x1="338.3" y1="280.3" x2="338.3" y2="290.0" stroke="#dc2626" stroke-width="1"/><rect x="335.6" y="287.3" width="5.4" height="2.2" fill="#dc2626" opacity="0.82" rx="1"/>
<line x1="347.2" y1="284.7" x2="347.2" y2="294.4" stroke="#16a34a" stroke-width="1"/><rect x="344.4" y="288.9" width="5.4" height="1.2" fill="#16a34a" opacity="0.82" rx="1"/>
<line x1="356.0" y1="288.1" x2="356.0" y2="302.4" stroke="#dc2626" stroke-width="1"/><rect x="353.3" y="288.9" width="5.4" height="6.3" fill="#dc2626" opacity="0.82" rx="1"/>
<line x1="364.9" y1="294.8" x2="364.9" y2="308.8" stroke="#dc2626" stroke-width="1"/><rect x="362.2" y="295.2" width="5.4" height="10.7" fill="#dc2626" opacity="0.82" rx="1"/>
<line x1="373.8" y1="303.1" x2="373.8" y2="315.4" stroke="#dc2626" stroke-width="1"/><rect x="371.1" y="305.9" width="5.4" height="8.9" fill="#dc2626" opacity="0.82" rx="1"/>
<line x1="382.7" y1="278.1" x2="382.7" y2="318.8" stroke="#16a34a" stroke-width="1"/><rect x="380.0" y="282.0" width="5.4" height="32.8" fill="#16a34a" opacity="0.82" rx="1"/>
<line x1="391.6" y1="263.9" x2="391.6" y2="290.2" stroke="#16a34a" stroke-width="1"/><rect x="388.8" y="281.9" width="5.4" height="1.2" fill="#16a34a" opacity="0.82" rx="1"/>
<line x1="400.4" y1="279.9" x2="400.4" y2="305.2" stroke="#dc2626" stroke-width="1"/><rect x="397.7" y="281.9" width="5.4" height="14.4" fill="#dc2626" opacity="0.82" rx="1"/>
<line x1="409.3" y1="263.4" x2="409.3" y2="299.3" stroke="#16a34a" stroke-width="1"/><rect x="406.6" y="272.4" width="5.4" height="23.8" fill="#16a34a" opacity="0.82" rx="1"/>
<line x1="418.2" y1="258.1" x2="418.2" y2="281.6" stroke="#16a34a" stroke-width="1"/><rect x="415.5" y="259.6" width="5.4" height="12.8" fill="#16a34a" opacity="0.82" rx="1"/>
<line x1="427.1" y1="252.6" x2="427.1" y2="265.5" stroke="#16a34a" stroke-width="1"/><rect x="424.3" y="258.1" width="5.4" height="1.5" fill="#16a34a" opacity="0.82" rx="1"/>
<line x1="435.9" y1="215.9" x2="435.9" y2="263.8" stroke="#16a34a" stroke-width="1"/><rect x="433.2" y="216.0" width="5.4" height="42.2" fill="#16a34a" opacity="0.82" rx="1"/>
<line x1="444.8" y1="168.1" x2="444.8" y2="216.7" stroke="#16a34a" stroke-width="1"/><rect x="442.1" y="192.9" width="5.4" height="23.2" fill="#16a34a" opacity="0.82" rx="1"/>
<line x1="453.7" y1="172.0" x2="453.7" y2="219.4" stroke="#dc2626" stroke-width="1"/><rect x="451.0" y="192.9" width="5.4" height="24.6" fill="#dc2626" opacity="0.82" rx="1"/>
<line x1="462.6" y1="184.8" x2="462.6" y2="221.1" stroke="#16a34a" stroke-width="1"/><rect x="459.8" y="192.1" width="5.4" height="25.4" fill="#16a34a" opacity="0.82" rx="1"/>
<line x1="471.4" y1="156.4" x2="471.4" y2="192.7" stroke="#16a34a" stroke-width="1"/><rect x="468.7" y="167.2" width="5.4" height="24.9" fill="#16a34a" opacity="0.82" rx="1"/>
<line x1="480.3" y1="160.1" x2="480.3" y2="179.8" stroke="#dc2626" stroke-width="1"/><rect x="477.6" y="167.1" width="5.4" height="10.3" fill="#dc2626" opacity="0.82" rx="1"/>
<line x1="489.2" y1="154.9" x2="489.2" y2="193.1" stroke="#dc2626" stroke-width="1"/><rect x="486.5" y="177.4" width="5.4" height="9.8" fill="#dc2626" opacity="0.82" rx="1"/>
<line x1="498.1" y1="163.7" x2="498.1" y2="202.3" stroke="#dc2626" stroke-width="1"/><rect x="495.3" y="187.2" width="5.4" height="11.7" fill="#dc2626" opacity="0.82" rx="1"/>
<line x1="506.9" y1="171.0" x2="506.9" y2="207.3" stroke="#16a34a" stroke-width="1"/><rect x="504.2" y="174.8" width="5.4" height="24.1" fill="#16a34a" opacity="0.82" rx="1"/>
<line x1="515.8" y1="138.4" x2="515.8" y2="182.1" stroke="#16a34a" stroke-width="1"/><rect x="513.1" y="157.0" width="5.4" height="17.8" fill="#16a34a" opacity="0.82" rx="1"/>
<line x1="524.7" y1="130.9" x2="524.7" y2="159.5" stroke="#16a34a" stroke-width="1"/><rect x="522.0" y="133.0" width="5.4" height="24.0" fill="#16a34a" opacity="0.82" rx="1"/>
<line x1="533.6" y1="103.2" x2="533.6" y2="138.1" stroke="#16a34a" stroke-width="1"/><rect x="530.9" y="109.8" width="5.4" height="23.1" fill="#16a34a" opacity="0.82" rx="1"/>
<line x1="542.4" y1="86.5" x2="542.4" y2="119.9" stroke="#16a34a" stroke-width="1"/><rect x="539.7" y="100.4" width="5.4" height="9.2" fill="#16a34a" opacity="0.82" rx="1"/>
<line x1="551.3" y1="87.7" x2="551.3" y2="135.8" stroke="#dc2626" stroke-width="1"/><rect x="548.6" y="100.4" width="5.4" height="23.1" fill="#dc2626" opacity="0.82" rx="1"/>
<line x1="560.2" y1="87.9" x2="560.2" y2="133.1" stroke="#16a34a" stroke-width="1"/><rect x="557.5" y="94.3" width="5.4" height="29.3" fill="#16a34a" opacity="0.82" rx="1"/>
<line x1="569.1" y1="88.5" x2="569.1" y2="165.6" stroke="#dc2626" stroke-width="1"/><rect x="566.4" y="94.2" width="5.4" height="62.6" fill="#dc2626" opacity="0.82" rx="1"/>
<line x1="578.0" y1="146.9" x2="578.0" y2="204.6" stroke="#dc2626" stroke-width="1"/><rect x="575.2" y="156.8" width="5.4" height="28.4" fill="#dc2626" opacity="0.82" rx="1"/>
<line x1="586.8" y1="176.6" x2="586.8" y2="212.0" stroke="#dc2626" stroke-width="1"/><rect x="584.1" y="185.3" width="5.4" height="20.3" fill="#dc2626" opacity="0.82" rx="1"/>
<line x1="595.7" y1="181.4" x2="595.7" y2="208.2" stroke="#16a34a" stroke-width="1"/><rect x="593.0" y="185.7" width="5.4" height="19.9" fill="#16a34a" opacity="0.82" rx="1"/>
<line x1="604.6" y1="148.4" x2="604.6" y2="188.4" stroke="#16a34a" stroke-width="1"/><rect x="601.9" y="160.5" width="5.4" height="25.2" fill="#16a34a" opacity="0.82" rx="1"/>
<line x1="613.5" y1="159.2" x2="613.5" y2="200.8" stroke="#dc2626" stroke-width="1"/><rect x="610.7" y="160.4" width="5.4" height="37.5" fill="#dc2626" opacity="0.82" rx="1"/>
<line x1="622.3" y1="194.3" x2="622.3" y2="229.7" stroke="#dc2626" stroke-width="1"/><rect x="619.6" y="197.8" width="5.4" height="27.7" fill="#dc2626" opacity="0.82" rx="1"/>
<line x1="631.2" y1="186.3" x2="631.2" y2="228.2" stroke="#16a34a" stroke-width="1"/><rect x="628.5" y="190.7" width="5.4" height="34.8" fill="#16a34a" opacity="0.82" rx="1"/>
<line x1="640.1" y1="169.2" x2="640.1" y2="204.0" stroke="#16a34a" stroke-width="1"/><rect x="637.4" y="188.7" width="5.4" height="2.1" fill="#16a34a" opacity="0.82" rx="1"/>
<line x1="649.0" y1="178.7" x2="649.0" y2="201.6" stroke="#16a34a" stroke-width="1"/><rect x="646.2" y="179.8" width="5.4" height="8.9" fill="#16a34a" opacity="0.82" rx="1"/>
<line x1="657.8" y1="158.6" x2="657.8" y2="186.6" stroke="#16a34a" stroke-width="1"/><rect x="655.1" y="159.9" width="5.4" height="20.0" fill="#16a34a" opacity="0.82" rx="1"/>
<line x1="666.7" y1="130.5" x2="666.7" y2="164.9" stroke="#16a34a" stroke-width="1"/><rect x="664.0" y="141.7" width="5.4" height="18.3" fill="#16a34a" opacity="0.82" rx="1"/>
<line x1="675.6" y1="79.3" x2="675.6" y2="144.9" stroke="#16a34a" stroke-width="1"/><rect x="672.9" y="100.4" width="5.4" height="41.3" fill="#16a34a" opacity="0.82" rx="1"/>
<line x1="684.5" y1="80.6" x2="684.5" y2="122.8" stroke="#dc2626" stroke-width="1"/><rect x="681.8" y="100.4" width="5.4" height="15.0" fill="#dc2626" opacity="0.82" rx="1"/>
<line x1="693.3" y1="99.5" x2="693.3" y2="143.7" stroke="#dc2626" stroke-width="1"/><rect x="690.6" y="115.4" width="5.4" height="17.3" fill="#dc2626" opacity="0.82" rx="1"/>
<line x1="702.2" y1="113.9" x2="702.2" y2="149.4" stroke="#16a34a" stroke-width="1"/><rect x="699.5" y="120.8" width="5.4" height="11.8" fill="#16a34a" opacity="0.82" rx="1"/>
<line x1="711.1" y1="113.7" x2="711.1" y2="132.3" stroke="#16a34a" stroke-width="1"/><rect x="708.4" y="117.9" width="5.4" height="3.0" fill="#16a34a" opacity="0.82" rx="1"/>
<line x1="720.0" y1="116.8" x2="720.0" y2="143.9" stroke="#dc2626" stroke-width="1"/><rect x="717.3" y="117.9" width="5.4" height="23.7" fill="#dc2626" opacity="0.82" rx="1"/>
<line x1="728.9" y1="125.0" x2="728.9" y2="152.7" stroke="#dc2626" stroke-width="1"/><rect x="726.1" y="141.6" width="5.4" height="4.0" fill="#dc2626" opacity="0.82" rx="1"/>
<line x1="737.7" y1="138.8" x2="737.7" y2="174.1" stroke="#dc2626" stroke-width="1"/><rect x="735.0" y="145.6" width="5.4" height="25.3" fill="#dc2626" opacity="0.82" rx="1"/>
<line x1="746.6" y1="157.8" x2="746.6" y2="190.0" stroke="#16a34a" stroke-width="1"/><rect x="743.9" y="160.2" width="5.4" height="10.7" fill="#16a34a" opacity="0.82" rx="1"/>
<line x1="755.5" y1="150.8" x2="755.5" y2="194.5" stroke="#16a34a" stroke-width="1"/><rect x="752.8" y="159.0" width="5.4" height="1.2" fill="#16a34a" opacity="0.82" rx="1"/>
<line x1="764.4" y1="150.7" x2="764.4" y2="178.6" stroke="#16a34a" stroke-width="1"/><rect x="761.6" y="157.4" width="5.4" height="1.6" fill="#16a34a" opacity="0.82" rx="1"/>
<line x1="773.2" y1="155.1" x2="773.2" y2="175.3" stroke="#dc2626" stroke-width="1"/><rect x="770.5" y="157.4" width="5.4" height="16.7" fill="#dc2626" opacity="0.82" rx="1"/>
<line x1="782.1" y1="162.5" x2="782.1" y2="180.7" stroke="#dc2626" stroke-width="1"/><rect x="779.4" y="174.1" width="5.4" height="1.4" fill="#dc2626" opacity="0.82" rx="1"/>
<line x1="791.0" y1="136.3" x2="791.0" y2="179.9" stroke="#16a34a" stroke-width="1"/><rect x="788.3" y="141.6" width="5.4" height="33.9" fill="#16a34a" opacity="0.82" rx="1"/>
<line x1="799.9" y1="141.4" x2="799.9" y2="158.8" stroke="#dc2626" stroke-width="1"/><rect x="797.1" y="141.7" width="5.4" height="11.5" fill="#dc2626" opacity="0.82" rx="1"/>
<line x1="808.7" y1="147.1" x2="808.7" y2="172.8" stroke="#dc2626" stroke-width="1"/><rect x="806.0" y="153.1" width="5.4" height="16.5" fill="#dc2626" opacity="0.82" rx="1"/>
<line x1="817.6" y1="140.1" x2="817.6" y2="174.0" stroke="#16a34a" stroke-width="1"/><rect x="814.9" y="141.6" width="5.4" height="28.1" fill="#16a34a" opacity="0.82" rx="1"/>
<line x1="826.5" y1="114.7" x2="826.5" y2="148.1" stroke="#16a34a" stroke-width="1"/><rect x="823.8" y="118.6" width="5.4" height="23.1" fill="#16a34a" opacity="0.82" rx="1"/>
<line x1="835.4" y1="110.1" x2="835.4" y2="126.4" stroke="#dc2626" stroke-width="1"/><rect x="832.6" y="118.5" width="5.4" height="5.0" fill="#dc2626" opacity="0.82" rx="1"/>
<line x1="844.2" y1="112.0" x2="844.2" y2="133.5" stroke="#16a34a" stroke-width="1"/><rect x="841.5" y="114.3" width="5.4" height="9.2" fill="#16a34a" opacity="0.82" rx="1"/>
<line x1="853.1" y1="106.4" x2="853.1" y2="131.0" stroke="#dc2626" stroke-width="1"/><rect x="850.4" y="114.3" width="5.4" height="4.6" fill="#dc2626" opacity="0.82" rx="1"/>
<line x1="862.0" y1="118.7" x2="862.0" y2="119.9" stroke="#dc2626" stroke-width="1"/><rect x="859.3" y="118.9" width="5.4" height="1.2" fill="#dc2626" opacity="0.82" rx="1"/>
<line x1="72" y1="157.9" x2="862" y2="157.9" stroke="#16a34a" stroke-width="1.8" stroke-dasharray="6 4" /><rect x="874" y="137.9" width="166" height="23" rx="5" fill="#ffffff" stroke="#16a34a" opacity="0.97"/><text x="881" y="153.9" fill="#16a34a" font-size="15" font-weight="700">支撑 64.25</text>
<line x1="72" y1="55.1" x2="862" y2="55.1" stroke="#dc2626" stroke-width="1.8" stroke-dasharray="6 4" /><rect x="874" y="35.1" width="166" height="23" rx="5" fill="#ffffff" stroke="#dc2626" opacity="0.97"/><text x="881" y="51.1" fill="#dc2626" font-size="15" font-weight="700">压力 80.92</text>
<line x1="72" y1="119.4" x2="862" y2="119.4" stroke="#111827" stroke-width="1.8" stroke-dasharray="2 2" /><rect x="874" y="99.4" width="166" height="23" rx="5" fill="#ffffff" stroke="#111827" opacity="0.97"/><text x="881" y="115.4" fill="#111827" font-size="15" font-weight="700">现价 70.50</text>
<text x="72" y="396" fill="#16a34a" font-size="14" font-weight="700">日线做多计划</text><rect x="72" y="404" width="790" height="48" rx="6" fill="#f9fafb" stroke="#e5e7eb"/><line x1="94" y1="412" x2="840" y2="412" stroke="#16a34a" stroke-width="3"/><circle cx="132.0" cy="412" r="5" fill="#16a34a"/><text x="132.0" y="434" fill="#374151" font-size="12" text-anchor="middle">入场 止跌/突破回踩</text><circle cx="451.2" cy="412" r="5" fill="#16a34a"/><text x="451.2" y="434" fill="#374151" font-size="12" text-anchor="middle">止损 64.25</text><circle cx="712.0" cy="412" r="5" fill="#16a34a"/><text x="712.0" y="434" fill="#374151" font-size="12" text-anchor="middle">目标一 80.92</text><circle cx="814.0" cy="412" r="5" fill="#16a34a"/><text x="814.0" y="434" fill="#374151" font-size="12" text-anchor="middle">目标二 87.17</text>
<text x="72" y="482" fill="#dc2626" font-size="14" font-weight="700">日线做空计划</text><rect x="72" y="490" width="790" height="48" rx="6" fill="#f9fafb" stroke="#e5e7eb"/><line x1="94" y1="498" x2="840" y2="498" stroke="#dc2626" stroke-width="3"/><circle cx="132.0" cy="498" r="5" fill="#dc2626"/><text x="132.0" y="520" fill="#374151" font-size="12" text-anchor="middle">入场 反弹承压/破位回抽</text><circle cx="451.2" cy="498" r="5" fill="#dc2626"/><text x="451.2" y="520" fill="#374151" font-size="12" text-anchor="middle">止损 80.92</text><circle cx="712.0" cy="498" r="5" fill="#dc2626"/><text x="712.0" y="520" fill="#374151" font-size="12" text-anchor="middle">目标一 64.25</text><circle cx="814.0" cy="498" r="5" fill="#dc2626"/><text x="814.0" y="520" fill="#374151" font-size="12" text-anchor="middle">目标二 60.08</text>
</svg>