<svg xmlns="http://www.w3.org/2000/svg" width="1080" height="560" viewBox="0 0 1080 560">
<rect width="100%" height="100%" fill="#ffffff"/>
<text x="72" y="23" fill="#111827" font-size="21" font-weight="800">DRAM 日线K线支撑压力图</text>
<text x="862" y="42" fill="#374151" font-size="15" text-anchor="end">最新价 62.97</text>
<line x1="72" y1="34" x2="72" y2="340" stroke="#d1d5db"/>
<line x1="72" y1="340" x2="862" y2="340" stroke="#d1d5db"/>
<line x1="72" y1="340.0" x2="862" y2="340.0" stroke="#f3f4f6"/>
<text x="8" y="345.0" fill="#4b5563" font-size="14">43.71</text>
<line x1="72" y1="263.5" x2="862" y2="263.5" stroke="#f3f4f6"/>
<text x="8" y="268.5" fill="#4b5563" font-size="14">53.98</text>
<line x1="72" y1="187.0" x2="862" y2="187.0" stroke="#f3f4f6"/>
<text x="8" y="192.0" fill="#4b5563" font-size="14">64.25</text>
<line x1="72" y1="110.5" x2="862" y2="110.5" stroke="#f3f4f6"/>
<text x="8" y="115.5" fill="#4b5563" font-size="14">74.52</text>
<line x1="72" y1="34.0" x2="862" y2="34.0" stroke="#f3f4f6"/>
<text x="8" y="39.0" fill="#4b5563" font-size="14">84.79</text>
<line x1="72.0" y1="279.1" x2="72.0" y2="307.4" stroke="#dc2626" stroke-width="1"/><rect x="67.5" y="283.9" width="9.0" height="10.9" fill="#dc2626" opacity="0.82" rx="1"/>
<line x1="87.8" y1="285.4" x2="87.8" y2="318.9" stroke="#16a34a" stroke-width="1"/><rect x="83.3" y="293.1" width="9.0" height="1.6" fill="#16a34a" opacity="0.82" rx="1"/>
<line x1="103.6" y1="277.9" x2="103.6" y2="308.2" stroke="#16a34a" stroke-width="1"/><rect x="99.1" y="280.2" width="9.0" height="13.0" fill="#16a34a" opacity="0.82" rx="1"/>
<line x1="119.4" y1="254.0" x2="119.4" y2="284.9" stroke="#16a34a" stroke-width="1"/><rect x="114.9" y="257.2" width="9.0" height="23.0" fill="#16a34a" opacity="0.82" rx="1"/>
<line x1="135.2" y1="256.9" x2="135.2" y2="273.8" stroke="#dc2626" stroke-width="1"/><rect x="130.7" y="257.2" width="9.0" height="16.3" fill="#dc2626" opacity="0.82" rx="1"/>
<line x1="151.0" y1="248.0" x2="151.0" y2="289.9" stroke="#16a34a" stroke-width="1"/><rect x="146.5" y="261.0" width="9.0" height="12.4" fill="#16a34a" opacity="0.82" rx="1"/>
<line x1="166.8" y1="247.7" x2="166.8" y2="262.5" stroke="#16a34a" stroke-width="1"/><rect x="162.3" y="253.1" width="9.0" height="7.7" fill="#16a34a" opacity="0.82" rx="1"/>
<line x1="182.6" y1="228.9" x2="182.6" y2="255.1" stroke="#16a34a" stroke-width="1"/><rect x="178.1" y="244.7" width="9.0" height="8.3" fill="#16a34a" opacity="0.82" rx="1"/>
<line x1="198.4" y1="194.1" x2="198.4" y2="258.3" stroke="#16a34a" stroke-width="1"/><rect x="193.9" y="202.2" width="9.0" height="42.5" fill="#16a34a" opacity="0.82" rx="1"/>
<line x1="214.2" y1="191.2" x2="214.2" y2="225.5" stroke="#dc2626" stroke-width="1"/><rect x="209.7" y="202.3" width="9.0" height="19.2" fill="#dc2626" opacity="0.82" rx="1"/>
<line x1="230.0" y1="190.6" x2="230.0" y2="237.7" stroke="#16a34a" stroke-width="1"/><rect x="225.5" y="195.9" width="9.0" height="25.5" fill="#16a34a" opacity="0.82" rx="1"/>
<line x1="245.8" y1="186.3" x2="245.8" y2="207.0" stroke="#16a34a" stroke-width="1"/><rect x="241.3" y="194.0" width="9.0" height="1.8" fill="#16a34a" opacity="0.82" rx="1"/>
<line x1="261.6" y1="174.3" x2="261.6" y2="197.1" stroke="#16a34a" stroke-width="1"/><rect x="257.1" y="175.5" width="9.0" height="18.5" fill="#16a34a" opacity="0.82" rx="1"/>
<line x1="277.4" y1="162.9" x2="277.4" y2="179.8" stroke="#16a34a" stroke-width="1"/><rect x="272.9" y="173.0" width="9.0" height="2.4" fill="#16a34a" opacity="0.82" rx="1"/>
<line x1="293.2" y1="151.0" x2="293.2" y2="186.3" stroke="#16a34a" stroke-width="1"/><rect x="288.7" y="157.6" width="9.0" height="15.3" fill="#16a34a" opacity="0.82" rx="1"/>
<line x1="309.0" y1="142.8" x2="309.0" y2="178.4" stroke="#16a34a" stroke-width="1"/><rect x="304.5" y="148.3" width="9.0" height="9.5" fill="#16a34a" opacity="0.82" rx="1"/>
<line x1="324.8" y1="141.8" x2="324.8" y2="171.0" stroke="#dc2626" stroke-width="1"/><rect x="320.3" y="148.2" width="9.0" height="20.5" fill="#dc2626" opacity="0.82" rx="1"/>
<line x1="340.6" y1="159.0" x2="340.6" y2="195.0" stroke="#dc2626" stroke-width="1"/><rect x="336.1" y="168.8" width="9.0" height="24.9" fill="#dc2626" opacity="0.82" rx="1"/>
<line x1="356.4" y1="187.9" x2="356.4" y2="267.4" stroke="#dc2626" stroke-width="1"/><rect x="351.9" y="193.7" width="9.0" height="59.0" fill="#dc2626" opacity="0.82" rx="1"/>
<line x1="372.2" y1="245.0" x2="372.2" y2="274.4" stroke="#16a34a" stroke-width="1"/><rect x="367.7" y="250.5" width="9.0" height="2.3" fill="#16a34a" opacity="0.82" rx="1"/>
<line x1="388.0" y1="219.9" x2="388.0" y2="255.9" stroke="#16a34a" stroke-width="1"/><rect x="383.5" y="245.1" width="9.0" height="5.4" fill="#16a34a" opacity="0.82" rx="1"/>
<line x1="403.8" y1="206.2" x2="403.8" y2="248.3" stroke="#16a34a" stroke-width="1"/><rect x="399.3" y="212.0" width="9.0" height="33.1" fill="#16a34a" opacity="0.82" rx="1"/>
<line x1="419.6" y1="187.4" x2="419.6" y2="252.5" stroke="#dc2626" stroke-width="1"/><rect x="415.1" y="211.9" width="9.0" height="8.6" fill="#dc2626" opacity="0.82" rx="1"/>
<line x1="435.4" y1="207.2" x2="435.4" y2="251.5" stroke="#dc2626" stroke-width="1"/><rect x="430.9" y="220.6" width="9.0" height="24.6" fill="#dc2626" opacity="0.82" rx="1"/>
<line x1="451.2" y1="168.8" x2="451.2" y2="247.0" stroke="#16a34a" stroke-width="1"/><rect x="446.7" y="173.8" width="9.0" height="71.1" fill="#16a34a" opacity="0.82" rx="1"/>
<line x1="467.0" y1="172.6" x2="467.0" y2="201.8" stroke="#dc2626" stroke-width="1"/><rect x="462.5" y="173.9" width="9.0" height="2.8" fill="#dc2626" opacity="0.82" rx="1"/>
<line x1="482.8" y1="174.1" x2="482.8" y2="189.7" stroke="#16a34a" stroke-width="1"/><rect x="478.3" y="175.7" width="9.0" height="1.2" fill="#16a34a" opacity="0.82" rx="1"/>
<line x1="498.6" y1="149.9" x2="498.6" y2="177.2" stroke="#16a34a" stroke-width="1"/><rect x="494.1" y="157.1" width="9.0" height="18.5" fill="#16a34a" opacity="0.82" rx="1"/>
<line x1="514.4" y1="134.1" x2="514.4" y2="163.7" stroke="#16a34a" stroke-width="1"/><rect x="509.9" y="137.8" width="9.0" height="19.4" fill="#16a34a" opacity="0.82" rx="1"/>
<line x1="530.2" y1="121.2" x2="530.2" y2="160.7" stroke="#dc2626" stroke-width="1"/><rect x="525.7" y="138.0" width="9.0" height="14.4" fill="#dc2626" opacity="0.82" rx="1"/>
<line x1="546.0" y1="119.7" x2="546.0" y2="152.7" stroke="#16a34a" stroke-width="1"/><rect x="541.5" y="125.8" width="9.0" height="26.7" fill="#16a34a" opacity="0.82" rx="1"/>
<line x1="561.8" y1="80.6" x2="561.8" y2="127.6" stroke="#16a34a" stroke-width="1"/><rect x="557.3" y="82.8" width="9.0" height="42.8" fill="#16a34a" opacity="0.82" rx="1"/>
<line x1="577.6" y1="79.5" x2="577.6" y2="108.1" stroke="#dc2626" stroke-width="1"/><rect x="573.1" y="82.9" width="9.0" height="4.5" fill="#dc2626" opacity="0.82" rx="1"/>
<line x1="593.4" y1="63.2" x2="593.4" y2="88.8" stroke="#16a34a" stroke-width="1"/><rect x="588.9" y="68.9" width="9.0" height="18.6" fill="#16a34a" opacity="0.82" rx="1"/>
<line x1="609.2" y1="59.5" x2="609.2" y2="95.4" stroke="#dc2626" stroke-width="1"/><rect x="604.7" y="69.0" width="9.0" height="21.4" fill="#dc2626" opacity="0.82" rx="1"/>
<line x1="625.0" y1="55.1" x2="625.0" y2="106.9" stroke="#16a34a" stroke-width="1"/><rect x="620.5" y="66.0" width="9.0" height="24.4" fill="#16a34a" opacity="0.82" rx="1"/>
<line x1="640.8" y1="65.3" x2="640.8" y2="153.9" stroke="#dc2626" stroke-width="1"/><rect x="636.3" y="66.0" width="9.0" height="74.3" fill="#dc2626" opacity="0.82" rx="1"/>
<line x1="656.6" y1="58.5" x2="656.6" y2="164.8" stroke="#16a34a" stroke-width="1"/><rect x="652.1" y="67.8" width="9.0" height="72.3" fill="#16a34a" opacity="0.82" rx="1"/>
<line x1="672.4" y1="66.9" x2="672.4" y2="118.0" stroke="#dc2626" stroke-width="1"/><rect x="667.9" y="67.7" width="9.0" height="27.9" fill="#dc2626" opacity="0.82" rx="1"/>
<line x1="688.2" y1="93.1" x2="688.2" y2="136.7" stroke="#dc2626" stroke-width="1"/><rect x="683.7" y="95.5" width="9.0" height="31.4" fill="#dc2626" opacity="0.82" rx="1"/>
<line x1="704.0" y1="120.3" x2="704.0" y2="129.1" stroke="#dc2626" stroke-width="1"/><rect x="699.5" y="126.8" width="9.0" height="1.2" fill="#dc2626" opacity="0.82" rx="1"/>
<line x1="719.8" y1="104.9" x2="719.8" y2="132.1" stroke="#16a34a" stroke-width="1"/><rect x="715.3" y="123.9" width="9.0" height="3.4" fill="#16a34a" opacity="0.82" rx="1"/>
<line x1="735.6" y1="119.3" x2="735.6" y2="170.2" stroke="#dc2626" stroke-width="1"/><rect x="731.1" y="123.8" width="9.0" height="7.2" fill="#dc2626" opacity="0.82" rx="1"/>
<line x1="751.4" y1="112.8" x2="751.4" y2="142.6" stroke="#16a34a" stroke-width="1"/><rect x="746.9" y="118.1" width="9.0" height="13.0" fill="#16a34a" opacity="0.82" rx="1"/>
<line x1="767.2" y1="114.8" x2="767.2" y2="183.6" stroke="#dc2626" stroke-width="1"/><rect x="762.7" y="118.0" width="9.0" height="64.3" fill="#dc2626" opacity="0.82" rx="1"/>
<line x1="783.0" y1="168.5" x2="783.0" y2="226.5" stroke="#dc2626" stroke-width="1"/><rect x="778.5" y="182.3" width="9.0" height="27.6" fill="#dc2626" opacity="0.82" rx="1"/>
<line x1="798.8" y1="177.7" x2="798.8" y2="221.1" stroke="#16a34a" stroke-width="1"/><rect x="794.3" y="178.9" width="9.0" height="31.0" fill="#16a34a" opacity="0.82" rx="1"/>
<line x1="814.6" y1="177.8" x2="814.6" y2="186.3" stroke="#dc2626" stroke-width="1"/><rect x="810.1" y="178.7" width="9.0" height="1.2" fill="#dc2626" opacity="0.82" rx="1"/>
<line x1="830.4" y1="170.7" x2="830.4" y2="182.2" stroke="#16a34a" stroke-width="1"/><rect x="825.9" y="178.5" width="9.0" height="1.3" fill="#16a34a" opacity="0.82" rx="1"/>
<line x1="846.2" y1="164.4" x2="846.2" y2="202.8" stroke="#dc2626" stroke-width="1"/><rect x="841.7" y="178.3" width="9.0" height="23.5" fill="#dc2626" opacity="0.82" rx="1"/>
<line x1="862.0" y1="192.4" x2="862.0" y2="202.0" stroke="#16a34a" stroke-width="1"/><rect x="857.5" y="196.5" width="9.0" height="5.3" fill="#16a34a" opacity="0.82" rx="1"/>
<line x1="72" y1="256.1" x2="862" y2="256.1" stroke="#16a34a" stroke-width="1.8" stroke-dasharray="6 4" /><rect x="874" y="236.1" width="166" height="23" rx="5" fill="#ffffff" stroke="#16a34a" opacity="0.97"/><text x="881" y="252.1" fill="#16a34a" font-size="15" font-weight="700">支撑 54.97</text>
<line x1="72" y1="97.2" x2="862" y2="97.2" stroke="#dc2626" stroke-width="1.8" stroke-dasharray="6 4" /><rect x="874" y="77.2" width="166" height="23" rx="5" fill="#ffffff" stroke="#dc2626" opacity="0.97"/><text x="881" y="93.2" fill="#dc2626" font-size="15" font-weight="700">压力 76.31</text>
<line x1="72" y1="196.5" x2="862" y2="196.5" stroke="#111827" stroke-width="1.8" stroke-dasharray="2 2" /><rect x="874" y="176.5" width="166" height="23" rx="5" fill="#ffffff" stroke="#111827" opacity="0.97"/><text x="881" y="192.5" fill="#111827" font-size="15" font-weight="700">现价 62.97</text>
<text x="72" y="396" fill="#16a34a" font-size="14" font-weight="700">日线做多计划</text><rect x="72" y="404" width="790" height="48" rx="6" fill="#f9fafb" stroke="#e5e7eb"/><line x1="94" y1="412" x2="840" y2="412" stroke="#16a34a" stroke-width="3"/><circle cx="132.0" cy="412" r="5" fill="#16a34a"/><text x="132.0" y="434" fill="#374151" font-size="12" text-anchor="middle">入场 止跌/突破回踩</text><circle cx="451.2" cy="412" r="5" fill="#16a34a"/><text x="451.2" y="434" fill="#374151" font-size="12" text-anchor="middle">止损 54.97</text><circle cx="712.0" cy="412" r="5" fill="#16a34a"/><text x="712.0" y="434" fill="#374151" font-size="12" text-anchor="middle">目标一 76.31</text><circle cx="814.0" cy="412" r="5" fill="#16a34a"/><text x="814.0" y="434" fill="#374151" font-size="12" text-anchor="middle">目标二 84.31</text>
<text x="72" y="482" fill="#dc2626" font-size="14" font-weight="700">日线做空计划</text><rect x="72" y="490" width="790" height="48" rx="6" fill="#f9fafb" stroke="#e5e7eb"/><line x1="94" y1="498" x2="840" y2="498" stroke="#dc2626" stroke-width="3"/><circle cx="132.0" cy="498" r="5" fill="#dc2626"/><text x="132.0" y="520" fill="#374151" font-size="12" text-anchor="middle">入场 反弹承压/破位回抽</text><circle cx="451.2" cy="498" r="5" fill="#dc2626"/><text x="451.2" y="520" fill="#374151" font-size="12" text-anchor="middle">止损 76.31</text><circle cx="712.0" cy="498" r="5" fill="#dc2626"/><text x="712.0" y="520" fill="#374151" font-size="12" text-anchor="middle">目标一 54.97</text><circle cx="814.0" cy="498" r="5" fill="#dc2626"/><text x="814.0" y="520" fill="#374151" font-size="12" text-anchor="middle">目标二 49.63</text>
</svg>