<svg xmlns="http://www.w3.org/2000/svg" width="1080" height="560" viewBox="0 0 1080 560">
<rect width="100%" height="100%" fill="#ffffff"/>
<text x="72" y="23" fill="#111827" font-size="21" font-weight="800">HYPE 小时线K线支撑压力图</text>
<text x="862" y="42" fill="#374151" font-size="15" text-anchor="end">最新价 71.08</text>
<line x1="72" y1="34" x2="72" y2="340" stroke="#d1d5db"/>
<line x1="72" y1="340" x2="862" y2="340" stroke="#d1d5db"/>
<line x1="72" y1="340.0" x2="862" y2="340.0" stroke="#f3f4f6"/>
<text x="8" y="345.0" fill="#4b5563" font-size="14">67.83</text>
<line x1="72" y1="263.5" x2="862" y2="263.5" stroke="#f3f4f6"/>
<text x="8" y="268.5" fill="#4b5563" font-size="14">69.21</text>
<line x1="72" y1="187.0" x2="862" y2="187.0" stroke="#f3f4f6"/>
<text x="8" y="192.0" fill="#4b5563" font-size="14">70.60</text>
<line x1="72" y1="110.5" x2="862" y2="110.5" stroke="#f3f4f6"/>
<text x="8" y="115.5" fill="#4b5563" font-size="14">71.99</text>
<line x1="72" y1="34.0" x2="862" y2="34.0" stroke="#f3f4f6"/>
<text x="8" y="39.0" fill="#4b5563" font-size="14">73.38</text>
<line x1="72.0" y1="196.0" x2="72.0" y2="274.1" stroke="#16a34a" stroke-width="1"/><rect x="69.3" y="202.4" width="5.4" height="35.9" fill="#16a34a" opacity="0.82" rx="1"/>
<line x1="80.9" y1="180.0" x2="80.9" y2="230.6" stroke="#dc2626" stroke-width="1"/><rect x="78.2" y="202.4" width="5.4" height="22.3" fill="#dc2626" opacity="0.82" rx="1"/>
<line x1="89.8" y1="192.7" x2="89.8" y2="252.4" stroke="#dc2626" stroke-width="1"/><rect x="87.0" y="224.5" width="5.4" height="6.3" fill="#dc2626" opacity="0.82" rx="1"/>
<line x1="98.6" y1="181.9" x2="98.6" y2="242.2" stroke="#16a34a" stroke-width="1"/><rect x="95.9" y="181.9" width="5.4" height="48.8" fill="#16a34a" opacity="0.82" rx="1"/>
<line x1="107.5" y1="180.3" x2="107.5" y2="205.1" stroke="#dc2626" stroke-width="1"/><rect x="104.8" y="182.5" width="5.4" height="12.0" fill="#dc2626" opacity="0.82" rx="1"/>
<line x1="116.4" y1="190.6" x2="116.4" y2="210.6" stroke="#dc2626" stroke-width="1"/><rect x="113.7" y="194.4" width="5.4" height="12.9" fill="#dc2626" opacity="0.82" rx="1"/>
<line x1="125.3" y1="159.7" x2="125.3" y2="210.0" stroke="#16a34a" stroke-width="1"/><rect x="122.5" y="186.8" width="5.4" height="20.5" fill="#16a34a" opacity="0.82" rx="1"/>
<line x1="134.1" y1="150.4" x2="134.1" y2="201.3" stroke="#16a34a" stroke-width="1"/><rect x="131.4" y="172.5" width="5.4" height="14.2" fill="#16a34a" opacity="0.82" rx="1"/>
<line x1="143.0" y1="166.6" x2="143.0" y2="190.1" stroke="#dc2626" stroke-width="1"/><rect x="140.3" y="172.5" width="5.4" height="7.4" fill="#dc2626" opacity="0.82" rx="1"/>
<line x1="151.9" y1="164.4" x2="151.9" y2="206.4" stroke="#dc2626" stroke-width="1"/><rect x="149.2" y="180.0" width="5.4" height="5.3" fill="#dc2626" opacity="0.82" rx="1"/>
<line x1="160.8" y1="146.0" x2="160.8" y2="191.5" stroke="#16a34a" stroke-width="1"/><rect x="158.0" y="156.2" width="5.4" height="28.5" fill="#16a34a" opacity="0.82" rx="1"/>
<line x1="169.6" y1="156.2" x2="169.6" y2="213.7" stroke="#dc2626" stroke-width="1"/><rect x="166.9" y="156.2" width="5.4" height="51.7" fill="#dc2626" opacity="0.82" rx="1"/>
<line x1="178.5" y1="159.9" x2="178.5" y2="223.6" stroke="#16a34a" stroke-width="1"/><rect x="175.8" y="180.3" width="5.4" height="27.6" fill="#16a34a" opacity="0.82" rx="1"/>
<line x1="187.4" y1="129.9" x2="187.4" y2="190.2" stroke="#16a34a" stroke-width="1"/><rect x="184.7" y="147.9" width="5.4" height="32.4" fill="#16a34a" opacity="0.82" rx="1"/>
<line x1="196.3" y1="110.0" x2="196.3" y2="160.2" stroke="#16a34a" stroke-width="1"/><rect x="193.5" y="136.0" width="5.4" height="11.7" fill="#16a34a" opacity="0.82" rx="1"/>
<line x1="205.1" y1="127.1" x2="205.1" y2="165.1" stroke="#dc2626" stroke-width="1"/><rect x="202.4" y="136.2" width="5.4" height="6.5" fill="#dc2626" opacity="0.82" rx="1"/>
<line x1="214.0" y1="127.9" x2="214.0" y2="177.5" stroke="#dc2626" stroke-width="1"/><rect x="211.3" y="142.7" width="5.4" height="9.4" fill="#dc2626" opacity="0.82" rx="1"/>
<line x1="222.9" y1="123.5" x2="222.9" y2="159.3" stroke="#16a34a" stroke-width="1"/><rect x="220.2" y="138.4" width="5.4" height="13.7" fill="#16a34a" opacity="0.82" rx="1"/>
<line x1="231.8" y1="134.8" x2="231.8" y2="164.5" stroke="#dc2626" stroke-width="1"/><rect x="229.1" y="138.7" width="5.4" height="24.2" fill="#dc2626" opacity="0.82" rx="1"/>
<line x1="240.7" y1="151.3" x2="240.7" y2="184.6" stroke="#dc2626" stroke-width="1"/><rect x="237.9" y="161.7" width="5.4" height="8.4" fill="#dc2626" opacity="0.82" rx="1"/>
<line x1="249.5" y1="153.8" x2="249.5" y2="193.9" stroke="#dc2626" stroke-width="1"/><rect x="246.8" y="170.2" width="5.4" height="14.4" fill="#dc2626" opacity="0.82" rx="1"/>
<line x1="258.4" y1="179.3" x2="258.4" y2="199.3" stroke="#dc2626" stroke-width="1"/><rect x="255.7" y="184.6" width="5.4" height="3.3" fill="#dc2626" opacity="0.82" rx="1"/>
<line x1="267.3" y1="158.2" x2="267.3" y2="189.0" stroke="#16a34a" stroke-width="1"/><rect x="264.6" y="175.9" width="5.4" height="12.0" fill="#16a34a" opacity="0.82" rx="1"/>
<line x1="276.2" y1="150.8" x2="276.2" y2="203.4" stroke="#dc2626" stroke-width="1"/><rect x="273.4" y="175.9" width="5.4" height="17.3" fill="#dc2626" opacity="0.82" rx="1"/>
<line x1="285.0" y1="174.6" x2="285.0" y2="199.2" stroke="#16a34a" stroke-width="1"/><rect x="282.3" y="191.7" width="5.4" height="1.5" fill="#16a34a" opacity="0.82" rx="1"/>
<line x1="293.9" y1="154.8" x2="293.9" y2="195.0" stroke="#16a34a" stroke-width="1"/><rect x="291.2" y="186.2" width="5.4" height="5.5" fill="#16a34a" opacity="0.82" rx="1"/>
<line x1="302.8" y1="172.5" x2="302.8" y2="211.6" stroke="#dc2626" stroke-width="1"/><rect x="300.1" y="186.2" width="5.4" height="20.9" fill="#dc2626" opacity="0.82" rx="1"/>
<line x1="311.7" y1="176.1" x2="311.7" y2="220.2" stroke="#16a34a" stroke-width="1"/><rect x="308.9" y="186.2" width="5.4" height="21.1" fill="#16a34a" opacity="0.82" rx="1"/>
<line x1="320.5" y1="183.5" x2="320.5" y2="244.8" stroke="#dc2626" stroke-width="1"/><rect x="317.8" y="185.7" width="5.4" height="50.0" fill="#dc2626" opacity="0.82" rx="1"/>
<line x1="329.4" y1="219.9" x2="329.4" y2="255.8" stroke="#16a34a" stroke-width="1"/><rect x="326.7" y="226.7" width="5.4" height="9.0" fill="#16a34a" opacity="0.82" rx="1"/>
<line x1="338.3" y1="216.6" x2="338.3" y2="247.8" stroke="#dc2626" stroke-width="1"/><rect x="335.6" y="226.7" width="5.4" height="7.1" fill="#dc2626" opacity="0.82" rx="1"/>
<line x1="347.2" y1="206.6" x2="347.2" y2="237.5" stroke="#16a34a" stroke-width="1"/><rect x="344.4" y="213.7" width="5.4" height="20.0" fill="#16a34a" opacity="0.82" rx="1"/>
<line x1="356.0" y1="208.5" x2="356.0" y2="231.7" stroke="#dc2626" stroke-width="1"/><rect x="353.3" y="213.7" width="5.4" height="6.0" fill="#dc2626" opacity="0.82" rx="1"/>
<line x1="364.9" y1="216.3" x2="364.9" y2="241.4" stroke="#dc2626" stroke-width="1"/><rect x="362.2" y="219.2" width="5.4" height="9.8" fill="#dc2626" opacity="0.82" rx="1"/>
<line x1="373.8" y1="227.6" x2="373.8" y2="272.3" stroke="#dc2626" stroke-width="1"/><rect x="371.1" y="229.0" width="5.4" height="29.1" fill="#dc2626" opacity="0.82" rx="1"/>
<line x1="382.7" y1="256.4" x2="382.7" y2="297.7" stroke="#dc2626" stroke-width="1"/><rect x="380.0" y="258.1" width="5.4" height="18.7" fill="#dc2626" opacity="0.82" rx="1"/>
<line x1="391.6" y1="277.0" x2="391.6" y2="318.0" stroke="#dc2626" stroke-width="1"/><rect x="388.8" y="277.1" width="5.4" height="21.4" fill="#dc2626" opacity="0.82" rx="1"/>
<line x1="400.4" y1="291.4" x2="400.4" y2="312.0" stroke="#16a34a" stroke-width="1"/><rect x="397.7" y="294.3" width="5.4" height="4.2" fill="#16a34a" opacity="0.82" rx="1"/>
<line x1="409.3" y1="254.8" x2="409.3" y2="294.4" stroke="#16a34a" stroke-width="1"/><rect x="406.6" y="288.1" width="5.4" height="6.2" fill="#16a34a" opacity="0.82" rx="1"/>
<line x1="418.2" y1="288.4" x2="418.2" y2="318.9" stroke="#dc2626" stroke-width="1"/><rect x="415.5" y="288.4" width="5.4" height="14.1" fill="#dc2626" opacity="0.82" rx="1"/>
<line x1="427.1" y1="290.5" x2="427.1" y2="312.6" stroke="#16a34a" stroke-width="1"/><rect x="424.3" y="297.6" width="5.4" height="5.7" fill="#16a34a" opacity="0.82" rx="1"/>
<line x1="435.9" y1="291.5" x2="435.9" y2="311.5" stroke="#16a34a" stroke-width="1"/><rect x="433.2" y="293.0" width="5.4" height="4.6" fill="#16a34a" opacity="0.82" rx="1"/>
<line x1="444.8" y1="277.8" x2="444.8" y2="305.1" stroke="#16a34a" stroke-width="1"/><rect x="442.1" y="281.9" width="5.4" height="11.1" fill="#16a34a" opacity="0.82" rx="1"/>
<line x1="453.7" y1="278.9" x2="453.7" y2="312.1" stroke="#dc2626" stroke-width="1"/><rect x="451.0" y="283.0" width="5.4" height="22.1" fill="#dc2626" opacity="0.82" rx="1"/>
<line x1="462.6" y1="270.2" x2="462.6" y2="310.6" stroke="#16a34a" stroke-width="1"/><rect x="459.8" y="277.4" width="5.4" height="27.7" fill="#16a34a" opacity="0.82" rx="1"/>
<line x1="471.4" y1="273.4" x2="471.4" y2="305.1" stroke="#dc2626" stroke-width="1"/><rect x="468.7" y="277.4" width="5.4" height="7.3" fill="#dc2626" opacity="0.82" rx="1"/>
<line x1="480.3" y1="249.3" x2="480.3" y2="294.6" stroke="#16a34a" stroke-width="1"/><rect x="477.6" y="266.0" width="5.4" height="18.2" fill="#16a34a" opacity="0.82" rx="1"/>
<line x1="489.2" y1="244.6" x2="489.2" y2="271.4" stroke="#16a34a" stroke-width="1"/><rect x="486.5" y="262.1" width="5.4" height="3.8" fill="#16a34a" opacity="0.82" rx="1"/>
<line x1="498.1" y1="249.9" x2="498.1" y2="275.9" stroke="#16a34a" stroke-width="1"/><rect x="495.3" y="251.6" width="5.4" height="10.5" fill="#16a34a" opacity="0.82" rx="1"/>
<line x1="506.9" y1="228.1" x2="506.9" y2="257.3" stroke="#16a34a" stroke-width="1"/><rect x="504.2" y="247.0" width="5.4" height="4.7" fill="#16a34a" opacity="0.82" rx="1"/>
<line x1="515.8" y1="246.5" x2="515.8" y2="267.0" stroke="#dc2626" stroke-width="1"/><rect x="513.1" y="247.1" width="5.4" height="8.5" fill="#dc2626" opacity="0.82" rx="1"/>
<line x1="524.7" y1="248.7" x2="524.7" y2="269.2" stroke="#dc2626" stroke-width="1"/><rect x="522.0" y="256.0" width="5.4" height="7.3" fill="#dc2626" opacity="0.82" rx="1"/>
<line x1="533.6" y1="254.5" x2="533.6" y2="269.9" stroke="#16a34a" stroke-width="1"/><rect x="530.9" y="262.8" width="5.4" height="1.2" fill="#16a34a" opacity="0.82" rx="1"/>
<line x1="542.4" y1="224.4" x2="542.4" y2="264.5" stroke="#16a34a" stroke-width="1"/><rect x="539.7" y="233.6" width="5.4" height="29.2" fill="#16a34a" opacity="0.82" rx="1"/>
<line x1="551.3" y1="169.9" x2="551.3" y2="236.0" stroke="#16a34a" stroke-width="1"/><rect x="548.6" y="172.9" width="5.4" height="60.3" fill="#16a34a" opacity="0.82" rx="1"/>
<line x1="560.2" y1="147.1" x2="560.2" y2="194.8" stroke="#16a34a" stroke-width="1"/><rect x="557.5" y="164.2" width="5.4" height="8.1" fill="#16a34a" opacity="0.82" rx="1"/>
<line x1="569.1" y1="126.3" x2="569.1" y2="173.0" stroke="#16a34a" stroke-width="1"/><rect x="566.4" y="135.8" width="5.4" height="28.4" fill="#16a34a" opacity="0.82" rx="1"/>
<line x1="578.0" y1="133.3" x2="578.0" y2="164.7" stroke="#dc2626" stroke-width="1"/><rect x="575.2" y="136.0" width="5.4" height="11.0" fill="#dc2626" opacity="0.82" rx="1"/>
<line x1="586.8" y1="83.1" x2="586.8" y2="158.7" stroke="#16a34a" stroke-width="1"/><rect x="584.1" y="83.7" width="5.4" height="63.2" fill="#16a34a" opacity="0.82" rx="1"/>
<line x1="595.7" y1="76.9" x2="595.7" y2="127.3" stroke="#dc2626" stroke-width="1"/><rect x="593.0" y="83.8" width="5.4" height="37.2" fill="#dc2626" opacity="0.82" rx="1"/>
<line x1="604.6" y1="90.3" x2="604.6" y2="136.9" stroke="#16a34a" stroke-width="1"/><rect x="601.9" y="98.1" width="5.4" height="23.0" fill="#16a34a" opacity="0.82" rx="1"/>
<line x1="613.5" y1="89.1" x2="613.5" y2="149.6" stroke="#dc2626" stroke-width="1"/><rect x="610.7" y="98.1" width="5.4" height="34.7" fill="#dc2626" opacity="0.82" rx="1"/>
<line x1="622.3" y1="123.5" x2="622.3" y2="160.5" stroke="#dc2626" stroke-width="1"/><rect x="619.6" y="132.9" width="5.4" height="1.2" fill="#dc2626" opacity="0.82" rx="1"/>
<line x1="631.2" y1="125.4" x2="631.2" y2="185.2" stroke="#dc2626" stroke-width="1"/><rect x="628.5" y="134.0" width="5.4" height="47.5" fill="#dc2626" opacity="0.82" rx="1"/>
<line x1="640.1" y1="154.6" x2="640.1" y2="184.8" stroke="#16a34a" stroke-width="1"/><rect x="637.4" y="157.7" width="5.4" height="23.8" fill="#16a34a" opacity="0.82" rx="1"/>
<line x1="649.0" y1="154.0" x2="649.0" y2="178.4" stroke="#dc2626" stroke-width="1"/><rect x="646.2" y="157.7" width="5.4" height="17.2" fill="#dc2626" opacity="0.82" rx="1"/>
<line x1="657.8" y1="160.5" x2="657.8" y2="219.1" stroke="#dc2626" stroke-width="1"/><rect x="655.1" y="174.8" width="5.4" height="30.6" fill="#dc2626" opacity="0.82" rx="1"/>
<line x1="666.7" y1="202.3" x2="666.7" y2="234.3" stroke="#dc2626" stroke-width="1"/><rect x="664.0" y="205.3" width="5.4" height="18.2" fill="#dc2626" opacity="0.82" rx="1"/>
<line x1="675.6" y1="188.4" x2="675.6" y2="223.8" stroke="#16a34a" stroke-width="1"/><rect x="672.9" y="198.3" width="5.4" height="25.4" fill="#16a34a" opacity="0.82" rx="1"/>
<line x1="684.5" y1="166.0" x2="684.5" y2="226.8" stroke="#dc2626" stroke-width="1"/><rect x="681.8" y="198.3" width="5.4" height="23.0" fill="#dc2626" opacity="0.82" rx="1"/>
<line x1="693.3" y1="216.9" x2="693.3" y2="274.5" stroke="#dc2626" stroke-width="1"/><rect x="690.6" y="220.4" width="5.4" height="48.9" fill="#dc2626" opacity="0.82" rx="1"/>
<line x1="702.2" y1="227.9" x2="702.2" y2="296.2" stroke="#16a34a" stroke-width="1"/><rect x="699.5" y="240.2" width="5.4" height="29.2" fill="#16a34a" opacity="0.82" rx="1"/>
<line x1="711.1" y1="204.3" x2="711.1" y2="250.3" stroke="#16a34a" stroke-width="1"/><rect x="708.4" y="231.1" width="5.4" height="8.7" fill="#16a34a" opacity="0.82" rx="1"/>
<line x1="720.0" y1="175.1" x2="720.0" y2="231.1" stroke="#16a34a" stroke-width="1"/><rect x="717.3" y="181.3" width="5.4" height="49.8" fill="#16a34a" opacity="0.82" rx="1"/>
<line x1="728.9" y1="151.0" x2="728.9" y2="183.6" stroke="#16a34a" stroke-width="1"/><rect x="726.1" y="151.0" width="5.4" height="29.7" fill="#16a34a" opacity="0.82" rx="1"/>
<line x1="737.7" y1="134.8" x2="737.7" y2="168.1" stroke="#dc2626" stroke-width="1"/><rect x="735.0" y="151.0" width="5.4" height="10.7" fill="#dc2626" opacity="0.82" rx="1"/>
<line x1="746.6" y1="132.1" x2="746.6" y2="163.4" stroke="#16a34a" stroke-width="1"/><rect x="743.9" y="154.7" width="5.4" height="6.8" fill="#16a34a" opacity="0.82" rx="1"/>
<line x1="755.5" y1="126.0" x2="755.5" y2="158.9" stroke="#16a34a" stroke-width="1"/><rect x="752.8" y="131.7" width="5.4" height="23.0" fill="#16a34a" opacity="0.82" rx="1"/>
<line x1="764.4" y1="132.2" x2="764.4" y2="176.2" stroke="#dc2626" stroke-width="1"/><rect x="761.6" y="132.6" width="5.4" height="37.0" fill="#dc2626" opacity="0.82" rx="1"/>
<line x1="773.2" y1="125.1" x2="773.2" y2="174.5" stroke="#16a34a" stroke-width="1"/><rect x="770.5" y="131.9" width="5.4" height="37.8" fill="#16a34a" opacity="0.82" rx="1"/>
<line x1="782.1" y1="131.1" x2="782.1" y2="166.3" stroke="#dc2626" stroke-width="1"/><rect x="779.4" y="131.6" width="5.4" height="28.6" fill="#dc2626" opacity="0.82" rx="1"/>
<line x1="791.0" y1="158.0" x2="791.0" y2="192.7" stroke="#dc2626" stroke-width="1"/><rect x="788.3" y="159.9" width="5.4" height="28.2" fill="#dc2626" opacity="0.82" rx="1"/>
<line x1="799.9" y1="110.0" x2="799.9" y2="196.9" stroke="#16a34a" stroke-width="1"/><rect x="797.1" y="112.2" width="5.4" height="76.1" fill="#16a34a" opacity="0.82" rx="1"/>
<line x1="808.7" y1="112.3" x2="808.7" y2="158.4" stroke="#dc2626" stroke-width="1"/><rect x="806.0" y="112.3" width="5.4" height="45.1" fill="#dc2626" opacity="0.82" rx="1"/>
<line x1="817.6" y1="152.0" x2="817.6" y2="194.3" stroke="#dc2626" stroke-width="1"/><rect x="814.9" y="157.4" width="5.4" height="27.3" fill="#dc2626" opacity="0.82" rx="1"/>
<line x1="826.5" y1="180.3" x2="826.5" y2="216.7" stroke="#dc2626" stroke-width="1"/><rect x="823.8" y="185.1" width="5.4" height="26.0" fill="#dc2626" opacity="0.82" rx="1"/>
<line x1="835.4" y1="208.3" x2="835.4" y2="238.4" stroke="#dc2626" stroke-width="1"/><rect x="832.6" y="210.7" width="5.4" height="1.2" fill="#dc2626" opacity="0.82" rx="1"/>
<line x1="844.2" y1="196.5" x2="844.2" y2="250.3" stroke="#16a34a" stroke-width="1"/><rect x="841.5" y="210.3" width="5.4" height="1.2" fill="#16a34a" opacity="0.82" rx="1"/>
<line x1="853.1" y1="166.1" x2="853.1" y2="218.1" stroke="#16a34a" stroke-width="1"/><rect x="850.4" y="170.6" width="5.4" height="39.7" fill="#16a34a" opacity="0.82" rx="1"/>
<line x1="862.0" y1="159.3" x2="862.0" y2="174.0" stroke="#16a34a" stroke-width="1"/><rect x="859.3" y="160.5" width="5.4" height="10.1" fill="#16a34a" opacity="0.82" rx="1"/>
<line x1="72" y1="223.8" x2="862" y2="223.8" stroke="#16a34a" stroke-width="1.8" stroke-dasharray="6 4" /><rect x="874" y="203.8" width="166" height="23" rx="5" fill="#ffffff" stroke="#16a34a" opacity="0.97"/><text x="881" y="219.8" fill="#16a34a" font-size="15" font-weight="700">日内支撑 69.94</text>
<line x1="72" y1="55.1" x2="862" y2="55.1" stroke="#dc2626" stroke-width="1.8" stroke-dasharray="6 4" /><rect x="874" y="35.1" width="166" height="23" rx="5" fill="#ffffff" stroke="#dc2626" opacity="0.97"/><text x="881" y="51.1" fill="#dc2626" font-size="15" font-weight="700">日内压力 73.00</text>
<line x1="72" y1="160.5" x2="862" y2="160.5" stroke="#111827" stroke-width="1.8" stroke-dasharray="2 2" /><rect x="874" y="140.5" width="166" height="23" rx="5" fill="#ffffff" stroke="#111827" opacity="0.97"/><text x="881" y="156.5" fill="#111827" font-size="15" font-weight="700">现价 71.08</text>
<text x="72" y="396" fill="#16a34a" font-size="14" font-weight="700">日内做多计划</text><rect x="72" y="404" width="790" height="48" rx="6" fill="#f9fafb" stroke="#e5e7eb"/><line x1="94" y1="412" x2="840" y2="412" stroke="#16a34a" stroke-width="3"/><circle cx="132.0" cy="412" r="5" fill="#16a34a"/><text x="132.0" y="434" fill="#374151" font-size="12" text-anchor="middle">入场 止跌/突破回踩</text><circle cx="451.2" cy="412" r="5" fill="#16a34a"/><text x="451.2" y="434" fill="#374151" font-size="12" text-anchor="middle">止损 69.94</text><circle cx="712.0" cy="412" r="5" fill="#16a34a"/><text x="712.0" y="434" fill="#374151" font-size="12" text-anchor="middle">目标一 73.00</text><circle cx="814.0" cy="412" r="5" fill="#16a34a"/><text x="814.0" y="434" fill="#374151" font-size="12" text-anchor="middle">目标二 73.76</text>
<text x="72" y="482" fill="#dc2626" font-size="14" font-weight="700">日内做空计划</text><rect x="72" y="490" width="790" height="48" rx="6" fill="#f9fafb" stroke="#e5e7eb"/><line x1="94" y1="498" x2="840" y2="498" stroke="#dc2626" stroke-width="3"/><circle cx="132.0" cy="498" r="5" fill="#dc2626"/><text x="132.0" y="520" fill="#374151" font-size="12" text-anchor="middle">入场 反弹承压/破位回抽</text><circle cx="451.2" cy="498" r="5" fill="#dc2626"/><text x="451.2" y="520" fill="#374151" font-size="12" text-anchor="middle">止损 73.00</text><circle cx="712.0" cy="498" r="5" fill="#dc2626"/><text x="712.0" y="520" fill="#374151" font-size="12" text-anchor="middle">目标一 69.94</text><circle cx="814.0" cy="498" r="5" fill="#dc2626"/><text x="814.0" y="520" fill="#374151" font-size="12" text-anchor="middle">目标二 69.17</text>
</svg>