<svg xmlns="http://www.w3.org/2000/svg" width="1080" height="560" viewBox="0 0 1080 560">
<rect width="100%" height="100%" fill="#ffffff"/>
<text x="72" y="23" fill="#111827" font-size="21" font-weight="800">BTC 小时线K线支撑压力图</text>
<text x="862" y="42" fill="#374151" font-size="15" text-anchor="end">最新价 64,005</text>
<line x1="72" y1="34" x2="72" y2="340" stroke="#d1d5db"/>
<line x1="72" y1="340" x2="862" y2="340" stroke="#d1d5db"/>
<line x1="72" y1="340.0" x2="862" y2="340.0" stroke="#f3f4f6"/>
<text x="8" y="345.0" fill="#4b5563" font-size="14">60,969</text>
<line x1="72" y1="263.5" x2="862" y2="263.5" stroke="#f3f4f6"/>
<text x="8" y="268.5" fill="#4b5563" font-size="14">62,157</text>
<line x1="72" y1="187.0" x2="862" y2="187.0" stroke="#f3f4f6"/>
<text x="8" y="192.0" fill="#4b5563" font-size="14">63,345</text>
<line x1="72" y1="110.5" x2="862" y2="110.5" stroke="#f3f4f6"/>
<text x="8" y="115.5" fill="#4b5563" font-size="14">64,533</text>
<line x1="72" y1="34.0" x2="862" y2="34.0" stroke="#f3f4f6"/>
<text x="8" y="39.0" fill="#4b5563" font-size="14">65,721</text>
<line x1="72.0" y1="283.3" x2="72.0" y2="297.2" stroke="#16a34a" stroke-width="1"/><rect x="69.3" y="290.8" width="5.4" height="3.4" fill="#16a34a" opacity="0.82" rx="1"/>
<line x1="80.9" y1="281.7" x2="80.9" y2="304.2" stroke="#dc2626" stroke-width="1"/><rect x="78.2" y="290.8" width="5.4" height="11.6" fill="#dc2626" opacity="0.82" rx="1"/>
<line x1="89.8" y1="289.0" x2="89.8" y2="307.1" stroke="#16a34a" stroke-width="1"/><rect x="87.0" y="293.8" width="5.4" height="8.6" fill="#16a34a" opacity="0.82" rx="1"/>
<line x1="98.6" y1="272.5" x2="98.6" y2="296.8" stroke="#16a34a" stroke-width="1"/><rect x="95.9" y="280.9" width="5.4" height="12.9" fill="#16a34a" opacity="0.82" rx="1"/>
<line x1="107.5" y1="268.6" x2="107.5" y2="286.0" stroke="#16a34a" stroke-width="1"/><rect x="104.8" y="274.1" width="5.4" height="6.8" fill="#16a34a" opacity="0.82" rx="1"/>
<line x1="116.4" y1="264.0" x2="116.4" y2="283.9" stroke="#dc2626" stroke-width="1"/><rect x="113.7" y="274.1" width="5.4" height="2.6" fill="#dc2626" opacity="0.82" rx="1"/>
<line x1="125.3" y1="256.1" x2="125.3" y2="279.4" stroke="#16a34a" stroke-width="1"/><rect x="122.5" y="268.2" width="5.4" height="8.4" fill="#16a34a" opacity="0.82" rx="1"/>
<line x1="134.1" y1="257.1" x2="134.1" y2="296.0" stroke="#16a34a" stroke-width="1"/><rect x="131.4" y="264.4" width="5.4" height="3.8" fill="#16a34a" opacity="0.82" rx="1"/>
<line x1="143.0" y1="248.7" x2="143.0" y2="287.9" stroke="#dc2626" stroke-width="1"/><rect x="140.3" y="264.4" width="5.4" height="16.0" fill="#dc2626" opacity="0.82" rx="1"/>
<line x1="151.9" y1="267.0" x2="151.9" y2="281.5" stroke="#16a34a" stroke-width="1"/><rect x="149.2" y="268.4" width="5.4" height="12.0" fill="#16a34a" opacity="0.82" rx="1"/>
<line x1="160.8" y1="256.4" x2="160.8" y2="271.3" stroke="#16a34a" stroke-width="1"/><rect x="158.0" y="262.6" width="5.4" height="5.8" fill="#16a34a" opacity="0.82" rx="1"/>
<line x1="169.6" y1="259.2" x2="169.6" y2="268.0" stroke="#16a34a" stroke-width="1"/><rect x="166.9" y="262.0" width="5.4" height="1.2" fill="#16a34a" opacity="0.82" rx="1"/>
<line x1="178.5" y1="254.8" x2="178.5" y2="265.9" stroke="#dc2626" stroke-width="1"/><rect x="175.8" y="262.0" width="5.4" height="1.2" fill="#dc2626" opacity="0.82" rx="1"/>
<line x1="187.4" y1="215.8" x2="187.4" y2="263.9" stroke="#16a34a" stroke-width="1"/><rect x="184.7" y="224.7" width="5.4" height="37.4" fill="#16a34a" opacity="0.82" rx="1"/>
<line x1="196.3" y1="212.0" x2="196.3" y2="242.2" stroke="#dc2626" stroke-width="1"/><rect x="193.5" y="224.7" width="5.4" height="3.4" fill="#dc2626" opacity="0.82" rx="1"/>
<line x1="205.1" y1="226.9" x2="205.1" y2="240.6" stroke="#dc2626" stroke-width="1"/><rect x="202.4" y="228.1" width="5.4" height="10.1" fill="#dc2626" opacity="0.82" rx="1"/>
<line x1="214.0" y1="229.3" x2="214.0" y2="241.0" stroke="#16a34a" stroke-width="1"/><rect x="211.3" y="237.2" width="5.4" height="1.2" fill="#16a34a" opacity="0.82" rx="1"/>
<line x1="222.9" y1="214.0" x2="222.9" y2="237.5" stroke="#16a34a" stroke-width="1"/><rect x="220.2" y="226.3" width="5.4" height="10.9" fill="#16a34a" opacity="0.82" rx="1"/>
<line x1="231.8" y1="226.3" x2="231.8" y2="249.1" stroke="#dc2626" stroke-width="1"/><rect x="229.1" y="226.3" width="5.4" height="18.4" fill="#dc2626" opacity="0.82" rx="1"/>
<line x1="240.7" y1="237.8" x2="240.7" y2="247.6" stroke="#16a34a" stroke-width="1"/><rect x="237.9" y="240.5" width="5.4" height="4.1" fill="#16a34a" opacity="0.82" rx="1"/>
<line x1="249.5" y1="226.3" x2="249.5" y2="244.0" stroke="#16a34a" stroke-width="1"/><rect x="246.8" y="234.4" width="5.4" height="6.1" fill="#16a34a" opacity="0.82" rx="1"/>
<line x1="258.4" y1="226.3" x2="258.4" y2="237.0" stroke="#16a34a" stroke-width="1"/><rect x="255.7" y="231.0" width="5.4" height="3.3" fill="#16a34a" opacity="0.82" rx="1"/>
<line x1="267.3" y1="231.0" x2="267.3" y2="248.1" stroke="#dc2626" stroke-width="1"/><rect x="264.6" y="231.0" width="5.4" height="13.9" fill="#dc2626" opacity="0.82" rx="1"/>
<line x1="276.2" y1="238.9" x2="276.2" y2="254.1" stroke="#16a34a" stroke-width="1"/><rect x="273.4" y="243.2" width="5.4" height="1.8" fill="#16a34a" opacity="0.82" rx="1"/>
<line x1="285.0" y1="234.2" x2="285.0" y2="245.2" stroke="#16a34a" stroke-width="1"/><rect x="282.3" y="238.3" width="5.4" height="4.9" fill="#16a34a" opacity="0.82" rx="1"/>
<line x1="293.9" y1="231.5" x2="293.9" y2="242.4" stroke="#dc2626" stroke-width="1"/><rect x="291.2" y="238.3" width="5.4" height="1.4" fill="#dc2626" opacity="0.82" rx="1"/>
<line x1="302.8" y1="237.6" x2="302.8" y2="248.8" stroke="#dc2626" stroke-width="1"/><rect x="300.1" y="239.6" width="5.4" height="4.0" fill="#dc2626" opacity="0.82" rx="1"/>
<line x1="311.7" y1="240.2" x2="311.7" y2="246.7" stroke="#16a34a" stroke-width="1"/><rect x="308.9" y="242.5" width="5.4" height="1.2" fill="#16a34a" opacity="0.82" rx="1"/>
<line x1="320.5" y1="238.5" x2="320.5" y2="245.9" stroke="#dc2626" stroke-width="1"/><rect x="317.8" y="242.5" width="5.4" height="1.6" fill="#dc2626" opacity="0.82" rx="1"/>
<line x1="329.4" y1="230.4" x2="329.4" y2="244.1" stroke="#16a34a" stroke-width="1"/><rect x="326.7" y="232.8" width="5.4" height="11.3" fill="#16a34a" opacity="0.82" rx="1"/>
<line x1="338.3" y1="225.0" x2="338.3" y2="240.8" stroke="#dc2626" stroke-width="1"/><rect x="335.6" y="232.8" width="5.4" height="4.6" fill="#dc2626" opacity="0.82" rx="1"/>
<line x1="347.2" y1="227.3" x2="347.2" y2="237.4" stroke="#16a34a" stroke-width="1"/><rect x="344.4" y="230.4" width="5.4" height="7.0" fill="#16a34a" opacity="0.82" rx="1"/>
<line x1="356.0" y1="204.8" x2="356.0" y2="230.7" stroke="#16a34a" stroke-width="1"/><rect x="353.3" y="215.1" width="5.4" height="15.3" fill="#16a34a" opacity="0.82" rx="1"/>
<line x1="364.9" y1="212.9" x2="364.9" y2="225.1" stroke="#dc2626" stroke-width="1"/><rect x="362.2" y="215.1" width="5.4" height="1.2" fill="#dc2626" opacity="0.82" rx="1"/>
<line x1="373.8" y1="182.2" x2="373.8" y2="224.1" stroke="#16a34a" stroke-width="1"/><rect x="371.1" y="193.4" width="5.4" height="22.6" fill="#16a34a" opacity="0.82" rx="1"/>
<line x1="382.7" y1="188.3" x2="382.7" y2="204.7" stroke="#dc2626" stroke-width="1"/><rect x="380.0" y="193.4" width="5.4" height="7.0" fill="#dc2626" opacity="0.82" rx="1"/>
<line x1="391.6" y1="180.3" x2="391.6" y2="203.4" stroke="#16a34a" stroke-width="1"/><rect x="388.8" y="192.0" width="5.4" height="8.4" fill="#16a34a" opacity="0.82" rx="1"/>
<line x1="400.4" y1="185.6" x2="400.4" y2="201.0" stroke="#dc2626" stroke-width="1"/><rect x="397.7" y="192.0" width="5.4" height="3.8" fill="#dc2626" opacity="0.82" rx="1"/>
<line x1="409.3" y1="181.5" x2="409.3" y2="198.1" stroke="#16a34a" stroke-width="1"/><rect x="406.6" y="191.5" width="5.4" height="4.2" fill="#16a34a" opacity="0.82" rx="1"/>
<line x1="418.2" y1="190.8" x2="418.2" y2="200.9" stroke="#dc2626" stroke-width="1"/><rect x="415.5" y="191.5" width="5.4" height="6.9" fill="#dc2626" opacity="0.82" rx="1"/>
<line x1="427.1" y1="195.3" x2="427.1" y2="215.5" stroke="#dc2626" stroke-width="1"/><rect x="424.3" y="198.4" width="5.4" height="3.4" fill="#dc2626" opacity="0.82" rx="1"/>
<line x1="435.9" y1="201.8" x2="435.9" y2="220.5" stroke="#dc2626" stroke-width="1"/><rect x="433.2" y="201.8" width="5.4" height="9.8" fill="#dc2626" opacity="0.82" rx="1"/>
<line x1="444.8" y1="207.8" x2="444.8" y2="224.5" stroke="#dc2626" stroke-width="1"/><rect x="442.1" y="211.6" width="5.4" height="6.6" fill="#dc2626" opacity="0.82" rx="1"/>
<line x1="453.7" y1="215.5" x2="453.7" y2="238.2" stroke="#dc2626" stroke-width="1"/><rect x="451.0" y="218.3" width="5.4" height="12.0" fill="#dc2626" opacity="0.82" rx="1"/>
<line x1="462.6" y1="224.3" x2="462.6" y2="233.3" stroke="#16a34a" stroke-width="1"/><rect x="459.8" y="226.0" width="5.4" height="4.2" fill="#16a34a" opacity="0.82" rx="1"/>
<line x1="471.4" y1="213.9" x2="471.4" y2="229.8" stroke="#16a34a" stroke-width="1"/><rect x="468.7" y="222.9" width="5.4" height="3.1" fill="#16a34a" opacity="0.82" rx="1"/>
<line x1="480.3" y1="222.9" x2="480.3" y2="233.2" stroke="#dc2626" stroke-width="1"/><rect x="477.6" y="222.9" width="5.4" height="4.5" fill="#dc2626" opacity="0.82" rx="1"/>
<line x1="489.2" y1="222.1" x2="489.2" y2="232.1" stroke="#16a34a" stroke-width="1"/><rect x="486.5" y="225.3" width="5.4" height="2.2" fill="#16a34a" opacity="0.82" rx="1"/>
<line x1="498.1" y1="206.7" x2="498.1" y2="229.2" stroke="#16a34a" stroke-width="1"/><rect x="495.3" y="209.5" width="5.4" height="15.8" fill="#16a34a" opacity="0.82" rx="1"/>
<line x1="506.9" y1="203.8" x2="506.9" y2="217.7" stroke="#dc2626" stroke-width="1"/><rect x="504.2" y="209.5" width="5.4" height="6.6" fill="#dc2626" opacity="0.82" rx="1"/>
<line x1="515.8" y1="215.1" x2="515.8" y2="247.2" stroke="#dc2626" stroke-width="1"/><rect x="513.1" y="216.1" width="5.4" height="18.9" fill="#dc2626" opacity="0.82" rx="1"/>
<line x1="524.7" y1="226.1" x2="524.7" y2="241.0" stroke="#16a34a" stroke-width="1"/><rect x="522.0" y="226.1" width="5.4" height="8.8" fill="#16a34a" opacity="0.82" rx="1"/>
<line x1="533.6" y1="222.1" x2="533.6" y2="236.1" stroke="#dc2626" stroke-width="1"/><rect x="530.9" y="226.1" width="5.4" height="6.9" fill="#dc2626" opacity="0.82" rx="1"/>
<line x1="542.4" y1="225.2" x2="542.4" y2="239.2" stroke="#16a34a" stroke-width="1"/><rect x="539.7" y="227.4" width="5.4" height="5.7" fill="#16a34a" opacity="0.82" rx="1"/>
<line x1="551.3" y1="222.2" x2="551.3" y2="233.9" stroke="#16a34a" stroke-width="1"/><rect x="548.6" y="224.0" width="5.4" height="3.3" fill="#16a34a" opacity="0.82" rx="1"/>
<line x1="560.2" y1="222.5" x2="560.2" y2="233.6" stroke="#16a34a" stroke-width="1"/><rect x="557.5" y="223.1" width="5.4" height="1.2" fill="#16a34a" opacity="0.82" rx="1"/>
<line x1="569.1" y1="214.1" x2="569.1" y2="232.0" stroke="#dc2626" stroke-width="1"/><rect x="566.4" y="223.1" width="5.4" height="4.7" fill="#dc2626" opacity="0.82" rx="1"/>
<line x1="578.0" y1="225.6" x2="578.0" y2="236.9" stroke="#dc2626" stroke-width="1"/><rect x="575.2" y="227.8" width="5.4" height="6.4" fill="#dc2626" opacity="0.82" rx="1"/>
<line x1="586.8" y1="222.1" x2="586.8" y2="237.3" stroke="#dc2626" stroke-width="1"/><rect x="584.1" y="234.2" width="5.4" height="1.2" fill="#dc2626" opacity="0.82" rx="1"/>
<line x1="595.7" y1="217.9" x2="595.7" y2="235.8" stroke="#16a34a" stroke-width="1"/><rect x="593.0" y="222.9" width="5.4" height="12.0" fill="#16a34a" opacity="0.82" rx="1"/>
<line x1="604.6" y1="219.0" x2="604.6" y2="229.1" stroke="#dc2626" stroke-width="1"/><rect x="601.9" y="222.9" width="5.4" height="2.8" fill="#dc2626" opacity="0.82" rx="1"/>
<line x1="613.5" y1="221.1" x2="613.5" y2="230.6" stroke="#dc2626" stroke-width="1"/><rect x="610.7" y="225.7" width="5.4" height="2.5" fill="#dc2626" opacity="0.82" rx="1"/>
<line x1="622.3" y1="194.8" x2="622.3" y2="236.3" stroke="#16a34a" stroke-width="1"/><rect x="619.6" y="204.7" width="5.4" height="23.5" fill="#16a34a" opacity="0.82" rx="1"/>
<line x1="631.2" y1="146.2" x2="631.2" y2="210.8" stroke="#16a34a" stroke-width="1"/><rect x="628.5" y="163.1" width="5.4" height="41.6" fill="#16a34a" opacity="0.82" rx="1"/>
<line x1="640.1" y1="145.4" x2="640.1" y2="174.3" stroke="#dc2626" stroke-width="1"/><rect x="637.4" y="163.1" width="5.4" height="6.4" fill="#dc2626" opacity="0.82" rx="1"/>
<line x1="649.0" y1="160.3" x2="649.0" y2="189.4" stroke="#16a34a" stroke-width="1"/><rect x="646.2" y="162.3" width="5.4" height="7.2" fill="#16a34a" opacity="0.82" rx="1"/>
<line x1="657.8" y1="151.3" x2="657.8" y2="175.7" stroke="#dc2626" stroke-width="1"/><rect x="655.1" y="162.3" width="5.4" height="11.9" fill="#dc2626" opacity="0.82" rx="1"/>
<line x1="666.7" y1="167.8" x2="666.7" y2="187.3" stroke="#dc2626" stroke-width="1"/><rect x="664.0" y="174.2" width="5.4" height="7.7" fill="#dc2626" opacity="0.82" rx="1"/>
<line x1="675.6" y1="178.4" x2="675.6" y2="202.7" stroke="#dc2626" stroke-width="1"/><rect x="672.9" y="181.9" width="5.4" height="9.8" fill="#dc2626" opacity="0.82" rx="1"/>
<line x1="684.5" y1="185.5" x2="684.5" y2="199.3" stroke="#dc2626" stroke-width="1"/><rect x="681.8" y="191.7" width="5.4" height="1.9" fill="#dc2626" opacity="0.82" rx="1"/>
<line x1="693.3" y1="193.6" x2="693.3" y2="214.9" stroke="#dc2626" stroke-width="1"/><rect x="690.6" y="193.6" width="5.4" height="10.1" fill="#dc2626" opacity="0.82" rx="1"/>
<line x1="702.2" y1="201.1" x2="702.2" y2="213.1" stroke="#dc2626" stroke-width="1"/><rect x="699.5" y="203.7" width="5.4" height="7.9" fill="#dc2626" opacity="0.82" rx="1"/>
<line x1="711.1" y1="202.6" x2="711.1" y2="218.4" stroke="#16a34a" stroke-width="1"/><rect x="708.4" y="205.1" width="5.4" height="6.6" fill="#16a34a" opacity="0.82" rx="1"/>
<line x1="720.0" y1="194.7" x2="720.0" y2="221.7" stroke="#dc2626" stroke-width="1"/><rect x="717.3" y="205.1" width="5.4" height="12.1" fill="#dc2626" opacity="0.82" rx="1"/>
<line x1="728.9" y1="216.1" x2="728.9" y2="234.3" stroke="#dc2626" stroke-width="1"/><rect x="726.1" y="217.2" width="5.4" height="14.8" fill="#dc2626" opacity="0.82" rx="1"/>
<line x1="737.7" y1="208.0" x2="737.7" y2="232.3" stroke="#16a34a" stroke-width="1"/><rect x="735.0" y="222.3" width="5.4" height="9.7" fill="#16a34a" opacity="0.82" rx="1"/>
<line x1="746.6" y1="210.6" x2="746.6" y2="243.9" stroke="#dc2626" stroke-width="1"/><rect x="743.9" y="222.3" width="5.4" height="21.7" fill="#dc2626" opacity="0.82" rx="1"/>
<line x1="755.5" y1="243.5" x2="755.5" y2="296.0" stroke="#dc2626" stroke-width="1"/><rect x="752.8" y="243.9" width="5.4" height="46.9" fill="#dc2626" opacity="0.82" rx="1"/>
<line x1="764.4" y1="272.1" x2="764.4" y2="318.9" stroke="#16a34a" stroke-width="1"/><rect x="761.6" y="289.6" width="5.4" height="1.2" fill="#16a34a" opacity="0.82" rx="1"/>
<line x1="773.2" y1="248.0" x2="773.2" y2="294.3" stroke="#16a34a" stroke-width="1"/><rect x="770.5" y="272.4" width="5.4" height="17.3" fill="#16a34a" opacity="0.82" rx="1"/>
<line x1="782.1" y1="175.0" x2="782.1" y2="272.4" stroke="#16a34a" stroke-width="1"/><rect x="779.4" y="175.5" width="5.4" height="96.8" fill="#16a34a" opacity="0.82" rx="1"/>
<line x1="791.0" y1="154.5" x2="791.0" y2="186.3" stroke="#16a34a" stroke-width="1"/><rect x="788.3" y="163.5" width="5.4" height="12.1" fill="#16a34a" opacity="0.82" rx="1"/>
<line x1="799.9" y1="146.3" x2="799.9" y2="174.5" stroke="#dc2626" stroke-width="1"/><rect x="797.1" y="163.5" width="5.4" height="9.4" fill="#dc2626" opacity="0.82" rx="1"/>
<line x1="808.7" y1="153.4" x2="808.7" y2="174.9" stroke="#16a34a" stroke-width="1"/><rect x="806.0" y="165.7" width="5.4" height="7.1" fill="#16a34a" opacity="0.82" rx="1"/>
<line x1="817.6" y1="152.9" x2="817.6" y2="168.8" stroke="#16a34a" stroke-width="1"/><rect x="814.9" y="163.5" width="5.4" height="2.2" fill="#16a34a" opacity="0.82" rx="1"/>
<line x1="826.5" y1="153.3" x2="826.5" y2="173.2" stroke="#16a34a" stroke-width="1"/><rect x="823.8" y="157.8" width="5.4" height="5.7" fill="#16a34a" opacity="0.82" rx="1"/>
<line x1="835.4" y1="100.3" x2="835.4" y2="158.9" stroke="#16a34a" stroke-width="1"/><rect x="832.6" y="114.2" width="5.4" height="43.6" fill="#16a34a" opacity="0.82" rx="1"/>
<line x1="844.2" y1="113.4" x2="844.2" y2="136.5" stroke="#dc2626" stroke-width="1"/><rect x="841.5" y="114.2" width="5.4" height="16.0" fill="#dc2626" opacity="0.82" rx="1"/>
<line x1="853.1" y1="123.6" x2="853.1" y2="144.7" stroke="#dc2626" stroke-width="1"/><rect x="850.4" y="130.2" width="5.4" height="13.1" fill="#dc2626" opacity="0.82" rx="1"/>
<line x1="862.0" y1="141.1" x2="862.0" y2="145.5" stroke="#dc2626" stroke-width="1"/><rect x="859.3" y="143.3" width="5.4" height="1.2" fill="#dc2626" opacity="0.82" rx="1"/>
<line x1="72" y1="198.2" x2="862" y2="198.2" stroke="#16a34a" stroke-width="1.8" stroke-dasharray="6 4" /><rect x="874" y="178.2" width="166" height="23" rx="5" fill="#ffffff" stroke="#16a34a" opacity="0.97"/><text x="881" y="194.2" fill="#16a34a" font-size="15" font-weight="700">日内支撑 63,172</text>
<line x1="72" y1="55.1" x2="862" y2="55.1" stroke="#dc2626" stroke-width="1.8" stroke-dasharray="6 4" /><rect x="874" y="35.1" width="166" height="23" rx="5" fill="#ffffff" stroke="#dc2626" opacity="0.97"/><text x="881" y="51.1" fill="#dc2626" font-size="15" font-weight="700">日内压力 65,394</text>
<line x1="72" y1="144.5" x2="862" y2="144.5" stroke="#111827" stroke-width="1.8" stroke-dasharray="2 2" /><rect x="874" y="124.5" width="166" height="23" rx="5" fill="#ffffff" stroke="#111827" opacity="0.97"/><text x="881" y="140.5" fill="#111827" font-size="15" font-weight="700">现价 64,005</text>
<text x="72" y="396" fill="#16a34a" font-size="14" font-weight="700">日内做多计划</text><rect x="72" y="404" width="790" height="48" rx="6" fill="#f9fafb" stroke="#e5e7eb"/><line x1="94" y1="412" x2="840" y2="412" stroke="#16a34a" stroke-width="3"/><circle cx="132.0" cy="412" r="5" fill="#16a34a"/><text x="132.0" y="434" fill="#374151" font-size="12" text-anchor="middle">入场 止跌/突破回踩</text><circle cx="451.2" cy="412" r="5" fill="#16a34a"/><text x="451.2" y="434" fill="#374151" font-size="12" text-anchor="middle">止损 63,172</text><circle cx="712.0" cy="412" r="5" fill="#16a34a"/><text x="712.0" y="434" fill="#374151" font-size="12" text-anchor="middle">目标一 65,394</text><circle cx="814.0" cy="412" r="5" fill="#16a34a"/><text x="814.0" y="434" fill="#374151" font-size="12" text-anchor="middle">目标二 65,949</text>
<text x="72" y="482" fill="#dc2626" font-size="14" font-weight="700">日内做空计划</text><rect x="72" y="490" width="790" height="48" rx="6" fill="#f9fafb" stroke="#e5e7eb"/><line x1="94" y1="498" x2="840" y2="498" stroke="#dc2626" stroke-width="3"/><circle cx="132.0" cy="498" r="5" fill="#dc2626"/><text x="132.0" y="520" fill="#374151" font-size="12" text-anchor="middle">入场 反弹承压/破位回抽</text><circle cx="451.2" cy="498" r="5" fill="#dc2626"/><text x="451.2" y="520" fill="#374151" font-size="12" text-anchor="middle">止损 65,394</text><circle cx="712.0" cy="498" r="5" fill="#dc2626"/><text x="712.0" y="520" fill="#374151" font-size="12" text-anchor="middle">目标一 63,172</text><circle cx="814.0" cy="498" r="5" fill="#dc2626"/><text x="814.0" y="520" fill="#374151" font-size="12" text-anchor="middle">目标二 62,616</text>
</svg>