<svg xmlns="http://www.w3.org/2000/svg" width="1080" height="560" viewBox="0 0 1080 560">
<rect width="100%" height="100%" fill="#ffffff"/>
<text x="72" y="23" fill="#111827" font-size="21" font-weight="800">HYPE 小时线K线支撑压力图</text>
<text x="862" y="42" fill="#374151" font-size="15" text-anchor="end">最新价 66.64</text>
<line x1="72" y1="34" x2="72" y2="340" stroke="#d1d5db"/>
<line x1="72" y1="340" x2="862" y2="340" stroke="#d1d5db"/>
<line x1="72" y1="340.0" x2="862" y2="340.0" stroke="#f3f4f6"/>
<text x="8" y="345.0" fill="#4b5563" font-size="14">61.07</text>
<line x1="72" y1="263.5" x2="862" y2="263.5" stroke="#f3f4f6"/>
<text x="8" y="268.5" fill="#4b5563" font-size="14">63.16</text>
<line x1="72" y1="187.0" x2="862" y2="187.0" stroke="#f3f4f6"/>
<text x="8" y="192.0" fill="#4b5563" font-size="14">65.25</text>
<line x1="72" y1="110.5" x2="862" y2="110.5" stroke="#f3f4f6"/>
<text x="8" y="115.5" fill="#4b5563" font-size="14">67.34</text>
<line x1="72" y1="34.0" x2="862" y2="34.0" stroke="#f3f4f6"/>
<text x="8" y="39.0" fill="#4b5563" font-size="14">69.43</text>
<line x1="72.0" y1="272.9" x2="72.0" y2="290.3" stroke="#dc2626" stroke-width="1"/><rect x="69.3" y="282.8" width="5.4" height="2.0" fill="#dc2626" opacity="0.82" rx="1"/>
<line x1="80.9" y1="278.2" x2="80.9" y2="293.8" stroke="#dc2626" stroke-width="1"/><rect x="78.2" y="284.9" width="5.4" height="7.9" fill="#dc2626" opacity="0.82" rx="1"/>
<line x1="89.8" y1="278.3" x2="89.8" y2="295.9" stroke="#16a34a" stroke-width="1"/><rect x="87.0" y="285.0" width="5.4" height="7.6" fill="#16a34a" opacity="0.82" rx="1"/>
<line x1="98.6" y1="238.9" x2="98.6" y2="285.0" stroke="#16a34a" stroke-width="1"/><rect x="95.9" y="246.2" width="5.4" height="38.8" fill="#16a34a" opacity="0.82" rx="1"/>
<line x1="107.5" y1="244.3" x2="107.5" y2="273.9" stroke="#dc2626" stroke-width="1"/><rect x="104.8" y="246.2" width="5.4" height="9.8" fill="#dc2626" opacity="0.82" rx="1"/>
<line x1="116.4" y1="210.9" x2="116.4" y2="266.0" stroke="#16a34a" stroke-width="1"/><rect x="113.7" y="240.5" width="5.4" height="15.5" fill="#16a34a" opacity="0.82" rx="1"/>
<line x1="125.3" y1="197.5" x2="125.3" y2="265.0" stroke="#16a34a" stroke-width="1"/><rect x="122.5" y="236.4" width="5.4" height="4.1" fill="#16a34a" opacity="0.82" rx="1"/>
<line x1="134.1" y1="216.2" x2="134.1" y2="261.7" stroke="#16a34a" stroke-width="1"/><rect x="131.4" y="219.4" width="5.4" height="16.9" fill="#16a34a" opacity="0.82" rx="1"/>
<line x1="143.0" y1="198.4" x2="143.0" y2="243.6" stroke="#16a34a" stroke-width="1"/><rect x="140.3" y="201.8" width="5.4" height="17.5" fill="#16a34a" opacity="0.82" rx="1"/>
<line x1="151.9" y1="186.2" x2="151.9" y2="224.8" stroke="#dc2626" stroke-width="1"/><rect x="149.2" y="201.8" width="5.4" height="6.3" fill="#dc2626" opacity="0.82" rx="1"/>
<line x1="160.8" y1="128.1" x2="160.8" y2="208.3" stroke="#16a34a" stroke-width="1"/><rect x="158.0" y="147.0" width="5.4" height="61.4" fill="#16a34a" opacity="0.82" rx="1"/>
<line x1="169.6" y1="144.8" x2="169.6" y2="173.5" stroke="#dc2626" stroke-width="1"/><rect x="166.9" y="147.0" width="5.4" height="21.2" fill="#dc2626" opacity="0.82" rx="1"/>
<line x1="178.5" y1="119.2" x2="178.5" y2="183.5" stroke="#16a34a" stroke-width="1"/><rect x="175.8" y="127.2" width="5.4" height="41.0" fill="#16a34a" opacity="0.82" rx="1"/>
<line x1="187.4" y1="124.5" x2="187.4" y2="149.5" stroke="#dc2626" stroke-width="1"/><rect x="184.7" y="127.4" width="5.4" height="21.4" fill="#dc2626" opacity="0.82" rx="1"/>
<line x1="196.3" y1="96.0" x2="196.3" y2="152.1" stroke="#16a34a" stroke-width="1"/><rect x="193.5" y="104.1" width="5.4" height="44.6" fill="#16a34a" opacity="0.82" rx="1"/>
<line x1="205.1" y1="95.1" x2="205.1" y2="135.1" stroke="#dc2626" stroke-width="1"/><rect x="202.4" y="104.1" width="5.4" height="21.5" fill="#dc2626" opacity="0.82" rx="1"/>
<line x1="214.0" y1="114.5" x2="214.0" y2="137.9" stroke="#dc2626" stroke-width="1"/><rect x="211.3" y="125.4" width="5.4" height="1.2" fill="#dc2626" opacity="0.82" rx="1"/>
<line x1="222.9" y1="125.4" x2="222.9" y2="171.8" stroke="#dc2626" stroke-width="1"/><rect x="220.2" y="127.2" width="5.4" height="32.8" fill="#dc2626" opacity="0.82" rx="1"/>
<line x1="231.8" y1="141.0" x2="231.8" y2="178.8" stroke="#16a34a" stroke-width="1"/><rect x="229.1" y="146.3" width="5.4" height="13.5" fill="#16a34a" opacity="0.82" rx="1"/>
<line x1="240.7" y1="144.2" x2="240.7" y2="175.9" stroke="#dc2626" stroke-width="1"/><rect x="237.9" y="146.2" width="5.4" height="24.8" fill="#dc2626" opacity="0.82" rx="1"/>
<line x1="249.5" y1="155.3" x2="249.5" y2="171.2" stroke="#16a34a" stroke-width="1"/><rect x="246.8" y="169.9" width="5.4" height="1.2" fill="#16a34a" opacity="0.82" rx="1"/>
<line x1="258.4" y1="143.1" x2="258.4" y2="177.5" stroke="#16a34a" stroke-width="1"/><rect x="255.7" y="153.0" width="5.4" height="16.9" fill="#16a34a" opacity="0.82" rx="1"/>
<line x1="267.3" y1="149.2" x2="267.3" y2="172.3" stroke="#dc2626" stroke-width="1"/><rect x="264.6" y="153.0" width="5.4" height="5.8" fill="#dc2626" opacity="0.82" rx="1"/>
<line x1="276.2" y1="158.4" x2="276.2" y2="183.7" stroke="#dc2626" stroke-width="1"/><rect x="273.4" y="158.8" width="5.4" height="20.5" fill="#dc2626" opacity="0.82" rx="1"/>
<line x1="285.0" y1="170.3" x2="285.0" y2="190.0" stroke="#16a34a" stroke-width="1"/><rect x="282.3" y="173.0" width="5.4" height="6.4" fill="#16a34a" opacity="0.82" rx="1"/>
<line x1="293.9" y1="170.1" x2="293.9" y2="194.0" stroke="#dc2626" stroke-width="1"/><rect x="291.2" y="172.9" width="5.4" height="18.0" fill="#dc2626" opacity="0.82" rx="1"/>
<line x1="302.8" y1="180.6" x2="302.8" y2="197.1" stroke="#16a34a" stroke-width="1"/><rect x="300.1" y="185.5" width="5.4" height="5.5" fill="#16a34a" opacity="0.82" rx="1"/>
<line x1="311.7" y1="151.6" x2="311.7" y2="191.8" stroke="#16a34a" stroke-width="1"/><rect x="308.9" y="157.2" width="5.4" height="28.1" fill="#16a34a" opacity="0.82" rx="1"/>
<line x1="320.5" y1="146.1" x2="320.5" y2="179.1" stroke="#dc2626" stroke-width="1"/><rect x="317.8" y="157.6" width="5.4" height="13.4" fill="#dc2626" opacity="0.82" rx="1"/>
<line x1="329.4" y1="171.0" x2="329.4" y2="217.5" stroke="#dc2626" stroke-width="1"/><rect x="326.7" y="171.0" width="5.4" height="42.7" fill="#dc2626" opacity="0.82" rx="1"/>
<line x1="338.3" y1="177.8" x2="338.3" y2="219.2" stroke="#16a34a" stroke-width="1"/><rect x="335.6" y="188.5" width="5.4" height="25.3" fill="#16a34a" opacity="0.82" rx="1"/>
<line x1="347.2" y1="160.2" x2="347.2" y2="208.6" stroke="#dc2626" stroke-width="1"/><rect x="344.4" y="187.9" width="5.4" height="16.6" fill="#dc2626" opacity="0.82" rx="1"/>
<line x1="356.0" y1="181.0" x2="356.0" y2="215.3" stroke="#16a34a" stroke-width="1"/><rect x="353.3" y="196.2" width="5.4" height="8.5" fill="#16a34a" opacity="0.82" rx="1"/>
<line x1="364.9" y1="185.8" x2="364.9" y2="228.7" stroke="#dc2626" stroke-width="1"/><rect x="362.2" y="196.2" width="5.4" height="12.9" fill="#dc2626" opacity="0.82" rx="1"/>
<line x1="373.8" y1="190.4" x2="373.8" y2="215.9" stroke="#dc2626" stroke-width="1"/><rect x="371.1" y="209.1" width="5.4" height="3.9" fill="#dc2626" opacity="0.82" rx="1"/>
<line x1="382.7" y1="188.6" x2="382.7" y2="216.6" stroke="#16a34a" stroke-width="1"/><rect x="380.0" y="197.1" width="5.4" height="15.7" fill="#16a34a" opacity="0.82" rx="1"/>
<line x1="391.6" y1="175.9" x2="391.6" y2="205.4" stroke="#16a34a" stroke-width="1"/><rect x="388.8" y="178.9" width="5.4" height="18.2" fill="#16a34a" opacity="0.82" rx="1"/>
<line x1="400.4" y1="169.9" x2="400.4" y2="209.4" stroke="#dc2626" stroke-width="1"/><rect x="397.7" y="178.7" width="5.4" height="29.9" fill="#dc2626" opacity="0.82" rx="1"/>
<line x1="409.3" y1="200.3" x2="409.3" y2="228.7" stroke="#16a34a" stroke-width="1"/><rect x="406.6" y="208.2" width="5.4" height="1.2" fill="#16a34a" opacity="0.82" rx="1"/>
<line x1="418.2" y1="201.0" x2="418.2" y2="221.7" stroke="#dc2626" stroke-width="1"/><rect x="415.5" y="207.8" width="5.4" height="2.6" fill="#dc2626" opacity="0.82" rx="1"/>
<line x1="427.1" y1="193.6" x2="427.1" y2="214.6" stroke="#16a34a" stroke-width="1"/><rect x="424.3" y="195.6" width="5.4" height="14.9" fill="#16a34a" opacity="0.82" rx="1"/>
<line x1="435.9" y1="190.4" x2="435.9" y2="227.8" stroke="#dc2626" stroke-width="1"/><rect x="433.2" y="195.2" width="5.4" height="29.0" fill="#dc2626" opacity="0.82" rx="1"/>
<line x1="444.8" y1="206.3" x2="444.8" y2="274.0" stroke="#16a34a" stroke-width="1"/><rect x="442.1" y="212.7" width="5.4" height="12.0" fill="#16a34a" opacity="0.82" rx="1"/>
<line x1="453.7" y1="176.1" x2="453.7" y2="215.1" stroke="#16a34a" stroke-width="1"/><rect x="451.0" y="181.2" width="5.4" height="31.5" fill="#16a34a" opacity="0.82" rx="1"/>
<line x1="462.6" y1="167.5" x2="462.6" y2="194.0" stroke="#16a34a" stroke-width="1"/><rect x="459.8" y="175.0" width="5.4" height="6.0" fill="#16a34a" opacity="0.82" rx="1"/>
<line x1="471.4" y1="159.9" x2="471.4" y2="183.2" stroke="#16a34a" stroke-width="1"/><rect x="468.7" y="164.6" width="5.4" height="10.3" fill="#16a34a" opacity="0.82" rx="1"/>
<line x1="480.3" y1="159.5" x2="480.3" y2="192.8" stroke="#dc2626" stroke-width="1"/><rect x="477.6" y="165.0" width="5.4" height="24.6" fill="#dc2626" opacity="0.82" rx="1"/>
<line x1="489.2" y1="188.3" x2="489.2" y2="215.6" stroke="#dc2626" stroke-width="1"/><rect x="486.5" y="189.3" width="5.4" height="11.7" fill="#dc2626" opacity="0.82" rx="1"/>
<line x1="498.1" y1="199.3" x2="498.1" y2="231.9" stroke="#dc2626" stroke-width="1"/><rect x="495.3" y="200.9" width="5.4" height="15.3" fill="#dc2626" opacity="0.82" rx="1"/>
<line x1="506.9" y1="216.3" x2="506.9" y2="262.0" stroke="#dc2626" stroke-width="1"/><rect x="504.2" y="216.3" width="5.4" height="18.0" fill="#dc2626" opacity="0.82" rx="1"/>
<line x1="515.8" y1="224.9" x2="515.8" y2="241.8" stroke="#16a34a" stroke-width="1"/><rect x="513.1" y="232.9" width="5.4" height="1.5" fill="#16a34a" opacity="0.82" rx="1"/>
<line x1="524.7" y1="231.8" x2="524.7" y2="292.7" stroke="#dc2626" stroke-width="1"/><rect x="522.0" y="232.4" width="5.4" height="48.0" fill="#dc2626" opacity="0.82" rx="1"/>
<line x1="533.6" y1="269.4" x2="533.6" y2="294.3" stroke="#dc2626" stroke-width="1"/><rect x="530.9" y="280.3" width="5.4" height="2.9" fill="#dc2626" opacity="0.82" rx="1"/>
<line x1="542.4" y1="275.8" x2="542.4" y2="293.7" stroke="#dc2626" stroke-width="1"/><rect x="539.7" y="283.3" width="5.4" height="5.0" fill="#dc2626" opacity="0.82" rx="1"/>
<line x1="551.3" y1="229.8" x2="551.3" y2="288.6" stroke="#16a34a" stroke-width="1"/><rect x="548.6" y="230.7" width="5.4" height="57.9" fill="#16a34a" opacity="0.82" rx="1"/>
<line x1="560.2" y1="204.6" x2="560.2" y2="263.5" stroke="#dc2626" stroke-width="1"/><rect x="557.5" y="230.4" width="5.4" height="16.2" fill="#dc2626" opacity="0.82" rx="1"/>
<line x1="569.1" y1="202.4" x2="569.1" y2="249.2" stroke="#16a34a" stroke-width="1"/><rect x="566.4" y="210.3" width="5.4" height="36.2" fill="#16a34a" opacity="0.82" rx="1"/>
<line x1="578.0" y1="194.2" x2="578.0" y2="220.6" stroke="#dc2626" stroke-width="1"/><rect x="575.2" y="210.3" width="5.4" height="7.8" fill="#dc2626" opacity="0.82" rx="1"/>
<line x1="586.8" y1="209.5" x2="586.8" y2="232.3" stroke="#dc2626" stroke-width="1"/><rect x="584.1" y="217.7" width="5.4" height="1.4" fill="#dc2626" opacity="0.82" rx="1"/>
<line x1="595.7" y1="204.1" x2="595.7" y2="245.7" stroke="#dc2626" stroke-width="1"/><rect x="593.0" y="218.9" width="5.4" height="19.7" fill="#dc2626" opacity="0.82" rx="1"/>
<line x1="604.6" y1="227.7" x2="604.6" y2="275.4" stroke="#dc2626" stroke-width="1"/><rect x="601.9" y="239.1" width="5.4" height="31.8" fill="#dc2626" opacity="0.82" rx="1"/>
<line x1="613.5" y1="259.0" x2="613.5" y2="311.0" stroke="#dc2626" stroke-width="1"/><rect x="610.7" y="271.3" width="5.4" height="26.6" fill="#dc2626" opacity="0.82" rx="1"/>
<line x1="622.3" y1="240.4" x2="622.3" y2="312.0" stroke="#16a34a" stroke-width="1"/><rect x="619.6" y="254.6" width="5.4" height="43.3" fill="#16a34a" opacity="0.82" rx="1"/>
<line x1="631.2" y1="227.3" x2="631.2" y2="287.6" stroke="#dc2626" stroke-width="1"/><rect x="628.5" y="253.8" width="5.4" height="4.5" fill="#dc2626" opacity="0.82" rx="1"/>
<line x1="640.1" y1="258.2" x2="640.1" y2="294.7" stroke="#dc2626" stroke-width="1"/><rect x="637.4" y="258.2" width="5.4" height="35.1" fill="#dc2626" opacity="0.82" rx="1"/>
<line x1="649.0" y1="284.5" x2="649.0" y2="318.9" stroke="#dc2626" stroke-width="1"/><rect x="646.2" y="293.2" width="5.4" height="3.5" fill="#dc2626" opacity="0.82" rx="1"/>
<line x1="657.8" y1="263.4" x2="657.8" y2="300.1" stroke="#16a34a" stroke-width="1"/><rect x="655.1" y="276.9" width="5.4" height="19.8" fill="#16a34a" opacity="0.82" rx="1"/>
<line x1="666.7" y1="264.6" x2="666.7" y2="291.1" stroke="#16a34a" stroke-width="1"/><rect x="664.0" y="268.1" width="5.4" height="8.8" fill="#16a34a" opacity="0.82" rx="1"/>
<line x1="675.6" y1="244.6" x2="675.6" y2="278.3" stroke="#16a34a" stroke-width="1"/><rect x="672.9" y="247.1" width="5.4" height="21.0" fill="#16a34a" opacity="0.82" rx="1"/>
<line x1="684.5" y1="239.4" x2="684.5" y2="260.6" stroke="#16a34a" stroke-width="1"/><rect x="681.8" y="243.6" width="5.4" height="3.4" fill="#16a34a" opacity="0.82" rx="1"/>
<line x1="693.3" y1="240.2" x2="693.3" y2="257.7" stroke="#dc2626" stroke-width="1"/><rect x="690.6" y="243.7" width="5.4" height="12.1" fill="#dc2626" opacity="0.82" rx="1"/>
<line x1="702.2" y1="240.4" x2="702.2" y2="271.7" stroke="#dc2626" stroke-width="1"/><rect x="699.5" y="255.6" width="5.4" height="5.6" fill="#dc2626" opacity="0.82" rx="1"/>
<line x1="711.1" y1="254.7" x2="711.1" y2="274.2" stroke="#dc2626" stroke-width="1"/><rect x="708.4" y="261.2" width="5.4" height="3.5" fill="#dc2626" opacity="0.82" rx="1"/>
<line x1="720.0" y1="247.3" x2="720.0" y2="269.3" stroke="#16a34a" stroke-width="1"/><rect x="717.3" y="249.2" width="5.4" height="16.5" fill="#16a34a" opacity="0.82" rx="1"/>
<line x1="728.9" y1="228.6" x2="728.9" y2="254.9" stroke="#16a34a" stroke-width="1"/><rect x="726.1" y="236.4" width="5.4" height="12.7" fill="#16a34a" opacity="0.82" rx="1"/>
<line x1="737.7" y1="218.6" x2="737.7" y2="241.9" stroke="#16a34a" stroke-width="1"/><rect x="735.0" y="228.4" width="5.4" height="7.9" fill="#16a34a" opacity="0.82" rx="1"/>
<line x1="746.6" y1="185.0" x2="746.6" y2="229.4" stroke="#16a34a" stroke-width="1"/><rect x="743.9" y="192.7" width="5.4" height="35.5" fill="#16a34a" opacity="0.82" rx="1"/>
<line x1="755.5" y1="175.6" x2="755.5" y2="206.1" stroke="#16a34a" stroke-width="1"/><rect x="752.8" y="191.5" width="5.4" height="1.2" fill="#16a34a" opacity="0.82" rx="1"/>
<line x1="764.4" y1="152.0" x2="764.4" y2="194.2" stroke="#16a34a" stroke-width="1"/><rect x="761.6" y="162.9" width="5.4" height="28.4" fill="#16a34a" opacity="0.82" rx="1"/>
<line x1="773.2" y1="142.9" x2="773.2" y2="195.0" stroke="#dc2626" stroke-width="1"/><rect x="770.5" y="162.8" width="5.4" height="13.1" fill="#dc2626" opacity="0.82" rx="1"/>
<line x1="782.1" y1="171.8" x2="782.1" y2="199.9" stroke="#dc2626" stroke-width="1"/><rect x="779.4" y="175.7" width="5.4" height="7.2" fill="#dc2626" opacity="0.82" rx="1"/>
<line x1="791.0" y1="166.7" x2="791.0" y2="195.4" stroke="#16a34a" stroke-width="1"/><rect x="788.3" y="173.3" width="5.4" height="9.5" fill="#16a34a" opacity="0.82" rx="1"/>
<line x1="799.9" y1="151.5" x2="799.9" y2="180.0" stroke="#16a34a" stroke-width="1"/><rect x="797.1" y="162.5" width="5.4" height="10.8" fill="#16a34a" opacity="0.82" rx="1"/>
<line x1="808.7" y1="117.7" x2="808.7" y2="162.7" stroke="#16a34a" stroke-width="1"/><rect x="806.0" y="130.6" width="5.4" height="31.9" fill="#16a34a" opacity="0.82" rx="1"/>
<line x1="817.6" y1="125.8" x2="817.6" y2="154.5" stroke="#dc2626" stroke-width="1"/><rect x="814.9" y="130.6" width="5.4" height="21.6" fill="#dc2626" opacity="0.82" rx="1"/>
<line x1="826.5" y1="142.8" x2="826.5" y2="155.4" stroke="#16a34a" stroke-width="1"/><rect x="823.8" y="149.2" width="5.4" height="2.5" fill="#16a34a" opacity="0.82" rx="1"/>
<line x1="835.4" y1="147.7" x2="835.4" y2="174.2" stroke="#dc2626" stroke-width="1"/><rect x="832.6" y="149.2" width="5.4" height="13.6" fill="#dc2626" opacity="0.82" rx="1"/>
<line x1="844.2" y1="157.5" x2="844.2" y2="181.2" stroke="#dc2626" stroke-width="1"/><rect x="841.5" y="162.9" width="5.4" height="3.3" fill="#dc2626" opacity="0.82" rx="1"/>
<line x1="853.1" y1="123.9" x2="853.1" y2="172.3" stroke="#16a34a" stroke-width="1"/><rect x="850.4" y="126.7" width="5.4" height="39.5" fill="#16a34a" opacity="0.82" rx="1"/>
<line x1="862.0" y1="123.6" x2="862.0" y2="138.0" stroke="#dc2626" stroke-width="1"/><rect x="859.3" y="127.0" width="5.4" height="9.1" fill="#dc2626" opacity="0.82" rx="1"/>
<line x1="72" y1="184.7" x2="862" y2="184.7" stroke="#16a34a" stroke-width="1.8" stroke-dasharray="6 4" /><rect x="874" y="164.7" width="166" height="23" rx="5" fill="#ffffff" stroke="#16a34a" opacity="0.97"/><text x="881" y="180.7" fill="#16a34a" font-size="15" font-weight="700">日内支撑 65.31</text>
<line x1="72" y1="55.1" x2="862" y2="55.1" stroke="#dc2626" stroke-width="1.8" stroke-dasharray="6 4" /><rect x="874" y="35.1" width="166" height="23" rx="5" fill="#ffffff" stroke="#dc2626" opacity="0.97"/><text x="881" y="51.1" fill="#dc2626" font-size="15" font-weight="700">日内压力 68.85</text>
<line x1="72" y1="136.1" x2="862" y2="136.1" stroke="#111827" stroke-width="1.8" stroke-dasharray="2 2" /><rect x="874" y="116.1" width="166" height="23" rx="5" fill="#ffffff" stroke="#111827" opacity="0.97"/><text x="881" y="132.1" fill="#111827" font-size="15" font-weight="700">现价 66.64</text>
<text x="72" y="396" fill="#16a34a" font-size="14" font-weight="700">日内做多计划</text><rect x="72" y="404" width="790" height="48" rx="6" fill="#f9fafb" stroke="#e5e7eb"/><line x1="94" y1="412" x2="840" y2="412" stroke="#16a34a" stroke-width="3"/><circle cx="132.0" cy="412" r="5" fill="#16a34a"/><text x="132.0" y="434" fill="#374151" font-size="12" text-anchor="middle">入场 止跌/突破回踩</text><circle cx="451.2" cy="412" r="5" fill="#16a34a"/><text x="451.2" y="434" fill="#374151" font-size="12" text-anchor="middle">止损 65.31</text><circle cx="712.0" cy="412" r="5" fill="#16a34a"/><text x="712.0" y="434" fill="#374151" font-size="12" text-anchor="middle">目标一 68.85</text><circle cx="814.0" cy="412" r="5" fill="#16a34a"/><text x="814.0" y="434" fill="#374151" font-size="12" text-anchor="middle">目标二 69.74</text>
<text x="72" y="482" fill="#dc2626" font-size="14" font-weight="700">日内做空计划</text><rect x="72" y="490" width="790" height="48" rx="6" fill="#f9fafb" stroke="#e5e7eb"/><line x1="94" y1="498" x2="840" y2="498" stroke="#dc2626" stroke-width="3"/><circle cx="132.0" cy="498" r="5" fill="#dc2626"/><text x="132.0" y="520" fill="#374151" font-size="12" text-anchor="middle">入场 反弹承压/破位回抽</text><circle cx="451.2" cy="498" r="5" fill="#dc2626"/><text x="451.2" y="520" fill="#374151" font-size="12" text-anchor="middle">止损 68.85</text><circle cx="712.0" cy="498" r="5" fill="#dc2626"/><text x="712.0" y="520" fill="#374151" font-size="12" text-anchor="middle">目标一 65.31</text><circle cx="814.0" cy="498" r="5" fill="#dc2626"/><text x="814.0" y="520" fill="#374151" font-size="12" text-anchor="middle">目标二 64.43</text>
</svg>