<svg xmlns="http://www.w3.org/2000/svg" width="1080" height="560" viewBox="0 0 1080 560">
<rect width="100%" height="100%" fill="#ffffff"/>
<text x="72" y="23" fill="#111827" font-size="21" font-weight="800">BTC 小时线K线支撑压力图</text>
<text x="862" y="42" fill="#374151" font-size="15" text-anchor="end">最新价 61,437</text>
<line x1="72" y1="34" x2="72" y2="340" stroke="#d1d5db"/>
<line x1="72" y1="340" x2="862" y2="340" stroke="#d1d5db"/>
<line x1="72" y1="340.0" x2="862" y2="340.0" stroke="#f3f4f6"/>
<text x="8" y="345.0" fill="#4b5563" font-size="14">57,391</text>
<line x1="72" y1="263.5" x2="862" y2="263.5" stroke="#f3f4f6"/>
<text x="8" y="268.5" fill="#4b5563" font-size="14">58,723</text>
<line x1="72" y1="187.0" x2="862" y2="187.0" stroke="#f3f4f6"/>
<text x="8" y="192.0" fill="#4b5563" font-size="14">60,054</text>
<line x1="72" y1="110.5" x2="862" y2="110.5" stroke="#f3f4f6"/>
<text x="8" y="115.5" fill="#4b5563" font-size="14">61,385</text>
<line x1="72" y1="34.0" x2="862" y2="34.0" stroke="#f3f4f6"/>
<text x="8" y="39.0" fill="#4b5563" font-size="14">62,716</text>
<line x1="72.0" y1="180.7" x2="72.0" y2="195.8" stroke="#dc2626" stroke-width="1"/><rect x="69.3" y="187.1" width="5.4" height="3.0" fill="#dc2626" opacity="0.82" rx="1"/>
<line x1="80.9" y1="186.1" x2="80.9" y2="206.6" stroke="#dc2626" stroke-width="1"/><rect x="78.2" y="190.1" width="5.4" height="11.0" fill="#dc2626" opacity="0.82" rx="1"/>
<line x1="89.8" y1="185.0" x2="89.8" y2="204.4" stroke="#16a34a" stroke-width="1"/><rect x="87.0" y="188.3" width="5.4" height="12.9" fill="#16a34a" opacity="0.82" rx="1"/>
<line x1="98.6" y1="173.6" x2="98.6" y2="188.3" stroke="#16a34a" stroke-width="1"/><rect x="95.9" y="186.5" width="5.4" height="1.8" fill="#16a34a" opacity="0.82" rx="1"/>
<line x1="107.5" y1="179.0" x2="107.5" y2="203.3" stroke="#dc2626" stroke-width="1"/><rect x="104.8" y="186.5" width="5.4" height="7.8" fill="#dc2626" opacity="0.82" rx="1"/>
<line x1="116.4" y1="146.5" x2="116.4" y2="215.8" stroke="#dc2626" stroke-width="1"/><rect x="113.7" y="194.3" width="5.4" height="1.2" fill="#dc2626" opacity="0.82" rx="1"/>
<line x1="125.3" y1="172.1" x2="125.3" y2="230.2" stroke="#dc2626" stroke-width="1"/><rect x="122.5" y="194.5" width="5.4" height="20.9" fill="#dc2626" opacity="0.82" rx="1"/>
<line x1="134.1" y1="207.9" x2="134.1" y2="248.2" stroke="#dc2626" stroke-width="1"/><rect x="131.4" y="215.4" width="5.4" height="6.6" fill="#dc2626" opacity="0.82" rx="1"/>
<line x1="143.0" y1="193.6" x2="143.0" y2="243.7" stroke="#16a34a" stroke-width="1"/><rect x="140.3" y="201.6" width="5.4" height="20.5" fill="#16a34a" opacity="0.82" rx="1"/>
<line x1="151.9" y1="190.1" x2="151.9" y2="215.2" stroke="#16a34a" stroke-width="1"/><rect x="149.2" y="197.5" width="5.4" height="4.1" fill="#16a34a" opacity="0.82" rx="1"/>
<line x1="160.8" y1="151.8" x2="160.8" y2="197.5" stroke="#16a34a" stroke-width="1"/><rect x="158.0" y="167.3" width="5.4" height="30.2" fill="#16a34a" opacity="0.82" rx="1"/>
<line x1="169.6" y1="161.3" x2="169.6" y2="181.5" stroke="#dc2626" stroke-width="1"/><rect x="166.9" y="167.3" width="5.4" height="6.9" fill="#dc2626" opacity="0.82" rx="1"/>
<line x1="178.5" y1="159.1" x2="178.5" y2="182.8" stroke="#16a34a" stroke-width="1"/><rect x="175.8" y="166.6" width="5.4" height="7.7" fill="#16a34a" opacity="0.82" rx="1"/>
<line x1="187.4" y1="159.3" x2="187.4" y2="174.8" stroke="#dc2626" stroke-width="1"/><rect x="184.7" y="166.6" width="5.4" height="7.9" fill="#dc2626" opacity="0.82" rx="1"/>
<line x1="196.3" y1="157.6" x2="196.3" y2="176.7" stroke="#16a34a" stroke-width="1"/><rect x="193.5" y="163.9" width="5.4" height="10.6" fill="#16a34a" opacity="0.82" rx="1"/>
<line x1="205.1" y1="161.7" x2="205.1" y2="172.0" stroke="#dc2626" stroke-width="1"/><rect x="202.4" y="163.9" width="5.4" height="7.4" fill="#dc2626" opacity="0.82" rx="1"/>
<line x1="214.0" y1="169.7" x2="214.0" y2="182.4" stroke="#dc2626" stroke-width="1"/><rect x="211.3" y="171.3" width="5.4" height="5.8" fill="#dc2626" opacity="0.82" rx="1"/>
<line x1="222.9" y1="175.7" x2="222.9" y2="209.2" stroke="#dc2626" stroke-width="1"/><rect x="220.2" y="177.2" width="5.4" height="24.1" fill="#dc2626" opacity="0.82" rx="1"/>
<line x1="231.8" y1="188.7" x2="231.8" y2="205.0" stroke="#16a34a" stroke-width="1"/><rect x="229.1" y="194.7" width="5.4" height="6.5" fill="#16a34a" opacity="0.82" rx="1"/>
<line x1="240.7" y1="188.9" x2="240.7" y2="206.2" stroke="#16a34a" stroke-width="1"/><rect x="237.9" y="194.7" width="5.4" height="1.2" fill="#16a34a" opacity="0.82" rx="1"/>
<line x1="249.5" y1="189.6" x2="249.5" y2="214.8" stroke="#dc2626" stroke-width="1"/><rect x="246.8" y="194.7" width="5.4" height="18.6" fill="#dc2626" opacity="0.82" rx="1"/>
<line x1="258.4" y1="208.9" x2="258.4" y2="224.6" stroke="#dc2626" stroke-width="1"/><rect x="255.7" y="213.3" width="5.4" height="7.9" fill="#dc2626" opacity="0.82" rx="1"/>
<line x1="267.3" y1="211.1" x2="267.3" y2="228.6" stroke="#16a34a" stroke-width="1"/><rect x="264.6" y="211.5" width="5.4" height="9.7" fill="#16a34a" opacity="0.82" rx="1"/>
<line x1="276.2" y1="207.4" x2="276.2" y2="219.5" stroke="#dc2626" stroke-width="1"/><rect x="273.4" y="211.5" width="5.4" height="3.2" fill="#dc2626" opacity="0.82" rx="1"/>
<line x1="285.0" y1="212.4" x2="285.0" y2="223.2" stroke="#dc2626" stroke-width="1"/><rect x="282.3" y="214.7" width="5.4" height="4.2" fill="#dc2626" opacity="0.82" rx="1"/>
<line x1="293.9" y1="216.9" x2="293.9" y2="238.4" stroke="#dc2626" stroke-width="1"/><rect x="291.2" y="219.0" width="5.4" height="12.2" fill="#dc2626" opacity="0.82" rx="1"/>
<line x1="302.8" y1="224.7" x2="302.8" y2="234.6" stroke="#16a34a" stroke-width="1"/><rect x="300.1" y="227.5" width="5.4" height="3.6" fill="#16a34a" opacity="0.82" rx="1"/>
<line x1="311.7" y1="224.4" x2="311.7" y2="232.4" stroke="#dc2626" stroke-width="1"/><rect x="308.9" y="227.5" width="5.4" height="2.6" fill="#dc2626" opacity="0.82" rx="1"/>
<line x1="320.5" y1="224.6" x2="320.5" y2="241.8" stroke="#dc2626" stroke-width="1"/><rect x="317.8" y="230.1" width="5.4" height="8.1" fill="#dc2626" opacity="0.82" rx="1"/>
<line x1="329.4" y1="238.2" x2="329.4" y2="284.9" stroke="#dc2626" stroke-width="1"/><rect x="326.7" y="238.2" width="5.4" height="45.3" fill="#dc2626" opacity="0.82" rx="1"/>
<line x1="338.3" y1="259.5" x2="338.3" y2="293.5" stroke="#16a34a" stroke-width="1"/><rect x="335.6" y="264.1" width="5.4" height="19.4" fill="#16a34a" opacity="0.82" rx="1"/>
<line x1="347.2" y1="232.4" x2="347.2" y2="282.0" stroke="#dc2626" stroke-width="1"/><rect x="344.4" y="264.1" width="5.4" height="14.6" fill="#dc2626" opacity="0.82" rx="1"/>
<line x1="356.0" y1="259.9" x2="356.0" y2="295.8" stroke="#dc2626" stroke-width="1"/><rect x="353.3" y="278.7" width="5.4" height="5.9" fill="#dc2626" opacity="0.82" rx="1"/>
<line x1="364.9" y1="269.5" x2="364.9" y2="292.2" stroke="#16a34a" stroke-width="1"/><rect x="362.2" y="277.5" width="5.4" height="7.1" fill="#16a34a" opacity="0.82" rx="1"/>
<line x1="373.8" y1="270.3" x2="373.8" y2="288.4" stroke="#dc2626" stroke-width="1"/><rect x="371.1" y="277.5" width="5.4" height="4.7" fill="#dc2626" opacity="0.82" rx="1"/>
<line x1="382.7" y1="266.2" x2="382.7" y2="285.8" stroke="#16a34a" stroke-width="1"/><rect x="380.0" y="267.1" width="5.4" height="15.1" fill="#16a34a" opacity="0.82" rx="1"/>
<line x1="391.6" y1="257.9" x2="391.6" y2="272.8" stroke="#16a34a" stroke-width="1"/><rect x="388.8" y="259.4" width="5.4" height="7.7" fill="#16a34a" opacity="0.82" rx="1"/>
<line x1="400.4" y1="256.2" x2="400.4" y2="269.3" stroke="#dc2626" stroke-width="1"/><rect x="397.7" y="259.4" width="5.4" height="4.9" fill="#dc2626" opacity="0.82" rx="1"/>
<line x1="409.3" y1="262.2" x2="409.3" y2="277.9" stroke="#dc2626" stroke-width="1"/><rect x="406.6" y="264.3" width="5.4" height="5.5" fill="#dc2626" opacity="0.82" rx="1"/>
<line x1="418.2" y1="260.2" x2="418.2" y2="277.6" stroke="#dc2626" stroke-width="1"/><rect x="415.5" y="269.8" width="5.4" height="2.1" fill="#dc2626" opacity="0.82" rx="1"/>
<line x1="427.1" y1="268.4" x2="427.1" y2="275.2" stroke="#16a34a" stroke-width="1"/><rect x="424.3" y="270.2" width="5.4" height="1.7" fill="#16a34a" opacity="0.82" rx="1"/>
<line x1="435.9" y1="263.6" x2="435.9" y2="289.5" stroke="#dc2626" stroke-width="1"/><rect x="433.2" y="270.2" width="5.4" height="3.3" fill="#dc2626" opacity="0.82" rx="1"/>
<line x1="444.8" y1="248.0" x2="444.8" y2="318.9" stroke="#16a34a" stroke-width="1"/><rect x="442.1" y="262.4" width="5.4" height="11.1" fill="#16a34a" opacity="0.82" rx="1"/>
<line x1="453.7" y1="238.8" x2="453.7" y2="268.7" stroke="#16a34a" stroke-width="1"/><rect x="451.0" y="243.9" width="5.4" height="18.5" fill="#16a34a" opacity="0.82" rx="1"/>
<line x1="462.6" y1="230.4" x2="462.6" y2="257.7" stroke="#16a34a" stroke-width="1"/><rect x="459.8" y="237.8" width="5.4" height="6.1" fill="#16a34a" opacity="0.82" rx="1"/>
<line x1="471.4" y1="222.0" x2="471.4" y2="245.8" stroke="#16a34a" stroke-width="1"/><rect x="468.7" y="229.7" width="5.4" height="8.1" fill="#16a34a" opacity="0.82" rx="1"/>
<line x1="480.3" y1="227.4" x2="480.3" y2="242.7" stroke="#dc2626" stroke-width="1"/><rect x="477.6" y="229.7" width="5.4" height="10.8" fill="#dc2626" opacity="0.82" rx="1"/>
<line x1="489.2" y1="240.1" x2="489.2" y2="276.3" stroke="#dc2626" stroke-width="1"/><rect x="486.5" y="240.5" width="5.4" height="22.7" fill="#dc2626" opacity="0.82" rx="1"/>
<line x1="498.1" y1="259.2" x2="498.1" y2="272.4" stroke="#16a34a" stroke-width="1"/><rect x="495.3" y="262.2" width="5.4" height="1.2" fill="#16a34a" opacity="0.82" rx="1"/>
<line x1="506.9" y1="249.6" x2="506.9" y2="279.1" stroke="#16a34a" stroke-width="1"/><rect x="504.2" y="250.4" width="5.4" height="11.9" fill="#16a34a" opacity="0.82" rx="1"/>
<line x1="515.8" y1="243.5" x2="515.8" y2="259.5" stroke="#dc2626" stroke-width="1"/><rect x="513.1" y="250.4" width="5.4" height="1.7" fill="#dc2626" opacity="0.82" rx="1"/>
<line x1="524.7" y1="252.0" x2="524.7" y2="271.1" stroke="#dc2626" stroke-width="1"/><rect x="522.0" y="252.1" width="5.4" height="16.7" fill="#dc2626" opacity="0.82" rx="1"/>
<line x1="533.6" y1="262.9" x2="533.6" y2="274.9" stroke="#dc2626" stroke-width="1"/><rect x="530.9" y="268.7" width="5.4" height="2.2" fill="#dc2626" opacity="0.82" rx="1"/>
<line x1="542.4" y1="267.3" x2="542.4" y2="288.1" stroke="#dc2626" stroke-width="1"/><rect x="539.7" y="271.0" width="5.4" height="5.6" fill="#dc2626" opacity="0.82" rx="1"/>
<line x1="551.3" y1="219.6" x2="551.3" y2="276.5" stroke="#16a34a" stroke-width="1"/><rect x="548.6" y="220.9" width="5.4" height="55.6" fill="#16a34a" opacity="0.82" rx="1"/>
<line x1="560.2" y1="186.2" x2="560.2" y2="233.8" stroke="#16a34a" stroke-width="1"/><rect x="557.5" y="217.5" width="5.4" height="3.5" fill="#16a34a" opacity="0.82" rx="1"/>
<line x1="569.1" y1="160.2" x2="569.1" y2="219.0" stroke="#16a34a" stroke-width="1"/><rect x="566.4" y="183.3" width="5.4" height="34.2" fill="#16a34a" opacity="0.82" rx="1"/>
<line x1="578.0" y1="176.1" x2="578.0" y2="199.5" stroke="#dc2626" stroke-width="1"/><rect x="575.2" y="183.3" width="5.4" height="12.4" fill="#dc2626" opacity="0.82" rx="1"/>
<line x1="586.8" y1="177.5" x2="586.8" y2="203.7" stroke="#16a34a" stroke-width="1"/><rect x="584.1" y="180.5" width="5.4" height="15.1" fill="#16a34a" opacity="0.82" rx="1"/>
<line x1="595.7" y1="174.1" x2="595.7" y2="190.5" stroke="#dc2626" stroke-width="1"/><rect x="593.0" y="180.5" width="5.4" height="1.4" fill="#dc2626" opacity="0.82" rx="1"/>
<line x1="604.6" y1="171.0" x2="604.6" y2="192.8" stroke="#dc2626" stroke-width="1"/><rect x="601.9" y="182.0" width="5.4" height="8.1" fill="#dc2626" opacity="0.82" rx="1"/>
<line x1="613.5" y1="180.3" x2="613.5" y2="199.0" stroke="#16a34a" stroke-width="1"/><rect x="610.7" y="184.3" width="5.4" height="5.8" fill="#16a34a" opacity="0.82" rx="1"/>
<line x1="622.3" y1="142.5" x2="622.3" y2="184.8" stroke="#16a34a" stroke-width="1"/><rect x="619.6" y="144.1" width="5.4" height="40.2" fill="#16a34a" opacity="0.82" rx="1"/>
<line x1="631.2" y1="114.1" x2="631.2" y2="171.7" stroke="#dc2626" stroke-width="1"/><rect x="628.5" y="144.1" width="5.4" height="20.3" fill="#dc2626" opacity="0.82" rx="1"/>
<line x1="640.1" y1="164.4" x2="640.1" y2="193.0" stroke="#dc2626" stroke-width="1"/><rect x="637.4" y="164.4" width="5.4" height="25.7" fill="#dc2626" opacity="0.82" rx="1"/>
<line x1="649.0" y1="189.8" x2="649.0" y2="215.7" stroke="#dc2626" stroke-width="1"/><rect x="646.2" y="190.1" width="5.4" height="16.1" fill="#dc2626" opacity="0.82" rx="1"/>
<line x1="657.8" y1="173.0" x2="657.8" y2="208.0" stroke="#16a34a" stroke-width="1"/><rect x="655.1" y="181.5" width="5.4" height="24.7" fill="#16a34a" opacity="0.82" rx="1"/>
<line x1="666.7" y1="163.2" x2="666.7" y2="191.3" stroke="#16a34a" stroke-width="1"/><rect x="664.0" y="167.5" width="5.4" height="13.9" fill="#16a34a" opacity="0.82" rx="1"/>
<line x1="675.6" y1="126.7" x2="675.6" y2="175.2" stroke="#16a34a" stroke-width="1"/><rect x="672.9" y="130.7" width="5.4" height="36.8" fill="#16a34a" opacity="0.82" rx="1"/>
<line x1="684.5" y1="130.7" x2="684.5" y2="149.7" stroke="#dc2626" stroke-width="1"/><rect x="681.8" y="130.7" width="5.4" height="15.8" fill="#dc2626" opacity="0.82" rx="1"/>
<line x1="693.3" y1="141.1" x2="693.3" y2="164.2" stroke="#dc2626" stroke-width="1"/><rect x="690.6" y="146.5" width="5.4" height="16.0" fill="#dc2626" opacity="0.82" rx="1"/>
<line x1="702.2" y1="154.3" x2="702.2" y2="176.7" stroke="#dc2626" stroke-width="1"/><rect x="699.5" y="162.5" width="5.4" height="13.4" fill="#dc2626" opacity="0.82" rx="1"/>
<line x1="711.1" y1="173.5" x2="711.1" y2="185.4" stroke="#dc2626" stroke-width="1"/><rect x="708.4" y="175.9" width="5.4" height="7.0" fill="#dc2626" opacity="0.82" rx="1"/>
<line x1="720.0" y1="158.9" x2="720.0" y2="183.6" stroke="#16a34a" stroke-width="1"/><rect x="717.3" y="162.1" width="5.4" height="20.7" fill="#16a34a" opacity="0.82" rx="1"/>
<line x1="728.9" y1="106.9" x2="728.9" y2="170.4" stroke="#16a34a" stroke-width="1"/><rect x="726.1" y="123.4" width="5.4" height="38.7" fill="#16a34a" opacity="0.82" rx="1"/>
<line x1="737.7" y1="113.7" x2="737.7" y2="131.5" stroke="#16a34a" stroke-width="1"/><rect x="735.0" y="118.9" width="5.4" height="4.5" fill="#16a34a" opacity="0.82" rx="1"/>
<line x1="746.6" y1="111.5" x2="746.6" y2="126.9" stroke="#16a34a" stroke-width="1"/><rect x="743.9" y="113.7" width="5.4" height="5.2" fill="#16a34a" opacity="0.82" rx="1"/>
<line x1="755.5" y1="98.6" x2="755.5" y2="126.3" stroke="#16a34a" stroke-width="1"/><rect x="752.8" y="103.5" width="5.4" height="10.2" fill="#16a34a" opacity="0.82" rx="1"/>
<line x1="764.4" y1="70.7" x2="764.4" y2="105.5" stroke="#16a34a" stroke-width="1"/><rect x="761.6" y="80.1" width="5.4" height="23.3" fill="#16a34a" opacity="0.82" rx="1"/>
<line x1="773.2" y1="64.8" x2="773.2" y2="111.4" stroke="#dc2626" stroke-width="1"/><rect x="770.5" y="80.1" width="5.4" height="14.0" fill="#dc2626" opacity="0.82" rx="1"/>
<line x1="782.1" y1="84.1" x2="782.1" y2="109.6" stroke="#dc2626" stroke-width="1"/><rect x="779.4" y="94.1" width="5.4" height="4.9" fill="#dc2626" opacity="0.82" rx="1"/>
<line x1="791.0" y1="89.2" x2="791.0" y2="126.1" stroke="#16a34a" stroke-width="1"/><rect x="788.3" y="95.4" width="5.4" height="3.6" fill="#16a34a" opacity="0.82" rx="1"/>
<line x1="799.9" y1="80.9" x2="799.9" y2="98.5" stroke="#dc2626" stroke-width="1"/><rect x="797.1" y="95.4" width="5.4" height="1.2" fill="#dc2626" opacity="0.82" rx="1"/>
<line x1="808.7" y1="83.9" x2="808.7" y2="96.2" stroke="#16a34a" stroke-width="1"/><rect x="806.0" y="90.5" width="5.4" height="5.2" fill="#16a34a" opacity="0.82" rx="1"/>
<line x1="817.6" y1="90.1" x2="817.6" y2="110.3" stroke="#dc2626" stroke-width="1"/><rect x="814.9" y="90.5" width="5.4" height="16.1" fill="#dc2626" opacity="0.82" rx="1"/>
<line x1="826.5" y1="99.5" x2="826.5" y2="114.9" stroke="#16a34a" stroke-width="1"/><rect x="823.8" y="100.7" width="5.4" height="5.9" fill="#16a34a" opacity="0.82" rx="1"/>
<line x1="835.4" y1="96.2" x2="835.4" y2="103.9" stroke="#16a34a" stroke-width="1"/><rect x="832.6" y="99.8" width="5.4" height="1.2" fill="#16a34a" opacity="0.82" rx="1"/>
<line x1="844.2" y1="99.8" x2="844.2" y2="110.3" stroke="#dc2626" stroke-width="1"/><rect x="841.5" y="99.8" width="5.4" height="7.2" fill="#dc2626" opacity="0.82" rx="1"/>
<line x1="853.1" y1="98.8" x2="853.1" y2="113.5" stroke="#16a34a" stroke-width="1"/><rect x="850.4" y="101.5" width="5.4" height="5.5" fill="#16a34a" opacity="0.82" rx="1"/>
<line x1="862.0" y1="100.5" x2="862.0" y2="108.8" stroke="#dc2626" stroke-width="1"/><rect x="859.3" y="101.6" width="5.4" height="6.0" fill="#dc2626" opacity="0.82" rx="1"/>
<line x1="72" y1="139.0" x2="862" y2="139.0" stroke="#16a34a" stroke-width="1.8" stroke-dasharray="6 4" /><rect x="874" y="119.0" width="166" height="23" rx="5" fill="#ffffff" stroke="#16a34a" opacity="0.97"/><text x="881" y="135.0" fill="#16a34a" font-size="15" font-weight="700">日内支撑 60,889</text>
<line x1="72" y1="55.1" x2="862" y2="55.1" stroke="#dc2626" stroke-width="1.8" stroke-dasharray="6 4" /><rect x="874" y="35.1" width="166" height="23" rx="5" fill="#ffffff" stroke="#dc2626" opacity="0.97"/><text x="881" y="51.1" fill="#dc2626" font-size="15" font-weight="700">日内压力 62,349</text>
<line x1="72" y1="107.5" x2="862" y2="107.5" stroke="#111827" stroke-width="1.8" stroke-dasharray="2 2" /><rect x="874" y="87.5" width="166" height="23" rx="5" fill="#ffffff" stroke="#111827" opacity="0.97"/><text x="881" y="103.5" fill="#111827" font-size="15" font-weight="700">现价 61,437</text>
<text x="72" y="396" fill="#16a34a" font-size="14" font-weight="700">日内做多计划</text><rect x="72" y="404" width="790" height="48" rx="6" fill="#f9fafb" stroke="#e5e7eb"/><line x1="94" y1="412" x2="840" y2="412" stroke="#16a34a" stroke-width="3"/><circle cx="132.0" cy="412" r="5" fill="#16a34a"/><text x="132.0" y="434" fill="#374151" font-size="12" text-anchor="middle">入场 止跌/突破回踩</text><circle cx="451.2" cy="412" r="5" fill="#16a34a"/><text x="451.2" y="434" fill="#374151" font-size="12" text-anchor="middle">止损 60,889</text><circle cx="712.0" cy="412" r="5" fill="#16a34a"/><text x="712.0" y="434" fill="#374151" font-size="12" text-anchor="middle">目标一 62,349</text><circle cx="814.0" cy="412" r="5" fill="#16a34a"/><text x="814.0" y="434" fill="#374151" font-size="12" text-anchor="middle">目标二 62,714</text>
<text x="72" y="482" fill="#dc2626" font-size="14" font-weight="700">日内做空计划</text><rect x="72" y="490" width="790" height="48" rx="6" fill="#f9fafb" stroke="#e5e7eb"/><line x1="94" y1="498" x2="840" y2="498" stroke="#dc2626" stroke-width="3"/><circle cx="132.0" cy="498" r="5" fill="#dc2626"/><text x="132.0" y="520" fill="#374151" font-size="12" text-anchor="middle">入场 反弹承压/破位回抽</text><circle cx="451.2" cy="498" r="5" fill="#dc2626"/><text x="451.2" y="520" fill="#374151" font-size="12" text-anchor="middle">止损 62,349</text><circle cx="712.0" cy="498" r="5" fill="#dc2626"/><text x="712.0" y="520" fill="#374151" font-size="12" text-anchor="middle">目标一 60,889</text><circle cx="814.0" cy="498" r="5" fill="#dc2626"/><text x="814.0" y="520" fill="#374151" font-size="12" text-anchor="middle">目标二 60,524</text>
</svg>