<svg xmlns="http://www.w3.org/2000/svg" width="1080" height="560" viewBox="0 0 1080 560">
<rect width="100%" height="100%" fill="#ffffff"/>
<text x="72" y="23" fill="#111827" font-size="21" font-weight="800">HYPE 日线K线支撑压力图</text>
<text x="862" y="42" fill="#374151" font-size="15" text-anchor="end">最新价 67.33</text>
<line x1="72" y1="34" x2="72" y2="340" stroke="#d1d5db"/>
<line x1="72" y1="340" x2="862" y2="340" stroke="#d1d5db"/>
<line x1="72" y1="340.0" x2="862" y2="340.0" stroke="#f3f4f6"/>
<text x="8" y="345.0" fill="#4b5563" font-size="14">31.65</text>
<line x1="72" y1="263.5" x2="862" y2="263.5" stroke="#f3f4f6"/>
<text x="8" y="268.5" fill="#4b5563" font-size="14">44.21</text>
<line x1="72" y1="187.0" x2="862" y2="187.0" stroke="#f3f4f6"/>
<text x="8" y="192.0" fill="#4b5563" font-size="14">56.77</text>
<line x1="72" y1="110.5" x2="862" y2="110.5" stroke="#f3f4f6"/>
<text x="8" y="115.5" fill="#4b5563" font-size="14">69.32</text>
<line x1="72" y1="34.0" x2="862" y2="34.0" stroke="#f3f4f6"/>
<text x="8" y="39.0" fill="#4b5563" font-size="14">81.88</text>
<line x1="72.0" y1="307.4" x2="72.0" y2="318.9" stroke="#16a34a" stroke-width="1"/><rect x="69.3" y="308.3" width="5.4" height="3.0" fill="#16a34a" opacity="0.82" rx="1"/>
<line x1="80.9" y1="302.9" x2="80.9" y2="313.8" stroke="#dc2626" stroke-width="1"/><rect x="78.2" y="308.3" width="5.4" height="3.5" fill="#dc2626" opacity="0.82" rx="1"/>
<line x1="89.8" y1="294.3" x2="89.8" y2="315.3" stroke="#16a34a" stroke-width="1"/><rect x="87.0" y="297.6" width="5.4" height="14.1" fill="#16a34a" opacity="0.82" rx="1"/>
<line x1="98.6" y1="290.4" x2="98.6" y2="302.9" stroke="#16a34a" stroke-width="1"/><rect x="95.9" y="296.7" width="5.4" height="1.2" fill="#16a34a" opacity="0.82" rx="1"/>
<line x1="107.5" y1="286.7" x2="107.5" y2="300.4" stroke="#16a34a" stroke-width="1"/><rect x="104.8" y="292.5" width="5.4" height="4.3" fill="#16a34a" opacity="0.82" rx="1"/>
<line x1="116.4" y1="275.5" x2="116.4" y2="292.7" stroke="#16a34a" stroke-width="1"/><rect x="113.7" y="279.4" width="5.4" height="12.9" fill="#16a34a" opacity="0.82" rx="1"/>
<line x1="125.3" y1="269.8" x2="125.3" y2="280.1" stroke="#16a34a" stroke-width="1"/><rect x="122.5" y="275.3" width="5.4" height="4.2" fill="#16a34a" opacity="0.82" rx="1"/>
<line x1="134.1" y1="272.0" x2="134.1" y2="288.0" stroke="#dc2626" stroke-width="1"/><rect x="131.4" y="275.3" width="5.4" height="8.7" fill="#dc2626" opacity="0.82" rx="1"/>
<line x1="143.0" y1="261.0" x2="143.0" y2="284.4" stroke="#16a34a" stroke-width="1"/><rect x="140.3" y="262.7" width="5.4" height="21.3" fill="#16a34a" opacity="0.82" rx="1"/>
<line x1="151.9" y1="256.6" x2="151.9" y2="271.4" stroke="#dc2626" stroke-width="1"/><rect x="149.2" y="262.8" width="5.4" height="4.8" fill="#dc2626" opacity="0.82" rx="1"/>
<line x1="160.8" y1="255.9" x2="160.8" y2="270.1" stroke="#16a34a" stroke-width="1"/><rect x="158.0" y="260.9" width="5.4" height="6.7" fill="#16a34a" opacity="0.82" rx="1"/>
<line x1="169.6" y1="254.0" x2="169.6" y2="269.0" stroke="#dc2626" stroke-width="1"/><rect x="166.9" y="260.9" width="5.4" height="5.0" fill="#dc2626" opacity="0.82" rx="1"/>
<line x1="178.5" y1="255.6" x2="178.5" y2="269.8" stroke="#16a34a" stroke-width="1"/><rect x="175.8" y="261.0" width="5.4" height="4.9" fill="#16a34a" opacity="0.82" rx="1"/>
<line x1="187.4" y1="255.9" x2="187.4" y2="266.5" stroke="#dc2626" stroke-width="1"/><rect x="184.7" y="261.0" width="5.4" height="5.1" fill="#dc2626" opacity="0.82" rx="1"/>
<line x1="196.3" y1="265.2" x2="196.3" y2="286.1" stroke="#dc2626" stroke-width="1"/><rect x="193.5" y="266.1" width="5.4" height="18.8" fill="#dc2626" opacity="0.82" rx="1"/>
<line x1="205.1" y1="278.2" x2="205.1" y2="285.7" stroke="#16a34a" stroke-width="1"/><rect x="202.4" y="284.9" width="5.4" height="1.2" fill="#16a34a" opacity="0.82" rx="1"/>
<line x1="214.0" y1="280.5" x2="214.0" y2="295.9" stroke="#dc2626" stroke-width="1"/><rect x="211.3" y="284.9" width="5.4" height="5.7" fill="#dc2626" opacity="0.82" rx="1"/>
<line x1="222.9" y1="278.5" x2="222.9" y2="291.4" stroke="#16a34a" stroke-width="1"/><rect x="220.2" y="282.1" width="5.4" height="8.5" fill="#16a34a" opacity="0.82" rx="1"/>
<line x1="231.8" y1="277.8" x2="231.8" y2="286.0" stroke="#16a34a" stroke-width="1"/><rect x="229.1" y="281.2" width="5.4" height="1.2" fill="#16a34a" opacity="0.82" rx="1"/>
<line x1="240.7" y1="279.8" x2="240.7" y2="285.0" stroke="#dc2626" stroke-width="1"/><rect x="237.9" y="281.2" width="5.4" height="1.2" fill="#dc2626" opacity="0.82" rx="1"/>
<line x1="249.5" y1="277.5" x2="249.5" y2="284.1" stroke="#16a34a" stroke-width="1"/><rect x="246.8" y="280.0" width="5.4" height="2.0" fill="#16a34a" opacity="0.82" rx="1"/>
<line x1="258.4" y1="273.3" x2="258.4" y2="283.4" stroke="#16a34a" stroke-width="1"/><rect x="255.7" y="274.2" width="5.4" height="5.8" fill="#16a34a" opacity="0.82" rx="1"/>
<line x1="267.3" y1="267.4" x2="267.3" y2="281.4" stroke="#dc2626" stroke-width="1"/><rect x="264.6" y="274.2" width="5.4" height="4.9" fill="#dc2626" opacity="0.82" rx="1"/>
<line x1="276.2" y1="278.0" x2="276.2" y2="292.9" stroke="#dc2626" stroke-width="1"/><rect x="273.4" y="279.1" width="5.4" height="9.0" fill="#dc2626" opacity="0.82" rx="1"/>
<line x1="285.0" y1="284.3" x2="285.0" y2="294.3" stroke="#dc2626" stroke-width="1"/><rect x="282.3" y="288.2" width="5.4" height="1.4" fill="#dc2626" opacity="0.82" rx="1"/>
<line x1="293.9" y1="287.1" x2="293.9" y2="297.0" stroke="#dc2626" stroke-width="1"/><rect x="291.2" y="289.6" width="5.4" height="1.5" fill="#dc2626" opacity="0.82" rx="1"/>
<line x1="302.8" y1="282.2" x2="302.8" y2="291.2" stroke="#16a34a" stroke-width="1"/><rect x="300.1" y="282.3" width="5.4" height="8.8" fill="#16a34a" opacity="0.82" rx="1"/>
<line x1="311.7" y1="274.2" x2="311.7" y2="283.2" stroke="#16a34a" stroke-width="1"/><rect x="308.9" y="281.5" width="5.4" height="1.2" fill="#16a34a" opacity="0.82" rx="1"/>
<line x1="320.5" y1="278.6" x2="320.5" y2="285.0" stroke="#16a34a" stroke-width="1"/><rect x="317.8" y="279.7" width="5.4" height="1.8" fill="#16a34a" opacity="0.82" rx="1"/>
<line x1="329.4" y1="273.3" x2="329.4" y2="284.2" stroke="#16a34a" stroke-width="1"/><rect x="326.7" y="278.1" width="5.4" height="1.6" fill="#16a34a" opacity="0.82" rx="1"/>
<line x1="338.3" y1="260.9" x2="338.3" y2="278.4" stroke="#16a34a" stroke-width="1"/><rect x="335.6" y="266.6" width="5.4" height="11.5" fill="#16a34a" opacity="0.82" rx="1"/>
<line x1="347.2" y1="260.2" x2="347.2" y2="271.5" stroke="#dc2626" stroke-width="1"/><rect x="344.4" y="266.6" width="5.4" height="3.5" fill="#dc2626" opacity="0.82" rx="1"/>
<line x1="356.0" y1="267.5" x2="356.0" y2="277.8" stroke="#dc2626" stroke-width="1"/><rect x="353.3" y="270.1" width="5.4" height="3.7" fill="#dc2626" opacity="0.82" rx="1"/>
<line x1="364.9" y1="267.8" x2="364.9" y2="276.7" stroke="#16a34a" stroke-width="1"/><rect x="362.2" y="269.3" width="5.4" height="4.5" fill="#16a34a" opacity="0.82" rx="1"/>
<line x1="373.8" y1="262.3" x2="373.8" y2="271.9" stroke="#dc2626" stroke-width="1"/><rect x="371.1" y="269.3" width="5.4" height="2.2" fill="#dc2626" opacity="0.82" rx="1"/>
<line x1="382.7" y1="266.6" x2="382.7" y2="276.3" stroke="#16a34a" stroke-width="1"/><rect x="380.0" y="270.8" width="5.4" height="1.2" fill="#16a34a" opacity="0.82" rx="1"/>
<line x1="391.6" y1="270.0" x2="391.6" y2="284.1" stroke="#dc2626" stroke-width="1"/><rect x="388.8" y="270.8" width="5.4" height="6.2" fill="#dc2626" opacity="0.82" rx="1"/>
<line x1="400.4" y1="276.7" x2="400.4" y2="290.5" stroke="#dc2626" stroke-width="1"/><rect x="397.7" y="277.0" width="5.4" height="10.6" fill="#dc2626" opacity="0.82" rx="1"/>
<line x1="409.3" y1="284.9" x2="409.3" y2="297.0" stroke="#dc2626" stroke-width="1"/><rect x="406.6" y="287.6" width="5.4" height="8.7" fill="#dc2626" opacity="0.82" rx="1"/>
<line x1="418.2" y1="260.2" x2="418.2" y2="300.3" stroke="#16a34a" stroke-width="1"/><rect x="415.5" y="264.0" width="5.4" height="32.4" fill="#16a34a" opacity="0.82" rx="1"/>
<line x1="427.1" y1="246.1" x2="427.1" y2="272.1" stroke="#16a34a" stroke-width="1"/><rect x="424.3" y="263.8" width="5.4" height="1.2" fill="#16a34a" opacity="0.82" rx="1"/>
<line x1="435.9" y1="261.9" x2="435.9" y2="286.9" stroke="#dc2626" stroke-width="1"/><rect x="433.2" y="263.8" width="5.4" height="14.2" fill="#dc2626" opacity="0.82" rx="1"/>
<line x1="444.8" y1="245.6" x2="444.8" y2="281.0" stroke="#16a34a" stroke-width="1"/><rect x="442.1" y="254.5" width="5.4" height="23.5" fill="#16a34a" opacity="0.82" rx="1"/>
<line x1="453.7" y1="240.4" x2="453.7" y2="263.6" stroke="#16a34a" stroke-width="1"/><rect x="451.0" y="241.9" width="5.4" height="12.6" fill="#16a34a" opacity="0.82" rx="1"/>
<line x1="462.6" y1="235.0" x2="462.6" y2="247.7" stroke="#16a34a" stroke-width="1"/><rect x="459.8" y="240.4" width="5.4" height="1.5" fill="#16a34a" opacity="0.82" rx="1"/>
<line x1="471.4" y1="198.7" x2="471.4" y2="246.0" stroke="#16a34a" stroke-width="1"/><rect x="468.7" y="198.8" width="5.4" height="41.7" fill="#16a34a" opacity="0.82" rx="1"/>
<line x1="480.3" y1="151.5" x2="480.3" y2="199.5" stroke="#16a34a" stroke-width="1"/><rect x="477.6" y="176.0" width="5.4" height="22.9" fill="#16a34a" opacity="0.82" rx="1"/>
<line x1="489.2" y1="155.4" x2="489.2" y2="202.2" stroke="#dc2626" stroke-width="1"/><rect x="486.5" y="176.0" width="5.4" height="24.3" fill="#dc2626" opacity="0.82" rx="1"/>
<line x1="498.1" y1="167.9" x2="498.1" y2="203.9" stroke="#16a34a" stroke-width="1"/><rect x="495.3" y="175.2" width="5.4" height="25.1" fill="#16a34a" opacity="0.82" rx="1"/>
<line x1="506.9" y1="139.9" x2="506.9" y2="175.8" stroke="#16a34a" stroke-width="1"/><rect x="504.2" y="150.6" width="5.4" height="24.6" fill="#16a34a" opacity="0.82" rx="1"/>
<line x1="515.8" y1="143.5" x2="515.8" y2="163.0" stroke="#dc2626" stroke-width="1"/><rect x="513.1" y="150.5" width="5.4" height="10.1" fill="#dc2626" opacity="0.82" rx="1"/>
<line x1="524.7" y1="138.4" x2="524.7" y2="176.1" stroke="#dc2626" stroke-width="1"/><rect x="522.0" y="160.6" width="5.4" height="9.7" fill="#dc2626" opacity="0.82" rx="1"/>
<line x1="533.6" y1="147.1" x2="533.6" y2="185.2" stroke="#dc2626" stroke-width="1"/><rect x="530.9" y="170.3" width="5.4" height="11.5" fill="#dc2626" opacity="0.82" rx="1"/>
<line x1="542.4" y1="154.3" x2="542.4" y2="190.2" stroke="#16a34a" stroke-width="1"/><rect x="539.7" y="158.0" width="5.4" height="23.8" fill="#16a34a" opacity="0.82" rx="1"/>
<line x1="551.3" y1="122.1" x2="551.3" y2="165.3" stroke="#16a34a" stroke-width="1"/><rect x="548.6" y="140.5" width="5.4" height="17.6" fill="#16a34a" opacity="0.82" rx="1"/>
<line x1="560.2" y1="114.7" x2="560.2" y2="142.9" stroke="#16a34a" stroke-width="1"/><rect x="557.5" y="116.8" width="5.4" height="23.7" fill="#16a34a" opacity="0.82" rx="1"/>
<line x1="569.1" y1="87.4" x2="569.1" y2="121.8" stroke="#16a34a" stroke-width="1"/><rect x="566.4" y="93.9" width="5.4" height="22.9" fill="#16a34a" opacity="0.82" rx="1"/>
<line x1="578.0" y1="70.9" x2="578.0" y2="103.8" stroke="#16a34a" stroke-width="1"/><rect x="575.2" y="84.6" width="5.4" height="9.1" fill="#16a34a" opacity="0.82" rx="1"/>
<line x1="586.8" y1="72.0" x2="586.8" y2="119.6" stroke="#dc2626" stroke-width="1"/><rect x="584.1" y="84.6" width="5.4" height="22.9" fill="#dc2626" opacity="0.82" rx="1"/>
<line x1="595.7" y1="72.3" x2="595.7" y2="116.9" stroke="#16a34a" stroke-width="1"/><rect x="593.0" y="78.5" width="5.4" height="28.9" fill="#16a34a" opacity="0.82" rx="1"/>
<line x1="604.6" y1="72.9" x2="604.6" y2="149.0" stroke="#dc2626" stroke-width="1"/><rect x="601.9" y="78.5" width="5.4" height="61.8" fill="#dc2626" opacity="0.82" rx="1"/>
<line x1="613.5" y1="130.6" x2="613.5" y2="187.5" stroke="#dc2626" stroke-width="1"/><rect x="610.7" y="140.3" width="5.4" height="28.0" fill="#dc2626" opacity="0.82" rx="1"/>
<line x1="622.3" y1="159.9" x2="622.3" y2="194.8" stroke="#dc2626" stroke-width="1"/><rect x="619.6" y="168.5" width="5.4" height="20.1" fill="#dc2626" opacity="0.82" rx="1"/>
<line x1="631.2" y1="164.6" x2="631.2" y2="191.0" stroke="#16a34a" stroke-width="1"/><rect x="628.5" y="168.9" width="5.4" height="19.6" fill="#16a34a" opacity="0.82" rx="1"/>
<line x1="640.1" y1="132.0" x2="640.1" y2="171.6" stroke="#16a34a" stroke-width="1"/><rect x="637.4" y="143.9" width="5.4" height="24.9" fill="#16a34a" opacity="0.82" rx="1"/>
<line x1="649.0" y1="142.7" x2="649.0" y2="183.8" stroke="#dc2626" stroke-width="1"/><rect x="646.2" y="143.9" width="5.4" height="37.0" fill="#dc2626" opacity="0.82" rx="1"/>
<line x1="657.8" y1="177.4" x2="657.8" y2="212.3" stroke="#dc2626" stroke-width="1"/><rect x="655.1" y="180.8" width="5.4" height="27.4" fill="#dc2626" opacity="0.82" rx="1"/>
<line x1="666.7" y1="169.5" x2="666.7" y2="210.9" stroke="#16a34a" stroke-width="1"/><rect x="664.0" y="173.8" width="5.4" height="34.4" fill="#16a34a" opacity="0.82" rx="1"/>
<line x1="675.6" y1="152.5" x2="675.6" y2="186.9" stroke="#16a34a" stroke-width="1"/><rect x="672.9" y="171.8" width="5.4" height="2.0" fill="#16a34a" opacity="0.82" rx="1"/>
<line x1="684.5" y1="161.9" x2="684.5" y2="184.6" stroke="#16a34a" stroke-width="1"/><rect x="681.8" y="163.0" width="5.4" height="8.8" fill="#16a34a" opacity="0.82" rx="1"/>
<line x1="693.3" y1="142.1" x2="693.3" y2="169.8" stroke="#16a34a" stroke-width="1"/><rect x="690.6" y="143.4" width="5.4" height="19.7" fill="#16a34a" opacity="0.82" rx="1"/>
<line x1="702.2" y1="114.3" x2="702.2" y2="148.3" stroke="#16a34a" stroke-width="1"/><rect x="699.5" y="125.4" width="5.4" height="18.0" fill="#16a34a" opacity="0.82" rx="1"/>
<line x1="711.1" y1="63.7" x2="711.1" y2="128.6" stroke="#16a34a" stroke-width="1"/><rect x="708.4" y="84.6" width="5.4" height="40.8" fill="#16a34a" opacity="0.82" rx="1"/>
<line x1="720.0" y1="65.1" x2="720.0" y2="106.7" stroke="#dc2626" stroke-width="1"/><rect x="717.3" y="84.6" width="5.4" height="14.9" fill="#dc2626" opacity="0.82" rx="1"/>
<line x1="728.9" y1="83.7" x2="728.9" y2="127.4" stroke="#dc2626" stroke-width="1"/><rect x="726.1" y="99.4" width="5.4" height="17.0" fill="#dc2626" opacity="0.82" rx="1"/>
<line x1="737.7" y1="97.9" x2="737.7" y2="133.0" stroke="#16a34a" stroke-width="1"/><rect x="735.0" y="104.8" width="5.4" height="11.7" fill="#16a34a" opacity="0.82" rx="1"/>
<line x1="746.6" y1="97.7" x2="746.6" y2="116.1" stroke="#16a34a" stroke-width="1"/><rect x="743.9" y="101.9" width="5.4" height="2.9" fill="#16a34a" opacity="0.82" rx="1"/>
<line x1="755.5" y1="100.8" x2="755.5" y2="127.5" stroke="#dc2626" stroke-width="1"/><rect x="752.8" y="101.9" width="5.4" height="23.4" fill="#dc2626" opacity="0.82" rx="1"/>
<line x1="764.4" y1="108.9" x2="764.4" y2="136.2" stroke="#dc2626" stroke-width="1"/><rect x="761.6" y="125.3" width="5.4" height="3.9" fill="#dc2626" opacity="0.82" rx="1"/>
<line x1="773.2" y1="122.6" x2="773.2" y2="157.4" stroke="#dc2626" stroke-width="1"/><rect x="770.5" y="129.2" width="5.4" height="25.0" fill="#dc2626" opacity="0.82" rx="1"/>
<line x1="782.1" y1="141.3" x2="782.1" y2="173.1" stroke="#16a34a" stroke-width="1"/><rect x="779.4" y="143.6" width="5.4" height="10.6" fill="#16a34a" opacity="0.82" rx="1"/>
<line x1="791.0" y1="134.4" x2="791.0" y2="177.5" stroke="#16a34a" stroke-width="1"/><rect x="788.3" y="142.5" width="5.4" height="1.2" fill="#16a34a" opacity="0.82" rx="1"/>
<line x1="799.9" y1="134.2" x2="799.9" y2="161.9" stroke="#16a34a" stroke-width="1"/><rect x="797.1" y="140.9" width="5.4" height="1.6" fill="#16a34a" opacity="0.82" rx="1"/>
<line x1="808.7" y1="138.6" x2="808.7" y2="158.5" stroke="#dc2626" stroke-width="1"/><rect x="806.0" y="140.9" width="5.4" height="16.5" fill="#dc2626" opacity="0.82" rx="1"/>
<line x1="817.6" y1="145.9" x2="817.6" y2="163.9" stroke="#dc2626" stroke-width="1"/><rect x="814.9" y="157.4" width="5.4" height="1.3" fill="#dc2626" opacity="0.82" rx="1"/>
<line x1="826.5" y1="120.0" x2="826.5" y2="163.1" stroke="#16a34a" stroke-width="1"/><rect x="823.8" y="125.3" width="5.4" height="33.5" fill="#16a34a" opacity="0.82" rx="1"/>
<line x1="835.4" y1="125.1" x2="835.4" y2="142.3" stroke="#dc2626" stroke-width="1"/><rect x="832.6" y="125.4" width="5.4" height="11.4" fill="#dc2626" opacity="0.82" rx="1"/>
<line x1="844.2" y1="130.8" x2="844.2" y2="156.1" stroke="#dc2626" stroke-width="1"/><rect x="841.5" y="136.7" width="5.4" height="16.3" fill="#dc2626" opacity="0.82" rx="1"/>
<line x1="853.1" y1="123.8" x2="853.1" y2="157.3" stroke="#16a34a" stroke-width="1"/><rect x="850.4" y="125.3" width="5.4" height="27.7" fill="#16a34a" opacity="0.82" rx="1"/>
<line x1="862.0" y1="120.2" x2="862.0" y2="131.7" stroke="#16a34a" stroke-width="1"/><rect x="859.3" y="122.7" width="5.4" height="2.7" fill="#16a34a" opacity="0.82" rx="1"/>
<line x1="72" y1="163.2" x2="862" y2="163.2" stroke="#16a34a" stroke-width="1.8" stroke-dasharray="6 4" /><rect x="874" y="143.2" width="166" height="23" rx="5" fill="#ffffff" stroke="#16a34a" opacity="0.97"/><text x="881" y="159.2" fill="#16a34a" font-size="15" font-weight="700">支撑 60.67</text>
<line x1="72" y1="55.1" x2="862" y2="55.1" stroke="#dc2626" stroke-width="1.8" stroke-dasharray="6 4" /><rect x="874" y="35.1" width="166" height="23" rx="5" fill="#ffffff" stroke="#dc2626" opacity="0.97"/><text x="881" y="51.1" fill="#dc2626" font-size="15" font-weight="700">压力 78.42</text>
<line x1="72" y1="122.7" x2="862" y2="122.7" stroke="#111827" stroke-width="1.8" stroke-dasharray="2 2" /><rect x="874" y="102.7" width="166" height="23" rx="5" fill="#ffffff" stroke="#111827" opacity="0.97"/><text x="881" y="118.7" fill="#111827" font-size="15" font-weight="700">现价 67.33</text>
<text x="72" y="396" fill="#16a34a" font-size="14" font-weight="700">日线做多计划</text><rect x="72" y="404" width="790" height="48" rx="6" fill="#f9fafb" stroke="#e5e7eb"/><line x1="94" y1="412" x2="840" y2="412" stroke="#16a34a" stroke-width="3"/><circle cx="132.0" cy="412" r="5" fill="#16a34a"/><text x="132.0" y="434" fill="#374151" font-size="12" text-anchor="middle">入场 止跌/突破回踩</text><circle cx="451.2" cy="412" r="5" fill="#16a34a"/><text x="451.2" y="434" fill="#374151" font-size="12" text-anchor="middle">止损 60.67</text><circle cx="712.0" cy="412" r="5" fill="#16a34a"/><text x="712.0" y="434" fill="#374151" font-size="12" text-anchor="middle">目标一 78.42</text><circle cx="814.0" cy="412" r="5" fill="#16a34a"/><text x="814.0" y="434" fill="#374151" font-size="12" text-anchor="middle">目标二 85.07</text>
<text x="72" y="482" fill="#dc2626" font-size="14" font-weight="700">日线做空计划</text><rect x="72" y="490" width="790" height="48" rx="6" fill="#f9fafb" stroke="#e5e7eb"/><line x1="94" y1="498" x2="840" y2="498" stroke="#dc2626" stroke-width="3"/><circle cx="132.0" cy="498" r="5" fill="#dc2626"/><text x="132.0" y="520" fill="#374151" font-size="12" text-anchor="middle">入场 反弹承压/破位回抽</text><circle cx="451.2" cy="498" r="5" fill="#dc2626"/><text x="451.2" y="520" fill="#374151" font-size="12" text-anchor="middle">止损 78.42</text><circle cx="712.0" cy="498" r="5" fill="#dc2626"/><text x="712.0" y="520" fill="#374151" font-size="12" text-anchor="middle">目标一 60.67</text><circle cx="814.0" cy="498" r="5" fill="#dc2626"/><text x="814.0" y="520" fill="#374151" font-size="12" text-anchor="middle">目标二 56.23</text>
</svg>