<svg xmlns="http://www.w3.org/2000/svg" width="1080" height="560" viewBox="0 0 1080 560">
<rect width="100%" height="100%" fill="#ffffff"/>
<text x="72" y="23" fill="#111827" font-size="21" font-weight="800">HYPE 日线K线支撑压力图</text>
<text x="862" y="42" fill="#374151" font-size="15" text-anchor="end">最新价 66.63</text>
<line x1="72" y1="34" x2="72" y2="340" stroke="#d1d5db"/>
<line x1="72" y1="340" x2="862" y2="340" stroke="#d1d5db"/>
<line x1="72" y1="340.0" x2="862" y2="340.0" stroke="#f3f4f6"/>
<text x="8" y="345.0" fill="#4b5563" font-size="14">31.73</text>
<line x1="72" y1="263.5" x2="862" y2="263.5" stroke="#f3f4f6"/>
<text x="8" y="268.5" fill="#4b5563" font-size="14">44.01</text>
<line x1="72" y1="187.0" x2="862" y2="187.0" stroke="#f3f4f6"/>
<text x="8" y="192.0" fill="#4b5563" font-size="14">56.29</text>
<line x1="72" y1="110.5" x2="862" y2="110.5" stroke="#f3f4f6"/>
<text x="8" y="115.5" fill="#4b5563" font-size="14">68.57</text>
<line x1="72" y1="34.0" x2="862" y2="34.0" stroke="#f3f4f6"/>
<text x="8" y="39.0" fill="#4b5563" font-size="14">80.85</text>
<line x1="72.0" y1="307.2" x2="72.0" y2="318.9" stroke="#16a34a" stroke-width="1"/><rect x="69.3" y="308.1" width="5.4" height="3.1" fill="#16a34a" opacity="0.82" rx="1"/>
<line x1="80.9" y1="302.5" x2="80.9" y2="313.7" stroke="#dc2626" stroke-width="1"/><rect x="78.2" y="308.1" width="5.4" height="3.6" fill="#dc2626" opacity="0.82" rx="1"/>
<line x1="89.8" y1="293.7" x2="89.8" y2="315.2" stroke="#16a34a" stroke-width="1"/><rect x="87.0" y="297.2" width="5.4" height="14.5" fill="#16a34a" opacity="0.82" rx="1"/>
<line x1="98.6" y1="289.8" x2="98.6" y2="302.5" stroke="#16a34a" stroke-width="1"/><rect x="95.9" y="296.2" width="5.4" height="1.2" fill="#16a34a" opacity="0.82" rx="1"/>
<line x1="107.5" y1="286.0" x2="107.5" y2="300.0" stroke="#16a34a" stroke-width="1"/><rect x="104.8" y="291.9" width="5.4" height="4.4" fill="#16a34a" opacity="0.82" rx="1"/>
<line x1="116.4" y1="274.5" x2="116.4" y2="292.1" stroke="#16a34a" stroke-width="1"/><rect x="113.7" y="278.5" width="5.4" height="13.2" fill="#16a34a" opacity="0.82" rx="1"/>
<line x1="125.3" y1="268.7" x2="125.3" y2="279.3" stroke="#16a34a" stroke-width="1"/><rect x="122.5" y="274.3" width="5.4" height="4.3" fill="#16a34a" opacity="0.82" rx="1"/>
<line x1="134.1" y1="270.9" x2="134.1" y2="287.3" stroke="#dc2626" stroke-width="1"/><rect x="131.4" y="274.3" width="5.4" height="8.9" fill="#dc2626" opacity="0.82" rx="1"/>
<line x1="143.0" y1="259.7" x2="143.0" y2="283.6" stroke="#16a34a" stroke-width="1"/><rect x="140.3" y="261.4" width="5.4" height="21.8" fill="#16a34a" opacity="0.82" rx="1"/>
<line x1="151.9" y1="255.2" x2="151.9" y2="270.3" stroke="#dc2626" stroke-width="1"/><rect x="149.2" y="261.5" width="5.4" height="4.9" fill="#dc2626" opacity="0.82" rx="1"/>
<line x1="160.8" y1="254.4" x2="160.8" y2="269.0" stroke="#16a34a" stroke-width="1"/><rect x="158.0" y="259.6" width="5.4" height="6.9" fill="#16a34a" opacity="0.82" rx="1"/>
<line x1="169.6" y1="252.6" x2="169.6" y2="267.9" stroke="#dc2626" stroke-width="1"/><rect x="166.9" y="259.6" width="5.4" height="5.1" fill="#dc2626" opacity="0.82" rx="1"/>
<line x1="178.5" y1="254.2" x2="178.5" y2="268.7" stroke="#16a34a" stroke-width="1"/><rect x="175.8" y="259.7" width="5.4" height="5.0" fill="#16a34a" opacity="0.82" rx="1"/>
<line x1="187.4" y1="254.5" x2="187.4" y2="265.3" stroke="#dc2626" stroke-width="1"/><rect x="184.7" y="259.7" width="5.4" height="5.2" fill="#dc2626" opacity="0.82" rx="1"/>
<line x1="196.3" y1="264.0" x2="196.3" y2="285.4" stroke="#dc2626" stroke-width="1"/><rect x="193.5" y="264.9" width="5.4" height="19.3" fill="#dc2626" opacity="0.82" rx="1"/>
<line x1="205.1" y1="277.3" x2="205.1" y2="285.0" stroke="#16a34a" stroke-width="1"/><rect x="202.4" y="284.1" width="5.4" height="1.2" fill="#16a34a" opacity="0.82" rx="1"/>
<line x1="214.0" y1="279.6" x2="214.0" y2="295.4" stroke="#dc2626" stroke-width="1"/><rect x="211.3" y="284.1" width="5.4" height="5.8" fill="#dc2626" opacity="0.82" rx="1"/>
<line x1="222.9" y1="277.6" x2="222.9" y2="290.8" stroke="#16a34a" stroke-width="1"/><rect x="220.2" y="281.3" width="5.4" height="8.7" fill="#16a34a" opacity="0.82" rx="1"/>
<line x1="231.8" y1="276.9" x2="231.8" y2="285.2" stroke="#16a34a" stroke-width="1"/><rect x="229.1" y="280.3" width="5.4" height="1.2" fill="#16a34a" opacity="0.82" rx="1"/>
<line x1="240.7" y1="278.9" x2="240.7" y2="284.2" stroke="#dc2626" stroke-width="1"/><rect x="237.9" y="280.3" width="5.4" height="1.2" fill="#dc2626" opacity="0.82" rx="1"/>
<line x1="249.5" y1="276.6" x2="249.5" y2="283.3" stroke="#16a34a" stroke-width="1"/><rect x="246.8" y="279.1" width="5.4" height="2.0" fill="#16a34a" opacity="0.82" rx="1"/>
<line x1="258.4" y1="272.2" x2="258.4" y2="282.6" stroke="#16a34a" stroke-width="1"/><rect x="255.7" y="273.2" width="5.4" height="6.0" fill="#16a34a" opacity="0.82" rx="1"/>
<line x1="267.3" y1="266.2" x2="267.3" y2="280.6" stroke="#dc2626" stroke-width="1"/><rect x="264.6" y="273.2" width="5.4" height="5.0" fill="#dc2626" opacity="0.82" rx="1"/>
<line x1="276.2" y1="277.1" x2="276.2" y2="292.3" stroke="#dc2626" stroke-width="1"/><rect x="273.4" y="278.2" width="5.4" height="9.2" fill="#dc2626" opacity="0.82" rx="1"/>
<line x1="285.0" y1="283.5" x2="285.0" y2="293.7" stroke="#dc2626" stroke-width="1"/><rect x="282.3" y="287.5" width="5.4" height="1.4" fill="#dc2626" opacity="0.82" rx="1"/>
<line x1="293.9" y1="286.4" x2="293.9" y2="296.5" stroke="#dc2626" stroke-width="1"/><rect x="291.2" y="288.9" width="5.4" height="1.5" fill="#dc2626" opacity="0.82" rx="1"/>
<line x1="302.8" y1="281.4" x2="302.8" y2="290.5" stroke="#16a34a" stroke-width="1"/><rect x="300.1" y="281.4" width="5.4" height="9.0" fill="#16a34a" opacity="0.82" rx="1"/>
<line x1="311.7" y1="273.2" x2="311.7" y2="282.4" stroke="#16a34a" stroke-width="1"/><rect x="308.9" y="280.7" width="5.4" height="1.2" fill="#16a34a" opacity="0.82" rx="1"/>
<line x1="320.5" y1="277.7" x2="320.5" y2="284.3" stroke="#16a34a" stroke-width="1"/><rect x="317.8" y="278.8" width="5.4" height="1.9" fill="#16a34a" opacity="0.82" rx="1"/>
<line x1="329.4" y1="272.3" x2="329.4" y2="283.4" stroke="#16a34a" stroke-width="1"/><rect x="326.7" y="277.2" width="5.4" height="1.6" fill="#16a34a" opacity="0.82" rx="1"/>
<line x1="338.3" y1="259.6" x2="338.3" y2="277.5" stroke="#16a34a" stroke-width="1"/><rect x="335.6" y="265.4" width="5.4" height="11.8" fill="#16a34a" opacity="0.82" rx="1"/>
<line x1="347.2" y1="258.8" x2="347.2" y2="270.4" stroke="#dc2626" stroke-width="1"/><rect x="344.4" y="265.4" width="5.4" height="3.6" fill="#dc2626" opacity="0.82" rx="1"/>
<line x1="356.0" y1="266.3" x2="356.0" y2="276.9" stroke="#dc2626" stroke-width="1"/><rect x="353.3" y="269.0" width="5.4" height="3.8" fill="#dc2626" opacity="0.82" rx="1"/>
<line x1="364.9" y1="266.7" x2="364.9" y2="275.8" stroke="#16a34a" stroke-width="1"/><rect x="362.2" y="268.1" width="5.4" height="4.6" fill="#16a34a" opacity="0.82" rx="1"/>
<line x1="373.8" y1="261.0" x2="373.8" y2="270.8" stroke="#dc2626" stroke-width="1"/><rect x="371.1" y="268.1" width="5.4" height="2.2" fill="#dc2626" opacity="0.82" rx="1"/>
<line x1="382.7" y1="265.4" x2="382.7" y2="275.3" stroke="#16a34a" stroke-width="1"/><rect x="380.0" y="269.7" width="5.4" height="1.2" fill="#16a34a" opacity="0.82" rx="1"/>
<line x1="391.6" y1="268.8" x2="391.6" y2="283.3" stroke="#dc2626" stroke-width="1"/><rect x="388.8" y="269.7" width="5.4" height="6.3" fill="#dc2626" opacity="0.82" rx="1"/>
<line x1="400.4" y1="275.7" x2="400.4" y2="289.9" stroke="#dc2626" stroke-width="1"/><rect x="397.7" y="276.0" width="5.4" height="10.9" fill="#dc2626" opacity="0.82" rx="1"/>
<line x1="409.3" y1="284.1" x2="409.3" y2="296.5" stroke="#dc2626" stroke-width="1"/><rect x="406.6" y="286.9" width="5.4" height="8.9" fill="#dc2626" opacity="0.82" rx="1"/>
<line x1="418.2" y1="258.8" x2="418.2" y2="299.9" stroke="#16a34a" stroke-width="1"/><rect x="415.5" y="262.7" width="5.4" height="33.1" fill="#16a34a" opacity="0.82" rx="1"/>
<line x1="427.1" y1="244.5" x2="427.1" y2="271.0" stroke="#16a34a" stroke-width="1"/><rect x="424.3" y="262.6" width="5.4" height="1.2" fill="#16a34a" opacity="0.82" rx="1"/>
<line x1="435.9" y1="260.6" x2="435.9" y2="286.2" stroke="#dc2626" stroke-width="1"/><rect x="433.2" y="262.6" width="5.4" height="14.6" fill="#dc2626" opacity="0.82" rx="1"/>
<line x1="444.8" y1="243.9" x2="444.8" y2="280.2" stroke="#16a34a" stroke-width="1"/><rect x="442.1" y="253.1" width="5.4" height="24.1" fill="#16a34a" opacity="0.82" rx="1"/>
<line x1="453.7" y1="238.6" x2="453.7" y2="262.3" stroke="#16a34a" stroke-width="1"/><rect x="451.0" y="240.1" width="5.4" height="12.9" fill="#16a34a" opacity="0.82" rx="1"/>
<line x1="462.6" y1="233.1" x2="462.6" y2="246.1" stroke="#16a34a" stroke-width="1"/><rect x="459.8" y="238.6" width="5.4" height="1.6" fill="#16a34a" opacity="0.82" rx="1"/>
<line x1="471.4" y1="196.0" x2="471.4" y2="244.4" stroke="#16a34a" stroke-width="1"/><rect x="468.7" y="196.0" width="5.4" height="42.6" fill="#16a34a" opacity="0.82" rx="1"/>
<line x1="480.3" y1="147.7" x2="480.3" y2="196.8" stroke="#16a34a" stroke-width="1"/><rect x="477.6" y="172.7" width="5.4" height="23.4" fill="#16a34a" opacity="0.82" rx="1"/>
<line x1="489.2" y1="151.7" x2="489.2" y2="199.5" stroke="#dc2626" stroke-width="1"/><rect x="486.5" y="172.8" width="5.4" height="24.9" fill="#dc2626" opacity="0.82" rx="1"/>
<line x1="498.1" y1="164.5" x2="498.1" y2="201.3" stroke="#16a34a" stroke-width="1"/><rect x="495.3" y="171.9" width="5.4" height="25.7" fill="#16a34a" opacity="0.82" rx="1"/>
<line x1="506.9" y1="135.8" x2="506.9" y2="172.5" stroke="#16a34a" stroke-width="1"/><rect x="504.2" y="146.8" width="5.4" height="25.2" fill="#16a34a" opacity="0.82" rx="1"/>
<line x1="515.8" y1="139.6" x2="515.8" y2="159.4" stroke="#dc2626" stroke-width="1"/><rect x="513.1" y="146.7" width="5.4" height="10.4" fill="#dc2626" opacity="0.82" rx="1"/>
<line x1="524.7" y1="134.3" x2="524.7" y2="172.9" stroke="#dc2626" stroke-width="1"/><rect x="522.0" y="157.0" width="5.4" height="9.9" fill="#dc2626" opacity="0.82" rx="1"/>
<line x1="533.6" y1="143.2" x2="533.6" y2="182.2" stroke="#dc2626" stroke-width="1"/><rect x="530.9" y="166.9" width="5.4" height="11.8" fill="#dc2626" opacity="0.82" rx="1"/>
<line x1="542.4" y1="150.6" x2="542.4" y2="187.2" stroke="#16a34a" stroke-width="1"/><rect x="539.7" y="154.4" width="5.4" height="24.3" fill="#16a34a" opacity="0.82" rx="1"/>
<line x1="551.3" y1="117.7" x2="551.3" y2="161.8" stroke="#16a34a" stroke-width="1"/><rect x="548.6" y="136.4" width="5.4" height="18.0" fill="#16a34a" opacity="0.82" rx="1"/>
<line x1="560.2" y1="110.0" x2="560.2" y2="139.0" stroke="#16a34a" stroke-width="1"/><rect x="557.5" y="112.2" width="5.4" height="24.2" fill="#16a34a" opacity="0.82" rx="1"/>
<line x1="569.1" y1="82.2" x2="569.1" y2="117.3" stroke="#16a34a" stroke-width="1"/><rect x="566.4" y="88.8" width="5.4" height="23.4" fill="#16a34a" opacity="0.82" rx="1"/>
<line x1="578.0" y1="65.3" x2="578.0" y2="99.0" stroke="#16a34a" stroke-width="1"/><rect x="575.2" y="79.3" width="5.4" height="9.3" fill="#16a34a" opacity="0.82" rx="1"/>
<line x1="586.8" y1="66.4" x2="586.8" y2="115.1" stroke="#dc2626" stroke-width="1"/><rect x="584.1" y="79.3" width="5.4" height="23.4" fill="#dc2626" opacity="0.82" rx="1"/>
<line x1="595.7" y1="66.7" x2="595.7" y2="112.3" stroke="#16a34a" stroke-width="1"/><rect x="593.0" y="73.1" width="5.4" height="29.6" fill="#16a34a" opacity="0.82" rx="1"/>
<line x1="604.6" y1="67.3" x2="604.6" y2="145.2" stroke="#dc2626" stroke-width="1"/><rect x="601.9" y="73.1" width="5.4" height="63.2" fill="#dc2626" opacity="0.82" rx="1"/>
<line x1="613.5" y1="126.3" x2="613.5" y2="184.5" stroke="#dc2626" stroke-width="1"/><rect x="610.7" y="136.3" width="5.4" height="28.7" fill="#dc2626" opacity="0.82" rx="1"/>
<line x1="622.3" y1="156.3" x2="622.3" y2="192.0" stroke="#dc2626" stroke-width="1"/><rect x="619.6" y="165.1" width="5.4" height="20.5" fill="#dc2626" opacity="0.82" rx="1"/>
<line x1="631.2" y1="161.1" x2="631.2" y2="188.1" stroke="#16a34a" stroke-width="1"/><rect x="628.5" y="165.4" width="5.4" height="20.1" fill="#16a34a" opacity="0.82" rx="1"/>
<line x1="640.1" y1="127.7" x2="640.1" y2="168.2" stroke="#16a34a" stroke-width="1"/><rect x="637.4" y="140.0" width="5.4" height="25.5" fill="#16a34a" opacity="0.82" rx="1"/>
<line x1="649.0" y1="138.7" x2="649.0" y2="180.7" stroke="#dc2626" stroke-width="1"/><rect x="646.2" y="139.9" width="5.4" height="37.9" fill="#dc2626" opacity="0.82" rx="1"/>
<line x1="657.8" y1="174.1" x2="657.8" y2="209.9" stroke="#dc2626" stroke-width="1"/><rect x="655.1" y="177.7" width="5.4" height="28.0" fill="#dc2626" opacity="0.82" rx="1"/>
<line x1="666.7" y1="166.1" x2="666.7" y2="208.4" stroke="#16a34a" stroke-width="1"/><rect x="664.0" y="170.5" width="5.4" height="35.1" fill="#16a34a" opacity="0.82" rx="1"/>
<line x1="675.6" y1="148.8" x2="675.6" y2="183.9" stroke="#16a34a" stroke-width="1"/><rect x="672.9" y="168.5" width="5.4" height="2.1" fill="#16a34a" opacity="0.82" rx="1"/>
<line x1="684.5" y1="158.4" x2="684.5" y2="181.5" stroke="#16a34a" stroke-width="1"/><rect x="681.8" y="159.5" width="5.4" height="9.0" fill="#16a34a" opacity="0.82" rx="1"/>
<line x1="693.3" y1="138.1" x2="693.3" y2="166.4" stroke="#16a34a" stroke-width="1"/><rect x="690.6" y="139.4" width="5.4" height="20.2" fill="#16a34a" opacity="0.82" rx="1"/>
<line x1="702.2" y1="109.7" x2="702.2" y2="144.5" stroke="#16a34a" stroke-width="1"/><rect x="699.5" y="121.0" width="5.4" height="18.5" fill="#16a34a" opacity="0.82" rx="1"/>
<line x1="711.1" y1="58.0" x2="711.1" y2="124.2" stroke="#16a34a" stroke-width="1"/><rect x="708.4" y="79.3" width="5.4" height="41.7" fill="#16a34a" opacity="0.82" rx="1"/>
<line x1="720.0" y1="59.3" x2="720.0" y2="101.9" stroke="#dc2626" stroke-width="1"/><rect x="717.3" y="79.3" width="5.4" height="15.2" fill="#dc2626" opacity="0.82" rx="1"/>
<line x1="728.9" y1="78.3" x2="728.9" y2="123.1" stroke="#dc2626" stroke-width="1"/><rect x="726.1" y="94.4" width="5.4" height="17.4" fill="#dc2626" opacity="0.82" rx="1"/>
<line x1="737.7" y1="92.9" x2="737.7" y2="128.8" stroke="#16a34a" stroke-width="1"/><rect x="735.0" y="99.9" width="5.4" height="12.0" fill="#16a34a" opacity="0.82" rx="1"/>
<line x1="746.6" y1="92.7" x2="746.6" y2="111.5" stroke="#16a34a" stroke-width="1"/><rect x="743.9" y="97.0" width="5.4" height="3.0" fill="#16a34a" opacity="0.82" rx="1"/>
<line x1="755.5" y1="95.9" x2="755.5" y2="123.2" stroke="#dc2626" stroke-width="1"/><rect x="752.8" y="97.0" width="5.4" height="23.9" fill="#dc2626" opacity="0.82" rx="1"/>
<line x1="764.4" y1="104.2" x2="764.4" y2="132.1" stroke="#dc2626" stroke-width="1"/><rect x="761.6" y="120.9" width="5.4" height="4.0" fill="#dc2626" opacity="0.82" rx="1"/>
<line x1="773.2" y1="118.1" x2="773.2" y2="153.8" stroke="#dc2626" stroke-width="1"/><rect x="770.5" y="124.9" width="5.4" height="25.6" fill="#dc2626" opacity="0.82" rx="1"/>
<line x1="782.1" y1="137.3" x2="782.1" y2="169.8" stroke="#16a34a" stroke-width="1"/><rect x="779.4" y="139.6" width="5.4" height="10.8" fill="#16a34a" opacity="0.82" rx="1"/>
<line x1="791.0" y1="130.2" x2="791.0" y2="174.3" stroke="#16a34a" stroke-width="1"/><rect x="788.3" y="138.5" width="5.4" height="1.2" fill="#16a34a" opacity="0.82" rx="1"/>
<line x1="799.9" y1="130.0" x2="799.9" y2="158.3" stroke="#16a34a" stroke-width="1"/><rect x="797.1" y="136.9" width="5.4" height="1.6" fill="#16a34a" opacity="0.82" rx="1"/>
<line x1="808.7" y1="134.5" x2="808.7" y2="154.9" stroke="#dc2626" stroke-width="1"/><rect x="806.0" y="136.9" width="5.4" height="16.9" fill="#dc2626" opacity="0.82" rx="1"/>
<line x1="817.6" y1="142.0" x2="817.6" y2="160.4" stroke="#dc2626" stroke-width="1"/><rect x="814.9" y="153.8" width="5.4" height="1.4" fill="#dc2626" opacity="0.82" rx="1"/>
<line x1="826.5" y1="115.5" x2="826.5" y2="159.6" stroke="#16a34a" stroke-width="1"/><rect x="823.8" y="120.9" width="5.4" height="34.2" fill="#16a34a" opacity="0.82" rx="1"/>
<line x1="835.4" y1="120.7" x2="835.4" y2="138.3" stroke="#dc2626" stroke-width="1"/><rect x="832.6" y="121.0" width="5.4" height="11.7" fill="#dc2626" opacity="0.82" rx="1"/>
<line x1="844.2" y1="126.5" x2="844.2" y2="152.5" stroke="#dc2626" stroke-width="1"/><rect x="841.5" y="132.6" width="5.4" height="16.7" fill="#dc2626" opacity="0.82" rx="1"/>
<line x1="853.1" y1="119.4" x2="853.1" y2="153.6" stroke="#16a34a" stroke-width="1"/><rect x="850.4" y="120.9" width="5.4" height="28.3" fill="#16a34a" opacity="0.82" rx="1"/>
<line x1="862.0" y1="120.4" x2="862.0" y2="122.8" stroke="#dc2626" stroke-width="1"/><rect x="859.3" y="121.0" width="5.4" height="1.6" fill="#dc2626" opacity="0.82" rx="1"/>
<line x1="72" y1="163.0" x2="862" y2="163.0" stroke="#16a34a" stroke-width="1.8" stroke-dasharray="6 4" /><rect x="874" y="143.0" width="166" height="23" rx="5" fill="#ffffff" stroke="#16a34a" opacity="0.97"/><text x="881" y="159.0" fill="#16a34a" font-size="15" font-weight="700">支撑 60.14</text>
<line x1="72" y1="55.1" x2="862" y2="55.1" stroke="#dc2626" stroke-width="1.8" stroke-dasharray="6 4" /><rect x="874" y="35.1" width="166" height="23" rx="5" fill="#ffffff" stroke="#dc2626" opacity="0.97"/><text x="881" y="51.1" fill="#dc2626" font-size="15" font-weight="700">压力 77.46</text>
<line x1="72" y1="122.5" x2="862" y2="122.5" stroke="#111827" stroke-width="1.8" stroke-dasharray="2 2" /><rect x="874" y="102.5" width="166" height="23" rx="5" fill="#ffffff" stroke="#111827" opacity="0.97"/><text x="881" y="118.5" fill="#111827" font-size="15" font-weight="700">现价 66.63</text>
<text x="72" y="396" fill="#16a34a" font-size="14" font-weight="700">日线做多计划</text><rect x="72" y="404" width="790" height="48" rx="6" fill="#f9fafb" stroke="#e5e7eb"/><line x1="94" y1="412" x2="840" y2="412" stroke="#16a34a" stroke-width="3"/><circle cx="132.0" cy="412" r="5" fill="#16a34a"/><text x="132.0" y="434" fill="#374151" font-size="12" text-anchor="middle">入场 止跌/突破回踩</text><circle cx="451.2" cy="412" r="5" fill="#16a34a"/><text x="451.2" y="434" fill="#374151" font-size="12" text-anchor="middle">止损 60.14</text><circle cx="712.0" cy="412" r="5" fill="#16a34a"/><text x="712.0" y="434" fill="#374151" font-size="12" text-anchor="middle">目标一 77.46</text><circle cx="814.0" cy="412" r="5" fill="#16a34a"/><text x="814.0" y="434" fill="#374151" font-size="12" text-anchor="middle">目标二 83.95</text>
<text x="72" y="482" fill="#dc2626" font-size="14" font-weight="700">日线做空计划</text><rect x="72" y="490" width="790" height="48" rx="6" fill="#f9fafb" stroke="#e5e7eb"/><line x1="94" y1="498" x2="840" y2="498" stroke="#dc2626" stroke-width="3"/><circle cx="132.0" cy="498" r="5" fill="#dc2626"/><text x="132.0" y="520" fill="#374151" font-size="12" text-anchor="middle">入场 反弹承压/破位回抽</text><circle cx="451.2" cy="498" r="5" fill="#dc2626"/><text x="451.2" y="520" fill="#374151" font-size="12" text-anchor="middle">止损 77.46</text><circle cx="712.0" cy="498" r="5" fill="#dc2626"/><text x="712.0" y="520" fill="#374151" font-size="12" text-anchor="middle">目标一 60.14</text><circle cx="814.0" cy="498" r="5" fill="#dc2626"/><text x="814.0" y="520" fill="#374151" font-size="12" text-anchor="middle">目标二 55.81</text>
</svg>