<svg xmlns="http://www.w3.org/2000/svg" width="1080" height="560" viewBox="0 0 1080 560">
<rect width="100%" height="100%" fill="#ffffff"/>
<text x="72" y="23" fill="#111827" font-size="21" font-weight="800">BTC 小时线K线支撑压力图</text>
<text x="862" y="42" fill="#374151" font-size="15" text-anchor="end">最新价 61,707</text>
<line x1="72" y1="34" x2="72" y2="340" stroke="#d1d5db"/>
<line x1="72" y1="340" x2="862" y2="340" stroke="#d1d5db"/>
<line x1="72" y1="340.0" x2="862" y2="340.0" stroke="#f3f4f6"/>
<text x="8" y="345.0" fill="#4b5563" font-size="14">57,390</text>
<line x1="72" y1="263.5" x2="862" y2="263.5" stroke="#f3f4f6"/>
<text x="8" y="268.5" fill="#4b5563" font-size="14">58,727</text>
<line x1="72" y1="187.0" x2="862" y2="187.0" stroke="#f3f4f6"/>
<text x="8" y="192.0" fill="#4b5563" font-size="14">60,064</text>
<line x1="72" y1="110.5" x2="862" y2="110.5" stroke="#f3f4f6"/>
<text x="8" y="115.5" fill="#4b5563" font-size="14">61,401</text>
<line x1="72" y1="34.0" x2="862" y2="34.0" stroke="#f3f4f6"/>
<text x="8" y="39.0" fill="#4b5563" font-size="14">62,739</text>
<line x1="72.0" y1="208.4" x2="72.0" y2="248.6" stroke="#dc2626" stroke-width="1"/><rect x="69.3" y="215.9" width="5.4" height="6.6" fill="#dc2626" opacity="0.82" rx="1"/>
<line x1="80.9" y1="194.2" x2="80.9" y2="244.0" stroke="#16a34a" stroke-width="1"/><rect x="78.2" y="202.1" width="5.4" height="20.4" fill="#16a34a" opacity="0.82" rx="1"/>
<line x1="89.8" y1="190.7" x2="89.8" y2="215.7" stroke="#16a34a" stroke-width="1"/><rect x="87.0" y="198.1" width="5.4" height="4.0" fill="#16a34a" opacity="0.82" rx="1"/>
<line x1="98.6" y1="152.5" x2="98.6" y2="198.1" stroke="#16a34a" stroke-width="1"/><rect x="95.9" y="168.0" width="5.4" height="30.0" fill="#16a34a" opacity="0.82" rx="1"/>
<line x1="107.5" y1="162.1" x2="107.5" y2="182.1" stroke="#dc2626" stroke-width="1"/><rect x="104.8" y="168.0" width="5.4" height="6.9" fill="#dc2626" opacity="0.82" rx="1"/>
<line x1="116.4" y1="159.8" x2="116.4" y2="183.4" stroke="#16a34a" stroke-width="1"/><rect x="113.7" y="167.3" width="5.4" height="7.7" fill="#16a34a" opacity="0.82" rx="1"/>
<line x1="125.3" y1="160.1" x2="125.3" y2="175.5" stroke="#dc2626" stroke-width="1"/><rect x="122.5" y="167.3" width="5.4" height="7.9" fill="#dc2626" opacity="0.82" rx="1"/>
<line x1="134.1" y1="158.3" x2="134.1" y2="177.4" stroke="#16a34a" stroke-width="1"/><rect x="131.4" y="164.6" width="5.4" height="10.5" fill="#16a34a" opacity="0.82" rx="1"/>
<line x1="143.0" y1="162.5" x2="143.0" y2="172.7" stroke="#dc2626" stroke-width="1"/><rect x="140.3" y="164.6" width="5.4" height="7.3" fill="#dc2626" opacity="0.82" rx="1"/>
<line x1="151.9" y1="170.4" x2="151.9" y2="183.0" stroke="#dc2626" stroke-width="1"/><rect x="149.2" y="172.0" width="5.4" height="5.8" fill="#dc2626" opacity="0.82" rx="1"/>
<line x1="160.8" y1="176.4" x2="160.8" y2="209.7" stroke="#dc2626" stroke-width="1"/><rect x="158.0" y="177.8" width="5.4" height="23.9" fill="#dc2626" opacity="0.82" rx="1"/>
<line x1="169.6" y1="189.2" x2="169.6" y2="205.5" stroke="#16a34a" stroke-width="1"/><rect x="166.9" y="195.3" width="5.4" height="6.5" fill="#16a34a" opacity="0.82" rx="1"/>
<line x1="178.5" y1="189.4" x2="178.5" y2="206.7" stroke="#16a34a" stroke-width="1"/><rect x="175.8" y="195.2" width="5.4" height="1.2" fill="#16a34a" opacity="0.82" rx="1"/>
<line x1="187.4" y1="190.2" x2="187.4" y2="215.3" stroke="#dc2626" stroke-width="1"/><rect x="184.7" y="195.2" width="5.4" height="18.6" fill="#dc2626" opacity="0.82" rx="1"/>
<line x1="196.3" y1="209.4" x2="196.3" y2="225.0" stroke="#dc2626" stroke-width="1"/><rect x="193.5" y="213.8" width="5.4" height="7.9" fill="#dc2626" opacity="0.82" rx="1"/>
<line x1="205.1" y1="211.6" x2="205.1" y2="229.0" stroke="#16a34a" stroke-width="1"/><rect x="202.4" y="212.0" width="5.4" height="9.7" fill="#16a34a" opacity="0.82" rx="1"/>
<line x1="214.0" y1="207.9" x2="214.0" y2="219.9" stroke="#dc2626" stroke-width="1"/><rect x="211.3" y="212.0" width="5.4" height="3.2" fill="#dc2626" opacity="0.82" rx="1"/>
<line x1="222.9" y1="212.9" x2="222.9" y2="223.7" stroke="#dc2626" stroke-width="1"/><rect x="220.2" y="215.2" width="5.4" height="4.2" fill="#dc2626" opacity="0.82" rx="1"/>
<line x1="231.8" y1="217.4" x2="231.8" y2="238.8" stroke="#dc2626" stroke-width="1"/><rect x="229.1" y="219.4" width="5.4" height="12.1" fill="#dc2626" opacity="0.82" rx="1"/>
<line x1="240.7" y1="225.2" x2="240.7" y2="235.0" stroke="#16a34a" stroke-width="1"/><rect x="237.9" y="227.9" width="5.4" height="3.6" fill="#16a34a" opacity="0.82" rx="1"/>
<line x1="249.5" y1="224.8" x2="249.5" y2="232.7" stroke="#dc2626" stroke-width="1"/><rect x="246.8" y="227.9" width="5.4" height="2.6" fill="#dc2626" opacity="0.82" rx="1"/>
<line x1="258.4" y1="225.0" x2="258.4" y2="242.2" stroke="#dc2626" stroke-width="1"/><rect x="255.7" y="230.5" width="5.4" height="8.1" fill="#dc2626" opacity="0.82" rx="1"/>
<line x1="267.3" y1="238.6" x2="267.3" y2="285.0" stroke="#dc2626" stroke-width="1"/><rect x="264.6" y="238.6" width="5.4" height="45.0" fill="#dc2626" opacity="0.82" rx="1"/>
<line x1="276.2" y1="259.8" x2="276.2" y2="293.6" stroke="#16a34a" stroke-width="1"/><rect x="273.4" y="264.4" width="5.4" height="19.3" fill="#16a34a" opacity="0.82" rx="1"/>
<line x1="285.0" y1="232.8" x2="285.0" y2="282.2" stroke="#dc2626" stroke-width="1"/><rect x="282.3" y="264.4" width="5.4" height="14.5" fill="#dc2626" opacity="0.82" rx="1"/>
<line x1="293.9" y1="260.1" x2="293.9" y2="295.9" stroke="#dc2626" stroke-width="1"/><rect x="291.2" y="278.8" width="5.4" height="5.9" fill="#dc2626" opacity="0.82" rx="1"/>
<line x1="302.8" y1="269.8" x2="302.8" y2="292.3" stroke="#16a34a" stroke-width="1"/><rect x="300.1" y="277.7" width="5.4" height="7.0" fill="#16a34a" opacity="0.82" rx="1"/>
<line x1="311.7" y1="270.5" x2="311.7" y2="288.5" stroke="#dc2626" stroke-width="1"/><rect x="308.9" y="277.7" width="5.4" height="4.7" fill="#dc2626" opacity="0.82" rx="1"/>
<line x1="320.5" y1="266.5" x2="320.5" y2="286.0" stroke="#16a34a" stroke-width="1"/><rect x="317.8" y="267.3" width="5.4" height="15.0" fill="#16a34a" opacity="0.82" rx="1"/>
<line x1="329.4" y1="258.2" x2="329.4" y2="273.1" stroke="#16a34a" stroke-width="1"/><rect x="326.7" y="259.6" width="5.4" height="7.7" fill="#16a34a" opacity="0.82" rx="1"/>
<line x1="338.3" y1="256.5" x2="338.3" y2="269.5" stroke="#dc2626" stroke-width="1"/><rect x="335.6" y="259.7" width="5.4" height="4.9" fill="#dc2626" opacity="0.82" rx="1"/>
<line x1="347.2" y1="262.5" x2="347.2" y2="278.1" stroke="#dc2626" stroke-width="1"/><rect x="344.4" y="264.6" width="5.4" height="5.5" fill="#dc2626" opacity="0.82" rx="1"/>
<line x1="356.0" y1="260.5" x2="356.0" y2="277.8" stroke="#dc2626" stroke-width="1"/><rect x="353.3" y="270.1" width="5.4" height="2.1" fill="#dc2626" opacity="0.82" rx="1"/>
<line x1="364.9" y1="268.7" x2="364.9" y2="275.4" stroke="#16a34a" stroke-width="1"/><rect x="362.2" y="270.5" width="5.4" height="1.7" fill="#16a34a" opacity="0.82" rx="1"/>
<line x1="373.8" y1="263.9" x2="373.8" y2="289.6" stroke="#dc2626" stroke-width="1"/><rect x="371.1" y="270.5" width="5.4" height="3.2" fill="#dc2626" opacity="0.82" rx="1"/>
<line x1="382.7" y1="248.4" x2="382.7" y2="318.9" stroke="#16a34a" stroke-width="1"/><rect x="380.0" y="262.7" width="5.4" height="11.0" fill="#16a34a" opacity="0.82" rx="1"/>
<line x1="391.6" y1="239.2" x2="391.6" y2="268.9" stroke="#16a34a" stroke-width="1"/><rect x="388.8" y="244.3" width="5.4" height="18.4" fill="#16a34a" opacity="0.82" rx="1"/>
<line x1="400.4" y1="230.8" x2="400.4" y2="258.0" stroke="#16a34a" stroke-width="1"/><rect x="397.7" y="238.2" width="5.4" height="6.1" fill="#16a34a" opacity="0.82" rx="1"/>
<line x1="409.3" y1="222.5" x2="409.3" y2="246.1" stroke="#16a34a" stroke-width="1"/><rect x="406.6" y="230.1" width="5.4" height="8.1" fill="#16a34a" opacity="0.82" rx="1"/>
<line x1="418.2" y1="227.9" x2="418.2" y2="243.0" stroke="#dc2626" stroke-width="1"/><rect x="415.5" y="230.1" width="5.4" height="10.8" fill="#dc2626" opacity="0.82" rx="1"/>
<line x1="427.1" y1="240.4" x2="427.1" y2="276.5" stroke="#dc2626" stroke-width="1"/><rect x="424.3" y="240.9" width="5.4" height="22.6" fill="#dc2626" opacity="0.82" rx="1"/>
<line x1="435.9" y1="259.5" x2="435.9" y2="272.6" stroke="#16a34a" stroke-width="1"/><rect x="433.2" y="262.5" width="5.4" height="1.2" fill="#16a34a" opacity="0.82" rx="1"/>
<line x1="444.8" y1="249.9" x2="444.8" y2="279.3" stroke="#16a34a" stroke-width="1"/><rect x="442.1" y="250.7" width="5.4" height="11.8" fill="#16a34a" opacity="0.82" rx="1"/>
<line x1="453.7" y1="243.9" x2="453.7" y2="259.7" stroke="#dc2626" stroke-width="1"/><rect x="451.0" y="250.7" width="5.4" height="1.7" fill="#dc2626" opacity="0.82" rx="1"/>
<line x1="462.6" y1="252.3" x2="462.6" y2="271.3" stroke="#dc2626" stroke-width="1"/><rect x="459.8" y="252.4" width="5.4" height="16.6" fill="#dc2626" opacity="0.82" rx="1"/>
<line x1="471.4" y1="263.1" x2="471.4" y2="275.1" stroke="#dc2626" stroke-width="1"/><rect x="468.7" y="269.0" width="5.4" height="2.2" fill="#dc2626" opacity="0.82" rx="1"/>
<line x1="480.3" y1="267.6" x2="480.3" y2="288.3" stroke="#dc2626" stroke-width="1"/><rect x="477.6" y="271.2" width="5.4" height="5.6" fill="#dc2626" opacity="0.82" rx="1"/>
<line x1="489.2" y1="220.0" x2="489.2" y2="276.7" stroke="#16a34a" stroke-width="1"/><rect x="486.5" y="221.4" width="5.4" height="55.3" fill="#16a34a" opacity="0.82" rx="1"/>
<line x1="498.1" y1="186.8" x2="498.1" y2="234.2" stroke="#16a34a" stroke-width="1"/><rect x="495.3" y="217.9" width="5.4" height="3.5" fill="#16a34a" opacity="0.82" rx="1"/>
<line x1="506.9" y1="160.9" x2="506.9" y2="219.5" stroke="#16a34a" stroke-width="1"/><rect x="504.2" y="183.9" width="5.4" height="34.0" fill="#16a34a" opacity="0.82" rx="1"/>
<line x1="515.8" y1="176.7" x2="515.8" y2="200.0" stroke="#dc2626" stroke-width="1"/><rect x="513.1" y="183.9" width="5.4" height="12.3" fill="#dc2626" opacity="0.82" rx="1"/>
<line x1="524.7" y1="178.2" x2="524.7" y2="204.3" stroke="#16a34a" stroke-width="1"/><rect x="522.0" y="181.1" width="5.4" height="15.1" fill="#16a34a" opacity="0.82" rx="1"/>
<line x1="533.6" y1="174.7" x2="533.6" y2="191.1" stroke="#dc2626" stroke-width="1"/><rect x="530.9" y="181.1" width="5.4" height="1.4" fill="#dc2626" opacity="0.82" rx="1"/>
<line x1="542.4" y1="171.6" x2="542.4" y2="193.4" stroke="#dc2626" stroke-width="1"/><rect x="539.7" y="182.6" width="5.4" height="8.1" fill="#dc2626" opacity="0.82" rx="1"/>
<line x1="551.3" y1="180.9" x2="551.3" y2="199.6" stroke="#16a34a" stroke-width="1"/><rect x="548.6" y="184.9" width="5.4" height="5.7" fill="#16a34a" opacity="0.82" rx="1"/>
<line x1="560.2" y1="143.3" x2="560.2" y2="185.4" stroke="#16a34a" stroke-width="1"/><rect x="557.5" y="144.9" width="5.4" height="40.0" fill="#16a34a" opacity="0.82" rx="1"/>
<line x1="569.1" y1="115.0" x2="569.1" y2="172.4" stroke="#dc2626" stroke-width="1"/><rect x="566.4" y="144.9" width="5.4" height="20.2" fill="#dc2626" opacity="0.82" rx="1"/>
<line x1="578.0" y1="165.1" x2="578.0" y2="193.6" stroke="#dc2626" stroke-width="1"/><rect x="575.2" y="165.1" width="5.4" height="25.6" fill="#dc2626" opacity="0.82" rx="1"/>
<line x1="586.8" y1="190.3" x2="586.8" y2="216.1" stroke="#dc2626" stroke-width="1"/><rect x="584.1" y="190.7" width="5.4" height="16.0" fill="#dc2626" opacity="0.82" rx="1"/>
<line x1="595.7" y1="173.6" x2="595.7" y2="208.5" stroke="#16a34a" stroke-width="1"/><rect x="593.0" y="182.1" width="5.4" height="24.6" fill="#16a34a" opacity="0.82" rx="1"/>
<line x1="604.6" y1="163.9" x2="604.6" y2="191.9" stroke="#16a34a" stroke-width="1"/><rect x="601.9" y="168.2" width="5.4" height="13.9" fill="#16a34a" opacity="0.82" rx="1"/>
<line x1="613.5" y1="127.6" x2="613.5" y2="175.9" stroke="#16a34a" stroke-width="1"/><rect x="610.7" y="131.6" width="5.4" height="36.6" fill="#16a34a" opacity="0.82" rx="1"/>
<line x1="622.3" y1="131.6" x2="622.3" y2="150.5" stroke="#dc2626" stroke-width="1"/><rect x="619.6" y="131.6" width="5.4" height="15.7" fill="#dc2626" opacity="0.82" rx="1"/>
<line x1="631.2" y1="141.9" x2="631.2" y2="164.9" stroke="#dc2626" stroke-width="1"/><rect x="628.5" y="147.3" width="5.4" height="15.9" fill="#dc2626" opacity="0.82" rx="1"/>
<line x1="640.1" y1="155.0" x2="640.1" y2="177.4" stroke="#dc2626" stroke-width="1"/><rect x="637.4" y="163.2" width="5.4" height="13.3" fill="#dc2626" opacity="0.82" rx="1"/>
<line x1="649.0" y1="174.2" x2="649.0" y2="186.0" stroke="#dc2626" stroke-width="1"/><rect x="646.2" y="176.5" width="5.4" height="7.0" fill="#dc2626" opacity="0.82" rx="1"/>
<line x1="657.8" y1="159.7" x2="657.8" y2="184.2" stroke="#16a34a" stroke-width="1"/><rect x="655.1" y="162.8" width="5.4" height="20.7" fill="#16a34a" opacity="0.82" rx="1"/>
<line x1="666.7" y1="107.9" x2="666.7" y2="171.1" stroke="#16a34a" stroke-width="1"/><rect x="664.0" y="124.3" width="5.4" height="38.5" fill="#16a34a" opacity="0.82" rx="1"/>
<line x1="675.6" y1="114.6" x2="675.6" y2="132.3" stroke="#16a34a" stroke-width="1"/><rect x="672.9" y="119.8" width="5.4" height="4.5" fill="#16a34a" opacity="0.82" rx="1"/>
<line x1="684.5" y1="112.5" x2="684.5" y2="127.7" stroke="#16a34a" stroke-width="1"/><rect x="681.8" y="114.6" width="5.4" height="5.2" fill="#16a34a" opacity="0.82" rx="1"/>
<line x1="693.3" y1="99.7" x2="693.3" y2="127.2" stroke="#16a34a" stroke-width="1"/><rect x="690.6" y="104.4" width="5.4" height="10.2" fill="#16a34a" opacity="0.82" rx="1"/>
<line x1="702.2" y1="71.8" x2="702.2" y2="106.5" stroke="#16a34a" stroke-width="1"/><rect x="699.5" y="81.2" width="5.4" height="23.2" fill="#16a34a" opacity="0.82" rx="1"/>
<line x1="711.1" y1="66.0" x2="711.1" y2="112.4" stroke="#dc2626" stroke-width="1"/><rect x="708.4" y="81.2" width="5.4" height="13.9" fill="#dc2626" opacity="0.82" rx="1"/>
<line x1="720.0" y1="85.2" x2="720.0" y2="110.6" stroke="#dc2626" stroke-width="1"/><rect x="717.3" y="95.2" width="5.4" height="4.9" fill="#dc2626" opacity="0.82" rx="1"/>
<line x1="728.9" y1="90.3" x2="728.9" y2="127.0" stroke="#16a34a" stroke-width="1"/><rect x="726.1" y="96.5" width="5.4" height="3.6" fill="#16a34a" opacity="0.82" rx="1"/>
<line x1="737.7" y1="82.0" x2="737.7" y2="99.6" stroke="#dc2626" stroke-width="1"/><rect x="735.0" y="96.5" width="5.4" height="1.2" fill="#dc2626" opacity="0.82" rx="1"/>
<line x1="746.6" y1="85.0" x2="746.6" y2="97.2" stroke="#16a34a" stroke-width="1"/><rect x="743.9" y="91.5" width="5.4" height="5.2" fill="#16a34a" opacity="0.82" rx="1"/>
<line x1="755.5" y1="91.1" x2="755.5" y2="111.3" stroke="#dc2626" stroke-width="1"/><rect x="752.8" y="91.5" width="5.4" height="16.1" fill="#dc2626" opacity="0.82" rx="1"/>
<line x1="764.4" y1="100.5" x2="764.4" y2="115.8" stroke="#16a34a" stroke-width="1"/><rect x="761.6" y="101.7" width="5.4" height="5.9" fill="#16a34a" opacity="0.82" rx="1"/>
<line x1="773.2" y1="97.2" x2="773.2" y2="104.9" stroke="#16a34a" stroke-width="1"/><rect x="770.5" y="100.8" width="5.4" height="1.2" fill="#16a34a" opacity="0.82" rx="1"/>
<line x1="782.1" y1="100.8" x2="782.1" y2="111.3" stroke="#dc2626" stroke-width="1"/><rect x="779.4" y="100.8" width="5.4" height="7.2" fill="#dc2626" opacity="0.82" rx="1"/>
<line x1="791.0" y1="99.8" x2="791.0" y2="114.4" stroke="#16a34a" stroke-width="1"/><rect x="788.3" y="102.5" width="5.4" height="5.5" fill="#16a34a" opacity="0.82" rx="1"/>
<line x1="799.9" y1="101.5" x2="799.9" y2="120.4" stroke="#dc2626" stroke-width="1"/><rect x="797.1" y="102.5" width="5.4" height="14.7" fill="#dc2626" opacity="0.82" rx="1"/>
<line x1="808.7" y1="91.9" x2="808.7" y2="118.5" stroke="#16a34a" stroke-width="1"/><rect x="806.0" y="101.1" width="5.4" height="16.2" fill="#16a34a" opacity="0.82" rx="1"/>
<line x1="817.6" y1="96.5" x2="817.6" y2="118.0" stroke="#dc2626" stroke-width="1"/><rect x="814.9" y="101.1" width="5.4" height="8.9" fill="#dc2626" opacity="0.82" rx="1"/>
<line x1="826.5" y1="101.5" x2="826.5" y2="116.3" stroke="#dc2626" stroke-width="1"/><rect x="823.8" y="109.9" width="5.4" height="1.2" fill="#dc2626" opacity="0.82" rx="1"/>
<line x1="835.4" y1="104.6" x2="835.4" y2="116.3" stroke="#16a34a" stroke-width="1"/><rect x="832.6" y="109.4" width="5.4" height="1.2" fill="#16a34a" opacity="0.82" rx="1"/>
<line x1="844.2" y1="88.4" x2="844.2" y2="110.4" stroke="#16a34a" stroke-width="1"/><rect x="841.5" y="94.9" width="5.4" height="14.5" fill="#16a34a" opacity="0.82" rx="1"/>
<line x1="853.1" y1="86.3" x2="853.1" y2="100.1" stroke="#16a34a" stroke-width="1"/><rect x="850.4" y="94.5" width="5.4" height="1.2" fill="#16a34a" opacity="0.82" rx="1"/>
<line x1="862.0" y1="93.0" x2="862.0" y2="95.6" stroke="#16a34a" stroke-width="1"/><rect x="859.3" y="93.0" width="5.4" height="1.5" fill="#16a34a" opacity="0.82" rx="1"/>
<line x1="72" y1="115.8" x2="862" y2="115.8" stroke="#16a34a" stroke-width="1.8" stroke-dasharray="6 4" /><rect x="874" y="95.8" width="166" height="23" rx="5" fill="#ffffff" stroke="#16a34a" opacity="0.97"/><text x="881" y="111.8" fill="#16a34a" font-size="15" font-weight="700">日内支撑 61,310</text>
<line x1="72" y1="55.1" x2="862" y2="55.1" stroke="#dc2626" stroke-width="1.8" stroke-dasharray="6 4" /><rect x="874" y="35.1" width="166" height="23" rx="5" fill="#ffffff" stroke="#dc2626" opacity="0.97"/><text x="881" y="51.1" fill="#dc2626" font-size="15" font-weight="700">日内压力 62,370</text>
<line x1="72" y1="93.0" x2="862" y2="93.0" stroke="#111827" stroke-width="1.8" stroke-dasharray="2 2" /><rect x="874" y="73.0" width="166" height="23" rx="5" fill="#ffffff" stroke="#111827" opacity="0.97"/><text x="881" y="89.0" fill="#111827" font-size="15" font-weight="700">现价 61,707</text>
<text x="72" y="396" fill="#16a34a" font-size="14" font-weight="700">日内做多计划</text><rect x="72" y="404" width="790" height="48" rx="6" fill="#f9fafb" stroke="#e5e7eb"/><line x1="94" y1="412" x2="840" y2="412" stroke="#16a34a" stroke-width="3"/><circle cx="132.0" cy="412" r="5" fill="#16a34a"/><text x="132.0" y="434" fill="#374151" font-size="12" text-anchor="middle">入场 止跌/突破回踩</text><circle cx="451.2" cy="412" r="5" fill="#16a34a"/><text x="451.2" y="434" fill="#374151" font-size="12" text-anchor="middle">止损 61,310</text><circle cx="712.0" cy="412" r="5" fill="#16a34a"/><text x="712.0" y="434" fill="#374151" font-size="12" text-anchor="middle">目标一 62,370</text><circle cx="814.0" cy="412" r="5" fill="#16a34a"/><text x="814.0" y="434" fill="#374151" font-size="12" text-anchor="middle">目标二 62,635</text>
<text x="72" y="482" fill="#dc2626" font-size="14" font-weight="700">日内做空计划</text><rect x="72" y="490" width="790" height="48" rx="6" fill="#f9fafb" stroke="#e5e7eb"/><line x1="94" y1="498" x2="840" y2="498" stroke="#dc2626" stroke-width="3"/><circle cx="132.0" cy="498" r="5" fill="#dc2626"/><text x="132.0" y="520" fill="#374151" font-size="12" text-anchor="middle">入场 反弹承压/破位回抽</text><circle cx="451.2" cy="498" r="5" fill="#dc2626"/><text x="451.2" y="520" fill="#374151" font-size="12" text-anchor="middle">止损 62,370</text><circle cx="712.0" cy="498" r="5" fill="#dc2626"/><text x="712.0" y="520" fill="#374151" font-size="12" text-anchor="middle">目标一 61,310</text><circle cx="814.0" cy="498" r="5" fill="#dc2626"/><text x="814.0" y="520" fill="#374151" font-size="12" text-anchor="middle">目标二 61,045</text>
</svg>