<svg xmlns="http://www.w3.org/2000/svg" width="1080" height="560" viewBox="0 0 1080 560">
<rect width="100%" height="100%" fill="#ffffff"/>
<text x="72" y="23" fill="#111827" font-size="21" font-weight="800">HYPE 小时线K线支撑压力图</text>
<text x="862" y="42" fill="#374151" font-size="15" text-anchor="end">最新价 67.33</text>
<line x1="72" y1="34" x2="72" y2="340" stroke="#d1d5db"/>
<line x1="72" y1="340" x2="862" y2="340" stroke="#d1d5db"/>
<line x1="72" y1="340.0" x2="862" y2="340.0" stroke="#f3f4f6"/>
<text x="8" y="345.0" fill="#4b5563" font-size="14">61.03</text>
<line x1="72" y1="263.5" x2="862" y2="263.5" stroke="#f3f4f6"/>
<text x="8" y="268.5" fill="#4b5563" font-size="14">63.24</text>
<line x1="72" y1="187.0" x2="862" y2="187.0" stroke="#f3f4f6"/>
<text x="8" y="192.0" fill="#4b5563" font-size="14">65.45</text>
<line x1="72" y1="110.5" x2="862" y2="110.5" stroke="#f3f4f6"/>
<text x="8" y="115.5" fill="#4b5563" font-size="14">67.66</text>
<line x1="72" y1="34.0" x2="862" y2="34.0" stroke="#f3f4f6"/>
<text x="8" y="39.0" fill="#4b5563" font-size="14">69.87</text>
<line x1="72.0" y1="221.7" x2="72.0" y2="264.7" stroke="#16a34a" stroke-width="1"/><rect x="69.3" y="224.7" width="5.4" height="16.0" fill="#16a34a" opacity="0.82" rx="1"/>
<line x1="80.9" y1="204.8" x2="80.9" y2="247.6" stroke="#16a34a" stroke-width="1"/><rect x="78.2" y="208.0" width="5.4" height="16.5" fill="#16a34a" opacity="0.82" rx="1"/>
<line x1="89.8" y1="193.2" x2="89.8" y2="229.7" stroke="#dc2626" stroke-width="1"/><rect x="87.0" y="208.0" width="5.4" height="5.9" fill="#dc2626" opacity="0.82" rx="1"/>
<line x1="98.6" y1="138.2" x2="98.6" y2="214.2" stroke="#16a34a" stroke-width="1"/><rect x="95.9" y="156.1" width="5.4" height="58.1" fill="#16a34a" opacity="0.82" rx="1"/>
<line x1="107.5" y1="154.0" x2="107.5" y2="181.2" stroke="#dc2626" stroke-width="1"/><rect x="104.8" y="156.1" width="5.4" height="20.1" fill="#dc2626" opacity="0.82" rx="1"/>
<line x1="116.4" y1="129.8" x2="116.4" y2="190.6" stroke="#16a34a" stroke-width="1"/><rect x="113.7" y="137.3" width="5.4" height="38.8" fill="#16a34a" opacity="0.82" rx="1"/>
<line x1="125.3" y1="134.7" x2="125.3" y2="158.5" stroke="#dc2626" stroke-width="1"/><rect x="122.5" y="137.5" width="5.4" height="20.3" fill="#dc2626" opacity="0.82" rx="1"/>
<line x1="134.1" y1="107.8" x2="134.1" y2="160.9" stroke="#16a34a" stroke-width="1"/><rect x="131.4" y="115.5" width="5.4" height="42.3" fill="#16a34a" opacity="0.82" rx="1"/>
<line x1="143.0" y1="107.0" x2="143.0" y2="144.8" stroke="#dc2626" stroke-width="1"/><rect x="140.3" y="115.5" width="5.4" height="20.4" fill="#dc2626" opacity="0.82" rx="1"/>
<line x1="151.9" y1="125.3" x2="151.9" y2="147.5" stroke="#dc2626" stroke-width="1"/><rect x="149.2" y="135.6" width="5.4" height="1.2" fill="#dc2626" opacity="0.82" rx="1"/>
<line x1="160.8" y1="135.7" x2="160.8" y2="179.6" stroke="#dc2626" stroke-width="1"/><rect x="158.0" y="137.3" width="5.4" height="31.0" fill="#dc2626" opacity="0.82" rx="1"/>
<line x1="169.6" y1="150.4" x2="169.6" y2="186.2" stroke="#16a34a" stroke-width="1"/><rect x="166.9" y="155.4" width="5.4" height="12.8" fill="#16a34a" opacity="0.82" rx="1"/>
<line x1="178.5" y1="153.5" x2="178.5" y2="183.4" stroke="#dc2626" stroke-width="1"/><rect x="175.8" y="155.3" width="5.4" height="23.5" fill="#dc2626" opacity="0.82" rx="1"/>
<line x1="187.4" y1="163.9" x2="187.4" y2="179.1" stroke="#16a34a" stroke-width="1"/><rect x="184.7" y="177.8" width="5.4" height="1.2" fill="#16a34a" opacity="0.82" rx="1"/>
<line x1="196.3" y1="152.4" x2="196.3" y2="185.0" stroke="#16a34a" stroke-width="1"/><rect x="193.5" y="161.8" width="5.4" height="16.0" fill="#16a34a" opacity="0.82" rx="1"/>
<line x1="205.1" y1="158.2" x2="205.1" y2="180.0" stroke="#dc2626" stroke-width="1"/><rect x="202.4" y="161.8" width="5.4" height="5.5" fill="#dc2626" opacity="0.82" rx="1"/>
<line x1="214.0" y1="166.9" x2="214.0" y2="190.9" stroke="#dc2626" stroke-width="1"/><rect x="211.3" y="167.2" width="5.4" height="19.4" fill="#dc2626" opacity="0.82" rx="1"/>
<line x1="222.9" y1="178.2" x2="222.9" y2="196.8" stroke="#16a34a" stroke-width="1"/><rect x="220.2" y="180.8" width="5.4" height="6.0" fill="#16a34a" opacity="0.82" rx="1"/>
<line x1="231.8" y1="178.0" x2="231.8" y2="200.6" stroke="#dc2626" stroke-width="1"/><rect x="229.1" y="180.6" width="5.4" height="17.0" fill="#dc2626" opacity="0.82" rx="1"/>
<line x1="240.7" y1="187.9" x2="240.7" y2="203.5" stroke="#16a34a" stroke-width="1"/><rect x="237.9" y="192.5" width="5.4" height="5.2" fill="#16a34a" opacity="0.82" rx="1"/>
<line x1="249.5" y1="160.5" x2="249.5" y2="198.6" stroke="#16a34a" stroke-width="1"/><rect x="246.8" y="165.8" width="5.4" height="26.6" fill="#16a34a" opacity="0.82" rx="1"/>
<line x1="258.4" y1="155.2" x2="258.4" y2="186.5" stroke="#dc2626" stroke-width="1"/><rect x="255.7" y="166.1" width="5.4" height="12.7" fill="#dc2626" opacity="0.82" rx="1"/>
<line x1="267.3" y1="178.8" x2="267.3" y2="222.8" stroke="#dc2626" stroke-width="1"/><rect x="264.6" y="178.8" width="5.4" height="40.5" fill="#dc2626" opacity="0.82" rx="1"/>
<line x1="276.2" y1="185.2" x2="276.2" y2="224.4" stroke="#16a34a" stroke-width="1"/><rect x="273.4" y="195.4" width="5.4" height="23.9" fill="#16a34a" opacity="0.82" rx="1"/>
<line x1="285.0" y1="168.6" x2="285.0" y2="214.4" stroke="#dc2626" stroke-width="1"/><rect x="282.3" y="194.8" width="5.4" height="15.7" fill="#dc2626" opacity="0.82" rx="1"/>
<line x1="293.9" y1="188.3" x2="293.9" y2="220.8" stroke="#16a34a" stroke-width="1"/><rect x="291.2" y="202.6" width="5.4" height="8.0" fill="#16a34a" opacity="0.82" rx="1"/>
<line x1="302.8" y1="192.8" x2="302.8" y2="233.5" stroke="#dc2626" stroke-width="1"/><rect x="300.1" y="202.6" width="5.4" height="12.2" fill="#dc2626" opacity="0.82" rx="1"/>
<line x1="311.7" y1="197.2" x2="311.7" y2="221.4" stroke="#dc2626" stroke-width="1"/><rect x="308.9" y="214.9" width="5.4" height="3.7" fill="#dc2626" opacity="0.82" rx="1"/>
<line x1="320.5" y1="195.5" x2="320.5" y2="222.1" stroke="#16a34a" stroke-width="1"/><rect x="317.8" y="203.6" width="5.4" height="14.9" fill="#16a34a" opacity="0.82" rx="1"/>
<line x1="329.4" y1="183.5" x2="329.4" y2="211.4" stroke="#16a34a" stroke-width="1"/><rect x="326.7" y="186.3" width="5.4" height="17.3" fill="#16a34a" opacity="0.82" rx="1"/>
<line x1="338.3" y1="177.7" x2="338.3" y2="215.2" stroke="#dc2626" stroke-width="1"/><rect x="335.6" y="186.2" width="5.4" height="28.3" fill="#dc2626" opacity="0.82" rx="1"/>
<line x1="347.2" y1="206.6" x2="347.2" y2="233.5" stroke="#16a34a" stroke-width="1"/><rect x="344.4" y="214.0" width="5.4" height="1.2" fill="#16a34a" opacity="0.82" rx="1"/>
<line x1="356.0" y1="207.2" x2="356.0" y2="226.8" stroke="#dc2626" stroke-width="1"/><rect x="353.3" y="213.7" width="5.4" height="2.5" fill="#dc2626" opacity="0.82" rx="1"/>
<line x1="364.9" y1="200.3" x2="364.9" y2="220.1" stroke="#16a34a" stroke-width="1"/><rect x="362.2" y="202.1" width="5.4" height="14.1" fill="#16a34a" opacity="0.82" rx="1"/>
<line x1="373.8" y1="197.2" x2="373.8" y2="232.6" stroke="#dc2626" stroke-width="1"/><rect x="371.1" y="201.7" width="5.4" height="27.5" fill="#dc2626" opacity="0.82" rx="1"/>
<line x1="382.7" y1="212.2" x2="382.7" y2="276.4" stroke="#16a34a" stroke-width="1"/><rect x="380.0" y="218.3" width="5.4" height="11.3" fill="#16a34a" opacity="0.82" rx="1"/>
<line x1="391.6" y1="183.6" x2="391.6" y2="220.6" stroke="#16a34a" stroke-width="1"/><rect x="388.8" y="188.5" width="5.4" height="29.8" fill="#16a34a" opacity="0.82" rx="1"/>
<line x1="400.4" y1="175.6" x2="400.4" y2="200.6" stroke="#16a34a" stroke-width="1"/><rect x="397.7" y="182.6" width="5.4" height="5.7" fill="#16a34a" opacity="0.82" rx="1"/>
<line x1="409.3" y1="168.3" x2="409.3" y2="190.3" stroke="#16a34a" stroke-width="1"/><rect x="406.6" y="172.8" width="5.4" height="9.8" fill="#16a34a" opacity="0.82" rx="1"/>
<line x1="418.2" y1="168.0" x2="418.2" y2="199.4" stroke="#dc2626" stroke-width="1"/><rect x="415.5" y="173.1" width="5.4" height="23.3" fill="#dc2626" opacity="0.82" rx="1"/>
<line x1="427.1" y1="195.2" x2="427.1" y2="221.1" stroke="#dc2626" stroke-width="1"/><rect x="424.3" y="196.2" width="5.4" height="11.1" fill="#dc2626" opacity="0.82" rx="1"/>
<line x1="435.9" y1="205.6" x2="435.9" y2="236.5" stroke="#dc2626" stroke-width="1"/><rect x="433.2" y="207.2" width="5.4" height="14.4" fill="#dc2626" opacity="0.82" rx="1"/>
<line x1="444.8" y1="221.7" x2="444.8" y2="265.0" stroke="#dc2626" stroke-width="1"/><rect x="442.1" y="221.7" width="5.4" height="17.0" fill="#dc2626" opacity="0.82" rx="1"/>
<line x1="453.7" y1="229.9" x2="453.7" y2="245.9" stroke="#16a34a" stroke-width="1"/><rect x="451.0" y="237.4" width="5.4" height="1.4" fill="#16a34a" opacity="0.82" rx="1"/>
<line x1="462.6" y1="236.4" x2="462.6" y2="294.1" stroke="#dc2626" stroke-width="1"/><rect x="459.8" y="237.0" width="5.4" height="45.5" fill="#dc2626" opacity="0.82" rx="1"/>
<line x1="471.4" y1="272.1" x2="471.4" y2="295.6" stroke="#dc2626" stroke-width="1"/><rect x="468.7" y="282.4" width="5.4" height="2.8" fill="#dc2626" opacity="0.82" rx="1"/>
<line x1="480.3" y1="278.1" x2="480.3" y2="295.0" stroke="#dc2626" stroke-width="1"/><rect x="477.6" y="285.2" width="5.4" height="4.7" fill="#dc2626" opacity="0.82" rx="1"/>
<line x1="489.2" y1="234.5" x2="489.2" y2="290.2" stroke="#16a34a" stroke-width="1"/><rect x="486.5" y="235.4" width="5.4" height="54.8" fill="#16a34a" opacity="0.82" rx="1"/>
<line x1="498.1" y1="210.6" x2="498.1" y2="266.4" stroke="#dc2626" stroke-width="1"/><rect x="495.3" y="235.1" width="5.4" height="15.3" fill="#dc2626" opacity="0.82" rx="1"/>
<line x1="506.9" y1="208.6" x2="506.9" y2="252.9" stroke="#16a34a" stroke-width="1"/><rect x="504.2" y="216.0" width="5.4" height="34.3" fill="#16a34a" opacity="0.82" rx="1"/>
<line x1="515.8" y1="200.8" x2="515.8" y2="225.8" stroke="#dc2626" stroke-width="1"/><rect x="513.1" y="216.0" width="5.4" height="7.3" fill="#dc2626" opacity="0.82" rx="1"/>
<line x1="524.7" y1="215.3" x2="524.7" y2="236.8" stroke="#dc2626" stroke-width="1"/><rect x="522.0" y="223.1" width="5.4" height="1.4" fill="#dc2626" opacity="0.82" rx="1"/>
<line x1="533.6" y1="210.1" x2="533.6" y2="249.6" stroke="#dc2626" stroke-width="1"/><rect x="530.9" y="224.2" width="5.4" height="18.7" fill="#dc2626" opacity="0.82" rx="1"/>
<line x1="542.4" y1="232.5" x2="542.4" y2="277.7" stroke="#dc2626" stroke-width="1"/><rect x="539.7" y="243.3" width="5.4" height="30.1" fill="#dc2626" opacity="0.82" rx="1"/>
<line x1="551.3" y1="262.2" x2="551.3" y2="311.4" stroke="#dc2626" stroke-width="1"/><rect x="548.6" y="273.8" width="5.4" height="25.2" fill="#dc2626" opacity="0.82" rx="1"/>
<line x1="560.2" y1="244.6" x2="560.2" y2="312.3" stroke="#16a34a" stroke-width="1"/><rect x="557.5" y="258.0" width="5.4" height="41.0" fill="#16a34a" opacity="0.82" rx="1"/>
<line x1="569.1" y1="232.1" x2="569.1" y2="289.2" stroke="#dc2626" stroke-width="1"/><rect x="566.4" y="257.2" width="5.4" height="4.3" fill="#dc2626" opacity="0.82" rx="1"/>
<line x1="578.0" y1="261.4" x2="578.0" y2="296.0" stroke="#dc2626" stroke-width="1"/><rect x="575.2" y="261.4" width="5.4" height="33.2" fill="#dc2626" opacity="0.82" rx="1"/>
<line x1="586.8" y1="286.3" x2="586.8" y2="318.9" stroke="#dc2626" stroke-width="1"/><rect x="584.1" y="294.5" width="5.4" height="3.4" fill="#dc2626" opacity="0.82" rx="1"/>
<line x1="595.7" y1="266.3" x2="595.7" y2="301.1" stroke="#16a34a" stroke-width="1"/><rect x="593.0" y="279.1" width="5.4" height="18.8" fill="#16a34a" opacity="0.82" rx="1"/>
<line x1="604.6" y1="267.4" x2="604.6" y2="292.5" stroke="#16a34a" stroke-width="1"/><rect x="601.9" y="270.8" width="5.4" height="8.3" fill="#16a34a" opacity="0.82" rx="1"/>
<line x1="613.5" y1="248.5" x2="613.5" y2="280.4" stroke="#16a34a" stroke-width="1"/><rect x="610.7" y="250.9" width="5.4" height="19.9" fill="#16a34a" opacity="0.82" rx="1"/>
<line x1="622.3" y1="243.6" x2="622.3" y2="263.7" stroke="#16a34a" stroke-width="1"/><rect x="619.6" y="247.6" width="5.4" height="3.2" fill="#16a34a" opacity="0.82" rx="1"/>
<line x1="631.2" y1="244.4" x2="631.2" y2="261.0" stroke="#dc2626" stroke-width="1"/><rect x="628.5" y="247.7" width="5.4" height="11.5" fill="#dc2626" opacity="0.82" rx="1"/>
<line x1="640.1" y1="244.5" x2="640.1" y2="274.2" stroke="#dc2626" stroke-width="1"/><rect x="637.4" y="259.0" width="5.4" height="5.3" fill="#dc2626" opacity="0.82" rx="1"/>
<line x1="649.0" y1="258.1" x2="649.0" y2="276.6" stroke="#dc2626" stroke-width="1"/><rect x="646.2" y="264.3" width="5.4" height="3.4" fill="#dc2626" opacity="0.82" rx="1"/>
<line x1="657.8" y1="251.1" x2="657.8" y2="271.9" stroke="#16a34a" stroke-width="1"/><rect x="655.1" y="252.9" width="5.4" height="15.6" fill="#16a34a" opacity="0.82" rx="1"/>
<line x1="666.7" y1="233.3" x2="666.7" y2="258.3" stroke="#16a34a" stroke-width="1"/><rect x="664.0" y="240.7" width="5.4" height="12.1" fill="#16a34a" opacity="0.82" rx="1"/>
<line x1="675.6" y1="223.9" x2="675.6" y2="246.0" stroke="#16a34a" stroke-width="1"/><rect x="672.9" y="233.2" width="5.4" height="7.5" fill="#16a34a" opacity="0.82" rx="1"/>
<line x1="684.5" y1="192.1" x2="684.5" y2="234.1" stroke="#16a34a" stroke-width="1"/><rect x="681.8" y="199.4" width="5.4" height="33.6" fill="#16a34a" opacity="0.82" rx="1"/>
<line x1="693.3" y1="183.2" x2="693.3" y2="212.1" stroke="#16a34a" stroke-width="1"/><rect x="690.6" y="198.2" width="5.4" height="1.2" fill="#16a34a" opacity="0.82" rx="1"/>
<line x1="702.2" y1="160.8" x2="702.2" y2="200.8" stroke="#16a34a" stroke-width="1"/><rect x="699.5" y="171.2" width="5.4" height="26.9" fill="#16a34a" opacity="0.82" rx="1"/>
<line x1="711.1" y1="152.2" x2="711.1" y2="201.6" stroke="#dc2626" stroke-width="1"/><rect x="708.4" y="171.0" width="5.4" height="12.4" fill="#dc2626" opacity="0.82" rx="1"/>
<line x1="720.0" y1="179.6" x2="720.0" y2="206.1" stroke="#dc2626" stroke-width="1"/><rect x="717.3" y="183.3" width="5.4" height="6.9" fill="#dc2626" opacity="0.82" rx="1"/>
<line x1="728.9" y1="174.7" x2="728.9" y2="201.9" stroke="#16a34a" stroke-width="1"/><rect x="726.1" y="181.0" width="5.4" height="9.0" fill="#16a34a" opacity="0.82" rx="1"/>
<line x1="737.7" y1="160.3" x2="737.7" y2="187.3" stroke="#16a34a" stroke-width="1"/><rect x="735.0" y="170.7" width="5.4" height="10.2" fill="#16a34a" opacity="0.82" rx="1"/>
<line x1="746.6" y1="128.4" x2="746.6" y2="170.9" stroke="#16a34a" stroke-width="1"/><rect x="743.9" y="140.5" width="5.4" height="30.2" fill="#16a34a" opacity="0.82" rx="1"/>
<line x1="755.5" y1="136.0" x2="755.5" y2="163.2" stroke="#dc2626" stroke-width="1"/><rect x="752.8" y="140.5" width="5.4" height="20.5" fill="#dc2626" opacity="0.82" rx="1"/>
<line x1="764.4" y1="152.1" x2="764.4" y2="164.0" stroke="#16a34a" stroke-width="1"/><rect x="761.6" y="158.2" width="5.4" height="2.4" fill="#16a34a" opacity="0.82" rx="1"/>
<line x1="773.2" y1="156.7" x2="773.2" y2="181.8" stroke="#dc2626" stroke-width="1"/><rect x="770.5" y="158.2" width="5.4" height="12.9" fill="#dc2626" opacity="0.82" rx="1"/>
<line x1="782.1" y1="166.1" x2="782.1" y2="188.4" stroke="#dc2626" stroke-width="1"/><rect x="779.4" y="171.1" width="5.4" height="3.2" fill="#dc2626" opacity="0.82" rx="1"/>
<line x1="791.0" y1="134.3" x2="791.0" y2="180.1" stroke="#16a34a" stroke-width="1"/><rect x="788.3" y="136.9" width="5.4" height="37.4" fill="#16a34a" opacity="0.82" rx="1"/>
<line x1="799.9" y1="134.0" x2="799.9" y2="173.4" stroke="#dc2626" stroke-width="1"/><rect x="797.1" y="137.2" width="5.4" height="30.4" fill="#dc2626" opacity="0.82" rx="1"/>
<line x1="808.7" y1="132.3" x2="808.7" y2="167.9" stroke="#16a34a" stroke-width="1"/><rect x="806.0" y="139.5" width="5.4" height="28.1" fill="#16a34a" opacity="0.82" rx="1"/>
<line x1="817.6" y1="131.9" x2="817.6" y2="154.5" stroke="#dc2626" stroke-width="1"/><rect x="814.9" y="139.5" width="5.4" height="5.0" fill="#dc2626" opacity="0.82" rx="1"/>
<line x1="826.5" y1="140.4" x2="826.5" y2="157.6" stroke="#dc2626" stroke-width="1"/><rect x="823.8" y="144.4" width="5.4" height="1.2" fill="#dc2626" opacity="0.82" rx="1"/>
<line x1="835.4" y1="143.3" x2="835.4" y2="159.6" stroke="#dc2626" stroke-width="1"/><rect x="832.6" y="144.5" width="5.4" height="4.6" fill="#dc2626" opacity="0.82" rx="1"/>
<line x1="844.2" y1="107.9" x2="844.2" y2="150.5" stroke="#16a34a" stroke-width="1"/><rect x="841.5" y="123.3" width="5.4" height="25.8" fill="#16a34a" opacity="0.82" rx="1"/>
<line x1="853.1" y1="114.4" x2="853.1" y2="136.4" stroke="#dc2626" stroke-width="1"/><rect x="850.4" y="123.3" width="5.4" height="2.7" fill="#dc2626" opacity="0.82" rx="1"/>
<line x1="862.0" y1="122.1" x2="862.0" y2="126.1" stroke="#16a34a" stroke-width="1"/><rect x="859.3" y="122.1" width="5.4" height="4.0" fill="#16a34a" opacity="0.82" rx="1"/>
<line x1="72" y1="162.2" x2="862" y2="162.2" stroke="#16a34a" stroke-width="1.8" stroke-dasharray="6 4" /><rect x="874" y="142.2" width="166" height="23" rx="5" fill="#ffffff" stroke="#16a34a" opacity="0.97"/><text x="881" y="158.2" fill="#16a34a" font-size="15" font-weight="700">日内支撑 66.17</text>
<line x1="72" y1="55.1" x2="862" y2="55.1" stroke="#dc2626" stroke-width="1.8" stroke-dasharray="6 4" /><rect x="874" y="35.1" width="166" height="23" rx="5" fill="#ffffff" stroke="#dc2626" opacity="0.97"/><text x="881" y="51.1" fill="#dc2626" font-size="15" font-weight="700">日内压力 69.26</text>
<line x1="72" y1="122.1" x2="862" y2="122.1" stroke="#111827" stroke-width="1.8" stroke-dasharray="2 2" /><rect x="874" y="102.1" width="166" height="23" rx="5" fill="#ffffff" stroke="#111827" opacity="0.97"/><text x="881" y="118.1" fill="#111827" font-size="15" font-weight="700">现价 67.33</text>
<text x="72" y="396" fill="#16a34a" font-size="14" font-weight="700">日内做多计划</text><rect x="72" y="404" width="790" height="48" rx="6" fill="#f9fafb" stroke="#e5e7eb"/><line x1="94" y1="412" x2="840" y2="412" stroke="#16a34a" stroke-width="3"/><circle cx="132.0" cy="412" r="5" fill="#16a34a"/><text x="132.0" y="434" fill="#374151" font-size="12" text-anchor="middle">入场 止跌/突破回踩</text><circle cx="451.2" cy="412" r="5" fill="#16a34a"/><text x="451.2" y="434" fill="#374151" font-size="12" text-anchor="middle">止损 66.17</text><circle cx="712.0" cy="412" r="5" fill="#16a34a"/><text x="712.0" y="434" fill="#374151" font-size="12" text-anchor="middle">目标一 69.26</text><circle cx="814.0" cy="412" r="5" fill="#16a34a"/><text x="814.0" y="434" fill="#374151" font-size="12" text-anchor="middle">目标二 70.03</text>
<text x="72" y="482" fill="#dc2626" font-size="14" font-weight="700">日内做空计划</text><rect x="72" y="490" width="790" height="48" rx="6" fill="#f9fafb" stroke="#e5e7eb"/><line x1="94" y1="498" x2="840" y2="498" stroke="#dc2626" stroke-width="3"/><circle cx="132.0" cy="498" r="5" fill="#dc2626"/><text x="132.0" y="520" fill="#374151" font-size="12" text-anchor="middle">入场 反弹承压/破位回抽</text><circle cx="451.2" cy="498" r="5" fill="#dc2626"/><text x="451.2" y="520" fill="#374151" font-size="12" text-anchor="middle">止损 69.26</text><circle cx="712.0" cy="498" r="5" fill="#dc2626"/><text x="712.0" y="520" fill="#374151" font-size="12" text-anchor="middle">目标一 66.17</text><circle cx="814.0" cy="498" r="5" fill="#dc2626"/><text x="814.0" y="520" fill="#374151" font-size="12" text-anchor="middle">目标二 65.39</text>
</svg>