<svg xmlns="http://www.w3.org/2000/svg" width="1080" height="560" viewBox="0 0 1080 560">
<rect width="100%" height="100%" fill="#ffffff"/>
<text x="72" y="23" fill="#111827" font-size="21" font-weight="800">DRAM 小时线K线支撑压力图</text>
<text x="862" y="42" fill="#374151" font-size="15" text-anchor="end">最新价 80.09</text>
<line x1="72" y1="34" x2="72" y2="340" stroke="#d1d5db"/>
<line x1="72" y1="340" x2="862" y2="340" stroke="#d1d5db"/>
<line x1="72" y1="340.0" x2="862" y2="340.0" stroke="#f3f4f6"/>
<text x="8" y="345.0" fill="#4b5563" font-size="14">68.79</text>
<line x1="72" y1="263.5" x2="862" y2="263.5" stroke="#f3f4f6"/>
<text x="8" y="268.5" fill="#4b5563" font-size="14">72.21</text>
<line x1="72" y1="187.0" x2="862" y2="187.0" stroke="#f3f4f6"/>
<text x="8" y="192.0" fill="#4b5563" font-size="14">75.63</text>
<line x1="72" y1="110.5" x2="862" y2="110.5" stroke="#f3f4f6"/>
<text x="8" y="115.5" fill="#4b5563" font-size="14">79.06</text>
<line x1="72" y1="34.0" x2="862" y2="34.0" stroke="#f3f4f6"/>
<text x="8" y="39.0" fill="#4b5563" font-size="14">82.48</text>
<line x1="72.0" y1="263.0" x2="72.0" y2="271.8" stroke="#16a34a" stroke-width="1"/><rect x="69.3" y="267.3" width="5.4" height="2.7" fill="#16a34a" opacity="0.82" rx="1"/>
<line x1="80.9" y1="262.4" x2="80.9" y2="287.4" stroke="#dc2626" stroke-width="1"/><rect x="78.2" y="267.3" width="5.4" height="12.1" fill="#dc2626" opacity="0.82" rx="1"/>
<line x1="89.8" y1="273.8" x2="89.8" y2="288.3" stroke="#dc2626" stroke-width="1"/><rect x="87.0" y="279.1" width="5.4" height="4.5" fill="#dc2626" opacity="0.82" rx="1"/>
<line x1="98.6" y1="282.7" x2="98.6" y2="293.9" stroke="#dc2626" stroke-width="1"/><rect x="95.9" y="283.8" width="5.4" height="4.5" fill="#dc2626" opacity="0.82" rx="1"/>
<line x1="107.5" y1="282.5" x2="107.5" y2="304.2" stroke="#dc2626" stroke-width="1"/><rect x="104.8" y="288.1" width="5.4" height="10.5" fill="#dc2626" opacity="0.82" rx="1"/>
<line x1="116.4" y1="276.2" x2="116.4" y2="298.6" stroke="#16a34a" stroke-width="1"/><rect x="113.7" y="282.5" width="5.4" height="16.1" fill="#16a34a" opacity="0.82" rx="1"/>
<line x1="125.3" y1="274.2" x2="125.3" y2="318.0" stroke="#dc2626" stroke-width="1"/><rect x="122.5" y="282.5" width="5.4" height="34.4" fill="#dc2626" opacity="0.82" rx="1"/>
<line x1="134.1" y1="283.6" x2="134.1" y2="318.9" stroke="#16a34a" stroke-width="1"/><rect x="131.4" y="301.7" width="5.4" height="15.2" fill="#16a34a" opacity="0.82" rx="1"/>
<line x1="143.0" y1="268.4" x2="143.0" y2="303.0" stroke="#16a34a" stroke-width="1"/><rect x="140.3" y="268.9" width="5.4" height="32.2" fill="#16a34a" opacity="0.82" rx="1"/>
<line x1="151.9" y1="263.3" x2="151.9" y2="276.2" stroke="#dc2626" stroke-width="1"/><rect x="149.2" y="268.9" width="5.4" height="2.5" fill="#dc2626" opacity="0.82" rx="1"/>
<line x1="160.8" y1="256.6" x2="160.8" y2="279.4" stroke="#16a34a" stroke-width="1"/><rect x="158.0" y="257.5" width="5.4" height="13.9" fill="#16a34a" opacity="0.82" rx="1"/>
<line x1="169.6" y1="239.4" x2="169.6" y2="308.0" stroke="#dc2626" stroke-width="1"/><rect x="166.9" y="257.2" width="5.4" height="9.2" fill="#dc2626" opacity="0.82" rx="1"/>
<line x1="178.5" y1="252.1" x2="178.5" y2="318.0" stroke="#dc2626" stroke-width="1"/><rect x="175.8" y="266.2" width="5.4" height="48.9" fill="#dc2626" opacity="0.82" rx="1"/>
<line x1="187.4" y1="289.0" x2="187.4" y2="315.3" stroke="#16a34a" stroke-width="1"/><rect x="184.7" y="296.1" width="5.4" height="19.0" fill="#16a34a" opacity="0.82" rx="1"/>
<line x1="196.3" y1="279.1" x2="196.3" y2="296.6" stroke="#16a34a" stroke-width="1"/><rect x="193.5" y="287.8" width="5.4" height="8.5" fill="#16a34a" opacity="0.82" rx="1"/>
<line x1="205.1" y1="268.2" x2="205.1" y2="299.7" stroke="#16a34a" stroke-width="1"/><rect x="202.4" y="270.9" width="5.4" height="17.0" fill="#16a34a" opacity="0.82" rx="1"/>
<line x1="214.0" y1="251.0" x2="214.0" y2="273.3" stroke="#16a34a" stroke-width="1"/><rect x="211.3" y="257.7" width="5.4" height="13.0" fill="#16a34a" opacity="0.82" rx="1"/>
<line x1="222.9" y1="231.3" x2="222.9" y2="263.3" stroke="#16a34a" stroke-width="1"/><rect x="220.2" y="247.2" width="5.4" height="10.1" fill="#16a34a" opacity="0.82" rx="1"/>
<line x1="231.8" y1="236.9" x2="231.8" y2="248.1" stroke="#16a34a" stroke-width="1"/><rect x="229.1" y="245.6" width="5.4" height="2.2" fill="#16a34a" opacity="0.82" rx="1"/>
<line x1="240.7" y1="237.1" x2="240.7" y2="247.9" stroke="#16a34a" stroke-width="1"/><rect x="237.9" y="238.7" width="5.4" height="6.7" fill="#16a34a" opacity="0.82" rx="1"/>
<line x1="249.5" y1="213.7" x2="249.5" y2="239.6" stroke="#16a34a" stroke-width="1"/><rect x="246.8" y="218.4" width="5.4" height="20.3" fill="#16a34a" opacity="0.82" rx="1"/>
<line x1="258.4" y1="207.2" x2="258.4" y2="231.3" stroke="#dc2626" stroke-width="1"/><rect x="255.7" y="218.4" width="5.4" height="7.4" fill="#dc2626" opacity="0.82" rx="1"/>
<line x1="267.3" y1="198.9" x2="267.3" y2="229.8" stroke="#16a34a" stroke-width="1"/><rect x="264.6" y="203.6" width="5.4" height="21.9" fill="#16a34a" opacity="0.82" rx="1"/>
<line x1="276.2" y1="203.8" x2="276.2" y2="217.7" stroke="#dc2626" stroke-width="1"/><rect x="273.4" y="203.8" width="5.4" height="8.7" fill="#dc2626" opacity="0.82" rx="1"/>
<line x1="285.0" y1="210.1" x2="285.0" y2="219.5" stroke="#16a34a" stroke-width="1"/><rect x="282.3" y="210.5" width="5.4" height="1.6" fill="#16a34a" opacity="0.82" rx="1"/>
<line x1="293.9" y1="201.6" x2="293.9" y2="223.1" stroke="#dc2626" stroke-width="1"/><rect x="291.2" y="210.5" width="5.4" height="11.8" fill="#dc2626" opacity="0.82" rx="1"/>
<line x1="302.8" y1="210.1" x2="302.8" y2="224.0" stroke="#16a34a" stroke-width="1"/><rect x="300.1" y="216.4" width="5.4" height="6.3" fill="#16a34a" opacity="0.82" rx="1"/>
<line x1="311.7" y1="213.2" x2="311.7" y2="222.2" stroke="#dc2626" stroke-width="1"/><rect x="308.9" y="216.6" width="5.4" height="2.7" fill="#dc2626" opacity="0.82" rx="1"/>
<line x1="320.5" y1="208.1" x2="320.5" y2="222.8" stroke="#16a34a" stroke-width="1"/><rect x="317.8" y="213.5" width="5.4" height="5.8" fill="#16a34a" opacity="0.82" rx="1"/>
<line x1="329.4" y1="199.8" x2="329.4" y2="217.0" stroke="#16a34a" stroke-width="1"/><rect x="326.7" y="201.6" width="5.4" height="11.6" fill="#16a34a" opacity="0.82" rx="1"/>
<line x1="338.3" y1="175.9" x2="338.3" y2="207.9" stroke="#16a34a" stroke-width="1"/><rect x="335.6" y="186.4" width="5.4" height="15.4" fill="#16a34a" opacity="0.82" rx="1"/>
<line x1="347.2" y1="146.4" x2="347.2" y2="187.3" stroke="#16a34a" stroke-width="1"/><rect x="344.4" y="152.0" width="5.4" height="34.6" fill="#16a34a" opacity="0.82" rx="1"/>
<line x1="356.0" y1="143.3" x2="356.0" y2="169.0" stroke="#dc2626" stroke-width="1"/><rect x="353.3" y="152.0" width="5.4" height="9.4" fill="#dc2626" opacity="0.82" rx="1"/>
<line x1="364.9" y1="151.3" x2="364.9" y2="163.4" stroke="#16a34a" stroke-width="1"/><rect x="362.2" y="156.0" width="5.4" height="5.4" fill="#16a34a" opacity="0.82" rx="1"/>
<line x1="373.8" y1="147.1" x2="373.8" y2="161.0" stroke="#16a34a" stroke-width="1"/><rect x="371.1" y="152.5" width="5.4" height="3.4" fill="#16a34a" opacity="0.82" rx="1"/>
<line x1="382.7" y1="139.7" x2="382.7" y2="152.5" stroke="#16a34a" stroke-width="1"/><rect x="380.0" y="148.0" width="5.4" height="4.5" fill="#16a34a" opacity="0.82" rx="1"/>
<line x1="391.6" y1="137.9" x2="391.6" y2="159.8" stroke="#dc2626" stroke-width="1"/><rect x="388.8" y="147.8" width="5.4" height="12.1" fill="#dc2626" opacity="0.82" rx="1"/>
<line x1="400.4" y1="146.4" x2="400.4" y2="161.4" stroke="#16a34a" stroke-width="1"/><rect x="397.7" y="146.7" width="5.4" height="13.2" fill="#16a34a" opacity="0.82" rx="1"/>
<line x1="409.3" y1="133.3" x2="409.3" y2="148.4" stroke="#16a34a" stroke-width="1"/><rect x="406.6" y="133.7" width="5.4" height="12.7" fill="#16a34a" opacity="0.82" rx="1"/>
<line x1="418.2" y1="122.1" x2="418.2" y2="139.3" stroke="#16a34a" stroke-width="1"/><rect x="415.5" y="133.0" width="5.4" height="1.2" fill="#16a34a" opacity="0.82" rx="1"/>
<line x1="427.1" y1="126.3" x2="427.1" y2="140.8" stroke="#16a34a" stroke-width="1"/><rect x="424.3" y="128.8" width="5.4" height="4.0" fill="#16a34a" opacity="0.82" rx="1"/>
<line x1="435.9" y1="118.7" x2="435.9" y2="158.7" stroke="#dc2626" stroke-width="1"/><rect x="433.2" y="129.0" width="5.4" height="11.4" fill="#dc2626" opacity="0.82" rx="1"/>
<line x1="444.8" y1="121.4" x2="444.8" y2="152.2" stroke="#dc2626" stroke-width="1"/><rect x="442.1" y="141.1" width="5.4" height="7.4" fill="#dc2626" opacity="0.82" rx="1"/>
<line x1="453.7" y1="142.4" x2="453.7" y2="161.2" stroke="#16a34a" stroke-width="1"/><rect x="451.0" y="145.8" width="5.4" height="2.7" fill="#16a34a" opacity="0.82" rx="1"/>
<line x1="462.6" y1="140.8" x2="462.6" y2="167.2" stroke="#dc2626" stroke-width="1"/><rect x="459.8" y="145.8" width="5.4" height="15.9" fill="#dc2626" opacity="0.82" rx="1"/>
<line x1="471.4" y1="150.9" x2="471.4" y2="203.0" stroke="#dc2626" stroke-width="1"/><rect x="468.7" y="161.6" width="5.4" height="31.9" fill="#dc2626" opacity="0.82" rx="1"/>
<line x1="480.3" y1="169.9" x2="480.3" y2="204.5" stroke="#16a34a" stroke-width="1"/><rect x="477.6" y="171.7" width="5.4" height="21.7" fill="#16a34a" opacity="0.82" rx="1"/>
<line x1="489.2" y1="149.3" x2="489.2" y2="172.3" stroke="#16a34a" stroke-width="1"/><rect x="486.5" y="154.3" width="5.4" height="17.4" fill="#16a34a" opacity="0.82" rx="1"/>
<line x1="498.1" y1="140.0" x2="498.1" y2="160.1" stroke="#16a34a" stroke-width="1"/><rect x="495.3" y="144.0" width="5.4" height="10.5" fill="#16a34a" opacity="0.82" rx="1"/>
<line x1="506.9" y1="124.5" x2="506.9" y2="148.9" stroke="#16a34a" stroke-width="1"/><rect x="504.2" y="125.4" width="5.4" height="18.8" fill="#16a34a" opacity="0.82" rx="1"/>
<line x1="515.8" y1="123.6" x2="515.8" y2="165.0" stroke="#dc2626" stroke-width="1"/><rect x="513.1" y="125.4" width="5.4" height="32.6" fill="#dc2626" opacity="0.82" rx="1"/>
<line x1="524.7" y1="157.4" x2="524.7" y2="171.5" stroke="#dc2626" stroke-width="1"/><rect x="522.0" y="158.1" width="5.4" height="8.0" fill="#dc2626" opacity="0.82" rx="1"/>
<line x1="533.6" y1="161.8" x2="533.6" y2="171.7" stroke="#16a34a" stroke-width="1"/><rect x="530.9" y="162.3" width="5.4" height="3.8" fill="#16a34a" opacity="0.82" rx="1"/>
<line x1="542.4" y1="153.1" x2="542.4" y2="178.6" stroke="#16a34a" stroke-width="1"/><rect x="539.7" y="153.8" width="5.4" height="8.0" fill="#16a34a" opacity="0.82" rx="1"/>
<line x1="551.3" y1="144.0" x2="551.3" y2="163.0" stroke="#16a34a" stroke-width="1"/><rect x="548.6" y="152.2" width="5.4" height="1.6" fill="#16a34a" opacity="0.82" rx="1"/>
<line x1="560.2" y1="140.8" x2="560.2" y2="155.1" stroke="#16a34a" stroke-width="1"/><rect x="557.5" y="143.1" width="5.4" height="9.8" fill="#16a34a" opacity="0.82" rx="1"/>
<line x1="569.1" y1="134.4" x2="569.1" y2="148.0" stroke="#16a34a" stroke-width="1"/><rect x="566.4" y="141.3" width="5.4" height="1.3" fill="#16a34a" opacity="0.82" rx="1"/>
<line x1="578.0" y1="130.3" x2="578.0" y2="150.9" stroke="#dc2626" stroke-width="1"/><rect x="575.2" y="140.8" width="5.4" height="7.4" fill="#dc2626" opacity="0.82" rx="1"/>
<line x1="586.8" y1="135.5" x2="586.8" y2="148.7" stroke="#16a34a" stroke-width="1"/><rect x="584.1" y="142.2" width="5.4" height="6.3" fill="#16a34a" opacity="0.82" rx="1"/>
<line x1="595.7" y1="139.7" x2="595.7" y2="153.8" stroke="#dc2626" stroke-width="1"/><rect x="593.0" y="141.5" width="5.4" height="9.8" fill="#dc2626" opacity="0.82" rx="1"/>
<line x1="604.6" y1="149.6" x2="604.6" y2="155.8" stroke="#dc2626" stroke-width="1"/><rect x="601.9" y="151.6" width="5.4" height="2.0" fill="#dc2626" opacity="0.82" rx="1"/>
<line x1="613.5" y1="153.4" x2="613.5" y2="159.6" stroke="#dc2626" stroke-width="1"/><rect x="610.7" y="153.4" width="5.4" height="4.5" fill="#dc2626" opacity="0.82" rx="1"/>
<line x1="622.3" y1="148.9" x2="622.3" y2="159.4" stroke="#16a34a" stroke-width="1"/><rect x="619.6" y="154.0" width="5.4" height="4.2" fill="#16a34a" opacity="0.82" rx="1"/>
<line x1="631.2" y1="137.3" x2="631.2" y2="158.7" stroke="#16a34a" stroke-width="1"/><rect x="628.5" y="137.5" width="5.4" height="16.8" fill="#16a34a" opacity="0.82" rx="1"/>
<line x1="640.1" y1="127.4" x2="640.1" y2="150.2" stroke="#dc2626" stroke-width="1"/><rect x="637.4" y="137.5" width="5.4" height="4.9" fill="#dc2626" opacity="0.82" rx="1"/>
<line x1="649.0" y1="131.0" x2="649.0" y2="146.9" stroke="#16a34a" stroke-width="1"/><rect x="646.2" y="135.9" width="5.4" height="6.9" fill="#16a34a" opacity="0.82" rx="1"/>
<line x1="657.8" y1="127.9" x2="657.8" y2="142.2" stroke="#dc2626" stroke-width="1"/><rect x="655.1" y="135.9" width="5.4" height="1.3" fill="#dc2626" opacity="0.82" rx="1"/>
<line x1="666.7" y1="93.3" x2="666.7" y2="140.0" stroke="#16a34a" stroke-width="1"/><rect x="664.0" y="120.3" width="5.4" height="17.4" fill="#16a34a" opacity="0.82" rx="1"/>
<line x1="675.6" y1="100.9" x2="675.6" y2="121.9" stroke="#16a34a" stroke-width="1"/><rect x="672.9" y="104.4" width="5.4" height="15.6" fill="#16a34a" opacity="0.82" rx="1"/>
<line x1="684.5" y1="93.9" x2="684.5" y2="110.9" stroke="#16a34a" stroke-width="1"/><rect x="681.8" y="96.8" width="5.4" height="7.6" fill="#16a34a" opacity="0.82" rx="1"/>
<line x1="693.3" y1="86.1" x2="693.3" y2="107.1" stroke="#16a34a" stroke-width="1"/><rect x="690.6" y="90.1" width="5.4" height="6.7" fill="#16a34a" opacity="0.82" rx="1"/>
<line x1="702.2" y1="70.0" x2="702.2" y2="90.8" stroke="#16a34a" stroke-width="1"/><rect x="699.5" y="81.4" width="5.4" height="8.9" fill="#16a34a" opacity="0.82" rx="1"/>
<line x1="711.1" y1="76.3" x2="711.1" y2="101.1" stroke="#dc2626" stroke-width="1"/><rect x="708.4" y="81.4" width="5.4" height="3.1" fill="#dc2626" opacity="0.82" rx="1"/>
<line x1="720.0" y1="81.0" x2="720.0" y2="96.6" stroke="#dc2626" stroke-width="1"/><rect x="717.3" y="83.9" width="5.4" height="9.4" fill="#dc2626" opacity="0.82" rx="1"/>
<line x1="728.9" y1="83.2" x2="728.9" y2="98.8" stroke="#16a34a" stroke-width="1"/><rect x="726.1" y="85.7" width="5.4" height="7.6" fill="#16a34a" opacity="0.82" rx="1"/>
<line x1="737.7" y1="83.4" x2="737.7" y2="97.7" stroke="#dc2626" stroke-width="1"/><rect x="735.0" y="85.7" width="5.4" height="7.4" fill="#dc2626" opacity="0.82" rx="1"/>
<line x1="746.6" y1="86.1" x2="746.6" y2="95.7" stroke="#16a34a" stroke-width="1"/><rect x="743.9" y="90.1" width="5.4" height="3.1" fill="#16a34a" opacity="0.82" rx="1"/>
<line x1="755.5" y1="87.7" x2="755.5" y2="95.7" stroke="#16a34a" stroke-width="1"/><rect x="752.8" y="89.5" width="5.4" height="1.2" fill="#16a34a" opacity="0.82" rx="1"/>
<line x1="764.4" y1="86.6" x2="764.4" y2="120.1" stroke="#dc2626" stroke-width="1"/><rect x="761.6" y="89.5" width="5.4" height="14.3" fill="#dc2626" opacity="0.82" rx="1"/>
<line x1="773.2" y1="82.8" x2="773.2" y2="110.2" stroke="#16a34a" stroke-width="1"/><rect x="770.5" y="85.7" width="5.4" height="18.3" fill="#16a34a" opacity="0.82" rx="1"/>
<line x1="782.1" y1="77.6" x2="782.1" y2="95.7" stroke="#dc2626" stroke-width="1"/><rect x="779.4" y="85.4" width="5.4" height="7.4" fill="#dc2626" opacity="0.82" rx="1"/>
<line x1="791.0" y1="85.4" x2="791.0" y2="95.1" stroke="#16a34a" stroke-width="1"/><rect x="788.3" y="87.0" width="5.4" height="5.6" fill="#16a34a" opacity="0.82" rx="1"/>
<line x1="799.9" y1="86.3" x2="799.9" y2="95.3" stroke="#dc2626" stroke-width="1"/><rect x="797.1" y="86.6" width="5.4" height="8.5" fill="#dc2626" opacity="0.82" rx="1"/>
<line x1="808.7" y1="95.1" x2="808.7" y2="111.4" stroke="#dc2626" stroke-width="1"/><rect x="806.0" y="95.1" width="5.4" height="3.8" fill="#dc2626" opacity="0.82" rx="1"/>
<line x1="817.6" y1="90.1" x2="817.6" y2="102.4" stroke="#16a34a" stroke-width="1"/><rect x="814.9" y="97.1" width="5.4" height="2.0" fill="#16a34a" opacity="0.82" rx="1"/>
<line x1="826.5" y1="85.9" x2="826.5" y2="99.5" stroke="#16a34a" stroke-width="1"/><rect x="823.8" y="89.0" width="5.4" height="7.8" fill="#16a34a" opacity="0.82" rx="1"/>
<line x1="835.4" y1="86.1" x2="835.4" y2="95.5" stroke="#dc2626" stroke-width="1"/><rect x="832.6" y="89.0" width="5.4" height="1.2" fill="#dc2626" opacity="0.82" rx="1"/>
<line x1="844.2" y1="85.0" x2="844.2" y2="92.1" stroke="#dc2626" stroke-width="1"/><rect x="841.5" y="89.5" width="5.4" height="1.2" fill="#dc2626" opacity="0.82" rx="1"/>
<line x1="853.1" y1="85.0" x2="853.1" y2="89.9" stroke="#16a34a" stroke-width="1"/><rect x="850.4" y="87.0" width="5.4" height="2.7" fill="#16a34a" opacity="0.82" rx="1"/>
<line x1="862.0" y1="86.6" x2="862.0" y2="88.8" stroke="#dc2626" stroke-width="1"/><rect x="859.3" y="87.2" width="5.4" height="1.2" fill="#dc2626" opacity="0.82" rx="1"/>
<line x1="72" y1="106.9" x2="862" y2="106.9" stroke="#16a34a" stroke-width="1.8" stroke-dasharray="6 4" /><rect x="874" y="86.9" width="166" height="23" rx="5" fill="#ffffff" stroke="#16a34a" opacity="0.97"/><text x="881" y="102.9" fill="#16a34a" font-size="15" font-weight="700">日内支撑 79.22</text>
<line x1="72" y1="55.1" x2="862" y2="55.1" stroke="#dc2626" stroke-width="1.8" stroke-dasharray="6 4" /><rect x="874" y="35.1" width="166" height="23" rx="5" fill="#ffffff" stroke="#dc2626" opacity="0.97"/><text x="881" y="51.1" fill="#dc2626" font-size="15" font-weight="700">日内压力 81.54</text>
<line x1="72" y1="87.5" x2="862" y2="87.5" stroke="#111827" stroke-width="1.8" stroke-dasharray="2 2" /><rect x="874" y="67.5" width="166" height="23" rx="5" fill="#ffffff" stroke="#111827" opacity="0.97"/><text x="881" y="83.5" fill="#111827" font-size="15" font-weight="700">现价 80.09</text>
<text x="72" y="396" fill="#16a34a" font-size="14" font-weight="700">日内做多计划</text><rect x="72" y="404" width="790" height="48" rx="6" fill="#f9fafb" stroke="#e5e7eb"/><line x1="94" y1="412" x2="840" y2="412" stroke="#16a34a" stroke-width="3"/><circle cx="132.0" cy="412" r="5" fill="#16a34a"/><text x="132.0" y="434" fill="#374151" font-size="12" text-anchor="middle">入场 止跌/突破回踩</text><circle cx="451.2" cy="412" r="5" fill="#16a34a"/><text x="451.2" y="434" fill="#374151" font-size="12" text-anchor="middle">止损 79.22</text><circle cx="712.0" cy="412" r="5" fill="#16a34a"/><text x="712.0" y="434" fill="#374151" font-size="12" text-anchor="middle">目标一 81.54</text><circle cx="814.0" cy="412" r="5" fill="#16a34a"/><text x="814.0" y="434" fill="#374151" font-size="12" text-anchor="middle">目标二 82.12</text>
<text x="72" y="482" fill="#dc2626" font-size="14" font-weight="700">日内做空计划</text><rect x="72" y="490" width="790" height="48" rx="6" fill="#f9fafb" stroke="#e5e7eb"/><line x1="94" y1="498" x2="840" y2="498" stroke="#dc2626" stroke-width="3"/><circle cx="132.0" cy="498" r="5" fill="#dc2626"/><text x="132.0" y="520" fill="#374151" font-size="12" text-anchor="middle">入场 反弹承压/破位回抽</text><circle cx="451.2" cy="498" r="5" fill="#dc2626"/><text x="451.2" y="520" fill="#374151" font-size="12" text-anchor="middle">止损 81.54</text><circle cx="712.0" cy="498" r="5" fill="#dc2626"/><text x="712.0" y="520" fill="#374151" font-size="12" text-anchor="middle">目标一 79.22</text><circle cx="814.0" cy="498" r="5" fill="#dc2626"/><text x="814.0" y="520" fill="#374151" font-size="12" text-anchor="middle">目标二 78.64</text>
</svg>