<svg xmlns="http://www.w3.org/2000/svg" width="1080" height="560" viewBox="0 0 1080 560">
<rect width="100%" height="100%" fill="#ffffff"/>
<text x="72" y="23" fill="#111827" font-size="21" font-weight="800">DRAM 日线K线支撑压力图</text>
<text x="862" y="42" fill="#374151" font-size="15" text-anchor="end">最新价 80.09</text>
<line x1="72" y1="34" x2="72" y2="340" stroke="#d1d5db"/>
<line x1="72" y1="340" x2="862" y2="340" stroke="#d1d5db"/>
<line x1="72" y1="340.0" x2="862" y2="340.0" stroke="#f3f4f6"/>
<text x="8" y="345.0" fill="#4b5563" font-size="14">42.89</text>
<line x1="72" y1="263.5" x2="862" y2="263.5" stroke="#f3f4f6"/>
<text x="8" y="268.5" fill="#4b5563" font-size="14">56.13</text>
<line x1="72" y1="187.0" x2="862" y2="187.0" stroke="#f3f4f6"/>
<text x="8" y="192.0" fill="#4b5563" font-size="14">69.38</text>
<line x1="72" y1="110.5" x2="862" y2="110.5" stroke="#f3f4f6"/>
<text x="8" y="115.5" fill="#4b5563" font-size="14">82.63</text>
<line x1="72" y1="34.0" x2="862" y2="34.0" stroke="#f3f4f6"/>
<text x="8" y="39.0" fill="#4b5563" font-size="14">95.87</text>
<line x1="72.0" y1="288.0" x2="72.0" y2="309.9" stroke="#dc2626" stroke-width="1"/><rect x="67.5" y="291.8" width="9.0" height="8.4" fill="#dc2626" opacity="0.82" rx="1"/>
<line x1="95.2" y1="292.9" x2="95.2" y2="318.9" stroke="#16a34a" stroke-width="1"/><rect x="90.7" y="298.9" width="9.0" height="1.3" fill="#16a34a" opacity="0.82" rx="1"/>
<line x1="118.5" y1="287.1" x2="118.5" y2="310.6" stroke="#16a34a" stroke-width="1"/><rect x="114.0" y="288.9" width="9.0" height="10.0" fill="#16a34a" opacity="0.82" rx="1"/>
<line x1="141.7" y1="268.6" x2="141.7" y2="292.5" stroke="#16a34a" stroke-width="1"/><rect x="137.2" y="271.1" width="9.0" height="17.8" fill="#16a34a" opacity="0.82" rx="1"/>
<line x1="164.9" y1="270.8" x2="164.9" y2="284.0" stroke="#dc2626" stroke-width="1"/><rect x="160.4" y="271.1" width="9.0" height="12.6" fill="#dc2626" opacity="0.82" rx="1"/>
<line x1="188.2" y1="263.9" x2="188.2" y2="296.4" stroke="#16a34a" stroke-width="1"/><rect x="183.7" y="274.0" width="9.0" height="9.6" fill="#16a34a" opacity="0.82" rx="1"/>
<line x1="211.4" y1="263.7" x2="211.4" y2="275.2" stroke="#16a34a" stroke-width="1"/><rect x="206.9" y="267.9" width="9.0" height="6.0" fill="#16a34a" opacity="0.82" rx="1"/>
<line x1="234.6" y1="249.1" x2="234.6" y2="269.5" stroke="#16a34a" stroke-width="1"/><rect x="230.1" y="261.4" width="9.0" height="6.5" fill="#16a34a" opacity="0.82" rx="1"/>
<line x1="257.9" y1="222.1" x2="257.9" y2="271.9" stroke="#16a34a" stroke-width="1"/><rect x="253.4" y="228.4" width="9.0" height="33.0" fill="#16a34a" opacity="0.82" rx="1"/>
<line x1="281.1" y1="219.9" x2="281.1" y2="246.5" stroke="#dc2626" stroke-width="1"/><rect x="276.6" y="228.5" width="9.0" height="14.9" fill="#dc2626" opacity="0.82" rx="1"/>
<line x1="304.4" y1="219.5" x2="304.4" y2="255.9" stroke="#16a34a" stroke-width="1"/><rect x="299.9" y="223.6" width="9.0" height="19.8" fill="#16a34a" opacity="0.82" rx="1"/>
<line x1="327.6" y1="216.0" x2="327.6" y2="232.2" stroke="#16a34a" stroke-width="1"/><rect x="323.1" y="222.1" width="9.0" height="1.4" fill="#16a34a" opacity="0.82" rx="1"/>
<line x1="350.8" y1="206.7" x2="350.8" y2="224.4" stroke="#16a34a" stroke-width="1"/><rect x="346.3" y="207.7" width="9.0" height="14.4" fill="#16a34a" opacity="0.82" rx="1"/>
<line x1="374.1" y1="198.0" x2="374.1" y2="211.0" stroke="#16a34a" stroke-width="1"/><rect x="369.6" y="205.8" width="9.0" height="1.8" fill="#16a34a" opacity="0.82" rx="1"/>
<line x1="397.3" y1="188.7" x2="397.3" y2="216.0" stroke="#16a34a" stroke-width="1"/><rect x="392.8" y="193.8" width="9.0" height="11.8" fill="#16a34a" opacity="0.82" rx="1"/>
<line x1="420.5" y1="182.4" x2="420.5" y2="209.9" stroke="#16a34a" stroke-width="1"/><rect x="416.0" y="186.6" width="9.0" height="7.4" fill="#16a34a" opacity="0.82" rx="1"/>
<line x1="443.8" y1="181.6" x2="443.8" y2="204.2" stroke="#dc2626" stroke-width="1"/><rect x="439.3" y="186.5" width="9.0" height="15.9" fill="#dc2626" opacity="0.82" rx="1"/>
<line x1="467.0" y1="194.9" x2="467.0" y2="222.8" stroke="#dc2626" stroke-width="1"/><rect x="462.5" y="202.5" width="9.0" height="19.3" fill="#dc2626" opacity="0.82" rx="1"/>
<line x1="490.2" y1="217.3" x2="490.2" y2="278.9" stroke="#dc2626" stroke-width="1"/><rect x="485.7" y="221.8" width="9.0" height="45.7" fill="#dc2626" opacity="0.82" rx="1"/>
<line x1="513.5" y1="261.6" x2="513.5" y2="284.4" stroke="#16a34a" stroke-width="1"/><rect x="509.0" y="265.8" width="9.0" height="1.8" fill="#16a34a" opacity="0.82" rx="1"/>
<line x1="536.7" y1="242.1" x2="536.7" y2="270.0" stroke="#16a34a" stroke-width="1"/><rect x="532.2" y="261.7" width="9.0" height="4.2" fill="#16a34a" opacity="0.82" rx="1"/>
<line x1="559.9" y1="231.5" x2="559.9" y2="264.1" stroke="#16a34a" stroke-width="1"/><rect x="555.4" y="236.0" width="9.0" height="25.7" fill="#16a34a" opacity="0.82" rx="1"/>
<line x1="583.2" y1="216.9" x2="583.2" y2="267.4" stroke="#dc2626" stroke-width="1"/><rect x="578.7" y="236.0" width="9.0" height="6.7" fill="#dc2626" opacity="0.82" rx="1"/>
<line x1="606.4" y1="232.3" x2="606.4" y2="266.6" stroke="#dc2626" stroke-width="1"/><rect x="601.9" y="242.7" width="9.0" height="19.1" fill="#dc2626" opacity="0.82" rx="1"/>
<line x1="629.6" y1="202.5" x2="629.6" y2="263.2" stroke="#16a34a" stroke-width="1"/><rect x="625.1" y="206.4" width="9.0" height="55.2" fill="#16a34a" opacity="0.82" rx="1"/>
<line x1="652.9" y1="205.5" x2="652.9" y2="228.1" stroke="#dc2626" stroke-width="1"/><rect x="648.4" y="206.5" width="9.0" height="2.1" fill="#dc2626" opacity="0.82" rx="1"/>
<line x1="676.1" y1="206.6" x2="676.1" y2="218.7" stroke="#16a34a" stroke-width="1"/><rect x="671.6" y="207.8" width="9.0" height="1.2" fill="#16a34a" opacity="0.82" rx="1"/>
<line x1="699.4" y1="187.9" x2="699.4" y2="209.0" stroke="#16a34a" stroke-width="1"/><rect x="694.9" y="193.4" width="9.0" height="14.4" fill="#16a34a" opacity="0.82" rx="1"/>
<line x1="722.6" y1="175.6" x2="722.6" y2="198.5" stroke="#16a34a" stroke-width="1"/><rect x="718.1" y="178.5" width="9.0" height="15.0" fill="#16a34a" opacity="0.82" rx="1"/>
<line x1="745.8" y1="165.6" x2="745.8" y2="196.2" stroke="#dc2626" stroke-width="1"/><rect x="741.3" y="178.6" width="9.0" height="11.2" fill="#dc2626" opacity="0.82" rx="1"/>
<line x1="769.1" y1="164.4" x2="769.1" y2="190.0" stroke="#16a34a" stroke-width="1"/><rect x="764.6" y="169.2" width="9.0" height="20.7" fill="#16a34a" opacity="0.82" rx="1"/>
<line x1="792.3" y1="134.1" x2="792.3" y2="170.6" stroke="#16a34a" stroke-width="1"/><rect x="787.8" y="135.8" width="9.0" height="33.2" fill="#16a34a" opacity="0.82" rx="1"/>
<line x1="815.5" y1="133.2" x2="815.5" y2="155.4" stroke="#dc2626" stroke-width="1"/><rect x="811.0" y="135.9" width="9.0" height="3.5" fill="#dc2626" opacity="0.82" rx="1"/>
<line x1="838.8" y1="120.6" x2="838.8" y2="140.5" stroke="#16a34a" stroke-width="1"/><rect x="834.3" y="125.0" width="9.0" height="14.4" fill="#16a34a" opacity="0.82" rx="1"/>
<line x1="862.0" y1="124.9" x2="862.0" y2="125.5" stroke="#dc2626" stroke-width="1"/><rect x="857.5" y="125.1" width="9.0" height="1.2" fill="#dc2626" opacity="0.82" rx="1"/>
<line x1="72" y1="167.2" x2="862" y2="167.2" stroke="#16a34a" stroke-width="1.8" stroke-dasharray="6 4" /><rect x="874" y="147.2" width="166" height="23" rx="5" fill="#ffffff" stroke="#16a34a" opacity="0.97"/><text x="881" y="163.2" fill="#16a34a" font-size="15" font-weight="700">支撑 72.81</text>
<line x1="72" y1="55.1" x2="862" y2="55.1" stroke="#dc2626" stroke-width="1.8" stroke-dasharray="6 4" /><rect x="874" y="35.1" width="166" height="23" rx="5" fill="#ffffff" stroke="#dc2626" opacity="0.97"/><text x="881" y="51.1" fill="#dc2626" font-size="15" font-weight="700">压力 92.22</text>
<line x1="72" y1="125.1" x2="862" y2="125.1" stroke="#111827" stroke-width="1.8" stroke-dasharray="2 2" /><rect x="874" y="105.1" width="166" height="23" rx="5" fill="#ffffff" stroke="#111827" opacity="0.97"/><text x="881" y="121.1" fill="#111827" font-size="15" font-weight="700">现价 80.09</text>
<text x="72" y="396" fill="#16a34a" font-size="14" font-weight="700">日线做多计划</text><rect x="72" y="404" width="790" height="48" rx="6" fill="#f9fafb" stroke="#e5e7eb"/><line x1="94" y1="412" x2="840" y2="412" stroke="#16a34a" stroke-width="3"/><circle cx="132.0" cy="412" r="5" fill="#16a34a"/><text x="132.0" y="434" fill="#374151" font-size="12" text-anchor="middle">入场 止跌/突破回踩</text><circle cx="451.2" cy="412" r="5" fill="#16a34a"/><text x="451.2" y="434" fill="#374151" font-size="12" text-anchor="middle">止损 72.81</text><circle cx="712.0" cy="412" r="5" fill="#16a34a"/><text x="712.0" y="434" fill="#374151" font-size="12" text-anchor="middle">目标一 92.22</text><circle cx="814.0" cy="412" r="5" fill="#16a34a"/><text x="814.0" y="434" fill="#374151" font-size="12" text-anchor="middle">目标二 99.50</text>
<text x="72" y="482" fill="#dc2626" font-size="14" font-weight="700">日线做空计划</text><rect x="72" y="490" width="790" height="48" rx="6" fill="#f9fafb" stroke="#e5e7eb"/><line x1="94" y1="498" x2="840" y2="498" stroke="#dc2626" stroke-width="3"/><circle cx="132.0" cy="498" r="5" fill="#dc2626"/><text x="132.0" y="520" fill="#374151" font-size="12" text-anchor="middle">入场 反弹承压/破位回抽</text><circle cx="451.2" cy="498" r="5" fill="#dc2626"/><text x="451.2" y="520" fill="#374151" font-size="12" text-anchor="middle">止损 92.22</text><circle cx="712.0" cy="498" r="5" fill="#dc2626"/><text x="712.0" y="520" fill="#374151" font-size="12" text-anchor="middle">目标一 72.81</text><circle cx="814.0" cy="498" r="5" fill="#dc2626"/><text x="814.0" y="520" fill="#374151" font-size="12" text-anchor="middle">目标二 67.96</text>
</svg>