<svg xmlns="http://www.w3.org/2000/svg" width="1080" height="560" viewBox="0 0 1080 560">
<rect width="100%" height="100%" fill="#ffffff"/>
<text x="72" y="23" fill="#111827" font-size="21" font-weight="800">HYPE 日线K线支撑压力图</text>
<text x="862" y="42" fill="#374151" font-size="15" text-anchor="end">最新价 70.63</text>
<line x1="72" y1="34" x2="72" y2="340" stroke="#d1d5db"/>
<line x1="72" y1="340" x2="862" y2="340" stroke="#d1d5db"/>
<line x1="72" y1="340.0" x2="862" y2="340.0" stroke="#f3f4f6"/>
<text x="8" y="345.0" fill="#4b5563" font-size="14">30.40</text>
<line x1="72" y1="263.5" x2="862" y2="263.5" stroke="#f3f4f6"/>
<text x="8" y="268.5" fill="#4b5563" font-size="14">44.98</text>
<line x1="72" y1="187.0" x2="862" y2="187.0" stroke="#f3f4f6"/>
<text x="8" y="192.0" fill="#4b5563" font-size="14">59.57</text>
<line x1="72" y1="110.5" x2="862" y2="110.5" stroke="#f3f4f6"/>
<text x="8" y="115.5" fill="#4b5563" font-size="14">74.16</text>
<line x1="72" y1="34.0" x2="862" y2="34.0" stroke="#f3f4f6"/>
<text x="8" y="39.0" fill="#4b5563" font-size="14">88.74</text>
<line x1="72.0" y1="287.2" x2="72.0" y2="304.1" stroke="#16a34a" stroke-width="1"/><rect x="69.3" y="288.0" width="5.4" height="15.5" fill="#16a34a" opacity="0.82" rx="1"/>
<line x1="80.9" y1="281.5" x2="80.9" y2="291.5" stroke="#16a34a" stroke-width="1"/><rect x="78.2" y="287.9" width="5.4" height="1.2" fill="#16a34a" opacity="0.82" rx="1"/>
<line x1="89.8" y1="287.6" x2="89.8" y2="298.7" stroke="#dc2626" stroke-width="1"/><rect x="87.0" y="287.9" width="5.4" height="6.2" fill="#dc2626" opacity="0.82" rx="1"/>
<line x1="98.6" y1="292.8" x2="98.6" y2="300.8" stroke="#dc2626" stroke-width="1"/><rect x="95.9" y="294.1" width="5.4" height="2.6" fill="#dc2626" opacity="0.82" rx="1"/>
<line x1="107.5" y1="288.3" x2="107.5" y2="300.2" stroke="#16a34a" stroke-width="1"/><rect x="104.8" y="292.5" width="5.4" height="4.2" fill="#16a34a" opacity="0.82" rx="1"/>
<line x1="116.4" y1="289.4" x2="116.4" y2="301.6" stroke="#dc2626" stroke-width="1"/><rect x="113.7" y="292.6" width="5.4" height="8.6" fill="#dc2626" opacity="0.82" rx="1"/>
<line x1="125.3" y1="296.1" x2="125.3" y2="308.3" stroke="#dc2626" stroke-width="1"/><rect x="122.5" y="301.1" width="5.4" height="5.2" fill="#dc2626" opacity="0.82" rx="1"/>
<line x1="134.1" y1="302.1" x2="134.1" y2="312.5" stroke="#dc2626" stroke-width="1"/><rect x="131.4" y="306.3" width="5.4" height="1.2" fill="#dc2626" opacity="0.82" rx="1"/>
<line x1="143.0" y1="300.9" x2="143.0" y2="311.4" stroke="#dc2626" stroke-width="1"/><rect x="140.3" y="307.5" width="5.4" height="3.1" fill="#dc2626" opacity="0.82" rx="1"/>
<line x1="151.9" y1="309.2" x2="151.9" y2="318.9" stroke="#dc2626" stroke-width="1"/><rect x="149.2" y="310.6" width="5.4" height="4.4" fill="#dc2626" opacity="0.82" rx="1"/>
<line x1="160.8" y1="310.1" x2="160.8" y2="315.5" stroke="#16a34a" stroke-width="1"/><rect x="158.0" y="312.8" width="5.4" height="2.2" fill="#16a34a" opacity="0.82" rx="1"/>
<line x1="169.6" y1="307.7" x2="169.6" y2="313.2" stroke="#16a34a" stroke-width="1"/><rect x="166.9" y="308.7" width="5.4" height="4.0" fill="#16a34a" opacity="0.82" rx="1"/>
<line x1="178.5" y1="305.4" x2="178.5" y2="315.2" stroke="#16a34a" stroke-width="1"/><rect x="175.8" y="306.2" width="5.4" height="2.6" fill="#16a34a" opacity="0.82" rx="1"/>
<line x1="187.4" y1="301.4" x2="187.4" y2="310.9" stroke="#dc2626" stroke-width="1"/><rect x="184.7" y="306.1" width="5.4" height="3.0" fill="#dc2626" opacity="0.82" rx="1"/>
<line x1="196.3" y1="294.0" x2="196.3" y2="312.1" stroke="#16a34a" stroke-width="1"/><rect x="193.5" y="297.0" width="5.4" height="12.2" fill="#16a34a" opacity="0.82" rx="1"/>
<line x1="205.1" y1="290.7" x2="205.1" y2="301.4" stroke="#16a34a" stroke-width="1"/><rect x="202.4" y="296.2" width="5.4" height="1.2" fill="#16a34a" opacity="0.82" rx="1"/>
<line x1="214.0" y1="287.5" x2="214.0" y2="299.3" stroke="#16a34a" stroke-width="1"/><rect x="211.3" y="292.5" width="5.4" height="3.7" fill="#16a34a" opacity="0.82" rx="1"/>
<line x1="222.9" y1="277.9" x2="222.9" y2="292.7" stroke="#16a34a" stroke-width="1"/><rect x="220.2" y="281.3" width="5.4" height="11.1" fill="#16a34a" opacity="0.82" rx="1"/>
<line x1="231.8" y1="273.0" x2="231.8" y2="281.9" stroke="#16a34a" stroke-width="1"/><rect x="229.1" y="277.7" width="5.4" height="3.6" fill="#16a34a" opacity="0.82" rx="1"/>
<line x1="240.7" y1="274.8" x2="240.7" y2="288.6" stroke="#dc2626" stroke-width="1"/><rect x="237.9" y="277.7" width="5.4" height="7.5" fill="#dc2626" opacity="0.82" rx="1"/>
<line x1="249.5" y1="265.4" x2="249.5" y2="285.5" stroke="#16a34a" stroke-width="1"/><rect x="246.8" y="266.9" width="5.4" height="18.3" fill="#16a34a" opacity="0.82" rx="1"/>
<line x1="258.4" y1="261.6" x2="258.4" y2="274.3" stroke="#dc2626" stroke-width="1"/><rect x="255.7" y="267.0" width="5.4" height="4.2" fill="#dc2626" opacity="0.82" rx="1"/>
<line x1="267.3" y1="261.0" x2="267.3" y2="273.2" stroke="#16a34a" stroke-width="1"/><rect x="264.6" y="265.3" width="5.4" height="5.8" fill="#16a34a" opacity="0.82" rx="1"/>
<line x1="276.2" y1="259.4" x2="276.2" y2="272.3" stroke="#dc2626" stroke-width="1"/><rect x="273.4" y="265.3" width="5.4" height="4.3" fill="#dc2626" opacity="0.82" rx="1"/>
<line x1="285.0" y1="260.8" x2="285.0" y2="273.0" stroke="#16a34a" stroke-width="1"/><rect x="282.3" y="265.4" width="5.4" height="4.2" fill="#16a34a" opacity="0.82" rx="1"/>
<line x1="293.9" y1="261.0" x2="293.9" y2="270.1" stroke="#dc2626" stroke-width="1"/><rect x="291.2" y="265.4" width="5.4" height="4.4" fill="#dc2626" opacity="0.82" rx="1"/>
<line x1="302.8" y1="269.0" x2="302.8" y2="287.0" stroke="#dc2626" stroke-width="1"/><rect x="300.1" y="269.8" width="5.4" height="16.2" fill="#dc2626" opacity="0.82" rx="1"/>
<line x1="311.7" y1="280.3" x2="311.7" y2="286.7" stroke="#16a34a" stroke-width="1"/><rect x="308.9" y="285.9" width="5.4" height="1.2" fill="#16a34a" opacity="0.82" rx="1"/>
<line x1="320.5" y1="282.2" x2="320.5" y2="295.5" stroke="#dc2626" stroke-width="1"/><rect x="317.8" y="286.0" width="5.4" height="4.9" fill="#dc2626" opacity="0.82" rx="1"/>
<line x1="329.4" y1="280.5" x2="329.4" y2="291.6" stroke="#16a34a" stroke-width="1"/><rect x="326.7" y="283.6" width="5.4" height="7.3" fill="#16a34a" opacity="0.82" rx="1"/>
<line x1="338.3" y1="279.9" x2="338.3" y2="286.9" stroke="#16a34a" stroke-width="1"/><rect x="335.6" y="282.8" width="5.4" height="1.2" fill="#16a34a" opacity="0.82" rx="1"/>
<line x1="347.2" y1="281.6" x2="347.2" y2="286.1" stroke="#dc2626" stroke-width="1"/><rect x="344.4" y="282.8" width="5.4" height="1.2" fill="#dc2626" opacity="0.82" rx="1"/>
<line x1="356.0" y1="279.7" x2="356.0" y2="285.3" stroke="#16a34a" stroke-width="1"/><rect x="353.3" y="281.8" width="5.4" height="1.7" fill="#16a34a" opacity="0.82" rx="1"/>
<line x1="364.9" y1="276.0" x2="364.9" y2="284.7" stroke="#16a34a" stroke-width="1"/><rect x="362.2" y="276.7" width="5.4" height="5.0" fill="#16a34a" opacity="0.82" rx="1"/>
<line x1="373.8" y1="270.9" x2="373.8" y2="283.0" stroke="#dc2626" stroke-width="1"/><rect x="371.1" y="276.7" width="5.4" height="4.2" fill="#dc2626" opacity="0.82" rx="1"/>
<line x1="382.7" y1="280.0" x2="382.7" y2="292.9" stroke="#dc2626" stroke-width="1"/><rect x="380.0" y="281.0" width="5.4" height="7.8" fill="#dc2626" opacity="0.82" rx="1"/>
<line x1="391.6" y1="285.4" x2="391.6" y2="294.1" stroke="#dc2626" stroke-width="1"/><rect x="388.8" y="288.8" width="5.4" height="1.2" fill="#dc2626" opacity="0.82" rx="1"/>
<line x1="400.4" y1="287.9" x2="400.4" y2="296.4" stroke="#dc2626" stroke-width="1"/><rect x="397.7" y="290.0" width="5.4" height="1.3" fill="#dc2626" opacity="0.82" rx="1"/>
<line x1="409.3" y1="283.7" x2="409.3" y2="291.4" stroke="#16a34a" stroke-width="1"/><rect x="406.6" y="283.7" width="5.4" height="7.5" fill="#16a34a" opacity="0.82" rx="1"/>
<line x1="418.2" y1="276.8" x2="418.2" y2="284.5" stroke="#16a34a" stroke-width="1"/><rect x="415.5" y="283.1" width="5.4" height="1.2" fill="#16a34a" opacity="0.82" rx="1"/>
<line x1="427.1" y1="280.6" x2="427.1" y2="286.1" stroke="#16a34a" stroke-width="1"/><rect x="424.3" y="281.5" width="5.4" height="1.6" fill="#16a34a" opacity="0.82" rx="1"/>
<line x1="435.9" y1="276.0" x2="435.9" y2="285.4" stroke="#16a34a" stroke-width="1"/><rect x="433.2" y="280.1" width="5.4" height="1.4" fill="#16a34a" opacity="0.82" rx="1"/>
<line x1="444.8" y1="265.3" x2="444.8" y2="280.4" stroke="#16a34a" stroke-width="1"/><rect x="442.1" y="270.2" width="5.4" height="9.9" fill="#16a34a" opacity="0.82" rx="1"/>
<line x1="453.7" y1="264.7" x2="453.7" y2="274.4" stroke="#dc2626" stroke-width="1"/><rect x="451.0" y="270.2" width="5.4" height="3.1" fill="#dc2626" opacity="0.82" rx="1"/>
<line x1="462.6" y1="271.0" x2="462.6" y2="279.9" stroke="#dc2626" stroke-width="1"/><rect x="459.8" y="273.2" width="5.4" height="3.2" fill="#dc2626" opacity="0.82" rx="1"/>
<line x1="471.4" y1="271.3" x2="471.4" y2="278.9" stroke="#16a34a" stroke-width="1"/><rect x="468.7" y="272.5" width="5.4" height="3.9" fill="#16a34a" opacity="0.82" rx="1"/>
<line x1="480.3" y1="266.5" x2="480.3" y2="274.8" stroke="#dc2626" stroke-width="1"/><rect x="477.6" y="272.5" width="5.4" height="1.9" fill="#dc2626" opacity="0.82" rx="1"/>
<line x1="489.2" y1="270.2" x2="489.2" y2="278.5" stroke="#16a34a" stroke-width="1"/><rect x="486.5" y="273.9" width="5.4" height="1.2" fill="#16a34a" opacity="0.82" rx="1"/>
<line x1="498.1" y1="273.1" x2="498.1" y2="285.3" stroke="#dc2626" stroke-width="1"/><rect x="495.3" y="273.8" width="5.4" height="5.3" fill="#dc2626" opacity="0.82" rx="1"/>
<line x1="506.9" y1="278.9" x2="506.9" y2="290.8" stroke="#dc2626" stroke-width="1"/><rect x="504.2" y="279.2" width="5.4" height="9.1" fill="#dc2626" opacity="0.82" rx="1"/>
<line x1="515.8" y1="285.9" x2="515.8" y2="296.4" stroke="#dc2626" stroke-width="1"/><rect x="513.1" y="288.3" width="5.4" height="7.5" fill="#dc2626" opacity="0.82" rx="1"/>
<line x1="524.7" y1="264.7" x2="524.7" y2="299.3" stroke="#16a34a" stroke-width="1"/><rect x="522.0" y="268.0" width="5.4" height="27.9" fill="#16a34a" opacity="0.82" rx="1"/>
<line x1="533.6" y1="252.6" x2="533.6" y2="275.0" stroke="#16a34a" stroke-width="1"/><rect x="530.9" y="267.8" width="5.4" height="1.2" fill="#16a34a" opacity="0.82" rx="1"/>
<line x1="542.4" y1="266.1" x2="542.4" y2="287.7" stroke="#dc2626" stroke-width="1"/><rect x="539.7" y="267.8" width="5.4" height="12.3" fill="#dc2626" opacity="0.82" rx="1"/>
<line x1="551.3" y1="252.1" x2="551.3" y2="282.7" stroke="#16a34a" stroke-width="1"/><rect x="548.6" y="259.8" width="5.4" height="20.3" fill="#16a34a" opacity="0.82" rx="1"/>
<line x1="560.2" y1="247.7" x2="560.2" y2="267.6" stroke="#16a34a" stroke-width="1"/><rect x="557.5" y="248.9" width="5.4" height="10.9" fill="#16a34a" opacity="0.82" rx="1"/>
<line x1="569.1" y1="243.0" x2="569.1" y2="254.0" stroke="#16a34a" stroke-width="1"/><rect x="566.4" y="247.6" width="5.4" height="1.3" fill="#16a34a" opacity="0.82" rx="1"/>
<line x1="578.0" y1="211.8" x2="578.0" y2="252.5" stroke="#16a34a" stroke-width="1"/><rect x="575.2" y="211.8" width="5.4" height="35.9" fill="#16a34a" opacity="0.82" rx="1"/>
<line x1="586.8" y1="171.1" x2="586.8" y2="212.5" stroke="#16a34a" stroke-width="1"/><rect x="584.1" y="192.2" width="5.4" height="19.7" fill="#16a34a" opacity="0.82" rx="1"/>
<line x1="595.7" y1="174.5" x2="595.7" y2="214.7" stroke="#dc2626" stroke-width="1"/><rect x="593.0" y="192.2" width="5.4" height="21.0" fill="#dc2626" opacity="0.82" rx="1"/>
<line x1="604.6" y1="185.3" x2="604.6" y2="216.2" stroke="#16a34a" stroke-width="1"/><rect x="601.9" y="191.5" width="5.4" height="21.6" fill="#16a34a" opacity="0.82" rx="1"/>
<line x1="613.5" y1="161.1" x2="613.5" y2="192.0" stroke="#16a34a" stroke-width="1"/><rect x="610.7" y="170.4" width="5.4" height="21.2" fill="#16a34a" opacity="0.82" rx="1"/>
<line x1="622.3" y1="164.3" x2="622.3" y2="181.0" stroke="#dc2626" stroke-width="1"/><rect x="619.6" y="170.3" width="5.4" height="8.7" fill="#dc2626" opacity="0.82" rx="1"/>
<line x1="631.2" y1="159.9" x2="631.2" y2="192.4" stroke="#dc2626" stroke-width="1"/><rect x="628.5" y="179.0" width="5.4" height="8.3" fill="#dc2626" opacity="0.82" rx="1"/>
<line x1="640.1" y1="167.3" x2="640.1" y2="200.2" stroke="#dc2626" stroke-width="1"/><rect x="637.4" y="187.3" width="5.4" height="9.9" fill="#dc2626" opacity="0.82" rx="1"/>
<line x1="649.0" y1="173.6" x2="649.0" y2="204.4" stroke="#16a34a" stroke-width="1"/><rect x="646.2" y="176.8" width="5.4" height="20.5" fill="#16a34a" opacity="0.82" rx="1"/>
<line x1="657.8" y1="145.9" x2="657.8" y2="183.0" stroke="#16a34a" stroke-width="1"/><rect x="655.1" y="161.6" width="5.4" height="15.1" fill="#16a34a" opacity="0.82" rx="1"/>
<line x1="666.7" y1="139.4" x2="666.7" y2="163.8" stroke="#16a34a" stroke-width="1"/><rect x="664.0" y="141.3" width="5.4" height="20.4" fill="#16a34a" opacity="0.82" rx="1"/>
<line x1="675.6" y1="116.0" x2="675.6" y2="145.6" stroke="#16a34a" stroke-width="1"/><rect x="672.9" y="121.5" width="5.4" height="19.7" fill="#16a34a" opacity="0.82" rx="1"/>
<line x1="684.5" y1="101.7" x2="684.5" y2="130.1" stroke="#16a34a" stroke-width="1"/><rect x="681.8" y="113.5" width="5.4" height="7.8" fill="#16a34a" opacity="0.82" rx="1"/>
<line x1="693.3" y1="102.7" x2="693.3" y2="143.6" stroke="#dc2626" stroke-width="1"/><rect x="690.6" y="113.5" width="5.4" height="19.7" fill="#dc2626" opacity="0.82" rx="1"/>
<line x1="702.2" y1="102.9" x2="702.2" y2="141.4" stroke="#16a34a" stroke-width="1"/><rect x="699.5" y="108.3" width="5.4" height="24.9" fill="#16a34a" opacity="0.82" rx="1"/>
<line x1="711.1" y1="103.5" x2="711.1" y2="169.0" stroke="#dc2626" stroke-width="1"/><rect x="708.4" y="108.3" width="5.4" height="53.2" fill="#dc2626" opacity="0.82" rx="1"/>
<line x1="720.0" y1="153.1" x2="720.0" y2="202.1" stroke="#dc2626" stroke-width="1"/><rect x="717.3" y="161.5" width="5.4" height="24.1" fill="#dc2626" opacity="0.82" rx="1"/>
<line x1="728.9" y1="178.3" x2="728.9" y2="208.4" stroke="#dc2626" stroke-width="1"/><rect x="726.1" y="185.7" width="5.4" height="17.3" fill="#dc2626" opacity="0.82" rx="1"/>
<line x1="737.7" y1="182.4" x2="737.7" y2="205.2" stroke="#16a34a" stroke-width="1"/><rect x="735.0" y="186.1" width="5.4" height="16.9" fill="#16a34a" opacity="0.82" rx="1"/>
<line x1="746.6" y1="154.3" x2="746.6" y2="188.4" stroke="#16a34a" stroke-width="1"/><rect x="743.9" y="164.6" width="5.4" height="21.4" fill="#16a34a" opacity="0.82" rx="1"/>
<line x1="755.5" y1="163.6" x2="755.5" y2="198.9" stroke="#dc2626" stroke-width="1"/><rect x="752.8" y="164.6" width="5.4" height="31.9" fill="#dc2626" opacity="0.82" rx="1"/>
<line x1="764.4" y1="193.4" x2="764.4" y2="223.5" stroke="#dc2626" stroke-width="1"/><rect x="761.6" y="196.4" width="5.4" height="23.6" fill="#dc2626" opacity="0.82" rx="1"/>
<line x1="773.2" y1="186.6" x2="773.2" y2="222.2" stroke="#16a34a" stroke-width="1"/><rect x="770.5" y="190.4" width="5.4" height="29.6" fill="#16a34a" opacity="0.82" rx="1"/>
<line x1="782.1" y1="172.0" x2="782.1" y2="201.6" stroke="#16a34a" stroke-width="1"/><rect x="779.4" y="188.6" width="5.4" height="1.7" fill="#16a34a" opacity="0.82" rx="1"/>
<line x1="791.0" y1="180.1" x2="791.0" y2="199.6" stroke="#16a34a" stroke-width="1"/><rect x="788.3" y="181.1" width="5.4" height="7.5" fill="#16a34a" opacity="0.82" rx="1"/>
<line x1="799.9" y1="163.0" x2="799.9" y2="186.9" stroke="#16a34a" stroke-width="1"/><rect x="797.1" y="164.2" width="5.4" height="17.0" fill="#16a34a" opacity="0.82" rx="1"/>
<line x1="808.7" y1="139.1" x2="808.7" y2="168.4" stroke="#16a34a" stroke-width="1"/><rect x="806.0" y="148.6" width="5.4" height="15.5" fill="#16a34a" opacity="0.82" rx="1"/>
<line x1="817.6" y1="95.6" x2="817.6" y2="151.4" stroke="#16a34a" stroke-width="1"/><rect x="814.9" y="113.5" width="5.4" height="35.1" fill="#16a34a" opacity="0.82" rx="1"/>
<line x1="826.5" y1="96.7" x2="826.5" y2="132.6" stroke="#dc2626" stroke-width="1"/><rect x="823.8" y="113.5" width="5.4" height="12.8" fill="#dc2626" opacity="0.82" rx="1"/>
<line x1="835.4" y1="112.7" x2="835.4" y2="150.4" stroke="#dc2626" stroke-width="1"/><rect x="832.6" y="126.3" width="5.4" height="14.7" fill="#dc2626" opacity="0.82" rx="1"/>
<line x1="844.2" y1="125.0" x2="844.2" y2="155.2" stroke="#16a34a" stroke-width="1"/><rect x="841.5" y="130.9" width="5.4" height="10.1" fill="#16a34a" opacity="0.82" rx="1"/>
<line x1="853.1" y1="124.8" x2="853.1" y2="140.7" stroke="#16a34a" stroke-width="1"/><rect x="850.4" y="128.4" width="5.4" height="2.5" fill="#16a34a" opacity="0.82" rx="1"/>
<line x1="862.0" y1="128.4" x2="862.0" y2="129.6" stroke="#dc2626" stroke-width="1"/><rect x="859.3" y="128.4" width="5.4" height="1.2" fill="#dc2626" opacity="0.82" rx="1"/>
<line x1="72" y1="173.4" x2="862" y2="173.4" stroke="#16a34a" stroke-width="1.8" stroke-dasharray="6 4" /><rect x="874" y="153.4" width="166" height="23" rx="5" fill="#ffffff" stroke="#16a34a" opacity="0.97"/><text x="881" y="169.4" fill="#16a34a" font-size="15" font-weight="700">支撑 62.17</text>
<line x1="72" y1="55.1" x2="862" y2="55.1" stroke="#dc2626" stroke-width="1.8" stroke-dasharray="6 4" /><rect x="874" y="35.1" width="166" height="23" rx="5" fill="#ffffff" stroke="#dc2626" opacity="0.97"/><text x="881" y="51.1" fill="#dc2626" font-size="15" font-weight="700">压力 84.72</text>
<line x1="72" y1="129.0" x2="862" y2="129.0" stroke="#111827" stroke-width="1.8" stroke-dasharray="2 2" /><rect x="874" y="109.0" width="166" height="23" rx="5" fill="#ffffff" stroke="#111827" opacity="0.97"/><text x="881" y="125.0" fill="#111827" font-size="15" font-weight="700">现价 70.63</text>
<text x="72" y="396" fill="#16a34a" font-size="14" font-weight="700">日线做多计划</text><rect x="72" y="404" width="790" height="48" rx="6" fill="#f9fafb" stroke="#e5e7eb"/><line x1="94" y1="412" x2="840" y2="412" stroke="#16a34a" stroke-width="3"/><circle cx="132.0" cy="412" r="5" fill="#16a34a"/><text x="132.0" y="434" fill="#374151" font-size="12" text-anchor="middle">入场 止跌/突破回踩</text><circle cx="451.2" cy="412" r="5" fill="#16a34a"/><text x="451.2" y="434" fill="#374151" font-size="12" text-anchor="middle">止损 62.17</text><circle cx="712.0" cy="412" r="5" fill="#16a34a"/><text x="712.0" y="434" fill="#374151" font-size="12" text-anchor="middle">目标一 84.72</text><circle cx="814.0" cy="412" r="5" fill="#16a34a"/><text x="814.0" y="434" fill="#374151" font-size="12" text-anchor="middle">目标二 93.17</text>
<text x="72" y="482" fill="#dc2626" font-size="14" font-weight="700">日线做空计划</text><rect x="72" y="490" width="790" height="48" rx="6" fill="#f9fafb" stroke="#e5e7eb"/><line x1="94" y1="498" x2="840" y2="498" stroke="#dc2626" stroke-width="3"/><circle cx="132.0" cy="498" r="5" fill="#dc2626"/><text x="132.0" y="520" fill="#374151" font-size="12" text-anchor="middle">入场 反弹承压/破位回抽</text><circle cx="451.2" cy="498" r="5" fill="#dc2626"/><text x="451.2" y="520" fill="#374151" font-size="12" text-anchor="middle">止损 84.72</text><circle cx="712.0" cy="498" r="5" fill="#dc2626"/><text x="712.0" y="520" fill="#374151" font-size="12" text-anchor="middle">目标一 62.17</text><circle cx="814.0" cy="498" r="5" fill="#dc2626"/><text x="814.0" y="520" fill="#374151" font-size="12" text-anchor="middle">目标二 56.53</text>
</svg>