<svg xmlns="http://www.w3.org/2000/svg" width="1080" height="560" viewBox="0 0 1080 560">
<rect width="100%" height="100%" fill="#ffffff"/>
<text x="72" y="23" fill="#111827" font-size="21" font-weight="800">DRAM 日线K线支撑压力图</text>
<text x="862" y="42" fill="#374151" font-size="15" text-anchor="end">最新价 81.10</text>
<line x1="72" y1="34" x2="72" y2="340" stroke="#d1d5db"/>
<line x1="72" y1="340" x2="862" y2="340" stroke="#d1d5db"/>
<line x1="72" y1="340.0" x2="862" y2="340.0" stroke="#f3f4f6"/>
<text x="8" y="345.0" fill="#4b5563" font-size="14">42.79</text>
<line x1="72" y1="263.5" x2="862" y2="263.5" stroke="#f3f4f6"/>
<text x="8" y="268.5" fill="#4b5563" font-size="14">56.39</text>
<line x1="72" y1="187.0" x2="862" y2="187.0" stroke="#f3f4f6"/>
<text x="8" y="192.0" fill="#4b5563" font-size="14">70.00</text>
<line x1="72" y1="110.5" x2="862" y2="110.5" stroke="#f3f4f6"/>
<text x="8" y="115.5" fill="#4b5563" font-size="14">83.60</text>
<line x1="72" y1="34.0" x2="862" y2="34.0" stroke="#f3f4f6"/>
<text x="8" y="39.0" fill="#4b5563" font-size="14">97.21</text>
<line x1="72.0" y1="288.8" x2="72.0" y2="310.2" stroke="#dc2626" stroke-width="1"/><rect x="67.5" y="292.5" width="9.0" height="8.2" fill="#dc2626" opacity="0.82" rx="1"/>
<line x1="95.2" y1="293.6" x2="95.2" y2="318.9" stroke="#16a34a" stroke-width="1"/><rect x="90.7" y="299.4" width="9.0" height="1.2" fill="#16a34a" opacity="0.82" rx="1"/>
<line x1="118.5" y1="287.9" x2="118.5" y2="310.8" stroke="#16a34a" stroke-width="1"/><rect x="114.0" y="289.7" width="9.0" height="9.8" fill="#16a34a" opacity="0.82" rx="1"/>
<line x1="141.7" y1="269.9" x2="141.7" y2="293.2" stroke="#16a34a" stroke-width="1"/><rect x="137.2" y="272.3" width="9.0" height="17.4" fill="#16a34a" opacity="0.82" rx="1"/>
<line x1="164.9" y1="272.1" x2="164.9" y2="284.9" stroke="#dc2626" stroke-width="1"/><rect x="160.4" y="272.3" width="9.0" height="12.3" fill="#dc2626" opacity="0.82" rx="1"/>
<line x1="188.2" y1="265.4" x2="188.2" y2="297.0" stroke="#16a34a" stroke-width="1"/><rect x="183.7" y="275.2" width="9.0" height="9.3" fill="#16a34a" opacity="0.82" rx="1"/>
<line x1="211.4" y1="265.1" x2="211.4" y2="276.3" stroke="#16a34a" stroke-width="1"/><rect x="206.9" y="269.2" width="9.0" height="5.8" fill="#16a34a" opacity="0.82" rx="1"/>
<line x1="234.6" y1="250.9" x2="234.6" y2="270.8" stroke="#16a34a" stroke-width="1"/><rect x="230.1" y="262.9" width="9.0" height="6.3" fill="#16a34a" opacity="0.82" rx="1"/>
<line x1="257.9" y1="224.7" x2="257.9" y2="273.2" stroke="#16a34a" stroke-width="1"/><rect x="253.4" y="230.8" width="9.0" height="32.1" fill="#16a34a" opacity="0.82" rx="1"/>
<line x1="281.1" y1="222.5" x2="281.1" y2="248.4" stroke="#dc2626" stroke-width="1"/><rect x="276.6" y="230.8" width="9.0" height="14.5" fill="#dc2626" opacity="0.82" rx="1"/>
<line x1="304.4" y1="222.1" x2="304.4" y2="257.6" stroke="#16a34a" stroke-width="1"/><rect x="299.9" y="226.1" width="9.0" height="19.3" fill="#16a34a" opacity="0.82" rx="1"/>
<line x1="327.6" y1="218.8" x2="327.6" y2="234.4" stroke="#16a34a" stroke-width="1"/><rect x="323.1" y="224.6" width="9.0" height="1.3" fill="#16a34a" opacity="0.82" rx="1"/>
<line x1="350.8" y1="209.7" x2="350.8" y2="226.9" stroke="#16a34a" stroke-width="1"/><rect x="346.3" y="210.6" width="9.0" height="14.0" fill="#16a34a" opacity="0.82" rx="1"/>
<line x1="374.1" y1="201.2" x2="374.1" y2="213.9" stroke="#16a34a" stroke-width="1"/><rect x="369.6" y="208.7" width="9.0" height="1.8" fill="#16a34a" opacity="0.82" rx="1"/>
<line x1="397.3" y1="192.2" x2="397.3" y2="218.8" stroke="#16a34a" stroke-width="1"/><rect x="392.8" y="197.1" width="9.0" height="11.5" fill="#16a34a" opacity="0.82" rx="1"/>
<line x1="420.5" y1="186.0" x2="420.5" y2="212.8" stroke="#16a34a" stroke-width="1"/><rect x="416.0" y="190.1" width="9.0" height="7.2" fill="#16a34a" opacity="0.82" rx="1"/>
<line x1="443.8" y1="185.2" x2="443.8" y2="207.2" stroke="#dc2626" stroke-width="1"/><rect x="439.3" y="190.0" width="9.0" height="15.5" fill="#dc2626" opacity="0.82" rx="1"/>
<line x1="467.0" y1="198.2" x2="467.0" y2="225.3" stroke="#dc2626" stroke-width="1"/><rect x="462.5" y="205.5" width="9.0" height="18.8" fill="#dc2626" opacity="0.82" rx="1"/>
<line x1="490.2" y1="220.0" x2="490.2" y2="280.0" stroke="#dc2626" stroke-width="1"/><rect x="485.7" y="224.4" width="9.0" height="44.5" fill="#dc2626" opacity="0.82" rx="1"/>
<line x1="513.5" y1="263.1" x2="513.5" y2="285.3" stroke="#16a34a" stroke-width="1"/><rect x="509.0" y="267.2" width="9.0" height="1.7" fill="#16a34a" opacity="0.82" rx="1"/>
<line x1="536.7" y1="244.2" x2="536.7" y2="271.3" stroke="#16a34a" stroke-width="1"/><rect x="532.2" y="263.2" width="9.0" height="4.1" fill="#16a34a" opacity="0.82" rx="1"/>
<line x1="559.9" y1="233.8" x2="559.9" y2="265.6" stroke="#16a34a" stroke-width="1"/><rect x="555.4" y="238.2" width="9.0" height="25.0" fill="#16a34a" opacity="0.82" rx="1"/>
<line x1="583.2" y1="219.6" x2="583.2" y2="268.8" stroke="#dc2626" stroke-width="1"/><rect x="578.7" y="238.2" width="9.0" height="6.5" fill="#dc2626" opacity="0.82" rx="1"/>
<line x1="606.4" y1="234.6" x2="606.4" y2="268.0" stroke="#dc2626" stroke-width="1"/><rect x="601.9" y="244.7" width="9.0" height="18.6" fill="#dc2626" opacity="0.82" rx="1"/>
<line x1="629.6" y1="205.6" x2="629.6" y2="264.6" stroke="#16a34a" stroke-width="1"/><rect x="625.1" y="209.4" width="9.0" height="53.7" fill="#16a34a" opacity="0.82" rx="1"/>
<line x1="652.9" y1="208.5" x2="652.9" y2="230.5" stroke="#dc2626" stroke-width="1"/><rect x="648.4" y="209.4" width="9.0" height="2.1" fill="#dc2626" opacity="0.82" rx="1"/>
<line x1="676.1" y1="209.6" x2="676.1" y2="221.3" stroke="#16a34a" stroke-width="1"/><rect x="671.6" y="210.8" width="9.0" height="1.2" fill="#16a34a" opacity="0.82" rx="1"/>
<line x1="699.4" y1="191.3" x2="699.4" y2="211.9" stroke="#16a34a" stroke-width="1"/><rect x="694.9" y="196.7" width="9.0" height="14.0" fill="#16a34a" opacity="0.82" rx="1"/>
<line x1="722.6" y1="179.4" x2="722.6" y2="201.7" stroke="#16a34a" stroke-width="1"/><rect x="718.1" y="182.2" width="9.0" height="14.6" fill="#16a34a" opacity="0.82" rx="1"/>
<line x1="745.8" y1="169.7" x2="745.8" y2="199.5" stroke="#dc2626" stroke-width="1"/><rect x="741.3" y="182.3" width="9.0" height="10.9" fill="#dc2626" opacity="0.82" rx="1"/>
<line x1="769.1" y1="168.5" x2="769.1" y2="193.4" stroke="#16a34a" stroke-width="1"/><rect x="764.6" y="173.1" width="9.0" height="20.1" fill="#16a34a" opacity="0.82" rx="1"/>
<line x1="792.3" y1="139.0" x2="792.3" y2="174.5" stroke="#16a34a" stroke-width="1"/><rect x="787.8" y="140.6" width="9.0" height="32.3" fill="#16a34a" opacity="0.82" rx="1"/>
<line x1="815.5" y1="138.1" x2="815.5" y2="159.7" stroke="#dc2626" stroke-width="1"/><rect x="811.0" y="140.7" width="9.0" height="3.4" fill="#dc2626" opacity="0.82" rx="1"/>
<line x1="838.8" y1="125.9" x2="838.8" y2="145.2" stroke="#16a34a" stroke-width="1"/><rect x="834.3" y="130.1" width="9.0" height="14.1" fill="#16a34a" opacity="0.82" rx="1"/>
<line x1="862.0" y1="123.0" x2="862.0" y2="130.7" stroke="#16a34a" stroke-width="1"/><rect x="857.5" y="124.6" width="9.0" height="5.6" fill="#16a34a" opacity="0.82" rx="1"/>
<line x1="72" y1="166.2" x2="862" y2="166.2" stroke="#16a34a" stroke-width="1.8" stroke-dasharray="6 4" /><rect x="874" y="146.2" width="166" height="23" rx="5" fill="#ffffff" stroke="#16a34a" opacity="0.97"/><text x="881" y="162.2" fill="#16a34a" font-size="15" font-weight="700">支撑 73.69</text>
<line x1="72" y1="55.1" x2="862" y2="55.1" stroke="#dc2626" stroke-width="1.8" stroke-dasharray="6 4" /><rect x="874" y="35.1" width="166" height="23" rx="5" fill="#ffffff" stroke="#dc2626" opacity="0.97"/><text x="881" y="51.1" fill="#dc2626" font-size="15" font-weight="700">压力 93.45</text>
<line x1="72" y1="124.6" x2="862" y2="124.6" stroke="#111827" stroke-width="1.8" stroke-dasharray="2 2" /><rect x="874" y="104.6" width="166" height="23" rx="5" fill="#ffffff" stroke="#111827" opacity="0.97"/><text x="881" y="120.6" fill="#111827" font-size="15" font-weight="700">现价 81.10</text>
<text x="72" y="396" fill="#16a34a" font-size="14" font-weight="700">日线做多计划</text><rect x="72" y="404" width="790" height="48" rx="6" fill="#f9fafb" stroke="#e5e7eb"/><line x1="94" y1="412" x2="840" y2="412" stroke="#16a34a" stroke-width="3"/><circle cx="132.0" cy="412" r="5" fill="#16a34a"/><text x="132.0" y="434" fill="#374151" font-size="12" text-anchor="middle">入场 止跌/突破回踩</text><circle cx="451.2" cy="412" r="5" fill="#16a34a"/><text x="451.2" y="434" fill="#374151" font-size="12" text-anchor="middle">止损 73.69</text><circle cx="712.0" cy="412" r="5" fill="#16a34a"/><text x="712.0" y="434" fill="#374151" font-size="12" text-anchor="middle">目标一 93.45</text><circle cx="814.0" cy="412" r="5" fill="#16a34a"/><text x="814.0" y="434" fill="#374151" font-size="12" text-anchor="middle">目标二 100.87</text>
<text x="72" y="482" fill="#dc2626" font-size="14" font-weight="700">日线做空计划</text><rect x="72" y="490" width="790" height="48" rx="6" fill="#f9fafb" stroke="#e5e7eb"/><line x1="94" y1="498" x2="840" y2="498" stroke="#dc2626" stroke-width="3"/><circle cx="132.0" cy="498" r="5" fill="#dc2626"/><text x="132.0" y="520" fill="#374151" font-size="12" text-anchor="middle">入场 反弹承压/破位回抽</text><circle cx="451.2" cy="498" r="5" fill="#dc2626"/><text x="451.2" y="520" fill="#374151" font-size="12" text-anchor="middle">止损 93.45</text><circle cx="712.0" cy="498" r="5" fill="#dc2626"/><text x="712.0" y="520" fill="#374151" font-size="12" text-anchor="middle">目标一 73.69</text><circle cx="814.0" cy="498" r="5" fill="#dc2626"/><text x="814.0" y="520" fill="#374151" font-size="12" text-anchor="middle">目标二 68.75</text>
</svg>