<svg xmlns="http://www.w3.org/2000/svg" width="1080" height="560" viewBox="0 0 1080 560">
<rect width="100%" height="100%" fill="#ffffff"/>
<text x="72" y="23" fill="#111827" font-size="21" font-weight="800">HYPE 日线K线支撑压力图</text>
<text x="862" y="42" fill="#374151" font-size="15" text-anchor="end">最新价 68.22</text>
<line x1="72" y1="34" x2="72" y2="340" stroke="#d1d5db"/>
<line x1="72" y1="340" x2="862" y2="340" stroke="#d1d5db"/>
<line x1="72" y1="340.0" x2="862" y2="340.0" stroke="#f3f4f6"/>
<text x="8" y="345.0" fill="#4b5563" font-size="14">34.97</text>
<line x1="72" y1="263.5" x2="862" y2="263.5" stroke="#f3f4f6"/>
<text x="8" y="268.5" fill="#4b5563" font-size="14">46.54</text>
<line x1="72" y1="187.0" x2="862" y2="187.0" stroke="#f3f4f6"/>
<text x="8" y="192.0" fill="#4b5563" font-size="14">58.10</text>
<line x1="72" y1="110.5" x2="862" y2="110.5" stroke="#f3f4f6"/>
<text x="8" y="115.5" fill="#4b5563" font-size="14">69.67</text>
<line x1="72" y1="34.0" x2="862" y2="34.0" stroke="#f3f4f6"/>
<text x="8" y="39.0" fill="#4b5563" font-size="14">81.23</text>
<line x1="72.0" y1="285.8" x2="72.0" y2="297.0" stroke="#16a34a" stroke-width="1"/><rect x="69.3" y="291.7" width="5.4" height="4.5" fill="#16a34a" opacity="0.82" rx="1"/>
<line x1="80.9" y1="288.1" x2="80.9" y2="305.5" stroke="#dc2626" stroke-width="1"/><rect x="78.2" y="291.7" width="5.4" height="9.5" fill="#dc2626" opacity="0.82" rx="1"/>
<line x1="89.8" y1="276.2" x2="89.8" y2="301.6" stroke="#16a34a" stroke-width="1"/><rect x="87.0" y="278.1" width="5.4" height="23.1" fill="#16a34a" opacity="0.82" rx="1"/>
<line x1="98.6" y1="271.4" x2="98.6" y2="287.4" stroke="#dc2626" stroke-width="1"/><rect x="95.9" y="278.1" width="5.4" height="5.3" fill="#dc2626" opacity="0.82" rx="1"/>
<line x1="107.5" y1="270.6" x2="107.5" y2="286.0" stroke="#16a34a" stroke-width="1"/><rect x="104.8" y="276.1" width="5.4" height="7.3" fill="#16a34a" opacity="0.82" rx="1"/>
<line x1="116.4" y1="268.6" x2="116.4" y2="284.9" stroke="#dc2626" stroke-width="1"/><rect x="113.7" y="276.1" width="5.4" height="5.5" fill="#dc2626" opacity="0.82" rx="1"/>
<line x1="125.3" y1="270.4" x2="125.3" y2="285.8" stroke="#16a34a" stroke-width="1"/><rect x="122.5" y="276.2" width="5.4" height="5.3" fill="#16a34a" opacity="0.82" rx="1"/>
<line x1="134.1" y1="270.7" x2="134.1" y2="282.2" stroke="#dc2626" stroke-width="1"/><rect x="131.4" y="276.2" width="5.4" height="5.6" fill="#dc2626" opacity="0.82" rx="1"/>
<line x1="143.0" y1="280.7" x2="143.0" y2="303.4" stroke="#dc2626" stroke-width="1"/><rect x="140.3" y="281.7" width="5.4" height="20.4" fill="#dc2626" opacity="0.82" rx="1"/>
<line x1="151.9" y1="294.9" x2="151.9" y2="303.0" stroke="#16a34a" stroke-width="1"/><rect x="149.2" y="302.1" width="5.4" height="1.2" fill="#16a34a" opacity="0.82" rx="1"/>
<line x1="160.8" y1="297.3" x2="160.8" y2="314.1" stroke="#dc2626" stroke-width="1"/><rect x="158.0" y="302.1" width="5.4" height="6.2" fill="#dc2626" opacity="0.82" rx="1"/>
<line x1="169.6" y1="295.2" x2="169.6" y2="309.2" stroke="#16a34a" stroke-width="1"/><rect x="166.9" y="299.1" width="5.4" height="9.2" fill="#16a34a" opacity="0.82" rx="1"/>
<line x1="178.5" y1="294.4" x2="178.5" y2="303.3" stroke="#16a34a" stroke-width="1"/><rect x="175.8" y="298.1" width="5.4" height="1.2" fill="#16a34a" opacity="0.82" rx="1"/>
<line x1="187.4" y1="296.6" x2="187.4" y2="302.2" stroke="#dc2626" stroke-width="1"/><rect x="184.7" y="298.1" width="5.4" height="1.2" fill="#dc2626" opacity="0.82" rx="1"/>
<line x1="196.3" y1="294.2" x2="196.3" y2="301.3" stroke="#16a34a" stroke-width="1"/><rect x="193.5" y="296.8" width="5.4" height="2.2" fill="#16a34a" opacity="0.82" rx="1"/>
<line x1="205.1" y1="289.5" x2="205.1" y2="300.5" stroke="#16a34a" stroke-width="1"/><rect x="202.4" y="290.5" width="5.4" height="6.3" fill="#16a34a" opacity="0.82" rx="1"/>
<line x1="214.0" y1="283.2" x2="214.0" y2="298.4" stroke="#dc2626" stroke-width="1"/><rect x="211.3" y="290.5" width="5.4" height="5.4" fill="#dc2626" opacity="0.82" rx="1"/>
<line x1="222.9" y1="294.6" x2="222.9" y2="310.9" stroke="#dc2626" stroke-width="1"/><rect x="220.2" y="295.9" width="5.4" height="9.8" fill="#dc2626" opacity="0.82" rx="1"/>
<line x1="231.8" y1="301.5" x2="231.8" y2="312.3" stroke="#dc2626" stroke-width="1"/><rect x="229.1" y="305.7" width="5.4" height="1.5" fill="#dc2626" opacity="0.82" rx="1"/>
<line x1="240.7" y1="304.6" x2="240.7" y2="315.3" stroke="#dc2626" stroke-width="1"/><rect x="237.9" y="307.2" width="5.4" height="1.6" fill="#dc2626" opacity="0.82" rx="1"/>
<line x1="249.5" y1="299.2" x2="249.5" y2="308.9" stroke="#16a34a" stroke-width="1"/><rect x="246.8" y="299.3" width="5.4" height="9.5" fill="#16a34a" opacity="0.82" rx="1"/>
<line x1="258.4" y1="290.6" x2="258.4" y2="300.2" stroke="#16a34a" stroke-width="1"/><rect x="255.7" y="298.5" width="5.4" height="1.2" fill="#16a34a" opacity="0.82" rx="1"/>
<line x1="267.3" y1="295.3" x2="267.3" y2="302.3" stroke="#16a34a" stroke-width="1"/><rect x="264.6" y="296.5" width="5.4" height="2.0" fill="#16a34a" opacity="0.82" rx="1"/>
<line x1="276.2" y1="289.6" x2="276.2" y2="301.3" stroke="#16a34a" stroke-width="1"/><rect x="273.4" y="294.8" width="5.4" height="1.7" fill="#16a34a" opacity="0.82" rx="1"/>
<line x1="285.0" y1="276.1" x2="285.0" y2="295.0" stroke="#16a34a" stroke-width="1"/><rect x="282.3" y="282.2" width="5.4" height="12.5" fill="#16a34a" opacity="0.82" rx="1"/>
<line x1="293.9" y1="275.3" x2="293.9" y2="287.6" stroke="#dc2626" stroke-width="1"/><rect x="291.2" y="282.2" width="5.4" height="3.8" fill="#dc2626" opacity="0.82" rx="1"/>
<line x1="302.8" y1="283.2" x2="302.8" y2="294.5" stroke="#dc2626" stroke-width="1"/><rect x="300.1" y="286.1" width="5.4" height="4.0" fill="#dc2626" opacity="0.82" rx="1"/>
<line x1="311.7" y1="283.6" x2="311.7" y2="293.3" stroke="#16a34a" stroke-width="1"/><rect x="308.9" y="285.1" width="5.4" height="4.9" fill="#16a34a" opacity="0.82" rx="1"/>
<line x1="320.5" y1="277.5" x2="320.5" y2="288.0" stroke="#dc2626" stroke-width="1"/><rect x="317.8" y="285.1" width="5.4" height="2.3" fill="#dc2626" opacity="0.82" rx="1"/>
<line x1="329.4" y1="282.3" x2="329.4" y2="292.8" stroke="#16a34a" stroke-width="1"/><rect x="326.7" y="286.8" width="5.4" height="1.2" fill="#16a34a" opacity="0.82" rx="1"/>
<line x1="338.3" y1="285.9" x2="338.3" y2="301.3" stroke="#dc2626" stroke-width="1"/><rect x="335.6" y="286.8" width="5.4" height="6.7" fill="#dc2626" opacity="0.82" rx="1"/>
<line x1="347.2" y1="293.2" x2="347.2" y2="308.2" stroke="#dc2626" stroke-width="1"/><rect x="344.4" y="293.5" width="5.4" height="11.5" fill="#dc2626" opacity="0.82" rx="1"/>
<line x1="356.0" y1="302.1" x2="356.0" y2="315.2" stroke="#dc2626" stroke-width="1"/><rect x="353.3" y="305.1" width="5.4" height="9.5" fill="#dc2626" opacity="0.82" rx="1"/>
<line x1="364.9" y1="275.3" x2="364.9" y2="318.9" stroke="#16a34a" stroke-width="1"/><rect x="362.2" y="279.4" width="5.4" height="35.2" fill="#16a34a" opacity="0.82" rx="1"/>
<line x1="373.8" y1="260.1" x2="373.8" y2="288.2" stroke="#16a34a" stroke-width="1"/><rect x="371.1" y="279.3" width="5.4" height="1.2" fill="#16a34a" opacity="0.82" rx="1"/>
<line x1="382.7" y1="277.1" x2="382.7" y2="304.3" stroke="#dc2626" stroke-width="1"/><rect x="380.0" y="279.3" width="5.4" height="15.5" fill="#dc2626" opacity="0.82" rx="1"/>
<line x1="391.6" y1="259.5" x2="391.6" y2="297.9" stroke="#16a34a" stroke-width="1"/><rect x="388.8" y="269.1" width="5.4" height="25.6" fill="#16a34a" opacity="0.82" rx="1"/>
<line x1="400.4" y1="253.8" x2="400.4" y2="279.0" stroke="#16a34a" stroke-width="1"/><rect x="397.7" y="255.4" width="5.4" height="13.7" fill="#16a34a" opacity="0.82" rx="1"/>
<line x1="409.3" y1="247.9" x2="409.3" y2="261.8" stroke="#16a34a" stroke-width="1"/><rect x="406.6" y="253.8" width="5.4" height="1.6" fill="#16a34a" opacity="0.82" rx="1"/>
<line x1="418.2" y1="208.6" x2="418.2" y2="259.9" stroke="#16a34a" stroke-width="1"/><rect x="415.5" y="208.6" width="5.4" height="45.2" fill="#16a34a" opacity="0.82" rx="1"/>
<line x1="427.1" y1="157.3" x2="427.1" y2="209.4" stroke="#16a34a" stroke-width="1"/><rect x="424.3" y="183.9" width="5.4" height="24.8" fill="#16a34a" opacity="0.82" rx="1"/>
<line x1="435.9" y1="161.5" x2="435.9" y2="212.3" stroke="#dc2626" stroke-width="1"/><rect x="433.2" y="183.9" width="5.4" height="26.4" fill="#dc2626" opacity="0.82" rx="1"/>
<line x1="444.8" y1="175.1" x2="444.8" y2="214.1" stroke="#16a34a" stroke-width="1"/><rect x="442.1" y="183.0" width="5.4" height="27.3" fill="#16a34a" opacity="0.82" rx="1"/>
<line x1="453.7" y1="144.7" x2="453.7" y2="183.6" stroke="#16a34a" stroke-width="1"/><rect x="451.0" y="156.3" width="5.4" height="26.7" fill="#16a34a" opacity="0.82" rx="1"/>
<line x1="462.6" y1="148.7" x2="462.6" y2="169.8" stroke="#dc2626" stroke-width="1"/><rect x="459.8" y="156.2" width="5.4" height="11.0" fill="#dc2626" opacity="0.82" rx="1"/>
<line x1="471.4" y1="143.1" x2="471.4" y2="184.0" stroke="#dc2626" stroke-width="1"/><rect x="468.7" y="167.2" width="5.4" height="10.5" fill="#dc2626" opacity="0.82" rx="1"/>
<line x1="480.3" y1="152.5" x2="480.3" y2="193.9" stroke="#dc2626" stroke-width="1"/><rect x="477.6" y="177.7" width="5.4" height="12.5" fill="#dc2626" opacity="0.82" rx="1"/>
<line x1="489.2" y1="160.3" x2="489.2" y2="199.3" stroke="#16a34a" stroke-width="1"/><rect x="486.5" y="164.4" width="5.4" height="25.8" fill="#16a34a" opacity="0.82" rx="1"/>
<line x1="498.1" y1="125.4" x2="498.1" y2="172.3" stroke="#16a34a" stroke-width="1"/><rect x="495.3" y="145.3" width="5.4" height="19.1" fill="#16a34a" opacity="0.82" rx="1"/>
<line x1="506.9" y1="117.3" x2="506.9" y2="148.0" stroke="#16a34a" stroke-width="1"/><rect x="504.2" y="119.6" width="5.4" height="25.7" fill="#16a34a" opacity="0.82" rx="1"/>
<line x1="515.8" y1="87.7" x2="515.8" y2="125.1" stroke="#16a34a" stroke-width="1"/><rect x="513.1" y="94.7" width="5.4" height="24.8" fill="#16a34a" opacity="0.82" rx="1"/>
<line x1="524.7" y1="69.8" x2="524.7" y2="105.6" stroke="#16a34a" stroke-width="1"/><rect x="522.0" y="84.6" width="5.4" height="9.8" fill="#16a34a" opacity="0.82" rx="1"/>
<line x1="533.6" y1="71.0" x2="533.6" y2="122.6" stroke="#dc2626" stroke-width="1"/><rect x="530.9" y="84.6" width="5.4" height="24.8" fill="#dc2626" opacity="0.82" rx="1"/>
<line x1="542.4" y1="71.3" x2="542.4" y2="119.7" stroke="#16a34a" stroke-width="1"/><rect x="539.7" y="78.1" width="5.4" height="31.4" fill="#16a34a" opacity="0.82" rx="1"/>
<line x1="551.3" y1="71.9" x2="551.3" y2="154.6" stroke="#dc2626" stroke-width="1"/><rect x="548.6" y="78.0" width="5.4" height="67.1" fill="#dc2626" opacity="0.82" rx="1"/>
<line x1="560.2" y1="134.6" x2="560.2" y2="196.4" stroke="#dc2626" stroke-width="1"/><rect x="557.5" y="145.2" width="5.4" height="30.4" fill="#dc2626" opacity="0.82" rx="1"/>
<line x1="569.1" y1="166.4" x2="569.1" y2="204.4" stroke="#dc2626" stroke-width="1"/><rect x="566.4" y="175.7" width="5.4" height="21.8" fill="#dc2626" opacity="0.82" rx="1"/>
<line x1="578.0" y1="171.5" x2="578.0" y2="200.2" stroke="#16a34a" stroke-width="1"/><rect x="575.2" y="176.1" width="5.4" height="21.3" fill="#16a34a" opacity="0.82" rx="1"/>
<line x1="586.8" y1="136.1" x2="586.8" y2="179.1" stroke="#16a34a" stroke-width="1"/><rect x="584.1" y="149.1" width="5.4" height="27.0" fill="#16a34a" opacity="0.82" rx="1"/>
<line x1="595.7" y1="147.7" x2="595.7" y2="192.4" stroke="#dc2626" stroke-width="1"/><rect x="593.0" y="149.0" width="5.4" height="40.2" fill="#dc2626" opacity="0.82" rx="1"/>
<line x1="604.6" y1="185.4" x2="604.6" y2="223.3" stroke="#dc2626" stroke-width="1"/><rect x="601.9" y="189.1" width="5.4" height="29.7" fill="#dc2626" opacity="0.82" rx="1"/>
<line x1="613.5" y1="176.8" x2="613.5" y2="221.7" stroke="#16a34a" stroke-width="1"/><rect x="610.7" y="181.5" width="5.4" height="37.3" fill="#16a34a" opacity="0.82" rx="1"/>
<line x1="622.3" y1="158.4" x2="622.3" y2="195.7" stroke="#16a34a" stroke-width="1"/><rect x="619.6" y="179.3" width="5.4" height="2.2" fill="#16a34a" opacity="0.82" rx="1"/>
<line x1="631.2" y1="168.6" x2="631.2" y2="193.2" stroke="#16a34a" stroke-width="1"/><rect x="628.5" y="169.8" width="5.4" height="9.5" fill="#16a34a" opacity="0.82" rx="1"/>
<line x1="640.1" y1="147.1" x2="640.1" y2="177.1" stroke="#16a34a" stroke-width="1"/><rect x="637.4" y="148.5" width="5.4" height="21.4" fill="#16a34a" opacity="0.82" rx="1"/>
<line x1="649.0" y1="116.9" x2="649.0" y2="153.8" stroke="#16a34a" stroke-width="1"/><rect x="646.2" y="128.9" width="5.4" height="19.6" fill="#16a34a" opacity="0.82" rx="1"/>
<line x1="657.8" y1="62.0" x2="657.8" y2="132.4" stroke="#16a34a" stroke-width="1"/><rect x="655.1" y="84.6" width="5.4" height="44.3" fill="#16a34a" opacity="0.82" rx="1"/>
<line x1="666.7" y1="63.5" x2="666.7" y2="108.7" stroke="#dc2626" stroke-width="1"/><rect x="664.0" y="84.6" width="5.4" height="16.1" fill="#dc2626" opacity="0.82" rx="1"/>
<line x1="675.6" y1="83.7" x2="675.6" y2="131.1" stroke="#dc2626" stroke-width="1"/><rect x="672.9" y="100.7" width="5.4" height="18.5" fill="#dc2626" opacity="0.82" rx="1"/>
<line x1="684.5" y1="99.1" x2="684.5" y2="137.2" stroke="#16a34a" stroke-width="1"/><rect x="681.8" y="106.6" width="5.4" height="12.7" fill="#16a34a" opacity="0.82" rx="1"/>
<line x1="693.3" y1="98.9" x2="693.3" y2="118.9" stroke="#16a34a" stroke-width="1"/><rect x="690.6" y="103.4" width="5.4" height="3.2" fill="#16a34a" opacity="0.82" rx="1"/>
<line x1="702.2" y1="102.3" x2="702.2" y2="131.3" stroke="#dc2626" stroke-width="1"/><rect x="699.5" y="103.4" width="5.4" height="25.4" fill="#dc2626" opacity="0.82" rx="1"/>
<line x1="711.1" y1="111.1" x2="711.1" y2="140.7" stroke="#dc2626" stroke-width="1"/><rect x="708.4" y="128.8" width="5.4" height="4.3" fill="#dc2626" opacity="0.82" rx="1"/>
<line x1="720.0" y1="125.9" x2="720.0" y2="163.7" stroke="#dc2626" stroke-width="1"/><rect x="717.3" y="133.1" width="5.4" height="27.2" fill="#dc2626" opacity="0.82" rx="1"/>
<line x1="728.9" y1="146.2" x2="728.9" y2="180.7" stroke="#16a34a" stroke-width="1"/><rect x="726.1" y="148.7" width="5.4" height="11.5" fill="#16a34a" opacity="0.82" rx="1"/>
<line x1="737.7" y1="138.7" x2="737.7" y2="185.5" stroke="#16a34a" stroke-width="1"/><rect x="735.0" y="147.5" width="5.4" height="1.2" fill="#16a34a" opacity="0.82" rx="1"/>
<line x1="746.6" y1="138.5" x2="746.6" y2="168.6" stroke="#16a34a" stroke-width="1"/><rect x="743.9" y="145.8" width="5.4" height="1.7" fill="#16a34a" opacity="0.82" rx="1"/>
<line x1="755.5" y1="143.3" x2="755.5" y2="164.9" stroke="#dc2626" stroke-width="1"/><rect x="752.8" y="145.8" width="5.4" height="18.0" fill="#dc2626" opacity="0.82" rx="1"/>
<line x1="764.4" y1="151.2" x2="764.4" y2="170.8" stroke="#dc2626" stroke-width="1"/><rect x="761.6" y="163.7" width="5.4" height="1.5" fill="#dc2626" opacity="0.82" rx="1"/>
<line x1="773.2" y1="123.1" x2="773.2" y2="169.9" stroke="#16a34a" stroke-width="1"/><rect x="770.5" y="128.8" width="5.4" height="36.3" fill="#16a34a" opacity="0.82" rx="1"/>
<line x1="782.1" y1="128.6" x2="782.1" y2="147.3" stroke="#dc2626" stroke-width="1"/><rect x="779.4" y="128.9" width="5.4" height="12.4" fill="#dc2626" opacity="0.82" rx="1"/>
<line x1="791.0" y1="134.8" x2="791.0" y2="162.3" stroke="#dc2626" stroke-width="1"/><rect x="788.3" y="141.2" width="5.4" height="17.7" fill="#dc2626" opacity="0.82" rx="1"/>
<line x1="799.9" y1="127.2" x2="799.9" y2="163.6" stroke="#16a34a" stroke-width="1"/><rect x="797.1" y="128.8" width="5.4" height="30.1" fill="#16a34a" opacity="0.82" rx="1"/>
<line x1="808.7" y1="99.9" x2="808.7" y2="135.8" stroke="#16a34a" stroke-width="1"/><rect x="806.0" y="104.1" width="5.4" height="24.8" fill="#16a34a" opacity="0.82" rx="1"/>
<line x1="817.6" y1="95.1" x2="817.6" y2="112.6" stroke="#dc2626" stroke-width="1"/><rect x="814.9" y="104.1" width="5.4" height="5.3" fill="#dc2626" opacity="0.82" rx="1"/>
<line x1="826.5" y1="97.0" x2="826.5" y2="120.2" stroke="#16a34a" stroke-width="1"/><rect x="823.8" y="99.5" width="5.4" height="9.8" fill="#16a34a" opacity="0.82" rx="1"/>
<line x1="835.4" y1="91.1" x2="835.4" y2="117.4" stroke="#dc2626" stroke-width="1"/><rect x="832.6" y="99.5" width="5.4" height="4.9" fill="#dc2626" opacity="0.82" rx="1"/>
<line x1="844.2" y1="89.0" x2="844.2" y2="116.2" stroke="#dc2626" stroke-width="1"/><rect x="841.5" y="104.5" width="5.4" height="9.5" fill="#dc2626" opacity="0.82" rx="1"/>
<line x1="853.1" y1="110.0" x2="853.1" y2="134.1" stroke="#dc2626" stroke-width="1"/><rect x="850.4" y="113.9" width="5.4" height="10.1" fill="#dc2626" opacity="0.82" rx="1"/>
<line x1="862.0" y1="118.8" x2="862.0" y2="128.2" stroke="#16a34a" stroke-width="1"/><rect x="859.3" y="120.1" width="5.4" height="3.9" fill="#16a34a" opacity="0.82" rx="1"/>
<line x1="72" y1="159.1" x2="862" y2="159.1" stroke="#16a34a" stroke-width="1.8" stroke-dasharray="6 4" /><rect x="874" y="139.1" width="166" height="23" rx="5" fill="#ffffff" stroke="#16a34a" opacity="0.97"/><text x="881" y="155.1" fill="#16a34a" font-size="15" font-weight="700">支撑 62.32</text>
<line x1="72" y1="55.1" x2="862" y2="55.1" stroke="#dc2626" stroke-width="1.8" stroke-dasharray="6 4" /><rect x="874" y="35.1" width="166" height="23" rx="5" fill="#ffffff" stroke="#dc2626" opacity="0.97"/><text x="881" y="51.1" fill="#dc2626" font-size="15" font-weight="700">压力 78.04</text>
<line x1="72" y1="120.1" x2="862" y2="120.1" stroke="#111827" stroke-width="1.8" stroke-dasharray="2 2" /><rect x="874" y="100.1" width="166" height="23" rx="5" fill="#ffffff" stroke="#111827" opacity="0.97"/><text x="881" y="116.1" fill="#111827" font-size="15" font-weight="700">现价 68.22</text>
<text x="72" y="396" fill="#16a34a" font-size="14" font-weight="700">日线做多计划</text><rect x="72" y="404" width="790" height="48" rx="6" fill="#f9fafb" stroke="#e5e7eb"/><line x1="94" y1="412" x2="840" y2="412" stroke="#16a34a" stroke-width="3"/><circle cx="132.0" cy="412" r="5" fill="#16a34a"/><text x="132.0" y="434" fill="#374151" font-size="12" text-anchor="middle">入场 止跌/突破回踩</text><circle cx="451.2" cy="412" r="5" fill="#16a34a"/><text x="451.2" y="434" fill="#374151" font-size="12" text-anchor="middle">止损 62.32</text><circle cx="712.0" cy="412" r="5" fill="#16a34a"/><text x="712.0" y="434" fill="#374151" font-size="12" text-anchor="middle">目标一 78.04</text><circle cx="814.0" cy="412" r="5" fill="#16a34a"/><text x="814.0" y="434" fill="#374151" font-size="12" text-anchor="middle">目标二 83.94</text>
<text x="72" y="482" fill="#dc2626" font-size="14" font-weight="700">日线做空计划</text><rect x="72" y="490" width="790" height="48" rx="6" fill="#f9fafb" stroke="#e5e7eb"/><line x1="94" y1="498" x2="840" y2="498" stroke="#dc2626" stroke-width="3"/><circle cx="132.0" cy="498" r="5" fill="#dc2626"/><text x="132.0" y="520" fill="#374151" font-size="12" text-anchor="middle">入场 反弹承压/破位回抽</text><circle cx="451.2" cy="498" r="5" fill="#dc2626"/><text x="451.2" y="520" fill="#374151" font-size="12" text-anchor="middle">止损 78.04</text><circle cx="712.0" cy="498" r="5" fill="#dc2626"/><text x="712.0" y="520" fill="#374151" font-size="12" text-anchor="middle">目标一 62.32</text><circle cx="814.0" cy="498" r="5" fill="#dc2626"/><text x="814.0" y="520" fill="#374151" font-size="12" text-anchor="middle">目标二 58.39</text>
</svg>