<svg xmlns="http://www.w3.org/2000/svg" width="1080" height="560" viewBox="0 0 1080 560">
<rect width="100%" height="100%" fill="#ffffff"/>
<text x="72" y="23" fill="#111827" font-size="21" font-weight="800">HYPE 小时线K线支撑压力图</text>
<text x="862" y="42" fill="#374151" font-size="15" text-anchor="end">最新价 67.57</text>
<line x1="72" y1="34" x2="72" y2="340" stroke="#d1d5db"/>
<line x1="72" y1="340" x2="862" y2="340" stroke="#d1d5db"/>
<line x1="72" y1="340.0" x2="862" y2="340.0" stroke="#f3f4f6"/>
<text x="8" y="345.0" fill="#4b5563" font-size="14">65.55</text>
<line x1="72" y1="263.5" x2="862" y2="263.5" stroke="#f3f4f6"/>
<text x="8" y="268.5" fill="#4b5563" font-size="14">67.53</text>
<line x1="72" y1="187.0" x2="862" y2="187.0" stroke="#f3f4f6"/>
<text x="8" y="192.0" fill="#4b5563" font-size="14">69.51</text>
<line x1="72" y1="110.5" x2="862" y2="110.5" stroke="#f3f4f6"/>
<text x="8" y="115.5" fill="#4b5563" font-size="14">71.48</text>
<line x1="72" y1="34.0" x2="862" y2="34.0" stroke="#f3f4f6"/>
<text x="8" y="39.0" fill="#4b5563" font-size="14">73.46</text>
<line x1="72.0" y1="218.0" x2="72.0" y2="232.0" stroke="#16a34a" stroke-width="1"/><rect x="69.3" y="219.1" width="5.4" height="3.2" fill="#16a34a" opacity="0.82" rx="1"/>
<line x1="80.9" y1="208.4" x2="80.9" y2="227.5" stroke="#16a34a" stroke-width="1"/><rect x="78.2" y="211.2" width="5.4" height="7.8" fill="#16a34a" opacity="0.82" rx="1"/>
<line x1="89.8" y1="209.1" x2="89.8" y2="232.4" stroke="#dc2626" stroke-width="1"/><rect x="87.0" y="212.0" width="5.4" height="15.5" fill="#dc2626" opacity="0.82" rx="1"/>
<line x1="98.6" y1="203.0" x2="98.6" y2="231.4" stroke="#16a34a" stroke-width="1"/><rect x="95.9" y="208.1" width="5.4" height="19.5" fill="#16a34a" opacity="0.82" rx="1"/>
<line x1="107.5" y1="205.2" x2="107.5" y2="227.5" stroke="#dc2626" stroke-width="1"/><rect x="104.8" y="208.1" width="5.4" height="5.1" fill="#dc2626" opacity="0.82" rx="1"/>
<line x1="116.4" y1="188.4" x2="116.4" y2="220.2" stroke="#16a34a" stroke-width="1"/><rect x="113.7" y="200.0" width="5.4" height="12.8" fill="#16a34a" opacity="0.82" rx="1"/>
<line x1="125.3" y1="185.1" x2="125.3" y2="203.8" stroke="#16a34a" stroke-width="1"/><rect x="122.5" y="197.3" width="5.4" height="2.7" fill="#16a34a" opacity="0.82" rx="1"/>
<line x1="134.1" y1="188.7" x2="134.1" y2="207.0" stroke="#16a34a" stroke-width="1"/><rect x="131.4" y="190.0" width="5.4" height="7.4" fill="#16a34a" opacity="0.82" rx="1"/>
<line x1="143.0" y1="173.5" x2="143.0" y2="194.0" stroke="#16a34a" stroke-width="1"/><rect x="140.3" y="186.7" width="5.4" height="3.3" fill="#16a34a" opacity="0.82" rx="1"/>
<line x1="151.9" y1="186.3" x2="151.9" y2="200.8" stroke="#dc2626" stroke-width="1"/><rect x="149.2" y="186.8" width="5.4" height="6.0" fill="#dc2626" opacity="0.82" rx="1"/>
<line x1="160.8" y1="187.9" x2="160.8" y2="202.3" stroke="#dc2626" stroke-width="1"/><rect x="158.0" y="193.0" width="5.4" height="5.1" fill="#dc2626" opacity="0.82" rx="1"/>
<line x1="169.6" y1="192.0" x2="169.6" y2="202.8" stroke="#16a34a" stroke-width="1"/><rect x="166.9" y="197.8" width="5.4" height="1.2" fill="#16a34a" opacity="0.82" rx="1"/>
<line x1="178.5" y1="170.8" x2="178.5" y2="199.0" stroke="#16a34a" stroke-width="1"/><rect x="175.8" y="177.3" width="5.4" height="20.5" fill="#16a34a" opacity="0.82" rx="1"/>
<line x1="187.4" y1="132.6" x2="187.4" y2="179.0" stroke="#16a34a" stroke-width="1"/><rect x="184.7" y="134.7" width="5.4" height="42.4" fill="#16a34a" opacity="0.82" rx="1"/>
<line x1="196.3" y1="116.6" x2="196.3" y2="150.1" stroke="#16a34a" stroke-width="1"/><rect x="193.5" y="128.6" width="5.4" height="5.7" fill="#16a34a" opacity="0.82" rx="1"/>
<line x1="205.1" y1="101.9" x2="205.1" y2="134.7" stroke="#16a34a" stroke-width="1"/><rect x="202.4" y="108.6" width="5.4" height="19.9" fill="#16a34a" opacity="0.82" rx="1"/>
<line x1="214.0" y1="106.9" x2="214.0" y2="128.9" stroke="#dc2626" stroke-width="1"/><rect x="211.3" y="108.8" width="5.4" height="7.7" fill="#dc2626" opacity="0.82" rx="1"/>
<line x1="222.9" y1="71.6" x2="222.9" y2="124.7" stroke="#16a34a" stroke-width="1"/><rect x="220.2" y="72.1" width="5.4" height="44.4" fill="#16a34a" opacity="0.82" rx="1"/>
<line x1="231.8" y1="67.3" x2="231.8" y2="102.7" stroke="#dc2626" stroke-width="1"/><rect x="229.1" y="72.1" width="5.4" height="26.1" fill="#dc2626" opacity="0.82" rx="1"/>
<line x1="240.7" y1="76.7" x2="240.7" y2="109.4" stroke="#16a34a" stroke-width="1"/><rect x="237.9" y="82.1" width="5.4" height="16.2" fill="#16a34a" opacity="0.82" rx="1"/>
<line x1="249.5" y1="75.8" x2="249.5" y2="118.3" stroke="#dc2626" stroke-width="1"/><rect x="246.8" y="82.1" width="5.4" height="24.4" fill="#dc2626" opacity="0.82" rx="1"/>
<line x1="258.4" y1="100.0" x2="258.4" y2="126.0" stroke="#dc2626" stroke-width="1"/><rect x="255.7" y="106.6" width="5.4" height="1.2" fill="#dc2626" opacity="0.82" rx="1"/>
<line x1="267.3" y1="101.3" x2="267.3" y2="143.3" stroke="#dc2626" stroke-width="1"/><rect x="264.6" y="107.3" width="5.4" height="33.3" fill="#dc2626" opacity="0.82" rx="1"/>
<line x1="276.2" y1="121.8" x2="276.2" y2="143.1" stroke="#16a34a" stroke-width="1"/><rect x="273.4" y="124.0" width="5.4" height="16.7" fill="#16a34a" opacity="0.82" rx="1"/>
<line x1="285.0" y1="121.4" x2="285.0" y2="138.6" stroke="#dc2626" stroke-width="1"/><rect x="282.3" y="124.0" width="5.4" height="12.1" fill="#dc2626" opacity="0.82" rx="1"/>
<line x1="293.9" y1="125.9" x2="293.9" y2="167.1" stroke="#dc2626" stroke-width="1"/><rect x="291.2" y="136.0" width="5.4" height="21.5" fill="#dc2626" opacity="0.82" rx="1"/>
<line x1="302.8" y1="155.3" x2="302.8" y2="177.8" stroke="#dc2626" stroke-width="1"/><rect x="300.1" y="157.5" width="5.4" height="12.8" fill="#dc2626" opacity="0.82" rx="1"/>
<line x1="311.7" y1="145.6" x2="311.7" y2="170.4" stroke="#16a34a" stroke-width="1"/><rect x="308.9" y="152.5" width="5.4" height="17.8" fill="#16a34a" opacity="0.82" rx="1"/>
<line x1="320.5" y1="129.9" x2="320.5" y2="172.6" stroke="#dc2626" stroke-width="1"/><rect x="317.8" y="152.5" width="5.4" height="16.1" fill="#dc2626" opacity="0.82" rx="1"/>
<line x1="329.4" y1="165.6" x2="329.4" y2="206.0" stroke="#dc2626" stroke-width="1"/><rect x="326.7" y="168.0" width="5.4" height="34.3" fill="#dc2626" opacity="0.82" rx="1"/>
<line x1="338.3" y1="173.3" x2="338.3" y2="221.3" stroke="#16a34a" stroke-width="1"/><rect x="335.6" y="181.9" width="5.4" height="20.5" fill="#16a34a" opacity="0.82" rx="1"/>
<line x1="347.2" y1="156.7" x2="347.2" y2="189.0" stroke="#16a34a" stroke-width="1"/><rect x="344.4" y="175.6" width="5.4" height="6.1" fill="#16a34a" opacity="0.82" rx="1"/>
<line x1="356.0" y1="136.2" x2="356.0" y2="175.6" stroke="#16a34a" stroke-width="1"/><rect x="353.3" y="140.6" width="5.4" height="35.0" fill="#16a34a" opacity="0.82" rx="1"/>
<line x1="364.9" y1="119.3" x2="364.9" y2="142.2" stroke="#16a34a" stroke-width="1"/><rect x="362.2" y="119.3" width="5.4" height="20.8" fill="#16a34a" opacity="0.82" rx="1"/>
<line x1="373.8" y1="107.9" x2="373.8" y2="131.3" stroke="#dc2626" stroke-width="1"/><rect x="371.1" y="119.3" width="5.4" height="7.5" fill="#dc2626" opacity="0.82" rx="1"/>
<line x1="382.7" y1="106.0" x2="382.7" y2="128.0" stroke="#16a34a" stroke-width="1"/><rect x="380.0" y="121.9" width="5.4" height="4.8" fill="#16a34a" opacity="0.82" rx="1"/>
<line x1="391.6" y1="101.7" x2="391.6" y2="124.9" stroke="#16a34a" stroke-width="1"/><rect x="388.8" y="105.7" width="5.4" height="16.2" fill="#16a34a" opacity="0.82" rx="1"/>
<line x1="400.4" y1="106.1" x2="400.4" y2="137.0" stroke="#dc2626" stroke-width="1"/><rect x="397.7" y="106.4" width="5.4" height="26.0" fill="#dc2626" opacity="0.82" rx="1"/>
<line x1="409.3" y1="101.1" x2="409.3" y2="135.8" stroke="#16a34a" stroke-width="1"/><rect x="406.6" y="105.9" width="5.4" height="26.5" fill="#16a34a" opacity="0.82" rx="1"/>
<line x1="418.2" y1="105.3" x2="418.2" y2="130.1" stroke="#dc2626" stroke-width="1"/><rect x="415.5" y="105.7" width="5.4" height="20.1" fill="#dc2626" opacity="0.82" rx="1"/>
<line x1="427.1" y1="124.2" x2="427.1" y2="148.6" stroke="#dc2626" stroke-width="1"/><rect x="424.3" y="125.5" width="5.4" height="19.8" fill="#dc2626" opacity="0.82" rx="1"/>
<line x1="435.9" y1="90.5" x2="435.9" y2="151.5" stroke="#16a34a" stroke-width="1"/><rect x="433.2" y="92.1" width="5.4" height="53.4" fill="#16a34a" opacity="0.82" rx="1"/>
<line x1="444.8" y1="92.1" x2="444.8" y2="124.5" stroke="#dc2626" stroke-width="1"/><rect x="442.1" y="92.1" width="5.4" height="31.7" fill="#dc2626" opacity="0.82" rx="1"/>
<line x1="453.7" y1="120.0" x2="453.7" y2="149.7" stroke="#dc2626" stroke-width="1"/><rect x="451.0" y="123.8" width="5.4" height="19.2" fill="#dc2626" opacity="0.82" rx="1"/>
<line x1="462.6" y1="139.8" x2="462.6" y2="165.4" stroke="#dc2626" stroke-width="1"/><rect x="459.8" y="143.2" width="5.4" height="18.2" fill="#dc2626" opacity="0.82" rx="1"/>
<line x1="471.4" y1="159.5" x2="471.4" y2="180.7" stroke="#dc2626" stroke-width="1"/><rect x="468.7" y="161.3" width="5.4" height="1.2" fill="#dc2626" opacity="0.82" rx="1"/>
<line x1="480.3" y1="151.2" x2="480.3" y2="189.0" stroke="#16a34a" stroke-width="1"/><rect x="477.6" y="160.9" width="5.4" height="1.2" fill="#16a34a" opacity="0.82" rx="1"/>
<line x1="489.2" y1="129.9" x2="489.2" y2="166.4" stroke="#16a34a" stroke-width="1"/><rect x="486.5" y="133.0" width="5.4" height="27.9" fill="#16a34a" opacity="0.82" rx="1"/>
<line x1="498.1" y1="118.5" x2="498.1" y2="148.6" stroke="#dc2626" stroke-width="1"/><rect x="495.3" y="133.1" width="5.4" height="13.5" fill="#dc2626" opacity="0.82" rx="1"/>
<line x1="506.9" y1="127.2" x2="506.9" y2="148.6" stroke="#16a34a" stroke-width="1"/><rect x="504.2" y="129.4" width="5.4" height="17.2" fill="#16a34a" opacity="0.82" rx="1"/>
<line x1="515.8" y1="105.7" x2="515.8" y2="134.3" stroke="#16a34a" stroke-width="1"/><rect x="513.1" y="118.2" width="5.4" height="10.5" fill="#16a34a" opacity="0.82" rx="1"/>
<line x1="524.7" y1="96.5" x2="524.7" y2="120.4" stroke="#16a34a" stroke-width="1"/><rect x="522.0" y="115.3" width="5.4" height="2.9" fill="#16a34a" opacity="0.82" rx="1"/>
<line x1="533.6" y1="93.5" x2="533.6" y2="123.4" stroke="#16a34a" stroke-width="1"/><rect x="530.9" y="93.9" width="5.4" height="21.4" fill="#16a34a" opacity="0.82" rx="1"/>
<line x1="542.4" y1="71.1" x2="542.4" y2="98.1" stroke="#16a34a" stroke-width="1"/><rect x="539.7" y="89.6" width="5.4" height="4.0" fill="#16a34a" opacity="0.82" rx="1"/>
<line x1="551.3" y1="86.9" x2="551.3" y2="124.7" stroke="#dc2626" stroke-width="1"/><rect x="548.6" y="89.6" width="5.4" height="31.4" fill="#dc2626" opacity="0.82" rx="1"/>
<line x1="560.2" y1="76.2" x2="560.2" y2="135.5" stroke="#16a34a" stroke-width="1"/><rect x="557.5" y="77.5" width="5.4" height="43.3" fill="#16a34a" opacity="0.82" rx="1"/>
<line x1="569.1" y1="55.1" x2="569.1" y2="94.6" stroke="#dc2626" stroke-width="1"/><rect x="566.4" y="78.0" width="5.4" height="14.2" fill="#dc2626" opacity="0.82" rx="1"/>
<line x1="578.0" y1="77.6" x2="578.0" y2="107.7" stroke="#dc2626" stroke-width="1"/><rect x="575.2" y="92.1" width="5.4" height="12.1" fill="#dc2626" opacity="0.82" rx="1"/>
<line x1="586.8" y1="89.1" x2="586.8" y2="114.5" stroke="#dc2626" stroke-width="1"/><rect x="584.1" y="104.2" width="5.4" height="1.2" fill="#dc2626" opacity="0.82" rx="1"/>
<line x1="595.7" y1="94.5" x2="595.7" y2="163.5" stroke="#dc2626" stroke-width="1"/><rect x="593.0" y="104.7" width="5.4" height="56.1" fill="#dc2626" opacity="0.82" rx="1"/>
<line x1="604.6" y1="152.0" x2="604.6" y2="189.0" stroke="#dc2626" stroke-width="1"/><rect x="601.9" y="161.0" width="5.4" height="2.5" fill="#dc2626" opacity="0.82" rx="1"/>
<line x1="613.5" y1="154.4" x2="613.5" y2="173.1" stroke="#16a34a" stroke-width="1"/><rect x="610.7" y="161.3" width="5.4" height="2.7" fill="#16a34a" opacity="0.82" rx="1"/>
<line x1="622.3" y1="150.1" x2="622.3" y2="214.4" stroke="#dc2626" stroke-width="1"/><rect x="619.6" y="161.3" width="5.4" height="33.8" fill="#dc2626" opacity="0.82" rx="1"/>
<line x1="631.2" y1="177.8" x2="631.2" y2="210.8" stroke="#16a34a" stroke-width="1"/><rect x="628.5" y="179.5" width="5.4" height="15.6" fill="#16a34a" opacity="0.82" rx="1"/>
<line x1="640.1" y1="172.1" x2="640.1" y2="203.3" stroke="#dc2626" stroke-width="1"/><rect x="637.4" y="179.6" width="5.4" height="21.3" fill="#dc2626" opacity="0.82" rx="1"/>
<line x1="649.0" y1="177.9" x2="649.0" y2="203.3" stroke="#16a34a" stroke-width="1"/><rect x="646.2" y="189.3" width="5.4" height="11.5" fill="#16a34a" opacity="0.82" rx="1"/>
<line x1="657.8" y1="185.7" x2="657.8" y2="264.7" stroke="#dc2626" stroke-width="1"/><rect x="655.1" y="189.2" width="5.4" height="52.3" fill="#dc2626" opacity="0.82" rx="1"/>
<line x1="666.7" y1="232.1" x2="666.7" y2="275.7" stroke="#16a34a" stroke-width="1"/><rect x="664.0" y="237.2" width="5.4" height="4.3" fill="#16a34a" opacity="0.82" rx="1"/>
<line x1="675.6" y1="226.0" x2="675.6" y2="251.6" stroke="#dc2626" stroke-width="1"/><rect x="672.9" y="237.2" width="5.4" height="8.4" fill="#dc2626" opacity="0.82" rx="1"/>
<line x1="684.5" y1="232.4" x2="684.5" y2="253.8" stroke="#16a34a" stroke-width="1"/><rect x="681.8" y="238.0" width="5.4" height="7.4" fill="#16a34a" opacity="0.82" rx="1"/>
<line x1="693.3" y1="229.1" x2="693.3" y2="244.7" stroke="#16a34a" stroke-width="1"/><rect x="690.6" y="232.1" width="5.4" height="5.9" fill="#16a34a" opacity="0.82" rx="1"/>
<line x1="702.2" y1="230.4" x2="702.2" y2="253.0" stroke="#dc2626" stroke-width="1"/><rect x="699.5" y="232.0" width="5.4" height="7.3" fill="#dc2626" opacity="0.82" rx="1"/>
<line x1="711.1" y1="230.4" x2="711.1" y2="256.5" stroke="#16a34a" stroke-width="1"/><rect x="708.4" y="236.0" width="5.4" height="3.2" fill="#16a34a" opacity="0.82" rx="1"/>
<line x1="720.0" y1="229.1" x2="720.0" y2="270.8" stroke="#dc2626" stroke-width="1"/><rect x="717.3" y="236.0" width="5.4" height="10.3" fill="#dc2626" opacity="0.82" rx="1"/>
<line x1="728.9" y1="225.6" x2="728.9" y2="256.6" stroke="#dc2626" stroke-width="1"/><rect x="726.1" y="246.3" width="5.4" height="1.2" fill="#dc2626" opacity="0.82" rx="1"/>
<line x1="737.7" y1="232.4" x2="737.7" y2="250.9" stroke="#16a34a" stroke-width="1"/><rect x="735.0" y="237.6" width="5.4" height="8.8" fill="#16a34a" opacity="0.82" rx="1"/>
<line x1="746.6" y1="209.5" x2="746.6" y2="251.7" stroke="#16a34a" stroke-width="1"/><rect x="743.9" y="212.7" width="5.4" height="24.6" fill="#16a34a" opacity="0.82" rx="1"/>
<line x1="755.5" y1="210.7" x2="755.5" y2="248.4" stroke="#dc2626" stroke-width="1"/><rect x="752.8" y="212.6" width="5.4" height="35.1" fill="#dc2626" opacity="0.82" rx="1"/>
<line x1="764.4" y1="230.7" x2="764.4" y2="269.0" stroke="#dc2626" stroke-width="1"/><rect x="761.6" y="247.8" width="5.4" height="2.3" fill="#dc2626" opacity="0.82" rx="1"/>
<line x1="773.2" y1="242.4" x2="773.2" y2="275.7" stroke="#dc2626" stroke-width="1"/><rect x="770.5" y="249.8" width="5.4" height="19.7" fill="#dc2626" opacity="0.82" rx="1"/>
<line x1="782.1" y1="269.2" x2="782.1" y2="303.8" stroke="#dc2626" stroke-width="1"/><rect x="779.4" y="269.7" width="5.4" height="18.6" fill="#dc2626" opacity="0.82" rx="1"/>
<line x1="791.0" y1="256.2" x2="791.0" y2="289.0" stroke="#16a34a" stroke-width="1"/><rect x="788.3" y="258.6" width="5.4" height="29.7" fill="#16a34a" opacity="0.82" rx="1"/>
<line x1="799.9" y1="249.2" x2="799.9" y2="267.0" stroke="#dc2626" stroke-width="1"/><rect x="797.1" y="258.6" width="5.4" height="4.3" fill="#dc2626" opacity="0.82" rx="1"/>
<line x1="808.7" y1="254.7" x2="808.7" y2="299.3" stroke="#dc2626" stroke-width="1"/><rect x="806.0" y="262.9" width="5.4" height="30.1" fill="#dc2626" opacity="0.82" rx="1"/>
<line x1="817.6" y1="270.2" x2="817.6" y2="298.3" stroke="#16a34a" stroke-width="1"/><rect x="814.9" y="270.9" width="5.4" height="22.1" fill="#16a34a" opacity="0.82" rx="1"/>
<line x1="826.5" y1="267.2" x2="826.5" y2="291.6" stroke="#dc2626" stroke-width="1"/><rect x="823.8" y="270.9" width="5.4" height="17.1" fill="#dc2626" opacity="0.82" rx="1"/>
<line x1="835.4" y1="282.2" x2="835.4" y2="318.9" stroke="#16a34a" stroke-width="1"/><rect x="832.6" y="282.5" width="5.4" height="5.5" fill="#16a34a" opacity="0.82" rx="1"/>
<line x1="844.2" y1="273.0" x2="844.2" y2="288.7" stroke="#16a34a" stroke-width="1"/><rect x="841.5" y="277.8" width="5.4" height="4.7" fill="#16a34a" opacity="0.82" rx="1"/>
<line x1="853.1" y1="257.3" x2="853.1" y2="283.2" stroke="#16a34a" stroke-width="1"/><rect x="850.4" y="260.1" width="5.4" height="17.5" fill="#16a34a" opacity="0.82" rx="1"/>
<line x1="862.0" y1="257.3" x2="862.0" y2="264.8" stroke="#dc2626" stroke-width="1"/><rect x="859.3" y="260.1" width="5.4" height="1.8" fill="#dc2626" opacity="0.82" rx="1"/>
<line x1="72" y1="306.8" x2="862" y2="306.8" stroke="#16a34a" stroke-width="1.8" stroke-dasharray="6 4" /><rect x="874" y="286.8" width="166" height="23" rx="5" fill="#ffffff" stroke="#16a34a" opacity="0.97"/><text x="881" y="302.8" fill="#16a34a" font-size="15" font-weight="700">日内支撑 66.41</text>
<line x1="72" y1="187.0" x2="862" y2="187.0" stroke="#dc2626" stroke-width="1.8" stroke-dasharray="6 4" /><rect x="874" y="167.0" width="166" height="23" rx="5" fill="#ffffff" stroke="#dc2626" opacity="0.97"/><text x="881" y="183.0" fill="#dc2626" font-size="15" font-weight="700">日内压力 69.51</text>
<line x1="72" y1="261.9" x2="862" y2="261.9" stroke="#111827" stroke-width="1.8" stroke-dasharray="2 2" /><rect x="874" y="241.9" width="166" height="23" rx="5" fill="#ffffff" stroke="#111827" opacity="0.97"/><text x="881" y="257.9" fill="#111827" font-size="15" font-weight="700">现价 67.57</text>
<text x="72" y="396" fill="#16a34a" font-size="14" font-weight="700">日内做多计划</text><rect x="72" y="404" width="790" height="48" rx="6" fill="#f9fafb" stroke="#e5e7eb"/><line x1="94" y1="412" x2="840" y2="412" stroke="#16a34a" stroke-width="3"/><circle cx="132.0" cy="412" r="5" fill="#16a34a"/><text x="132.0" y="434" fill="#374151" font-size="12" text-anchor="middle">入场 止跌/突破回踩</text><circle cx="451.2" cy="412" r="5" fill="#16a34a"/><text x="451.2" y="434" fill="#374151" font-size="12" text-anchor="middle">止损 66.41</text><circle cx="712.0" cy="412" r="5" fill="#16a34a"/><text x="712.0" y="434" fill="#374151" font-size="12" text-anchor="middle">目标一 69.51</text><circle cx="814.0" cy="412" r="5" fill="#16a34a"/><text x="814.0" y="434" fill="#374151" font-size="12" text-anchor="middle">目标二 70.28</text>
<text x="72" y="482" fill="#dc2626" font-size="14" font-weight="700">日内做空计划</text><rect x="72" y="490" width="790" height="48" rx="6" fill="#f9fafb" stroke="#e5e7eb"/><line x1="94" y1="498" x2="840" y2="498" stroke="#dc2626" stroke-width="3"/><circle cx="132.0" cy="498" r="5" fill="#dc2626"/><text x="132.0" y="520" fill="#374151" font-size="12" text-anchor="middle">入场 反弹承压/破位回抽</text><circle cx="451.2" cy="498" r="5" fill="#dc2626"/><text x="451.2" y="520" fill="#374151" font-size="12" text-anchor="middle">止损 69.51</text><circle cx="712.0" cy="498" r="5" fill="#dc2626"/><text x="712.0" y="520" fill="#374151" font-size="12" text-anchor="middle">目标一 66.41</text><circle cx="814.0" cy="498" r="5" fill="#dc2626"/><text x="814.0" y="520" fill="#374151" font-size="12" text-anchor="middle">目标二 65.64</text>
</svg>