<svg xmlns="http://www.w3.org/2000/svg" width="1080" height="560" viewBox="0 0 1080 560">
<rect width="100%" height="100%" fill="#ffffff"/>
<text x="72" y="23" fill="#111827" font-size="21" font-weight="800">DRAM 小时线K线支撑压力图</text>
<text x="862" y="42" fill="#374151" font-size="15" text-anchor="end">最新价 62.88</text>
<line x1="72" y1="34" x2="72" y2="340" stroke="#d1d5db"/>
<line x1="72" y1="340" x2="862" y2="340" stroke="#d1d5db"/>
<line x1="72" y1="340.0" x2="862" y2="340.0" stroke="#f3f4f6"/>
<text x="8" y="345.0" fill="#4b5563" font-size="14">55.20</text>
<line x1="72" y1="263.5" x2="862" y2="263.5" stroke="#f3f4f6"/>
<text x="8" y="268.5" fill="#4b5563" font-size="14">58.45</text>
<line x1="72" y1="187.0" x2="862" y2="187.0" stroke="#f3f4f6"/>
<text x="8" y="192.0" fill="#4b5563" font-size="14">61.70</text>
<line x1="72" y1="110.5" x2="862" y2="110.5" stroke="#f3f4f6"/>
<text x="8" y="115.5" fill="#4b5563" font-size="14">64.94</text>
<line x1="72" y1="34.0" x2="862" y2="34.0" stroke="#f3f4f6"/>
<text x="8" y="39.0" fill="#4b5563" font-size="14">68.19</text>
<line x1="72.0" y1="90.7" x2="72.0" y2="97.1" stroke="#16a34a" stroke-width="1"/><rect x="69.3" y="95.7" width="5.4" height="1.2" fill="#16a34a" opacity="0.82" rx="1"/>
<line x1="80.9" y1="94.5" x2="80.9" y2="98.5" stroke="#dc2626" stroke-width="1"/><rect x="78.2" y="95.7" width="5.4" height="2.4" fill="#dc2626" opacity="0.82" rx="1"/>
<line x1="89.8" y1="97.3" x2="89.8" y2="105.8" stroke="#dc2626" stroke-width="1"/><rect x="87.0" y="98.2" width="5.4" height="4.7" fill="#dc2626" opacity="0.82" rx="1"/>
<line x1="98.6" y1="92.6" x2="98.6" y2="104.1" stroke="#16a34a" stroke-width="1"/><rect x="95.9" y="95.7" width="5.4" height="7.1" fill="#16a34a" opacity="0.82" rx="1"/>
<line x1="107.5" y1="88.8" x2="107.5" y2="97.1" stroke="#16a34a" stroke-width="1"/><rect x="104.8" y="89.5" width="5.4" height="5.9" fill="#16a34a" opacity="0.82" rx="1"/>
<line x1="116.4" y1="87.2" x2="116.4" y2="97.1" stroke="#16a34a" stroke-width="1"/><rect x="113.7" y="87.4" width="5.4" height="2.1" fill="#16a34a" opacity="0.82" rx="1"/>
<line x1="125.3" y1="86.2" x2="125.3" y2="95.4" stroke="#dc2626" stroke-width="1"/><rect x="122.5" y="87.4" width="5.4" height="7.1" fill="#dc2626" opacity="0.82" rx="1"/>
<line x1="134.1" y1="92.8" x2="134.1" y2="104.4" stroke="#dc2626" stroke-width="1"/><rect x="131.4" y="94.5" width="5.4" height="8.0" fill="#dc2626" opacity="0.82" rx="1"/>
<line x1="143.0" y1="97.8" x2="143.0" y2="104.4" stroke="#16a34a" stroke-width="1"/><rect x="140.3" y="98.0" width="5.4" height="4.7" fill="#16a34a" opacity="0.82" rx="1"/>
<line x1="151.9" y1="93.3" x2="151.9" y2="99.0" stroke="#16a34a" stroke-width="1"/><rect x="149.2" y="96.4" width="5.4" height="2.1" fill="#16a34a" opacity="0.82" rx="1"/>
<line x1="160.8" y1="91.2" x2="160.8" y2="97.1" stroke="#16a34a" stroke-width="1"/><rect x="158.0" y="91.6" width="5.4" height="4.5" fill="#16a34a" opacity="0.82" rx="1"/>
<line x1="169.6" y1="89.8" x2="169.6" y2="94.0" stroke="#dc2626" stroke-width="1"/><rect x="166.9" y="91.4" width="5.4" height="1.2" fill="#dc2626" opacity="0.82" rx="1"/>
<line x1="178.5" y1="86.7" x2="178.5" y2="93.1" stroke="#16a34a" stroke-width="1"/><rect x="175.8" y="86.7" width="5.4" height="5.7" fill="#16a34a" opacity="0.82" rx="1"/>
<line x1="187.4" y1="85.7" x2="187.4" y2="91.6" stroke="#dc2626" stroke-width="1"/><rect x="184.7" y="86.7" width="5.4" height="3.5" fill="#dc2626" opacity="0.82" rx="1"/>
<line x1="196.3" y1="89.8" x2="196.3" y2="101.3" stroke="#dc2626" stroke-width="1"/><rect x="193.5" y="90.2" width="5.4" height="1.9" fill="#dc2626" opacity="0.82" rx="1"/>
<line x1="205.1" y1="79.4" x2="205.1" y2="94.7" stroke="#16a34a" stroke-width="1"/><rect x="202.4" y="86.9" width="5.4" height="5.0" fill="#16a34a" opacity="0.82" rx="1"/>
<line x1="214.0" y1="75.1" x2="214.0" y2="111.4" stroke="#dc2626" stroke-width="1"/><rect x="211.3" y="87.2" width="5.4" height="12.7" fill="#dc2626" opacity="0.82" rx="1"/>
<line x1="222.9" y1="55.1" x2="222.9" y2="103.0" stroke="#16a34a" stroke-width="1"/><rect x="220.2" y="65.2" width="5.4" height="33.9" fill="#16a34a" opacity="0.82" rx="1"/>
<line x1="231.8" y1="63.1" x2="231.8" y2="111.9" stroke="#dc2626" stroke-width="1"/><rect x="229.1" y="65.2" width="5.4" height="35.1" fill="#dc2626" opacity="0.82" rx="1"/>
<line x1="240.7" y1="94.2" x2="240.7" y2="144.0" stroke="#dc2626" stroke-width="1"/><rect x="237.9" y="100.1" width="5.4" height="22.9" fill="#dc2626" opacity="0.82" rx="1"/>
<line x1="249.5" y1="99.7" x2="249.5" y2="126.1" stroke="#16a34a" stroke-width="1"/><rect x="246.8" y="111.2" width="5.4" height="11.6" fill="#16a34a" opacity="0.82" rx="1"/>
<line x1="258.4" y1="86.7" x2="258.4" y2="119.2" stroke="#16a34a" stroke-width="1"/><rect x="255.7" y="93.1" width="5.4" height="18.2" fill="#16a34a" opacity="0.82" rx="1"/>
<line x1="267.3" y1="91.9" x2="267.3" y2="112.4" stroke="#dc2626" stroke-width="1"/><rect x="264.6" y="93.1" width="5.4" height="1.7" fill="#dc2626" opacity="0.82" rx="1"/>
<line x1="276.2" y1="90.5" x2="276.2" y2="110.7" stroke="#dc2626" stroke-width="1"/><rect x="273.4" y="94.7" width="5.4" height="8.7" fill="#dc2626" opacity="0.82" rx="1"/>
<line x1="285.0" y1="99.7" x2="285.0" y2="107.7" stroke="#dc2626" stroke-width="1"/><rect x="282.3" y="103.7" width="5.4" height="1.2" fill="#dc2626" opacity="0.82" rx="1"/>
<line x1="293.9" y1="97.3" x2="293.9" y2="111.4" stroke="#16a34a" stroke-width="1"/><rect x="291.2" y="103.7" width="5.4" height="1.2" fill="#16a34a" opacity="0.82" rx="1"/>
<line x1="302.8" y1="100.6" x2="302.8" y2="116.2" stroke="#dc2626" stroke-width="1"/><rect x="300.1" y="103.4" width="5.4" height="7.5" fill="#dc2626" opacity="0.82" rx="1"/>
<line x1="311.7" y1="107.4" x2="311.7" y2="115.0" stroke="#16a34a" stroke-width="1"/><rect x="308.9" y="107.9" width="5.4" height="3.1" fill="#16a34a" opacity="0.82" rx="1"/>
<line x1="320.5" y1="98.7" x2="320.5" y2="117.8" stroke="#16a34a" stroke-width="1"/><rect x="317.8" y="105.6" width="5.4" height="2.4" fill="#16a34a" opacity="0.82" rx="1"/>
<line x1="329.4" y1="95.7" x2="329.4" y2="108.9" stroke="#16a34a" stroke-width="1"/><rect x="326.7" y="98.7" width="5.4" height="6.8" fill="#16a34a" opacity="0.82" rx="1"/>
<line x1="338.3" y1="91.6" x2="338.3" y2="125.4" stroke="#dc2626" stroke-width="1"/><rect x="335.6" y="98.7" width="5.4" height="9.9" fill="#dc2626" opacity="0.82" rx="1"/>
<line x1="347.2" y1="85.3" x2="347.2" y2="110.7" stroke="#16a34a" stroke-width="1"/><rect x="344.4" y="97.1" width="5.4" height="11.3" fill="#16a34a" opacity="0.82" rx="1"/>
<line x1="356.0" y1="94.9" x2="356.0" y2="119.0" stroke="#16a34a" stroke-width="1"/><rect x="353.3" y="95.9" width="5.4" height="1.2" fill="#16a34a" opacity="0.82" rx="1"/>
<line x1="364.9" y1="90.0" x2="364.9" y2="105.6" stroke="#dc2626" stroke-width="1"/><rect x="362.2" y="96.1" width="5.4" height="8.5" fill="#dc2626" opacity="0.82" rx="1"/>
<line x1="373.8" y1="101.3" x2="373.8" y2="124.4" stroke="#dc2626" stroke-width="1"/><rect x="371.1" y="104.6" width="5.4" height="17.7" fill="#dc2626" opacity="0.82" rx="1"/>
<line x1="382.7" y1="109.1" x2="382.7" y2="122.3" stroke="#16a34a" stroke-width="1"/><rect x="380.0" y="112.4" width="5.4" height="9.9" fill="#16a34a" opacity="0.82" rx="1"/>
<line x1="391.6" y1="103.2" x2="391.6" y2="119.0" stroke="#dc2626" stroke-width="1"/><rect x="388.8" y="112.4" width="5.4" height="4.7" fill="#dc2626" opacity="0.82" rx="1"/>
<line x1="400.4" y1="107.7" x2="400.4" y2="117.8" stroke="#16a34a" stroke-width="1"/><rect x="397.7" y="108.1" width="5.4" height="9.0" fill="#16a34a" opacity="0.82" rx="1"/>
<line x1="409.3" y1="104.1" x2="409.3" y2="109.3" stroke="#16a34a" stroke-width="1"/><rect x="406.6" y="106.0" width="5.4" height="2.1" fill="#16a34a" opacity="0.82" rx="1"/>
<line x1="418.2" y1="97.5" x2="418.2" y2="151.3" stroke="#dc2626" stroke-width="1"/><rect x="415.5" y="105.8" width="5.4" height="33.9" fill="#dc2626" opacity="0.82" rx="1"/>
<line x1="427.1" y1="128.9" x2="427.1" y2="176.7" stroke="#dc2626" stroke-width="1"/><rect x="424.3" y="139.5" width="5.4" height="33.9" fill="#dc2626" opacity="0.82" rx="1"/>
<line x1="435.9" y1="143.7" x2="435.9" y2="182.6" stroke="#dc2626" stroke-width="1"/><rect x="433.2" y="173.7" width="5.4" height="6.4" fill="#dc2626" opacity="0.82" rx="1"/>
<line x1="444.8" y1="168.5" x2="444.8" y2="204.8" stroke="#dc2626" stroke-width="1"/><rect x="442.1" y="180.0" width="5.4" height="6.6" fill="#dc2626" opacity="0.82" rx="1"/>
<line x1="453.7" y1="177.9" x2="453.7" y2="206.9" stroke="#dc2626" stroke-width="1"/><rect x="451.0" y="186.4" width="5.4" height="15.1" fill="#dc2626" opacity="0.82" rx="1"/>
<line x1="462.6" y1="191.1" x2="462.6" y2="223.2" stroke="#dc2626" stroke-width="1"/><rect x="459.8" y="201.5" width="5.4" height="17.0" fill="#dc2626" opacity="0.82" rx="1"/>
<line x1="471.4" y1="209.5" x2="471.4" y2="234.7" stroke="#dc2626" stroke-width="1"/><rect x="468.7" y="218.5" width="5.4" height="8.3" fill="#dc2626" opacity="0.82" rx="1"/>
<line x1="480.3" y1="182.6" x2="480.3" y2="241.3" stroke="#16a34a" stroke-width="1"/><rect x="477.6" y="190.7" width="5.4" height="35.8" fill="#16a34a" opacity="0.82" rx="1"/>
<line x1="489.2" y1="180.8" x2="489.2" y2="209.3" stroke="#16a34a" stroke-width="1"/><rect x="486.5" y="185.9" width="5.4" height="4.2" fill="#16a34a" opacity="0.82" rx="1"/>
<line x1="498.1" y1="183.1" x2="498.1" y2="198.2" stroke="#dc2626" stroke-width="1"/><rect x="495.3" y="185.7" width="5.4" height="10.6" fill="#dc2626" opacity="0.82" rx="1"/>
<line x1="506.9" y1="190.4" x2="506.9" y2="208.6" stroke="#dc2626" stroke-width="1"/><rect x="504.2" y="196.1" width="5.4" height="11.1" fill="#dc2626" opacity="0.82" rx="1"/>
<line x1="515.8" y1="200.3" x2="515.8" y2="221.1" stroke="#dc2626" stroke-width="1"/><rect x="513.1" y="207.4" width="5.4" height="4.0" fill="#dc2626" opacity="0.82" rx="1"/>
<line x1="524.7" y1="205.0" x2="524.7" y2="218.0" stroke="#16a34a" stroke-width="1"/><rect x="522.0" y="208.8" width="5.4" height="2.8" fill="#16a34a" opacity="0.82" rx="1"/>
<line x1="533.6" y1="208.1" x2="533.6" y2="225.3" stroke="#dc2626" stroke-width="1"/><rect x="530.9" y="208.6" width="5.4" height="6.4" fill="#dc2626" opacity="0.82" rx="1"/>
<line x1="542.4" y1="196.8" x2="542.4" y2="214.9" stroke="#16a34a" stroke-width="1"/><rect x="539.7" y="209.7" width="5.4" height="5.2" fill="#16a34a" opacity="0.82" rx="1"/>
<line x1="551.3" y1="203.1" x2="551.3" y2="235.7" stroke="#dc2626" stroke-width="1"/><rect x="548.6" y="209.7" width="5.4" height="14.9" fill="#dc2626" opacity="0.82" rx="1"/>
<line x1="560.2" y1="214.9" x2="560.2" y2="267.3" stroke="#dc2626" stroke-width="1"/><rect x="557.5" y="224.8" width="5.4" height="14.1" fill="#dc2626" opacity="0.82" rx="1"/>
<line x1="569.1" y1="223.2" x2="569.1" y2="251.7" stroke="#16a34a" stroke-width="1"/><rect x="566.4" y="230.5" width="5.4" height="8.3" fill="#16a34a" opacity="0.82" rx="1"/>
<line x1="578.0" y1="209.0" x2="578.0" y2="231.7" stroke="#16a34a" stroke-width="1"/><rect x="575.2" y="216.1" width="5.4" height="14.6" fill="#16a34a" opacity="0.82" rx="1"/>
<line x1="586.8" y1="197.0" x2="586.8" y2="218.5" stroke="#16a34a" stroke-width="1"/><rect x="584.1" y="198.7" width="5.4" height="17.4" fill="#16a34a" opacity="0.82" rx="1"/>
<line x1="595.7" y1="198.4" x2="595.7" y2="230.0" stroke="#dc2626" stroke-width="1"/><rect x="593.0" y="198.7" width="5.4" height="30.6" fill="#dc2626" opacity="0.82" rx="1"/>
<line x1="604.6" y1="211.2" x2="604.6" y2="241.6" stroke="#16a34a" stroke-width="1"/><rect x="601.9" y="211.6" width="5.4" height="17.7" fill="#16a34a" opacity="0.82" rx="1"/>
<line x1="613.5" y1="202.9" x2="613.5" y2="214.2" stroke="#16a34a" stroke-width="1"/><rect x="610.7" y="204.1" width="5.4" height="7.8" fill="#16a34a" opacity="0.82" rx="1"/>
<line x1="622.3" y1="201.0" x2="622.3" y2="225.3" stroke="#dc2626" stroke-width="1"/><rect x="619.6" y="204.3" width="5.4" height="18.9" fill="#dc2626" opacity="0.82" rx="1"/>
<line x1="631.2" y1="217.3" x2="631.2" y2="228.8" stroke="#16a34a" stroke-width="1"/><rect x="628.5" y="219.9" width="5.4" height="3.3" fill="#16a34a" opacity="0.82" rx="1"/>
<line x1="640.1" y1="220.1" x2="640.1" y2="247.9" stroke="#dc2626" stroke-width="1"/><rect x="637.4" y="220.1" width="5.4" height="26.2" fill="#dc2626" opacity="0.82" rx="1"/>
<line x1="649.0" y1="155.5" x2="649.0" y2="252.7" stroke="#16a34a" stroke-width="1"/><rect x="646.2" y="156.7" width="5.4" height="89.8" fill="#16a34a" opacity="0.82" rx="1"/>
<line x1="657.8" y1="153.4" x2="657.8" y2="212.3" stroke="#dc2626" stroke-width="1"/><rect x="655.1" y="156.7" width="5.4" height="49.3" fill="#dc2626" opacity="0.82" rx="1"/>
<line x1="666.7" y1="195.8" x2="666.7" y2="222.7" stroke="#16a34a" stroke-width="1"/><rect x="664.0" y="202.2" width="5.4" height="3.3" fill="#16a34a" opacity="0.82" rx="1"/>
<line x1="675.6" y1="176.7" x2="675.6" y2="202.4" stroke="#16a34a" stroke-width="1"/><rect x="672.9" y="200.8" width="5.4" height="1.7" fill="#16a34a" opacity="0.82" rx="1"/>
<line x1="684.5" y1="199.8" x2="684.5" y2="251.2" stroke="#dc2626" stroke-width="1"/><rect x="681.8" y="200.6" width="5.4" height="28.1" fill="#dc2626" opacity="0.82" rx="1"/>
<line x1="693.3" y1="218.2" x2="693.3" y2="254.1" stroke="#dc2626" stroke-width="1"/><rect x="690.6" y="228.6" width="5.4" height="10.4" fill="#dc2626" opacity="0.82" rx="1"/>
<line x1="702.2" y1="238.7" x2="702.2" y2="262.3" stroke="#dc2626" stroke-width="1"/><rect x="699.5" y="238.7" width="5.4" height="19.1" fill="#dc2626" opacity="0.82" rx="1"/>
<line x1="711.1" y1="243.7" x2="711.1" y2="261.1" stroke="#16a34a" stroke-width="1"/><rect x="708.4" y="249.4" width="5.4" height="8.3" fill="#16a34a" opacity="0.82" rx="1"/>
<line x1="720.0" y1="246.1" x2="720.0" y2="306.9" stroke="#dc2626" stroke-width="1"/><rect x="717.3" y="249.1" width="5.4" height="47.9" fill="#dc2626" opacity="0.82" rx="1"/>
<line x1="728.9" y1="292.5" x2="728.9" y2="318.9" stroke="#dc2626" stroke-width="1"/><rect x="726.1" y="297.0" width="5.4" height="2.4" fill="#dc2626" opacity="0.82" rx="1"/>
<line x1="737.7" y1="277.2" x2="737.7" y2="302.4" stroke="#16a34a" stroke-width="1"/><rect x="735.0" y="288.3" width="5.4" height="11.1" fill="#16a34a" opacity="0.82" rx="1"/>
<line x1="746.6" y1="268.9" x2="746.6" y2="294.9" stroke="#16a34a" stroke-width="1"/><rect x="743.9" y="271.7" width="5.4" height="16.3" fill="#16a34a" opacity="0.82" rx="1"/>
<line x1="755.5" y1="250.3" x2="755.5" y2="274.3" stroke="#16a34a" stroke-width="1"/><rect x="752.8" y="264.4" width="5.4" height="7.5" fill="#16a34a" opacity="0.82" rx="1"/>
<line x1="764.4" y1="202.9" x2="764.4" y2="267.3" stroke="#16a34a" stroke-width="1"/><rect x="761.6" y="206.4" width="5.4" height="58.0" fill="#16a34a" opacity="0.82" rx="1"/>
<line x1="773.2" y1="201.3" x2="773.2" y2="238.3" stroke="#dc2626" stroke-width="1"/><rect x="770.5" y="206.9" width="5.4" height="21.0" fill="#dc2626" opacity="0.82" rx="1"/>
<line x1="782.1" y1="225.5" x2="782.1" y2="256.7" stroke="#dc2626" stroke-width="1"/><rect x="779.4" y="228.1" width="5.4" height="17.7" fill="#dc2626" opacity="0.82" rx="1"/>
<line x1="791.0" y1="210.5" x2="791.0" y2="246.3" stroke="#16a34a" stroke-width="1"/><rect x="788.3" y="211.4" width="5.4" height="34.2" fill="#16a34a" opacity="0.82" rx="1"/>
<line x1="799.9" y1="195.6" x2="799.9" y2="217.3" stroke="#dc2626" stroke-width="1"/><rect x="797.1" y="211.9" width="5.4" height="2.1" fill="#dc2626" opacity="0.82" rx="1"/>
<line x1="808.7" y1="200.6" x2="808.7" y2="215.4" stroke="#16a34a" stroke-width="1"/><rect x="806.0" y="201.5" width="5.4" height="12.7" fill="#16a34a" opacity="0.82" rx="1"/>
<line x1="817.6" y1="178.6" x2="817.6" y2="201.7" stroke="#16a34a" stroke-width="1"/><rect x="814.9" y="180.3" width="5.4" height="21.2" fill="#16a34a" opacity="0.82" rx="1"/>
<line x1="826.5" y1="178.4" x2="826.5" y2="198.4" stroke="#dc2626" stroke-width="1"/><rect x="823.8" y="180.0" width="5.4" height="9.0" fill="#dc2626" opacity="0.82" rx="1"/>
<line x1="835.4" y1="173.4" x2="835.4" y2="189.7" stroke="#16a34a" stroke-width="1"/><rect x="832.6" y="175.3" width="5.4" height="13.9" fill="#16a34a" opacity="0.82" rx="1"/>
<line x1="844.2" y1="171.1" x2="844.2" y2="180.5" stroke="#16a34a" stroke-width="1"/><rect x="841.5" y="171.1" width="5.4" height="4.2" fill="#16a34a" opacity="0.82" rx="1"/>
<line x1="853.1" y1="158.6" x2="853.1" y2="189.5" stroke="#16a34a" stroke-width="1"/><rect x="850.4" y="159.8" width="5.4" height="11.3" fill="#16a34a" opacity="0.82" rx="1"/>
<line x1="862.0" y1="154.1" x2="862.0" y2="168.5" stroke="#16a34a" stroke-width="1"/><rect x="859.3" y="159.1" width="5.4" height="1.2" fill="#16a34a" opacity="0.82" rx="1"/>
<line x1="72" y1="198.6" x2="862" y2="198.6" stroke="#16a34a" stroke-width="1.8" stroke-dasharray="6 4" /><rect x="874" y="178.6" width="166" height="23" rx="5" fill="#ffffff" stroke="#16a34a" opacity="0.97"/><text x="881" y="194.6" fill="#16a34a" font-size="15" font-weight="700">日内支撑 61.20</text>
<line x1="72" y1="93.2" x2="862" y2="93.2" stroke="#dc2626" stroke-width="1.8" stroke-dasharray="6 4" /><rect x="874" y="73.2" width="166" height="23" rx="5" fill="#ffffff" stroke="#dc2626" opacity="0.97"/><text x="881" y="89.2" fill="#dc2626" font-size="15" font-weight="700">日内压力 65.67</text>
<line x1="72" y1="159.1" x2="862" y2="159.1" stroke="#111827" stroke-width="1.8" stroke-dasharray="2 2" /><rect x="874" y="139.1" width="166" height="23" rx="5" fill="#ffffff" stroke="#111827" opacity="0.97"/><text x="881" y="155.1" fill="#111827" font-size="15" font-weight="700">现价 62.88</text>
<text x="72" y="396" fill="#16a34a" font-size="14" font-weight="700">日内做多计划</text><rect x="72" y="404" width="790" height="48" rx="6" fill="#f9fafb" stroke="#e5e7eb"/><line x1="94" y1="412" x2="840" y2="412" stroke="#16a34a" stroke-width="3"/><circle cx="132.0" cy="412" r="5" fill="#16a34a"/><text x="132.0" y="434" fill="#374151" font-size="12" text-anchor="middle">入场 止跌/突破回踩</text><circle cx="451.2" cy="412" r="5" fill="#16a34a"/><text x="451.2" y="434" fill="#374151" font-size="12" text-anchor="middle">止损 61.20</text><circle cx="712.0" cy="412" r="5" fill="#16a34a"/><text x="712.0" y="434" fill="#374151" font-size="12" text-anchor="middle">目标一 65.67</text><circle cx="814.0" cy="412" r="5" fill="#16a34a"/><text x="814.0" y="434" fill="#374151" font-size="12" text-anchor="middle">目标二 66.79</text>
<text x="72" y="482" fill="#dc2626" font-size="14" font-weight="700">日内做空计划</text><rect x="72" y="490" width="790" height="48" rx="6" fill="#f9fafb" stroke="#e5e7eb"/><line x1="94" y1="498" x2="840" y2="498" stroke="#dc2626" stroke-width="3"/><circle cx="132.0" cy="498" r="5" fill="#dc2626"/><text x="132.0" y="520" fill="#374151" font-size="12" text-anchor="middle">入场 反弹承压/破位回抽</text><circle cx="451.2" cy="498" r="5" fill="#dc2626"/><text x="451.2" y="520" fill="#374151" font-size="12" text-anchor="middle">止损 65.67</text><circle cx="712.0" cy="498" r="5" fill="#dc2626"/><text x="712.0" y="520" fill="#374151" font-size="12" text-anchor="middle">目标一 61.20</text><circle cx="814.0" cy="498" r="5" fill="#dc2626"/><text x="814.0" y="520" fill="#374151" font-size="12" text-anchor="middle">目标二 60.09</text>
</svg>