<svg xmlns="http://www.w3.org/2000/svg" width="1080" height="560" viewBox="0 0 1080 560">
<rect width="100%" height="100%" fill="#ffffff"/>
<text x="72" y="23" fill="#111827" font-size="21" font-weight="800">DRAM 日线K线支撑压力图</text>
<text x="862" y="42" fill="#374151" font-size="15" text-anchor="end">最新价 62.24</text>
<line x1="72" y1="34" x2="72" y2="340" stroke="#d1d5db"/>
<line x1="72" y1="340" x2="862" y2="340" stroke="#d1d5db"/>
<line x1="72" y1="340.0" x2="862" y2="340.0" stroke="#f3f4f6"/>
<text x="8" y="345.0" fill="#4b5563" font-size="14">43.71</text>
<line x1="72" y1="263.5" x2="862" y2="263.5" stroke="#f3f4f6"/>
<text x="8" y="268.5" fill="#4b5563" font-size="14">53.98</text>
<line x1="72" y1="187.0" x2="862" y2="187.0" stroke="#f3f4f6"/>
<text x="8" y="192.0" fill="#4b5563" font-size="14">64.25</text>
<line x1="72" y1="110.5" x2="862" y2="110.5" stroke="#f3f4f6"/>
<text x="8" y="115.5" fill="#4b5563" font-size="14">74.52</text>
<line x1="72" y1="34.0" x2="862" y2="34.0" stroke="#f3f4f6"/>
<text x="8" y="39.0" fill="#4b5563" font-size="14">84.79</text>
<line x1="72.0" y1="279.1" x2="72.0" y2="307.4" stroke="#dc2626" stroke-width="1"/><rect x="67.5" y="283.9" width="9.0" height="10.9" fill="#dc2626" opacity="0.82" rx="1"/>
<line x1="87.2" y1="285.4" x2="87.2" y2="318.9" stroke="#16a34a" stroke-width="1"/><rect x="82.7" y="293.1" width="9.0" height="1.6" fill="#16a34a" opacity="0.82" rx="1"/>
<line x1="102.4" y1="277.9" x2="102.4" y2="308.2" stroke="#16a34a" stroke-width="1"/><rect x="97.9" y="280.2" width="9.0" height="13.0" fill="#16a34a" opacity="0.82" rx="1"/>
<line x1="117.6" y1="254.0" x2="117.6" y2="284.9" stroke="#16a34a" stroke-width="1"/><rect x="113.1" y="257.2" width="9.0" height="23.0" fill="#16a34a" opacity="0.82" rx="1"/>
<line x1="132.8" y1="256.9" x2="132.8" y2="273.8" stroke="#dc2626" stroke-width="1"/><rect x="128.3" y="257.2" width="9.0" height="16.3" fill="#dc2626" opacity="0.82" rx="1"/>
<line x1="148.0" y1="248.0" x2="148.0" y2="289.9" stroke="#16a34a" stroke-width="1"/><rect x="143.5" y="261.0" width="9.0" height="12.4" fill="#16a34a" opacity="0.82" rx="1"/>
<line x1="163.2" y1="247.7" x2="163.2" y2="262.5" stroke="#16a34a" stroke-width="1"/><rect x="158.7" y="253.1" width="9.0" height="7.7" fill="#16a34a" opacity="0.82" rx="1"/>
<line x1="178.3" y1="228.9" x2="178.3" y2="255.1" stroke="#16a34a" stroke-width="1"/><rect x="173.8" y="244.7" width="9.0" height="8.3" fill="#16a34a" opacity="0.82" rx="1"/>
<line x1="193.5" y1="194.1" x2="193.5" y2="258.3" stroke="#16a34a" stroke-width="1"/><rect x="189.0" y="202.2" width="9.0" height="42.5" fill="#16a34a" opacity="0.82" rx="1"/>
<line x1="208.7" y1="191.2" x2="208.7" y2="225.5" stroke="#dc2626" stroke-width="1"/><rect x="204.2" y="202.3" width="9.0" height="19.2" fill="#dc2626" opacity="0.82" rx="1"/>
<line x1="223.9" y1="190.6" x2="223.9" y2="237.7" stroke="#16a34a" stroke-width="1"/><rect x="219.4" y="195.9" width="9.0" height="25.5" fill="#16a34a" opacity="0.82" rx="1"/>
<line x1="239.1" y1="186.3" x2="239.1" y2="207.0" stroke="#16a34a" stroke-width="1"/><rect x="234.6" y="194.0" width="9.0" height="1.8" fill="#16a34a" opacity="0.82" rx="1"/>
<line x1="254.3" y1="174.3" x2="254.3" y2="197.1" stroke="#16a34a" stroke-width="1"/><rect x="249.8" y="175.5" width="9.0" height="18.5" fill="#16a34a" opacity="0.82" rx="1"/>
<line x1="269.5" y1="162.9" x2="269.5" y2="179.8" stroke="#16a34a" stroke-width="1"/><rect x="265.0" y="173.0" width="9.0" height="2.4" fill="#16a34a" opacity="0.82" rx="1"/>
<line x1="284.7" y1="151.0" x2="284.7" y2="186.3" stroke="#16a34a" stroke-width="1"/><rect x="280.2" y="157.6" width="9.0" height="15.3" fill="#16a34a" opacity="0.82" rx="1"/>
<line x1="299.9" y1="142.8" x2="299.9" y2="178.4" stroke="#16a34a" stroke-width="1"/><rect x="295.4" y="148.3" width="9.0" height="9.5" fill="#16a34a" opacity="0.82" rx="1"/>
<line x1="315.1" y1="141.8" x2="315.1" y2="171.0" stroke="#dc2626" stroke-width="1"/><rect x="310.6" y="148.2" width="9.0" height="20.5" fill="#dc2626" opacity="0.82" rx="1"/>
<line x1="330.3" y1="159.0" x2="330.3" y2="195.0" stroke="#dc2626" stroke-width="1"/><rect x="325.8" y="168.8" width="9.0" height="24.9" fill="#dc2626" opacity="0.82" rx="1"/>
<line x1="345.5" y1="187.9" x2="345.5" y2="267.4" stroke="#dc2626" stroke-width="1"/><rect x="341.0" y="193.7" width="9.0" height="59.0" fill="#dc2626" opacity="0.82" rx="1"/>
<line x1="360.7" y1="245.0" x2="360.7" y2="274.4" stroke="#16a34a" stroke-width="1"/><rect x="356.2" y="250.5" width="9.0" height="2.3" fill="#16a34a" opacity="0.82" rx="1"/>
<line x1="375.8" y1="219.9" x2="375.8" y2="255.9" stroke="#16a34a" stroke-width="1"/><rect x="371.3" y="245.1" width="9.0" height="5.4" fill="#16a34a" opacity="0.82" rx="1"/>
<line x1="391.0" y1="206.2" x2="391.0" y2="248.3" stroke="#16a34a" stroke-width="1"/><rect x="386.5" y="212.0" width="9.0" height="33.1" fill="#16a34a" opacity="0.82" rx="1"/>
<line x1="406.2" y1="187.4" x2="406.2" y2="252.5" stroke="#dc2626" stroke-width="1"/><rect x="401.7" y="211.9" width="9.0" height="8.6" fill="#dc2626" opacity="0.82" rx="1"/>
<line x1="421.4" y1="207.2" x2="421.4" y2="251.5" stroke="#dc2626" stroke-width="1"/><rect x="416.9" y="220.6" width="9.0" height="24.6" fill="#dc2626" opacity="0.82" rx="1"/>
<line x1="436.6" y1="168.8" x2="436.6" y2="247.0" stroke="#16a34a" stroke-width="1"/><rect x="432.1" y="173.8" width="9.0" height="71.1" fill="#16a34a" opacity="0.82" rx="1"/>
<line x1="451.8" y1="172.6" x2="451.8" y2="201.8" stroke="#dc2626" stroke-width="1"/><rect x="447.3" y="173.9" width="9.0" height="2.8" fill="#dc2626" opacity="0.82" rx="1"/>
<line x1="467.0" y1="174.1" x2="467.0" y2="189.7" stroke="#16a34a" stroke-width="1"/><rect x="462.5" y="175.7" width="9.0" height="1.2" fill="#16a34a" opacity="0.82" rx="1"/>
<line x1="482.2" y1="149.9" x2="482.2" y2="177.2" stroke="#16a34a" stroke-width="1"/><rect x="477.7" y="157.1" width="9.0" height="18.5" fill="#16a34a" opacity="0.82" rx="1"/>
<line x1="497.4" y1="134.1" x2="497.4" y2="163.7" stroke="#16a34a" stroke-width="1"/><rect x="492.9" y="137.8" width="9.0" height="19.4" fill="#16a34a" opacity="0.82" rx="1"/>
<line x1="512.6" y1="121.2" x2="512.6" y2="160.7" stroke="#dc2626" stroke-width="1"/><rect x="508.1" y="138.0" width="9.0" height="14.4" fill="#dc2626" opacity="0.82" rx="1"/>
<line x1="527.8" y1="119.7" x2="527.8" y2="152.7" stroke="#16a34a" stroke-width="1"/><rect x="523.3" y="125.8" width="9.0" height="26.7" fill="#16a34a" opacity="0.82" rx="1"/>
<line x1="543.0" y1="80.6" x2="543.0" y2="127.6" stroke="#16a34a" stroke-width="1"/><rect x="538.5" y="82.8" width="9.0" height="42.8" fill="#16a34a" opacity="0.82" rx="1"/>
<line x1="558.2" y1="79.5" x2="558.2" y2="108.1" stroke="#dc2626" stroke-width="1"/><rect x="553.7" y="82.9" width="9.0" height="4.5" fill="#dc2626" opacity="0.82" rx="1"/>
<line x1="573.3" y1="63.2" x2="573.3" y2="88.8" stroke="#16a34a" stroke-width="1"/><rect x="568.8" y="68.9" width="9.0" height="18.6" fill="#16a34a" opacity="0.82" rx="1"/>
<line x1="588.5" y1="59.5" x2="588.5" y2="95.4" stroke="#dc2626" stroke-width="1"/><rect x="584.0" y="69.0" width="9.0" height="21.4" fill="#dc2626" opacity="0.82" rx="1"/>
<line x1="603.7" y1="55.1" x2="603.7" y2="106.9" stroke="#16a34a" stroke-width="1"/><rect x="599.2" y="66.0" width="9.0" height="24.4" fill="#16a34a" opacity="0.82" rx="1"/>
<line x1="618.9" y1="65.3" x2="618.9" y2="153.9" stroke="#dc2626" stroke-width="1"/><rect x="614.4" y="66.0" width="9.0" height="74.3" fill="#dc2626" opacity="0.82" rx="1"/>
<line x1="634.1" y1="58.5" x2="634.1" y2="164.8" stroke="#16a34a" stroke-width="1"/><rect x="629.6" y="67.8" width="9.0" height="72.3" fill="#16a34a" opacity="0.82" rx="1"/>
<line x1="649.3" y1="66.9" x2="649.3" y2="118.0" stroke="#dc2626" stroke-width="1"/><rect x="644.8" y="67.7" width="9.0" height="27.9" fill="#dc2626" opacity="0.82" rx="1"/>
<line x1="664.5" y1="93.1" x2="664.5" y2="136.7" stroke="#dc2626" stroke-width="1"/><rect x="660.0" y="95.5" width="9.0" height="31.4" fill="#dc2626" opacity="0.82" rx="1"/>
<line x1="679.7" y1="120.3" x2="679.7" y2="129.1" stroke="#dc2626" stroke-width="1"/><rect x="675.2" y="126.8" width="9.0" height="1.2" fill="#dc2626" opacity="0.82" rx="1"/>
<line x1="694.9" y1="104.9" x2="694.9" y2="132.1" stroke="#16a34a" stroke-width="1"/><rect x="690.4" y="123.9" width="9.0" height="3.4" fill="#16a34a" opacity="0.82" rx="1"/>
<line x1="710.1" y1="119.3" x2="710.1" y2="170.2" stroke="#dc2626" stroke-width="1"/><rect x="705.6" y="123.8" width="9.0" height="7.2" fill="#dc2626" opacity="0.82" rx="1"/>
<line x1="725.3" y1="112.8" x2="725.3" y2="142.6" stroke="#16a34a" stroke-width="1"/><rect x="720.8" y="118.1" width="9.0" height="13.0" fill="#16a34a" opacity="0.82" rx="1"/>
<line x1="740.5" y1="114.8" x2="740.5" y2="183.6" stroke="#dc2626" stroke-width="1"/><rect x="736.0" y="118.0" width="9.0" height="64.3" fill="#dc2626" opacity="0.82" rx="1"/>
<line x1="755.7" y1="168.5" x2="755.7" y2="226.5" stroke="#dc2626" stroke-width="1"/><rect x="751.2" y="182.3" width="9.0" height="27.6" fill="#dc2626" opacity="0.82" rx="1"/>
<line x1="770.8" y1="177.7" x2="770.8" y2="221.1" stroke="#16a34a" stroke-width="1"/><rect x="766.3" y="178.9" width="9.0" height="31.0" fill="#16a34a" opacity="0.82" rx="1"/>
<line x1="786.0" y1="177.8" x2="786.0" y2="186.3" stroke="#dc2626" stroke-width="1"/><rect x="781.5" y="178.7" width="9.0" height="1.2" fill="#dc2626" opacity="0.82" rx="1"/>
<line x1="801.2" y1="170.7" x2="801.2" y2="182.2" stroke="#16a34a" stroke-width="1"/><rect x="796.7" y="178.5" width="9.0" height="1.3" fill="#16a34a" opacity="0.82" rx="1"/>
<line x1="816.4" y1="164.4" x2="816.4" y2="202.8" stroke="#dc2626" stroke-width="1"/><rect x="811.9" y="178.3" width="9.0" height="23.5" fill="#dc2626" opacity="0.82" rx="1"/>
<line x1="831.6" y1="192.4" x2="831.6" y2="231.4" stroke="#dc2626" stroke-width="1"/><rect x="827.1" y="201.8" width="9.0" height="22.9" fill="#dc2626" opacity="0.82" rx="1"/>
<line x1="846.8" y1="195.4" x2="846.8" y2="247.7" stroke="#16a34a" stroke-width="1"/><rect x="842.3" y="197.4" width="9.0" height="27.4" fill="#16a34a" opacity="0.82" rx="1"/>
<line x1="862.0" y1="192.2" x2="862.0" y2="222.3" stroke="#dc2626" stroke-width="1"/><rect x="857.5" y="197.4" width="9.0" height="4.5" fill="#dc2626" opacity="0.82" rx="1"/>
<line x1="72" y1="256.7" x2="862" y2="256.7" stroke="#16a34a" stroke-width="1.8" stroke-dasharray="6 4" /><rect x="874" y="236.7" width="166" height="23" rx="5" fill="#ffffff" stroke="#16a34a" opacity="0.97"/><text x="881" y="252.7" fill="#16a34a" font-size="15" font-weight="700">支撑 54.90</text>
<line x1="72" y1="110.8" x2="862" y2="110.8" stroke="#dc2626" stroke-width="1.8" stroke-dasharray="6 4" /><rect x="874" y="90.8" width="166" height="23" rx="5" fill="#ffffff" stroke="#dc2626" opacity="0.97"/><text x="881" y="106.8" fill="#dc2626" font-size="15" font-weight="700">压力 74.48</text>
<line x1="72" y1="202.0" x2="862" y2="202.0" stroke="#111827" stroke-width="1.8" stroke-dasharray="2 2" /><rect x="874" y="182.0" width="166" height="23" rx="5" fill="#ffffff" stroke="#111827" opacity="0.97"/><text x="881" y="198.0" fill="#111827" font-size="15" font-weight="700">现价 62.24</text>
<text x="72" y="396" fill="#16a34a" font-size="14" font-weight="700">日线做多计划</text><rect x="72" y="404" width="790" height="48" rx="6" fill="#f9fafb" stroke="#e5e7eb"/><line x1="94" y1="412" x2="840" y2="412" stroke="#16a34a" stroke-width="3"/><circle cx="132.0" cy="412" r="5" fill="#16a34a"/><text x="132.0" y="434" fill="#374151" font-size="12" text-anchor="middle">入场 止跌/突破回踩</text><circle cx="451.2" cy="412" r="5" fill="#16a34a"/><text x="451.2" y="434" fill="#374151" font-size="12" text-anchor="middle">止损 54.90</text><circle cx="712.0" cy="412" r="5" fill="#16a34a"/><text x="712.0" y="434" fill="#374151" font-size="12" text-anchor="middle">目标一 74.48</text><circle cx="814.0" cy="412" r="5" fill="#16a34a"/><text x="814.0" y="434" fill="#374151" font-size="12" text-anchor="middle">目标二 81.82</text>
<text x="72" y="482" fill="#dc2626" font-size="14" font-weight="700">日线做空计划</text><rect x="72" y="490" width="790" height="48" rx="6" fill="#f9fafb" stroke="#e5e7eb"/><line x1="94" y1="498" x2="840" y2="498" stroke="#dc2626" stroke-width="3"/><circle cx="132.0" cy="498" r="5" fill="#dc2626"/><text x="132.0" y="520" fill="#374151" font-size="12" text-anchor="middle">入场 反弹承压/破位回抽</text><circle cx="451.2" cy="498" r="5" fill="#dc2626"/><text x="451.2" y="520" fill="#374151" font-size="12" text-anchor="middle">止损 74.48</text><circle cx="712.0" cy="498" r="5" fill="#dc2626"/><text x="712.0" y="520" fill="#374151" font-size="12" text-anchor="middle">目标一 54.90</text><circle cx="814.0" cy="498" r="5" fill="#dc2626"/><text x="814.0" y="520" fill="#374151" font-size="12" text-anchor="middle">目标二 50.00</text>
</svg>