<svg xmlns="http://www.w3.org/2000/svg" width="1080" height="560" viewBox="0 0 1080 560">
<rect width="100%" height="100%" fill="#ffffff"/>
<text x="72" y="23" fill="#111827" font-size="21" font-weight="800">BTC 小时线K线支撑压力图</text>
<text x="862" y="42" fill="#374151" font-size="15" text-anchor="end">最新价 63,532</text>
<line x1="72" y1="34" x2="72" y2="340" stroke="#d1d5db"/>
<line x1="72" y1="340" x2="862" y2="340" stroke="#d1d5db"/>
<line x1="72" y1="340.0" x2="862" y2="340.0" stroke="#f3f4f6"/>
<text x="8" y="345.0" fill="#4b5563" font-size="14">60,392</text>
<line x1="72" y1="263.5" x2="862" y2="263.5" stroke="#f3f4f6"/>
<text x="8" y="268.5" fill="#4b5563" font-size="14">61,478</text>
<line x1="72" y1="187.0" x2="862" y2="187.0" stroke="#f3f4f6"/>
<text x="8" y="192.0" fill="#4b5563" font-size="14">62,564</text>
<line x1="72" y1="110.5" x2="862" y2="110.5" stroke="#f3f4f6"/>
<text x="8" y="115.5" fill="#4b5563" font-size="14">63,650</text>
<line x1="72" y1="34.0" x2="862" y2="34.0" stroke="#f3f4f6"/>
<text x="8" y="39.0" fill="#4b5563" font-size="14">64,736</text>
<line x1="72.0" y1="126.4" x2="72.0" y2="158.4" stroke="#dc2626" stroke-width="1"/><rect x="69.3" y="136.6" width="5.4" height="7.7" fill="#dc2626" opacity="0.82" rx="1"/>
<line x1="80.9" y1="143.4" x2="80.9" y2="181.2" stroke="#dc2626" stroke-width="1"/><rect x="78.2" y="144.3" width="5.4" height="24.9" fill="#dc2626" opacity="0.82" rx="1"/>
<line x1="89.8" y1="161.7" x2="89.8" y2="187.6" stroke="#dc2626" stroke-width="1"/><rect x="87.0" y="169.2" width="5.4" height="9.5" fill="#dc2626" opacity="0.82" rx="1"/>
<line x1="98.6" y1="170.2" x2="98.6" y2="187.2" stroke="#16a34a" stroke-width="1"/><rect x="95.9" y="173.9" width="5.4" height="4.7" fill="#16a34a" opacity="0.82" rx="1"/>
<line x1="107.5" y1="171.3" x2="107.5" y2="194.5" stroke="#dc2626" stroke-width="1"/><rect x="104.8" y="173.9" width="5.4" height="5.0" fill="#dc2626" opacity="0.82" rx="1"/>
<line x1="116.4" y1="165.6" x2="116.4" y2="198.3" stroke="#dc2626" stroke-width="1"/><rect x="113.7" y="178.9" width="5.4" height="4.8" fill="#dc2626" opacity="0.82" rx="1"/>
<line x1="125.3" y1="176.2" x2="125.3" y2="217.9" stroke="#dc2626" stroke-width="1"/><rect x="122.5" y="183.7" width="5.4" height="25.9" fill="#dc2626" opacity="0.82" rx="1"/>
<line x1="134.1" y1="200.6" x2="134.1" y2="291.8" stroke="#dc2626" stroke-width="1"/><rect x="131.4" y="209.5" width="5.4" height="51.6" fill="#dc2626" opacity="0.82" rx="1"/>
<line x1="143.0" y1="249.2" x2="143.0" y2="297.1" stroke="#dc2626" stroke-width="1"/><rect x="140.3" y="261.2" width="5.4" height="28.9" fill="#dc2626" opacity="0.82" rx="1"/>
<line x1="151.9" y1="262.7" x2="151.9" y2="314.5" stroke="#16a34a" stroke-width="1"/><rect x="149.2" y="271.3" width="5.4" height="18.8" fill="#16a34a" opacity="0.82" rx="1"/>
<line x1="160.8" y1="236.6" x2="160.8" y2="271.3" stroke="#16a34a" stroke-width="1"/><rect x="158.0" y="250.2" width="5.4" height="21.1" fill="#16a34a" opacity="0.82" rx="1"/>
<line x1="169.6" y1="231.1" x2="169.6" y2="257.5" stroke="#16a34a" stroke-width="1"/><rect x="166.9" y="243.9" width="5.4" height="6.3" fill="#16a34a" opacity="0.82" rx="1"/>
<line x1="178.5" y1="221.2" x2="178.5" y2="248.9" stroke="#16a34a" stroke-width="1"/><rect x="175.8" y="221.9" width="5.4" height="22.0" fill="#16a34a" opacity="0.82" rx="1"/>
<line x1="187.4" y1="208.9" x2="187.4" y2="232.3" stroke="#16a34a" stroke-width="1"/><rect x="184.7" y="217.4" width="5.4" height="4.5" fill="#16a34a" opacity="0.82" rx="1"/>
<line x1="196.3" y1="216.2" x2="196.3" y2="250.7" stroke="#dc2626" stroke-width="1"/><rect x="193.5" y="217.4" width="5.4" height="28.2" fill="#dc2626" opacity="0.82" rx="1"/>
<line x1="205.1" y1="230.6" x2="205.1" y2="252.8" stroke="#dc2626" stroke-width="1"/><rect x="202.4" y="245.6" width="5.4" height="3.1" fill="#dc2626" opacity="0.82" rx="1"/>
<line x1="214.0" y1="237.3" x2="214.0" y2="260.6" stroke="#16a34a" stroke-width="1"/><rect x="211.3" y="248.2" width="5.4" height="1.2" fill="#16a34a" opacity="0.82" rx="1"/>
<line x1="222.9" y1="233.2" x2="222.9" y2="268.7" stroke="#16a34a" stroke-width="1"/><rect x="220.2" y="234.7" width="5.4" height="13.5" fill="#16a34a" opacity="0.82" rx="1"/>
<line x1="231.8" y1="230.5" x2="231.8" y2="258.9" stroke="#dc2626" stroke-width="1"/><rect x="229.1" y="234.7" width="5.4" height="14.5" fill="#dc2626" opacity="0.82" rx="1"/>
<line x1="240.7" y1="240.3" x2="240.7" y2="283.0" stroke="#dc2626" stroke-width="1"/><rect x="237.9" y="249.2" width="5.4" height="28.8" fill="#dc2626" opacity="0.82" rx="1"/>
<line x1="249.5" y1="257.0" x2="249.5" y2="279.6" stroke="#16a34a" stroke-width="1"/><rect x="246.8" y="260.7" width="5.4" height="17.4" fill="#16a34a" opacity="0.82" rx="1"/>
<line x1="258.4" y1="259.5" x2="258.4" y2="286.4" stroke="#dc2626" stroke-width="1"/><rect x="255.7" y="260.7" width="5.4" height="17.5" fill="#dc2626" opacity="0.82" rx="1"/>
<line x1="267.3" y1="271.3" x2="267.3" y2="294.0" stroke="#16a34a" stroke-width="1"/><rect x="264.6" y="274.5" width="5.4" height="3.7" fill="#16a34a" opacity="0.82" rx="1"/>
<line x1="276.2" y1="262.5" x2="276.2" y2="289.5" stroke="#16a34a" stroke-width="1"/><rect x="273.4" y="266.4" width="5.4" height="8.1" fill="#16a34a" opacity="0.82" rx="1"/>
<line x1="285.0" y1="242.0" x2="285.0" y2="269.0" stroke="#16a34a" stroke-width="1"/><rect x="282.3" y="251.1" width="5.4" height="15.3" fill="#16a34a" opacity="0.82" rx="1"/>
<line x1="293.9" y1="247.4" x2="293.9" y2="288.1" stroke="#dc2626" stroke-width="1"/><rect x="291.2" y="251.1" width="5.4" height="30.0" fill="#dc2626" opacity="0.82" rx="1"/>
<line x1="302.8" y1="269.3" x2="302.8" y2="318.9" stroke="#16a34a" stroke-width="1"/><rect x="300.1" y="275.9" width="5.4" height="5.2" fill="#16a34a" opacity="0.82" rx="1"/>
<line x1="311.7" y1="267.1" x2="311.7" y2="289.2" stroke="#16a34a" stroke-width="1"/><rect x="308.9" y="272.5" width="5.4" height="3.3" fill="#16a34a" opacity="0.82" rx="1"/>
<line x1="320.5" y1="268.6" x2="320.5" y2="309.6" stroke="#dc2626" stroke-width="1"/><rect x="317.8" y="272.5" width="5.4" height="24.4" fill="#dc2626" opacity="0.82" rx="1"/>
<line x1="329.4" y1="232.5" x2="329.4" y2="302.1" stroke="#16a34a" stroke-width="1"/><rect x="326.7" y="259.7" width="5.4" height="37.2" fill="#16a34a" opacity="0.82" rx="1"/>
<line x1="338.3" y1="195.4" x2="338.3" y2="268.5" stroke="#16a34a" stroke-width="1"/><rect x="335.6" y="218.0" width="5.4" height="41.7" fill="#16a34a" opacity="0.82" rx="1"/>
<line x1="347.2" y1="210.6" x2="347.2" y2="242.1" stroke="#16a34a" stroke-width="1"/><rect x="344.4" y="214.7" width="5.4" height="3.3" fill="#16a34a" opacity="0.82" rx="1"/>
<line x1="356.0" y1="167.6" x2="356.0" y2="239.9" stroke="#16a34a" stroke-width="1"/><rect x="353.3" y="184.2" width="5.4" height="30.6" fill="#16a34a" opacity="0.82" rx="1"/>
<line x1="364.9" y1="183.3" x2="364.9" y2="234.4" stroke="#dc2626" stroke-width="1"/><rect x="362.2" y="184.2" width="5.4" height="28.9" fill="#dc2626" opacity="0.82" rx="1"/>
<line x1="373.8" y1="203.5" x2="373.8" y2="253.8" stroke="#dc2626" stroke-width="1"/><rect x="371.1" y="213.0" width="5.4" height="17.6" fill="#dc2626" opacity="0.82" rx="1"/>
<line x1="382.7" y1="217.1" x2="382.7" y2="258.3" stroke="#dc2626" stroke-width="1"/><rect x="380.0" y="230.7" width="5.4" height="6.2" fill="#dc2626" opacity="0.82" rx="1"/>
<line x1="391.6" y1="224.1" x2="391.6" y2="252.0" stroke="#16a34a" stroke-width="1"/><rect x="388.8" y="233.2" width="5.4" height="3.7" fill="#16a34a" opacity="0.82" rx="1"/>
<line x1="400.4" y1="232.3" x2="400.4" y2="251.8" stroke="#dc2626" stroke-width="1"/><rect x="397.7" y="233.2" width="5.4" height="9.8" fill="#dc2626" opacity="0.82" rx="1"/>
<line x1="409.3" y1="242.7" x2="409.3" y2="286.6" stroke="#dc2626" stroke-width="1"/><rect x="406.6" y="242.9" width="5.4" height="31.2" fill="#dc2626" opacity="0.82" rx="1"/>
<line x1="418.2" y1="258.6" x2="418.2" y2="292.4" stroke="#16a34a" stroke-width="1"/><rect x="415.5" y="272.3" width="5.4" height="1.8" fill="#16a34a" opacity="0.82" rx="1"/>
<line x1="427.1" y1="256.2" x2="427.1" y2="287.6" stroke="#16a34a" stroke-width="1"/><rect x="424.3" y="263.1" width="5.4" height="9.2" fill="#16a34a" opacity="0.82" rx="1"/>
<line x1="435.9" y1="229.9" x2="435.9" y2="263.1" stroke="#16a34a" stroke-width="1"/><rect x="433.2" y="241.2" width="5.4" height="21.9" fill="#16a34a" opacity="0.82" rx="1"/>
<line x1="444.8" y1="202.1" x2="444.8" y2="241.3" stroke="#16a34a" stroke-width="1"/><rect x="442.1" y="214.1" width="5.4" height="27.2" fill="#16a34a" opacity="0.82" rx="1"/>
<line x1="453.7" y1="207.2" x2="453.7" y2="233.0" stroke="#dc2626" stroke-width="1"/><rect x="451.0" y="214.0" width="5.4" height="4.7" fill="#dc2626" opacity="0.82" rx="1"/>
<line x1="462.6" y1="161.8" x2="462.6" y2="228.5" stroke="#16a34a" stroke-width="1"/><rect x="459.8" y="180.4" width="5.4" height="38.3" fill="#16a34a" opacity="0.82" rx="1"/>
<line x1="471.4" y1="168.5" x2="471.4" y2="190.6" stroke="#16a34a" stroke-width="1"/><rect x="468.7" y="177.9" width="5.4" height="2.5" fill="#16a34a" opacity="0.82" rx="1"/>
<line x1="480.3" y1="177.7" x2="480.3" y2="189.6" stroke="#dc2626" stroke-width="1"/><rect x="477.6" y="178.0" width="5.4" height="7.8" fill="#dc2626" opacity="0.82" rx="1"/>
<line x1="489.2" y1="156.8" x2="489.2" y2="191.0" stroke="#16a34a" stroke-width="1"/><rect x="486.5" y="175.0" width="5.4" height="10.7" fill="#16a34a" opacity="0.82" rx="1"/>
<line x1="498.1" y1="169.5" x2="498.1" y2="186.3" stroke="#dc2626" stroke-width="1"/><rect x="495.3" y="175.0" width="5.4" height="2.9" fill="#dc2626" opacity="0.82" rx="1"/>
<line x1="506.9" y1="153.3" x2="506.9" y2="178.0" stroke="#16a34a" stroke-width="1"/><rect x="504.2" y="161.4" width="5.4" height="16.5" fill="#16a34a" opacity="0.82" rx="1"/>
<line x1="515.8" y1="158.4" x2="515.8" y2="173.7" stroke="#dc2626" stroke-width="1"/><rect x="513.1" y="161.4" width="5.4" height="1.9" fill="#dc2626" opacity="0.82" rx="1"/>
<line x1="524.7" y1="143.1" x2="524.7" y2="172.4" stroke="#16a34a" stroke-width="1"/><rect x="522.0" y="147.8" width="5.4" height="15.5" fill="#16a34a" opacity="0.82" rx="1"/>
<line x1="533.6" y1="139.7" x2="533.6" y2="154.9" stroke="#dc2626" stroke-width="1"/><rect x="530.9" y="147.8" width="5.4" height="3.0" fill="#dc2626" opacity="0.82" rx="1"/>
<line x1="542.4" y1="144.1" x2="542.4" y2="194.6" stroke="#dc2626" stroke-width="1"/><rect x="539.7" y="150.8" width="5.4" height="7.0" fill="#dc2626" opacity="0.82" rx="1"/>
<line x1="551.3" y1="142.2" x2="551.3" y2="181.3" stroke="#16a34a" stroke-width="1"/><rect x="548.6" y="153.1" width="5.4" height="4.8" fill="#16a34a" opacity="0.82" rx="1"/>
<line x1="560.2" y1="152.1" x2="560.2" y2="177.7" stroke="#dc2626" stroke-width="1"/><rect x="557.5" y="153.1" width="5.4" height="24.4" fill="#dc2626" opacity="0.82" rx="1"/>
<line x1="569.1" y1="166.4" x2="569.1" y2="191.9" stroke="#16a34a" stroke-width="1"/><rect x="566.4" y="176.0" width="5.4" height="1.5" fill="#16a34a" opacity="0.82" rx="1"/>
<line x1="578.0" y1="169.7" x2="578.0" y2="191.4" stroke="#dc2626" stroke-width="1"/><rect x="575.2" y="176.0" width="5.4" height="12.3" fill="#dc2626" opacity="0.82" rx="1"/>
<line x1="586.8" y1="111.0" x2="586.8" y2="204.6" stroke="#16a34a" stroke-width="1"/><rect x="584.1" y="113.0" width="5.4" height="75.2" fill="#16a34a" opacity="0.82" rx="1"/>
<line x1="595.7" y1="102.2" x2="595.7" y2="136.4" stroke="#dc2626" stroke-width="1"/><rect x="593.0" y="113.0" width="5.4" height="13.3" fill="#dc2626" opacity="0.82" rx="1"/>
<line x1="604.6" y1="91.8" x2="604.6" y2="131.6" stroke="#16a34a" stroke-width="1"/><rect x="601.9" y="116.3" width="5.4" height="10.0" fill="#16a34a" opacity="0.82" rx="1"/>
<line x1="613.5" y1="111.7" x2="613.5" y2="139.7" stroke="#dc2626" stroke-width="1"/><rect x="610.7" y="116.3" width="5.4" height="14.5" fill="#dc2626" opacity="0.82" rx="1"/>
<line x1="622.3" y1="116.1" x2="622.3" y2="131.0" stroke="#16a34a" stroke-width="1"/><rect x="619.6" y="122.0" width="5.4" height="8.8" fill="#16a34a" opacity="0.82" rx="1"/>
<line x1="631.2" y1="111.2" x2="631.2" y2="126.4" stroke="#dc2626" stroke-width="1"/><rect x="628.5" y="122.0" width="5.4" height="1.4" fill="#dc2626" opacity="0.82" rx="1"/>
<line x1="640.1" y1="106.1" x2="640.1" y2="133.2" stroke="#16a34a" stroke-width="1"/><rect x="637.4" y="114.2" width="5.4" height="9.2" fill="#16a34a" opacity="0.82" rx="1"/>
<line x1="649.0" y1="101.6" x2="649.0" y2="121.8" stroke="#16a34a" stroke-width="1"/><rect x="646.2" y="112.8" width="5.4" height="1.4" fill="#16a34a" opacity="0.82" rx="1"/>
<line x1="657.8" y1="112.8" x2="657.8" y2="137.2" stroke="#dc2626" stroke-width="1"/><rect x="655.1" y="112.8" width="5.4" height="15.1" fill="#dc2626" opacity="0.82" rx="1"/>
<line x1="666.7" y1="102.9" x2="666.7" y2="127.9" stroke="#16a34a" stroke-width="1"/><rect x="664.0" y="114.8" width="5.4" height="13.1" fill="#16a34a" opacity="0.82" rx="1"/>
<line x1="675.6" y1="112.6" x2="675.6" y2="134.1" stroke="#dc2626" stroke-width="1"/><rect x="672.9" y="114.8" width="5.4" height="7.0" fill="#dc2626" opacity="0.82" rx="1"/>
<line x1="684.5" y1="96.9" x2="684.5" y2="128.8" stroke="#16a34a" stroke-width="1"/><rect x="681.8" y="109.1" width="5.4" height="12.7" fill="#16a34a" opacity="0.82" rx="1"/>
<line x1="693.3" y1="107.3" x2="693.3" y2="137.6" stroke="#dc2626" stroke-width="1"/><rect x="690.6" y="109.1" width="5.4" height="24.9" fill="#dc2626" opacity="0.82" rx="1"/>
<line x1="702.2" y1="129.1" x2="702.2" y2="170.4" stroke="#dc2626" stroke-width="1"/><rect x="699.5" y="133.9" width="5.4" height="25.5" fill="#dc2626" opacity="0.82" rx="1"/>
<line x1="711.1" y1="143.6" x2="711.1" y2="162.0" stroke="#16a34a" stroke-width="1"/><rect x="708.4" y="151.6" width="5.4" height="7.8" fill="#16a34a" opacity="0.82" rx="1"/>
<line x1="720.0" y1="115.0" x2="720.0" y2="151.8" stroke="#16a34a" stroke-width="1"/><rect x="717.3" y="125.3" width="5.4" height="26.3" fill="#16a34a" opacity="0.82" rx="1"/>
<line x1="728.9" y1="90.8" x2="728.9" y2="128.3" stroke="#16a34a" stroke-width="1"/><rect x="726.1" y="104.9" width="5.4" height="20.4" fill="#16a34a" opacity="0.82" rx="1"/>
<line x1="737.7" y1="98.3" x2="737.7" y2="118.1" stroke="#dc2626" stroke-width="1"/><rect x="735.0" y="104.9" width="5.4" height="4.5" fill="#dc2626" opacity="0.82" rx="1"/>
<line x1="746.6" y1="96.0" x2="746.6" y2="110.5" stroke="#16a34a" stroke-width="1"/><rect x="743.9" y="104.9" width="5.4" height="4.5" fill="#16a34a" opacity="0.82" rx="1"/>
<line x1="755.5" y1="103.8" x2="755.5" y2="132.9" stroke="#dc2626" stroke-width="1"/><rect x="752.8" y="104.9" width="5.4" height="20.8" fill="#dc2626" opacity="0.82" rx="1"/>
<line x1="764.4" y1="120.5" x2="764.4" y2="154.9" stroke="#dc2626" stroke-width="1"/><rect x="761.6" y="125.8" width="5.4" height="16.4" fill="#dc2626" opacity="0.82" rx="1"/>
<line x1="773.2" y1="86.7" x2="773.2" y2="145.0" stroke="#16a34a" stroke-width="1"/><rect x="770.5" y="87.9" width="5.4" height="54.3" fill="#16a34a" opacity="0.82" rx="1"/>
<line x1="782.1" y1="60.3" x2="782.1" y2="120.8" stroke="#dc2626" stroke-width="1"/><rect x="779.4" y="87.9" width="5.4" height="29.2" fill="#dc2626" opacity="0.82" rx="1"/>
<line x1="791.0" y1="87.6" x2="791.0" y2="122.7" stroke="#16a34a" stroke-width="1"/><rect x="788.3" y="89.3" width="5.4" height="27.8" fill="#16a34a" opacity="0.82" rx="1"/>
<line x1="799.9" y1="80.0" x2="799.9" y2="106.4" stroke="#dc2626" stroke-width="1"/><rect x="797.1" y="89.3" width="5.4" height="8.1" fill="#dc2626" opacity="0.82" rx="1"/>
<line x1="808.7" y1="92.4" x2="808.7" y2="110.7" stroke="#dc2626" stroke-width="1"/><rect x="806.0" y="97.4" width="5.4" height="12.3" fill="#dc2626" opacity="0.82" rx="1"/>
<line x1="817.6" y1="100.6" x2="817.6" y2="117.2" stroke="#dc2626" stroke-width="1"/><rect x="814.9" y="109.7" width="5.4" height="7.5" fill="#dc2626" opacity="0.82" rx="1"/>
<line x1="826.5" y1="109.5" x2="826.5" y2="131.5" stroke="#dc2626" stroke-width="1"/><rect x="823.8" y="117.2" width="5.4" height="9.7" fill="#dc2626" opacity="0.82" rx="1"/>
<line x1="835.4" y1="113.5" x2="835.4" y2="127.2" stroke="#16a34a" stroke-width="1"/><rect x="832.6" y="124.6" width="5.4" height="2.2" fill="#16a34a" opacity="0.82" rx="1"/>
<line x1="844.2" y1="111.7" x2="844.2" y2="125.6" stroke="#16a34a" stroke-width="1"/><rect x="841.5" y="122.3" width="5.4" height="2.3" fill="#16a34a" opacity="0.82" rx="1"/>
<line x1="853.1" y1="117.2" x2="853.1" y2="128.5" stroke="#16a34a" stroke-width="1"/><rect x="850.4" y="117.8" width="5.4" height="4.5" fill="#16a34a" opacity="0.82" rx="1"/>
<line x1="862.0" y1="115.9" x2="862.0" y2="118.8" stroke="#dc2626" stroke-width="1"/><rect x="859.3" y="117.8" width="5.4" height="1.2" fill="#dc2626" opacity="0.82" rx="1"/>
<line x1="72" y1="157.1" x2="862" y2="157.1" stroke="#16a34a" stroke-width="1.8" stroke-dasharray="6 4" /><rect x="874" y="137.1" width="166" height="23" rx="5" fill="#ffffff" stroke="#16a34a" opacity="0.97"/><text x="881" y="153.1" fill="#16a34a" font-size="15" font-weight="700">日内支撑 62,989</text>
<line x1="72" y1="55.1" x2="862" y2="55.1" stroke="#dc2626" stroke-width="1.8" stroke-dasharray="6 4" /><rect x="874" y="35.1" width="166" height="23" rx="5" fill="#ffffff" stroke="#dc2626" opacity="0.97"/><text x="881" y="51.1" fill="#dc2626" font-size="15" font-weight="700">日内压力 64,437</text>
<line x1="72" y1="118.8" x2="862" y2="118.8" stroke="#111827" stroke-width="1.8" stroke-dasharray="2 2" /><rect x="874" y="98.8" width="166" height="23" rx="5" fill="#ffffff" stroke="#111827" opacity="0.97"/><text x="881" y="114.8" fill="#111827" font-size="15" font-weight="700">现价 63,532</text>
<text x="72" y="396" fill="#16a34a" font-size="14" font-weight="700">日内做多计划</text><rect x="72" y="404" width="790" height="48" rx="6" fill="#f9fafb" stroke="#e5e7eb"/><line x1="94" y1="412" x2="840" y2="412" stroke="#16a34a" stroke-width="3"/><circle cx="132.0" cy="412" r="5" fill="#16a34a"/><text x="132.0" y="434" fill="#374151" font-size="12" text-anchor="middle">入场 止跌/突破回踩</text><circle cx="451.2" cy="412" r="5" fill="#16a34a"/><text x="451.2" y="434" fill="#374151" font-size="12" text-anchor="middle">止损 62,989</text><circle cx="712.0" cy="412" r="5" fill="#16a34a"/><text x="712.0" y="434" fill="#374151" font-size="12" text-anchor="middle">目标一 64,437</text><circle cx="814.0" cy="412" r="5" fill="#16a34a"/><text x="814.0" y="434" fill="#374151" font-size="12" text-anchor="middle">目标二 64,799</text>
<text x="72" y="482" fill="#dc2626" font-size="14" font-weight="700">日内做空计划</text><rect x="72" y="490" width="790" height="48" rx="6" fill="#f9fafb" stroke="#e5e7eb"/><line x1="94" y1="498" x2="840" y2="498" stroke="#dc2626" stroke-width="3"/><circle cx="132.0" cy="498" r="5" fill="#dc2626"/><text x="132.0" y="520" fill="#374151" font-size="12" text-anchor="middle">入场 反弹承压/破位回抽</text><circle cx="451.2" cy="498" r="5" fill="#dc2626"/><text x="451.2" y="520" fill="#374151" font-size="12" text-anchor="middle">止损 64,437</text><circle cx="712.0" cy="498" r="5" fill="#dc2626"/><text x="712.0" y="520" fill="#374151" font-size="12" text-anchor="middle">目标一 62,989</text><circle cx="814.0" cy="498" r="5" fill="#dc2626"/><text x="814.0" y="520" fill="#374151" font-size="12" text-anchor="middle">目标二 62,627</text>
</svg>