<svg xmlns="http://www.w3.org/2000/svg" width="1080" height="560" viewBox="0 0 1080 560">
<rect width="100%" height="100%" fill="#ffffff"/>
<text x="72" y="23" fill="#111827" font-size="21" font-weight="800">DRAM 小时线K线支撑压力图</text>
<text x="862" y="42" fill="#374151" font-size="15" text-anchor="end">最新价 65.38</text>
<line x1="72" y1="34" x2="72" y2="340" stroke="#d1d5db"/>
<line x1="72" y1="340" x2="862" y2="340" stroke="#d1d5db"/>
<line x1="72" y1="340.0" x2="862" y2="340.0" stroke="#f3f4f6"/>
<text x="8" y="345.0" fill="#4b5563" font-size="14">54.46</text>
<line x1="72" y1="263.5" x2="862" y2="263.5" stroke="#f3f4f6"/>
<text x="8" y="268.5" fill="#4b5563" font-size="14">58.04</text>
<line x1="72" y1="187.0" x2="862" y2="187.0" stroke="#f3f4f6"/>
<text x="8" y="192.0" fill="#4b5563" font-size="14">61.61</text>
<line x1="72" y1="110.5" x2="862" y2="110.5" stroke="#f3f4f6"/>
<text x="8" y="115.5" fill="#4b5563" font-size="14">65.19</text>
<line x1="72" y1="34.0" x2="862" y2="34.0" stroke="#f3f4f6"/>
<text x="8" y="39.0" fill="#4b5563" font-size="14">68.76</text>
<line x1="72.0" y1="143.0" x2="72.0" y2="155.2" stroke="#dc2626" stroke-width="1"/><rect x="69.3" y="148.8" width="5.4" height="4.5" fill="#dc2626" opacity="0.82" rx="1"/>
<line x1="80.9" y1="146.4" x2="80.9" y2="161.0" stroke="#16a34a" stroke-width="1"/><rect x="78.2" y="151.6" width="5.4" height="1.5" fill="#16a34a" opacity="0.82" rx="1"/>
<line x1="89.8" y1="143.4" x2="89.8" y2="152.6" stroke="#16a34a" stroke-width="1"/><rect x="87.0" y="148.8" width="5.4" height="2.8" fill="#16a34a" opacity="0.82" rx="1"/>
<line x1="98.6" y1="143.2" x2="98.6" y2="156.5" stroke="#16a34a" stroke-width="1"/><rect x="95.9" y="146.6" width="5.4" height="2.4" fill="#16a34a" opacity="0.82" rx="1"/>
<line x1="107.5" y1="131.7" x2="107.5" y2="147.9" stroke="#16a34a" stroke-width="1"/><rect x="104.8" y="138.5" width="5.4" height="8.3" fill="#16a34a" opacity="0.82" rx="1"/>
<line x1="116.4" y1="137.4" x2="116.4" y2="151.6" stroke="#dc2626" stroke-width="1"/><rect x="113.7" y="138.5" width="5.4" height="3.2" fill="#dc2626" opacity="0.82" rx="1"/>
<line x1="125.3" y1="139.8" x2="125.3" y2="173.8" stroke="#dc2626" stroke-width="1"/><rect x="122.5" y="141.9" width="5.4" height="29.5" fill="#dc2626" opacity="0.82" rx="1"/>
<line x1="134.1" y1="161.0" x2="134.1" y2="230.3" stroke="#dc2626" stroke-width="1"/><rect x="131.4" y="172.5" width="5.4" height="40.7" fill="#dc2626" opacity="0.82" rx="1"/>
<line x1="143.0" y1="195.9" x2="143.0" y2="271.8" stroke="#dc2626" stroke-width="1"/><rect x="140.3" y="213.2" width="5.4" height="55.6" fill="#dc2626" opacity="0.82" rx="1"/>
<line x1="151.9" y1="257.5" x2="151.9" y2="318.9" stroke="#dc2626" stroke-width="1"/><rect x="149.2" y="268.8" width="5.4" height="18.0" fill="#dc2626" opacity="0.82" rx="1"/>
<line x1="160.8" y1="236.7" x2="160.8" y2="287.9" stroke="#16a34a" stroke-width="1"/><rect x="158.0" y="253.6" width="5.4" height="33.0" fill="#16a34a" opacity="0.82" rx="1"/>
<line x1="169.6" y1="232.2" x2="169.6" y2="261.6" stroke="#16a34a" stroke-width="1"/><rect x="166.9" y="234.6" width="5.4" height="18.2" fill="#16a34a" opacity="0.82" rx="1"/>
<line x1="178.5" y1="224.5" x2="178.5" y2="260.9" stroke="#16a34a" stroke-width="1"/><rect x="175.8" y="226.0" width="5.4" height="8.3" fill="#16a34a" opacity="0.82" rx="1"/>
<line x1="187.4" y1="216.0" x2="187.4" y2="231.4" stroke="#16a34a" stroke-width="1"/><rect x="184.7" y="224.1" width="5.4" height="1.3" fill="#16a34a" opacity="0.82" rx="1"/>
<line x1="196.3" y1="220.9" x2="196.3" y2="240.2" stroke="#dc2626" stroke-width="1"/><rect x="193.5" y="224.1" width="5.4" height="13.7" fill="#dc2626" opacity="0.82" rx="1"/>
<line x1="205.1" y1="230.3" x2="205.1" y2="265.4" stroke="#dc2626" stroke-width="1"/><rect x="202.4" y="237.8" width="5.4" height="9.0" fill="#dc2626" opacity="0.82" rx="1"/>
<line x1="214.0" y1="224.3" x2="214.0" y2="247.4" stroke="#16a34a" stroke-width="1"/><rect x="211.3" y="227.1" width="5.4" height="20.1" fill="#16a34a" opacity="0.82" rx="1"/>
<line x1="222.9" y1="191.6" x2="222.9" y2="228.0" stroke="#16a34a" stroke-width="1"/><rect x="220.2" y="217.3" width="5.4" height="9.8" fill="#16a34a" opacity="0.82" rx="1"/>
<line x1="231.8" y1="201.4" x2="231.8" y2="224.5" stroke="#dc2626" stroke-width="1"/><rect x="229.1" y="217.5" width="5.4" height="5.6" fill="#dc2626" opacity="0.82" rx="1"/>
<line x1="240.7" y1="221.8" x2="240.7" y2="244.9" stroke="#dc2626" stroke-width="1"/><rect x="237.9" y="222.8" width="5.4" height="13.7" fill="#dc2626" opacity="0.82" rx="1"/>
<line x1="249.5" y1="223.7" x2="249.5" y2="238.9" stroke="#16a34a" stroke-width="1"/><rect x="246.8" y="236.9" width="5.4" height="1.2" fill="#16a34a" opacity="0.82" rx="1"/>
<line x1="258.4" y1="235.0" x2="258.4" y2="268.8" stroke="#dc2626" stroke-width="1"/><rect x="255.7" y="236.7" width="5.4" height="24.4" fill="#dc2626" opacity="0.82" rx="1"/>
<line x1="267.3" y1="254.3" x2="267.3" y2="269.5" stroke="#dc2626" stroke-width="1"/><rect x="264.6" y="261.3" width="5.4" height="1.3" fill="#dc2626" opacity="0.82" rx="1"/>
<line x1="276.2" y1="242.3" x2="276.2" y2="262.8" stroke="#16a34a" stroke-width="1"/><rect x="273.4" y="243.1" width="5.4" height="19.3" fill="#16a34a" opacity="0.82" rx="1"/>
<line x1="285.0" y1="239.9" x2="285.0" y2="253.6" stroke="#dc2626" stroke-width="1"/><rect x="282.3" y="243.1" width="5.4" height="8.8" fill="#dc2626" opacity="0.82" rx="1"/>
<line x1="293.9" y1="248.9" x2="293.9" y2="266.7" stroke="#dc2626" stroke-width="1"/><rect x="291.2" y="251.5" width="5.4" height="12.4" fill="#dc2626" opacity="0.82" rx="1"/>
<line x1="302.8" y1="260.1" x2="302.8" y2="277.2" stroke="#dc2626" stroke-width="1"/><rect x="300.1" y="264.8" width="5.4" height="1.2" fill="#dc2626" opacity="0.82" rx="1"/>
<line x1="311.7" y1="259.4" x2="311.7" y2="274.6" stroke="#16a34a" stroke-width="1"/><rect x="308.9" y="262.0" width="5.4" height="3.4" fill="#16a34a" opacity="0.82" rx="1"/>
<line x1="320.5" y1="259.8" x2="320.5" y2="292.8" stroke="#dc2626" stroke-width="1"/><rect x="317.8" y="262.0" width="5.4" height="25.7" fill="#dc2626" opacity="0.82" rx="1"/>
<line x1="329.4" y1="217.3" x2="329.4" y2="289.8" stroke="#16a34a" stroke-width="1"/><rect x="326.7" y="258.3" width="5.4" height="29.3" fill="#16a34a" opacity="0.82" rx="1"/>
<line x1="338.3" y1="210.0" x2="338.3" y2="268.8" stroke="#16a34a" stroke-width="1"/><rect x="335.6" y="236.7" width="5.4" height="21.6" fill="#16a34a" opacity="0.82" rx="1"/>
<line x1="347.2" y1="188.6" x2="347.2" y2="244.2" stroke="#16a34a" stroke-width="1"/><rect x="344.4" y="234.8" width="5.4" height="1.5" fill="#16a34a" opacity="0.82" rx="1"/>
<line x1="356.0" y1="227.1" x2="356.0" y2="275.0" stroke="#dc2626" stroke-width="1"/><rect x="353.3" y="234.6" width="5.4" height="13.9" fill="#dc2626" opacity="0.82" rx="1"/>
<line x1="364.9" y1="244.9" x2="364.9" y2="266.3" stroke="#dc2626" stroke-width="1"/><rect x="362.2" y="248.3" width="5.4" height="10.7" fill="#dc2626" opacity="0.82" rx="1"/>
<line x1="373.8" y1="253.0" x2="373.8" y2="274.0" stroke="#16a34a" stroke-width="1"/><rect x="371.1" y="256.8" width="5.4" height="2.6" fill="#16a34a" opacity="0.82" rx="1"/>
<line x1="382.7" y1="248.3" x2="382.7" y2="272.9" stroke="#dc2626" stroke-width="1"/><rect x="380.0" y="256.4" width="5.4" height="11.3" fill="#dc2626" opacity="0.82" rx="1"/>
<line x1="391.6" y1="262.6" x2="391.6" y2="283.4" stroke="#dc2626" stroke-width="1"/><rect x="388.8" y="267.8" width="5.4" height="9.6" fill="#dc2626" opacity="0.82" rx="1"/>
<line x1="400.4" y1="274.0" x2="400.4" y2="295.6" stroke="#dc2626" stroke-width="1"/><rect x="397.7" y="277.6" width="5.4" height="10.3" fill="#dc2626" opacity="0.82" rx="1"/>
<line x1="409.3" y1="284.9" x2="409.3" y2="294.3" stroke="#dc2626" stroke-width="1"/><rect x="406.6" y="287.7" width="5.4" height="4.7" fill="#dc2626" opacity="0.82" rx="1"/>
<line x1="418.2" y1="291.1" x2="418.2" y2="309.7" stroke="#dc2626" stroke-width="1"/><rect x="415.5" y="291.9" width="5.4" height="16.5" fill="#dc2626" opacity="0.82" rx="1"/>
<line x1="427.1" y1="290.4" x2="427.1" y2="315.9" stroke="#16a34a" stroke-width="1"/><rect x="424.3" y="297.7" width="5.4" height="10.7" fill="#16a34a" opacity="0.82" rx="1"/>
<line x1="435.9" y1="244.6" x2="435.9" y2="303.1" stroke="#16a34a" stroke-width="1"/><rect x="433.2" y="245.1" width="5.4" height="52.0" fill="#16a34a" opacity="0.82" rx="1"/>
<line x1="444.8" y1="213.6" x2="444.8" y2="245.7" stroke="#16a34a" stroke-width="1"/><rect x="442.1" y="243.4" width="5.4" height="1.5" fill="#16a34a" opacity="0.82" rx="1"/>
<line x1="453.7" y1="235.0" x2="453.7" y2="267.8" stroke="#dc2626" stroke-width="1"/><rect x="451.0" y="243.4" width="5.4" height="7.9" fill="#dc2626" opacity="0.82" rx="1"/>
<line x1="462.6" y1="232.5" x2="462.6" y2="262.0" stroke="#16a34a" stroke-width="1"/><rect x="459.8" y="233.3" width="5.4" height="18.0" fill="#16a34a" opacity="0.82" rx="1"/>
<line x1="471.4" y1="229.9" x2="471.4" y2="246.8" stroke="#dc2626" stroke-width="1"/><rect x="468.7" y="233.1" width="5.4" height="1.2" fill="#dc2626" opacity="0.82" rx="1"/>
<line x1="480.3" y1="233.7" x2="480.3" y2="246.6" stroke="#dc2626" stroke-width="1"/><rect x="477.6" y="234.2" width="5.4" height="7.7" fill="#dc2626" opacity="0.82" rx="1"/>
<line x1="489.2" y1="234.8" x2="489.2" y2="248.1" stroke="#16a34a" stroke-width="1"/><rect x="486.5" y="236.5" width="5.4" height="5.6" fill="#16a34a" opacity="0.82" rx="1"/>
<line x1="498.1" y1="225.8" x2="498.1" y2="240.6" stroke="#16a34a" stroke-width="1"/><rect x="495.3" y="228.8" width="5.4" height="7.7" fill="#16a34a" opacity="0.82" rx="1"/>
<line x1="506.9" y1="210.6" x2="506.9" y2="228.6" stroke="#16a34a" stroke-width="1"/><rect x="504.2" y="217.5" width="5.4" height="11.1" fill="#16a34a" opacity="0.82" rx="1"/>
<line x1="515.8" y1="211.1" x2="515.8" y2="226.9" stroke="#dc2626" stroke-width="1"/><rect x="513.1" y="217.7" width="5.4" height="3.0" fill="#dc2626" opacity="0.82" rx="1"/>
<line x1="524.7" y1="211.7" x2="524.7" y2="221.1" stroke="#16a34a" stroke-width="1"/><rect x="522.0" y="219.8" width="5.4" height="1.2" fill="#16a34a" opacity="0.82" rx="1"/>
<line x1="533.6" y1="217.3" x2="533.6" y2="225.8" stroke="#16a34a" stroke-width="1"/><rect x="530.9" y="219.8" width="5.4" height="1.2" fill="#16a34a" opacity="0.82" rx="1"/>
<line x1="542.4" y1="217.0" x2="542.4" y2="252.6" stroke="#dc2626" stroke-width="1"/><rect x="539.7" y="219.6" width="5.4" height="13.1" fill="#dc2626" opacity="0.82" rx="1"/>
<line x1="551.3" y1="201.9" x2="551.3" y2="238.0" stroke="#16a34a" stroke-width="1"/><rect x="548.6" y="214.7" width="5.4" height="17.5" fill="#16a34a" opacity="0.82" rx="1"/>
<line x1="560.2" y1="194.6" x2="560.2" y2="233.7" stroke="#dc2626" stroke-width="1"/><rect x="557.5" y="214.9" width="5.4" height="15.4" fill="#dc2626" opacity="0.82" rx="1"/>
<line x1="569.1" y1="200.1" x2="569.1" y2="236.5" stroke="#16a34a" stroke-width="1"/><rect x="566.4" y="201.9" width="5.4" height="28.0" fill="#16a34a" opacity="0.82" rx="1"/>
<line x1="578.0" y1="191.2" x2="578.0" y2="208.1" stroke="#dc2626" stroke-width="1"/><rect x="575.2" y="202.1" width="5.4" height="6.0" fill="#dc2626" opacity="0.82" rx="1"/>
<line x1="586.8" y1="154.8" x2="586.8" y2="213.6" stroke="#16a34a" stroke-width="1"/><rect x="584.1" y="157.6" width="5.4" height="50.5" fill="#16a34a" opacity="0.82" rx="1"/>
<line x1="595.7" y1="140.7" x2="595.7" y2="174.9" stroke="#16a34a" stroke-width="1"/><rect x="593.0" y="142.6" width="5.4" height="15.4" fill="#16a34a" opacity="0.82" rx="1"/>
<line x1="604.6" y1="102.1" x2="604.6" y2="147.7" stroke="#16a34a" stroke-width="1"/><rect x="601.9" y="111.8" width="5.4" height="31.0" fill="#16a34a" opacity="0.82" rx="1"/>
<line x1="613.5" y1="109.2" x2="613.5" y2="128.2" stroke="#dc2626" stroke-width="1"/><rect x="610.7" y="111.8" width="5.4" height="10.3" fill="#dc2626" opacity="0.82" rx="1"/>
<line x1="622.3" y1="107.7" x2="622.3" y2="122.5" stroke="#16a34a" stroke-width="1"/><rect x="619.6" y="112.0" width="5.4" height="10.1" fill="#16a34a" opacity="0.82" rx="1"/>
<line x1="631.2" y1="82.5" x2="631.2" y2="114.1" stroke="#16a34a" stroke-width="1"/><rect x="628.5" y="89.7" width="5.4" height="22.7" fill="#16a34a" opacity="0.82" rx="1"/>
<line x1="640.1" y1="78.4" x2="640.1" y2="112.4" stroke="#dc2626" stroke-width="1"/><rect x="637.4" y="89.7" width="5.4" height="3.0" fill="#dc2626" opacity="0.82" rx="1"/>
<line x1="649.0" y1="92.9" x2="649.0" y2="111.6" stroke="#dc2626" stroke-width="1"/><rect x="646.2" y="92.9" width="5.4" height="9.2" fill="#dc2626" opacity="0.82" rx="1"/>
<line x1="657.8" y1="102.1" x2="657.8" y2="131.7" stroke="#dc2626" stroke-width="1"/><rect x="655.1" y="102.1" width="5.4" height="11.3" fill="#dc2626" opacity="0.82" rx="1"/>
<line x1="666.7" y1="108.6" x2="666.7" y2="121.6" stroke="#16a34a" stroke-width="1"/><rect x="664.0" y="110.3" width="5.4" height="3.0" fill="#16a34a" opacity="0.82" rx="1"/>
<line x1="675.6" y1="106.2" x2="675.6" y2="114.8" stroke="#16a34a" stroke-width="1"/><rect x="672.9" y="108.8" width="5.4" height="1.3" fill="#16a34a" opacity="0.82" rx="1"/>
<line x1="684.5" y1="98.7" x2="684.5" y2="115.0" stroke="#16a34a" stroke-width="1"/><rect x="681.8" y="101.1" width="5.4" height="7.5" fill="#16a34a" opacity="0.82" rx="1"/>
<line x1="693.3" y1="99.8" x2="693.3" y2="156.7" stroke="#dc2626" stroke-width="1"/><rect x="690.6" y="101.3" width="5.4" height="49.4" fill="#dc2626" opacity="0.82" rx="1"/>
<line x1="702.2" y1="137.2" x2="702.2" y2="169.5" stroke="#dc2626" stroke-width="1"/><rect x="699.5" y="150.5" width="5.4" height="6.2" fill="#dc2626" opacity="0.82" rx="1"/>
<line x1="711.1" y1="152.4" x2="711.1" y2="173.2" stroke="#16a34a" stroke-width="1"/><rect x="708.4" y="152.6" width="5.4" height="3.9" fill="#16a34a" opacity="0.82" rx="1"/>
<line x1="720.0" y1="125.5" x2="720.0" y2="158.0" stroke="#16a34a" stroke-width="1"/><rect x="717.3" y="141.9" width="5.4" height="10.5" fill="#16a34a" opacity="0.82" rx="1"/>
<line x1="728.9" y1="124.0" x2="728.9" y2="143.2" stroke="#16a34a" stroke-width="1"/><rect x="726.1" y="128.0" width="5.4" height="14.1" fill="#16a34a" opacity="0.82" rx="1"/>
<line x1="737.7" y1="123.3" x2="737.7" y2="146.2" stroke="#dc2626" stroke-width="1"/><rect x="735.0" y="128.2" width="5.4" height="10.1" fill="#dc2626" opacity="0.82" rx="1"/>
<line x1="746.6" y1="124.0" x2="746.6" y2="138.1" stroke="#16a34a" stroke-width="1"/><rect x="743.9" y="134.5" width="5.4" height="3.6" fill="#16a34a" opacity="0.82" rx="1"/>
<line x1="755.5" y1="133.6" x2="755.5" y2="160.6" stroke="#dc2626" stroke-width="1"/><rect x="752.8" y="134.5" width="5.4" height="22.7" fill="#dc2626" opacity="0.82" rx="1"/>
<line x1="764.4" y1="116.0" x2="764.4" y2="163.6" stroke="#16a34a" stroke-width="1"/><rect x="761.6" y="124.8" width="5.4" height="31.7" fill="#16a34a" opacity="0.82" rx="1"/>
<line x1="773.2" y1="94.7" x2="773.2" y2="135.3" stroke="#16a34a" stroke-width="1"/><rect x="770.5" y="110.9" width="5.4" height="13.7" fill="#16a34a" opacity="0.82" rx="1"/>
<line x1="782.1" y1="96.6" x2="782.1" y2="130.6" stroke="#dc2626" stroke-width="1"/><rect x="779.4" y="110.5" width="5.4" height="17.8" fill="#dc2626" opacity="0.82" rx="1"/>
<line x1="791.0" y1="95.5" x2="791.0" y2="129.5" stroke="#16a34a" stroke-width="1"/><rect x="788.3" y="97.6" width="5.4" height="30.6" fill="#16a34a" opacity="0.82" rx="1"/>
<line x1="799.9" y1="89.3" x2="799.9" y2="102.6" stroke="#dc2626" stroke-width="1"/><rect x="797.1" y="97.4" width="5.4" height="1.2" fill="#dc2626" opacity="0.82" rx="1"/>
<line x1="808.7" y1="91.0" x2="808.7" y2="104.7" stroke="#dc2626" stroke-width="1"/><rect x="806.0" y="97.6" width="5.4" height="3.6" fill="#dc2626" opacity="0.82" rx="1"/>
<line x1="817.6" y1="95.5" x2="817.6" y2="112.6" stroke="#dc2626" stroke-width="1"/><rect x="814.9" y="101.7" width="5.4" height="10.9" fill="#dc2626" opacity="0.82" rx="1"/>
<line x1="826.5" y1="103.0" x2="826.5" y2="117.5" stroke="#16a34a" stroke-width="1"/><rect x="823.8" y="112.0" width="5.4" height="1.2" fill="#16a34a" opacity="0.82" rx="1"/>
<line x1="835.4" y1="106.4" x2="835.4" y2="113.9" stroke="#16a34a" stroke-width="1"/><rect x="832.6" y="107.9" width="5.4" height="3.6" fill="#16a34a" opacity="0.82" rx="1"/>
<line x1="844.2" y1="106.4" x2="844.2" y2="110.9" stroke="#16a34a" stroke-width="1"/><rect x="841.5" y="107.1" width="5.4" height="1.3" fill="#16a34a" opacity="0.82" rx="1"/>
<line x1="853.1" y1="96.8" x2="853.1" y2="107.5" stroke="#16a34a" stroke-width="1"/><rect x="850.4" y="100.9" width="5.4" height="6.2" fill="#16a34a" opacity="0.82" rx="1"/>
<line x1="862.0" y1="98.5" x2="862.0" y2="107.1" stroke="#dc2626" stroke-width="1"/><rect x="859.3" y="100.4" width="5.4" height="6.0" fill="#dc2626" opacity="0.82" rx="1"/>
<line x1="72" y1="137.2" x2="862" y2="137.2" stroke="#16a34a" stroke-width="1.8" stroke-dasharray="6 4" /><rect x="874" y="117.2" width="166" height="23" rx="5" fill="#ffffff" stroke="#16a34a" opacity="0.97"/><text x="881" y="133.2" fill="#16a34a" font-size="15" font-weight="700">日内支撑 63.94</text>
<line x1="72" y1="55.1" x2="862" y2="55.1" stroke="#dc2626" stroke-width="1.8" stroke-dasharray="6 4" /><rect x="874" y="35.1" width="166" height="23" rx="5" fill="#ffffff" stroke="#dc2626" opacity="0.97"/><text x="881" y="51.1" fill="#dc2626" font-size="15" font-weight="700">日内压力 67.78</text>
<line x1="72" y1="106.4" x2="862" y2="106.4" stroke="#111827" stroke-width="1.8" stroke-dasharray="2 2" /><rect x="874" y="86.4" width="166" height="23" rx="5" fill="#ffffff" stroke="#111827" opacity="0.97"/><text x="881" y="102.4" fill="#111827" font-size="15" font-weight="700">现价 65.38</text>
<text x="72" y="396" fill="#16a34a" font-size="14" font-weight="700">日内做多计划</text><rect x="72" y="404" width="790" height="48" rx="6" fill="#f9fafb" stroke="#e5e7eb"/><line x1="94" y1="412" x2="840" y2="412" stroke="#16a34a" stroke-width="3"/><circle cx="132.0" cy="412" r="5" fill="#16a34a"/><text x="132.0" y="434" fill="#374151" font-size="12" text-anchor="middle">入场 止跌/突破回踩</text><circle cx="451.2" cy="412" r="5" fill="#16a34a"/><text x="451.2" y="434" fill="#374151" font-size="12" text-anchor="middle">止损 63.94</text><circle cx="712.0" cy="412" r="5" fill="#16a34a"/><text x="712.0" y="434" fill="#374151" font-size="12" text-anchor="middle">目标一 67.78</text><circle cx="814.0" cy="412" r="5" fill="#16a34a"/><text x="814.0" y="434" fill="#374151" font-size="12" text-anchor="middle">目标二 68.74</text>
<text x="72" y="482" fill="#dc2626" font-size="14" font-weight="700">日内做空计划</text><rect x="72" y="490" width="790" height="48" rx="6" fill="#f9fafb" stroke="#e5e7eb"/><line x1="94" y1="498" x2="840" y2="498" stroke="#dc2626" stroke-width="3"/><circle cx="132.0" cy="498" r="5" fill="#dc2626"/><text x="132.0" y="520" fill="#374151" font-size="12" text-anchor="middle">入场 反弹承压/破位回抽</text><circle cx="451.2" cy="498" r="5" fill="#dc2626"/><text x="451.2" y="520" fill="#374151" font-size="12" text-anchor="middle">止损 67.78</text><circle cx="712.0" cy="498" r="5" fill="#dc2626"/><text x="712.0" y="520" fill="#374151" font-size="12" text-anchor="middle">目标一 63.94</text><circle cx="814.0" cy="498" r="5" fill="#dc2626"/><text x="814.0" y="520" fill="#374151" font-size="12" text-anchor="middle">目标二 62.98</text>
</svg>