<svg xmlns="http://www.w3.org/2000/svg" width="1080" height="560" viewBox="0 0 1080 560">
<rect width="100%" height="100%" fill="#ffffff"/>
<text x="72" y="23" fill="#111827" font-size="21" font-weight="800">HYPE 小时线K线支撑压力图</text>
<text x="862" y="42" fill="#374151" font-size="15" text-anchor="end">最新价 58.56</text>
<line x1="72" y1="34" x2="72" y2="340" stroke="#d1d5db"/>
<line x1="72" y1="340" x2="862" y2="340" stroke="#d1d5db"/>
<line x1="72" y1="340.0" x2="862" y2="340.0" stroke="#f3f4f6"/>
<text x="8" y="345.0" fill="#4b5563" font-size="14">51.83</text>
<line x1="72" y1="263.5" x2="862" y2="263.5" stroke="#f3f4f6"/>
<text x="8" y="268.5" fill="#4b5563" font-size="14">54.67</text>
<line x1="72" y1="187.0" x2="862" y2="187.0" stroke="#f3f4f6"/>
<text x="8" y="192.0" fill="#4b5563" font-size="14">57.52</text>
<line x1="72" y1="110.5" x2="862" y2="110.5" stroke="#f3f4f6"/>
<text x="8" y="115.5" fill="#4b5563" font-size="14">60.36</text>
<line x1="72" y1="34.0" x2="862" y2="34.0" stroke="#f3f4f6"/>
<text x="8" y="39.0" fill="#4b5563" font-size="14">63.21</text>
<line x1="72.0" y1="96.7" x2="72.0" y2="137.3" stroke="#dc2626" stroke-width="1"/><rect x="69.3" y="103.0" width="5.4" height="18.0" fill="#dc2626" opacity="0.82" rx="1"/>
<line x1="80.9" y1="105.7" x2="80.9" y2="155.3" stroke="#dc2626" stroke-width="1"/><rect x="78.2" y="120.9" width="5.4" height="28.5" fill="#dc2626" opacity="0.82" rx="1"/>
<line x1="89.8" y1="133.3" x2="89.8" y2="160.6" stroke="#dc2626" stroke-width="1"/><rect x="87.0" y="149.5" width="5.4" height="2.4" fill="#dc2626" opacity="0.82" rx="1"/>
<line x1="98.6" y1="136.6" x2="98.6" y2="155.0" stroke="#16a34a" stroke-width="1"/><rect x="95.9" y="144.4" width="5.4" height="7.7" fill="#16a34a" opacity="0.82" rx="1"/>
<line x1="107.5" y1="137.6" x2="107.5" y2="157.5" stroke="#dc2626" stroke-width="1"/><rect x="104.8" y="144.4" width="5.4" height="4.0" fill="#dc2626" opacity="0.82" rx="1"/>
<line x1="116.4" y1="139.1" x2="116.4" y2="178.3" stroke="#dc2626" stroke-width="1"/><rect x="113.7" y="148.3" width="5.4" height="10.7" fill="#dc2626" opacity="0.82" rx="1"/>
<line x1="125.3" y1="134.5" x2="125.3" y2="165.9" stroke="#16a34a" stroke-width="1"/><rect x="122.5" y="136.0" width="5.4" height="23.0" fill="#16a34a" opacity="0.82" rx="1"/>
<line x1="134.1" y1="133.9" x2="134.1" y2="183.1" stroke="#dc2626" stroke-width="1"/><rect x="131.4" y="135.6" width="5.4" height="39.8" fill="#dc2626" opacity="0.82" rx="1"/>
<line x1="143.0" y1="164.9" x2="143.0" y2="187.5" stroke="#dc2626" stroke-width="1"/><rect x="140.3" y="175.4" width="5.4" height="9.9" fill="#dc2626" opacity="0.82" rx="1"/>
<line x1="151.9" y1="176.8" x2="151.9" y2="193.0" stroke="#16a34a" stroke-width="1"/><rect x="149.2" y="180.3" width="5.4" height="4.8" fill="#16a34a" opacity="0.82" rx="1"/>
<line x1="160.8" y1="169.4" x2="160.8" y2="222.9" stroke="#dc2626" stroke-width="1"/><rect x="158.0" y="179.9" width="5.4" height="18.4" fill="#dc2626" opacity="0.82" rx="1"/>
<line x1="169.6" y1="191.3" x2="169.6" y2="211.6" stroke="#16a34a" stroke-width="1"/><rect x="166.9" y="192.8" width="5.4" height="5.5" fill="#16a34a" opacity="0.82" rx="1"/>
<line x1="178.5" y1="189.0" x2="178.5" y2="239.4" stroke="#dc2626" stroke-width="1"/><rect x="175.8" y="192.8" width="5.4" height="42.5" fill="#dc2626" opacity="0.82" rx="1"/>
<line x1="187.4" y1="200.0" x2="187.4" y2="235.3" stroke="#16a34a" stroke-width="1"/><rect x="184.7" y="211.9" width="5.4" height="22.7" fill="#16a34a" opacity="0.82" rx="1"/>
<line x1="196.3" y1="210.5" x2="196.3" y2="247.8" stroke="#dc2626" stroke-width="1"/><rect x="193.5" y="211.8" width="5.4" height="28.4" fill="#dc2626" opacity="0.82" rx="1"/>
<line x1="205.1" y1="235.9" x2="205.1" y2="253.2" stroke="#dc2626" stroke-width="1"/><rect x="202.4" y="240.2" width="5.4" height="4.6" fill="#dc2626" opacity="0.82" rx="1"/>
<line x1="214.0" y1="234.9" x2="214.0" y2="252.6" stroke="#dc2626" stroke-width="1"/><rect x="211.3" y="244.9" width="5.4" height="3.9" fill="#dc2626" opacity="0.82" rx="1"/>
<line x1="222.9" y1="221.4" x2="222.9" y2="252.4" stroke="#16a34a" stroke-width="1"/><rect x="220.2" y="235.2" width="5.4" height="13.6" fill="#16a34a" opacity="0.82" rx="1"/>
<line x1="231.8" y1="231.8" x2="231.8" y2="248.4" stroke="#16a34a" stroke-width="1"/><rect x="229.1" y="233.9" width="5.4" height="1.3" fill="#16a34a" opacity="0.82" rx="1"/>
<line x1="240.7" y1="224.2" x2="240.7" y2="245.6" stroke="#16a34a" stroke-width="1"/><rect x="237.9" y="228.6" width="5.4" height="5.4" fill="#16a34a" opacity="0.82" rx="1"/>
<line x1="249.5" y1="211.8" x2="249.5" y2="243.8" stroke="#16a34a" stroke-width="1"/><rect x="246.8" y="216.2" width="5.4" height="12.4" fill="#16a34a" opacity="0.82" rx="1"/>
<line x1="258.4" y1="211.9" x2="258.4" y2="240.3" stroke="#dc2626" stroke-width="1"/><rect x="255.7" y="216.3" width="5.4" height="20.9" fill="#dc2626" opacity="0.82" rx="1"/>
<line x1="267.3" y1="209.0" x2="267.3" y2="258.8" stroke="#16a34a" stroke-width="1"/><rect x="264.6" y="222.1" width="5.4" height="15.2" fill="#16a34a" opacity="0.82" rx="1"/>
<line x1="276.2" y1="171.9" x2="276.2" y2="227.8" stroke="#16a34a" stroke-width="1"/><rect x="273.4" y="189.1" width="5.4" height="32.0" fill="#16a34a" opacity="0.82" rx="1"/>
<line x1="285.0" y1="164.6" x2="285.0" y2="193.8" stroke="#16a34a" stroke-width="1"/><rect x="282.3" y="173.1" width="5.4" height="15.9" fill="#16a34a" opacity="0.82" rx="1"/>
<line x1="293.9" y1="167.6" x2="293.9" y2="211.0" stroke="#dc2626" stroke-width="1"/><rect x="291.2" y="173.1" width="5.4" height="14.8" fill="#dc2626" opacity="0.82" rx="1"/>
<line x1="302.8" y1="187.0" x2="302.8" y2="239.6" stroke="#dc2626" stroke-width="1"/><rect x="300.1" y="187.9" width="5.4" height="47.8" fill="#dc2626" opacity="0.82" rx="1"/>
<line x1="311.7" y1="220.0" x2="311.7" y2="257.4" stroke="#dc2626" stroke-width="1"/><rect x="308.9" y="235.6" width="5.4" height="4.2" fill="#dc2626" opacity="0.82" rx="1"/>
<line x1="320.5" y1="234.6" x2="320.5" y2="279.9" stroke="#dc2626" stroke-width="1"/><rect x="317.8" y="239.9" width="5.4" height="23.4" fill="#dc2626" opacity="0.82" rx="1"/>
<line x1="329.4" y1="260.7" x2="329.4" y2="292.4" stroke="#dc2626" stroke-width="1"/><rect x="326.7" y="263.1" width="5.4" height="20.5" fill="#dc2626" opacity="0.82" rx="1"/>
<line x1="338.3" y1="274.8" x2="338.3" y2="295.0" stroke="#dc2626" stroke-width="1"/><rect x="335.6" y="284.1" width="5.4" height="5.2" fill="#dc2626" opacity="0.82" rx="1"/>
<line x1="347.2" y1="277.3" x2="347.2" y2="305.3" stroke="#dc2626" stroke-width="1"/><rect x="344.4" y="289.4" width="5.4" height="11.8" fill="#dc2626" opacity="0.82" rx="1"/>
<line x1="356.0" y1="293.0" x2="356.0" y2="318.9" stroke="#dc2626" stroke-width="1"/><rect x="353.3" y="301.1" width="5.4" height="1.2" fill="#dc2626" opacity="0.82" rx="1"/>
<line x1="364.9" y1="290.5" x2="364.9" y2="317.4" stroke="#16a34a" stroke-width="1"/><rect x="362.2" y="300.8" width="5.4" height="1.2" fill="#16a34a" opacity="0.82" rx="1"/>
<line x1="373.8" y1="289.0" x2="373.8" y2="312.4" stroke="#dc2626" stroke-width="1"/><rect x="371.1" y="300.6" width="5.4" height="1.2" fill="#dc2626" opacity="0.82" rx="1"/>
<line x1="382.7" y1="265.7" x2="382.7" y2="301.6" stroke="#16a34a" stroke-width="1"/><rect x="380.0" y="266.8" width="5.4" height="34.6" fill="#16a34a" opacity="0.82" rx="1"/>
<line x1="391.6" y1="266.1" x2="391.6" y2="293.4" stroke="#dc2626" stroke-width="1"/><rect x="388.8" y="266.7" width="5.4" height="11.2" fill="#dc2626" opacity="0.82" rx="1"/>
<line x1="400.4" y1="244.6" x2="400.4" y2="281.3" stroke="#16a34a" stroke-width="1"/><rect x="397.7" y="250.5" width="5.4" height="27.2" fill="#16a34a" opacity="0.82" rx="1"/>
<line x1="409.3" y1="249.4" x2="409.3" y2="268.8" stroke="#dc2626" stroke-width="1"/><rect x="406.6" y="250.4" width="5.4" height="11.3" fill="#dc2626" opacity="0.82" rx="1"/>
<line x1="418.2" y1="238.0" x2="418.2" y2="272.1" stroke="#16a34a" stroke-width="1"/><rect x="415.5" y="240.4" width="5.4" height="21.3" fill="#16a34a" opacity="0.82" rx="1"/>
<line x1="427.1" y1="218.0" x2="427.1" y2="241.3" stroke="#dc2626" stroke-width="1"/><rect x="424.3" y="240.5" width="5.4" height="1.2" fill="#dc2626" opacity="0.82" rx="1"/>
<line x1="435.9" y1="226.5" x2="435.9" y2="243.9" stroke="#16a34a" stroke-width="1"/><rect x="433.2" y="240.1" width="5.4" height="1.2" fill="#16a34a" opacity="0.82" rx="1"/>
<line x1="444.8" y1="220.2" x2="444.8" y2="241.4" stroke="#16a34a" stroke-width="1"/><rect x="442.1" y="228.1" width="5.4" height="12.0" fill="#16a34a" opacity="0.82" rx="1"/>
<line x1="453.7" y1="222.5" x2="453.7" y2="239.8" stroke="#16a34a" stroke-width="1"/><rect x="451.0" y="226.5" width="5.4" height="1.7" fill="#16a34a" opacity="0.82" rx="1"/>
<line x1="462.6" y1="222.6" x2="462.6" y2="238.0" stroke="#dc2626" stroke-width="1"/><rect x="459.8" y="226.3" width="5.4" height="4.3" fill="#dc2626" opacity="0.82" rx="1"/>
<line x1="471.4" y1="198.8" x2="471.4" y2="231.9" stroke="#16a34a" stroke-width="1"/><rect x="468.7" y="205.3" width="5.4" height="25.4" fill="#16a34a" opacity="0.82" rx="1"/>
<line x1="480.3" y1="201.0" x2="480.3" y2="236.5" stroke="#dc2626" stroke-width="1"/><rect x="477.6" y="205.4" width="5.4" height="16.0" fill="#dc2626" opacity="0.82" rx="1"/>
<line x1="489.2" y1="187.0" x2="489.2" y2="225.9" stroke="#16a34a" stroke-width="1"/><rect x="486.5" y="201.1" width="5.4" height="20.2" fill="#16a34a" opacity="0.82" rx="1"/>
<line x1="498.1" y1="197.5" x2="498.1" y2="220.6" stroke="#dc2626" stroke-width="1"/><rect x="495.3" y="201.1" width="5.4" height="14.2" fill="#dc2626" opacity="0.82" rx="1"/>
<line x1="506.9" y1="193.3" x2="506.9" y2="222.5" stroke="#16a34a" stroke-width="1"/><rect x="504.2" y="208.6" width="5.4" height="6.7" fill="#16a34a" opacity="0.82" rx="1"/>
<line x1="515.8" y1="204.9" x2="515.8" y2="225.1" stroke="#dc2626" stroke-width="1"/><rect x="513.1" y="208.6" width="5.4" height="13.3" fill="#dc2626" opacity="0.82" rx="1"/>
<line x1="524.7" y1="150.7" x2="524.7" y2="233.3" stroke="#16a34a" stroke-width="1"/><rect x="522.0" y="163.8" width="5.4" height="58.3" fill="#16a34a" opacity="0.82" rx="1"/>
<line x1="533.6" y1="156.0" x2="533.6" y2="187.5" stroke="#dc2626" stroke-width="1"/><rect x="530.9" y="163.8" width="5.4" height="1.9" fill="#dc2626" opacity="0.82" rx="1"/>
<line x1="542.4" y1="129.8" x2="542.4" y2="174.3" stroke="#16a34a" stroke-width="1"/><rect x="539.7" y="157.9" width="5.4" height="7.5" fill="#16a34a" opacity="0.82" rx="1"/>
<line x1="551.3" y1="145.2" x2="551.3" y2="171.4" stroke="#dc2626" stroke-width="1"/><rect x="548.6" y="157.6" width="5.4" height="7.9" fill="#dc2626" opacity="0.82" rx="1"/>
<line x1="560.2" y1="143.7" x2="560.2" y2="165.9" stroke="#16a34a" stroke-width="1"/><rect x="557.5" y="152.1" width="5.4" height="13.4" fill="#16a34a" opacity="0.82" rx="1"/>
<line x1="569.1" y1="141.6" x2="569.1" y2="160.0" stroke="#dc2626" stroke-width="1"/><rect x="566.4" y="152.1" width="5.4" height="7.8" fill="#dc2626" opacity="0.82" rx="1"/>
<line x1="578.0" y1="132.3" x2="578.0" y2="166.8" stroke="#16a34a" stroke-width="1"/><rect x="575.2" y="149.0" width="5.4" height="10.9" fill="#16a34a" opacity="0.82" rx="1"/>
<line x1="586.8" y1="128.3" x2="586.8" y2="151.0" stroke="#16a34a" stroke-width="1"/><rect x="584.1" y="142.2" width="5.4" height="6.8" fill="#16a34a" opacity="0.82" rx="1"/>
<line x1="595.7" y1="142.6" x2="595.7" y2="167.9" stroke="#dc2626" stroke-width="1"/><rect x="593.0" y="142.7" width="5.4" height="22.1" fill="#dc2626" opacity="0.82" rx="1"/>
<line x1="604.6" y1="135.2" x2="604.6" y2="169.3" stroke="#16a34a" stroke-width="1"/><rect x="601.9" y="139.2" width="5.4" height="25.6" fill="#16a34a" opacity="0.82" rx="1"/>
<line x1="613.5" y1="135.2" x2="613.5" y2="149.4" stroke="#dc2626" stroke-width="1"/><rect x="610.7" y="139.2" width="5.4" height="2.7" fill="#dc2626" opacity="0.82" rx="1"/>
<line x1="622.3" y1="135.1" x2="622.3" y2="157.1" stroke="#dc2626" stroke-width="1"/><rect x="619.6" y="142.1" width="5.4" height="13.7" fill="#dc2626" opacity="0.82" rx="1"/>
<line x1="631.2" y1="154.5" x2="631.2" y2="174.0" stroke="#dc2626" stroke-width="1"/><rect x="628.5" y="156.0" width="5.4" height="16.9" fill="#dc2626" opacity="0.82" rx="1"/>
<line x1="640.1" y1="168.3" x2="640.1" y2="206.0" stroke="#dc2626" stroke-width="1"/><rect x="637.4" y="172.9" width="5.4" height="24.7" fill="#dc2626" opacity="0.82" rx="1"/>
<line x1="649.0" y1="188.6" x2="649.0" y2="206.8" stroke="#dc2626" stroke-width="1"/><rect x="646.2" y="197.4" width="5.4" height="5.3" fill="#dc2626" opacity="0.82" rx="1"/>
<line x1="657.8" y1="156.9" x2="657.8" y2="203.1" stroke="#16a34a" stroke-width="1"/><rect x="655.1" y="157.1" width="5.4" height="45.6" fill="#16a34a" opacity="0.82" rx="1"/>
<line x1="666.7" y1="137.6" x2="666.7" y2="167.0" stroke="#16a34a" stroke-width="1"/><rect x="664.0" y="142.1" width="5.4" height="15.0" fill="#16a34a" opacity="0.82" rx="1"/>
<line x1="675.6" y1="134.4" x2="675.6" y2="156.7" stroke="#dc2626" stroke-width="1"/><rect x="672.9" y="142.2" width="5.4" height="2.4" fill="#dc2626" opacity="0.82" rx="1"/>
<line x1="684.5" y1="131.4" x2="684.5" y2="147.0" stroke="#16a34a" stroke-width="1"/><rect x="681.8" y="141.4" width="5.4" height="3.3" fill="#16a34a" opacity="0.82" rx="1"/>
<line x1="693.3" y1="100.3" x2="693.3" y2="146.5" stroke="#16a34a" stroke-width="1"/><rect x="690.6" y="109.9" width="5.4" height="31.5" fill="#16a34a" opacity="0.82" rx="1"/>
<line x1="702.2" y1="101.0" x2="702.2" y2="138.7" stroke="#dc2626" stroke-width="1"/><rect x="699.5" y="109.9" width="5.4" height="19.7" fill="#dc2626" opacity="0.82" rx="1"/>
<line x1="711.1" y1="107.8" x2="711.1" y2="139.0" stroke="#16a34a" stroke-width="1"/><rect x="708.4" y="108.3" width="5.4" height="21.3" fill="#16a34a" opacity="0.82" rx="1"/>
<line x1="720.0" y1="87.2" x2="720.0" y2="128.4" stroke="#dc2626" stroke-width="1"/><rect x="717.3" y="108.3" width="5.4" height="18.8" fill="#dc2626" opacity="0.82" rx="1"/>
<line x1="728.9" y1="79.7" x2="728.9" y2="136.4" stroke="#16a34a" stroke-width="1"/><rect x="726.1" y="93.1" width="5.4" height="34.0" fill="#16a34a" opacity="0.82" rx="1"/>
<line x1="737.7" y1="55.1" x2="737.7" y2="94.5" stroke="#16a34a" stroke-width="1"/><rect x="735.0" y="69.6" width="5.4" height="23.3" fill="#16a34a" opacity="0.82" rx="1"/>
<line x1="746.6" y1="63.0" x2="746.6" y2="92.1" stroke="#dc2626" stroke-width="1"/><rect x="743.9" y="69.5" width="5.4" height="20.7" fill="#dc2626" opacity="0.82" rx="1"/>
<line x1="755.5" y1="88.0" x2="755.5" y2="109.6" stroke="#dc2626" stroke-width="1"/><rect x="752.8" y="89.6" width="5.4" height="10.9" fill="#dc2626" opacity="0.82" rx="1"/>
<line x1="764.4" y1="85.3" x2="764.4" y2="107.7" stroke="#16a34a" stroke-width="1"/><rect x="761.6" y="98.5" width="5.4" height="1.8" fill="#16a34a" opacity="0.82" rx="1"/>
<line x1="773.2" y1="89.4" x2="773.2" y2="116.3" stroke="#dc2626" stroke-width="1"/><rect x="770.5" y="98.7" width="5.4" height="8.2" fill="#dc2626" opacity="0.82" rx="1"/>
<line x1="782.1" y1="97.8" x2="782.1" y2="113.0" stroke="#16a34a" stroke-width="1"/><rect x="779.4" y="103.6" width="5.4" height="3.5" fill="#16a34a" opacity="0.82" rx="1"/>
<line x1="791.0" y1="102.5" x2="791.0" y2="142.0" stroke="#dc2626" stroke-width="1"/><rect x="788.3" y="103.6" width="5.4" height="36.5" fill="#dc2626" opacity="0.82" rx="1"/>
<line x1="799.9" y1="137.9" x2="799.9" y2="151.9" stroke="#16a34a" stroke-width="1"/><rect x="797.1" y="139.7" width="5.4" height="1.2" fill="#16a34a" opacity="0.82" rx="1"/>
<line x1="808.7" y1="136.0" x2="808.7" y2="149.8" stroke="#16a34a" stroke-width="1"/><rect x="806.0" y="136.9" width="5.4" height="2.7" fill="#16a34a" opacity="0.82" rx="1"/>
<line x1="817.6" y1="128.4" x2="817.6" y2="144.1" stroke="#dc2626" stroke-width="1"/><rect x="814.9" y="136.8" width="5.4" height="4.9" fill="#dc2626" opacity="0.82" rx="1"/>
<line x1="826.5" y1="139.2" x2="826.5" y2="165.7" stroke="#dc2626" stroke-width="1"/><rect x="823.8" y="141.7" width="5.4" height="17.6" fill="#dc2626" opacity="0.82" rx="1"/>
<line x1="835.4" y1="157.3" x2="835.4" y2="180.2" stroke="#dc2626" stroke-width="1"/><rect x="832.6" y="159.2" width="5.4" height="17.2" fill="#dc2626" opacity="0.82" rx="1"/>
<line x1="844.2" y1="174.8" x2="844.2" y2="196.4" stroke="#dc2626" stroke-width="1"/><rect x="841.5" y="176.3" width="5.4" height="2.4" fill="#dc2626" opacity="0.82" rx="1"/>
<line x1="853.1" y1="152.1" x2="853.1" y2="179.3" stroke="#16a34a" stroke-width="1"/><rect x="850.4" y="154.9" width="5.4" height="23.8" fill="#16a34a" opacity="0.82" rx="1"/>
<line x1="862.0" y1="149.8" x2="862.0" y2="159.2" stroke="#dc2626" stroke-width="1"/><rect x="859.3" y="154.7" width="5.4" height="4.2" fill="#dc2626" opacity="0.82" rx="1"/>
<line x1="72" y1="191.7" x2="862" y2="191.7" stroke="#16a34a" stroke-width="1.8" stroke-dasharray="6 4" /><rect x="874" y="171.7" width="166" height="23" rx="5" fill="#ffffff" stroke="#16a34a" opacity="0.97"/><text x="881" y="187.7" fill="#16a34a" font-size="15" font-weight="700">日内支撑 57.34</text>
<line x1="72" y1="104.3" x2="862" y2="104.3" stroke="#dc2626" stroke-width="1.8" stroke-dasharray="6 4" /><rect x="874" y="84.3" width="166" height="23" rx="5" fill="#ffffff" stroke="#dc2626" opacity="0.97"/><text x="881" y="100.3" fill="#dc2626" font-size="15" font-weight="700">日内压力 60.60</text>
<line x1="72" y1="158.9" x2="862" y2="158.9" stroke="#111827" stroke-width="1.8" stroke-dasharray="2 2" /><rect x="874" y="138.9" width="166" height="23" rx="5" fill="#ffffff" stroke="#111827" opacity="0.97"/><text x="881" y="154.9" fill="#111827" font-size="15" font-weight="700">现价 58.56</text>
<text x="72" y="396" fill="#16a34a" font-size="14" font-weight="700">日内做多计划</text><rect x="72" y="404" width="790" height="48" rx="6" fill="#f9fafb" stroke="#e5e7eb"/><line x1="94" y1="412" x2="840" y2="412" stroke="#16a34a" stroke-width="3"/><circle cx="132.0" cy="412" r="5" fill="#16a34a"/><text x="132.0" y="434" fill="#374151" font-size="12" text-anchor="middle">入场 止跌/突破回踩</text><circle cx="451.2" cy="412" r="5" fill="#16a34a"/><text x="451.2" y="434" fill="#374151" font-size="12" text-anchor="middle">止损 57.34</text><circle cx="712.0" cy="412" r="5" fill="#16a34a"/><text x="712.0" y="434" fill="#374151" font-size="12" text-anchor="middle">目标一 60.60</text><circle cx="814.0" cy="412" r="5" fill="#16a34a"/><text x="814.0" y="434" fill="#374151" font-size="12" text-anchor="middle">目标二 61.41</text>
<text x="72" y="482" fill="#dc2626" font-size="14" font-weight="700">日内做空计划</text><rect x="72" y="490" width="790" height="48" rx="6" fill="#f9fafb" stroke="#e5e7eb"/><line x1="94" y1="498" x2="840" y2="498" stroke="#dc2626" stroke-width="3"/><circle cx="132.0" cy="498" r="5" fill="#dc2626"/><text x="132.0" y="520" fill="#374151" font-size="12" text-anchor="middle">入场 反弹承压/破位回抽</text><circle cx="451.2" cy="498" r="5" fill="#dc2626"/><text x="451.2" y="520" fill="#374151" font-size="12" text-anchor="middle">止损 60.60</text><circle cx="712.0" cy="498" r="5" fill="#dc2626"/><text x="712.0" y="520" fill="#374151" font-size="12" text-anchor="middle">目标一 57.34</text><circle cx="814.0" cy="498" r="5" fill="#dc2626"/><text x="814.0" y="520" fill="#374151" font-size="12" text-anchor="middle">目标二 56.53</text>
</svg>