<svg xmlns="http://www.w3.org/2000/svg" width="1080" height="560" viewBox="0 0 1080 560">
<rect width="100%" height="100%" fill="#ffffff"/>
<text x="72" y="23" fill="#111827" font-size="21" font-weight="800">HYPE 小时线K线支撑压力图</text>
<text x="862" y="42" fill="#374151" font-size="15" text-anchor="end">最新价 59.14</text>
<line x1="72" y1="34" x2="72" y2="340" stroke="#d1d5db"/>
<line x1="72" y1="340" x2="862" y2="340" stroke="#d1d5db"/>
<line x1="72" y1="340.0" x2="862" y2="340.0" stroke="#f3f4f6"/>
<text x="8" y="345.0" fill="#4b5563" font-size="14">51.79</text>
<line x1="72" y1="263.5" x2="862" y2="263.5" stroke="#f3f4f6"/>
<text x="8" y="268.5" fill="#4b5563" font-size="14">54.78</text>
<line x1="72" y1="187.0" x2="862" y2="187.0" stroke="#f3f4f6"/>
<text x="8" y="192.0" fill="#4b5563" font-size="14">57.77</text>
<line x1="72" y1="110.5" x2="862" y2="110.5" stroke="#f3f4f6"/>
<text x="8" y="115.5" fill="#4b5563" font-size="14">60.76</text>
<line x1="72" y1="34.0" x2="862" y2="34.0" stroke="#f3f4f6"/>
<text x="8" y="39.0" fill="#4b5563" font-size="14">63.75</text>
<line x1="72.0" y1="69.4" x2="72.0" y2="85.5" stroke="#16a34a" stroke-width="1"/><rect x="69.3" y="72.1" width="5.4" height="10.8" fill="#16a34a" opacity="0.82" rx="1"/>
<line x1="80.9" y1="55.1" x2="80.9" y2="90.9" stroke="#16a34a" stroke-width="1"/><rect x="78.2" y="63.5" width="5.4" height="8.7" fill="#16a34a" opacity="0.82" rx="1"/>
<line x1="89.8" y1="58.1" x2="89.8" y2="80.8" stroke="#dc2626" stroke-width="1"/><rect x="87.0" y="63.5" width="5.4" height="7.0" fill="#dc2626" opacity="0.82" rx="1"/>
<line x1="98.6" y1="65.9" x2="98.6" y2="83.8" stroke="#dc2626" stroke-width="1"/><rect x="95.9" y="70.5" width="5.4" height="4.3" fill="#dc2626" opacity="0.82" rx="1"/>
<line x1="107.5" y1="73.4" x2="107.5" y2="88.7" stroke="#dc2626" stroke-width="1"/><rect x="104.8" y="74.7" width="5.4" height="8.9" fill="#dc2626" opacity="0.82" rx="1"/>
<line x1="116.4" y1="69.7" x2="116.4" y2="84.3" stroke="#16a34a" stroke-width="1"/><rect x="113.7" y="75.8" width="5.4" height="7.8" fill="#16a34a" opacity="0.82" rx="1"/>
<line x1="125.3" y1="69.8" x2="125.3" y2="114.7" stroke="#dc2626" stroke-width="1"/><rect x="122.5" y="75.5" width="5.4" height="37.9" fill="#dc2626" opacity="0.82" rx="1"/>
<line x1="134.1" y1="107.5" x2="134.1" y2="146.0" stroke="#dc2626" stroke-width="1"/><rect x="131.4" y="113.4" width="5.4" height="17.1" fill="#dc2626" opacity="0.82" rx="1"/>
<line x1="143.0" y1="116.0" x2="143.0" y2="163.2" stroke="#dc2626" stroke-width="1"/><rect x="140.3" y="130.5" width="5.4" height="27.1" fill="#dc2626" opacity="0.82" rx="1"/>
<line x1="151.9" y1="142.3" x2="151.9" y2="168.2" stroke="#dc2626" stroke-width="1"/><rect x="149.2" y="157.7" width="5.4" height="2.3" fill="#dc2626" opacity="0.82" rx="1"/>
<line x1="160.8" y1="145.3" x2="160.8" y2="162.9" stroke="#16a34a" stroke-width="1"/><rect x="158.0" y="152.8" width="5.4" height="7.3" fill="#16a34a" opacity="0.82" rx="1"/>
<line x1="169.6" y1="146.3" x2="169.6" y2="165.3" stroke="#dc2626" stroke-width="1"/><rect x="166.9" y="152.8" width="5.4" height="3.8" fill="#dc2626" opacity="0.82" rx="1"/>
<line x1="178.5" y1="147.8" x2="178.5" y2="185.1" stroke="#dc2626" stroke-width="1"/><rect x="175.8" y="156.6" width="5.4" height="10.2" fill="#dc2626" opacity="0.82" rx="1"/>
<line x1="187.4" y1="143.4" x2="187.4" y2="173.3" stroke="#16a34a" stroke-width="1"/><rect x="184.7" y="144.8" width="5.4" height="21.9" fill="#16a34a" opacity="0.82" rx="1"/>
<line x1="196.3" y1="142.8" x2="196.3" y2="189.6" stroke="#dc2626" stroke-width="1"/><rect x="193.5" y="144.5" width="5.4" height="37.8" fill="#dc2626" opacity="0.82" rx="1"/>
<line x1="205.1" y1="172.3" x2="205.1" y2="193.8" stroke="#dc2626" stroke-width="1"/><rect x="202.4" y="182.3" width="5.4" height="9.4" fill="#dc2626" opacity="0.82" rx="1"/>
<line x1="214.0" y1="183.7" x2="214.0" y2="199.1" stroke="#16a34a" stroke-width="1"/><rect x="211.3" y="187.0" width="5.4" height="4.6" fill="#16a34a" opacity="0.82" rx="1"/>
<line x1="222.9" y1="176.6" x2="222.9" y2="227.5" stroke="#dc2626" stroke-width="1"/><rect x="220.2" y="186.6" width="5.4" height="17.5" fill="#dc2626" opacity="0.82" rx="1"/>
<line x1="231.8" y1="197.5" x2="231.8" y2="216.7" stroke="#16a34a" stroke-width="1"/><rect x="229.1" y="198.9" width="5.4" height="5.2" fill="#16a34a" opacity="0.82" rx="1"/>
<line x1="240.7" y1="195.3" x2="240.7" y2="243.2" stroke="#dc2626" stroke-width="1"/><rect x="237.9" y="198.9" width="5.4" height="40.4" fill="#dc2626" opacity="0.82" rx="1"/>
<line x1="249.5" y1="205.7" x2="249.5" y2="239.3" stroke="#16a34a" stroke-width="1"/><rect x="246.8" y="217.1" width="5.4" height="21.6" fill="#16a34a" opacity="0.82" rx="1"/>
<line x1="258.4" y1="215.7" x2="258.4" y2="251.2" stroke="#dc2626" stroke-width="1"/><rect x="255.7" y="217.0" width="5.4" height="27.1" fill="#dc2626" opacity="0.82" rx="1"/>
<line x1="267.3" y1="239.9" x2="267.3" y2="256.4" stroke="#dc2626" stroke-width="1"/><rect x="264.6" y="244.0" width="5.4" height="4.4" fill="#dc2626" opacity="0.82" rx="1"/>
<line x1="276.2" y1="238.9" x2="276.2" y2="255.8" stroke="#dc2626" stroke-width="1"/><rect x="273.4" y="248.5" width="5.4" height="3.7" fill="#dc2626" opacity="0.82" rx="1"/>
<line x1="285.0" y1="226.1" x2="285.0" y2="255.6" stroke="#16a34a" stroke-width="1"/><rect x="282.3" y="239.2" width="5.4" height="12.9" fill="#16a34a" opacity="0.82" rx="1"/>
<line x1="293.9" y1="236.0" x2="293.9" y2="251.8" stroke="#16a34a" stroke-width="1"/><rect x="291.2" y="238.0" width="5.4" height="1.3" fill="#16a34a" opacity="0.82" rx="1"/>
<line x1="302.8" y1="228.8" x2="302.8" y2="249.1" stroke="#16a34a" stroke-width="1"/><rect x="300.1" y="232.9" width="5.4" height="5.1" fill="#16a34a" opacity="0.82" rx="1"/>
<line x1="311.7" y1="217.0" x2="311.7" y2="247.4" stroke="#16a34a" stroke-width="1"/><rect x="308.9" y="221.1" width="5.4" height="11.8" fill="#16a34a" opacity="0.82" rx="1"/>
<line x1="320.5" y1="217.0" x2="320.5" y2="244.1" stroke="#dc2626" stroke-width="1"/><rect x="317.8" y="221.3" width="5.4" height="19.9" fill="#dc2626" opacity="0.82" rx="1"/>
<line x1="329.4" y1="214.3" x2="329.4" y2="261.7" stroke="#16a34a" stroke-width="1"/><rect x="326.7" y="226.8" width="5.4" height="14.5" fill="#16a34a" opacity="0.82" rx="1"/>
<line x1="338.3" y1="179.0" x2="338.3" y2="232.2" stroke="#16a34a" stroke-width="1"/><rect x="335.6" y="195.4" width="5.4" height="30.4" fill="#16a34a" opacity="0.82" rx="1"/>
<line x1="347.2" y1="172.0" x2="347.2" y2="199.8" stroke="#16a34a" stroke-width="1"/><rect x="344.4" y="180.1" width="5.4" height="15.1" fill="#16a34a" opacity="0.82" rx="1"/>
<line x1="356.0" y1="174.8" x2="356.0" y2="216.2" stroke="#dc2626" stroke-width="1"/><rect x="353.3" y="180.1" width="5.4" height="14.1" fill="#dc2626" opacity="0.82" rx="1"/>
<line x1="364.9" y1="193.4" x2="364.9" y2="243.4" stroke="#dc2626" stroke-width="1"/><rect x="362.2" y="194.2" width="5.4" height="45.5" fill="#dc2626" opacity="0.82" rx="1"/>
<line x1="373.8" y1="224.7" x2="373.8" y2="260.4" stroke="#dc2626" stroke-width="1"/><rect x="371.1" y="239.7" width="5.4" height="4.0" fill="#dc2626" opacity="0.82" rx="1"/>
<line x1="382.7" y1="238.7" x2="382.7" y2="281.8" stroke="#dc2626" stroke-width="1"/><rect x="380.0" y="243.7" width="5.4" height="22.3" fill="#dc2626" opacity="0.82" rx="1"/>
<line x1="391.6" y1="263.5" x2="391.6" y2="293.7" stroke="#dc2626" stroke-width="1"/><rect x="388.8" y="265.8" width="5.4" height="19.5" fill="#dc2626" opacity="0.82" rx="1"/>
<line x1="400.4" y1="277.0" x2="400.4" y2="296.2" stroke="#dc2626" stroke-width="1"/><rect x="397.7" y="285.8" width="5.4" height="5.0" fill="#dc2626" opacity="0.82" rx="1"/>
<line x1="409.3" y1="279.3" x2="409.3" y2="306.0" stroke="#dc2626" stroke-width="1"/><rect x="406.6" y="290.8" width="5.4" height="11.2" fill="#dc2626" opacity="0.82" rx="1"/>
<line x1="418.2" y1="294.2" x2="418.2" y2="318.9" stroke="#dc2626" stroke-width="1"/><rect x="415.5" y="302.0" width="5.4" height="1.2" fill="#dc2626" opacity="0.82" rx="1"/>
<line x1="427.1" y1="291.9" x2="427.1" y2="317.5" stroke="#16a34a" stroke-width="1"/><rect x="424.3" y="301.7" width="5.4" height="1.2" fill="#16a34a" opacity="0.82" rx="1"/>
<line x1="435.9" y1="290.5" x2="435.9" y2="312.7" stroke="#dc2626" stroke-width="1"/><rect x="433.2" y="301.5" width="5.4" height="1.2" fill="#dc2626" opacity="0.82" rx="1"/>
<line x1="444.8" y1="268.3" x2="444.8" y2="302.4" stroke="#16a34a" stroke-width="1"/><rect x="442.1" y="269.3" width="5.4" height="32.9" fill="#16a34a" opacity="0.82" rx="1"/>
<line x1="453.7" y1="268.6" x2="453.7" y2="294.6" stroke="#dc2626" stroke-width="1"/><rect x="451.0" y="269.3" width="5.4" height="10.6" fill="#dc2626" opacity="0.82" rx="1"/>
<line x1="462.6" y1="248.2" x2="462.6" y2="283.2" stroke="#16a34a" stroke-width="1"/><rect x="459.8" y="253.8" width="5.4" height="25.9" fill="#16a34a" opacity="0.82" rx="1"/>
<line x1="471.4" y1="252.8" x2="471.4" y2="271.2" stroke="#dc2626" stroke-width="1"/><rect x="468.7" y="253.7" width="5.4" height="10.7" fill="#dc2626" opacity="0.82" rx="1"/>
<line x1="480.3" y1="241.9" x2="480.3" y2="274.4" stroke="#16a34a" stroke-width="1"/><rect x="477.6" y="244.2" width="5.4" height="20.3" fill="#16a34a" opacity="0.82" rx="1"/>
<line x1="489.2" y1="222.8" x2="489.2" y2="245.0" stroke="#dc2626" stroke-width="1"/><rect x="486.5" y="244.2" width="5.4" height="1.2" fill="#dc2626" opacity="0.82" rx="1"/>
<line x1="498.1" y1="231.0" x2="498.1" y2="247.5" stroke="#16a34a" stroke-width="1"/><rect x="495.3" y="243.9" width="5.4" height="1.2" fill="#16a34a" opacity="0.82" rx="1"/>
<line x1="506.9" y1="224.9" x2="506.9" y2="245.1" stroke="#16a34a" stroke-width="1"/><rect x="504.2" y="232.5" width="5.4" height="11.5" fill="#16a34a" opacity="0.82" rx="1"/>
<line x1="515.8" y1="227.1" x2="515.8" y2="243.6" stroke="#16a34a" stroke-width="1"/><rect x="513.1" y="231.0" width="5.4" height="1.6" fill="#16a34a" opacity="0.82" rx="1"/>
<line x1="524.7" y1="227.2" x2="524.7" y2="241.9" stroke="#dc2626" stroke-width="1"/><rect x="522.0" y="230.8" width="5.4" height="4.1" fill="#dc2626" opacity="0.82" rx="1"/>
<line x1="533.6" y1="204.6" x2="533.6" y2="236.1" stroke="#16a34a" stroke-width="1"/><rect x="530.9" y="210.8" width="5.4" height="24.2" fill="#16a34a" opacity="0.82" rx="1"/>
<line x1="542.4" y1="206.7" x2="542.4" y2="240.4" stroke="#dc2626" stroke-width="1"/><rect x="539.7" y="210.8" width="5.4" height="15.2" fill="#dc2626" opacity="0.82" rx="1"/>
<line x1="551.3" y1="193.4" x2="551.3" y2="230.4" stroke="#16a34a" stroke-width="1"/><rect x="548.6" y="206.8" width="5.4" height="19.3" fill="#16a34a" opacity="0.82" rx="1"/>
<line x1="560.2" y1="203.4" x2="560.2" y2="225.4" stroke="#dc2626" stroke-width="1"/><rect x="557.5" y="206.8" width="5.4" height="13.5" fill="#dc2626" opacity="0.82" rx="1"/>
<line x1="569.1" y1="199.3" x2="569.1" y2="227.1" stroke="#16a34a" stroke-width="1"/><rect x="566.4" y="213.9" width="5.4" height="6.4" fill="#16a34a" opacity="0.82" rx="1"/>
<line x1="578.0" y1="210.4" x2="578.0" y2="229.6" stroke="#dc2626" stroke-width="1"/><rect x="575.2" y="213.9" width="5.4" height="12.7" fill="#dc2626" opacity="0.82" rx="1"/>
<line x1="586.8" y1="158.8" x2="586.8" y2="237.5" stroke="#16a34a" stroke-width="1"/><rect x="584.1" y="171.3" width="5.4" height="55.5" fill="#16a34a" opacity="0.82" rx="1"/>
<line x1="595.7" y1="163.9" x2="595.7" y2="193.8" stroke="#dc2626" stroke-width="1"/><rect x="593.0" y="171.2" width="5.4" height="1.8" fill="#dc2626" opacity="0.82" rx="1"/>
<line x1="604.6" y1="138.9" x2="604.6" y2="181.2" stroke="#16a34a" stroke-width="1"/><rect x="601.9" y="165.7" width="5.4" height="7.2" fill="#16a34a" opacity="0.82" rx="1"/>
<line x1="613.5" y1="153.6" x2="613.5" y2="178.5" stroke="#dc2626" stroke-width="1"/><rect x="610.7" y="165.4" width="5.4" height="7.5" fill="#dc2626" opacity="0.82" rx="1"/>
<line x1="622.3" y1="152.1" x2="622.3" y2="173.3" stroke="#16a34a" stroke-width="1"/><rect x="619.6" y="160.2" width="5.4" height="12.8" fill="#16a34a" opacity="0.82" rx="1"/>
<line x1="631.2" y1="150.2" x2="631.2" y2="167.7" stroke="#dc2626" stroke-width="1"/><rect x="628.5" y="160.2" width="5.4" height="7.5" fill="#dc2626" opacity="0.82" rx="1"/>
<line x1="640.1" y1="141.3" x2="640.1" y2="174.1" stroke="#16a34a" stroke-width="1"/><rect x="637.4" y="157.2" width="5.4" height="10.4" fill="#16a34a" opacity="0.82" rx="1"/>
<line x1="649.0" y1="137.5" x2="649.0" y2="159.1" stroke="#16a34a" stroke-width="1"/><rect x="646.2" y="150.7" width="5.4" height="6.4" fill="#16a34a" opacity="0.82" rx="1"/>
<line x1="657.8" y1="151.1" x2="657.8" y2="175.2" stroke="#dc2626" stroke-width="1"/><rect x="655.1" y="151.2" width="5.4" height="21.1" fill="#dc2626" opacity="0.82" rx="1"/>
<line x1="666.7" y1="144.1" x2="666.7" y2="176.5" stroke="#16a34a" stroke-width="1"/><rect x="664.0" y="147.9" width="5.4" height="24.4" fill="#16a34a" opacity="0.82" rx="1"/>
<line x1="675.6" y1="144.1" x2="675.6" y2="157.6" stroke="#dc2626" stroke-width="1"/><rect x="672.9" y="147.9" width="5.4" height="2.6" fill="#dc2626" opacity="0.82" rx="1"/>
<line x1="684.5" y1="143.9" x2="684.5" y2="164.9" stroke="#dc2626" stroke-width="1"/><rect x="681.8" y="150.7" width="5.4" height="13.1" fill="#dc2626" opacity="0.82" rx="1"/>
<line x1="693.3" y1="162.4" x2="693.3" y2="181.0" stroke="#dc2626" stroke-width="1"/><rect x="690.6" y="163.8" width="5.4" height="16.1" fill="#dc2626" opacity="0.82" rx="1"/>
<line x1="702.2" y1="175.5" x2="702.2" y2="211.5" stroke="#dc2626" stroke-width="1"/><rect x="699.5" y="180.0" width="5.4" height="23.5" fill="#dc2626" opacity="0.82" rx="1"/>
<line x1="711.1" y1="194.9" x2="711.1" y2="212.2" stroke="#dc2626" stroke-width="1"/><rect x="708.4" y="203.3" width="5.4" height="5.0" fill="#dc2626" opacity="0.82" rx="1"/>
<line x1="720.0" y1="164.7" x2="720.0" y2="208.7" stroke="#16a34a" stroke-width="1"/><rect x="717.3" y="164.9" width="5.4" height="43.4" fill="#16a34a" opacity="0.82" rx="1"/>
<line x1="728.9" y1="146.4" x2="728.9" y2="174.3" stroke="#16a34a" stroke-width="1"/><rect x="726.1" y="150.7" width="5.4" height="14.3" fill="#16a34a" opacity="0.82" rx="1"/>
<line x1="737.7" y1="143.3" x2="737.7" y2="164.5" stroke="#dc2626" stroke-width="1"/><rect x="735.0" y="150.7" width="5.4" height="2.3" fill="#dc2626" opacity="0.82" rx="1"/>
<line x1="746.6" y1="140.4" x2="746.6" y2="155.3" stroke="#16a34a" stroke-width="1"/><rect x="743.9" y="150.0" width="5.4" height="3.1" fill="#16a34a" opacity="0.82" rx="1"/>
<line x1="755.5" y1="110.9" x2="755.5" y2="154.8" stroke="#16a34a" stroke-width="1"/><rect x="752.8" y="120.0" width="5.4" height="30.0" fill="#16a34a" opacity="0.82" rx="1"/>
<line x1="764.4" y1="111.5" x2="764.4" y2="147.4" stroke="#dc2626" stroke-width="1"/><rect x="761.6" y="120.0" width="5.4" height="18.7" fill="#dc2626" opacity="0.82" rx="1"/>
<line x1="773.2" y1="118.0" x2="773.2" y2="147.7" stroke="#16a34a" stroke-width="1"/><rect x="770.5" y="118.4" width="5.4" height="20.3" fill="#16a34a" opacity="0.82" rx="1"/>
<line x1="782.1" y1="98.4" x2="782.1" y2="137.6" stroke="#dc2626" stroke-width="1"/><rect x="779.4" y="118.5" width="5.4" height="17.9" fill="#dc2626" opacity="0.82" rx="1"/>
<line x1="791.0" y1="91.3" x2="791.0" y2="145.2" stroke="#16a34a" stroke-width="1"/><rect x="788.3" y="104.0" width="5.4" height="32.3" fill="#16a34a" opacity="0.82" rx="1"/>
<line x1="799.9" y1="67.8" x2="799.9" y2="105.3" stroke="#16a34a" stroke-width="1"/><rect x="797.1" y="81.6" width="5.4" height="22.2" fill="#16a34a" opacity="0.82" rx="1"/>
<line x1="808.7" y1="75.3" x2="808.7" y2="103.0" stroke="#dc2626" stroke-width="1"/><rect x="806.0" y="81.5" width="5.4" height="19.7" fill="#dc2626" opacity="0.82" rx="1"/>
<line x1="817.6" y1="99.2" x2="817.6" y2="119.7" stroke="#dc2626" stroke-width="1"/><rect x="814.9" y="100.7" width="5.4" height="10.4" fill="#dc2626" opacity="0.82" rx="1"/>
<line x1="826.5" y1="96.6" x2="826.5" y2="117.9" stroke="#16a34a" stroke-width="1"/><rect x="823.8" y="109.1" width="5.4" height="1.7" fill="#16a34a" opacity="0.82" rx="1"/>
<line x1="835.4" y1="100.5" x2="835.4" y2="126.1" stroke="#dc2626" stroke-width="1"/><rect x="832.6" y="109.3" width="5.4" height="7.8" fill="#dc2626" opacity="0.82" rx="1"/>
<line x1="844.2" y1="108.5" x2="844.2" y2="122.9" stroke="#16a34a" stroke-width="1"/><rect x="841.5" y="114.0" width="5.4" height="3.3" fill="#16a34a" opacity="0.82" rx="1"/>
<line x1="853.1" y1="113.0" x2="853.1" y2="150.5" stroke="#dc2626" stroke-width="1"/><rect x="850.4" y="114.0" width="5.4" height="34.7" fill="#dc2626" opacity="0.82" rx="1"/>
<line x1="862.0" y1="147.3" x2="862.0" y2="152.7" stroke="#dc2626" stroke-width="1"/><rect x="859.3" y="148.7" width="5.4" height="3.1" fill="#dc2626" opacity="0.82" rx="1"/>
<line x1="72" y1="195.5" x2="862" y2="195.5" stroke="#16a34a" stroke-width="1.8" stroke-dasharray="6 4" /><rect x="874" y="175.5" width="166" height="23" rx="5" fill="#ffffff" stroke="#16a34a" opacity="0.97"/><text x="881" y="191.5" fill="#16a34a" font-size="15" font-weight="700">日内支撑 57.43</text>
<line x1="72" y1="79.1" x2="862" y2="79.1" stroke="#dc2626" stroke-width="1.8" stroke-dasharray="6 4" /><rect x="874" y="59.1" width="166" height="23" rx="5" fill="#ffffff" stroke="#dc2626" opacity="0.97"/><text x="881" y="75.1" fill="#dc2626" font-size="15" font-weight="700">日内压力 61.98</text>
<line x1="72" y1="151.9" x2="862" y2="151.9" stroke="#111827" stroke-width="1.8" stroke-dasharray="2 2" /><rect x="874" y="131.9" width="166" height="23" rx="5" fill="#ffffff" stroke="#111827" opacity="0.97"/><text x="881" y="147.9" fill="#111827" font-size="15" font-weight="700">现价 59.14</text>
<text x="72" y="396" fill="#16a34a" font-size="14" font-weight="700">日内做多计划</text><rect x="72" y="404" width="790" height="48" rx="6" fill="#f9fafb" stroke="#e5e7eb"/><line x1="94" y1="412" x2="840" y2="412" stroke="#16a34a" stroke-width="3"/><circle cx="132.0" cy="412" r="5" fill="#16a34a"/><text x="132.0" y="434" fill="#374151" font-size="12" text-anchor="middle">入场 止跌/突破回踩</text><circle cx="451.2" cy="412" r="5" fill="#16a34a"/><text x="451.2" y="434" fill="#374151" font-size="12" text-anchor="middle">止损 57.43</text><circle cx="712.0" cy="412" r="5" fill="#16a34a"/><text x="712.0" y="434" fill="#374151" font-size="12" text-anchor="middle">目标一 61.98</text><circle cx="814.0" cy="412" r="5" fill="#16a34a"/><text x="814.0" y="434" fill="#374151" font-size="12" text-anchor="middle">目标二 63.12</text>
<text x="72" y="482" fill="#dc2626" font-size="14" font-weight="700">日内做空计划</text><rect x="72" y="490" width="790" height="48" rx="6" fill="#f9fafb" stroke="#e5e7eb"/><line x1="94" y1="498" x2="840" y2="498" stroke="#dc2626" stroke-width="3"/><circle cx="132.0" cy="498" r="5" fill="#dc2626"/><text x="132.0" y="520" fill="#374151" font-size="12" text-anchor="middle">入场 反弹承压/破位回抽</text><circle cx="451.2" cy="498" r="5" fill="#dc2626"/><text x="451.2" y="520" fill="#374151" font-size="12" text-anchor="middle">止损 61.98</text><circle cx="712.0" cy="498" r="5" fill="#dc2626"/><text x="712.0" y="520" fill="#374151" font-size="12" text-anchor="middle">目标一 57.43</text><circle cx="814.0" cy="498" r="5" fill="#dc2626"/><text x="814.0" y="520" fill="#374151" font-size="12" text-anchor="middle">目标二 56.29</text>
</svg>