<svg xmlns="http://www.w3.org/2000/svg" width="1080" height="560" viewBox="0 0 1080 560">
<rect width="100%" height="100%" fill="#ffffff"/>
<text x="72" y="23" fill="#111827" font-size="21" font-weight="800">DRAM 日线K线支撑压力图</text>
<text x="862" y="42" fill="#374151" font-size="15" text-anchor="end">最新价 65.38</text>
<line x1="72" y1="34" x2="72" y2="340" stroke="#d1d5db"/>
<line x1="72" y1="340" x2="862" y2="340" stroke="#d1d5db"/>
<line x1="72" y1="340.0" x2="862" y2="340.0" stroke="#f3f4f6"/>
<text x="8" y="345.0" fill="#4b5563" font-size="14">43.96</text>
<line x1="72" y1="263.5" x2="862" y2="263.5" stroke="#f3f4f6"/>
<text x="8" y="268.5" fill="#4b5563" font-size="14">53.31</text>
<line x1="72" y1="187.0" x2="862" y2="187.0" stroke="#f3f4f6"/>
<text x="8" y="192.0" fill="#4b5563" font-size="14">62.67</text>
<line x1="72" y1="110.5" x2="862" y2="110.5" stroke="#f3f4f6"/>
<text x="8" y="115.5" fill="#4b5563" font-size="14">72.02</text>
<line x1="72" y1="34.0" x2="862" y2="34.0" stroke="#f3f4f6"/>
<text x="8" y="39.0" fill="#4b5563" font-size="14">81.37</text>
<line x1="72.0" y1="275.1" x2="72.0" y2="306.2" stroke="#dc2626" stroke-width="1"/><rect x="67.5" y="280.5" width="9.0" height="11.9" fill="#dc2626" opacity="0.82" rx="1"/>
<line x1="102.4" y1="282.1" x2="102.4" y2="318.9" stroke="#16a34a" stroke-width="1"/><rect x="97.9" y="290.5" width="9.0" height="1.8" fill="#16a34a" opacity="0.82" rx="1"/>
<line x1="132.8" y1="273.8" x2="132.8" y2="307.1" stroke="#16a34a" stroke-width="1"/><rect x="128.3" y="276.4" width="9.0" height="14.2" fill="#16a34a" opacity="0.82" rx="1"/>
<line x1="163.2" y1="247.7" x2="163.2" y2="281.5" stroke="#16a34a" stroke-width="1"/><rect x="158.7" y="251.2" width="9.0" height="25.3" fill="#16a34a" opacity="0.82" rx="1"/>
<line x1="193.5" y1="250.8" x2="193.5" y2="269.4" stroke="#dc2626" stroke-width="1"/><rect x="189.0" y="251.2" width="9.0" height="17.9" fill="#dc2626" opacity="0.82" rx="1"/>
<line x1="223.9" y1="241.0" x2="223.9" y2="287.1" stroke="#16a34a" stroke-width="1"/><rect x="219.4" y="255.3" width="9.0" height="13.6" fill="#16a34a" opacity="0.82" rx="1"/>
<line x1="254.3" y1="240.7" x2="254.3" y2="257.0" stroke="#16a34a" stroke-width="1"/><rect x="249.8" y="246.7" width="9.0" height="8.5" fill="#16a34a" opacity="0.82" rx="1"/>
<line x1="284.7" y1="220.0" x2="284.7" y2="248.9" stroke="#16a34a" stroke-width="1"/><rect x="280.2" y="237.4" width="9.0" height="9.2" fill="#16a34a" opacity="0.82" rx="1"/>
<line x1="315.1" y1="181.8" x2="315.1" y2="252.4" stroke="#16a34a" stroke-width="1"/><rect x="310.6" y="190.7" width="9.0" height="46.7" fill="#16a34a" opacity="0.82" rx="1"/>
<line x1="345.5" y1="178.6" x2="345.5" y2="216.3" stroke="#dc2626" stroke-width="1"/><rect x="341.0" y="190.8" width="9.0" height="21.1" fill="#dc2626" opacity="0.82" rx="1"/>
<line x1="375.8" y1="178.0" x2="375.8" y2="229.7" stroke="#16a34a" stroke-width="1"/><rect x="371.3" y="183.9" width="9.0" height="28.1" fill="#16a34a" opacity="0.82" rx="1"/>
<line x1="406.2" y1="173.2" x2="406.2" y2="196.0" stroke="#16a34a" stroke-width="1"/><rect x="401.7" y="181.7" width="9.0" height="2.0" fill="#16a34a" opacity="0.82" rx="1"/>
<line x1="436.6" y1="160.1" x2="436.6" y2="185.1" stroke="#16a34a" stroke-width="1"/><rect x="432.1" y="161.4" width="9.0" height="20.4" fill="#16a34a" opacity="0.82" rx="1"/>
<line x1="467.0" y1="147.6" x2="467.0" y2="166.1" stroke="#16a34a" stroke-width="1"/><rect x="462.5" y="158.7" width="9.0" height="2.6" fill="#16a34a" opacity="0.82" rx="1"/>
<line x1="497.4" y1="134.5" x2="497.4" y2="173.2" stroke="#16a34a" stroke-width="1"/><rect x="492.9" y="141.7" width="9.0" height="16.8" fill="#16a34a" opacity="0.82" rx="1"/>
<line x1="527.8" y1="125.5" x2="527.8" y2="164.6" stroke="#16a34a" stroke-width="1"/><rect x="523.3" y="131.5" width="9.0" height="10.5" fill="#16a34a" opacity="0.82" rx="1"/>
<line x1="558.2" y1="124.4" x2="558.2" y2="156.5" stroke="#dc2626" stroke-width="1"/><rect x="553.7" y="131.4" width="9.0" height="22.5" fill="#dc2626" opacity="0.82" rx="1"/>
<line x1="588.5" y1="143.3" x2="588.5" y2="182.8" stroke="#dc2626" stroke-width="1"/><rect x="584.0" y="154.0" width="9.0" height="27.4" fill="#dc2626" opacity="0.82" rx="1"/>
<line x1="618.9" y1="175.0" x2="618.9" y2="262.3" stroke="#dc2626" stroke-width="1"/><rect x="614.4" y="181.4" width="9.0" height="64.8" fill="#dc2626" opacity="0.82" rx="1"/>
<line x1="649.3" y1="237.8" x2="649.3" y2="270.1" stroke="#16a34a" stroke-width="1"/><rect x="644.8" y="243.7" width="9.0" height="2.5" fill="#16a34a" opacity="0.82" rx="1"/>
<line x1="679.7" y1="210.2" x2="679.7" y2="249.7" stroke="#16a34a" stroke-width="1"/><rect x="675.2" y="237.8" width="9.0" height="6.0" fill="#16a34a" opacity="0.82" rx="1"/>
<line x1="710.1" y1="195.1" x2="710.1" y2="241.4" stroke="#16a34a" stroke-width="1"/><rect x="705.6" y="201.5" width="9.0" height="36.4" fill="#16a34a" opacity="0.82" rx="1"/>
<line x1="740.5" y1="174.4" x2="740.5" y2="246.0" stroke="#dc2626" stroke-width="1"/><rect x="736.0" y="201.4" width="9.0" height="9.5" fill="#dc2626" opacity="0.82" rx="1"/>
<line x1="770.8" y1="196.2" x2="770.8" y2="244.9" stroke="#dc2626" stroke-width="1"/><rect x="766.3" y="210.9" width="9.0" height="27.0" fill="#dc2626" opacity="0.82" rx="1"/>
<line x1="801.2" y1="154.1" x2="801.2" y2="240.0" stroke="#16a34a" stroke-width="1"/><rect x="796.7" y="159.6" width="9.0" height="78.1" fill="#16a34a" opacity="0.82" rx="1"/>
<line x1="831.6" y1="158.3" x2="831.6" y2="190.3" stroke="#dc2626" stroke-width="1"/><rect x="827.1" y="159.6" width="9.0" height="3.0" fill="#dc2626" opacity="0.82" rx="1"/>
<line x1="862.0" y1="161.8" x2="862.0" y2="164.8" stroke="#dc2626" stroke-width="1"/><rect x="857.5" y="162.5" width="9.0" height="2.3" fill="#dc2626" opacity="0.82" rx="1"/>
<line x1="72" y1="230.6" x2="862" y2="230.6" stroke="#16a34a" stroke-width="1.8" stroke-dasharray="6 4" /><rect x="874" y="210.6" width="166" height="23" rx="5" fill="#ffffff" stroke="#16a34a" opacity="0.97"/><text x="881" y="226.6" fill="#16a34a" font-size="15" font-weight="700">支撑 57.33</text>
<line x1="72" y1="55.1" x2="862" y2="55.1" stroke="#dc2626" stroke-width="1.8" stroke-dasharray="6 4" /><rect x="874" y="35.1" width="166" height="23" rx="5" fill="#ffffff" stroke="#dc2626" opacity="0.97"/><text x="881" y="51.1" fill="#dc2626" font-size="15" font-weight="700">压力 78.79</text>
<line x1="72" y1="164.8" x2="862" y2="164.8" stroke="#111827" stroke-width="1.8" stroke-dasharray="2 2" /><rect x="874" y="144.8" width="166" height="23" rx="5" fill="#ffffff" stroke="#111827" opacity="0.97"/><text x="881" y="160.8" fill="#111827" font-size="15" font-weight="700">现价 65.38</text>
<text x="72" y="396" fill="#16a34a" font-size="14" font-weight="700">日线做多计划</text><rect x="72" y="404" width="790" height="48" rx="6" fill="#f9fafb" stroke="#e5e7eb"/><line x1="94" y1="412" x2="840" y2="412" stroke="#16a34a" stroke-width="3"/><circle cx="132.0" cy="412" r="5" fill="#16a34a"/><text x="132.0" y="434" fill="#374151" font-size="12" text-anchor="middle">入场 止跌/突破回踩</text><circle cx="451.2" cy="412" r="5" fill="#16a34a"/><text x="451.2" y="434" fill="#374151" font-size="12" text-anchor="middle">止损 57.33</text><circle cx="712.0" cy="412" r="5" fill="#16a34a"/><text x="712.0" y="434" fill="#374151" font-size="12" text-anchor="middle">目标一 78.79</text><circle cx="814.0" cy="412" r="5" fill="#16a34a"/><text x="814.0" y="434" fill="#374151" font-size="12" text-anchor="middle">目标二 86.84</text>
<text x="72" y="482" fill="#dc2626" font-size="14" font-weight="700">日线做空计划</text><rect x="72" y="490" width="790" height="48" rx="6" fill="#f9fafb" stroke="#e5e7eb"/><line x1="94" y1="498" x2="840" y2="498" stroke="#dc2626" stroke-width="3"/><circle cx="132.0" cy="498" r="5" fill="#dc2626"/><text x="132.0" y="520" fill="#374151" font-size="12" text-anchor="middle">入场 反弹承压/破位回抽</text><circle cx="451.2" cy="498" r="5" fill="#dc2626"/><text x="451.2" y="520" fill="#374151" font-size="12" text-anchor="middle">止损 78.79</text><circle cx="712.0" cy="498" r="5" fill="#dc2626"/><text x="712.0" y="520" fill="#374151" font-size="12" text-anchor="middle">目标一 57.33</text><circle cx="814.0" cy="498" r="5" fill="#dc2626"/><text x="814.0" y="520" fill="#374151" font-size="12" text-anchor="middle">目标二 51.97</text>
</svg>