<svg xmlns="http://www.w3.org/2000/svg" width="1080" height="560" viewBox="0 0 1080 560">
<rect width="100%" height="100%" fill="#ffffff"/>
<text x="72" y="23" fill="#111827" font-size="21" font-weight="800">DRAM 小时线K线支撑压力图</text>
<text x="862" y="42" fill="#374151" font-size="15" text-anchor="end">最新价 65.14</text>
<line x1="72" y1="34" x2="72" y2="340" stroke="#d1d5db"/>
<line x1="72" y1="340" x2="862" y2="340" stroke="#d1d5db"/>
<line x1="72" y1="340.0" x2="862" y2="340.0" stroke="#f3f4f6"/>
<text x="8" y="345.0" fill="#4b5563" font-size="14">57.73</text>
<line x1="72" y1="263.5" x2="862" y2="263.5" stroke="#f3f4f6"/>
<text x="8" y="268.5" fill="#4b5563" font-size="14">62.15</text>
<line x1="72" y1="187.0" x2="862" y2="187.0" stroke="#f3f4f6"/>
<text x="8" y="192.0" fill="#4b5563" font-size="14">66.58</text>
<line x1="72" y1="110.5" x2="862" y2="110.5" stroke="#f3f4f6"/>
<text x="8" y="115.5" fill="#4b5563" font-size="14">71.01</text>
<line x1="72" y1="34.0" x2="862" y2="34.0" stroke="#f3f4f6"/>
<text x="8" y="39.0" fill="#4b5563" font-size="14">75.43</text>
<line x1="72.0" y1="77.9" x2="72.0" y2="88.1" stroke="#dc2626" stroke-width="1"/><rect x="69.3" y="82.1" width="5.4" height="5.0" fill="#dc2626" opacity="0.82" rx="1"/>
<line x1="80.9" y1="84.0" x2="80.9" y2="96.6" stroke="#dc2626" stroke-width="1"/><rect x="78.2" y="87.1" width="5.4" height="2.1" fill="#dc2626" opacity="0.82" rx="1"/>
<line x1="89.8" y1="86.4" x2="89.8" y2="96.2" stroke="#dc2626" stroke-width="1"/><rect x="87.0" y="89.3" width="5.4" height="4.8" fill="#dc2626" opacity="0.82" rx="1"/>
<line x1="98.6" y1="86.9" x2="98.6" y2="99.9" stroke="#16a34a" stroke-width="1"/><rect x="95.9" y="88.6" width="5.4" height="5.7" fill="#16a34a" opacity="0.82" rx="1"/>
<line x1="107.5" y1="82.9" x2="107.5" y2="92.4" stroke="#16a34a" stroke-width="1"/><rect x="104.8" y="85.4" width="5.4" height="3.3" fill="#16a34a" opacity="0.82" rx="1"/>
<line x1="116.4" y1="81.4" x2="116.4" y2="98.8" stroke="#dc2626" stroke-width="1"/><rect x="113.7" y="85.4" width="5.4" height="9.7" fill="#dc2626" opacity="0.82" rx="1"/>
<line x1="125.3" y1="67.9" x2="125.3" y2="97.1" stroke="#16a34a" stroke-width="1"/><rect x="122.5" y="71.0" width="5.4" height="23.9" fill="#16a34a" opacity="0.82" rx="1"/>
<line x1="134.1" y1="62.4" x2="134.1" y2="82.8" stroke="#dc2626" stroke-width="1"/><rect x="131.4" y="70.8" width="5.4" height="9.9" fill="#dc2626" opacity="0.82" rx="1"/>
<line x1="143.0" y1="70.0" x2="143.0" y2="80.5" stroke="#16a34a" stroke-width="1"/><rect x="140.3" y="74.1" width="5.4" height="6.4" fill="#16a34a" opacity="0.82" rx="1"/>
<line x1="151.9" y1="59.8" x2="151.9" y2="74.3" stroke="#16a34a" stroke-width="1"/><rect x="149.2" y="67.5" width="5.4" height="6.6" fill="#16a34a" opacity="0.82" rx="1"/>
<line x1="160.8" y1="58.7" x2="160.8" y2="68.8" stroke="#16a34a" stroke-width="1"/><rect x="158.0" y="63.9" width="5.4" height="3.6" fill="#16a34a" opacity="0.82" rx="1"/>
<line x1="169.6" y1="58.6" x2="169.6" y2="67.5" stroke="#16a34a" stroke-width="1"/><rect x="166.9" y="59.1" width="5.4" height="4.7" fill="#16a34a" opacity="0.82" rx="1"/>
<line x1="178.5" y1="55.1" x2="178.5" y2="65.3" stroke="#dc2626" stroke-width="1"/><rect x="175.8" y="59.1" width="5.4" height="2.1" fill="#dc2626" opacity="0.82" rx="1"/>
<line x1="187.4" y1="57.9" x2="187.4" y2="70.1" stroke="#dc2626" stroke-width="1"/><rect x="184.7" y="61.0" width="5.4" height="5.4" fill="#dc2626" opacity="0.82" rx="1"/>
<line x1="196.3" y1="62.4" x2="196.3" y2="66.9" stroke="#16a34a" stroke-width="1"/><rect x="193.5" y="63.1" width="5.4" height="3.5" fill="#16a34a" opacity="0.82" rx="1"/>
<line x1="205.1" y1="58.9" x2="205.1" y2="65.3" stroke="#dc2626" stroke-width="1"/><rect x="202.4" y="63.2" width="5.4" height="1.2" fill="#dc2626" opacity="0.82" rx="1"/>
<line x1="214.0" y1="63.4" x2="214.0" y2="70.7" stroke="#dc2626" stroke-width="1"/><rect x="211.3" y="63.4" width="5.4" height="4.0" fill="#dc2626" opacity="0.82" rx="1"/>
<line x1="222.9" y1="59.6" x2="222.9" y2="106.8" stroke="#dc2626" stroke-width="1"/><rect x="220.2" y="67.2" width="5.4" height="38.5" fill="#dc2626" opacity="0.82" rx="1"/>
<line x1="231.8" y1="100.6" x2="231.8" y2="123.2" stroke="#dc2626" stroke-width="1"/><rect x="229.1" y="106.1" width="5.4" height="15.9" fill="#dc2626" opacity="0.82" rx="1"/>
<line x1="240.7" y1="113.4" x2="240.7" y2="135.7" stroke="#16a34a" stroke-width="1"/><rect x="237.9" y="117.9" width="5.4" height="4.0" fill="#16a34a" opacity="0.82" rx="1"/>
<line x1="249.5" y1="105.1" x2="249.5" y2="121.3" stroke="#16a34a" stroke-width="1"/><rect x="246.8" y="109.2" width="5.4" height="8.5" fill="#16a34a" opacity="0.82" rx="1"/>
<line x1="258.4" y1="105.4" x2="258.4" y2="116.3" stroke="#dc2626" stroke-width="1"/><rect x="255.7" y="109.2" width="5.4" height="2.4" fill="#dc2626" opacity="0.82" rx="1"/>
<line x1="267.3" y1="109.2" x2="267.3" y2="122.3" stroke="#dc2626" stroke-width="1"/><rect x="264.6" y="111.8" width="5.4" height="9.9" fill="#dc2626" opacity="0.82" rx="1"/>
<line x1="276.2" y1="118.7" x2="276.2" y2="130.0" stroke="#dc2626" stroke-width="1"/><rect x="273.4" y="121.5" width="5.4" height="6.9" fill="#dc2626" opacity="0.82" rx="1"/>
<line x1="285.0" y1="127.9" x2="285.0" y2="135.8" stroke="#dc2626" stroke-width="1"/><rect x="282.3" y="128.2" width="5.4" height="4.0" fill="#dc2626" opacity="0.82" rx="1"/>
<line x1="293.9" y1="125.1" x2="293.9" y2="143.6" stroke="#16a34a" stroke-width="1"/><rect x="291.2" y="130.1" width="5.4" height="2.1" fill="#16a34a" opacity="0.82" rx="1"/>
<line x1="302.8" y1="130.3" x2="302.8" y2="140.8" stroke="#dc2626" stroke-width="1"/><rect x="300.1" y="130.3" width="5.4" height="4.5" fill="#dc2626" opacity="0.82" rx="1"/>
<line x1="311.7" y1="132.9" x2="311.7" y2="141.9" stroke="#16a34a" stroke-width="1"/><rect x="308.9" y="134.6" width="5.4" height="1.2" fill="#16a34a" opacity="0.82" rx="1"/>
<line x1="320.5" y1="124.9" x2="320.5" y2="134.4" stroke="#16a34a" stroke-width="1"/><rect x="317.8" y="130.3" width="5.4" height="4.1" fill="#16a34a" opacity="0.82" rx="1"/>
<line x1="329.4" y1="123.6" x2="329.4" y2="168.0" stroke="#dc2626" stroke-width="1"/><rect x="326.7" y="130.1" width="5.4" height="32.3" fill="#dc2626" opacity="0.82" rx="1"/>
<line x1="338.3" y1="149.0" x2="338.3" y2="178.4" stroke="#16a34a" stroke-width="1"/><rect x="335.6" y="159.2" width="5.4" height="3.1" fill="#16a34a" opacity="0.82" rx="1"/>
<line x1="347.2" y1="150.9" x2="347.2" y2="187.9" stroke="#dc2626" stroke-width="1"/><rect x="344.4" y="159.2" width="5.4" height="25.6" fill="#dc2626" opacity="0.82" rx="1"/>
<line x1="356.0" y1="166.9" x2="356.0" y2="184.8" stroke="#16a34a" stroke-width="1"/><rect x="353.3" y="180.4" width="5.4" height="4.1" fill="#16a34a" opacity="0.82" rx="1"/>
<line x1="364.9" y1="172.7" x2="364.9" y2="184.4" stroke="#dc2626" stroke-width="1"/><rect x="362.2" y="180.4" width="5.4" height="2.9" fill="#dc2626" opacity="0.82" rx="1"/>
<line x1="373.8" y1="179.0" x2="373.8" y2="193.9" stroke="#dc2626" stroke-width="1"/><rect x="371.1" y="183.5" width="5.4" height="9.3" fill="#dc2626" opacity="0.82" rx="1"/>
<line x1="382.7" y1="186.3" x2="382.7" y2="197.4" stroke="#dc2626" stroke-width="1"/><rect x="380.0" y="192.7" width="5.4" height="1.2" fill="#dc2626" opacity="0.82" rx="1"/>
<line x1="391.6" y1="175.2" x2="391.6" y2="199.1" stroke="#dc2626" stroke-width="1"/><rect x="388.8" y="192.7" width="5.4" height="6.4" fill="#dc2626" opacity="0.82" rx="1"/>
<line x1="400.4" y1="191.5" x2="400.4" y2="210.3" stroke="#16a34a" stroke-width="1"/><rect x="397.7" y="195.1" width="5.4" height="3.3" fill="#16a34a" opacity="0.82" rx="1"/>
<line x1="409.3" y1="188.4" x2="409.3" y2="195.8" stroke="#16a34a" stroke-width="1"/><rect x="406.6" y="191.1" width="5.4" height="4.0" fill="#16a34a" opacity="0.82" rx="1"/>
<line x1="418.2" y1="190.3" x2="418.2" y2="196.7" stroke="#dc2626" stroke-width="1"/><rect x="415.5" y="191.1" width="5.4" height="1.2" fill="#dc2626" opacity="0.82" rx="1"/>
<line x1="427.1" y1="192.2" x2="427.1" y2="219.5" stroke="#dc2626" stroke-width="1"/><rect x="424.3" y="192.2" width="5.4" height="24.4" fill="#dc2626" opacity="0.82" rx="1"/>
<line x1="435.9" y1="214.0" x2="435.9" y2="241.5" stroke="#dc2626" stroke-width="1"/><rect x="433.2" y="216.4" width="5.4" height="13.5" fill="#dc2626" opacity="0.82" rx="1"/>
<line x1="444.8" y1="198.6" x2="444.8" y2="231.8" stroke="#16a34a" stroke-width="1"/><rect x="442.1" y="199.1" width="5.4" height="30.8" fill="#16a34a" opacity="0.82" rx="1"/>
<line x1="453.7" y1="188.4" x2="453.7" y2="208.4" stroke="#dc2626" stroke-width="1"/><rect x="451.0" y="199.1" width="5.4" height="5.0" fill="#dc2626" opacity="0.82" rx="1"/>
<line x1="462.6" y1="201.9" x2="462.6" y2="221.4" stroke="#dc2626" stroke-width="1"/><rect x="459.8" y="204.1" width="5.4" height="13.0" fill="#dc2626" opacity="0.82" rx="1"/>
<line x1="471.4" y1="214.5" x2="471.4" y2="232.8" stroke="#dc2626" stroke-width="1"/><rect x="468.7" y="217.1" width="5.4" height="8.1" fill="#dc2626" opacity="0.82" rx="1"/>
<line x1="480.3" y1="219.3" x2="480.3" y2="244.9" stroke="#dc2626" stroke-width="1"/><rect x="477.6" y="225.2" width="5.4" height="19.5" fill="#dc2626" opacity="0.82" rx="1"/>
<line x1="489.2" y1="242.1" x2="489.2" y2="266.2" stroke="#dc2626" stroke-width="1"/><rect x="486.5" y="244.7" width="5.4" height="14.3" fill="#dc2626" opacity="0.82" rx="1"/>
<line x1="498.1" y1="251.3" x2="498.1" y2="268.4" stroke="#16a34a" stroke-width="1"/><rect x="495.3" y="254.9" width="5.4" height="4.3" fill="#16a34a" opacity="0.82" rx="1"/>
<line x1="506.9" y1="234.0" x2="506.9" y2="266.7" stroke="#16a34a" stroke-width="1"/><rect x="504.2" y="235.7" width="5.4" height="19.0" fill="#16a34a" opacity="0.82" rx="1"/>
<line x1="515.8" y1="235.9" x2="515.8" y2="253.0" stroke="#dc2626" stroke-width="1"/><rect x="513.1" y="235.9" width="5.4" height="16.1" fill="#dc2626" opacity="0.82" rx="1"/>
<line x1="524.7" y1="247.3" x2="524.7" y2="257.9" stroke="#16a34a" stroke-width="1"/><rect x="522.0" y="249.6" width="5.4" height="2.2" fill="#16a34a" opacity="0.82" rx="1"/>
<line x1="533.6" y1="237.1" x2="533.6" y2="254.9" stroke="#16a34a" stroke-width="1"/><rect x="530.9" y="242.0" width="5.4" height="7.8" fill="#16a34a" opacity="0.82" rx="1"/>
<line x1="542.4" y1="184.2" x2="542.4" y2="244.6" stroke="#16a34a" stroke-width="1"/><rect x="539.7" y="215.5" width="5.4" height="26.3" fill="#16a34a" opacity="0.82" rx="1"/>
<line x1="551.3" y1="201.0" x2="551.3" y2="234.4" stroke="#16a34a" stroke-width="1"/><rect x="548.6" y="204.6" width="5.4" height="10.9" fill="#16a34a" opacity="0.82" rx="1"/>
<line x1="560.2" y1="199.8" x2="560.2" y2="280.9" stroke="#dc2626" stroke-width="1"/><rect x="557.5" y="204.5" width="5.4" height="65.7" fill="#dc2626" opacity="0.82" rx="1"/>
<line x1="569.1" y1="255.5" x2="569.1" y2="289.7" stroke="#dc2626" stroke-width="1"/><rect x="566.4" y="270.0" width="5.4" height="4.5" fill="#dc2626" opacity="0.82" rx="1"/>
<line x1="578.0" y1="273.3" x2="578.0" y2="300.6" stroke="#dc2626" stroke-width="1"/><rect x="575.2" y="274.3" width="5.4" height="22.5" fill="#dc2626" opacity="0.82" rx="1"/>
<line x1="586.8" y1="290.5" x2="586.8" y2="318.9" stroke="#dc2626" stroke-width="1"/><rect x="584.1" y="296.8" width="5.4" height="21.1" fill="#dc2626" opacity="0.82" rx="1"/>
<line x1="595.7" y1="288.3" x2="595.7" y2="318.4" stroke="#16a34a" stroke-width="1"/><rect x="593.0" y="292.3" width="5.4" height="25.6" fill="#16a34a" opacity="0.82" rx="1"/>
<line x1="604.6" y1="284.2" x2="604.6" y2="312.2" stroke="#16a34a" stroke-width="1"/><rect x="601.9" y="286.7" width="5.4" height="5.5" fill="#16a34a" opacity="0.82" rx="1"/>
<line x1="613.5" y1="276.5" x2="613.5" y2="292.3" stroke="#16a34a" stroke-width="1"/><rect x="610.7" y="284.3" width="5.4" height="2.4" fill="#16a34a" opacity="0.82" rx="1"/>
<line x1="622.3" y1="281.9" x2="622.3" y2="288.8" stroke="#dc2626" stroke-width="1"/><rect x="619.6" y="284.3" width="5.4" height="2.2" fill="#dc2626" opacity="0.82" rx="1"/>
<line x1="631.2" y1="283.6" x2="631.2" y2="292.4" stroke="#dc2626" stroke-width="1"/><rect x="628.5" y="286.6" width="5.4" height="3.5" fill="#dc2626" opacity="0.82" rx="1"/>
<line x1="640.1" y1="268.6" x2="640.1" y2="297.5" stroke="#16a34a" stroke-width="1"/><rect x="637.4" y="280.3" width="5.4" height="9.9" fill="#16a34a" opacity="0.82" rx="1"/>
<line x1="649.0" y1="267.0" x2="649.0" y2="305.9" stroke="#dc2626" stroke-width="1"/><rect x="646.2" y="280.3" width="5.4" height="23.3" fill="#dc2626" opacity="0.82" rx="1"/>
<line x1="657.8" y1="258.6" x2="657.8" y2="306.5" stroke="#16a34a" stroke-width="1"/><rect x="655.1" y="263.2" width="5.4" height="40.5" fill="#16a34a" opacity="0.82" rx="1"/>
<line x1="666.7" y1="258.9" x2="666.7" y2="275.9" stroke="#dc2626" stroke-width="1"/><rect x="664.0" y="263.1" width="5.4" height="1.2" fill="#dc2626" opacity="0.82" rx="1"/>
<line x1="675.6" y1="257.9" x2="675.6" y2="278.1" stroke="#16a34a" stroke-width="1"/><rect x="672.9" y="260.1" width="5.4" height="4.1" fill="#16a34a" opacity="0.82" rx="1"/>
<line x1="684.5" y1="235.2" x2="684.5" y2="261.3" stroke="#16a34a" stroke-width="1"/><rect x="681.8" y="240.9" width="5.4" height="19.4" fill="#16a34a" opacity="0.82" rx="1"/>
<line x1="693.3" y1="233.8" x2="693.3" y2="251.7" stroke="#dc2626" stroke-width="1"/><rect x="690.6" y="241.1" width="5.4" height="1.6" fill="#dc2626" opacity="0.82" rx="1"/>
<line x1="702.2" y1="238.3" x2="702.2" y2="253.6" stroke="#dc2626" stroke-width="1"/><rect x="699.5" y="242.7" width="5.4" height="2.8" fill="#dc2626" opacity="0.82" rx="1"/>
<line x1="711.1" y1="232.5" x2="711.1" y2="245.3" stroke="#16a34a" stroke-width="1"/><rect x="708.4" y="240.4" width="5.4" height="4.7" fill="#16a34a" opacity="0.82" rx="1"/>
<line x1="720.0" y1="216.2" x2="720.0" y2="240.4" stroke="#16a34a" stroke-width="1"/><rect x="717.3" y="224.0" width="5.4" height="16.2" fill="#16a34a" opacity="0.82" rx="1"/>
<line x1="728.9" y1="219.2" x2="728.9" y2="228.0" stroke="#16a34a" stroke-width="1"/><rect x="726.1" y="221.9" width="5.4" height="1.9" fill="#16a34a" opacity="0.82" rx="1"/>
<line x1="737.7" y1="213.3" x2="737.7" y2="224.0" stroke="#16a34a" stroke-width="1"/><rect x="735.0" y="215.7" width="5.4" height="6.1" fill="#16a34a" opacity="0.82" rx="1"/>
<line x1="746.6" y1="205.7" x2="746.6" y2="216.7" stroke="#16a34a" stroke-width="1"/><rect x="743.9" y="210.9" width="5.4" height="4.7" fill="#16a34a" opacity="0.82" rx="1"/>
<line x1="755.5" y1="206.2" x2="755.5" y2="223.6" stroke="#dc2626" stroke-width="1"/><rect x="752.8" y="210.7" width="5.4" height="7.1" fill="#dc2626" opacity="0.82" rx="1"/>
<line x1="764.4" y1="212.9" x2="764.4" y2="222.4" stroke="#16a34a" stroke-width="1"/><rect x="761.6" y="214.3" width="5.4" height="3.5" fill="#16a34a" opacity="0.82" rx="1"/>
<line x1="773.2" y1="208.3" x2="773.2" y2="219.3" stroke="#16a34a" stroke-width="1"/><rect x="770.5" y="212.4" width="5.4" height="1.9" fill="#16a34a" opacity="0.82" rx="1"/>
<line x1="782.1" y1="208.8" x2="782.1" y2="215.7" stroke="#16a34a" stroke-width="1"/><rect x="779.4" y="211.0" width="5.4" height="1.2" fill="#16a34a" opacity="0.82" rx="1"/>
<line x1="791.0" y1="208.4" x2="791.0" y2="214.8" stroke="#dc2626" stroke-width="1"/><rect x="788.3" y="211.0" width="5.4" height="2.8" fill="#dc2626" opacity="0.82" rx="1"/>
<line x1="799.9" y1="208.3" x2="799.9" y2="214.3" stroke="#16a34a" stroke-width="1"/><rect x="797.1" y="211.5" width="5.4" height="2.2" fill="#16a34a" opacity="0.82" rx="1"/>
<line x1="808.7" y1="207.6" x2="808.7" y2="221.6" stroke="#dc2626" stroke-width="1"/><rect x="806.0" y="211.4" width="5.4" height="3.3" fill="#dc2626" opacity="0.82" rx="1"/>
<line x1="817.6" y1="208.1" x2="817.6" y2="216.6" stroke="#dc2626" stroke-width="1"/><rect x="814.9" y="214.5" width="5.4" height="1.2" fill="#dc2626" opacity="0.82" rx="1"/>
<line x1="826.5" y1="211.7" x2="826.5" y2="218.8" stroke="#16a34a" stroke-width="1"/><rect x="823.8" y="213.1" width="5.4" height="2.1" fill="#16a34a" opacity="0.82" rx="1"/>
<line x1="835.4" y1="207.6" x2="835.4" y2="214.5" stroke="#16a34a" stroke-width="1"/><rect x="832.6" y="208.3" width="5.4" height="4.7" fill="#16a34a" opacity="0.82" rx="1"/>
<line x1="844.2" y1="207.6" x2="844.2" y2="212.8" stroke="#dc2626" stroke-width="1"/><rect x="841.5" y="208.3" width="5.4" height="1.7" fill="#dc2626" opacity="0.82" rx="1"/>
<line x1="853.1" y1="207.4" x2="853.1" y2="212.8" stroke="#16a34a" stroke-width="1"/><rect x="850.4" y="208.4" width="5.4" height="1.6" fill="#16a34a" opacity="0.82" rx="1"/>
<line x1="862.0" y1="207.6" x2="862.0" y2="211.9" stroke="#dc2626" stroke-width="1"/><rect x="859.3" y="208.1" width="5.4" height="3.8" fill="#dc2626" opacity="0.82" rx="1"/>
<line x1="72" y1="224.7" x2="862" y2="224.7" stroke="#16a34a" stroke-width="1.8" stroke-dasharray="6 4" /><rect x="874" y="204.7" width="166" height="23" rx="5" fill="#ffffff" stroke="#16a34a" opacity="0.97"/><text x="881" y="220.7" fill="#16a34a" font-size="15" font-weight="700">日内支撑 64.40</text>
<line x1="72" y1="190.5" x2="862" y2="190.5" stroke="#dc2626" stroke-width="1.8" stroke-dasharray="6 4" /><rect x="874" y="170.5" width="166" height="23" rx="5" fill="#ffffff" stroke="#dc2626" opacity="0.97"/><text x="881" y="186.5" fill="#dc2626" font-size="15" font-weight="700">日内压力 66.38</text>
<line x1="72" y1="211.9" x2="862" y2="211.9" stroke="#111827" stroke-width="1.8" stroke-dasharray="2 2" /><rect x="874" y="191.9" width="166" height="23" rx="5" fill="#ffffff" stroke="#111827" opacity="0.97"/><text x="881" y="207.9" fill="#111827" font-size="15" font-weight="700">现价 65.14</text>
<text x="72" y="396" fill="#16a34a" font-size="14" font-weight="700">日内做多计划</text><rect x="72" y="404" width="790" height="48" rx="6" fill="#f9fafb" stroke="#e5e7eb"/><line x1="94" y1="412" x2="840" y2="412" stroke="#16a34a" stroke-width="3"/><circle cx="132.0" cy="412" r="5" fill="#16a34a"/><text x="132.0" y="434" fill="#374151" font-size="12" text-anchor="middle">入场 止跌/突破回踩</text><circle cx="451.2" cy="412" r="5" fill="#16a34a"/><text x="451.2" y="434" fill="#374151" font-size="12" text-anchor="middle">止损 64.40</text><circle cx="712.0" cy="412" r="5" fill="#16a34a"/><text x="712.0" y="434" fill="#374151" font-size="12" text-anchor="middle">目标一 66.38</text><circle cx="814.0" cy="412" r="5" fill="#16a34a"/><text x="814.0" y="434" fill="#374151" font-size="12" text-anchor="middle">目标二 66.87</text>
<text x="72" y="482" fill="#dc2626" font-size="14" font-weight="700">日内做空计划</text><rect x="72" y="490" width="790" height="48" rx="6" fill="#f9fafb" stroke="#e5e7eb"/><line x1="94" y1="498" x2="840" y2="498" stroke="#dc2626" stroke-width="3"/><circle cx="132.0" cy="498" r="5" fill="#dc2626"/><text x="132.0" y="520" fill="#374151" font-size="12" text-anchor="middle">入场 反弹承压/破位回抽</text><circle cx="451.2" cy="498" r="5" fill="#dc2626"/><text x="451.2" y="520" fill="#374151" font-size="12" text-anchor="middle">止损 66.38</text><circle cx="712.0" cy="498" r="5" fill="#dc2626"/><text x="712.0" y="520" fill="#374151" font-size="12" text-anchor="middle">目标一 64.40</text><circle cx="814.0" cy="498" r="5" fill="#dc2626"/><text x="814.0" y="520" fill="#374151" font-size="12" text-anchor="middle">目标二 63.90</text>
</svg>