<svg xmlns="http://www.w3.org/2000/svg" width="1080" height="560" viewBox="0 0 1080 560">
<rect width="100%" height="100%" fill="#ffffff"/>
<text x="72" y="23" fill="#111827" font-size="21" font-weight="800">DRAM 日线K线支撑压力图</text>
<text x="862" y="42" fill="#374151" font-size="15" text-anchor="end">最新价 64.81</text>
<line x1="72" y1="34" x2="72" y2="340" stroke="#d1d5db"/>
<line x1="72" y1="340" x2="862" y2="340" stroke="#d1d5db"/>
<line x1="72" y1="340.0" x2="862" y2="340.0" stroke="#f3f4f6"/>
<text x="8" y="345.0" fill="#4b5563" font-size="14">43.71</text>
<line x1="72" y1="263.5" x2="862" y2="263.5" stroke="#f3f4f6"/>
<text x="8" y="268.5" fill="#4b5563" font-size="14">53.98</text>
<line x1="72" y1="187.0" x2="862" y2="187.0" stroke="#f3f4f6"/>
<text x="8" y="192.0" fill="#4b5563" font-size="14">64.25</text>
<line x1="72" y1="110.5" x2="862" y2="110.5" stroke="#f3f4f6"/>
<text x="8" y="115.5" fill="#4b5563" font-size="14">74.52</text>
<line x1="72" y1="34.0" x2="862" y2="34.0" stroke="#f3f4f6"/>
<text x="8" y="39.0" fill="#4b5563" font-size="14">84.79</text>
<line x1="72.0" y1="279.1" x2="72.0" y2="307.4" stroke="#dc2626" stroke-width="1"/><rect x="67.5" y="283.9" width="9.0" height="10.9" fill="#dc2626" opacity="0.82" rx="1"/>
<line x1="88.8" y1="285.4" x2="88.8" y2="318.9" stroke="#16a34a" stroke-width="1"/><rect x="84.3" y="293.1" width="9.0" height="1.6" fill="#16a34a" opacity="0.82" rx="1"/>
<line x1="105.6" y1="277.9" x2="105.6" y2="308.2" stroke="#16a34a" stroke-width="1"/><rect x="101.1" y="280.2" width="9.0" height="13.0" fill="#16a34a" opacity="0.82" rx="1"/>
<line x1="122.4" y1="254.0" x2="122.4" y2="284.9" stroke="#16a34a" stroke-width="1"/><rect x="117.9" y="257.2" width="9.0" height="23.0" fill="#16a34a" opacity="0.82" rx="1"/>
<line x1="139.2" y1="256.9" x2="139.2" y2="273.8" stroke="#dc2626" stroke-width="1"/><rect x="134.7" y="257.2" width="9.0" height="16.3" fill="#dc2626" opacity="0.82" rx="1"/>
<line x1="156.0" y1="248.0" x2="156.0" y2="289.9" stroke="#16a34a" stroke-width="1"/><rect x="151.5" y="261.0" width="9.0" height="12.4" fill="#16a34a" opacity="0.82" rx="1"/>
<line x1="172.9" y1="247.7" x2="172.9" y2="262.5" stroke="#16a34a" stroke-width="1"/><rect x="168.4" y="253.1" width="9.0" height="7.7" fill="#16a34a" opacity="0.82" rx="1"/>
<line x1="189.7" y1="228.9" x2="189.7" y2="255.1" stroke="#16a34a" stroke-width="1"/><rect x="185.2" y="244.7" width="9.0" height="8.3" fill="#16a34a" opacity="0.82" rx="1"/>
<line x1="206.5" y1="194.1" x2="206.5" y2="258.3" stroke="#16a34a" stroke-width="1"/><rect x="202.0" y="202.2" width="9.0" height="42.5" fill="#16a34a" opacity="0.82" rx="1"/>
<line x1="223.3" y1="191.2" x2="223.3" y2="225.5" stroke="#dc2626" stroke-width="1"/><rect x="218.8" y="202.3" width="9.0" height="19.2" fill="#dc2626" opacity="0.82" rx="1"/>
<line x1="240.1" y1="190.6" x2="240.1" y2="237.7" stroke="#16a34a" stroke-width="1"/><rect x="235.6" y="195.9" width="9.0" height="25.5" fill="#16a34a" opacity="0.82" rx="1"/>
<line x1="256.9" y1="186.3" x2="256.9" y2="207.0" stroke="#16a34a" stroke-width="1"/><rect x="252.4" y="194.0" width="9.0" height="1.8" fill="#16a34a" opacity="0.82" rx="1"/>
<line x1="273.7" y1="174.3" x2="273.7" y2="197.1" stroke="#16a34a" stroke-width="1"/><rect x="269.2" y="175.5" width="9.0" height="18.5" fill="#16a34a" opacity="0.82" rx="1"/>
<line x1="290.5" y1="162.9" x2="290.5" y2="179.8" stroke="#16a34a" stroke-width="1"/><rect x="286.0" y="173.0" width="9.0" height="2.4" fill="#16a34a" opacity="0.82" rx="1"/>
<line x1="307.3" y1="151.0" x2="307.3" y2="186.3" stroke="#16a34a" stroke-width="1"/><rect x="302.8" y="157.6" width="9.0" height="15.3" fill="#16a34a" opacity="0.82" rx="1"/>
<line x1="324.1" y1="142.8" x2="324.1" y2="178.4" stroke="#16a34a" stroke-width="1"/><rect x="319.6" y="148.3" width="9.0" height="9.5" fill="#16a34a" opacity="0.82" rx="1"/>
<line x1="340.9" y1="141.8" x2="340.9" y2="171.0" stroke="#dc2626" stroke-width="1"/><rect x="336.4" y="148.2" width="9.0" height="20.5" fill="#dc2626" opacity="0.82" rx="1"/>
<line x1="357.7" y1="159.0" x2="357.7" y2="195.0" stroke="#dc2626" stroke-width="1"/><rect x="353.2" y="168.8" width="9.0" height="24.9" fill="#dc2626" opacity="0.82" rx="1"/>
<line x1="374.6" y1="187.9" x2="374.6" y2="267.4" stroke="#dc2626" stroke-width="1"/><rect x="370.1" y="193.7" width="9.0" height="59.0" fill="#dc2626" opacity="0.82" rx="1"/>
<line x1="391.4" y1="245.0" x2="391.4" y2="274.4" stroke="#16a34a" stroke-width="1"/><rect x="386.9" y="250.5" width="9.0" height="2.3" fill="#16a34a" opacity="0.82" rx="1"/>
<line x1="408.2" y1="219.9" x2="408.2" y2="255.9" stroke="#16a34a" stroke-width="1"/><rect x="403.7" y="245.1" width="9.0" height="5.4" fill="#16a34a" opacity="0.82" rx="1"/>
<line x1="425.0" y1="206.2" x2="425.0" y2="248.3" stroke="#16a34a" stroke-width="1"/><rect x="420.5" y="212.0" width="9.0" height="33.1" fill="#16a34a" opacity="0.82" rx="1"/>
<line x1="441.8" y1="187.4" x2="441.8" y2="252.5" stroke="#dc2626" stroke-width="1"/><rect x="437.3" y="211.9" width="9.0" height="8.6" fill="#dc2626" opacity="0.82" rx="1"/>
<line x1="458.6" y1="207.2" x2="458.6" y2="251.5" stroke="#dc2626" stroke-width="1"/><rect x="454.1" y="220.6" width="9.0" height="24.6" fill="#dc2626" opacity="0.82" rx="1"/>
<line x1="475.4" y1="168.8" x2="475.4" y2="247.0" stroke="#16a34a" stroke-width="1"/><rect x="470.9" y="173.8" width="9.0" height="71.1" fill="#16a34a" opacity="0.82" rx="1"/>
<line x1="492.2" y1="172.6" x2="492.2" y2="201.8" stroke="#dc2626" stroke-width="1"/><rect x="487.7" y="173.9" width="9.0" height="2.8" fill="#dc2626" opacity="0.82" rx="1"/>
<line x1="509.0" y1="174.1" x2="509.0" y2="189.7" stroke="#16a34a" stroke-width="1"/><rect x="504.5" y="175.7" width="9.0" height="1.2" fill="#16a34a" opacity="0.82" rx="1"/>
<line x1="525.8" y1="149.9" x2="525.8" y2="177.2" stroke="#16a34a" stroke-width="1"/><rect x="521.3" y="157.1" width="9.0" height="18.5" fill="#16a34a" opacity="0.82" rx="1"/>
<line x1="542.6" y1="134.1" x2="542.6" y2="163.7" stroke="#16a34a" stroke-width="1"/><rect x="538.1" y="137.8" width="9.0" height="19.4" fill="#16a34a" opacity="0.82" rx="1"/>
<line x1="559.4" y1="121.2" x2="559.4" y2="160.7" stroke="#dc2626" stroke-width="1"/><rect x="554.9" y="138.0" width="9.0" height="14.4" fill="#dc2626" opacity="0.82" rx="1"/>
<line x1="576.3" y1="119.7" x2="576.3" y2="152.7" stroke="#16a34a" stroke-width="1"/><rect x="571.8" y="125.8" width="9.0" height="26.7" fill="#16a34a" opacity="0.82" rx="1"/>
<line x1="593.1" y1="80.6" x2="593.1" y2="127.6" stroke="#16a34a" stroke-width="1"/><rect x="588.6" y="82.8" width="9.0" height="42.8" fill="#16a34a" opacity="0.82" rx="1"/>
<line x1="609.9" y1="79.5" x2="609.9" y2="108.1" stroke="#dc2626" stroke-width="1"/><rect x="605.4" y="82.9" width="9.0" height="4.5" fill="#dc2626" opacity="0.82" rx="1"/>
<line x1="626.7" y1="63.2" x2="626.7" y2="88.8" stroke="#16a34a" stroke-width="1"/><rect x="622.2" y="68.9" width="9.0" height="18.6" fill="#16a34a" opacity="0.82" rx="1"/>
<line x1="643.5" y1="59.5" x2="643.5" y2="95.4" stroke="#dc2626" stroke-width="1"/><rect x="639.0" y="69.0" width="9.0" height="21.4" fill="#dc2626" opacity="0.82" rx="1"/>
<line x1="660.3" y1="55.1" x2="660.3" y2="106.9" stroke="#16a34a" stroke-width="1"/><rect x="655.8" y="66.0" width="9.0" height="24.4" fill="#16a34a" opacity="0.82" rx="1"/>
<line x1="677.1" y1="65.3" x2="677.1" y2="153.9" stroke="#dc2626" stroke-width="1"/><rect x="672.6" y="66.0" width="9.0" height="74.3" fill="#dc2626" opacity="0.82" rx="1"/>
<line x1="693.9" y1="58.5" x2="693.9" y2="164.8" stroke="#16a34a" stroke-width="1"/><rect x="689.4" y="67.8" width="9.0" height="72.3" fill="#16a34a" opacity="0.82" rx="1"/>
<line x1="710.7" y1="66.9" x2="710.7" y2="118.0" stroke="#dc2626" stroke-width="1"/><rect x="706.2" y="67.7" width="9.0" height="27.9" fill="#dc2626" opacity="0.82" rx="1"/>
<line x1="727.5" y1="93.1" x2="727.5" y2="136.7" stroke="#dc2626" stroke-width="1"/><rect x="723.0" y="95.5" width="9.0" height="31.4" fill="#dc2626" opacity="0.82" rx="1"/>
<line x1="744.3" y1="120.3" x2="744.3" y2="129.1" stroke="#dc2626" stroke-width="1"/><rect x="739.8" y="126.8" width="9.0" height="1.2" fill="#dc2626" opacity="0.82" rx="1"/>
<line x1="761.1" y1="104.9" x2="761.1" y2="132.1" stroke="#16a34a" stroke-width="1"/><rect x="756.6" y="123.9" width="9.0" height="3.4" fill="#16a34a" opacity="0.82" rx="1"/>
<line x1="778.0" y1="119.3" x2="778.0" y2="170.2" stroke="#dc2626" stroke-width="1"/><rect x="773.5" y="123.8" width="9.0" height="7.2" fill="#dc2626" opacity="0.82" rx="1"/>
<line x1="794.8" y1="112.8" x2="794.8" y2="142.6" stroke="#16a34a" stroke-width="1"/><rect x="790.3" y="118.1" width="9.0" height="13.0" fill="#16a34a" opacity="0.82" rx="1"/>
<line x1="811.6" y1="114.8" x2="811.6" y2="183.6" stroke="#dc2626" stroke-width="1"/><rect x="807.1" y="118.0" width="9.0" height="64.3" fill="#dc2626" opacity="0.82" rx="1"/>
<line x1="828.4" y1="168.5" x2="828.4" y2="226.5" stroke="#dc2626" stroke-width="1"/><rect x="823.9" y="182.3" width="9.0" height="27.6" fill="#dc2626" opacity="0.82" rx="1"/>
<line x1="845.2" y1="177.7" x2="845.2" y2="221.1" stroke="#16a34a" stroke-width="1"/><rect x="840.7" y="178.9" width="9.0" height="31.0" fill="#16a34a" opacity="0.82" rx="1"/>
<line x1="862.0" y1="177.8" x2="862.0" y2="186.3" stroke="#dc2626" stroke-width="1"/><rect x="857.5" y="178.7" width="9.0" height="4.1" fill="#dc2626" opacity="0.82" rx="1"/>
<line x1="72" y1="254.9" x2="862" y2="254.9" stroke="#16a34a" stroke-width="1.8" stroke-dasharray="6 4" /><rect x="874" y="234.9" width="166" height="23" rx="5" fill="#ffffff" stroke="#16a34a" opacity="0.97"/><text x="881" y="250.9" fill="#16a34a" font-size="15" font-weight="700">支撑 55.13</text>
<line x1="72" y1="62.7" x2="862" y2="62.7" stroke="#dc2626" stroke-width="1.8" stroke-dasharray="6 4" /><rect x="874" y="42.7" width="166" height="23" rx="5" fill="#ffffff" stroke="#dc2626" opacity="0.97"/><text x="881" y="58.7" fill="#dc2626" font-size="15" font-weight="700">压力 80.94</text>
<line x1="72" y1="182.8" x2="862" y2="182.8" stroke="#111827" stroke-width="1.8" stroke-dasharray="2 2" /><rect x="874" y="162.8" width="166" height="23" rx="5" fill="#ffffff" stroke="#111827" opacity="0.97"/><text x="881" y="178.8" fill="#111827" font-size="15" font-weight="700">现价 64.81</text>
<text x="72" y="396" fill="#16a34a" font-size="14" font-weight="700">日线做多计划</text><rect x="72" y="404" width="790" height="48" rx="6" fill="#f9fafb" stroke="#e5e7eb"/><line x1="94" y1="412" x2="840" y2="412" stroke="#16a34a" stroke-width="3"/><circle cx="132.0" cy="412" r="5" fill="#16a34a"/><text x="132.0" y="434" fill="#374151" font-size="12" text-anchor="middle">入场 止跌/突破回踩</text><circle cx="451.2" cy="412" r="5" fill="#16a34a"/><text x="451.2" y="434" fill="#374151" font-size="12" text-anchor="middle">止损 55.13</text><circle cx="712.0" cy="412" r="5" fill="#16a34a"/><text x="712.0" y="434" fill="#374151" font-size="12" text-anchor="middle">目标一 80.94</text><circle cx="814.0" cy="412" r="5" fill="#16a34a"/><text x="814.0" y="434" fill="#374151" font-size="12" text-anchor="middle">目标二 90.62</text>
<text x="72" y="482" fill="#dc2626" font-size="14" font-weight="700">日线做空计划</text><rect x="72" y="490" width="790" height="48" rx="6" fill="#f9fafb" stroke="#e5e7eb"/><line x1="94" y1="498" x2="840" y2="498" stroke="#dc2626" stroke-width="3"/><circle cx="132.0" cy="498" r="5" fill="#dc2626"/><text x="132.0" y="520" fill="#374151" font-size="12" text-anchor="middle">入场 反弹承压/破位回抽</text><circle cx="451.2" cy="498" r="5" fill="#dc2626"/><text x="451.2" y="520" fill="#374151" font-size="12" text-anchor="middle">止损 80.94</text><circle cx="712.0" cy="498" r="5" fill="#dc2626"/><text x="712.0" y="520" fill="#374151" font-size="12" text-anchor="middle">目标一 55.13</text><circle cx="814.0" cy="498" r="5" fill="#dc2626"/><text x="814.0" y="520" fill="#374151" font-size="12" text-anchor="middle">目标二 48.68</text>
</svg>