<svg xmlns="http://www.w3.org/2000/svg" width="1080" height="560" viewBox="0 0 1080 560">
<rect width="100%" height="100%" fill="#ffffff"/>
<text x="72" y="23" fill="#111827" font-size="21" font-weight="800">HYPE 日线K线支撑压力图</text>
<text x="862" y="42" fill="#374151" font-size="15" text-anchor="end">最新价 71.21</text>
<line x1="72" y1="34" x2="72" y2="340" stroke="#d1d5db"/>
<line x1="72" y1="340" x2="862" y2="340" stroke="#d1d5db"/>
<line x1="72" y1="340.0" x2="862" y2="340.0" stroke="#f3f4f6"/>
<text x="8" y="345.0" fill="#4b5563" font-size="14">31.95</text>
<line x1="72" y1="263.5" x2="862" y2="263.5" stroke="#f3f4f6"/>
<text x="8" y="268.5" fill="#4b5563" font-size="14">45.60</text>
<line x1="72" y1="187.0" x2="862" y2="187.0" stroke="#f3f4f6"/>
<text x="8" y="192.0" fill="#4b5563" font-size="14">59.24</text>
<line x1="72" y1="110.5" x2="862" y2="110.5" stroke="#f3f4f6"/>
<text x="8" y="115.5" fill="#4b5563" font-size="14">72.89</text>
<line x1="72" y1="34.0" x2="862" y2="34.0" stroke="#f3f4f6"/>
<text x="8" y="39.0" fill="#4b5563" font-size="14">86.53</text>
<line x1="72.0" y1="307.5" x2="72.0" y2="317.6" stroke="#dc2626" stroke-width="1"/><rect x="69.3" y="312.5" width="5.4" height="3.2" fill="#dc2626" opacity="0.82" rx="1"/>
<line x1="80.9" y1="299.6" x2="80.9" y2="318.9" stroke="#16a34a" stroke-width="1"/><rect x="78.2" y="302.7" width="5.4" height="13.0" fill="#16a34a" opacity="0.82" rx="1"/>
<line x1="89.8" y1="296.0" x2="89.8" y2="307.5" stroke="#16a34a" stroke-width="1"/><rect x="87.0" y="301.8" width="5.4" height="1.2" fill="#16a34a" opacity="0.82" rx="1"/>
<line x1="98.6" y1="292.6" x2="98.6" y2="305.2" stroke="#16a34a" stroke-width="1"/><rect x="95.9" y="297.9" width="5.4" height="3.9" fill="#16a34a" opacity="0.82" rx="1"/>
<line x1="107.5" y1="282.3" x2="107.5" y2="298.1" stroke="#16a34a" stroke-width="1"/><rect x="104.8" y="285.9" width="5.4" height="11.9" fill="#16a34a" opacity="0.82" rx="1"/>
<line x1="116.4" y1="277.1" x2="116.4" y2="286.6" stroke="#16a34a" stroke-width="1"/><rect x="113.7" y="282.1" width="5.4" height="3.8" fill="#16a34a" opacity="0.82" rx="1"/>
<line x1="125.3" y1="279.0" x2="125.3" y2="293.8" stroke="#dc2626" stroke-width="1"/><rect x="122.5" y="282.1" width="5.4" height="8.0" fill="#dc2626" opacity="0.82" rx="1"/>
<line x1="134.1" y1="269.0" x2="134.1" y2="290.5" stroke="#16a34a" stroke-width="1"/><rect x="131.4" y="270.5" width="5.4" height="19.6" fill="#16a34a" opacity="0.82" rx="1"/>
<line x1="143.0" y1="264.9" x2="143.0" y2="278.5" stroke="#dc2626" stroke-width="1"/><rect x="140.3" y="270.6" width="5.4" height="4.5" fill="#dc2626" opacity="0.82" rx="1"/>
<line x1="151.9" y1="264.2" x2="151.9" y2="277.3" stroke="#16a34a" stroke-width="1"/><rect x="149.2" y="268.9" width="5.4" height="6.2" fill="#16a34a" opacity="0.82" rx="1"/>
<line x1="160.8" y1="262.6" x2="160.8" y2="276.3" stroke="#dc2626" stroke-width="1"/><rect x="158.0" y="268.9" width="5.4" height="4.6" fill="#dc2626" opacity="0.82" rx="1"/>
<line x1="169.6" y1="264.0" x2="169.6" y2="277.1" stroke="#16a34a" stroke-width="1"/><rect x="166.9" y="269.0" width="5.4" height="4.5" fill="#16a34a" opacity="0.82" rx="1"/>
<line x1="178.5" y1="264.3" x2="178.5" y2="274.0" stroke="#dc2626" stroke-width="1"/><rect x="175.8" y="269.0" width="5.4" height="4.7" fill="#dc2626" opacity="0.82" rx="1"/>
<line x1="187.4" y1="272.8" x2="187.4" y2="292.1" stroke="#dc2626" stroke-width="1"/><rect x="184.7" y="273.7" width="5.4" height="17.3" fill="#dc2626" opacity="0.82" rx="1"/>
<line x1="196.3" y1="284.8" x2="196.3" y2="291.7" stroke="#16a34a" stroke-width="1"/><rect x="193.5" y="290.9" width="5.4" height="1.2" fill="#16a34a" opacity="0.82" rx="1"/>
<line x1="205.1" y1="286.9" x2="205.1" y2="301.1" stroke="#dc2626" stroke-width="1"/><rect x="202.4" y="290.9" width="5.4" height="5.2" fill="#dc2626" opacity="0.82" rx="1"/>
<line x1="214.0" y1="285.1" x2="214.0" y2="297.0" stroke="#16a34a" stroke-width="1"/><rect x="211.3" y="288.4" width="5.4" height="7.8" fill="#16a34a" opacity="0.82" rx="1"/>
<line x1="222.9" y1="284.4" x2="222.9" y2="292.0" stroke="#16a34a" stroke-width="1"/><rect x="220.2" y="287.6" width="5.4" height="1.2" fill="#16a34a" opacity="0.82" rx="1"/>
<line x1="231.8" y1="286.2" x2="231.8" y2="291.0" stroke="#dc2626" stroke-width="1"/><rect x="229.1" y="287.5" width="5.4" height="1.2" fill="#dc2626" opacity="0.82" rx="1"/>
<line x1="240.7" y1="284.2" x2="240.7" y2="290.2" stroke="#16a34a" stroke-width="1"/><rect x="237.9" y="286.4" width="5.4" height="1.8" fill="#16a34a" opacity="0.82" rx="1"/>
<line x1="249.5" y1="280.3" x2="249.5" y2="289.6" stroke="#16a34a" stroke-width="1"/><rect x="246.8" y="281.1" width="5.4" height="5.4" fill="#16a34a" opacity="0.82" rx="1"/>
<line x1="258.4" y1="274.9" x2="258.4" y2="287.8" stroke="#dc2626" stroke-width="1"/><rect x="255.7" y="281.1" width="5.4" height="4.5" fill="#dc2626" opacity="0.82" rx="1"/>
<line x1="267.3" y1="284.6" x2="267.3" y2="298.4" stroke="#dc2626" stroke-width="1"/><rect x="264.6" y="285.6" width="5.4" height="8.3" fill="#dc2626" opacity="0.82" rx="1"/>
<line x1="276.2" y1="290.4" x2="276.2" y2="299.6" stroke="#dc2626" stroke-width="1"/><rect x="273.4" y="294.0" width="5.4" height="1.3" fill="#dc2626" opacity="0.82" rx="1"/>
<line x1="285.0" y1="293.0" x2="285.0" y2="302.1" stroke="#dc2626" stroke-width="1"/><rect x="282.3" y="295.2" width="5.4" height="1.4" fill="#dc2626" opacity="0.82" rx="1"/>
<line x1="293.9" y1="288.5" x2="293.9" y2="296.7" stroke="#16a34a" stroke-width="1"/><rect x="291.2" y="288.5" width="5.4" height="8.1" fill="#16a34a" opacity="0.82" rx="1"/>
<line x1="302.8" y1="281.2" x2="302.8" y2="289.4" stroke="#16a34a" stroke-width="1"/><rect x="300.1" y="287.8" width="5.4" height="1.2" fill="#16a34a" opacity="0.82" rx="1"/>
<line x1="311.7" y1="285.2" x2="311.7" y2="291.1" stroke="#16a34a" stroke-width="1"/><rect x="308.9" y="286.2" width="5.4" height="1.7" fill="#16a34a" opacity="0.82" rx="1"/>
<line x1="320.5" y1="280.3" x2="320.5" y2="290.3" stroke="#16a34a" stroke-width="1"/><rect x="317.8" y="284.7" width="5.4" height="1.5" fill="#16a34a" opacity="0.82" rx="1"/>
<line x1="329.4" y1="268.9" x2="329.4" y2="284.9" stroke="#16a34a" stroke-width="1"/><rect x="326.7" y="274.1" width="5.4" height="10.6" fill="#16a34a" opacity="0.82" rx="1"/>
<line x1="338.3" y1="268.2" x2="338.3" y2="278.6" stroke="#dc2626" stroke-width="1"/><rect x="335.6" y="274.1" width="5.4" height="3.3" fill="#dc2626" opacity="0.82" rx="1"/>
<line x1="347.2" y1="274.9" x2="347.2" y2="284.5" stroke="#dc2626" stroke-width="1"/><rect x="344.4" y="277.3" width="5.4" height="3.4" fill="#dc2626" opacity="0.82" rx="1"/>
<line x1="356.0" y1="275.2" x2="356.0" y2="283.4" stroke="#16a34a" stroke-width="1"/><rect x="353.3" y="276.6" width="5.4" height="4.1" fill="#16a34a" opacity="0.82" rx="1"/>
<line x1="364.9" y1="270.1" x2="364.9" y2="279.0" stroke="#dc2626" stroke-width="1"/><rect x="362.2" y="276.6" width="5.4" height="2.0" fill="#dc2626" opacity="0.82" rx="1"/>
<line x1="373.8" y1="274.1" x2="373.8" y2="283.0" stroke="#16a34a" stroke-width="1"/><rect x="371.1" y="278.0" width="5.4" height="1.2" fill="#16a34a" opacity="0.82" rx="1"/>
<line x1="382.7" y1="277.2" x2="382.7" y2="290.2" stroke="#dc2626" stroke-width="1"/><rect x="380.0" y="278.0" width="5.4" height="5.7" fill="#dc2626" opacity="0.82" rx="1"/>
<line x1="391.6" y1="283.4" x2="391.6" y2="296.1" stroke="#dc2626" stroke-width="1"/><rect x="388.8" y="283.7" width="5.4" height="9.8" fill="#dc2626" opacity="0.82" rx="1"/>
<line x1="400.4" y1="290.9" x2="400.4" y2="302.1" stroke="#dc2626" stroke-width="1"/><rect x="397.7" y="293.4" width="5.4" height="8.1" fill="#dc2626" opacity="0.82" rx="1"/>
<line x1="409.3" y1="268.2" x2="409.3" y2="305.2" stroke="#16a34a" stroke-width="1"/><rect x="406.6" y="271.7" width="5.4" height="29.8" fill="#16a34a" opacity="0.82" rx="1"/>
<line x1="418.2" y1="255.3" x2="418.2" y2="279.2" stroke="#16a34a" stroke-width="1"/><rect x="415.5" y="271.6" width="5.4" height="1.2" fill="#16a34a" opacity="0.82" rx="1"/>
<line x1="427.1" y1="269.7" x2="427.1" y2="292.8" stroke="#dc2626" stroke-width="1"/><rect x="424.3" y="271.6" width="5.4" height="13.1" fill="#dc2626" opacity="0.82" rx="1"/>
<line x1="435.9" y1="254.8" x2="435.9" y2="287.4" stroke="#16a34a" stroke-width="1"/><rect x="433.2" y="263.0" width="5.4" height="21.7" fill="#16a34a" opacity="0.82" rx="1"/>
<line x1="444.8" y1="250.0" x2="444.8" y2="271.3" stroke="#16a34a" stroke-width="1"/><rect x="442.1" y="251.4" width="5.4" height="11.6" fill="#16a34a" opacity="0.82" rx="1"/>
<line x1="453.7" y1="245.0" x2="453.7" y2="256.7" stroke="#16a34a" stroke-width="1"/><rect x="451.0" y="250.0" width="5.4" height="1.4" fill="#16a34a" opacity="0.82" rx="1"/>
<line x1="462.6" y1="211.7" x2="462.6" y2="255.2" stroke="#16a34a" stroke-width="1"/><rect x="459.8" y="211.7" width="5.4" height="38.3" fill="#16a34a" opacity="0.82" rx="1"/>
<line x1="471.4" y1="168.2" x2="471.4" y2="212.4" stroke="#16a34a" stroke-width="1"/><rect x="468.7" y="190.7" width="5.4" height="21.1" fill="#16a34a" opacity="0.82" rx="1"/>
<line x1="480.3" y1="171.8" x2="480.3" y2="214.8" stroke="#dc2626" stroke-width="1"/><rect x="477.6" y="190.7" width="5.4" height="22.4" fill="#dc2626" opacity="0.82" rx="1"/>
<line x1="489.2" y1="183.3" x2="489.2" y2="216.4" stroke="#16a34a" stroke-width="1"/><rect x="486.5" y="190.0" width="5.4" height="23.1" fill="#16a34a" opacity="0.82" rx="1"/>
<line x1="498.1" y1="157.5" x2="498.1" y2="190.5" stroke="#16a34a" stroke-width="1"/><rect x="495.3" y="167.4" width="5.4" height="22.7" fill="#16a34a" opacity="0.82" rx="1"/>
<line x1="506.9" y1="160.9" x2="506.9" y2="178.8" stroke="#dc2626" stroke-width="1"/><rect x="504.2" y="167.3" width="5.4" height="9.3" fill="#dc2626" opacity="0.82" rx="1"/>
<line x1="515.8" y1="156.2" x2="515.8" y2="190.9" stroke="#dc2626" stroke-width="1"/><rect x="513.1" y="176.6" width="5.4" height="8.9" fill="#dc2626" opacity="0.82" rx="1"/>
<line x1="524.7" y1="164.1" x2="524.7" y2="199.2" stroke="#dc2626" stroke-width="1"/><rect x="522.0" y="185.5" width="5.4" height="10.6" fill="#dc2626" opacity="0.82" rx="1"/>
<line x1="533.6" y1="170.8" x2="533.6" y2="203.8" stroke="#16a34a" stroke-width="1"/><rect x="530.9" y="174.2" width="5.4" height="21.9" fill="#16a34a" opacity="0.82" rx="1"/>
<line x1="542.4" y1="141.2" x2="542.4" y2="180.9" stroke="#16a34a" stroke-width="1"/><rect x="539.7" y="158.0" width="5.4" height="16.2" fill="#16a34a" opacity="0.82" rx="1"/>
<line x1="551.3" y1="134.3" x2="551.3" y2="160.3" stroke="#16a34a" stroke-width="1"/><rect x="548.6" y="136.3" width="5.4" height="21.8" fill="#16a34a" opacity="0.82" rx="1"/>
<line x1="560.2" y1="109.2" x2="560.2" y2="140.9" stroke="#16a34a" stroke-width="1"/><rect x="557.5" y="115.2" width="5.4" height="21.0" fill="#16a34a" opacity="0.82" rx="1"/>
<line x1="569.1" y1="94.0" x2="569.1" y2="124.3" stroke="#16a34a" stroke-width="1"/><rect x="566.4" y="106.6" width="5.4" height="8.3" fill="#16a34a" opacity="0.82" rx="1"/>
<line x1="578.0" y1="95.0" x2="578.0" y2="138.8" stroke="#dc2626" stroke-width="1"/><rect x="575.2" y="106.6" width="5.4" height="21.0" fill="#dc2626" opacity="0.82" rx="1"/>
<line x1="586.8" y1="95.3" x2="586.8" y2="136.4" stroke="#16a34a" stroke-width="1"/><rect x="584.1" y="101.0" width="5.4" height="26.6" fill="#16a34a" opacity="0.82" rx="1"/>
<line x1="595.7" y1="95.8" x2="595.7" y2="165.9" stroke="#dc2626" stroke-width="1"/><rect x="593.0" y="101.0" width="5.4" height="56.9" fill="#dc2626" opacity="0.82" rx="1"/>
<line x1="604.6" y1="148.9" x2="604.6" y2="201.3" stroke="#dc2626" stroke-width="1"/><rect x="601.9" y="157.9" width="5.4" height="25.8" fill="#dc2626" opacity="0.82" rx="1"/>
<line x1="613.5" y1="175.9" x2="613.5" y2="208.1" stroke="#dc2626" stroke-width="1"/><rect x="610.7" y="183.8" width="5.4" height="18.5" fill="#dc2626" opacity="0.82" rx="1"/>
<line x1="622.3" y1="180.3" x2="622.3" y2="204.6" stroke="#16a34a" stroke-width="1"/><rect x="619.6" y="184.2" width="5.4" height="18.1" fill="#16a34a" opacity="0.82" rx="1"/>
<line x1="631.2" y1="150.2" x2="631.2" y2="186.7" stroke="#16a34a" stroke-width="1"/><rect x="628.5" y="161.2" width="5.4" height="22.9" fill="#16a34a" opacity="0.82" rx="1"/>
<line x1="640.1" y1="160.1" x2="640.1" y2="197.9" stroke="#dc2626" stroke-width="1"/><rect x="637.4" y="161.2" width="5.4" height="34.1" fill="#dc2626" opacity="0.82" rx="1"/>
<line x1="649.0" y1="192.0" x2="649.0" y2="224.2" stroke="#dc2626" stroke-width="1"/><rect x="646.2" y="195.2" width="5.4" height="25.2" fill="#dc2626" opacity="0.82" rx="1"/>
<line x1="657.8" y1="184.7" x2="657.8" y2="222.8" stroke="#16a34a" stroke-width="1"/><rect x="655.1" y="188.7" width="5.4" height="31.6" fill="#16a34a" opacity="0.82" rx="1"/>
<line x1="666.7" y1="169.2" x2="666.7" y2="200.8" stroke="#16a34a" stroke-width="1"/><rect x="664.0" y="186.9" width="5.4" height="1.9" fill="#16a34a" opacity="0.82" rx="1"/>
<line x1="675.6" y1="177.8" x2="675.6" y2="198.6" stroke="#16a34a" stroke-width="1"/><rect x="672.9" y="178.8" width="5.4" height="8.1" fill="#16a34a" opacity="0.82" rx="1"/>
<line x1="684.5" y1="159.5" x2="684.5" y2="185.0" stroke="#16a34a" stroke-width="1"/><rect x="681.8" y="160.7" width="5.4" height="18.1" fill="#16a34a" opacity="0.82" rx="1"/>
<line x1="693.3" y1="134.0" x2="693.3" y2="165.3" stroke="#16a34a" stroke-width="1"/><rect x="690.6" y="144.1" width="5.4" height="16.6" fill="#16a34a" opacity="0.82" rx="1"/>
<line x1="702.2" y1="87.4" x2="702.2" y2="147.1" stroke="#16a34a" stroke-width="1"/><rect x="699.5" y="106.6" width="5.4" height="37.5" fill="#16a34a" opacity="0.82" rx="1"/>
<line x1="711.1" y1="88.7" x2="711.1" y2="127.0" stroke="#dc2626" stroke-width="1"/><rect x="708.4" y="106.6" width="5.4" height="13.7" fill="#dc2626" opacity="0.82" rx="1"/>
<line x1="720.0" y1="105.8" x2="720.0" y2="146.0" stroke="#dc2626" stroke-width="1"/><rect x="717.3" y="120.2" width="5.4" height="15.7" fill="#dc2626" opacity="0.82" rx="1"/>
<line x1="728.9" y1="118.9" x2="728.9" y2="151.1" stroke="#16a34a" stroke-width="1"/><rect x="726.1" y="125.2" width="5.4" height="10.8" fill="#16a34a" opacity="0.82" rx="1"/>
<line x1="737.7" y1="118.7" x2="737.7" y2="135.6" stroke="#16a34a" stroke-width="1"/><rect x="735.0" y="122.5" width="5.4" height="2.7" fill="#16a34a" opacity="0.82" rx="1"/>
<line x1="746.6" y1="121.6" x2="746.6" y2="146.1" stroke="#dc2626" stroke-width="1"/><rect x="743.9" y="122.5" width="5.4" height="21.5" fill="#dc2626" opacity="0.82" rx="1"/>
<line x1="755.5" y1="129.0" x2="755.5" y2="154.1" stroke="#dc2626" stroke-width="1"/><rect x="752.8" y="144.1" width="5.4" height="3.6" fill="#dc2626" opacity="0.82" rx="1"/>
<line x1="764.4" y1="141.6" x2="764.4" y2="173.7" stroke="#dc2626" stroke-width="1"/><rect x="761.6" y="147.7" width="5.4" height="23.0" fill="#dc2626" opacity="0.82" rx="1"/>
<line x1="773.2" y1="158.8" x2="773.2" y2="188.1" stroke="#16a34a" stroke-width="1"/><rect x="770.5" y="160.9" width="5.4" height="9.7" fill="#16a34a" opacity="0.82" rx="1"/>
<line x1="782.1" y1="152.5" x2="782.1" y2="192.1" stroke="#16a34a" stroke-width="1"/><rect x="779.4" y="159.9" width="5.4" height="1.2" fill="#16a34a" opacity="0.82" rx="1"/>
<line x1="791.0" y1="152.3" x2="791.0" y2="177.7" stroke="#16a34a" stroke-width="1"/><rect x="788.3" y="158.5" width="5.4" height="1.5" fill="#16a34a" opacity="0.82" rx="1"/>
<line x1="799.9" y1="156.4" x2="799.9" y2="174.7" stroke="#dc2626" stroke-width="1"/><rect x="797.1" y="158.4" width="5.4" height="15.2" fill="#dc2626" opacity="0.82" rx="1"/>
<line x1="808.7" y1="163.1" x2="808.7" y2="179.6" stroke="#dc2626" stroke-width="1"/><rect x="806.0" y="173.7" width="5.4" height="1.2" fill="#dc2626" opacity="0.82" rx="1"/>
<line x1="817.6" y1="139.2" x2="817.6" y2="178.9" stroke="#16a34a" stroke-width="1"/><rect x="814.9" y="144.1" width="5.4" height="30.8" fill="#16a34a" opacity="0.82" rx="1"/>
<line x1="826.5" y1="143.9" x2="826.5" y2="159.7" stroke="#dc2626" stroke-width="1"/><rect x="823.8" y="144.1" width="5.4" height="10.5" fill="#dc2626" opacity="0.82" rx="1"/>
<line x1="835.4" y1="149.1" x2="835.4" y2="172.5" stroke="#dc2626" stroke-width="1"/><rect x="832.6" y="154.6" width="5.4" height="15.0" fill="#dc2626" opacity="0.82" rx="1"/>
<line x1="844.2" y1="142.7" x2="844.2" y2="173.5" stroke="#16a34a" stroke-width="1"/><rect x="841.5" y="144.1" width="5.4" height="25.5" fill="#16a34a" opacity="0.82" rx="1"/>
<line x1="853.1" y1="119.6" x2="853.1" y2="150.0" stroke="#16a34a" stroke-width="1"/><rect x="850.4" y="123.1" width="5.4" height="21.0" fill="#16a34a" opacity="0.82" rx="1"/>
<line x1="862.0" y1="115.5" x2="862.0" y2="127.0" stroke="#16a34a" stroke-width="1"/><rect x="859.3" y="119.9" width="5.4" height="3.2" fill="#16a34a" opacity="0.82" rx="1"/>
<line x1="72" y1="158.7" x2="862" y2="158.7" stroke="#16a34a" stroke-width="1.8" stroke-dasharray="6 4" /><rect x="874" y="138.7" width="166" height="23" rx="5" fill="#ffffff" stroke="#16a34a" opacity="0.97"/><text x="881" y="154.7" fill="#16a34a" font-size="15" font-weight="700">支撑 64.28</text>
<line x1="72" y1="55.1" x2="862" y2="55.1" stroke="#dc2626" stroke-width="1.8" stroke-dasharray="6 4" /><rect x="874" y="35.1" width="166" height="23" rx="5" fill="#ffffff" stroke="#dc2626" opacity="0.97"/><text x="881" y="51.1" fill="#dc2626" font-size="15" font-weight="700">压力 82.77</text>
<line x1="72" y1="119.9" x2="862" y2="119.9" stroke="#111827" stroke-width="1.8" stroke-dasharray="2 2" /><rect x="874" y="99.9" width="166" height="23" rx="5" fill="#ffffff" stroke="#111827" opacity="0.97"/><text x="881" y="115.9" fill="#111827" font-size="15" font-weight="700">现价 71.21</text>
<text x="72" y="396" fill="#16a34a" font-size="14" font-weight="700">日线做多计划</text><rect x="72" y="404" width="790" height="48" rx="6" fill="#f9fafb" stroke="#e5e7eb"/><line x1="94" y1="412" x2="840" y2="412" stroke="#16a34a" stroke-width="3"/><circle cx="132.0" cy="412" r="5" fill="#16a34a"/><text x="132.0" y="434" fill="#374151" font-size="12" text-anchor="middle">入场 止跌/突破回踩</text><circle cx="451.2" cy="412" r="5" fill="#16a34a"/><text x="451.2" y="434" fill="#374151" font-size="12" text-anchor="middle">止损 64.28</text><circle cx="712.0" cy="412" r="5" fill="#16a34a"/><text x="712.0" y="434" fill="#374151" font-size="12" text-anchor="middle">目标一 82.77</text><circle cx="814.0" cy="412" r="5" fill="#16a34a"/><text x="814.0" y="434" fill="#374151" font-size="12" text-anchor="middle">目标二 89.70</text>
<text x="72" y="482" fill="#dc2626" font-size="14" font-weight="700">日线做空计划</text><rect x="72" y="490" width="790" height="48" rx="6" fill="#f9fafb" stroke="#e5e7eb"/><line x1="94" y1="498" x2="840" y2="498" stroke="#dc2626" stroke-width="3"/><circle cx="132.0" cy="498" r="5" fill="#dc2626"/><text x="132.0" y="520" fill="#374151" font-size="12" text-anchor="middle">入场 反弹承压/破位回抽</text><circle cx="451.2" cy="498" r="5" fill="#dc2626"/><text x="451.2" y="520" fill="#374151" font-size="12" text-anchor="middle">止损 82.77</text><circle cx="712.0" cy="498" r="5" fill="#dc2626"/><text x="712.0" y="520" fill="#374151" font-size="12" text-anchor="middle">目标一 64.28</text><circle cx="814.0" cy="498" r="5" fill="#dc2626"/><text x="814.0" y="520" fill="#374151" font-size="12" text-anchor="middle">目标二 59.66</text>
</svg>