<svg xmlns="http://www.w3.org/2000/svg" width="1080" height="560" viewBox="0 0 1080 560">
<rect width="100%" height="100%" fill="#ffffff"/>
<text x="72" y="23" fill="#111827" font-size="21" font-weight="800">HYPE 小时线K线支撑压力图</text>
<text x="862" y="42" fill="#374151" font-size="15" text-anchor="end">最新价 70.65</text>
<line x1="72" y1="34" x2="72" y2="340" stroke="#d1d5db"/>
<line x1="72" y1="340" x2="862" y2="340" stroke="#d1d5db"/>
<line x1="72" y1="340.0" x2="862" y2="340.0" stroke="#f3f4f6"/>
<text x="8" y="345.0" fill="#4b5563" font-size="14">60.91</text>
<line x1="72" y1="263.5" x2="862" y2="263.5" stroke="#f3f4f6"/>
<text x="8" y="268.5" fill="#4b5563" font-size="14">64.02</text>
<line x1="72" y1="187.0" x2="862" y2="187.0" stroke="#f3f4f6"/>
<text x="8" y="192.0" fill="#4b5563" font-size="14">67.13</text>
<line x1="72" y1="110.5" x2="862" y2="110.5" stroke="#f3f4f6"/>
<text x="8" y="115.5" fill="#4b5563" font-size="14">70.24</text>
<line x1="72" y1="34.0" x2="862" y2="34.0" stroke="#f3f4f6"/>
<text x="8" y="39.0" fill="#4b5563" font-size="14">73.34</text>
<line x1="72.0" y1="220.2" x2="72.0" y2="232.7" stroke="#16a34a" stroke-width="1"/><rect x="69.3" y="221.9" width="5.4" height="4.2" fill="#16a34a" opacity="0.82" rx="1"/>
<line x1="80.9" y1="220.2" x2="80.9" y2="236.7" stroke="#dc2626" stroke-width="1"/><rect x="78.2" y="221.9" width="5.4" height="12.3" fill="#dc2626" opacity="0.82" rx="1"/>
<line x1="89.8" y1="227.6" x2="89.8" y2="239.4" stroke="#16a34a" stroke-width="1"/><rect x="87.0" y="230.8" width="5.4" height="3.4" fill="#16a34a" opacity="0.82" rx="1"/>
<line x1="98.6" y1="208.4" x2="98.6" y2="234.2" stroke="#16a34a" stroke-width="1"/><rect x="95.9" y="211.8" width="5.4" height="19.0" fill="#16a34a" opacity="0.82" rx="1"/>
<line x1="107.5" y1="205.4" x2="107.5" y2="226.8" stroke="#dc2626" stroke-width="1"/><rect x="104.8" y="211.8" width="5.4" height="9.1" fill="#dc2626" opacity="0.82" rx="1"/>
<line x1="116.4" y1="220.7" x2="116.4" y2="251.9" stroke="#dc2626" stroke-width="1"/><rect x="113.7" y="220.9" width="5.4" height="28.6" fill="#dc2626" opacity="0.82" rx="1"/>
<line x1="125.3" y1="225.6" x2="125.3" y2="252.4" stroke="#16a34a" stroke-width="1"/><rect x="122.5" y="232.5" width="5.4" height="17.0" fill="#16a34a" opacity="0.82" rx="1"/>
<line x1="134.1" y1="213.3" x2="134.1" y2="245.8" stroke="#dc2626" stroke-width="1"/><rect x="131.4" y="232.5" width="5.4" height="10.3" fill="#dc2626" opacity="0.82" rx="1"/>
<line x1="143.0" y1="227.8" x2="143.0" y2="250.2" stroke="#16a34a" stroke-width="1"/><rect x="140.3" y="238.2" width="5.4" height="4.7" fill="#16a34a" opacity="0.82" rx="1"/>
<line x1="151.9" y1="231.3" x2="151.9" y2="259.6" stroke="#dc2626" stroke-width="1"/><rect x="149.2" y="238.2" width="5.4" height="8.4" fill="#dc2626" opacity="0.82" rx="1"/>
<line x1="160.8" y1="234.2" x2="160.8" y2="250.2" stroke="#dc2626" stroke-width="1"/><rect x="158.0" y="246.5" width="5.4" height="2.5" fill="#dc2626" opacity="0.82" rx="1"/>
<line x1="169.6" y1="233.0" x2="169.6" y2="251.0" stroke="#16a34a" stroke-width="1"/><rect x="166.9" y="238.9" width="5.4" height="10.1" fill="#16a34a" opacity="0.82" rx="1"/>
<line x1="178.5" y1="225.4" x2="178.5" y2="244.6" stroke="#16a34a" stroke-width="1"/><rect x="175.8" y="226.4" width="5.4" height="12.6" fill="#16a34a" opacity="0.82" rx="1"/>
<line x1="187.4" y1="220.7" x2="187.4" y2="247.3" stroke="#dc2626" stroke-width="1"/><rect x="184.7" y="226.4" width="5.4" height="19.4" fill="#dc2626" opacity="0.82" rx="1"/>
<line x1="196.3" y1="241.1" x2="196.3" y2="259.1" stroke="#dc2626" stroke-width="1"/><rect x="193.5" y="245.8" width="5.4" height="1.2" fill="#dc2626" opacity="0.82" rx="1"/>
<line x1="205.1" y1="241.6" x2="205.1" y2="254.9" stroke="#dc2626" stroke-width="1"/><rect x="202.4" y="246.5" width="5.4" height="1.2" fill="#dc2626" opacity="0.82" rx="1"/>
<line x1="214.0" y1="236.9" x2="214.0" y2="250.2" stroke="#16a34a" stroke-width="1"/><rect x="211.3" y="238.2" width="5.4" height="9.1" fill="#16a34a" opacity="0.82" rx="1"/>
<line x1="222.9" y1="234.7" x2="222.9" y2="259.1" stroke="#dc2626" stroke-width="1"/><rect x="220.2" y="238.2" width="5.4" height="19.4" fill="#dc2626" opacity="0.82" rx="1"/>
<line x1="231.8" y1="245.8" x2="231.8" y2="288.1" stroke="#16a34a" stroke-width="1"/><rect x="229.1" y="249.5" width="5.4" height="8.1" fill="#16a34a" opacity="0.82" rx="1"/>
<line x1="240.7" y1="224.9" x2="240.7" y2="251.0" stroke="#16a34a" stroke-width="1"/><rect x="237.9" y="228.3" width="5.4" height="21.2" fill="#16a34a" opacity="0.82" rx="1"/>
<line x1="249.5" y1="219.2" x2="249.5" y2="236.7" stroke="#16a34a" stroke-width="1"/><rect x="246.8" y="224.1" width="5.4" height="4.2" fill="#16a34a" opacity="0.82" rx="1"/>
<line x1="258.4" y1="214.0" x2="258.4" y2="229.6" stroke="#16a34a" stroke-width="1"/><rect x="255.7" y="217.5" width="5.4" height="6.6" fill="#16a34a" opacity="0.82" rx="1"/>
<line x1="267.3" y1="214.0" x2="267.3" y2="235.5" stroke="#dc2626" stroke-width="1"/><rect x="264.6" y="217.5" width="5.4" height="15.8" fill="#dc2626" opacity="0.82" rx="1"/>
<line x1="276.2" y1="233.0" x2="276.2" y2="249.5" stroke="#dc2626" stroke-width="1"/><rect x="273.4" y="233.2" width="5.4" height="7.6" fill="#dc2626" opacity="0.82" rx="1"/>
<line x1="285.0" y1="239.9" x2="285.0" y2="261.1" stroke="#dc2626" stroke-width="1"/><rect x="282.3" y="240.9" width="5.4" height="10.3" fill="#dc2626" opacity="0.82" rx="1"/>
<line x1="293.9" y1="251.2" x2="293.9" y2="281.7" stroke="#dc2626" stroke-width="1"/><rect x="291.2" y="251.2" width="5.4" height="11.8" fill="#dc2626" opacity="0.82" rx="1"/>
<line x1="302.8" y1="256.6" x2="302.8" y2="267.9" stroke="#16a34a" stroke-width="1"/><rect x="300.1" y="262.0" width="5.4" height="1.2" fill="#16a34a" opacity="0.82" rx="1"/>
<line x1="311.7" y1="261.8" x2="311.7" y2="301.2" stroke="#dc2626" stroke-width="1"/><rect x="308.9" y="262.0" width="5.4" height="31.8" fill="#dc2626" opacity="0.82" rx="1"/>
<line x1="320.5" y1="286.7" x2="320.5" y2="302.4" stroke="#dc2626" stroke-width="1"/><rect x="317.8" y="293.8" width="5.4" height="2.0" fill="#dc2626" opacity="0.82" rx="1"/>
<line x1="329.4" y1="291.1" x2="329.4" y2="301.9" stroke="#dc2626" stroke-width="1"/><rect x="326.7" y="295.8" width="5.4" height="3.7" fill="#dc2626" opacity="0.82" rx="1"/>
<line x1="338.3" y1="261.1" x2="338.3" y2="299.7" stroke="#16a34a" stroke-width="1"/><rect x="335.6" y="261.3" width="5.4" height="38.2" fill="#16a34a" opacity="0.82" rx="1"/>
<line x1="347.2" y1="244.3" x2="347.2" y2="282.5" stroke="#dc2626" stroke-width="1"/><rect x="344.4" y="261.3" width="5.4" height="10.1" fill="#dc2626" opacity="0.82" rx="1"/>
<line x1="356.0" y1="242.6" x2="356.0" y2="273.4" stroke="#16a34a" stroke-width="1"/><rect x="353.3" y="248.0" width="5.4" height="23.4" fill="#16a34a" opacity="0.82" rx="1"/>
<line x1="364.9" y1="236.4" x2="364.9" y2="255.4" stroke="#dc2626" stroke-width="1"/><rect x="362.2" y="248.0" width="5.4" height="4.7" fill="#dc2626" opacity="0.82" rx="1"/>
<line x1="373.8" y1="248.0" x2="373.8" y2="262.5" stroke="#dc2626" stroke-width="1"/><rect x="371.1" y="252.7" width="5.4" height="1.2" fill="#dc2626" opacity="0.82" rx="1"/>
<line x1="382.7" y1="244.3" x2="382.7" y2="271.1" stroke="#dc2626" stroke-width="1"/><rect x="380.0" y="253.2" width="5.4" height="13.3" fill="#dc2626" opacity="0.82" rx="1"/>
<line x1="391.6" y1="259.8" x2="391.6" y2="290.3" stroke="#dc2626" stroke-width="1"/><rect x="388.8" y="266.5" width="5.4" height="21.4" fill="#dc2626" opacity="0.82" rx="1"/>
<line x1="400.4" y1="280.3" x2="400.4" y2="313.0" stroke="#dc2626" stroke-width="1"/><rect x="397.7" y="287.9" width="5.4" height="17.5" fill="#dc2626" opacity="0.82" rx="1"/>
<line x1="409.3" y1="267.7" x2="409.3" y2="312.7" stroke="#16a34a" stroke-width="1"/><rect x="406.6" y="276.8" width="5.4" height="28.6" fill="#16a34a" opacity="0.82" rx="1"/>
<line x1="418.2" y1="258.6" x2="418.2" y2="299.5" stroke="#dc2626" stroke-width="1"/><rect x="415.5" y="276.8" width="5.4" height="3.0" fill="#dc2626" opacity="0.82" rx="1"/>
<line x1="427.1" y1="279.8" x2="427.1" y2="303.9" stroke="#dc2626" stroke-width="1"/><rect x="424.3" y="279.8" width="5.4" height="23.1" fill="#dc2626" opacity="0.82" rx="1"/>
<line x1="435.9" y1="297.5" x2="435.9" y2="318.9" stroke="#dc2626" stroke-width="1"/><rect x="433.2" y="302.9" width="5.4" height="1.7" fill="#dc2626" opacity="0.82" rx="1"/>
<line x1="444.8" y1="283.0" x2="444.8" y2="306.8" stroke="#16a34a" stroke-width="1"/><rect x="442.1" y="291.8" width="5.4" height="12.8" fill="#16a34a" opacity="0.82" rx="1"/>
<line x1="453.7" y1="284.2" x2="453.7" y2="300.7" stroke="#16a34a" stroke-width="1"/><rect x="451.0" y="286.2" width="5.4" height="5.7" fill="#16a34a" opacity="0.82" rx="1"/>
<line x1="462.6" y1="271.6" x2="462.6" y2="292.8" stroke="#16a34a" stroke-width="1"/><rect x="459.8" y="272.6" width="5.4" height="13.5" fill="#16a34a" opacity="0.82" rx="1"/>
<line x1="471.4" y1="267.2" x2="471.4" y2="281.2" stroke="#16a34a" stroke-width="1"/><rect x="468.7" y="269.9" width="5.4" height="2.7" fill="#16a34a" opacity="0.82" rx="1"/>
<line x1="480.3" y1="267.5" x2="480.3" y2="279.3" stroke="#dc2626" stroke-width="1"/><rect x="477.6" y="269.9" width="5.4" height="8.1" fill="#dc2626" opacity="0.82" rx="1"/>
<line x1="489.2" y1="268.2" x2="489.2" y2="288.9" stroke="#dc2626" stroke-width="1"/><rect x="486.5" y="278.0" width="5.4" height="3.7" fill="#dc2626" opacity="0.82" rx="1"/>
<line x1="498.1" y1="277.1" x2="498.1" y2="289.9" stroke="#dc2626" stroke-width="1"/><rect x="495.3" y="281.7" width="5.4" height="2.2" fill="#dc2626" opacity="0.82" rx="1"/>
<line x1="506.9" y1="273.4" x2="506.9" y2="287.1" stroke="#16a34a" stroke-width="1"/><rect x="504.2" y="273.9" width="5.4" height="10.1" fill="#16a34a" opacity="0.82" rx="1"/>
<line x1="515.8" y1="259.1" x2="515.8" y2="277.5" stroke="#16a34a" stroke-width="1"/><rect x="513.1" y="264.3" width="5.4" height="9.6" fill="#16a34a" opacity="0.82" rx="1"/>
<line x1="524.7" y1="252.4" x2="524.7" y2="268.4" stroke="#16a34a" stroke-width="1"/><rect x="522.0" y="259.1" width="5.4" height="5.2" fill="#16a34a" opacity="0.82" rx="1"/>
<line x1="533.6" y1="231.3" x2="533.6" y2="259.6" stroke="#16a34a" stroke-width="1"/><rect x="530.9" y="236.2" width="5.4" height="22.9" fill="#16a34a" opacity="0.82" rx="1"/>
<line x1="542.4" y1="225.1" x2="542.4" y2="246.0" stroke="#16a34a" stroke-width="1"/><rect x="539.7" y="235.2" width="5.4" height="1.2" fill="#16a34a" opacity="0.82" rx="1"/>
<line x1="551.3" y1="208.1" x2="551.3" y2="236.9" stroke="#16a34a" stroke-width="1"/><rect x="548.6" y="215.3" width="5.4" height="19.9" fill="#16a34a" opacity="0.82" rx="1"/>
<line x1="560.2" y1="202.2" x2="560.2" y2="237.2" stroke="#dc2626" stroke-width="1"/><rect x="557.5" y="215.3" width="5.4" height="8.9" fill="#dc2626" opacity="0.82" rx="1"/>
<line x1="569.1" y1="221.4" x2="569.1" y2="240.4" stroke="#dc2626" stroke-width="1"/><rect x="566.4" y="224.1" width="5.4" height="4.9" fill="#dc2626" opacity="0.82" rx="1"/>
<line x1="578.0" y1="218.0" x2="578.0" y2="236.7" stroke="#16a34a" stroke-width="1"/><rect x="575.2" y="222.4" width="5.4" height="6.6" fill="#16a34a" opacity="0.82" rx="1"/>
<line x1="586.8" y1="208.4" x2="586.8" y2="225.9" stroke="#16a34a" stroke-width="1"/><rect x="584.1" y="215.5" width="5.4" height="6.9" fill="#16a34a" opacity="0.82" rx="1"/>
<line x1="595.7" y1="185.5" x2="595.7" y2="215.5" stroke="#16a34a" stroke-width="1"/><rect x="593.0" y="194.1" width="5.4" height="21.4" fill="#16a34a" opacity="0.82" rx="1"/>
<line x1="604.6" y1="190.9" x2="604.6" y2="209.4" stroke="#dc2626" stroke-width="1"/><rect x="601.9" y="194.1" width="5.4" height="13.8" fill="#dc2626" opacity="0.82" rx="1"/>
<line x1="613.5" y1="202.2" x2="613.5" y2="209.9" stroke="#16a34a" stroke-width="1"/><rect x="610.7" y="206.4" width="5.4" height="1.5" fill="#16a34a" opacity="0.82" rx="1"/>
<line x1="622.3" y1="205.7" x2="622.3" y2="221.4" stroke="#dc2626" stroke-width="1"/><rect x="619.6" y="206.4" width="5.4" height="8.6" fill="#dc2626" opacity="0.82" rx="1"/>
<line x1="631.2" y1="211.1" x2="631.2" y2="226.4" stroke="#dc2626" stroke-width="1"/><rect x="628.5" y="215.0" width="5.4" height="2.0" fill="#dc2626" opacity="0.82" rx="1"/>
<line x1="640.1" y1="190.2" x2="640.1" y2="220.9" stroke="#16a34a" stroke-width="1"/><rect x="637.4" y="191.6" width="5.4" height="25.4" fill="#16a34a" opacity="0.82" rx="1"/>
<line x1="649.0" y1="189.2" x2="649.0" y2="215.8" stroke="#dc2626" stroke-width="1"/><rect x="646.2" y="191.6" width="5.4" height="20.7" fill="#dc2626" opacity="0.82" rx="1"/>
<line x1="657.8" y1="188.4" x2="657.8" y2="212.6" stroke="#16a34a" stroke-width="1"/><rect x="655.1" y="192.6" width="5.4" height="19.7" fill="#16a34a" opacity="0.82" rx="1"/>
<line x1="666.7" y1="187.7" x2="666.7" y2="203.5" stroke="#dc2626" stroke-width="1"/><rect x="664.0" y="192.6" width="5.4" height="3.2" fill="#dc2626" opacity="0.82" rx="1"/>
<line x1="675.6" y1="193.6" x2="675.6" y2="205.2" stroke="#dc2626" stroke-width="1"/><rect x="672.9" y="195.8" width="5.4" height="1.5" fill="#dc2626" opacity="0.82" rx="1"/>
<line x1="684.5" y1="196.1" x2="684.5" y2="207.2" stroke="#dc2626" stroke-width="1"/><rect x="681.8" y="197.3" width="5.4" height="2.7" fill="#dc2626" opacity="0.82" rx="1"/>
<line x1="693.3" y1="171.2" x2="693.3" y2="200.8" stroke="#16a34a" stroke-width="1"/><rect x="690.6" y="182.0" width="5.4" height="18.0" fill="#16a34a" opacity="0.82" rx="1"/>
<line x1="702.2" y1="175.6" x2="702.2" y2="190.4" stroke="#dc2626" stroke-width="1"/><rect x="699.5" y="182.0" width="5.4" height="2.0" fill="#dc2626" opacity="0.82" rx="1"/>
<line x1="711.1" y1="178.4" x2="711.1" y2="189.7" stroke="#16a34a" stroke-width="1"/><rect x="708.4" y="182.0" width="5.4" height="2.0" fill="#16a34a" opacity="0.82" rx="1"/>
<line x1="720.0" y1="168.8" x2="720.0" y2="183.3" stroke="#16a34a" stroke-width="1"/><rect x="717.3" y="172.9" width="5.4" height="9.1" fill="#16a34a" opacity="0.82" rx="1"/>
<line x1="728.9" y1="153.0" x2="728.9" y2="177.6" stroke="#16a34a" stroke-width="1"/><rect x="726.1" y="172.4" width="5.4" height="1.2" fill="#16a34a" opacity="0.82" rx="1"/>
<line x1="737.7" y1="136.5" x2="737.7" y2="175.6" stroke="#16a34a" stroke-width="1"/><rect x="735.0" y="141.4" width="5.4" height="31.0" fill="#16a34a" opacity="0.82" rx="1"/>
<line x1="746.6" y1="127.9" x2="746.6" y2="144.1" stroke="#16a34a" stroke-width="1"/><rect x="743.9" y="133.6" width="5.4" height="7.9" fill="#16a34a" opacity="0.82" rx="1"/>
<line x1="755.5" y1="129.4" x2="755.5" y2="145.6" stroke="#dc2626" stroke-width="1"/><rect x="752.8" y="133.6" width="5.4" height="4.9" fill="#dc2626" opacity="0.82" rx="1"/>
<line x1="764.4" y1="117.8" x2="764.4" y2="139.7" stroke="#16a34a" stroke-width="1"/><rect x="761.6" y="123.5" width="5.4" height="15.0" fill="#16a34a" opacity="0.82" rx="1"/>
<line x1="773.2" y1="104.3" x2="773.2" y2="138.7" stroke="#16a34a" stroke-width="1"/><rect x="770.5" y="107.0" width="5.4" height="16.5" fill="#16a34a" opacity="0.82" rx="1"/>
<line x1="782.1" y1="96.6" x2="782.1" y2="120.0" stroke="#dc2626" stroke-width="1"/><rect x="779.4" y="107.0" width="5.4" height="9.8" fill="#dc2626" opacity="0.82" rx="1"/>
<line x1="791.0" y1="102.8" x2="791.0" y2="128.1" stroke="#dc2626" stroke-width="1"/><rect x="788.3" y="116.8" width="5.4" height="3.2" fill="#dc2626" opacity="0.82" rx="1"/>
<line x1="799.9" y1="98.6" x2="799.9" y2="124.7" stroke="#16a34a" stroke-width="1"/><rect x="797.1" y="98.6" width="5.4" height="21.4" fill="#16a34a" opacity="0.82" rx="1"/>
<line x1="808.7" y1="97.4" x2="808.7" y2="107.7" stroke="#dc2626" stroke-width="1"/><rect x="806.0" y="98.6" width="5.4" height="5.4" fill="#dc2626" opacity="0.82" rx="1"/>
<line x1="817.6" y1="102.1" x2="817.6" y2="110.9" stroke="#dc2626" stroke-width="1"/><rect x="814.9" y="104.0" width="5.4" height="5.4" fill="#dc2626" opacity="0.82" rx="1"/>
<line x1="826.5" y1="88.5" x2="826.5" y2="110.4" stroke="#16a34a" stroke-width="1"/><rect x="823.8" y="99.8" width="5.4" height="9.6" fill="#16a34a" opacity="0.82" rx="1"/>
<line x1="835.4" y1="85.6" x2="835.4" y2="106.2" stroke="#16a34a" stroke-width="1"/><rect x="832.6" y="94.2" width="5.4" height="5.7" fill="#16a34a" opacity="0.82" rx="1"/>
<line x1="844.2" y1="92.0" x2="844.2" y2="100.8" stroke="#dc2626" stroke-width="1"/><rect x="841.5" y="94.2" width="5.4" height="2.7" fill="#dc2626" opacity="0.82" rx="1"/>
<line x1="853.1" y1="90.2" x2="853.1" y2="107.0" stroke="#dc2626" stroke-width="1"/><rect x="850.4" y="96.9" width="5.4" height="2.2" fill="#dc2626" opacity="0.82" rx="1"/>
<line x1="862.0" y1="98.4" x2="862.0" y2="100.6" stroke="#dc2626" stroke-width="1"/><rect x="859.3" y="99.1" width="5.4" height="1.2" fill="#dc2626" opacity="0.82" rx="1"/>
<line x1="72" y1="127.5" x2="862" y2="127.5" stroke="#16a34a" stroke-width="1.8" stroke-dasharray="6 4" /><rect x="874" y="107.5" width="166" height="23" rx="5" fill="#ffffff" stroke="#16a34a" opacity="0.97"/><text x="881" y="123.5" fill="#16a34a" font-size="15" font-weight="700">日内支撑 69.55</text>
<line x1="72" y1="55.1" x2="862" y2="55.1" stroke="#dc2626" stroke-width="1.8" stroke-dasharray="6 4" /><rect x="874" y="35.1" width="166" height="23" rx="5" fill="#ffffff" stroke="#dc2626" opacity="0.97"/><text x="881" y="51.1" fill="#dc2626" font-size="15" font-weight="700">日内压力 72.49</text>
<line x1="72" y1="100.3" x2="862" y2="100.3" stroke="#111827" stroke-width="1.8" stroke-dasharray="2 2" /><rect x="874" y="80.3" width="166" height="23" rx="5" fill="#ffffff" stroke="#111827" opacity="0.97"/><text x="881" y="96.3" fill="#111827" font-size="15" font-weight="700">现价 70.65</text>
<text x="72" y="396" fill="#16a34a" font-size="14" font-weight="700">日内做多计划</text><rect x="72" y="404" width="790" height="48" rx="6" fill="#f9fafb" stroke="#e5e7eb"/><line x1="94" y1="412" x2="840" y2="412" stroke="#16a34a" stroke-width="3"/><circle cx="132.0" cy="412" r="5" fill="#16a34a"/><text x="132.0" y="434" fill="#374151" font-size="12" text-anchor="middle">入场 止跌/突破回踩</text><circle cx="451.2" cy="412" r="5" fill="#16a34a"/><text x="451.2" y="434" fill="#374151" font-size="12" text-anchor="middle">止损 69.55</text><circle cx="712.0" cy="412" r="5" fill="#16a34a"/><text x="712.0" y="434" fill="#374151" font-size="12" text-anchor="middle">目标一 72.49</text><circle cx="814.0" cy="412" r="5" fill="#16a34a"/><text x="814.0" y="434" fill="#374151" font-size="12" text-anchor="middle">目标二 73.22</text>
<text x="72" y="482" fill="#dc2626" font-size="14" font-weight="700">日内做空计划</text><rect x="72" y="490" width="790" height="48" rx="6" fill="#f9fafb" stroke="#e5e7eb"/><line x1="94" y1="498" x2="840" y2="498" stroke="#dc2626" stroke-width="3"/><circle cx="132.0" cy="498" r="5" fill="#dc2626"/><text x="132.0" y="520" fill="#374151" font-size="12" text-anchor="middle">入场 反弹承压/破位回抽</text><circle cx="451.2" cy="498" r="5" fill="#dc2626"/><text x="451.2" y="520" fill="#374151" font-size="12" text-anchor="middle">止损 72.49</text><circle cx="712.0" cy="498" r="5" fill="#dc2626"/><text x="712.0" y="520" fill="#374151" font-size="12" text-anchor="middle">目标一 69.55</text><circle cx="814.0" cy="498" r="5" fill="#dc2626"/><text x="814.0" y="520" fill="#374151" font-size="12" text-anchor="middle">目标二 68.81</text>
</svg>