<svg xmlns="http://www.w3.org/2000/svg" width="1080" height="560" viewBox="0 0 1080 560">
<rect width="100%" height="100%" fill="#ffffff"/>
<text x="72" y="23" fill="#111827" font-size="21" font-weight="800">HYPE 小时线K线支撑压力图</text>
<text x="862" y="42" fill="#374151" font-size="15" text-anchor="end">最新价 71.21</text>
<line x1="72" y1="34" x2="72" y2="340" stroke="#d1d5db"/>
<line x1="72" y1="340" x2="862" y2="340" stroke="#d1d5db"/>
<line x1="72" y1="340.0" x2="862" y2="340.0" stroke="#f3f4f6"/>
<text x="8" y="345.0" fill="#4b5563" font-size="14">60.73</text>
<line x1="72" y1="263.5" x2="862" y2="263.5" stroke="#f3f4f6"/>
<text x="8" y="268.5" fill="#4b5563" font-size="14">64.05</text>
<line x1="72" y1="187.0" x2="862" y2="187.0" stroke="#f3f4f6"/>
<text x="8" y="192.0" fill="#4b5563" font-size="14">67.37</text>
<line x1="72" y1="110.5" x2="862" y2="110.5" stroke="#f3f4f6"/>
<text x="8" y="115.5" fill="#4b5563" font-size="14">70.70</text>
<line x1="72" y1="34.0" x2="862" y2="34.0" stroke="#f3f4f6"/>
<text x="8" y="39.0" fill="#4b5563" font-size="14">74.02</text>
<line x1="72.0" y1="219.0" x2="72.0" y2="249.5" stroke="#dc2626" stroke-width="1"/><rect x="69.3" y="236.5" width="5.4" height="10.5" fill="#dc2626" opacity="0.82" rx="1"/>
<line x1="80.9" y1="232.1" x2="80.9" y2="253.7" stroke="#16a34a" stroke-width="1"/><rect x="78.2" y="241.7" width="5.4" height="5.3" fill="#16a34a" opacity="0.82" rx="1"/>
<line x1="89.8" y1="235.1" x2="89.8" y2="262.1" stroke="#dc2626" stroke-width="1"/><rect x="87.0" y="241.7" width="5.4" height="8.1" fill="#dc2626" opacity="0.82" rx="1"/>
<line x1="98.6" y1="238.0" x2="98.6" y2="254.1" stroke="#dc2626" stroke-width="1"/><rect x="95.9" y="249.8" width="5.4" height="2.5" fill="#dc2626" opacity="0.82" rx="1"/>
<line x1="107.5" y1="236.9" x2="107.5" y2="254.5" stroke="#16a34a" stroke-width="1"/><rect x="104.8" y="242.3" width="5.4" height="9.9" fill="#16a34a" opacity="0.82" rx="1"/>
<line x1="116.4" y1="228.9" x2="116.4" y2="247.5" stroke="#16a34a" stroke-width="1"/><rect x="113.7" y="230.8" width="5.4" height="11.5" fill="#16a34a" opacity="0.82" rx="1"/>
<line x1="125.3" y1="225.1" x2="125.3" y2="250.0" stroke="#dc2626" stroke-width="1"/><rect x="122.5" y="230.7" width="5.4" height="18.8" fill="#dc2626" opacity="0.82" rx="1"/>
<line x1="134.1" y1="244.3" x2="134.1" y2="262.1" stroke="#16a34a" stroke-width="1"/><rect x="131.4" y="249.2" width="5.4" height="1.2" fill="#16a34a" opacity="0.82" rx="1"/>
<line x1="143.0" y1="244.7" x2="143.0" y2="257.7" stroke="#dc2626" stroke-width="1"/><rect x="140.3" y="249.0" width="5.4" height="1.7" fill="#dc2626" opacity="0.82" rx="1"/>
<line x1="151.9" y1="240.1" x2="151.9" y2="253.2" stroke="#16a34a" stroke-width="1"/><rect x="149.2" y="241.3" width="5.4" height="9.3" fill="#16a34a" opacity="0.82" rx="1"/>
<line x1="160.8" y1="238.0" x2="160.8" y2="261.5" stroke="#dc2626" stroke-width="1"/><rect x="158.0" y="241.1" width="5.4" height="18.3" fill="#dc2626" opacity="0.82" rx="1"/>
<line x1="169.6" y1="248.0" x2="169.6" y2="290.7" stroke="#16a34a" stroke-width="1"/><rect x="166.9" y="252.0" width="5.4" height="7.5" fill="#16a34a" opacity="0.82" rx="1"/>
<line x1="178.5" y1="229.0" x2="178.5" y2="253.6" stroke="#16a34a" stroke-width="1"/><rect x="175.8" y="232.2" width="5.4" height="19.8" fill="#16a34a" opacity="0.82" rx="1"/>
<line x1="187.4" y1="223.6" x2="187.4" y2="240.3" stroke="#16a34a" stroke-width="1"/><rect x="184.7" y="228.3" width="5.4" height="3.8" fill="#16a34a" opacity="0.82" rx="1"/>
<line x1="196.3" y1="218.9" x2="196.3" y2="233.5" stroke="#16a34a" stroke-width="1"/><rect x="193.5" y="221.8" width="5.4" height="6.5" fill="#16a34a" opacity="0.82" rx="1"/>
<line x1="205.1" y1="218.6" x2="205.1" y2="239.5" stroke="#dc2626" stroke-width="1"/><rect x="202.4" y="222.0" width="5.4" height="15.5" fill="#dc2626" opacity="0.82" rx="1"/>
<line x1="214.0" y1="236.7" x2="214.0" y2="253.9" stroke="#dc2626" stroke-width="1"/><rect x="211.3" y="237.3" width="5.4" height="7.3" fill="#dc2626" opacity="0.82" rx="1"/>
<line x1="222.9" y1="243.6" x2="222.9" y2="264.2" stroke="#dc2626" stroke-width="1"/><rect x="220.2" y="244.7" width="5.4" height="9.6" fill="#dc2626" opacity="0.82" rx="1"/>
<line x1="231.8" y1="254.3" x2="231.8" y2="283.1" stroke="#dc2626" stroke-width="1"/><rect x="229.1" y="254.3" width="5.4" height="11.3" fill="#dc2626" opacity="0.82" rx="1"/>
<line x1="240.7" y1="259.7" x2="240.7" y2="270.4" stroke="#16a34a" stroke-width="1"/><rect x="237.9" y="264.7" width="5.4" height="1.2" fill="#16a34a" opacity="0.82" rx="1"/>
<line x1="249.5" y1="264.1" x2="249.5" y2="302.4" stroke="#dc2626" stroke-width="1"/><rect x="246.8" y="264.4" width="5.4" height="30.2" fill="#dc2626" opacity="0.82" rx="1"/>
<line x1="258.4" y1="287.8" x2="258.4" y2="303.4" stroke="#dc2626" stroke-width="1"/><rect x="255.7" y="294.6" width="5.4" height="1.8" fill="#dc2626" opacity="0.82" rx="1"/>
<line x1="267.3" y1="291.8" x2="267.3" y2="303.0" stroke="#dc2626" stroke-width="1"/><rect x="264.6" y="296.5" width="5.4" height="3.2" fill="#dc2626" opacity="0.82" rx="1"/>
<line x1="276.2" y1="262.8" x2="276.2" y2="299.8" stroke="#16a34a" stroke-width="1"/><rect x="273.4" y="263.4" width="5.4" height="36.4" fill="#16a34a" opacity="0.82" rx="1"/>
<line x1="285.0" y1="246.9" x2="285.0" y2="284.0" stroke="#dc2626" stroke-width="1"/><rect x="282.3" y="263.2" width="5.4" height="10.2" fill="#dc2626" opacity="0.82" rx="1"/>
<line x1="293.9" y1="245.6" x2="293.9" y2="275.1" stroke="#16a34a" stroke-width="1"/><rect x="291.2" y="250.5" width="5.4" height="22.8" fill="#16a34a" opacity="0.82" rx="1"/>
<line x1="302.8" y1="240.4" x2="302.8" y2="257.1" stroke="#dc2626" stroke-width="1"/><rect x="300.1" y="250.5" width="5.4" height="4.9" fill="#dc2626" opacity="0.82" rx="1"/>
<line x1="311.7" y1="250.1" x2="311.7" y2="264.4" stroke="#dc2626" stroke-width="1"/><rect x="308.9" y="255.2" width="5.4" height="1.2" fill="#dc2626" opacity="0.82" rx="1"/>
<line x1="320.5" y1="246.6" x2="320.5" y2="272.8" stroke="#dc2626" stroke-width="1"/><rect x="317.8" y="256.0" width="5.4" height="12.4" fill="#dc2626" opacity="0.82" rx="1"/>
<line x1="329.4" y1="261.5" x2="329.4" y2="291.5" stroke="#dc2626" stroke-width="1"/><rect x="326.7" y="268.7" width="5.4" height="20.0" fill="#dc2626" opacity="0.82" rx="1"/>
<line x1="338.3" y1="281.2" x2="338.3" y2="313.9" stroke="#dc2626" stroke-width="1"/><rect x="335.6" y="288.9" width="5.4" height="16.8" fill="#dc2626" opacity="0.82" rx="1"/>
<line x1="347.2" y1="269.5" x2="347.2" y2="314.5" stroke="#16a34a" stroke-width="1"/><rect x="344.4" y="278.4" width="5.4" height="27.3" fill="#16a34a" opacity="0.82" rx="1"/>
<line x1="356.0" y1="261.2" x2="356.0" y2="299.2" stroke="#dc2626" stroke-width="1"/><rect x="353.3" y="277.9" width="5.4" height="2.8" fill="#dc2626" opacity="0.82" rx="1"/>
<line x1="364.9" y1="280.7" x2="364.9" y2="303.7" stroke="#dc2626" stroke-width="1"/><rect x="362.2" y="280.7" width="5.4" height="22.1" fill="#dc2626" opacity="0.82" rx="1"/>
<line x1="373.8" y1="297.3" x2="373.8" y2="318.9" stroke="#dc2626" stroke-width="1"/><rect x="371.1" y="302.7" width="5.4" height="2.2" fill="#dc2626" opacity="0.82" rx="1"/>
<line x1="382.7" y1="283.9" x2="382.7" y2="307.0" stroke="#16a34a" stroke-width="1"/><rect x="380.0" y="292.5" width="5.4" height="12.5" fill="#16a34a" opacity="0.82" rx="1"/>
<line x1="391.6" y1="284.7" x2="391.6" y2="301.4" stroke="#16a34a" stroke-width="1"/><rect x="388.8" y="286.9" width="5.4" height="5.5" fill="#16a34a" opacity="0.82" rx="1"/>
<line x1="400.4" y1="272.1" x2="400.4" y2="293.3" stroke="#16a34a" stroke-width="1"/><rect x="397.7" y="273.7" width="5.4" height="13.2" fill="#16a34a" opacity="0.82" rx="1"/>
<line x1="409.3" y1="268.9" x2="409.3" y2="282.2" stroke="#16a34a" stroke-width="1"/><rect x="406.6" y="271.5" width="5.4" height="2.1" fill="#16a34a" opacity="0.82" rx="1"/>
<line x1="418.2" y1="269.4" x2="418.2" y2="280.4" stroke="#dc2626" stroke-width="1"/><rect x="415.5" y="271.6" width="5.4" height="7.6" fill="#dc2626" opacity="0.82" rx="1"/>
<line x1="427.1" y1="269.5" x2="427.1" y2="289.2" stroke="#dc2626" stroke-width="1"/><rect x="424.3" y="279.1" width="5.4" height="3.5" fill="#dc2626" opacity="0.82" rx="1"/>
<line x1="435.9" y1="278.5" x2="435.9" y2="290.8" stroke="#dc2626" stroke-width="1"/><rect x="433.2" y="282.6" width="5.4" height="2.2" fill="#dc2626" opacity="0.82" rx="1"/>
<line x1="444.8" y1="273.8" x2="444.8" y2="287.7" stroke="#16a34a" stroke-width="1"/><rect x="442.1" y="275.1" width="5.4" height="10.4" fill="#16a34a" opacity="0.82" rx="1"/>
<line x1="453.7" y1="262.1" x2="453.7" y2="278.7" stroke="#16a34a" stroke-width="1"/><rect x="451.0" y="267.0" width="5.4" height="8.0" fill="#16a34a" opacity="0.82" rx="1"/>
<line x1="462.6" y1="255.8" x2="462.6" y2="270.4" stroke="#16a34a" stroke-width="1"/><rect x="459.8" y="262.0" width="5.4" height="5.0" fill="#16a34a" opacity="0.82" rx="1"/>
<line x1="471.4" y1="234.7" x2="471.4" y2="262.6" stroke="#16a34a" stroke-width="1"/><rect x="468.7" y="239.5" width="5.4" height="22.4" fill="#16a34a" opacity="0.82" rx="1"/>
<line x1="480.3" y1="228.7" x2="480.3" y2="247.9" stroke="#16a34a" stroke-width="1"/><rect x="477.6" y="238.7" width="5.4" height="1.2" fill="#16a34a" opacity="0.82" rx="1"/>
<line x1="489.2" y1="213.8" x2="489.2" y2="240.4" stroke="#16a34a" stroke-width="1"/><rect x="486.5" y="220.7" width="5.4" height="17.8" fill="#16a34a" opacity="0.82" rx="1"/>
<line x1="498.1" y1="208.1" x2="498.1" y2="240.9" stroke="#dc2626" stroke-width="1"/><rect x="495.3" y="220.6" width="5.4" height="8.2" fill="#dc2626" opacity="0.82" rx="1"/>
<line x1="506.9" y1="226.3" x2="506.9" y2="244.0" stroke="#dc2626" stroke-width="1"/><rect x="504.2" y="228.8" width="5.4" height="4.6" fill="#dc2626" opacity="0.82" rx="1"/>
<line x1="515.8" y1="223.1" x2="515.8" y2="241.2" stroke="#16a34a" stroke-width="1"/><rect x="513.1" y="227.3" width="5.4" height="6.0" fill="#16a34a" opacity="0.82" rx="1"/>
<line x1="524.7" y1="213.5" x2="524.7" y2="231.5" stroke="#16a34a" stroke-width="1"/><rect x="522.0" y="220.4" width="5.4" height="6.8" fill="#16a34a" opacity="0.82" rx="1"/>
<line x1="533.6" y1="192.3" x2="533.6" y2="220.6" stroke="#16a34a" stroke-width="1"/><rect x="530.9" y="200.4" width="5.4" height="20.1" fill="#16a34a" opacity="0.82" rx="1"/>
<line x1="542.4" y1="197.4" x2="542.4" y2="215.5" stroke="#dc2626" stroke-width="1"/><rect x="539.7" y="200.4" width="5.4" height="13.6" fill="#dc2626" opacity="0.82" rx="1"/>
<line x1="551.3" y1="208.1" x2="551.3" y2="216.0" stroke="#16a34a" stroke-width="1"/><rect x="548.6" y="212.1" width="5.4" height="1.6" fill="#16a34a" opacity="0.82" rx="1"/>
<line x1="560.2" y1="211.1" x2="560.2" y2="227.8" stroke="#dc2626" stroke-width="1"/><rect x="557.5" y="212.1" width="5.4" height="8.6" fill="#dc2626" opacity="0.82" rx="1"/>
<line x1="569.1" y1="217.3" x2="569.1" y2="232.2" stroke="#dc2626" stroke-width="1"/><rect x="566.4" y="220.7" width="5.4" height="2.1" fill="#dc2626" opacity="0.82" rx="1"/>
<line x1="578.0" y1="196.2" x2="578.0" y2="226.6" stroke="#16a34a" stroke-width="1"/><rect x="575.2" y="198.0" width="5.4" height="24.9" fill="#16a34a" opacity="0.82" rx="1"/>
<line x1="586.8" y1="196.0" x2="586.8" y2="222.2" stroke="#dc2626" stroke-width="1"/><rect x="584.1" y="198.1" width="5.4" height="20.2" fill="#dc2626" opacity="0.82" rx="1"/>
<line x1="595.7" y1="194.9" x2="595.7" y2="218.6" stroke="#16a34a" stroke-width="1"/><rect x="593.0" y="199.7" width="5.4" height="18.6" fill="#16a34a" opacity="0.82" rx="1"/>
<line x1="604.6" y1="194.6" x2="604.6" y2="209.7" stroke="#dc2626" stroke-width="1"/><rect x="601.9" y="199.7" width="5.4" height="3.3" fill="#dc2626" opacity="0.82" rx="1"/>
<line x1="613.5" y1="200.3" x2="613.5" y2="211.7" stroke="#dc2626" stroke-width="1"/><rect x="610.7" y="203.0" width="5.4" height="1.2" fill="#dc2626" opacity="0.82" rx="1"/>
<line x1="622.3" y1="202.2" x2="622.3" y2="213.0" stroke="#dc2626" stroke-width="1"/><rect x="619.6" y="203.0" width="5.4" height="3.1" fill="#dc2626" opacity="0.82" rx="1"/>
<line x1="631.2" y1="178.7" x2="631.2" y2="207.0" stroke="#16a34a" stroke-width="1"/><rect x="628.5" y="189.0" width="5.4" height="17.2" fill="#16a34a" opacity="0.82" rx="1"/>
<line x1="640.1" y1="183.0" x2="640.1" y2="197.6" stroke="#dc2626" stroke-width="1"/><rect x="637.4" y="189.0" width="5.4" height="1.8" fill="#dc2626" opacity="0.82" rx="1"/>
<line x1="649.0" y1="185.4" x2="649.0" y2="196.9" stroke="#16a34a" stroke-width="1"/><rect x="646.2" y="188.8" width="5.4" height="2.0" fill="#16a34a" opacity="0.82" rx="1"/>
<line x1="657.8" y1="177.9" x2="657.8" y2="189.1" stroke="#16a34a" stroke-width="1"/><rect x="655.1" y="180.9" width="5.4" height="7.9" fill="#16a34a" opacity="0.82" rx="1"/>
<line x1="666.7" y1="161.3" x2="666.7" y2="185.3" stroke="#16a34a" stroke-width="1"/><rect x="664.0" y="180.6" width="5.4" height="1.2" fill="#16a34a" opacity="0.82" rx="1"/>
<line x1="675.6" y1="145.5" x2="675.6" y2="183.8" stroke="#16a34a" stroke-width="1"/><rect x="672.9" y="150.9" width="5.4" height="29.7" fill="#16a34a" opacity="0.82" rx="1"/>
<line x1="684.5" y1="136.8" x2="684.5" y2="153.5" stroke="#16a34a" stroke-width="1"/><rect x="681.8" y="143.9" width="5.4" height="6.9" fill="#16a34a" opacity="0.82" rx="1"/>
<line x1="693.3" y1="139.3" x2="693.3" y2="155.0" stroke="#dc2626" stroke-width="1"/><rect x="690.6" y="143.5" width="5.4" height="4.7" fill="#dc2626" opacity="0.82" rx="1"/>
<line x1="702.2" y1="128.3" x2="702.2" y2="149.5" stroke="#16a34a" stroke-width="1"/><rect x="699.5" y="134.1" width="5.4" height="14.4" fill="#16a34a" opacity="0.82" rx="1"/>
<line x1="711.1" y1="116.4" x2="711.1" y2="149.0" stroke="#16a34a" stroke-width="1"/><rect x="708.4" y="119.1" width="5.4" height="15.0" fill="#16a34a" opacity="0.82" rx="1"/>
<line x1="720.0" y1="109.7" x2="720.0" y2="130.8" stroke="#dc2626" stroke-width="1"/><rect x="717.3" y="119.1" width="5.4" height="9.3" fill="#dc2626" opacity="0.82" rx="1"/>
<line x1="728.9" y1="115.0" x2="728.9" y2="139.9" stroke="#dc2626" stroke-width="1"/><rect x="726.1" y="128.3" width="5.4" height="2.6" fill="#dc2626" opacity="0.82" rx="1"/>
<line x1="737.7" y1="110.5" x2="737.7" y2="135.7" stroke="#16a34a" stroke-width="1"/><rect x="735.0" y="110.5" width="5.4" height="20.4" fill="#16a34a" opacity="0.82" rx="1"/>
<line x1="746.6" y1="109.8" x2="746.6" y2="120.2" stroke="#dc2626" stroke-width="1"/><rect x="743.9" y="110.7" width="5.4" height="5.0" fill="#dc2626" opacity="0.82" rx="1"/>
<line x1="755.5" y1="114.2" x2="755.5" y2="122.5" stroke="#dc2626" stroke-width="1"/><rect x="752.8" y="115.7" width="5.4" height="5.4" fill="#dc2626" opacity="0.82" rx="1"/>
<line x1="764.4" y1="101.2" x2="764.4" y2="122.3" stroke="#16a34a" stroke-width="1"/><rect x="761.6" y="112.5" width="5.4" height="8.5" fill="#16a34a" opacity="0.82" rx="1"/>
<line x1="773.2" y1="97.4" x2="773.2" y2="118.6" stroke="#16a34a" stroke-width="1"/><rect x="770.5" y="106.6" width="5.4" height="5.9" fill="#16a34a" opacity="0.82" rx="1"/>
<line x1="782.1" y1="104.1" x2="782.1" y2="113.9" stroke="#dc2626" stroke-width="1"/><rect x="779.4" y="106.6" width="5.4" height="3.1" fill="#dc2626" opacity="0.82" rx="1"/>
<line x1="791.0" y1="103.2" x2="791.0" y2="120.8" stroke="#dc2626" stroke-width="1"/><rect x="788.3" y="109.7" width="5.4" height="2.2" fill="#dc2626" opacity="0.82" rx="1"/>
<line x1="799.9" y1="95.5" x2="799.9" y2="114.5" stroke="#16a34a" stroke-width="1"/><rect x="797.1" y="99.8" width="5.4" height="11.9" fill="#16a34a" opacity="0.82" rx="1"/>
<line x1="808.7" y1="99.8" x2="808.7" y2="123.8" stroke="#dc2626" stroke-width="1"/><rect x="806.0" y="99.8" width="5.4" height="21.6" fill="#dc2626" opacity="0.82" rx="1"/>
<line x1="817.6" y1="101.3" x2="817.6" y2="127.9" stroke="#16a34a" stroke-width="1"/><rect x="814.9" y="109.8" width="5.4" height="11.5" fill="#16a34a" opacity="0.82" rx="1"/>
<line x1="826.5" y1="88.8" x2="826.5" y2="114.0" stroke="#16a34a" stroke-width="1"/><rect x="823.8" y="96.3" width="5.4" height="13.5" fill="#16a34a" opacity="0.82" rx="1"/>
<line x1="835.4" y1="80.5" x2="835.4" y2="101.4" stroke="#16a34a" stroke-width="1"/><rect x="832.6" y="91.4" width="5.4" height="4.9" fill="#16a34a" opacity="0.82" rx="1"/>
<line x1="844.2" y1="87.6" x2="844.2" y2="103.5" stroke="#dc2626" stroke-width="1"/><rect x="841.5" y="91.4" width="5.4" height="2.7" fill="#dc2626" opacity="0.82" rx="1"/>
<line x1="853.1" y1="88.0" x2="853.1" y2="108.7" stroke="#dc2626" stroke-width="1"/><rect x="850.4" y="94.1" width="5.4" height="3.9" fill="#dc2626" opacity="0.82" rx="1"/>
<line x1="862.0" y1="96.1" x2="862.0" y2="98.8" stroke="#dc2626" stroke-width="1"/><rect x="859.3" y="98.1" width="5.4" height="1.2" fill="#dc2626" opacity="0.82" rx="1"/>
<line x1="72" y1="124.6" x2="862" y2="124.6" stroke="#16a34a" stroke-width="1.8" stroke-dasharray="6 4" /><rect x="874" y="104.6" width="166" height="23" rx="5" fill="#ffffff" stroke="#16a34a" opacity="0.97"/><text x="881" y="120.6" fill="#16a34a" font-size="15" font-weight="700">日内支撑 70.08</text>
<line x1="72" y1="55.1" x2="862" y2="55.1" stroke="#dc2626" stroke-width="1.8" stroke-dasharray="6 4" /><rect x="874" y="35.1" width="166" height="23" rx="5" fill="#ffffff" stroke="#dc2626" opacity="0.97"/><text x="881" y="51.1" fill="#dc2626" font-size="15" font-weight="700">日内压力 73.10</text>
<line x1="72" y1="98.6" x2="862" y2="98.6" stroke="#111827" stroke-width="1.8" stroke-dasharray="2 2" /><rect x="874" y="78.6" width="166" height="23" rx="5" fill="#ffffff" stroke="#111827" opacity="0.97"/><text x="881" y="94.6" fill="#111827" font-size="15" font-weight="700">现价 71.21</text>
<text x="72" y="396" fill="#16a34a" font-size="14" font-weight="700">日内做多计划</text><rect x="72" y="404" width="790" height="48" rx="6" fill="#f9fafb" stroke="#e5e7eb"/><line x1="94" y1="412" x2="840" y2="412" stroke="#16a34a" stroke-width="3"/><circle cx="132.0" cy="412" r="5" fill="#16a34a"/><text x="132.0" y="434" fill="#374151" font-size="12" text-anchor="middle">入场 止跌/突破回踩</text><circle cx="451.2" cy="412" r="5" fill="#16a34a"/><text x="451.2" y="434" fill="#374151" font-size="12" text-anchor="middle">止损 70.08</text><circle cx="712.0" cy="412" r="5" fill="#16a34a"/><text x="712.0" y="434" fill="#374151" font-size="12" text-anchor="middle">目标一 73.10</text><circle cx="814.0" cy="412" r="5" fill="#16a34a"/><text x="814.0" y="434" fill="#374151" font-size="12" text-anchor="middle">目标二 73.86</text>
<text x="72" y="482" fill="#dc2626" font-size="14" font-weight="700">日内做空计划</text><rect x="72" y="490" width="790" height="48" rx="6" fill="#f9fafb" stroke="#e5e7eb"/><line x1="94" y1="498" x2="840" y2="498" stroke="#dc2626" stroke-width="3"/><circle cx="132.0" cy="498" r="5" fill="#dc2626"/><text x="132.0" y="520" fill="#374151" font-size="12" text-anchor="middle">入场 反弹承压/破位回抽</text><circle cx="451.2" cy="498" r="5" fill="#dc2626"/><text x="451.2" y="520" fill="#374151" font-size="12" text-anchor="middle">止损 73.10</text><circle cx="712.0" cy="498" r="5" fill="#dc2626"/><text x="712.0" y="520" fill="#374151" font-size="12" text-anchor="middle">目标一 70.08</text><circle cx="814.0" cy="498" r="5" fill="#dc2626"/><text x="814.0" y="520" fill="#374151" font-size="12" text-anchor="middle">目标二 69.33</text>
</svg>