<svg xmlns="http://www.w3.org/2000/svg" width="1080" height="560" viewBox="0 0 1080 560">
<rect width="100%" height="100%" fill="#ffffff"/>
<text x="72" y="23" fill="#111827" font-size="21" font-weight="800">DRAM 日线K线支撑压力图</text>
<text x="862" y="42" fill="#374151" font-size="15" text-anchor="end">最新价 67.92</text>
<line x1="72" y1="34" x2="72" y2="340" stroke="#d1d5db"/>
<line x1="72" y1="340" x2="862" y2="340" stroke="#d1d5db"/>
<line x1="72" y1="340.0" x2="862" y2="340.0" stroke="#f3f4f6"/>
<text x="8" y="345.0" fill="#4b5563" font-size="14">43.77</text>
<line x1="72" y1="263.5" x2="862" y2="263.5" stroke="#f3f4f6"/>
<text x="8" y="268.5" fill="#4b5563" font-size="14">53.82</text>
<line x1="72" y1="187.0" x2="862" y2="187.0" stroke="#f3f4f6"/>
<text x="8" y="192.0" fill="#4b5563" font-size="14">63.88</text>
<line x1="72" y1="110.5" x2="862" y2="110.5" stroke="#f3f4f6"/>
<text x="8" y="115.5" fill="#4b5563" font-size="14">73.94</text>
<line x1="72" y1="34.0" x2="862" y2="34.0" stroke="#f3f4f6"/>
<text x="8" y="39.0" fill="#4b5563" font-size="14">84.00</text>
<line x1="72.0" y1="278.2" x2="72.0" y2="307.1" stroke="#dc2626" stroke-width="1"/><rect x="67.5" y="283.2" width="9.0" height="11.1" fill="#dc2626" opacity="0.82" rx="1"/>
<line x1="100.2" y1="284.7" x2="100.2" y2="318.9" stroke="#16a34a" stroke-width="1"/><rect x="95.7" y="292.5" width="9.0" height="1.7" fill="#16a34a" opacity="0.82" rx="1"/>
<line x1="128.4" y1="277.0" x2="128.4" y2="307.9" stroke="#16a34a" stroke-width="1"/><rect x="123.9" y="279.4" width="9.0" height="13.2" fill="#16a34a" opacity="0.82" rx="1"/>
<line x1="156.6" y1="252.7" x2="156.6" y2="284.1" stroke="#16a34a" stroke-width="1"/><rect x="152.1" y="255.9" width="9.0" height="23.5" fill="#16a34a" opacity="0.82" rx="1"/>
<line x1="184.9" y1="255.6" x2="184.9" y2="272.9" stroke="#dc2626" stroke-width="1"/><rect x="180.4" y="255.9" width="9.0" height="16.7" fill="#dc2626" opacity="0.82" rx="1"/>
<line x1="213.1" y1="246.5" x2="213.1" y2="289.3" stroke="#16a34a" stroke-width="1"/><rect x="208.6" y="259.8" width="9.0" height="12.6" fill="#16a34a" opacity="0.82" rx="1"/>
<line x1="241.3" y1="246.2" x2="241.3" y2="261.3" stroke="#16a34a" stroke-width="1"/><rect x="236.8" y="251.7" width="9.0" height="7.9" fill="#16a34a" opacity="0.82" rx="1"/>
<line x1="269.5" y1="227.0" x2="269.5" y2="253.8" stroke="#16a34a" stroke-width="1"/><rect x="265.0" y="243.2" width="9.0" height="8.5" fill="#16a34a" opacity="0.82" rx="1"/>
<line x1="297.7" y1="191.4" x2="297.7" y2="257.1" stroke="#16a34a" stroke-width="1"/><rect x="293.2" y="199.7" width="9.0" height="43.4" fill="#16a34a" opacity="0.82" rx="1"/>
<line x1="325.9" y1="188.5" x2="325.9" y2="223.5" stroke="#dc2626" stroke-width="1"/><rect x="321.4" y="199.8" width="9.0" height="19.6" fill="#dc2626" opacity="0.82" rx="1"/>
<line x1="354.1" y1="187.9" x2="354.1" y2="236.0" stroke="#16a34a" stroke-width="1"/><rect x="349.6" y="193.3" width="9.0" height="26.1" fill="#16a34a" opacity="0.82" rx="1"/>
<line x1="382.4" y1="183.5" x2="382.4" y2="204.7" stroke="#16a34a" stroke-width="1"/><rect x="377.9" y="191.4" width="9.0" height="1.8" fill="#16a34a" opacity="0.82" rx="1"/>
<line x1="410.6" y1="171.2" x2="410.6" y2="194.5" stroke="#16a34a" stroke-width="1"/><rect x="406.1" y="172.4" width="9.0" height="18.9" fill="#16a34a" opacity="0.82" rx="1"/>
<line x1="438.8" y1="159.6" x2="438.8" y2="176.8" stroke="#16a34a" stroke-width="1"/><rect x="434.3" y="169.9" width="9.0" height="2.4" fill="#16a34a" opacity="0.82" rx="1"/>
<line x1="467.0" y1="147.5" x2="467.0" y2="183.5" stroke="#16a34a" stroke-width="1"/><rect x="462.5" y="154.2" width="9.0" height="15.6" fill="#16a34a" opacity="0.82" rx="1"/>
<line x1="495.2" y1="139.1" x2="495.2" y2="175.4" stroke="#16a34a" stroke-width="1"/><rect x="490.7" y="144.7" width="9.0" height="9.7" fill="#16a34a" opacity="0.82" rx="1"/>
<line x1="523.4" y1="138.1" x2="523.4" y2="167.9" stroke="#dc2626" stroke-width="1"/><rect x="518.9" y="144.6" width="9.0" height="20.9" fill="#dc2626" opacity="0.82" rx="1"/>
<line x1="551.6" y1="155.6" x2="551.6" y2="192.4" stroke="#dc2626" stroke-width="1"/><rect x="547.1" y="165.6" width="9.0" height="25.5" fill="#dc2626" opacity="0.82" rx="1"/>
<line x1="579.9" y1="185.1" x2="579.9" y2="266.3" stroke="#dc2626" stroke-width="1"/><rect x="575.4" y="191.1" width="9.0" height="60.2" fill="#dc2626" opacity="0.82" rx="1"/>
<line x1="608.1" y1="243.5" x2="608.1" y2="273.5" stroke="#16a34a" stroke-width="1"/><rect x="603.6" y="249.0" width="9.0" height="2.4" fill="#16a34a" opacity="0.82" rx="1"/>
<line x1="636.3" y1="217.8" x2="636.3" y2="254.6" stroke="#16a34a" stroke-width="1"/><rect x="631.8" y="243.5" width="9.0" height="5.6" fill="#16a34a" opacity="0.82" rx="1"/>
<line x1="664.5" y1="203.8" x2="664.5" y2="246.8" stroke="#16a34a" stroke-width="1"/><rect x="660.0" y="209.8" width="9.0" height="33.8" fill="#16a34a" opacity="0.82" rx="1"/>
<line x1="692.7" y1="184.6" x2="692.7" y2="251.1" stroke="#dc2626" stroke-width="1"/><rect x="688.2" y="209.7" width="9.0" height="8.8" fill="#dc2626" opacity="0.82" rx="1"/>
<line x1="720.9" y1="204.8" x2="720.9" y2="250.1" stroke="#dc2626" stroke-width="1"/><rect x="716.4" y="218.5" width="9.0" height="25.1" fill="#dc2626" opacity="0.82" rx="1"/>
<line x1="749.1" y1="165.7" x2="749.1" y2="245.5" stroke="#16a34a" stroke-width="1"/><rect x="744.6" y="170.8" width="9.0" height="72.6" fill="#16a34a" opacity="0.82" rx="1"/>
<line x1="777.4" y1="169.5" x2="777.4" y2="199.3" stroke="#dc2626" stroke-width="1"/><rect x="772.9" y="170.8" width="9.0" height="2.8" fill="#dc2626" opacity="0.82" rx="1"/>
<line x1="805.6" y1="171.1" x2="805.6" y2="187.0" stroke="#16a34a" stroke-width="1"/><rect x="801.1" y="172.7" width="9.0" height="1.2" fill="#16a34a" opacity="0.82" rx="1"/>
<line x1="833.8" y1="146.3" x2="833.8" y2="174.2" stroke="#16a34a" stroke-width="1"/><rect x="829.3" y="153.6" width="9.0" height="18.9" fill="#16a34a" opacity="0.82" rx="1"/>
<line x1="862.0" y1="152.3" x2="862.0" y2="160.1" stroke="#dc2626" stroke-width="1"/><rect x="857.5" y="153.8" width="9.0" height="2.5" fill="#dc2626" opacity="0.82" rx="1"/>
<line x1="72" y1="217.0" x2="862" y2="217.0" stroke="#16a34a" stroke-width="1.8" stroke-dasharray="6 4" /><rect x="874" y="197.0" width="166" height="23" rx="5" fill="#ffffff" stroke="#16a34a" opacity="0.97"/><text x="881" y="213.0" fill="#16a34a" font-size="15" font-weight="700">支撑 59.94</text>
<line x1="72" y1="55.1" x2="862" y2="55.1" stroke="#dc2626" stroke-width="1.8" stroke-dasharray="6 4" /><rect x="874" y="35.1" width="166" height="23" rx="5" fill="#ffffff" stroke="#dc2626" opacity="0.97"/><text x="881" y="51.1" fill="#dc2626" font-size="15" font-weight="700">压力 81.23</text>
<line x1="72" y1="156.3" x2="862" y2="156.3" stroke="#111827" stroke-width="1.8" stroke-dasharray="2 2" /><rect x="874" y="136.3" width="166" height="23" rx="5" fill="#ffffff" stroke="#111827" opacity="0.97"/><text x="881" y="152.3" fill="#111827" font-size="15" font-weight="700">现价 67.92</text>
<text x="72" y="396" fill="#16a34a" font-size="14" font-weight="700">日线做多计划</text><rect x="72" y="404" width="790" height="48" rx="6" fill="#f9fafb" stroke="#e5e7eb"/><line x1="94" y1="412" x2="840" y2="412" stroke="#16a34a" stroke-width="3"/><circle cx="132.0" cy="412" r="5" fill="#16a34a"/><text x="132.0" y="434" fill="#374151" font-size="12" text-anchor="middle">入场 止跌/突破回踩</text><circle cx="451.2" cy="412" r="5" fill="#16a34a"/><text x="451.2" y="434" fill="#374151" font-size="12" text-anchor="middle">止损 59.94</text><circle cx="712.0" cy="412" r="5" fill="#16a34a"/><text x="712.0" y="434" fill="#374151" font-size="12" text-anchor="middle">目标一 81.23</text><circle cx="814.0" cy="412" r="5" fill="#16a34a"/><text x="814.0" y="434" fill="#374151" font-size="12" text-anchor="middle">目标二 89.21</text>
<text x="72" y="482" fill="#dc2626" font-size="14" font-weight="700">日线做空计划</text><rect x="72" y="490" width="790" height="48" rx="6" fill="#f9fafb" stroke="#e5e7eb"/><line x1="94" y1="498" x2="840" y2="498" stroke="#dc2626" stroke-width="3"/><circle cx="132.0" cy="498" r="5" fill="#dc2626"/><text x="132.0" y="520" fill="#374151" font-size="12" text-anchor="middle">入场 反弹承压/破位回抽</text><circle cx="451.2" cy="498" r="5" fill="#dc2626"/><text x="451.2" y="520" fill="#374151" font-size="12" text-anchor="middle">止损 81.23</text><circle cx="712.0" cy="498" r="5" fill="#dc2626"/><text x="712.0" y="520" fill="#374151" font-size="12" text-anchor="middle">目标一 59.94</text><circle cx="814.0" cy="498" r="5" fill="#dc2626"/><text x="814.0" y="520" fill="#374151" font-size="12" text-anchor="middle">目标二 54.61</text>
</svg>