<svg xmlns="http://www.w3.org/2000/svg" width="1080" height="560" viewBox="0 0 1080 560">
<rect width="100%" height="100%" fill="#ffffff"/>
<text x="72" y="23" fill="#111827" font-size="21" font-weight="800">DRAM 小时线K线支撑压力图</text>
<text x="862" y="42" fill="#374151" font-size="15" text-anchor="end">最新价 67.93</text>
<line x1="72" y1="34" x2="72" y2="340" stroke="#d1d5db"/>
<line x1="72" y1="340" x2="862" y2="340" stroke="#d1d5db"/>
<line x1="72" y1="340.0" x2="862" y2="340.0" stroke="#f3f4f6"/>
<text x="8" y="345.0" fill="#4b5563" font-size="14">57.60</text>
<line x1="72" y1="263.5" x2="862" y2="263.5" stroke="#f3f4f6"/>
<text x="8" y="268.5" fill="#4b5563" font-size="14">61.05</text>
<line x1="72" y1="187.0" x2="862" y2="187.0" stroke="#f3f4f6"/>
<text x="8" y="192.0" fill="#4b5563" font-size="14">64.51</text>
<line x1="72" y1="110.5" x2="862" y2="110.5" stroke="#f3f4f6"/>
<text x="8" y="115.5" fill="#4b5563" font-size="14">67.96</text>
<line x1="72" y1="34.0" x2="862" y2="34.0" stroke="#f3f4f6"/>
<text x="8" y="39.0" fill="#4b5563" font-size="14">71.42</text>
<line x1="72.0" y1="291.2" x2="72.0" y2="306.5" stroke="#16a34a" stroke-width="1"/><rect x="69.3" y="294.3" width="5.4" height="8.0" fill="#16a34a" opacity="0.82" rx="1"/>
<line x1="80.9" y1="275.5" x2="80.9" y2="294.1" stroke="#16a34a" stroke-width="1"/><rect x="78.2" y="282.6" width="5.4" height="11.5" fill="#16a34a" opacity="0.82" rx="1"/>
<line x1="89.8" y1="275.9" x2="89.8" y2="292.3" stroke="#dc2626" stroke-width="1"/><rect x="87.0" y="282.8" width="5.4" height="3.1" fill="#dc2626" opacity="0.82" rx="1"/>
<line x1="98.6" y1="276.6" x2="98.6" y2="286.4" stroke="#16a34a" stroke-width="1"/><rect x="95.9" y="285.0" width="5.4" height="1.2" fill="#16a34a" opacity="0.82" rx="1"/>
<line x1="107.5" y1="282.4" x2="107.5" y2="291.2" stroke="#16a34a" stroke-width="1"/><rect x="104.8" y="285.0" width="5.4" height="1.2" fill="#16a34a" opacity="0.82" rx="1"/>
<line x1="116.4" y1="282.1" x2="116.4" y2="318.9" stroke="#dc2626" stroke-width="1"/><rect x="113.7" y="284.8" width="5.4" height="13.5" fill="#dc2626" opacity="0.82" rx="1"/>
<line x1="125.3" y1="266.4" x2="125.3" y2="303.8" stroke="#16a34a" stroke-width="1"/><rect x="122.5" y="279.7" width="5.4" height="18.2" fill="#16a34a" opacity="0.82" rx="1"/>
<line x1="134.1" y1="258.9" x2="134.1" y2="299.4" stroke="#dc2626" stroke-width="1"/><rect x="131.4" y="279.9" width="5.4" height="15.9" fill="#dc2626" opacity="0.82" rx="1"/>
<line x1="143.0" y1="264.7" x2="143.0" y2="302.3" stroke="#16a34a" stroke-width="1"/><rect x="140.3" y="266.4" width="5.4" height="29.0" fill="#16a34a" opacity="0.82" rx="1"/>
<line x1="151.9" y1="255.4" x2="151.9" y2="272.8" stroke="#dc2626" stroke-width="1"/><rect x="149.2" y="266.7" width="5.4" height="6.2" fill="#dc2626" opacity="0.82" rx="1"/>
<line x1="160.8" y1="217.7" x2="160.8" y2="278.6" stroke="#16a34a" stroke-width="1"/><rect x="158.0" y="220.6" width="5.4" height="52.2" fill="#16a34a" opacity="0.82" rx="1"/>
<line x1="169.6" y1="203.1" x2="169.6" y2="238.5" stroke="#16a34a" stroke-width="1"/><rect x="166.9" y="205.1" width="5.4" height="15.9" fill="#16a34a" opacity="0.82" rx="1"/>
<line x1="178.5" y1="163.3" x2="178.5" y2="210.4" stroke="#16a34a" stroke-width="1"/><rect x="175.8" y="173.2" width="5.4" height="32.1" fill="#16a34a" opacity="0.82" rx="1"/>
<line x1="187.4" y1="170.6" x2="187.4" y2="190.3" stroke="#dc2626" stroke-width="1"/><rect x="184.7" y="173.2" width="5.4" height="10.6" fill="#dc2626" opacity="0.82" rx="1"/>
<line x1="196.3" y1="169.0" x2="196.3" y2="184.3" stroke="#16a34a" stroke-width="1"/><rect x="193.5" y="173.4" width="5.4" height="10.4" fill="#16a34a" opacity="0.82" rx="1"/>
<line x1="205.1" y1="142.9" x2="205.1" y2="175.7" stroke="#16a34a" stroke-width="1"/><rect x="202.4" y="150.4" width="5.4" height="23.5" fill="#16a34a" opacity="0.82" rx="1"/>
<line x1="214.0" y1="138.7" x2="214.0" y2="173.9" stroke="#dc2626" stroke-width="1"/><rect x="211.3" y="150.4" width="5.4" height="3.1" fill="#dc2626" opacity="0.82" rx="1"/>
<line x1="222.9" y1="153.7" x2="222.9" y2="173.0" stroke="#dc2626" stroke-width="1"/><rect x="220.2" y="153.7" width="5.4" height="9.5" fill="#dc2626" opacity="0.82" rx="1"/>
<line x1="231.8" y1="163.3" x2="231.8" y2="193.8" stroke="#dc2626" stroke-width="1"/><rect x="229.1" y="163.3" width="5.4" height="11.7" fill="#dc2626" opacity="0.82" rx="1"/>
<line x1="240.7" y1="169.9" x2="240.7" y2="183.4" stroke="#16a34a" stroke-width="1"/><rect x="237.9" y="171.7" width="5.4" height="3.1" fill="#16a34a" opacity="0.82" rx="1"/>
<line x1="249.5" y1="167.5" x2="249.5" y2="176.3" stroke="#16a34a" stroke-width="1"/><rect x="246.8" y="170.1" width="5.4" height="1.3" fill="#16a34a" opacity="0.82" rx="1"/>
<line x1="258.4" y1="159.7" x2="258.4" y2="176.5" stroke="#16a34a" stroke-width="1"/><rect x="255.7" y="162.2" width="5.4" height="7.7" fill="#16a34a" opacity="0.82" rx="1"/>
<line x1="267.3" y1="160.8" x2="267.3" y2="219.7" stroke="#dc2626" stroke-width="1"/><rect x="264.6" y="162.4" width="5.4" height="51.1" fill="#dc2626" opacity="0.82" rx="1"/>
<line x1="276.2" y1="199.6" x2="276.2" y2="233.0" stroke="#dc2626" stroke-width="1"/><rect x="273.4" y="213.3" width="5.4" height="6.4" fill="#dc2626" opacity="0.82" rx="1"/>
<line x1="285.0" y1="215.3" x2="285.0" y2="236.8" stroke="#16a34a" stroke-width="1"/><rect x="282.3" y="215.5" width="5.4" height="4.0" fill="#16a34a" opacity="0.82" rx="1"/>
<line x1="293.9" y1="187.4" x2="293.9" y2="221.0" stroke="#16a34a" stroke-width="1"/><rect x="291.2" y="204.4" width="5.4" height="10.8" fill="#16a34a" opacity="0.82" rx="1"/>
<line x1="302.8" y1="185.8" x2="302.8" y2="205.8" stroke="#16a34a" stroke-width="1"/><rect x="300.1" y="190.1" width="5.4" height="14.6" fill="#16a34a" opacity="0.82" rx="1"/>
<line x1="311.7" y1="185.2" x2="311.7" y2="208.9" stroke="#dc2626" stroke-width="1"/><rect x="308.9" y="190.3" width="5.4" height="10.4" fill="#dc2626" opacity="0.82" rx="1"/>
<line x1="320.5" y1="185.8" x2="320.5" y2="200.5" stroke="#16a34a" stroke-width="1"/><rect x="317.8" y="196.7" width="5.4" height="3.8" fill="#16a34a" opacity="0.82" rx="1"/>
<line x1="329.4" y1="195.8" x2="329.4" y2="223.7" stroke="#dc2626" stroke-width="1"/><rect x="326.7" y="196.7" width="5.4" height="23.5" fill="#dc2626" opacity="0.82" rx="1"/>
<line x1="338.3" y1="177.7" x2="338.3" y2="226.8" stroke="#16a34a" stroke-width="1"/><rect x="335.6" y="186.7" width="5.4" height="32.8" fill="#16a34a" opacity="0.82" rx="1"/>
<line x1="347.2" y1="155.5" x2="347.2" y2="197.6" stroke="#16a34a" stroke-width="1"/><rect x="344.4" y="172.3" width="5.4" height="14.2" fill="#16a34a" opacity="0.82" rx="1"/>
<line x1="356.0" y1="157.5" x2="356.0" y2="192.7" stroke="#dc2626" stroke-width="1"/><rect x="353.3" y="171.9" width="5.4" height="18.4" fill="#dc2626" opacity="0.82" rx="1"/>
<line x1="364.9" y1="156.4" x2="364.9" y2="191.6" stroke="#16a34a" stroke-width="1"/><rect x="362.2" y="158.6" width="5.4" height="31.7" fill="#16a34a" opacity="0.82" rx="1"/>
<line x1="373.8" y1="150.0" x2="373.8" y2="163.7" stroke="#dc2626" stroke-width="1"/><rect x="371.1" y="158.4" width="5.4" height="1.2" fill="#dc2626" opacity="0.82" rx="1"/>
<line x1="382.7" y1="151.8" x2="382.7" y2="165.9" stroke="#dc2626" stroke-width="1"/><rect x="380.0" y="158.6" width="5.4" height="3.8" fill="#dc2626" opacity="0.82" rx="1"/>
<line x1="391.6" y1="156.4" x2="391.6" y2="174.1" stroke="#dc2626" stroke-width="1"/><rect x="388.8" y="162.8" width="5.4" height="11.3" fill="#dc2626" opacity="0.82" rx="1"/>
<line x1="400.4" y1="164.2" x2="400.4" y2="179.2" stroke="#16a34a" stroke-width="1"/><rect x="397.7" y="173.4" width="5.4" height="1.2" fill="#16a34a" opacity="0.82" rx="1"/>
<line x1="409.3" y1="167.7" x2="409.3" y2="175.4" stroke="#16a34a" stroke-width="1"/><rect x="406.6" y="169.2" width="5.4" height="3.8" fill="#16a34a" opacity="0.82" rx="1"/>
<line x1="418.2" y1="167.7" x2="418.2" y2="172.3" stroke="#16a34a" stroke-width="1"/><rect x="415.5" y="168.4" width="5.4" height="1.3" fill="#16a34a" opacity="0.82" rx="1"/>
<line x1="427.1" y1="157.7" x2="427.1" y2="168.8" stroke="#16a34a" stroke-width="1"/><rect x="424.3" y="161.9" width="5.4" height="6.4" fill="#16a34a" opacity="0.82" rx="1"/>
<line x1="435.9" y1="159.5" x2="435.9" y2="169.7" stroke="#dc2626" stroke-width="1"/><rect x="433.2" y="161.5" width="5.4" height="7.3" fill="#dc2626" opacity="0.82" rx="1"/>
<line x1="444.8" y1="165.3" x2="444.8" y2="186.3" stroke="#dc2626" stroke-width="1"/><rect x="442.1" y="169.0" width="5.4" height="6.2" fill="#dc2626" opacity="0.82" rx="1"/>
<line x1="453.7" y1="161.1" x2="453.7" y2="175.0" stroke="#16a34a" stroke-width="1"/><rect x="451.0" y="171.0" width="5.4" height="4.0" fill="#16a34a" opacity="0.82" rx="1"/>
<line x1="462.6" y1="166.8" x2="462.6" y2="180.1" stroke="#dc2626" stroke-width="1"/><rect x="459.8" y="171.0" width="5.4" height="5.3" fill="#dc2626" opacity="0.82" rx="1"/>
<line x1="471.4" y1="172.3" x2="471.4" y2="183.6" stroke="#dc2626" stroke-width="1"/><rect x="468.7" y="176.1" width="5.4" height="4.0" fill="#dc2626" opacity="0.82" rx="1"/>
<line x1="480.3" y1="177.7" x2="480.3" y2="185.0" stroke="#dc2626" stroke-width="1"/><rect x="477.6" y="180.3" width="5.4" height="1.2" fill="#dc2626" opacity="0.82" rx="1"/>
<line x1="489.2" y1="176.8" x2="489.2" y2="183.9" stroke="#dc2626" stroke-width="1"/><rect x="486.5" y="181.0" width="5.4" height="1.2" fill="#dc2626" opacity="0.82" rx="1"/>
<line x1="498.1" y1="181.2" x2="498.1" y2="187.0" stroke="#dc2626" stroke-width="1"/><rect x="495.3" y="182.5" width="5.4" height="2.4" fill="#dc2626" opacity="0.82" rx="1"/>
<line x1="506.9" y1="179.9" x2="506.9" y2="186.5" stroke="#16a34a" stroke-width="1"/><rect x="504.2" y="181.6" width="5.4" height="3.5" fill="#16a34a" opacity="0.82" rx="1"/>
<line x1="515.8" y1="180.8" x2="515.8" y2="200.7" stroke="#dc2626" stroke-width="1"/><rect x="513.1" y="181.9" width="5.4" height="8.6" fill="#dc2626" opacity="0.82" rx="1"/>
<line x1="524.7" y1="186.7" x2="524.7" y2="191.6" stroke="#16a34a" stroke-width="1"/><rect x="522.0" y="188.1" width="5.4" height="2.7" fill="#16a34a" opacity="0.82" rx="1"/>
<line x1="533.6" y1="183.4" x2="533.6" y2="190.3" stroke="#16a34a" stroke-width="1"/><rect x="530.9" y="185.4" width="5.4" height="2.9" fill="#16a34a" opacity="0.82" rx="1"/>
<line x1="542.4" y1="172.6" x2="542.4" y2="185.6" stroke="#16a34a" stroke-width="1"/><rect x="539.7" y="173.9" width="5.4" height="11.5" fill="#16a34a" opacity="0.82" rx="1"/>
<line x1="551.3" y1="172.6" x2="551.3" y2="182.1" stroke="#dc2626" stroke-width="1"/><rect x="548.6" y="173.7" width="5.4" height="6.6" fill="#dc2626" opacity="0.82" rx="1"/>
<line x1="560.2" y1="177.4" x2="560.2" y2="183.9" stroke="#16a34a" stroke-width="1"/><rect x="557.5" y="178.1" width="5.4" height="2.0" fill="#16a34a" opacity="0.82" rx="1"/>
<line x1="569.1" y1="163.9" x2="569.1" y2="179.4" stroke="#16a34a" stroke-width="1"/><rect x="566.4" y="165.9" width="5.4" height="12.2" fill="#16a34a" opacity="0.82" rx="1"/>
<line x1="578.0" y1="159.5" x2="578.0" y2="175.7" stroke="#dc2626" stroke-width="1"/><rect x="575.2" y="165.5" width="5.4" height="4.4" fill="#dc2626" opacity="0.82" rx="1"/>
<line x1="586.8" y1="165.7" x2="586.8" y2="174.8" stroke="#16a34a" stroke-width="1"/><rect x="584.1" y="167.9" width="5.4" height="2.0" fill="#16a34a" opacity="0.82" rx="1"/>
<line x1="595.7" y1="155.3" x2="595.7" y2="168.1" stroke="#16a34a" stroke-width="1"/><rect x="593.0" y="157.5" width="5.4" height="10.4" fill="#16a34a" opacity="0.82" rx="1"/>
<line x1="604.6" y1="155.1" x2="604.6" y2="159.3" stroke="#16a34a" stroke-width="1"/><rect x="601.9" y="155.7" width="5.4" height="2.0" fill="#16a34a" opacity="0.82" rx="1"/>
<line x1="613.5" y1="155.1" x2="613.5" y2="159.3" stroke="#dc2626" stroke-width="1"/><rect x="610.7" y="155.7" width="5.4" height="2.4" fill="#dc2626" opacity="0.82" rx="1"/>
<line x1="622.3" y1="154.6" x2="622.3" y2="160.4" stroke="#16a34a" stroke-width="1"/><rect x="619.6" y="155.7" width="5.4" height="2.2" fill="#16a34a" opacity="0.82" rx="1"/>
<line x1="631.2" y1="154.4" x2="631.2" y2="161.1" stroke="#16a34a" stroke-width="1"/><rect x="628.5" y="156.2" width="5.4" height="1.2" fill="#16a34a" opacity="0.82" rx="1"/>
<line x1="640.1" y1="154.6" x2="640.1" y2="159.5" stroke="#dc2626" stroke-width="1"/><rect x="637.4" y="156.6" width="5.4" height="2.4" fill="#dc2626" opacity="0.82" rx="1"/>
<line x1="649.0" y1="154.6" x2="649.0" y2="163.5" stroke="#16a34a" stroke-width="1"/><rect x="646.2" y="155.3" width="5.4" height="3.5" fill="#16a34a" opacity="0.82" rx="1"/>
<line x1="657.8" y1="149.1" x2="657.8" y2="156.0" stroke="#16a34a" stroke-width="1"/><rect x="655.1" y="150.6" width="5.4" height="4.4" fill="#16a34a" opacity="0.82" rx="1"/>
<line x1="666.7" y1="142.9" x2="666.7" y2="153.7" stroke="#16a34a" stroke-width="1"/><rect x="664.0" y="143.1" width="5.4" height="7.7" fill="#16a34a" opacity="0.82" rx="1"/>
<line x1="675.6" y1="140.9" x2="675.6" y2="150.6" stroke="#dc2626" stroke-width="1"/><rect x="672.9" y="143.1" width="5.4" height="2.0" fill="#dc2626" opacity="0.82" rx="1"/>
<line x1="684.5" y1="142.7" x2="684.5" y2="155.5" stroke="#dc2626" stroke-width="1"/><rect x="681.8" y="144.9" width="5.4" height="8.0" fill="#dc2626" opacity="0.82" rx="1"/>
<line x1="693.3" y1="148.9" x2="693.3" y2="154.0" stroke="#16a34a" stroke-width="1"/><rect x="690.6" y="151.8" width="5.4" height="1.3" fill="#16a34a" opacity="0.82" rx="1"/>
<line x1="702.2" y1="136.5" x2="702.2" y2="152.9" stroke="#16a34a" stroke-width="1"/><rect x="699.5" y="138.0" width="5.4" height="13.9" fill="#16a34a" opacity="0.82" rx="1"/>
<line x1="711.1" y1="115.4" x2="711.1" y2="141.1" stroke="#16a34a" stroke-width="1"/><rect x="708.4" y="129.2" width="5.4" height="8.6" fill="#16a34a" opacity="0.82" rx="1"/>
<line x1="720.0" y1="118.8" x2="720.0" y2="135.1" stroke="#dc2626" stroke-width="1"/><rect x="717.3" y="129.2" width="5.4" height="3.3" fill="#dc2626" opacity="0.82" rx="1"/>
<line x1="728.9" y1="120.8" x2="728.9" y2="138.2" stroke="#16a34a" stroke-width="1"/><rect x="726.1" y="120.8" width="5.4" height="11.7" fill="#16a34a" opacity="0.82" rx="1"/>
<line x1="737.7" y1="112.3" x2="737.7" y2="135.1" stroke="#dc2626" stroke-width="1"/><rect x="735.0" y="120.8" width="5.4" height="10.6" fill="#dc2626" opacity="0.82" rx="1"/>
<line x1="746.6" y1="118.5" x2="746.6" y2="132.5" stroke="#16a34a" stroke-width="1"/><rect x="743.9" y="123.0" width="5.4" height="8.0" fill="#16a34a" opacity="0.82" rx="1"/>
<line x1="755.5" y1="121.4" x2="755.5" y2="143.1" stroke="#dc2626" stroke-width="1"/><rect x="752.8" y="123.0" width="5.4" height="17.5" fill="#dc2626" opacity="0.82" rx="1"/>
<line x1="764.4" y1="130.7" x2="764.4" y2="144.9" stroke="#16a34a" stroke-width="1"/><rect x="761.6" y="133.8" width="5.4" height="6.9" fill="#16a34a" opacity="0.82" rx="1"/>
<line x1="773.2" y1="128.3" x2="773.2" y2="146.9" stroke="#dc2626" stroke-width="1"/><rect x="770.5" y="134.0" width="5.4" height="1.3" fill="#dc2626" opacity="0.82" rx="1"/>
<line x1="782.1" y1="115.9" x2="782.1" y2="135.4" stroke="#16a34a" stroke-width="1"/><rect x="779.4" y="121.4" width="5.4" height="13.7" fill="#16a34a" opacity="0.82" rx="1"/>
<line x1="791.0" y1="118.1" x2="791.0" y2="138.2" stroke="#dc2626" stroke-width="1"/><rect x="788.3" y="121.4" width="5.4" height="14.6" fill="#dc2626" opacity="0.82" rx="1"/>
<line x1="799.9" y1="135.1" x2="799.9" y2="151.8" stroke="#dc2626" stroke-width="1"/><rect x="797.1" y="136.3" width="5.4" height="10.4" fill="#dc2626" opacity="0.82" rx="1"/>
<line x1="808.7" y1="141.8" x2="808.7" y2="149.5" stroke="#16a34a" stroke-width="1"/><rect x="806.0" y="141.8" width="5.4" height="4.9" fill="#16a34a" opacity="0.82" rx="1"/>
<line x1="817.6" y1="141.3" x2="817.6" y2="153.7" stroke="#dc2626" stroke-width="1"/><rect x="814.9" y="142.0" width="5.4" height="10.0" fill="#dc2626" opacity="0.82" rx="1"/>
<line x1="826.5" y1="140.7" x2="826.5" y2="159.7" stroke="#16a34a" stroke-width="1"/><rect x="823.8" y="144.2" width="5.4" height="7.3" fill="#16a34a" opacity="0.82" rx="1"/>
<line x1="835.4" y1="88.7" x2="835.4" y2="147.3" stroke="#16a34a" stroke-width="1"/><rect x="832.6" y="92.6" width="5.4" height="51.4" fill="#16a34a" opacity="0.82" rx="1"/>
<line x1="844.2" y1="82.5" x2="844.2" y2="107.0" stroke="#dc2626" stroke-width="1"/><rect x="841.5" y="92.2" width="5.4" height="12.6" fill="#dc2626" opacity="0.82" rx="1"/>
<line x1="853.1" y1="96.2" x2="853.1" y2="140.7" stroke="#16a34a" stroke-width="1"/><rect x="850.4" y="103.7" width="5.4" height="1.2" fill="#16a34a" opacity="0.82" rx="1"/>
<line x1="862.0" y1="99.7" x2="862.0" y2="122.5" stroke="#dc2626" stroke-width="1"/><rect x="859.3" y="104.2" width="5.4" height="7.1" fill="#dc2626" opacity="0.82" rx="1"/>
<line x1="72" y1="144.9" x2="862" y2="144.9" stroke="#16a34a" stroke-width="1.8" stroke-dasharray="6 4" /><rect x="874" y="124.9" width="166" height="23" rx="5" fill="#ffffff" stroke="#16a34a" opacity="0.97"/><text x="881" y="140.9" fill="#16a34a" font-size="15" font-weight="700">日内支撑 66.41</text>
<line x1="72" y1="55.1" x2="862" y2="55.1" stroke="#dc2626" stroke-width="1.8" stroke-dasharray="6 4" /><rect x="874" y="35.1" width="166" height="23" rx="5" fill="#ffffff" stroke="#dc2626" opacity="0.97"/><text x="881" y="51.1" fill="#dc2626" font-size="15" font-weight="700">日内压力 70.47</text>
<line x1="72" y1="111.2" x2="862" y2="111.2" stroke="#111827" stroke-width="1.8" stroke-dasharray="2 2" /><rect x="874" y="91.2" width="166" height="23" rx="5" fill="#ffffff" stroke="#111827" opacity="0.97"/><text x="881" y="107.2" fill="#111827" font-size="15" font-weight="700">现价 67.93</text>
<text x="72" y="396" fill="#16a34a" font-size="14" font-weight="700">日内做多计划</text><rect x="72" y="404" width="790" height="48" rx="6" fill="#f9fafb" stroke="#e5e7eb"/><line x1="94" y1="412" x2="840" y2="412" stroke="#16a34a" stroke-width="3"/><circle cx="132.0" cy="412" r="5" fill="#16a34a"/><text x="132.0" y="434" fill="#374151" font-size="12" text-anchor="middle">入场 止跌/突破回踩</text><circle cx="451.2" cy="412" r="5" fill="#16a34a"/><text x="451.2" y="434" fill="#374151" font-size="12" text-anchor="middle">止损 66.41</text><circle cx="712.0" cy="412" r="5" fill="#16a34a"/><text x="712.0" y="434" fill="#374151" font-size="12" text-anchor="middle">目标一 70.47</text><circle cx="814.0" cy="412" r="5" fill="#16a34a"/><text x="814.0" y="434" fill="#374151" font-size="12" text-anchor="middle">目标二 71.48</text>
<text x="72" y="482" fill="#dc2626" font-size="14" font-weight="700">日内做空计划</text><rect x="72" y="490" width="790" height="48" rx="6" fill="#f9fafb" stroke="#e5e7eb"/><line x1="94" y1="498" x2="840" y2="498" stroke="#dc2626" stroke-width="3"/><circle cx="132.0" cy="498" r="5" fill="#dc2626"/><text x="132.0" y="520" fill="#374151" font-size="12" text-anchor="middle">入场 反弹承压/破位回抽</text><circle cx="451.2" cy="498" r="5" fill="#dc2626"/><text x="451.2" y="520" fill="#374151" font-size="12" text-anchor="middle">止损 70.47</text><circle cx="712.0" cy="498" r="5" fill="#dc2626"/><text x="712.0" y="520" fill="#374151" font-size="12" text-anchor="middle">目标一 66.41</text><circle cx="814.0" cy="498" r="5" fill="#dc2626"/><text x="814.0" y="520" fill="#374151" font-size="12" text-anchor="middle">目标二 65.39</text>
</svg>