<svg xmlns="http://www.w3.org/2000/svg" width="1080" height="560" viewBox="0 0 1080 560">
<rect width="100%" height="100%" fill="#ffffff"/>
<text x="72" y="23" fill="#111827" font-size="21" font-weight="800">BTC 日线K线支撑压力图</text>
<text x="862" y="42" fill="#374151" font-size="15" text-anchor="end">最新价 65,679</text>
<line x1="72" y1="34" x2="72" y2="340" stroke="#d1d5db"/>
<line x1="72" y1="340" x2="862" y2="340" stroke="#d1d5db"/>
<line x1="72" y1="340.0" x2="862" y2="340.0" stroke="#f3f4f6"/>
<text x="8" y="345.0" fill="#4b5563" font-size="14">57,180</text>
<line x1="72" y1="263.5" x2="862" y2="263.5" stroke="#f3f4f6"/>
<text x="8" y="268.5" fill="#4b5563" font-size="14">64,067</text>
<line x1="72" y1="187.0" x2="862" y2="187.0" stroke="#f3f4f6"/>
<text x="8" y="192.0" fill="#4b5563" font-size="14">70,954</text>
<line x1="72" y1="110.5" x2="862" y2="110.5" stroke="#f3f4f6"/>
<text x="8" y="115.5" fill="#4b5563" font-size="14">77,841</text>
<line x1="72" y1="34.0" x2="862" y2="34.0" stroke="#f3f4f6"/>
<text x="8" y="39.0" fill="#4b5563" font-size="14">84,729</text>
<line x1="72.0" y1="146.1" x2="72.0" y2="192.5" stroke="#dc2626" stroke-width="1"/><rect x="69.3" y="154.6" width="5.4" height="29.7" fill="#dc2626" opacity="0.82" rx="1"/>
<line x1="80.9" y1="179.8" x2="80.9" y2="211.5" stroke="#dc2626" stroke-width="1"/><rect x="78.2" y="184.2" width="5.4" height="14.6" fill="#dc2626" opacity="0.82" rx="1"/>
<line x1="89.8" y1="182.7" x2="89.8" y2="204.8" stroke="#16a34a" stroke-width="1"/><rect x="87.0" y="192.4" width="5.4" height="6.5" fill="#16a34a" opacity="0.82" rx="1"/>
<line x1="98.6" y1="185.6" x2="98.6" y2="214.1" stroke="#dc2626" stroke-width="1"/><rect x="95.9" y="192.4" width="5.4" height="17.7" fill="#dc2626" opacity="0.82" rx="1"/>
<line x1="107.5" y1="202.5" x2="107.5" y2="227.6" stroke="#dc2626" stroke-width="1"/><rect x="104.8" y="210.0" width="5.4" height="11.7" fill="#dc2626" opacity="0.82" rx="1"/>
<line x1="116.4" y1="177.7" x2="116.4" y2="226.5" stroke="#16a34a" stroke-width="1"/><rect x="113.7" y="188.0" width="5.4" height="33.7" fill="#16a34a" opacity="0.82" rx="1"/>
<line x1="125.3" y1="182.3" x2="125.3" y2="210.0" stroke="#dc2626" stroke-width="1"/><rect x="122.5" y="188.0" width="5.4" height="3.8" fill="#dc2626" opacity="0.82" rx="1"/>
<line x1="134.1" y1="175.4" x2="134.1" y2="193.4" stroke="#16a34a" stroke-width="1"/><rect x="131.4" y="183.2" width="5.4" height="8.6" fill="#16a34a" opacity="0.82" rx="1"/>
<line x1="143.0" y1="182.0" x2="143.0" y2="218.5" stroke="#dc2626" stroke-width="1"/><rect x="140.3" y="183.2" width="5.4" height="27.9" fill="#dc2626" opacity="0.82" rx="1"/>
<line x1="151.9" y1="207.1" x2="151.9" y2="247.6" stroke="#dc2626" stroke-width="1"/><rect x="149.2" y="211.1" width="5.4" height="26.9" fill="#dc2626" opacity="0.82" rx="1"/>
<line x1="160.8" y1="227.8" x2="160.8" y2="243.3" stroke="#dc2626" stroke-width="1"/><rect x="158.0" y="238.0" width="5.4" height="1.2" fill="#dc2626" opacity="0.82" rx="1"/>
<line x1="169.6" y1="229.8" x2="169.6" y2="254.0" stroke="#dc2626" stroke-width="1"/><rect x="166.9" y="238.3" width="5.4" height="4.0" fill="#dc2626" opacity="0.82" rx="1"/>
<line x1="178.5" y1="218.2" x2="178.5" y2="244.8" stroke="#16a34a" stroke-width="1"/><rect x="175.8" y="233.5" width="5.4" height="8.7" fill="#16a34a" opacity="0.82" rx="1"/>
<line x1="187.4" y1="213.2" x2="187.4" y2="242.7" stroke="#16a34a" stroke-width="1"/><rect x="184.7" y="217.1" width="5.4" height="16.4" fill="#16a34a" opacity="0.82" rx="1"/>
<line x1="196.3" y1="205.5" x2="196.3" y2="225.0" stroke="#dc2626" stroke-width="1"/><rect x="193.5" y="217.1" width="5.4" height="1.7" fill="#dc2626" opacity="0.82" rx="1"/>
<line x1="205.1" y1="212.7" x2="205.1" y2="245.6" stroke="#dc2626" stroke-width="1"/><rect x="202.4" y="218.9" width="5.4" height="13.5" fill="#dc2626" opacity="0.82" rx="1"/>
<line x1="214.0" y1="227.0" x2="214.0" y2="239.4" stroke="#16a34a" stroke-width="1"/><rect x="211.3" y="231.7" width="5.4" height="1.2" fill="#16a34a" opacity="0.82" rx="1"/>
<line x1="222.9" y1="224.8" x2="222.9" y2="233.8" stroke="#16a34a" stroke-width="1"/><rect x="220.2" y="227.9" width="5.4" height="3.8" fill="#16a34a" opacity="0.82" rx="1"/>
<line x1="231.8" y1="207.5" x2="231.8" y2="235.6" stroke="#16a34a" stroke-width="1"/><rect x="229.1" y="208.7" width="5.4" height="19.2" fill="#16a34a" opacity="0.82" rx="1"/>
<line x1="240.7" y1="193.9" x2="240.7" y2="217.3" stroke="#dc2626" stroke-width="1"/><rect x="237.9" y="208.7" width="5.4" height="2.0" fill="#dc2626" opacity="0.82" rx="1"/>
<line x1="249.5" y1="167.1" x2="249.5" y2="223.0" stroke="#16a34a" stroke-width="1"/><rect x="246.8" y="176.6" width="5.4" height="34.1" fill="#16a34a" opacity="0.82" rx="1"/>
<line x1="258.4" y1="165.8" x2="258.4" y2="190.1" stroke="#dc2626" stroke-width="1"/><rect x="255.7" y="176.6" width="5.4" height="9.5" fill="#dc2626" opacity="0.82" rx="1"/>
<line x1="267.3" y1="162.9" x2="267.3" y2="192.8" stroke="#16a34a" stroke-width="1"/><rect x="264.6" y="178.2" width="5.4" height="7.9" fill="#16a34a" opacity="0.82" rx="1"/>
<line x1="276.2" y1="159.3" x2="276.2" y2="182.2" stroke="#16a34a" stroke-width="1"/><rect x="273.4" y="165.2" width="5.4" height="13.0" fill="#16a34a" opacity="0.82" rx="1"/>
<line x1="285.0" y1="155.7" x2="285.0" y2="170.4" stroke="#16a34a" stroke-width="1"/><rect x="282.3" y="164.1" width="5.4" height="1.2" fill="#16a34a" opacity="0.82" rx="1"/>
<line x1="293.9" y1="163.2" x2="293.9" y2="192.5" stroke="#dc2626" stroke-width="1"/><rect x="291.2" y="164.1" width="5.4" height="25.6" fill="#dc2626" opacity="0.82" rx="1"/>
<line x1="302.8" y1="143.5" x2="302.8" y2="191.9" stroke="#16a34a" stroke-width="1"/><rect x="300.1" y="148.9" width="5.4" height="40.8" fill="#16a34a" opacity="0.82" rx="1"/>
<line x1="311.7" y1="130.9" x2="311.7" y2="155.8" stroke="#dc2626" stroke-width="1"/><rect x="308.9" y="148.9" width="5.4" height="3.1" fill="#dc2626" opacity="0.82" rx="1"/>
<line x1="320.5" y1="137.3" x2="320.5" y2="159.3" stroke="#16a34a" stroke-width="1"/><rect x="317.8" y="144.5" width="5.4" height="7.4" fill="#16a34a" opacity="0.82" rx="1"/>
<line x1="329.4" y1="136.5" x2="329.4" y2="161.4" stroke="#16a34a" stroke-width="1"/><rect x="326.7" y="140.9" width="5.4" height="3.7" fill="#16a34a" opacity="0.82" rx="1"/>
<line x1="338.3" y1="105.4" x2="338.3" y2="147.8" stroke="#16a34a" stroke-width="1"/><rect x="335.6" y="119.5" width="5.4" height="21.4" fill="#16a34a" opacity="0.82" rx="1"/>
<line x1="347.2" y1="115.6" x2="347.2" y2="137.7" stroke="#dc2626" stroke-width="1"/><rect x="344.4" y="119.5" width="5.4" height="15.3" fill="#dc2626" opacity="0.82" rx="1"/>
<line x1="356.0" y1="128.7" x2="356.0" y2="156.5" stroke="#dc2626" stroke-width="1"/><rect x="353.3" y="134.8" width="5.4" height="21.1" fill="#dc2626" opacity="0.82" rx="1"/>
<line x1="364.9" y1="125.1" x2="364.9" y2="156.8" stroke="#16a34a" stroke-width="1"/><rect x="362.2" y="133.3" width="5.4" height="22.6" fill="#16a34a" opacity="0.82" rx="1"/>
<line x1="373.8" y1="119.9" x2="373.8" y2="144.5" stroke="#16a34a" stroke-width="1"/><rect x="371.1" y="127.8" width="5.4" height="5.5" fill="#16a34a" opacity="0.82" rx="1"/>
<line x1="382.7" y1="92.7" x2="382.7" y2="130.1" stroke="#16a34a" stroke-width="1"/><rect x="380.0" y="107.2" width="5.4" height="20.6" fill="#16a34a" opacity="0.82" rx="1"/>
<line x1="391.6" y1="101.5" x2="391.6" y2="125.3" stroke="#16a34a" stroke-width="1"/><rect x="388.8" y="106.3" width="5.4" height="1.2" fill="#16a34a" opacity="0.82" rx="1"/>
<line x1="400.4" y1="102.7" x2="400.4" y2="117.5" stroke="#dc2626" stroke-width="1"/><rect x="397.7" y="106.3" width="5.4" height="9.1" fill="#dc2626" opacity="0.82" rx="1"/>
<line x1="409.3" y1="110.4" x2="409.3" y2="118.7" stroke="#16a34a" stroke-width="1"/><rect x="406.6" y="113.3" width="5.4" height="2.1" fill="#16a34a" opacity="0.82" rx="1"/>
<line x1="418.2" y1="97.7" x2="418.2" y2="116.7" stroke="#16a34a" stroke-width="1"/><rect x="415.5" y="101.9" width="5.4" height="11.4" fill="#16a34a" opacity="0.82" rx="1"/>
<line x1="427.1" y1="92.6" x2="427.1" y2="126.5" stroke="#dc2626" stroke-width="1"/><rect x="424.3" y="101.9" width="5.4" height="14.3" fill="#dc2626" opacity="0.82" rx="1"/>
<line x1="435.9" y1="114.8" x2="435.9" y2="135.0" stroke="#dc2626" stroke-width="1"/><rect x="433.2" y="116.2" width="5.4" height="11.5" fill="#dc2626" opacity="0.82" rx="1"/>
<line x1="444.8" y1="110.1" x2="444.8" y2="143.5" stroke="#dc2626" stroke-width="1"/><rect x="442.1" y="127.6" width="5.4" height="6.1" fill="#dc2626" opacity="0.82" rx="1"/>
<line x1="453.7" y1="124.0" x2="453.7" y2="139.0" stroke="#16a34a" stroke-width="1"/><rect x="451.0" y="127.6" width="5.4" height="6.2" fill="#16a34a" opacity="0.82" rx="1"/>
<line x1="462.6" y1="99.0" x2="462.6" y2="128.0" stroke="#16a34a" stroke-width="1"/><rect x="459.8" y="106.6" width="5.4" height="21.0" fill="#16a34a" opacity="0.82" rx="1"/>
<line x1="471.4" y1="96.0" x2="471.4" y2="109.0" stroke="#16a34a" stroke-width="1"/><rect x="468.7" y="101.5" width="5.4" height="5.1" fill="#16a34a" opacity="0.82" rx="1"/>
<line x1="480.3" y1="92.9" x2="480.3" y2="108.4" stroke="#dc2626" stroke-width="1"/><rect x="477.6" y="101.5" width="5.4" height="1.4" fill="#dc2626" opacity="0.82" rx="1"/>
<line x1="489.2" y1="78.0" x2="489.2" y2="107.3" stroke="#16a34a" stroke-width="1"/><rect x="486.5" y="88.5" width="5.4" height="14.4" fill="#16a34a" opacity="0.82" rx="1"/>
<line x1="498.1" y1="67.1" x2="498.1" y2="89.2" stroke="#16a34a" stroke-width="1"/><rect x="495.3" y="77.0" width="5.4" height="11.5" fill="#16a34a" opacity="0.82" rx="1"/>
<line x1="506.9" y1="55.1" x2="506.9" y2="79.3" stroke="#16a34a" stroke-width="1"/><rect x="504.2" y="71.1" width="5.4" height="5.9" fill="#16a34a" opacity="0.82" rx="1"/>
<line x1="515.8" y1="67.9" x2="515.8" y2="92.5" stroke="#dc2626" stroke-width="1"/><rect x="513.1" y="71.1" width="5.4" height="15.8" fill="#dc2626" opacity="0.82" rx="1"/>
<line x1="524.7" y1="81.2" x2="524.7" y2="96.1" stroke="#16a34a" stroke-width="1"/><rect x="522.0" y="84.8" width="5.4" height="2.1" fill="#16a34a" opacity="0.82" rx="1"/>
<line x1="533.6" y1="74.9" x2="533.6" y2="85.6" stroke="#16a34a" stroke-width="1"/><rect x="530.9" y="79.5" width="5.4" height="5.3" fill="#16a34a" opacity="0.82" rx="1"/>
<line x1="542.4" y1="59.2" x2="542.4" y2="84.0" stroke="#16a34a" stroke-width="1"/><rect x="539.7" y="62.3" width="5.4" height="17.1" fill="#16a34a" opacity="0.82" rx="1"/>
<line x1="551.3" y1="60.4" x2="551.3" y2="82.1" stroke="#dc2626" stroke-width="1"/><rect x="548.6" y="62.3" width="5.4" height="5.3" fill="#dc2626" opacity="0.82" rx="1"/>
<line x1="560.2" y1="67.0" x2="560.2" y2="88.7" stroke="#dc2626" stroke-width="1"/><rect x="557.5" y="67.7" width="5.4" height="13.8" fill="#dc2626" opacity="0.82" rx="1"/>
<line x1="569.1" y1="72.4" x2="569.1" y2="100.8" stroke="#dc2626" stroke-width="1"/><rect x="566.4" y="81.4" width="5.4" height="13.0" fill="#dc2626" opacity="0.82" rx="1"/>
<line x1="578.0" y1="64.3" x2="578.0" y2="99.1" stroke="#16a34a" stroke-width="1"/><rect x="575.2" y="74.9" width="5.4" height="19.6" fill="#16a34a" opacity="0.82" rx="1"/>
<line x1="586.8" y1="68.5" x2="586.8" y2="102.0" stroke="#dc2626" stroke-width="1"/><rect x="584.1" y="74.9" width="5.4" height="21.9" fill="#dc2626" opacity="0.82" rx="1"/>
<line x1="595.7" y1="95.4" x2="595.7" y2="113.2" stroke="#dc2626" stroke-width="1"/><rect x="593.0" y="96.8" width="5.4" height="10.8" fill="#dc2626" opacity="0.82" rx="1"/>
<line x1="604.6" y1="102.5" x2="604.6" y2="123.6" stroke="#dc2626" stroke-width="1"/><rect x="601.9" y="107.6" width="5.4" height="7.5" fill="#dc2626" opacity="0.82" rx="1"/>
<line x1="613.5" y1="111.4" x2="613.5" y2="130.8" stroke="#dc2626" stroke-width="1"/><rect x="610.7" y="115.1" width="5.4" height="5.2" fill="#dc2626" opacity="0.82" rx="1"/>
<line x1="622.3" y1="115.6" x2="622.3" y2="129.8" stroke="#dc2626" stroke-width="1"/><rect x="619.6" y="120.3" width="5.4" height="1.8" fill="#dc2626" opacity="0.82" rx="1"/>
<line x1="631.2" y1="110.7" x2="631.2" y2="125.6" stroke="#16a34a" stroke-width="1"/><rect x="628.5" y="114.2" width="5.4" height="7.9" fill="#16a34a" opacity="0.82" rx="1"/>
<line x1="640.1" y1="106.7" x2="640.1" y2="123.2" stroke="#16a34a" stroke-width="1"/><rect x="637.4" y="113.3" width="5.4" height="1.2" fill="#16a34a" opacity="0.82" rx="1"/>
<line x1="649.0" y1="110.3" x2="649.0" y2="138.5" stroke="#dc2626" stroke-width="1"/><rect x="646.2" y="113.3" width="5.4" height="23.0" fill="#dc2626" opacity="0.82" rx="1"/>
<line x1="657.8" y1="115.1" x2="657.8" y2="150.9" stroke="#16a34a" stroke-width="1"/><rect x="655.1" y="123.0" width="5.4" height="13.4" fill="#16a34a" opacity="0.82" rx="1"/>
<line x1="666.7" y1="113.2" x2="666.7" y2="130.3" stroke="#16a34a" stroke-width="1"/><rect x="664.0" y="119.5" width="5.4" height="3.5" fill="#16a34a" opacity="0.82" rx="1"/>
<line x1="675.6" y1="110.0" x2="675.6" y2="121.3" stroke="#16a34a" stroke-width="1"/><rect x="672.9" y="116.7" width="5.4" height="2.8" fill="#16a34a" opacity="0.82" rx="1"/>
<line x1="684.5" y1="107.9" x2="684.5" y2="134.9" stroke="#dc2626" stroke-width="1"/><rect x="681.8" y="116.7" width="5.4" height="15.3" fill="#dc2626" opacity="0.82" rx="1"/>
<line x1="693.3" y1="129.2" x2="693.3" y2="150.8" stroke="#dc2626" stroke-width="1"/><rect x="690.6" y="132.0" width="5.4" height="16.5" fill="#dc2626" opacity="0.82" rx="1"/>
<line x1="702.2" y1="146.9" x2="702.2" y2="169.2" stroke="#dc2626" stroke-width="1"/><rect x="699.5" y="148.5" width="5.4" height="9.2" fill="#dc2626" opacity="0.82" rx="1"/>
<line x1="711.1" y1="149.9" x2="711.1" y2="170.5" stroke="#dc2626" stroke-width="1"/><rect x="708.4" y="157.7" width="5.4" height="1.8" fill="#dc2626" opacity="0.82" rx="1"/>
<line x1="720.0" y1="152.0" x2="720.0" y2="162.8" stroke="#16a34a" stroke-width="1"/><rect x="717.3" y="154.8" width="5.4" height="4.8" fill="#16a34a" opacity="0.82" rx="1"/>
<line x1="728.9" y1="150.4" x2="728.9" y2="160.5" stroke="#dc2626" stroke-width="1"/><rect x="726.1" y="154.8" width="5.4" height="2.3" fill="#dc2626" opacity="0.82" rx="1"/>
<line x1="737.7" y1="152.4" x2="737.7" y2="190.4" stroke="#dc2626" stroke-width="1"/><rect x="735.0" y="157.0" width="5.4" height="25.1" fill="#dc2626" opacity="0.82" rx="1"/>
<line x1="746.6" y1="182.1" x2="746.6" y2="240.4" stroke="#dc2626" stroke-width="1"/><rect x="743.9" y="182.1" width="5.4" height="51.8" fill="#dc2626" opacity="0.82" rx="1"/>
<line x1="755.5" y1="225.4" x2="755.5" y2="263.7" stroke="#dc2626" stroke-width="1"/><rect x="752.8" y="233.9" width="5.4" height="29.0" fill="#dc2626" opacity="0.82" rx="1"/>
<line x1="764.4" y1="256.0" x2="764.4" y2="293.7" stroke="#dc2626" stroke-width="1"/><rect x="761.6" y="262.9" width="5.4" height="2.9" fill="#dc2626" opacity="0.82" rx="1"/>
<line x1="773.2" y1="264.7" x2="773.2" y2="318.9" stroke="#dc2626" stroke-width="1"/><rect x="770.5" y="265.9" width="5.4" height="31.5" fill="#dc2626" opacity="0.82" rx="1"/>
<line x1="782.1" y1="292.0" x2="782.1" y2="314.8" stroke="#dc2626" stroke-width="1"/><rect x="779.4" y="297.3" width="5.4" height="1.9" fill="#dc2626" opacity="0.82" rx="1"/>
<line x1="791.0" y1="261.5" x2="791.0" y2="300.8" stroke="#16a34a" stroke-width="1"/><rect x="788.3" y="272.0" width="5.4" height="27.2" fill="#16a34a" opacity="0.82" rx="1"/>
<line x1="799.9" y1="262.3" x2="799.9" y2="282.3" stroke="#dc2626" stroke-width="1"/><rect x="797.1" y="272.0" width="5.4" height="2.7" fill="#dc2626" opacity="0.82" rx="1"/>
<line x1="808.7" y1="269.8" x2="808.7" y2="300.3" stroke="#dc2626" stroke-width="1"/><rect x="806.0" y="274.7" width="5.4" height="15.1" fill="#dc2626" opacity="0.82" rx="1"/>
<line x1="817.6" y1="277.1" x2="817.6" y2="301.0" stroke="#dc2626" stroke-width="1"/><rect x="814.9" y="289.9" width="5.4" height="2.3" fill="#dc2626" opacity="0.82" rx="1"/>
<line x1="826.5" y1="265.2" x2="826.5" y2="292.2" stroke="#16a34a" stroke-width="1"/><rect x="823.8" y="268.7" width="5.4" height="23.5" fill="#16a34a" opacity="0.82" rx="1"/>
<line x1="835.4" y1="260.2" x2="835.4" y2="277.6" stroke="#dc2626" stroke-width="1"/><rect x="832.6" y="268.7" width="5.4" height="1.2" fill="#dc2626" opacity="0.82" rx="1"/>
<line x1="844.2" y1="256.0" x2="844.2" y2="271.4" stroke="#16a34a" stroke-width="1"/><rect x="841.5" y="259.6" width="5.4" height="9.7" fill="#16a34a" opacity="0.82" rx="1"/>
<line x1="853.1" y1="244.5" x2="853.1" y2="268.1" stroke="#16a34a" stroke-width="1"/><rect x="850.4" y="245.3" width="5.4" height="14.3" fill="#16a34a" opacity="0.82" rx="1"/>
<line x1="862.0" y1="245.0" x2="862.0" y2="245.7" stroke="#dc2626" stroke-width="1"/><rect x="859.3" y="245.3" width="5.4" height="1.2" fill="#dc2626" opacity="0.82" rx="1"/>
<line x1="72" y1="289.4" x2="862" y2="289.4" stroke="#16a34a" stroke-width="1.8" stroke-dasharray="6 4" /><rect x="874" y="269.4" width="166" height="23" rx="5" fill="#ffffff" stroke="#16a34a" opacity="0.97"/><text x="881" y="285.4" fill="#16a34a" font-size="15" font-weight="700">支撑 61,735</text>
<line x1="72" y1="172.6" x2="862" y2="172.6" stroke="#dc2626" stroke-width="1.8" stroke-dasharray="6 4" /><rect x="874" y="152.6" width="166" height="23" rx="5" fill="#ffffff" stroke="#dc2626" opacity="0.97"/><text x="881" y="168.6" fill="#dc2626" font-size="15" font-weight="700">压力 72,252</text>
<line x1="72" y1="245.6" x2="862" y2="245.6" stroke="#111827" stroke-width="1.8" stroke-dasharray="2 2" /><rect x="874" y="225.6" width="166" height="23" rx="5" fill="#ffffff" stroke="#111827" opacity="0.97"/><text x="881" y="241.6" fill="#111827" font-size="15" font-weight="700">现价 65,679</text>
<text x="72" y="396" fill="#16a34a" font-size="14" font-weight="700">日线做多计划</text><rect x="72" y="404" width="790" height="48" rx="6" fill="#f9fafb" stroke="#e5e7eb"/><line x1="94" y1="412" x2="840" y2="412" stroke="#16a34a" stroke-width="3"/><circle cx="132.0" cy="412" r="5" fill="#16a34a"/><text x="132.0" y="434" fill="#374151" font-size="12" text-anchor="middle">入场 止跌/突破回踩</text><circle cx="451.2" cy="412" r="5" fill="#16a34a"/><text x="451.2" y="434" fill="#374151" font-size="12" text-anchor="middle">止损 61,735</text><circle cx="712.0" cy="412" r="5" fill="#16a34a"/><text x="712.0" y="434" fill="#374151" font-size="12" text-anchor="middle">目标一 72,252</text><circle cx="814.0" cy="412" r="5" fill="#16a34a"/><text x="814.0" y="434" fill="#374151" font-size="12" text-anchor="middle">目标二 76,196</text>
<text x="72" y="482" fill="#dc2626" font-size="14" font-weight="700">日线做空计划</text><rect x="72" y="490" width="790" height="48" rx="6" fill="#f9fafb" stroke="#e5e7eb"/><line x1="94" y1="498" x2="840" y2="498" stroke="#dc2626" stroke-width="3"/><circle cx="132.0" cy="498" r="5" fill="#dc2626"/><text x="132.0" y="520" fill="#374151" font-size="12" text-anchor="middle">入场 反弹承压/破位回抽</text><circle cx="451.2" cy="498" r="5" fill="#dc2626"/><text x="451.2" y="520" fill="#374151" font-size="12" text-anchor="middle">止损 72,252</text><circle cx="712.0" cy="498" r="5" fill="#dc2626"/><text x="712.0" y="520" fill="#374151" font-size="12" text-anchor="middle">目标一 61,735</text><circle cx="814.0" cy="498" r="5" fill="#dc2626"/><text x="814.0" y="520" fill="#374151" font-size="12" text-anchor="middle">目标二 59,106</text>
</svg>