<svg xmlns="http://www.w3.org/2000/svg" width="960" height="560" viewBox="0 0 960 560">
<rect width="100%" height="100%" fill="#ffffff"/>
<text x="72" y="23" fill="#111827" font-size="21" font-weight="800">BTC 小时线K线支撑压力图</text>
<text x="842" y="42" fill="#374151" font-size="15" text-anchor="end">最新价 63,389</text>
<line x1="72" y1="34" x2="72" y2="340" stroke="#d1d5db"/>
<line x1="72" y1="340" x2="842" y2="340" stroke="#d1d5db"/>
<line x1="72" y1="340.0" x2="842" y2="340.0" stroke="#f3f4f6"/>
<text x="8" y="345.0" fill="#4b5563" font-size="14">60,400</text>
<line x1="72" y1="263.5" x2="842" y2="263.5" stroke="#f3f4f6"/>
<text x="8" y="268.5" fill="#4b5563" font-size="14">61,458</text>
<line x1="72" y1="187.0" x2="842" y2="187.0" stroke="#f3f4f6"/>
<text x="8" y="192.0" fill="#4b5563" font-size="14">62,515</text>
<line x1="72" y1="110.5" x2="842" y2="110.5" stroke="#f3f4f6"/>
<text x="8" y="115.5" fill="#4b5563" font-size="14">63,573</text>
<line x1="72" y1="34.0" x2="842" y2="34.0" stroke="#f3f4f6"/>
<text x="8" y="39.0" fill="#4b5563" font-size="14">64,631</text>
<line x1="72.0" y1="66.6" x2="72.0" y2="103.3" stroke="#dc2626" stroke-width="1"/><rect x="69.3" y="84.4" width="5.3" height="13.6" fill="#dc2626" opacity="0.82" rx="1"/>
<line x1="80.7" y1="77.5" x2="80.7" y2="120.8" stroke="#dc2626" stroke-width="1"/><rect x="78.0" y="98.0" width="5.3" height="18.0" fill="#dc2626" opacity="0.82" rx="1"/>
<line x1="89.3" y1="107.1" x2="89.3" y2="136.8" stroke="#16a34a" stroke-width="1"/><rect x="86.7" y="114.4" width="5.3" height="1.6" fill="#16a34a" opacity="0.82" rx="1"/>
<line x1="98.0" y1="104.3" x2="98.0" y2="129.9" stroke="#dc2626" stroke-width="1"/><rect x="95.3" y="114.4" width="5.3" height="5.9" fill="#dc2626" opacity="0.82" rx="1"/>
<line x1="106.6" y1="110.6" x2="106.6" y2="129.0" stroke="#dc2626" stroke-width="1"/><rect x="104.0" y="120.3" width="5.3" height="6.5" fill="#dc2626" opacity="0.82" rx="1"/>
<line x1="115.3" y1="118.7" x2="115.3" y2="143.2" stroke="#16a34a" stroke-width="1"/><rect x="112.6" y="118.8" width="5.3" height="8.0" fill="#16a34a" opacity="0.82" rx="1"/>
<line x1="123.9" y1="91.7" x2="123.9" y2="119.0" stroke="#16a34a" stroke-width="1"/><rect x="121.3" y="102.0" width="5.3" height="16.8" fill="#16a34a" opacity="0.82" rx="1"/>
<line x1="132.6" y1="102.0" x2="132.6" y2="139.6" stroke="#dc2626" stroke-width="1"/><rect x="129.9" y="102.0" width="5.3" height="20.5" fill="#dc2626" opacity="0.82" rx="1"/>
<line x1="141.2" y1="110.9" x2="141.2" y2="156.3" stroke="#dc2626" stroke-width="1"/><rect x="138.6" y="122.5" width="5.3" height="25.3" fill="#dc2626" opacity="0.82" rx="1"/>
<line x1="149.9" y1="140.6" x2="149.9" y2="196.7" stroke="#dc2626" stroke-width="1"/><rect x="147.2" y="147.8" width="5.3" height="38.7" fill="#dc2626" opacity="0.82" rx="1"/>
<line x1="158.5" y1="163.1" x2="158.5" y2="187.2" stroke="#16a34a" stroke-width="1"/><rect x="155.9" y="171.3" width="5.3" height="15.2" fill="#16a34a" opacity="0.82" rx="1"/>
<line x1="167.2" y1="162.8" x2="167.2" y2="187.6" stroke="#16a34a" stroke-width="1"/><rect x="164.5" y="163.5" width="5.3" height="7.8" fill="#16a34a" opacity="0.82" rx="1"/>
<line x1="175.8" y1="155.9" x2="175.8" y2="176.2" stroke="#16a34a" stroke-width="1"/><rect x="173.2" y="163.5" width="5.3" height="1.2" fill="#16a34a" opacity="0.82" rx="1"/>
<line x1="184.5" y1="122.9" x2="184.5" y2="172.5" stroke="#16a34a" stroke-width="1"/><rect x="181.8" y="136.5" width="5.3" height="26.9" fill="#16a34a" opacity="0.82" rx="1"/>
<line x1="193.1" y1="115.8" x2="193.1" y2="145.6" stroke="#16a34a" stroke-width="1"/><rect x="190.5" y="128.9" width="5.3" height="7.6" fill="#16a34a" opacity="0.82" rx="1"/>
<line x1="201.8" y1="116.7" x2="201.8" y2="137.3" stroke="#dc2626" stroke-width="1"/><rect x="199.1" y="128.9" width="5.3" height="2.8" fill="#dc2626" opacity="0.82" rx="1"/>
<line x1="210.4" y1="121.3" x2="210.4" y2="154.1" stroke="#dc2626" stroke-width="1"/><rect x="207.8" y="131.7" width="5.3" height="7.9" fill="#dc2626" opacity="0.82" rx="1"/>
<line x1="219.1" y1="138.7" x2="219.1" y2="177.6" stroke="#dc2626" stroke-width="1"/><rect x="216.4" y="139.6" width="5.3" height="25.6" fill="#dc2626" opacity="0.82" rx="1"/>
<line x1="227.7" y1="157.5" x2="227.7" y2="184.1" stroke="#dc2626" stroke-width="1"/><rect x="225.1" y="165.2" width="5.3" height="9.7" fill="#dc2626" opacity="0.82" rx="1"/>
<line x1="236.4" y1="166.2" x2="236.4" y2="183.7" stroke="#16a34a" stroke-width="1"/><rect x="233.7" y="170.0" width="5.3" height="4.9" fill="#16a34a" opacity="0.82" rx="1"/>
<line x1="245.0" y1="167.4" x2="245.0" y2="191.2" stroke="#dc2626" stroke-width="1"/><rect x="242.4" y="170.0" width="5.3" height="5.1" fill="#dc2626" opacity="0.82" rx="1"/>
<line x1="253.7" y1="161.5" x2="253.7" y2="195.1" stroke="#dc2626" stroke-width="1"/><rect x="251.0" y="175.1" width="5.3" height="4.9" fill="#dc2626" opacity="0.82" rx="1"/>
<line x1="262.3" y1="172.4" x2="262.3" y2="215.2" stroke="#dc2626" stroke-width="1"/><rect x="259.7" y="180.0" width="5.3" height="26.6" fill="#dc2626" opacity="0.82" rx="1"/>
<line x1="271.0" y1="197.4" x2="271.0" y2="291.1" stroke="#dc2626" stroke-width="1"/><rect x="268.3" y="206.6" width="5.3" height="53.0" fill="#dc2626" opacity="0.82" rx="1"/>
<line x1="279.6" y1="247.4" x2="279.6" y2="296.5" stroke="#dc2626" stroke-width="1"/><rect x="277.0" y="259.6" width="5.3" height="29.7" fill="#dc2626" opacity="0.82" rx="1"/>
<line x1="288.3" y1="261.2" x2="288.3" y2="314.3" stroke="#16a34a" stroke-width="1"/><rect x="285.6" y="270.0" width="5.3" height="19.3" fill="#16a34a" opacity="0.82" rx="1"/>
<line x1="296.9" y1="234.4" x2="296.9" y2="270.1" stroke="#16a34a" stroke-width="1"/><rect x="294.3" y="248.4" width="5.3" height="21.7" fill="#16a34a" opacity="0.82" rx="1"/>
<line x1="305.6" y1="228.7" x2="305.6" y2="255.9" stroke="#16a34a" stroke-width="1"/><rect x="302.9" y="241.9" width="5.3" height="6.4" fill="#16a34a" opacity="0.82" rx="1"/>
<line x1="314.2" y1="218.5" x2="314.2" y2="247.1" stroke="#16a34a" stroke-width="1"/><rect x="311.6" y="219.3" width="5.3" height="22.6" fill="#16a34a" opacity="0.82" rx="1"/>
<line x1="322.9" y1="206.0" x2="322.9" y2="230.0" stroke="#16a34a" stroke-width="1"/><rect x="320.2" y="214.7" width="5.3" height="4.6" fill="#16a34a" opacity="0.82" rx="1"/>
<line x1="331.6" y1="213.4" x2="331.6" y2="248.9" stroke="#dc2626" stroke-width="1"/><rect x="328.9" y="214.7" width="5.3" height="28.9" fill="#dc2626" opacity="0.82" rx="1"/>
<line x1="340.2" y1="228.2" x2="340.2" y2="251.0" stroke="#dc2626" stroke-width="1"/><rect x="337.6" y="243.6" width="5.3" height="3.2" fill="#dc2626" opacity="0.82" rx="1"/>
<line x1="348.9" y1="235.1" x2="348.9" y2="259.1" stroke="#16a34a" stroke-width="1"/><rect x="346.2" y="246.3" width="5.3" height="1.2" fill="#16a34a" opacity="0.82" rx="1"/>
<line x1="357.5" y1="230.9" x2="357.5" y2="267.3" stroke="#16a34a" stroke-width="1"/><rect x="354.9" y="232.5" width="5.3" height="13.9" fill="#16a34a" opacity="0.82" rx="1"/>
<line x1="366.2" y1="228.1" x2="366.2" y2="257.3" stroke="#dc2626" stroke-width="1"/><rect x="363.5" y="232.5" width="5.3" height="14.9" fill="#dc2626" opacity="0.82" rx="1"/>
<line x1="374.8" y1="238.2" x2="374.8" y2="282.1" stroke="#dc2626" stroke-width="1"/><rect x="372.2" y="247.4" width="5.3" height="29.6" fill="#dc2626" opacity="0.82" rx="1"/>
<line x1="383.5" y1="255.3" x2="383.5" y2="278.5" stroke="#16a34a" stroke-width="1"/><rect x="380.8" y="259.1" width="5.3" height="17.9" fill="#16a34a" opacity="0.82" rx="1"/>
<line x1="392.1" y1="257.9" x2="392.1" y2="285.5" stroke="#dc2626" stroke-width="1"/><rect x="389.5" y="259.1" width="5.3" height="18.0" fill="#dc2626" opacity="0.82" rx="1"/>
<line x1="400.8" y1="270.0" x2="400.8" y2="293.3" stroke="#16a34a" stroke-width="1"/><rect x="398.1" y="273.4" width="5.3" height="3.8" fill="#16a34a" opacity="0.82" rx="1"/>
<line x1="409.4" y1="261.0" x2="409.4" y2="288.7" stroke="#16a34a" stroke-width="1"/><rect x="406.8" y="265.0" width="5.3" height="8.3" fill="#16a34a" opacity="0.82" rx="1"/>
<line x1="418.1" y1="240.0" x2="418.1" y2="267.6" stroke="#16a34a" stroke-width="1"/><rect x="415.4" y="249.3" width="5.3" height="15.8" fill="#16a34a" opacity="0.82" rx="1"/>
<line x1="426.7" y1="245.4" x2="426.7" y2="287.3" stroke="#dc2626" stroke-width="1"/><rect x="424.1" y="249.3" width="5.3" height="30.8" fill="#dc2626" opacity="0.82" rx="1"/>
<line x1="435.4" y1="267.9" x2="435.4" y2="318.9" stroke="#16a34a" stroke-width="1"/><rect x="432.7" y="274.7" width="5.3" height="5.3" fill="#16a34a" opacity="0.82" rx="1"/>
<line x1="444.0" y1="265.7" x2="444.0" y2="288.4" stroke="#16a34a" stroke-width="1"/><rect x="441.4" y="271.3" width="5.3" height="3.4" fill="#16a34a" opacity="0.82" rx="1"/>
<line x1="452.7" y1="267.2" x2="452.7" y2="309.3" stroke="#dc2626" stroke-width="1"/><rect x="450.0" y="271.3" width="5.3" height="25.1" fill="#dc2626" opacity="0.82" rx="1"/>
<line x1="461.3" y1="230.2" x2="461.3" y2="301.7" stroke="#16a34a" stroke-width="1"/><rect x="458.7" y="258.2" width="5.3" height="38.2" fill="#16a34a" opacity="0.82" rx="1"/>
<line x1="470.0" y1="192.1" x2="470.0" y2="267.2" stroke="#16a34a" stroke-width="1"/><rect x="467.3" y="215.3" width="5.3" height="42.8" fill="#16a34a" opacity="0.82" rx="1"/>
<line x1="478.6" y1="207.6" x2="478.6" y2="240.1" stroke="#16a34a" stroke-width="1"/><rect x="476.0" y="211.9" width="5.3" height="3.4" fill="#16a34a" opacity="0.82" rx="1"/>
<line x1="487.3" y1="163.5" x2="487.3" y2="237.7" stroke="#16a34a" stroke-width="1"/><rect x="484.6" y="180.5" width="5.3" height="31.4" fill="#16a34a" opacity="0.82" rx="1"/>
<line x1="495.9" y1="179.7" x2="495.9" y2="232.2" stroke="#dc2626" stroke-width="1"/><rect x="493.3" y="180.5" width="5.3" height="29.7" fill="#dc2626" opacity="0.82" rx="1"/>
<line x1="504.6" y1="200.4" x2="504.6" y2="252.1" stroke="#dc2626" stroke-width="1"/><rect x="501.9" y="210.2" width="5.3" height="18.1" fill="#dc2626" opacity="0.82" rx="1"/>
<line x1="513.2" y1="214.4" x2="513.2" y2="256.7" stroke="#dc2626" stroke-width="1"/><rect x="510.6" y="228.3" width="5.3" height="6.4" fill="#dc2626" opacity="0.82" rx="1"/>
<line x1="521.9" y1="221.5" x2="521.9" y2="250.2" stroke="#16a34a" stroke-width="1"/><rect x="519.2" y="230.9" width="5.3" height="3.8" fill="#16a34a" opacity="0.82" rx="1"/>
<line x1="530.5" y1="230.0" x2="530.5" y2="250.0" stroke="#dc2626" stroke-width="1"/><rect x="527.9" y="230.9" width="5.3" height="10.0" fill="#dc2626" opacity="0.82" rx="1"/>
<line x1="539.2" y1="240.7" x2="539.2" y2="285.8" stroke="#dc2626" stroke-width="1"/><rect x="536.5" y="240.9" width="5.3" height="32.0" fill="#dc2626" opacity="0.82" rx="1"/>
<line x1="547.8" y1="257.0" x2="547.8" y2="291.7" stroke="#16a34a" stroke-width="1"/><rect x="545.2" y="271.1" width="5.3" height="1.9" fill="#16a34a" opacity="0.82" rx="1"/>
<line x1="556.5" y1="254.5" x2="556.5" y2="286.8" stroke="#16a34a" stroke-width="1"/><rect x="553.8" y="261.6" width="5.3" height="9.4" fill="#16a34a" opacity="0.82" rx="1"/>
<line x1="565.1" y1="227.5" x2="565.1" y2="261.6" stroke="#16a34a" stroke-width="1"/><rect x="562.5" y="239.1" width="5.3" height="22.5" fill="#16a34a" opacity="0.82" rx="1"/>
<line x1="573.8" y1="199.0" x2="573.8" y2="239.2" stroke="#16a34a" stroke-width="1"/><rect x="571.1" y="211.2" width="5.3" height="27.9" fill="#16a34a" opacity="0.82" rx="1"/>
<line x1="582.4" y1="204.2" x2="582.4" y2="230.7" stroke="#dc2626" stroke-width="1"/><rect x="579.8" y="211.2" width="5.3" height="4.8" fill="#dc2626" opacity="0.82" rx="1"/>
<line x1="591.1" y1="157.6" x2="591.1" y2="226.0" stroke="#16a34a" stroke-width="1"/><rect x="588.4" y="176.7" width="5.3" height="39.3" fill="#16a34a" opacity="0.82" rx="1"/>
<line x1="599.8" y1="164.5" x2="599.8" y2="187.2" stroke="#16a34a" stroke-width="1"/><rect x="597.1" y="174.2" width="5.3" height="2.6" fill="#16a34a" opacity="0.82" rx="1"/>
<line x1="608.4" y1="173.9" x2="608.4" y2="186.1" stroke="#dc2626" stroke-width="1"/><rect x="605.8" y="174.2" width="5.3" height="8.0" fill="#dc2626" opacity="0.82" rx="1"/>
<line x1="617.1" y1="152.4" x2="617.1" y2="187.5" stroke="#16a34a" stroke-width="1"/><rect x="614.4" y="171.2" width="5.3" height="11.0" fill="#16a34a" opacity="0.82" rx="1"/>
<line x1="625.7" y1="165.5" x2="625.7" y2="182.7" stroke="#dc2626" stroke-width="1"/><rect x="623.1" y="171.2" width="5.3" height="3.0" fill="#dc2626" opacity="0.82" rx="1"/>
<line x1="634.4" y1="148.8" x2="634.4" y2="174.3" stroke="#16a34a" stroke-width="1"/><rect x="631.7" y="157.2" width="5.3" height="16.9" fill="#16a34a" opacity="0.82" rx="1"/>
<line x1="643.0" y1="154.1" x2="643.0" y2="169.8" stroke="#dc2626" stroke-width="1"/><rect x="640.4" y="157.2" width="5.3" height="2.0" fill="#dc2626" opacity="0.82" rx="1"/>
<line x1="651.7" y1="138.4" x2="651.7" y2="168.5" stroke="#16a34a" stroke-width="1"/><rect x="649.0" y="143.3" width="5.3" height="15.9" fill="#16a34a" opacity="0.82" rx="1"/>
<line x1="660.3" y1="134.9" x2="660.3" y2="150.5" stroke="#dc2626" stroke-width="1"/><rect x="657.7" y="143.3" width="5.3" height="3.1" fill="#dc2626" opacity="0.82" rx="1"/>
<line x1="669.0" y1="139.4" x2="669.0" y2="191.3" stroke="#dc2626" stroke-width="1"/><rect x="666.3" y="146.3" width="5.3" height="7.2" fill="#dc2626" opacity="0.82" rx="1"/>
<line x1="677.6" y1="137.5" x2="677.6" y2="177.7" stroke="#16a34a" stroke-width="1"/><rect x="675.0" y="148.6" width="5.3" height="4.9" fill="#16a34a" opacity="0.82" rx="1"/>
<line x1="686.3" y1="147.6" x2="686.3" y2="173.9" stroke="#dc2626" stroke-width="1"/><rect x="683.6" y="148.6" width="5.3" height="25.1" fill="#dc2626" opacity="0.82" rx="1"/>
<line x1="694.9" y1="162.3" x2="694.9" y2="188.5" stroke="#16a34a" stroke-width="1"/><rect x="692.3" y="172.1" width="5.3" height="1.6" fill="#16a34a" opacity="0.82" rx="1"/>
<line x1="703.6" y1="165.7" x2="703.6" y2="187.9" stroke="#dc2626" stroke-width="1"/><rect x="700.9" y="172.1" width="5.3" height="12.6" fill="#dc2626" opacity="0.82" rx="1"/>
<line x1="712.2" y1="105.4" x2="712.2" y2="201.5" stroke="#16a34a" stroke-width="1"/><rect x="709.6" y="107.5" width="5.3" height="77.2" fill="#16a34a" opacity="0.82" rx="1"/>
<line x1="720.9" y1="96.4" x2="720.9" y2="131.5" stroke="#dc2626" stroke-width="1"/><rect x="718.2" y="107.5" width="5.3" height="13.6" fill="#dc2626" opacity="0.82" rx="1"/>
<line x1="729.5" y1="85.8" x2="729.5" y2="126.6" stroke="#16a34a" stroke-width="1"/><rect x="726.9" y="110.9" width="5.3" height="10.2" fill="#16a34a" opacity="0.82" rx="1"/>
<line x1="738.2" y1="106.1" x2="738.2" y2="134.9" stroke="#dc2626" stroke-width="1"/><rect x="735.5" y="110.9" width="5.3" height="14.9" fill="#dc2626" opacity="0.82" rx="1"/>
<line x1="746.8" y1="110.6" x2="746.8" y2="125.9" stroke="#16a34a" stroke-width="1"/><rect x="744.2" y="116.7" width="5.3" height="9.1" fill="#16a34a" opacity="0.82" rx="1"/>
<line x1="755.5" y1="105.6" x2="755.5" y2="121.2" stroke="#dc2626" stroke-width="1"/><rect x="752.8" y="116.7" width="5.3" height="1.5" fill="#dc2626" opacity="0.82" rx="1"/>
<line x1="764.1" y1="100.4" x2="764.1" y2="128.2" stroke="#16a34a" stroke-width="1"/><rect x="761.5" y="108.7" width="5.3" height="9.5" fill="#16a34a" opacity="0.82" rx="1"/>
<line x1="772.8" y1="95.8" x2="772.8" y2="116.5" stroke="#16a34a" stroke-width="1"/><rect x="770.1" y="107.3" width="5.3" height="1.4" fill="#16a34a" opacity="0.82" rx="1"/>
<line x1="781.4" y1="107.3" x2="781.4" y2="132.3" stroke="#dc2626" stroke-width="1"/><rect x="778.8" y="107.3" width="5.3" height="15.5" fill="#dc2626" opacity="0.82" rx="1"/>
<line x1="790.1" y1="97.1" x2="790.1" y2="122.8" stroke="#16a34a" stroke-width="1"/><rect x="787.4" y="109.3" width="5.3" height="13.5" fill="#16a34a" opacity="0.82" rx="1"/>
<line x1="798.7" y1="107.1" x2="798.7" y2="129.2" stroke="#dc2626" stroke-width="1"/><rect x="796.1" y="109.3" width="5.3" height="7.2" fill="#dc2626" opacity="0.82" rx="1"/>
<line x1="807.4" y1="91.0" x2="807.4" y2="123.7" stroke="#16a34a" stroke-width="1"/><rect x="804.7" y="103.5" width="5.3" height="13.0" fill="#16a34a" opacity="0.82" rx="1"/>
<line x1="816.0" y1="101.7" x2="816.0" y2="132.8" stroke="#dc2626" stroke-width="1"/><rect x="813.4" y="103.5" width="5.3" height="25.5" fill="#dc2626" opacity="0.82" rx="1"/>
<line x1="824.7" y1="124.0" x2="824.7" y2="166.4" stroke="#dc2626" stroke-width="1"/><rect x="822.0" y="129.0" width="5.3" height="26.2" fill="#dc2626" opacity="0.82" rx="1"/>
<line x1="833.3" y1="138.9" x2="833.3" y2="157.7" stroke="#16a34a" stroke-width="1"/><rect x="830.7" y="147.1" width="5.3" height="8.0" fill="#16a34a" opacity="0.82" rx="1"/>
<line x1="842.0" y1="109.5" x2="842.0" y2="147.3" stroke="#16a34a" stroke-width="1"/><rect x="839.3" y="123.8" width="5.3" height="23.3" fill="#16a34a" opacity="0.82" rx="1"/>
<line x1="72" y1="165.1" x2="842" y2="165.1" stroke="#16a34a" stroke-width="1.8" stroke-dasharray="6 4" /><rect x="688" y="145.1" width="146" height="23" rx="5" fill="#ffffff" stroke="#16a34a" opacity="0.97"/><text x="695" y="161.1" fill="#16a34a" font-size="15" font-weight="700">日内支撑 62,819</text>
<line x1="72" y1="55.1" x2="842" y2="55.1" stroke="#dc2626" stroke-width="1.8" stroke-dasharray="6 4" /><rect x="688" y="35.1" width="146" height="23" rx="5" fill="#ffffff" stroke="#dc2626" opacity="0.97"/><text x="695" y="51.1" fill="#dc2626" font-size="15" font-weight="700">日内压力 64,339</text>
<line x1="72" y1="123.8" x2="842" y2="123.8" stroke="#111827" stroke-width="1.8" stroke-dasharray="2 2" /><rect x="688" y="103.8" width="146" height="23" rx="5" fill="#ffffff" stroke="#111827" opacity="0.97"/><text x="695" y="119.8" fill="#111827" font-size="15" font-weight="700">现价 63,389</text>
<text x="72" y="396" fill="#16a34a" font-size="14" font-weight="700">日内做多计划</text><rect x="72" y="404" width="770" height="48" rx="6" fill="#f9fafb" stroke="#e5e7eb"/><line x1="94" y1="412" x2="820" y2="412" stroke="#16a34a" stroke-width="3"/><circle cx="132.0" cy="412" r="5" fill="#16a34a"/><text x="132.0" y="434" fill="#374151" font-size="12" text-anchor="middle">入场 止跌/突破回踩</text><circle cx="441.6" cy="412" r="5" fill="#16a34a"/><text x="441.6" y="434" fill="#374151" font-size="12" text-anchor="middle">止损 62,819</text><circle cx="692.0" cy="412" r="5" fill="#16a34a"/><text x="692.0" y="434" fill="#374151" font-size="12" text-anchor="middle">目标一 64,339</text><circle cx="794.0" cy="412" r="5" fill="#16a34a"/><text x="794.0" y="434" fill="#374151" font-size="12" text-anchor="middle">目标二 64,719</text>
<text x="72" y="482" fill="#dc2626" font-size="14" font-weight="700">日内做空计划</text><rect x="72" y="490" width="770" height="48" rx="6" fill="#f9fafb" stroke="#e5e7eb"/><line x1="94" y1="498" x2="820" y2="498" stroke="#dc2626" stroke-width="3"/><circle cx="132.0" cy="498" r="5" fill="#dc2626"/><text x="132.0" y="520" fill="#374151" font-size="12" text-anchor="middle">入场 反弹承压/破位回抽</text><circle cx="441.6" cy="498" r="5" fill="#dc2626"/><text x="441.6" y="520" fill="#374151" font-size="12" text-anchor="middle">止损 64,339</text><circle cx="692.0" cy="498" r="5" fill="#dc2626"/><text x="692.0" y="520" fill="#374151" font-size="12" text-anchor="middle">目标一 62,819</text><circle cx="794.0" cy="498" r="5" fill="#dc2626"/><text x="794.0" y="520" fill="#374151" font-size="12" text-anchor="middle">目标二 62,439</text>
</svg>