<svg xmlns="http://www.w3.org/2000/svg" width="960" height="560" viewBox="0 0 960 560">
<rect width="100%" height="100%" fill="#ffffff"/>
<text x="72" y="22" fill="#111827" font-size="18" font-weight="700">BTC 小时线K线支撑压力图</text>
<text x="846" y="42" fill="#374151" font-size="13">最新价 63,038</text>
<line x1="72" y1="34" x2="72" y2="340" stroke="#d1d5db"/>
<line x1="72" y1="340" x2="876" y2="340" stroke="#d1d5db"/>
<line x1="72" y1="340.0" x2="876" y2="340.0" stroke="#f3f4f6"/>
<text x="10" y="344.0" fill="#6b7280" font-size="12">60,479</text>
<line x1="72" y1="263.5" x2="876" y2="263.5" stroke="#f3f4f6"/>
<text x="10" y="267.5" fill="#6b7280" font-size="12">61,478</text>
<line x1="72" y1="187.0" x2="876" y2="187.0" stroke="#f3f4f6"/>
<text x="10" y="191.0" fill="#6b7280" font-size="12">62,478</text>
<line x1="72" y1="110.5" x2="876" y2="110.5" stroke="#f3f4f6"/>
<text x="10" y="114.5" fill="#6b7280" font-size="12">63,477</text>
<line x1="72" y1="34.0" x2="876" y2="34.0" stroke="#f3f4f6"/>
<text x="10" y="38.0" fill="#6b7280" font-size="12">64,476</text>
<line x1="72.0" y1="64.5" x2="72.0" y2="104.1" stroke="#16a34a" stroke-width="1"/><rect x="69.2" y="73.2" width="5.5" height="15.8" fill="#16a34a" opacity="0.82" rx="1"/>
<line x1="81.0" y1="55.1" x2="81.0" y2="92.5" stroke="#dc2626" stroke-width="1"/><rect x="78.3" y="73.2" width="5.5" height="14.5" fill="#dc2626" opacity="0.82" rx="1"/>
<line x1="90.1" y1="66.8" x2="90.1" y2="110.8" stroke="#dc2626" stroke-width="1"/><rect x="87.3" y="87.7" width="5.5" height="18.6" fill="#dc2626" opacity="0.82" rx="1"/>
<line x1="99.1" y1="97.5" x2="99.1" y2="126.5" stroke="#16a34a" stroke-width="1"/><rect x="96.3" y="104.9" width="5.5" height="1.4" fill="#16a34a" opacity="0.82" rx="1"/>
<line x1="108.1" y1="94.2" x2="108.1" y2="121.0" stroke="#dc2626" stroke-width="1"/><rect x="105.4" y="104.9" width="5.5" height="6.4" fill="#dc2626" opacity="0.82" rx="1"/>
<line x1="117.2" y1="101.4" x2="117.2" y2="119.7" stroke="#dc2626" stroke-width="1"/><rect x="114.4" y="111.2" width="5.5" height="7.3" fill="#dc2626" opacity="0.82" rx="1"/>
<line x1="126.2" y1="109.8" x2="126.2" y2="134.7" stroke="#16a34a" stroke-width="1"/><rect x="123.4" y="109.8" width="5.5" height="8.7" fill="#16a34a" opacity="0.82" rx="1"/>
<line x1="135.2" y1="81.9" x2="135.2" y2="110.0" stroke="#16a34a" stroke-width="1"/><rect x="132.5" y="91.2" width="5.5" height="18.6" fill="#16a34a" opacity="0.82" rx="1"/>
<line x1="144.3" y1="91.2" x2="144.3" y2="130.9" stroke="#dc2626" stroke-width="1"/><rect x="141.5" y="91.2" width="5.5" height="22.1" fill="#dc2626" opacity="0.82" rx="1"/>
<line x1="153.3" y1="101.5" x2="153.3" y2="148.6" stroke="#dc2626" stroke-width="1"/><rect x="150.5" y="113.3" width="5.5" height="27.1" fill="#dc2626" opacity="0.82" rx="1"/>
<line x1="162.3" y1="132.9" x2="162.3" y2="191.2" stroke="#dc2626" stroke-width="1"/><rect x="159.6" y="140.4" width="5.5" height="40.1" fill="#dc2626" opacity="0.82" rx="1"/>
<line x1="171.4" y1="156.2" x2="171.4" y2="181.7" stroke="#16a34a" stroke-width="1"/><rect x="168.6" y="165.1" width="5.5" height="15.5" fill="#16a34a" opacity="0.82" rx="1"/>
<line x1="180.4" y1="156.6" x2="180.4" y2="181.9" stroke="#16a34a" stroke-width="1"/><rect x="177.6" y="157.1" width="5.5" height="8.0" fill="#16a34a" opacity="0.82" rx="1"/>
<line x1="189.4" y1="148.5" x2="189.4" y2="169.8" stroke="#16a34a" stroke-width="1"/><rect x="186.7" y="156.5" width="5.5" height="1.2" fill="#16a34a" opacity="0.82" rx="1"/>
<line x1="198.5" y1="114.5" x2="198.5" y2="166.3" stroke="#16a34a" stroke-width="1"/><rect x="195.7" y="128.4" width="5.5" height="28.1" fill="#16a34a" opacity="0.82" rx="1"/>
<line x1="207.5" y1="106.7" x2="207.5" y2="137.8" stroke="#16a34a" stroke-width="1"/><rect x="204.7" y="121.1" width="5.5" height="7.4" fill="#16a34a" opacity="0.82" rx="1"/>
<line x1="216.5" y1="108.2" x2="216.5" y2="129.4" stroke="#dc2626" stroke-width="1"/><rect x="213.8" y="121.1" width="5.5" height="3.0" fill="#dc2626" opacity="0.82" rx="1"/>
<line x1="225.6" y1="113.0" x2="225.6" y2="146.1" stroke="#dc2626" stroke-width="1"/><rect x="222.8" y="124.0" width="5.5" height="7.8" fill="#dc2626" opacity="0.82" rx="1"/>
<line x1="234.6" y1="131.0" x2="234.6" y2="164.6" stroke="#dc2626" stroke-width="1"/><rect x="231.8" y="131.8" width="5.5" height="26.7" fill="#dc2626" opacity="0.82" rx="1"/>
<line x1="243.6" y1="151.2" x2="243.6" y2="178.4" stroke="#dc2626" stroke-width="1"/><rect x="240.9" y="158.5" width="5.5" height="10.3" fill="#dc2626" opacity="0.82" rx="1"/>
<line x1="252.7" y1="159.6" x2="252.7" y2="177.9" stroke="#16a34a" stroke-width="1"/><rect x="249.9" y="163.4" width="5.5" height="5.4" fill="#16a34a" opacity="0.82" rx="1"/>
<line x1="261.7" y1="160.9" x2="261.7" y2="185.4" stroke="#dc2626" stroke-width="1"/><rect x="258.9" y="163.4" width="5.5" height="5.7" fill="#dc2626" opacity="0.82" rx="1"/>
<line x1="270.7" y1="155.0" x2="270.7" y2="191.3" stroke="#dc2626" stroke-width="1"/><rect x="268.0" y="169.1" width="5.5" height="5.1" fill="#dc2626" opacity="0.82" rx="1"/>
<line x1="279.8" y1="167.1" x2="279.8" y2="212.8" stroke="#dc2626" stroke-width="1"/><rect x="277.0" y="174.2" width="5.5" height="28.4" fill="#dc2626" opacity="0.82" rx="1"/>
<line x1="288.8" y1="193.3" x2="288.8" y2="288.8" stroke="#dc2626" stroke-width="1"/><rect x="286.0" y="202.6" width="5.5" height="56.0" fill="#dc2626" opacity="0.82" rx="1"/>
<line x1="297.8" y1="246.0" x2="297.8" y2="297.3" stroke="#dc2626" stroke-width="1"/><rect x="295.1" y="258.6" width="5.5" height="31.4" fill="#dc2626" opacity="0.82" rx="1"/>
<line x1="306.9" y1="263.0" x2="306.9" y2="317.0" stroke="#16a34a" stroke-width="1"/><rect x="304.1" y="270.2" width="5.5" height="19.8" fill="#16a34a" opacity="0.82" rx="1"/>
<line x1="315.9" y1="232.1" x2="315.9" y2="270.2" stroke="#16a34a" stroke-width="1"/><rect x="313.1" y="247.1" width="5.5" height="23.1" fill="#16a34a" opacity="0.82" rx="1"/>
<line x1="324.9" y1="226.3" x2="324.9" y2="254.0" stroke="#16a34a" stroke-width="1"/><rect x="322.2" y="239.5" width="5.5" height="7.7" fill="#16a34a" opacity="0.82" rx="1"/>
<line x1="334.0" y1="215.6" x2="334.0" y2="244.9" stroke="#16a34a" stroke-width="1"/><rect x="331.2" y="216.1" width="5.5" height="23.4" fill="#16a34a" opacity="0.82" rx="1"/>
<line x1="343.0" y1="202.7" x2="343.0" y2="227.1" stroke="#16a34a" stroke-width="1"/><rect x="340.2" y="211.3" width="5.5" height="4.7" fill="#16a34a" opacity="0.82" rx="1"/>
<line x1="352.0" y1="210.0" x2="352.0" y2="246.7" stroke="#dc2626" stroke-width="1"/><rect x="349.3" y="211.3" width="5.5" height="30.5" fill="#dc2626" opacity="0.82" rx="1"/>
<line x1="361.1" y1="225.4" x2="361.1" y2="249.1" stroke="#dc2626" stroke-width="1"/><rect x="358.3" y="241.8" width="5.5" height="3.3" fill="#dc2626" opacity="0.82" rx="1"/>
<line x1="370.1" y1="232.9" x2="370.1" y2="257.6" stroke="#16a34a" stroke-width="1"/><rect x="367.3" y="244.2" width="5.5" height="1.2" fill="#16a34a" opacity="0.82" rx="1"/>
<line x1="379.1" y1="228.9" x2="379.1" y2="266.4" stroke="#16a34a" stroke-width="1"/><rect x="376.4" y="229.4" width="5.5" height="14.8" fill="#16a34a" opacity="0.82" rx="1"/>
<line x1="388.2" y1="225.5" x2="388.2" y2="255.0" stroke="#dc2626" stroke-width="1"/><rect x="385.4" y="229.4" width="5.5" height="16.0" fill="#dc2626" opacity="0.82" rx="1"/>
<line x1="397.2" y1="236.0" x2="397.2" y2="282.1" stroke="#dc2626" stroke-width="1"/><rect x="394.4" y="245.5" width="5.5" height="31.5" fill="#dc2626" opacity="0.82" rx="1"/>
<line x1="406.2" y1="254.7" x2="406.2" y2="278.2" stroke="#16a34a" stroke-width="1"/><rect x="403.5" y="258.0" width="5.5" height="18.9" fill="#16a34a" opacity="0.82" rx="1"/>
<line x1="415.3" y1="257.3" x2="415.3" y2="286.2" stroke="#dc2626" stroke-width="1"/><rect x="412.5" y="258.0" width="5.5" height="19.4" fill="#dc2626" opacity="0.82" rx="1"/>
<line x1="424.3" y1="269.5" x2="424.3" y2="294.0" stroke="#16a34a" stroke-width="1"/><rect x="421.5" y="272.5" width="5.5" height="5.0" fill="#16a34a" opacity="0.82" rx="1"/>
<line x1="433.3" y1="260.2" x2="433.3" y2="289.0" stroke="#16a34a" stroke-width="1"/><rect x="430.6" y="263.9" width="5.5" height="8.6" fill="#16a34a" opacity="0.82" rx="1"/>
<line x1="442.4" y1="237.9" x2="442.4" y2="266.4" stroke="#16a34a" stroke-width="1"/><rect x="439.6" y="247.5" width="5.5" height="16.4" fill="#16a34a" opacity="0.82" rx="1"/>
<line x1="451.4" y1="243.8" x2="451.4" y2="287.3" stroke="#dc2626" stroke-width="1"/><rect x="448.6" y="247.5" width="5.5" height="32.6" fill="#dc2626" opacity="0.82" rx="1"/>
<line x1="460.4" y1="267.9" x2="460.4" y2="318.9" stroke="#16a34a" stroke-width="1"/><rect x="457.7" y="274.5" width="5.5" height="5.6" fill="#16a34a" opacity="0.82" rx="1"/>
<line x1="469.5" y1="265.2" x2="469.5" y2="288.5" stroke="#16a34a" stroke-width="1"/><rect x="466.7" y="270.6" width="5.5" height="3.9" fill="#16a34a" opacity="0.82" rx="1"/>
<line x1="478.5" y1="267.2" x2="478.5" y2="310.3" stroke="#dc2626" stroke-width="1"/><rect x="475.7" y="270.6" width="5.5" height="27.0" fill="#dc2626" opacity="0.82" rx="1"/>
<line x1="487.6" y1="227.4" x2="487.6" y2="303.2" stroke="#16a34a" stroke-width="1"/><rect x="484.8" y="256.9" width="5.5" height="40.6" fill="#16a34a" opacity="0.82" rx="1"/>
<line x1="496.6" y1="189.4" x2="496.6" y2="266.1" stroke="#16a34a" stroke-width="1"/><rect x="493.8" y="212.4" width="5.5" height="44.6" fill="#16a34a" opacity="0.82" rx="1"/>
<line x1="505.6" y1="203.8" x2="505.6" y2="237.7" stroke="#16a34a" stroke-width="1"/><rect x="502.8" y="208.6" width="5.5" height="3.8" fill="#16a34a" opacity="0.82" rx="1"/>
<line x1="514.7" y1="157.9" x2="514.7" y2="234.9" stroke="#16a34a" stroke-width="1"/><rect x="511.9" y="174.6" width="5.5" height="33.9" fill="#16a34a" opacity="0.82" rx="1"/>
<line x1="523.7" y1="174.1" x2="523.7" y2="228.9" stroke="#dc2626" stroke-width="1"/><rect x="520.9" y="174.6" width="5.5" height="32.2" fill="#dc2626" opacity="0.82" rx="1"/>
<line x1="532.7" y1="196.0" x2="532.7" y2="250.0" stroke="#dc2626" stroke-width="1"/><rect x="529.9" y="206.8" width="5.5" height="19.1" fill="#dc2626" opacity="0.82" rx="1"/>
<line x1="541.8" y1="211.1" x2="541.8" y2="255.1" stroke="#dc2626" stroke-width="1"/><rect x="539.0" y="225.9" width="5.5" height="6.7" fill="#dc2626" opacity="0.82" rx="1"/>
<line x1="550.8" y1="218.7" x2="550.8" y2="248.5" stroke="#16a34a" stroke-width="1"/><rect x="548.0" y="228.0" width="5.5" height="4.6" fill="#16a34a" opacity="0.82" rx="1"/>
<line x1="559.8" y1="227.5" x2="559.8" y2="247.5" stroke="#dc2626" stroke-width="1"/><rect x="557.1" y="228.0" width="5.5" height="10.5" fill="#dc2626" opacity="0.82" rx="1"/>
<line x1="568.9" y1="238.5" x2="568.9" y2="286.4" stroke="#dc2626" stroke-width="1"/><rect x="566.1" y="238.5" width="5.5" height="34.4" fill="#dc2626" opacity="0.82" rx="1"/>
<line x1="577.9" y1="256.2" x2="577.9" y2="292.2" stroke="#16a34a" stroke-width="1"/><rect x="575.1" y="270.9" width="5.5" height="1.9" fill="#16a34a" opacity="0.82" rx="1"/>
<line x1="586.9" y1="253.9" x2="586.9" y2="287.4" stroke="#16a34a" stroke-width="1"/><rect x="584.2" y="261.0" width="5.5" height="9.9" fill="#16a34a" opacity="0.82" rx="1"/>
<line x1="596.0" y1="225.5" x2="596.0" y2="261.0" stroke="#16a34a" stroke-width="1"/><rect x="593.2" y="238.0" width="5.5" height="23.0" fill="#16a34a" opacity="0.82" rx="1"/>
<line x1="605.0" y1="194.6" x2="605.0" y2="238.0" stroke="#16a34a" stroke-width="1"/><rect x="602.2" y="207.8" width="5.5" height="30.2" fill="#16a34a" opacity="0.82" rx="1"/>
<line x1="614.0" y1="200.3" x2="614.0" y2="227.8" stroke="#dc2626" stroke-width="1"/><rect x="611.3" y="207.8" width="5.5" height="4.4" fill="#dc2626" opacity="0.82" rx="1"/>
<line x1="623.1" y1="158.6" x2="623.1" y2="222.6" stroke="#16a34a" stroke-width="1"/><rect x="620.3" y="170.8" width="5.5" height="41.5" fill="#16a34a" opacity="0.82" rx="1"/>
<line x1="632.1" y1="158.2" x2="632.1" y2="181.7" stroke="#16a34a" stroke-width="1"/><rect x="629.3" y="167.9" width="5.5" height="2.9" fill="#16a34a" opacity="0.82" rx="1"/>
<line x1="641.1" y1="167.9" x2="641.1" y2="180.9" stroke="#dc2626" stroke-width="1"/><rect x="638.4" y="167.9" width="5.5" height="8.9" fill="#dc2626" opacity="0.82" rx="1"/>
<line x1="650.2" y1="147.2" x2="650.2" y2="181.8" stroke="#16a34a" stroke-width="1"/><rect x="647.4" y="164.4" width="5.5" height="12.4" fill="#16a34a" opacity="0.82" rx="1"/>
<line x1="659.2" y1="159.0" x2="659.2" y2="176.7" stroke="#dc2626" stroke-width="1"/><rect x="656.4" y="164.4" width="5.5" height="4.0" fill="#dc2626" opacity="0.82" rx="1"/>
<line x1="668.2" y1="143.2" x2="668.2" y2="168.5" stroke="#16a34a" stroke-width="1"/><rect x="665.5" y="150.2" width="5.5" height="18.3" fill="#16a34a" opacity="0.82" rx="1"/>
<line x1="677.3" y1="147.8" x2="677.3" y2="163.1" stroke="#dc2626" stroke-width="1"/><rect x="674.5" y="150.2" width="5.5" height="2.3" fill="#dc2626" opacity="0.82" rx="1"/>
<line x1="686.3" y1="130.5" x2="686.3" y2="163.1" stroke="#16a34a" stroke-width="1"/><rect x="683.5" y="135.7" width="5.5" height="16.9" fill="#16a34a" opacity="0.82" rx="1"/>
<line x1="695.3" y1="127.3" x2="695.3" y2="143.9" stroke="#dc2626" stroke-width="1"/><rect x="692.6" y="135.7" width="5.5" height="3.1" fill="#dc2626" opacity="0.82" rx="1"/>
<line x1="704.4" y1="132.4" x2="704.4" y2="185.3" stroke="#dc2626" stroke-width="1"/><rect x="701.6" y="138.7" width="5.5" height="7.5" fill="#dc2626" opacity="0.82" rx="1"/>
<line x1="713.4" y1="128.7" x2="713.4" y2="171.7" stroke="#16a34a" stroke-width="1"/><rect x="710.6" y="141.1" width="5.5" height="5.2" fill="#16a34a" opacity="0.82" rx="1"/>
<line x1="722.4" y1="139.3" x2="722.4" y2="167.5" stroke="#dc2626" stroke-width="1"/><rect x="719.7" y="141.0" width="5.5" height="26.3" fill="#dc2626" opacity="0.82" rx="1"/>
<line x1="731.5" y1="155.6" x2="731.5" y2="183.9" stroke="#16a34a" stroke-width="1"/><rect x="728.7" y="166.2" width="5.5" height="1.2" fill="#16a34a" opacity="0.82" rx="1"/>
<line x1="740.5" y1="159.1" x2="740.5" y2="181.5" stroke="#dc2626" stroke-width="1"/><rect x="737.7" y="166.2" width="5.5" height="12.8" fill="#dc2626" opacity="0.82" rx="1"/>
<line x1="749.5" y1="96.8" x2="749.5" y2="196.9" stroke="#16a34a" stroke-width="1"/><rect x="746.8" y="97.7" width="5.5" height="81.3" fill="#16a34a" opacity="0.82" rx="1"/>
<line x1="758.6" y1="86.7" x2="758.6" y2="122.2" stroke="#dc2626" stroke-width="1"/><rect x="755.8" y="97.7" width="5.5" height="14.0" fill="#dc2626" opacity="0.82" rx="1"/>
<line x1="767.6" y1="75.5" x2="767.6" y2="117.1" stroke="#16a34a" stroke-width="1"/><rect x="764.8" y="100.6" width="5.5" height="11.1" fill="#16a34a" opacity="0.82" rx="1"/>
<line x1="776.6" y1="96.2" x2="776.6" y2="126.3" stroke="#dc2626" stroke-width="1"/><rect x="773.9" y="100.6" width="5.5" height="16.2" fill="#dc2626" opacity="0.82" rx="1"/>
<line x1="785.7" y1="101.0" x2="785.7" y2="116.8" stroke="#16a34a" stroke-width="1"/><rect x="782.9" y="107.2" width="5.5" height="9.7" fill="#16a34a" opacity="0.82" rx="1"/>
<line x1="794.7" y1="95.7" x2="794.7" y2="111.6" stroke="#dc2626" stroke-width="1"/><rect x="791.9" y="107.2" width="5.5" height="1.5" fill="#dc2626" opacity="0.82" rx="1"/>
<line x1="803.7" y1="93.4" x2="803.7" y2="119.3" stroke="#16a34a" stroke-width="1"/><rect x="801.0" y="99.1" width="5.5" height="9.6" fill="#16a34a" opacity="0.82" rx="1"/>
<line x1="812.8" y1="85.0" x2="812.8" y2="107.1" stroke="#16a34a" stroke-width="1"/><rect x="810.0" y="97.3" width="5.5" height="1.7" fill="#16a34a" opacity="0.82" rx="1"/>
<line x1="821.8" y1="97.3" x2="821.8" y2="123.9" stroke="#dc2626" stroke-width="1"/><rect x="819.0" y="97.3" width="5.5" height="17.0" fill="#dc2626" opacity="0.82" rx="1"/>
<line x1="830.8" y1="87.3" x2="830.8" y2="114.4" stroke="#16a34a" stroke-width="1"/><rect x="828.1" y="99.2" width="5.5" height="15.2" fill="#16a34a" opacity="0.82" rx="1"/>
<line x1="839.9" y1="97.2" x2="839.9" y2="119.6" stroke="#dc2626" stroke-width="1"/><rect x="837.1" y="99.2" width="5.5" height="7.6" fill="#dc2626" opacity="0.82" rx="1"/>
<line x1="848.9" y1="80.8" x2="848.9" y2="114.3" stroke="#16a34a" stroke-width="1"/><rect x="846.1" y="93.4" width="5.5" height="13.4" fill="#16a34a" opacity="0.82" rx="1"/>
<line x1="857.9" y1="91.8" x2="857.9" y2="123.3" stroke="#dc2626" stroke-width="1"/><rect x="855.2" y="93.4" width="5.5" height="26.2" fill="#dc2626" opacity="0.82" rx="1"/>
<line x1="867.0" y1="115.5" x2="867.0" y2="160.0" stroke="#dc2626" stroke-width="1"/><rect x="864.2" y="119.6" width="5.5" height="28.9" fill="#dc2626" opacity="0.82" rx="1"/>
<line x1="876.0" y1="138.0" x2="876.0" y2="150.4" stroke="#16a34a" stroke-width="1"/><rect x="873.2" y="144.0" width="5.5" height="4.4" fill="#16a34a" opacity="0.82" rx="1"/>
<line x1="72" y1="185.3" x2="876" y2="185.3" stroke="#16a34a" stroke-width="1.4" stroke-dasharray="6 4" /><rect x="883" y="168.3" width="76" height="18" rx="4" fill="#ffffff" stroke="#16a34a" opacity="0.95"/><text x="888" y="181.3" fill="#16a34a" font-size="13">日内支撑 62,500</text>
<line x1="72" y1="75.3" x2="876" y2="75.3" stroke="#dc2626" stroke-width="1.4" stroke-dasharray="6 4" /><rect x="883" y="58.3" width="76" height="18" rx="4" fill="#ffffff" stroke="#dc2626" opacity="0.95"/><text x="888" y="71.3" fill="#dc2626" font-size="13">日内压力 63,936</text>
<line x1="72" y1="144.0" x2="876" y2="144.0" stroke="#111827" stroke-width="1.4" stroke-dasharray="2 2" /><rect x="883" y="127.0" width="76" height="18" rx="4" fill="#ffffff" stroke="#111827" opacity="0.95"/><text x="888" y="140.0" fill="#111827" font-size="13">现价 63,038</text>
<text x="72" y="396" fill="#16a34a" font-size="14" font-weight="700">日内做多计划</text><rect x="72" y="404" width="804" height="48" rx="6" fill="#f9fafb" stroke="#e5e7eb"/><line x1="94" y1="412" x2="854" y2="412" stroke="#16a34a" stroke-width="3"/><circle cx="132.0" cy="412" r="5" fill="#16a34a"/><text x="132.0" y="434" fill="#374151" font-size="12" text-anchor="middle">入场 止跌/突破回踩</text><circle cx="457.9" cy="412" r="5" fill="#16a34a"/><text x="457.9" y="434" fill="#374151" font-size="12" text-anchor="middle">止损 62,500</text><circle cx="726.0" cy="412" r="5" fill="#16a34a"/><text x="726.0" y="434" fill="#374151" font-size="12" text-anchor="middle">目标一 63,936</text><circle cx="828.0" cy="412" r="5" fill="#16a34a"/><text x="828.0" y="434" fill="#374151" font-size="12" text-anchor="middle">目标二 64,295</text>
<text x="72" y="482" fill="#dc2626" font-size="14" font-weight="700">日内做空计划</text><rect x="72" y="490" width="804" height="48" rx="6" fill="#f9fafb" stroke="#e5e7eb"/><line x1="94" y1="498" x2="854" y2="498" stroke="#dc2626" stroke-width="3"/><circle cx="132.0" cy="498" r="5" fill="#dc2626"/><text x="132.0" y="520" fill="#374151" font-size="12" text-anchor="middle">入场 反弹承压/破位回抽</text><circle cx="457.9" cy="498" r="5" fill="#dc2626"/><text x="457.9" y="520" fill="#374151" font-size="12" text-anchor="middle">止损 63,936</text><circle cx="726.0" cy="498" r="5" fill="#dc2626"/><text x="726.0" y="520" fill="#374151" font-size="12" text-anchor="middle">目标一 62,500</text><circle cx="828.0" cy="498" r="5" fill="#dc2626"/><text x="828.0" y="520" fill="#374151" font-size="12" text-anchor="middle">目标二 62,141</text>
</svg>