<svg xmlns="http://www.w3.org/2000/svg" width="960" height="560" viewBox="0 0 960 560">
<rect width="100%" height="100%" fill="#ffffff"/>
<text x="72" y="22" fill="#111827" font-size="18" font-weight="700">BTC 日线K线支撑压力图</text>
<text x="846" y="42" fill="#374151" font-size="13">最新价 62,996</text>
<line x1="72" y1="34" x2="72" y2="340" stroke="#d1d5db"/>
<line x1="72" y1="340" x2="876" y2="340" stroke="#d1d5db"/>
<line x1="72" y1="340.0" x2="876" y2="340.0" stroke="#f3f4f6"/>
<text x="10" y="344.0" fill="#6b7280" font-size="12">57,046</text>
<line x1="72" y1="263.5" x2="876" y2="263.5" stroke="#f3f4f6"/>
<text x="10" y="267.5" fill="#6b7280" font-size="12">63,975</text>
<line x1="72" y1="187.0" x2="876" y2="187.0" stroke="#f3f4f6"/>
<text x="10" y="191.0" fill="#6b7280" font-size="12">70,904</text>
<line x1="72" y1="110.5" x2="876" y2="110.5" stroke="#f3f4f6"/>
<text x="10" y="114.5" fill="#6b7280" font-size="12">77,833</text>
<line x1="72" y1="34.0" x2="876" y2="34.0" stroke="#f3f4f6"/>
<text x="10" y="38.0" fill="#6b7280" font-size="12">84,761</text>
<line x1="72.0" y1="161.7" x2="72.0" y2="187.5" stroke="#16a34a" stroke-width="1"/><rect x="69.2" y="165.9" width="5.5" height="17.7" fill="#16a34a" opacity="0.82" rx="1"/>
<line x1="81.0" y1="142.8" x2="81.0" y2="171.9" stroke="#16a34a" stroke-width="1"/><rect x="78.3" y="143.0" width="5.5" height="22.8" fill="#16a34a" opacity="0.82" rx="1"/>
<line x1="90.1" y1="130.7" x2="90.1" y2="159.4" stroke="#dc2626" stroke-width="1"/><rect x="87.3" y="143.0" width="5.5" height="10.8" fill="#dc2626" opacity="0.82" rx="1"/>
<line x1="99.1" y1="145.4" x2="99.1" y2="191.5" stroke="#dc2626" stroke-width="1"/><rect x="96.3" y="153.8" width="5.5" height="29.4" fill="#dc2626" opacity="0.82" rx="1"/>
<line x1="108.1" y1="179.2" x2="108.1" y2="210.3" stroke="#dc2626" stroke-width="1"/><rect x="105.4" y="183.2" width="5.5" height="14.5" fill="#dc2626" opacity="0.82" rx="1"/>
<line x1="117.2" y1="181.9" x2="117.2" y2="203.7" stroke="#16a34a" stroke-width="1"/><rect x="114.4" y="191.3" width="5.5" height="6.4" fill="#16a34a" opacity="0.82" rx="1"/>
<line x1="126.2" y1="184.8" x2="126.2" y2="212.7" stroke="#dc2626" stroke-width="1"/><rect x="123.4" y="191.3" width="5.5" height="17.6" fill="#dc2626" opacity="0.82" rx="1"/>
<line x1="135.2" y1="201.5" x2="135.2" y2="226.1" stroke="#dc2626" stroke-width="1"/><rect x="132.5" y="208.9" width="5.5" height="11.7" fill="#dc2626" opacity="0.82" rx="1"/>
<line x1="144.3" y1="176.9" x2="144.3" y2="225.2" stroke="#16a34a" stroke-width="1"/><rect x="141.5" y="187.0" width="5.5" height="33.6" fill="#16a34a" opacity="0.82" rx="1"/>
<line x1="153.3" y1="181.5" x2="153.3" y2="208.9" stroke="#dc2626" stroke-width="1"/><rect x="150.5" y="187.0" width="5.5" height="3.9" fill="#dc2626" opacity="0.82" rx="1"/>
<line x1="162.3" y1="174.6" x2="162.3" y2="192.5" stroke="#16a34a" stroke-width="1"/><rect x="159.6" y="182.2" width="5.5" height="8.6" fill="#16a34a" opacity="0.82" rx="1"/>
<line x1="171.4" y1="181.1" x2="171.4" y2="217.4" stroke="#dc2626" stroke-width="1"/><rect x="168.6" y="182.2" width="5.5" height="27.8" fill="#dc2626" opacity="0.82" rx="1"/>
<line x1="180.4" y1="206.0" x2="180.4" y2="246.1" stroke="#dc2626" stroke-width="1"/><rect x="177.6" y="210.0" width="5.5" height="26.6" fill="#dc2626" opacity="0.82" rx="1"/>
<line x1="189.4" y1="226.9" x2="189.4" y2="241.9" stroke="#dc2626" stroke-width="1"/><rect x="186.7" y="236.6" width="5.5" height="1.2" fill="#dc2626" opacity="0.82" rx="1"/>
<line x1="198.5" y1="228.7" x2="198.5" y2="252.2" stroke="#dc2626" stroke-width="1"/><rect x="195.7" y="237.0" width="5.5" height="4.0" fill="#dc2626" opacity="0.82" rx="1"/>
<line x1="207.5" y1="217.2" x2="207.5" y2="243.3" stroke="#16a34a" stroke-width="1"/><rect x="204.7" y="232.3" width="5.5" height="8.7" fill="#16a34a" opacity="0.82" rx="1"/>
<line x1="216.5" y1="212.5" x2="216.5" y2="241.2" stroke="#16a34a" stroke-width="1"/><rect x="213.8" y="215.9" width="5.5" height="16.4" fill="#16a34a" opacity="0.82" rx="1"/>
<line x1="225.6" y1="204.6" x2="225.6" y2="223.7" stroke="#dc2626" stroke-width="1"/><rect x="222.8" y="215.9" width="5.5" height="1.9" fill="#dc2626" opacity="0.82" rx="1"/>
<line x1="234.6" y1="211.8" x2="234.6" y2="244.3" stroke="#dc2626" stroke-width="1"/><rect x="231.8" y="217.8" width="5.5" height="13.4" fill="#dc2626" opacity="0.82" rx="1"/>
<line x1="243.6" y1="226.0" x2="243.6" y2="238.0" stroke="#16a34a" stroke-width="1"/><rect x="240.9" y="230.5" width="5.5" height="1.2" fill="#16a34a" opacity="0.82" rx="1"/>
<line x1="252.7" y1="223.9" x2="252.7" y2="232.6" stroke="#16a34a" stroke-width="1"/><rect x="249.9" y="226.8" width="5.5" height="3.7" fill="#16a34a" opacity="0.82" rx="1"/>
<line x1="261.7" y1="206.5" x2="261.7" y2="234.4" stroke="#16a34a" stroke-width="1"/><rect x="258.9" y="207.6" width="5.5" height="19.1" fill="#16a34a" opacity="0.82" rx="1"/>
<line x1="270.7" y1="193.1" x2="270.7" y2="215.7" stroke="#dc2626" stroke-width="1"/><rect x="268.0" y="207.6" width="5.5" height="2.0" fill="#dc2626" opacity="0.82" rx="1"/>
<line x1="279.8" y1="166.5" x2="279.8" y2="222.0" stroke="#16a34a" stroke-width="1"/><rect x="277.0" y="175.7" width="5.5" height="33.9" fill="#16a34a" opacity="0.82" rx="1"/>
<line x1="288.8" y1="165.4" x2="288.8" y2="189.2" stroke="#dc2626" stroke-width="1"/><rect x="286.0" y="175.7" width="5.5" height="9.4" fill="#dc2626" opacity="0.82" rx="1"/>
<line x1="297.8" y1="162.3" x2="297.8" y2="191.8" stroke="#16a34a" stroke-width="1"/><rect x="295.1" y="177.2" width="5.5" height="7.9" fill="#16a34a" opacity="0.82" rx="1"/>
<line x1="306.9" y1="159.1" x2="306.9" y2="181.2" stroke="#16a34a" stroke-width="1"/><rect x="304.1" y="164.3" width="5.5" height="13.0" fill="#16a34a" opacity="0.82" rx="1"/>
<line x1="315.9" y1="155.1" x2="315.9" y2="169.2" stroke="#16a34a" stroke-width="1"/><rect x="313.1" y="163.4" width="5.5" height="1.2" fill="#16a34a" opacity="0.82" rx="1"/>
<line x1="324.9" y1="162.3" x2="324.9" y2="191.4" stroke="#dc2626" stroke-width="1"/><rect x="322.2" y="163.4" width="5.5" height="25.4" fill="#dc2626" opacity="0.82" rx="1"/>
<line x1="334.0" y1="142.9" x2="334.0" y2="190.7" stroke="#16a34a" stroke-width="1"/><rect x="331.2" y="148.2" width="5.5" height="40.6" fill="#16a34a" opacity="0.82" rx="1"/>
<line x1="343.0" y1="130.3" x2="343.0" y2="155.1" stroke="#dc2626" stroke-width="1"/><rect x="340.2" y="148.2" width="5.5" height="3.2" fill="#dc2626" opacity="0.82" rx="1"/>
<line x1="352.0" y1="137.1" x2="352.0" y2="158.2" stroke="#16a34a" stroke-width="1"/><rect x="349.3" y="143.9" width="5.5" height="7.5" fill="#16a34a" opacity="0.82" rx="1"/>
<line x1="361.1" y1="135.9" x2="361.1" y2="160.4" stroke="#16a34a" stroke-width="1"/><rect x="358.3" y="140.1" width="5.5" height="3.8" fill="#16a34a" opacity="0.82" rx="1"/>
<line x1="370.1" y1="105.0" x2="370.1" y2="147.0" stroke="#16a34a" stroke-width="1"/><rect x="367.3" y="118.9" width="5.5" height="21.2" fill="#16a34a" opacity="0.82" rx="1"/>
<line x1="379.1" y1="115.1" x2="379.1" y2="136.9" stroke="#dc2626" stroke-width="1"/><rect x="376.4" y="118.9" width="5.5" height="15.2" fill="#dc2626" opacity="0.82" rx="1"/>
<line x1="388.2" y1="128.1" x2="388.2" y2="155.4" stroke="#dc2626" stroke-width="1"/><rect x="385.4" y="134.1" width="5.5" height="20.9" fill="#dc2626" opacity="0.82" rx="1"/>
<line x1="397.2" y1="124.6" x2="397.2" y2="155.9" stroke="#16a34a" stroke-width="1"/><rect x="394.4" y="132.5" width="5.5" height="22.5" fill="#16a34a" opacity="0.82" rx="1"/>
<line x1="406.2" y1="120.5" x2="406.2" y2="143.7" stroke="#16a34a" stroke-width="1"/><rect x="403.5" y="127.0" width="5.5" height="5.5" fill="#16a34a" opacity="0.82" rx="1"/>
<line x1="415.3" y1="92.4" x2="415.3" y2="129.3" stroke="#16a34a" stroke-width="1"/><rect x="412.5" y="106.7" width="5.5" height="20.3" fill="#16a34a" opacity="0.82" rx="1"/>
<line x1="424.3" y1="101.3" x2="424.3" y2="120.1" stroke="#16a34a" stroke-width="1"/><rect x="421.5" y="105.8" width="5.5" height="1.2" fill="#16a34a" opacity="0.82" rx="1"/>
<line x1="433.3" y1="102.2" x2="433.3" y2="116.8" stroke="#dc2626" stroke-width="1"/><rect x="430.6" y="105.8" width="5.5" height="9.1" fill="#dc2626" opacity="0.82" rx="1"/>
<line x1="442.4" y1="109.9" x2="442.4" y2="118.1" stroke="#16a34a" stroke-width="1"/><rect x="439.6" y="112.8" width="5.5" height="2.1" fill="#16a34a" opacity="0.82" rx="1"/>
<line x1="451.4" y1="98.0" x2="451.4" y2="116.1" stroke="#16a34a" stroke-width="1"/><rect x="448.6" y="101.4" width="5.5" height="11.4" fill="#16a34a" opacity="0.82" rx="1"/>
<line x1="460.4" y1="92.2" x2="460.4" y2="125.7" stroke="#dc2626" stroke-width="1"/><rect x="457.7" y="101.4" width="5.5" height="14.2" fill="#dc2626" opacity="0.82" rx="1"/>
<line x1="469.5" y1="114.4" x2="469.5" y2="134.4" stroke="#dc2626" stroke-width="1"/><rect x="466.7" y="115.6" width="5.5" height="11.4" fill="#dc2626" opacity="0.82" rx="1"/>
<line x1="478.5" y1="109.7" x2="478.5" y2="142.5" stroke="#dc2626" stroke-width="1"/><rect x="475.7" y="126.9" width="5.5" height="6.2" fill="#dc2626" opacity="0.82" rx="1"/>
<line x1="487.6" y1="123.3" x2="487.6" y2="138.2" stroke="#16a34a" stroke-width="1"/><rect x="484.8" y="126.9" width="5.5" height="6.3" fill="#16a34a" opacity="0.82" rx="1"/>
<line x1="496.6" y1="98.6" x2="496.6" y2="127.2" stroke="#16a34a" stroke-width="1"/><rect x="493.8" y="106.1" width="5.5" height="20.8" fill="#16a34a" opacity="0.82" rx="1"/>
<line x1="505.6" y1="95.4" x2="505.6" y2="108.2" stroke="#16a34a" stroke-width="1"/><rect x="502.8" y="101.1" width="5.5" height="5.0" fill="#16a34a" opacity="0.82" rx="1"/>
<line x1="514.7" y1="92.7" x2="514.7" y2="107.7" stroke="#dc2626" stroke-width="1"/><rect x="511.9" y="101.1" width="5.5" height="1.3" fill="#dc2626" opacity="0.82" rx="1"/>
<line x1="523.7" y1="78.0" x2="523.7" y2="106.4" stroke="#16a34a" stroke-width="1"/><rect x="520.9" y="88.1" width="5.5" height="14.3" fill="#16a34a" opacity="0.82" rx="1"/>
<line x1="532.7" y1="66.8" x2="532.7" y2="88.7" stroke="#16a34a" stroke-width="1"/><rect x="529.9" y="76.6" width="5.5" height="11.5" fill="#16a34a" opacity="0.82" rx="1"/>
<line x1="541.8" y1="55.1" x2="541.8" y2="78.5" stroke="#16a34a" stroke-width="1"/><rect x="539.0" y="70.6" width="5.5" height="6.0" fill="#16a34a" opacity="0.82" rx="1"/>
<line x1="550.8" y1="67.7" x2="550.8" y2="92.1" stroke="#dc2626" stroke-width="1"/><rect x="548.0" y="70.6" width="5.5" height="15.9" fill="#dc2626" opacity="0.82" rx="1"/>
<line x1="559.8" y1="81.0" x2="559.8" y2="95.6" stroke="#16a34a" stroke-width="1"/><rect x="557.1" y="84.4" width="5.5" height="2.1" fill="#16a34a" opacity="0.82" rx="1"/>
<line x1="568.9" y1="74.6" x2="568.9" y2="85.1" stroke="#16a34a" stroke-width="1"/><rect x="566.1" y="79.1" width="5.5" height="5.4" fill="#16a34a" opacity="0.82" rx="1"/>
<line x1="577.9" y1="59.2" x2="577.9" y2="83.5" stroke="#16a34a" stroke-width="1"/><rect x="575.1" y="62.2" width="5.5" height="16.9" fill="#16a34a" opacity="0.82" rx="1"/>
<line x1="586.9" y1="60.3" x2="586.9" y2="81.5" stroke="#dc2626" stroke-width="1"/><rect x="584.2" y="62.2" width="5.5" height="5.1" fill="#dc2626" opacity="0.82" rx="1"/>
<line x1="596.0" y1="66.8" x2="596.0" y2="88.3" stroke="#dc2626" stroke-width="1"/><rect x="593.2" y="67.3" width="5.5" height="13.7" fill="#dc2626" opacity="0.82" rx="1"/>
<line x1="605.0" y1="71.9" x2="605.0" y2="100.3" stroke="#dc2626" stroke-width="1"/><rect x="602.2" y="81.0" width="5.5" height="13.1" fill="#dc2626" opacity="0.82" rx="1"/>
<line x1="614.0" y1="64.0" x2="614.0" y2="98.5" stroke="#16a34a" stroke-width="1"/><rect x="611.3" y="74.5" width="5.5" height="19.6" fill="#16a34a" opacity="0.82" rx="1"/>
<line x1="623.1" y1="68.2" x2="623.1" y2="101.4" stroke="#dc2626" stroke-width="1"/><rect x="620.3" y="74.5" width="5.5" height="21.8" fill="#dc2626" opacity="0.82" rx="1"/>
<line x1="632.1" y1="95.1" x2="632.1" y2="112.6" stroke="#dc2626" stroke-width="1"/><rect x="629.3" y="96.4" width="5.5" height="10.7" fill="#dc2626" opacity="0.82" rx="1"/>
<line x1="641.1" y1="102.0" x2="641.1" y2="122.6" stroke="#dc2626" stroke-width="1"/><rect x="638.4" y="107.0" width="5.5" height="7.6" fill="#dc2626" opacity="0.82" rx="1"/>
<line x1="650.2" y1="110.9" x2="650.2" y2="130.2" stroke="#dc2626" stroke-width="1"/><rect x="647.4" y="114.6" width="5.5" height="5.0" fill="#dc2626" opacity="0.82" rx="1"/>
<line x1="659.2" y1="115.1" x2="659.2" y2="129.1" stroke="#dc2626" stroke-width="1"/><rect x="656.4" y="119.7" width="5.5" height="1.8" fill="#dc2626" opacity="0.82" rx="1"/>
<line x1="668.2" y1="110.3" x2="668.2" y2="125.0" stroke="#16a34a" stroke-width="1"/><rect x="665.5" y="113.6" width="5.5" height="7.9" fill="#16a34a" opacity="0.82" rx="1"/>
<line x1="677.3" y1="106.4" x2="677.3" y2="122.8" stroke="#16a34a" stroke-width="1"/><rect x="674.5" y="112.9" width="5.5" height="1.2" fill="#16a34a" opacity="0.82" rx="1"/>
<line x1="686.3" y1="109.8" x2="686.3" y2="137.8" stroke="#dc2626" stroke-width="1"/><rect x="683.5" y="112.9" width="5.5" height="22.9" fill="#dc2626" opacity="0.82" rx="1"/>
<line x1="695.3" y1="115.2" x2="695.3" y2="149.6" stroke="#16a34a" stroke-width="1"/><rect x="692.6" y="122.4" width="5.5" height="13.4" fill="#16a34a" opacity="0.82" rx="1"/>
<line x1="704.4" y1="113.7" x2="704.4" y2="129.5" stroke="#16a34a" stroke-width="1"/><rect x="701.6" y="119.0" width="5.5" height="3.5" fill="#16a34a" opacity="0.82" rx="1"/>
<line x1="713.4" y1="109.7" x2="713.4" y2="120.6" stroke="#16a34a" stroke-width="1"/><rect x="710.6" y="116.1" width="5.5" height="2.8" fill="#16a34a" opacity="0.82" rx="1"/>
<line x1="722.4" y1="107.8" x2="722.4" y2="134.3" stroke="#dc2626" stroke-width="1"/><rect x="719.7" y="116.1" width="5.5" height="15.4" fill="#dc2626" opacity="0.82" rx="1"/>
<line x1="731.5" y1="128.8" x2="731.5" y2="150.1" stroke="#dc2626" stroke-width="1"/><rect x="728.7" y="131.5" width="5.5" height="16.3" fill="#dc2626" opacity="0.82" rx="1"/>
<line x1="740.5" y1="146.3" x2="740.5" y2="168.5" stroke="#dc2626" stroke-width="1"/><rect x="737.7" y="147.9" width="5.5" height="9.2" fill="#dc2626" opacity="0.82" rx="1"/>
<line x1="749.5" y1="147.1" x2="749.5" y2="169.2" stroke="#dc2626" stroke-width="1"/><rect x="746.8" y="157.0" width="5.5" height="1.7" fill="#dc2626" opacity="0.82" rx="1"/>
<line x1="758.6" y1="151.2" x2="758.6" y2="161.5" stroke="#16a34a" stroke-width="1"/><rect x="755.8" y="154.1" width="5.5" height="4.7" fill="#16a34a" opacity="0.82" rx="1"/>
<line x1="767.6" y1="149.8" x2="767.6" y2="159.4" stroke="#dc2626" stroke-width="1"/><rect x="764.8" y="154.1" width="5.5" height="2.3" fill="#dc2626" opacity="0.82" rx="1"/>
<line x1="776.6" y1="151.8" x2="776.6" y2="189.4" stroke="#dc2626" stroke-width="1"/><rect x="773.9" y="156.4" width="5.5" height="25.0" fill="#dc2626" opacity="0.82" rx="1"/>
<line x1="785.7" y1="181.4" x2="785.7" y2="239.0" stroke="#dc2626" stroke-width="1"/><rect x="782.9" y="181.4" width="5.5" height="51.3" fill="#dc2626" opacity="0.82" rx="1"/>
<line x1="794.7" y1="224.4" x2="794.7" y2="262.2" stroke="#dc2626" stroke-width="1"/><rect x="791.9" y="232.7" width="5.5" height="28.9" fill="#dc2626" opacity="0.82" rx="1"/>
<line x1="803.7" y1="254.8" x2="803.7" y2="292.1" stroke="#dc2626" stroke-width="1"/><rect x="801.0" y="261.6" width="5.5" height="2.8" fill="#dc2626" opacity="0.82" rx="1"/>
<line x1="812.8" y1="263.5" x2="812.8" y2="317.0" stroke="#dc2626" stroke-width="1"/><rect x="810.0" y="264.5" width="5.5" height="31.2" fill="#dc2626" opacity="0.82" rx="1"/>
<line x1="821.8" y1="290.5" x2="821.8" y2="312.9" stroke="#dc2626" stroke-width="1"/><rect x="819.0" y="295.7" width="5.5" height="1.9" fill="#dc2626" opacity="0.82" rx="1"/>
<line x1="830.8" y1="260.6" x2="830.8" y2="299.1" stroke="#16a34a" stroke-width="1"/><rect x="828.1" y="270.6" width="5.5" height="27.0" fill="#16a34a" opacity="0.82" rx="1"/>
<line x1="839.9" y1="261.0" x2="839.9" y2="280.8" stroke="#dc2626" stroke-width="1"/><rect x="837.1" y="270.6" width="5.5" height="2.7" fill="#dc2626" opacity="0.82" rx="1"/>
<line x1="848.9" y1="268.5" x2="848.9" y2="298.8" stroke="#dc2626" stroke-width="1"/><rect x="846.1" y="273.3" width="5.5" height="15.0" fill="#dc2626" opacity="0.82" rx="1"/>
<line x1="857.9" y1="275.8" x2="857.9" y2="299.0" stroke="#dc2626" stroke-width="1"/><rect x="855.2" y="288.3" width="5.5" height="2.4" fill="#dc2626" opacity="0.82" rx="1"/>
<line x1="867.0" y1="264.0" x2="867.0" y2="290.7" stroke="#16a34a" stroke-width="1"/><rect x="864.2" y="267.4" width="5.5" height="23.4" fill="#16a34a" opacity="0.82" rx="1"/>
<line x1="876.0" y1="264.7" x2="876.0" y2="276.1" stroke="#dc2626" stroke-width="1"/><rect x="873.2" y="267.4" width="5.5" height="7.0" fill="#dc2626" opacity="0.82" rx="1"/>
<line x1="72" y1="318.9" x2="876" y2="318.9" stroke="#16a34a" stroke-width="1.4" stroke-dasharray="6 4" /><rect x="883" y="301.9" width="76" height="18" rx="4" fill="#ffffff" stroke="#16a34a" opacity="0.95"/><text x="888" y="314.9" fill="#16a34a" font-size="13">支撑 58,957</text>
<line x1="72" y1="200.0" x2="876" y2="200.0" stroke="#dc2626" stroke-width="1.4" stroke-dasharray="6 4" /><rect x="883" y="183.0" width="76" height="18" rx="4" fill="#ffffff" stroke="#dc2626" opacity="0.95"/><text x="888" y="196.0" fill="#dc2626" font-size="13">压力 69,726</text>
<line x1="72" y1="274.3" x2="876" y2="274.3" stroke="#111827" stroke-width="1.4" stroke-dasharray="2 2" /><rect x="883" y="257.3" width="76" height="18" rx="4" fill="#ffffff" stroke="#111827" opacity="0.95"/><text x="888" y="270.3" fill="#111827" font-size="13">现价 62,996</text>
<text x="72" y="396" fill="#16a34a" font-size="14" font-weight="700">做多计划</text><rect x="72" y="404" width="804" height="48" rx="6" fill="#f9fafb" stroke="#e5e7eb"/><line x1="94" y1="412" x2="854" y2="412" stroke="#16a34a" stroke-width="3"/><circle cx="132.0" cy="412" r="5" fill="#16a34a"/><text x="132.0" y="434" fill="#374151" font-size="12" text-anchor="middle">入场 止跌/突破回踩</text><circle cx="457.9" cy="412" r="5" fill="#16a34a"/><text x="457.9" y="434" fill="#374151" font-size="12" text-anchor="middle">止损 58,957</text><circle cx="726.0" cy="412" r="5" fill="#16a34a"/><text x="726.0" y="434" fill="#374151" font-size="12" text-anchor="middle">目标一 69,726</text><circle cx="828.0" cy="412" r="5" fill="#16a34a"/><text x="828.0" y="434" fill="#374151" font-size="12" text-anchor="middle">目标二 73,765</text>
<text x="72" y="482" fill="#dc2626" font-size="14" font-weight="700">做空计划</text><rect x="72" y="490" width="804" height="48" rx="6" fill="#f9fafb" stroke="#e5e7eb"/><line x1="94" y1="498" x2="854" y2="498" stroke="#dc2626" stroke-width="3"/><circle cx="132.0" cy="498" r="5" fill="#dc2626"/><text x="132.0" y="520" fill="#374151" font-size="12" text-anchor="middle">入场 反弹承压/破位回抽</text><circle cx="457.9" cy="498" r="5" fill="#dc2626"/><text x="457.9" y="520" fill="#374151" font-size="12" text-anchor="middle">止损 69,726</text><circle cx="726.0" cy="498" r="5" fill="#dc2626"/><text x="726.0" y="520" fill="#374151" font-size="12" text-anchor="middle">目标一 58,957</text><circle cx="828.0" cy="498" r="5" fill="#dc2626"/><text x="828.0" y="520" fill="#374151" font-size="12" text-anchor="middle">目标二 56,265</text>
</svg>