<svg xmlns="http://www.w3.org/2000/svg" width="960" height="560" viewBox="0 0 960 560">
<rect width="100%" height="100%" fill="#ffffff"/>
<text x="72" y="23" fill="#111827" font-size="21" font-weight="800">BTC 日线K线支撑压力图</text>
<text x="842" y="42" fill="#374151" font-size="15" text-anchor="end">最新价 63,389</text>
<line x1="72" y1="34" x2="72" y2="340" stroke="#d1d5db"/>
<line x1="72" y1="340" x2="842" y2="340" stroke="#d1d5db"/>
<line x1="72" y1="340.0" x2="842" y2="340.0" stroke="#f3f4f6"/>
<text x="8" y="345.0" fill="#4b5563" font-size="14">57,180</text>
<line x1="72" y1="263.5" x2="842" y2="263.5" stroke="#f3f4f6"/>
<text x="8" y="268.5" fill="#4b5563" font-size="14">64,067</text>
<line x1="72" y1="187.0" x2="842" y2="187.0" stroke="#f3f4f6"/>
<text x="8" y="192.0" fill="#4b5563" font-size="14">70,954</text>
<line x1="72" y1="110.5" x2="842" y2="110.5" stroke="#f3f4f6"/>
<text x="8" y="115.5" fill="#4b5563" font-size="14">77,841</text>
<line x1="72" y1="34.0" x2="842" y2="34.0" stroke="#f3f4f6"/>
<text x="8" y="39.0" fill="#4b5563" font-size="14">84,729</text>
<line x1="72.0" y1="162.1" x2="72.0" y2="188.5" stroke="#16a34a" stroke-width="1"/><rect x="69.3" y="166.7" width="5.3" height="17.8" fill="#16a34a" opacity="0.82" rx="1"/>
<line x1="80.7" y1="143.4" x2="80.7" y2="172.8" stroke="#16a34a" stroke-width="1"/><rect x="78.0" y="143.8" width="5.3" height="23.0" fill="#16a34a" opacity="0.82" rx="1"/>
<line x1="89.3" y1="131.0" x2="89.3" y2="160.6" stroke="#dc2626" stroke-width="1"/><rect x="86.7" y="143.8" width="5.3" height="10.8" fill="#dc2626" opacity="0.82" rx="1"/>
<line x1="98.0" y1="146.1" x2="98.0" y2="192.5" stroke="#dc2626" stroke-width="1"/><rect x="95.3" y="154.6" width="5.3" height="29.7" fill="#dc2626" opacity="0.82" rx="1"/>
<line x1="106.6" y1="179.8" x2="106.6" y2="211.5" stroke="#dc2626" stroke-width="1"/><rect x="104.0" y="184.2" width="5.3" height="14.6" fill="#dc2626" opacity="0.82" rx="1"/>
<line x1="115.3" y1="182.7" x2="115.3" y2="204.8" stroke="#16a34a" stroke-width="1"/><rect x="112.6" y="192.4" width="5.3" height="6.5" fill="#16a34a" opacity="0.82" rx="1"/>
<line x1="123.9" y1="185.6" x2="123.9" y2="214.1" stroke="#dc2626" stroke-width="1"/><rect x="121.3" y="192.4" width="5.3" height="17.7" fill="#dc2626" opacity="0.82" rx="1"/>
<line x1="132.6" y1="202.5" x2="132.6" y2="227.6" stroke="#dc2626" stroke-width="1"/><rect x="129.9" y="210.0" width="5.3" height="11.7" fill="#dc2626" opacity="0.82" rx="1"/>
<line x1="141.2" y1="177.7" x2="141.2" y2="226.5" stroke="#16a34a" stroke-width="1"/><rect x="138.6" y="188.0" width="5.3" height="33.7" fill="#16a34a" opacity="0.82" rx="1"/>
<line x1="149.9" y1="182.3" x2="149.9" y2="210.0" stroke="#dc2626" stroke-width="1"/><rect x="147.2" y="188.0" width="5.3" height="3.8" fill="#dc2626" opacity="0.82" rx="1"/>
<line x1="158.5" y1="175.4" x2="158.5" y2="193.4" stroke="#16a34a" stroke-width="1"/><rect x="155.9" y="183.2" width="5.3" height="8.6" fill="#16a34a" opacity="0.82" rx="1"/>
<line x1="167.2" y1="182.0" x2="167.2" y2="218.5" stroke="#dc2626" stroke-width="1"/><rect x="164.5" y="183.2" width="5.3" height="27.9" fill="#dc2626" opacity="0.82" rx="1"/>
<line x1="175.8" y1="207.1" x2="175.8" y2="247.6" stroke="#dc2626" stroke-width="1"/><rect x="173.2" y="211.1" width="5.3" height="26.9" fill="#dc2626" opacity="0.82" rx="1"/>
<line x1="184.5" y1="227.8" x2="184.5" y2="243.3" stroke="#dc2626" stroke-width="1"/><rect x="181.8" y="238.0" width="5.3" height="1.2" fill="#dc2626" opacity="0.82" rx="1"/>
<line x1="193.1" y1="229.8" x2="193.1" y2="254.0" stroke="#dc2626" stroke-width="1"/><rect x="190.5" y="238.3" width="5.3" height="4.0" fill="#dc2626" opacity="0.82" rx="1"/>
<line x1="201.8" y1="218.2" x2="201.8" y2="244.8" stroke="#16a34a" stroke-width="1"/><rect x="199.1" y="233.5" width="5.3" height="8.7" fill="#16a34a" opacity="0.82" rx="1"/>
<line x1="210.4" y1="213.2" x2="210.4" y2="242.7" stroke="#16a34a" stroke-width="1"/><rect x="207.8" y="217.1" width="5.3" height="16.4" fill="#16a34a" opacity="0.82" rx="1"/>
<line x1="219.1" y1="205.5" x2="219.1" y2="225.0" stroke="#dc2626" stroke-width="1"/><rect x="216.4" y="217.1" width="5.3" height="1.7" fill="#dc2626" opacity="0.82" rx="1"/>
<line x1="227.7" y1="212.7" x2="227.7" y2="245.6" stroke="#dc2626" stroke-width="1"/><rect x="225.1" y="218.9" width="5.3" height="13.5" fill="#dc2626" opacity="0.82" rx="1"/>
<line x1="236.4" y1="227.0" x2="236.4" y2="239.4" stroke="#16a34a" stroke-width="1"/><rect x="233.7" y="231.7" width="5.3" height="1.2" fill="#16a34a" opacity="0.82" rx="1"/>
<line x1="245.0" y1="224.8" x2="245.0" y2="233.8" stroke="#16a34a" stroke-width="1"/><rect x="242.4" y="227.9" width="5.3" height="3.8" fill="#16a34a" opacity="0.82" rx="1"/>
<line x1="253.7" y1="207.5" x2="253.7" y2="235.6" stroke="#16a34a" stroke-width="1"/><rect x="251.0" y="208.7" width="5.3" height="19.2" fill="#16a34a" opacity="0.82" rx="1"/>
<line x1="262.3" y1="193.9" x2="262.3" y2="217.3" stroke="#dc2626" stroke-width="1"/><rect x="259.7" y="208.7" width="5.3" height="2.0" fill="#dc2626" opacity="0.82" rx="1"/>
<line x1="271.0" y1="167.1" x2="271.0" y2="223.0" stroke="#16a34a" stroke-width="1"/><rect x="268.3" y="176.6" width="5.3" height="34.1" fill="#16a34a" opacity="0.82" rx="1"/>
<line x1="279.6" y1="165.8" x2="279.6" y2="190.1" stroke="#dc2626" stroke-width="1"/><rect x="277.0" y="176.6" width="5.3" height="9.5" fill="#dc2626" opacity="0.82" rx="1"/>
<line x1="288.3" y1="162.9" x2="288.3" y2="192.8" stroke="#16a34a" stroke-width="1"/><rect x="285.6" y="178.2" width="5.3" height="7.9" fill="#16a34a" opacity="0.82" rx="1"/>
<line x1="296.9" y1="159.3" x2="296.9" y2="182.2" stroke="#16a34a" stroke-width="1"/><rect x="294.3" y="165.2" width="5.3" height="13.0" fill="#16a34a" opacity="0.82" rx="1"/>
<line x1="305.6" y1="155.7" x2="305.6" y2="170.4" stroke="#16a34a" stroke-width="1"/><rect x="302.9" y="164.1" width="5.3" height="1.2" fill="#16a34a" opacity="0.82" rx="1"/>
<line x1="314.2" y1="163.2" x2="314.2" y2="192.5" stroke="#dc2626" stroke-width="1"/><rect x="311.6" y="164.1" width="5.3" height="25.6" fill="#dc2626" opacity="0.82" rx="1"/>
<line x1="322.9" y1="143.5" x2="322.9" y2="191.9" stroke="#16a34a" stroke-width="1"/><rect x="320.2" y="148.9" width="5.3" height="40.8" fill="#16a34a" opacity="0.82" rx="1"/>
<line x1="331.6" y1="130.9" x2="331.6" y2="155.8" stroke="#dc2626" stroke-width="1"/><rect x="328.9" y="148.9" width="5.3" height="3.1" fill="#dc2626" opacity="0.82" rx="1"/>
<line x1="340.2" y1="137.3" x2="340.2" y2="159.3" stroke="#16a34a" stroke-width="1"/><rect x="337.6" y="144.5" width="5.3" height="7.4" fill="#16a34a" opacity="0.82" rx="1"/>
<line x1="348.9" y1="136.5" x2="348.9" y2="161.4" stroke="#16a34a" stroke-width="1"/><rect x="346.2" y="140.9" width="5.3" height="3.7" fill="#16a34a" opacity="0.82" rx="1"/>
<line x1="357.5" y1="105.4" x2="357.5" y2="147.8" stroke="#16a34a" stroke-width="1"/><rect x="354.9" y="119.5" width="5.3" height="21.4" fill="#16a34a" opacity="0.82" rx="1"/>
<line x1="366.2" y1="115.6" x2="366.2" y2="137.7" stroke="#dc2626" stroke-width="1"/><rect x="363.5" y="119.5" width="5.3" height="15.3" fill="#dc2626" opacity="0.82" rx="1"/>
<line x1="374.8" y1="128.7" x2="374.8" y2="156.5" stroke="#dc2626" stroke-width="1"/><rect x="372.2" y="134.8" width="5.3" height="21.1" fill="#dc2626" opacity="0.82" rx="1"/>
<line x1="383.5" y1="125.1" x2="383.5" y2="156.8" stroke="#16a34a" stroke-width="1"/><rect x="380.8" y="133.3" width="5.3" height="22.6" fill="#16a34a" opacity="0.82" rx="1"/>
<line x1="392.1" y1="119.9" x2="392.1" y2="144.5" stroke="#16a34a" stroke-width="1"/><rect x="389.5" y="127.8" width="5.3" height="5.5" fill="#16a34a" opacity="0.82" rx="1"/>
<line x1="400.8" y1="92.7" x2="400.8" y2="130.1" stroke="#16a34a" stroke-width="1"/><rect x="398.1" y="107.2" width="5.3" height="20.6" fill="#16a34a" opacity="0.82" rx="1"/>
<line x1="409.4" y1="101.5" x2="409.4" y2="125.3" stroke="#16a34a" stroke-width="1"/><rect x="406.8" y="106.3" width="5.3" height="1.2" fill="#16a34a" opacity="0.82" rx="1"/>
<line x1="418.1" y1="102.7" x2="418.1" y2="117.5" stroke="#dc2626" stroke-width="1"/><rect x="415.4" y="106.3" width="5.3" height="9.1" fill="#dc2626" opacity="0.82" rx="1"/>
<line x1="426.7" y1="110.4" x2="426.7" y2="118.7" stroke="#16a34a" stroke-width="1"/><rect x="424.1" y="113.3" width="5.3" height="2.1" fill="#16a34a" opacity="0.82" rx="1"/>
<line x1="435.4" y1="97.7" x2="435.4" y2="116.7" stroke="#16a34a" stroke-width="1"/><rect x="432.7" y="101.9" width="5.3" height="11.4" fill="#16a34a" opacity="0.82" rx="1"/>
<line x1="444.0" y1="92.6" x2="444.0" y2="126.5" stroke="#dc2626" stroke-width="1"/><rect x="441.4" y="101.9" width="5.3" height="14.3" fill="#dc2626" opacity="0.82" rx="1"/>
<line x1="452.7" y1="114.8" x2="452.7" y2="135.0" stroke="#dc2626" stroke-width="1"/><rect x="450.0" y="116.2" width="5.3" height="11.5" fill="#dc2626" opacity="0.82" rx="1"/>
<line x1="461.3" y1="110.1" x2="461.3" y2="143.5" stroke="#dc2626" stroke-width="1"/><rect x="458.7" y="127.6" width="5.3" height="6.1" fill="#dc2626" opacity="0.82" rx="1"/>
<line x1="470.0" y1="124.0" x2="470.0" y2="139.0" stroke="#16a34a" stroke-width="1"/><rect x="467.3" y="127.6" width="5.3" height="6.2" fill="#16a34a" opacity="0.82" rx="1"/>
<line x1="478.6" y1="99.0" x2="478.6" y2="128.0" stroke="#16a34a" stroke-width="1"/><rect x="476.0" y="106.6" width="5.3" height="21.0" fill="#16a34a" opacity="0.82" rx="1"/>
<line x1="487.3" y1="96.0" x2="487.3" y2="109.0" stroke="#16a34a" stroke-width="1"/><rect x="484.6" y="101.5" width="5.3" height="5.1" fill="#16a34a" opacity="0.82" rx="1"/>
<line x1="495.9" y1="92.9" x2="495.9" y2="108.4" stroke="#dc2626" stroke-width="1"/><rect x="493.3" y="101.5" width="5.3" height="1.4" fill="#dc2626" opacity="0.82" rx="1"/>
<line x1="504.6" y1="78.0" x2="504.6" y2="107.3" stroke="#16a34a" stroke-width="1"/><rect x="501.9" y="88.5" width="5.3" height="14.4" fill="#16a34a" opacity="0.82" rx="1"/>
<line x1="513.2" y1="67.1" x2="513.2" y2="89.2" stroke="#16a34a" stroke-width="1"/><rect x="510.6" y="77.0" width="5.3" height="11.5" fill="#16a34a" opacity="0.82" rx="1"/>
<line x1="521.9" y1="55.1" x2="521.9" y2="79.3" stroke="#16a34a" stroke-width="1"/><rect x="519.2" y="71.1" width="5.3" height="5.9" fill="#16a34a" opacity="0.82" rx="1"/>
<line x1="530.5" y1="67.9" x2="530.5" y2="92.5" stroke="#dc2626" stroke-width="1"/><rect x="527.9" y="71.1" width="5.3" height="15.8" fill="#dc2626" opacity="0.82" rx="1"/>
<line x1="539.2" y1="81.2" x2="539.2" y2="96.1" stroke="#16a34a" stroke-width="1"/><rect x="536.5" y="84.8" width="5.3" height="2.1" fill="#16a34a" opacity="0.82" rx="1"/>
<line x1="547.8" y1="74.9" x2="547.8" y2="85.6" stroke="#16a34a" stroke-width="1"/><rect x="545.2" y="79.5" width="5.3" height="5.3" fill="#16a34a" opacity="0.82" rx="1"/>
<line x1="556.5" y1="59.2" x2="556.5" y2="84.0" stroke="#16a34a" stroke-width="1"/><rect x="553.8" y="62.3" width="5.3" height="17.1" fill="#16a34a" opacity="0.82" rx="1"/>
<line x1="565.1" y1="60.4" x2="565.1" y2="82.1" stroke="#dc2626" stroke-width="1"/><rect x="562.5" y="62.3" width="5.3" height="5.3" fill="#dc2626" opacity="0.82" rx="1"/>
<line x1="573.8" y1="67.0" x2="573.8" y2="88.7" stroke="#dc2626" stroke-width="1"/><rect x="571.1" y="67.7" width="5.3" height="13.8" fill="#dc2626" opacity="0.82" rx="1"/>
<line x1="582.4" y1="72.4" x2="582.4" y2="100.8" stroke="#dc2626" stroke-width="1"/><rect x="579.8" y="81.4" width="5.3" height="13.0" fill="#dc2626" opacity="0.82" rx="1"/>
<line x1="591.1" y1="64.3" x2="591.1" y2="99.1" stroke="#16a34a" stroke-width="1"/><rect x="588.4" y="74.9" width="5.3" height="19.6" fill="#16a34a" opacity="0.82" rx="1"/>
<line x1="599.8" y1="68.5" x2="599.8" y2="102.0" stroke="#dc2626" stroke-width="1"/><rect x="597.1" y="74.9" width="5.3" height="21.9" fill="#dc2626" opacity="0.82" rx="1"/>
<line x1="608.4" y1="95.4" x2="608.4" y2="113.2" stroke="#dc2626" stroke-width="1"/><rect x="605.8" y="96.8" width="5.3" height="10.8" fill="#dc2626" opacity="0.82" rx="1"/>
<line x1="617.1" y1="102.5" x2="617.1" y2="123.6" stroke="#dc2626" stroke-width="1"/><rect x="614.4" y="107.6" width="5.3" height="7.5" fill="#dc2626" opacity="0.82" rx="1"/>
<line x1="625.7" y1="111.4" x2="625.7" y2="130.8" stroke="#dc2626" stroke-width="1"/><rect x="623.1" y="115.1" width="5.3" height="5.2" fill="#dc2626" opacity="0.82" rx="1"/>
<line x1="634.4" y1="115.6" x2="634.4" y2="129.8" stroke="#dc2626" stroke-width="1"/><rect x="631.7" y="120.3" width="5.3" height="1.8" fill="#dc2626" opacity="0.82" rx="1"/>
<line x1="643.0" y1="110.7" x2="643.0" y2="125.6" stroke="#16a34a" stroke-width="1"/><rect x="640.4" y="114.2" width="5.3" height="7.9" fill="#16a34a" opacity="0.82" rx="1"/>
<line x1="651.7" y1="106.7" x2="651.7" y2="123.2" stroke="#16a34a" stroke-width="1"/><rect x="649.0" y="113.3" width="5.3" height="1.2" fill="#16a34a" opacity="0.82" rx="1"/>
<line x1="660.3" y1="110.3" x2="660.3" y2="138.5" stroke="#dc2626" stroke-width="1"/><rect x="657.7" y="113.3" width="5.3" height="23.0" fill="#dc2626" opacity="0.82" rx="1"/>
<line x1="669.0" y1="115.1" x2="669.0" y2="150.9" stroke="#16a34a" stroke-width="1"/><rect x="666.3" y="123.0" width="5.3" height="13.4" fill="#16a34a" opacity="0.82" rx="1"/>
<line x1="677.6" y1="113.2" x2="677.6" y2="130.3" stroke="#16a34a" stroke-width="1"/><rect x="675.0" y="119.5" width="5.3" height="3.5" fill="#16a34a" opacity="0.82" rx="1"/>
<line x1="686.3" y1="110.0" x2="686.3" y2="121.3" stroke="#16a34a" stroke-width="1"/><rect x="683.6" y="116.7" width="5.3" height="2.8" fill="#16a34a" opacity="0.82" rx="1"/>
<line x1="694.9" y1="107.9" x2="694.9" y2="134.9" stroke="#dc2626" stroke-width="1"/><rect x="692.3" y="116.7" width="5.3" height="15.3" fill="#dc2626" opacity="0.82" rx="1"/>
<line x1="703.6" y1="129.2" x2="703.6" y2="150.8" stroke="#dc2626" stroke-width="1"/><rect x="700.9" y="132.0" width="5.3" height="16.5" fill="#dc2626" opacity="0.82" rx="1"/>
<line x1="712.2" y1="146.9" x2="712.2" y2="169.2" stroke="#dc2626" stroke-width="1"/><rect x="709.6" y="148.5" width="5.3" height="9.2" fill="#dc2626" opacity="0.82" rx="1"/>
<line x1="720.9" y1="149.9" x2="720.9" y2="170.5" stroke="#dc2626" stroke-width="1"/><rect x="718.2" y="157.7" width="5.3" height="1.8" fill="#dc2626" opacity="0.82" rx="1"/>
<line x1="729.5" y1="152.0" x2="729.5" y2="162.8" stroke="#16a34a" stroke-width="1"/><rect x="726.9" y="154.8" width="5.3" height="4.8" fill="#16a34a" opacity="0.82" rx="1"/>
<line x1="738.2" y1="150.4" x2="738.2" y2="160.5" stroke="#dc2626" stroke-width="1"/><rect x="735.5" y="154.8" width="5.3" height="2.3" fill="#dc2626" opacity="0.82" rx="1"/>
<line x1="746.8" y1="152.4" x2="746.8" y2="190.4" stroke="#dc2626" stroke-width="1"/><rect x="744.2" y="157.0" width="5.3" height="25.1" fill="#dc2626" opacity="0.82" rx="1"/>
<line x1="755.5" y1="182.1" x2="755.5" y2="240.4" stroke="#dc2626" stroke-width="1"/><rect x="752.8" y="182.1" width="5.3" height="51.8" fill="#dc2626" opacity="0.82" rx="1"/>
<line x1="764.1" y1="225.4" x2="764.1" y2="263.7" stroke="#dc2626" stroke-width="1"/><rect x="761.5" y="233.9" width="5.3" height="29.0" fill="#dc2626" opacity="0.82" rx="1"/>
<line x1="772.8" y1="256.0" x2="772.8" y2="293.7" stroke="#dc2626" stroke-width="1"/><rect x="770.1" y="262.9" width="5.3" height="2.9" fill="#dc2626" opacity="0.82" rx="1"/>
<line x1="781.4" y1="264.7" x2="781.4" y2="318.9" stroke="#dc2626" stroke-width="1"/><rect x="778.8" y="265.9" width="5.3" height="31.5" fill="#dc2626" opacity="0.82" rx="1"/>
<line x1="790.1" y1="292.0" x2="790.1" y2="314.8" stroke="#dc2626" stroke-width="1"/><rect x="787.4" y="297.3" width="5.3" height="1.9" fill="#dc2626" opacity="0.82" rx="1"/>
<line x1="798.7" y1="261.5" x2="798.7" y2="300.8" stroke="#16a34a" stroke-width="1"/><rect x="796.1" y="272.0" width="5.3" height="27.2" fill="#16a34a" opacity="0.82" rx="1"/>
<line x1="807.4" y1="262.3" x2="807.4" y2="282.3" stroke="#dc2626" stroke-width="1"/><rect x="804.7" y="272.0" width="5.3" height="2.7" fill="#dc2626" opacity="0.82" rx="1"/>
<line x1="816.0" y1="269.8" x2="816.0" y2="300.3" stroke="#dc2626" stroke-width="1"/><rect x="813.4" y="274.7" width="5.3" height="15.1" fill="#dc2626" opacity="0.82" rx="1"/>
<line x1="824.7" y1="277.1" x2="824.7" y2="301.0" stroke="#dc2626" stroke-width="1"/><rect x="822.0" y="289.9" width="5.3" height="2.3" fill="#dc2626" opacity="0.82" rx="1"/>
<line x1="833.3" y1="265.2" x2="833.3" y2="292.2" stroke="#16a34a" stroke-width="1"/><rect x="830.7" y="268.7" width="5.3" height="23.5" fill="#16a34a" opacity="0.82" rx="1"/>
<line x1="842.0" y1="266.0" x2="842.0" y2="277.6" stroke="#dc2626" stroke-width="1"/><rect x="839.3" y="268.7" width="5.3" height="2.3" fill="#dc2626" opacity="0.82" rx="1"/>
<line x1="72" y1="316.3" x2="842" y2="316.3" stroke="#16a34a" stroke-width="1.8" stroke-dasharray="6 4" /><rect x="688" y="296.3" width="146" height="23" rx="5" fill="#ffffff" stroke="#16a34a" opacity="0.97"/><text x="695" y="312.3" fill="#16a34a" font-size="15" font-weight="700">支撑 59,315</text>
<line x1="72" y1="195.6" x2="842" y2="195.6" stroke="#dc2626" stroke-width="1.8" stroke-dasharray="6 4" /><rect x="688" y="175.6" width="146" height="23" rx="5" fill="#ffffff" stroke="#dc2626" opacity="0.97"/><text x="695" y="191.6" fill="#dc2626" font-size="15" font-weight="700">压力 70,180</text>
<line x1="72" y1="271.0" x2="842" y2="271.0" stroke="#111827" stroke-width="1.8" stroke-dasharray="2 2" /><rect x="688" y="251.0" width="146" height="23" rx="5" fill="#ffffff" stroke="#111827" opacity="0.97"/><text x="695" y="267.0" fill="#111827" font-size="15" font-weight="700">现价 63,389</text>
<text x="72" y="396" fill="#16a34a" font-size="14" font-weight="700">日线做多计划</text><rect x="72" y="404" width="770" height="48" rx="6" fill="#f9fafb" stroke="#e5e7eb"/><line x1="94" y1="412" x2="820" y2="412" stroke="#16a34a" stroke-width="3"/><circle cx="132.0" cy="412" r="5" fill="#16a34a"/><text x="132.0" y="434" fill="#374151" font-size="12" text-anchor="middle">入场 止跌/突破回踩</text><circle cx="441.6" cy="412" r="5" fill="#16a34a"/><text x="441.6" y="434" fill="#374151" font-size="12" text-anchor="middle">止损 59,315</text><circle cx="692.0" cy="412" r="5" fill="#16a34a"/><text x="692.0" y="434" fill="#374151" font-size="12" text-anchor="middle">目标一 70,180</text><circle cx="794.0" cy="412" r="5" fill="#16a34a"/><text x="794.0" y="434" fill="#374151" font-size="12" text-anchor="middle">目标二 74,254</text>
<text x="72" y="482" fill="#dc2626" font-size="14" font-weight="700">日线做空计划</text><rect x="72" y="490" width="770" height="48" rx="6" fill="#f9fafb" stroke="#e5e7eb"/><line x1="94" y1="498" x2="820" y2="498" stroke="#dc2626" stroke-width="3"/><circle cx="132.0" cy="498" r="5" fill="#dc2626"/><text x="132.0" y="520" fill="#374151" font-size="12" text-anchor="middle">入场 反弹承压/破位回抽</text><circle cx="441.6" cy="498" r="5" fill="#dc2626"/><text x="441.6" y="520" fill="#374151" font-size="12" text-anchor="middle">止损 70,180</text><circle cx="692.0" cy="498" r="5" fill="#dc2626"/><text x="692.0" y="520" fill="#374151" font-size="12" text-anchor="middle">目标一 59,315</text><circle cx="794.0" cy="498" r="5" fill="#dc2626"/><text x="794.0" y="520" fill="#374151" font-size="12" text-anchor="middle">目标二 56,598</text>
</svg>