<svg xmlns="http://www.w3.org/2000/svg" width="960" height="560" viewBox="0 0 960 560">
<rect width="100%" height="100%" fill="#ffffff"/>
<text x="72" y="22" fill="#111827" font-size="18" font-weight="700">HYPE 小时线K线支撑压力图</text>
<text x="846" y="42" fill="#374151" font-size="13">最新价 57.00</text>
<line x1="72" y1="34" x2="72" y2="340" stroke="#d1d5db"/>
<line x1="72" y1="340" x2="876" y2="340" stroke="#d1d5db"/>
<line x1="72" y1="340.0" x2="876" y2="340.0" stroke="#f3f4f6"/>
<text x="10" y="344.0" fill="#6b7280" font-size="12">45.12</text>
<line x1="72" y1="263.5" x2="876" y2="263.5" stroke="#f3f4f6"/>
<text x="10" y="267.5" fill="#6b7280" font-size="12">52.69</text>
<line x1="72" y1="187.0" x2="876" y2="187.0" stroke="#f3f4f6"/>
<text x="10" y="191.0" fill="#6b7280" font-size="12">60.26</text>
<line x1="72" y1="110.5" x2="876" y2="110.5" stroke="#f3f4f6"/>
<text x="10" y="114.5" fill="#6b7280" font-size="12">67.83</text>
<line x1="72" y1="34.0" x2="876" y2="34.0" stroke="#f3f4f6"/>
<text x="10" y="38.0" fill="#6b7280" font-size="12">75.40</text>
<line x1="72.0" y1="140.6" x2="72.0" y2="165.3" stroke="#16a34a" stroke-width="1"/><rect x="69.2" y="143.8" width="5.5" height="16.1" fill="#16a34a" opacity="0.82" rx="1"/>
<line x1="81.0" y1="139.1" x2="81.0" y2="147.4" stroke="#16a34a" stroke-width="1"/><rect x="78.3" y="142.2" width="5.5" height="1.6" fill="#16a34a" opacity="0.82" rx="1"/>
<line x1="90.1" y1="131.0" x2="90.1" y2="145.6" stroke="#16a34a" stroke-width="1"/><rect x="87.3" y="141.2" width="5.5" height="1.2" fill="#16a34a" opacity="0.82" rx="1"/>
<line x1="99.1" y1="139.2" x2="99.1" y2="154.5" stroke="#dc2626" stroke-width="1"/><rect x="96.3" y="141.2" width="5.5" height="11.1" fill="#dc2626" opacity="0.82" rx="1"/>
<line x1="108.1" y1="145.0" x2="108.1" y2="156.6" stroke="#16a34a" stroke-width="1"/><rect x="105.4" y="147.5" width="5.5" height="4.8" fill="#16a34a" opacity="0.82" rx="1"/>
<line x1="117.2" y1="141.8" x2="117.2" y2="149.7" stroke="#16a34a" stroke-width="1"/><rect x="114.4" y="144.9" width="5.5" height="2.5" fill="#16a34a" opacity="0.82" rx="1"/>
<line x1="126.2" y1="142.0" x2="126.2" y2="155.2" stroke="#dc2626" stroke-width="1"/><rect x="123.4" y="144.9" width="5.5" height="7.6" fill="#dc2626" opacity="0.82" rx="1"/>
<line x1="135.2" y1="149.9" x2="135.2" y2="157.2" stroke="#16a34a" stroke-width="1"/><rect x="132.5" y="150.0" width="5.5" height="2.4" fill="#16a34a" opacity="0.82" rx="1"/>
<line x1="144.3" y1="144.2" x2="144.3" y2="151.7" stroke="#16a34a" stroke-width="1"/><rect x="141.5" y="148.2" width="5.5" height="1.7" fill="#16a34a" opacity="0.82" rx="1"/>
<line x1="153.3" y1="147.7" x2="153.3" y2="161.9" stroke="#dc2626" stroke-width="1"/><rect x="150.5" y="148.3" width="5.5" height="8.3" fill="#dc2626" opacity="0.82" rx="1"/>
<line x1="162.3" y1="150.3" x2="162.3" y2="158.4" stroke="#16a34a" stroke-width="1"/><rect x="159.6" y="150.8" width="5.5" height="5.8" fill="#16a34a" opacity="0.82" rx="1"/>
<line x1="171.4" y1="148.8" x2="171.4" y2="168.4" stroke="#dc2626" stroke-width="1"/><rect x="168.6" y="150.8" width="5.5" height="16.6" fill="#dc2626" opacity="0.82" rx="1"/>
<line x1="180.4" y1="159.7" x2="180.4" y2="170.0" stroke="#16a34a" stroke-width="1"/><rect x="177.6" y="161.4" width="5.5" height="6.1" fill="#16a34a" opacity="0.82" rx="1"/>
<line x1="189.4" y1="159.9" x2="189.4" y2="174.6" stroke="#dc2626" stroke-width="1"/><rect x="186.7" y="161.4" width="5.5" height="4.6" fill="#dc2626" opacity="0.82" rx="1"/>
<line x1="198.5" y1="161.5" x2="198.5" y2="176.7" stroke="#dc2626" stroke-width="1"/><rect x="195.7" y="166.0" width="5.5" height="7.1" fill="#dc2626" opacity="0.82" rx="1"/>
<line x1="207.5" y1="167.4" x2="207.5" y2="181.1" stroke="#16a34a" stroke-width="1"/><rect x="204.7" y="170.1" width="5.5" height="3.0" fill="#16a34a" opacity="0.82" rx="1"/>
<line x1="216.5" y1="163.5" x2="216.5" y2="177.3" stroke="#16a34a" stroke-width="1"/><rect x="213.8" y="169.5" width="5.5" height="1.2" fill="#16a34a" opacity="0.82" rx="1"/>
<line x1="225.6" y1="164.5" x2="225.6" y2="175.3" stroke="#dc2626" stroke-width="1"/><rect x="222.8" y="169.5" width="5.5" height="1.6" fill="#dc2626" opacity="0.82" rx="1"/>
<line x1="234.6" y1="165.8" x2="234.6" y2="172.1" stroke="#16a34a" stroke-width="1"/><rect x="231.8" y="166.8" width="5.5" height="4.3" fill="#16a34a" opacity="0.82" rx="1"/>
<line x1="243.6" y1="160.1" x2="243.6" y2="174.3" stroke="#16a34a" stroke-width="1"/><rect x="240.9" y="163.4" width="5.5" height="3.4" fill="#16a34a" opacity="0.82" rx="1"/>
<line x1="252.7" y1="161.3" x2="252.7" y2="170.3" stroke="#dc2626" stroke-width="1"/><rect x="249.9" y="163.4" width="5.5" height="2.8" fill="#dc2626" opacity="0.82" rx="1"/>
<line x1="261.7" y1="164.4" x2="261.7" y2="171.4" stroke="#dc2626" stroke-width="1"/><rect x="258.9" y="166.2" width="5.5" height="1.7" fill="#dc2626" opacity="0.82" rx="1"/>
<line x1="270.7" y1="167.3" x2="270.7" y2="173.4" stroke="#dc2626" stroke-width="1"/><rect x="268.0" y="167.9" width="5.5" height="3.5" fill="#dc2626" opacity="0.82" rx="1"/>
<line x1="279.8" y1="165.9" x2="279.8" y2="171.6" stroke="#16a34a" stroke-width="1"/><rect x="277.0" y="168.3" width="5.5" height="3.1" fill="#16a34a" opacity="0.82" rx="1"/>
<line x1="288.8" y1="165.9" x2="288.8" y2="183.7" stroke="#dc2626" stroke-width="1"/><rect x="286.0" y="168.2" width="5.5" height="15.0" fill="#dc2626" opacity="0.82" rx="1"/>
<line x1="297.8" y1="180.8" x2="297.8" y2="196.0" stroke="#dc2626" stroke-width="1"/><rect x="295.1" y="183.1" width="5.5" height="6.8" fill="#dc2626" opacity="0.82" rx="1"/>
<line x1="306.9" y1="184.2" x2="306.9" y2="202.8" stroke="#dc2626" stroke-width="1"/><rect x="304.1" y="189.9" width="5.5" height="10.7" fill="#dc2626" opacity="0.82" rx="1"/>
<line x1="315.9" y1="194.6" x2="315.9" y2="204.8" stroke="#dc2626" stroke-width="1"/><rect x="313.1" y="200.6" width="5.5" height="1.2" fill="#dc2626" opacity="0.82" rx="1"/>
<line x1="324.9" y1="195.8" x2="324.9" y2="202.7" stroke="#16a34a" stroke-width="1"/><rect x="322.2" y="198.7" width="5.5" height="2.9" fill="#16a34a" opacity="0.82" rx="1"/>
<line x1="334.0" y1="196.2" x2="334.0" y2="203.6" stroke="#dc2626" stroke-width="1"/><rect x="331.2" y="198.7" width="5.5" height="1.5" fill="#dc2626" opacity="0.82" rx="1"/>
<line x1="343.0" y1="196.7" x2="343.0" y2="211.5" stroke="#dc2626" stroke-width="1"/><rect x="340.2" y="200.2" width="5.5" height="4.0" fill="#dc2626" opacity="0.82" rx="1"/>
<line x1="352.0" y1="195.0" x2="352.0" y2="206.8" stroke="#16a34a" stroke-width="1"/><rect x="349.3" y="195.5" width="5.5" height="8.6" fill="#16a34a" opacity="0.82" rx="1"/>
<line x1="361.1" y1="194.8" x2="361.1" y2="213.3" stroke="#dc2626" stroke-width="1"/><rect x="358.3" y="195.4" width="5.5" height="14.9" fill="#dc2626" opacity="0.82" rx="1"/>
<line x1="370.1" y1="206.4" x2="370.1" y2="214.9" stroke="#dc2626" stroke-width="1"/><rect x="367.3" y="210.4" width="5.5" height="3.7" fill="#dc2626" opacity="0.82" rx="1"/>
<line x1="379.1" y1="210.9" x2="379.1" y2="217.0" stroke="#16a34a" stroke-width="1"/><rect x="376.4" y="212.2" width="5.5" height="1.8" fill="#16a34a" opacity="0.82" rx="1"/>
<line x1="388.2" y1="208.1" x2="388.2" y2="228.2" stroke="#dc2626" stroke-width="1"/><rect x="385.4" y="212.1" width="5.5" height="6.9" fill="#dc2626" opacity="0.82" rx="1"/>
<line x1="397.2" y1="216.4" x2="397.2" y2="224.0" stroke="#16a34a" stroke-width="1"/><rect x="394.4" y="216.9" width="5.5" height="2.1" fill="#16a34a" opacity="0.82" rx="1"/>
<line x1="406.2" y1="215.5" x2="406.2" y2="234.4" stroke="#dc2626" stroke-width="1"/><rect x="403.5" y="216.9" width="5.5" height="16.0" fill="#dc2626" opacity="0.82" rx="1"/>
<line x1="415.3" y1="219.6" x2="415.3" y2="232.9" stroke="#16a34a" stroke-width="1"/><rect x="412.5" y="224.1" width="5.5" height="8.6" fill="#16a34a" opacity="0.82" rx="1"/>
<line x1="424.3" y1="223.6" x2="424.3" y2="237.6" stroke="#dc2626" stroke-width="1"/><rect x="421.5" y="224.1" width="5.5" height="10.7" fill="#dc2626" opacity="0.82" rx="1"/>
<line x1="433.3" y1="233.1" x2="433.3" y2="239.6" stroke="#dc2626" stroke-width="1"/><rect x="430.6" y="234.7" width="5.5" height="1.7" fill="#dc2626" opacity="0.82" rx="1"/>
<line x1="442.4" y1="232.7" x2="442.4" y2="239.4" stroke="#dc2626" stroke-width="1"/><rect x="439.6" y="236.5" width="5.5" height="1.5" fill="#dc2626" opacity="0.82" rx="1"/>
<line x1="451.4" y1="227.7" x2="451.4" y2="239.3" stroke="#16a34a" stroke-width="1"/><rect x="448.6" y="232.9" width="5.5" height="5.1" fill="#16a34a" opacity="0.82" rx="1"/>
<line x1="460.4" y1="231.6" x2="460.4" y2="237.8" stroke="#16a34a" stroke-width="1"/><rect x="457.7" y="232.4" width="5.5" height="1.2" fill="#16a34a" opacity="0.82" rx="1"/>
<line x1="469.5" y1="228.7" x2="469.5" y2="236.8" stroke="#16a34a" stroke-width="1"/><rect x="466.7" y="230.4" width="5.5" height="2.0" fill="#16a34a" opacity="0.82" rx="1"/>
<line x1="478.5" y1="224.1" x2="478.5" y2="236.1" stroke="#16a34a" stroke-width="1"/><rect x="475.7" y="225.7" width="5.5" height="4.7" fill="#16a34a" opacity="0.82" rx="1"/>
<line x1="487.6" y1="224.1" x2="487.6" y2="234.8" stroke="#dc2626" stroke-width="1"/><rect x="484.8" y="225.8" width="5.5" height="7.9" fill="#dc2626" opacity="0.82" rx="1"/>
<line x1="496.6" y1="223.0" x2="496.6" y2="241.7" stroke="#16a34a" stroke-width="1"/><rect x="493.8" y="227.9" width="5.5" height="5.7" fill="#16a34a" opacity="0.82" rx="1"/>
<line x1="505.6" y1="209.1" x2="505.6" y2="230.1" stroke="#16a34a" stroke-width="1"/><rect x="502.8" y="215.5" width="5.5" height="12.0" fill="#16a34a" opacity="0.82" rx="1"/>
<line x1="514.7" y1="206.3" x2="514.7" y2="217.3" stroke="#16a34a" stroke-width="1"/><rect x="511.9" y="209.5" width="5.5" height="6.0" fill="#16a34a" opacity="0.82" rx="1"/>
<line x1="523.7" y1="207.4" x2="523.7" y2="223.7" stroke="#dc2626" stroke-width="1"/><rect x="520.9" y="209.5" width="5.5" height="5.6" fill="#dc2626" opacity="0.82" rx="1"/>
<line x1="532.7" y1="214.7" x2="532.7" y2="234.5" stroke="#dc2626" stroke-width="1"/><rect x="529.9" y="215.1" width="5.5" height="18.0" fill="#dc2626" opacity="0.82" rx="1"/>
<line x1="541.8" y1="227.1" x2="541.8" y2="241.2" stroke="#dc2626" stroke-width="1"/><rect x="539.0" y="233.0" width="5.5" height="1.6" fill="#dc2626" opacity="0.82" rx="1"/>
<line x1="550.8" y1="232.6" x2="550.8" y2="249.7" stroke="#dc2626" stroke-width="1"/><rect x="548.0" y="234.6" width="5.5" height="8.8" fill="#dc2626" opacity="0.82" rx="1"/>
<line x1="559.8" y1="242.4" x2="559.8" y2="254.4" stroke="#dc2626" stroke-width="1"/><rect x="557.1" y="243.4" width="5.5" height="7.7" fill="#dc2626" opacity="0.82" rx="1"/>
<line x1="568.9" y1="247.8" x2="568.9" y2="255.3" stroke="#dc2626" stroke-width="1"/><rect x="566.1" y="251.3" width="5.5" height="2.0" fill="#dc2626" opacity="0.82" rx="1"/>
<line x1="577.9" y1="248.7" x2="577.9" y2="259.2" stroke="#dc2626" stroke-width="1"/><rect x="575.1" y="253.2" width="5.5" height="4.4" fill="#dc2626" opacity="0.82" rx="1"/>
<line x1="586.9" y1="254.6" x2="586.9" y2="264.3" stroke="#dc2626" stroke-width="1"/><rect x="584.2" y="257.6" width="5.5" height="1.2" fill="#dc2626" opacity="0.82" rx="1"/>
<line x1="596.0" y1="253.7" x2="596.0" y2="263.8" stroke="#16a34a" stroke-width="1"/><rect x="593.2" y="257.5" width="5.5" height="1.2" fill="#16a34a" opacity="0.82" rx="1"/>
<line x1="605.0" y1="253.1" x2="605.0" y2="261.9" stroke="#dc2626" stroke-width="1"/><rect x="602.2" y="257.5" width="5.5" height="1.2" fill="#dc2626" opacity="0.82" rx="1"/>
<line x1="614.0" y1="244.3" x2="614.0" y2="257.8" stroke="#16a34a" stroke-width="1"/><rect x="611.3" y="244.7" width="5.5" height="13.0" fill="#16a34a" opacity="0.82" rx="1"/>
<line x1="623.1" y1="244.5" x2="623.1" y2="254.7" stroke="#dc2626" stroke-width="1"/><rect x="620.3" y="244.7" width="5.5" height="4.2" fill="#dc2626" opacity="0.82" rx="1"/>
<line x1="632.1" y1="236.4" x2="632.1" y2="250.2" stroke="#16a34a" stroke-width="1"/><rect x="629.3" y="238.6" width="5.5" height="10.2" fill="#16a34a" opacity="0.82" rx="1"/>
<line x1="641.1" y1="238.2" x2="641.1" y2="245.5" stroke="#dc2626" stroke-width="1"/><rect x="638.4" y="238.6" width="5.5" height="4.2" fill="#dc2626" opacity="0.82" rx="1"/>
<line x1="650.2" y1="233.9" x2="650.2" y2="246.7" stroke="#16a34a" stroke-width="1"/><rect x="647.4" y="234.8" width="5.5" height="8.0" fill="#16a34a" opacity="0.82" rx="1"/>
<line x1="659.2" y1="226.4" x2="659.2" y2="235.1" stroke="#dc2626" stroke-width="1"/><rect x="656.4" y="234.8" width="5.5" height="1.2" fill="#dc2626" opacity="0.82" rx="1"/>
<line x1="668.2" y1="229.6" x2="668.2" y2="236.1" stroke="#16a34a" stroke-width="1"/><rect x="665.5" y="234.7" width="5.5" height="1.2" fill="#16a34a" opacity="0.82" rx="1"/>
<line x1="677.3" y1="227.2" x2="677.3" y2="235.2" stroke="#16a34a" stroke-width="1"/><rect x="674.5" y="230.2" width="5.5" height="4.5" fill="#16a34a" opacity="0.82" rx="1"/>
<line x1="686.3" y1="228.1" x2="686.3" y2="234.6" stroke="#16a34a" stroke-width="1"/><rect x="683.5" y="229.6" width="5.5" height="1.2" fill="#16a34a" opacity="0.82" rx="1"/>
<line x1="695.3" y1="228.1" x2="695.3" y2="233.9" stroke="#dc2626" stroke-width="1"/><rect x="692.6" y="229.5" width="5.5" height="1.6" fill="#dc2626" opacity="0.82" rx="1"/>
<line x1="704.4" y1="219.2" x2="704.4" y2="231.6" stroke="#16a34a" stroke-width="1"/><rect x="701.6" y="221.6" width="5.5" height="9.6" fill="#16a34a" opacity="0.82" rx="1"/>
<line x1="713.4" y1="220.0" x2="713.4" y2="233.3" stroke="#dc2626" stroke-width="1"/><rect x="710.6" y="221.6" width="5.5" height="6.0" fill="#dc2626" opacity="0.82" rx="1"/>
<line x1="722.4" y1="214.7" x2="722.4" y2="229.4" stroke="#16a34a" stroke-width="1"/><rect x="719.7" y="220.0" width="5.5" height="7.6" fill="#16a34a" opacity="0.82" rx="1"/>
<line x1="731.5" y1="218.7" x2="731.5" y2="227.4" stroke="#dc2626" stroke-width="1"/><rect x="728.7" y="220.0" width="5.5" height="5.3" fill="#dc2626" opacity="0.82" rx="1"/>
<line x1="740.5" y1="217.1" x2="740.5" y2="228.1" stroke="#16a34a" stroke-width="1"/><rect x="737.7" y="222.8" width="5.5" height="2.5" fill="#16a34a" opacity="0.82" rx="1"/>
<line x1="749.5" y1="221.5" x2="749.5" y2="229.1" stroke="#dc2626" stroke-width="1"/><rect x="746.8" y="222.8" width="5.5" height="5.0" fill="#dc2626" opacity="0.82" rx="1"/>
<line x1="758.6" y1="201.1" x2="758.6" y2="232.2" stroke="#16a34a" stroke-width="1"/><rect x="755.8" y="206.0" width="5.5" height="21.9" fill="#16a34a" opacity="0.82" rx="1"/>
<line x1="767.6" y1="203.1" x2="767.6" y2="214.9" stroke="#dc2626" stroke-width="1"/><rect x="764.8" y="206.0" width="5.5" height="1.2" fill="#dc2626" opacity="0.82" rx="1"/>
<line x1="776.6" y1="193.2" x2="776.6" y2="209.9" stroke="#16a34a" stroke-width="1"/><rect x="773.9" y="203.8" width="5.5" height="2.8" fill="#16a34a" opacity="0.82" rx="1"/>
<line x1="785.7" y1="199.0" x2="785.7" y2="208.9" stroke="#dc2626" stroke-width="1"/><rect x="782.9" y="203.7" width="5.5" height="3.0" fill="#dc2626" opacity="0.82" rx="1"/>
<line x1="794.7" y1="198.4" x2="794.7" y2="206.8" stroke="#16a34a" stroke-width="1"/><rect x="791.9" y="201.6" width="5.5" height="5.1" fill="#16a34a" opacity="0.82" rx="1"/>
<line x1="803.7" y1="197.7" x2="803.7" y2="204.6" stroke="#dc2626" stroke-width="1"/><rect x="801.0" y="201.6" width="5.5" height="3.0" fill="#dc2626" opacity="0.82" rx="1"/>
<line x1="812.8" y1="194.1" x2="812.8" y2="207.1" stroke="#16a34a" stroke-width="1"/><rect x="810.0" y="200.4" width="5.5" height="4.1" fill="#16a34a" opacity="0.82" rx="1"/>
<line x1="821.8" y1="192.7" x2="821.8" y2="201.2" stroke="#16a34a" stroke-width="1"/><rect x="819.0" y="197.9" width="5.5" height="2.5" fill="#16a34a" opacity="0.82" rx="1"/>
<line x1="830.8" y1="198.0" x2="830.8" y2="207.6" stroke="#dc2626" stroke-width="1"/><rect x="828.1" y="198.1" width="5.5" height="8.3" fill="#dc2626" opacity="0.82" rx="1"/>
<line x1="839.9" y1="195.3" x2="839.9" y2="208.1" stroke="#16a34a" stroke-width="1"/><rect x="837.1" y="196.8" width="5.5" height="9.6" fill="#16a34a" opacity="0.82" rx="1"/>
<line x1="848.9" y1="195.3" x2="848.9" y2="200.6" stroke="#dc2626" stroke-width="1"/><rect x="846.1" y="196.8" width="5.5" height="1.2" fill="#dc2626" opacity="0.82" rx="1"/>
<line x1="857.9" y1="195.2" x2="857.9" y2="203.5" stroke="#dc2626" stroke-width="1"/><rect x="855.2" y="197.9" width="5.5" height="5.2" fill="#dc2626" opacity="0.82" rx="1"/>
<line x1="867.0" y1="202.5" x2="867.0" y2="209.9" stroke="#dc2626" stroke-width="1"/><rect x="864.2" y="203.1" width="5.5" height="6.4" fill="#dc2626" opacity="0.82" rx="1"/>
<line x1="876.0" y1="207.7" x2="876.0" y2="221.2" stroke="#dc2626" stroke-width="1"/><rect x="873.2" y="209.4" width="5.5" height="10.5" fill="#dc2626" opacity="0.82" rx="1"/>
<line x1="72" y1="318.9" x2="876" y2="318.9" stroke="#16a34a" stroke-width="1.4" stroke-dasharray="6 4" /><rect x="883" y="301.9" width="76" height="18" rx="4" fill="#ffffff" stroke="#16a34a" opacity="0.95"/><text x="888" y="314.9" fill="#16a34a" font-size="13">支撑 47.21</text>
<line x1="72" y1="55.1" x2="876" y2="55.1" stroke="#dc2626" stroke-width="1.4" stroke-dasharray="6 4" /><rect x="883" y="38.1" width="76" height="18" rx="4" fill="#ffffff" stroke="#dc2626" opacity="0.95"/><text x="888" y="51.1" fill="#dc2626" font-size="13">压力 73.31</text>
<line x1="72" y1="220.0" x2="876" y2="220.0" stroke="#111827" stroke-width="1.4" stroke-dasharray="2 2" /><rect x="883" y="203.0" width="76" height="18" rx="4" fill="#ffffff" stroke="#111827" opacity="0.95"/><text x="888" y="216.0" fill="#111827" font-size="13">现价 57.00</text>
<text x="72" y="396" fill="#16a34a" font-size="14" font-weight="700">做多计划</text><rect x="72" y="404" width="804" height="48" rx="6" fill="#f9fafb" stroke="#e5e7eb"/><line x1="94" y1="412" x2="854" y2="412" stroke="#16a34a" stroke-width="3"/><circle cx="132.0" cy="412" r="5" fill="#16a34a"/><text x="132.0" y="434" fill="#374151" font-size="12" text-anchor="middle">入场 止跌/突破回踩</text><circle cx="457.9" cy="412" r="5" fill="#16a34a"/><text x="457.9" y="434" fill="#374151" font-size="12" text-anchor="middle">止损 47.21</text><circle cx="726.0" cy="412" r="5" fill="#16a34a"/><text x="726.0" y="434" fill="#374151" font-size="12" text-anchor="middle">目标一 73.31</text><circle cx="828.0" cy="412" r="5" fill="#16a34a"/><text x="828.0" y="434" fill="#374151" font-size="12" text-anchor="middle">目标二 83.10</text>
<text x="72" y="482" fill="#dc2626" font-size="14" font-weight="700">做空计划</text><rect x="72" y="490" width="804" height="48" rx="6" fill="#f9fafb" stroke="#e5e7eb"/><line x1="94" y1="498" x2="854" y2="498" stroke="#dc2626" stroke-width="3"/><circle cx="132.0" cy="498" r="5" fill="#dc2626"/><text x="132.0" y="520" fill="#374151" font-size="12" text-anchor="middle">入场 反弹承压/破位回抽</text><circle cx="457.9" cy="498" r="5" fill="#dc2626"/><text x="457.9" y="520" fill="#374151" font-size="12" text-anchor="middle">止损 73.31</text><circle cx="726.0" cy="498" r="5" fill="#dc2626"/><text x="726.0" y="520" fill="#374151" font-size="12" text-anchor="middle">目标一 47.21</text><circle cx="828.0" cy="498" r="5" fill="#dc2626"/><text x="828.0" y="520" fill="#374151" font-size="12" text-anchor="middle">目标二 40.69</text>
</svg>