<svg xmlns="http://www.w3.org/2000/svg" width="960" height="560" viewBox="0 0 960 560">
<rect width="100%" height="100%" fill="#ffffff"/>
<text x="72" y="23" fill="#111827" font-size="21" font-weight="800">HYPE 小时线K线支撑压力图</text>
<text x="842" y="42" fill="#374151" font-size="15" text-anchor="end">最新价 58.30</text>
<line x1="72" y1="34" x2="72" y2="340" stroke="#d1d5db"/>
<line x1="72" y1="340" x2="842" y2="340" stroke="#d1d5db"/>
<line x1="72" y1="340.0" x2="842" y2="340.0" stroke="#f3f4f6"/>
<text x="8" y="345.0" fill="#4b5563" font-size="14">51.56</text>
<line x1="72" y1="263.5" x2="842" y2="263.5" stroke="#f3f4f6"/>
<text x="8" y="268.5" fill="#4b5563" font-size="14">55.38</text>
<line x1="72" y1="187.0" x2="842" y2="187.0" stroke="#f3f4f6"/>
<text x="8" y="192.0" fill="#4b5563" font-size="14">59.21</text>
<line x1="72" y1="110.5" x2="842" y2="110.5" stroke="#f3f4f6"/>
<text x="8" y="115.5" fill="#4b5563" font-size="14">63.03</text>
<line x1="72" y1="34.0" x2="842" y2="34.0" stroke="#f3f4f6"/>
<text x="8" y="39.0" fill="#4b5563" font-size="14">66.86</text>
<line x1="72.0" y1="55.1" x2="72.0" y2="84.1" stroke="#16a34a" stroke-width="1"/><rect x="69.3" y="75.3" width="5.3" height="1.9" fill="#16a34a" opacity="0.82" rx="1"/>
<line x1="80.7" y1="71.3" x2="80.7" y2="101.7" stroke="#dc2626" stroke-width="1"/><rect x="78.0" y="75.2" width="5.3" height="21.9" fill="#dc2626" opacity="0.82" rx="1"/>
<line x1="89.3" y1="82.7" x2="89.3" y2="105.8" stroke="#16a34a" stroke-width="1"/><rect x="86.7" y="87.7" width="5.3" height="9.5" fill="#16a34a" opacity="0.82" rx="1"/>
<line x1="98.0" y1="76.5" x2="98.0" y2="92.2" stroke="#16a34a" stroke-width="1"/><rect x="95.3" y="82.6" width="5.3" height="5.0" fill="#16a34a" opacity="0.82" rx="1"/>
<line x1="106.6" y1="76.9" x2="106.6" y2="103.0" stroke="#dc2626" stroke-width="1"/><rect x="104.0" y="82.6" width="5.3" height="15.0" fill="#dc2626" opacity="0.82" rx="1"/>
<line x1="115.3" y1="92.4" x2="115.3" y2="106.9" stroke="#16a34a" stroke-width="1"/><rect x="112.6" y="92.6" width="5.3" height="4.8" fill="#16a34a" opacity="0.82" rx="1"/>
<line x1="123.9" y1="81.1" x2="123.9" y2="96.2" stroke="#16a34a" stroke-width="1"/><rect x="121.3" y="89.1" width="5.3" height="3.4" fill="#16a34a" opacity="0.82" rx="1"/>
<line x1="132.6" y1="88.2" x2="132.6" y2="116.3" stroke="#dc2626" stroke-width="1"/><rect x="129.9" y="89.3" width="5.3" height="16.4" fill="#dc2626" opacity="0.82" rx="1"/>
<line x1="141.2" y1="93.4" x2="141.2" y2="109.4" stroke="#16a34a" stroke-width="1"/><rect x="138.6" y="94.4" width="5.3" height="11.4" fill="#16a34a" opacity="0.82" rx="1"/>
<line x1="149.9" y1="90.3" x2="149.9" y2="129.1" stroke="#dc2626" stroke-width="1"/><rect x="147.2" y="94.3" width="5.3" height="32.9" fill="#dc2626" opacity="0.82" rx="1"/>
<line x1="158.5" y1="111.9" x2="158.5" y2="132.3" stroke="#16a34a" stroke-width="1"/><rect x="155.9" y="115.2" width="5.3" height="12.1" fill="#16a34a" opacity="0.82" rx="1"/>
<line x1="167.2" y1="112.3" x2="167.2" y2="141.3" stroke="#dc2626" stroke-width="1"/><rect x="164.5" y="115.2" width="5.3" height="9.1" fill="#dc2626" opacity="0.82" rx="1"/>
<line x1="175.8" y1="115.5" x2="175.8" y2="145.6" stroke="#dc2626" stroke-width="1"/><rect x="173.2" y="124.3" width="5.3" height="14.0" fill="#dc2626" opacity="0.82" rx="1"/>
<line x1="184.5" y1="127.1" x2="184.5" y2="154.3" stroke="#16a34a" stroke-width="1"/><rect x="181.8" y="132.4" width="5.3" height="5.9" fill="#16a34a" opacity="0.82" rx="1"/>
<line x1="193.1" y1="119.5" x2="193.1" y2="146.6" stroke="#16a34a" stroke-width="1"/><rect x="190.5" y="131.3" width="5.3" height="1.2" fill="#16a34a" opacity="0.82" rx="1"/>
<line x1="201.8" y1="121.5" x2="201.8" y2="142.7" stroke="#dc2626" stroke-width="1"/><rect x="199.1" y="131.3" width="5.3" height="3.2" fill="#dc2626" opacity="0.82" rx="1"/>
<line x1="210.4" y1="123.9" x2="210.4" y2="136.5" stroke="#16a34a" stroke-width="1"/><rect x="207.8" y="126.0" width="5.3" height="8.5" fill="#16a34a" opacity="0.82" rx="1"/>
<line x1="219.1" y1="112.7" x2="219.1" y2="140.7" stroke="#16a34a" stroke-width="1"/><rect x="216.4" y="119.3" width="5.3" height="6.8" fill="#16a34a" opacity="0.82" rx="1"/>
<line x1="227.7" y1="115.1" x2="227.7" y2="132.8" stroke="#dc2626" stroke-width="1"/><rect x="225.1" y="119.3" width="5.3" height="5.5" fill="#dc2626" opacity="0.82" rx="1"/>
<line x1="236.4" y1="121.2" x2="236.4" y2="135.1" stroke="#dc2626" stroke-width="1"/><rect x="233.7" y="124.7" width="5.3" height="3.3" fill="#dc2626" opacity="0.82" rx="1"/>
<line x1="245.0" y1="127.0" x2="245.0" y2="139.0" stroke="#dc2626" stroke-width="1"/><rect x="242.4" y="128.1" width="5.3" height="7.0" fill="#dc2626" opacity="0.82" rx="1"/>
<line x1="253.7" y1="124.1" x2="253.7" y2="135.5" stroke="#16a34a" stroke-width="1"/><rect x="251.0" y="128.9" width="5.3" height="6.1" fill="#16a34a" opacity="0.82" rx="1"/>
<line x1="262.3" y1="124.2" x2="262.3" y2="159.3" stroke="#dc2626" stroke-width="1"/><rect x="259.7" y="128.7" width="5.3" height="29.6" fill="#dc2626" opacity="0.82" rx="1"/>
<line x1="271.0" y1="153.6" x2="271.0" y2="183.8" stroke="#dc2626" stroke-width="1"/><rect x="268.3" y="158.3" width="5.3" height="13.4" fill="#dc2626" opacity="0.82" rx="1"/>
<line x1="279.6" y1="160.3" x2="279.6" y2="197.2" stroke="#dc2626" stroke-width="1"/><rect x="277.0" y="171.6" width="5.3" height="21.2" fill="#dc2626" opacity="0.82" rx="1"/>
<line x1="288.3" y1="180.9" x2="288.3" y2="201.1" stroke="#dc2626" stroke-width="1"/><rect x="285.6" y="192.9" width="5.3" height="1.8" fill="#dc2626" opacity="0.82" rx="1"/>
<line x1="296.9" y1="183.3" x2="296.9" y2="197.0" stroke="#16a34a" stroke-width="1"/><rect x="294.3" y="189.1" width="5.3" height="5.7" fill="#16a34a" opacity="0.82" rx="1"/>
<line x1="305.6" y1="184.0" x2="305.6" y2="198.8" stroke="#dc2626" stroke-width="1"/><rect x="302.9" y="189.1" width="5.3" height="3.0" fill="#dc2626" opacity="0.82" rx="1"/>
<line x1="314.2" y1="185.2" x2="314.2" y2="214.3" stroke="#dc2626" stroke-width="1"/><rect x="311.6" y="192.0" width="5.3" height="8.0" fill="#dc2626" opacity="0.82" rx="1"/>
<line x1="322.9" y1="181.7" x2="322.9" y2="205.1" stroke="#16a34a" stroke-width="1"/><rect x="320.2" y="182.8" width="5.3" height="17.1" fill="#16a34a" opacity="0.82" rx="1"/>
<line x1="331.6" y1="181.3" x2="331.6" y2="217.9" stroke="#dc2626" stroke-width="1"/><rect x="328.9" y="182.6" width="5.3" height="29.6" fill="#dc2626" opacity="0.82" rx="1"/>
<line x1="340.2" y1="204.3" x2="340.2" y2="221.1" stroke="#dc2626" stroke-width="1"/><rect x="337.6" y="212.1" width="5.3" height="7.3" fill="#dc2626" opacity="0.82" rx="1"/>
<line x1="348.9" y1="213.2" x2="348.9" y2="225.3" stroke="#16a34a" stroke-width="1"/><rect x="346.2" y="215.8" width="5.3" height="3.6" fill="#16a34a" opacity="0.82" rx="1"/>
<line x1="357.5" y1="207.7" x2="357.5" y2="247.5" stroke="#dc2626" stroke-width="1"/><rect x="354.9" y="215.5" width="5.3" height="13.7" fill="#dc2626" opacity="0.82" rx="1"/>
<line x1="366.2" y1="224.0" x2="366.2" y2="239.0" stroke="#16a34a" stroke-width="1"/><rect x="363.5" y="225.1" width="5.3" height="4.1" fill="#16a34a" opacity="0.82" rx="1"/>
<line x1="374.8" y1="222.3" x2="374.8" y2="259.8" stroke="#dc2626" stroke-width="1"/><rect x="372.2" y="225.1" width="5.3" height="31.6" fill="#dc2626" opacity="0.82" rx="1"/>
<line x1="383.5" y1="230.4" x2="383.5" y2="256.7" stroke="#16a34a" stroke-width="1"/><rect x="380.8" y="239.3" width="5.3" height="16.9" fill="#16a34a" opacity="0.82" rx="1"/>
<line x1="392.1" y1="238.3" x2="392.1" y2="266.0" stroke="#dc2626" stroke-width="1"/><rect x="389.5" y="239.2" width="5.3" height="21.2" fill="#dc2626" opacity="0.82" rx="1"/>
<line x1="400.8" y1="257.1" x2="400.8" y2="270.0" stroke="#dc2626" stroke-width="1"/><rect x="398.1" y="260.4" width="5.3" height="3.4" fill="#dc2626" opacity="0.82" rx="1"/>
<line x1="409.4" y1="256.4" x2="409.4" y2="269.6" stroke="#dc2626" stroke-width="1"/><rect x="406.8" y="263.8" width="5.3" height="2.9" fill="#dc2626" opacity="0.82" rx="1"/>
<line x1="418.1" y1="246.3" x2="418.1" y2="269.4" stroke="#16a34a" stroke-width="1"/><rect x="415.4" y="256.6" width="5.3" height="10.1" fill="#16a34a" opacity="0.82" rx="1"/>
<line x1="426.7" y1="254.1" x2="426.7" y2="266.5" stroke="#16a34a" stroke-width="1"/><rect x="424.1" y="255.6" width="5.3" height="1.2" fill="#16a34a" opacity="0.82" rx="1"/>
<line x1="435.4" y1="248.5" x2="435.4" y2="264.3" stroke="#16a34a" stroke-width="1"/><rect x="432.7" y="251.7" width="5.3" height="4.0" fill="#16a34a" opacity="0.82" rx="1"/>
<line x1="444.0" y1="239.2" x2="444.0" y2="263.0" stroke="#16a34a" stroke-width="1"/><rect x="441.4" y="242.5" width="5.3" height="9.2" fill="#16a34a" opacity="0.82" rx="1"/>
<line x1="452.7" y1="239.3" x2="452.7" y2="260.4" stroke="#dc2626" stroke-width="1"/><rect x="450.0" y="242.6" width="5.3" height="15.5" fill="#dc2626" opacity="0.82" rx="1"/>
<line x1="461.3" y1="237.1" x2="461.3" y2="274.2" stroke="#16a34a" stroke-width="1"/><rect x="458.7" y="246.9" width="5.3" height="11.3" fill="#16a34a" opacity="0.82" rx="1"/>
<line x1="470.0" y1="209.5" x2="470.0" y2="251.1" stroke="#16a34a" stroke-width="1"/><rect x="467.3" y="222.4" width="5.3" height="23.8" fill="#16a34a" opacity="0.82" rx="1"/>
<line x1="478.6" y1="204.1" x2="478.6" y2="225.8" stroke="#16a34a" stroke-width="1"/><rect x="476.0" y="210.4" width="5.3" height="11.8" fill="#16a34a" opacity="0.82" rx="1"/>
<line x1="487.3" y1="206.3" x2="487.3" y2="238.6" stroke="#dc2626" stroke-width="1"/><rect x="484.6" y="210.4" width="5.3" height="11.0" fill="#dc2626" opacity="0.82" rx="1"/>
<line x1="495.9" y1="220.8" x2="495.9" y2="259.9" stroke="#dc2626" stroke-width="1"/><rect x="493.3" y="221.4" width="5.3" height="35.6" fill="#dc2626" opacity="0.82" rx="1"/>
<line x1="504.6" y1="245.3" x2="504.6" y2="273.2" stroke="#dc2626" stroke-width="1"/><rect x="501.9" y="257.0" width="5.3" height="3.1" fill="#dc2626" opacity="0.82" rx="1"/>
<line x1="513.2" y1="256.2" x2="513.2" y2="289.9" stroke="#dc2626" stroke-width="1"/><rect x="510.6" y="260.1" width="5.3" height="17.4" fill="#dc2626" opacity="0.82" rx="1"/>
<line x1="521.9" y1="275.6" x2="521.9" y2="299.2" stroke="#dc2626" stroke-width="1"/><rect x="519.2" y="277.4" width="5.3" height="15.2" fill="#dc2626" opacity="0.82" rx="1"/>
<line x1="530.5" y1="286.1" x2="530.5" y2="301.1" stroke="#dc2626" stroke-width="1"/><rect x="527.9" y="293.0" width="5.3" height="3.9" fill="#dc2626" opacity="0.82" rx="1"/>
<line x1="539.2" y1="288.0" x2="539.2" y2="308.8" stroke="#dc2626" stroke-width="1"/><rect x="536.5" y="296.9" width="5.3" height="8.8" fill="#dc2626" opacity="0.82" rx="1"/>
<line x1="547.8" y1="299.6" x2="547.8" y2="318.9" stroke="#dc2626" stroke-width="1"/><rect x="545.2" y="305.7" width="5.3" height="1.2" fill="#dc2626" opacity="0.82" rx="1"/>
<line x1="556.5" y1="297.8" x2="556.5" y2="317.8" stroke="#16a34a" stroke-width="1"/><rect x="553.8" y="305.4" width="5.3" height="1.2" fill="#16a34a" opacity="0.82" rx="1"/>
<line x1="565.1" y1="296.7" x2="565.1" y2="314.1" stroke="#dc2626" stroke-width="1"/><rect x="562.5" y="305.3" width="5.3" height="1.2" fill="#dc2626" opacity="0.82" rx="1"/>
<line x1="573.8" y1="279.3" x2="573.8" y2="306.0" stroke="#16a34a" stroke-width="1"/><rect x="571.1" y="280.1" width="5.3" height="25.7" fill="#16a34a" opacity="0.82" rx="1"/>
<line x1="582.4" y1="279.6" x2="582.4" y2="299.9" stroke="#dc2626" stroke-width="1"/><rect x="579.8" y="280.1" width="5.3" height="8.3" fill="#dc2626" opacity="0.82" rx="1"/>
<line x1="591.1" y1="263.6" x2="591.1" y2="291.0" stroke="#16a34a" stroke-width="1"/><rect x="588.4" y="268.0" width="5.3" height="20.2" fill="#16a34a" opacity="0.82" rx="1"/>
<line x1="599.8" y1="267.2" x2="599.8" y2="281.6" stroke="#dc2626" stroke-width="1"/><rect x="597.1" y="267.9" width="5.3" height="8.4" fill="#dc2626" opacity="0.82" rx="1"/>
<line x1="608.4" y1="258.7" x2="608.4" y2="284.1" stroke="#16a34a" stroke-width="1"/><rect x="605.8" y="260.5" width="5.3" height="15.9" fill="#16a34a" opacity="0.82" rx="1"/>
<line x1="617.1" y1="243.8" x2="617.1" y2="261.1" stroke="#dc2626" stroke-width="1"/><rect x="614.4" y="260.5" width="5.3" height="1.2" fill="#dc2626" opacity="0.82" rx="1"/>
<line x1="625.7" y1="250.2" x2="625.7" y2="263.1" stroke="#16a34a" stroke-width="1"/><rect x="623.1" y="260.2" width="5.3" height="1.2" fill="#16a34a" opacity="0.82" rx="1"/>
<line x1="634.4" y1="245.5" x2="634.4" y2="261.2" stroke="#16a34a" stroke-width="1"/><rect x="631.7" y="251.4" width="5.3" height="9.0" fill="#16a34a" opacity="0.82" rx="1"/>
<line x1="643.0" y1="247.2" x2="643.0" y2="260.0" stroke="#16a34a" stroke-width="1"/><rect x="640.4" y="250.2" width="5.3" height="1.3" fill="#16a34a" opacity="0.82" rx="1"/>
<line x1="651.7" y1="247.3" x2="651.7" y2="258.7" stroke="#dc2626" stroke-width="1"/><rect x="649.0" y="250.0" width="5.3" height="3.2" fill="#dc2626" opacity="0.82" rx="1"/>
<line x1="660.3" y1="229.5" x2="660.3" y2="254.2" stroke="#16a34a" stroke-width="1"/><rect x="657.7" y="234.4" width="5.3" height="18.9" fill="#16a34a" opacity="0.82" rx="1"/>
<line x1="669.0" y1="231.2" x2="669.0" y2="257.6" stroke="#dc2626" stroke-width="1"/><rect x="666.3" y="234.4" width="5.3" height="11.9" fill="#dc2626" opacity="0.82" rx="1"/>
<line x1="677.6" y1="220.8" x2="677.6" y2="249.7" stroke="#16a34a" stroke-width="1"/><rect x="675.0" y="231.3" width="5.3" height="15.1" fill="#16a34a" opacity="0.82" rx="1"/>
<line x1="686.3" y1="228.6" x2="686.3" y2="245.8" stroke="#dc2626" stroke-width="1"/><rect x="683.6" y="231.3" width="5.3" height="10.6" fill="#dc2626" opacity="0.82" rx="1"/>
<line x1="694.9" y1="225.4" x2="694.9" y2="247.2" stroke="#16a34a" stroke-width="1"/><rect x="692.3" y="236.8" width="5.3" height="5.0" fill="#16a34a" opacity="0.82" rx="1"/>
<line x1="703.6" y1="234.1" x2="703.6" y2="249.1" stroke="#dc2626" stroke-width="1"/><rect x="700.9" y="236.8" width="5.3" height="9.9" fill="#dc2626" opacity="0.82" rx="1"/>
<line x1="712.2" y1="193.8" x2="712.2" y2="255.2" stroke="#16a34a" stroke-width="1"/><rect x="709.6" y="203.5" width="5.3" height="43.4" fill="#16a34a" opacity="0.82" rx="1"/>
<line x1="720.9" y1="197.7" x2="720.9" y2="221.1" stroke="#dc2626" stroke-width="1"/><rect x="718.2" y="203.5" width="5.3" height="1.4" fill="#dc2626" opacity="0.82" rx="1"/>
<line x1="729.5" y1="178.2" x2="729.5" y2="211.3" stroke="#16a34a" stroke-width="1"/><rect x="726.9" y="199.1" width="5.3" height="5.6" fill="#16a34a" opacity="0.82" rx="1"/>
<line x1="738.2" y1="189.7" x2="738.2" y2="209.2" stroke="#dc2626" stroke-width="1"/><rect x="735.5" y="198.9" width="5.3" height="5.9" fill="#dc2626" opacity="0.82" rx="1"/>
<line x1="746.8" y1="188.5" x2="746.8" y2="205.1" stroke="#16a34a" stroke-width="1"/><rect x="744.2" y="194.8" width="5.3" height="10.0" fill="#16a34a" opacity="0.82" rx="1"/>
<line x1="755.5" y1="187.0" x2="755.5" y2="200.7" stroke="#dc2626" stroke-width="1"/><rect x="752.8" y="194.8" width="5.3" height="5.8" fill="#dc2626" opacity="0.82" rx="1"/>
<line x1="764.1" y1="180.1" x2="764.1" y2="205.7" stroke="#16a34a" stroke-width="1"/><rect x="761.5" y="192.5" width="5.3" height="8.1" fill="#16a34a" opacity="0.82" rx="1"/>
<line x1="772.8" y1="177.1" x2="772.8" y2="194.0" stroke="#16a34a" stroke-width="1"/><rect x="770.1" y="187.5" width="5.3" height="5.0" fill="#16a34a" opacity="0.82" rx="1"/>
<line x1="781.4" y1="187.7" x2="781.4" y2="206.6" stroke="#dc2626" stroke-width="1"/><rect x="778.8" y="187.8" width="5.3" height="16.5" fill="#dc2626" opacity="0.82" rx="1"/>
<line x1="790.1" y1="182.3" x2="790.1" y2="207.6" stroke="#16a34a" stroke-width="1"/><rect x="787.4" y="185.2" width="5.3" height="19.1" fill="#16a34a" opacity="0.82" rx="1"/>
<line x1="798.7" y1="182.3" x2="798.7" y2="192.8" stroke="#dc2626" stroke-width="1"/><rect x="796.1" y="185.3" width="5.3" height="2.0" fill="#dc2626" opacity="0.82" rx="1"/>
<line x1="807.4" y1="182.1" x2="807.4" y2="198.6" stroke="#dc2626" stroke-width="1"/><rect x="804.7" y="187.4" width="5.3" height="10.2" fill="#dc2626" opacity="0.82" rx="1"/>
<line x1="816.0" y1="196.6" x2="816.0" y2="211.1" stroke="#dc2626" stroke-width="1"/><rect x="813.4" y="197.7" width="5.3" height="12.6" fill="#dc2626" opacity="0.82" rx="1"/>
<line x1="824.7" y1="206.8" x2="824.7" y2="234.9" stroke="#dc2626" stroke-width="1"/><rect x="822.0" y="210.3" width="5.3" height="18.3" fill="#dc2626" opacity="0.82" rx="1"/>
<line x1="833.3" y1="221.9" x2="833.3" y2="235.5" stroke="#dc2626" stroke-width="1"/><rect x="830.7" y="228.5" width="5.3" height="3.9" fill="#dc2626" opacity="0.82" rx="1"/>
<line x1="842.0" y1="203.9" x2="842.0" y2="232.7" stroke="#16a34a" stroke-width="1"/><rect x="839.3" y="205.1" width="5.3" height="27.4" fill="#16a34a" opacity="0.82" rx="1"/>
<line x1="72" y1="235.3" x2="842" y2="235.3" stroke="#16a34a" stroke-width="1.8" stroke-dasharray="6 4" /><rect x="688" y="215.3" width="146" height="23" rx="5" fill="#ffffff" stroke="#16a34a" opacity="0.97"/><text x="695" y="231.3" fill="#16a34a" font-size="15" font-weight="700">日内支撑 56.79</text>
<line x1="72" y1="154.8" x2="842" y2="154.8" stroke="#dc2626" stroke-width="1.8" stroke-dasharray="6 4" /><rect x="688" y="134.8" width="146" height="23" rx="5" fill="#ffffff" stroke="#dc2626" opacity="0.97"/><text x="695" y="150.8" fill="#dc2626" font-size="15" font-weight="700">日内压力 60.82</text>
<line x1="72" y1="205.1" x2="842" y2="205.1" stroke="#111827" stroke-width="1.8" stroke-dasharray="2 2" /><rect x="688" y="185.1" width="146" height="23" rx="5" fill="#ffffff" stroke="#111827" opacity="0.97"/><text x="695" y="201.1" fill="#111827" font-size="15" font-weight="700">现价 58.30</text>
<text x="72" y="396" fill="#16a34a" font-size="14" font-weight="700">日内做多计划</text><rect x="72" y="404" width="770" height="48" rx="6" fill="#f9fafb" stroke="#e5e7eb"/><line x1="94" y1="412" x2="820" y2="412" stroke="#16a34a" stroke-width="3"/><circle cx="132.0" cy="412" r="5" fill="#16a34a"/><text x="132.0" y="434" fill="#374151" font-size="12" text-anchor="middle">入场 止跌/突破回踩</text><circle cx="441.6" cy="412" r="5" fill="#16a34a"/><text x="441.6" y="434" fill="#374151" font-size="12" text-anchor="middle">止损 56.79</text><circle cx="692.0" cy="412" r="5" fill="#16a34a"/><text x="692.0" y="434" fill="#374151" font-size="12" text-anchor="middle">目标一 60.82</text><circle cx="794.0" cy="412" r="5" fill="#16a34a"/><text x="794.0" y="434" fill="#374151" font-size="12" text-anchor="middle">目标二 61.83</text>
<text x="72" y="482" fill="#dc2626" font-size="14" font-weight="700">日内做空计划</text><rect x="72" y="490" width="770" height="48" rx="6" fill="#f9fafb" stroke="#e5e7eb"/><line x1="94" y1="498" x2="820" y2="498" stroke="#dc2626" stroke-width="3"/><circle cx="132.0" cy="498" r="5" fill="#dc2626"/><text x="132.0" y="520" fill="#374151" font-size="12" text-anchor="middle">入场 反弹承压/破位回抽</text><circle cx="441.6" cy="498" r="5" fill="#dc2626"/><text x="441.6" y="520" fill="#374151" font-size="12" text-anchor="middle">止损 60.82</text><circle cx="692.0" cy="498" r="5" fill="#dc2626"/><text x="692.0" y="520" fill="#374151" font-size="12" text-anchor="middle">目标一 56.79</text><circle cx="794.0" cy="498" r="5" fill="#dc2626"/><text x="794.0" y="520" fill="#374151" font-size="12" text-anchor="middle">目标二 55.78</text>
</svg>