<svg xmlns="http://www.w3.org/2000/svg" width="960" height="560" viewBox="0 0 960 560">
<rect width="100%" height="100%" fill="#ffffff"/>
<text x="72" y="22" fill="#111827" font-size="18" font-weight="700">HYPE 小时线K线支撑压力图</text>
<text x="846" y="42" fill="#374151" font-size="13">最新价 57.05</text>
<line x1="72" y1="34" x2="72" y2="340" stroke="#d1d5db"/>
<line x1="72" y1="340" x2="876" y2="340" stroke="#d1d5db"/>
<line x1="72" y1="340.0" x2="876" y2="340.0" stroke="#f3f4f6"/>
<text x="10" y="344.0" fill="#6b7280" font-size="12">51.56</text>
<line x1="72" y1="263.5" x2="876" y2="263.5" stroke="#f3f4f6"/>
<text x="10" y="267.5" fill="#6b7280" font-size="12">55.38</text>
<line x1="72" y1="187.0" x2="876" y2="187.0" stroke="#f3f4f6"/>
<text x="10" y="191.0" fill="#6b7280" font-size="12">59.21</text>
<line x1="72" y1="110.5" x2="876" y2="110.5" stroke="#f3f4f6"/>
<text x="10" y="114.5" fill="#6b7280" font-size="12">63.03</text>
<line x1="72" y1="34.0" x2="876" y2="34.0" stroke="#f3f4f6"/>
<text x="10" y="38.0" fill="#6b7280" font-size="12">66.86</text>
<line x1="72.0" y1="71.1" x2="72.0" y2="87.6" stroke="#16a34a" stroke-width="1"/><rect x="69.2" y="77.3" width="5.5" height="3.2" fill="#16a34a" opacity="0.82" rx="1"/>
<line x1="81.0" y1="55.1" x2="81.0" y2="84.1" stroke="#16a34a" stroke-width="1"/><rect x="78.3" y="75.3" width="5.5" height="1.9" fill="#16a34a" opacity="0.82" rx="1"/>
<line x1="90.1" y1="71.3" x2="90.1" y2="101.7" stroke="#dc2626" stroke-width="1"/><rect x="87.3" y="75.2" width="5.5" height="21.9" fill="#dc2626" opacity="0.82" rx="1"/>
<line x1="99.1" y1="82.7" x2="99.1" y2="105.8" stroke="#16a34a" stroke-width="1"/><rect x="96.3" y="87.7" width="5.5" height="9.5" fill="#16a34a" opacity="0.82" rx="1"/>
<line x1="108.1" y1="76.5" x2="108.1" y2="92.2" stroke="#16a34a" stroke-width="1"/><rect x="105.4" y="82.6" width="5.5" height="5.0" fill="#16a34a" opacity="0.82" rx="1"/>
<line x1="117.2" y1="76.9" x2="117.2" y2="103.0" stroke="#dc2626" stroke-width="1"/><rect x="114.4" y="82.6" width="5.5" height="15.0" fill="#dc2626" opacity="0.82" rx="1"/>
<line x1="126.2" y1="92.4" x2="126.2" y2="106.9" stroke="#16a34a" stroke-width="1"/><rect x="123.4" y="92.6" width="5.5" height="4.8" fill="#16a34a" opacity="0.82" rx="1"/>
<line x1="135.2" y1="81.1" x2="135.2" y2="96.2" stroke="#16a34a" stroke-width="1"/><rect x="132.5" y="89.1" width="5.5" height="3.4" fill="#16a34a" opacity="0.82" rx="1"/>
<line x1="144.3" y1="88.2" x2="144.3" y2="116.3" stroke="#dc2626" stroke-width="1"/><rect x="141.5" y="89.3" width="5.5" height="16.4" fill="#dc2626" opacity="0.82" rx="1"/>
<line x1="153.3" y1="93.4" x2="153.3" y2="109.4" stroke="#16a34a" stroke-width="1"/><rect x="150.5" y="94.4" width="5.5" height="11.4" fill="#16a34a" opacity="0.82" rx="1"/>
<line x1="162.3" y1="90.3" x2="162.3" y2="129.1" stroke="#dc2626" stroke-width="1"/><rect x="159.6" y="94.3" width="5.5" height="32.9" fill="#dc2626" opacity="0.82" rx="1"/>
<line x1="171.4" y1="111.9" x2="171.4" y2="132.3" stroke="#16a34a" stroke-width="1"/><rect x="168.6" y="115.2" width="5.5" height="12.1" fill="#16a34a" opacity="0.82" rx="1"/>
<line x1="180.4" y1="112.3" x2="180.4" y2="141.3" stroke="#dc2626" stroke-width="1"/><rect x="177.6" y="115.2" width="5.5" height="9.1" fill="#dc2626" opacity="0.82" rx="1"/>
<line x1="189.4" y1="115.5" x2="189.4" y2="145.6" stroke="#dc2626" stroke-width="1"/><rect x="186.7" y="124.3" width="5.5" height="14.0" fill="#dc2626" opacity="0.82" rx="1"/>
<line x1="198.5" y1="127.1" x2="198.5" y2="154.3" stroke="#16a34a" stroke-width="1"/><rect x="195.7" y="132.4" width="5.5" height="5.9" fill="#16a34a" opacity="0.82" rx="1"/>
<line x1="207.5" y1="119.5" x2="207.5" y2="146.6" stroke="#16a34a" stroke-width="1"/><rect x="204.7" y="131.3" width="5.5" height="1.2" fill="#16a34a" opacity="0.82" rx="1"/>
<line x1="216.5" y1="121.5" x2="216.5" y2="142.7" stroke="#dc2626" stroke-width="1"/><rect x="213.8" y="131.3" width="5.5" height="3.2" fill="#dc2626" opacity="0.82" rx="1"/>
<line x1="225.6" y1="123.9" x2="225.6" y2="136.5" stroke="#16a34a" stroke-width="1"/><rect x="222.8" y="126.0" width="5.5" height="8.5" fill="#16a34a" opacity="0.82" rx="1"/>
<line x1="234.6" y1="112.7" x2="234.6" y2="140.7" stroke="#16a34a" stroke-width="1"/><rect x="231.8" y="119.3" width="5.5" height="6.8" fill="#16a34a" opacity="0.82" rx="1"/>
<line x1="243.6" y1="115.1" x2="243.6" y2="132.8" stroke="#dc2626" stroke-width="1"/><rect x="240.9" y="119.3" width="5.5" height="5.5" fill="#dc2626" opacity="0.82" rx="1"/>
<line x1="252.7" y1="121.2" x2="252.7" y2="135.1" stroke="#dc2626" stroke-width="1"/><rect x="249.9" y="124.7" width="5.5" height="3.3" fill="#dc2626" opacity="0.82" rx="1"/>
<line x1="261.7" y1="127.0" x2="261.7" y2="139.0" stroke="#dc2626" stroke-width="1"/><rect x="258.9" y="128.1" width="5.5" height="7.0" fill="#dc2626" opacity="0.82" rx="1"/>
<line x1="270.7" y1="124.1" x2="270.7" y2="135.5" stroke="#16a34a" stroke-width="1"/><rect x="268.0" y="128.9" width="5.5" height="6.1" fill="#16a34a" opacity="0.82" rx="1"/>
<line x1="279.8" y1="124.2" x2="279.8" y2="159.3" stroke="#dc2626" stroke-width="1"/><rect x="277.0" y="128.7" width="5.5" height="29.6" fill="#dc2626" opacity="0.82" rx="1"/>
<line x1="288.8" y1="153.6" x2="288.8" y2="183.8" stroke="#dc2626" stroke-width="1"/><rect x="286.0" y="158.3" width="5.5" height="13.4" fill="#dc2626" opacity="0.82" rx="1"/>
<line x1="297.8" y1="160.3" x2="297.8" y2="197.2" stroke="#dc2626" stroke-width="1"/><rect x="295.1" y="171.6" width="5.5" height="21.2" fill="#dc2626" opacity="0.82" rx="1"/>
<line x1="306.9" y1="180.9" x2="306.9" y2="201.1" stroke="#dc2626" stroke-width="1"/><rect x="304.1" y="192.9" width="5.5" height="1.8" fill="#dc2626" opacity="0.82" rx="1"/>
<line x1="315.9" y1="183.3" x2="315.9" y2="197.0" stroke="#16a34a" stroke-width="1"/><rect x="313.1" y="189.1" width="5.5" height="5.7" fill="#16a34a" opacity="0.82" rx="1"/>
<line x1="324.9" y1="184.0" x2="324.9" y2="198.8" stroke="#dc2626" stroke-width="1"/><rect x="322.2" y="189.1" width="5.5" height="3.0" fill="#dc2626" opacity="0.82" rx="1"/>
<line x1="334.0" y1="185.2" x2="334.0" y2="214.3" stroke="#dc2626" stroke-width="1"/><rect x="331.2" y="192.0" width="5.5" height="8.0" fill="#dc2626" opacity="0.82" rx="1"/>
<line x1="343.0" y1="181.7" x2="343.0" y2="205.1" stroke="#16a34a" stroke-width="1"/><rect x="340.2" y="182.8" width="5.5" height="17.1" fill="#16a34a" opacity="0.82" rx="1"/>
<line x1="352.0" y1="181.3" x2="352.0" y2="217.9" stroke="#dc2626" stroke-width="1"/><rect x="349.3" y="182.6" width="5.5" height="29.6" fill="#dc2626" opacity="0.82" rx="1"/>
<line x1="361.1" y1="204.3" x2="361.1" y2="221.1" stroke="#dc2626" stroke-width="1"/><rect x="358.3" y="212.1" width="5.5" height="7.3" fill="#dc2626" opacity="0.82" rx="1"/>
<line x1="370.1" y1="213.2" x2="370.1" y2="225.3" stroke="#16a34a" stroke-width="1"/><rect x="367.3" y="215.8" width="5.5" height="3.6" fill="#16a34a" opacity="0.82" rx="1"/>
<line x1="379.1" y1="207.7" x2="379.1" y2="247.5" stroke="#dc2626" stroke-width="1"/><rect x="376.4" y="215.5" width="5.5" height="13.7" fill="#dc2626" opacity="0.82" rx="1"/>
<line x1="388.2" y1="224.0" x2="388.2" y2="239.0" stroke="#16a34a" stroke-width="1"/><rect x="385.4" y="225.1" width="5.5" height="4.1" fill="#16a34a" opacity="0.82" rx="1"/>
<line x1="397.2" y1="222.3" x2="397.2" y2="259.8" stroke="#dc2626" stroke-width="1"/><rect x="394.4" y="225.1" width="5.5" height="31.6" fill="#dc2626" opacity="0.82" rx="1"/>
<line x1="406.2" y1="230.4" x2="406.2" y2="256.7" stroke="#16a34a" stroke-width="1"/><rect x="403.5" y="239.3" width="5.5" height="16.9" fill="#16a34a" opacity="0.82" rx="1"/>
<line x1="415.3" y1="238.3" x2="415.3" y2="266.0" stroke="#dc2626" stroke-width="1"/><rect x="412.5" y="239.2" width="5.5" height="21.2" fill="#dc2626" opacity="0.82" rx="1"/>
<line x1="424.3" y1="257.1" x2="424.3" y2="270.0" stroke="#dc2626" stroke-width="1"/><rect x="421.5" y="260.4" width="5.5" height="3.4" fill="#dc2626" opacity="0.82" rx="1"/>
<line x1="433.3" y1="256.4" x2="433.3" y2="269.6" stroke="#dc2626" stroke-width="1"/><rect x="430.6" y="263.8" width="5.5" height="2.9" fill="#dc2626" opacity="0.82" rx="1"/>
<line x1="442.4" y1="246.3" x2="442.4" y2="269.4" stroke="#16a34a" stroke-width="1"/><rect x="439.6" y="256.6" width="5.5" height="10.1" fill="#16a34a" opacity="0.82" rx="1"/>
<line x1="451.4" y1="254.1" x2="451.4" y2="266.5" stroke="#16a34a" stroke-width="1"/><rect x="448.6" y="255.6" width="5.5" height="1.2" fill="#16a34a" opacity="0.82" rx="1"/>
<line x1="460.4" y1="248.5" x2="460.4" y2="264.3" stroke="#16a34a" stroke-width="1"/><rect x="457.7" y="251.7" width="5.5" height="4.0" fill="#16a34a" opacity="0.82" rx="1"/>
<line x1="469.5" y1="239.2" x2="469.5" y2="263.0" stroke="#16a34a" stroke-width="1"/><rect x="466.7" y="242.5" width="5.5" height="9.2" fill="#16a34a" opacity="0.82" rx="1"/>
<line x1="478.5" y1="239.3" x2="478.5" y2="260.4" stroke="#dc2626" stroke-width="1"/><rect x="475.7" y="242.6" width="5.5" height="15.5" fill="#dc2626" opacity="0.82" rx="1"/>
<line x1="487.6" y1="237.1" x2="487.6" y2="274.2" stroke="#16a34a" stroke-width="1"/><rect x="484.8" y="246.9" width="5.5" height="11.3" fill="#16a34a" opacity="0.82" rx="1"/>
<line x1="496.6" y1="209.5" x2="496.6" y2="251.1" stroke="#16a34a" stroke-width="1"/><rect x="493.8" y="222.4" width="5.5" height="23.8" fill="#16a34a" opacity="0.82" rx="1"/>
<line x1="505.6" y1="204.1" x2="505.6" y2="225.8" stroke="#16a34a" stroke-width="1"/><rect x="502.8" y="210.4" width="5.5" height="11.8" fill="#16a34a" opacity="0.82" rx="1"/>
<line x1="514.7" y1="206.3" x2="514.7" y2="238.6" stroke="#dc2626" stroke-width="1"/><rect x="511.9" y="210.4" width="5.5" height="11.0" fill="#dc2626" opacity="0.82" rx="1"/>
<line x1="523.7" y1="220.8" x2="523.7" y2="259.9" stroke="#dc2626" stroke-width="1"/><rect x="520.9" y="221.4" width="5.5" height="35.6" fill="#dc2626" opacity="0.82" rx="1"/>
<line x1="532.7" y1="245.3" x2="532.7" y2="273.2" stroke="#dc2626" stroke-width="1"/><rect x="529.9" y="257.0" width="5.5" height="3.1" fill="#dc2626" opacity="0.82" rx="1"/>
<line x1="541.8" y1="256.2" x2="541.8" y2="289.9" stroke="#dc2626" stroke-width="1"/><rect x="539.0" y="260.1" width="5.5" height="17.4" fill="#dc2626" opacity="0.82" rx="1"/>
<line x1="550.8" y1="275.6" x2="550.8" y2="299.2" stroke="#dc2626" stroke-width="1"/><rect x="548.0" y="277.4" width="5.5" height="15.2" fill="#dc2626" opacity="0.82" rx="1"/>
<line x1="559.8" y1="286.1" x2="559.8" y2="301.1" stroke="#dc2626" stroke-width="1"/><rect x="557.1" y="293.0" width="5.5" height="3.9" fill="#dc2626" opacity="0.82" rx="1"/>
<line x1="568.9" y1="288.0" x2="568.9" y2="308.8" stroke="#dc2626" stroke-width="1"/><rect x="566.1" y="296.9" width="5.5" height="8.8" fill="#dc2626" opacity="0.82" rx="1"/>
<line x1="577.9" y1="299.6" x2="577.9" y2="318.9" stroke="#dc2626" stroke-width="1"/><rect x="575.1" y="305.7" width="5.5" height="1.2" fill="#dc2626" opacity="0.82" rx="1"/>
<line x1="586.9" y1="297.8" x2="586.9" y2="317.8" stroke="#16a34a" stroke-width="1"/><rect x="584.2" y="305.4" width="5.5" height="1.2" fill="#16a34a" opacity="0.82" rx="1"/>
<line x1="596.0" y1="296.7" x2="596.0" y2="314.1" stroke="#dc2626" stroke-width="1"/><rect x="593.2" y="305.3" width="5.5" height="1.2" fill="#dc2626" opacity="0.82" rx="1"/>
<line x1="605.0" y1="279.3" x2="605.0" y2="306.0" stroke="#16a34a" stroke-width="1"/><rect x="602.2" y="280.1" width="5.5" height="25.7" fill="#16a34a" opacity="0.82" rx="1"/>
<line x1="614.0" y1="279.6" x2="614.0" y2="299.9" stroke="#dc2626" stroke-width="1"/><rect x="611.3" y="280.1" width="5.5" height="8.3" fill="#dc2626" opacity="0.82" rx="1"/>
<line x1="623.1" y1="263.6" x2="623.1" y2="291.0" stroke="#16a34a" stroke-width="1"/><rect x="620.3" y="268.0" width="5.5" height="20.2" fill="#16a34a" opacity="0.82" rx="1"/>
<line x1="632.1" y1="267.2" x2="632.1" y2="281.6" stroke="#dc2626" stroke-width="1"/><rect x="629.3" y="267.9" width="5.5" height="8.4" fill="#dc2626" opacity="0.82" rx="1"/>
<line x1="641.1" y1="258.7" x2="641.1" y2="284.1" stroke="#16a34a" stroke-width="1"/><rect x="638.4" y="260.5" width="5.5" height="15.9" fill="#16a34a" opacity="0.82" rx="1"/>
<line x1="650.2" y1="243.8" x2="650.2" y2="261.1" stroke="#dc2626" stroke-width="1"/><rect x="647.4" y="260.5" width="5.5" height="1.2" fill="#dc2626" opacity="0.82" rx="1"/>
<line x1="659.2" y1="250.2" x2="659.2" y2="263.1" stroke="#16a34a" stroke-width="1"/><rect x="656.4" y="260.2" width="5.5" height="1.2" fill="#16a34a" opacity="0.82" rx="1"/>
<line x1="668.2" y1="245.5" x2="668.2" y2="261.2" stroke="#16a34a" stroke-width="1"/><rect x="665.5" y="251.4" width="5.5" height="9.0" fill="#16a34a" opacity="0.82" rx="1"/>
<line x1="677.3" y1="247.2" x2="677.3" y2="260.0" stroke="#16a34a" stroke-width="1"/><rect x="674.5" y="250.2" width="5.5" height="1.3" fill="#16a34a" opacity="0.82" rx="1"/>
<line x1="686.3" y1="247.3" x2="686.3" y2="258.7" stroke="#dc2626" stroke-width="1"/><rect x="683.5" y="250.0" width="5.5" height="3.2" fill="#dc2626" opacity="0.82" rx="1"/>
<line x1="695.3" y1="229.5" x2="695.3" y2="254.2" stroke="#16a34a" stroke-width="1"/><rect x="692.6" y="234.4" width="5.5" height="18.9" fill="#16a34a" opacity="0.82" rx="1"/>
<line x1="704.4" y1="231.2" x2="704.4" y2="257.6" stroke="#dc2626" stroke-width="1"/><rect x="701.6" y="234.4" width="5.5" height="11.9" fill="#dc2626" opacity="0.82" rx="1"/>
<line x1="713.4" y1="220.8" x2="713.4" y2="249.7" stroke="#16a34a" stroke-width="1"/><rect x="710.6" y="231.3" width="5.5" height="15.1" fill="#16a34a" opacity="0.82" rx="1"/>
<line x1="722.4" y1="228.6" x2="722.4" y2="245.8" stroke="#dc2626" stroke-width="1"/><rect x="719.7" y="231.3" width="5.5" height="10.6" fill="#dc2626" opacity="0.82" rx="1"/>
<line x1="731.5" y1="225.4" x2="731.5" y2="247.2" stroke="#16a34a" stroke-width="1"/><rect x="728.7" y="236.8" width="5.5" height="5.0" fill="#16a34a" opacity="0.82" rx="1"/>
<line x1="740.5" y1="234.1" x2="740.5" y2="249.1" stroke="#dc2626" stroke-width="1"/><rect x="737.7" y="236.8" width="5.5" height="9.9" fill="#dc2626" opacity="0.82" rx="1"/>
<line x1="749.5" y1="193.8" x2="749.5" y2="255.2" stroke="#16a34a" stroke-width="1"/><rect x="746.8" y="203.5" width="5.5" height="43.4" fill="#16a34a" opacity="0.82" rx="1"/>
<line x1="758.6" y1="197.7" x2="758.6" y2="221.1" stroke="#dc2626" stroke-width="1"/><rect x="755.8" y="203.5" width="5.5" height="1.4" fill="#dc2626" opacity="0.82" rx="1"/>
<line x1="767.6" y1="178.2" x2="767.6" y2="211.3" stroke="#16a34a" stroke-width="1"/><rect x="764.8" y="199.1" width="5.5" height="5.6" fill="#16a34a" opacity="0.82" rx="1"/>
<line x1="776.6" y1="189.7" x2="776.6" y2="209.2" stroke="#dc2626" stroke-width="1"/><rect x="773.9" y="198.9" width="5.5" height="5.9" fill="#dc2626" opacity="0.82" rx="1"/>
<line x1="785.7" y1="188.5" x2="785.7" y2="205.1" stroke="#16a34a" stroke-width="1"/><rect x="782.9" y="194.8" width="5.5" height="10.0" fill="#16a34a" opacity="0.82" rx="1"/>
<line x1="794.7" y1="187.0" x2="794.7" y2="200.7" stroke="#dc2626" stroke-width="1"/><rect x="791.9" y="194.8" width="5.5" height="5.8" fill="#dc2626" opacity="0.82" rx="1"/>
<line x1="803.7" y1="180.1" x2="803.7" y2="205.7" stroke="#16a34a" stroke-width="1"/><rect x="801.0" y="192.5" width="5.5" height="8.1" fill="#16a34a" opacity="0.82" rx="1"/>
<line x1="812.8" y1="177.1" x2="812.8" y2="194.0" stroke="#16a34a" stroke-width="1"/><rect x="810.0" y="187.5" width="5.5" height="5.0" fill="#16a34a" opacity="0.82" rx="1"/>
<line x1="821.8" y1="187.7" x2="821.8" y2="206.6" stroke="#dc2626" stroke-width="1"/><rect x="819.0" y="187.8" width="5.5" height="16.5" fill="#dc2626" opacity="0.82" rx="1"/>
<line x1="830.8" y1="182.3" x2="830.8" y2="207.6" stroke="#16a34a" stroke-width="1"/><rect x="828.1" y="185.2" width="5.5" height="19.1" fill="#16a34a" opacity="0.82" rx="1"/>
<line x1="839.9" y1="182.3" x2="839.9" y2="192.8" stroke="#dc2626" stroke-width="1"/><rect x="837.1" y="185.3" width="5.5" height="2.0" fill="#dc2626" opacity="0.82" rx="1"/>
<line x1="848.9" y1="182.1" x2="848.9" y2="198.6" stroke="#dc2626" stroke-width="1"/><rect x="846.1" y="187.4" width="5.5" height="10.2" fill="#dc2626" opacity="0.82" rx="1"/>
<line x1="857.9" y1="196.6" x2="857.9" y2="211.1" stroke="#dc2626" stroke-width="1"/><rect x="855.2" y="197.7" width="5.5" height="12.6" fill="#dc2626" opacity="0.82" rx="1"/>
<line x1="867.0" y1="206.8" x2="867.0" y2="234.9" stroke="#dc2626" stroke-width="1"/><rect x="864.2" y="210.3" width="5.5" height="18.3" fill="#dc2626" opacity="0.82" rx="1"/>
<line x1="876.0" y1="221.9" x2="876.0" y2="230.9" stroke="#dc2626" stroke-width="1"/><rect x="873.2" y="228.5" width="5.5" height="1.5" fill="#dc2626" opacity="0.82" rx="1"/>
<line x1="72" y1="259.2" x2="876" y2="259.2" stroke="#16a34a" stroke-width="1.4" stroke-dasharray="6 4" /><rect x="883" y="242.2" width="76" height="18" rx="4" fill="#ffffff" stroke="#16a34a" opacity="0.95"/><text x="888" y="255.2" fill="#16a34a" font-size="13">日内支撑 55.60</text>
<line x1="72" y1="181.5" x2="876" y2="181.5" stroke="#dc2626" stroke-width="1.4" stroke-dasharray="6 4" /><rect x="883" y="164.5" width="76" height="18" rx="4" fill="#ffffff" stroke="#dc2626" opacity="0.95"/><text x="888" y="177.5" fill="#dc2626" font-size="13">日内压力 59.48</text>
<line x1="72" y1="230.0" x2="876" y2="230.0" stroke="#111827" stroke-width="1.4" stroke-dasharray="2 2" /><rect x="883" y="213.0" width="76" height="18" rx="4" fill="#ffffff" stroke="#111827" opacity="0.95"/><text x="888" y="226.0" fill="#111827" font-size="13">现价 57.05</text>
<text x="72" y="396" fill="#16a34a" font-size="14" font-weight="700">日内做多计划</text><rect x="72" y="404" width="804" height="48" rx="6" fill="#f9fafb" stroke="#e5e7eb"/><line x1="94" y1="412" x2="854" y2="412" stroke="#16a34a" stroke-width="3"/><circle cx="132.0" cy="412" r="5" fill="#16a34a"/><text x="132.0" y="434" fill="#374151" font-size="12" text-anchor="middle">入场 止跌/突破回踩</text><circle cx="457.9" cy="412" r="5" fill="#16a34a"/><text x="457.9" y="434" fill="#374151" font-size="12" text-anchor="middle">止损 55.60</text><circle cx="726.0" cy="412" r="5" fill="#16a34a"/><text x="726.0" y="434" fill="#374151" font-size="12" text-anchor="middle">目标一 59.48</text><circle cx="828.0" cy="412" r="5" fill="#16a34a"/><text x="828.0" y="434" fill="#374151" font-size="12" text-anchor="middle">目标二 60.45</text>
<text x="72" y="482" fill="#dc2626" font-size="14" font-weight="700">日内做空计划</text><rect x="72" y="490" width="804" height="48" rx="6" fill="#f9fafb" stroke="#e5e7eb"/><line x1="94" y1="498" x2="854" y2="498" stroke="#dc2626" stroke-width="3"/><circle cx="132.0" cy="498" r="5" fill="#dc2626"/><text x="132.0" y="520" fill="#374151" font-size="12" text-anchor="middle">入场 反弹承压/破位回抽</text><circle cx="457.9" cy="498" r="5" fill="#dc2626"/><text x="457.9" y="520" fill="#374151" font-size="12" text-anchor="middle">止损 59.48</text><circle cx="726.0" cy="498" r="5" fill="#dc2626"/><text x="726.0" y="520" fill="#374151" font-size="12" text-anchor="middle">目标一 55.60</text><circle cx="828.0" cy="498" r="5" fill="#dc2626"/><text x="828.0" y="520" fill="#374151" font-size="12" text-anchor="middle">目标二 54.63</text>
</svg>