<svg xmlns="http://www.w3.org/2000/svg" width="1080" height="560" viewBox="0 0 1080 560">
<rect width="100%" height="100%" fill="#ffffff"/>
<text x="72" y="23" fill="#111827" font-size="21" font-weight="800">DRAM 日线K线支撑压力图</text>
<text x="862" y="42" fill="#374151" font-size="15" text-anchor="end">最新价 72.53</text>
<line x1="72" y1="34" x2="72" y2="340" stroke="#d1d5db"/>
<line x1="72" y1="340" x2="862" y2="340" stroke="#d1d5db"/>
<line x1="72" y1="340.0" x2="862" y2="340.0" stroke="#f3f4f6"/>
<text x="8" y="345.0" fill="#4b5563" font-size="14">43.29</text>
<line x1="72" y1="263.5" x2="862" y2="263.5" stroke="#f3f4f6"/>
<text x="8" y="268.5" fill="#4b5563" font-size="14">55.07</text>
<line x1="72" y1="187.0" x2="862" y2="187.0" stroke="#f3f4f6"/>
<text x="8" y="192.0" fill="#4b5563" font-size="14">66.86</text>
<line x1="72" y1="110.5" x2="862" y2="110.5" stroke="#f3f4f6"/>
<text x="8" y="115.5" fill="#4b5563" font-size="14">78.64</text>
<line x1="72" y1="34.0" x2="862" y2="34.0" stroke="#f3f4f6"/>
<text x="8" y="39.0" fill="#4b5563" font-size="14">90.42</text>
<line x1="72.0" y1="284.2" x2="72.0" y2="308.8" stroke="#dc2626" stroke-width="1"/><rect x="67.5" y="288.4" width="9.0" height="9.5" fill="#dc2626" opacity="0.82" rx="1"/>
<line x1="91.8" y1="289.7" x2="91.8" y2="318.9" stroke="#16a34a" stroke-width="1"/><rect x="87.2" y="296.4" width="9.0" height="1.4" fill="#16a34a" opacity="0.82" rx="1"/>
<line x1="111.5" y1="283.1" x2="111.5" y2="309.5" stroke="#16a34a" stroke-width="1"/><rect x="107.0" y="285.2" width="9.0" height="11.3" fill="#16a34a" opacity="0.82" rx="1"/>
<line x1="131.2" y1="262.4" x2="131.2" y2="289.2" stroke="#16a34a" stroke-width="1"/><rect x="126.8" y="265.1" width="9.0" height="20.1" fill="#16a34a" opacity="0.82" rx="1"/>
<line x1="151.0" y1="264.9" x2="151.0" y2="279.6" stroke="#dc2626" stroke-width="1"/><rect x="146.5" y="265.1" width="9.0" height="14.2" fill="#dc2626" opacity="0.82" rx="1"/>
<line x1="170.8" y1="257.1" x2="170.8" y2="293.6" stroke="#16a34a" stroke-width="1"/><rect x="166.2" y="268.5" width="9.0" height="10.8" fill="#16a34a" opacity="0.82" rx="1"/>
<line x1="190.5" y1="256.8" x2="190.5" y2="269.8" stroke="#16a34a" stroke-width="1"/><rect x="186.0" y="261.6" width="9.0" height="6.8" fill="#16a34a" opacity="0.82" rx="1"/>
<line x1="210.2" y1="240.4" x2="210.2" y2="263.3" stroke="#16a34a" stroke-width="1"/><rect x="205.8" y="254.2" width="9.0" height="7.3" fill="#16a34a" opacity="0.82" rx="1"/>
<line x1="230.0" y1="210.1" x2="230.0" y2="266.1" stroke="#16a34a" stroke-width="1"/><rect x="225.5" y="217.2" width="9.0" height="37.1" fill="#16a34a" opacity="0.82" rx="1"/>
<line x1="249.8" y1="207.6" x2="249.8" y2="237.5" stroke="#dc2626" stroke-width="1"/><rect x="245.2" y="217.2" width="9.0" height="16.7" fill="#dc2626" opacity="0.82" rx="1"/>
<line x1="269.5" y1="207.1" x2="269.5" y2="248.1" stroke="#16a34a" stroke-width="1"/><rect x="265.0" y="211.7" width="9.0" height="22.3" fill="#16a34a" opacity="0.82" rx="1"/>
<line x1="289.2" y1="203.3" x2="289.2" y2="221.4" stroke="#16a34a" stroke-width="1"/><rect x="284.8" y="210.0" width="9.0" height="1.6" fill="#16a34a" opacity="0.82" rx="1"/>
<line x1="309.0" y1="192.8" x2="309.0" y2="212.7" stroke="#16a34a" stroke-width="1"/><rect x="304.5" y="193.9" width="9.0" height="16.2" fill="#16a34a" opacity="0.82" rx="1"/>
<line x1="328.8" y1="183.0" x2="328.8" y2="197.6" stroke="#16a34a" stroke-width="1"/><rect x="324.2" y="191.7" width="9.0" height="2.1" fill="#16a34a" opacity="0.82" rx="1"/>
<line x1="348.5" y1="172.6" x2="348.5" y2="203.3" stroke="#16a34a" stroke-width="1"/><rect x="344.0" y="178.3" width="9.0" height="13.3" fill="#16a34a" opacity="0.82" rx="1"/>
<line x1="368.2" y1="165.4" x2="368.2" y2="196.4" stroke="#16a34a" stroke-width="1"/><rect x="363.8" y="170.2" width="9.0" height="8.3" fill="#16a34a" opacity="0.82" rx="1"/>
<line x1="388.0" y1="164.5" x2="388.0" y2="190.0" stroke="#dc2626" stroke-width="1"/><rect x="383.5" y="170.1" width="9.0" height="17.9" fill="#dc2626" opacity="0.82" rx="1"/>
<line x1="407.8" y1="179.5" x2="407.8" y2="210.9" stroke="#dc2626" stroke-width="1"/><rect x="403.2" y="188.0" width="9.0" height="21.7" fill="#dc2626" opacity="0.82" rx="1"/>
<line x1="427.5" y1="204.7" x2="427.5" y2="274.0" stroke="#dc2626" stroke-width="1"/><rect x="423.0" y="209.8" width="9.0" height="51.4" fill="#dc2626" opacity="0.82" rx="1"/>
<line x1="447.2" y1="254.5" x2="447.2" y2="280.1" stroke="#16a34a" stroke-width="1"/><rect x="442.8" y="259.2" width="9.0" height="2.0" fill="#16a34a" opacity="0.82" rx="1"/>
<line x1="467.0" y1="232.6" x2="467.0" y2="264.0" stroke="#16a34a" stroke-width="1"/><rect x="462.5" y="254.6" width="9.0" height="4.7" fill="#16a34a" opacity="0.82" rx="1"/>
<line x1="486.8" y1="220.7" x2="486.8" y2="257.4" stroke="#16a34a" stroke-width="1"/><rect x="482.2" y="225.7" width="9.0" height="28.9" fill="#16a34a" opacity="0.82" rx="1"/>
<line x1="506.5" y1="204.2" x2="506.5" y2="261.1" stroke="#dc2626" stroke-width="1"/><rect x="502.0" y="225.7" width="9.0" height="7.5" fill="#dc2626" opacity="0.82" rx="1"/>
<line x1="526.2" y1="221.5" x2="526.2" y2="260.1" stroke="#dc2626" stroke-width="1"/><rect x="521.8" y="233.2" width="9.0" height="21.4" fill="#dc2626" opacity="0.82" rx="1"/>
<line x1="546.0" y1="188.1" x2="546.0" y2="256.2" stroke="#16a34a" stroke-width="1"/><rect x="541.5" y="192.4" width="9.0" height="62.0" fill="#16a34a" opacity="0.82" rx="1"/>
<line x1="565.8" y1="191.4" x2="565.8" y2="216.8" stroke="#dc2626" stroke-width="1"/><rect x="561.2" y="192.5" width="9.0" height="2.4" fill="#dc2626" opacity="0.82" rx="1"/>
<line x1="585.5" y1="192.7" x2="585.5" y2="206.3" stroke="#16a34a" stroke-width="1"/><rect x="581.0" y="194.1" width="9.0" height="1.2" fill="#16a34a" opacity="0.82" rx="1"/>
<line x1="605.2" y1="171.6" x2="605.2" y2="195.4" stroke="#16a34a" stroke-width="1"/><rect x="600.8" y="177.8" width="9.0" height="16.2" fill="#16a34a" opacity="0.82" rx="1"/>
<line x1="625.0" y1="157.8" x2="625.0" y2="183.6" stroke="#16a34a" stroke-width="1"/><rect x="620.5" y="161.1" width="9.0" height="16.9" fill="#16a34a" opacity="0.82" rx="1"/>
<line x1="644.8" y1="146.6" x2="644.8" y2="181.0" stroke="#dc2626" stroke-width="1"/><rect x="640.2" y="161.2" width="9.0" height="12.6" fill="#dc2626" opacity="0.82" rx="1"/>
<line x1="664.5" y1="145.2" x2="664.5" y2="174.0" stroke="#16a34a" stroke-width="1"/><rect x="660.0" y="150.6" width="9.0" height="23.2" fill="#16a34a" opacity="0.82" rx="1"/>
<line x1="684.2" y1="111.1" x2="684.2" y2="152.2" stroke="#16a34a" stroke-width="1"/><rect x="679.8" y="113.1" width="9.0" height="37.3" fill="#16a34a" opacity="0.82" rx="1"/>
<line x1="704.0" y1="110.2" x2="704.0" y2="135.1" stroke="#dc2626" stroke-width="1"/><rect x="699.5" y="113.2" width="9.0" height="3.9" fill="#dc2626" opacity="0.82" rx="1"/>
<line x1="723.8" y1="96.0" x2="723.8" y2="118.4" stroke="#16a34a" stroke-width="1"/><rect x="719.2" y="101.0" width="9.0" height="16.2" fill="#16a34a" opacity="0.82" rx="1"/>
<line x1="743.5" y1="92.8" x2="743.5" y2="124.1" stroke="#dc2626" stroke-width="1"/><rect x="739.0" y="101.0" width="9.0" height="18.7" fill="#dc2626" opacity="0.82" rx="1"/>
<line x1="763.2" y1="88.9" x2="763.2" y2="134.1" stroke="#16a34a" stroke-width="1"/><rect x="758.8" y="98.4" width="9.0" height="21.3" fill="#16a34a" opacity="0.82" rx="1"/>
<line x1="783.0" y1="97.8" x2="783.0" y2="175.0" stroke="#dc2626" stroke-width="1"/><rect x="778.5" y="98.4" width="9.0" height="64.7" fill="#dc2626" opacity="0.82" rx="1"/>
<line x1="802.8" y1="91.9" x2="802.8" y2="184.6" stroke="#16a34a" stroke-width="1"/><rect x="798.2" y="100.0" width="9.0" height="63.0" fill="#16a34a" opacity="0.82" rx="1"/>
<line x1="822.5" y1="99.2" x2="822.5" y2="143.7" stroke="#dc2626" stroke-width="1"/><rect x="818.0" y="99.9" width="9.0" height="24.3" fill="#dc2626" opacity="0.82" rx="1"/>
<line x1="842.2" y1="122.1" x2="842.2" y2="160.1" stroke="#dc2626" stroke-width="1"/><rect x="837.8" y="124.2" width="9.0" height="27.3" fill="#dc2626" opacity="0.82" rx="1"/>
<line x1="862.0" y1="150.2" x2="862.0" y2="152.6" stroke="#16a34a" stroke-width="1"/><rect x="857.5" y="150.2" width="9.0" height="1.3" fill="#16a34a" opacity="0.82" rx="1"/>
<line x1="72" y1="207.2" x2="862" y2="207.2" stroke="#16a34a" stroke-width="1.8" stroke-dasharray="6 4" /><rect x="874" y="187.2" width="166" height="23" rx="5" fill="#ffffff" stroke="#16a34a" opacity="0.97"/><text x="881" y="203.2" fill="#16a34a" font-size="15" font-weight="700">支撑 63.74</text>
<line x1="72" y1="55.1" x2="862" y2="55.1" stroke="#dc2626" stroke-width="1.8" stroke-dasharray="6 4" /><rect x="874" y="35.1" width="166" height="23" rx="5" fill="#ffffff" stroke="#dc2626" opacity="0.97"/><text x="881" y="51.1" fill="#dc2626" font-size="15" font-weight="700">压力 87.17</text>
<line x1="72" y1="150.2" x2="862" y2="150.2" stroke="#111827" stroke-width="1.8" stroke-dasharray="2 2" /><rect x="874" y="130.2" width="166" height="23" rx="5" fill="#ffffff" stroke="#111827" opacity="0.97"/><text x="881" y="146.2" fill="#111827" font-size="15" font-weight="700">现价 72.53</text>
<text x="72" y="396" fill="#16a34a" font-size="14" font-weight="700">日线做多计划</text><rect x="72" y="404" width="790" height="48" rx="6" fill="#f9fafb" stroke="#e5e7eb"/><line x1="94" y1="412" x2="840" y2="412" stroke="#16a34a" stroke-width="3"/><circle cx="132.0" cy="412" r="5" fill="#16a34a"/><text x="132.0" y="434" fill="#374151" font-size="12" text-anchor="middle">入场 止跌/突破回踩</text><circle cx="451.2" cy="412" r="5" fill="#16a34a"/><text x="451.2" y="434" fill="#374151" font-size="12" text-anchor="middle">止损 63.74</text><circle cx="712.0" cy="412" r="5" fill="#16a34a"/><text x="712.0" y="434" fill="#374151" font-size="12" text-anchor="middle">目标一 87.17</text><circle cx="814.0" cy="412" r="5" fill="#16a34a"/><text x="814.0" y="434" fill="#374151" font-size="12" text-anchor="middle">目标二 95.96</text>
<text x="72" y="482" fill="#dc2626" font-size="14" font-weight="700">日线做空计划</text><rect x="72" y="490" width="790" height="48" rx="6" fill="#f9fafb" stroke="#e5e7eb"/><line x1="94" y1="498" x2="840" y2="498" stroke="#dc2626" stroke-width="3"/><circle cx="132.0" cy="498" r="5" fill="#dc2626"/><text x="132.0" y="520" fill="#374151" font-size="12" text-anchor="middle">入场 反弹承压/破位回抽</text><circle cx="451.2" cy="498" r="5" fill="#dc2626"/><text x="451.2" y="520" fill="#374151" font-size="12" text-anchor="middle">止损 87.17</text><circle cx="712.0" cy="498" r="5" fill="#dc2626"/><text x="712.0" y="520" fill="#374151" font-size="12" text-anchor="middle">目标一 63.74</text><circle cx="814.0" cy="498" r="5" fill="#dc2626"/><text x="814.0" y="520" fill="#374151" font-size="12" text-anchor="middle">目标二 57.89</text>
</svg>