<svg xmlns="http://www.w3.org/2000/svg" width="1080" height="560" viewBox="0 0 1080 560">
<rect width="100%" height="100%" fill="#ffffff"/>
<text x="72" y="23" fill="#111827" font-size="21" font-weight="800">HYPE 小时线K线支撑压力图</text>
<text x="862" y="42" fill="#374151" font-size="15" text-anchor="end">最新价 64.29</text>
<line x1="72" y1="34" x2="72" y2="340" stroke="#d1d5db"/>
<line x1="72" y1="340" x2="862" y2="340" stroke="#d1d5db"/>
<line x1="72" y1="340.0" x2="862" y2="340.0" stroke="#f3f4f6"/>
<text x="8" y="345.0" fill="#4b5563" font-size="14">57.61</text>
<line x1="72" y1="263.5" x2="862" y2="263.5" stroke="#f3f4f6"/>
<text x="8" y="268.5" fill="#4b5563" font-size="14">60.21</text>
<line x1="72" y1="187.0" x2="862" y2="187.0" stroke="#f3f4f6"/>
<text x="8" y="192.0" fill="#4b5563" font-size="14">62.81</text>
<line x1="72" y1="110.5" x2="862" y2="110.5" stroke="#f3f4f6"/>
<text x="8" y="115.5" fill="#4b5563" font-size="14">65.42</text>
<line x1="72" y1="34.0" x2="862" y2="34.0" stroke="#f3f4f6"/>
<text x="8" y="39.0" fill="#4b5563" font-size="14">68.02</text>
<line x1="72.0" y1="134.5" x2="72.0" y2="169.8" stroke="#dc2626" stroke-width="1"/><rect x="69.3" y="144.2" width="5.4" height="22.0" fill="#dc2626" opacity="0.82" rx="1"/>
<line x1="80.9" y1="159.7" x2="80.9" y2="188.2" stroke="#dc2626" stroke-width="1"/><rect x="78.2" y="166.0" width="5.4" height="18.9" fill="#dc2626" opacity="0.82" rx="1"/>
<line x1="89.8" y1="176.9" x2="89.8" y2="194.6" stroke="#16a34a" stroke-width="1"/><rect x="87.0" y="179.3" width="5.4" height="5.8" fill="#16a34a" opacity="0.82" rx="1"/>
<line x1="98.6" y1="173.3" x2="98.6" y2="204.1" stroke="#dc2626" stroke-width="1"/><rect x="95.9" y="179.6" width="5.4" height="15.1" fill="#dc2626" opacity="0.82" rx="1"/>
<line x1="107.5" y1="173.7" x2="107.5" y2="194.8" stroke="#16a34a" stroke-width="1"/><rect x="104.8" y="174.4" width="5.4" height="20.3" fill="#16a34a" opacity="0.82" rx="1"/>
<line x1="116.4" y1="166.6" x2="116.4" y2="192.5" stroke="#dc2626" stroke-width="1"/><rect x="113.7" y="174.8" width="5.4" height="9.2" fill="#dc2626" opacity="0.82" rx="1"/>
<line x1="125.3" y1="171.9" x2="125.3" y2="191.4" stroke="#16a34a" stroke-width="1"/><rect x="122.5" y="172.0" width="5.4" height="12.0" fill="#16a34a" opacity="0.82" rx="1"/>
<line x1="134.1" y1="161.9" x2="134.1" y2="185.6" stroke="#dc2626" stroke-width="1"/><rect x="131.4" y="172.1" width="5.4" height="11.8" fill="#dc2626" opacity="0.82" rx="1"/>
<line x1="143.0" y1="180.1" x2="143.0" y2="222.1" stroke="#dc2626" stroke-width="1"/><rect x="140.3" y="183.9" width="5.4" height="16.8" fill="#dc2626" opacity="0.82" rx="1"/>
<line x1="151.9" y1="180.5" x2="151.9" y2="212.6" stroke="#16a34a" stroke-width="1"/><rect x="149.2" y="198.7" width="5.4" height="1.9" fill="#16a34a" opacity="0.82" rx="1"/>
<line x1="160.8" y1="183.5" x2="160.8" y2="215.5" stroke="#dc2626" stroke-width="1"/><rect x="158.0" y="199.0" width="5.4" height="6.8" fill="#dc2626" opacity="0.82" rx="1"/>
<line x1="169.6" y1="201.0" x2="169.6" y2="219.8" stroke="#dc2626" stroke-width="1"/><rect x="166.9" y="205.9" width="5.4" height="12.5" fill="#dc2626" opacity="0.82" rx="1"/>
<line x1="178.5" y1="200.0" x2="178.5" y2="219.8" stroke="#16a34a" stroke-width="1"/><rect x="175.8" y="204.6" width="5.4" height="13.9" fill="#16a34a" opacity="0.82" rx="1"/>
<line x1="187.4" y1="189.0" x2="187.4" y2="217.8" stroke="#dc2626" stroke-width="1"/><rect x="184.7" y="204.6" width="5.4" height="6.1" fill="#dc2626" opacity="0.82" rx="1"/>
<line x1="196.3" y1="198.9" x2="196.3" y2="212.3" stroke="#16a34a" stroke-width="1"/><rect x="193.5" y="209.6" width="5.4" height="1.2" fill="#16a34a" opacity="0.82" rx="1"/>
<line x1="205.1" y1="183.8" x2="205.1" y2="210.9" stroke="#16a34a" stroke-width="1"/><rect x="202.4" y="202.6" width="5.4" height="7.1" fill="#16a34a" opacity="0.82" rx="1"/>
<line x1="214.0" y1="202.2" x2="214.0" y2="220.1" stroke="#dc2626" stroke-width="1"/><rect x="211.3" y="202.8" width="5.4" height="3.9" fill="#dc2626" opacity="0.82" rx="1"/>
<line x1="222.9" y1="183.3" x2="222.9" y2="207.7" stroke="#16a34a" stroke-width="1"/><rect x="220.2" y="186.0" width="5.4" height="20.5" fill="#16a34a" opacity="0.82" rx="1"/>
<line x1="231.8" y1="175.6" x2="231.8" y2="201.4" stroke="#dc2626" stroke-width="1"/><rect x="229.1" y="186.0" width="5.4" height="2.1" fill="#dc2626" opacity="0.82" rx="1"/>
<line x1="240.7" y1="187.1" x2="240.7" y2="224.7" stroke="#dc2626" stroke-width="1"/><rect x="237.9" y="188.1" width="5.4" height="36.6" fill="#dc2626" opacity="0.82" rx="1"/>
<line x1="249.5" y1="223.2" x2="249.5" y2="252.9" stroke="#dc2626" stroke-width="1"/><rect x="246.8" y="223.2" width="5.4" height="9.2" fill="#dc2626" opacity="0.82" rx="1"/>
<line x1="258.4" y1="219.8" x2="258.4" y2="259.0" stroke="#16a34a" stroke-width="1"/><rect x="255.7" y="228.6" width="5.4" height="3.9" fill="#16a34a" opacity="0.82" rx="1"/>
<line x1="267.3" y1="199.1" x2="267.3" y2="228.8" stroke="#16a34a" stroke-width="1"/><rect x="264.6" y="204.5" width="5.4" height="24.1" fill="#16a34a" opacity="0.82" rx="1"/>
<line x1="276.2" y1="192.1" x2="276.2" y2="213.9" stroke="#dc2626" stroke-width="1"/><rect x="273.4" y="204.5" width="5.4" height="1.6" fill="#dc2626" opacity="0.82" rx="1"/>
<line x1="285.0" y1="201.1" x2="285.0" y2="219.8" stroke="#dc2626" stroke-width="1"/><rect x="282.3" y="205.8" width="5.4" height="6.9" fill="#dc2626" opacity="0.82" rx="1"/>
<line x1="293.9" y1="190.6" x2="293.9" y2="215.3" stroke="#16a34a" stroke-width="1"/><rect x="291.2" y="191.9" width="5.4" height="20.0" fill="#16a34a" opacity="0.82" rx="1"/>
<line x1="302.8" y1="192.1" x2="302.8" y2="209.5" stroke="#dc2626" stroke-width="1"/><rect x="300.1" y="192.1" width="5.4" height="7.4" fill="#dc2626" opacity="0.82" rx="1"/>
<line x1="311.7" y1="196.4" x2="311.7" y2="211.8" stroke="#dc2626" stroke-width="1"/><rect x="308.9" y="199.3" width="5.4" height="11.6" fill="#dc2626" opacity="0.82" rx="1"/>
<line x1="320.5" y1="172.7" x2="320.5" y2="224.7" stroke="#16a34a" stroke-width="1"/><rect x="317.8" y="196.4" width="5.4" height="14.3" fill="#16a34a" opacity="0.82" rx="1"/>
<line x1="329.4" y1="193.6" x2="329.4" y2="217.7" stroke="#dc2626" stroke-width="1"/><rect x="326.7" y="196.7" width="5.4" height="15.9" fill="#dc2626" opacity="0.82" rx="1"/>
<line x1="338.3" y1="211.3" x2="338.3" y2="264.4" stroke="#dc2626" stroke-width="1"/><rect x="335.6" y="212.8" width="5.4" height="33.0" fill="#dc2626" opacity="0.82" rx="1"/>
<line x1="347.2" y1="237.7" x2="347.2" y2="266.1" stroke="#dc2626" stroke-width="1"/><rect x="344.4" y="245.6" width="5.4" height="1.2" fill="#dc2626" opacity="0.82" rx="1"/>
<line x1="356.0" y1="244.8" x2="356.0" y2="278.0" stroke="#dc2626" stroke-width="1"/><rect x="353.3" y="245.8" width="5.4" height="26.2" fill="#dc2626" opacity="0.82" rx="1"/>
<line x1="364.9" y1="252.8" x2="364.9" y2="297.7" stroke="#dc2626" stroke-width="1"/><rect x="362.2" y="272.3" width="5.4" height="9.7" fill="#dc2626" opacity="0.82" rx="1"/>
<line x1="373.8" y1="273.2" x2="373.8" y2="297.2" stroke="#dc2626" stroke-width="1"/><rect x="371.1" y="282.0" width="5.4" height="11.7" fill="#dc2626" opacity="0.82" rx="1"/>
<line x1="382.7" y1="244.1" x2="382.7" y2="295.4" stroke="#16a34a" stroke-width="1"/><rect x="380.0" y="260.3" width="5.4" height="33.4" fill="#16a34a" opacity="0.82" rx="1"/>
<line x1="391.6" y1="245.7" x2="391.6" y2="271.3" stroke="#16a34a" stroke-width="1"/><rect x="388.8" y="245.8" width="5.4" height="14.6" fill="#16a34a" opacity="0.82" rx="1"/>
<line x1="400.4" y1="181.6" x2="400.4" y2="253.0" stroke="#16a34a" stroke-width="1"/><rect x="397.7" y="196.8" width="5.4" height="49.1" fill="#16a34a" opacity="0.82" rx="1"/>
<line x1="409.3" y1="172.1" x2="409.3" y2="203.9" stroke="#16a34a" stroke-width="1"/><rect x="406.6" y="173.0" width="5.4" height="23.8" fill="#16a34a" opacity="0.82" rx="1"/>
<line x1="418.2" y1="164.3" x2="418.2" y2="180.8" stroke="#dc2626" stroke-width="1"/><rect x="415.5" y="173.0" width="5.4" height="2.0" fill="#dc2626" opacity="0.82" rx="1"/>
<line x1="427.1" y1="144.2" x2="427.1" y2="176.8" stroke="#16a34a" stroke-width="1"/><rect x="424.3" y="155.4" width="5.4" height="19.1" fill="#16a34a" opacity="0.82" rx="1"/>
<line x1="435.9" y1="148.1" x2="435.9" y2="187.4" stroke="#dc2626" stroke-width="1"/><rect x="433.2" y="155.0" width="5.4" height="27.5" fill="#dc2626" opacity="0.82" rx="1"/>
<line x1="444.8" y1="168.6" x2="444.8" y2="189.3" stroke="#16a34a" stroke-width="1"/><rect x="442.1" y="172.9" width="5.4" height="9.6" fill="#16a34a" opacity="0.82" rx="1"/>
<line x1="453.7" y1="160.7" x2="453.7" y2="179.8" stroke="#dc2626" stroke-width="1"/><rect x="451.0" y="172.9" width="5.4" height="1.2" fill="#dc2626" opacity="0.82" rx="1"/>
<line x1="462.6" y1="168.3" x2="462.6" y2="186.9" stroke="#dc2626" stroke-width="1"/><rect x="459.8" y="173.0" width="5.4" height="7.9" fill="#dc2626" opacity="0.82" rx="1"/>
<line x1="471.4" y1="155.3" x2="471.4" y2="193.7" stroke="#16a34a" stroke-width="1"/><rect x="468.7" y="161.8" width="5.4" height="19.1" fill="#16a34a" opacity="0.82" rx="1"/>
<line x1="480.3" y1="154.6" x2="480.3" y2="174.2" stroke="#dc2626" stroke-width="1"/><rect x="477.6" y="162.0" width="5.4" height="2.8" fill="#dc2626" opacity="0.82" rx="1"/>
<line x1="489.2" y1="137.5" x2="489.2" y2="167.2" stroke="#16a34a" stroke-width="1"/><rect x="486.5" y="138.7" width="5.4" height="26.1" fill="#16a34a" opacity="0.82" rx="1"/>
<line x1="498.1" y1="134.7" x2="498.1" y2="161.8" stroke="#dc2626" stroke-width="1"/><rect x="495.3" y="138.4" width="5.4" height="21.0" fill="#dc2626" opacity="0.82" rx="1"/>
<line x1="506.9" y1="153.7" x2="506.9" y2="171.9" stroke="#dc2626" stroke-width="1"/><rect x="504.2" y="159.4" width="5.4" height="10.3" fill="#dc2626" opacity="0.82" rx="1"/>
<line x1="515.8" y1="160.7" x2="515.8" y2="176.5" stroke="#16a34a" stroke-width="1"/><rect x="513.1" y="162.6" width="5.4" height="6.8" fill="#16a34a" opacity="0.82" rx="1"/>
<line x1="524.7" y1="156.0" x2="524.7" y2="188.7" stroke="#dc2626" stroke-width="1"/><rect x="522.0" y="162.6" width="5.4" height="24.8" fill="#dc2626" opacity="0.82" rx="1"/>
<line x1="533.6" y1="183.0" x2="533.6" y2="198.5" stroke="#16a34a" stroke-width="1"/><rect x="530.9" y="185.8" width="5.4" height="1.5" fill="#16a34a" opacity="0.82" rx="1"/>
<line x1="542.4" y1="161.0" x2="542.4" y2="198.8" stroke="#16a34a" stroke-width="1"/><rect x="539.7" y="176.2" width="5.4" height="9.6" fill="#16a34a" opacity="0.82" rx="1"/>
<line x1="551.3" y1="171.7" x2="551.3" y2="318.9" stroke="#dc2626" stroke-width="1"/><rect x="548.6" y="176.2" width="5.4" height="131.1" fill="#dc2626" opacity="0.82" rx="1"/>
<line x1="560.2" y1="225.9" x2="560.2" y2="308.0" stroke="#16a34a" stroke-width="1"/><rect x="557.5" y="247.2" width="5.4" height="60.7" fill="#16a34a" opacity="0.82" rx="1"/>
<line x1="569.1" y1="210.6" x2="569.1" y2="269.7" stroke="#16a34a" stroke-width="1"/><rect x="566.4" y="216.2" width="5.4" height="31.0" fill="#16a34a" opacity="0.82" rx="1"/>
<line x1="578.0" y1="191.8" x2="578.0" y2="238.8" stroke="#dc2626" stroke-width="1"/><rect x="575.2" y="216.2" width="5.4" height="15.9" fill="#dc2626" opacity="0.82" rx="1"/>
<line x1="586.8" y1="167.8" x2="586.8" y2="233.9" stroke="#16a34a" stroke-width="1"/><rect x="584.1" y="170.0" width="5.4" height="62.2" fill="#16a34a" opacity="0.82" rx="1"/>
<line x1="595.7" y1="163.3" x2="595.7" y2="189.3" stroke="#16a34a" stroke-width="1"/><rect x="593.0" y="163.8" width="5.4" height="5.9" fill="#16a34a" opacity="0.82" rx="1"/>
<line x1="604.6" y1="163.0" x2="604.6" y2="202.1" stroke="#dc2626" stroke-width="1"/><rect x="601.9" y="163.8" width="5.4" height="2.9" fill="#dc2626" opacity="0.82" rx="1"/>
<line x1="613.5" y1="147.0" x2="613.5" y2="183.5" stroke="#dc2626" stroke-width="1"/><rect x="610.7" y="166.7" width="5.4" height="12.4" fill="#dc2626" opacity="0.82" rx="1"/>
<line x1="622.3" y1="128.2" x2="622.3" y2="186.3" stroke="#16a34a" stroke-width="1"/><rect x="619.6" y="139.0" width="5.4" height="40.0" fill="#16a34a" opacity="0.82" rx="1"/>
<line x1="631.2" y1="131.6" x2="631.2" y2="168.5" stroke="#dc2626" stroke-width="1"/><rect x="628.5" y="138.7" width="5.4" height="21.0" fill="#dc2626" opacity="0.82" rx="1"/>
<line x1="640.1" y1="111.0" x2="640.1" y2="168.3" stroke="#16a34a" stroke-width="1"/><rect x="637.4" y="150.2" width="5.4" height="9.1" fill="#16a34a" opacity="0.82" rx="1"/>
<line x1="649.0" y1="139.0" x2="649.0" y2="168.6" stroke="#dc2626" stroke-width="1"/><rect x="646.2" y="150.2" width="5.4" height="17.5" fill="#dc2626" opacity="0.82" rx="1"/>
<line x1="657.8" y1="162.8" x2="657.8" y2="191.4" stroke="#dc2626" stroke-width="1"/><rect x="655.1" y="167.4" width="5.4" height="7.8" fill="#dc2626" opacity="0.82" rx="1"/>
<line x1="666.7" y1="174.5" x2="666.7" y2="231.0" stroke="#dc2626" stroke-width="1"/><rect x="664.0" y="175.2" width="5.4" height="48.6" fill="#dc2626" opacity="0.82" rx="1"/>
<line x1="675.6" y1="157.4" x2="675.6" y2="228.4" stroke="#16a34a" stroke-width="1"/><rect x="672.9" y="158.0" width="5.4" height="65.6" fill="#16a34a" opacity="0.82" rx="1"/>
<line x1="684.5" y1="155.3" x2="684.5" y2="195.1" stroke="#dc2626" stroke-width="1"/><rect x="681.8" y="158.0" width="5.4" height="31.7" fill="#dc2626" opacity="0.82" rx="1"/>
<line x1="693.3" y1="181.5" x2="693.3" y2="213.0" stroke="#dc2626" stroke-width="1"/><rect x="690.6" y="189.7" width="5.4" height="6.3" fill="#dc2626" opacity="0.82" rx="1"/>
<line x1="702.2" y1="158.0" x2="702.2" y2="206.8" stroke="#16a34a" stroke-width="1"/><rect x="699.5" y="161.7" width="5.4" height="34.3" fill="#16a34a" opacity="0.82" rx="1"/>
<line x1="711.1" y1="121.2" x2="711.1" y2="172.3" stroke="#16a34a" stroke-width="1"/><rect x="708.4" y="122.6" width="5.4" height="39.0" fill="#16a34a" opacity="0.82" rx="1"/>
<line x1="720.0" y1="110.5" x2="720.0" y2="154.3" stroke="#dc2626" stroke-width="1"/><rect x="717.3" y="123.2" width="5.4" height="28.9" fill="#dc2626" opacity="0.82" rx="1"/>
<line x1="728.9" y1="151.5" x2="728.9" y2="194.5" stroke="#dc2626" stroke-width="1"/><rect x="726.1" y="151.8" width="5.4" height="41.9" fill="#dc2626" opacity="0.82" rx="1"/>
<line x1="737.7" y1="193.6" x2="737.7" y2="216.8" stroke="#dc2626" stroke-width="1"/><rect x="735.0" y="193.6" width="5.4" height="19.7" fill="#dc2626" opacity="0.82" rx="1"/>
<line x1="746.6" y1="200.3" x2="746.6" y2="219.7" stroke="#16a34a" stroke-width="1"/><rect x="743.9" y="209.9" width="5.4" height="3.4" fill="#16a34a" opacity="0.82" rx="1"/>
<line x1="755.5" y1="193.3" x2="755.5" y2="238.5" stroke="#dc2626" stroke-width="1"/><rect x="752.8" y="209.9" width="5.4" height="17.0" fill="#dc2626" opacity="0.82" rx="1"/>
<line x1="764.4" y1="156.1" x2="764.4" y2="243.5" stroke="#16a34a" stroke-width="1"/><rect x="761.6" y="159.7" width="5.4" height="66.9" fill="#16a34a" opacity="0.82" rx="1"/>
<line x1="773.2" y1="132.0" x2="773.2" y2="168.0" stroke="#16a34a" stroke-width="1"/><rect x="770.5" y="155.0" width="5.4" height="4.8" fill="#16a34a" opacity="0.82" rx="1"/>
<line x1="782.1" y1="121.3" x2="782.1" y2="157.0" stroke="#16a34a" stroke-width="1"/><rect x="779.4" y="127.9" width="5.4" height="26.9" fill="#16a34a" opacity="0.82" rx="1"/>
<line x1="791.0" y1="113.4" x2="791.0" y2="147.3" stroke="#16a34a" stroke-width="1"/><rect x="788.3" y="124.9" width="5.4" height="2.8" fill="#16a34a" opacity="0.82" rx="1"/>
<line x1="799.9" y1="110.1" x2="799.9" y2="143.2" stroke="#dc2626" stroke-width="1"/><rect x="797.1" y="124.8" width="5.4" height="12.8" fill="#dc2626" opacity="0.82" rx="1"/>
<line x1="808.7" y1="117.8" x2="808.7" y2="155.1" stroke="#dc2626" stroke-width="1"/><rect x="806.0" y="137.5" width="5.4" height="15.8" fill="#dc2626" opacity="0.82" rx="1"/>
<line x1="817.6" y1="113.0" x2="817.6" y2="158.4" stroke="#16a34a" stroke-width="1"/><rect x="814.9" y="132.2" width="5.4" height="20.9" fill="#16a34a" opacity="0.82" rx="1"/>
<line x1="826.5" y1="119.8" x2="826.5" y2="164.7" stroke="#dc2626" stroke-width="1"/><rect x="823.8" y="132.2" width="5.4" height="30.0" fill="#dc2626" opacity="0.82" rx="1"/>
<line x1="835.4" y1="139.3" x2="835.4" y2="175.4" stroke="#16a34a" stroke-width="1"/><rect x="832.6" y="155.2" width="5.4" height="7.1" fill="#16a34a" opacity="0.82" rx="1"/>
<line x1="844.2" y1="147.6" x2="844.2" y2="166.1" stroke="#16a34a" stroke-width="1"/><rect x="841.5" y="147.6" width="5.4" height="7.6" fill="#16a34a" opacity="0.82" rx="1"/>
<line x1="853.1" y1="133.7" x2="853.1" y2="148.3" stroke="#16a34a" stroke-width="1"/><rect x="850.4" y="142.5" width="5.4" height="5.3" fill="#16a34a" opacity="0.82" rx="1"/>
<line x1="862.0" y1="141.4" x2="862.0" y2="149.6" stroke="#dc2626" stroke-width="1"/><rect x="859.3" y="142.3" width="5.4" height="1.3" fill="#dc2626" opacity="0.82" rx="1"/>
<line x1="72" y1="196.7" x2="862" y2="196.7" stroke="#16a34a" stroke-width="1.8" stroke-dasharray="6 4" /><rect x="874" y="176.7" width="166" height="23" rx="5" fill="#ffffff" stroke="#16a34a" opacity="0.97"/><text x="881" y="192.7" fill="#16a34a" font-size="15" font-weight="700">日内支撑 62.48</text>
<line x1="72" y1="55.1" x2="862" y2="55.1" stroke="#dc2626" stroke-width="1.8" stroke-dasharray="6 4" /><rect x="874" y="35.1" width="166" height="23" rx="5" fill="#ffffff" stroke="#dc2626" opacity="0.97"/><text x="881" y="51.1" fill="#dc2626" font-size="15" font-weight="700">日内压力 67.30</text>
<line x1="72" y1="143.6" x2="862" y2="143.6" stroke="#111827" stroke-width="1.8" stroke-dasharray="2 2" /><rect x="874" y="123.6" width="166" height="23" rx="5" fill="#ffffff" stroke="#111827" opacity="0.97"/><text x="881" y="139.6" fill="#111827" font-size="15" font-weight="700">现价 64.29</text>
<text x="72" y="396" fill="#16a34a" font-size="14" font-weight="700">日内做多计划</text><rect x="72" y="404" width="790" height="48" rx="6" fill="#f9fafb" stroke="#e5e7eb"/><line x1="94" y1="412" x2="840" y2="412" stroke="#16a34a" stroke-width="3"/><circle cx="132.0" cy="412" r="5" fill="#16a34a"/><text x="132.0" y="434" fill="#374151" font-size="12" text-anchor="middle">入场 止跌/突破回踩</text><circle cx="451.2" cy="412" r="5" fill="#16a34a"/><text x="451.2" y="434" fill="#374151" font-size="12" text-anchor="middle">止损 62.48</text><circle cx="712.0" cy="412" r="5" fill="#16a34a"/><text x="712.0" y="434" fill="#374151" font-size="12" text-anchor="middle">目标一 67.30</text><circle cx="814.0" cy="412" r="5" fill="#16a34a"/><text x="814.0" y="434" fill="#374151" font-size="12" text-anchor="middle">目标二 68.51</text>
<text x="72" y="482" fill="#dc2626" font-size="14" font-weight="700">日内做空计划</text><rect x="72" y="490" width="790" height="48" rx="6" fill="#f9fafb" stroke="#e5e7eb"/><line x1="94" y1="498" x2="840" y2="498" stroke="#dc2626" stroke-width="3"/><circle cx="132.0" cy="498" r="5" fill="#dc2626"/><text x="132.0" y="520" fill="#374151" font-size="12" text-anchor="middle">入场 反弹承压/破位回抽</text><circle cx="451.2" cy="498" r="5" fill="#dc2626"/><text x="451.2" y="520" fill="#374151" font-size="12" text-anchor="middle">止损 67.30</text><circle cx="712.0" cy="498" r="5" fill="#dc2626"/><text x="712.0" y="520" fill="#374151" font-size="12" text-anchor="middle">目标一 62.48</text><circle cx="814.0" cy="498" r="5" fill="#dc2626"/><text x="814.0" y="520" fill="#374151" font-size="12" text-anchor="middle">目标二 61.28</text>
</svg>