<svg xmlns="http://www.w3.org/2000/svg" width="1080" height="560" viewBox="0 0 1080 560">
<rect width="100%" height="100%" fill="#ffffff"/>
<text x="72" y="23" fill="#111827" font-size="21" font-weight="800">DRAM 小时线K线支撑压力图</text>
<text x="862" y="42" fill="#374151" font-size="15" text-anchor="end">最新价 72.77</text>
<line x1="72" y1="34" x2="72" y2="340" stroke="#d1d5db"/>
<line x1="72" y1="340" x2="862" y2="340" stroke="#d1d5db"/>
<line x1="72" y1="340.0" x2="862" y2="340.0" stroke="#f3f4f6"/>
<text x="8" y="345.0" fill="#4b5563" font-size="14">66.09</text>
<line x1="72" y1="263.5" x2="862" y2="263.5" stroke="#f3f4f6"/>
<text x="8" y="268.5" fill="#4b5563" font-size="14">70.23</text>
<line x1="72" y1="187.0" x2="862" y2="187.0" stroke="#f3f4f6"/>
<text x="8" y="192.0" fill="#4b5563" font-size="14">74.37</text>
<line x1="72" y1="110.5" x2="862" y2="110.5" stroke="#f3f4f6"/>
<text x="8" y="115.5" fill="#4b5563" font-size="14">78.51</text>
<line x1="72" y1="34.0" x2="862" y2="34.0" stroke="#f3f4f6"/>
<text x="8" y="39.0" fill="#4b5563" font-size="14">82.65</text>
<line x1="72.0" y1="208.6" x2="72.0" y2="258.1" stroke="#16a34a" stroke-width="1"/><rect x="69.3" y="244.8" width="5.4" height="3.7" fill="#16a34a" opacity="0.82" rx="1"/>
<line x1="80.9" y1="238.9" x2="80.9" y2="262.7" stroke="#dc2626" stroke-width="1"/><rect x="78.2" y="245.0" width="5.4" height="6.1" fill="#dc2626" opacity="0.82" rx="1"/>
<line x1="89.8" y1="236.9" x2="89.8" y2="257.6" stroke="#dc2626" stroke-width="1"/><rect x="87.0" y="251.3" width="5.4" height="2.6" fill="#dc2626" opacity="0.82" rx="1"/>
<line x1="98.6" y1="250.2" x2="98.6" y2="274.0" stroke="#dc2626" stroke-width="1"/><rect x="95.9" y="253.9" width="5.4" height="20.1" fill="#dc2626" opacity="0.82" rx="1"/>
<line x1="107.5" y1="266.6" x2="107.5" y2="286.2" stroke="#dc2626" stroke-width="1"/><rect x="104.8" y="274.0" width="5.4" height="2.4" fill="#dc2626" opacity="0.82" rx="1"/>
<line x1="116.4" y1="262.7" x2="116.4" y2="279.7" stroke="#16a34a" stroke-width="1"/><rect x="113.7" y="276.2" width="5.4" height="1.2" fill="#16a34a" opacity="0.82" rx="1"/>
<line x1="125.3" y1="254.2" x2="125.3" y2="285.5" stroke="#16a34a" stroke-width="1"/><rect x="122.5" y="262.9" width="5.4" height="13.1" fill="#16a34a" opacity="0.82" rx="1"/>
<line x1="134.1" y1="240.9" x2="134.1" y2="263.5" stroke="#16a34a" stroke-width="1"/><rect x="131.4" y="243.5" width="5.4" height="19.4" fill="#16a34a" opacity="0.82" rx="1"/>
<line x1="143.0" y1="233.7" x2="143.0" y2="257.8" stroke="#dc2626" stroke-width="1"/><rect x="140.3" y="243.5" width="5.4" height="10.5" fill="#dc2626" opacity="0.82" rx="1"/>
<line x1="151.9" y1="252.9" x2="151.9" y2="279.9" stroke="#dc2626" stroke-width="1"/><rect x="149.2" y="253.5" width="5.4" height="4.4" fill="#dc2626" opacity="0.82" rx="1"/>
<line x1="160.8" y1="200.1" x2="160.8" y2="258.3" stroke="#16a34a" stroke-width="1"/><rect x="158.0" y="217.3" width="5.4" height="40.5" fill="#16a34a" opacity="0.82" rx="1"/>
<line x1="169.6" y1="216.4" x2="169.6" y2="243.5" stroke="#dc2626" stroke-width="1"/><rect x="166.9" y="217.3" width="5.4" height="3.7" fill="#dc2626" opacity="0.82" rx="1"/>
<line x1="178.5" y1="218.8" x2="178.5" y2="274.7" stroke="#dc2626" stroke-width="1"/><rect x="175.8" y="221.0" width="5.4" height="52.8" fill="#dc2626" opacity="0.82" rx="1"/>
<line x1="187.4" y1="253.3" x2="187.4" y2="284.9" stroke="#16a34a" stroke-width="1"/><rect x="184.7" y="258.7" width="5.4" height="15.3" fill="#16a34a" opacity="0.82" rx="1"/>
<line x1="196.3" y1="252.8" x2="196.3" y2="283.2" stroke="#16a34a" stroke-width="1"/><rect x="193.5" y="253.9" width="5.4" height="4.2" fill="#16a34a" opacity="0.82" rx="1"/>
<line x1="205.1" y1="220.4" x2="205.1" y2="254.1" stroke="#16a34a" stroke-width="1"/><rect x="202.4" y="236.0" width="5.4" height="17.9" fill="#16a34a" opacity="0.82" rx="1"/>
<line x1="214.0" y1="227.3" x2="214.0" y2="238.7" stroke="#dc2626" stroke-width="1"/><rect x="211.3" y="236.1" width="5.4" height="1.2" fill="#dc2626" opacity="0.82" rx="1"/>
<line x1="222.9" y1="232.1" x2="222.9" y2="243.5" stroke="#16a34a" stroke-width="1"/><rect x="220.2" y="235.6" width="5.4" height="1.2" fill="#16a34a" opacity="0.82" rx="1"/>
<line x1="231.8" y1="213.6" x2="231.8" y2="236.3" stroke="#16a34a" stroke-width="1"/><rect x="229.1" y="224.5" width="5.4" height="10.9" fill="#16a34a" opacity="0.82" rx="1"/>
<line x1="240.7" y1="220.3" x2="240.7" y2="238.4" stroke="#dc2626" stroke-width="1"/><rect x="237.9" y="224.7" width="5.4" height="7.4" fill="#dc2626" opacity="0.82" rx="1"/>
<line x1="249.5" y1="224.7" x2="249.5" y2="234.7" stroke="#dc2626" stroke-width="1"/><rect x="246.8" y="231.9" width="5.4" height="1.2" fill="#dc2626" opacity="0.82" rx="1"/>
<line x1="258.4" y1="217.7" x2="258.4" y2="240.0" stroke="#16a34a" stroke-width="1"/><rect x="255.7" y="218.8" width="5.4" height="13.5" fill="#16a34a" opacity="0.82" rx="1"/>
<line x1="267.3" y1="216.2" x2="267.3" y2="233.7" stroke="#dc2626" stroke-width="1"/><rect x="264.6" y="219.0" width="5.4" height="12.9" fill="#dc2626" opacity="0.82" rx="1"/>
<line x1="276.2" y1="227.8" x2="276.2" y2="283.1" stroke="#dc2626" stroke-width="1"/><rect x="273.4" y="232.1" width="5.4" height="30.5" fill="#dc2626" opacity="0.82" rx="1"/>
<line x1="285.0" y1="248.5" x2="285.0" y2="280.7" stroke="#16a34a" stroke-width="1"/><rect x="282.3" y="255.0" width="5.4" height="7.6" fill="#16a34a" opacity="0.82" rx="1"/>
<line x1="293.9" y1="252.6" x2="293.9" y2="276.4" stroke="#dc2626" stroke-width="1"/><rect x="291.2" y="254.8" width="5.4" height="14.8" fill="#dc2626" opacity="0.82" rx="1"/>
<line x1="302.8" y1="265.0" x2="302.8" y2="285.1" stroke="#dc2626" stroke-width="1"/><rect x="300.1" y="269.9" width="5.4" height="13.1" fill="#dc2626" opacity="0.82" rx="1"/>
<line x1="311.7" y1="277.5" x2="311.7" y2="309.5" stroke="#dc2626" stroke-width="1"/><rect x="308.9" y="283.1" width="5.4" height="25.3" fill="#dc2626" opacity="0.82" rx="1"/>
<line x1="320.5" y1="284.7" x2="320.5" y2="309.7" stroke="#16a34a" stroke-width="1"/><rect x="317.8" y="304.5" width="5.4" height="3.9" fill="#16a34a" opacity="0.82" rx="1"/>
<line x1="329.4" y1="266.1" x2="329.4" y2="318.9" stroke="#16a34a" stroke-width="1"/><rect x="326.7" y="266.6" width="5.4" height="37.7" fill="#16a34a" opacity="0.82" rx="1"/>
<line x1="338.3" y1="85.4" x2="338.3" y2="277.9" stroke="#16a34a" stroke-width="1"/><rect x="335.6" y="107.8" width="5.4" height="158.9" fill="#16a34a" opacity="0.82" rx="1"/>
<line x1="347.2" y1="89.1" x2="347.2" y2="128.1" stroke="#16a34a" stroke-width="1"/><rect x="344.4" y="90.9" width="5.4" height="16.8" fill="#16a34a" opacity="0.82" rx="1"/>
<line x1="356.0" y1="55.1" x2="356.0" y2="101.1" stroke="#16a34a" stroke-width="1"/><rect x="353.3" y="70.4" width="5.4" height="20.3" fill="#16a34a" opacity="0.82" rx="1"/>
<line x1="364.9" y1="64.0" x2="364.9" y2="98.9" stroke="#dc2626" stroke-width="1"/><rect x="362.2" y="69.9" width="5.4" height="8.5" fill="#dc2626" opacity="0.82" rx="1"/>
<line x1="373.8" y1="76.0" x2="373.8" y2="160.8" stroke="#dc2626" stroke-width="1"/><rect x="371.1" y="78.0" width="5.4" height="59.5" fill="#dc2626" opacity="0.82" rx="1"/>
<line x1="382.7" y1="122.5" x2="382.7" y2="146.5" stroke="#16a34a" stroke-width="1"/><rect x="380.0" y="130.1" width="5.4" height="7.2" fill="#16a34a" opacity="0.82" rx="1"/>
<line x1="391.6" y1="121.2" x2="391.6" y2="140.3" stroke="#16a34a" stroke-width="1"/><rect x="388.8" y="124.7" width="5.4" height="5.4" fill="#16a34a" opacity="0.82" rx="1"/>
<line x1="400.4" y1="115.1" x2="400.4" y2="128.6" stroke="#16a34a" stroke-width="1"/><rect x="397.7" y="115.7" width="5.4" height="9.1" fill="#16a34a" opacity="0.82" rx="1"/>
<line x1="409.3" y1="94.6" x2="409.3" y2="119.8" stroke="#16a34a" stroke-width="1"/><rect x="406.6" y="100.0" width="5.4" height="15.7" fill="#16a34a" opacity="0.82" rx="1"/>
<line x1="418.2" y1="84.8" x2="418.2" y2="107.2" stroke="#dc2626" stroke-width="1"/><rect x="415.5" y="100.0" width="5.4" height="1.3" fill="#dc2626" opacity="0.82" rx="1"/>
<line x1="427.1" y1="95.2" x2="427.1" y2="113.3" stroke="#dc2626" stroke-width="1"/><rect x="424.3" y="102.0" width="5.4" height="8.1" fill="#dc2626" opacity="0.82" rx="1"/>
<line x1="435.9" y1="99.4" x2="435.9" y2="110.7" stroke="#16a34a" stroke-width="1"/><rect x="433.2" y="105.2" width="5.4" height="4.6" fill="#16a34a" opacity="0.82" rx="1"/>
<line x1="444.8" y1="96.9" x2="444.8" y2="117.7" stroke="#dc2626" stroke-width="1"/><rect x="442.1" y="105.0" width="5.4" height="10.0" fill="#dc2626" opacity="0.82" rx="1"/>
<line x1="453.7" y1="105.9" x2="453.7" y2="118.5" stroke="#16a34a" stroke-width="1"/><rect x="451.0" y="113.5" width="5.4" height="1.5" fill="#16a34a" opacity="0.82" rx="1"/>
<line x1="462.6" y1="98.0" x2="462.6" y2="114.2" stroke="#16a34a" stroke-width="1"/><rect x="459.8" y="102.4" width="5.4" height="11.1" fill="#16a34a" opacity="0.82" rx="1"/>
<line x1="471.4" y1="93.2" x2="471.4" y2="109.8" stroke="#dc2626" stroke-width="1"/><rect x="468.7" y="102.2" width="5.4" height="5.5" fill="#dc2626" opacity="0.82" rx="1"/>
<line x1="480.3" y1="85.0" x2="480.3" y2="112.2" stroke="#16a34a" stroke-width="1"/><rect x="477.6" y="89.8" width="5.4" height="17.9" fill="#16a34a" opacity="0.82" rx="1"/>
<line x1="489.2" y1="87.6" x2="489.2" y2="202.7" stroke="#dc2626" stroke-width="1"/><rect x="486.5" y="89.8" width="5.4" height="111.6" fill="#dc2626" opacity="0.82" rx="1"/>
<line x1="498.1" y1="147.8" x2="498.1" y2="201.0" stroke="#16a34a" stroke-width="1"/><rect x="495.3" y="154.3" width="5.4" height="46.7" fill="#16a34a" opacity="0.82" rx="1"/>
<line x1="506.9" y1="141.2" x2="506.9" y2="175.4" stroke="#16a34a" stroke-width="1"/><rect x="504.2" y="152.3" width="5.4" height="2.0" fill="#16a34a" opacity="0.82" rx="1"/>
<line x1="515.8" y1="126.8" x2="515.8" y2="153.7" stroke="#16a34a" stroke-width="1"/><rect x="513.1" y="137.9" width="5.4" height="14.4" fill="#16a34a" opacity="0.82" rx="1"/>
<line x1="524.7" y1="123.8" x2="524.7" y2="142.1" stroke="#16a34a" stroke-width="1"/><rect x="522.0" y="124.7" width="5.4" height="13.1" fill="#16a34a" opacity="0.82" rx="1"/>
<line x1="533.6" y1="124.0" x2="533.6" y2="144.7" stroke="#dc2626" stroke-width="1"/><rect x="530.9" y="124.9" width="5.4" height="8.5" fill="#dc2626" opacity="0.82" rx="1"/>
<line x1="542.4" y1="132.9" x2="542.4" y2="155.8" stroke="#dc2626" stroke-width="1"/><rect x="539.7" y="133.1" width="5.4" height="1.2" fill="#dc2626" opacity="0.82" rx="1"/>
<line x1="551.3" y1="124.7" x2="551.3" y2="144.9" stroke="#dc2626" stroke-width="1"/><rect x="548.6" y="134.5" width="5.4" height="2.8" fill="#dc2626" opacity="0.82" rx="1"/>
<line x1="560.2" y1="134.2" x2="560.2" y2="147.3" stroke="#dc2626" stroke-width="1"/><rect x="557.5" y="137.3" width="5.4" height="8.3" fill="#dc2626" opacity="0.82" rx="1"/>
<line x1="569.1" y1="144.5" x2="569.1" y2="165.6" stroke="#dc2626" stroke-width="1"/><rect x="566.4" y="145.3" width="5.4" height="6.7" fill="#dc2626" opacity="0.82" rx="1"/>
<line x1="578.0" y1="133.6" x2="578.0" y2="155.4" stroke="#16a34a" stroke-width="1"/><rect x="575.2" y="147.3" width="5.4" height="4.6" fill="#16a34a" opacity="0.82" rx="1"/>
<line x1="586.8" y1="141.0" x2="586.8" y2="190.5" stroke="#dc2626" stroke-width="1"/><rect x="584.1" y="147.1" width="5.4" height="29.2" fill="#dc2626" opacity="0.82" rx="1"/>
<line x1="595.7" y1="165.6" x2="595.7" y2="194.9" stroke="#dc2626" stroke-width="1"/><rect x="593.0" y="176.3" width="5.4" height="15.3" fill="#dc2626" opacity="0.82" rx="1"/>
<line x1="604.6" y1="189.2" x2="604.6" y2="238.4" stroke="#dc2626" stroke-width="1"/><rect x="601.9" y="191.4" width="5.4" height="35.1" fill="#dc2626" opacity="0.82" rx="1"/>
<line x1="613.5" y1="214.3" x2="613.5" y2="249.3" stroke="#16a34a" stroke-width="1"/><rect x="610.7" y="215.4" width="5.4" height="11.3" fill="#16a34a" opacity="0.82" rx="1"/>
<line x1="622.3" y1="209.0" x2="622.3" y2="243.2" stroke="#dc2626" stroke-width="1"/><rect x="619.6" y="214.9" width="5.4" height="20.1" fill="#dc2626" opacity="0.82" rx="1"/>
<line x1="631.2" y1="194.2" x2="631.2" y2="236.1" stroke="#16a34a" stroke-width="1"/><rect x="628.5" y="223.4" width="5.4" height="11.6" fill="#16a34a" opacity="0.82" rx="1"/>
<line x1="640.1" y1="187.7" x2="640.1" y2="231.9" stroke="#16a34a" stroke-width="1"/><rect x="637.4" y="193.5" width="5.4" height="29.9" fill="#16a34a" opacity="0.82" rx="1"/>
<line x1="649.0" y1="182.4" x2="649.0" y2="197.7" stroke="#16a34a" stroke-width="1"/><rect x="646.2" y="188.8" width="5.4" height="4.4" fill="#16a34a" opacity="0.82" rx="1"/>
<line x1="657.8" y1="187.6" x2="657.8" y2="215.6" stroke="#dc2626" stroke-width="1"/><rect x="655.1" y="188.3" width="5.4" height="17.5" fill="#dc2626" opacity="0.82" rx="1"/>
<line x1="666.7" y1="203.3" x2="666.7" y2="216.6" stroke="#dc2626" stroke-width="1"/><rect x="664.0" y="205.8" width="5.4" height="7.2" fill="#dc2626" opacity="0.82" rx="1"/>
<line x1="675.6" y1="209.4" x2="675.6" y2="221.0" stroke="#dc2626" stroke-width="1"/><rect x="672.9" y="213.2" width="5.4" height="1.2" fill="#dc2626" opacity="0.82" rx="1"/>
<line x1="684.5" y1="199.9" x2="684.5" y2="218.2" stroke="#16a34a" stroke-width="1"/><rect x="681.8" y="211.8" width="5.4" height="1.7" fill="#16a34a" opacity="0.82" rx="1"/>
<line x1="693.3" y1="205.8" x2="693.3" y2="228.7" stroke="#dc2626" stroke-width="1"/><rect x="690.6" y="211.6" width="5.4" height="14.8" fill="#dc2626" opacity="0.82" rx="1"/>
<line x1="702.2" y1="201.8" x2="702.2" y2="246.5" stroke="#16a34a" stroke-width="1"/><rect x="699.5" y="204.4" width="5.4" height="21.8" fill="#16a34a" opacity="0.82" rx="1"/>
<line x1="711.1" y1="178.1" x2="711.1" y2="212.3" stroke="#dc2626" stroke-width="1"/><rect x="708.4" y="204.2" width="5.4" height="2.4" fill="#dc2626" opacity="0.82" rx="1"/>
<line x1="720.0" y1="188.5" x2="720.0" y2="219.0" stroke="#16a34a" stroke-width="1"/><rect x="717.3" y="201.4" width="5.4" height="4.8" fill="#16a34a" opacity="0.82" rx="1"/>
<line x1="728.9" y1="185.3" x2="728.9" y2="204.7" stroke="#16a34a" stroke-width="1"/><rect x="726.1" y="190.3" width="5.4" height="11.1" fill="#16a34a" opacity="0.82" rx="1"/>
<line x1="737.7" y1="182.4" x2="737.7" y2="199.7" stroke="#dc2626" stroke-width="1"/><rect x="735.0" y="190.1" width="5.4" height="7.0" fill="#dc2626" opacity="0.82" rx="1"/>
<line x1="746.6" y1="196.1" x2="746.6" y2="219.9" stroke="#dc2626" stroke-width="1"/><rect x="743.9" y="197.2" width="5.4" height="20.1" fill="#dc2626" opacity="0.82" rx="1"/>
<line x1="755.5" y1="207.0" x2="755.5" y2="232.3" stroke="#dc2626" stroke-width="1"/><rect x="752.8" y="217.3" width="5.4" height="14.0" fill="#dc2626" opacity="0.82" rx="1"/>
<line x1="764.4" y1="222.3" x2="764.4" y2="235.8" stroke="#16a34a" stroke-width="1"/><rect x="761.6" y="228.0" width="5.4" height="3.5" fill="#16a34a" opacity="0.82" rx="1"/>
<line x1="773.2" y1="223.8" x2="773.2" y2="237.4" stroke="#16a34a" stroke-width="1"/><rect x="770.5" y="227.5" width="5.4" height="1.2" fill="#16a34a" opacity="0.82" rx="1"/>
<line x1="782.1" y1="224.9" x2="782.1" y2="234.3" stroke="#dc2626" stroke-width="1"/><rect x="779.4" y="227.5" width="5.4" height="1.2" fill="#dc2626" opacity="0.82" rx="1"/>
<line x1="791.0" y1="214.9" x2="791.0" y2="228.4" stroke="#16a34a" stroke-width="1"/><rect x="788.3" y="224.9" width="5.4" height="3.1" fill="#16a34a" opacity="0.82" rx="1"/>
<line x1="799.9" y1="220.3" x2="799.9" y2="230.2" stroke="#dc2626" stroke-width="1"/><rect x="797.1" y="224.7" width="5.4" height="1.2" fill="#dc2626" opacity="0.82" rx="1"/>
<line x1="808.7" y1="217.1" x2="808.7" y2="228.2" stroke="#16a34a" stroke-width="1"/><rect x="806.0" y="222.7" width="5.4" height="2.8" fill="#16a34a" opacity="0.82" rx="1"/>
<line x1="817.6" y1="208.6" x2="817.6" y2="228.6" stroke="#dc2626" stroke-width="1"/><rect x="814.9" y="222.7" width="5.4" height="5.2" fill="#dc2626" opacity="0.82" rx="1"/>
<line x1="826.5" y1="212.9" x2="826.5" y2="228.7" stroke="#16a34a" stroke-width="1"/><rect x="823.8" y="221.4" width="5.4" height="6.5" fill="#16a34a" opacity="0.82" rx="1"/>
<line x1="835.4" y1="214.2" x2="835.4" y2="221.9" stroke="#16a34a" stroke-width="1"/><rect x="832.6" y="220.6" width="5.4" height="1.2" fill="#16a34a" opacity="0.82" rx="1"/>
<line x1="844.2" y1="215.4" x2="844.2" y2="221.9" stroke="#16a34a" stroke-width="1"/><rect x="841.5" y="220.1" width="5.4" height="1.2" fill="#16a34a" opacity="0.82" rx="1"/>
<line x1="853.1" y1="214.3" x2="853.1" y2="223.2" stroke="#16a34a" stroke-width="1"/><rect x="850.4" y="217.3" width="5.4" height="2.8" fill="#16a34a" opacity="0.82" rx="1"/>
<line x1="862.0" y1="216.0" x2="862.0" y2="218.0" stroke="#16a34a" stroke-width="1"/><rect x="859.3" y="216.6" width="5.4" height="1.2" fill="#16a34a" opacity="0.82" rx="1"/>
<line x1="72" y1="236.0" x2="862" y2="236.0" stroke="#16a34a" stroke-width="1.8" stroke-dasharray="6 4" /><rect x="874" y="216.0" width="166" height="23" rx="5" fill="#ffffff" stroke="#16a34a" opacity="0.97"/><text x="881" y="232.0" fill="#16a34a" font-size="15" font-weight="700">日内支撑 71.72</text>
<line x1="72" y1="184.2" x2="862" y2="184.2" stroke="#dc2626" stroke-width="1.8" stroke-dasharray="6 4" /><rect x="874" y="164.2" width="166" height="23" rx="5" fill="#ffffff" stroke="#dc2626" opacity="0.97"/><text x="881" y="180.2" fill="#dc2626" font-size="15" font-weight="700">日内压力 74.52</text>
<line x1="72" y1="216.6" x2="862" y2="216.6" stroke="#111827" stroke-width="1.8" stroke-dasharray="2 2" /><rect x="874" y="196.6" width="166" height="23" rx="5" fill="#ffffff" stroke="#111827" opacity="0.97"/><text x="881" y="212.6" fill="#111827" font-size="15" font-weight="700">现价 72.77</text>
<text x="72" y="396" fill="#16a34a" font-size="14" font-weight="700">日内做多计划</text><rect x="72" y="404" width="790" height="48" rx="6" fill="#f9fafb" stroke="#e5e7eb"/><line x1="94" y1="412" x2="840" y2="412" stroke="#16a34a" stroke-width="3"/><circle cx="132.0" cy="412" r="5" fill="#16a34a"/><text x="132.0" y="434" fill="#374151" font-size="12" text-anchor="middle">入场 止跌/突破回踩</text><circle cx="451.2" cy="412" r="5" fill="#16a34a"/><text x="451.2" y="434" fill="#374151" font-size="12" text-anchor="middle">止损 71.72</text><circle cx="712.0" cy="412" r="5" fill="#16a34a"/><text x="712.0" y="434" fill="#374151" font-size="12" text-anchor="middle">目标一 74.52</text><circle cx="814.0" cy="412" r="5" fill="#16a34a"/><text x="814.0" y="434" fill="#374151" font-size="12" text-anchor="middle">目标二 75.22</text>
<text x="72" y="482" fill="#dc2626" font-size="14" font-weight="700">日内做空计划</text><rect x="72" y="490" width="790" height="48" rx="6" fill="#f9fafb" stroke="#e5e7eb"/><line x1="94" y1="498" x2="840" y2="498" stroke="#dc2626" stroke-width="3"/><circle cx="132.0" cy="498" r="5" fill="#dc2626"/><text x="132.0" y="520" fill="#374151" font-size="12" text-anchor="middle">入场 反弹承压/破位回抽</text><circle cx="451.2" cy="498" r="5" fill="#dc2626"/><text x="451.2" y="520" fill="#374151" font-size="12" text-anchor="middle">止损 74.52</text><circle cx="712.0" cy="498" r="5" fill="#dc2626"/><text x="712.0" y="520" fill="#374151" font-size="12" text-anchor="middle">目标一 71.72</text><circle cx="814.0" cy="498" r="5" fill="#dc2626"/><text x="814.0" y="520" fill="#374151" font-size="12" text-anchor="middle">目标二 71.02</text>
</svg>