<svg xmlns="http://www.w3.org/2000/svg" width="1080" height="560" viewBox="0 0 1080 560">
<rect width="100%" height="100%" fill="#ffffff"/>
<text x="72" y="23" fill="#111827" font-size="21" font-weight="800">BTC 小时线K线支撑压力图</text>
<text x="862" y="42" fill="#374151" font-size="15" text-anchor="end">最新价 60,316</text>
<line x1="72" y1="34" x2="72" y2="340" stroke="#d1d5db"/>
<line x1="72" y1="340" x2="862" y2="340" stroke="#d1d5db"/>
<line x1="72" y1="340.0" x2="862" y2="340.0" stroke="#f3f4f6"/>
<text x="8" y="345.0" fill="#4b5563" font-size="14">57,616</text>
<line x1="72" y1="263.5" x2="862" y2="263.5" stroke="#f3f4f6"/>
<text x="8" y="268.5" fill="#4b5563" font-size="14">59,118</text>
<line x1="72" y1="187.0" x2="862" y2="187.0" stroke="#f3f4f6"/>
<text x="8" y="192.0" fill="#4b5563" font-size="14">60,620</text>
<line x1="72" y1="110.5" x2="862" y2="110.5" stroke="#f3f4f6"/>
<text x="8" y="115.5" fill="#4b5563" font-size="14">62,122</text>
<line x1="72" y1="34.0" x2="862" y2="34.0" stroke="#f3f4f6"/>
<text x="8" y="39.0" fill="#4b5563" font-size="14">63,624</text>
<line x1="72.0" y1="74.1" x2="72.0" y2="98.4" stroke="#16a34a" stroke-width="1"/><rect x="69.3" y="93.1" width="5.4" height="1.2" fill="#16a34a" opacity="0.82" rx="1"/>
<line x1="80.9" y1="92.2" x2="80.9" y2="108.5" stroke="#dc2626" stroke-width="1"/><rect x="78.2" y="93.1" width="5.4" height="1.2" fill="#dc2626" opacity="0.82" rx="1"/>
<line x1="89.8" y1="75.3" x2="89.8" y2="96.7" stroke="#16a34a" stroke-width="1"/><rect x="87.0" y="90.1" width="5.4" height="3.4" fill="#16a34a" opacity="0.82" rx="1"/>
<line x1="98.6" y1="82.7" x2="98.6" y2="101.3" stroke="#dc2626" stroke-width="1"/><rect x="95.9" y="90.1" width="5.4" height="9.8" fill="#dc2626" opacity="0.82" rx="1"/>
<line x1="107.5" y1="95.3" x2="107.5" y2="112.9" stroke="#dc2626" stroke-width="1"/><rect x="104.8" y="99.9" width="5.4" height="5.8" fill="#dc2626" opacity="0.82" rx="1"/>
<line x1="116.4" y1="92.9" x2="116.4" y2="106.5" stroke="#16a34a" stroke-width="1"/><rect x="113.7" y="98.1" width="5.4" height="7.7" fill="#16a34a" opacity="0.82" rx="1"/>
<line x1="125.3" y1="90.3" x2="125.3" y2="99.2" stroke="#16a34a" stroke-width="1"/><rect x="122.5" y="94.3" width="5.4" height="3.8" fill="#16a34a" opacity="0.82" rx="1"/>
<line x1="134.1" y1="84.6" x2="134.1" y2="94.6" stroke="#16a34a" stroke-width="1"/><rect x="131.4" y="88.0" width="5.4" height="6.3" fill="#16a34a" opacity="0.82" rx="1"/>
<line x1="143.0" y1="78.5" x2="143.0" y2="91.8" stroke="#dc2626" stroke-width="1"/><rect x="140.3" y="88.0" width="5.4" height="1.2" fill="#dc2626" opacity="0.82" rx="1"/>
<line x1="151.9" y1="77.5" x2="151.9" y2="93.1" stroke="#16a34a" stroke-width="1"/><rect x="149.2" y="81.2" width="5.4" height="7.0" fill="#16a34a" opacity="0.82" rx="1"/>
<line x1="160.8" y1="65.8" x2="160.8" y2="81.2" stroke="#16a34a" stroke-width="1"/><rect x="158.0" y="66.7" width="5.4" height="14.5" fill="#16a34a" opacity="0.82" rx="1"/>
<line x1="169.6" y1="61.1" x2="169.6" y2="79.2" stroke="#dc2626" stroke-width="1"/><rect x="166.9" y="66.7" width="5.4" height="3.9" fill="#dc2626" opacity="0.82" rx="1"/>
<line x1="178.5" y1="66.1" x2="178.5" y2="87.6" stroke="#dc2626" stroke-width="1"/><rect x="175.8" y="70.6" width="5.4" height="15.6" fill="#dc2626" opacity="0.82" rx="1"/>
<line x1="187.4" y1="75.8" x2="187.4" y2="96.2" stroke="#16a34a" stroke-width="1"/><rect x="184.7" y="80.8" width="5.4" height="5.4" fill="#16a34a" opacity="0.82" rx="1"/>
<line x1="196.3" y1="77.0" x2="196.3" y2="91.2" stroke="#16a34a" stroke-width="1"/><rect x="193.5" y="80.0" width="5.4" height="1.2" fill="#16a34a" opacity="0.82" rx="1"/>
<line x1="205.1" y1="63.1" x2="205.1" y2="82.2" stroke="#16a34a" stroke-width="1"/><rect x="202.4" y="72.9" width="5.4" height="7.1" fill="#16a34a" opacity="0.82" rx="1"/>
<line x1="214.0" y1="71.5" x2="214.0" y2="81.1" stroke="#dc2626" stroke-width="1"/><rect x="211.3" y="72.9" width="5.4" height="5.4" fill="#dc2626" opacity="0.82" rx="1"/>
<line x1="222.9" y1="74.8" x2="222.9" y2="87.6" stroke="#dc2626" stroke-width="1"/><rect x="220.2" y="78.3" width="5.4" height="6.3" fill="#dc2626" opacity="0.82" rx="1"/>
<line x1="231.8" y1="76.7" x2="231.8" y2="87.5" stroke="#16a34a" stroke-width="1"/><rect x="229.1" y="77.3" width="5.4" height="7.3" fill="#16a34a" opacity="0.82" rx="1"/>
<line x1="240.7" y1="77.3" x2="240.7" y2="85.7" stroke="#dc2626" stroke-width="1"/><rect x="237.9" y="77.3" width="5.4" height="6.3" fill="#dc2626" opacity="0.82" rx="1"/>
<line x1="249.5" y1="83.2" x2="249.5" y2="98.1" stroke="#dc2626" stroke-width="1"/><rect x="246.8" y="83.6" width="5.4" height="11.9" fill="#dc2626" opacity="0.82" rx="1"/>
<line x1="258.4" y1="55.1" x2="258.4" y2="102.8" stroke="#16a34a" stroke-width="1"/><rect x="255.7" y="71.5" width="5.4" height="24.0" fill="#16a34a" opacity="0.82" rx="1"/>
<line x1="267.3" y1="68.9" x2="267.3" y2="89.0" stroke="#dc2626" stroke-width="1"/><rect x="264.6" y="71.5" width="5.4" height="15.2" fill="#dc2626" opacity="0.82" rx="1"/>
<line x1="276.2" y1="85.9" x2="276.2" y2="156.4" stroke="#dc2626" stroke-width="1"/><rect x="273.4" y="86.7" width="5.4" height="65.3" fill="#dc2626" opacity="0.82" rx="1"/>
<line x1="285.0" y1="145.5" x2="285.0" y2="174.5" stroke="#dc2626" stroke-width="1"/><rect x="282.3" y="151.9" width="5.4" height="11.4" fill="#dc2626" opacity="0.82" rx="1"/>
<line x1="293.9" y1="161.1" x2="293.9" y2="206.4" stroke="#dc2626" stroke-width="1"/><rect x="291.2" y="163.3" width="5.4" height="42.3" fill="#dc2626" opacity="0.82" rx="1"/>
<line x1="302.8" y1="185.5" x2="302.8" y2="256.3" stroke="#dc2626" stroke-width="1"/><rect x="300.1" y="205.6" width="5.4" height="22.8" fill="#dc2626" opacity="0.82" rx="1"/>
<line x1="311.7" y1="217.3" x2="311.7" y2="266.4" stroke="#dc2626" stroke-width="1"/><rect x="308.9" y="228.3" width="5.4" height="22.6" fill="#dc2626" opacity="0.82" rx="1"/>
<line x1="320.5" y1="223.9" x2="320.5" y2="255.8" stroke="#16a34a" stroke-width="1"/><rect x="317.8" y="240.5" width="5.4" height="10.5" fill="#16a34a" opacity="0.82" rx="1"/>
<line x1="329.4" y1="219.9" x2="329.4" y2="244.8" stroke="#16a34a" stroke-width="1"/><rect x="326.7" y="222.4" width="5.4" height="18.0" fill="#16a34a" opacity="0.82" rx="1"/>
<line x1="338.3" y1="158.1" x2="338.3" y2="228.0" stroke="#16a34a" stroke-width="1"/><rect x="335.6" y="171.4" width="5.4" height="51.1" fill="#16a34a" opacity="0.82" rx="1"/>
<line x1="347.2" y1="161.8" x2="347.2" y2="186.3" stroke="#16a34a" stroke-width="1"/><rect x="344.4" y="163.9" width="5.4" height="7.5" fill="#16a34a" opacity="0.82" rx="1"/>
<line x1="356.0" y1="154.6" x2="356.0" y2="180.2" stroke="#dc2626" stroke-width="1"/><rect x="353.3" y="163.9" width="5.4" height="11.4" fill="#dc2626" opacity="0.82" rx="1"/>
<line x1="364.9" y1="163.2" x2="364.9" y2="177.8" stroke="#16a34a" stroke-width="1"/><rect x="362.2" y="165.0" width="5.4" height="10.2" fill="#16a34a" opacity="0.82" rx="1"/>
<line x1="373.8" y1="160.6" x2="373.8" y2="184.6" stroke="#dc2626" stroke-width="1"/><rect x="371.1" y="165.0" width="5.4" height="13.5" fill="#dc2626" opacity="0.82" rx="1"/>
<line x1="382.7" y1="169.6" x2="382.7" y2="183.6" stroke="#16a34a" stroke-width="1"/><rect x="380.0" y="173.1" width="5.4" height="5.4" fill="#16a34a" opacity="0.82" rx="1"/>
<line x1="391.6" y1="170.7" x2="391.6" y2="185.0" stroke="#dc2626" stroke-width="1"/><rect x="388.8" y="173.1" width="5.4" height="6.6" fill="#dc2626" opacity="0.82" rx="1"/>
<line x1="400.4" y1="173.9" x2="400.4" y2="185.6" stroke="#16a34a" stroke-width="1"/><rect x="397.7" y="175.1" width="5.4" height="4.6" fill="#16a34a" opacity="0.82" rx="1"/>
<line x1="409.3" y1="147.8" x2="409.3" y2="180.0" stroke="#16a34a" stroke-width="1"/><rect x="406.6" y="151.2" width="5.4" height="23.9" fill="#16a34a" opacity="0.82" rx="1"/>
<line x1="418.2" y1="126.9" x2="418.2" y2="155.3" stroke="#16a34a" stroke-width="1"/><rect x="415.5" y="138.8" width="5.4" height="12.4" fill="#16a34a" opacity="0.82" rx="1"/>
<line x1="427.1" y1="125.4" x2="427.1" y2="138.8" stroke="#16a34a" stroke-width="1"/><rect x="424.3" y="132.3" width="5.4" height="6.4" fill="#16a34a" opacity="0.82" rx="1"/>
<line x1="435.9" y1="120.2" x2="435.9" y2="135.4" stroke="#16a34a" stroke-width="1"/><rect x="433.2" y="122.5" width="5.4" height="9.8" fill="#16a34a" opacity="0.82" rx="1"/>
<line x1="444.8" y1="121.9" x2="444.8" y2="134.4" stroke="#dc2626" stroke-width="1"/><rect x="442.1" y="122.5" width="5.4" height="10.2" fill="#dc2626" opacity="0.82" rx="1"/>
<line x1="453.7" y1="128.7" x2="453.7" y2="138.2" stroke="#16a34a" stroke-width="1"/><rect x="451.0" y="131.6" width="5.4" height="1.2" fill="#16a34a" opacity="0.82" rx="1"/>
<line x1="462.6" y1="130.6" x2="462.6" y2="156.0" stroke="#dc2626" stroke-width="1"/><rect x="459.8" y="131.6" width="5.4" height="23.6" fill="#dc2626" opacity="0.82" rx="1"/>
<line x1="471.4" y1="147.5" x2="471.4" y2="165.9" stroke="#16a34a" stroke-width="1"/><rect x="468.7" y="154.5" width="5.4" height="1.2" fill="#16a34a" opacity="0.82" rx="1"/>
<line x1="480.3" y1="129.8" x2="480.3" y2="165.2" stroke="#dc2626" stroke-width="1"/><rect x="477.6" y="154.5" width="5.4" height="2.1" fill="#dc2626" opacity="0.82" rx="1"/>
<line x1="489.2" y1="150.0" x2="489.2" y2="318.9" stroke="#dc2626" stroke-width="1"/><rect x="486.5" y="156.6" width="5.4" height="151.2" fill="#dc2626" opacity="0.82" rx="1"/>
<line x1="498.1" y1="194.8" x2="498.1" y2="307.8" stroke="#16a34a" stroke-width="1"/><rect x="495.3" y="246.6" width="5.4" height="61.1" fill="#16a34a" opacity="0.82" rx="1"/>
<line x1="506.9" y1="237.4" x2="506.9" y2="277.9" stroke="#16a34a" stroke-width="1"/><rect x="504.2" y="242.2" width="5.4" height="4.5" fill="#16a34a" opacity="0.82" rx="1"/>
<line x1="515.8" y1="216.7" x2="515.8" y2="262.9" stroke="#dc2626" stroke-width="1"/><rect x="513.1" y="242.2" width="5.4" height="12.8" fill="#dc2626" opacity="0.82" rx="1"/>
<line x1="524.7" y1="232.8" x2="524.7" y2="263.7" stroke="#16a34a" stroke-width="1"/><rect x="522.0" y="236.1" width="5.4" height="19.0" fill="#16a34a" opacity="0.82" rx="1"/>
<line x1="533.6" y1="230.0" x2="533.6" y2="252.5" stroke="#dc2626" stroke-width="1"/><rect x="530.9" y="236.1" width="5.4" height="8.4" fill="#dc2626" opacity="0.82" rx="1"/>
<line x1="542.4" y1="244.2" x2="542.4" y2="261.7" stroke="#dc2626" stroke-width="1"/><rect x="539.7" y="244.5" width="5.4" height="9.7" fill="#dc2626" opacity="0.82" rx="1"/>
<line x1="551.3" y1="232.6" x2="551.3" y2="254.3" stroke="#16a34a" stroke-width="1"/><rect x="548.6" y="247.7" width="5.4" height="6.6" fill="#16a34a" opacity="0.82" rx="1"/>
<line x1="560.2" y1="206.1" x2="560.2" y2="248.0" stroke="#16a34a" stroke-width="1"/><rect x="557.5" y="209.4" width="5.4" height="38.3" fill="#16a34a" opacity="0.82" rx="1"/>
<line x1="569.1" y1="209.4" x2="569.1" y2="233.6" stroke="#dc2626" stroke-width="1"/><rect x="566.4" y="209.4" width="5.4" height="18.6" fill="#dc2626" opacity="0.82" rx="1"/>
<line x1="578.0" y1="210.2" x2="578.0" y2="233.4" stroke="#dc2626" stroke-width="1"/><rect x="575.2" y="228.0" width="5.4" height="2.2" fill="#dc2626" opacity="0.82" rx="1"/>
<line x1="586.8" y1="224.6" x2="586.8" y2="238.5" stroke="#dc2626" stroke-width="1"/><rect x="584.1" y="230.2" width="5.4" height="6.8" fill="#dc2626" opacity="0.82" rx="1"/>
<line x1="595.7" y1="230.7" x2="595.7" y2="259.3" stroke="#dc2626" stroke-width="1"/><rect x="593.0" y="237.0" width="5.4" height="11.5" fill="#dc2626" opacity="0.82" rx="1"/>
<line x1="604.6" y1="247.5" x2="604.6" y2="303.8" stroke="#dc2626" stroke-width="1"/><rect x="601.9" y="248.5" width="5.4" height="44.7" fill="#dc2626" opacity="0.82" rx="1"/>
<line x1="613.5" y1="212.2" x2="613.5" y2="305.8" stroke="#16a34a" stroke-width="1"/><rect x="610.7" y="217.8" width="5.4" height="75.3" fill="#16a34a" opacity="0.82" rx="1"/>
<line x1="622.3" y1="206.6" x2="622.3" y2="228.6" stroke="#dc2626" stroke-width="1"/><rect x="619.6" y="217.8" width="5.4" height="5.9" fill="#dc2626" opacity="0.82" rx="1"/>
<line x1="631.2" y1="216.6" x2="631.2" y2="233.7" stroke="#16a34a" stroke-width="1"/><rect x="628.5" y="222.5" width="5.4" height="1.2" fill="#16a34a" opacity="0.82" rx="1"/>
<line x1="640.1" y1="196.2" x2="640.1" y2="235.6" stroke="#16a34a" stroke-width="1"/><rect x="637.4" y="203.3" width="5.4" height="19.2" fill="#16a34a" opacity="0.82" rx="1"/>
<line x1="649.0" y1="181.2" x2="649.0" y2="205.7" stroke="#16a34a" stroke-width="1"/><rect x="646.2" y="193.6" width="5.4" height="9.8" fill="#16a34a" opacity="0.82" rx="1"/>
<line x1="657.8" y1="190.9" x2="657.8" y2="212.9" stroke="#dc2626" stroke-width="1"/><rect x="655.1" y="193.6" width="5.4" height="14.0" fill="#dc2626" opacity="0.82" rx="1"/>
<line x1="666.7" y1="206.9" x2="666.7" y2="241.8" stroke="#dc2626" stroke-width="1"/><rect x="664.0" y="207.6" width="5.4" height="25.8" fill="#dc2626" opacity="0.82" rx="1"/>
<line x1="675.6" y1="227.0" x2="675.6" y2="258.8" stroke="#dc2626" stroke-width="1"/><rect x="672.9" y="233.4" width="5.4" height="21.4" fill="#dc2626" opacity="0.82" rx="1"/>
<line x1="684.5" y1="240.5" x2="684.5" y2="257.6" stroke="#16a34a" stroke-width="1"/><rect x="681.8" y="249.5" width="5.4" height="5.2" fill="#16a34a" opacity="0.82" rx="1"/>
<line x1="693.3" y1="218.6" x2="693.3" y2="272.6" stroke="#dc2626" stroke-width="1"/><rect x="690.6" y="249.5" width="5.4" height="11.4" fill="#dc2626" opacity="0.82" rx="1"/>
<line x1="702.2" y1="208.9" x2="702.2" y2="300.7" stroke="#16a34a" stroke-width="1"/><rect x="699.5" y="210.8" width="5.4" height="50.2" fill="#16a34a" opacity="0.82" rx="1"/>
<line x1="711.1" y1="204.6" x2="711.1" y2="251.2" stroke="#dc2626" stroke-width="1"/><rect x="708.4" y="210.7" width="5.4" height="29.8" fill="#dc2626" opacity="0.82" rx="1"/>
<line x1="720.0" y1="193.4" x2="720.0" y2="241.0" stroke="#16a34a" stroke-width="1"/><rect x="717.3" y="203.5" width="5.4" height="37.1" fill="#16a34a" opacity="0.82" rx="1"/>
<line x1="728.9" y1="189.0" x2="728.9" y2="222.0" stroke="#dc2626" stroke-width="1"/><rect x="726.1" y="203.4" width="5.4" height="14.2" fill="#dc2626" opacity="0.82" rx="1"/>
<line x1="737.7" y1="204.5" x2="737.7" y2="222.6" stroke="#dc2626" stroke-width="1"/><rect x="735.0" y="217.7" width="5.4" height="1.2" fill="#dc2626" opacity="0.82" rx="1"/>
<line x1="746.6" y1="211.4" x2="746.6" y2="242.5" stroke="#dc2626" stroke-width="1"/><rect x="743.9" y="218.6" width="5.4" height="17.9" fill="#dc2626" opacity="0.82" rx="1"/>
<line x1="755.5" y1="214.6" x2="755.5" y2="239.6" stroke="#16a34a" stroke-width="1"/><rect x="752.8" y="232.8" width="5.4" height="3.6" fill="#16a34a" opacity="0.82" rx="1"/>
<line x1="764.4" y1="220.1" x2="764.4" y2="241.2" stroke="#dc2626" stroke-width="1"/><rect x="761.6" y="232.8" width="5.4" height="1.3" fill="#dc2626" opacity="0.82" rx="1"/>
<line x1="773.2" y1="217.1" x2="773.2" y2="236.4" stroke="#16a34a" stroke-width="1"/><rect x="770.5" y="224.3" width="5.4" height="9.8" fill="#16a34a" opacity="0.82" rx="1"/>
<line x1="782.1" y1="216.0" x2="782.1" y2="233.0" stroke="#16a34a" stroke-width="1"/><rect x="779.4" y="218.2" width="5.4" height="6.1" fill="#16a34a" opacity="0.82" rx="1"/>
<line x1="791.0" y1="213.9" x2="791.0" y2="225.1" stroke="#16a34a" stroke-width="1"/><rect x="788.3" y="214.9" width="5.4" height="3.3" fill="#16a34a" opacity="0.82" rx="1"/>
<line x1="799.9" y1="210.0" x2="799.9" y2="226.4" stroke="#dc2626" stroke-width="1"/><rect x="797.1" y="214.9" width="5.4" height="2.0" fill="#dc2626" opacity="0.82" rx="1"/>
<line x1="808.7" y1="216.2" x2="808.7" y2="223.4" stroke="#dc2626" stroke-width="1"/><rect x="806.0" y="216.9" width="5.4" height="5.8" fill="#dc2626" opacity="0.82" rx="1"/>
<line x1="817.6" y1="200.8" x2="817.6" y2="224.2" stroke="#16a34a" stroke-width="1"/><rect x="814.9" y="205.5" width="5.4" height="17.2" fill="#16a34a" opacity="0.82" rx="1"/>
<line x1="826.5" y1="198.8" x2="826.5" y2="211.7" stroke="#16a34a" stroke-width="1"/><rect x="823.8" y="204.6" width="5.4" height="1.2" fill="#16a34a" opacity="0.82" rx="1"/>
<line x1="835.4" y1="194.5" x2="835.4" y2="208.9" stroke="#dc2626" stroke-width="1"/><rect x="832.6" y="204.6" width="5.4" height="3.0" fill="#dc2626" opacity="0.82" rx="1"/>
<line x1="844.2" y1="204.0" x2="844.2" y2="213.4" stroke="#dc2626" stroke-width="1"/><rect x="841.5" y="207.6" width="5.4" height="1.2" fill="#dc2626" opacity="0.82" rx="1"/>
<line x1="853.1" y1="193.5" x2="853.1" y2="214.8" stroke="#16a34a" stroke-width="1"/><rect x="850.4" y="201.0" width="5.4" height="7.0" fill="#16a34a" opacity="0.82" rx="1"/>
<line x1="862.0" y1="199.8" x2="862.0" y2="203.3" stroke="#dc2626" stroke-width="1"/><rect x="859.3" y="201.0" width="5.4" height="1.5" fill="#dc2626" opacity="0.82" rx="1"/>
<line x1="72" y1="227.5" x2="862" y2="227.5" stroke="#16a34a" stroke-width="1.8" stroke-dasharray="6 4" /><rect x="874" y="207.5" width="166" height="23" rx="5" fill="#ffffff" stroke="#16a34a" opacity="0.97"/><text x="881" y="223.5" fill="#16a34a" font-size="15" font-weight="700">日内支撑 59,825</text>
<line x1="72" y1="160.9" x2="862" y2="160.9" stroke="#dc2626" stroke-width="1.8" stroke-dasharray="6 4" /><rect x="874" y="140.9" width="166" height="23" rx="5" fill="#ffffff" stroke="#dc2626" opacity="0.97"/><text x="881" y="156.9" fill="#dc2626" font-size="15" font-weight="700">日内压力 61,133</text>
<line x1="72" y1="202.5" x2="862" y2="202.5" stroke="#111827" stroke-width="1.8" stroke-dasharray="2 2" /><rect x="874" y="182.5" width="166" height="23" rx="5" fill="#ffffff" stroke="#111827" opacity="0.97"/><text x="881" y="198.5" fill="#111827" font-size="15" font-weight="700">现价 60,316</text>
<text x="72" y="396" fill="#16a34a" font-size="14" font-weight="700">日内做多计划</text><rect x="72" y="404" width="790" height="48" rx="6" fill="#f9fafb" stroke="#e5e7eb"/><line x1="94" y1="412" x2="840" y2="412" stroke="#16a34a" stroke-width="3"/><circle cx="132.0" cy="412" r="5" fill="#16a34a"/><text x="132.0" y="434" fill="#374151" font-size="12" text-anchor="middle">入场 止跌/突破回踩</text><circle cx="451.2" cy="412" r="5" fill="#16a34a"/><text x="451.2" y="434" fill="#374151" font-size="12" text-anchor="middle">止损 59,825</text><circle cx="712.0" cy="412" r="5" fill="#16a34a"/><text x="712.0" y="434" fill="#374151" font-size="12" text-anchor="middle">目标一 61,133</text><circle cx="814.0" cy="412" r="5" fill="#16a34a"/><text x="814.0" y="434" fill="#374151" font-size="12" text-anchor="middle">目标二 61,460</text>
<text x="72" y="482" fill="#dc2626" font-size="14" font-weight="700">日内做空计划</text><rect x="72" y="490" width="790" height="48" rx="6" fill="#f9fafb" stroke="#e5e7eb"/><line x1="94" y1="498" x2="840" y2="498" stroke="#dc2626" stroke-width="3"/><circle cx="132.0" cy="498" r="5" fill="#dc2626"/><text x="132.0" y="520" fill="#374151" font-size="12" text-anchor="middle">入场 反弹承压/破位回抽</text><circle cx="451.2" cy="498" r="5" fill="#dc2626"/><text x="451.2" y="520" fill="#374151" font-size="12" text-anchor="middle">止损 61,133</text><circle cx="712.0" cy="498" r="5" fill="#dc2626"/><text x="712.0" y="520" fill="#374151" font-size="12" text-anchor="middle">目标一 59,825</text><circle cx="814.0" cy="498" r="5" fill="#dc2626"/><text x="814.0" y="520" fill="#374151" font-size="12" text-anchor="middle">目标二 59,498</text>
</svg>