<svg xmlns="http://www.w3.org/2000/svg" width="1080" height="560" viewBox="0 0 1080 560">
<rect width="100%" height="100%" fill="#ffffff"/>
<text x="72" y="23" fill="#111827" font-size="21" font-weight="800">HYPE 日线K线支撑压力图</text>
<text x="862" y="42" fill="#374151" font-size="15" text-anchor="end">最新价 63.47</text>
<line x1="72" y1="34" x2="72" y2="340" stroke="#d1d5db"/>
<line x1="72" y1="340" x2="862" y2="340" stroke="#d1d5db"/>
<line x1="72" y1="340.0" x2="862" y2="340.0" stroke="#f3f4f6"/>
<text x="8" y="345.0" fill="#4b5563" font-size="14">31.00</text>
<line x1="72" y1="263.5" x2="862" y2="263.5" stroke="#f3f4f6"/>
<text x="8" y="268.5" fill="#4b5563" font-size="14">43.39</text>
<line x1="72" y1="187.0" x2="862" y2="187.0" stroke="#f3f4f6"/>
<text x="8" y="192.0" fill="#4b5563" font-size="14">55.78</text>
<line x1="72" y1="110.5" x2="862" y2="110.5" stroke="#f3f4f6"/>
<text x="8" y="115.5" fill="#4b5563" font-size="14">68.17</text>
<line x1="72" y1="34.0" x2="862" y2="34.0" stroke="#f3f4f6"/>
<text x="8" y="39.0" fill="#4b5563" font-size="14">80.56</text>
<line x1="72.0" y1="292.0" x2="72.0" y2="306.4" stroke="#dc2626" stroke-width="1"/><rect x="69.3" y="298.0" width="5.4" height="6.1" fill="#dc2626" opacity="0.82" rx="1"/>
<line x1="80.9" y1="299.1" x2="80.9" y2="311.3" stroke="#dc2626" stroke-width="1"/><rect x="78.2" y="304.1" width="5.4" height="1.4" fill="#dc2626" opacity="0.82" rx="1"/>
<line x1="89.8" y1="297.7" x2="89.8" y2="310.1" stroke="#dc2626" stroke-width="1"/><rect x="87.0" y="305.5" width="5.4" height="3.6" fill="#dc2626" opacity="0.82" rx="1"/>
<line x1="98.6" y1="307.5" x2="98.6" y2="318.9" stroke="#dc2626" stroke-width="1"/><rect x="95.9" y="309.1" width="5.4" height="5.2" fill="#dc2626" opacity="0.82" rx="1"/>
<line x1="107.5" y1="308.5" x2="107.5" y2="314.9" stroke="#16a34a" stroke-width="1"/><rect x="104.8" y="311.7" width="5.4" height="2.6" fill="#16a34a" opacity="0.82" rx="1"/>
<line x1="116.4" y1="305.8" x2="116.4" y2="312.2" stroke="#16a34a" stroke-width="1"/><rect x="113.7" y="306.9" width="5.4" height="4.7" fill="#16a34a" opacity="0.82" rx="1"/>
<line x1="125.3" y1="303.0" x2="125.3" y2="314.6" stroke="#16a34a" stroke-width="1"/><rect x="122.5" y="303.9" width="5.4" height="3.0" fill="#16a34a" opacity="0.82" rx="1"/>
<line x1="134.1" y1="298.4" x2="134.1" y2="309.5" stroke="#dc2626" stroke-width="1"/><rect x="131.4" y="303.9" width="5.4" height="3.5" fill="#dc2626" opacity="0.82" rx="1"/>
<line x1="143.0" y1="289.6" x2="143.0" y2="310.9" stroke="#16a34a" stroke-width="1"/><rect x="140.3" y="293.1" width="5.4" height="14.3" fill="#16a34a" opacity="0.82" rx="1"/>
<line x1="151.9" y1="285.7" x2="151.9" y2="298.3" stroke="#16a34a" stroke-width="1"/><rect x="149.2" y="292.1" width="5.4" height="1.2" fill="#16a34a" opacity="0.82" rx="1"/>
<line x1="160.8" y1="282.0" x2="160.8" y2="295.9" stroke="#16a34a" stroke-width="1"/><rect x="158.0" y="287.8" width="5.4" height="4.3" fill="#16a34a" opacity="0.82" rx="1"/>
<line x1="169.6" y1="270.7" x2="169.6" y2="288.0" stroke="#16a34a" stroke-width="1"/><rect x="166.9" y="274.6" width="5.4" height="13.1" fill="#16a34a" opacity="0.82" rx="1"/>
<line x1="178.5" y1="264.9" x2="178.5" y2="275.3" stroke="#16a34a" stroke-width="1"/><rect x="175.8" y="270.4" width="5.4" height="4.2" fill="#16a34a" opacity="0.82" rx="1"/>
<line x1="187.4" y1="267.0" x2="187.4" y2="283.3" stroke="#dc2626" stroke-width="1"/><rect x="184.7" y="270.4" width="5.4" height="8.8" fill="#dc2626" opacity="0.82" rx="1"/>
<line x1="196.3" y1="255.9" x2="196.3" y2="279.6" stroke="#16a34a" stroke-width="1"/><rect x="193.5" y="257.7" width="5.4" height="21.6" fill="#16a34a" opacity="0.82" rx="1"/>
<line x1="205.1" y1="251.5" x2="205.1" y2="266.4" stroke="#dc2626" stroke-width="1"/><rect x="202.4" y="257.7" width="5.4" height="4.9" fill="#dc2626" opacity="0.82" rx="1"/>
<line x1="214.0" y1="250.7" x2="214.0" y2="265.1" stroke="#16a34a" stroke-width="1"/><rect x="211.3" y="255.8" width="5.4" height="6.8" fill="#16a34a" opacity="0.82" rx="1"/>
<line x1="222.9" y1="248.9" x2="222.9" y2="264.0" stroke="#dc2626" stroke-width="1"/><rect x="220.2" y="255.8" width="5.4" height="5.1" fill="#dc2626" opacity="0.82" rx="1"/>
<line x1="231.8" y1="250.5" x2="231.8" y2="264.9" stroke="#16a34a" stroke-width="1"/><rect x="229.1" y="255.9" width="5.4" height="5.0" fill="#16a34a" opacity="0.82" rx="1"/>
<line x1="240.7" y1="250.8" x2="240.7" y2="261.5" stroke="#dc2626" stroke-width="1"/><rect x="237.9" y="255.9" width="5.4" height="5.2" fill="#dc2626" opacity="0.82" rx="1"/>
<line x1="249.5" y1="260.2" x2="249.5" y2="281.4" stroke="#dc2626" stroke-width="1"/><rect x="246.8" y="261.1" width="5.4" height="19.1" fill="#dc2626" opacity="0.82" rx="1"/>
<line x1="258.4" y1="273.4" x2="258.4" y2="281.0" stroke="#16a34a" stroke-width="1"/><rect x="255.7" y="280.1" width="5.4" height="1.2" fill="#16a34a" opacity="0.82" rx="1"/>
<line x1="267.3" y1="275.6" x2="267.3" y2="291.3" stroke="#dc2626" stroke-width="1"/><rect x="264.6" y="280.1" width="5.4" height="5.8" fill="#dc2626" opacity="0.82" rx="1"/>
<line x1="276.2" y1="273.7" x2="276.2" y2="286.8" stroke="#16a34a" stroke-width="1"/><rect x="273.4" y="277.3" width="5.4" height="8.6" fill="#16a34a" opacity="0.82" rx="1"/>
<line x1="285.0" y1="273.0" x2="285.0" y2="281.2" stroke="#16a34a" stroke-width="1"/><rect x="282.3" y="276.4" width="5.4" height="1.2" fill="#16a34a" opacity="0.82" rx="1"/>
<line x1="293.9" y1="274.9" x2="293.9" y2="280.2" stroke="#dc2626" stroke-width="1"/><rect x="291.2" y="276.4" width="5.4" height="1.2" fill="#dc2626" opacity="0.82" rx="1"/>
<line x1="302.8" y1="272.7" x2="302.8" y2="279.3" stroke="#16a34a" stroke-width="1"/><rect x="300.1" y="275.2" width="5.4" height="2.0" fill="#16a34a" opacity="0.82" rx="1"/>
<line x1="311.7" y1="268.4" x2="311.7" y2="278.6" stroke="#16a34a" stroke-width="1"/><rect x="308.9" y="269.3" width="5.4" height="5.9" fill="#16a34a" opacity="0.82" rx="1"/>
<line x1="320.5" y1="262.4" x2="320.5" y2="276.6" stroke="#dc2626" stroke-width="1"/><rect x="317.8" y="269.3" width="5.4" height="5.0" fill="#dc2626" opacity="0.82" rx="1"/>
<line x1="329.4" y1="273.1" x2="329.4" y2="288.3" stroke="#dc2626" stroke-width="1"/><rect x="326.7" y="274.3" width="5.4" height="9.2" fill="#dc2626" opacity="0.82" rx="1"/>
<line x1="338.3" y1="279.5" x2="338.3" y2="289.7" stroke="#dc2626" stroke-width="1"/><rect x="335.6" y="283.5" width="5.4" height="1.4" fill="#dc2626" opacity="0.82" rx="1"/>
<line x1="347.2" y1="282.4" x2="347.2" y2="292.4" stroke="#dc2626" stroke-width="1"/><rect x="344.4" y="284.9" width="5.4" height="1.5" fill="#dc2626" opacity="0.82" rx="1"/>
<line x1="356.0" y1="277.4" x2="356.0" y2="286.5" stroke="#16a34a" stroke-width="1"/><rect x="353.3" y="277.5" width="5.4" height="8.9" fill="#16a34a" opacity="0.82" rx="1"/>
<line x1="364.9" y1="269.3" x2="364.9" y2="278.4" stroke="#16a34a" stroke-width="1"/><rect x="362.2" y="276.7" width="5.4" height="1.2" fill="#16a34a" opacity="0.82" rx="1"/>
<line x1="373.8" y1="273.8" x2="373.8" y2="280.3" stroke="#16a34a" stroke-width="1"/><rect x="371.1" y="274.9" width="5.4" height="1.8" fill="#16a34a" opacity="0.82" rx="1"/>
<line x1="382.7" y1="268.4" x2="382.7" y2="279.4" stroke="#16a34a" stroke-width="1"/><rect x="380.0" y="273.3" width="5.4" height="1.6" fill="#16a34a" opacity="0.82" rx="1"/>
<line x1="391.6" y1="255.9" x2="391.6" y2="273.5" stroke="#16a34a" stroke-width="1"/><rect x="388.8" y="261.6" width="5.4" height="11.7" fill="#16a34a" opacity="0.82" rx="1"/>
<line x1="400.4" y1="255.1" x2="400.4" y2="266.6" stroke="#dc2626" stroke-width="1"/><rect x="397.7" y="261.6" width="5.4" height="3.6" fill="#dc2626" opacity="0.82" rx="1"/>
<line x1="409.3" y1="262.5" x2="409.3" y2="273.0" stroke="#dc2626" stroke-width="1"/><rect x="406.6" y="265.2" width="5.4" height="3.7" fill="#dc2626" opacity="0.82" rx="1"/>
<line x1="418.2" y1="262.8" x2="418.2" y2="271.9" stroke="#16a34a" stroke-width="1"/><rect x="415.5" y="264.3" width="5.4" height="4.6" fill="#16a34a" opacity="0.82" rx="1"/>
<line x1="427.1" y1="257.2" x2="427.1" y2="267.0" stroke="#dc2626" stroke-width="1"/><rect x="424.3" y="264.3" width="5.4" height="2.2" fill="#dc2626" opacity="0.82" rx="1"/>
<line x1="435.9" y1="261.6" x2="435.9" y2="271.4" stroke="#16a34a" stroke-width="1"/><rect x="433.2" y="265.9" width="5.4" height="1.2" fill="#16a34a" opacity="0.82" rx="1"/>
<line x1="444.8" y1="265.0" x2="444.8" y2="279.4" stroke="#dc2626" stroke-width="1"/><rect x="442.1" y="265.8" width="5.4" height="6.3" fill="#dc2626" opacity="0.82" rx="1"/>
<line x1="453.7" y1="271.8" x2="453.7" y2="285.8" stroke="#dc2626" stroke-width="1"/><rect x="451.0" y="272.1" width="5.4" height="10.8" fill="#dc2626" opacity="0.82" rx="1"/>
<line x1="462.6" y1="280.1" x2="462.6" y2="292.4" stroke="#dc2626" stroke-width="1"/><rect x="459.8" y="282.9" width="5.4" height="8.9" fill="#dc2626" opacity="0.82" rx="1"/>
<line x1="471.4" y1="255.1" x2="471.4" y2="295.8" stroke="#16a34a" stroke-width="1"/><rect x="468.7" y="258.9" width="5.4" height="32.8" fill="#16a34a" opacity="0.82" rx="1"/>
<line x1="480.3" y1="240.9" x2="480.3" y2="267.2" stroke="#16a34a" stroke-width="1"/><rect x="477.6" y="258.8" width="5.4" height="1.2" fill="#16a34a" opacity="0.82" rx="1"/>
<line x1="489.2" y1="256.8" x2="489.2" y2="282.2" stroke="#dc2626" stroke-width="1"/><rect x="486.5" y="258.8" width="5.4" height="14.4" fill="#dc2626" opacity="0.82" rx="1"/>
<line x1="498.1" y1="240.3" x2="498.1" y2="276.2" stroke="#16a34a" stroke-width="1"/><rect x="495.3" y="249.4" width="5.4" height="23.9" fill="#16a34a" opacity="0.82" rx="1"/>
<line x1="506.9" y1="235.1" x2="506.9" y2="258.5" stroke="#16a34a" stroke-width="1"/><rect x="504.2" y="236.5" width="5.4" height="12.8" fill="#16a34a" opacity="0.82" rx="1"/>
<line x1="515.8" y1="229.5" x2="515.8" y2="242.5" stroke="#16a34a" stroke-width="1"/><rect x="513.1" y="235.0" width="5.4" height="1.5" fill="#16a34a" opacity="0.82" rx="1"/>
<line x1="524.7" y1="192.8" x2="524.7" y2="240.7" stroke="#16a34a" stroke-width="1"/><rect x="522.0" y="192.9" width="5.4" height="42.2" fill="#16a34a" opacity="0.82" rx="1"/>
<line x1="533.6" y1="144.9" x2="533.6" y2="193.6" stroke="#16a34a" stroke-width="1"/><rect x="530.9" y="169.7" width="5.4" height="23.2" fill="#16a34a" opacity="0.82" rx="1"/>
<line x1="542.4" y1="148.9" x2="542.4" y2="196.3" stroke="#dc2626" stroke-width="1"/><rect x="539.7" y="169.8" width="5.4" height="24.7" fill="#dc2626" opacity="0.82" rx="1"/>
<line x1="551.3" y1="161.6" x2="551.3" y2="198.0" stroke="#16a34a" stroke-width="1"/><rect x="548.6" y="169.0" width="5.4" height="25.5" fill="#16a34a" opacity="0.82" rx="1"/>
<line x1="560.2" y1="133.2" x2="560.2" y2="169.5" stroke="#16a34a" stroke-width="1"/><rect x="557.5" y="144.0" width="5.4" height="25.0" fill="#16a34a" opacity="0.82" rx="1"/>
<line x1="569.1" y1="136.9" x2="569.1" y2="156.6" stroke="#dc2626" stroke-width="1"/><rect x="566.4" y="143.9" width="5.4" height="10.3" fill="#dc2626" opacity="0.82" rx="1"/>
<line x1="578.0" y1="131.7" x2="578.0" y2="169.9" stroke="#dc2626" stroke-width="1"/><rect x="575.2" y="154.2" width="5.4" height="9.8" fill="#dc2626" opacity="0.82" rx="1"/>
<line x1="586.8" y1="140.5" x2="586.8" y2="179.1" stroke="#dc2626" stroke-width="1"/><rect x="584.1" y="164.0" width="5.4" height="11.7" fill="#dc2626" opacity="0.82" rx="1"/>
<line x1="595.7" y1="147.8" x2="595.7" y2="184.1" stroke="#16a34a" stroke-width="1"/><rect x="593.0" y="151.6" width="5.4" height="24.1" fill="#16a34a" opacity="0.82" rx="1"/>
<line x1="604.6" y1="115.2" x2="604.6" y2="159.0" stroke="#16a34a" stroke-width="1"/><rect x="601.9" y="133.8" width="5.4" height="17.8" fill="#16a34a" opacity="0.82" rx="1"/>
<line x1="613.5" y1="107.6" x2="613.5" y2="136.3" stroke="#16a34a" stroke-width="1"/><rect x="610.7" y="109.8" width="5.4" height="24.0" fill="#16a34a" opacity="0.82" rx="1"/>
<line x1="622.3" y1="80.0" x2="622.3" y2="114.9" stroke="#16a34a" stroke-width="1"/><rect x="619.6" y="86.5" width="5.4" height="23.2" fill="#16a34a" opacity="0.82" rx="1"/>
<line x1="631.2" y1="63.3" x2="631.2" y2="96.7" stroke="#16a34a" stroke-width="1"/><rect x="628.5" y="77.1" width="5.4" height="9.2" fill="#16a34a" opacity="0.82" rx="1"/>
<line x1="640.1" y1="64.4" x2="640.1" y2="112.6" stroke="#dc2626" stroke-width="1"/><rect x="637.4" y="77.1" width="5.4" height="23.2" fill="#dc2626" opacity="0.82" rx="1"/>
<line x1="649.0" y1="64.6" x2="649.0" y2="109.9" stroke="#16a34a" stroke-width="1"/><rect x="646.2" y="71.0" width="5.4" height="29.3" fill="#16a34a" opacity="0.82" rx="1"/>
<line x1="657.8" y1="65.3" x2="657.8" y2="142.4" stroke="#dc2626" stroke-width="1"/><rect x="655.1" y="71.0" width="5.4" height="62.7" fill="#dc2626" opacity="0.82" rx="1"/>
<line x1="666.7" y1="123.7" x2="666.7" y2="181.4" stroke="#dc2626" stroke-width="1"/><rect x="664.0" y="133.6" width="5.4" height="28.4" fill="#dc2626" opacity="0.82" rx="1"/>
<line x1="675.6" y1="153.4" x2="675.6" y2="188.9" stroke="#dc2626" stroke-width="1"/><rect x="672.9" y="162.1" width="5.4" height="20.3" fill="#dc2626" opacity="0.82" rx="1"/>
<line x1="684.5" y1="158.3" x2="684.5" y2="185.0" stroke="#16a34a" stroke-width="1"/><rect x="681.8" y="162.5" width="5.4" height="19.9" fill="#16a34a" opacity="0.82" rx="1"/>
<line x1="693.3" y1="125.1" x2="693.3" y2="165.3" stroke="#16a34a" stroke-width="1"/><rect x="690.6" y="137.3" width="5.4" height="25.2" fill="#16a34a" opacity="0.82" rx="1"/>
<line x1="702.2" y1="136.0" x2="702.2" y2="177.7" stroke="#dc2626" stroke-width="1"/><rect x="699.5" y="137.2" width="5.4" height="37.5" fill="#dc2626" opacity="0.82" rx="1"/>
<line x1="711.1" y1="171.2" x2="711.1" y2="206.6" stroke="#dc2626" stroke-width="1"/><rect x="708.4" y="174.7" width="5.4" height="27.8" fill="#dc2626" opacity="0.82" rx="1"/>
<line x1="720.0" y1="163.2" x2="720.0" y2="205.1" stroke="#16a34a" stroke-width="1"/><rect x="717.3" y="167.6" width="5.4" height="34.8" fill="#16a34a" opacity="0.82" rx="1"/>
<line x1="728.9" y1="146.0" x2="728.9" y2="180.8" stroke="#16a34a" stroke-width="1"/><rect x="726.1" y="165.5" width="5.4" height="2.1" fill="#16a34a" opacity="0.82" rx="1"/>
<line x1="737.7" y1="155.5" x2="737.7" y2="178.5" stroke="#16a34a" stroke-width="1"/><rect x="735.0" y="156.6" width="5.4" height="8.9" fill="#16a34a" opacity="0.82" rx="1"/>
<line x1="746.6" y1="135.4" x2="746.6" y2="163.5" stroke="#16a34a" stroke-width="1"/><rect x="743.9" y="136.7" width="5.4" height="20.0" fill="#16a34a" opacity="0.82" rx="1"/>
<line x1="755.5" y1="107.3" x2="755.5" y2="141.7" stroke="#16a34a" stroke-width="1"/><rect x="752.8" y="118.5" width="5.4" height="18.3" fill="#16a34a" opacity="0.82" rx="1"/>
<line x1="764.4" y1="56.0" x2="764.4" y2="121.7" stroke="#16a34a" stroke-width="1"/><rect x="761.6" y="77.1" width="5.4" height="41.3" fill="#16a34a" opacity="0.82" rx="1"/>
<line x1="773.2" y1="57.4" x2="773.2" y2="99.6" stroke="#dc2626" stroke-width="1"/><rect x="770.5" y="77.1" width="5.4" height="15.1" fill="#dc2626" opacity="0.82" rx="1"/>
<line x1="782.1" y1="76.2" x2="782.1" y2="120.5" stroke="#dc2626" stroke-width="1"/><rect x="779.4" y="92.1" width="5.4" height="17.3" fill="#dc2626" opacity="0.82" rx="1"/>
<line x1="791.0" y1="90.6" x2="791.0" y2="126.2" stroke="#16a34a" stroke-width="1"/><rect x="788.3" y="97.6" width="5.4" height="11.9" fill="#16a34a" opacity="0.82" rx="1"/>
<line x1="799.9" y1="90.4" x2="799.9" y2="109.1" stroke="#16a34a" stroke-width="1"/><rect x="797.1" y="94.7" width="5.4" height="3.0" fill="#16a34a" opacity="0.82" rx="1"/>
<line x1="808.7" y1="93.6" x2="808.7" y2="120.6" stroke="#dc2626" stroke-width="1"/><rect x="806.0" y="94.7" width="5.4" height="23.7" fill="#dc2626" opacity="0.82" rx="1"/>
<line x1="817.6" y1="101.8" x2="817.6" y2="129.5" stroke="#dc2626" stroke-width="1"/><rect x="814.9" y="118.4" width="5.4" height="4.0" fill="#dc2626" opacity="0.82" rx="1"/>
<line x1="826.5" y1="115.6" x2="826.5" y2="151.0" stroke="#dc2626" stroke-width="1"/><rect x="823.8" y="122.4" width="5.4" height="25.4" fill="#dc2626" opacity="0.82" rx="1"/>
<line x1="835.4" y1="134.6" x2="835.4" y2="166.8" stroke="#16a34a" stroke-width="1"/><rect x="832.6" y="137.0" width="5.4" height="10.7" fill="#16a34a" opacity="0.82" rx="1"/>
<line x1="844.2" y1="127.6" x2="844.2" y2="171.3" stroke="#16a34a" stroke-width="1"/><rect x="841.5" y="135.9" width="5.4" height="1.2" fill="#16a34a" opacity="0.82" rx="1"/>
<line x1="853.1" y1="127.4" x2="853.1" y2="155.5" stroke="#16a34a" stroke-width="1"/><rect x="850.4" y="134.2" width="5.4" height="1.6" fill="#16a34a" opacity="0.82" rx="1"/>
<line x1="862.0" y1="131.9" x2="862.0" y2="141.9" stroke="#dc2626" stroke-width="1"/><rect x="859.3" y="134.2" width="5.4" height="5.3" fill="#dc2626" opacity="0.82" rx="1"/>
<line x1="72" y1="190.2" x2="862" y2="190.2" stroke="#16a34a" stroke-width="1.8" stroke-dasharray="6 4" /><rect x="874" y="170.2" width="166" height="23" rx="5" fill="#ffffff" stroke="#16a34a" opacity="0.97"/><text x="881" y="186.2" fill="#16a34a" font-size="15" font-weight="700">支撑 55.26</text>
<line x1="72" y1="55.1" x2="862" y2="55.1" stroke="#dc2626" stroke-width="1.8" stroke-dasharray="6 4" /><rect x="874" y="35.1" width="166" height="23" rx="5" fill="#ffffff" stroke="#dc2626" opacity="0.97"/><text x="881" y="51.1" fill="#dc2626" font-size="15" font-weight="700">压力 77.15</text>
<line x1="72" y1="139.5" x2="862" y2="139.5" stroke="#111827" stroke-width="1.8" stroke-dasharray="2 2" /><rect x="874" y="119.5" width="166" height="23" rx="5" fill="#ffffff" stroke="#111827" opacity="0.97"/><text x="881" y="135.5" fill="#111827" font-size="15" font-weight="700">现价 63.47</text>
<text x="72" y="396" fill="#16a34a" font-size="14" font-weight="700">日线做多计划</text><rect x="72" y="404" width="790" height="48" rx="6" fill="#f9fafb" stroke="#e5e7eb"/><line x1="94" y1="412" x2="840" y2="412" stroke="#16a34a" stroke-width="3"/><circle cx="132.0" cy="412" r="5" fill="#16a34a"/><text x="132.0" y="434" fill="#374151" font-size="12" text-anchor="middle">入场 止跌/突破回踩</text><circle cx="451.2" cy="412" r="5" fill="#16a34a"/><text x="451.2" y="434" fill="#374151" font-size="12" text-anchor="middle">止损 55.26</text><circle cx="712.0" cy="412" r="5" fill="#16a34a"/><text x="712.0" y="434" fill="#374151" font-size="12" text-anchor="middle">目标一 77.15</text><circle cx="814.0" cy="412" r="5" fill="#16a34a"/><text x="814.0" y="434" fill="#374151" font-size="12" text-anchor="middle">目标二 85.35</text>
<text x="72" y="482" fill="#dc2626" font-size="14" font-weight="700">日线做空计划</text><rect x="72" y="490" width="790" height="48" rx="6" fill="#f9fafb" stroke="#e5e7eb"/><line x1="94" y1="498" x2="840" y2="498" stroke="#dc2626" stroke-width="3"/><circle cx="132.0" cy="498" r="5" fill="#dc2626"/><text x="132.0" y="520" fill="#374151" font-size="12" text-anchor="middle">入场 反弹承压/破位回抽</text><circle cx="451.2" cy="498" r="5" fill="#dc2626"/><text x="451.2" y="520" fill="#374151" font-size="12" text-anchor="middle">止损 77.15</text><circle cx="712.0" cy="498" r="5" fill="#dc2626"/><text x="712.0" y="520" fill="#374151" font-size="12" text-anchor="middle">目标一 55.26</text><circle cx="814.0" cy="498" r="5" fill="#dc2626"/><text x="814.0" y="520" fill="#374151" font-size="12" text-anchor="middle">目标二 49.79</text>
</svg>