<svg xmlns="http://www.w3.org/2000/svg" width="1080" height="560" viewBox="0 0 1080 560">
<rect width="100%" height="100%" fill="#ffffff"/>
<text x="72" y="23" fill="#111827" font-size="21" font-weight="800">BTC 日线K线支撑压力图</text>
<text x="862" y="42" fill="#374151" font-size="15" text-anchor="end">最新价 60,316</text>
<line x1="72" y1="34" x2="72" y2="340" stroke="#d1d5db"/>
<line x1="72" y1="340" x2="862" y2="340" stroke="#d1d5db"/>
<line x1="72" y1="340.0" x2="862" y2="340.0" stroke="#f3f4f6"/>
<text x="8" y="345.0" fill="#4b5563" font-size="14">54,974</text>
<line x1="72" y1="263.5" x2="862" y2="263.5" stroke="#f3f4f6"/>
<text x="8" y="268.5" fill="#4b5563" font-size="14">62,453</text>
<line x1="72" y1="187.0" x2="862" y2="187.0" stroke="#f3f4f6"/>
<text x="8" y="192.0" fill="#4b5563" font-size="14">69,933</text>
<line x1="72" y1="110.5" x2="862" y2="110.5" stroke="#f3f4f6"/>
<text x="8" y="115.5" fill="#4b5563" font-size="14">77,412</text>
<line x1="72" y1="34.0" x2="862" y2="34.0" stroke="#f3f4f6"/>
<text x="8" y="39.0" fill="#4b5563" font-size="14">84,892</text>
<line x1="72.0" y1="205.3" x2="72.0" y2="229.7" stroke="#16a34a" stroke-width="1"/><rect x="69.3" y="219.4" width="5.4" height="8.0" fill="#16a34a" opacity="0.82" rx="1"/>
<line x1="80.9" y1="200.6" x2="80.9" y2="227.9" stroke="#16a34a" stroke-width="1"/><rect x="78.2" y="204.3" width="5.4" height="15.1" fill="#16a34a" opacity="0.82" rx="1"/>
<line x1="89.8" y1="193.6" x2="89.8" y2="211.5" stroke="#dc2626" stroke-width="1"/><rect x="87.0" y="204.3" width="5.4" height="1.6" fill="#dc2626" opacity="0.82" rx="1"/>
<line x1="98.6" y1="200.2" x2="98.6" y2="230.5" stroke="#dc2626" stroke-width="1"/><rect x="95.9" y="205.9" width="5.4" height="12.5" fill="#dc2626" opacity="0.82" rx="1"/>
<line x1="107.5" y1="213.4" x2="107.5" y2="224.8" stroke="#16a34a" stroke-width="1"/><rect x="104.8" y="217.7" width="5.4" height="1.2" fill="#16a34a" opacity="0.82" rx="1"/>
<line x1="116.4" y1="211.3" x2="116.4" y2="219.6" stroke="#16a34a" stroke-width="1"/><rect x="113.7" y="214.2" width="5.4" height="3.5" fill="#16a34a" opacity="0.82" rx="1"/>
<line x1="125.3" y1="195.4" x2="125.3" y2="221.3" stroke="#16a34a" stroke-width="1"/><rect x="122.5" y="196.6" width="5.4" height="17.7" fill="#16a34a" opacity="0.82" rx="1"/>
<line x1="134.1" y1="182.9" x2="134.1" y2="204.4" stroke="#dc2626" stroke-width="1"/><rect x="131.4" y="196.6" width="5.4" height="1.8" fill="#dc2626" opacity="0.82" rx="1"/>
<line x1="143.0" y1="158.3" x2="143.0" y2="209.7" stroke="#16a34a" stroke-width="1"/><rect x="140.3" y="167.0" width="5.4" height="31.4" fill="#16a34a" opacity="0.82" rx="1"/>
<line x1="151.9" y1="157.1" x2="151.9" y2="179.4" stroke="#dc2626" stroke-width="1"/><rect x="149.2" y="167.0" width="5.4" height="8.7" fill="#dc2626" opacity="0.82" rx="1"/>
<line x1="160.8" y1="154.3" x2="160.8" y2="181.9" stroke="#16a34a" stroke-width="1"/><rect x="158.0" y="168.4" width="5.4" height="7.3" fill="#16a34a" opacity="0.82" rx="1"/>
<line x1="169.6" y1="151.0" x2="169.6" y2="172.2" stroke="#16a34a" stroke-width="1"/><rect x="166.9" y="156.5" width="5.4" height="11.9" fill="#16a34a" opacity="0.82" rx="1"/>
<line x1="178.5" y1="147.7" x2="178.5" y2="161.2" stroke="#16a34a" stroke-width="1"/><rect x="175.8" y="155.5" width="5.4" height="1.2" fill="#16a34a" opacity="0.82" rx="1"/>
<line x1="187.4" y1="154.7" x2="187.4" y2="181.6" stroke="#dc2626" stroke-width="1"/><rect x="184.7" y="155.5" width="5.4" height="23.5" fill="#dc2626" opacity="0.82" rx="1"/>
<line x1="196.3" y1="136.5" x2="196.3" y2="181.0" stroke="#16a34a" stroke-width="1"/><rect x="193.5" y="141.5" width="5.4" height="37.6" fill="#16a34a" opacity="0.82" rx="1"/>
<line x1="205.1" y1="124.9" x2="205.1" y2="147.8" stroke="#dc2626" stroke-width="1"/><rect x="202.4" y="141.5" width="5.4" height="2.8" fill="#dc2626" opacity="0.82" rx="1"/>
<line x1="214.0" y1="130.8" x2="214.0" y2="151.0" stroke="#16a34a" stroke-width="1"/><rect x="211.3" y="137.5" width="5.4" height="6.8" fill="#16a34a" opacity="0.82" rx="1"/>
<line x1="222.9" y1="130.1" x2="222.9" y2="153.0" stroke="#16a34a" stroke-width="1"/><rect x="220.2" y="134.1" width="5.4" height="3.4" fill="#16a34a" opacity="0.82" rx="1"/>
<line x1="231.8" y1="101.4" x2="231.8" y2="140.5" stroke="#16a34a" stroke-width="1"/><rect x="229.1" y="114.4" width="5.4" height="19.7" fill="#16a34a" opacity="0.82" rx="1"/>
<line x1="240.7" y1="110.8" x2="240.7" y2="131.1" stroke="#dc2626" stroke-width="1"/><rect x="237.9" y="114.4" width="5.4" height="14.1" fill="#dc2626" opacity="0.82" rx="1"/>
<line x1="249.5" y1="122.9" x2="249.5" y2="148.5" stroke="#dc2626" stroke-width="1"/><rect x="246.8" y="128.5" width="5.4" height="19.4" fill="#dc2626" opacity="0.82" rx="1"/>
<line x1="258.4" y1="119.5" x2="258.4" y2="148.8" stroke="#16a34a" stroke-width="1"/><rect x="255.7" y="127.1" width="5.4" height="20.8" fill="#16a34a" opacity="0.82" rx="1"/>
<line x1="267.3" y1="114.7" x2="267.3" y2="137.4" stroke="#16a34a" stroke-width="1"/><rect x="264.6" y="122.0" width="5.4" height="5.1" fill="#16a34a" opacity="0.82" rx="1"/>
<line x1="276.2" y1="89.7" x2="276.2" y2="124.1" stroke="#16a34a" stroke-width="1"/><rect x="273.4" y="103.1" width="5.4" height="18.9" fill="#16a34a" opacity="0.82" rx="1"/>
<line x1="285.0" y1="97.9" x2="285.0" y2="119.8" stroke="#16a34a" stroke-width="1"/><rect x="282.3" y="102.3" width="5.4" height="1.2" fill="#16a34a" opacity="0.82" rx="1"/>
<line x1="293.9" y1="98.9" x2="293.9" y2="112.6" stroke="#dc2626" stroke-width="1"/><rect x="291.2" y="102.3" width="5.4" height="8.4" fill="#dc2626" opacity="0.82" rx="1"/>
<line x1="302.8" y1="106.1" x2="302.8" y2="113.7" stroke="#16a34a" stroke-width="1"/><rect x="300.1" y="108.7" width="5.4" height="1.9" fill="#16a34a" opacity="0.82" rx="1"/>
<line x1="311.7" y1="94.3" x2="311.7" y2="111.9" stroke="#16a34a" stroke-width="1"/><rect x="308.9" y="98.2" width="5.4" height="10.5" fill="#16a34a" opacity="0.82" rx="1"/>
<line x1="320.5" y1="89.6" x2="320.5" y2="120.9" stroke="#dc2626" stroke-width="1"/><rect x="317.8" y="98.2" width="5.4" height="13.1" fill="#dc2626" opacity="0.82" rx="1"/>
<line x1="329.4" y1="110.1" x2="329.4" y2="128.7" stroke="#dc2626" stroke-width="1"/><rect x="326.7" y="111.3" width="5.4" height="10.6" fill="#dc2626" opacity="0.82" rx="1"/>
<line x1="338.3" y1="105.8" x2="338.3" y2="136.5" stroke="#dc2626" stroke-width="1"/><rect x="335.6" y="121.9" width="5.4" height="5.6" fill="#dc2626" opacity="0.82" rx="1"/>
<line x1="347.2" y1="118.5" x2="347.2" y2="132.4" stroke="#16a34a" stroke-width="1"/><rect x="344.4" y="121.8" width="5.4" height="5.7" fill="#16a34a" opacity="0.82" rx="1"/>
<line x1="356.0" y1="95.5" x2="356.0" y2="122.2" stroke="#16a34a" stroke-width="1"/><rect x="353.3" y="102.5" width="5.4" height="19.3" fill="#16a34a" opacity="0.82" rx="1"/>
<line x1="364.9" y1="92.8" x2="364.9" y2="104.7" stroke="#16a34a" stroke-width="1"/><rect x="362.2" y="97.8" width="5.4" height="4.7" fill="#16a34a" opacity="0.82" rx="1"/>
<line x1="373.8" y1="89.9" x2="373.8" y2="104.2" stroke="#dc2626" stroke-width="1"/><rect x="371.1" y="97.8" width="5.4" height="1.3" fill="#dc2626" opacity="0.82" rx="1"/>
<line x1="382.7" y1="76.1" x2="382.7" y2="103.2" stroke="#16a34a" stroke-width="1"/><rect x="380.0" y="85.8" width="5.4" height="13.3" fill="#16a34a" opacity="0.82" rx="1"/>
<line x1="391.6" y1="66.2" x2="391.6" y2="86.5" stroke="#16a34a" stroke-width="1"/><rect x="388.8" y="75.2" width="5.4" height="10.6" fill="#16a34a" opacity="0.82" rx="1"/>
<line x1="400.4" y1="55.1" x2="400.4" y2="77.4" stroke="#16a34a" stroke-width="1"/><rect x="397.7" y="69.8" width="5.4" height="5.4" fill="#16a34a" opacity="0.82" rx="1"/>
<line x1="409.3" y1="66.8" x2="409.3" y2="89.5" stroke="#dc2626" stroke-width="1"/><rect x="406.6" y="69.8" width="5.4" height="14.5" fill="#dc2626" opacity="0.82" rx="1"/>
<line x1="418.2" y1="79.1" x2="418.2" y2="92.9" stroke="#16a34a" stroke-width="1"/><rect x="415.5" y="82.4" width="5.4" height="1.9" fill="#16a34a" opacity="0.82" rx="1"/>
<line x1="427.1" y1="73.4" x2="427.1" y2="83.2" stroke="#16a34a" stroke-width="1"/><rect x="424.3" y="77.6" width="5.4" height="4.9" fill="#16a34a" opacity="0.82" rx="1"/>
<line x1="435.9" y1="58.9" x2="435.9" y2="81.7" stroke="#16a34a" stroke-width="1"/><rect x="433.2" y="61.8" width="5.4" height="15.8" fill="#16a34a" opacity="0.82" rx="1"/>
<line x1="444.8" y1="60.0" x2="444.8" y2="80.0" stroke="#dc2626" stroke-width="1"/><rect x="442.1" y="61.8" width="5.4" height="4.9" fill="#dc2626" opacity="0.82" rx="1"/>
<line x1="453.7" y1="66.1" x2="453.7" y2="86.1" stroke="#dc2626" stroke-width="1"/><rect x="451.0" y="66.7" width="5.4" height="12.7" fill="#dc2626" opacity="0.82" rx="1"/>
<line x1="462.6" y1="71.0" x2="462.6" y2="97.2" stroke="#dc2626" stroke-width="1"/><rect x="459.8" y="79.3" width="5.4" height="12.0" fill="#dc2626" opacity="0.82" rx="1"/>
<line x1="471.4" y1="63.6" x2="471.4" y2="95.6" stroke="#16a34a" stroke-width="1"/><rect x="468.7" y="73.3" width="5.4" height="18.0" fill="#16a34a" opacity="0.82" rx="1"/>
<line x1="480.3" y1="67.4" x2="480.3" y2="98.3" stroke="#dc2626" stroke-width="1"/><rect x="477.6" y="73.3" width="5.4" height="20.2" fill="#dc2626" opacity="0.82" rx="1"/>
<line x1="489.2" y1="92.2" x2="489.2" y2="108.6" stroke="#dc2626" stroke-width="1"/><rect x="486.5" y="93.5" width="5.4" height="9.9" fill="#dc2626" opacity="0.82" rx="1"/>
<line x1="498.1" y1="98.7" x2="498.1" y2="118.1" stroke="#dc2626" stroke-width="1"/><rect x="495.3" y="103.4" width="5.4" height="6.9" fill="#dc2626" opacity="0.82" rx="1"/>
<line x1="506.9" y1="107.0" x2="506.9" y2="124.8" stroke="#dc2626" stroke-width="1"/><rect x="504.2" y="110.3" width="5.4" height="4.8" fill="#dc2626" opacity="0.82" rx="1"/>
<line x1="515.8" y1="110.8" x2="515.8" y2="123.9" stroke="#dc2626" stroke-width="1"/><rect x="513.1" y="115.1" width="5.4" height="1.7" fill="#dc2626" opacity="0.82" rx="1"/>
<line x1="524.7" y1="106.3" x2="524.7" y2="120.0" stroke="#16a34a" stroke-width="1"/><rect x="522.0" y="109.5" width="5.4" height="7.3" fill="#16a34a" opacity="0.82" rx="1"/>
<line x1="533.6" y1="102.6" x2="533.6" y2="117.8" stroke="#16a34a" stroke-width="1"/><rect x="530.9" y="108.7" width="5.4" height="1.2" fill="#16a34a" opacity="0.82" rx="1"/>
<line x1="542.4" y1="105.9" x2="542.4" y2="131.9" stroke="#dc2626" stroke-width="1"/><rect x="539.7" y="108.7" width="5.4" height="21.2" fill="#dc2626" opacity="0.82" rx="1"/>
<line x1="551.3" y1="110.4" x2="551.3" y2="143.3" stroke="#16a34a" stroke-width="1"/><rect x="548.6" y="117.6" width="5.4" height="12.3" fill="#16a34a" opacity="0.82" rx="1"/>
<line x1="560.2" y1="108.6" x2="560.2" y2="124.4" stroke="#16a34a" stroke-width="1"/><rect x="557.5" y="114.4" width="5.4" height="3.2" fill="#16a34a" opacity="0.82" rx="1"/>
<line x1="569.1" y1="105.6" x2="569.1" y2="116.0" stroke="#16a34a" stroke-width="1"/><rect x="566.4" y="111.8" width="5.4" height="2.6" fill="#16a34a" opacity="0.82" rx="1"/>
<line x1="578.0" y1="103.7" x2="578.0" y2="128.6" stroke="#dc2626" stroke-width="1"/><rect x="575.2" y="111.8" width="5.4" height="14.1" fill="#dc2626" opacity="0.82" rx="1"/>
<line x1="586.8" y1="123.4" x2="586.8" y2="143.3" stroke="#dc2626" stroke-width="1"/><rect x="584.1" y="125.9" width="5.4" height="15.2" fill="#dc2626" opacity="0.82" rx="1"/>
<line x1="595.7" y1="139.6" x2="595.7" y2="160.2" stroke="#dc2626" stroke-width="1"/><rect x="593.0" y="141.1" width="5.4" height="8.5" fill="#dc2626" opacity="0.82" rx="1"/>
<line x1="604.6" y1="142.4" x2="604.6" y2="161.4" stroke="#dc2626" stroke-width="1"/><rect x="601.9" y="149.6" width="5.4" height="1.7" fill="#dc2626" opacity="0.82" rx="1"/>
<line x1="613.5" y1="144.3" x2="613.5" y2="154.3" stroke="#16a34a" stroke-width="1"/><rect x="610.7" y="146.9" width="5.4" height="4.4" fill="#16a34a" opacity="0.82" rx="1"/>
<line x1="622.3" y1="142.8" x2="622.3" y2="152.1" stroke="#dc2626" stroke-width="1"/><rect x="619.6" y="146.9" width="5.4" height="2.1" fill="#dc2626" opacity="0.82" rx="1"/>
<line x1="631.2" y1="144.7" x2="631.2" y2="179.7" stroke="#dc2626" stroke-width="1"/><rect x="628.5" y="148.9" width="5.4" height="23.1" fill="#dc2626" opacity="0.82" rx="1"/>
<line x1="640.1" y1="172.0" x2="640.1" y2="225.7" stroke="#dc2626" stroke-width="1"/><rect x="637.4" y="172.1" width="5.4" height="47.7" fill="#dc2626" opacity="0.82" rx="1"/>
<line x1="649.0" y1="211.9" x2="649.0" y2="247.2" stroke="#dc2626" stroke-width="1"/><rect x="646.2" y="219.8" width="5.4" height="26.7" fill="#dc2626" opacity="0.82" rx="1"/>
<line x1="657.8" y1="240.1" x2="657.8" y2="274.8" stroke="#dc2626" stroke-width="1"/><rect x="655.1" y="246.5" width="5.4" height="2.7" fill="#dc2626" opacity="0.82" rx="1"/>
<line x1="666.7" y1="248.1" x2="666.7" y2="298.0" stroke="#dc2626" stroke-width="1"/><rect x="664.0" y="249.2" width="5.4" height="29.0" fill="#dc2626" opacity="0.82" rx="1"/>
<line x1="675.6" y1="273.2" x2="675.6" y2="294.2" stroke="#dc2626" stroke-width="1"/><rect x="672.9" y="278.1" width="5.4" height="1.8" fill="#dc2626" opacity="0.82" rx="1"/>
<line x1="684.5" y1="245.1" x2="684.5" y2="281.3" stroke="#16a34a" stroke-width="1"/><rect x="681.8" y="254.9" width="5.4" height="25.0" fill="#16a34a" opacity="0.82" rx="1"/>
<line x1="693.3" y1="245.8" x2="693.3" y2="264.3" stroke="#dc2626" stroke-width="1"/><rect x="690.6" y="254.8" width="5.4" height="2.5" fill="#dc2626" opacity="0.82" rx="1"/>
<line x1="702.2" y1="252.8" x2="702.2" y2="280.9" stroke="#dc2626" stroke-width="1"/><rect x="699.5" y="257.3" width="5.4" height="13.9" fill="#dc2626" opacity="0.82" rx="1"/>
<line x1="711.1" y1="259.5" x2="711.1" y2="281.5" stroke="#dc2626" stroke-width="1"/><rect x="708.4" y="271.3" width="5.4" height="2.2" fill="#dc2626" opacity="0.82" rx="1"/>
<line x1="720.0" y1="248.5" x2="720.0" y2="273.4" stroke="#16a34a" stroke-width="1"/><rect x="717.3" y="251.8" width="5.4" height="21.6" fill="#16a34a" opacity="0.82" rx="1"/>
<line x1="728.9" y1="244.0" x2="728.9" y2="260.0" stroke="#dc2626" stroke-width="1"/><rect x="726.1" y="251.8" width="5.4" height="1.2" fill="#dc2626" opacity="0.82" rx="1"/>
<line x1="737.7" y1="240.1" x2="737.7" y2="254.2" stroke="#16a34a" stroke-width="1"/><rect x="735.0" y="243.4" width="5.4" height="8.9" fill="#16a34a" opacity="0.82" rx="1"/>
<line x1="746.6" y1="229.5" x2="746.6" y2="251.3" stroke="#16a34a" stroke-width="1"/><rect x="743.9" y="230.3" width="5.4" height="13.1" fill="#16a34a" opacity="0.82" rx="1"/>
<line x1="755.5" y1="214.4" x2="755.5" y2="234.2" stroke="#16a34a" stroke-width="1"/><rect x="752.8" y="224.3" width="5.4" height="6.0" fill="#16a34a" opacity="0.82" rx="1"/>
<line x1="764.4" y1="217.4" x2="764.4" y2="234.1" stroke="#dc2626" stroke-width="1"/><rect x="761.6" y="224.3" width="5.4" height="6.6" fill="#dc2626" opacity="0.82" rx="1"/>
<line x1="773.2" y1="222.9" x2="773.2" y2="248.9" stroke="#dc2626" stroke-width="1"/><rect x="770.5" y="230.9" width="5.4" height="12.0" fill="#dc2626" opacity="0.82" rx="1"/>
<line x1="782.1" y1="239.7" x2="782.1" y2="265.8" stroke="#dc2626" stroke-width="1"/><rect x="779.4" y="242.8" width="5.4" height="15.8" fill="#dc2626" opacity="0.82" rx="1"/>
<line x1="791.0" y1="251.3" x2="791.0" y2="265.7" stroke="#16a34a" stroke-width="1"/><rect x="788.3" y="252.7" width="5.4" height="6.0" fill="#16a34a" opacity="0.82" rx="1"/>
<line x1="799.9" y1="243.9" x2="799.9" y2="256.5" stroke="#16a34a" stroke-width="1"/><rect x="797.1" y="244.9" width="5.4" height="7.7" fill="#16a34a" opacity="0.82" rx="1"/>
<line x1="808.7" y1="241.9" x2="808.7" y2="255.7" stroke="#dc2626" stroke-width="1"/><rect x="806.0" y="244.9" width="5.4" height="10.1" fill="#dc2626" opacity="0.82" rx="1"/>
<line x1="817.6" y1="231.3" x2="817.6" y2="255.0" stroke="#16a34a" stroke-width="1"/><rect x="814.9" y="247.8" width="5.4" height="7.2" fill="#16a34a" opacity="0.82" rx="1"/>
<line x1="826.5" y1="245.2" x2="826.5" y2="269.5" stroke="#dc2626" stroke-width="1"/><rect x="823.8" y="247.8" width="5.4" height="13.2" fill="#dc2626" opacity="0.82" rx="1"/>
<line x1="835.4" y1="255.8" x2="835.4" y2="298.2" stroke="#dc2626" stroke-width="1"/><rect x="832.6" y="261.0" width="5.4" height="16.8" fill="#dc2626" opacity="0.82" rx="1"/>
<line x1="844.2" y1="268.8" x2="844.2" y2="308.7" stroke="#dc2626" stroke-width="1"/><rect x="841.5" y="277.8" width="5.4" height="13.1" fill="#dc2626" opacity="0.82" rx="1"/>
<line x1="853.1" y1="281.1" x2="853.1" y2="306.1" stroke="#16a34a" stroke-width="1"/><rect x="850.4" y="287.9" width="5.4" height="3.1" fill="#16a34a" opacity="0.82" rx="1"/>
<line x1="862.0" y1="283.6" x2="862.0" y2="290.2" stroke="#16a34a" stroke-width="1"/><rect x="859.3" y="285.4" width="5.4" height="2.5" fill="#16a34a" opacity="0.82" rx="1"/>
<line x1="72" y1="318.9" x2="862" y2="318.9" stroke="#16a34a" stroke-width="1.8" stroke-dasharray="6 4" /><rect x="874" y="298.9" width="166" height="23" rx="5" fill="#ffffff" stroke="#16a34a" opacity="0.97"/><text x="881" y="314.9" fill="#16a34a" font-size="15" font-weight="700">支撑 57,037</text>
<line x1="72" y1="229.5" x2="862" y2="229.5" stroke="#dc2626" stroke-width="1.8" stroke-dasharray="6 4" /><rect x="874" y="209.5" width="166" height="23" rx="5" fill="#ffffff" stroke="#dc2626" opacity="0.97"/><text x="881" y="225.5" fill="#dc2626" font-size="15" font-weight="700">压力 65,780</text>
<line x1="72" y1="285.4" x2="862" y2="285.4" stroke="#111827" stroke-width="1.8" stroke-dasharray="2 2" /><rect x="874" y="265.4" width="166" height="23" rx="5" fill="#ffffff" stroke="#111827" opacity="0.97"/><text x="881" y="281.4" fill="#111827" font-size="15" font-weight="700">现价 60,316</text>
<text x="72" y="396" fill="#16a34a" font-size="14" font-weight="700">日线做多计划</text><rect x="72" y="404" width="790" height="48" rx="6" fill="#f9fafb" stroke="#e5e7eb"/><line x1="94" y1="412" x2="840" y2="412" stroke="#16a34a" stroke-width="3"/><circle cx="132.0" cy="412" r="5" fill="#16a34a"/><text x="132.0" y="434" fill="#374151" font-size="12" text-anchor="middle">入场 止跌/突破回踩</text><circle cx="451.2" cy="412" r="5" fill="#16a34a"/><text x="451.2" y="434" fill="#374151" font-size="12" text-anchor="middle">止损 57,037</text><circle cx="712.0" cy="412" r="5" fill="#16a34a"/><text x="712.0" y="434" fill="#374151" font-size="12" text-anchor="middle">目标一 65,780</text><circle cx="814.0" cy="412" r="5" fill="#16a34a"/><text x="814.0" y="434" fill="#374151" font-size="12" text-anchor="middle">目标二 69,059</text>
<text x="72" y="482" fill="#dc2626" font-size="14" font-weight="700">日线做空计划</text><rect x="72" y="490" width="790" height="48" rx="6" fill="#f9fafb" stroke="#e5e7eb"/><line x1="94" y1="498" x2="840" y2="498" stroke="#dc2626" stroke-width="3"/><circle cx="132.0" cy="498" r="5" fill="#dc2626"/><text x="132.0" y="520" fill="#374151" font-size="12" text-anchor="middle">入场 反弹承压/破位回抽</text><circle cx="451.2" cy="498" r="5" fill="#dc2626"/><text x="451.2" y="520" fill="#374151" font-size="12" text-anchor="middle">止损 65,780</text><circle cx="712.0" cy="498" r="5" fill="#dc2626"/><text x="712.0" y="520" fill="#374151" font-size="12" text-anchor="middle">目标一 57,037</text><circle cx="814.0" cy="498" r="5" fill="#dc2626"/><text x="814.0" y="520" fill="#374151" font-size="12" text-anchor="middle">目标二 54,851</text>
</svg>