<svg xmlns="http://www.w3.org/2000/svg" width="1080" height="560" viewBox="0 0 1080 560">
<rect width="100%" height="100%" fill="#ffffff"/>
<text x="72" y="23" fill="#111827" font-size="21" font-weight="800">HYPE 小时线K线支撑压力图</text>
<text x="862" y="42" fill="#374151" font-size="15" text-anchor="end">最新价 63.47</text>
<line x1="72" y1="34" x2="72" y2="340" stroke="#d1d5db"/>
<line x1="72" y1="340" x2="862" y2="340" stroke="#d1d5db"/>
<line x1="72" y1="340.0" x2="862" y2="340.0" stroke="#f3f4f6"/>
<text x="8" y="345.0" fill="#4b5563" font-size="14">57.74</text>
<line x1="72" y1="263.5" x2="862" y2="263.5" stroke="#f3f4f6"/>
<text x="8" y="268.5" fill="#4b5563" font-size="14">59.87</text>
<line x1="72" y1="187.0" x2="862" y2="187.0" stroke="#f3f4f6"/>
<text x="8" y="192.0" fill="#4b5563" font-size="14">61.99</text>
<line x1="72" y1="110.5" x2="862" y2="110.5" stroke="#f3f4f6"/>
<text x="8" y="115.5" fill="#4b5563" font-size="14">64.12</text>
<line x1="72" y1="34.0" x2="862" y2="34.0" stroke="#f3f4f6"/>
<text x="8" y="39.0" fill="#4b5563" font-size="14">66.25</text>
<line x1="72.0" y1="126.7" x2="72.0" y2="155.8" stroke="#dc2626" stroke-width="1"/><rect x="69.3" y="139.3" width="5.4" height="14.4" fill="#dc2626" opacity="0.82" rx="1"/>
<line x1="80.9" y1="149.0" x2="80.9" y2="200.4" stroke="#dc2626" stroke-width="1"/><rect x="78.2" y="153.7" width="5.4" height="20.5" fill="#dc2626" opacity="0.82" rx="1"/>
<line x1="89.8" y1="149.5" x2="89.8" y2="188.8" stroke="#16a34a" stroke-width="1"/><rect x="87.0" y="171.8" width="5.4" height="2.3" fill="#16a34a" opacity="0.82" rx="1"/>
<line x1="98.6" y1="153.2" x2="98.6" y2="192.3" stroke="#dc2626" stroke-width="1"/><rect x="95.9" y="172.2" width="5.4" height="8.4" fill="#dc2626" opacity="0.82" rx="1"/>
<line x1="107.5" y1="174.6" x2="107.5" y2="197.6" stroke="#dc2626" stroke-width="1"/><rect x="104.8" y="180.6" width="5.4" height="15.3" fill="#dc2626" opacity="0.82" rx="1"/>
<line x1="116.4" y1="173.5" x2="116.4" y2="197.6" stroke="#16a34a" stroke-width="1"/><rect x="113.7" y="179.0" width="5.4" height="17.0" fill="#16a34a" opacity="0.82" rx="1"/>
<line x1="125.3" y1="160.0" x2="125.3" y2="195.1" stroke="#dc2626" stroke-width="1"/><rect x="122.5" y="179.0" width="5.4" height="7.4" fill="#dc2626" opacity="0.82" rx="1"/>
<line x1="134.1" y1="172.0" x2="134.1" y2="188.4" stroke="#16a34a" stroke-width="1"/><rect x="131.4" y="185.1" width="5.4" height="1.3" fill="#16a34a" opacity="0.82" rx="1"/>
<line x1="143.0" y1="153.6" x2="143.0" y2="186.7" stroke="#16a34a" stroke-width="1"/><rect x="140.3" y="176.6" width="5.4" height="8.6" fill="#16a34a" opacity="0.82" rx="1"/>
<line x1="151.9" y1="176.1" x2="151.9" y2="198.0" stroke="#dc2626" stroke-width="1"/><rect x="149.2" y="176.8" width="5.4" height="4.8" fill="#dc2626" opacity="0.82" rx="1"/>
<line x1="160.8" y1="152.9" x2="160.8" y2="182.8" stroke="#16a34a" stroke-width="1"/><rect x="158.0" y="156.3" width="5.4" height="25.1" fill="#16a34a" opacity="0.82" rx="1"/>
<line x1="169.6" y1="143.5" x2="169.6" y2="175.1" stroke="#dc2626" stroke-width="1"/><rect x="166.9" y="156.3" width="5.4" height="2.6" fill="#dc2626" opacity="0.82" rx="1"/>
<line x1="178.5" y1="157.6" x2="178.5" y2="203.6" stroke="#dc2626" stroke-width="1"/><rect x="175.8" y="158.8" width="5.4" height="44.8" fill="#dc2626" opacity="0.82" rx="1"/>
<line x1="187.4" y1="201.8" x2="187.4" y2="238.2" stroke="#dc2626" stroke-width="1"/><rect x="184.7" y="201.8" width="5.4" height="11.2" fill="#dc2626" opacity="0.82" rx="1"/>
<line x1="196.3" y1="197.6" x2="196.3" y2="245.6" stroke="#16a34a" stroke-width="1"/><rect x="193.5" y="208.3" width="5.4" height="4.7" fill="#16a34a" opacity="0.82" rx="1"/>
<line x1="205.1" y1="172.3" x2="205.1" y2="208.7" stroke="#16a34a" stroke-width="1"/><rect x="202.4" y="178.8" width="5.4" height="29.5" fill="#16a34a" opacity="0.82" rx="1"/>
<line x1="214.0" y1="163.7" x2="214.0" y2="190.4" stroke="#dc2626" stroke-width="1"/><rect x="211.3" y="178.8" width="5.4" height="2.0" fill="#dc2626" opacity="0.82" rx="1"/>
<line x1="222.9" y1="174.8" x2="222.9" y2="197.6" stroke="#dc2626" stroke-width="1"/><rect x="220.2" y="180.5" width="5.4" height="8.4" fill="#dc2626" opacity="0.82" rx="1"/>
<line x1="231.8" y1="161.9" x2="231.8" y2="192.1" stroke="#16a34a" stroke-width="1"/><rect x="229.1" y="163.4" width="5.4" height="24.5" fill="#16a34a" opacity="0.82" rx="1"/>
<line x1="240.7" y1="163.7" x2="240.7" y2="185.0" stroke="#dc2626" stroke-width="1"/><rect x="237.9" y="163.7" width="5.4" height="9.1" fill="#dc2626" opacity="0.82" rx="1"/>
<line x1="249.5" y1="169.0" x2="249.5" y2="187.9" stroke="#dc2626" stroke-width="1"/><rect x="246.8" y="172.6" width="5.4" height="14.2" fill="#dc2626" opacity="0.82" rx="1"/>
<line x1="258.4" y1="140.0" x2="258.4" y2="203.6" stroke="#16a34a" stroke-width="1"/><rect x="255.7" y="169.0" width="5.4" height="17.6" fill="#16a34a" opacity="0.82" rx="1"/>
<line x1="267.3" y1="165.6" x2="267.3" y2="195.1" stroke="#dc2626" stroke-width="1"/><rect x="264.6" y="169.3" width="5.4" height="19.5" fill="#dc2626" opacity="0.82" rx="1"/>
<line x1="276.2" y1="187.2" x2="276.2" y2="252.2" stroke="#dc2626" stroke-width="1"/><rect x="273.4" y="189.1" width="5.4" height="40.4" fill="#dc2626" opacity="0.82" rx="1"/>
<line x1="285.0" y1="219.5" x2="285.0" y2="254.3" stroke="#dc2626" stroke-width="1"/><rect x="282.3" y="229.1" width="5.4" height="1.2" fill="#dc2626" opacity="0.82" rx="1"/>
<line x1="293.9" y1="228.2" x2="293.9" y2="268.8" stroke="#dc2626" stroke-width="1"/><rect x="291.2" y="229.5" width="5.4" height="32.1" fill="#dc2626" opacity="0.82" rx="1"/>
<line x1="302.8" y1="238.0" x2="302.8" y2="292.9" stroke="#dc2626" stroke-width="1"/><rect x="300.1" y="261.9" width="5.4" height="11.9" fill="#dc2626" opacity="0.82" rx="1"/>
<line x1="311.7" y1="263.0" x2="311.7" y2="292.3" stroke="#dc2626" stroke-width="1"/><rect x="308.9" y="273.8" width="5.4" height="14.3" fill="#dc2626" opacity="0.82" rx="1"/>
<line x1="320.5" y1="227.4" x2="320.5" y2="290.2" stroke="#16a34a" stroke-width="1"/><rect x="317.8" y="247.2" width="5.4" height="40.9" fill="#16a34a" opacity="0.82" rx="1"/>
<line x1="329.4" y1="229.4" x2="329.4" y2="260.7" stroke="#16a34a" stroke-width="1"/><rect x="326.7" y="229.4" width="5.4" height="17.8" fill="#16a34a" opacity="0.82" rx="1"/>
<line x1="338.3" y1="150.8" x2="338.3" y2="238.3" stroke="#16a34a" stroke-width="1"/><rect x="335.6" y="169.5" width="5.4" height="60.1" fill="#16a34a" opacity="0.82" rx="1"/>
<line x1="347.2" y1="139.2" x2="347.2" y2="178.2" stroke="#16a34a" stroke-width="1"/><rect x="344.4" y="140.4" width="5.4" height="29.1" fill="#16a34a" opacity="0.82" rx="1"/>
<line x1="356.0" y1="129.7" x2="356.0" y2="150.0" stroke="#dc2626" stroke-width="1"/><rect x="353.3" y="140.4" width="5.4" height="2.4" fill="#dc2626" opacity="0.82" rx="1"/>
<line x1="364.9" y1="105.1" x2="364.9" y2="145.0" stroke="#16a34a" stroke-width="1"/><rect x="362.2" y="118.9" width="5.4" height="23.4" fill="#16a34a" opacity="0.82" rx="1"/>
<line x1="373.8" y1="109.9" x2="373.8" y2="158.0" stroke="#dc2626" stroke-width="1"/><rect x="371.1" y="118.3" width="5.4" height="33.6" fill="#dc2626" opacity="0.82" rx="1"/>
<line x1="382.7" y1="134.9" x2="382.7" y2="160.4" stroke="#16a34a" stroke-width="1"/><rect x="380.0" y="140.2" width="5.4" height="11.7" fill="#16a34a" opacity="0.82" rx="1"/>
<line x1="391.6" y1="125.3" x2="391.6" y2="148.7" stroke="#dc2626" stroke-width="1"/><rect x="388.8" y="140.2" width="5.4" height="1.2" fill="#dc2626" opacity="0.82" rx="1"/>
<line x1="400.4" y1="134.6" x2="400.4" y2="157.4" stroke="#dc2626" stroke-width="1"/><rect x="397.7" y="140.3" width="5.4" height="9.7" fill="#dc2626" opacity="0.82" rx="1"/>
<line x1="409.3" y1="118.7" x2="409.3" y2="165.7" stroke="#16a34a" stroke-width="1"/><rect x="406.6" y="126.7" width="5.4" height="23.4" fill="#16a34a" opacity="0.82" rx="1"/>
<line x1="418.2" y1="117.8" x2="418.2" y2="141.8" stroke="#dc2626" stroke-width="1"/><rect x="415.5" y="126.9" width="5.4" height="3.4" fill="#dc2626" opacity="0.82" rx="1"/>
<line x1="427.1" y1="96.9" x2="427.1" y2="133.3" stroke="#16a34a" stroke-width="1"/><rect x="424.3" y="98.4" width="5.4" height="31.9" fill="#16a34a" opacity="0.82" rx="1"/>
<line x1="435.9" y1="93.4" x2="435.9" y2="126.7" stroke="#dc2626" stroke-width="1"/><rect x="433.2" y="98.0" width="5.4" height="25.7" fill="#dc2626" opacity="0.82" rx="1"/>
<line x1="444.8" y1="116.8" x2="444.8" y2="139.0" stroke="#dc2626" stroke-width="1"/><rect x="442.1" y="123.7" width="5.4" height="12.6" fill="#dc2626" opacity="0.82" rx="1"/>
<line x1="453.7" y1="125.2" x2="453.7" y2="144.6" stroke="#16a34a" stroke-width="1"/><rect x="451.0" y="127.7" width="5.4" height="8.3" fill="#16a34a" opacity="0.82" rx="1"/>
<line x1="462.6" y1="119.6" x2="462.6" y2="159.6" stroke="#dc2626" stroke-width="1"/><rect x="459.8" y="127.7" width="5.4" height="30.3" fill="#dc2626" opacity="0.82" rx="1"/>
<line x1="471.4" y1="152.6" x2="471.4" y2="171.5" stroke="#16a34a" stroke-width="1"/><rect x="468.7" y="156.1" width="5.4" height="1.8" fill="#16a34a" opacity="0.82" rx="1"/>
<line x1="480.3" y1="125.6" x2="480.3" y2="172.0" stroke="#16a34a" stroke-width="1"/><rect x="477.6" y="144.3" width="5.4" height="11.7" fill="#16a34a" opacity="0.82" rx="1"/>
<line x1="489.2" y1="138.8" x2="489.2" y2="318.9" stroke="#dc2626" stroke-width="1"/><rect x="486.5" y="144.3" width="5.4" height="160.5" fill="#dc2626" opacity="0.82" rx="1"/>
<line x1="498.1" y1="205.1" x2="498.1" y2="305.5" stroke="#16a34a" stroke-width="1"/><rect x="495.3" y="231.2" width="5.4" height="74.3" fill="#16a34a" opacity="0.82" rx="1"/>
<line x1="506.9" y1="186.4" x2="506.9" y2="258.7" stroke="#16a34a" stroke-width="1"/><rect x="504.2" y="193.3" width="5.4" height="38.0" fill="#16a34a" opacity="0.82" rx="1"/>
<line x1="515.8" y1="163.3" x2="515.8" y2="220.9" stroke="#dc2626" stroke-width="1"/><rect x="513.1" y="193.2" width="5.4" height="19.5" fill="#dc2626" opacity="0.82" rx="1"/>
<line x1="524.7" y1="134.0" x2="524.7" y2="214.9" stroke="#16a34a" stroke-width="1"/><rect x="522.0" y="136.7" width="5.4" height="76.1" fill="#16a34a" opacity="0.82" rx="1"/>
<line x1="533.6" y1="128.5" x2="533.6" y2="160.3" stroke="#16a34a" stroke-width="1"/><rect x="530.9" y="129.1" width="5.4" height="7.2" fill="#16a34a" opacity="0.82" rx="1"/>
<line x1="542.4" y1="128.1" x2="542.4" y2="176.0" stroke="#dc2626" stroke-width="1"/><rect x="539.7" y="129.1" width="5.4" height="3.5" fill="#dc2626" opacity="0.82" rx="1"/>
<line x1="551.3" y1="108.6" x2="551.3" y2="153.2" stroke="#dc2626" stroke-width="1"/><rect x="548.6" y="132.7" width="5.4" height="15.2" fill="#dc2626" opacity="0.82" rx="1"/>
<line x1="560.2" y1="85.5" x2="560.2" y2="156.7" stroke="#16a34a" stroke-width="1"/><rect x="557.5" y="98.8" width="5.4" height="49.0" fill="#16a34a" opacity="0.82" rx="1"/>
<line x1="569.1" y1="89.7" x2="569.1" y2="134.8" stroke="#dc2626" stroke-width="1"/><rect x="566.4" y="98.4" width="5.4" height="25.7" fill="#dc2626" opacity="0.82" rx="1"/>
<line x1="578.0" y1="64.5" x2="578.0" y2="134.6" stroke="#16a34a" stroke-width="1"/><rect x="575.2" y="112.4" width="5.4" height="11.1" fill="#16a34a" opacity="0.82" rx="1"/>
<line x1="586.8" y1="98.8" x2="586.8" y2="135.0" stroke="#dc2626" stroke-width="1"/><rect x="584.1" y="112.4" width="5.4" height="21.4" fill="#dc2626" opacity="0.82" rx="1"/>
<line x1="595.7" y1="127.9" x2="595.7" y2="162.9" stroke="#dc2626" stroke-width="1"/><rect x="593.0" y="133.6" width="5.4" height="9.5" fill="#dc2626" opacity="0.82" rx="1"/>
<line x1="604.6" y1="142.2" x2="604.6" y2="211.3" stroke="#dc2626" stroke-width="1"/><rect x="601.9" y="143.1" width="5.4" height="59.5" fill="#dc2626" opacity="0.82" rx="1"/>
<line x1="613.5" y1="121.3" x2="613.5" y2="208.1" stroke="#16a34a" stroke-width="1"/><rect x="610.7" y="122.0" width="5.4" height="80.3" fill="#16a34a" opacity="0.82" rx="1"/>
<line x1="622.3" y1="118.7" x2="622.3" y2="167.4" stroke="#dc2626" stroke-width="1"/><rect x="619.6" y="122.0" width="5.4" height="38.8" fill="#dc2626" opacity="0.82" rx="1"/>
<line x1="631.2" y1="150.8" x2="631.2" y2="189.4" stroke="#dc2626" stroke-width="1"/><rect x="628.5" y="160.8" width="5.4" height="7.7" fill="#dc2626" opacity="0.82" rx="1"/>
<line x1="640.1" y1="122.0" x2="640.1" y2="181.7" stroke="#16a34a" stroke-width="1"/><rect x="637.4" y="126.6" width="5.4" height="42.0" fill="#16a34a" opacity="0.82" rx="1"/>
<line x1="649.0" y1="77.0" x2="649.0" y2="139.5" stroke="#16a34a" stroke-width="1"/><rect x="646.2" y="78.7" width="5.4" height="47.7" fill="#16a34a" opacity="0.82" rx="1"/>
<line x1="657.8" y1="63.8" x2="657.8" y2="117.5" stroke="#dc2626" stroke-width="1"/><rect x="655.1" y="79.4" width="5.4" height="35.4" fill="#dc2626" opacity="0.82" rx="1"/>
<line x1="666.7" y1="114.1" x2="666.7" y2="166.7" stroke="#dc2626" stroke-width="1"/><rect x="664.0" y="114.4" width="5.4" height="51.2" fill="#dc2626" opacity="0.82" rx="1"/>
<line x1="675.6" y1="165.5" x2="675.6" y2="194.0" stroke="#dc2626" stroke-width="1"/><rect x="672.9" y="165.5" width="5.4" height="24.1" fill="#dc2626" opacity="0.82" rx="1"/>
<line x1="684.5" y1="173.8" x2="684.5" y2="197.5" stroke="#16a34a" stroke-width="1"/><rect x="681.8" y="185.5" width="5.4" height="4.2" fill="#16a34a" opacity="0.82" rx="1"/>
<line x1="693.3" y1="165.2" x2="693.3" y2="220.5" stroke="#dc2626" stroke-width="1"/><rect x="690.6" y="185.5" width="5.4" height="20.8" fill="#dc2626" opacity="0.82" rx="1"/>
<line x1="702.2" y1="119.6" x2="702.2" y2="226.7" stroke="#16a34a" stroke-width="1"/><rect x="699.5" y="124.1" width="5.4" height="81.9" fill="#16a34a" opacity="0.82" rx="1"/>
<line x1="711.1" y1="90.2" x2="711.1" y2="134.2" stroke="#16a34a" stroke-width="1"/><rect x="708.4" y="118.3" width="5.4" height="5.9" fill="#16a34a" opacity="0.82" rx="1"/>
<line x1="720.0" y1="77.1" x2="720.0" y2="120.7" stroke="#16a34a" stroke-width="1"/><rect x="717.3" y="85.2" width="5.4" height="33.0" fill="#16a34a" opacity="0.82" rx="1"/>
<line x1="728.9" y1="67.5" x2="728.9" y2="108.9" stroke="#16a34a" stroke-width="1"/><rect x="726.1" y="81.5" width="5.4" height="3.5" fill="#16a34a" opacity="0.82" rx="1"/>
<line x1="737.7" y1="63.4" x2="737.7" y2="103.9" stroke="#dc2626" stroke-width="1"/><rect x="735.0" y="81.4" width="5.4" height="15.6" fill="#dc2626" opacity="0.82" rx="1"/>
<line x1="746.6" y1="72.8" x2="746.6" y2="118.5" stroke="#dc2626" stroke-width="1"/><rect x="743.9" y="97.0" width="5.4" height="19.3" fill="#dc2626" opacity="0.82" rx="1"/>
<line x1="755.5" y1="66.9" x2="755.5" y2="122.4" stroke="#16a34a" stroke-width="1"/><rect x="752.8" y="90.4" width="5.4" height="25.6" fill="#16a34a" opacity="0.82" rx="1"/>
<line x1="764.4" y1="75.3" x2="764.4" y2="130.2" stroke="#dc2626" stroke-width="1"/><rect x="761.6" y="90.5" width="5.4" height="36.8" fill="#dc2626" opacity="0.82" rx="1"/>
<line x1="773.2" y1="99.2" x2="773.2" y2="143.3" stroke="#16a34a" stroke-width="1"/><rect x="770.5" y="118.5" width="5.4" height="8.7" fill="#16a34a" opacity="0.82" rx="1"/>
<line x1="782.1" y1="109.2" x2="782.1" y2="131.9" stroke="#16a34a" stroke-width="1"/><rect x="779.4" y="109.2" width="5.4" height="9.3" fill="#16a34a" opacity="0.82" rx="1"/>
<line x1="791.0" y1="92.3" x2="791.0" y2="110.2" stroke="#16a34a" stroke-width="1"/><rect x="788.3" y="103.0" width="5.4" height="6.5" fill="#16a34a" opacity="0.82" rx="1"/>
<line x1="799.9" y1="101.7" x2="799.9" y2="143.3" stroke="#dc2626" stroke-width="1"/><rect x="797.1" y="102.8" width="5.4" height="26.1" fill="#dc2626" opacity="0.82" rx="1"/>
<line x1="808.7" y1="125.0" x2="808.7" y2="141.2" stroke="#dc2626" stroke-width="1"/><rect x="806.0" y="128.8" width="5.4" height="8.7" fill="#dc2626" opacity="0.82" rx="1"/>
<line x1="817.6" y1="98.7" x2="817.6" y2="143.9" stroke="#16a34a" stroke-width="1"/><rect x="814.9" y="107.5" width="5.4" height="30.3" fill="#16a34a" opacity="0.82" rx="1"/>
<line x1="826.5" y1="101.9" x2="826.5" y2="121.1" stroke="#dc2626" stroke-width="1"/><rect x="823.8" y="107.6" width="5.4" height="8.6" fill="#dc2626" opacity="0.82" rx="1"/>
<line x1="835.4" y1="89.4" x2="835.4" y2="119.2" stroke="#dc2626" stroke-width="1"/><rect x="832.6" y="116.5" width="5.4" height="1.2" fill="#dc2626" opacity="0.82" rx="1"/>
<line x1="844.2" y1="113.9" x2="844.2" y2="127.6" stroke="#dc2626" stroke-width="1"/><rect x="841.5" y="115.9" width="5.4" height="8.6" fill="#dc2626" opacity="0.82" rx="1"/>
<line x1="853.1" y1="117.1" x2="853.1" y2="147.4" stroke="#dc2626" stroke-width="1"/><rect x="850.4" y="124.5" width="5.4" height="9.3" fill="#dc2626" opacity="0.82" rx="1"/>
<line x1="862.0" y1="131.8" x2="862.0" y2="136.5" stroke="#16a34a" stroke-width="1"/><rect x="859.3" y="133.9" width="5.4" height="1.2" fill="#16a34a" opacity="0.82" rx="1"/>
<line x1="72" y1="181.2" x2="862" y2="181.2" stroke="#16a34a" stroke-width="1.8" stroke-dasharray="6 4" /><rect x="874" y="161.2" width="166" height="23" rx="5" fill="#ffffff" stroke="#16a34a" opacity="0.97"/><text x="881" y="177.2" fill="#16a34a" font-size="15" font-weight="700">日内支撑 62.16</text>
<line x1="72" y1="55.1" x2="862" y2="55.1" stroke="#dc2626" stroke-width="1.8" stroke-dasharray="6 4" /><rect x="874" y="35.1" width="166" height="23" rx="5" fill="#ffffff" stroke="#dc2626" opacity="0.97"/><text x="881" y="51.1" fill="#dc2626" font-size="15" font-weight="700">日内压力 65.66</text>
<line x1="72" y1="133.9" x2="862" y2="133.9" stroke="#111827" stroke-width="1.8" stroke-dasharray="2 2" /><rect x="874" y="113.9" width="166" height="23" rx="5" fill="#ffffff" stroke="#111827" opacity="0.97"/><text x="881" y="129.9" fill="#111827" font-size="15" font-weight="700">现价 63.47</text>
<text x="72" y="396" fill="#16a34a" font-size="14" font-weight="700">日内做多计划</text><rect x="72" y="404" width="790" height="48" rx="6" fill="#f9fafb" stroke="#e5e7eb"/><line x1="94" y1="412" x2="840" y2="412" stroke="#16a34a" stroke-width="3"/><circle cx="132.0" cy="412" r="5" fill="#16a34a"/><text x="132.0" y="434" fill="#374151" font-size="12" text-anchor="middle">入场 止跌/突破回踩</text><circle cx="451.2" cy="412" r="5" fill="#16a34a"/><text x="451.2" y="434" fill="#374151" font-size="12" text-anchor="middle">止损 62.16</text><circle cx="712.0" cy="412" r="5" fill="#16a34a"/><text x="712.0" y="434" fill="#374151" font-size="12" text-anchor="middle">目标一 65.66</text><circle cx="814.0" cy="412" r="5" fill="#16a34a"/><text x="814.0" y="434" fill="#374151" font-size="12" text-anchor="middle">目标二 66.54</text>
<text x="72" y="482" fill="#dc2626" font-size="14" font-weight="700">日内做空计划</text><rect x="72" y="490" width="790" height="48" rx="6" fill="#f9fafb" stroke="#e5e7eb"/><line x1="94" y1="498" x2="840" y2="498" stroke="#dc2626" stroke-width="3"/><circle cx="132.0" cy="498" r="5" fill="#dc2626"/><text x="132.0" y="520" fill="#374151" font-size="12" text-anchor="middle">入场 反弹承压/破位回抽</text><circle cx="451.2" cy="498" r="5" fill="#dc2626"/><text x="451.2" y="520" fill="#374151" font-size="12" text-anchor="middle">止损 65.66</text><circle cx="712.0" cy="498" r="5" fill="#dc2626"/><text x="712.0" y="520" fill="#374151" font-size="12" text-anchor="middle">目标一 62.16</text><circle cx="814.0" cy="498" r="5" fill="#dc2626"/><text x="814.0" y="520" fill="#374151" font-size="12" text-anchor="middle">目标二 61.28</text>
</svg>