<svg xmlns="http://www.w3.org/2000/svg" width="1080" height="560" viewBox="0 0 1080 560">
<rect width="100%" height="100%" fill="#ffffff"/>
<text x="72" y="23" fill="#111827" font-size="21" font-weight="800">DRAM 日线K线支撑压力图</text>
<text x="862" y="42" fill="#374151" font-size="15" text-anchor="end">最新价 72.77</text>
<line x1="72" y1="34" x2="72" y2="340" stroke="#d1d5db"/>
<line x1="72" y1="340" x2="862" y2="340" stroke="#d1d5db"/>
<line x1="72" y1="340.0" x2="862" y2="340.0" stroke="#f3f4f6"/>
<text x="8" y="345.0" fill="#4b5563" font-size="14">43.26</text>
<line x1="72" y1="263.5" x2="862" y2="263.5" stroke="#f3f4f6"/>
<text x="8" y="268.5" fill="#4b5563" font-size="14">55.15</text>
<line x1="72" y1="187.0" x2="862" y2="187.0" stroke="#f3f4f6"/>
<text x="8" y="192.0" fill="#4b5563" font-size="14">67.05</text>
<line x1="72" y1="110.5" x2="862" y2="110.5" stroke="#f3f4f6"/>
<text x="8" y="115.5" fill="#4b5563" font-size="14">78.94</text>
<line x1="72" y1="34.0" x2="862" y2="34.0" stroke="#f3f4f6"/>
<text x="8" y="39.0" fill="#4b5563" font-size="14">90.84</text>
<line x1="72.0" y1="284.5" x2="72.0" y2="308.9" stroke="#dc2626" stroke-width="1"/><rect x="67.5" y="288.7" width="9.0" height="9.4" fill="#dc2626" opacity="0.82" rx="1"/>
<line x1="91.8" y1="290.0" x2="91.8" y2="318.9" stroke="#16a34a" stroke-width="1"/><rect x="87.2" y="296.6" width="9.0" height="1.4" fill="#16a34a" opacity="0.82" rx="1"/>
<line x1="111.5" y1="283.5" x2="111.5" y2="309.6" stroke="#16a34a" stroke-width="1"/><rect x="107.0" y="285.5" width="9.0" height="11.2" fill="#16a34a" opacity="0.82" rx="1"/>
<line x1="131.2" y1="262.9" x2="131.2" y2="289.5" stroke="#16a34a" stroke-width="1"/><rect x="126.8" y="265.6" width="9.0" height="19.9" fill="#16a34a" opacity="0.82" rx="1"/>
<line x1="151.0" y1="265.4" x2="151.0" y2="280.0" stroke="#dc2626" stroke-width="1"/><rect x="146.5" y="265.6" width="9.0" height="14.1" fill="#dc2626" opacity="0.82" rx="1"/>
<line x1="170.8" y1="257.7" x2="170.8" y2="293.9" stroke="#16a34a" stroke-width="1"/><rect x="166.2" y="268.9" width="9.0" height="10.7" fill="#16a34a" opacity="0.82" rx="1"/>
<line x1="190.5" y1="257.4" x2="190.5" y2="270.2" stroke="#16a34a" stroke-width="1"/><rect x="186.0" y="262.1" width="9.0" height="6.7" fill="#16a34a" opacity="0.82" rx="1"/>
<line x1="210.2" y1="241.1" x2="210.2" y2="263.8" stroke="#16a34a" stroke-width="1"/><rect x="205.8" y="254.8" width="9.0" height="7.2" fill="#16a34a" opacity="0.82" rx="1"/>
<line x1="230.0" y1="211.1" x2="230.0" y2="266.6" stroke="#16a34a" stroke-width="1"/><rect x="225.5" y="218.1" width="9.0" height="36.7" fill="#16a34a" opacity="0.82" rx="1"/>
<line x1="249.8" y1="208.6" x2="249.8" y2="238.2" stroke="#dc2626" stroke-width="1"/><rect x="245.2" y="218.2" width="9.0" height="16.6" fill="#dc2626" opacity="0.82" rx="1"/>
<line x1="269.5" y1="208.1" x2="269.5" y2="248.8" stroke="#16a34a" stroke-width="1"/><rect x="265.0" y="212.7" width="9.0" height="22.1" fill="#16a34a" opacity="0.82" rx="1"/>
<line x1="289.2" y1="204.4" x2="289.2" y2="222.3" stroke="#16a34a" stroke-width="1"/><rect x="284.8" y="211.0" width="9.0" height="1.5" fill="#16a34a" opacity="0.82" rx="1"/>
<line x1="309.0" y1="194.0" x2="309.0" y2="213.7" stroke="#16a34a" stroke-width="1"/><rect x="304.5" y="195.0" width="9.0" height="16.0" fill="#16a34a" opacity="0.82" rx="1"/>
<line x1="328.8" y1="184.2" x2="328.8" y2="198.8" stroke="#16a34a" stroke-width="1"/><rect x="324.2" y="192.9" width="9.0" height="2.1" fill="#16a34a" opacity="0.82" rx="1"/>
<line x1="348.5" y1="173.9" x2="348.5" y2="204.4" stroke="#16a34a" stroke-width="1"/><rect x="344.0" y="179.6" width="9.0" height="13.2" fill="#16a34a" opacity="0.82" rx="1"/>
<line x1="368.2" y1="166.9" x2="368.2" y2="197.5" stroke="#16a34a" stroke-width="1"/><rect x="363.8" y="171.6" width="9.0" height="8.2" fill="#16a34a" opacity="0.82" rx="1"/>
<line x1="388.0" y1="166.0" x2="388.0" y2="191.2" stroke="#dc2626" stroke-width="1"/><rect x="383.5" y="171.5" width="9.0" height="17.7" fill="#dc2626" opacity="0.82" rx="1"/>
<line x1="407.8" y1="180.8" x2="407.8" y2="211.9" stroke="#dc2626" stroke-width="1"/><rect x="403.2" y="189.2" width="9.0" height="21.5" fill="#dc2626" opacity="0.82" rx="1"/>
<line x1="427.5" y1="205.8" x2="427.5" y2="274.4" stroke="#dc2626" stroke-width="1"/><rect x="423.0" y="210.8" width="9.0" height="50.9" fill="#dc2626" opacity="0.82" rx="1"/>
<line x1="447.2" y1="255.1" x2="447.2" y2="280.5" stroke="#16a34a" stroke-width="1"/><rect x="442.8" y="259.8" width="9.0" height="2.0" fill="#16a34a" opacity="0.82" rx="1"/>
<line x1="467.0" y1="233.4" x2="467.0" y2="264.5" stroke="#16a34a" stroke-width="1"/><rect x="462.5" y="255.2" width="9.0" height="4.7" fill="#16a34a" opacity="0.82" rx="1"/>
<line x1="486.8" y1="221.6" x2="486.8" y2="257.9" stroke="#16a34a" stroke-width="1"/><rect x="482.2" y="226.6" width="9.0" height="28.6" fill="#16a34a" opacity="0.82" rx="1"/>
<line x1="506.5" y1="205.3" x2="506.5" y2="261.6" stroke="#dc2626" stroke-width="1"/><rect x="502.0" y="226.5" width="9.0" height="7.5" fill="#dc2626" opacity="0.82" rx="1"/>
<line x1="526.2" y1="222.4" x2="526.2" y2="260.7" stroke="#dc2626" stroke-width="1"/><rect x="521.8" y="234.0" width="9.0" height="21.2" fill="#dc2626" opacity="0.82" rx="1"/>
<line x1="546.0" y1="189.3" x2="546.0" y2="256.8" stroke="#16a34a" stroke-width="1"/><rect x="541.5" y="193.6" width="9.0" height="61.4" fill="#16a34a" opacity="0.82" rx="1"/>
<line x1="565.8" y1="192.6" x2="565.8" y2="217.8" stroke="#dc2626" stroke-width="1"/><rect x="561.2" y="193.7" width="9.0" height="2.4" fill="#dc2626" opacity="0.82" rx="1"/>
<line x1="585.5" y1="193.9" x2="585.5" y2="207.3" stroke="#16a34a" stroke-width="1"/><rect x="581.0" y="195.2" width="9.0" height="1.2" fill="#16a34a" opacity="0.82" rx="1"/>
<line x1="605.2" y1="173.0" x2="605.2" y2="196.5" stroke="#16a34a" stroke-width="1"/><rect x="600.8" y="179.1" width="9.0" height="16.0" fill="#16a34a" opacity="0.82" rx="1"/>
<line x1="625.0" y1="159.3" x2="625.0" y2="184.9" stroke="#16a34a" stroke-width="1"/><rect x="620.5" y="162.5" width="9.0" height="16.7" fill="#16a34a" opacity="0.82" rx="1"/>
<line x1="644.8" y1="148.2" x2="644.8" y2="182.3" stroke="#dc2626" stroke-width="1"/><rect x="640.2" y="162.7" width="9.0" height="12.5" fill="#dc2626" opacity="0.82" rx="1"/>
<line x1="664.5" y1="146.9" x2="664.5" y2="175.3" stroke="#16a34a" stroke-width="1"/><rect x="660.0" y="152.1" width="9.0" height="23.0" fill="#16a34a" opacity="0.82" rx="1"/>
<line x1="684.2" y1="113.1" x2="684.2" y2="153.7" stroke="#16a34a" stroke-width="1"/><rect x="679.8" y="115.0" width="9.0" height="37.0" fill="#16a34a" opacity="0.82" rx="1"/>
<line x1="704.0" y1="112.1" x2="704.0" y2="136.8" stroke="#dc2626" stroke-width="1"/><rect x="699.5" y="115.1" width="9.0" height="3.9" fill="#dc2626" opacity="0.82" rx="1"/>
<line x1="723.8" y1="98.1" x2="723.8" y2="120.2" stroke="#16a34a" stroke-width="1"/><rect x="719.2" y="103.0" width="9.0" height="16.1" fill="#16a34a" opacity="0.82" rx="1"/>
<line x1="743.5" y1="94.9" x2="743.5" y2="125.9" stroke="#dc2626" stroke-width="1"/><rect x="739.0" y="103.1" width="9.0" height="18.5" fill="#dc2626" opacity="0.82" rx="1"/>
<line x1="763.2" y1="91.1" x2="763.2" y2="135.9" stroke="#16a34a" stroke-width="1"/><rect x="758.8" y="100.5" width="9.0" height="21.1" fill="#16a34a" opacity="0.82" rx="1"/>
<line x1="783.0" y1="99.9" x2="783.0" y2="176.4" stroke="#dc2626" stroke-width="1"/><rect x="778.5" y="100.5" width="9.0" height="64.1" fill="#dc2626" opacity="0.82" rx="1"/>
<line x1="802.8" y1="94.0" x2="802.8" y2="185.8" stroke="#16a34a" stroke-width="1"/><rect x="798.2" y="102.1" width="9.0" height="62.4" fill="#16a34a" opacity="0.82" rx="1"/>
<line x1="822.5" y1="101.3" x2="822.5" y2="145.4" stroke="#dc2626" stroke-width="1"/><rect x="818.0" y="102.0" width="9.0" height="24.1" fill="#dc2626" opacity="0.82" rx="1"/>
<line x1="842.2" y1="123.9" x2="842.2" y2="161.6" stroke="#dc2626" stroke-width="1"/><rect x="837.8" y="126.0" width="9.0" height="27.1" fill="#dc2626" opacity="0.82" rx="1"/>
<line x1="862.0" y1="147.4" x2="862.0" y2="155.0" stroke="#16a34a" stroke-width="1"/><rect x="857.5" y="150.2" width="9.0" height="2.8" fill="#16a34a" opacity="0.82" rx="1"/>
<line x1="72" y1="207.3" x2="862" y2="207.3" stroke="#16a34a" stroke-width="1.8" stroke-dasharray="6 4" /><rect x="874" y="187.3" width="166" height="23" rx="5" fill="#ffffff" stroke="#16a34a" opacity="0.97"/><text x="881" y="203.3" fill="#16a34a" font-size="15" font-weight="700">支撑 63.90</text>
<line x1="72" y1="55.1" x2="862" y2="55.1" stroke="#dc2626" stroke-width="1.8" stroke-dasharray="6 4" /><rect x="874" y="35.1" width="166" height="23" rx="5" fill="#ffffff" stroke="#dc2626" opacity="0.97"/><text x="881" y="51.1" fill="#dc2626" font-size="15" font-weight="700">压力 87.56</text>
<line x1="72" y1="150.2" x2="862" y2="150.2" stroke="#111827" stroke-width="1.8" stroke-dasharray="2 2" /><rect x="874" y="130.2" width="166" height="23" rx="5" fill="#ffffff" stroke="#111827" opacity="0.97"/><text x="881" y="146.2" fill="#111827" font-size="15" font-weight="700">现价 72.77</text>
<text x="72" y="396" fill="#16a34a" font-size="14" font-weight="700">日线做多计划</text><rect x="72" y="404" width="790" height="48" rx="6" fill="#f9fafb" stroke="#e5e7eb"/><line x1="94" y1="412" x2="840" y2="412" stroke="#16a34a" stroke-width="3"/><circle cx="132.0" cy="412" r="5" fill="#16a34a"/><text x="132.0" y="434" fill="#374151" font-size="12" text-anchor="middle">入场 止跌/突破回踩</text><circle cx="451.2" cy="412" r="5" fill="#16a34a"/><text x="451.2" y="434" fill="#374151" font-size="12" text-anchor="middle">止损 63.90</text><circle cx="712.0" cy="412" r="5" fill="#16a34a"/><text x="712.0" y="434" fill="#374151" font-size="12" text-anchor="middle">目标一 87.56</text><circle cx="814.0" cy="412" r="5" fill="#16a34a"/><text x="814.0" y="434" fill="#374151" font-size="12" text-anchor="middle">目标二 96.43</text>
<text x="72" y="482" fill="#dc2626" font-size="14" font-weight="700">日线做空计划</text><rect x="72" y="490" width="790" height="48" rx="6" fill="#f9fafb" stroke="#e5e7eb"/><line x1="94" y1="498" x2="840" y2="498" stroke="#dc2626" stroke-width="3"/><circle cx="132.0" cy="498" r="5" fill="#dc2626"/><text x="132.0" y="520" fill="#374151" font-size="12" text-anchor="middle">入场 反弹承压/破位回抽</text><circle cx="451.2" cy="498" r="5" fill="#dc2626"/><text x="451.2" y="520" fill="#374151" font-size="12" text-anchor="middle">止损 87.56</text><circle cx="712.0" cy="498" r="5" fill="#dc2626"/><text x="712.0" y="520" fill="#374151" font-size="12" text-anchor="middle">目标一 63.90</text><circle cx="814.0" cy="498" r="5" fill="#dc2626"/><text x="814.0" y="520" fill="#374151" font-size="12" text-anchor="middle">目标二 57.98</text>
</svg>