<svg xmlns="http://www.w3.org/2000/svg" width="960" height="560" viewBox="0 0 960 560">
<rect width="100%" height="100%" fill="#ffffff"/>
<text x="72" y="23" fill="#111827" font-size="21" font-weight="800">HYPE 日线K线支撑压力图</text>
<text x="842" y="42" fill="#374151" font-size="15" text-anchor="end">最新价 58.31</text>
<line x1="72" y1="34" x2="72" y2="340" stroke="#d1d5db"/>
<line x1="72" y1="340" x2="842" y2="340" stroke="#d1d5db"/>
<line x1="72" y1="340.0" x2="842" y2="340.0" stroke="#f3f4f6"/>
<text x="8" y="345.0" fill="#4b5563" font-size="14">31.11</text>
<line x1="72" y1="263.5" x2="842" y2="263.5" stroke="#f3f4f6"/>
<text x="8" y="268.5" fill="#4b5563" font-size="14">43.12</text>
<line x1="72" y1="187.0" x2="842" y2="187.0" stroke="#f3f4f6"/>
<text x="8" y="192.0" fill="#4b5563" font-size="14">55.12</text>
<line x1="72" y1="110.5" x2="842" y2="110.5" stroke="#f3f4f6"/>
<text x="8" y="115.5" fill="#4b5563" font-size="14">67.13</text>
<line x1="72" y1="34.0" x2="842" y2="34.0" stroke="#f3f4f6"/>
<text x="8" y="39.0" fill="#4b5563" font-size="14">79.14</text>
<line x1="72.0" y1="294.4" x2="72.0" y2="303.8" stroke="#dc2626" stroke-width="1"/><rect x="69.3" y="297.3" width="5.3" height="3.5" fill="#dc2626" opacity="0.82" rx="1"/>
<line x1="80.7" y1="274.0" x2="80.7" y2="301.1" stroke="#16a34a" stroke-width="1"/><rect x="78.0" y="278.1" width="5.3" height="22.7" fill="#16a34a" opacity="0.82" rx="1"/>
<line x1="89.3" y1="269.4" x2="89.3" y2="285.5" stroke="#16a34a" stroke-width="1"/><rect x="86.7" y="275.8" width="5.3" height="2.3" fill="#16a34a" opacity="0.82" rx="1"/>
<line x1="98.0" y1="259.5" x2="98.0" y2="281.9" stroke="#16a34a" stroke-width="1"/><rect x="95.3" y="269.9" width="5.3" height="5.9" fill="#16a34a" opacity="0.82" rx="1"/>
<line x1="106.6" y1="268.9" x2="106.6" y2="292.1" stroke="#dc2626" stroke-width="1"/><rect x="104.0" y="269.9" width="5.3" height="17.6" fill="#dc2626" opacity="0.82" rx="1"/>
<line x1="115.3" y1="278.4" x2="115.3" y2="293.8" stroke="#16a34a" stroke-width="1"/><rect x="112.6" y="286.3" width="5.3" height="1.2" fill="#16a34a" opacity="0.82" rx="1"/>
<line x1="123.9" y1="280.6" x2="123.9" y2="290.5" stroke="#dc2626" stroke-width="1"/><rect x="121.3" y="286.3" width="5.3" height="2.6" fill="#dc2626" opacity="0.82" rx="1"/>
<line x1="132.6" y1="286.5" x2="132.6" y2="299.5" stroke="#dc2626" stroke-width="1"/><rect x="129.9" y="288.8" width="5.3" height="5.1" fill="#dc2626" opacity="0.82" rx="1"/>
<line x1="141.2" y1="286.2" x2="141.2" y2="303.8" stroke="#dc2626" stroke-width="1"/><rect x="138.6" y="293.8" width="5.3" height="6.3" fill="#dc2626" opacity="0.82" rx="1"/>
<line x1="149.9" y1="280.4" x2="149.9" y2="301.0" stroke="#16a34a" stroke-width="1"/><rect x="147.2" y="281.3" width="5.3" height="18.8" fill="#16a34a" opacity="0.82" rx="1"/>
<line x1="158.5" y1="273.5" x2="158.5" y2="285.6" stroke="#16a34a" stroke-width="1"/><rect x="155.9" y="281.3" width="5.3" height="1.2" fill="#16a34a" opacity="0.82" rx="1"/>
<line x1="167.2" y1="280.9" x2="167.2" y2="294.4" stroke="#dc2626" stroke-width="1"/><rect x="164.5" y="281.3" width="5.3" height="7.5" fill="#dc2626" opacity="0.82" rx="1"/>
<line x1="175.8" y1="287.1" x2="175.8" y2="296.9" stroke="#dc2626" stroke-width="1"/><rect x="173.2" y="288.7" width="5.3" height="3.2" fill="#dc2626" opacity="0.82" rx="1"/>
<line x1="184.5" y1="281.7" x2="184.5" y2="296.2" stroke="#16a34a" stroke-width="1"/><rect x="181.8" y="286.9" width="5.3" height="5.0" fill="#16a34a" opacity="0.82" rx="1"/>
<line x1="193.1" y1="283.1" x2="193.1" y2="297.9" stroke="#dc2626" stroke-width="1"/><rect x="190.5" y="286.9" width="5.3" height="10.5" fill="#dc2626" opacity="0.82" rx="1"/>
<line x1="201.8" y1="291.2" x2="201.8" y2="306.0" stroke="#dc2626" stroke-width="1"/><rect x="199.1" y="297.3" width="5.3" height="6.3" fill="#dc2626" opacity="0.82" rx="1"/>
<line x1="210.4" y1="298.5" x2="210.4" y2="311.1" stroke="#dc2626" stroke-width="1"/><rect x="207.8" y="303.6" width="5.3" height="1.5" fill="#dc2626" opacity="0.82" rx="1"/>
<line x1="219.1" y1="297.1" x2="219.1" y2="309.8" stroke="#dc2626" stroke-width="1"/><rect x="216.4" y="305.0" width="5.3" height="3.8" fill="#dc2626" opacity="0.82" rx="1"/>
<line x1="227.7" y1="307.1" x2="227.7" y2="318.9" stroke="#dc2626" stroke-width="1"/><rect x="225.1" y="308.8" width="5.3" height="5.3" fill="#dc2626" opacity="0.82" rx="1"/>
<line x1="236.4" y1="308.2" x2="236.4" y2="314.8" stroke="#16a34a" stroke-width="1"/><rect x="233.7" y="311.4" width="5.3" height="2.6" fill="#16a34a" opacity="0.82" rx="1"/>
<line x1="245.0" y1="305.3" x2="245.0" y2="312.0" stroke="#16a34a" stroke-width="1"/><rect x="242.4" y="306.6" width="5.3" height="4.9" fill="#16a34a" opacity="0.82" rx="1"/>
<line x1="253.7" y1="302.5" x2="253.7" y2="314.5" stroke="#16a34a" stroke-width="1"/><rect x="251.0" y="303.4" width="5.3" height="3.1" fill="#16a34a" opacity="0.82" rx="1"/>
<line x1="262.3" y1="297.7" x2="262.3" y2="309.2" stroke="#dc2626" stroke-width="1"/><rect x="259.7" y="303.4" width="5.3" height="3.6" fill="#dc2626" opacity="0.82" rx="1"/>
<line x1="271.0" y1="288.7" x2="271.0" y2="310.7" stroke="#16a34a" stroke-width="1"/><rect x="268.3" y="292.2" width="5.3" height="14.8" fill="#16a34a" opacity="0.82" rx="1"/>
<line x1="279.6" y1="284.7" x2="279.6" y2="297.7" stroke="#16a34a" stroke-width="1"/><rect x="277.0" y="291.3" width="5.3" height="1.2" fill="#16a34a" opacity="0.82" rx="1"/>
<line x1="288.3" y1="280.8" x2="288.3" y2="295.1" stroke="#16a34a" stroke-width="1"/><rect x="285.6" y="286.8" width="5.3" height="4.5" fill="#16a34a" opacity="0.82" rx="1"/>
<line x1="296.9" y1="269.1" x2="296.9" y2="287.0" stroke="#16a34a" stroke-width="1"/><rect x="294.3" y="273.2" width="5.3" height="13.5" fill="#16a34a" opacity="0.82" rx="1"/>
<line x1="305.6" y1="263.1" x2="305.6" y2="273.9" stroke="#16a34a" stroke-width="1"/><rect x="302.9" y="268.8" width="5.3" height="4.4" fill="#16a34a" opacity="0.82" rx="1"/>
<line x1="314.2" y1="265.4" x2="314.2" y2="282.1" stroke="#dc2626" stroke-width="1"/><rect x="311.6" y="268.8" width="5.3" height="9.1" fill="#dc2626" opacity="0.82" rx="1"/>
<line x1="322.9" y1="253.9" x2="322.9" y2="278.4" stroke="#16a34a" stroke-width="1"/><rect x="320.2" y="255.7" width="5.3" height="22.2" fill="#16a34a" opacity="0.82" rx="1"/>
<line x1="331.6" y1="249.3" x2="331.6" y2="264.7" stroke="#dc2626" stroke-width="1"/><rect x="328.9" y="255.8" width="5.3" height="5.1" fill="#dc2626" opacity="0.82" rx="1"/>
<line x1="340.2" y1="248.6" x2="340.2" y2="263.4" stroke="#16a34a" stroke-width="1"/><rect x="337.6" y="253.8" width="5.3" height="7.1" fill="#16a34a" opacity="0.82" rx="1"/>
<line x1="348.9" y1="246.6" x2="348.9" y2="262.3" stroke="#dc2626" stroke-width="1"/><rect x="346.2" y="253.8" width="5.3" height="5.3" fill="#dc2626" opacity="0.82" rx="1"/>
<line x1="357.5" y1="248.3" x2="357.5" y2="263.2" stroke="#16a34a" stroke-width="1"/><rect x="354.9" y="253.9" width="5.3" height="5.1" fill="#16a34a" opacity="0.82" rx="1"/>
<line x1="366.2" y1="248.6" x2="366.2" y2="259.7" stroke="#dc2626" stroke-width="1"/><rect x="363.5" y="253.9" width="5.3" height="5.4" fill="#dc2626" opacity="0.82" rx="1"/>
<line x1="374.8" y1="258.3" x2="374.8" y2="280.2" stroke="#dc2626" stroke-width="1"/><rect x="372.2" y="259.3" width="5.3" height="19.7" fill="#dc2626" opacity="0.82" rx="1"/>
<line x1="383.5" y1="272.0" x2="383.5" y2="279.8" stroke="#16a34a" stroke-width="1"/><rect x="380.8" y="278.9" width="5.3" height="1.2" fill="#16a34a" opacity="0.82" rx="1"/>
<line x1="392.1" y1="274.3" x2="392.1" y2="290.5" stroke="#dc2626" stroke-width="1"/><rect x="389.5" y="278.9" width="5.3" height="6.0" fill="#dc2626" opacity="0.82" rx="1"/>
<line x1="400.8" y1="272.2" x2="400.8" y2="285.8" stroke="#16a34a" stroke-width="1"/><rect x="398.1" y="276.0" width="5.3" height="8.9" fill="#16a34a" opacity="0.82" rx="1"/>
<line x1="409.4" y1="271.5" x2="409.4" y2="280.0" stroke="#16a34a" stroke-width="1"/><rect x="406.8" y="275.0" width="5.3" height="1.2" fill="#16a34a" opacity="0.82" rx="1"/>
<line x1="418.1" y1="273.5" x2="418.1" y2="279.0" stroke="#dc2626" stroke-width="1"/><rect x="415.4" y="275.0" width="5.3" height="1.2" fill="#dc2626" opacity="0.82" rx="1"/>
<line x1="426.7" y1="271.2" x2="426.7" y2="278.1" stroke="#16a34a" stroke-width="1"/><rect x="424.1" y="273.8" width="5.3" height="2.1" fill="#16a34a" opacity="0.82" rx="1"/>
<line x1="435.4" y1="266.7" x2="435.4" y2="277.3" stroke="#16a34a" stroke-width="1"/><rect x="432.7" y="267.7" width="5.3" height="6.1" fill="#16a34a" opacity="0.82" rx="1"/>
<line x1="444.0" y1="260.6" x2="444.0" y2="275.3" stroke="#dc2626" stroke-width="1"/><rect x="441.4" y="267.7" width="5.3" height="5.2" fill="#dc2626" opacity="0.82" rx="1"/>
<line x1="452.7" y1="271.7" x2="452.7" y2="287.3" stroke="#dc2626" stroke-width="1"/><rect x="450.0" y="272.9" width="5.3" height="9.5" fill="#dc2626" opacity="0.82" rx="1"/>
<line x1="461.3" y1="278.3" x2="461.3" y2="288.7" stroke="#dc2626" stroke-width="1"/><rect x="458.7" y="282.3" width="5.3" height="1.4" fill="#dc2626" opacity="0.82" rx="1"/>
<line x1="470.0" y1="281.3" x2="470.0" y2="291.6" stroke="#dc2626" stroke-width="1"/><rect x="467.3" y="283.8" width="5.3" height="1.6" fill="#dc2626" opacity="0.82" rx="1"/>
<line x1="478.6" y1="276.1" x2="478.6" y2="285.5" stroke="#16a34a" stroke-width="1"/><rect x="476.0" y="276.2" width="5.3" height="9.2" fill="#16a34a" opacity="0.82" rx="1"/>
<line x1="487.3" y1="267.8" x2="487.3" y2="277.1" stroke="#16a34a" stroke-width="1"/><rect x="484.6" y="275.4" width="5.3" height="1.2" fill="#16a34a" opacity="0.82" rx="1"/>
<line x1="495.9" y1="272.3" x2="495.9" y2="279.0" stroke="#16a34a" stroke-width="1"/><rect x="493.3" y="273.5" width="5.3" height="1.9" fill="#16a34a" opacity="0.82" rx="1"/>
<line x1="504.6" y1="266.8" x2="504.6" y2="278.1" stroke="#16a34a" stroke-width="1"/><rect x="501.9" y="271.8" width="5.3" height="1.7" fill="#16a34a" opacity="0.82" rx="1"/>
<line x1="513.2" y1="253.8" x2="513.2" y2="272.1" stroke="#16a34a" stroke-width="1"/><rect x="510.6" y="259.7" width="5.3" height="12.1" fill="#16a34a" opacity="0.82" rx="1"/>
<line x1="521.9" y1="253.0" x2="521.9" y2="264.9" stroke="#dc2626" stroke-width="1"/><rect x="519.2" y="259.7" width="5.3" height="3.7" fill="#dc2626" opacity="0.82" rx="1"/>
<line x1="530.5" y1="260.7" x2="530.5" y2="271.5" stroke="#dc2626" stroke-width="1"/><rect x="527.9" y="263.4" width="5.3" height="3.9" fill="#dc2626" opacity="0.82" rx="1"/>
<line x1="539.2" y1="261.1" x2="539.2" y2="270.4" stroke="#16a34a" stroke-width="1"/><rect x="536.5" y="262.5" width="5.3" height="4.7" fill="#16a34a" opacity="0.82" rx="1"/>
<line x1="547.8" y1="255.2" x2="547.8" y2="265.3" stroke="#dc2626" stroke-width="1"/><rect x="545.2" y="262.5" width="5.3" height="2.3" fill="#dc2626" opacity="0.82" rx="1"/>
<line x1="556.5" y1="259.8" x2="556.5" y2="269.9" stroke="#16a34a" stroke-width="1"/><rect x="553.8" y="264.2" width="5.3" height="1.2" fill="#16a34a" opacity="0.82" rx="1"/>
<line x1="565.1" y1="263.3" x2="565.1" y2="278.1" stroke="#dc2626" stroke-width="1"/><rect x="562.5" y="264.1" width="5.3" height="6.5" fill="#dc2626" opacity="0.82" rx="1"/>
<line x1="573.8" y1="270.3" x2="573.8" y2="284.8" stroke="#dc2626" stroke-width="1"/><rect x="571.1" y="270.6" width="5.3" height="11.1" fill="#dc2626" opacity="0.82" rx="1"/>
<line x1="582.4" y1="278.9" x2="582.4" y2="291.5" stroke="#dc2626" stroke-width="1"/><rect x="579.8" y="281.7" width="5.3" height="9.1" fill="#dc2626" opacity="0.82" rx="1"/>
<line x1="591.1" y1="253.0" x2="591.1" y2="295.1" stroke="#16a34a" stroke-width="1"/><rect x="588.4" y="257.0" width="5.3" height="33.9" fill="#16a34a" opacity="0.82" rx="1"/>
<line x1="599.8" y1="238.4" x2="599.8" y2="265.5" stroke="#16a34a" stroke-width="1"/><rect x="597.1" y="256.9" width="5.3" height="1.2" fill="#16a34a" opacity="0.82" rx="1"/>
<line x1="608.4" y1="254.8" x2="608.4" y2="281.0" stroke="#dc2626" stroke-width="1"/><rect x="605.8" y="256.9" width="5.3" height="14.9" fill="#dc2626" opacity="0.82" rx="1"/>
<line x1="617.1" y1="237.8" x2="617.1" y2="274.9" stroke="#16a34a" stroke-width="1"/><rect x="614.4" y="247.1" width="5.3" height="24.6" fill="#16a34a" opacity="0.82" rx="1"/>
<line x1="625.7" y1="232.4" x2="625.7" y2="256.6" stroke="#16a34a" stroke-width="1"/><rect x="623.1" y="233.9" width="5.3" height="13.2" fill="#16a34a" opacity="0.82" rx="1"/>
<line x1="634.4" y1="226.7" x2="634.4" y2="240.0" stroke="#16a34a" stroke-width="1"/><rect x="631.7" y="232.3" width="5.3" height="1.6" fill="#16a34a" opacity="0.82" rx="1"/>
<line x1="643.0" y1="188.8" x2="643.0" y2="238.3" stroke="#16a34a" stroke-width="1"/><rect x="640.4" y="188.8" width="5.3" height="43.6" fill="#16a34a" opacity="0.82" rx="1"/>
<line x1="651.7" y1="139.4" x2="651.7" y2="189.6" stroke="#16a34a" stroke-width="1"/><rect x="649.0" y="165.0" width="5.3" height="23.9" fill="#16a34a" opacity="0.82" rx="1"/>
<line x1="660.3" y1="143.4" x2="660.3" y2="192.4" stroke="#dc2626" stroke-width="1"/><rect x="657.7" y="165.0" width="5.3" height="25.5" fill="#dc2626" opacity="0.82" rx="1"/>
<line x1="669.0" y1="156.6" x2="669.0" y2="194.2" stroke="#16a34a" stroke-width="1"/><rect x="666.3" y="164.2" width="5.3" height="26.3" fill="#16a34a" opacity="0.82" rx="1"/>
<line x1="677.6" y1="127.3" x2="677.6" y2="164.8" stroke="#16a34a" stroke-width="1"/><rect x="675.0" y="138.4" width="5.3" height="25.7" fill="#16a34a" opacity="0.82" rx="1"/>
<line x1="686.3" y1="131.1" x2="686.3" y2="151.4" stroke="#dc2626" stroke-width="1"/><rect x="683.6" y="138.3" width="5.3" height="10.6" fill="#dc2626" opacity="0.82" rx="1"/>
<line x1="694.9" y1="125.7" x2="694.9" y2="165.2" stroke="#dc2626" stroke-width="1"/><rect x="692.3" y="148.9" width="5.3" height="10.1" fill="#dc2626" opacity="0.82" rx="1"/>
<line x1="703.6" y1="134.8" x2="703.6" y2="174.7" stroke="#dc2626" stroke-width="1"/><rect x="700.9" y="159.1" width="5.3" height="12.0" fill="#dc2626" opacity="0.82" rx="1"/>
<line x1="712.2" y1="142.3" x2="712.2" y2="179.8" stroke="#16a34a" stroke-width="1"/><rect x="709.6" y="146.2" width="5.3" height="24.9" fill="#16a34a" opacity="0.82" rx="1"/>
<line x1="720.9" y1="108.7" x2="720.9" y2="153.9" stroke="#16a34a" stroke-width="1"/><rect x="718.2" y="127.8" width="5.3" height="18.4" fill="#16a34a" opacity="0.82" rx="1"/>
<line x1="729.5" y1="100.9" x2="729.5" y2="130.4" stroke="#16a34a" stroke-width="1"/><rect x="726.9" y="103.1" width="5.3" height="24.8" fill="#16a34a" opacity="0.82" rx="1"/>
<line x1="738.2" y1="72.4" x2="738.2" y2="108.3" stroke="#16a34a" stroke-width="1"/><rect x="735.5" y="79.1" width="5.3" height="23.9" fill="#16a34a" opacity="0.82" rx="1"/>
<line x1="746.8" y1="55.1" x2="746.8" y2="89.6" stroke="#16a34a" stroke-width="1"/><rect x="744.2" y="69.4" width="5.3" height="9.5" fill="#16a34a" opacity="0.82" rx="1"/>
<line x1="755.5" y1="56.3" x2="755.5" y2="106.0" stroke="#dc2626" stroke-width="1"/><rect x="752.8" y="69.4" width="5.3" height="23.9" fill="#dc2626" opacity="0.82" rx="1"/>
<line x1="764.1" y1="56.5" x2="764.1" y2="103.2" stroke="#16a34a" stroke-width="1"/><rect x="761.5" y="63.1" width="5.3" height="30.2" fill="#16a34a" opacity="0.82" rx="1"/>
<line x1="772.8" y1="57.2" x2="772.8" y2="136.8" stroke="#dc2626" stroke-width="1"/><rect x="770.1" y="63.1" width="5.3" height="64.7" fill="#dc2626" opacity="0.82" rx="1"/>
<line x1="781.4" y1="117.5" x2="781.4" y2="177.0" stroke="#dc2626" stroke-width="1"/><rect x="778.8" y="127.7" width="5.3" height="29.3" fill="#dc2626" opacity="0.82" rx="1"/>
<line x1="790.1" y1="148.2" x2="790.1" y2="184.7" stroke="#dc2626" stroke-width="1"/><rect x="787.4" y="157.1" width="5.3" height="21.0" fill="#dc2626" opacity="0.82" rx="1"/>
<line x1="798.7" y1="153.1" x2="798.7" y2="180.7" stroke="#16a34a" stroke-width="1"/><rect x="796.1" y="157.5" width="5.3" height="20.5" fill="#16a34a" opacity="0.82" rx="1"/>
<line x1="807.4" y1="119.0" x2="807.4" y2="160.4" stroke="#16a34a" stroke-width="1"/><rect x="804.7" y="131.5" width="5.3" height="26.1" fill="#16a34a" opacity="0.82" rx="1"/>
<line x1="816.0" y1="130.2" x2="816.0" y2="173.2" stroke="#dc2626" stroke-width="1"/><rect x="813.4" y="131.4" width="5.3" height="38.7" fill="#dc2626" opacity="0.82" rx="1"/>
<line x1="824.7" y1="166.4" x2="824.7" y2="203.0" stroke="#dc2626" stroke-width="1"/><rect x="822.0" y="170.1" width="5.3" height="28.6" fill="#dc2626" opacity="0.82" rx="1"/>
<line x1="833.3" y1="158.2" x2="833.3" y2="201.5" stroke="#16a34a" stroke-width="1"/><rect x="830.7" y="162.7" width="5.3" height="35.9" fill="#16a34a" opacity="0.82" rx="1"/>
<line x1="842.0" y1="157.8" x2="842.0" y2="176.4" stroke="#dc2626" stroke-width="1"/><rect x="839.3" y="162.7" width="5.3" height="3.9" fill="#dc2626" opacity="0.82" rx="1"/>
<line x1="72" y1="229.1" x2="842" y2="229.1" stroke="#16a34a" stroke-width="1.8" stroke-dasharray="6 4" /><rect x="688" y="209.1" width="146" height="23" rx="5" fill="#ffffff" stroke="#16a34a" opacity="0.97"/><text x="695" y="225.1" fill="#16a34a" font-size="15" font-weight="700">支撑 48.51</text>
<line x1="72" y1="62.6" x2="842" y2="62.6" stroke="#dc2626" stroke-width="1.8" stroke-dasharray="6 4" /><rect x="688" y="42.6" width="146" height="23" rx="5" fill="#ffffff" stroke="#dc2626" opacity="0.97"/><text x="695" y="58.6" fill="#dc2626" font-size="15" font-weight="700">压力 74.64</text>
<line x1="72" y1="166.7" x2="842" y2="166.7" stroke="#111827" stroke-width="1.8" stroke-dasharray="2 2" /><rect x="688" y="146.7" width="146" height="23" rx="5" fill="#ffffff" stroke="#111827" opacity="0.97"/><text x="695" y="162.7" fill="#111827" font-size="15" font-weight="700">现价 58.31</text>
<text x="72" y="396" fill="#16a34a" font-size="14" font-weight="700">日线做多计划</text><rect x="72" y="404" width="770" height="48" rx="6" fill="#f9fafb" stroke="#e5e7eb"/><line x1="94" y1="412" x2="820" y2="412" stroke="#16a34a" stroke-width="3"/><circle cx="132.0" cy="412" r="5" fill="#16a34a"/><text x="132.0" y="434" fill="#374151" font-size="12" text-anchor="middle">入场 止跌/突破回踩</text><circle cx="441.6" cy="412" r="5" fill="#16a34a"/><text x="441.6" y="434" fill="#374151" font-size="12" text-anchor="middle">止损 48.51</text><circle cx="692.0" cy="412" r="5" fill="#16a34a"/><text x="692.0" y="434" fill="#374151" font-size="12" text-anchor="middle">目标一 74.64</text><circle cx="794.0" cy="412" r="5" fill="#16a34a"/><text x="794.0" y="434" fill="#374151" font-size="12" text-anchor="middle">目标二 84.44</text>
<text x="72" y="482" fill="#dc2626" font-size="14" font-weight="700">日线做空计划</text><rect x="72" y="490" width="770" height="48" rx="6" fill="#f9fafb" stroke="#e5e7eb"/><line x1="94" y1="498" x2="820" y2="498" stroke="#dc2626" stroke-width="3"/><circle cx="132.0" cy="498" r="5" fill="#dc2626"/><text x="132.0" y="520" fill="#374151" font-size="12" text-anchor="middle">入场 反弹承压/破位回抽</text><circle cx="441.6" cy="498" r="5" fill="#dc2626"/><text x="441.6" y="520" fill="#374151" font-size="12" text-anchor="middle">止损 74.64</text><circle cx="692.0" cy="498" r="5" fill="#dc2626"/><text x="692.0" y="520" fill="#374151" font-size="12" text-anchor="middle">目标一 48.51</text><circle cx="794.0" cy="498" r="5" fill="#dc2626"/><text x="794.0" y="520" fill="#374151" font-size="12" text-anchor="middle">目标二 41.98</text>
</svg>