<svg xmlns="http://www.w3.org/2000/svg" width="1080" height="560" viewBox="0 0 1080 560">
<rect width="100%" height="100%" fill="#ffffff"/>
<text x="72" y="23" fill="#111827" font-size="21" font-weight="800">HYPE 日线K线支撑压力图</text>
<text x="862" y="42" fill="#374151" font-size="15" text-anchor="end">最新价 67.05</text>
<line x1="72" y1="34" x2="72" y2="340" stroke="#d1d5db"/>
<line x1="72" y1="340" x2="862" y2="340" stroke="#d1d5db"/>
<line x1="72" y1="340.0" x2="862" y2="340.0" stroke="#f3f4f6"/>
<text x="8" y="345.0" fill="#4b5563" font-size="14">35.06</text>
<line x1="72" y1="263.5" x2="862" y2="263.5" stroke="#f3f4f6"/>
<text x="8" y="268.5" fill="#4b5563" font-size="14">46.32</text>
<line x1="72" y1="187.0" x2="862" y2="187.0" stroke="#f3f4f6"/>
<text x="8" y="192.0" fill="#4b5563" font-size="14">57.58</text>
<line x1="72" y1="110.5" x2="862" y2="110.5" stroke="#f3f4f6"/>
<text x="8" y="115.5" fill="#4b5563" font-size="14">68.84</text>
<line x1="72" y1="34.0" x2="862" y2="34.0" stroke="#f3f4f6"/>
<text x="8" y="39.0" fill="#4b5563" font-size="14">80.11</text>
<line x1="72.0" y1="287.3" x2="72.0" y2="305.1" stroke="#dc2626" stroke-width="1"/><rect x="69.3" y="290.9" width="5.4" height="9.7" fill="#dc2626" opacity="0.82" rx="1"/>
<line x1="80.9" y1="275.1" x2="80.9" y2="301.1" stroke="#16a34a" stroke-width="1"/><rect x="78.2" y="277.0" width="5.4" height="23.7" fill="#16a34a" opacity="0.82" rx="1"/>
<line x1="89.8" y1="270.2" x2="89.8" y2="286.6" stroke="#dc2626" stroke-width="1"/><rect x="87.0" y="277.0" width="5.4" height="5.4" fill="#dc2626" opacity="0.82" rx="1"/>
<line x1="98.6" y1="269.3" x2="98.6" y2="285.1" stroke="#16a34a" stroke-width="1"/><rect x="95.9" y="274.9" width="5.4" height="7.5" fill="#16a34a" opacity="0.82" rx="1"/>
<line x1="107.5" y1="267.3" x2="107.5" y2="284.0" stroke="#dc2626" stroke-width="1"/><rect x="104.8" y="274.9" width="5.4" height="5.6" fill="#dc2626" opacity="0.82" rx="1"/>
<line x1="116.4" y1="269.1" x2="116.4" y2="284.9" stroke="#16a34a" stroke-width="1"/><rect x="113.7" y="275.0" width="5.4" height="5.5" fill="#16a34a" opacity="0.82" rx="1"/>
<line x1="125.3" y1="269.4" x2="125.3" y2="281.2" stroke="#dc2626" stroke-width="1"/><rect x="122.5" y="275.0" width="5.4" height="5.7" fill="#dc2626" opacity="0.82" rx="1"/>
<line x1="134.1" y1="279.7" x2="134.1" y2="303.0" stroke="#dc2626" stroke-width="1"/><rect x="131.4" y="280.7" width="5.4" height="21.0" fill="#dc2626" opacity="0.82" rx="1"/>
<line x1="143.0" y1="294.3" x2="143.0" y2="302.6" stroke="#16a34a" stroke-width="1"/><rect x="140.3" y="301.6" width="5.4" height="1.2" fill="#16a34a" opacity="0.82" rx="1"/>
<line x1="151.9" y1="296.7" x2="151.9" y2="314.0" stroke="#dc2626" stroke-width="1"/><rect x="149.2" y="301.7" width="5.4" height="6.4" fill="#dc2626" opacity="0.82" rx="1"/>
<line x1="160.8" y1="294.5" x2="160.8" y2="309.0" stroke="#16a34a" stroke-width="1"/><rect x="158.0" y="298.6" width="5.4" height="9.5" fill="#16a34a" opacity="0.82" rx="1"/>
<line x1="169.6" y1="293.8" x2="169.6" y2="302.9" stroke="#16a34a" stroke-width="1"/><rect x="166.9" y="297.6" width="5.4" height="1.2" fill="#16a34a" opacity="0.82" rx="1"/>
<line x1="178.5" y1="296.0" x2="178.5" y2="301.8" stroke="#dc2626" stroke-width="1"/><rect x="175.8" y="297.5" width="5.4" height="1.2" fill="#dc2626" opacity="0.82" rx="1"/>
<line x1="187.4" y1="293.5" x2="187.4" y2="300.8" stroke="#16a34a" stroke-width="1"/><rect x="184.7" y="296.2" width="5.4" height="2.2" fill="#16a34a" opacity="0.82" rx="1"/>
<line x1="196.3" y1="288.7" x2="196.3" y2="300.0" stroke="#16a34a" stroke-width="1"/><rect x="193.5" y="289.7" width="5.4" height="6.5" fill="#16a34a" opacity="0.82" rx="1"/>
<line x1="205.1" y1="282.2" x2="205.1" y2="297.8" stroke="#dc2626" stroke-width="1"/><rect x="202.4" y="289.7" width="5.4" height="5.5" fill="#dc2626" opacity="0.82" rx="1"/>
<line x1="214.0" y1="294.0" x2="214.0" y2="310.6" stroke="#dc2626" stroke-width="1"/><rect x="211.3" y="295.2" width="5.4" height="10.1" fill="#dc2626" opacity="0.82" rx="1"/>
<line x1="222.9" y1="301.0" x2="222.9" y2="312.1" stroke="#dc2626" stroke-width="1"/><rect x="220.2" y="305.3" width="5.4" height="1.5" fill="#dc2626" opacity="0.82" rx="1"/>
<line x1="231.8" y1="304.2" x2="231.8" y2="315.2" stroke="#dc2626" stroke-width="1"/><rect x="229.1" y="306.9" width="5.4" height="1.7" fill="#dc2626" opacity="0.82" rx="1"/>
<line x1="240.7" y1="298.7" x2="240.7" y2="308.7" stroke="#16a34a" stroke-width="1"/><rect x="237.9" y="298.8" width="5.4" height="9.8" fill="#16a34a" opacity="0.82" rx="1"/>
<line x1="249.5" y1="289.8" x2="249.5" y2="299.7" stroke="#16a34a" stroke-width="1"/><rect x="246.8" y="297.9" width="5.4" height="1.2" fill="#16a34a" opacity="0.82" rx="1"/>
<line x1="258.4" y1="294.7" x2="258.4" y2="301.8" stroke="#16a34a" stroke-width="1"/><rect x="255.7" y="295.9" width="5.4" height="2.0" fill="#16a34a" opacity="0.82" rx="1"/>
<line x1="267.3" y1="288.8" x2="267.3" y2="300.9" stroke="#16a34a" stroke-width="1"/><rect x="264.6" y="294.1" width="5.4" height="1.8" fill="#16a34a" opacity="0.82" rx="1"/>
<line x1="276.2" y1="275.0" x2="276.2" y2="294.4" stroke="#16a34a" stroke-width="1"/><rect x="273.4" y="281.2" width="5.4" height="12.9" fill="#16a34a" opacity="0.82" rx="1"/>
<line x1="285.0" y1="274.1" x2="285.0" y2="286.7" stroke="#dc2626" stroke-width="1"/><rect x="282.3" y="281.2" width="5.4" height="4.0" fill="#dc2626" opacity="0.82" rx="1"/>
<line x1="293.9" y1="282.3" x2="293.9" y2="293.8" stroke="#dc2626" stroke-width="1"/><rect x="291.2" y="285.2" width="5.4" height="4.1" fill="#dc2626" opacity="0.82" rx="1"/>
<line x1="302.8" y1="282.7" x2="302.8" y2="292.6" stroke="#16a34a" stroke-width="1"/><rect x="300.1" y="284.2" width="5.4" height="5.0" fill="#16a34a" opacity="0.82" rx="1"/>
<line x1="311.7" y1="276.4" x2="311.7" y2="287.2" stroke="#dc2626" stroke-width="1"/><rect x="308.9" y="284.2" width="5.4" height="2.4" fill="#dc2626" opacity="0.82" rx="1"/>
<line x1="320.5" y1="281.3" x2="320.5" y2="292.1" stroke="#16a34a" stroke-width="1"/><rect x="317.8" y="286.0" width="5.4" height="1.2" fill="#16a34a" opacity="0.82" rx="1"/>
<line x1="329.4" y1="285.0" x2="329.4" y2="300.8" stroke="#dc2626" stroke-width="1"/><rect x="326.7" y="285.9" width="5.4" height="6.9" fill="#dc2626" opacity="0.82" rx="1"/>
<line x1="338.3" y1="292.5" x2="338.3" y2="307.9" stroke="#dc2626" stroke-width="1"/><rect x="335.6" y="292.8" width="5.4" height="11.8" fill="#dc2626" opacity="0.82" rx="1"/>
<line x1="347.2" y1="301.6" x2="347.2" y2="315.1" stroke="#dc2626" stroke-width="1"/><rect x="344.4" y="304.7" width="5.4" height="9.8" fill="#dc2626" opacity="0.82" rx="1"/>
<line x1="356.0" y1="274.1" x2="356.0" y2="318.9" stroke="#16a34a" stroke-width="1"/><rect x="353.3" y="278.3" width="5.4" height="36.1" fill="#16a34a" opacity="0.82" rx="1"/>
<line x1="364.9" y1="258.5" x2="364.9" y2="287.4" stroke="#16a34a" stroke-width="1"/><rect x="362.2" y="278.2" width="5.4" height="1.2" fill="#16a34a" opacity="0.82" rx="1"/>
<line x1="373.8" y1="276.0" x2="373.8" y2="303.9" stroke="#dc2626" stroke-width="1"/><rect x="371.1" y="278.2" width="5.4" height="15.9" fill="#dc2626" opacity="0.82" rx="1"/>
<line x1="382.7" y1="257.9" x2="382.7" y2="297.4" stroke="#16a34a" stroke-width="1"/><rect x="380.0" y="267.8" width="5.4" height="26.3" fill="#16a34a" opacity="0.82" rx="1"/>
<line x1="391.6" y1="252.1" x2="391.6" y2="277.9" stroke="#16a34a" stroke-width="1"/><rect x="388.8" y="253.7" width="5.4" height="14.1" fill="#16a34a" opacity="0.82" rx="1"/>
<line x1="400.4" y1="246.0" x2="400.4" y2="260.2" stroke="#16a34a" stroke-width="1"/><rect x="397.7" y="252.0" width="5.4" height="1.7" fill="#16a34a" opacity="0.82" rx="1"/>
<line x1="409.3" y1="205.6" x2="409.3" y2="258.3" stroke="#16a34a" stroke-width="1"/><rect x="406.6" y="205.7" width="5.4" height="46.4" fill="#16a34a" opacity="0.82" rx="1"/>
<line x1="418.2" y1="152.9" x2="418.2" y2="206.5" stroke="#16a34a" stroke-width="1"/><rect x="415.5" y="180.2" width="5.4" height="25.5" fill="#16a34a" opacity="0.82" rx="1"/>
<line x1="427.1" y1="157.3" x2="427.1" y2="209.4" stroke="#dc2626" stroke-width="1"/><rect x="424.3" y="180.3" width="5.4" height="27.1" fill="#dc2626" opacity="0.82" rx="1"/>
<line x1="435.9" y1="171.3" x2="435.9" y2="211.3" stroke="#16a34a" stroke-width="1"/><rect x="433.2" y="179.4" width="5.4" height="28.0" fill="#16a34a" opacity="0.82" rx="1"/>
<line x1="444.8" y1="140.0" x2="444.8" y2="180.0" stroke="#16a34a" stroke-width="1"/><rect x="442.1" y="151.9" width="5.4" height="27.4" fill="#16a34a" opacity="0.82" rx="1"/>
<line x1="453.7" y1="144.1" x2="453.7" y2="165.8" stroke="#dc2626" stroke-width="1"/><rect x="451.0" y="151.8" width="5.4" height="11.3" fill="#dc2626" opacity="0.82" rx="1"/>
<line x1="462.6" y1="138.4" x2="462.6" y2="180.4" stroke="#dc2626" stroke-width="1"/><rect x="459.8" y="163.1" width="5.4" height="10.8" fill="#dc2626" opacity="0.82" rx="1"/>
<line x1="471.4" y1="148.0" x2="471.4" y2="190.5" stroke="#dc2626" stroke-width="1"/><rect x="468.7" y="173.9" width="5.4" height="12.8" fill="#dc2626" opacity="0.82" rx="1"/>
<line x1="480.3" y1="156.1" x2="480.3" y2="196.0" stroke="#16a34a" stroke-width="1"/><rect x="477.6" y="160.3" width="5.4" height="26.5" fill="#16a34a" opacity="0.82" rx="1"/>
<line x1="489.2" y1="120.2" x2="489.2" y2="168.4" stroke="#16a34a" stroke-width="1"/><rect x="486.5" y="140.6" width="5.4" height="19.6" fill="#16a34a" opacity="0.82" rx="1"/>
<line x1="498.1" y1="111.9" x2="498.1" y2="143.4" stroke="#16a34a" stroke-width="1"/><rect x="495.3" y="114.3" width="5.4" height="26.4" fill="#16a34a" opacity="0.82" rx="1"/>
<line x1="506.9" y1="81.5" x2="506.9" y2="119.8" stroke="#16a34a" stroke-width="1"/><rect x="504.2" y="88.7" width="5.4" height="25.5" fill="#16a34a" opacity="0.82" rx="1"/>
<line x1="515.8" y1="63.1" x2="515.8" y2="99.8" stroke="#16a34a" stroke-width="1"/><rect x="513.1" y="78.3" width="5.4" height="10.1" fill="#16a34a" opacity="0.82" rx="1"/>
<line x1="524.7" y1="64.3" x2="524.7" y2="117.3" stroke="#dc2626" stroke-width="1"/><rect x="522.0" y="78.3" width="5.4" height="25.5" fill="#dc2626" opacity="0.82" rx="1"/>
<line x1="533.6" y1="64.6" x2="533.6" y2="114.4" stroke="#16a34a" stroke-width="1"/><rect x="530.9" y="71.6" width="5.4" height="32.2" fill="#16a34a" opacity="0.82" rx="1"/>
<line x1="542.4" y1="65.3" x2="542.4" y2="150.2" stroke="#dc2626" stroke-width="1"/><rect x="539.7" y="71.6" width="5.4" height="68.9" fill="#dc2626" opacity="0.82" rx="1"/>
<line x1="551.3" y1="129.6" x2="551.3" y2="193.1" stroke="#dc2626" stroke-width="1"/><rect x="548.6" y="140.5" width="5.4" height="31.3" fill="#dc2626" opacity="0.82" rx="1"/>
<line x1="560.2" y1="162.3" x2="560.2" y2="201.3" stroke="#dc2626" stroke-width="1"/><rect x="557.5" y="171.9" width="5.4" height="22.4" fill="#dc2626" opacity="0.82" rx="1"/>
<line x1="569.1" y1="167.6" x2="569.1" y2="197.0" stroke="#16a34a" stroke-width="1"/><rect x="566.4" y="172.3" width="5.4" height="21.9" fill="#16a34a" opacity="0.82" rx="1"/>
<line x1="578.0" y1="131.2" x2="578.0" y2="175.3" stroke="#16a34a" stroke-width="1"/><rect x="575.2" y="144.5" width="5.4" height="27.8" fill="#16a34a" opacity="0.82" rx="1"/>
<line x1="586.8" y1="143.1" x2="586.8" y2="189.0" stroke="#dc2626" stroke-width="1"/><rect x="584.1" y="144.5" width="5.4" height="41.3" fill="#dc2626" opacity="0.82" rx="1"/>
<line x1="595.7" y1="181.8" x2="595.7" y2="220.8" stroke="#dc2626" stroke-width="1"/><rect x="593.0" y="185.6" width="5.4" height="30.5" fill="#dc2626" opacity="0.82" rx="1"/>
<line x1="604.6" y1="173.0" x2="604.6" y2="219.1" stroke="#16a34a" stroke-width="1"/><rect x="601.9" y="177.8" width="5.4" height="38.3" fill="#16a34a" opacity="0.82" rx="1"/>
<line x1="613.5" y1="154.1" x2="613.5" y2="192.4" stroke="#16a34a" stroke-width="1"/><rect x="610.7" y="175.6" width="5.4" height="2.3" fill="#16a34a" opacity="0.82" rx="1"/>
<line x1="622.3" y1="164.6" x2="622.3" y2="189.8" stroke="#16a34a" stroke-width="1"/><rect x="619.6" y="165.8" width="5.4" height="9.8" fill="#16a34a" opacity="0.82" rx="1"/>
<line x1="631.2" y1="142.5" x2="631.2" y2="173.3" stroke="#16a34a" stroke-width="1"/><rect x="628.5" y="143.9" width="5.4" height="22.0" fill="#16a34a" opacity="0.82" rx="1"/>
<line x1="640.1" y1="111.5" x2="640.1" y2="149.4" stroke="#16a34a" stroke-width="1"/><rect x="637.4" y="123.8" width="5.4" height="20.1" fill="#16a34a" opacity="0.82" rx="1"/>
<line x1="649.0" y1="55.1" x2="649.0" y2="127.4" stroke="#16a34a" stroke-width="1"/><rect x="646.2" y="78.3" width="5.4" height="45.4" fill="#16a34a" opacity="0.82" rx="1"/>
<line x1="657.8" y1="56.6" x2="657.8" y2="103.0" stroke="#dc2626" stroke-width="1"/><rect x="655.1" y="78.3" width="5.4" height="16.6" fill="#dc2626" opacity="0.82" rx="1"/>
<line x1="666.7" y1="77.3" x2="666.7" y2="126.1" stroke="#dc2626" stroke-width="1"/><rect x="664.0" y="94.9" width="5.4" height="19.0" fill="#dc2626" opacity="0.82" rx="1"/>
<line x1="675.6" y1="93.2" x2="675.6" y2="132.3" stroke="#16a34a" stroke-width="1"/><rect x="672.9" y="100.9" width="5.4" height="13.0" fill="#16a34a" opacity="0.82" rx="1"/>
<line x1="684.5" y1="93.0" x2="684.5" y2="113.5" stroke="#16a34a" stroke-width="1"/><rect x="681.8" y="97.6" width="5.4" height="3.3" fill="#16a34a" opacity="0.82" rx="1"/>
<line x1="693.3" y1="96.4" x2="693.3" y2="126.2" stroke="#dc2626" stroke-width="1"/><rect x="690.6" y="97.6" width="5.4" height="26.1" fill="#dc2626" opacity="0.82" rx="1"/>
<line x1="702.2" y1="105.5" x2="702.2" y2="135.9" stroke="#dc2626" stroke-width="1"/><rect x="699.5" y="123.7" width="5.4" height="4.4" fill="#dc2626" opacity="0.82" rx="1"/>
<line x1="711.1" y1="120.7" x2="711.1" y2="159.6" stroke="#dc2626" stroke-width="1"/><rect x="708.4" y="128.1" width="5.4" height="27.9" fill="#dc2626" opacity="0.82" rx="1"/>
<line x1="720.0" y1="141.6" x2="720.0" y2="177.0" stroke="#16a34a" stroke-width="1"/><rect x="717.3" y="144.2" width="5.4" height="11.8" fill="#16a34a" opacity="0.82" rx="1"/>
<line x1="728.9" y1="133.9" x2="728.9" y2="181.9" stroke="#16a34a" stroke-width="1"/><rect x="726.1" y="142.9" width="5.4" height="1.2" fill="#16a34a" opacity="0.82" rx="1"/>
<line x1="737.7" y1="133.7" x2="737.7" y2="164.5" stroke="#16a34a" stroke-width="1"/><rect x="735.0" y="141.2" width="5.4" height="1.8" fill="#16a34a" opacity="0.82" rx="1"/>
<line x1="746.6" y1="138.6" x2="746.6" y2="160.8" stroke="#dc2626" stroke-width="1"/><rect x="743.9" y="141.1" width="5.4" height="18.4" fill="#dc2626" opacity="0.82" rx="1"/>
<line x1="755.5" y1="146.7" x2="755.5" y2="166.8" stroke="#dc2626" stroke-width="1"/><rect x="752.8" y="159.6" width="5.4" height="1.5" fill="#dc2626" opacity="0.82" rx="1"/>
<line x1="764.4" y1="117.9" x2="764.4" y2="165.9" stroke="#16a34a" stroke-width="1"/><rect x="761.6" y="123.7" width="5.4" height="37.3" fill="#16a34a" opacity="0.82" rx="1"/>
<line x1="773.2" y1="123.5" x2="773.2" y2="142.7" stroke="#dc2626" stroke-width="1"/><rect x="770.5" y="123.8" width="5.4" height="12.7" fill="#dc2626" opacity="0.82" rx="1"/>
<line x1="782.1" y1="129.8" x2="782.1" y2="158.1" stroke="#dc2626" stroke-width="1"/><rect x="779.4" y="136.4" width="5.4" height="18.2" fill="#dc2626" opacity="0.82" rx="1"/>
<line x1="791.0" y1="122.1" x2="791.0" y2="159.4" stroke="#16a34a" stroke-width="1"/><rect x="788.3" y="123.7" width="5.4" height="30.9" fill="#16a34a" opacity="0.82" rx="1"/>
<line x1="799.9" y1="94.1" x2="799.9" y2="130.9" stroke="#16a34a" stroke-width="1"/><rect x="797.1" y="98.3" width="5.4" height="25.4" fill="#16a34a" opacity="0.82" rx="1"/>
<line x1="808.7" y1="89.1" x2="808.7" y2="107.0" stroke="#dc2626" stroke-width="1"/><rect x="806.0" y="98.3" width="5.4" height="5.5" fill="#dc2626" opacity="0.82" rx="1"/>
<line x1="817.6" y1="91.1" x2="817.6" y2="114.8" stroke="#16a34a" stroke-width="1"/><rect x="814.9" y="93.6" width="5.4" height="10.1" fill="#16a34a" opacity="0.82" rx="1"/>
<line x1="826.5" y1="85.0" x2="826.5" y2="112.0" stroke="#dc2626" stroke-width="1"/><rect x="823.8" y="93.6" width="5.4" height="5.1" fill="#dc2626" opacity="0.82" rx="1"/>
<line x1="835.4" y1="82.9" x2="835.4" y2="110.8" stroke="#dc2626" stroke-width="1"/><rect x="832.6" y="98.7" width="5.4" height="9.7" fill="#dc2626" opacity="0.82" rx="1"/>
<line x1="844.2" y1="104.4" x2="844.2" y2="129.1" stroke="#dc2626" stroke-width="1"/><rect x="841.5" y="108.4" width="5.4" height="10.4" fill="#dc2626" opacity="0.82" rx="1"/>
<line x1="853.1" y1="111.4" x2="853.1" y2="126.1" stroke="#dc2626" stroke-width="1"/><rect x="850.4" y="118.8" width="5.4" height="3.7" fill="#dc2626" opacity="0.82" rx="1"/>
<line x1="862.0" y1="122.4" x2="862.0" y2="123.5" stroke="#dc2626" stroke-width="1"/><rect x="859.3" y="122.5" width="5.4" height="1.2" fill="#dc2626" opacity="0.82" rx="1"/>
<line x1="72" y1="160.1" x2="862" y2="160.1" stroke="#16a34a" stroke-width="1.8" stroke-dasharray="6 4" /><rect x="874" y="140.1" width="166" height="23" rx="5" fill="#ffffff" stroke="#16a34a" opacity="0.97"/><text x="881" y="156.1" fill="#16a34a" font-size="15" font-weight="700">支撑 61.55</text>
<line x1="72" y1="60.3" x2="862" y2="60.3" stroke="#dc2626" stroke-width="1.8" stroke-dasharray="6 4" /><rect x="874" y="40.3" width="166" height="23" rx="5" fill="#ffffff" stroke="#dc2626" opacity="0.97"/><text x="881" y="56.3" fill="#dc2626" font-size="15" font-weight="700">压力 76.23</text>
<line x1="72" y1="122.7" x2="862" y2="122.7" stroke="#111827" stroke-width="1.8" stroke-dasharray="2 2" /><rect x="874" y="102.7" width="166" height="23" rx="5" fill="#ffffff" stroke="#111827" opacity="0.97"/><text x="881" y="118.7" fill="#111827" font-size="15" font-weight="700">现价 67.05</text>
<text x="72" y="396" fill="#16a34a" font-size="14" font-weight="700">日线做多计划</text><rect x="72" y="404" width="790" height="48" rx="6" fill="#f9fafb" stroke="#e5e7eb"/><line x1="94" y1="412" x2="840" y2="412" stroke="#16a34a" stroke-width="3"/><circle cx="132.0" cy="412" r="5" fill="#16a34a"/><text x="132.0" y="434" fill="#374151" font-size="12" text-anchor="middle">入场 止跌/突破回踩</text><circle cx="451.2" cy="412" r="5" fill="#16a34a"/><text x="451.2" y="434" fill="#374151" font-size="12" text-anchor="middle">止损 61.55</text><circle cx="712.0" cy="412" r="5" fill="#16a34a"/><text x="712.0" y="434" fill="#374151" font-size="12" text-anchor="middle">目标一 76.23</text><circle cx="814.0" cy="412" r="5" fill="#16a34a"/><text x="814.0" y="434" fill="#374151" font-size="12" text-anchor="middle">目标二 81.74</text>
<text x="72" y="482" fill="#dc2626" font-size="14" font-weight="700">日线做空计划</text><rect x="72" y="490" width="790" height="48" rx="6" fill="#f9fafb" stroke="#e5e7eb"/><line x1="94" y1="498" x2="840" y2="498" stroke="#dc2626" stroke-width="3"/><circle cx="132.0" cy="498" r="5" fill="#dc2626"/><text x="132.0" y="520" fill="#374151" font-size="12" text-anchor="middle">入场 反弹承压/破位回抽</text><circle cx="451.2" cy="498" r="5" fill="#dc2626"/><text x="451.2" y="520" fill="#374151" font-size="12" text-anchor="middle">止损 76.23</text><circle cx="712.0" cy="498" r="5" fill="#dc2626"/><text x="712.0" y="520" fill="#374151" font-size="12" text-anchor="middle">目标一 61.55</text><circle cx="814.0" cy="498" r="5" fill="#dc2626"/><text x="814.0" y="520" fill="#374151" font-size="12" text-anchor="middle">目标二 57.87</text>
</svg>