<svg xmlns="http://www.w3.org/2000/svg" width="1080" height="560" viewBox="0 0 1080 560">
<rect width="100%" height="100%" fill="#ffffff"/>
<text x="72" y="23" fill="#111827" font-size="21" font-weight="800">DRAM 小时线K线支撑压力图</text>
<text x="862" y="42" fill="#374151" font-size="15" text-anchor="end">最新价 64.17</text>
<line x1="72" y1="34" x2="72" y2="340" stroke="#d1d5db"/>
<line x1="72" y1="340" x2="862" y2="340" stroke="#d1d5db"/>
<line x1="72" y1="340.0" x2="862" y2="340.0" stroke="#f3f4f6"/>
<text x="8" y="345.0" fill="#4b5563" font-size="14">55.25</text>
<line x1="72" y1="263.5" x2="862" y2="263.5" stroke="#f3f4f6"/>
<text x="8" y="268.5" fill="#4b5563" font-size="14">58.32</text>
<line x1="72" y1="187.0" x2="862" y2="187.0" stroke="#f3f4f6"/>
<text x="8" y="192.0" fill="#4b5563" font-size="14">61.38</text>
<line x1="72" y1="110.5" x2="862" y2="110.5" stroke="#f3f4f6"/>
<text x="8" y="115.5" fill="#4b5563" font-size="14">64.45</text>
<line x1="72" y1="34.0" x2="862" y2="34.0" stroke="#f3f4f6"/>
<text x="8" y="39.0" fill="#4b5563" font-size="14">67.51</text>
<line x1="72.0" y1="86.8" x2="72.0" y2="95.2" stroke="#dc2626" stroke-width="1"/><rect x="69.3" y="91.0" width="5.4" height="1.2" fill="#dc2626" opacity="0.82" rx="1"/>
<line x1="80.9" y1="84.3" x2="80.9" y2="99.2" stroke="#16a34a" stroke-width="1"/><rect x="78.2" y="91.0" width="5.4" height="1.2" fill="#16a34a" opacity="0.82" rx="1"/>
<line x1="89.8" y1="87.8" x2="89.8" y2="104.2" stroke="#dc2626" stroke-width="1"/><rect x="87.0" y="90.8" width="5.4" height="8.0" fill="#dc2626" opacity="0.82" rx="1"/>
<line x1="98.6" y1="95.0" x2="98.6" y2="103.0" stroke="#16a34a" stroke-width="1"/><rect x="95.9" y="95.5" width="5.4" height="3.2" fill="#16a34a" opacity="0.82" rx="1"/>
<line x1="107.5" y1="85.8" x2="107.5" y2="106.0" stroke="#16a34a" stroke-width="1"/><rect x="104.8" y="93.0" width="5.4" height="2.5" fill="#16a34a" opacity="0.82" rx="1"/>
<line x1="116.4" y1="82.5" x2="116.4" y2="96.5" stroke="#16a34a" stroke-width="1"/><rect x="113.7" y="85.8" width="5.4" height="7.2" fill="#16a34a" opacity="0.82" rx="1"/>
<line x1="125.3" y1="78.3" x2="125.3" y2="114.0" stroke="#dc2626" stroke-width="1"/><rect x="122.5" y="85.8" width="5.4" height="10.5" fill="#dc2626" opacity="0.82" rx="1"/>
<line x1="134.1" y1="71.5" x2="134.1" y2="98.5" stroke="#16a34a" stroke-width="1"/><rect x="131.4" y="84.0" width="5.4" height="12.0" fill="#16a34a" opacity="0.82" rx="1"/>
<line x1="143.0" y1="81.8" x2="143.0" y2="107.2" stroke="#16a34a" stroke-width="1"/><rect x="140.3" y="82.8" width="5.4" height="1.2" fill="#16a34a" opacity="0.82" rx="1"/>
<line x1="151.9" y1="76.5" x2="151.9" y2="93.0" stroke="#dc2626" stroke-width="1"/><rect x="149.2" y="83.0" width="5.4" height="9.0" fill="#dc2626" opacity="0.82" rx="1"/>
<line x1="160.8" y1="88.5" x2="160.8" y2="113.0" stroke="#dc2626" stroke-width="1"/><rect x="158.0" y="92.0" width="5.4" height="18.7" fill="#dc2626" opacity="0.82" rx="1"/>
<line x1="169.6" y1="96.7" x2="169.6" y2="110.7" stroke="#16a34a" stroke-width="1"/><rect x="166.9" y="100.2" width="5.4" height="10.5" fill="#16a34a" opacity="0.82" rx="1"/>
<line x1="178.5" y1="90.5" x2="178.5" y2="107.2" stroke="#dc2626" stroke-width="1"/><rect x="175.8" y="100.2" width="5.4" height="5.0" fill="#dc2626" opacity="0.82" rx="1"/>
<line x1="187.4" y1="95.2" x2="187.4" y2="106.0" stroke="#16a34a" stroke-width="1"/><rect x="184.7" y="95.7" width="5.4" height="9.5" fill="#16a34a" opacity="0.82" rx="1"/>
<line x1="196.3" y1="91.5" x2="196.3" y2="97.0" stroke="#16a34a" stroke-width="1"/><rect x="193.5" y="93.5" width="5.4" height="2.2" fill="#16a34a" opacity="0.82" rx="1"/>
<line x1="205.1" y1="84.5" x2="205.1" y2="141.4" stroke="#dc2626" stroke-width="1"/><rect x="202.4" y="93.2" width="5.4" height="35.9" fill="#dc2626" opacity="0.82" rx="1"/>
<line x1="214.0" y1="117.7" x2="214.0" y2="168.4" stroke="#dc2626" stroke-width="1"/><rect x="211.3" y="128.9" width="5.4" height="35.9" fill="#dc2626" opacity="0.82" rx="1"/>
<line x1="222.9" y1="133.4" x2="222.9" y2="174.6" stroke="#dc2626" stroke-width="1"/><rect x="220.2" y="165.1" width="5.4" height="6.7" fill="#dc2626" opacity="0.82" rx="1"/>
<line x1="231.8" y1="159.6" x2="231.8" y2="198.1" stroke="#dc2626" stroke-width="1"/><rect x="229.1" y="171.9" width="5.4" height="7.0" fill="#dc2626" opacity="0.82" rx="1"/>
<line x1="240.7" y1="169.6" x2="240.7" y2="200.3" stroke="#dc2626" stroke-width="1"/><rect x="237.9" y="178.6" width="5.4" height="16.0" fill="#dc2626" opacity="0.82" rx="1"/>
<line x1="249.5" y1="183.6" x2="249.5" y2="217.6" stroke="#dc2626" stroke-width="1"/><rect x="246.8" y="194.6" width="5.4" height="18.0" fill="#dc2626" opacity="0.82" rx="1"/>
<line x1="258.4" y1="203.1" x2="258.4" y2="229.8" stroke="#dc2626" stroke-width="1"/><rect x="255.7" y="212.6" width="5.4" height="8.7" fill="#dc2626" opacity="0.82" rx="1"/>
<line x1="267.3" y1="174.6" x2="267.3" y2="236.8" stroke="#16a34a" stroke-width="1"/><rect x="264.6" y="183.1" width="5.4" height="37.9" fill="#16a34a" opacity="0.82" rx="1"/>
<line x1="276.2" y1="172.6" x2="276.2" y2="202.8" stroke="#16a34a" stroke-width="1"/><rect x="273.4" y="178.1" width="5.4" height="4.5" fill="#16a34a" opacity="0.82" rx="1"/>
<line x1="285.0" y1="175.1" x2="285.0" y2="191.1" stroke="#dc2626" stroke-width="1"/><rect x="282.3" y="177.9" width="5.4" height="11.2" fill="#dc2626" opacity="0.82" rx="1"/>
<line x1="293.9" y1="182.9" x2="293.9" y2="202.1" stroke="#dc2626" stroke-width="1"/><rect x="291.2" y="188.8" width="5.4" height="11.7" fill="#dc2626" opacity="0.82" rx="1"/>
<line x1="302.8" y1="193.3" x2="302.8" y2="215.3" stroke="#dc2626" stroke-width="1"/><rect x="300.1" y="200.8" width="5.4" height="4.2" fill="#dc2626" opacity="0.82" rx="1"/>
<line x1="311.7" y1="198.3" x2="311.7" y2="212.1" stroke="#16a34a" stroke-width="1"/><rect x="308.9" y="202.3" width="5.4" height="3.0" fill="#16a34a" opacity="0.82" rx="1"/>
<line x1="320.5" y1="201.6" x2="320.5" y2="219.8" stroke="#dc2626" stroke-width="1"/><rect x="317.8" y="202.1" width="5.4" height="6.7" fill="#dc2626" opacity="0.82" rx="1"/>
<line x1="329.4" y1="189.6" x2="329.4" y2="208.8" stroke="#16a34a" stroke-width="1"/><rect x="326.7" y="203.3" width="5.4" height="5.5" fill="#16a34a" opacity="0.82" rx="1"/>
<line x1="338.3" y1="196.3" x2="338.3" y2="230.8" stroke="#dc2626" stroke-width="1"/><rect x="335.6" y="203.3" width="5.4" height="15.7" fill="#dc2626" opacity="0.82" rx="1"/>
<line x1="347.2" y1="208.8" x2="347.2" y2="264.2" stroke="#dc2626" stroke-width="1"/><rect x="344.4" y="219.3" width="5.4" height="15.0" fill="#dc2626" opacity="0.82" rx="1"/>
<line x1="356.0" y1="217.6" x2="356.0" y2="247.8" stroke="#16a34a" stroke-width="1"/><rect x="353.3" y="225.3" width="5.4" height="8.7" fill="#16a34a" opacity="0.82" rx="1"/>
<line x1="364.9" y1="202.6" x2="364.9" y2="226.5" stroke="#16a34a" stroke-width="1"/><rect x="362.2" y="210.1" width="5.4" height="15.5" fill="#16a34a" opacity="0.82" rx="1"/>
<line x1="373.8" y1="189.8" x2="373.8" y2="212.6" stroke="#16a34a" stroke-width="1"/><rect x="371.1" y="191.6" width="5.4" height="18.5" fill="#16a34a" opacity="0.82" rx="1"/>
<line x1="382.7" y1="191.3" x2="382.7" y2="224.8" stroke="#dc2626" stroke-width="1"/><rect x="380.0" y="191.6" width="5.4" height="32.4" fill="#dc2626" opacity="0.82" rx="1"/>
<line x1="391.6" y1="204.8" x2="391.6" y2="237.0" stroke="#16a34a" stroke-width="1"/><rect x="388.8" y="205.3" width="5.4" height="18.7" fill="#16a34a" opacity="0.82" rx="1"/>
<line x1="400.4" y1="196.1" x2="400.4" y2="208.1" stroke="#16a34a" stroke-width="1"/><rect x="397.7" y="197.3" width="5.4" height="8.2" fill="#16a34a" opacity="0.82" rx="1"/>
<line x1="409.3" y1="194.1" x2="409.3" y2="219.8" stroke="#dc2626" stroke-width="1"/><rect x="406.6" y="197.6" width="5.4" height="20.0" fill="#dc2626" opacity="0.82" rx="1"/>
<line x1="418.2" y1="211.3" x2="418.2" y2="223.5" stroke="#16a34a" stroke-width="1"/><rect x="415.5" y="214.1" width="5.4" height="3.5" fill="#16a34a" opacity="0.82" rx="1"/>
<line x1="427.1" y1="214.3" x2="427.1" y2="243.8" stroke="#dc2626" stroke-width="1"/><rect x="424.3" y="214.3" width="5.4" height="27.7" fill="#dc2626" opacity="0.82" rx="1"/>
<line x1="435.9" y1="145.9" x2="435.9" y2="248.8" stroke="#16a34a" stroke-width="1"/><rect x="433.2" y="147.2" width="5.4" height="95.1" fill="#16a34a" opacity="0.82" rx="1"/>
<line x1="444.8" y1="143.7" x2="444.8" y2="206.1" stroke="#dc2626" stroke-width="1"/><rect x="442.1" y="147.2" width="5.4" height="52.2" fill="#dc2626" opacity="0.82" rx="1"/>
<line x1="453.7" y1="188.6" x2="453.7" y2="217.1" stroke="#16a34a" stroke-width="1"/><rect x="451.0" y="195.3" width="5.4" height="3.5" fill="#16a34a" opacity="0.82" rx="1"/>
<line x1="462.6" y1="168.4" x2="462.6" y2="195.6" stroke="#16a34a" stroke-width="1"/><rect x="459.8" y="193.8" width="5.4" height="1.7" fill="#16a34a" opacity="0.82" rx="1"/>
<line x1="471.4" y1="192.8" x2="471.4" y2="247.3" stroke="#dc2626" stroke-width="1"/><rect x="468.7" y="193.6" width="5.4" height="29.7" fill="#dc2626" opacity="0.82" rx="1"/>
<line x1="480.3" y1="212.3" x2="480.3" y2="250.3" stroke="#dc2626" stroke-width="1"/><rect x="477.6" y="223.3" width="5.4" height="11.0" fill="#dc2626" opacity="0.82" rx="1"/>
<line x1="489.2" y1="234.0" x2="489.2" y2="259.0" stroke="#dc2626" stroke-width="1"/><rect x="486.5" y="234.0" width="5.4" height="20.2" fill="#dc2626" opacity="0.82" rx="1"/>
<line x1="498.1" y1="239.3" x2="498.1" y2="257.7" stroke="#16a34a" stroke-width="1"/><rect x="495.3" y="245.3" width="5.4" height="8.7" fill="#16a34a" opacity="0.82" rx="1"/>
<line x1="506.9" y1="241.8" x2="506.9" y2="306.2" stroke="#dc2626" stroke-width="1"/><rect x="504.2" y="245.0" width="5.4" height="50.7" fill="#dc2626" opacity="0.82" rx="1"/>
<line x1="515.8" y1="290.9" x2="515.8" y2="318.9" stroke="#dc2626" stroke-width="1"/><rect x="513.1" y="295.7" width="5.4" height="2.5" fill="#dc2626" opacity="0.82" rx="1"/>
<line x1="524.7" y1="274.7" x2="524.7" y2="301.4" stroke="#16a34a" stroke-width="1"/><rect x="522.0" y="286.4" width="5.4" height="11.7" fill="#16a34a" opacity="0.82" rx="1"/>
<line x1="533.6" y1="266.0" x2="533.6" y2="293.4" stroke="#16a34a" stroke-width="1"/><rect x="530.9" y="269.0" width="5.4" height="17.2" fill="#16a34a" opacity="0.82" rx="1"/>
<line x1="542.4" y1="246.3" x2="542.4" y2="271.7" stroke="#16a34a" stroke-width="1"/><rect x="539.7" y="261.2" width="5.4" height="8.0" fill="#16a34a" opacity="0.82" rx="1"/>
<line x1="551.3" y1="196.1" x2="551.3" y2="264.2" stroke="#16a34a" stroke-width="1"/><rect x="548.6" y="199.8" width="5.4" height="61.4" fill="#16a34a" opacity="0.82" rx="1"/>
<line x1="560.2" y1="194.3" x2="560.2" y2="233.5" stroke="#dc2626" stroke-width="1"/><rect x="557.5" y="200.3" width="5.4" height="22.2" fill="#dc2626" opacity="0.82" rx="1"/>
<line x1="569.1" y1="220.1" x2="569.1" y2="253.0" stroke="#dc2626" stroke-width="1"/><rect x="566.4" y="222.8" width="5.4" height="18.7" fill="#dc2626" opacity="0.82" rx="1"/>
<line x1="578.0" y1="204.1" x2="578.0" y2="242.0" stroke="#16a34a" stroke-width="1"/><rect x="575.2" y="205.1" width="5.4" height="36.2" fill="#16a34a" opacity="0.82" rx="1"/>
<line x1="586.8" y1="188.4" x2="586.8" y2="211.3" stroke="#dc2626" stroke-width="1"/><rect x="584.1" y="205.6" width="5.4" height="2.2" fill="#dc2626" opacity="0.82" rx="1"/>
<line x1="595.7" y1="193.6" x2="595.7" y2="209.3" stroke="#16a34a" stroke-width="1"/><rect x="593.0" y="194.6" width="5.4" height="13.5" fill="#16a34a" opacity="0.82" rx="1"/>
<line x1="604.6" y1="170.4" x2="604.6" y2="194.8" stroke="#16a34a" stroke-width="1"/><rect x="601.9" y="172.1" width="5.4" height="22.5" fill="#16a34a" opacity="0.82" rx="1"/>
<line x1="613.5" y1="170.1" x2="613.5" y2="191.3" stroke="#dc2626" stroke-width="1"/><rect x="610.7" y="171.9" width="5.4" height="9.5" fill="#dc2626" opacity="0.82" rx="1"/>
<line x1="622.3" y1="164.9" x2="622.3" y2="182.1" stroke="#16a34a" stroke-width="1"/><rect x="619.6" y="166.9" width="5.4" height="14.7" fill="#16a34a" opacity="0.82" rx="1"/>
<line x1="631.2" y1="162.4" x2="631.2" y2="172.4" stroke="#16a34a" stroke-width="1"/><rect x="628.5" y="162.4" width="5.4" height="4.5" fill="#16a34a" opacity="0.82" rx="1"/>
<line x1="640.1" y1="149.2" x2="640.1" y2="181.9" stroke="#16a34a" stroke-width="1"/><rect x="637.4" y="150.4" width="5.4" height="12.0" fill="#16a34a" opacity="0.82" rx="1"/>
<line x1="649.0" y1="132.9" x2="649.0" y2="174.6" stroke="#dc2626" stroke-width="1"/><rect x="646.2" y="150.4" width="5.4" height="19.0" fill="#dc2626" opacity="0.82" rx="1"/>
<line x1="657.8" y1="147.2" x2="657.8" y2="196.1" stroke="#dc2626" stroke-width="1"/><rect x="655.1" y="169.1" width="5.4" height="24.0" fill="#dc2626" opacity="0.82" rx="1"/>
<line x1="666.7" y1="171.6" x2="666.7" y2="221.3" stroke="#dc2626" stroke-width="1"/><rect x="664.0" y="193.1" width="5.4" height="26.0" fill="#dc2626" opacity="0.82" rx="1"/>
<line x1="675.6" y1="194.3" x2="675.6" y2="233.8" stroke="#16a34a" stroke-width="1"/><rect x="672.9" y="202.3" width="5.4" height="16.5" fill="#16a34a" opacity="0.82" rx="1"/>
<line x1="684.5" y1="196.3" x2="684.5" y2="218.6" stroke="#16a34a" stroke-width="1"/><rect x="681.8" y="202.1" width="5.4" height="1.2" fill="#16a34a" opacity="0.82" rx="1"/>
<line x1="693.3" y1="180.6" x2="693.3" y2="219.6" stroke="#16a34a" stroke-width="1"/><rect x="690.6" y="180.9" width="5.4" height="21.0" fill="#16a34a" opacity="0.82" rx="1"/>
<line x1="702.2" y1="166.6" x2="702.2" y2="192.6" stroke="#16a34a" stroke-width="1"/><rect x="699.5" y="170.1" width="5.4" height="10.7" fill="#16a34a" opacity="0.82" rx="1"/>
<line x1="711.1" y1="152.2" x2="711.1" y2="171.4" stroke="#16a34a" stroke-width="1"/><rect x="708.4" y="153.7" width="5.4" height="16.7" fill="#16a34a" opacity="0.82" rx="1"/>
<line x1="720.0" y1="143.7" x2="720.0" y2="157.9" stroke="#16a34a" stroke-width="1"/><rect x="717.3" y="153.4" width="5.4" height="1.2" fill="#16a34a" opacity="0.82" rx="1"/>
<line x1="728.9" y1="150.9" x2="728.9" y2="162.1" stroke="#dc2626" stroke-width="1"/><rect x="726.1" y="153.4" width="5.4" height="2.0" fill="#dc2626" opacity="0.82" rx="1"/>
<line x1="737.7" y1="144.2" x2="737.7" y2="159.9" stroke="#dc2626" stroke-width="1"/><rect x="735.0" y="155.2" width="5.4" height="1.2" fill="#dc2626" opacity="0.82" rx="1"/>
<line x1="746.6" y1="123.5" x2="746.6" y2="156.9" stroke="#16a34a" stroke-width="1"/><rect x="743.9" y="125.2" width="5.4" height="31.0" fill="#16a34a" opacity="0.82" rx="1"/>
<line x1="755.5" y1="100.2" x2="755.5" y2="132.7" stroke="#16a34a" stroke-width="1"/><rect x="752.8" y="105.7" width="5.4" height="19.2" fill="#16a34a" opacity="0.82" rx="1"/>
<line x1="764.4" y1="66.5" x2="764.4" y2="106.7" stroke="#16a34a" stroke-width="1"/><rect x="761.6" y="80.3" width="5.4" height="25.7" fill="#16a34a" opacity="0.82" rx="1"/>
<line x1="773.2" y1="72.5" x2="773.2" y2="115.0" stroke="#dc2626" stroke-width="1"/><rect x="770.5" y="80.0" width="5.4" height="20.0" fill="#dc2626" opacity="0.82" rx="1"/>
<line x1="782.1" y1="83.5" x2="782.1" y2="102.5" stroke="#16a34a" stroke-width="1"/><rect x="779.4" y="93.7" width="5.4" height="6.0" fill="#16a34a" opacity="0.82" rx="1"/>
<line x1="791.0" y1="85.3" x2="791.0" y2="107.7" stroke="#dc2626" stroke-width="1"/><rect x="788.3" y="93.7" width="5.4" height="3.2" fill="#dc2626" opacity="0.82" rx="1"/>
<line x1="799.9" y1="76.0" x2="799.9" y2="97.2" stroke="#16a34a" stroke-width="1"/><rect x="797.1" y="79.0" width="5.4" height="17.7" fill="#16a34a" opacity="0.82" rx="1"/>
<line x1="808.7" y1="75.8" x2="808.7" y2="93.0" stroke="#dc2626" stroke-width="1"/><rect x="806.0" y="78.8" width="5.4" height="11.0" fill="#dc2626" opacity="0.82" rx="1"/>
<line x1="817.6" y1="89.0" x2="817.6" y2="116.2" stroke="#dc2626" stroke-width="1"/><rect x="814.9" y="89.8" width="5.4" height="22.7" fill="#dc2626" opacity="0.82" rx="1"/>
<line x1="826.5" y1="103.7" x2="826.5" y2="115.7" stroke="#16a34a" stroke-width="1"/><rect x="823.8" y="105.5" width="5.4" height="7.0" fill="#16a34a" opacity="0.82" rx="1"/>
<line x1="835.4" y1="97.5" x2="835.4" y2="105.5" stroke="#16a34a" stroke-width="1"/><rect x="832.6" y="97.5" width="5.4" height="8.0" fill="#16a34a" opacity="0.82" rx="1"/>
<line x1="844.2" y1="78.8" x2="844.2" y2="99.0" stroke="#16a34a" stroke-width="1"/><rect x="841.5" y="82.3" width="5.4" height="15.5" fill="#16a34a" opacity="0.82" rx="1"/>
<line x1="853.1" y1="82.3" x2="853.1" y2="103.2" stroke="#dc2626" stroke-width="1"/><rect x="850.4" y="82.3" width="5.4" height="10.2" fill="#dc2626" opacity="0.82" rx="1"/>
<line x1="862.0" y1="88.8" x2="862.0" y2="121.2" stroke="#dc2626" stroke-width="1"/><rect x="859.3" y="92.3" width="5.4" height="25.2" fill="#dc2626" opacity="0.82" rx="1"/>
<line x1="72" y1="154.9" x2="862" y2="154.9" stroke="#16a34a" stroke-width="1.8" stroke-dasharray="6 4" /><rect x="874" y="134.9" width="166" height="23" rx="5" fill="#ffffff" stroke="#16a34a" opacity="0.97"/><text x="881" y="150.9" fill="#16a34a" font-size="15" font-weight="700">日内支撑 62.67</text>
<line x1="72" y1="55.1" x2="862" y2="55.1" stroke="#dc2626" stroke-width="1.8" stroke-dasharray="6 4" /><rect x="874" y="35.1" width="166" height="23" rx="5" fill="#ffffff" stroke="#dc2626" opacity="0.97"/><text x="881" y="51.1" fill="#dc2626" font-size="15" font-weight="700">日内压力 66.67</text>
<line x1="72" y1="117.5" x2="862" y2="117.5" stroke="#111827" stroke-width="1.8" stroke-dasharray="2 2" /><rect x="874" y="97.5" width="166" height="23" rx="5" fill="#ffffff" stroke="#111827" opacity="0.97"/><text x="881" y="113.5" fill="#111827" font-size="15" font-weight="700">现价 64.17</text>
<text x="72" y="396" fill="#16a34a" font-size="14" font-weight="700">日内做多计划</text><rect x="72" y="404" width="790" height="48" rx="6" fill="#f9fafb" stroke="#e5e7eb"/><line x1="94" y1="412" x2="840" y2="412" stroke="#16a34a" stroke-width="3"/><circle cx="132.0" cy="412" r="5" fill="#16a34a"/><text x="132.0" y="434" fill="#374151" font-size="12" text-anchor="middle">入场 止跌/突破回踩</text><circle cx="451.2" cy="412" r="5" fill="#16a34a"/><text x="451.2" y="434" fill="#374151" font-size="12" text-anchor="middle">止损 62.67</text><circle cx="712.0" cy="412" r="5" fill="#16a34a"/><text x="712.0" y="434" fill="#374151" font-size="12" text-anchor="middle">目标一 66.67</text><circle cx="814.0" cy="412" r="5" fill="#16a34a"/><text x="814.0" y="434" fill="#374151" font-size="12" text-anchor="middle">目标二 67.67</text>
<text x="72" y="482" fill="#dc2626" font-size="14" font-weight="700">日内做空计划</text><rect x="72" y="490" width="790" height="48" rx="6" fill="#f9fafb" stroke="#e5e7eb"/><line x1="94" y1="498" x2="840" y2="498" stroke="#dc2626" stroke-width="3"/><circle cx="132.0" cy="498" r="5" fill="#dc2626"/><text x="132.0" y="520" fill="#374151" font-size="12" text-anchor="middle">入场 反弹承压/破位回抽</text><circle cx="451.2" cy="498" r="5" fill="#dc2626"/><text x="451.2" y="520" fill="#374151" font-size="12" text-anchor="middle">止损 66.67</text><circle cx="712.0" cy="498" r="5" fill="#dc2626"/><text x="712.0" y="520" fill="#374151" font-size="12" text-anchor="middle">目标一 62.67</text><circle cx="814.0" cy="498" r="5" fill="#dc2626"/><text x="814.0" y="520" fill="#374151" font-size="12" text-anchor="middle">目标二 61.67</text>
</svg>