<svg xmlns="http://www.w3.org/2000/svg" width="1080" height="560" viewBox="0 0 1080 560">
<rect width="100%" height="100%" fill="#ffffff"/>
<text x="72" y="23" fill="#111827" font-size="21" font-weight="800">BTC 日线K线支撑压力图</text>
<text x="862" y="42" fill="#374151" font-size="15" text-anchor="end">最新价 63,176</text>
<line x1="72" y1="34" x2="72" y2="340" stroke="#d1d5db"/>
<line x1="72" y1="340" x2="862" y2="340" stroke="#d1d5db"/>
<line x1="72" y1="340.0" x2="862" y2="340.0" stroke="#f3f4f6"/>
<text x="8" y="345.0" fill="#4b5563" font-size="14">55,753</text>
<line x1="72" y1="263.5" x2="862" y2="263.5" stroke="#f3f4f6"/>
<text x="8" y="268.5" fill="#4b5563" font-size="14">63,023</text>
<line x1="72" y1="187.0" x2="862" y2="187.0" stroke="#f3f4f6"/>
<text x="8" y="192.0" fill="#4b5563" font-size="14">70,294</text>
<line x1="72" y1="110.5" x2="862" y2="110.5" stroke="#f3f4f6"/>
<text x="8" y="115.5" fill="#4b5563" font-size="14">77,564</text>
<line x1="72" y1="34.0" x2="862" y2="34.0" stroke="#f3f4f6"/>
<text x="8" y="39.0" fill="#4b5563" font-size="14">84,834</text>
<line x1="72.0" y1="157.5" x2="72.0" y2="185.3" stroke="#dc2626" stroke-width="1"/><rect x="69.3" y="158.4" width="5.4" height="24.2" fill="#dc2626" opacity="0.82" rx="1"/>
<line x1="80.9" y1="138.8" x2="80.9" y2="184.6" stroke="#16a34a" stroke-width="1"/><rect x="78.2" y="143.9" width="5.4" height="38.7" fill="#16a34a" opacity="0.82" rx="1"/>
<line x1="89.8" y1="126.9" x2="89.8" y2="150.5" stroke="#dc2626" stroke-width="1"/><rect x="87.0" y="144.0" width="5.4" height="2.9" fill="#dc2626" opacity="0.82" rx="1"/>
<line x1="98.6" y1="133.0" x2="98.6" y2="153.8" stroke="#16a34a" stroke-width="1"/><rect x="95.9" y="139.8" width="5.4" height="7.0" fill="#16a34a" opacity="0.82" rx="1"/>
<line x1="107.5" y1="132.2" x2="107.5" y2="155.8" stroke="#16a34a" stroke-width="1"/><rect x="104.8" y="136.4" width="5.4" height="3.5" fill="#16a34a" opacity="0.82" rx="1"/>
<line x1="116.4" y1="102.8" x2="116.4" y2="143.0" stroke="#16a34a" stroke-width="1"/><rect x="113.7" y="116.1" width="5.4" height="20.2" fill="#16a34a" opacity="0.82" rx="1"/>
<line x1="125.3" y1="112.4" x2="125.3" y2="133.3" stroke="#dc2626" stroke-width="1"/><rect x="122.5" y="116.1" width="5.4" height="14.5" fill="#dc2626" opacity="0.82" rx="1"/>
<line x1="134.1" y1="124.9" x2="134.1" y2="151.2" stroke="#dc2626" stroke-width="1"/><rect x="131.4" y="130.6" width="5.4" height="19.9" fill="#dc2626" opacity="0.82" rx="1"/>
<line x1="143.0" y1="121.4" x2="143.0" y2="151.5" stroke="#16a34a" stroke-width="1"/><rect x="140.3" y="129.2" width="5.4" height="21.4" fill="#16a34a" opacity="0.82" rx="1"/>
<line x1="151.9" y1="116.4" x2="151.9" y2="139.8" stroke="#16a34a" stroke-width="1"/><rect x="149.2" y="123.9" width="5.4" height="5.2" fill="#16a34a" opacity="0.82" rx="1"/>
<line x1="160.8" y1="90.7" x2="160.8" y2="126.1" stroke="#16a34a" stroke-width="1"/><rect x="158.0" y="104.4" width="5.4" height="19.5" fill="#16a34a" opacity="0.82" rx="1"/>
<line x1="169.6" y1="99.1" x2="169.6" y2="121.6" stroke="#16a34a" stroke-width="1"/><rect x="166.9" y="103.6" width="5.4" height="1.2" fill="#16a34a" opacity="0.82" rx="1"/>
<line x1="178.5" y1="100.2" x2="178.5" y2="114.3" stroke="#dc2626" stroke-width="1"/><rect x="175.8" y="103.6" width="5.4" height="8.6" fill="#dc2626" opacity="0.82" rx="1"/>
<line x1="187.4" y1="107.5" x2="187.4" y2="115.4" stroke="#16a34a" stroke-width="1"/><rect x="184.7" y="110.3" width="5.4" height="2.0" fill="#16a34a" opacity="0.82" rx="1"/>
<line x1="196.3" y1="95.4" x2="196.3" y2="113.5" stroke="#16a34a" stroke-width="1"/><rect x="193.5" y="99.5" width="5.4" height="10.8" fill="#16a34a" opacity="0.82" rx="1"/>
<line x1="205.1" y1="90.6" x2="205.1" y2="122.7" stroke="#dc2626" stroke-width="1"/><rect x="202.4" y="99.4" width="5.4" height="13.5" fill="#dc2626" opacity="0.82" rx="1"/>
<line x1="214.0" y1="111.7" x2="214.0" y2="130.8" stroke="#dc2626" stroke-width="1"/><rect x="211.3" y="112.9" width="5.4" height="10.9" fill="#dc2626" opacity="0.82" rx="1"/>
<line x1="222.9" y1="107.2" x2="222.9" y2="138.9" stroke="#dc2626" stroke-width="1"/><rect x="220.2" y="123.8" width="5.4" height="5.8" fill="#dc2626" opacity="0.82" rx="1"/>
<line x1="231.8" y1="120.3" x2="231.8" y2="134.6" stroke="#16a34a" stroke-width="1"/><rect x="229.1" y="123.7" width="5.4" height="5.8" fill="#16a34a" opacity="0.82" rx="1"/>
<line x1="240.7" y1="96.7" x2="240.7" y2="124.2" stroke="#16a34a" stroke-width="1"/><rect x="237.9" y="103.9" width="5.4" height="19.9" fill="#16a34a" opacity="0.82" rx="1"/>
<line x1="249.5" y1="93.9" x2="249.5" y2="106.1" stroke="#16a34a" stroke-width="1"/><rect x="246.8" y="99.0" width="5.4" height="4.9" fill="#16a34a" opacity="0.82" rx="1"/>
<line x1="258.4" y1="90.9" x2="258.4" y2="105.6" stroke="#dc2626" stroke-width="1"/><rect x="255.7" y="99.0" width="5.4" height="1.3" fill="#dc2626" opacity="0.82" rx="1"/>
<line x1="267.3" y1="76.7" x2="267.3" y2="104.6" stroke="#16a34a" stroke-width="1"/><rect x="264.6" y="86.7" width="5.4" height="13.6" fill="#16a34a" opacity="0.82" rx="1"/>
<line x1="276.2" y1="66.5" x2="276.2" y2="87.4" stroke="#16a34a" stroke-width="1"/><rect x="273.4" y="75.8" width="5.4" height="10.9" fill="#16a34a" opacity="0.82" rx="1"/>
<line x1="285.0" y1="55.1" x2="285.0" y2="78.0" stroke="#16a34a" stroke-width="1"/><rect x="282.3" y="70.2" width="5.4" height="5.6" fill="#16a34a" opacity="0.82" rx="1"/>
<line x1="293.9" y1="67.2" x2="293.9" y2="90.5" stroke="#dc2626" stroke-width="1"/><rect x="291.2" y="70.2" width="5.4" height="14.9" fill="#dc2626" opacity="0.82" rx="1"/>
<line x1="302.8" y1="79.8" x2="302.8" y2="93.9" stroke="#16a34a" stroke-width="1"/><rect x="300.1" y="83.2" width="5.4" height="2.0" fill="#16a34a" opacity="0.82" rx="1"/>
<line x1="311.7" y1="73.9" x2="311.7" y2="84.0" stroke="#16a34a" stroke-width="1"/><rect x="308.9" y="78.2" width="5.4" height="5.0" fill="#16a34a" opacity="0.82" rx="1"/>
<line x1="320.5" y1="59.0" x2="320.5" y2="82.5" stroke="#16a34a" stroke-width="1"/><rect x="317.8" y="62.0" width="5.4" height="16.2" fill="#16a34a" opacity="0.82" rx="1"/>
<line x1="329.4" y1="60.1" x2="329.4" y2="80.7" stroke="#dc2626" stroke-width="1"/><rect x="326.7" y="62.0" width="5.4" height="5.0" fill="#dc2626" opacity="0.82" rx="1"/>
<line x1="338.3" y1="66.4" x2="338.3" y2="87.0" stroke="#dc2626" stroke-width="1"/><rect x="335.6" y="67.0" width="5.4" height="13.0" fill="#dc2626" opacity="0.82" rx="1"/>
<line x1="347.2" y1="71.5" x2="347.2" y2="98.4" stroke="#dc2626" stroke-width="1"/><rect x="344.4" y="80.0" width="5.4" height="12.3" fill="#dc2626" opacity="0.82" rx="1"/>
<line x1="356.0" y1="63.8" x2="356.0" y2="96.8" stroke="#16a34a" stroke-width="1"/><rect x="353.3" y="73.8" width="5.4" height="18.5" fill="#16a34a" opacity="0.82" rx="1"/>
<line x1="364.9" y1="67.8" x2="364.9" y2="99.5" stroke="#dc2626" stroke-width="1"/><rect x="362.2" y="73.8" width="5.4" height="20.8" fill="#dc2626" opacity="0.82" rx="1"/>
<line x1="373.8" y1="93.3" x2="373.8" y2="110.1" stroke="#dc2626" stroke-width="1"/><rect x="371.1" y="94.6" width="5.4" height="10.2" fill="#dc2626" opacity="0.82" rx="1"/>
<line x1="382.7" y1="100.0" x2="382.7" y2="119.9" stroke="#dc2626" stroke-width="1"/><rect x="380.0" y="104.8" width="5.4" height="7.1" fill="#dc2626" opacity="0.82" rx="1"/>
<line x1="391.6" y1="108.5" x2="391.6" y2="126.8" stroke="#dc2626" stroke-width="1"/><rect x="388.8" y="111.9" width="5.4" height="4.9" fill="#dc2626" opacity="0.82" rx="1"/>
<line x1="400.4" y1="112.4" x2="400.4" y2="125.8" stroke="#dc2626" stroke-width="1"/><rect x="397.7" y="116.8" width="5.4" height="1.7" fill="#dc2626" opacity="0.82" rx="1"/>
<line x1="409.3" y1="107.7" x2="409.3" y2="121.9" stroke="#16a34a" stroke-width="1"/><rect x="406.6" y="111.1" width="5.4" height="7.5" fill="#16a34a" opacity="0.82" rx="1"/>
<line x1="418.2" y1="104.0" x2="418.2" y2="119.6" stroke="#16a34a" stroke-width="1"/><rect x="415.5" y="110.3" width="5.4" height="1.2" fill="#16a34a" opacity="0.82" rx="1"/>
<line x1="427.1" y1="107.4" x2="427.1" y2="134.1" stroke="#dc2626" stroke-width="1"/><rect x="424.3" y="110.3" width="5.4" height="21.8" fill="#dc2626" opacity="0.82" rx="1"/>
<line x1="435.9" y1="111.9" x2="435.9" y2="145.9" stroke="#16a34a" stroke-width="1"/><rect x="433.2" y="119.4" width="5.4" height="12.6" fill="#16a34a" opacity="0.82" rx="1"/>
<line x1="444.8" y1="110.1" x2="444.8" y2="126.4" stroke="#16a34a" stroke-width="1"/><rect x="442.1" y="116.1" width="5.4" height="3.3" fill="#16a34a" opacity="0.82" rx="1"/>
<line x1="453.7" y1="107.1" x2="453.7" y2="117.8" stroke="#16a34a" stroke-width="1"/><rect x="451.0" y="113.5" width="5.4" height="2.6" fill="#16a34a" opacity="0.82" rx="1"/>
<line x1="462.6" y1="105.1" x2="462.6" y2="130.7" stroke="#dc2626" stroke-width="1"/><rect x="459.8" y="113.5" width="5.4" height="14.5" fill="#dc2626" opacity="0.82" rx="1"/>
<line x1="471.4" y1="125.3" x2="471.4" y2="145.8" stroke="#dc2626" stroke-width="1"/><rect x="468.7" y="127.9" width="5.4" height="15.7" fill="#dc2626" opacity="0.82" rx="1"/>
<line x1="480.3" y1="142.1" x2="480.3" y2="163.2" stroke="#dc2626" stroke-width="1"/><rect x="477.6" y="143.6" width="5.4" height="8.7" fill="#dc2626" opacity="0.82" rx="1"/>
<line x1="489.2" y1="144.9" x2="489.2" y2="164.5" stroke="#dc2626" stroke-width="1"/><rect x="486.5" y="152.3" width="5.4" height="1.7" fill="#dc2626" opacity="0.82" rx="1"/>
<line x1="498.1" y1="146.9" x2="498.1" y2="157.2" stroke="#16a34a" stroke-width="1"/><rect x="495.3" y="149.5" width="5.4" height="4.5" fill="#16a34a" opacity="0.82" rx="1"/>
<line x1="506.9" y1="145.4" x2="506.9" y2="154.9" stroke="#dc2626" stroke-width="1"/><rect x="504.2" y="149.5" width="5.4" height="2.1" fill="#dc2626" opacity="0.82" rx="1"/>
<line x1="515.8" y1="147.3" x2="515.8" y2="183.2" stroke="#dc2626" stroke-width="1"/><rect x="513.1" y="151.7" width="5.4" height="23.8" fill="#dc2626" opacity="0.82" rx="1"/>
<line x1="524.7" y1="175.4" x2="524.7" y2="230.6" stroke="#dc2626" stroke-width="1"/><rect x="522.0" y="175.4" width="5.4" height="49.0" fill="#dc2626" opacity="0.82" rx="1"/>
<line x1="533.6" y1="216.5" x2="533.6" y2="252.7" stroke="#dc2626" stroke-width="1"/><rect x="530.9" y="224.5" width="5.4" height="27.5" fill="#dc2626" opacity="0.82" rx="1"/>
<line x1="542.4" y1="245.4" x2="542.4" y2="281.2" stroke="#dc2626" stroke-width="1"/><rect x="539.7" y="252.0" width="5.4" height="2.8" fill="#dc2626" opacity="0.82" rx="1"/>
<line x1="551.3" y1="253.7" x2="551.3" y2="305.0" stroke="#dc2626" stroke-width="1"/><rect x="548.6" y="254.8" width="5.4" height="29.8" fill="#dc2626" opacity="0.82" rx="1"/>
<line x1="560.2" y1="279.5" x2="560.2" y2="301.1" stroke="#dc2626" stroke-width="1"/><rect x="557.5" y="284.6" width="5.4" height="1.8" fill="#dc2626" opacity="0.82" rx="1"/>
<line x1="569.1" y1="250.6" x2="569.1" y2="287.9" stroke="#16a34a" stroke-width="1"/><rect x="566.4" y="260.6" width="5.4" height="25.8" fill="#16a34a" opacity="0.82" rx="1"/>
<line x1="578.0" y1="251.3" x2="578.0" y2="270.3" stroke="#dc2626" stroke-width="1"/><rect x="575.2" y="260.6" width="5.4" height="2.5" fill="#dc2626" opacity="0.82" rx="1"/>
<line x1="586.8" y1="258.5" x2="586.8" y2="287.4" stroke="#dc2626" stroke-width="1"/><rect x="584.1" y="263.1" width="5.4" height="14.3" fill="#dc2626" opacity="0.82" rx="1"/>
<line x1="595.7" y1="265.4" x2="595.7" y2="288.0" stroke="#dc2626" stroke-width="1"/><rect x="593.0" y="277.5" width="5.4" height="2.2" fill="#dc2626" opacity="0.82" rx="1"/>
<line x1="604.6" y1="254.1" x2="604.6" y2="279.7" stroke="#16a34a" stroke-width="1"/><rect x="601.9" y="257.5" width="5.4" height="22.2" fill="#16a34a" opacity="0.82" rx="1"/>
<line x1="613.5" y1="249.4" x2="613.5" y2="265.8" stroke="#dc2626" stroke-width="1"/><rect x="610.7" y="257.5" width="5.4" height="1.2" fill="#dc2626" opacity="0.82" rx="1"/>
<line x1="622.3" y1="245.5" x2="622.3" y2="260.0" stroke="#16a34a" stroke-width="1"/><rect x="619.6" y="248.8" width="5.4" height="9.2" fill="#16a34a" opacity="0.82" rx="1"/>
<line x1="631.2" y1="234.5" x2="631.2" y2="256.9" stroke="#16a34a" stroke-width="1"/><rect x="628.5" y="235.3" width="5.4" height="13.5" fill="#16a34a" opacity="0.82" rx="1"/>
<line x1="640.1" y1="219.0" x2="640.1" y2="239.4" stroke="#16a34a" stroke-width="1"/><rect x="637.4" y="229.2" width="5.4" height="6.1" fill="#16a34a" opacity="0.82" rx="1"/>
<line x1="649.0" y1="222.1" x2="649.0" y2="239.2" stroke="#dc2626" stroke-width="1"/><rect x="646.2" y="229.2" width="5.4" height="6.7" fill="#dc2626" opacity="0.82" rx="1"/>
<line x1="657.8" y1="227.8" x2="657.8" y2="254.5" stroke="#dc2626" stroke-width="1"/><rect x="655.1" y="235.9" width="5.4" height="12.3" fill="#dc2626" opacity="0.82" rx="1"/>
<line x1="666.7" y1="245.0" x2="666.7" y2="271.8" stroke="#dc2626" stroke-width="1"/><rect x="664.0" y="248.2" width="5.4" height="16.3" fill="#dc2626" opacity="0.82" rx="1"/>
<line x1="675.6" y1="257.0" x2="675.6" y2="271.8" stroke="#16a34a" stroke-width="1"/><rect x="672.9" y="258.4" width="5.4" height="6.2" fill="#16a34a" opacity="0.82" rx="1"/>
<line x1="684.5" y1="249.3" x2="684.5" y2="262.3" stroke="#16a34a" stroke-width="1"/><rect x="681.8" y="250.4" width="5.4" height="8.0" fill="#16a34a" opacity="0.82" rx="1"/>
<line x1="693.3" y1="247.2" x2="693.3" y2="261.4" stroke="#dc2626" stroke-width="1"/><rect x="690.6" y="250.4" width="5.4" height="10.3" fill="#dc2626" opacity="0.82" rx="1"/>
<line x1="702.2" y1="236.4" x2="702.2" y2="260.7" stroke="#16a34a" stroke-width="1"/><rect x="699.5" y="253.3" width="5.4" height="7.4" fill="#16a34a" opacity="0.82" rx="1"/>
<line x1="711.1" y1="250.6" x2="711.1" y2="275.6" stroke="#dc2626" stroke-width="1"/><rect x="708.4" y="253.3" width="5.4" height="13.6" fill="#dc2626" opacity="0.82" rx="1"/>
<line x1="720.0" y1="261.5" x2="720.0" y2="305.2" stroke="#dc2626" stroke-width="1"/><rect x="717.3" y="266.9" width="5.4" height="17.3" fill="#dc2626" opacity="0.82" rx="1"/>
<line x1="728.9" y1="275.0" x2="728.9" y2="316.0" stroke="#dc2626" stroke-width="1"/><rect x="726.1" y="284.3" width="5.4" height="13.5" fill="#dc2626" opacity="0.82" rx="1"/>
<line x1="737.7" y1="287.6" x2="737.7" y2="313.3" stroke="#16a34a" stroke-width="1"/><rect x="735.0" y="294.6" width="5.4" height="3.2" fill="#16a34a" opacity="0.82" rx="1"/>
<line x1="746.6" y1="285.6" x2="746.6" y2="297.2" stroke="#dc2626" stroke-width="1"/><rect x="743.9" y="294.6" width="5.4" height="1.2" fill="#dc2626" opacity="0.82" rx="1"/>
<line x1="755.5" y1="289.6" x2="755.5" y2="307.0" stroke="#dc2626" stroke-width="1"/><rect x="752.8" y="295.3" width="5.4" height="4.7" fill="#dc2626" opacity="0.82" rx="1"/>
<line x1="764.4" y1="287.3" x2="764.4" y2="307.4" stroke="#16a34a" stroke-width="1"/><rect x="761.6" y="292.9" width="5.4" height="7.1" fill="#16a34a" opacity="0.82" rx="1"/>
<line x1="773.2" y1="292.7" x2="773.2" y2="314.7" stroke="#dc2626" stroke-width="1"/><rect x="770.5" y="292.9" width="5.4" height="17.0" fill="#dc2626" opacity="0.82" rx="1"/>
<line x1="782.1" y1="281.4" x2="782.1" y2="318.9" stroke="#16a34a" stroke-width="1"/><rect x="779.4" y="295.3" width="5.4" height="14.7" fill="#16a34a" opacity="0.82" rx="1"/>
<line x1="791.0" y1="272.4" x2="791.0" y2="300.0" stroke="#16a34a" stroke-width="1"/><rect x="788.3" y="279.1" width="5.4" height="16.2" fill="#16a34a" opacity="0.82" rx="1"/>
<line x1="799.9" y1="264.2" x2="799.9" y2="282.4" stroke="#16a34a" stroke-width="1"/><rect x="797.1" y="268.3" width="5.4" height="10.8" fill="#16a34a" opacity="0.82" rx="1"/>
<line x1="808.7" y1="259.0" x2="808.7" y2="271.1" stroke="#16a34a" stroke-width="1"/><rect x="806.0" y="262.5" width="5.4" height="5.8" fill="#16a34a" opacity="0.82" rx="1"/>
<line x1="817.6" y1="253.3" x2="817.6" y2="270.0" stroke="#16a34a" stroke-width="1"/><rect x="814.9" y="257.3" width="5.4" height="5.3" fill="#16a34a" opacity="0.82" rx="1"/>
<line x1="826.5" y1="245.9" x2="826.5" y2="281.7" stroke="#16a34a" stroke-width="1"/><rect x="823.8" y="253.0" width="5.4" height="4.3" fill="#16a34a" opacity="0.82" rx="1"/>
<line x1="835.4" y1="250.1" x2="835.4" y2="267.6" stroke="#dc2626" stroke-width="1"/><rect x="832.6" y="253.0" width="5.4" height="7.2" fill="#dc2626" opacity="0.82" rx="1"/>
<line x1="844.2" y1="256.0" x2="844.2" y2="279.3" stroke="#dc2626" stroke-width="1"/><rect x="841.5" y="260.2" width="5.4" height="11.4" fill="#dc2626" opacity="0.82" rx="1"/>
<line x1="853.1" y1="258.6" x2="853.1" y2="277.8" stroke="#16a34a" stroke-width="1"/><rect x="850.4" y="261.7" width="5.4" height="9.9" fill="#16a34a" opacity="0.82" rx="1"/>
<line x1="862.0" y1="261.2" x2="862.0" y2="262.4" stroke="#dc2626" stroke-width="1"/><rect x="859.3" y="261.7" width="5.4" height="1.2" fill="#dc2626" opacity="0.82" rx="1"/>
<line x1="72" y1="291.9" x2="862" y2="291.9" stroke="#16a34a" stroke-width="1.8" stroke-dasharray="6 4" /><rect x="874" y="271.9" width="166" height="23" rx="5" fill="#ffffff" stroke="#16a34a" opacity="0.97"/><text x="881" y="287.9" fill="#16a34a" font-size="15" font-weight="700">支撑 60,325</text>
<line x1="72" y1="211.9" x2="862" y2="211.9" stroke="#dc2626" stroke-width="1.8" stroke-dasharray="6 4" /><rect x="874" y="191.9" width="166" height="23" rx="5" fill="#ffffff" stroke="#dc2626" opacity="0.97"/><text x="881" y="207.9" fill="#dc2626" font-size="15" font-weight="700">压力 67,928</text>
<line x1="72" y1="261.9" x2="862" y2="261.9" stroke="#111827" stroke-width="1.8" stroke-dasharray="2 2" /><rect x="874" y="241.9" width="166" height="23" rx="5" fill="#ffffff" stroke="#111827" opacity="0.97"/><text x="881" y="257.9" fill="#111827" font-size="15" font-weight="700">现价 63,176</text>
<text x="72" y="396" fill="#16a34a" font-size="14" font-weight="700">日线做多计划</text><rect x="72" y="404" width="790" height="48" rx="6" fill="#f9fafb" stroke="#e5e7eb"/><line x1="94" y1="412" x2="840" y2="412" stroke="#16a34a" stroke-width="3"/><circle cx="132.0" cy="412" r="5" fill="#16a34a"/><text x="132.0" y="434" fill="#374151" font-size="12" text-anchor="middle">入场 止跌/突破回踩</text><circle cx="451.2" cy="412" r="5" fill="#16a34a"/><text x="451.2" y="434" fill="#374151" font-size="12" text-anchor="middle">止损 60,325</text><circle cx="712.0" cy="412" r="5" fill="#16a34a"/><text x="712.0" y="434" fill="#374151" font-size="12" text-anchor="middle">目标一 67,928</text><circle cx="814.0" cy="412" r="5" fill="#16a34a"/><text x="814.0" y="434" fill="#374151" font-size="12" text-anchor="middle">目标二 70,779</text>
<text x="72" y="482" fill="#dc2626" font-size="14" font-weight="700">日线做空计划</text><rect x="72" y="490" width="790" height="48" rx="6" fill="#f9fafb" stroke="#e5e7eb"/><line x1="94" y1="498" x2="840" y2="498" stroke="#dc2626" stroke-width="3"/><circle cx="132.0" cy="498" r="5" fill="#dc2626"/><text x="132.0" y="520" fill="#374151" font-size="12" text-anchor="middle">入场 反弹承压/破位回抽</text><circle cx="451.2" cy="498" r="5" fill="#dc2626"/><text x="451.2" y="520" fill="#374151" font-size="12" text-anchor="middle">止损 67,928</text><circle cx="712.0" cy="498" r="5" fill="#dc2626"/><text x="712.0" y="520" fill="#374151" font-size="12" text-anchor="middle">目标一 60,325</text><circle cx="814.0" cy="498" r="5" fill="#dc2626"/><text x="814.0" y="520" fill="#374151" font-size="12" text-anchor="middle">目标二 58,424</text>
</svg>