<svg xmlns="http://www.w3.org/2000/svg" width="1080" height="560" viewBox="0 0 1080 560">
<rect width="100%" height="100%" fill="#ffffff"/>
<text x="72" y="23" fill="#111827" font-size="21" font-weight="800">DRAM 日线K线支撑压力图</text>
<text x="862" y="42" fill="#374151" font-size="15" text-anchor="end">最新价 72.21</text>
<line x1="72" y1="34" x2="72" y2="340" stroke="#d1d5db"/>
<line x1="72" y1="340" x2="862" y2="340" stroke="#d1d5db"/>
<line x1="72" y1="340.0" x2="862" y2="340.0" stroke="#f3f4f6"/>
<text x="8" y="345.0" fill="#4b5563" font-size="14">43.35</text>
<line x1="72" y1="263.5" x2="862" y2="263.5" stroke="#f3f4f6"/>
<text x="8" y="268.5" fill="#4b5563" font-size="14">54.90</text>
<line x1="72" y1="187.0" x2="862" y2="187.0" stroke="#f3f4f6"/>
<text x="8" y="192.0" fill="#4b5563" font-size="14">66.45</text>
<line x1="72" y1="110.5" x2="862" y2="110.5" stroke="#f3f4f6"/>
<text x="8" y="115.5" fill="#4b5563" font-size="14">78.00</text>
<line x1="72" y1="34.0" x2="862" y2="34.0" stroke="#f3f4f6"/>
<text x="8" y="39.0" fill="#4b5563" font-size="14">89.56</text>
<line x1="72.0" y1="283.5" x2="72.0" y2="308.6" stroke="#dc2626" stroke-width="1"/><rect x="67.5" y="287.8" width="9.0" height="9.7" fill="#dc2626" opacity="0.82" rx="1"/>
<line x1="91.3" y1="289.1" x2="91.3" y2="318.9" stroke="#16a34a" stroke-width="1"/><rect x="86.8" y="295.9" width="9.0" height="1.5" fill="#16a34a" opacity="0.82" rx="1"/>
<line x1="110.5" y1="282.4" x2="110.5" y2="309.4" stroke="#16a34a" stroke-width="1"/><rect x="106.0" y="284.5" width="9.0" height="11.5" fill="#16a34a" opacity="0.82" rx="1"/>
<line x1="129.8" y1="261.2" x2="129.8" y2="288.6" stroke="#16a34a" stroke-width="1"/><rect x="125.3" y="264.1" width="9.0" height="20.5" fill="#16a34a" opacity="0.82" rx="1"/>
<line x1="149.1" y1="263.8" x2="149.1" y2="278.8" stroke="#dc2626" stroke-width="1"/><rect x="144.6" y="264.1" width="9.0" height="14.5" fill="#dc2626" opacity="0.82" rx="1"/>
<line x1="168.3" y1="255.8" x2="168.3" y2="293.1" stroke="#16a34a" stroke-width="1"/><rect x="163.8" y="267.4" width="9.0" height="11.0" fill="#16a34a" opacity="0.82" rx="1"/>
<line x1="187.6" y1="255.6" x2="187.6" y2="268.8" stroke="#16a34a" stroke-width="1"/><rect x="183.1" y="260.4" width="9.0" height="6.9" fill="#16a34a" opacity="0.82" rx="1"/>
<line x1="206.9" y1="238.8" x2="206.9" y2="262.2" stroke="#16a34a" stroke-width="1"/><rect x="202.4" y="252.9" width="9.0" height="7.4" fill="#16a34a" opacity="0.82" rx="1"/>
<line x1="226.1" y1="207.9" x2="226.1" y2="265.1" stroke="#16a34a" stroke-width="1"/><rect x="221.6" y="215.1" width="9.0" height="37.8" fill="#16a34a" opacity="0.82" rx="1"/>
<line x1="245.4" y1="205.3" x2="245.4" y2="235.8" stroke="#dc2626" stroke-width="1"/><rect x="240.9" y="215.2" width="9.0" height="17.1" fill="#dc2626" opacity="0.82" rx="1"/>
<line x1="264.7" y1="204.8" x2="264.7" y2="246.7" stroke="#16a34a" stroke-width="1"/><rect x="260.2" y="209.5" width="9.0" height="22.7" fill="#16a34a" opacity="0.82" rx="1"/>
<line x1="284.0" y1="200.9" x2="284.0" y2="219.4" stroke="#16a34a" stroke-width="1"/><rect x="279.5" y="207.8" width="9.0" height="1.6" fill="#16a34a" opacity="0.82" rx="1"/>
<line x1="303.2" y1="190.3" x2="303.2" y2="210.5" stroke="#16a34a" stroke-width="1"/><rect x="298.7" y="191.3" width="9.0" height="16.5" fill="#16a34a" opacity="0.82" rx="1"/>
<line x1="322.5" y1="180.2" x2="322.5" y2="195.2" stroke="#16a34a" stroke-width="1"/><rect x="318.0" y="189.1" width="9.0" height="2.1" fill="#16a34a" opacity="0.82" rx="1"/>
<line x1="341.8" y1="169.6" x2="341.8" y2="200.9" stroke="#16a34a" stroke-width="1"/><rect x="337.3" y="175.4" width="9.0" height="13.6" fill="#16a34a" opacity="0.82" rx="1"/>
<line x1="361.0" y1="162.3" x2="361.0" y2="193.9" stroke="#16a34a" stroke-width="1"/><rect x="356.5" y="167.2" width="9.0" height="8.5" fill="#16a34a" opacity="0.82" rx="1"/>
<line x1="380.3" y1="161.4" x2="380.3" y2="187.4" stroke="#dc2626" stroke-width="1"/><rect x="375.8" y="167.1" width="9.0" height="18.2" fill="#dc2626" opacity="0.82" rx="1"/>
<line x1="399.6" y1="176.7" x2="399.6" y2="208.7" stroke="#dc2626" stroke-width="1"/><rect x="395.1" y="185.4" width="9.0" height="22.2" fill="#dc2626" opacity="0.82" rx="1"/>
<line x1="418.8" y1="202.4" x2="418.8" y2="273.1" stroke="#dc2626" stroke-width="1"/><rect x="414.3" y="207.6" width="9.0" height="52.5" fill="#dc2626" opacity="0.82" rx="1"/>
<line x1="438.1" y1="253.2" x2="438.1" y2="279.4" stroke="#16a34a" stroke-width="1"/><rect x="433.6" y="258.0" width="9.0" height="2.1" fill="#16a34a" opacity="0.82" rx="1"/>
<line x1="457.4" y1="230.9" x2="457.4" y2="262.9" stroke="#16a34a" stroke-width="1"/><rect x="452.9" y="253.3" width="9.0" height="4.8" fill="#16a34a" opacity="0.82" rx="1"/>
<line x1="476.6" y1="218.7" x2="476.6" y2="256.1" stroke="#16a34a" stroke-width="1"/><rect x="472.1" y="223.9" width="9.0" height="29.5" fill="#16a34a" opacity="0.82" rx="1"/>
<line x1="495.9" y1="201.9" x2="495.9" y2="259.9" stroke="#dc2626" stroke-width="1"/><rect x="491.4" y="223.8" width="9.0" height="7.7" fill="#dc2626" opacity="0.82" rx="1"/>
<line x1="515.2" y1="219.5" x2="515.2" y2="259.0" stroke="#dc2626" stroke-width="1"/><rect x="510.7" y="231.5" width="9.0" height="21.9" fill="#dc2626" opacity="0.82" rx="1"/>
<line x1="534.4" y1="185.4" x2="534.4" y2="255.0" stroke="#16a34a" stroke-width="1"/><rect x="529.9" y="189.9" width="9.0" height="63.3" fill="#16a34a" opacity="0.82" rx="1"/>
<line x1="553.7" y1="188.8" x2="553.7" y2="214.8" stroke="#dc2626" stroke-width="1"/><rect x="549.2" y="189.9" width="9.0" height="2.5" fill="#dc2626" opacity="0.82" rx="1"/>
<line x1="573.0" y1="190.1" x2="573.0" y2="204.0" stroke="#16a34a" stroke-width="1"/><rect x="568.5" y="191.5" width="9.0" height="1.2" fill="#16a34a" opacity="0.82" rx="1"/>
<line x1="592.2" y1="168.6" x2="592.2" y2="192.9" stroke="#16a34a" stroke-width="1"/><rect x="587.7" y="175.0" width="9.0" height="16.5" fill="#16a34a" opacity="0.82" rx="1"/>
<line x1="611.5" y1="154.6" x2="611.5" y2="180.9" stroke="#16a34a" stroke-width="1"/><rect x="607.0" y="157.9" width="9.0" height="17.2" fill="#16a34a" opacity="0.82" rx="1"/>
<line x1="630.8" y1="143.1" x2="630.8" y2="178.2" stroke="#dc2626" stroke-width="1"/><rect x="626.3" y="158.0" width="9.0" height="12.8" fill="#dc2626" opacity="0.82" rx="1"/>
<line x1="650.0" y1="141.7" x2="650.0" y2="171.1" stroke="#16a34a" stroke-width="1"/><rect x="645.5" y="147.2" width="9.0" height="23.7" fill="#16a34a" opacity="0.82" rx="1"/>
<line x1="669.3" y1="107.0" x2="669.3" y2="148.8" stroke="#16a34a" stroke-width="1"/><rect x="664.8" y="108.9" width="9.0" height="38.1" fill="#16a34a" opacity="0.82" rx="1"/>
<line x1="688.6" y1="106.0" x2="688.6" y2="131.4" stroke="#dc2626" stroke-width="1"/><rect x="684.1" y="109.0" width="9.0" height="4.0" fill="#dc2626" opacity="0.82" rx="1"/>
<line x1="707.9" y1="91.5" x2="707.9" y2="114.3" stroke="#16a34a" stroke-width="1"/><rect x="703.4" y="96.6" width="9.0" height="16.6" fill="#16a34a" opacity="0.82" rx="1"/>
<line x1="727.1" y1="88.2" x2="727.1" y2="120.1" stroke="#dc2626" stroke-width="1"/><rect x="722.6" y="96.6" width="9.0" height="19.1" fill="#dc2626" opacity="0.82" rx="1"/>
<line x1="746.4" y1="84.3" x2="746.4" y2="130.4" stroke="#16a34a" stroke-width="1"/><rect x="741.9" y="94.0" width="9.0" height="21.7" fill="#16a34a" opacity="0.82" rx="1"/>
<line x1="765.7" y1="93.4" x2="765.7" y2="172.1" stroke="#dc2626" stroke-width="1"/><rect x="761.2" y="94.0" width="9.0" height="66.0" fill="#dc2626" opacity="0.82" rx="1"/>
<line x1="784.9" y1="87.3" x2="784.9" y2="181.9" stroke="#16a34a" stroke-width="1"/><rect x="780.4" y="95.6" width="9.0" height="64.3" fill="#16a34a" opacity="0.82" rx="1"/>
<line x1="804.2" y1="94.8" x2="804.2" y2="140.2" stroke="#dc2626" stroke-width="1"/><rect x="799.7" y="95.5" width="9.0" height="24.8" fill="#dc2626" opacity="0.82" rx="1"/>
<line x1="823.5" y1="118.1" x2="823.5" y2="156.9" stroke="#dc2626" stroke-width="1"/><rect x="819.0" y="120.3" width="9.0" height="27.9" fill="#dc2626" opacity="0.82" rx="1"/>
<line x1="842.7" y1="142.3" x2="842.7" y2="150.1" stroke="#dc2626" stroke-width="1"/><rect x="838.2" y="148.1" width="9.0" height="1.2" fill="#dc2626" opacity="0.82" rx="1"/>
<line x1="862.0" y1="148.0" x2="862.0" y2="149.0" stroke="#dc2626" stroke-width="1"/><rect x="857.5" y="148.5" width="9.0" height="1.2" fill="#dc2626" opacity="0.82" rx="1"/>
<line x1="72" y1="205.1" x2="862" y2="205.1" stroke="#16a34a" stroke-width="1.8" stroke-dasharray="6 4" /><rect x="874" y="185.1" width="166" height="23" rx="5" fill="#ffffff" stroke="#16a34a" opacity="0.97"/><text x="881" y="201.1" fill="#16a34a" font-size="15" font-weight="700">支撑 63.71</text>
<line x1="72" y1="55.1" x2="862" y2="55.1" stroke="#dc2626" stroke-width="1.8" stroke-dasharray="6 4" /><rect x="874" y="35.1" width="166" height="23" rx="5" fill="#ffffff" stroke="#dc2626" opacity="0.97"/><text x="881" y="51.1" fill="#dc2626" font-size="15" font-weight="700">压力 86.37</text>
<line x1="72" y1="148.9" x2="862" y2="148.9" stroke="#111827" stroke-width="1.8" stroke-dasharray="2 2" /><rect x="874" y="128.9" width="166" height="23" rx="5" fill="#ffffff" stroke="#111827" opacity="0.97"/><text x="881" y="144.9" fill="#111827" font-size="15" font-weight="700">现价 72.21</text>
<text x="72" y="396" fill="#16a34a" font-size="14" font-weight="700">日线做多计划</text><rect x="72" y="404" width="790" height="48" rx="6" fill="#f9fafb" stroke="#e5e7eb"/><line x1="94" y1="412" x2="840" y2="412" stroke="#16a34a" stroke-width="3"/><circle cx="132.0" cy="412" r="5" fill="#16a34a"/><text x="132.0" y="434" fill="#374151" font-size="12" text-anchor="middle">入场 止跌/突破回踩</text><circle cx="451.2" cy="412" r="5" fill="#16a34a"/><text x="451.2" y="434" fill="#374151" font-size="12" text-anchor="middle">止损 63.71</text><circle cx="712.0" cy="412" r="5" fill="#16a34a"/><text x="712.0" y="434" fill="#374151" font-size="12" text-anchor="middle">目标一 86.37</text><circle cx="814.0" cy="412" r="5" fill="#16a34a"/><text x="814.0" y="434" fill="#374151" font-size="12" text-anchor="middle">目标二 94.86</text>
<text x="72" y="482" fill="#dc2626" font-size="14" font-weight="700">日线做空计划</text><rect x="72" y="490" width="790" height="48" rx="6" fill="#f9fafb" stroke="#e5e7eb"/><line x1="94" y1="498" x2="840" y2="498" stroke="#dc2626" stroke-width="3"/><circle cx="132.0" cy="498" r="5" fill="#dc2626"/><text x="132.0" y="520" fill="#374151" font-size="12" text-anchor="middle">入场 反弹承压/破位回抽</text><circle cx="451.2" cy="498" r="5" fill="#dc2626"/><text x="451.2" y="520" fill="#374151" font-size="12" text-anchor="middle">止损 86.37</text><circle cx="712.0" cy="498" r="5" fill="#dc2626"/><text x="712.0" y="520" fill="#374151" font-size="12" text-anchor="middle">目标一 63.71</text><circle cx="814.0" cy="498" r="5" fill="#dc2626"/><text x="814.0" y="520" fill="#374151" font-size="12" text-anchor="middle">目标二 58.05</text>
</svg>