<svg xmlns="http://www.w3.org/2000/svg" width="1080" height="560" viewBox="0 0 1080 560">
<rect width="100%" height="100%" fill="#ffffff"/>
<text x="72" y="23" fill="#111827" font-size="21" font-weight="800">HYPE 小时线K线支撑压力图</text>
<text x="862" y="42" fill="#374151" font-size="15" text-anchor="end">最新价 62.30</text>
<line x1="72" y1="34" x2="72" y2="340" stroke="#d1d5db"/>
<line x1="72" y1="340" x2="862" y2="340" stroke="#d1d5db"/>
<line x1="72" y1="340.0" x2="862" y2="340.0" stroke="#f3f4f6"/>
<text x="8" y="345.0" fill="#4b5563" font-size="14">57.76</text>
<line x1="72" y1="263.5" x2="862" y2="263.5" stroke="#f3f4f6"/>
<text x="8" y="268.5" fill="#4b5563" font-size="14">59.82</text>
<line x1="72" y1="187.0" x2="862" y2="187.0" stroke="#f3f4f6"/>
<text x="8" y="192.0" fill="#4b5563" font-size="14">61.88</text>
<line x1="72" y1="110.5" x2="862" y2="110.5" stroke="#f3f4f6"/>
<text x="8" y="115.5" fill="#4b5563" font-size="14">63.94</text>
<line x1="72" y1="34.0" x2="862" y2="34.0" stroke="#f3f4f6"/>
<text x="8" y="39.0" fill="#4b5563" font-size="14">66.00</text>
<line x1="72.0" y1="216.3" x2="72.0" y2="252.2" stroke="#dc2626" stroke-width="1"/><rect x="69.3" y="226.2" width="5.4" height="1.2" fill="#dc2626" opacity="0.82" rx="1"/>
<line x1="80.9" y1="225.2" x2="80.9" y2="267.2" stroke="#dc2626" stroke-width="1"/><rect x="78.2" y="226.6" width="5.4" height="33.1" fill="#dc2626" opacity="0.82" rx="1"/>
<line x1="89.8" y1="235.3" x2="89.8" y2="292.1" stroke="#dc2626" stroke-width="1"/><rect x="87.0" y="260.1" width="5.4" height="12.3" fill="#dc2626" opacity="0.82" rx="1"/>
<line x1="98.6" y1="261.1" x2="98.6" y2="291.5" stroke="#dc2626" stroke-width="1"/><rect x="95.9" y="272.3" width="5.4" height="14.8" fill="#dc2626" opacity="0.82" rx="1"/>
<line x1="107.5" y1="224.4" x2="107.5" y2="289.2" stroke="#16a34a" stroke-width="1"/><rect x="104.8" y="244.9" width="5.4" height="42.2" fill="#16a34a" opacity="0.82" rx="1"/>
<line x1="116.4" y1="226.4" x2="116.4" y2="258.8" stroke="#16a34a" stroke-width="1"/><rect x="113.7" y="226.5" width="5.4" height="18.4" fill="#16a34a" opacity="0.82" rx="1"/>
<line x1="125.3" y1="145.3" x2="125.3" y2="235.6" stroke="#16a34a" stroke-width="1"/><rect x="122.5" y="164.7" width="5.4" height="62.0" fill="#16a34a" opacity="0.82" rx="1"/>
<line x1="134.1" y1="133.3" x2="134.1" y2="173.6" stroke="#16a34a" stroke-width="1"/><rect x="131.4" y="134.6" width="5.4" height="30.1" fill="#16a34a" opacity="0.82" rx="1"/>
<line x1="143.0" y1="123.5" x2="143.0" y2="144.4" stroke="#dc2626" stroke-width="1"/><rect x="140.3" y="134.6" width="5.4" height="2.5" fill="#dc2626" opacity="0.82" rx="1"/>
<line x1="151.9" y1="98.2" x2="151.9" y2="139.4" stroke="#16a34a" stroke-width="1"/><rect x="149.2" y="112.3" width="5.4" height="24.2" fill="#16a34a" opacity="0.82" rx="1"/>
<line x1="160.8" y1="103.1" x2="160.8" y2="152.8" stroke="#dc2626" stroke-width="1"/><rect x="158.0" y="111.8" width="5.4" height="34.7" fill="#dc2626" opacity="0.82" rx="1"/>
<line x1="169.6" y1="128.9" x2="169.6" y2="155.2" stroke="#16a34a" stroke-width="1"/><rect x="166.9" y="134.3" width="5.4" height="12.1" fill="#16a34a" opacity="0.82" rx="1"/>
<line x1="178.5" y1="119.0" x2="178.5" y2="143.1" stroke="#dc2626" stroke-width="1"/><rect x="175.8" y="134.3" width="5.4" height="1.2" fill="#dc2626" opacity="0.82" rx="1"/>
<line x1="187.4" y1="128.6" x2="187.4" y2="152.1" stroke="#dc2626" stroke-width="1"/><rect x="184.7" y="134.5" width="5.4" height="10.0" fill="#dc2626" opacity="0.82" rx="1"/>
<line x1="196.3" y1="112.2" x2="196.3" y2="160.7" stroke="#16a34a" stroke-width="1"/><rect x="193.5" y="120.4" width="5.4" height="24.1" fill="#16a34a" opacity="0.82" rx="1"/>
<line x1="205.1" y1="111.3" x2="205.1" y2="136.0" stroke="#dc2626" stroke-width="1"/><rect x="202.4" y="120.6" width="5.4" height="3.5" fill="#dc2626" opacity="0.82" rx="1"/>
<line x1="214.0" y1="89.6" x2="214.0" y2="127.2" stroke="#16a34a" stroke-width="1"/><rect x="211.3" y="91.2" width="5.4" height="33.0" fill="#16a34a" opacity="0.82" rx="1"/>
<line x1="222.9" y1="86.1" x2="222.9" y2="120.4" stroke="#dc2626" stroke-width="1"/><rect x="220.2" y="90.8" width="5.4" height="26.5" fill="#dc2626" opacity="0.82" rx="1"/>
<line x1="231.8" y1="110.2" x2="231.8" y2="133.1" stroke="#dc2626" stroke-width="1"/><rect x="229.1" y="117.3" width="5.4" height="13.0" fill="#dc2626" opacity="0.82" rx="1"/>
<line x1="240.7" y1="118.9" x2="240.7" y2="138.9" stroke="#16a34a" stroke-width="1"/><rect x="237.9" y="121.4" width="5.4" height="8.6" fill="#16a34a" opacity="0.82" rx="1"/>
<line x1="249.5" y1="113.1" x2="249.5" y2="154.4" stroke="#dc2626" stroke-width="1"/><rect x="246.8" y="121.4" width="5.4" height="31.3" fill="#dc2626" opacity="0.82" rx="1"/>
<line x1="258.4" y1="147.2" x2="258.4" y2="166.7" stroke="#16a34a" stroke-width="1"/><rect x="255.7" y="150.8" width="5.4" height="1.9" fill="#16a34a" opacity="0.82" rx="1"/>
<line x1="267.3" y1="119.3" x2="267.3" y2="167.2" stroke="#16a34a" stroke-width="1"/><rect x="264.6" y="138.6" width="5.4" height="12.1" fill="#16a34a" opacity="0.82" rx="1"/>
<line x1="276.2" y1="132.9" x2="276.2" y2="318.9" stroke="#dc2626" stroke-width="1"/><rect x="273.4" y="138.6" width="5.4" height="165.7" fill="#dc2626" opacity="0.82" rx="1"/>
<line x1="285.0" y1="201.4" x2="285.0" y2="305.1" stroke="#16a34a" stroke-width="1"/><rect x="282.3" y="228.3" width="5.4" height="76.7" fill="#16a34a" opacity="0.82" rx="1"/>
<line x1="293.9" y1="182.0" x2="293.9" y2="256.8" stroke="#16a34a" stroke-width="1"/><rect x="291.2" y="189.2" width="5.4" height="39.2" fill="#16a34a" opacity="0.82" rx="1"/>
<line x1="302.8" y1="158.3" x2="302.8" y2="217.7" stroke="#dc2626" stroke-width="1"/><rect x="300.1" y="189.1" width="5.4" height="20.1" fill="#dc2626" opacity="0.82" rx="1"/>
<line x1="311.7" y1="128.0" x2="311.7" y2="211.5" stroke="#16a34a" stroke-width="1"/><rect x="308.9" y="130.7" width="5.4" height="78.6" fill="#16a34a" opacity="0.82" rx="1"/>
<line x1="320.5" y1="122.3" x2="320.5" y2="155.1" stroke="#16a34a" stroke-width="1"/><rect x="317.8" y="122.9" width="5.4" height="7.4" fill="#16a34a" opacity="0.82" rx="1"/>
<line x1="329.4" y1="121.9" x2="329.4" y2="171.3" stroke="#dc2626" stroke-width="1"/><rect x="326.7" y="122.9" width="5.4" height="3.6" fill="#dc2626" opacity="0.82" rx="1"/>
<line x1="338.3" y1="101.7" x2="338.3" y2="147.8" stroke="#dc2626" stroke-width="1"/><rect x="335.6" y="126.6" width="5.4" height="15.7" fill="#dc2626" opacity="0.82" rx="1"/>
<line x1="347.2" y1="77.9" x2="347.2" y2="151.4" stroke="#16a34a" stroke-width="1"/><rect x="344.4" y="91.6" width="5.4" height="50.6" fill="#16a34a" opacity="0.82" rx="1"/>
<line x1="356.0" y1="82.3" x2="356.0" y2="128.8" stroke="#dc2626" stroke-width="1"/><rect x="353.3" y="91.2" width="5.4" height="26.5" fill="#dc2626" opacity="0.82" rx="1"/>
<line x1="364.9" y1="56.2" x2="364.9" y2="128.5" stroke="#16a34a" stroke-width="1"/><rect x="362.2" y="105.7" width="5.4" height="11.4" fill="#16a34a" opacity="0.82" rx="1"/>
<line x1="373.8" y1="91.6" x2="373.8" y2="129.0" stroke="#dc2626" stroke-width="1"/><rect x="371.1" y="105.7" width="5.4" height="22.1" fill="#dc2626" opacity="0.82" rx="1"/>
<line x1="382.7" y1="121.7" x2="382.7" y2="157.8" stroke="#dc2626" stroke-width="1"/><rect x="380.0" y="127.5" width="5.4" height="9.8" fill="#dc2626" opacity="0.82" rx="1"/>
<line x1="391.6" y1="136.4" x2="391.6" y2="207.8" stroke="#dc2626" stroke-width="1"/><rect x="388.8" y="137.4" width="5.4" height="61.4" fill="#dc2626" opacity="0.82" rx="1"/>
<line x1="400.4" y1="114.8" x2="400.4" y2="204.5" stroke="#16a34a" stroke-width="1"/><rect x="397.7" y="115.6" width="5.4" height="82.9" fill="#16a34a" opacity="0.82" rx="1"/>
<line x1="409.3" y1="112.1" x2="409.3" y2="162.4" stroke="#dc2626" stroke-width="1"/><rect x="406.6" y="115.6" width="5.4" height="40.1" fill="#dc2626" opacity="0.82" rx="1"/>
<line x1="418.2" y1="145.3" x2="418.2" y2="185.1" stroke="#dc2626" stroke-width="1"/><rect x="415.5" y="155.7" width="5.4" height="8.0" fill="#dc2626" opacity="0.82" rx="1"/>
<line x1="427.1" y1="115.6" x2="427.1" y2="177.2" stroke="#16a34a" stroke-width="1"/><rect x="424.3" y="120.3" width="5.4" height="43.4" fill="#16a34a" opacity="0.82" rx="1"/>
<line x1="435.9" y1="69.1" x2="435.9" y2="133.6" stroke="#16a34a" stroke-width="1"/><rect x="433.2" y="70.9" width="5.4" height="49.3" fill="#16a34a" opacity="0.82" rx="1"/>
<line x1="444.8" y1="55.5" x2="444.8" y2="110.9" stroke="#dc2626" stroke-width="1"/><rect x="442.1" y="71.6" width="5.4" height="36.6" fill="#dc2626" opacity="0.82" rx="1"/>
<line x1="453.7" y1="107.4" x2="453.7" y2="161.7" stroke="#dc2626" stroke-width="1"/><rect x="451.0" y="107.7" width="5.4" height="52.9" fill="#dc2626" opacity="0.82" rx="1"/>
<line x1="462.6" y1="160.5" x2="462.6" y2="189.9" stroke="#dc2626" stroke-width="1"/><rect x="459.8" y="160.5" width="5.4" height="24.9" fill="#dc2626" opacity="0.82" rx="1"/>
<line x1="471.4" y1="169.0" x2="471.4" y2="193.6" stroke="#16a34a" stroke-width="1"/><rect x="468.7" y="181.2" width="5.4" height="4.3" fill="#16a34a" opacity="0.82" rx="1"/>
<line x1="480.3" y1="160.2" x2="480.3" y2="217.3" stroke="#dc2626" stroke-width="1"/><rect x="477.6" y="181.2" width="5.4" height="21.4" fill="#dc2626" opacity="0.82" rx="1"/>
<line x1="489.2" y1="113.1" x2="489.2" y2="223.6" stroke="#16a34a" stroke-width="1"/><rect x="486.5" y="117.8" width="5.4" height="84.6" fill="#16a34a" opacity="0.82" rx="1"/>
<line x1="498.1" y1="82.7" x2="498.1" y2="128.2" stroke="#16a34a" stroke-width="1"/><rect x="495.3" y="111.8" width="5.4" height="6.1" fill="#16a34a" opacity="0.82" rx="1"/>
<line x1="506.9" y1="69.2" x2="506.9" y2="114.3" stroke="#16a34a" stroke-width="1"/><rect x="504.2" y="77.6" width="5.4" height="34.0" fill="#16a34a" opacity="0.82" rx="1"/>
<line x1="515.8" y1="59.3" x2="515.8" y2="102.1" stroke="#16a34a" stroke-width="1"/><rect x="513.1" y="73.8" width="5.4" height="3.6" fill="#16a34a" opacity="0.82" rx="1"/>
<line x1="524.7" y1="55.1" x2="524.7" y2="96.9" stroke="#dc2626" stroke-width="1"/><rect x="522.0" y="73.6" width="5.4" height="16.1" fill="#dc2626" opacity="0.82" rx="1"/>
<line x1="533.6" y1="64.8" x2="533.6" y2="111.9" stroke="#dc2626" stroke-width="1"/><rect x="530.9" y="89.7" width="5.4" height="19.9" fill="#dc2626" opacity="0.82" rx="1"/>
<line x1="542.4" y1="58.7" x2="542.4" y2="116.0" stroke="#16a34a" stroke-width="1"/><rect x="539.7" y="82.9" width="5.4" height="26.4" fill="#16a34a" opacity="0.82" rx="1"/>
<line x1="551.3" y1="67.3" x2="551.3" y2="124.1" stroke="#dc2626" stroke-width="1"/><rect x="548.6" y="83.0" width="5.4" height="38.0" fill="#dc2626" opacity="0.82" rx="1"/>
<line x1="560.2" y1="92.0" x2="560.2" y2="137.6" stroke="#16a34a" stroke-width="1"/><rect x="557.5" y="112.0" width="5.4" height="9.0" fill="#16a34a" opacity="0.82" rx="1"/>
<line x1="569.1" y1="102.4" x2="569.1" y2="125.8" stroke="#16a34a" stroke-width="1"/><rect x="566.4" y="102.4" width="5.4" height="9.6" fill="#16a34a" opacity="0.82" rx="1"/>
<line x1="578.0" y1="84.9" x2="578.0" y2="103.4" stroke="#16a34a" stroke-width="1"/><rect x="575.2" y="95.9" width="5.4" height="6.7" fill="#16a34a" opacity="0.82" rx="1"/>
<line x1="586.8" y1="94.6" x2="586.8" y2="137.5" stroke="#dc2626" stroke-width="1"/><rect x="584.1" y="95.8" width="5.4" height="27.0" fill="#dc2626" opacity="0.82" rx="1"/>
<line x1="595.7" y1="118.7" x2="595.7" y2="135.4" stroke="#dc2626" stroke-width="1"/><rect x="593.0" y="122.6" width="5.4" height="9.0" fill="#dc2626" opacity="0.82" rx="1"/>
<line x1="604.6" y1="91.5" x2="604.6" y2="138.2" stroke="#16a34a" stroke-width="1"/><rect x="601.9" y="100.6" width="5.4" height="31.3" fill="#16a34a" opacity="0.82" rx="1"/>
<line x1="613.5" y1="94.8" x2="613.5" y2="114.6" stroke="#dc2626" stroke-width="1"/><rect x="610.7" y="100.7" width="5.4" height="8.8" fill="#dc2626" opacity="0.82" rx="1"/>
<line x1="622.3" y1="81.9" x2="622.3" y2="112.7" stroke="#dc2626" stroke-width="1"/><rect x="619.6" y="109.9" width="5.4" height="1.2" fill="#dc2626" opacity="0.82" rx="1"/>
<line x1="631.2" y1="107.3" x2="631.2" y2="121.4" stroke="#dc2626" stroke-width="1"/><rect x="628.5" y="109.2" width="5.4" height="8.9" fill="#dc2626" opacity="0.82" rx="1"/>
<line x1="640.1" y1="110.6" x2="640.1" y2="141.8" stroke="#dc2626" stroke-width="1"/><rect x="637.4" y="118.2" width="5.4" height="9.6" fill="#dc2626" opacity="0.82" rx="1"/>
<line x1="649.0" y1="116.8" x2="649.0" y2="136.3" stroke="#16a34a" stroke-width="1"/><rect x="646.2" y="124.4" width="5.4" height="3.5" fill="#16a34a" opacity="0.82" rx="1"/>
<line x1="657.8" y1="111.1" x2="657.8" y2="134.9" stroke="#dc2626" stroke-width="1"/><rect x="655.1" y="124.6" width="5.4" height="5.6" fill="#dc2626" opacity="0.82" rx="1"/>
<line x1="666.7" y1="128.0" x2="666.7" y2="159.6" stroke="#dc2626" stroke-width="1"/><rect x="664.0" y="130.1" width="5.4" height="20.6" fill="#dc2626" opacity="0.82" rx="1"/>
<line x1="675.6" y1="136.6" x2="675.6" y2="151.8" stroke="#16a34a" stroke-width="1"/><rect x="672.9" y="136.8" width="5.4" height="14.0" fill="#16a34a" opacity="0.82" rx="1"/>
<line x1="684.5" y1="118.3" x2="684.5" y2="153.9" stroke="#16a34a" stroke-width="1"/><rect x="681.8" y="130.4" width="5.4" height="6.3" fill="#16a34a" opacity="0.82" rx="1"/>
<line x1="693.3" y1="130.0" x2="693.3" y2="150.9" stroke="#dc2626" stroke-width="1"/><rect x="690.6" y="130.7" width="5.4" height="6.5" fill="#dc2626" opacity="0.82" rx="1"/>
<line x1="702.2" y1="110.4" x2="702.2" y2="139.7" stroke="#16a34a" stroke-width="1"/><rect x="699.5" y="120.5" width="5.4" height="15.8" fill="#16a34a" opacity="0.82" rx="1"/>
<line x1="711.1" y1="100.6" x2="711.1" y2="128.5" stroke="#16a34a" stroke-width="1"/><rect x="708.4" y="116.7" width="5.4" height="3.6" fill="#16a34a" opacity="0.82" rx="1"/>
<line x1="720.0" y1="82.6" x2="720.0" y2="116.1" stroke="#16a34a" stroke-width="1"/><rect x="717.3" y="93.5" width="5.4" height="22.5" fill="#16a34a" opacity="0.82" rx="1"/>
<line x1="728.9" y1="93.2" x2="728.9" y2="113.3" stroke="#dc2626" stroke-width="1"/><rect x="726.1" y="94.0" width="5.4" height="7.5" fill="#dc2626" opacity="0.82" rx="1"/>
<line x1="737.7" y1="101.2" x2="737.7" y2="146.3" stroke="#dc2626" stroke-width="1"/><rect x="735.0" y="101.5" width="5.4" height="43.5" fill="#dc2626" opacity="0.82" rx="1"/>
<line x1="746.6" y1="138.0" x2="746.6" y2="152.7" stroke="#dc2626" stroke-width="1"/><rect x="743.9" y="144.9" width="5.4" height="1.2" fill="#dc2626" opacity="0.82" rx="1"/>
<line x1="755.5" y1="139.7" x2="755.5" y2="178.8" stroke="#dc2626" stroke-width="1"/><rect x="752.8" y="145.0" width="5.4" height="31.2" fill="#dc2626" opacity="0.82" rx="1"/>
<line x1="764.4" y1="164.6" x2="764.4" y2="184.3" stroke="#16a34a" stroke-width="1"/><rect x="761.6" y="168.4" width="5.4" height="7.8" fill="#16a34a" opacity="0.82" rx="1"/>
<line x1="773.2" y1="153.1" x2="773.2" y2="174.6" stroke="#16a34a" stroke-width="1"/><rect x="770.5" y="165.1" width="5.4" height="3.3" fill="#16a34a" opacity="0.82" rx="1"/>
<line x1="782.1" y1="160.5" x2="782.1" y2="193.6" stroke="#16a34a" stroke-width="1"/><rect x="779.4" y="161.1" width="5.4" height="4.0" fill="#16a34a" opacity="0.82" rx="1"/>
<line x1="791.0" y1="159.5" x2="791.0" y2="203.3" stroke="#dc2626" stroke-width="1"/><rect x="788.3" y="161.1" width="5.4" height="35.6" fill="#dc2626" opacity="0.82" rx="1"/>
<line x1="799.9" y1="178.1" x2="799.9" y2="199.8" stroke="#16a34a" stroke-width="1"/><rect x="797.1" y="192.5" width="5.4" height="4.1" fill="#16a34a" opacity="0.82" rx="1"/>
<line x1="808.7" y1="180.7" x2="808.7" y2="207.5" stroke="#16a34a" stroke-width="1"/><rect x="806.0" y="185.6" width="5.4" height="6.8" fill="#16a34a" opacity="0.82" rx="1"/>
<line x1="817.6" y1="179.2" x2="817.6" y2="196.3" stroke="#dc2626" stroke-width="1"/><rect x="814.9" y="185.6" width="5.4" height="2.0" fill="#dc2626" opacity="0.82" rx="1"/>
<line x1="826.5" y1="174.5" x2="826.5" y2="188.8" stroke="#16a34a" stroke-width="1"/><rect x="823.8" y="175.8" width="5.4" height="11.3" fill="#16a34a" opacity="0.82" rx="1"/>
<line x1="835.4" y1="172.8" x2="835.4" y2="190.3" stroke="#dc2626" stroke-width="1"/><rect x="832.6" y="175.7" width="5.4" height="10.4" fill="#dc2626" opacity="0.82" rx="1"/>
<line x1="844.2" y1="180.6" x2="844.2" y2="197.3" stroke="#16a34a" stroke-width="1"/><rect x="841.5" y="185.3" width="5.4" height="1.2" fill="#16a34a" opacity="0.82" rx="1"/>
<line x1="853.1" y1="176.0" x2="853.1" y2="198.6" stroke="#16a34a" stroke-width="1"/><rect x="850.4" y="184.6" width="5.4" height="1.2" fill="#16a34a" opacity="0.82" rx="1"/>
<line x1="862.0" y1="167.3" x2="862.0" y2="184.7" stroke="#16a34a" stroke-width="1"/><rect x="859.3" y="171.2" width="5.4" height="13.4" fill="#16a34a" opacity="0.82" rx="1"/>
<line x1="72" y1="206.2" x2="862" y2="206.2" stroke="#16a34a" stroke-width="1.8" stroke-dasharray="6 4" /><rect x="874" y="186.2" width="166" height="23" rx="5" fill="#ffffff" stroke="#16a34a" opacity="0.97"/><text x="881" y="202.2" fill="#16a34a" font-size="15" font-weight="700">日内支撑 61.36</text>
<line x1="72" y1="113.0" x2="862" y2="113.0" stroke="#dc2626" stroke-width="1.8" stroke-dasharray="6 4" /><rect x="874" y="93.0" width="166" height="23" rx="5" fill="#ffffff" stroke="#dc2626" opacity="0.97"/><text x="881" y="109.0" fill="#dc2626" font-size="15" font-weight="700">日内压力 63.87</text>
<line x1="72" y1="171.2" x2="862" y2="171.2" stroke="#111827" stroke-width="1.8" stroke-dasharray="2 2" /><rect x="874" y="151.2" width="166" height="23" rx="5" fill="#ffffff" stroke="#111827" opacity="0.97"/><text x="881" y="167.2" fill="#111827" font-size="15" font-weight="700">现价 62.30</text>
<text x="72" y="396" fill="#16a34a" font-size="14" font-weight="700">日内做多计划</text><rect x="72" y="404" width="790" height="48" rx="6" fill="#f9fafb" stroke="#e5e7eb"/><line x1="94" y1="412" x2="840" y2="412" stroke="#16a34a" stroke-width="3"/><circle cx="132.0" cy="412" r="5" fill="#16a34a"/><text x="132.0" y="434" fill="#374151" font-size="12" text-anchor="middle">入场 止跌/突破回踩</text><circle cx="451.2" cy="412" r="5" fill="#16a34a"/><text x="451.2" y="434" fill="#374151" font-size="12" text-anchor="middle">止损 61.36</text><circle cx="712.0" cy="412" r="5" fill="#16a34a"/><text x="712.0" y="434" fill="#374151" font-size="12" text-anchor="middle">目标一 63.87</text><circle cx="814.0" cy="412" r="5" fill="#16a34a"/><text x="814.0" y="434" fill="#374151" font-size="12" text-anchor="middle">目标二 64.50</text>
<text x="72" y="482" fill="#dc2626" font-size="14" font-weight="700">日内做空计划</text><rect x="72" y="490" width="790" height="48" rx="6" fill="#f9fafb" stroke="#e5e7eb"/><line x1="94" y1="498" x2="840" y2="498" stroke="#dc2626" stroke-width="3"/><circle cx="132.0" cy="498" r="5" fill="#dc2626"/><text x="132.0" y="520" fill="#374151" font-size="12" text-anchor="middle">入场 反弹承压/破位回抽</text><circle cx="451.2" cy="498" r="5" fill="#dc2626"/><text x="451.2" y="520" fill="#374151" font-size="12" text-anchor="middle">止损 63.87</text><circle cx="712.0" cy="498" r="5" fill="#dc2626"/><text x="712.0" y="520" fill="#374151" font-size="12" text-anchor="middle">目标一 61.36</text><circle cx="814.0" cy="498" r="5" fill="#dc2626"/><text x="814.0" y="520" fill="#374151" font-size="12" text-anchor="middle">目标二 60.73</text>
</svg>