<svg xmlns="http://www.w3.org/2000/svg" width="1080" height="560" viewBox="0 0 1080 560">
<rect width="100%" height="100%" fill="#ffffff"/>
<text x="72" y="23" fill="#111827" font-size="21" font-weight="800">DRAM 日线K线支撑压力图</text>
<text x="862" y="42" fill="#374151" font-size="15" text-anchor="end">最新价 72.36</text>
<line x1="72" y1="34" x2="72" y2="340" stroke="#d1d5db"/>
<line x1="72" y1="340" x2="862" y2="340" stroke="#d1d5db"/>
<line x1="72" y1="340.0" x2="862" y2="340.0" stroke="#f3f4f6"/>
<text x="8" y="345.0" fill="#4b5563" font-size="14">43.33</text>
<line x1="72" y1="263.5" x2="862" y2="263.5" stroke="#f3f4f6"/>
<text x="8" y="268.5" fill="#4b5563" font-size="14">54.97</text>
<line x1="72" y1="187.0" x2="862" y2="187.0" stroke="#f3f4f6"/>
<text x="8" y="192.0" fill="#4b5563" font-size="14">66.60</text>
<line x1="72" y1="110.5" x2="862" y2="110.5" stroke="#f3f4f6"/>
<text x="8" y="115.5" fill="#4b5563" font-size="14">78.23</text>
<line x1="72" y1="34.0" x2="862" y2="34.0" stroke="#f3f4f6"/>
<text x="8" y="39.0" fill="#4b5563" font-size="14">89.87</text>
<line x1="72.0" y1="283.7" x2="72.0" y2="308.7" stroke="#dc2626" stroke-width="1"/><rect x="67.5" y="288.0" width="9.0" height="9.6" fill="#dc2626" opacity="0.82" rx="1"/>
<line x1="91.3" y1="289.3" x2="91.3" y2="318.9" stroke="#16a34a" stroke-width="1"/><rect x="86.8" y="296.1" width="9.0" height="1.4" fill="#16a34a" opacity="0.82" rx="1"/>
<line x1="110.5" y1="282.7" x2="110.5" y2="309.4" stroke="#16a34a" stroke-width="1"/><rect x="106.0" y="284.8" width="9.0" height="11.4" fill="#16a34a" opacity="0.82" rx="1"/>
<line x1="129.8" y1="261.6" x2="129.8" y2="288.8" stroke="#16a34a" stroke-width="1"/><rect x="125.3" y="264.5" width="9.0" height="20.3" fill="#16a34a" opacity="0.82" rx="1"/>
<line x1="149.1" y1="264.2" x2="149.1" y2="279.1" stroke="#dc2626" stroke-width="1"/><rect x="144.6" y="264.5" width="9.0" height="14.4" fill="#dc2626" opacity="0.82" rx="1"/>
<line x1="168.3" y1="256.3" x2="168.3" y2="293.3" stroke="#16a34a" stroke-width="1"/><rect x="163.8" y="267.8" width="9.0" height="10.9" fill="#16a34a" opacity="0.82" rx="1"/>
<line x1="187.6" y1="256.0" x2="187.6" y2="269.1" stroke="#16a34a" stroke-width="1"/><rect x="183.1" y="260.8" width="9.0" height="6.8" fill="#16a34a" opacity="0.82" rx="1"/>
<line x1="206.9" y1="239.4" x2="206.9" y2="262.6" stroke="#16a34a" stroke-width="1"/><rect x="202.4" y="253.4" width="9.0" height="7.4" fill="#16a34a" opacity="0.82" rx="1"/>
<line x1="226.1" y1="208.7" x2="226.1" y2="265.4" stroke="#16a34a" stroke-width="1"/><rect x="221.6" y="215.9" width="9.0" height="37.5" fill="#16a34a" opacity="0.82" rx="1"/>
<line x1="245.4" y1="206.1" x2="245.4" y2="236.4" stroke="#dc2626" stroke-width="1"/><rect x="240.9" y="215.9" width="9.0" height="17.0" fill="#dc2626" opacity="0.82" rx="1"/>
<line x1="264.7" y1="205.7" x2="264.7" y2="247.2" stroke="#16a34a" stroke-width="1"/><rect x="260.2" y="210.3" width="9.0" height="22.6" fill="#16a34a" opacity="0.82" rx="1"/>
<line x1="284.0" y1="201.8" x2="284.0" y2="220.1" stroke="#16a34a" stroke-width="1"/><rect x="279.5" y="208.6" width="9.0" height="1.6" fill="#16a34a" opacity="0.82" rx="1"/>
<line x1="303.2" y1="191.2" x2="303.2" y2="211.3" stroke="#16a34a" stroke-width="1"/><rect x="298.7" y="192.3" width="9.0" height="16.4" fill="#16a34a" opacity="0.82" rx="1"/>
<line x1="322.5" y1="181.2" x2="322.5" y2="196.1" stroke="#16a34a" stroke-width="1"/><rect x="318.0" y="190.1" width="9.0" height="2.1" fill="#16a34a" opacity="0.82" rx="1"/>
<line x1="341.8" y1="170.7" x2="341.8" y2="201.8" stroke="#16a34a" stroke-width="1"/><rect x="337.3" y="176.5" width="9.0" height="13.5" fill="#16a34a" opacity="0.82" rx="1"/>
<line x1="361.0" y1="163.5" x2="361.0" y2="194.8" stroke="#16a34a" stroke-width="1"/><rect x="356.5" y="168.3" width="9.0" height="8.4" fill="#16a34a" opacity="0.82" rx="1"/>
<line x1="380.3" y1="162.5" x2="380.3" y2="188.3" stroke="#dc2626" stroke-width="1"/><rect x="375.8" y="168.2" width="9.0" height="18.1" fill="#dc2626" opacity="0.82" rx="1"/>
<line x1="399.6" y1="177.7" x2="399.6" y2="209.5" stroke="#dc2626" stroke-width="1"/><rect x="395.1" y="186.3" width="9.0" height="22.0" fill="#dc2626" opacity="0.82" rx="1"/>
<line x1="418.8" y1="203.2" x2="418.8" y2="273.4" stroke="#dc2626" stroke-width="1"/><rect x="414.3" y="208.4" width="9.0" height="52.1" fill="#dc2626" opacity="0.82" rx="1"/>
<line x1="438.1" y1="253.7" x2="438.1" y2="279.6" stroke="#16a34a" stroke-width="1"/><rect x="433.6" y="258.5" width="9.0" height="2.0" fill="#16a34a" opacity="0.82" rx="1"/>
<line x1="457.4" y1="231.5" x2="457.4" y2="263.3" stroke="#16a34a" stroke-width="1"/><rect x="452.9" y="253.7" width="9.0" height="4.8" fill="#16a34a" opacity="0.82" rx="1"/>
<line x1="476.6" y1="219.4" x2="476.6" y2="256.6" stroke="#16a34a" stroke-width="1"/><rect x="472.1" y="224.5" width="9.0" height="29.3" fill="#16a34a" opacity="0.82" rx="1"/>
<line x1="495.9" y1="202.8" x2="495.9" y2="260.3" stroke="#dc2626" stroke-width="1"/><rect x="491.4" y="224.5" width="9.0" height="7.6" fill="#dc2626" opacity="0.82" rx="1"/>
<line x1="515.2" y1="220.3" x2="515.2" y2="259.4" stroke="#dc2626" stroke-width="1"/><rect x="510.7" y="232.1" width="9.0" height="21.7" fill="#dc2626" opacity="0.82" rx="1"/>
<line x1="534.4" y1="186.4" x2="534.4" y2="255.4" stroke="#16a34a" stroke-width="1"/><rect x="529.9" y="190.8" width="9.0" height="62.8" fill="#16a34a" opacity="0.82" rx="1"/>
<line x1="553.7" y1="189.8" x2="553.7" y2="215.5" stroke="#dc2626" stroke-width="1"/><rect x="549.2" y="190.9" width="9.0" height="2.4" fill="#dc2626" opacity="0.82" rx="1"/>
<line x1="573.0" y1="191.1" x2="573.0" y2="204.8" stroke="#16a34a" stroke-width="1"/><rect x="568.5" y="192.5" width="9.0" height="1.2" fill="#16a34a" opacity="0.82" rx="1"/>
<line x1="592.2" y1="169.7" x2="592.2" y2="193.8" stroke="#16a34a" stroke-width="1"/><rect x="587.7" y="176.0" width="9.0" height="16.4" fill="#16a34a" opacity="0.82" rx="1"/>
<line x1="611.5" y1="155.8" x2="611.5" y2="181.9" stroke="#16a34a" stroke-width="1"/><rect x="607.0" y="159.1" width="9.0" height="17.1" fill="#16a34a" opacity="0.82" rx="1"/>
<line x1="630.8" y1="144.4" x2="630.8" y2="179.2" stroke="#dc2626" stroke-width="1"/><rect x="626.3" y="159.2" width="9.0" height="12.8" fill="#dc2626" opacity="0.82" rx="1"/>
<line x1="650.0" y1="143.0" x2="650.0" y2="172.1" stroke="#16a34a" stroke-width="1"/><rect x="645.5" y="148.4" width="9.0" height="23.5" fill="#16a34a" opacity="0.82" rx="1"/>
<line x1="669.3" y1="108.5" x2="669.3" y2="150.0" stroke="#16a34a" stroke-width="1"/><rect x="664.8" y="110.5" width="9.0" height="37.8" fill="#16a34a" opacity="0.82" rx="1"/>
<line x1="688.6" y1="107.5" x2="688.6" y2="132.8" stroke="#dc2626" stroke-width="1"/><rect x="684.1" y="110.5" width="9.0" height="3.9" fill="#dc2626" opacity="0.82" rx="1"/>
<line x1="707.9" y1="93.2" x2="707.9" y2="115.8" stroke="#16a34a" stroke-width="1"/><rect x="703.4" y="98.2" width="9.0" height="16.4" fill="#16a34a" opacity="0.82" rx="1"/>
<line x1="727.1" y1="89.9" x2="727.1" y2="121.6" stroke="#dc2626" stroke-width="1"/><rect x="722.6" y="98.2" width="9.0" height="18.9" fill="#dc2626" opacity="0.82" rx="1"/>
<line x1="746.4" y1="86.0" x2="746.4" y2="131.8" stroke="#16a34a" stroke-width="1"/><rect x="741.9" y="95.6" width="9.0" height="21.6" fill="#16a34a" opacity="0.82" rx="1"/>
<line x1="765.7" y1="95.0" x2="765.7" y2="173.2" stroke="#dc2626" stroke-width="1"/><rect x="761.2" y="95.6" width="9.0" height="65.6" fill="#dc2626" opacity="0.82" rx="1"/>
<line x1="784.9" y1="89.0" x2="784.9" y2="182.9" stroke="#16a34a" stroke-width="1"/><rect x="780.4" y="97.2" width="9.0" height="63.8" fill="#16a34a" opacity="0.82" rx="1"/>
<line x1="804.2" y1="96.4" x2="804.2" y2="141.5" stroke="#dc2626" stroke-width="1"/><rect x="799.7" y="97.1" width="9.0" height="24.7" fill="#dc2626" opacity="0.82" rx="1"/>
<line x1="823.5" y1="119.5" x2="823.5" y2="158.1" stroke="#dc2626" stroke-width="1"/><rect x="819.0" y="121.7" width="9.0" height="27.7" fill="#dc2626" opacity="0.82" rx="1"/>
<line x1="842.7" y1="143.6" x2="842.7" y2="151.3" stroke="#dc2626" stroke-width="1"/><rect x="838.2" y="149.3" width="9.0" height="1.2" fill="#dc2626" opacity="0.82" rx="1"/>
<line x1="862.0" y1="147.8" x2="862.0" y2="154.0" stroke="#16a34a" stroke-width="1"/><rect x="857.5" y="149.1" width="9.0" height="1.2" fill="#16a34a" opacity="0.82" rx="1"/>
<line x1="72" y1="205.5" x2="862" y2="205.5" stroke="#16a34a" stroke-width="1.8" stroke-dasharray="6 4" /><rect x="874" y="185.5" width="166" height="23" rx="5" fill="#ffffff" stroke="#16a34a" opacity="0.97"/><text x="881" y="201.5" fill="#16a34a" font-size="15" font-weight="700">支撑 63.78</text>
<line x1="72" y1="55.1" x2="862" y2="55.1" stroke="#dc2626" stroke-width="1.8" stroke-dasharray="6 4" /><rect x="874" y="35.1" width="166" height="23" rx="5" fill="#ffffff" stroke="#dc2626" opacity="0.97"/><text x="881" y="51.1" fill="#dc2626" font-size="15" font-weight="700">压力 86.66</text>
<line x1="72" y1="149.1" x2="862" y2="149.1" stroke="#111827" stroke-width="1.8" stroke-dasharray="2 2" /><rect x="874" y="129.1" width="166" height="23" rx="5" fill="#ffffff" stroke="#111827" opacity="0.97"/><text x="881" y="145.1" fill="#111827" font-size="15" font-weight="700">现价 72.36</text>
<text x="72" y="396" fill="#16a34a" font-size="14" font-weight="700">日线做多计划</text><rect x="72" y="404" width="790" height="48" rx="6" fill="#f9fafb" stroke="#e5e7eb"/><line x1="94" y1="412" x2="840" y2="412" stroke="#16a34a" stroke-width="3"/><circle cx="132.0" cy="412" r="5" fill="#16a34a"/><text x="132.0" y="434" fill="#374151" font-size="12" text-anchor="middle">入场 止跌/突破回踩</text><circle cx="451.2" cy="412" r="5" fill="#16a34a"/><text x="451.2" y="434" fill="#374151" font-size="12" text-anchor="middle">止损 63.78</text><circle cx="712.0" cy="412" r="5" fill="#16a34a"/><text x="712.0" y="434" fill="#374151" font-size="12" text-anchor="middle">目标一 86.66</text><circle cx="814.0" cy="412" r="5" fill="#16a34a"/><text x="814.0" y="434" fill="#374151" font-size="12" text-anchor="middle">目标二 95.24</text>
<text x="72" y="482" fill="#dc2626" font-size="14" font-weight="700">日线做空计划</text><rect x="72" y="490" width="790" height="48" rx="6" fill="#f9fafb" stroke="#e5e7eb"/><line x1="94" y1="498" x2="840" y2="498" stroke="#dc2626" stroke-width="3"/><circle cx="132.0" cy="498" r="5" fill="#dc2626"/><text x="132.0" y="520" fill="#374151" font-size="12" text-anchor="middle">入场 反弹承压/破位回抽</text><circle cx="451.2" cy="498" r="5" fill="#dc2626"/><text x="451.2" y="520" fill="#374151" font-size="12" text-anchor="middle">止损 86.66</text><circle cx="712.0" cy="498" r="5" fill="#dc2626"/><text x="712.0" y="520" fill="#374151" font-size="12" text-anchor="middle">目标一 63.78</text><circle cx="814.0" cy="498" r="5" fill="#dc2626"/><text x="814.0" y="520" fill="#374151" font-size="12" text-anchor="middle">目标二 58.06</text>
</svg>