<svg xmlns="http://www.w3.org/2000/svg" width="1080" height="560" viewBox="0 0 1080 560">
<rect width="100%" height="100%" fill="#ffffff"/>
<text x="72" y="23" fill="#111827" font-size="21" font-weight="800">DRAM 日线K线支撑压力图</text>
<text x="862" y="42" fill="#374151" font-size="15" text-anchor="end">最新价 66.65</text>
<line x1="72" y1="34" x2="72" y2="340" stroke="#d1d5db"/>
<line x1="72" y1="340" x2="862" y2="340" stroke="#d1d5db"/>
<line x1="72" y1="340.0" x2="862" y2="340.0" stroke="#f3f4f6"/>
<text x="8" y="345.0" fill="#4b5563" font-size="14">43.85</text>
<line x1="72" y1="263.5" x2="862" y2="263.5" stroke="#f3f4f6"/>
<text x="8" y="268.5" fill="#4b5563" font-size="14">53.60</text>
<line x1="72" y1="187.0" x2="862" y2="187.0" stroke="#f3f4f6"/>
<text x="8" y="192.0" fill="#4b5563" font-size="14">63.36</text>
<line x1="72" y1="110.5" x2="862" y2="110.5" stroke="#f3f4f6"/>
<text x="8" y="115.5" fill="#4b5563" font-size="14">73.12</text>
<line x1="72" y1="34.0" x2="862" y2="34.0" stroke="#f3f4f6"/>
<text x="8" y="39.0" fill="#4b5563" font-size="14">82.87</text>
<line x1="72.0" y1="276.9" x2="72.0" y2="306.7" stroke="#dc2626" stroke-width="1"/><rect x="67.5" y="282.0" width="9.0" height="11.4" fill="#dc2626" opacity="0.82" rx="1"/>
<line x1="101.3" y1="283.6" x2="101.3" y2="318.9" stroke="#16a34a" stroke-width="1"/><rect x="96.8" y="291.7" width="9.0" height="1.7" fill="#16a34a" opacity="0.82" rx="1"/>
<line x1="130.5" y1="275.7" x2="130.5" y2="307.6" stroke="#16a34a" stroke-width="1"/><rect x="126.0" y="278.2" width="9.0" height="13.6" fill="#16a34a" opacity="0.82" rx="1"/>
<line x1="159.8" y1="250.6" x2="159.8" y2="283.1" stroke="#16a34a" stroke-width="1"/><rect x="155.3" y="254.0" width="9.0" height="24.2" fill="#16a34a" opacity="0.82" rx="1"/>
<line x1="189.0" y1="253.7" x2="189.0" y2="271.5" stroke="#dc2626" stroke-width="1"/><rect x="184.5" y="254.0" width="9.0" height="17.2" fill="#dc2626" opacity="0.82" rx="1"/>
<line x1="218.3" y1="244.2" x2="218.3" y2="288.4" stroke="#16a34a" stroke-width="1"/><rect x="213.8" y="258.0" width="9.0" height="13.0" fill="#16a34a" opacity="0.82" rx="1"/>
<line x1="247.6" y1="243.9" x2="247.6" y2="259.5" stroke="#16a34a" stroke-width="1"/><rect x="243.1" y="249.7" width="9.0" height="8.2" fill="#16a34a" opacity="0.82" rx="1"/>
<line x1="276.8" y1="224.1" x2="276.8" y2="251.8" stroke="#16a34a" stroke-width="1"/><rect x="272.3" y="240.8" width="9.0" height="8.8" fill="#16a34a" opacity="0.82" rx="1"/>
<line x1="306.1" y1="187.5" x2="306.1" y2="255.1" stroke="#16a34a" stroke-width="1"/><rect x="301.6" y="196.0" width="9.0" height="44.8" fill="#16a34a" opacity="0.82" rx="1"/>
<line x1="335.3" y1="184.4" x2="335.3" y2="220.6" stroke="#dc2626" stroke-width="1"/><rect x="330.8" y="196.1" width="9.0" height="20.2" fill="#dc2626" opacity="0.82" rx="1"/>
<line x1="364.6" y1="183.9" x2="364.6" y2="233.4" stroke="#16a34a" stroke-width="1"/><rect x="360.1" y="189.4" width="9.0" height="26.9" fill="#16a34a" opacity="0.82" rx="1"/>
<line x1="393.9" y1="179.2" x2="393.9" y2="201.1" stroke="#16a34a" stroke-width="1"/><rect x="389.4" y="187.4" width="9.0" height="1.9" fill="#16a34a" opacity="0.82" rx="1"/>
<line x1="423.1" y1="166.6" x2="423.1" y2="190.6" stroke="#16a34a" stroke-width="1"/><rect x="418.6" y="167.9" width="9.0" height="19.5" fill="#16a34a" opacity="0.82" rx="1"/>
<line x1="452.4" y1="154.7" x2="452.4" y2="172.4" stroke="#16a34a" stroke-width="1"/><rect x="447.9" y="165.3" width="9.0" height="2.5" fill="#16a34a" opacity="0.82" rx="1"/>
<line x1="481.6" y1="142.2" x2="481.6" y2="179.2" stroke="#16a34a" stroke-width="1"/><rect x="477.1" y="149.1" width="9.0" height="16.1" fill="#16a34a" opacity="0.82" rx="1"/>
<line x1="510.9" y1="133.5" x2="510.9" y2="170.9" stroke="#16a34a" stroke-width="1"/><rect x="506.4" y="139.3" width="9.0" height="10.0" fill="#16a34a" opacity="0.82" rx="1"/>
<line x1="540.1" y1="132.4" x2="540.1" y2="163.2" stroke="#dc2626" stroke-width="1"/><rect x="535.6" y="139.2" width="9.0" height="21.6" fill="#dc2626" opacity="0.82" rx="1"/>
<line x1="569.4" y1="150.5" x2="569.4" y2="188.4" stroke="#dc2626" stroke-width="1"/><rect x="564.9" y="160.8" width="9.0" height="26.3" fill="#dc2626" opacity="0.82" rx="1"/>
<line x1="598.7" y1="181.0" x2="598.7" y2="264.6" stroke="#dc2626" stroke-width="1"/><rect x="594.2" y="187.1" width="9.0" height="62.1" fill="#dc2626" opacity="0.82" rx="1"/>
<line x1="627.9" y1="241.1" x2="627.9" y2="272.1" stroke="#16a34a" stroke-width="1"/><rect x="623.4" y="246.8" width="9.0" height="2.4" fill="#16a34a" opacity="0.82" rx="1"/>
<line x1="657.2" y1="214.7" x2="657.2" y2="252.6" stroke="#16a34a" stroke-width="1"/><rect x="652.7" y="241.2" width="9.0" height="5.7" fill="#16a34a" opacity="0.82" rx="1"/>
<line x1="686.4" y1="200.3" x2="686.4" y2="244.6" stroke="#16a34a" stroke-width="1"/><rect x="681.9" y="206.4" width="9.0" height="34.9" fill="#16a34a" opacity="0.82" rx="1"/>
<line x1="715.7" y1="180.4" x2="715.7" y2="249.0" stroke="#dc2626" stroke-width="1"/><rect x="711.2" y="206.3" width="9.0" height="9.1" fill="#dc2626" opacity="0.82" rx="1"/>
<line x1="745.0" y1="201.3" x2="745.0" y2="247.9" stroke="#dc2626" stroke-width="1"/><rect x="740.5" y="215.4" width="9.0" height="25.9" fill="#dc2626" opacity="0.82" rx="1"/>
<line x1="774.2" y1="160.9" x2="774.2" y2="243.2" stroke="#16a34a" stroke-width="1"/><rect x="769.7" y="166.2" width="9.0" height="74.9" fill="#16a34a" opacity="0.82" rx="1"/>
<line x1="803.5" y1="164.9" x2="803.5" y2="195.6" stroke="#dc2626" stroke-width="1"/><rect x="799.0" y="166.2" width="9.0" height="2.9" fill="#dc2626" opacity="0.82" rx="1"/>
<line x1="832.7" y1="166.5" x2="832.7" y2="182.9" stroke="#16a34a" stroke-width="1"/><rect x="828.2" y="168.1" width="9.0" height="1.2" fill="#16a34a" opacity="0.82" rx="1"/>
<line x1="862.0" y1="160.1" x2="862.0" y2="169.7" stroke="#16a34a" stroke-width="1"/><rect x="857.5" y="161.2" width="9.0" height="6.8" fill="#16a34a" opacity="0.82" rx="1"/>
<line x1="72" y1="224.9" x2="862" y2="224.9" stroke="#16a34a" stroke-width="1.8" stroke-dasharray="6 4" /><rect x="874" y="204.9" width="166" height="23" rx="5" fill="#ffffff" stroke="#16a34a" opacity="0.97"/><text x="881" y="220.9" fill="#16a34a" font-size="15" font-weight="700">支撑 58.53</text>
<line x1="72" y1="55.1" x2="862" y2="55.1" stroke="#dc2626" stroke-width="1.8" stroke-dasharray="6 4" /><rect x="874" y="35.1" width="166" height="23" rx="5" fill="#ffffff" stroke="#dc2626" opacity="0.97"/><text x="881" y="51.1" fill="#dc2626" font-size="15" font-weight="700">压力 80.18</text>
<line x1="72" y1="161.2" x2="862" y2="161.2" stroke="#111827" stroke-width="1.8" stroke-dasharray="2 2" /><rect x="874" y="141.2" width="166" height="23" rx="5" fill="#ffffff" stroke="#111827" opacity="0.97"/><text x="881" y="157.2" fill="#111827" font-size="15" font-weight="700">现价 66.65</text>
<text x="72" y="396" fill="#16a34a" font-size="14" font-weight="700">日线做多计划</text><rect x="72" y="404" width="790" height="48" rx="6" fill="#f9fafb" stroke="#e5e7eb"/><line x1="94" y1="412" x2="840" y2="412" stroke="#16a34a" stroke-width="3"/><circle cx="132.0" cy="412" r="5" fill="#16a34a"/><text x="132.0" y="434" fill="#374151" font-size="12" text-anchor="middle">入场 止跌/突破回踩</text><circle cx="451.2" cy="412" r="5" fill="#16a34a"/><text x="451.2" y="434" fill="#374151" font-size="12" text-anchor="middle">止损 58.53</text><circle cx="712.0" cy="412" r="5" fill="#16a34a"/><text x="712.0" y="434" fill="#374151" font-size="12" text-anchor="middle">目标一 80.18</text><circle cx="814.0" cy="412" r="5" fill="#16a34a"/><text x="814.0" y="434" fill="#374151" font-size="12" text-anchor="middle">目标二 88.30</text>
<text x="72" y="482" fill="#dc2626" font-size="14" font-weight="700">日线做空计划</text><rect x="72" y="490" width="790" height="48" rx="6" fill="#f9fafb" stroke="#e5e7eb"/><line x1="94" y1="498" x2="840" y2="498" stroke="#dc2626" stroke-width="3"/><circle cx="132.0" cy="498" r="5" fill="#dc2626"/><text x="132.0" y="520" fill="#374151" font-size="12" text-anchor="middle">入场 反弹承压/破位回抽</text><circle cx="451.2" cy="498" r="5" fill="#dc2626"/><text x="451.2" y="520" fill="#374151" font-size="12" text-anchor="middle">止损 80.18</text><circle cx="712.0" cy="498" r="5" fill="#dc2626"/><text x="712.0" y="520" fill="#374151" font-size="12" text-anchor="middle">目标一 58.53</text><circle cx="814.0" cy="498" r="5" fill="#dc2626"/><text x="814.0" y="520" fill="#374151" font-size="12" text-anchor="middle">目标二 53.12</text>
</svg>