<svg xmlns="http://www.w3.org/2000/svg" width="1080" height="560" viewBox="0 0 1080 560">
<rect width="100%" height="100%" fill="#ffffff"/>
<text x="72" y="23" fill="#111827" font-size="21" font-weight="800">DRAM 小时线K线支撑压力图</text>
<text x="862" y="42" fill="#374151" font-size="15" text-anchor="end">最新价 65.73</text>
<line x1="72" y1="34" x2="72" y2="340" stroke="#d1d5db"/>
<line x1="72" y1="340" x2="862" y2="340" stroke="#d1d5db"/>
<line x1="72" y1="340.0" x2="862" y2="340.0" stroke="#f3f4f6"/>
<text x="8" y="345.0" fill="#4b5563" font-size="14">54.70</text>
<line x1="72" y1="263.5" x2="862" y2="263.5" stroke="#f3f4f6"/>
<text x="8" y="268.5" fill="#4b5563" font-size="14">57.92</text>
<line x1="72" y1="187.0" x2="862" y2="187.0" stroke="#f3f4f6"/>
<text x="8" y="192.0" fill="#4b5563" font-size="14">61.14</text>
<line x1="72" y1="110.5" x2="862" y2="110.5" stroke="#f3f4f6"/>
<text x="8" y="115.5" fill="#4b5563" font-size="14">64.36</text>
<line x1="72" y1="34.0" x2="862" y2="34.0" stroke="#f3f4f6"/>
<text x="8" y="39.0" fill="#4b5563" font-size="14">67.58</text>
<line x1="72.0" y1="234.5" x2="72.0" y2="249.7" stroke="#dc2626" stroke-width="1"/><rect x="69.3" y="238.1" width="5.4" height="9.7" fill="#dc2626" opacity="0.82" rx="1"/>
<line x1="80.9" y1="244.5" x2="80.9" y2="264.2" stroke="#dc2626" stroke-width="1"/><rect x="78.2" y="247.4" width="5.4" height="13.8" fill="#dc2626" opacity="0.82" rx="1"/>
<line x1="89.8" y1="256.9" x2="89.8" y2="275.9" stroke="#dc2626" stroke-width="1"/><rect x="87.0" y="262.1" width="5.4" height="1.2" fill="#dc2626" opacity="0.82" rx="1"/>
<line x1="98.6" y1="256.2" x2="98.6" y2="273.0" stroke="#16a34a" stroke-width="1"/><rect x="95.9" y="259.0" width="5.4" height="3.8" fill="#16a34a" opacity="0.82" rx="1"/>
<line x1="107.5" y1="256.6" x2="107.5" y2="293.2" stroke="#dc2626" stroke-width="1"/><rect x="104.8" y="259.0" width="5.4" height="28.5" fill="#dc2626" opacity="0.82" rx="1"/>
<line x1="116.4" y1="209.3" x2="116.4" y2="289.9" stroke="#16a34a" stroke-width="1"/><rect x="113.7" y="255.0" width="5.4" height="32.6" fill="#16a34a" opacity="0.82" rx="1"/>
<line x1="125.3" y1="201.3" x2="125.3" y2="266.6" stroke="#16a34a" stroke-width="1"/><rect x="122.5" y="231.0" width="5.4" height="24.0" fill="#16a34a" opacity="0.82" rx="1"/>
<line x1="134.1" y1="177.5" x2="134.1" y2="239.3" stroke="#16a34a" stroke-width="1"/><rect x="131.4" y="228.8" width="5.4" height="1.7" fill="#16a34a" opacity="0.82" rx="1"/>
<line x1="143.0" y1="220.3" x2="143.0" y2="273.5" stroke="#dc2626" stroke-width="1"/><rect x="140.3" y="228.6" width="5.4" height="15.4" fill="#dc2626" opacity="0.82" rx="1"/>
<line x1="151.9" y1="240.0" x2="151.9" y2="263.8" stroke="#dc2626" stroke-width="1"/><rect x="149.2" y="243.8" width="5.4" height="11.9" fill="#dc2626" opacity="0.82" rx="1"/>
<line x1="160.8" y1="249.0" x2="160.8" y2="272.3" stroke="#16a34a" stroke-width="1"/><rect x="158.0" y="253.3" width="5.4" height="2.9" fill="#16a34a" opacity="0.82" rx="1"/>
<line x1="169.6" y1="243.8" x2="169.6" y2="271.1" stroke="#dc2626" stroke-width="1"/><rect x="166.9" y="252.8" width="5.4" height="12.6" fill="#dc2626" opacity="0.82" rx="1"/>
<line x1="178.5" y1="259.7" x2="178.5" y2="282.8" stroke="#dc2626" stroke-width="1"/><rect x="175.8" y="265.4" width="5.4" height="10.7" fill="#dc2626" opacity="0.82" rx="1"/>
<line x1="187.4" y1="272.3" x2="187.4" y2="296.3" stroke="#dc2626" stroke-width="1"/><rect x="184.7" y="276.4" width="5.4" height="11.4" fill="#dc2626" opacity="0.82" rx="1"/>
<line x1="196.3" y1="284.4" x2="196.3" y2="294.9" stroke="#dc2626" stroke-width="1"/><rect x="193.5" y="287.5" width="5.4" height="5.2" fill="#dc2626" opacity="0.82" rx="1"/>
<line x1="205.1" y1="291.3" x2="205.1" y2="312.0" stroke="#dc2626" stroke-width="1"/><rect x="202.4" y="292.3" width="5.4" height="18.3" fill="#dc2626" opacity="0.82" rx="1"/>
<line x1="214.0" y1="290.6" x2="214.0" y2="318.9" stroke="#16a34a" stroke-width="1"/><rect x="211.3" y="298.7" width="5.4" height="11.9" fill="#16a34a" opacity="0.82" rx="1"/>
<line x1="222.9" y1="239.8" x2="222.9" y2="304.6" stroke="#16a34a" stroke-width="1"/><rect x="220.2" y="240.2" width="5.4" height="57.7" fill="#16a34a" opacity="0.82" rx="1"/>
<line x1="231.8" y1="205.3" x2="231.8" y2="240.9" stroke="#16a34a" stroke-width="1"/><rect x="229.1" y="238.3" width="5.4" height="1.7" fill="#16a34a" opacity="0.82" rx="1"/>
<line x1="240.7" y1="229.1" x2="240.7" y2="265.4" stroke="#dc2626" stroke-width="1"/><rect x="237.9" y="238.3" width="5.4" height="8.8" fill="#dc2626" opacity="0.82" rx="1"/>
<line x1="249.5" y1="226.2" x2="249.5" y2="259.0" stroke="#16a34a" stroke-width="1"/><rect x="246.8" y="227.2" width="5.4" height="20.0" fill="#16a34a" opacity="0.82" rx="1"/>
<line x1="258.4" y1="223.4" x2="258.4" y2="242.1" stroke="#dc2626" stroke-width="1"/><rect x="255.7" y="226.9" width="5.4" height="1.2" fill="#dc2626" opacity="0.82" rx="1"/>
<line x1="267.3" y1="227.6" x2="267.3" y2="241.9" stroke="#dc2626" stroke-width="1"/><rect x="264.6" y="228.1" width="5.4" height="8.6" fill="#dc2626" opacity="0.82" rx="1"/>
<line x1="276.2" y1="228.8" x2="276.2" y2="243.6" stroke="#16a34a" stroke-width="1"/><rect x="273.4" y="230.7" width="5.4" height="6.2" fill="#16a34a" opacity="0.82" rx="1"/>
<line x1="285.0" y1="218.8" x2="285.0" y2="235.2" stroke="#16a34a" stroke-width="1"/><rect x="282.3" y="222.2" width="5.4" height="8.6" fill="#16a34a" opacity="0.82" rx="1"/>
<line x1="293.9" y1="202.0" x2="293.9" y2="221.9" stroke="#16a34a" stroke-width="1"/><rect x="291.2" y="209.6" width="5.4" height="12.4" fill="#16a34a" opacity="0.82" rx="1"/>
<line x1="302.8" y1="202.4" x2="302.8" y2="220.0" stroke="#dc2626" stroke-width="1"/><rect x="300.1" y="209.8" width="5.4" height="3.3" fill="#dc2626" opacity="0.82" rx="1"/>
<line x1="311.7" y1="203.2" x2="311.7" y2="213.6" stroke="#16a34a" stroke-width="1"/><rect x="308.9" y="212.2" width="5.4" height="1.2" fill="#16a34a" opacity="0.82" rx="1"/>
<line x1="320.5" y1="209.3" x2="320.5" y2="218.8" stroke="#16a34a" stroke-width="1"/><rect x="317.8" y="212.2" width="5.4" height="1.2" fill="#16a34a" opacity="0.82" rx="1"/>
<line x1="329.4" y1="209.1" x2="329.4" y2="248.6" stroke="#dc2626" stroke-width="1"/><rect x="326.7" y="212.0" width="5.4" height="14.5" fill="#dc2626" opacity="0.82" rx="1"/>
<line x1="338.3" y1="192.2" x2="338.3" y2="232.4" stroke="#16a34a" stroke-width="1"/><rect x="335.6" y="206.5" width="5.4" height="19.5" fill="#16a34a" opacity="0.82" rx="1"/>
<line x1="347.2" y1="184.1" x2="347.2" y2="227.6" stroke="#dc2626" stroke-width="1"/><rect x="344.4" y="206.7" width="5.4" height="17.1" fill="#dc2626" opacity="0.82" rx="1"/>
<line x1="356.0" y1="190.3" x2="356.0" y2="230.7" stroke="#16a34a" stroke-width="1"/><rect x="353.3" y="192.2" width="5.4" height="31.1" fill="#16a34a" opacity="0.82" rx="1"/>
<line x1="364.9" y1="180.3" x2="364.9" y2="199.1" stroke="#dc2626" stroke-width="1"/><rect x="362.2" y="192.5" width="5.4" height="6.7" fill="#dc2626" opacity="0.82" rx="1"/>
<line x1="373.8" y1="139.9" x2="373.8" y2="205.3" stroke="#16a34a" stroke-width="1"/><rect x="371.1" y="143.0" width="5.4" height="56.1" fill="#16a34a" opacity="0.82" rx="1"/>
<line x1="382.7" y1="124.3" x2="382.7" y2="162.3" stroke="#16a34a" stroke-width="1"/><rect x="380.0" y="126.4" width="5.4" height="17.1" fill="#16a34a" opacity="0.82" rx="1"/>
<line x1="391.6" y1="81.5" x2="391.6" y2="132.1" stroke="#16a34a" stroke-width="1"/><rect x="388.8" y="92.2" width="5.4" height="34.5" fill="#16a34a" opacity="0.82" rx="1"/>
<line x1="400.4" y1="89.3" x2="400.4" y2="110.5" stroke="#dc2626" stroke-width="1"/><rect x="397.7" y="92.2" width="5.4" height="11.4" fill="#dc2626" opacity="0.82" rx="1"/>
<line x1="409.3" y1="87.7" x2="409.3" y2="104.1" stroke="#16a34a" stroke-width="1"/><rect x="406.6" y="92.4" width="5.4" height="11.2" fill="#16a34a" opacity="0.82" rx="1"/>
<line x1="418.2" y1="59.6" x2="418.2" y2="94.8" stroke="#16a34a" stroke-width="1"/><rect x="415.5" y="67.7" width="5.4" height="25.2" fill="#16a34a" opacity="0.82" rx="1"/>
<line x1="427.1" y1="55.1" x2="427.1" y2="92.9" stroke="#dc2626" stroke-width="1"/><rect x="424.3" y="67.7" width="5.4" height="3.3" fill="#dc2626" opacity="0.82" rx="1"/>
<line x1="435.9" y1="71.3" x2="435.9" y2="91.9" stroke="#dc2626" stroke-width="1"/><rect x="433.2" y="71.3" width="5.4" height="10.2" fill="#dc2626" opacity="0.82" rx="1"/>
<line x1="444.8" y1="81.5" x2="444.8" y2="114.3" stroke="#dc2626" stroke-width="1"/><rect x="442.1" y="81.5" width="5.4" height="12.6" fill="#dc2626" opacity="0.82" rx="1"/>
<line x1="453.7" y1="88.6" x2="453.7" y2="103.1" stroke="#16a34a" stroke-width="1"/><rect x="451.0" y="90.5" width="5.4" height="3.3" fill="#16a34a" opacity="0.82" rx="1"/>
<line x1="462.6" y1="86.0" x2="462.6" y2="95.5" stroke="#16a34a" stroke-width="1"/><rect x="459.8" y="88.8" width="5.4" height="1.4" fill="#16a34a" opacity="0.82" rx="1"/>
<line x1="471.4" y1="77.7" x2="471.4" y2="95.7" stroke="#16a34a" stroke-width="1"/><rect x="468.7" y="80.3" width="5.4" height="8.3" fill="#16a34a" opacity="0.82" rx="1"/>
<line x1="480.3" y1="78.9" x2="480.3" y2="142.1" stroke="#dc2626" stroke-width="1"/><rect x="477.6" y="80.5" width="5.4" height="54.9" fill="#dc2626" opacity="0.82" rx="1"/>
<line x1="489.2" y1="120.5" x2="489.2" y2="156.3" stroke="#dc2626" stroke-width="1"/><rect x="486.5" y="135.2" width="5.4" height="6.9" fill="#dc2626" opacity="0.82" rx="1"/>
<line x1="498.1" y1="137.3" x2="498.1" y2="160.4" stroke="#16a34a" stroke-width="1"/><rect x="495.3" y="137.6" width="5.4" height="4.3" fill="#16a34a" opacity="0.82" rx="1"/>
<line x1="506.9" y1="107.4" x2="506.9" y2="143.5" stroke="#16a34a" stroke-width="1"/><rect x="504.2" y="125.7" width="5.4" height="11.6" fill="#16a34a" opacity="0.82" rx="1"/>
<line x1="515.8" y1="105.7" x2="515.8" y2="127.1" stroke="#16a34a" stroke-width="1"/><rect x="513.1" y="110.2" width="5.4" height="15.7" fill="#16a34a" opacity="0.82" rx="1"/>
<line x1="524.7" y1="105.0" x2="524.7" y2="130.4" stroke="#dc2626" stroke-width="1"/><rect x="522.0" y="110.5" width="5.4" height="11.2" fill="#dc2626" opacity="0.82" rx="1"/>
<line x1="533.6" y1="105.7" x2="533.6" y2="121.4" stroke="#16a34a" stroke-width="1"/><rect x="530.9" y="117.4" width="5.4" height="4.0" fill="#16a34a" opacity="0.82" rx="1"/>
<line x1="542.4" y1="116.4" x2="542.4" y2="146.4" stroke="#dc2626" stroke-width="1"/><rect x="539.7" y="117.4" width="5.4" height="25.2" fill="#dc2626" opacity="0.82" rx="1"/>
<line x1="551.3" y1="96.9" x2="551.3" y2="149.7" stroke="#16a34a" stroke-width="1"/><rect x="548.6" y="106.7" width="5.4" height="35.2" fill="#16a34a" opacity="0.82" rx="1"/>
<line x1="560.2" y1="73.2" x2="560.2" y2="118.3" stroke="#16a34a" stroke-width="1"/><rect x="557.5" y="91.2" width="5.4" height="15.2" fill="#16a34a" opacity="0.82" rx="1"/>
<line x1="569.1" y1="75.3" x2="569.1" y2="113.1" stroke="#dc2626" stroke-width="1"/><rect x="566.4" y="90.8" width="5.4" height="19.7" fill="#dc2626" opacity="0.82" rx="1"/>
<line x1="578.0" y1="74.1" x2="578.0" y2="111.9" stroke="#16a34a" stroke-width="1"/><rect x="575.2" y="76.5" width="5.4" height="34.0" fill="#16a34a" opacity="0.82" rx="1"/>
<line x1="586.8" y1="67.2" x2="586.8" y2="82.0" stroke="#dc2626" stroke-width="1"/><rect x="584.1" y="76.3" width="5.4" height="1.2" fill="#dc2626" opacity="0.82" rx="1"/>
<line x1="595.7" y1="69.1" x2="595.7" y2="84.3" stroke="#dc2626" stroke-width="1"/><rect x="593.0" y="76.5" width="5.4" height="4.0" fill="#dc2626" opacity="0.82" rx="1"/>
<line x1="604.6" y1="74.1" x2="604.6" y2="93.1" stroke="#dc2626" stroke-width="1"/><rect x="601.9" y="81.0" width="5.4" height="12.1" fill="#dc2626" opacity="0.82" rx="1"/>
<line x1="613.5" y1="82.4" x2="613.5" y2="98.6" stroke="#16a34a" stroke-width="1"/><rect x="610.7" y="92.4" width="5.4" height="1.2" fill="#16a34a" opacity="0.82" rx="1"/>
<line x1="622.3" y1="86.2" x2="622.3" y2="94.6" stroke="#16a34a" stroke-width="1"/><rect x="619.6" y="87.9" width="5.4" height="4.0" fill="#16a34a" opacity="0.82" rx="1"/>
<line x1="631.2" y1="86.2" x2="631.2" y2="91.2" stroke="#16a34a" stroke-width="1"/><rect x="628.5" y="86.9" width="5.4" height="1.4" fill="#16a34a" opacity="0.82" rx="1"/>
<line x1="640.1" y1="75.5" x2="640.1" y2="87.4" stroke="#16a34a" stroke-width="1"/><rect x="637.4" y="80.1" width="5.4" height="6.9" fill="#16a34a" opacity="0.82" rx="1"/>
<line x1="649.0" y1="77.4" x2="649.0" y2="88.4" stroke="#dc2626" stroke-width="1"/><rect x="646.2" y="79.6" width="5.4" height="7.8" fill="#dc2626" opacity="0.82" rx="1"/>
<line x1="657.8" y1="83.6" x2="657.8" y2="106.2" stroke="#dc2626" stroke-width="1"/><rect x="655.1" y="87.7" width="5.4" height="6.7" fill="#dc2626" opacity="0.82" rx="1"/>
<line x1="666.7" y1="79.1" x2="666.7" y2="94.1" stroke="#16a34a" stroke-width="1"/><rect x="664.0" y="89.8" width="5.4" height="4.3" fill="#16a34a" opacity="0.82" rx="1"/>
<line x1="675.6" y1="85.3" x2="675.6" y2="99.5" stroke="#dc2626" stroke-width="1"/><rect x="672.9" y="89.8" width="5.4" height="5.7" fill="#dc2626" opacity="0.82" rx="1"/>
<line x1="684.5" y1="91.2" x2="684.5" y2="103.3" stroke="#dc2626" stroke-width="1"/><rect x="681.8" y="95.3" width="5.4" height="4.3" fill="#dc2626" opacity="0.82" rx="1"/>
<line x1="693.3" y1="96.9" x2="693.3" y2="104.8" stroke="#dc2626" stroke-width="1"/><rect x="690.6" y="99.8" width="5.4" height="1.2" fill="#dc2626" opacity="0.82" rx="1"/>
<line x1="702.2" y1="96.0" x2="702.2" y2="103.6" stroke="#dc2626" stroke-width="1"/><rect x="699.5" y="100.5" width="5.4" height="1.2" fill="#dc2626" opacity="0.82" rx="1"/>
<line x1="711.1" y1="100.7" x2="711.1" y2="106.9" stroke="#dc2626" stroke-width="1"/><rect x="708.4" y="102.2" width="5.4" height="2.6" fill="#dc2626" opacity="0.82" rx="1"/>
<line x1="720.0" y1="99.3" x2="720.0" y2="106.4" stroke="#16a34a" stroke-width="1"/><rect x="717.3" y="101.2" width="5.4" height="3.8" fill="#16a34a" opacity="0.82" rx="1"/>
<line x1="728.9" y1="100.3" x2="728.9" y2="121.6" stroke="#dc2626" stroke-width="1"/><rect x="726.1" y="101.4" width="5.4" height="9.3" fill="#dc2626" opacity="0.82" rx="1"/>
<line x1="737.7" y1="106.7" x2="737.7" y2="111.9" stroke="#16a34a" stroke-width="1"/><rect x="735.0" y="108.1" width="5.4" height="2.9" fill="#16a34a" opacity="0.82" rx="1"/>
<line x1="746.6" y1="103.1" x2="746.6" y2="110.5" stroke="#16a34a" stroke-width="1"/><rect x="743.9" y="105.2" width="5.4" height="3.1" fill="#16a34a" opacity="0.82" rx="1"/>
<line x1="755.5" y1="91.5" x2="755.5" y2="105.5" stroke="#16a34a" stroke-width="1"/><rect x="752.8" y="92.9" width="5.4" height="12.4" fill="#16a34a" opacity="0.82" rx="1"/>
<line x1="764.4" y1="91.5" x2="764.4" y2="101.7" stroke="#dc2626" stroke-width="1"/><rect x="761.6" y="92.7" width="5.4" height="7.1" fill="#dc2626" opacity="0.82" rx="1"/>
<line x1="773.2" y1="96.7" x2="773.2" y2="103.6" stroke="#16a34a" stroke-width="1"/><rect x="770.5" y="97.4" width="5.4" height="2.1" fill="#16a34a" opacity="0.82" rx="1"/>
<line x1="782.1" y1="82.2" x2="782.1" y2="98.8" stroke="#16a34a" stroke-width="1"/><rect x="779.4" y="84.3" width="5.4" height="13.1" fill="#16a34a" opacity="0.82" rx="1"/>
<line x1="791.0" y1="77.4" x2="791.0" y2="94.8" stroke="#dc2626" stroke-width="1"/><rect x="788.3" y="83.9" width="5.4" height="4.8" fill="#dc2626" opacity="0.82" rx="1"/>
<line x1="799.9" y1="84.1" x2="799.9" y2="93.8" stroke="#16a34a" stroke-width="1"/><rect x="797.1" y="86.5" width="5.4" height="2.1" fill="#16a34a" opacity="0.82" rx="1"/>
<line x1="808.7" y1="72.9" x2="808.7" y2="86.7" stroke="#16a34a" stroke-width="1"/><rect x="806.0" y="75.3" width="5.4" height="11.2" fill="#16a34a" opacity="0.82" rx="1"/>
<line x1="817.6" y1="72.7" x2="817.6" y2="77.2" stroke="#16a34a" stroke-width="1"/><rect x="814.9" y="73.4" width="5.4" height="2.1" fill="#16a34a" opacity="0.82" rx="1"/>
<line x1="826.5" y1="72.7" x2="826.5" y2="77.2" stroke="#dc2626" stroke-width="1"/><rect x="823.8" y="73.4" width="5.4" height="2.6" fill="#dc2626" opacity="0.82" rx="1"/>
<line x1="835.4" y1="72.2" x2="835.4" y2="78.4" stroke="#16a34a" stroke-width="1"/><rect x="832.6" y="73.4" width="5.4" height="2.4" fill="#16a34a" opacity="0.82" rx="1"/>
<line x1="844.2" y1="72.0" x2="844.2" y2="79.1" stroke="#16a34a" stroke-width="1"/><rect x="841.5" y="73.9" width="5.4" height="1.2" fill="#16a34a" opacity="0.82" rx="1"/>
<line x1="853.1" y1="72.2" x2="853.1" y2="77.4" stroke="#dc2626" stroke-width="1"/><rect x="850.4" y="74.4" width="5.4" height="2.6" fill="#dc2626" opacity="0.82" rx="1"/>
<line x1="862.0" y1="76.0" x2="862.0" y2="78.9" stroke="#dc2626" stroke-width="1"/><rect x="859.3" y="76.7" width="5.4" height="1.2" fill="#dc2626" opacity="0.82" rx="1"/>
<line x1="72" y1="91.5" x2="862" y2="91.5" stroke="#16a34a" stroke-width="1.8" stroke-dasharray="6 4" /><rect x="874" y="71.5" width="166" height="23" rx="5" fill="#ffffff" stroke="#16a34a" opacity="0.97"/><text x="881" y="87.5" fill="#16a34a" font-size="15" font-weight="700">日内支撑 65.16</text>
<line x1="72" y1="55.3" x2="862" y2="55.3" stroke="#dc2626" stroke-width="1.8" stroke-dasharray="6 4" /><rect x="874" y="35.3" width="166" height="23" rx="5" fill="#ffffff" stroke="#dc2626" opacity="0.97"/><text x="881" y="51.3" fill="#dc2626" font-size="15" font-weight="700">日内压力 66.68</text>
<line x1="72" y1="77.9" x2="862" y2="77.9" stroke="#111827" stroke-width="1.8" stroke-dasharray="2 2" /><rect x="874" y="57.9" width="166" height="23" rx="5" fill="#ffffff" stroke="#111827" opacity="0.97"/><text x="881" y="73.9" fill="#111827" font-size="15" font-weight="700">现价 65.73</text>
<text x="72" y="396" fill="#16a34a" font-size="14" font-weight="700">日内做多计划</text><rect x="72" y="404" width="790" height="48" rx="6" fill="#f9fafb" stroke="#e5e7eb"/><line x1="94" y1="412" x2="840" y2="412" stroke="#16a34a" stroke-width="3"/><circle cx="132.0" cy="412" r="5" fill="#16a34a"/><text x="132.0" y="434" fill="#374151" font-size="12" text-anchor="middle">入场 止跌/突破回踩</text><circle cx="451.2" cy="412" r="5" fill="#16a34a"/><text x="451.2" y="434" fill="#374151" font-size="12" text-anchor="middle">止损 65.16</text><circle cx="712.0" cy="412" r="5" fill="#16a34a"/><text x="712.0" y="434" fill="#374151" font-size="12" text-anchor="middle">目标一 66.68</text><circle cx="814.0" cy="412" r="5" fill="#16a34a"/><text x="814.0" y="434" fill="#374151" font-size="12" text-anchor="middle">目标二 67.06</text>
<text x="72" y="482" fill="#dc2626" font-size="14" font-weight="700">日内做空计划</text><rect x="72" y="490" width="790" height="48" rx="6" fill="#f9fafb" stroke="#e5e7eb"/><line x1="94" y1="498" x2="840" y2="498" stroke="#dc2626" stroke-width="3"/><circle cx="132.0" cy="498" r="5" fill="#dc2626"/><text x="132.0" y="520" fill="#374151" font-size="12" text-anchor="middle">入场 反弹承压/破位回抽</text><circle cx="451.2" cy="498" r="5" fill="#dc2626"/><text x="451.2" y="520" fill="#374151" font-size="12" text-anchor="middle">止损 66.68</text><circle cx="712.0" cy="498" r="5" fill="#dc2626"/><text x="712.0" y="520" fill="#374151" font-size="12" text-anchor="middle">目标一 65.16</text><circle cx="814.0" cy="498" r="5" fill="#dc2626"/><text x="814.0" y="520" fill="#374151" font-size="12" text-anchor="middle">目标二 64.78</text>
</svg>