<svg xmlns="http://www.w3.org/2000/svg" width="1080" height="560" viewBox="0 0 1080 560">
<rect width="100%" height="100%" fill="#ffffff"/>
<text x="72" y="23" fill="#111827" font-size="21" font-weight="800">DRAM 日线K线支撑压力图</text>
<text x="862" y="42" fill="#374151" font-size="15" text-anchor="end">最新价 65.73</text>
<line x1="72" y1="34" x2="72" y2="340" stroke="#d1d5db"/>
<line x1="72" y1="340" x2="862" y2="340" stroke="#d1d5db"/>
<line x1="72" y1="340.0" x2="862" y2="340.0" stroke="#f3f4f6"/>
<text x="8" y="345.0" fill="#4b5563" font-size="14">43.94</text>
<line x1="72" y1="263.5" x2="862" y2="263.5" stroke="#f3f4f6"/>
<text x="8" y="268.5" fill="#4b5563" font-size="14">53.37</text>
<line x1="72" y1="187.0" x2="862" y2="187.0" stroke="#f3f4f6"/>
<text x="8" y="192.0" fill="#4b5563" font-size="14">62.80</text>
<line x1="72" y1="110.5" x2="862" y2="110.5" stroke="#f3f4f6"/>
<text x="8" y="115.5" fill="#4b5563" font-size="14">72.24</text>
<line x1="72" y1="34.0" x2="862" y2="34.0" stroke="#f3f4f6"/>
<text x="8" y="39.0" fill="#4b5563" font-size="14">81.67</text>
<line x1="72.0" y1="275.5" x2="72.0" y2="306.3" stroke="#dc2626" stroke-width="1"/><rect x="67.5" y="280.8" width="9.0" height="11.8" fill="#dc2626" opacity="0.82" rx="1"/>
<line x1="101.3" y1="282.4" x2="101.3" y2="318.9" stroke="#16a34a" stroke-width="1"/><rect x="96.8" y="290.8" width="9.0" height="1.8" fill="#16a34a" opacity="0.82" rx="1"/>
<line x1="130.5" y1="274.2" x2="130.5" y2="307.2" stroke="#16a34a" stroke-width="1"/><rect x="126.0" y="276.8" width="9.0" height="14.1" fill="#16a34a" opacity="0.82" rx="1"/>
<line x1="159.8" y1="248.3" x2="159.8" y2="281.8" stroke="#16a34a" stroke-width="1"/><rect x="155.3" y="251.7" width="9.0" height="25.1" fill="#16a34a" opacity="0.82" rx="1"/>
<line x1="189.0" y1="251.4" x2="189.0" y2="269.8" stroke="#dc2626" stroke-width="1"/><rect x="184.5" y="251.7" width="9.0" height="17.8" fill="#dc2626" opacity="0.82" rx="1"/>
<line x1="218.3" y1="241.7" x2="218.3" y2="287.3" stroke="#16a34a" stroke-width="1"/><rect x="213.8" y="255.9" width="9.0" height="13.5" fill="#16a34a" opacity="0.82" rx="1"/>
<line x1="247.6" y1="241.4" x2="247.6" y2="257.5" stroke="#16a34a" stroke-width="1"/><rect x="243.1" y="247.3" width="9.0" height="8.4" fill="#16a34a" opacity="0.82" rx="1"/>
<line x1="276.8" y1="220.8" x2="276.8" y2="249.5" stroke="#16a34a" stroke-width="1"/><rect x="272.3" y="238.1" width="9.0" height="9.1" fill="#16a34a" opacity="0.82" rx="1"/>
<line x1="306.1" y1="183.0" x2="306.1" y2="253.0" stroke="#16a34a" stroke-width="1"/><rect x="301.6" y="191.8" width="9.0" height="46.3" fill="#16a34a" opacity="0.82" rx="1"/>
<line x1="335.3" y1="179.8" x2="335.3" y2="217.2" stroke="#dc2626" stroke-width="1"/><rect x="330.8" y="191.9" width="9.0" height="20.9" fill="#dc2626" opacity="0.82" rx="1"/>
<line x1="364.6" y1="179.2" x2="364.6" y2="230.5" stroke="#16a34a" stroke-width="1"/><rect x="360.1" y="185.0" width="9.0" height="27.8" fill="#16a34a" opacity="0.82" rx="1"/>
<line x1="393.9" y1="174.5" x2="393.9" y2="197.1" stroke="#16a34a" stroke-width="1"/><rect x="389.4" y="182.9" width="9.0" height="1.9" fill="#16a34a" opacity="0.82" rx="1"/>
<line x1="423.1" y1="161.4" x2="423.1" y2="186.2" stroke="#16a34a" stroke-width="1"/><rect x="418.6" y="162.7" width="9.0" height="20.2" fill="#16a34a" opacity="0.82" rx="1"/>
<line x1="452.4" y1="149.1" x2="452.4" y2="167.4" stroke="#16a34a" stroke-width="1"/><rect x="447.9" y="160.0" width="9.0" height="2.6" fill="#16a34a" opacity="0.82" rx="1"/>
<line x1="481.6" y1="136.1" x2="481.6" y2="174.5" stroke="#16a34a" stroke-width="1"/><rect x="477.1" y="143.2" width="9.0" height="16.6" fill="#16a34a" opacity="0.82" rx="1"/>
<line x1="510.9" y1="127.2" x2="510.9" y2="165.9" stroke="#16a34a" stroke-width="1"/><rect x="506.4" y="133.1" width="9.0" height="10.4" fill="#16a34a" opacity="0.82" rx="1"/>
<line x1="540.1" y1="126.0" x2="540.1" y2="157.8" stroke="#dc2626" stroke-width="1"/><rect x="535.6" y="133.0" width="9.0" height="22.3" fill="#dc2626" opacity="0.82" rx="1"/>
<line x1="569.4" y1="144.8" x2="569.4" y2="183.9" stroke="#dc2626" stroke-width="1"/><rect x="564.9" y="155.4" width="9.0" height="27.2" fill="#dc2626" opacity="0.82" rx="1"/>
<line x1="598.7" y1="176.2" x2="598.7" y2="262.8" stroke="#dc2626" stroke-width="1"/><rect x="594.2" y="182.6" width="9.0" height="64.2" fill="#dc2626" opacity="0.82" rx="1"/>
<line x1="627.9" y1="238.4" x2="627.9" y2="270.5" stroke="#16a34a" stroke-width="1"/><rect x="623.4" y="244.4" width="9.0" height="2.5" fill="#16a34a" opacity="0.82" rx="1"/>
<line x1="657.2" y1="211.1" x2="657.2" y2="250.3" stroke="#16a34a" stroke-width="1"/><rect x="652.7" y="238.5" width="9.0" height="5.9" fill="#16a34a" opacity="0.82" rx="1"/>
<line x1="686.4" y1="196.2" x2="686.4" y2="242.0" stroke="#16a34a" stroke-width="1"/><rect x="681.9" y="202.5" width="9.0" height="36.1" fill="#16a34a" opacity="0.82" rx="1"/>
<line x1="715.7" y1="175.7" x2="715.7" y2="246.6" stroke="#dc2626" stroke-width="1"/><rect x="711.2" y="202.4" width="9.0" height="9.4" fill="#dc2626" opacity="0.82" rx="1"/>
<line x1="745.0" y1="197.2" x2="745.0" y2="245.5" stroke="#dc2626" stroke-width="1"/><rect x="740.5" y="211.8" width="9.0" height="26.8" fill="#dc2626" opacity="0.82" rx="1"/>
<line x1="774.2" y1="155.5" x2="774.2" y2="240.6" stroke="#16a34a" stroke-width="1"/><rect x="769.7" y="160.9" width="9.0" height="77.5" fill="#16a34a" opacity="0.82" rx="1"/>
<line x1="803.5" y1="159.6" x2="803.5" y2="191.4" stroke="#dc2626" stroke-width="1"/><rect x="799.0" y="161.0" width="9.0" height="3.0" fill="#dc2626" opacity="0.82" rx="1"/>
<line x1="832.7" y1="161.2" x2="832.7" y2="178.2" stroke="#16a34a" stroke-width="1"/><rect x="828.2" y="162.9" width="9.0" height="1.2" fill="#16a34a" opacity="0.82" rx="1"/>
<line x1="862.0" y1="162.6" x2="862.0" y2="163.6" stroke="#dc2626" stroke-width="1"/><rect x="857.5" y="162.9" width="9.0" height="1.2" fill="#dc2626" opacity="0.82" rx="1"/>
<line x1="72" y1="228.2" x2="862" y2="228.2" stroke="#16a34a" stroke-width="1.8" stroke-dasharray="6 4" /><rect x="874" y="208.2" width="166" height="23" rx="5" fill="#ffffff" stroke="#16a34a" opacity="0.97"/><text x="881" y="224.2" fill="#16a34a" font-size="15" font-weight="700">支撑 57.73</text>
<line x1="72" y1="55.1" x2="862" y2="55.1" stroke="#dc2626" stroke-width="1.8" stroke-dasharray="6 4" /><rect x="874" y="35.1" width="166" height="23" rx="5" fill="#ffffff" stroke="#dc2626" opacity="0.97"/><text x="881" y="51.1" fill="#dc2626" font-size="15" font-weight="700">压力 79.07</text>
<line x1="72" y1="163.3" x2="862" y2="163.3" stroke="#111827" stroke-width="1.8" stroke-dasharray="2 2" /><rect x="874" y="143.3" width="166" height="23" rx="5" fill="#ffffff" stroke="#111827" opacity="0.97"/><text x="881" y="159.3" fill="#111827" font-size="15" font-weight="700">现价 65.73</text>
<text x="72" y="396" fill="#16a34a" font-size="14" font-weight="700">日线做多计划</text><rect x="72" y="404" width="790" height="48" rx="6" fill="#f9fafb" stroke="#e5e7eb"/><line x1="94" y1="412" x2="840" y2="412" stroke="#16a34a" stroke-width="3"/><circle cx="132.0" cy="412" r="5" fill="#16a34a"/><text x="132.0" y="434" fill="#374151" font-size="12" text-anchor="middle">入场 止跌/突破回踩</text><circle cx="451.2" cy="412" r="5" fill="#16a34a"/><text x="451.2" y="434" fill="#374151" font-size="12" text-anchor="middle">止损 57.73</text><circle cx="712.0" cy="412" r="5" fill="#16a34a"/><text x="712.0" y="434" fill="#374151" font-size="12" text-anchor="middle">目标一 79.07</text><circle cx="814.0" cy="412" r="5" fill="#16a34a"/><text x="814.0" y="434" fill="#374151" font-size="12" text-anchor="middle">目标二 87.07</text>
<text x="72" y="482" fill="#dc2626" font-size="14" font-weight="700">日线做空计划</text><rect x="72" y="490" width="790" height="48" rx="6" fill="#f9fafb" stroke="#e5e7eb"/><line x1="94" y1="498" x2="840" y2="498" stroke="#dc2626" stroke-width="3"/><circle cx="132.0" cy="498" r="5" fill="#dc2626"/><text x="132.0" y="520" fill="#374151" font-size="12" text-anchor="middle">入场 反弹承压/破位回抽</text><circle cx="451.2" cy="498" r="5" fill="#dc2626"/><text x="451.2" y="520" fill="#374151" font-size="12" text-anchor="middle">止损 79.07</text><circle cx="712.0" cy="498" r="5" fill="#dc2626"/><text x="712.0" y="520" fill="#374151" font-size="12" text-anchor="middle">目标一 57.73</text><circle cx="814.0" cy="498" r="5" fill="#dc2626"/><text x="814.0" y="520" fill="#374151" font-size="12" text-anchor="middle">目标二 52.39</text>
</svg>