<svg xmlns="http://www.w3.org/2000/svg" width="1080" height="560" viewBox="0 0 1080 560">
<rect width="100%" height="100%" fill="#ffffff"/>
<text x="72" y="23" fill="#111827" font-size="21" font-weight="800">BTC 小时线K线支撑压力图</text>
<text x="862" y="42" fill="#374151" font-size="15" text-anchor="end">最新价 64,508</text>
<line x1="72" y1="34" x2="72" y2="340" stroke="#d1d5db"/>
<line x1="72" y1="340" x2="862" y2="340" stroke="#d1d5db"/>
<line x1="72" y1="340.0" x2="862" y2="340.0" stroke="#f3f4f6"/>
<text x="8" y="345.0" fill="#4b5563" font-size="14">60,341</text>
<line x1="72" y1="263.5" x2="862" y2="263.5" stroke="#f3f4f6"/>
<text x="8" y="268.5" fill="#4b5563" font-size="14">61,613</text>
<line x1="72" y1="187.0" x2="862" y2="187.0" stroke="#f3f4f6"/>
<text x="8" y="192.0" fill="#4b5563" font-size="14">62,885</text>
<line x1="72" y1="110.5" x2="862" y2="110.5" stroke="#f3f4f6"/>
<text x="8" y="115.5" fill="#4b5563" font-size="14">64,157</text>
<line x1="72" y1="34.0" x2="862" y2="34.0" stroke="#f3f4f6"/>
<text x="8" y="39.0" fill="#4b5563" font-size="14">65,430</text>
<line x1="72.0" y1="276.5" x2="72.0" y2="318.9" stroke="#16a34a" stroke-width="1"/><rect x="69.3" y="282.2" width="5.4" height="4.4" fill="#16a34a" opacity="0.82" rx="1"/>
<line x1="80.9" y1="274.7" x2="80.9" y2="293.6" stroke="#16a34a" stroke-width="1"/><rect x="78.2" y="279.3" width="5.4" height="2.8" fill="#16a34a" opacity="0.82" rx="1"/>
<line x1="89.8" y1="276.0" x2="89.8" y2="310.9" stroke="#dc2626" stroke-width="1"/><rect x="87.0" y="279.3" width="5.4" height="20.9" fill="#dc2626" opacity="0.82" rx="1"/>
<line x1="98.6" y1="245.2" x2="98.6" y2="304.6" stroke="#16a34a" stroke-width="1"/><rect x="95.9" y="268.4" width="5.4" height="31.8" fill="#16a34a" opacity="0.82" rx="1"/>
<line x1="107.5" y1="213.5" x2="107.5" y2="275.9" stroke="#16a34a" stroke-width="1"/><rect x="104.8" y="232.8" width="5.4" height="35.6" fill="#16a34a" opacity="0.82" rx="1"/>
<line x1="116.4" y1="226.4" x2="116.4" y2="253.3" stroke="#16a34a" stroke-width="1"/><rect x="113.7" y="230.0" width="5.4" height="2.8" fill="#16a34a" opacity="0.82" rx="1"/>
<line x1="125.3" y1="189.7" x2="125.3" y2="251.4" stroke="#16a34a" stroke-width="1"/><rect x="122.5" y="203.9" width="5.4" height="26.1" fill="#16a34a" opacity="0.82" rx="1"/>
<line x1="134.1" y1="203.1" x2="134.1" y2="246.8" stroke="#dc2626" stroke-width="1"/><rect x="131.4" y="203.9" width="5.4" height="24.7" fill="#dc2626" opacity="0.82" rx="1"/>
<line x1="143.0" y1="220.4" x2="143.0" y2="263.3" stroke="#dc2626" stroke-width="1"/><rect x="140.3" y="228.5" width="5.4" height="15.0" fill="#dc2626" opacity="0.82" rx="1"/>
<line x1="151.9" y1="232.0" x2="151.9" y2="267.2" stroke="#dc2626" stroke-width="1"/><rect x="149.2" y="243.6" width="5.4" height="5.3" fill="#dc2626" opacity="0.82" rx="1"/>
<line x1="160.8" y1="238.0" x2="160.8" y2="261.8" stroke="#16a34a" stroke-width="1"/><rect x="158.0" y="245.7" width="5.4" height="3.2" fill="#16a34a" opacity="0.82" rx="1"/>
<line x1="169.6" y1="245.0" x2="169.6" y2="261.6" stroke="#dc2626" stroke-width="1"/><rect x="166.9" y="245.7" width="5.4" height="8.3" fill="#dc2626" opacity="0.82" rx="1"/>
<line x1="178.5" y1="253.9" x2="178.5" y2="291.3" stroke="#dc2626" stroke-width="1"/><rect x="175.8" y="254.1" width="5.4" height="26.6" fill="#dc2626" opacity="0.82" rx="1"/>
<line x1="187.4" y1="267.4" x2="187.4" y2="296.2" stroke="#16a34a" stroke-width="1"/><rect x="184.7" y="279.1" width="5.4" height="1.6" fill="#16a34a" opacity="0.82" rx="1"/>
<line x1="196.3" y1="265.4" x2="196.3" y2="292.2" stroke="#16a34a" stroke-width="1"/><rect x="193.5" y="271.3" width="5.4" height="7.9" fill="#16a34a" opacity="0.82" rx="1"/>
<line x1="205.1" y1="242.9" x2="205.1" y2="271.3" stroke="#16a34a" stroke-width="1"/><rect x="202.4" y="252.6" width="5.4" height="18.7" fill="#16a34a" opacity="0.82" rx="1"/>
<line x1="214.0" y1="219.2" x2="214.0" y2="252.7" stroke="#16a34a" stroke-width="1"/><rect x="211.3" y="229.4" width="5.4" height="23.2" fill="#16a34a" opacity="0.82" rx="1"/>
<line x1="222.9" y1="223.5" x2="222.9" y2="245.6" stroke="#dc2626" stroke-width="1"/><rect x="220.2" y="229.4" width="5.4" height="4.0" fill="#dc2626" opacity="0.82" rx="1"/>
<line x1="231.8" y1="184.8" x2="231.8" y2="241.7" stroke="#16a34a" stroke-width="1"/><rect x="229.1" y="200.7" width="5.4" height="32.7" fill="#16a34a" opacity="0.82" rx="1"/>
<line x1="240.7" y1="190.5" x2="240.7" y2="209.4" stroke="#16a34a" stroke-width="1"/><rect x="237.9" y="198.6" width="5.4" height="2.1" fill="#16a34a" opacity="0.82" rx="1"/>
<line x1="249.5" y1="198.3" x2="249.5" y2="208.5" stroke="#dc2626" stroke-width="1"/><rect x="246.8" y="198.6" width="5.4" height="6.7" fill="#dc2626" opacity="0.82" rx="1"/>
<line x1="258.4" y1="180.5" x2="258.4" y2="209.7" stroke="#16a34a" stroke-width="1"/><rect x="255.7" y="196.1" width="5.4" height="9.2" fill="#16a34a" opacity="0.82" rx="1"/>
<line x1="267.3" y1="191.4" x2="267.3" y2="205.7" stroke="#dc2626" stroke-width="1"/><rect x="264.6" y="196.1" width="5.4" height="2.5" fill="#dc2626" opacity="0.82" rx="1"/>
<line x1="276.2" y1="177.5" x2="276.2" y2="198.6" stroke="#16a34a" stroke-width="1"/><rect x="273.4" y="184.5" width="5.4" height="14.1" fill="#16a34a" opacity="0.82" rx="1"/>
<line x1="285.0" y1="181.9" x2="285.0" y2="194.9" stroke="#dc2626" stroke-width="1"/><rect x="282.3" y="184.5" width="5.4" height="1.6" fill="#dc2626" opacity="0.82" rx="1"/>
<line x1="293.9" y1="168.8" x2="293.9" y2="193.9" stroke="#16a34a" stroke-width="1"/><rect x="291.2" y="172.9" width="5.4" height="13.2" fill="#16a34a" opacity="0.82" rx="1"/>
<line x1="302.8" y1="165.9" x2="302.8" y2="178.9" stroke="#dc2626" stroke-width="1"/><rect x="300.1" y="172.9" width="5.4" height="2.5" fill="#dc2626" opacity="0.82" rx="1"/>
<line x1="311.7" y1="169.6" x2="311.7" y2="212.8" stroke="#dc2626" stroke-width="1"/><rect x="308.9" y="175.4" width="5.4" height="6.0" fill="#dc2626" opacity="0.82" rx="1"/>
<line x1="320.5" y1="168.1" x2="320.5" y2="201.5" stroke="#16a34a" stroke-width="1"/><rect x="317.8" y="177.3" width="5.4" height="4.1" fill="#16a34a" opacity="0.82" rx="1"/>
<line x1="329.4" y1="176.5" x2="329.4" y2="198.3" stroke="#dc2626" stroke-width="1"/><rect x="326.7" y="177.3" width="5.4" height="20.8" fill="#dc2626" opacity="0.82" rx="1"/>
<line x1="338.3" y1="188.7" x2="338.3" y2="210.5" stroke="#16a34a" stroke-width="1"/><rect x="335.6" y="196.9" width="5.4" height="1.3" fill="#16a34a" opacity="0.82" rx="1"/>
<line x1="347.2" y1="191.5" x2="347.2" y2="210.0" stroke="#dc2626" stroke-width="1"/><rect x="344.4" y="196.9" width="5.4" height="10.5" fill="#dc2626" opacity="0.82" rx="1"/>
<line x1="356.0" y1="141.4" x2="356.0" y2="221.3" stroke="#16a34a" stroke-width="1"/><rect x="353.3" y="143.2" width="5.4" height="64.2" fill="#16a34a" opacity="0.82" rx="1"/>
<line x1="364.9" y1="133.9" x2="364.9" y2="163.1" stroke="#dc2626" stroke-width="1"/><rect x="362.2" y="143.2" width="5.4" height="11.3" fill="#dc2626" opacity="0.82" rx="1"/>
<line x1="373.8" y1="125.1" x2="373.8" y2="159.0" stroke="#16a34a" stroke-width="1"/><rect x="371.1" y="146.0" width="5.4" height="8.5" fill="#16a34a" opacity="0.82" rx="1"/>
<line x1="382.7" y1="142.0" x2="382.7" y2="165.9" stroke="#dc2626" stroke-width="1"/><rect x="380.0" y="146.0" width="5.4" height="12.4" fill="#dc2626" opacity="0.82" rx="1"/>
<line x1="391.6" y1="145.7" x2="391.6" y2="158.5" stroke="#16a34a" stroke-width="1"/><rect x="388.8" y="150.8" width="5.4" height="7.5" fill="#16a34a" opacity="0.82" rx="1"/>
<line x1="400.4" y1="141.6" x2="400.4" y2="154.5" stroke="#dc2626" stroke-width="1"/><rect x="397.7" y="150.8" width="5.4" height="1.2" fill="#dc2626" opacity="0.82" rx="1"/>
<line x1="409.3" y1="137.3" x2="409.3" y2="160.4" stroke="#16a34a" stroke-width="1"/><rect x="406.6" y="144.1" width="5.4" height="7.9" fill="#16a34a" opacity="0.82" rx="1"/>
<line x1="418.2" y1="133.4" x2="418.2" y2="150.6" stroke="#16a34a" stroke-width="1"/><rect x="415.5" y="143.0" width="5.4" height="1.2" fill="#16a34a" opacity="0.82" rx="1"/>
<line x1="427.1" y1="143.0" x2="427.1" y2="163.8" stroke="#dc2626" stroke-width="1"/><rect x="424.3" y="143.0" width="5.4" height="12.9" fill="#dc2626" opacity="0.82" rx="1"/>
<line x1="435.9" y1="134.5" x2="435.9" y2="155.9" stroke="#16a34a" stroke-width="1"/><rect x="433.2" y="144.7" width="5.4" height="11.2" fill="#16a34a" opacity="0.82" rx="1"/>
<line x1="444.8" y1="142.8" x2="444.8" y2="161.2" stroke="#dc2626" stroke-width="1"/><rect x="442.1" y="144.7" width="5.4" height="6.0" fill="#dc2626" opacity="0.82" rx="1"/>
<line x1="453.7" y1="129.4" x2="453.7" y2="156.6" stroke="#16a34a" stroke-width="1"/><rect x="451.0" y="139.8" width="5.4" height="10.8" fill="#16a34a" opacity="0.82" rx="1"/>
<line x1="462.6" y1="138.3" x2="462.6" y2="164.1" stroke="#dc2626" stroke-width="1"/><rect x="459.8" y="139.8" width="5.4" height="21.2" fill="#dc2626" opacity="0.82" rx="1"/>
<line x1="471.4" y1="156.9" x2="471.4" y2="192.1" stroke="#dc2626" stroke-width="1"/><rect x="468.7" y="161.0" width="5.4" height="21.8" fill="#dc2626" opacity="0.82" rx="1"/>
<line x1="480.3" y1="169.2" x2="480.3" y2="184.9" stroke="#16a34a" stroke-width="1"/><rect x="477.6" y="176.1" width="5.4" height="6.6" fill="#16a34a" opacity="0.82" rx="1"/>
<line x1="489.2" y1="144.8" x2="489.2" y2="176.3" stroke="#16a34a" stroke-width="1"/><rect x="486.5" y="153.6" width="5.4" height="22.5" fill="#16a34a" opacity="0.82" rx="1"/>
<line x1="498.1" y1="124.2" x2="498.1" y2="156.1" stroke="#16a34a" stroke-width="1"/><rect x="495.3" y="136.2" width="5.4" height="17.4" fill="#16a34a" opacity="0.82" rx="1"/>
<line x1="506.9" y1="130.6" x2="506.9" y2="147.5" stroke="#dc2626" stroke-width="1"/><rect x="504.2" y="136.2" width="5.4" height="3.9" fill="#dc2626" opacity="0.82" rx="1"/>
<line x1="515.8" y1="128.6" x2="515.8" y2="141.0" stroke="#16a34a" stroke-width="1"/><rect x="513.1" y="136.2" width="5.4" height="3.9" fill="#16a34a" opacity="0.82" rx="1"/>
<line x1="524.7" y1="135.3" x2="524.7" y2="160.1" stroke="#dc2626" stroke-width="1"/><rect x="522.0" y="136.2" width="5.4" height="17.8" fill="#dc2626" opacity="0.82" rx="1"/>
<line x1="533.6" y1="149.6" x2="533.6" y2="178.9" stroke="#dc2626" stroke-width="1"/><rect x="530.9" y="154.0" width="5.4" height="14.0" fill="#dc2626" opacity="0.82" rx="1"/>
<line x1="542.4" y1="120.7" x2="542.4" y2="170.5" stroke="#16a34a" stroke-width="1"/><rect x="539.7" y="121.7" width="5.4" height="46.3" fill="#16a34a" opacity="0.82" rx="1"/>
<line x1="551.3" y1="98.2" x2="551.3" y2="149.8" stroke="#dc2626" stroke-width="1"/><rect x="548.6" y="121.7" width="5.4" height="24.9" fill="#dc2626" opacity="0.82" rx="1"/>
<line x1="560.2" y1="121.5" x2="560.2" y2="151.4" stroke="#16a34a" stroke-width="1"/><rect x="557.5" y="122.9" width="5.4" height="23.7" fill="#16a34a" opacity="0.82" rx="1"/>
<line x1="569.1" y1="115.0" x2="569.1" y2="137.5" stroke="#dc2626" stroke-width="1"/><rect x="566.4" y="122.9" width="5.4" height="6.9" fill="#dc2626" opacity="0.82" rx="1"/>
<line x1="578.0" y1="125.6" x2="578.0" y2="141.1" stroke="#dc2626" stroke-width="1"/><rect x="575.2" y="129.8" width="5.4" height="10.5" fill="#dc2626" opacity="0.82" rx="1"/>
<line x1="586.8" y1="132.5" x2="586.8" y2="146.7" stroke="#dc2626" stroke-width="1"/><rect x="584.1" y="140.3" width="5.4" height="6.4" fill="#dc2626" opacity="0.82" rx="1"/>
<line x1="595.7" y1="140.1" x2="595.7" y2="158.9" stroke="#dc2626" stroke-width="1"/><rect x="593.0" y="146.7" width="5.4" height="8.2" fill="#dc2626" opacity="0.82" rx="1"/>
<line x1="604.6" y1="143.5" x2="604.6" y2="155.3" stroke="#16a34a" stroke-width="1"/><rect x="601.9" y="153.0" width="5.4" height="1.9" fill="#16a34a" opacity="0.82" rx="1"/>
<line x1="613.5" y1="142.0" x2="613.5" y2="153.9" stroke="#16a34a" stroke-width="1"/><rect x="610.7" y="151.1" width="5.4" height="2.0" fill="#16a34a" opacity="0.82" rx="1"/>
<line x1="622.3" y1="146.7" x2="622.3" y2="156.4" stroke="#16a34a" stroke-width="1"/><rect x="619.6" y="147.2" width="5.4" height="3.9" fill="#16a34a" opacity="0.82" rx="1"/>
<line x1="631.2" y1="142.5" x2="631.2" y2="151.2" stroke="#16a34a" stroke-width="1"/><rect x="628.5" y="145.6" width="5.4" height="1.6" fill="#16a34a" opacity="0.82" rx="1"/>
<line x1="640.1" y1="130.3" x2="640.1" y2="145.6" stroke="#16a34a" stroke-width="1"/><rect x="637.4" y="131.9" width="5.4" height="13.7" fill="#16a34a" opacity="0.82" rx="1"/>
<line x1="649.0" y1="131.6" x2="649.0" y2="149.0" stroke="#dc2626" stroke-width="1"/><rect x="646.2" y="131.9" width="5.4" height="11.4" fill="#dc2626" opacity="0.82" rx="1"/>
<line x1="657.8" y1="138.3" x2="657.8" y2="158.5" stroke="#dc2626" stroke-width="1"/><rect x="655.1" y="143.3" width="5.4" height="7.1" fill="#dc2626" opacity="0.82" rx="1"/>
<line x1="666.7" y1="142.9" x2="666.7" y2="153.3" stroke="#dc2626" stroke-width="1"/><rect x="664.0" y="150.4" width="5.4" height="1.2" fill="#dc2626" opacity="0.82" rx="1"/>
<line x1="675.6" y1="146.1" x2="675.6" y2="152.7" stroke="#16a34a" stroke-width="1"/><rect x="672.9" y="146.7" width="5.4" height="4.8" fill="#16a34a" opacity="0.82" rx="1"/>
<line x1="684.5" y1="136.8" x2="684.5" y2="149.1" stroke="#16a34a" stroke-width="1"/><rect x="681.8" y="137.6" width="5.4" height="9.2" fill="#16a34a" opacity="0.82" rx="1"/>
<line x1="693.3" y1="127.2" x2="693.3" y2="141.8" stroke="#16a34a" stroke-width="1"/><rect x="690.6" y="130.6" width="5.4" height="7.0" fill="#16a34a" opacity="0.82" rx="1"/>
<line x1="702.2" y1="126.2" x2="702.2" y2="136.2" stroke="#dc2626" stroke-width="1"/><rect x="699.5" y="130.6" width="5.4" height="3.1" fill="#dc2626" opacity="0.82" rx="1"/>
<line x1="711.1" y1="130.0" x2="711.1" y2="137.5" stroke="#dc2626" stroke-width="1"/><rect x="708.4" y="133.7" width="5.4" height="3.7" fill="#dc2626" opacity="0.82" rx="1"/>
<line x1="720.0" y1="127.0" x2="720.0" y2="139.0" stroke="#16a34a" stroke-width="1"/><rect x="717.3" y="131.2" width="5.4" height="6.2" fill="#16a34a" opacity="0.82" rx="1"/>
<line x1="728.9" y1="123.0" x2="728.9" y2="131.4" stroke="#16a34a" stroke-width="1"/><rect x="726.1" y="123.8" width="5.4" height="7.4" fill="#16a34a" opacity="0.82" rx="1"/>
<line x1="737.7" y1="108.7" x2="737.7" y2="127.0" stroke="#16a34a" stroke-width="1"/><rect x="735.0" y="113.8" width="5.4" height="10.0" fill="#16a34a" opacity="0.82" rx="1"/>
<line x1="746.6" y1="106.9" x2="746.6" y2="118.4" stroke="#dc2626" stroke-width="1"/><rect x="743.9" y="113.8" width="5.4" height="1.9" fill="#dc2626" opacity="0.82" rx="1"/>
<line x1="755.5" y1="107.4" x2="755.5" y2="116.8" stroke="#16a34a" stroke-width="1"/><rect x="752.8" y="108.6" width="5.4" height="7.1" fill="#16a34a" opacity="0.82" rx="1"/>
<line x1="764.4" y1="100.5" x2="764.4" y2="111.1" stroke="#16a34a" stroke-width="1"/><rect x="761.6" y="104.0" width="5.4" height="4.5" fill="#16a34a" opacity="0.82" rx="1"/>
<line x1="773.2" y1="103.1" x2="773.2" y2="128.2" stroke="#dc2626" stroke-width="1"/><rect x="770.5" y="104.0" width="5.4" height="16.2" fill="#dc2626" opacity="0.82" rx="1"/>
<line x1="782.1" y1="114.5" x2="782.1" y2="125.9" stroke="#dc2626" stroke-width="1"/><rect x="779.4" y="120.2" width="5.4" height="3.4" fill="#dc2626" opacity="0.82" rx="1"/>
<line x1="791.0" y1="105.1" x2="791.0" y2="123.6" stroke="#16a34a" stroke-width="1"/><rect x="788.3" y="112.6" width="5.4" height="11.0" fill="#16a34a" opacity="0.82" rx="1"/>
<line x1="799.9" y1="102.0" x2="799.9" y2="113.3" stroke="#16a34a" stroke-width="1"/><rect x="797.1" y="104.1" width="5.4" height="8.5" fill="#16a34a" opacity="0.82" rx="1"/>
<line x1="808.7" y1="104.1" x2="808.7" y2="108.2" stroke="#dc2626" stroke-width="1"/><rect x="806.0" y="104.1" width="5.4" height="1.2" fill="#dc2626" opacity="0.82" rx="1"/>
<line x1="817.6" y1="75.6" x2="817.6" y2="108.6" stroke="#16a34a" stroke-width="1"/><rect x="814.9" y="93.8" width="5.4" height="11.0" fill="#16a34a" opacity="0.82" rx="1"/>
<line x1="826.5" y1="88.2" x2="826.5" y2="99.0" stroke="#dc2626" stroke-width="1"/><rect x="823.8" y="93.8" width="5.4" height="1.3" fill="#dc2626" opacity="0.82" rx="1"/>
<line x1="835.4" y1="85.6" x2="835.4" y2="98.9" stroke="#16a34a" stroke-width="1"/><rect x="832.6" y="94.8" width="5.4" height="1.2" fill="#16a34a" opacity="0.82" rx="1"/>
<line x1="844.2" y1="87.0" x2="844.2" y2="99.6" stroke="#16a34a" stroke-width="1"/><rect x="841.5" y="88.7" width="5.4" height="6.1" fill="#16a34a" opacity="0.82" rx="1"/>
<line x1="853.1" y1="78.9" x2="853.1" y2="91.9" stroke="#16a34a" stroke-width="1"/><rect x="850.4" y="87.8" width="5.4" height="1.2" fill="#16a34a" opacity="0.82" rx="1"/>
<line x1="862.0" y1="83.5" x2="862.0" y2="91.1" stroke="#dc2626" stroke-width="1"/><rect x="859.3" y="87.9" width="5.4" height="1.6" fill="#dc2626" opacity="0.82" rx="1"/>
<line x1="72" y1="110.0" x2="862" y2="110.0" stroke="#16a34a" stroke-width="1.8" stroke-dasharray="6 4" /><rect x="874" y="90.0" width="166" height="23" rx="5" fill="#ffffff" stroke="#16a34a" opacity="0.97"/><text x="881" y="106.0" fill="#16a34a" font-size="15" font-weight="700">日内支撑 64,166</text>
<line x1="72" y1="55.1" x2="862" y2="55.1" stroke="#dc2626" stroke-width="1.8" stroke-dasharray="6 4" /><rect x="874" y="35.1" width="166" height="23" rx="5" fill="#ffffff" stroke="#dc2626" opacity="0.97"/><text x="881" y="51.1" fill="#dc2626" font-size="15" font-weight="700">日内压力 65,079</text>
<line x1="72" y1="89.4" x2="862" y2="89.4" stroke="#111827" stroke-width="1.8" stroke-dasharray="2 2" /><rect x="874" y="69.4" width="166" height="23" rx="5" fill="#ffffff" stroke="#111827" opacity="0.97"/><text x="881" y="85.4" fill="#111827" font-size="15" font-weight="700">现价 64,508</text>
<text x="72" y="396" fill="#16a34a" font-size="14" font-weight="700">日内做多计划</text><rect x="72" y="404" width="790" height="48" rx="6" fill="#f9fafb" stroke="#e5e7eb"/><line x1="94" y1="412" x2="840" y2="412" stroke="#16a34a" stroke-width="3"/><circle cx="132.0" cy="412" r="5" fill="#16a34a"/><text x="132.0" y="434" fill="#374151" font-size="12" text-anchor="middle">入场 止跌/突破回踩</text><circle cx="451.2" cy="412" r="5" fill="#16a34a"/><text x="451.2" y="434" fill="#374151" font-size="12" text-anchor="middle">止损 64,166</text><circle cx="712.0" cy="412" r="5" fill="#16a34a"/><text x="712.0" y="434" fill="#374151" font-size="12" text-anchor="middle">目标一 65,079</text><circle cx="814.0" cy="412" r="5" fill="#16a34a"/><text x="814.0" y="434" fill="#374151" font-size="12" text-anchor="middle">目标二 65,307</text>
<text x="72" y="482" fill="#dc2626" font-size="14" font-weight="700">日内做空计划</text><rect x="72" y="490" width="790" height="48" rx="6" fill="#f9fafb" stroke="#e5e7eb"/><line x1="94" y1="498" x2="840" y2="498" stroke="#dc2626" stroke-width="3"/><circle cx="132.0" cy="498" r="5" fill="#dc2626"/><text x="132.0" y="520" fill="#374151" font-size="12" text-anchor="middle">入场 反弹承压/破位回抽</text><circle cx="451.2" cy="498" r="5" fill="#dc2626"/><text x="451.2" y="520" fill="#374151" font-size="12" text-anchor="middle">止损 65,079</text><circle cx="712.0" cy="498" r="5" fill="#dc2626"/><text x="712.0" y="520" fill="#374151" font-size="12" text-anchor="middle">目标一 64,166</text><circle cx="814.0" cy="498" r="5" fill="#dc2626"/><text x="814.0" y="520" fill="#374151" font-size="12" text-anchor="middle">目标二 63,938</text>
</svg>