<svg xmlns="http://www.w3.org/2000/svg" width="1080" height="560" viewBox="0 0 1080 560">
<rect width="100%" height="100%" fill="#ffffff"/>
<text x="72" y="23" fill="#111827" font-size="21" font-weight="800">DRAM 小时线K线支撑压力图</text>
<text x="862" y="42" fill="#374151" font-size="15" text-anchor="end">最新价 66.65</text>
<line x1="72" y1="34" x2="72" y2="340" stroke="#d1d5db"/>
<line x1="72" y1="340" x2="862" y2="340" stroke="#d1d5db"/>
<line x1="72" y1="340.0" x2="862" y2="340.0" stroke="#f3f4f6"/>
<text x="8" y="345.0" fill="#4b5563" font-size="14">54.63</text>
<line x1="72" y1="263.5" x2="862" y2="263.5" stroke="#f3f4f6"/>
<text x="8" y="268.5" fill="#4b5563" font-size="14">58.10</text>
<line x1="72" y1="187.0" x2="862" y2="187.0" stroke="#f3f4f6"/>
<text x="8" y="192.0" fill="#4b5563" font-size="14">61.57</text>
<line x1="72" y1="110.5" x2="862" y2="110.5" stroke="#f3f4f6"/>
<text x="8" y="115.5" fill="#4b5563" font-size="14">65.04</text>
<line x1="72" y1="34.0" x2="862" y2="34.0" stroke="#f3f4f6"/>
<text x="8" y="39.0" fill="#4b5563" font-size="14">68.51</text>
<line x1="72.0" y1="187.7" x2="72.0" y2="245.1" stroke="#16a34a" stroke-width="1"/><rect x="69.3" y="235.4" width="5.4" height="1.5" fill="#16a34a" opacity="0.82" rx="1"/>
<line x1="80.9" y1="227.4" x2="80.9" y2="276.8" stroke="#dc2626" stroke-width="1"/><rect x="78.2" y="235.1" width="5.4" height="14.3" fill="#dc2626" opacity="0.82" rx="1"/>
<line x1="89.8" y1="245.7" x2="89.8" y2="267.8" stroke="#dc2626" stroke-width="1"/><rect x="87.0" y="249.2" width="5.4" height="11.0" fill="#dc2626" opacity="0.82" rx="1"/>
<line x1="98.6" y1="254.1" x2="98.6" y2="275.7" stroke="#16a34a" stroke-width="1"/><rect x="95.9" y="258.1" width="5.4" height="2.6" fill="#16a34a" opacity="0.82" rx="1"/>
<line x1="107.5" y1="249.2" x2="107.5" y2="274.6" stroke="#dc2626" stroke-width="1"/><rect x="104.8" y="257.6" width="5.4" height="11.7" fill="#dc2626" opacity="0.82" rx="1"/>
<line x1="116.4" y1="264.0" x2="116.4" y2="285.4" stroke="#dc2626" stroke-width="1"/><rect x="113.7" y="269.3" width="5.4" height="9.9" fill="#dc2626" opacity="0.82" rx="1"/>
<line x1="125.3" y1="275.7" x2="125.3" y2="298.0" stroke="#dc2626" stroke-width="1"/><rect x="122.5" y="279.4" width="5.4" height="10.6" fill="#dc2626" opacity="0.82" rx="1"/>
<line x1="134.1" y1="286.9" x2="134.1" y2="296.6" stroke="#dc2626" stroke-width="1"/><rect x="131.4" y="289.8" width="5.4" height="4.8" fill="#dc2626" opacity="0.82" rx="1"/>
<line x1="143.0" y1="293.3" x2="143.0" y2="312.5" stroke="#dc2626" stroke-width="1"/><rect x="140.3" y="294.2" width="5.4" height="17.0" fill="#dc2626" opacity="0.82" rx="1"/>
<line x1="151.9" y1="292.7" x2="151.9" y2="318.9" stroke="#16a34a" stroke-width="1"/><rect x="149.2" y="300.2" width="5.4" height="11.0" fill="#16a34a" opacity="0.82" rx="1"/>
<line x1="160.8" y1="245.5" x2="160.8" y2="305.7" stroke="#16a34a" stroke-width="1"/><rect x="158.0" y="245.9" width="5.4" height="53.6" fill="#16a34a" opacity="0.82" rx="1"/>
<line x1="169.6" y1="213.5" x2="169.6" y2="246.6" stroke="#16a34a" stroke-width="1"/><rect x="166.9" y="244.2" width="5.4" height="1.5" fill="#16a34a" opacity="0.82" rx="1"/>
<line x1="178.5" y1="235.6" x2="178.5" y2="269.3" stroke="#dc2626" stroke-width="1"/><rect x="175.8" y="244.2" width="5.4" height="8.2" fill="#dc2626" opacity="0.82" rx="1"/>
<line x1="187.4" y1="232.9" x2="187.4" y2="263.3" stroke="#16a34a" stroke-width="1"/><rect x="184.7" y="233.8" width="5.4" height="18.5" fill="#16a34a" opacity="0.82" rx="1"/>
<line x1="196.3" y1="230.3" x2="196.3" y2="247.7" stroke="#dc2626" stroke-width="1"/><rect x="193.5" y="233.6" width="5.4" height="1.2" fill="#dc2626" opacity="0.82" rx="1"/>
<line x1="205.1" y1="234.3" x2="205.1" y2="247.5" stroke="#dc2626" stroke-width="1"/><rect x="202.4" y="234.7" width="5.4" height="7.9" fill="#dc2626" opacity="0.82" rx="1"/>
<line x1="214.0" y1="235.4" x2="214.0" y2="249.0" stroke="#16a34a" stroke-width="1"/><rect x="211.3" y="237.1" width="5.4" height="5.7" fill="#16a34a" opacity="0.82" rx="1"/>
<line x1="222.9" y1="226.1" x2="222.9" y2="241.3" stroke="#16a34a" stroke-width="1"/><rect x="220.2" y="229.2" width="5.4" height="7.9" fill="#16a34a" opacity="0.82" rx="1"/>
<line x1="231.8" y1="210.4" x2="231.8" y2="229.0" stroke="#16a34a" stroke-width="1"/><rect x="229.1" y="217.5" width="5.4" height="11.5" fill="#16a34a" opacity="0.82" rx="1"/>
<line x1="240.7" y1="210.9" x2="240.7" y2="227.2" stroke="#dc2626" stroke-width="1"/><rect x="237.9" y="217.7" width="5.4" height="3.1" fill="#dc2626" opacity="0.82" rx="1"/>
<line x1="249.5" y1="211.5" x2="249.5" y2="221.2" stroke="#16a34a" stroke-width="1"/><rect x="246.8" y="219.9" width="5.4" height="1.2" fill="#16a34a" opacity="0.82" rx="1"/>
<line x1="258.4" y1="217.3" x2="258.4" y2="226.1" stroke="#16a34a" stroke-width="1"/><rect x="255.7" y="219.9" width="5.4" height="1.2" fill="#16a34a" opacity="0.82" rx="1"/>
<line x1="267.3" y1="217.1" x2="267.3" y2="253.6" stroke="#dc2626" stroke-width="1"/><rect x="264.6" y="219.7" width="5.4" height="13.4" fill="#dc2626" opacity="0.82" rx="1"/>
<line x1="276.2" y1="201.4" x2="276.2" y2="238.7" stroke="#16a34a" stroke-width="1"/><rect x="273.4" y="214.6" width="5.4" height="18.1" fill="#16a34a" opacity="0.82" rx="1"/>
<line x1="285.0" y1="193.9" x2="285.0" y2="234.3" stroke="#dc2626" stroke-width="1"/><rect x="282.3" y="214.9" width="5.4" height="15.9" fill="#dc2626" opacity="0.82" rx="1"/>
<line x1="293.9" y1="199.6" x2="293.9" y2="237.1" stroke="#16a34a" stroke-width="1"/><rect x="291.2" y="201.4" width="5.4" height="28.9" fill="#16a34a" opacity="0.82" rx="1"/>
<line x1="302.8" y1="190.4" x2="302.8" y2="207.8" stroke="#dc2626" stroke-width="1"/><rect x="300.1" y="201.6" width="5.4" height="6.2" fill="#dc2626" opacity="0.82" rx="1"/>
<line x1="311.7" y1="152.9" x2="311.7" y2="213.5" stroke="#16a34a" stroke-width="1"/><rect x="308.9" y="155.8" width="5.4" height="52.0" fill="#16a34a" opacity="0.82" rx="1"/>
<line x1="320.5" y1="138.4" x2="320.5" y2="173.6" stroke="#16a34a" stroke-width="1"/><rect x="317.8" y="140.3" width="5.4" height="15.9" fill="#16a34a" opacity="0.82" rx="1"/>
<line x1="329.4" y1="98.7" x2="329.4" y2="145.6" stroke="#16a34a" stroke-width="1"/><rect x="326.7" y="108.6" width="5.4" height="32.0" fill="#16a34a" opacity="0.82" rx="1"/>
<line x1="338.3" y1="106.0" x2="338.3" y2="125.6" stroke="#dc2626" stroke-width="1"/><rect x="335.6" y="108.6" width="5.4" height="10.6" fill="#dc2626" opacity="0.82" rx="1"/>
<line x1="347.2" y1="104.4" x2="347.2" y2="119.6" stroke="#16a34a" stroke-width="1"/><rect x="344.4" y="108.8" width="5.4" height="10.4" fill="#16a34a" opacity="0.82" rx="1"/>
<line x1="356.0" y1="78.4" x2="356.0" y2="111.0" stroke="#16a34a" stroke-width="1"/><rect x="353.3" y="85.9" width="5.4" height="23.4" fill="#16a34a" opacity="0.82" rx="1"/>
<line x1="364.9" y1="74.2" x2="364.9" y2="109.3" stroke="#dc2626" stroke-width="1"/><rect x="362.2" y="85.9" width="5.4" height="3.1" fill="#dc2626" opacity="0.82" rx="1"/>
<line x1="373.8" y1="89.2" x2="373.8" y2="108.4" stroke="#dc2626" stroke-width="1"/><rect x="371.1" y="89.2" width="5.4" height="9.5" fill="#dc2626" opacity="0.82" rx="1"/>
<line x1="382.7" y1="98.7" x2="382.7" y2="129.1" stroke="#dc2626" stroke-width="1"/><rect x="380.0" y="98.7" width="5.4" height="11.7" fill="#dc2626" opacity="0.82" rx="1"/>
<line x1="391.6" y1="105.3" x2="391.6" y2="118.7" stroke="#16a34a" stroke-width="1"/><rect x="388.8" y="107.1" width="5.4" height="3.1" fill="#16a34a" opacity="0.82" rx="1"/>
<line x1="400.4" y1="102.9" x2="400.4" y2="111.7" stroke="#16a34a" stroke-width="1"/><rect x="397.7" y="105.5" width="5.4" height="1.3" fill="#16a34a" opacity="0.82" rx="1"/>
<line x1="409.3" y1="95.2" x2="409.3" y2="111.9" stroke="#16a34a" stroke-width="1"/><rect x="406.6" y="97.6" width="5.4" height="7.7" fill="#16a34a" opacity="0.82" rx="1"/>
<line x1="418.2" y1="96.3" x2="418.2" y2="154.9" stroke="#dc2626" stroke-width="1"/><rect x="415.5" y="97.8" width="5.4" height="50.9" fill="#dc2626" opacity="0.82" rx="1"/>
<line x1="427.1" y1="134.8" x2="427.1" y2="168.1" stroke="#dc2626" stroke-width="1"/><rect x="424.3" y="148.5" width="5.4" height="6.4" fill="#dc2626" opacity="0.82" rx="1"/>
<line x1="435.9" y1="150.5" x2="435.9" y2="171.9" stroke="#16a34a" stroke-width="1"/><rect x="433.2" y="150.7" width="5.4" height="4.0" fill="#16a34a" opacity="0.82" rx="1"/>
<line x1="444.8" y1="122.7" x2="444.8" y2="156.2" stroke="#16a34a" stroke-width="1"/><rect x="442.1" y="139.7" width="5.4" height="10.8" fill="#16a34a" opacity="0.82" rx="1"/>
<line x1="453.7" y1="121.2" x2="453.7" y2="141.0" stroke="#16a34a" stroke-width="1"/><rect x="451.0" y="125.4" width="5.4" height="14.5" fill="#16a34a" opacity="0.82" rx="1"/>
<line x1="462.6" y1="120.5" x2="462.6" y2="144.1" stroke="#dc2626" stroke-width="1"/><rect x="459.8" y="125.6" width="5.4" height="10.4" fill="#dc2626" opacity="0.82" rx="1"/>
<line x1="471.4" y1="121.2" x2="471.4" y2="135.7" stroke="#16a34a" stroke-width="1"/><rect x="468.7" y="132.0" width="5.4" height="3.7" fill="#16a34a" opacity="0.82" rx="1"/>
<line x1="480.3" y1="131.1" x2="480.3" y2="158.9" stroke="#dc2626" stroke-width="1"/><rect x="477.6" y="132.0" width="5.4" height="23.4" fill="#dc2626" opacity="0.82" rx="1"/>
<line x1="489.2" y1="113.0" x2="489.2" y2="161.9" stroke="#16a34a" stroke-width="1"/><rect x="486.5" y="122.1" width="5.4" height="32.6" fill="#16a34a" opacity="0.82" rx="1"/>
<line x1="498.1" y1="91.0" x2="498.1" y2="132.9" stroke="#16a34a" stroke-width="1"/><rect x="495.3" y="107.7" width="5.4" height="14.1" fill="#16a34a" opacity="0.82" rx="1"/>
<line x1="506.9" y1="93.0" x2="506.9" y2="128.0" stroke="#dc2626" stroke-width="1"/><rect x="504.2" y="107.3" width="5.4" height="18.3" fill="#dc2626" opacity="0.82" rx="1"/>
<line x1="515.8" y1="91.9" x2="515.8" y2="126.9" stroke="#16a34a" stroke-width="1"/><rect x="513.1" y="94.1" width="5.4" height="31.5" fill="#16a34a" opacity="0.82" rx="1"/>
<line x1="524.7" y1="85.5" x2="524.7" y2="99.1" stroke="#dc2626" stroke-width="1"/><rect x="522.0" y="93.8" width="5.4" height="1.2" fill="#dc2626" opacity="0.82" rx="1"/>
<line x1="533.6" y1="87.2" x2="533.6" y2="101.3" stroke="#dc2626" stroke-width="1"/><rect x="530.9" y="94.1" width="5.4" height="3.7" fill="#dc2626" opacity="0.82" rx="1"/>
<line x1="542.4" y1="91.9" x2="542.4" y2="109.5" stroke="#dc2626" stroke-width="1"/><rect x="539.7" y="98.2" width="5.4" height="11.2" fill="#dc2626" opacity="0.82" rx="1"/>
<line x1="551.3" y1="99.6" x2="551.3" y2="114.6" stroke="#16a34a" stroke-width="1"/><rect x="548.6" y="108.8" width="5.4" height="1.2" fill="#16a34a" opacity="0.82" rx="1"/>
<line x1="560.2" y1="103.1" x2="560.2" y2="110.8" stroke="#16a34a" stroke-width="1"/><rect x="557.5" y="104.6" width="5.4" height="3.7" fill="#16a34a" opacity="0.82" rx="1"/>
<line x1="569.1" y1="103.1" x2="569.1" y2="107.7" stroke="#16a34a" stroke-width="1"/><rect x="566.4" y="103.8" width="5.4" height="1.3" fill="#16a34a" opacity="0.82" rx="1"/>
<line x1="578.0" y1="93.2" x2="578.0" y2="104.2" stroke="#16a34a" stroke-width="1"/><rect x="575.2" y="97.4" width="5.4" height="6.4" fill="#16a34a" opacity="0.82" rx="1"/>
<line x1="586.8" y1="94.9" x2="586.8" y2="105.1" stroke="#dc2626" stroke-width="1"/><rect x="584.1" y="96.9" width="5.4" height="7.3" fill="#dc2626" opacity="0.82" rx="1"/>
<line x1="595.7" y1="100.7" x2="595.7" y2="121.6" stroke="#dc2626" stroke-width="1"/><rect x="593.0" y="104.4" width="5.4" height="6.2" fill="#dc2626" opacity="0.82" rx="1"/>
<line x1="604.6" y1="96.5" x2="604.6" y2="110.4" stroke="#16a34a" stroke-width="1"/><rect x="601.9" y="106.4" width="5.4" height="4.0" fill="#16a34a" opacity="0.82" rx="1"/>
<line x1="613.5" y1="102.2" x2="613.5" y2="115.4" stroke="#dc2626" stroke-width="1"/><rect x="610.7" y="106.4" width="5.4" height="5.3" fill="#dc2626" opacity="0.82" rx="1"/>
<line x1="622.3" y1="107.7" x2="622.3" y2="119.0" stroke="#dc2626" stroke-width="1"/><rect x="619.6" y="111.5" width="5.4" height="4.0" fill="#dc2626" opacity="0.82" rx="1"/>
<line x1="631.2" y1="113.0" x2="631.2" y2="120.3" stroke="#dc2626" stroke-width="1"/><rect x="628.5" y="115.7" width="5.4" height="1.2" fill="#dc2626" opacity="0.82" rx="1"/>
<line x1="640.1" y1="112.1" x2="640.1" y2="119.2" stroke="#dc2626" stroke-width="1"/><rect x="637.4" y="116.3" width="5.4" height="1.2" fill="#dc2626" opacity="0.82" rx="1"/>
<line x1="649.0" y1="116.5" x2="649.0" y2="122.3" stroke="#dc2626" stroke-width="1"/><rect x="646.2" y="117.9" width="5.4" height="2.4" fill="#dc2626" opacity="0.82" rx="1"/>
<line x1="657.8" y1="115.2" x2="657.8" y2="121.8" stroke="#16a34a" stroke-width="1"/><rect x="655.1" y="117.0" width="5.4" height="3.5" fill="#16a34a" opacity="0.82" rx="1"/>
<line x1="666.7" y1="116.1" x2="666.7" y2="135.9" stroke="#dc2626" stroke-width="1"/><rect x="664.0" y="117.2" width="5.4" height="8.6" fill="#dc2626" opacity="0.82" rx="1"/>
<line x1="675.6" y1="122.1" x2="675.6" y2="126.9" stroke="#16a34a" stroke-width="1"/><rect x="672.9" y="123.4" width="5.4" height="2.6" fill="#16a34a" opacity="0.82" rx="1"/>
<line x1="684.5" y1="118.7" x2="684.5" y2="125.6" stroke="#16a34a" stroke-width="1"/><rect x="681.8" y="120.7" width="5.4" height="2.9" fill="#16a34a" opacity="0.82" rx="1"/>
<line x1="693.3" y1="107.9" x2="693.3" y2="120.9" stroke="#16a34a" stroke-width="1"/><rect x="690.6" y="109.3" width="5.4" height="11.5" fill="#16a34a" opacity="0.82" rx="1"/>
<line x1="702.2" y1="107.9" x2="702.2" y2="117.4" stroke="#dc2626" stroke-width="1"/><rect x="699.5" y="109.0" width="5.4" height="6.6" fill="#dc2626" opacity="0.82" rx="1"/>
<line x1="711.1" y1="112.8" x2="711.1" y2="119.2" stroke="#16a34a" stroke-width="1"/><rect x="708.4" y="113.5" width="5.4" height="2.0" fill="#16a34a" opacity="0.82" rx="1"/>
<line x1="720.0" y1="99.3" x2="720.0" y2="114.8" stroke="#16a34a" stroke-width="1"/><rect x="717.3" y="101.3" width="5.4" height="12.1" fill="#16a34a" opacity="0.82" rx="1"/>
<line x1="728.9" y1="94.9" x2="728.9" y2="111.0" stroke="#dc2626" stroke-width="1"/><rect x="726.1" y="100.9" width="5.4" height="4.4" fill="#dc2626" opacity="0.82" rx="1"/>
<line x1="737.7" y1="101.1" x2="737.7" y2="110.1" stroke="#16a34a" stroke-width="1"/><rect x="735.0" y="103.3" width="5.4" height="2.0" fill="#16a34a" opacity="0.82" rx="1"/>
<line x1="746.6" y1="90.8" x2="746.6" y2="103.5" stroke="#16a34a" stroke-width="1"/><rect x="743.9" y="93.0" width="5.4" height="10.4" fill="#16a34a" opacity="0.82" rx="1"/>
<line x1="755.5" y1="90.5" x2="755.5" y2="94.7" stroke="#16a34a" stroke-width="1"/><rect x="752.8" y="91.2" width="5.4" height="2.0" fill="#16a34a" opacity="0.82" rx="1"/>
<line x1="764.4" y1="90.5" x2="764.4" y2="94.7" stroke="#dc2626" stroke-width="1"/><rect x="761.6" y="91.2" width="5.4" height="2.4" fill="#dc2626" opacity="0.82" rx="1"/>
<line x1="773.2" y1="90.1" x2="773.2" y2="95.8" stroke="#16a34a" stroke-width="1"/><rect x="770.5" y="91.2" width="5.4" height="2.2" fill="#16a34a" opacity="0.82" rx="1"/>
<line x1="782.1" y1="89.9" x2="782.1" y2="96.5" stroke="#16a34a" stroke-width="1"/><rect x="779.4" y="91.6" width="5.4" height="1.2" fill="#16a34a" opacity="0.82" rx="1"/>
<line x1="791.0" y1="90.1" x2="791.0" y2="94.9" stroke="#dc2626" stroke-width="1"/><rect x="788.3" y="92.1" width="5.4" height="2.4" fill="#dc2626" opacity="0.82" rx="1"/>
<line x1="799.9" y1="90.1" x2="799.9" y2="98.9" stroke="#16a34a" stroke-width="1"/><rect x="797.1" y="90.8" width="5.4" height="3.5" fill="#16a34a" opacity="0.82" rx="1"/>
<line x1="808.7" y1="84.6" x2="808.7" y2="91.4" stroke="#16a34a" stroke-width="1"/><rect x="806.0" y="86.1" width="5.4" height="4.4" fill="#16a34a" opacity="0.82" rx="1"/>
<line x1="817.6" y1="78.4" x2="817.6" y2="89.2" stroke="#16a34a" stroke-width="1"/><rect x="814.9" y="78.6" width="5.4" height="7.7" fill="#16a34a" opacity="0.82" rx="1"/>
<line x1="826.5" y1="76.4" x2="826.5" y2="86.1" stroke="#dc2626" stroke-width="1"/><rect x="823.8" y="78.6" width="5.4" height="2.0" fill="#dc2626" opacity="0.82" rx="1"/>
<line x1="835.4" y1="78.2" x2="835.4" y2="91.0" stroke="#dc2626" stroke-width="1"/><rect x="832.6" y="80.4" width="5.4" height="7.9" fill="#dc2626" opacity="0.82" rx="1"/>
<line x1="844.2" y1="84.4" x2="844.2" y2="89.4" stroke="#16a34a" stroke-width="1"/><rect x="841.5" y="87.2" width="5.4" height="1.3" fill="#16a34a" opacity="0.82" rx="1"/>
<line x1="853.1" y1="72.0" x2="853.1" y2="88.3" stroke="#16a34a" stroke-width="1"/><rect x="850.4" y="73.6" width="5.4" height="13.9" fill="#16a34a" opacity="0.82" rx="1"/>
<line x1="862.0" y1="72.5" x2="862.0" y2="75.8" stroke="#dc2626" stroke-width="1"/><rect x="859.3" y="73.3" width="5.4" height="1.8" fill="#dc2626" opacity="0.82" rx="1"/>
<line x1="72" y1="87.1" x2="862" y2="87.1" stroke="#16a34a" stroke-width="1.8" stroke-dasharray="6 4" /><rect x="874" y="67.1" width="166" height="23" rx="5" fill="#ffffff" stroke="#16a34a" opacity="0.97"/><text x="881" y="83.1" fill="#16a34a" font-size="15" font-weight="700">日内支撑 66.11</text>
<line x1="72" y1="55.1" x2="862" y2="55.1" stroke="#dc2626" stroke-width="1.8" stroke-dasharray="6 4" /><rect x="874" y="35.1" width="166" height="23" rx="5" fill="#ffffff" stroke="#dc2626" opacity="0.97"/><text x="881" y="51.1" fill="#dc2626" font-size="15" font-weight="700">日内压力 67.56</text>
<line x1="72" y1="75.1" x2="862" y2="75.1" stroke="#111827" stroke-width="1.8" stroke-dasharray="2 2" /><rect x="874" y="55.1" width="166" height="23" rx="5" fill="#ffffff" stroke="#111827" opacity="0.97"/><text x="881" y="71.1" fill="#111827" font-size="15" font-weight="700">现价 66.65</text>
<text x="72" y="396" fill="#16a34a" font-size="14" font-weight="700">日内做多计划</text><rect x="72" y="404" width="790" height="48" rx="6" fill="#f9fafb" stroke="#e5e7eb"/><line x1="94" y1="412" x2="840" y2="412" stroke="#16a34a" stroke-width="3"/><circle cx="132.0" cy="412" r="5" fill="#16a34a"/><text x="132.0" y="434" fill="#374151" font-size="12" text-anchor="middle">入场 止跌/突破回踩</text><circle cx="451.2" cy="412" r="5" fill="#16a34a"/><text x="451.2" y="434" fill="#374151" font-size="12" text-anchor="middle">止损 66.11</text><circle cx="712.0" cy="412" r="5" fill="#16a34a"/><text x="712.0" y="434" fill="#374151" font-size="12" text-anchor="middle">目标一 67.56</text><circle cx="814.0" cy="412" r="5" fill="#16a34a"/><text x="814.0" y="434" fill="#374151" font-size="12" text-anchor="middle">目标二 67.92</text>
<text x="72" y="482" fill="#dc2626" font-size="14" font-weight="700">日内做空计划</text><rect x="72" y="490" width="790" height="48" rx="6" fill="#f9fafb" stroke="#e5e7eb"/><line x1="94" y1="498" x2="840" y2="498" stroke="#dc2626" stroke-width="3"/><circle cx="132.0" cy="498" r="5" fill="#dc2626"/><text x="132.0" y="520" fill="#374151" font-size="12" text-anchor="middle">入场 反弹承压/破位回抽</text><circle cx="451.2" cy="498" r="5" fill="#dc2626"/><text x="451.2" y="520" fill="#374151" font-size="12" text-anchor="middle">止损 67.56</text><circle cx="712.0" cy="498" r="5" fill="#dc2626"/><text x="712.0" y="520" fill="#374151" font-size="12" text-anchor="middle">目标一 66.11</text><circle cx="814.0" cy="498" r="5" fill="#dc2626"/><text x="814.0" y="520" fill="#374151" font-size="12" text-anchor="middle">目标二 65.74</text>
</svg>