<svg xmlns="http://www.w3.org/2000/svg" width="1080" height="560" viewBox="0 0 1080 560">
<rect width="100%" height="100%" fill="#ffffff"/>
<text x="72" y="23" fill="#111827" font-size="21" font-weight="800">HYPE 日线K线支撑压力图</text>
<text x="862" y="42" fill="#374151" font-size="15" text-anchor="end">最新价 60.58</text>
<line x1="72" y1="34" x2="72" y2="340" stroke="#d1d5db"/>
<line x1="72" y1="340" x2="862" y2="340" stroke="#d1d5db"/>
<line x1="72" y1="340.0" x2="862" y2="340.0" stroke="#f3f4f6"/>
<text x="8" y="345.0" fill="#4b5563" font-size="14">31.08</text>
<line x1="72" y1="263.5" x2="862" y2="263.5" stroke="#f3f4f6"/>
<text x="8" y="268.5" fill="#4b5563" font-size="14">43.21</text>
<line x1="72" y1="187.0" x2="862" y2="187.0" stroke="#f3f4f6"/>
<text x="8" y="192.0" fill="#4b5563" font-size="14">55.34</text>
<line x1="72" y1="110.5" x2="862" y2="110.5" stroke="#f3f4f6"/>
<text x="8" y="115.5" fill="#4b5563" font-size="14">67.47</text>
<line x1="72" y1="34.0" x2="862" y2="34.0" stroke="#f3f4f6"/>
<text x="8" y="39.0" fill="#4b5563" font-size="14">79.60</text>
<line x1="72.0" y1="269.9" x2="72.0" y2="285.9" stroke="#16a34a" stroke-width="1"/><rect x="69.3" y="276.3" width="5.4" height="2.3" fill="#16a34a" opacity="0.82" rx="1"/>
<line x1="80.9" y1="260.1" x2="80.9" y2="282.3" stroke="#16a34a" stroke-width="1"/><rect x="78.2" y="270.4" width="5.4" height="5.8" fill="#16a34a" opacity="0.82" rx="1"/>
<line x1="89.8" y1="269.4" x2="89.8" y2="292.3" stroke="#dc2626" stroke-width="1"/><rect x="87.0" y="270.4" width="5.4" height="17.5" fill="#dc2626" opacity="0.82" rx="1"/>
<line x1="98.6" y1="278.9" x2="98.6" y2="294.1" stroke="#16a34a" stroke-width="1"/><rect x="95.9" y="286.6" width="5.4" height="1.2" fill="#16a34a" opacity="0.82" rx="1"/>
<line x1="107.5" y1="281.0" x2="107.5" y2="290.8" stroke="#dc2626" stroke-width="1"/><rect x="104.8" y="286.6" width="5.4" height="2.5" fill="#dc2626" opacity="0.82" rx="1"/>
<line x1="116.4" y1="286.8" x2="116.4" y2="299.7" stroke="#dc2626" stroke-width="1"/><rect x="113.7" y="289.1" width="5.4" height="5.0" fill="#dc2626" opacity="0.82" rx="1"/>
<line x1="125.3" y1="286.5" x2="125.3" y2="303.9" stroke="#dc2626" stroke-width="1"/><rect x="122.5" y="294.1" width="5.4" height="6.2" fill="#dc2626" opacity="0.82" rx="1"/>
<line x1="134.1" y1="280.8" x2="134.1" y2="301.2" stroke="#16a34a" stroke-width="1"/><rect x="131.4" y="281.7" width="5.4" height="18.6" fill="#16a34a" opacity="0.82" rx="1"/>
<line x1="143.0" y1="274.0" x2="143.0" y2="285.9" stroke="#16a34a" stroke-width="1"/><rect x="140.3" y="281.7" width="5.4" height="1.2" fill="#16a34a" opacity="0.82" rx="1"/>
<line x1="151.9" y1="281.3" x2="151.9" y2="294.6" stroke="#dc2626" stroke-width="1"/><rect x="149.2" y="281.7" width="5.4" height="7.4" fill="#dc2626" opacity="0.82" rx="1"/>
<line x1="160.8" y1="287.5" x2="160.8" y2="297.1" stroke="#dc2626" stroke-width="1"/><rect x="158.0" y="289.0" width="5.4" height="3.1" fill="#dc2626" opacity="0.82" rx="1"/>
<line x1="169.6" y1="282.1" x2="169.6" y2="296.4" stroke="#16a34a" stroke-width="1"/><rect x="166.9" y="287.2" width="5.4" height="5.0" fill="#16a34a" opacity="0.82" rx="1"/>
<line x1="178.5" y1="283.4" x2="178.5" y2="298.1" stroke="#dc2626" stroke-width="1"/><rect x="175.8" y="287.2" width="5.4" height="10.4" fill="#dc2626" opacity="0.82" rx="1"/>
<line x1="187.4" y1="291.5" x2="187.4" y2="306.1" stroke="#dc2626" stroke-width="1"/><rect x="184.7" y="297.5" width="5.4" height="6.2" fill="#dc2626" opacity="0.82" rx="1"/>
<line x1="196.3" y1="298.7" x2="196.3" y2="311.2" stroke="#dc2626" stroke-width="1"/><rect x="193.5" y="303.8" width="5.4" height="1.4" fill="#dc2626" opacity="0.82" rx="1"/>
<line x1="205.1" y1="297.3" x2="205.1" y2="309.9" stroke="#dc2626" stroke-width="1"/><rect x="202.4" y="305.2" width="5.4" height="3.7" fill="#dc2626" opacity="0.82" rx="1"/>
<line x1="214.0" y1="307.3" x2="214.0" y2="318.9" stroke="#dc2626" stroke-width="1"/><rect x="211.3" y="308.9" width="5.4" height="5.3" fill="#dc2626" opacity="0.82" rx="1"/>
<line x1="222.9" y1="308.3" x2="222.9" y2="314.8" stroke="#16a34a" stroke-width="1"/><rect x="220.2" y="311.5" width="5.4" height="2.6" fill="#16a34a" opacity="0.82" rx="1"/>
<line x1="231.8" y1="305.5" x2="231.8" y2="312.1" stroke="#16a34a" stroke-width="1"/><rect x="229.1" y="306.7" width="5.4" height="4.8" fill="#16a34a" opacity="0.82" rx="1"/>
<line x1="240.7" y1="302.6" x2="240.7" y2="314.5" stroke="#16a34a" stroke-width="1"/><rect x="237.9" y="303.6" width="5.4" height="3.1" fill="#16a34a" opacity="0.82" rx="1"/>
<line x1="249.5" y1="297.9" x2="249.5" y2="309.3" stroke="#dc2626" stroke-width="1"/><rect x="246.8" y="303.5" width="5.4" height="3.6" fill="#dc2626" opacity="0.82" rx="1"/>
<line x1="258.4" y1="289.0" x2="258.4" y2="310.7" stroke="#16a34a" stroke-width="1"/><rect x="255.7" y="292.5" width="5.4" height="14.6" fill="#16a34a" opacity="0.82" rx="1"/>
<line x1="267.3" y1="285.0" x2="267.3" y2="297.9" stroke="#16a34a" stroke-width="1"/><rect x="264.6" y="291.5" width="5.4" height="1.2" fill="#16a34a" opacity="0.82" rx="1"/>
<line x1="276.2" y1="281.2" x2="276.2" y2="295.4" stroke="#16a34a" stroke-width="1"/><rect x="273.4" y="287.1" width="5.4" height="4.4" fill="#16a34a" opacity="0.82" rx="1"/>
<line x1="285.0" y1="269.6" x2="285.0" y2="287.3" stroke="#16a34a" stroke-width="1"/><rect x="282.3" y="273.6" width="5.4" height="13.4" fill="#16a34a" opacity="0.82" rx="1"/>
<line x1="293.9" y1="263.7" x2="293.9" y2="274.4" stroke="#16a34a" stroke-width="1"/><rect x="291.2" y="269.4" width="5.4" height="4.3" fill="#16a34a" opacity="0.82" rx="1"/>
<line x1="302.8" y1="265.9" x2="302.8" y2="282.5" stroke="#dc2626" stroke-width="1"/><rect x="300.1" y="269.4" width="5.4" height="9.0" fill="#dc2626" opacity="0.82" rx="1"/>
<line x1="311.7" y1="254.6" x2="311.7" y2="278.8" stroke="#16a34a" stroke-width="1"/><rect x="308.9" y="256.4" width="5.4" height="22.0" fill="#16a34a" opacity="0.82" rx="1"/>
<line x1="320.5" y1="250.1" x2="320.5" y2="265.3" stroke="#dc2626" stroke-width="1"/><rect x="317.8" y="256.4" width="5.4" height="5.0" fill="#dc2626" opacity="0.82" rx="1"/>
<line x1="329.4" y1="249.3" x2="329.4" y2="264.0" stroke="#16a34a" stroke-width="1"/><rect x="326.7" y="254.5" width="5.4" height="7.0" fill="#16a34a" opacity="0.82" rx="1"/>
<line x1="338.3" y1="247.4" x2="338.3" y2="262.9" stroke="#dc2626" stroke-width="1"/><rect x="335.6" y="254.5" width="5.4" height="5.2" fill="#dc2626" opacity="0.82" rx="1"/>
<line x1="347.2" y1="249.0" x2="347.2" y2="263.7" stroke="#16a34a" stroke-width="1"/><rect x="344.4" y="254.6" width="5.4" height="5.1" fill="#16a34a" opacity="0.82" rx="1"/>
<line x1="356.0" y1="249.3" x2="356.0" y2="260.3" stroke="#dc2626" stroke-width="1"/><rect x="353.3" y="254.6" width="5.4" height="5.3" fill="#dc2626" opacity="0.82" rx="1"/>
<line x1="364.9" y1="258.9" x2="364.9" y2="280.6" stroke="#dc2626" stroke-width="1"/><rect x="362.2" y="259.9" width="5.4" height="19.5" fill="#dc2626" opacity="0.82" rx="1"/>
<line x1="373.8" y1="272.4" x2="373.8" y2="280.2" stroke="#16a34a" stroke-width="1"/><rect x="371.1" y="279.3" width="5.4" height="1.2" fill="#16a34a" opacity="0.82" rx="1"/>
<line x1="382.7" y1="274.7" x2="382.7" y2="290.7" stroke="#dc2626" stroke-width="1"/><rect x="380.0" y="279.3" width="5.4" height="5.9" fill="#dc2626" opacity="0.82" rx="1"/>
<line x1="391.6" y1="272.7" x2="391.6" y2="286.1" stroke="#16a34a" stroke-width="1"/><rect x="388.8" y="276.4" width="5.4" height="8.8" fill="#16a34a" opacity="0.82" rx="1"/>
<line x1="400.4" y1="272.0" x2="400.4" y2="280.4" stroke="#16a34a" stroke-width="1"/><rect x="397.7" y="275.5" width="5.4" height="1.2" fill="#16a34a" opacity="0.82" rx="1"/>
<line x1="409.3" y1="274.0" x2="409.3" y2="279.4" stroke="#dc2626" stroke-width="1"/><rect x="406.6" y="275.5" width="5.4" height="1.2" fill="#dc2626" opacity="0.82" rx="1"/>
<line x1="418.2" y1="271.7" x2="418.2" y2="278.5" stroke="#16a34a" stroke-width="1"/><rect x="415.5" y="274.2" width="5.4" height="2.1" fill="#16a34a" opacity="0.82" rx="1"/>
<line x1="427.1" y1="267.3" x2="427.1" y2="277.7" stroke="#16a34a" stroke-width="1"/><rect x="424.3" y="268.2" width="5.4" height="6.0" fill="#16a34a" opacity="0.82" rx="1"/>
<line x1="435.9" y1="261.2" x2="435.9" y2="275.7" stroke="#dc2626" stroke-width="1"/><rect x="433.2" y="268.2" width="5.4" height="5.1" fill="#dc2626" opacity="0.82" rx="1"/>
<line x1="444.8" y1="272.2" x2="444.8" y2="287.6" stroke="#dc2626" stroke-width="1"/><rect x="442.1" y="273.3" width="5.4" height="9.4" fill="#dc2626" opacity="0.82" rx="1"/>
<line x1="453.7" y1="278.7" x2="453.7" y2="289.0" stroke="#dc2626" stroke-width="1"/><rect x="451.0" y="282.7" width="5.4" height="1.4" fill="#dc2626" opacity="0.82" rx="1"/>
<line x1="462.6" y1="281.6" x2="462.6" y2="291.9" stroke="#dc2626" stroke-width="1"/><rect x="459.8" y="284.1" width="5.4" height="1.5" fill="#dc2626" opacity="0.82" rx="1"/>
<line x1="471.4" y1="276.5" x2="471.4" y2="285.8" stroke="#16a34a" stroke-width="1"/><rect x="468.7" y="276.6" width="5.4" height="9.1" fill="#16a34a" opacity="0.82" rx="1"/>
<line x1="480.3" y1="268.3" x2="480.3" y2="277.5" stroke="#16a34a" stroke-width="1"/><rect x="477.6" y="275.8" width="5.4" height="1.2" fill="#16a34a" opacity="0.82" rx="1"/>
<line x1="489.2" y1="272.8" x2="489.2" y2="279.4" stroke="#16a34a" stroke-width="1"/><rect x="486.5" y="273.9" width="5.4" height="1.9" fill="#16a34a" opacity="0.82" rx="1"/>
<line x1="498.1" y1="267.3" x2="498.1" y2="278.6" stroke="#16a34a" stroke-width="1"/><rect x="495.3" y="272.3" width="5.4" height="1.6" fill="#16a34a" opacity="0.82" rx="1"/>
<line x1="506.9" y1="254.5" x2="506.9" y2="272.6" stroke="#16a34a" stroke-width="1"/><rect x="504.2" y="260.3" width="5.4" height="11.9" fill="#16a34a" opacity="0.82" rx="1"/>
<line x1="515.8" y1="253.7" x2="515.8" y2="265.4" stroke="#dc2626" stroke-width="1"/><rect x="513.1" y="260.3" width="5.4" height="3.7" fill="#dc2626" opacity="0.82" rx="1"/>
<line x1="524.7" y1="261.3" x2="524.7" y2="272.0" stroke="#dc2626" stroke-width="1"/><rect x="522.0" y="264.0" width="5.4" height="3.8" fill="#dc2626" opacity="0.82" rx="1"/>
<line x1="533.6" y1="261.7" x2="533.6" y2="270.9" stroke="#16a34a" stroke-width="1"/><rect x="530.9" y="263.1" width="5.4" height="4.7" fill="#16a34a" opacity="0.82" rx="1"/>
<line x1="542.4" y1="255.9" x2="542.4" y2="265.9" stroke="#dc2626" stroke-width="1"/><rect x="539.7" y="263.1" width="5.4" height="2.2" fill="#dc2626" opacity="0.82" rx="1"/>
<line x1="551.3" y1="260.4" x2="551.3" y2="270.4" stroke="#16a34a" stroke-width="1"/><rect x="548.6" y="264.8" width="5.4" height="1.2" fill="#16a34a" opacity="0.82" rx="1"/>
<line x1="560.2" y1="263.9" x2="560.2" y2="278.5" stroke="#dc2626" stroke-width="1"/><rect x="557.5" y="264.7" width="5.4" height="6.4" fill="#dc2626" opacity="0.82" rx="1"/>
<line x1="569.1" y1="270.8" x2="569.1" y2="285.1" stroke="#dc2626" stroke-width="1"/><rect x="566.4" y="271.1" width="5.4" height="11.0" fill="#dc2626" opacity="0.82" rx="1"/>
<line x1="578.0" y1="279.3" x2="578.0" y2="291.8" stroke="#dc2626" stroke-width="1"/><rect x="575.2" y="282.1" width="5.4" height="9.1" fill="#dc2626" opacity="0.82" rx="1"/>
<line x1="586.8" y1="253.7" x2="586.8" y2="295.3" stroke="#16a34a" stroke-width="1"/><rect x="584.1" y="257.7" width="5.4" height="33.5" fill="#16a34a" opacity="0.82" rx="1"/>
<line x1="595.7" y1="239.2" x2="595.7" y2="266.1" stroke="#16a34a" stroke-width="1"/><rect x="593.0" y="257.5" width="5.4" height="1.2" fill="#16a34a" opacity="0.82" rx="1"/>
<line x1="604.6" y1="255.5" x2="604.6" y2="281.4" stroke="#dc2626" stroke-width="1"/><rect x="601.9" y="257.5" width="5.4" height="14.7" fill="#dc2626" opacity="0.82" rx="1"/>
<line x1="613.5" y1="238.6" x2="613.5" y2="275.3" stroke="#16a34a" stroke-width="1"/><rect x="610.7" y="247.9" width="5.4" height="24.4" fill="#16a34a" opacity="0.82" rx="1"/>
<line x1="622.3" y1="233.3" x2="622.3" y2="257.3" stroke="#16a34a" stroke-width="1"/><rect x="619.6" y="234.8" width="5.4" height="13.1" fill="#16a34a" opacity="0.82" rx="1"/>
<line x1="631.2" y1="227.6" x2="631.2" y2="240.8" stroke="#16a34a" stroke-width="1"/><rect x="628.5" y="233.2" width="5.4" height="1.6" fill="#16a34a" opacity="0.82" rx="1"/>
<line x1="640.1" y1="190.1" x2="640.1" y2="239.1" stroke="#16a34a" stroke-width="1"/><rect x="637.4" y="190.2" width="5.4" height="43.1" fill="#16a34a" opacity="0.82" rx="1"/>
<line x1="649.0" y1="141.2" x2="649.0" y2="190.9" stroke="#16a34a" stroke-width="1"/><rect x="646.2" y="166.6" width="5.4" height="23.7" fill="#16a34a" opacity="0.82" rx="1"/>
<line x1="657.8" y1="145.3" x2="657.8" y2="193.7" stroke="#dc2626" stroke-width="1"/><rect x="655.1" y="166.6" width="5.4" height="25.2" fill="#dc2626" opacity="0.82" rx="1"/>
<line x1="666.7" y1="158.2" x2="666.7" y2="195.4" stroke="#16a34a" stroke-width="1"/><rect x="664.0" y="165.8" width="5.4" height="26.0" fill="#16a34a" opacity="0.82" rx="1"/>
<line x1="675.6" y1="129.2" x2="675.6" y2="166.4" stroke="#16a34a" stroke-width="1"/><rect x="672.9" y="140.3" width="5.4" height="25.5" fill="#16a34a" opacity="0.82" rx="1"/>
<line x1="684.5" y1="133.0" x2="684.5" y2="153.1" stroke="#dc2626" stroke-width="1"/><rect x="681.8" y="140.2" width="5.4" height="10.5" fill="#dc2626" opacity="0.82" rx="1"/>
<line x1="693.3" y1="127.7" x2="693.3" y2="166.8" stroke="#dc2626" stroke-width="1"/><rect x="690.6" y="150.7" width="5.4" height="10.0" fill="#dc2626" opacity="0.82" rx="1"/>
<line x1="702.2" y1="136.7" x2="702.2" y2="176.2" stroke="#dc2626" stroke-width="1"/><rect x="699.5" y="160.7" width="5.4" height="11.9" fill="#dc2626" opacity="0.82" rx="1"/>
<line x1="711.1" y1="144.2" x2="711.1" y2="181.3" stroke="#16a34a" stroke-width="1"/><rect x="708.4" y="148.0" width="5.4" height="24.6" fill="#16a34a" opacity="0.82" rx="1"/>
<line x1="720.0" y1="110.9" x2="720.0" y2="155.6" stroke="#16a34a" stroke-width="1"/><rect x="717.3" y="129.8" width="5.4" height="18.2" fill="#16a34a" opacity="0.82" rx="1"/>
<line x1="728.9" y1="103.1" x2="728.9" y2="132.4" stroke="#16a34a" stroke-width="1"/><rect x="726.1" y="105.3" width="5.4" height="24.5" fill="#16a34a" opacity="0.82" rx="1"/>
<line x1="737.7" y1="74.9" x2="737.7" y2="110.5" stroke="#16a34a" stroke-width="1"/><rect x="735.0" y="81.6" width="5.4" height="23.7" fill="#16a34a" opacity="0.82" rx="1"/>
<line x1="746.6" y1="57.8" x2="746.6" y2="91.9" stroke="#16a34a" stroke-width="1"/><rect x="743.9" y="72.0" width="5.4" height="9.4" fill="#16a34a" opacity="0.82" rx="1"/>
<line x1="755.5" y1="59.0" x2="755.5" y2="108.2" stroke="#dc2626" stroke-width="1"/><rect x="752.8" y="72.0" width="5.4" height="23.7" fill="#dc2626" opacity="0.82" rx="1"/>
<line x1="764.4" y1="59.2" x2="764.4" y2="105.4" stroke="#16a34a" stroke-width="1"/><rect x="761.6" y="65.7" width="5.4" height="29.9" fill="#16a34a" opacity="0.82" rx="1"/>
<line x1="773.2" y1="59.9" x2="773.2" y2="138.7" stroke="#dc2626" stroke-width="1"/><rect x="770.5" y="65.7" width="5.4" height="64.0" fill="#dc2626" opacity="0.82" rx="1"/>
<line x1="782.1" y1="119.6" x2="782.1" y2="178.5" stroke="#dc2626" stroke-width="1"/><rect x="779.4" y="129.7" width="5.4" height="29.0" fill="#dc2626" opacity="0.82" rx="1"/>
<line x1="791.0" y1="149.9" x2="791.0" y2="186.1" stroke="#dc2626" stroke-width="1"/><rect x="788.3" y="158.8" width="5.4" height="20.8" fill="#dc2626" opacity="0.82" rx="1"/>
<line x1="799.9" y1="154.8" x2="799.9" y2="182.2" stroke="#16a34a" stroke-width="1"/><rect x="797.1" y="159.2" width="5.4" height="20.3" fill="#16a34a" opacity="0.82" rx="1"/>
<line x1="808.7" y1="121.0" x2="808.7" y2="162.0" stroke="#16a34a" stroke-width="1"/><rect x="806.0" y="133.4" width="5.4" height="25.8" fill="#16a34a" opacity="0.82" rx="1"/>
<line x1="817.6" y1="132.1" x2="817.6" y2="174.7" stroke="#dc2626" stroke-width="1"/><rect x="814.9" y="133.4" width="5.4" height="38.3" fill="#dc2626" opacity="0.82" rx="1"/>
<line x1="826.5" y1="168.0" x2="826.5" y2="204.2" stroke="#dc2626" stroke-width="1"/><rect x="823.8" y="171.6" width="5.4" height="28.3" fill="#dc2626" opacity="0.82" rx="1"/>
<line x1="835.4" y1="159.9" x2="835.4" y2="202.7" stroke="#16a34a" stroke-width="1"/><rect x="832.6" y="164.4" width="5.4" height="35.6" fill="#16a34a" opacity="0.82" rx="1"/>
<line x1="844.2" y1="142.3" x2="844.2" y2="177.9" stroke="#16a34a" stroke-width="1"/><rect x="841.5" y="162.3" width="5.4" height="2.1" fill="#16a34a" opacity="0.82" rx="1"/>
<line x1="853.1" y1="152.1" x2="853.1" y2="175.5" stroke="#16a34a" stroke-width="1"/><rect x="850.4" y="153.2" width="5.4" height="9.1" fill="#16a34a" opacity="0.82" rx="1"/>
<line x1="862.0" y1="153.3" x2="862.0" y2="154.6" stroke="#dc2626" stroke-width="1"/><rect x="859.3" y="153.3" width="5.4" height="1.2" fill="#dc2626" opacity="0.82" rx="1"/>
<line x1="72" y1="213.3" x2="862" y2="213.3" stroke="#16a34a" stroke-width="1.8" stroke-dasharray="6 4" /><rect x="874" y="193.3" width="166" height="23" rx="5" fill="#ffffff" stroke="#16a34a" opacity="0.97"/><text x="881" y="209.3" fill="#16a34a" font-size="15" font-weight="700">支撑 51.17</text>
<line x1="72" y1="55.1" x2="862" y2="55.1" stroke="#dc2626" stroke-width="1.8" stroke-dasharray="6 4" /><rect x="874" y="35.1" width="166" height="23" rx="5" fill="#ffffff" stroke="#dc2626" opacity="0.97"/><text x="881" y="51.1" fill="#dc2626" font-size="15" font-weight="700">压力 76.26</text>
<line x1="72" y1="154.0" x2="862" y2="154.0" stroke="#111827" stroke-width="1.8" stroke-dasharray="2 2" /><rect x="874" y="134.0" width="166" height="23" rx="5" fill="#ffffff" stroke="#111827" opacity="0.97"/><text x="881" y="150.0" fill="#111827" font-size="15" font-weight="700">现价 60.58</text>
<text x="72" y="396" fill="#16a34a" font-size="14" font-weight="700">日线做多计划</text><rect x="72" y="404" width="790" height="48" rx="6" fill="#f9fafb" stroke="#e5e7eb"/><line x1="94" y1="412" x2="840" y2="412" stroke="#16a34a" stroke-width="3"/><circle cx="132.0" cy="412" r="5" fill="#16a34a"/><text x="132.0" y="434" fill="#374151" font-size="12" text-anchor="middle">入场 止跌/突破回踩</text><circle cx="451.2" cy="412" r="5" fill="#16a34a"/><text x="451.2" y="434" fill="#374151" font-size="12" text-anchor="middle">止损 51.17</text><circle cx="712.0" cy="412" r="5" fill="#16a34a"/><text x="712.0" y="434" fill="#374151" font-size="12" text-anchor="middle">目标一 76.26</text><circle cx="814.0" cy="412" r="5" fill="#16a34a"/><text x="814.0" y="434" fill="#374151" font-size="12" text-anchor="middle">目标二 85.67</text>
<text x="72" y="482" fill="#dc2626" font-size="14" font-weight="700">日线做空计划</text><rect x="72" y="490" width="790" height="48" rx="6" fill="#f9fafb" stroke="#e5e7eb"/><line x1="94" y1="498" x2="840" y2="498" stroke="#dc2626" stroke-width="3"/><circle cx="132.0" cy="498" r="5" fill="#dc2626"/><text x="132.0" y="520" fill="#374151" font-size="12" text-anchor="middle">入场 反弹承压/破位回抽</text><circle cx="451.2" cy="498" r="5" fill="#dc2626"/><text x="451.2" y="520" fill="#374151" font-size="12" text-anchor="middle">止损 76.26</text><circle cx="712.0" cy="498" r="5" fill="#dc2626"/><text x="712.0" y="520" fill="#374151" font-size="12" text-anchor="middle">目标一 51.17</text><circle cx="814.0" cy="498" r="5" fill="#dc2626"/><text x="814.0" y="520" fill="#374151" font-size="12" text-anchor="middle">目标二 44.89</text>
</svg>