<svg xmlns="http://www.w3.org/2000/svg" width="1080" height="560" viewBox="0 0 1080 560">
<rect width="100%" height="100%" fill="#ffffff"/>
<text x="72" y="23" fill="#111827" font-size="21" font-weight="800">HYPE 日线K线支撑压力图</text>
<text x="862" y="42" fill="#374151" font-size="15" text-anchor="end">最新价 61.16</text>
<line x1="72" y1="34" x2="72" y2="340" stroke="#d1d5db"/>
<line x1="72" y1="340" x2="862" y2="340" stroke="#d1d5db"/>
<line x1="72" y1="340.0" x2="862" y2="340.0" stroke="#f3f4f6"/>
<text x="8" y="345.0" fill="#4b5563" font-size="14">31.02</text>
<line x1="72" y1="263.5" x2="862" y2="263.5" stroke="#f3f4f6"/>
<text x="8" y="268.5" fill="#4b5563" font-size="14">43.35</text>
<line x1="72" y1="187.0" x2="862" y2="187.0" stroke="#f3f4f6"/>
<text x="8" y="192.0" fill="#4b5563" font-size="14">55.68</text>
<line x1="72" y1="110.5" x2="862" y2="110.5" stroke="#f3f4f6"/>
<text x="8" y="115.5" fill="#4b5563" font-size="14">68.01</text>
<line x1="72" y1="34.0" x2="862" y2="34.0" stroke="#f3f4f6"/>
<text x="8" y="39.0" fill="#4b5563" font-size="14">80.34</text>
<line x1="72.0" y1="270.7" x2="72.0" y2="286.4" stroke="#16a34a" stroke-width="1"/><rect x="69.3" y="276.9" width="5.4" height="2.3" fill="#16a34a" opacity="0.82" rx="1"/>
<line x1="80.9" y1="261.0" x2="80.9" y2="282.9" stroke="#16a34a" stroke-width="1"/><rect x="78.2" y="271.2" width="5.4" height="5.7" fill="#16a34a" opacity="0.82" rx="1"/>
<line x1="89.8" y1="270.2" x2="89.8" y2="292.8" stroke="#dc2626" stroke-width="1"/><rect x="87.0" y="271.2" width="5.4" height="17.2" fill="#dc2626" opacity="0.82" rx="1"/>
<line x1="98.6" y1="279.5" x2="98.6" y2="294.5" stroke="#16a34a" stroke-width="1"/><rect x="95.9" y="287.2" width="5.4" height="1.2" fill="#16a34a" opacity="0.82" rx="1"/>
<line x1="107.5" y1="281.6" x2="107.5" y2="291.2" stroke="#dc2626" stroke-width="1"/><rect x="104.8" y="287.1" width="5.4" height="2.5" fill="#dc2626" opacity="0.82" rx="1"/>
<line x1="116.4" y1="287.3" x2="116.4" y2="300.0" stroke="#dc2626" stroke-width="1"/><rect x="113.7" y="289.6" width="5.4" height="4.9" fill="#dc2626" opacity="0.82" rx="1"/>
<line x1="125.3" y1="287.1" x2="125.3" y2="304.2" stroke="#dc2626" stroke-width="1"/><rect x="122.5" y="294.5" width="5.4" height="6.1" fill="#dc2626" opacity="0.82" rx="1"/>
<line x1="134.1" y1="281.4" x2="134.1" y2="301.4" stroke="#16a34a" stroke-width="1"/><rect x="131.4" y="282.3" width="5.4" height="18.3" fill="#16a34a" opacity="0.82" rx="1"/>
<line x1="143.0" y1="274.7" x2="143.0" y2="286.4" stroke="#16a34a" stroke-width="1"/><rect x="140.3" y="282.3" width="5.4" height="1.2" fill="#16a34a" opacity="0.82" rx="1"/>
<line x1="151.9" y1="281.9" x2="151.9" y2="295.0" stroke="#dc2626" stroke-width="1"/><rect x="149.2" y="282.3" width="5.4" height="7.3" fill="#dc2626" opacity="0.82" rx="1"/>
<line x1="160.8" y1="288.0" x2="160.8" y2="297.5" stroke="#dc2626" stroke-width="1"/><rect x="158.0" y="289.5" width="5.4" height="3.1" fill="#dc2626" opacity="0.82" rx="1"/>
<line x1="169.6" y1="282.7" x2="169.6" y2="296.8" stroke="#16a34a" stroke-width="1"/><rect x="166.9" y="287.7" width="5.4" height="4.9" fill="#16a34a" opacity="0.82" rx="1"/>
<line x1="178.5" y1="284.0" x2="178.5" y2="298.4" stroke="#dc2626" stroke-width="1"/><rect x="175.8" y="287.7" width="5.4" height="10.2" fill="#dc2626" opacity="0.82" rx="1"/>
<line x1="187.4" y1="291.9" x2="187.4" y2="306.3" stroke="#dc2626" stroke-width="1"/><rect x="184.7" y="297.9" width="5.4" height="6.1" fill="#dc2626" opacity="0.82" rx="1"/>
<line x1="196.3" y1="299.0" x2="196.3" y2="311.3" stroke="#dc2626" stroke-width="1"/><rect x="193.5" y="304.0" width="5.4" height="1.4" fill="#dc2626" opacity="0.82" rx="1"/>
<line x1="205.1" y1="297.6" x2="205.1" y2="310.1" stroke="#dc2626" stroke-width="1"/><rect x="202.4" y="305.4" width="5.4" height="3.7" fill="#dc2626" opacity="0.82" rx="1"/>
<line x1="214.0" y1="307.4" x2="214.0" y2="318.9" stroke="#dc2626" stroke-width="1"/><rect x="211.3" y="309.0" width="5.4" height="5.2" fill="#dc2626" opacity="0.82" rx="1"/>
<line x1="222.9" y1="308.5" x2="222.9" y2="314.9" stroke="#16a34a" stroke-width="1"/><rect x="220.2" y="311.6" width="5.4" height="2.6" fill="#16a34a" opacity="0.82" rx="1"/>
<line x1="231.8" y1="305.7" x2="231.8" y2="312.2" stroke="#16a34a" stroke-width="1"/><rect x="229.1" y="306.9" width="5.4" height="4.7" fill="#16a34a" opacity="0.82" rx="1"/>
<line x1="240.7" y1="302.9" x2="240.7" y2="314.6" stroke="#16a34a" stroke-width="1"/><rect x="237.9" y="303.8" width="5.4" height="3.0" fill="#16a34a" opacity="0.82" rx="1"/>
<line x1="249.5" y1="298.3" x2="249.5" y2="309.4" stroke="#dc2626" stroke-width="1"/><rect x="246.8" y="303.8" width="5.4" height="3.5" fill="#dc2626" opacity="0.82" rx="1"/>
<line x1="258.4" y1="289.5" x2="258.4" y2="310.9" stroke="#16a34a" stroke-width="1"/><rect x="255.7" y="292.9" width="5.4" height="14.4" fill="#16a34a" opacity="0.82" rx="1"/>
<line x1="267.3" y1="285.6" x2="267.3" y2="298.2" stroke="#16a34a" stroke-width="1"/><rect x="264.6" y="292.0" width="5.4" height="1.2" fill="#16a34a" opacity="0.82" rx="1"/>
<line x1="276.2" y1="281.8" x2="276.2" y2="295.8" stroke="#16a34a" stroke-width="1"/><rect x="273.4" y="287.7" width="5.4" height="4.3" fill="#16a34a" opacity="0.82" rx="1"/>
<line x1="285.0" y1="270.4" x2="285.0" y2="287.9" stroke="#16a34a" stroke-width="1"/><rect x="282.3" y="274.4" width="5.4" height="13.2" fill="#16a34a" opacity="0.82" rx="1"/>
<line x1="293.9" y1="264.6" x2="293.9" y2="275.1" stroke="#16a34a" stroke-width="1"/><rect x="291.2" y="270.1" width="5.4" height="4.2" fill="#16a34a" opacity="0.82" rx="1"/>
<line x1="302.8" y1="266.8" x2="302.8" y2="283.1" stroke="#dc2626" stroke-width="1"/><rect x="300.1" y="270.1" width="5.4" height="8.9" fill="#dc2626" opacity="0.82" rx="1"/>
<line x1="311.7" y1="255.6" x2="311.7" y2="279.4" stroke="#16a34a" stroke-width="1"/><rect x="308.9" y="257.4" width="5.4" height="21.7" fill="#16a34a" opacity="0.82" rx="1"/>
<line x1="320.5" y1="251.2" x2="320.5" y2="266.2" stroke="#dc2626" stroke-width="1"/><rect x="317.8" y="257.4" width="5.4" height="4.9" fill="#dc2626" opacity="0.82" rx="1"/>
<line x1="329.4" y1="250.4" x2="329.4" y2="264.8" stroke="#16a34a" stroke-width="1"/><rect x="326.7" y="255.5" width="5.4" height="6.9" fill="#16a34a" opacity="0.82" rx="1"/>
<line x1="338.3" y1="248.5" x2="338.3" y2="263.8" stroke="#dc2626" stroke-width="1"/><rect x="335.6" y="255.5" width="5.4" height="5.1" fill="#dc2626" opacity="0.82" rx="1"/>
<line x1="347.2" y1="250.2" x2="347.2" y2="264.6" stroke="#16a34a" stroke-width="1"/><rect x="344.4" y="255.6" width="5.4" height="5.0" fill="#16a34a" opacity="0.82" rx="1"/>
<line x1="356.0" y1="250.4" x2="356.0" y2="261.2" stroke="#dc2626" stroke-width="1"/><rect x="353.3" y="255.6" width="5.4" height="5.2" fill="#dc2626" opacity="0.82" rx="1"/>
<line x1="364.9" y1="259.9" x2="364.9" y2="281.2" stroke="#dc2626" stroke-width="1"/><rect x="362.2" y="260.8" width="5.4" height="19.2" fill="#dc2626" opacity="0.82" rx="1"/>
<line x1="373.8" y1="273.2" x2="373.8" y2="280.8" stroke="#16a34a" stroke-width="1"/><rect x="371.1" y="279.9" width="5.4" height="1.2" fill="#16a34a" opacity="0.82" rx="1"/>
<line x1="382.7" y1="275.4" x2="382.7" y2="291.2" stroke="#dc2626" stroke-width="1"/><rect x="380.0" y="279.9" width="5.4" height="5.8" fill="#dc2626" opacity="0.82" rx="1"/>
<line x1="391.6" y1="273.4" x2="391.6" y2="286.6" stroke="#16a34a" stroke-width="1"/><rect x="388.8" y="277.1" width="5.4" height="8.7" fill="#16a34a" opacity="0.82" rx="1"/>
<line x1="400.4" y1="272.7" x2="400.4" y2="281.1" stroke="#16a34a" stroke-width="1"/><rect x="397.7" y="276.2" width="5.4" height="1.2" fill="#16a34a" opacity="0.82" rx="1"/>
<line x1="409.3" y1="274.7" x2="409.3" y2="280.1" stroke="#dc2626" stroke-width="1"/><rect x="406.6" y="276.1" width="5.4" height="1.2" fill="#dc2626" opacity="0.82" rx="1"/>
<line x1="418.2" y1="272.5" x2="418.2" y2="279.1" stroke="#16a34a" stroke-width="1"/><rect x="415.5" y="275.0" width="5.4" height="2.0" fill="#16a34a" opacity="0.82" rx="1"/>
<line x1="427.1" y1="268.1" x2="427.1" y2="278.4" stroke="#16a34a" stroke-width="1"/><rect x="424.3" y="269.0" width="5.4" height="5.9" fill="#16a34a" opacity="0.82" rx="1"/>
<line x1="435.9" y1="262.2" x2="435.9" y2="276.4" stroke="#dc2626" stroke-width="1"/><rect x="433.2" y="269.0" width="5.4" height="5.0" fill="#dc2626" opacity="0.82" rx="1"/>
<line x1="444.8" y1="272.9" x2="444.8" y2="288.1" stroke="#dc2626" stroke-width="1"/><rect x="442.1" y="274.1" width="5.4" height="9.2" fill="#dc2626" opacity="0.82" rx="1"/>
<line x1="453.7" y1="279.3" x2="453.7" y2="289.5" stroke="#dc2626" stroke-width="1"/><rect x="451.0" y="283.3" width="5.4" height="1.4" fill="#dc2626" opacity="0.82" rx="1"/>
<line x1="462.6" y1="282.2" x2="462.6" y2="292.3" stroke="#dc2626" stroke-width="1"/><rect x="459.8" y="284.7" width="5.4" height="1.5" fill="#dc2626" opacity="0.82" rx="1"/>
<line x1="471.4" y1="277.2" x2="471.4" y2="286.3" stroke="#16a34a" stroke-width="1"/><rect x="468.7" y="277.3" width="5.4" height="8.9" fill="#16a34a" opacity="0.82" rx="1"/>
<line x1="480.3" y1="269.1" x2="480.3" y2="278.2" stroke="#16a34a" stroke-width="1"/><rect x="477.6" y="276.5" width="5.4" height="1.2" fill="#16a34a" opacity="0.82" rx="1"/>
<line x1="489.2" y1="273.5" x2="489.2" y2="280.1" stroke="#16a34a" stroke-width="1"/><rect x="486.5" y="274.7" width="5.4" height="1.9" fill="#16a34a" opacity="0.82" rx="1"/>
<line x1="498.1" y1="268.2" x2="498.1" y2="279.2" stroke="#16a34a" stroke-width="1"/><rect x="495.3" y="273.0" width="5.4" height="1.6" fill="#16a34a" opacity="0.82" rx="1"/>
<line x1="506.9" y1="255.5" x2="506.9" y2="273.3" stroke="#16a34a" stroke-width="1"/><rect x="504.2" y="261.3" width="5.4" height="11.8" fill="#16a34a" opacity="0.82" rx="1"/>
<line x1="515.8" y1="254.8" x2="515.8" y2="266.3" stroke="#dc2626" stroke-width="1"/><rect x="513.1" y="261.3" width="5.4" height="3.6" fill="#dc2626" opacity="0.82" rx="1"/>
<line x1="524.7" y1="262.2" x2="524.7" y2="272.8" stroke="#dc2626" stroke-width="1"/><rect x="522.0" y="264.9" width="5.4" height="3.8" fill="#dc2626" opacity="0.82" rx="1"/>
<line x1="533.6" y1="262.6" x2="533.6" y2="271.6" stroke="#16a34a" stroke-width="1"/><rect x="530.9" y="264.0" width="5.4" height="4.6" fill="#16a34a" opacity="0.82" rx="1"/>
<line x1="542.4" y1="256.9" x2="542.4" y2="266.7" stroke="#dc2626" stroke-width="1"/><rect x="539.7" y="264.0" width="5.4" height="2.2" fill="#dc2626" opacity="0.82" rx="1"/>
<line x1="551.3" y1="261.3" x2="551.3" y2="271.2" stroke="#16a34a" stroke-width="1"/><rect x="548.6" y="265.6" width="5.4" height="1.2" fill="#16a34a" opacity="0.82" rx="1"/>
<line x1="560.2" y1="264.7" x2="560.2" y2="279.2" stroke="#dc2626" stroke-width="1"/><rect x="557.5" y="265.6" width="5.4" height="6.3" fill="#dc2626" opacity="0.82" rx="1"/>
<line x1="569.1" y1="271.6" x2="569.1" y2="285.7" stroke="#dc2626" stroke-width="1"/><rect x="566.4" y="271.9" width="5.4" height="10.8" fill="#dc2626" opacity="0.82" rx="1"/>
<line x1="578.0" y1="279.9" x2="578.0" y2="292.2" stroke="#dc2626" stroke-width="1"/><rect x="575.2" y="282.7" width="5.4" height="8.9" fill="#dc2626" opacity="0.82" rx="1"/>
<line x1="586.8" y1="254.8" x2="586.8" y2="295.7" stroke="#16a34a" stroke-width="1"/><rect x="584.1" y="258.6" width="5.4" height="33.0" fill="#16a34a" opacity="0.82" rx="1"/>
<line x1="595.7" y1="240.5" x2="595.7" y2="266.9" stroke="#16a34a" stroke-width="1"/><rect x="593.0" y="258.5" width="5.4" height="1.2" fill="#16a34a" opacity="0.82" rx="1"/>
<line x1="604.6" y1="256.5" x2="604.6" y2="282.0" stroke="#dc2626" stroke-width="1"/><rect x="601.9" y="258.5" width="5.4" height="14.5" fill="#dc2626" opacity="0.82" rx="1"/>
<line x1="613.5" y1="239.9" x2="613.5" y2="276.0" stroke="#16a34a" stroke-width="1"/><rect x="610.7" y="249.0" width="5.4" height="24.0" fill="#16a34a" opacity="0.82" rx="1"/>
<line x1="622.3" y1="234.7" x2="622.3" y2="258.3" stroke="#16a34a" stroke-width="1"/><rect x="619.6" y="236.1" width="5.4" height="12.9" fill="#16a34a" opacity="0.82" rx="1"/>
<line x1="631.2" y1="229.1" x2="631.2" y2="242.1" stroke="#16a34a" stroke-width="1"/><rect x="628.5" y="234.6" width="5.4" height="1.5" fill="#16a34a" opacity="0.82" rx="1"/>
<line x1="640.1" y1="192.2" x2="640.1" y2="240.4" stroke="#16a34a" stroke-width="1"/><rect x="637.4" y="192.2" width="5.4" height="42.4" fill="#16a34a" opacity="0.82" rx="1"/>
<line x1="649.0" y1="144.1" x2="649.0" y2="193.0" stroke="#16a34a" stroke-width="1"/><rect x="646.2" y="169.0" width="5.4" height="23.3" fill="#16a34a" opacity="0.82" rx="1"/>
<line x1="657.8" y1="148.0" x2="657.8" y2="195.7" stroke="#dc2626" stroke-width="1"/><rect x="655.1" y="169.0" width="5.4" height="24.8" fill="#dc2626" opacity="0.82" rx="1"/>
<line x1="666.7" y1="160.8" x2="666.7" y2="197.4" stroke="#16a34a" stroke-width="1"/><rect x="664.0" y="168.2" width="5.4" height="25.6" fill="#16a34a" opacity="0.82" rx="1"/>
<line x1="675.6" y1="132.3" x2="675.6" y2="168.8" stroke="#16a34a" stroke-width="1"/><rect x="672.9" y="143.2" width="5.4" height="25.1" fill="#16a34a" opacity="0.82" rx="1"/>
<line x1="684.5" y1="136.0" x2="684.5" y2="155.8" stroke="#dc2626" stroke-width="1"/><rect x="681.8" y="143.1" width="5.4" height="10.3" fill="#dc2626" opacity="0.82" rx="1"/>
<line x1="693.3" y1="130.8" x2="693.3" y2="169.2" stroke="#dc2626" stroke-width="1"/><rect x="690.6" y="153.4" width="5.4" height="9.9" fill="#dc2626" opacity="0.82" rx="1"/>
<line x1="702.2" y1="139.6" x2="702.2" y2="178.4" stroke="#dc2626" stroke-width="1"/><rect x="699.5" y="163.3" width="5.4" height="11.7" fill="#dc2626" opacity="0.82" rx="1"/>
<line x1="711.1" y1="147.0" x2="711.1" y2="183.5" stroke="#16a34a" stroke-width="1"/><rect x="708.4" y="150.8" width="5.4" height="24.2" fill="#16a34a" opacity="0.82" rx="1"/>
<line x1="720.0" y1="114.2" x2="720.0" y2="158.2" stroke="#16a34a" stroke-width="1"/><rect x="717.3" y="132.8" width="5.4" height="17.9" fill="#16a34a" opacity="0.82" rx="1"/>
<line x1="728.9" y1="106.6" x2="728.9" y2="135.4" stroke="#16a34a" stroke-width="1"/><rect x="726.1" y="108.8" width="5.4" height="24.1" fill="#16a34a" opacity="0.82" rx="1"/>
<line x1="737.7" y1="78.8" x2="737.7" y2="113.9" stroke="#16a34a" stroke-width="1"/><rect x="735.0" y="85.4" width="5.4" height="23.3" fill="#16a34a" opacity="0.82" rx="1"/>
<line x1="746.6" y1="62.0" x2="746.6" y2="95.6" stroke="#16a34a" stroke-width="1"/><rect x="743.9" y="75.9" width="5.4" height="9.2" fill="#16a34a" opacity="0.82" rx="1"/>
<line x1="755.5" y1="63.1" x2="755.5" y2="111.6" stroke="#dc2626" stroke-width="1"/><rect x="752.8" y="75.9" width="5.4" height="23.3" fill="#dc2626" opacity="0.82" rx="1"/>
<line x1="764.4" y1="63.4" x2="764.4" y2="108.9" stroke="#16a34a" stroke-width="1"/><rect x="761.6" y="69.8" width="5.4" height="29.4" fill="#16a34a" opacity="0.82" rx="1"/>
<line x1="773.2" y1="64.0" x2="773.2" y2="141.6" stroke="#dc2626" stroke-width="1"/><rect x="770.5" y="69.8" width="5.4" height="63.0" fill="#dc2626" opacity="0.82" rx="1"/>
<line x1="782.1" y1="122.8" x2="782.1" y2="180.7" stroke="#dc2626" stroke-width="1"/><rect x="779.4" y="132.7" width="5.4" height="28.6" fill="#dc2626" opacity="0.82" rx="1"/>
<line x1="791.0" y1="152.6" x2="791.0" y2="188.2" stroke="#dc2626" stroke-width="1"/><rect x="788.3" y="161.4" width="5.4" height="20.4" fill="#dc2626" opacity="0.82" rx="1"/>
<line x1="799.9" y1="157.5" x2="799.9" y2="184.4" stroke="#16a34a" stroke-width="1"/><rect x="797.1" y="161.8" width="5.4" height="20.0" fill="#16a34a" opacity="0.82" rx="1"/>
<line x1="808.7" y1="124.2" x2="808.7" y2="164.5" stroke="#16a34a" stroke-width="1"/><rect x="806.0" y="136.4" width="5.4" height="25.4" fill="#16a34a" opacity="0.82" rx="1"/>
<line x1="817.6" y1="135.1" x2="817.6" y2="177.0" stroke="#dc2626" stroke-width="1"/><rect x="814.9" y="136.4" width="5.4" height="37.7" fill="#dc2626" opacity="0.82" rx="1"/>
<line x1="826.5" y1="170.4" x2="826.5" y2="206.0" stroke="#dc2626" stroke-width="1"/><rect x="823.8" y="174.0" width="5.4" height="27.9" fill="#dc2626" opacity="0.82" rx="1"/>
<line x1="835.4" y1="162.4" x2="835.4" y2="204.5" stroke="#16a34a" stroke-width="1"/><rect x="832.6" y="166.8" width="5.4" height="35.0" fill="#16a34a" opacity="0.82" rx="1"/>
<line x1="844.2" y1="145.2" x2="844.2" y2="180.2" stroke="#16a34a" stroke-width="1"/><rect x="841.5" y="164.8" width="5.4" height="2.1" fill="#16a34a" opacity="0.82" rx="1"/>
<line x1="853.1" y1="154.7" x2="853.1" y2="177.8" stroke="#16a34a" stroke-width="1"/><rect x="850.4" y="155.9" width="5.4" height="8.9" fill="#16a34a" opacity="0.82" rx="1"/>
<line x1="862.0" y1="152.9" x2="862.0" y2="157.7" stroke="#16a34a" stroke-width="1"/><rect x="859.3" y="153.0" width="5.4" height="2.9" fill="#16a34a" opacity="0.82" rx="1"/>
<line x1="72" y1="211.7" x2="862" y2="211.7" stroke="#16a34a" stroke-width="1.8" stroke-dasharray="6 4" /><rect x="874" y="191.7" width="166" height="23" rx="5" fill="#ffffff" stroke="#16a34a" opacity="0.97"/><text x="881" y="207.7" fill="#16a34a" font-size="15" font-weight="700">支撑 51.69</text>
<line x1="72" y1="55.1" x2="862" y2="55.1" stroke="#dc2626" stroke-width="1.8" stroke-dasharray="6 4" /><rect x="874" y="35.1" width="166" height="23" rx="5" fill="#ffffff" stroke="#dc2626" opacity="0.97"/><text x="881" y="51.1" fill="#dc2626" font-size="15" font-weight="700">压力 76.94</text>
<line x1="72" y1="153.0" x2="862" y2="153.0" stroke="#111827" stroke-width="1.8" stroke-dasharray="2 2" /><rect x="874" y="133.0" width="166" height="23" rx="5" fill="#ffffff" stroke="#111827" opacity="0.97"/><text x="881" y="149.0" fill="#111827" font-size="15" font-weight="700">现价 61.16</text>
<text x="72" y="396" fill="#16a34a" font-size="14" font-weight="700">日线做多计划</text><rect x="72" y="404" width="790" height="48" rx="6" fill="#f9fafb" stroke="#e5e7eb"/><line x1="94" y1="412" x2="840" y2="412" stroke="#16a34a" stroke-width="3"/><circle cx="132.0" cy="412" r="5" fill="#16a34a"/><text x="132.0" y="434" fill="#374151" font-size="12" text-anchor="middle">入场 止跌/突破回踩</text><circle cx="451.2" cy="412" r="5" fill="#16a34a"/><text x="451.2" y="434" fill="#374151" font-size="12" text-anchor="middle">止损 51.69</text><circle cx="712.0" cy="412" r="5" fill="#16a34a"/><text x="712.0" y="434" fill="#374151" font-size="12" text-anchor="middle">目标一 76.94</text><circle cx="814.0" cy="412" r="5" fill="#16a34a"/><text x="814.0" y="434" fill="#374151" font-size="12" text-anchor="middle">目标二 86.41</text>
<text x="72" y="482" fill="#dc2626" font-size="14" font-weight="700">日线做空计划</text><rect x="72" y="490" width="790" height="48" rx="6" fill="#f9fafb" stroke="#e5e7eb"/><line x1="94" y1="498" x2="840" y2="498" stroke="#dc2626" stroke-width="3"/><circle cx="132.0" cy="498" r="5" fill="#dc2626"/><text x="132.0" y="520" fill="#374151" font-size="12" text-anchor="middle">入场 反弹承压/破位回抽</text><circle cx="451.2" cy="498" r="5" fill="#dc2626"/><text x="451.2" y="520" fill="#374151" font-size="12" text-anchor="middle">止损 76.94</text><circle cx="712.0" cy="498" r="5" fill="#dc2626"/><text x="712.0" y="520" fill="#374151" font-size="12" text-anchor="middle">目标一 51.69</text><circle cx="814.0" cy="498" r="5" fill="#dc2626"/><text x="814.0" y="520" fill="#374151" font-size="12" text-anchor="middle">目标二 45.38</text>
</svg>