<svg xmlns="http://www.w3.org/2000/svg" width="1080" height="560" viewBox="0 0 1080 560">
<rect width="100%" height="100%" fill="#ffffff"/>
<text x="72" y="23" fill="#111827" font-size="21" font-weight="800">DRAM 小时线K线支撑压力图</text>
<text x="862" y="42" fill="#374151" font-size="15" text-anchor="end">最新价 66.13</text>
<line x1="72" y1="34" x2="72" y2="340" stroke="#d1d5db"/>
<line x1="72" y1="340" x2="862" y2="340" stroke="#d1d5db"/>
<line x1="72" y1="340.0" x2="862" y2="340.0" stroke="#f3f4f6"/>
<text x="8" y="345.0" fill="#4b5563" font-size="14">54.67</text>
<line x1="72" y1="263.5" x2="862" y2="263.5" stroke="#f3f4f6"/>
<text x="8" y="268.5" fill="#4b5563" font-size="14">58.00</text>
<line x1="72" y1="187.0" x2="862" y2="187.0" stroke="#f3f4f6"/>
<text x="8" y="192.0" fill="#4b5563" font-size="14">61.32</text>
<line x1="72" y1="110.5" x2="862" y2="110.5" stroke="#f3f4f6"/>
<text x="8" y="115.5" fill="#4b5563" font-size="14">64.65</text>
<line x1="72" y1="34.0" x2="862" y2="34.0" stroke="#f3f4f6"/>
<text x="8" y="39.0" fill="#4b5563" font-size="14">67.98</text>
<line x1="72.0" y1="258.9" x2="72.0" y2="277.3" stroke="#dc2626" stroke-width="1"/><rect x="69.3" y="263.9" width="5.4" height="1.2" fill="#dc2626" opacity="0.82" rx="1"/>
<line x1="80.9" y1="258.2" x2="80.9" y2="274.5" stroke="#16a34a" stroke-width="1"/><rect x="78.2" y="260.9" width="5.4" height="3.7" fill="#16a34a" opacity="0.82" rx="1"/>
<line x1="89.8" y1="258.6" x2="89.8" y2="294.1" stroke="#dc2626" stroke-width="1"/><rect x="87.0" y="260.9" width="5.4" height="27.6" fill="#dc2626" opacity="0.82" rx="1"/>
<line x1="98.6" y1="212.9" x2="98.6" y2="290.8" stroke="#16a34a" stroke-width="1"/><rect x="95.9" y="257.0" width="5.4" height="31.5" fill="#16a34a" opacity="0.82" rx="1"/>
<line x1="107.5" y1="205.0" x2="107.5" y2="268.3" stroke="#16a34a" stroke-width="1"/><rect x="104.8" y="233.8" width="5.4" height="23.2" fill="#16a34a" opacity="0.82" rx="1"/>
<line x1="116.4" y1="182.0" x2="116.4" y2="241.8" stroke="#16a34a" stroke-width="1"/><rect x="113.7" y="231.7" width="5.4" height="1.6" fill="#16a34a" opacity="0.82" rx="1"/>
<line x1="125.3" y1="223.4" x2="125.3" y2="275.0" stroke="#dc2626" stroke-width="1"/><rect x="122.5" y="231.5" width="5.4" height="15.0" fill="#dc2626" opacity="0.82" rx="1"/>
<line x1="134.1" y1="242.5" x2="134.1" y2="265.5" stroke="#dc2626" stroke-width="1"/><rect x="131.4" y="246.2" width="5.4" height="11.5" fill="#dc2626" opacity="0.82" rx="1"/>
<line x1="143.0" y1="251.3" x2="143.0" y2="273.8" stroke="#16a34a" stroke-width="1"/><rect x="140.3" y="255.4" width="5.4" height="2.8" fill="#16a34a" opacity="0.82" rx="1"/>
<line x1="151.9" y1="246.2" x2="151.9" y2="272.7" stroke="#dc2626" stroke-width="1"/><rect x="149.2" y="255.0" width="5.4" height="12.2" fill="#dc2626" opacity="0.82" rx="1"/>
<line x1="160.8" y1="261.6" x2="160.8" y2="283.9" stroke="#dc2626" stroke-width="1"/><rect x="158.0" y="267.1" width="5.4" height="10.4" fill="#dc2626" opacity="0.82" rx="1"/>
<line x1="169.6" y1="273.8" x2="169.6" y2="297.0" stroke="#dc2626" stroke-width="1"/><rect x="166.9" y="277.7" width="5.4" height="11.0" fill="#dc2626" opacity="0.82" rx="1"/>
<line x1="178.5" y1="285.5" x2="178.5" y2="295.7" stroke="#dc2626" stroke-width="1"/><rect x="175.8" y="288.5" width="5.4" height="5.1" fill="#dc2626" opacity="0.82" rx="1"/>
<line x1="187.4" y1="292.2" x2="187.4" y2="312.2" stroke="#dc2626" stroke-width="1"/><rect x="184.7" y="293.1" width="5.4" height="17.7" fill="#dc2626" opacity="0.82" rx="1"/>
<line x1="196.3" y1="291.5" x2="196.3" y2="318.9" stroke="#16a34a" stroke-width="1"/><rect x="193.5" y="299.3" width="5.4" height="11.5" fill="#16a34a" opacity="0.82" rx="1"/>
<line x1="205.1" y1="242.3" x2="205.1" y2="305.1" stroke="#16a34a" stroke-width="1"/><rect x="202.4" y="242.8" width="5.4" height="55.9" fill="#16a34a" opacity="0.82" rx="1"/>
<line x1="214.0" y1="208.9" x2="214.0" y2="243.5" stroke="#16a34a" stroke-width="1"/><rect x="211.3" y="240.9" width="5.4" height="1.6" fill="#16a34a" opacity="0.82" rx="1"/>
<line x1="222.9" y1="232.0" x2="222.9" y2="267.1" stroke="#dc2626" stroke-width="1"/><rect x="220.2" y="240.9" width="5.4" height="8.5" fill="#dc2626" opacity="0.82" rx="1"/>
<line x1="231.8" y1="229.2" x2="231.8" y2="260.9" stroke="#16a34a" stroke-width="1"/><rect x="229.1" y="230.1" width="5.4" height="19.3" fill="#16a34a" opacity="0.82" rx="1"/>
<line x1="240.7" y1="226.4" x2="240.7" y2="244.6" stroke="#dc2626" stroke-width="1"/><rect x="237.9" y="229.9" width="5.4" height="1.2" fill="#dc2626" opacity="0.82" rx="1"/>
<line x1="249.5" y1="230.6" x2="249.5" y2="244.4" stroke="#dc2626" stroke-width="1"/><rect x="246.8" y="231.0" width="5.4" height="8.3" fill="#dc2626" opacity="0.82" rx="1"/>
<line x1="258.4" y1="231.7" x2="258.4" y2="246.0" stroke="#16a34a" stroke-width="1"/><rect x="255.7" y="233.6" width="5.4" height="6.0" fill="#16a34a" opacity="0.82" rx="1"/>
<line x1="267.3" y1="222.1" x2="267.3" y2="237.9" stroke="#16a34a" stroke-width="1"/><rect x="264.6" y="225.3" width="5.4" height="8.3" fill="#16a34a" opacity="0.82" rx="1"/>
<line x1="276.2" y1="205.7" x2="276.2" y2="225.1" stroke="#16a34a" stroke-width="1"/><rect x="273.4" y="213.1" width="5.4" height="12.0" fill="#16a34a" opacity="0.82" rx="1"/>
<line x1="285.0" y1="206.2" x2="285.0" y2="223.2" stroke="#dc2626" stroke-width="1"/><rect x="282.3" y="213.3" width="5.4" height="3.2" fill="#dc2626" opacity="0.82" rx="1"/>
<line x1="293.9" y1="206.9" x2="293.9" y2="217.0" stroke="#16a34a" stroke-width="1"/><rect x="291.2" y="215.6" width="5.4" height="1.2" fill="#16a34a" opacity="0.82" rx="1"/>
<line x1="302.8" y1="212.9" x2="302.8" y2="222.1" stroke="#16a34a" stroke-width="1"/><rect x="300.1" y="215.6" width="5.4" height="1.2" fill="#16a34a" opacity="0.82" rx="1"/>
<line x1="311.7" y1="212.6" x2="311.7" y2="250.8" stroke="#dc2626" stroke-width="1"/><rect x="308.9" y="215.4" width="5.4" height="14.0" fill="#dc2626" opacity="0.82" rx="1"/>
<line x1="320.5" y1="196.3" x2="320.5" y2="235.2" stroke="#16a34a" stroke-width="1"/><rect x="317.8" y="210.1" width="5.4" height="18.9" fill="#16a34a" opacity="0.82" rx="1"/>
<line x1="329.4" y1="188.5" x2="329.4" y2="230.6" stroke="#dc2626" stroke-width="1"/><rect x="326.7" y="210.3" width="5.4" height="16.6" fill="#dc2626" opacity="0.82" rx="1"/>
<line x1="338.3" y1="194.5" x2="338.3" y2="233.6" stroke="#16a34a" stroke-width="1"/><rect x="335.6" y="196.3" width="5.4" height="30.1" fill="#16a34a" opacity="0.82" rx="1"/>
<line x1="347.2" y1="184.8" x2="347.2" y2="203.0" stroke="#dc2626" stroke-width="1"/><rect x="344.4" y="196.5" width="5.4" height="6.4" fill="#dc2626" opacity="0.82" rx="1"/>
<line x1="356.0" y1="145.7" x2="356.0" y2="208.9" stroke="#16a34a" stroke-width="1"/><rect x="353.3" y="148.7" width="5.4" height="54.3" fill="#16a34a" opacity="0.82" rx="1"/>
<line x1="364.9" y1="130.5" x2="364.9" y2="167.3" stroke="#16a34a" stroke-width="1"/><rect x="362.2" y="132.6" width="5.4" height="16.6" fill="#16a34a" opacity="0.82" rx="1"/>
<line x1="373.8" y1="89.1" x2="373.8" y2="138.1" stroke="#16a34a" stroke-width="1"/><rect x="371.1" y="99.5" width="5.4" height="33.4" fill="#16a34a" opacity="0.82" rx="1"/>
<line x1="382.7" y1="96.7" x2="382.7" y2="117.2" stroke="#dc2626" stroke-width="1"/><rect x="380.0" y="99.5" width="5.4" height="11.0" fill="#dc2626" opacity="0.82" rx="1"/>
<line x1="391.6" y1="95.1" x2="391.6" y2="111.0" stroke="#16a34a" stroke-width="1"/><rect x="388.8" y="99.7" width="5.4" height="10.8" fill="#16a34a" opacity="0.82" rx="1"/>
<line x1="400.4" y1="68.0" x2="400.4" y2="102.0" stroke="#16a34a" stroke-width="1"/><rect x="397.7" y="75.8" width="5.4" height="24.4" fill="#16a34a" opacity="0.82" rx="1"/>
<line x1="409.3" y1="63.6" x2="409.3" y2="100.2" stroke="#dc2626" stroke-width="1"/><rect x="406.6" y="75.8" width="5.4" height="3.2" fill="#dc2626" opacity="0.82" rx="1"/>
<line x1="418.2" y1="79.2" x2="418.2" y2="99.2" stroke="#dc2626" stroke-width="1"/><rect x="415.5" y="79.2" width="5.4" height="9.9" fill="#dc2626" opacity="0.82" rx="1"/>
<line x1="427.1" y1="89.1" x2="427.1" y2="120.9" stroke="#dc2626" stroke-width="1"/><rect x="424.3" y="89.1" width="5.4" height="12.2" fill="#dc2626" opacity="0.82" rx="1"/>
<line x1="435.9" y1="96.0" x2="435.9" y2="110.0" stroke="#16a34a" stroke-width="1"/><rect x="433.2" y="97.9" width="5.4" height="3.2" fill="#16a34a" opacity="0.82" rx="1"/>
<line x1="444.8" y1="93.5" x2="444.8" y2="102.7" stroke="#16a34a" stroke-width="1"/><rect x="442.1" y="96.2" width="5.4" height="1.4" fill="#16a34a" opacity="0.82" rx="1"/>
<line x1="453.7" y1="85.4" x2="453.7" y2="102.9" stroke="#16a34a" stroke-width="1"/><rect x="451.0" y="88.0" width="5.4" height="8.1" fill="#16a34a" opacity="0.82" rx="1"/>
<line x1="462.6" y1="86.6" x2="462.6" y2="147.8" stroke="#dc2626" stroke-width="1"/><rect x="459.8" y="88.2" width="5.4" height="53.1" fill="#dc2626" opacity="0.82" rx="1"/>
<line x1="471.4" y1="126.8" x2="471.4" y2="161.6" stroke="#dc2626" stroke-width="1"/><rect x="468.7" y="141.1" width="5.4" height="6.7" fill="#dc2626" opacity="0.82" rx="1"/>
<line x1="480.3" y1="143.2" x2="480.3" y2="165.5" stroke="#16a34a" stroke-width="1"/><rect x="477.6" y="143.4" width="5.4" height="4.1" fill="#16a34a" opacity="0.82" rx="1"/>
<line x1="489.2" y1="114.2" x2="489.2" y2="149.1" stroke="#16a34a" stroke-width="1"/><rect x="486.5" y="131.9" width="5.4" height="11.3" fill="#16a34a" opacity="0.82" rx="1"/>
<line x1="498.1" y1="112.6" x2="498.1" y2="133.3" stroke="#16a34a" stroke-width="1"/><rect x="495.3" y="116.9" width="5.4" height="15.2" fill="#16a34a" opacity="0.82" rx="1"/>
<line x1="506.9" y1="111.9" x2="506.9" y2="136.5" stroke="#dc2626" stroke-width="1"/><rect x="504.2" y="117.2" width="5.4" height="10.8" fill="#dc2626" opacity="0.82" rx="1"/>
<line x1="515.8" y1="112.6" x2="515.8" y2="127.8" stroke="#16a34a" stroke-width="1"/><rect x="513.1" y="123.8" width="5.4" height="3.9" fill="#16a34a" opacity="0.82" rx="1"/>
<line x1="524.7" y1="122.9" x2="524.7" y2="151.9" stroke="#dc2626" stroke-width="1"/><rect x="522.0" y="123.8" width="5.4" height="24.4" fill="#dc2626" opacity="0.82" rx="1"/>
<line x1="533.6" y1="104.1" x2="533.6" y2="155.1" stroke="#16a34a" stroke-width="1"/><rect x="530.9" y="113.5" width="5.4" height="34.0" fill="#16a34a" opacity="0.82" rx="1"/>
<line x1="542.4" y1="81.1" x2="542.4" y2="124.8" stroke="#16a34a" stroke-width="1"/><rect x="539.7" y="98.5" width="5.4" height="14.7" fill="#16a34a" opacity="0.82" rx="1"/>
<line x1="551.3" y1="83.1" x2="551.3" y2="119.7" stroke="#dc2626" stroke-width="1"/><rect x="548.6" y="98.1" width="5.4" height="19.1" fill="#dc2626" opacity="0.82" rx="1"/>
<line x1="560.2" y1="82.0" x2="560.2" y2="118.6" stroke="#16a34a" stroke-width="1"/><rect x="557.5" y="84.3" width="5.4" height="32.9" fill="#16a34a" opacity="0.82" rx="1"/>
<line x1="569.1" y1="75.3" x2="569.1" y2="89.6" stroke="#dc2626" stroke-width="1"/><rect x="566.4" y="84.1" width="5.4" height="1.2" fill="#dc2626" opacity="0.82" rx="1"/>
<line x1="578.0" y1="77.2" x2="578.0" y2="91.9" stroke="#dc2626" stroke-width="1"/><rect x="575.2" y="84.3" width="5.4" height="3.9" fill="#dc2626" opacity="0.82" rx="1"/>
<line x1="586.8" y1="82.0" x2="586.8" y2="100.4" stroke="#dc2626" stroke-width="1"/><rect x="584.1" y="88.7" width="5.4" height="11.7" fill="#dc2626" opacity="0.82" rx="1"/>
<line x1="595.7" y1="90.0" x2="595.7" y2="105.7" stroke="#16a34a" stroke-width="1"/><rect x="593.0" y="99.7" width="5.4" height="1.2" fill="#16a34a" opacity="0.82" rx="1"/>
<line x1="604.6" y1="93.7" x2="604.6" y2="101.8" stroke="#16a34a" stroke-width="1"/><rect x="601.9" y="95.3" width="5.4" height="3.9" fill="#16a34a" opacity="0.82" rx="1"/>
<line x1="613.5" y1="93.7" x2="613.5" y2="98.5" stroke="#16a34a" stroke-width="1"/><rect x="610.7" y="94.4" width="5.4" height="1.4" fill="#16a34a" opacity="0.82" rx="1"/>
<line x1="622.3" y1="83.4" x2="622.3" y2="94.9" stroke="#16a34a" stroke-width="1"/><rect x="619.6" y="87.7" width="5.4" height="6.7" fill="#16a34a" opacity="0.82" rx="1"/>
<line x1="631.2" y1="85.2" x2="631.2" y2="95.8" stroke="#dc2626" stroke-width="1"/><rect x="628.5" y="87.3" width="5.4" height="7.6" fill="#dc2626" opacity="0.82" rx="1"/>
<line x1="640.1" y1="91.2" x2="640.1" y2="113.0" stroke="#dc2626" stroke-width="1"/><rect x="637.4" y="95.1" width="5.4" height="6.4" fill="#dc2626" opacity="0.82" rx="1"/>
<line x1="649.0" y1="86.8" x2="649.0" y2="101.3" stroke="#16a34a" stroke-width="1"/><rect x="646.2" y="97.2" width="5.4" height="4.1" fill="#16a34a" opacity="0.82" rx="1"/>
<line x1="657.8" y1="92.8" x2="657.8" y2="106.6" stroke="#dc2626" stroke-width="1"/><rect x="655.1" y="97.2" width="5.4" height="5.5" fill="#dc2626" opacity="0.82" rx="1"/>
<line x1="666.7" y1="98.5" x2="666.7" y2="110.3" stroke="#dc2626" stroke-width="1"/><rect x="664.0" y="102.5" width="5.4" height="4.1" fill="#dc2626" opacity="0.82" rx="1"/>
<line x1="675.6" y1="104.1" x2="675.6" y2="111.7" stroke="#dc2626" stroke-width="1"/><rect x="672.9" y="106.8" width="5.4" height="1.2" fill="#dc2626" opacity="0.82" rx="1"/>
<line x1="684.5" y1="103.1" x2="684.5" y2="110.5" stroke="#dc2626" stroke-width="1"/><rect x="681.8" y="107.5" width="5.4" height="1.2" fill="#dc2626" opacity="0.82" rx="1"/>
<line x1="693.3" y1="107.7" x2="693.3" y2="113.7" stroke="#dc2626" stroke-width="1"/><rect x="690.6" y="109.1" width="5.4" height="2.5" fill="#dc2626" opacity="0.82" rx="1"/>
<line x1="702.2" y1="106.4" x2="702.2" y2="113.3" stroke="#16a34a" stroke-width="1"/><rect x="699.5" y="108.2" width="5.4" height="3.7" fill="#16a34a" opacity="0.82" rx="1"/>
<line x1="711.1" y1="107.3" x2="711.1" y2="128.0" stroke="#dc2626" stroke-width="1"/><rect x="708.4" y="108.4" width="5.4" height="9.0" fill="#dc2626" opacity="0.82" rx="1"/>
<line x1="720.0" y1="113.5" x2="720.0" y2="118.6" stroke="#16a34a" stroke-width="1"/><rect x="717.3" y="114.9" width="5.4" height="2.8" fill="#16a34a" opacity="0.82" rx="1"/>
<line x1="728.9" y1="110.0" x2="728.9" y2="117.2" stroke="#16a34a" stroke-width="1"/><rect x="726.1" y="112.1" width="5.4" height="3.0" fill="#16a34a" opacity="0.82" rx="1"/>
<line x1="737.7" y1="98.8" x2="737.7" y2="112.3" stroke="#16a34a" stroke-width="1"/><rect x="735.0" y="100.2" width="5.4" height="12.0" fill="#16a34a" opacity="0.82" rx="1"/>
<line x1="746.6" y1="98.8" x2="746.6" y2="108.7" stroke="#dc2626" stroke-width="1"/><rect x="743.9" y="99.9" width="5.4" height="6.9" fill="#dc2626" opacity="0.82" rx="1"/>
<line x1="755.5" y1="103.8" x2="755.5" y2="110.5" stroke="#16a34a" stroke-width="1"/><rect x="752.8" y="104.5" width="5.4" height="2.1" fill="#16a34a" opacity="0.82" rx="1"/>
<line x1="764.4" y1="89.8" x2="764.4" y2="105.9" stroke="#16a34a" stroke-width="1"/><rect x="761.6" y="91.9" width="5.4" height="12.7" fill="#16a34a" opacity="0.82" rx="1"/>
<line x1="773.2" y1="85.2" x2="773.2" y2="102.0" stroke="#dc2626" stroke-width="1"/><rect x="770.5" y="91.4" width="5.4" height="4.6" fill="#dc2626" opacity="0.82" rx="1"/>
<line x1="782.1" y1="91.6" x2="782.1" y2="101.1" stroke="#16a34a" stroke-width="1"/><rect x="779.4" y="93.9" width="5.4" height="2.1" fill="#16a34a" opacity="0.82" rx="1"/>
<line x1="791.0" y1="80.8" x2="791.0" y2="94.2" stroke="#16a34a" stroke-width="1"/><rect x="788.3" y="83.1" width="5.4" height="10.8" fill="#16a34a" opacity="0.82" rx="1"/>
<line x1="799.9" y1="80.6" x2="799.9" y2="85.0" stroke="#16a34a" stroke-width="1"/><rect x="797.1" y="81.3" width="5.4" height="2.1" fill="#16a34a" opacity="0.82" rx="1"/>
<line x1="808.7" y1="80.6" x2="808.7" y2="85.0" stroke="#dc2626" stroke-width="1"/><rect x="806.0" y="81.3" width="5.4" height="2.5" fill="#dc2626" opacity="0.82" rx="1"/>
<line x1="817.6" y1="80.1" x2="817.6" y2="86.1" stroke="#16a34a" stroke-width="1"/><rect x="814.9" y="81.3" width="5.4" height="2.3" fill="#16a34a" opacity="0.82" rx="1"/>
<line x1="826.5" y1="79.9" x2="826.5" y2="86.8" stroke="#16a34a" stroke-width="1"/><rect x="823.8" y="81.8" width="5.4" height="1.2" fill="#16a34a" opacity="0.82" rx="1"/>
<line x1="835.4" y1="80.1" x2="835.4" y2="85.2" stroke="#dc2626" stroke-width="1"/><rect x="832.6" y="82.2" width="5.4" height="2.5" fill="#dc2626" opacity="0.82" rx="1"/>
<line x1="844.2" y1="80.1" x2="844.2" y2="89.3" stroke="#16a34a" stroke-width="1"/><rect x="841.5" y="80.8" width="5.4" height="3.7" fill="#16a34a" opacity="0.82" rx="1"/>
<line x1="853.1" y1="74.4" x2="853.1" y2="81.5" stroke="#16a34a" stroke-width="1"/><rect x="850.4" y="76.0" width="5.4" height="4.6" fill="#16a34a" opacity="0.82" rx="1"/>
<line x1="862.0" y1="74.9" x2="862.0" y2="79.2" stroke="#dc2626" stroke-width="1"/><rect x="859.3" y="76.2" width="5.4" height="1.2" fill="#dc2626" opacity="0.82" rx="1"/>
<line x1="72" y1="89.3" x2="862" y2="89.3" stroke="#16a34a" stroke-width="1.8" stroke-dasharray="6 4" /><rect x="874" y="69.3" width="166" height="23" rx="5" fill="#ffffff" stroke="#16a34a" opacity="0.97"/><text x="881" y="85.3" fill="#16a34a" font-size="15" font-weight="700">日内支撑 65.57</text>
<line x1="72" y1="55.1" x2="862" y2="55.1" stroke="#dc2626" stroke-width="1.8" stroke-dasharray="6 4" /><rect x="874" y="35.1" width="166" height="23" rx="5" fill="#ffffff" stroke="#dc2626" opacity="0.97"/><text x="881" y="51.1" fill="#dc2626" font-size="15" font-weight="700">日内压力 67.06</text>
<line x1="72" y1="76.5" x2="862" y2="76.5" stroke="#111827" stroke-width="1.8" stroke-dasharray="2 2" /><rect x="874" y="56.5" width="166" height="23" rx="5" fill="#ffffff" stroke="#111827" opacity="0.97"/><text x="881" y="72.5" fill="#111827" font-size="15" font-weight="700">现价 66.13</text>
<text x="72" y="396" fill="#16a34a" font-size="14" font-weight="700">日内做多计划</text><rect x="72" y="404" width="790" height="48" rx="6" fill="#f9fafb" stroke="#e5e7eb"/><line x1="94" y1="412" x2="840" y2="412" stroke="#16a34a" stroke-width="3"/><circle cx="132.0" cy="412" r="5" fill="#16a34a"/><text x="132.0" y="434" fill="#374151" font-size="12" text-anchor="middle">入场 止跌/突破回踩</text><circle cx="451.2" cy="412" r="5" fill="#16a34a"/><text x="451.2" y="434" fill="#374151" font-size="12" text-anchor="middle">止损 65.57</text><circle cx="712.0" cy="412" r="5" fill="#16a34a"/><text x="712.0" y="434" fill="#374151" font-size="12" text-anchor="middle">目标一 67.06</text><circle cx="814.0" cy="412" r="5" fill="#16a34a"/><text x="814.0" y="434" fill="#374151" font-size="12" text-anchor="middle">目标二 67.43</text>
<text x="72" y="482" fill="#dc2626" font-size="14" font-weight="700">日内做空计划</text><rect x="72" y="490" width="790" height="48" rx="6" fill="#f9fafb" stroke="#e5e7eb"/><line x1="94" y1="498" x2="840" y2="498" stroke="#dc2626" stroke-width="3"/><circle cx="132.0" cy="498" r="5" fill="#dc2626"/><text x="132.0" y="520" fill="#374151" font-size="12" text-anchor="middle">入场 反弹承压/破位回抽</text><circle cx="451.2" cy="498" r="5" fill="#dc2626"/><text x="451.2" y="520" fill="#374151" font-size="12" text-anchor="middle">止损 67.06</text><circle cx="712.0" cy="498" r="5" fill="#dc2626"/><text x="712.0" y="520" fill="#374151" font-size="12" text-anchor="middle">目标一 65.57</text><circle cx="814.0" cy="498" r="5" fill="#dc2626"/><text x="814.0" y="520" fill="#374151" font-size="12" text-anchor="middle">目标二 65.20</text>
</svg>