<svg xmlns="http://www.w3.org/2000/svg" width="1080" height="560" viewBox="0 0 1080 560">
<rect width="100%" height="100%" fill="#ffffff"/>
<text x="72" y="23" fill="#111827" font-size="21" font-weight="800">DRAM 小时线K线支撑压力图</text>
<text x="862" y="42" fill="#374151" font-size="15" text-anchor="end">最新价 77.83</text>
<line x1="72" y1="34" x2="72" y2="340" stroke="#d1d5db"/>
<line x1="72" y1="340" x2="862" y2="340" stroke="#d1d5db"/>
<line x1="72" y1="340.0" x2="862" y2="340.0" stroke="#f3f4f6"/>
<text x="8" y="345.0" fill="#4b5563" font-size="14">66.84</text>
<line x1="72" y1="263.5" x2="862" y2="263.5" stroke="#f3f4f6"/>
<text x="8" y="268.5" fill="#4b5563" font-size="14">70.24</text>
<line x1="72" y1="187.0" x2="862" y2="187.0" stroke="#f3f4f6"/>
<text x="8" y="192.0" fill="#4b5563" font-size="14">73.64</text>
<line x1="72" y1="110.5" x2="862" y2="110.5" stroke="#f3f4f6"/>
<text x="8" y="115.5" fill="#4b5563" font-size="14">77.05</text>
<line x1="72" y1="34.0" x2="862" y2="34.0" stroke="#f3f4f6"/>
<text x="8" y="39.0" fill="#4b5563" font-size="14">80.45</text>
<line x1="72.0" y1="245.1" x2="72.0" y2="250.5" stroke="#dc2626" stroke-width="1"/><rect x="69.3" y="248.7" width="5.4" height="1.2" fill="#dc2626" opacity="0.82" rx="1"/>
<line x1="80.9" y1="207.6" x2="80.9" y2="249.2" stroke="#16a34a" stroke-width="1"/><rect x="78.2" y="210.5" width="5.4" height="38.2" fill="#16a34a" opacity="0.82" rx="1"/>
<line x1="89.8" y1="204.0" x2="89.8" y2="219.3" stroke="#dc2626" stroke-width="1"/><rect x="87.0" y="210.9" width="5.4" height="5.4" fill="#dc2626" opacity="0.82" rx="1"/>
<line x1="98.6" y1="207.3" x2="98.6" y2="221.7" stroke="#16a34a" stroke-width="1"/><rect x="95.9" y="208.2" width="5.4" height="8.8" fill="#16a34a" opacity="0.82" rx="1"/>
<line x1="107.5" y1="199.7" x2="107.5" y2="212.5" stroke="#16a34a" stroke-width="1"/><rect x="104.8" y="205.8" width="5.4" height="2.9" fill="#16a34a" opacity="0.82" rx="1"/>
<line x1="116.4" y1="202.8" x2="116.4" y2="235.2" stroke="#dc2626" stroke-width="1"/><rect x="113.7" y="206.0" width="5.4" height="23.2" fill="#dc2626" opacity="0.82" rx="1"/>
<line x1="125.3" y1="208.5" x2="125.3" y2="242.7" stroke="#16a34a" stroke-width="1"/><rect x="122.5" y="228.5" width="5.4" height="1.2" fill="#16a34a" opacity="0.82" rx="1"/>
<line x1="134.1" y1="225.8" x2="134.1" y2="280.9" stroke="#dc2626" stroke-width="1"/><rect x="131.4" y="228.5" width="5.4" height="46.8" fill="#dc2626" opacity="0.82" rx="1"/>
<line x1="143.0" y1="263.1" x2="143.0" y2="318.9" stroke="#dc2626" stroke-width="1"/><rect x="140.3" y="275.3" width="5.4" height="20.7" fill="#dc2626" opacity="0.82" rx="1"/>
<line x1="151.9" y1="271.4" x2="151.9" y2="296.6" stroke="#16a34a" stroke-width="1"/><rect x="149.2" y="284.0" width="5.4" height="12.4" fill="#16a34a" opacity="0.82" rx="1"/>
<line x1="160.8" y1="278.0" x2="160.8" y2="298.9" stroke="#16a34a" stroke-width="1"/><rect x="158.0" y="283.8" width="5.4" height="1.2" fill="#16a34a" opacity="0.82" rx="1"/>
<line x1="169.6" y1="279.5" x2="169.6" y2="305.4" stroke="#dc2626" stroke-width="1"/><rect x="166.9" y="284.0" width="5.4" height="17.5" fill="#dc2626" opacity="0.82" rx="1"/>
<line x1="178.5" y1="291.5" x2="178.5" y2="313.5" stroke="#dc2626" stroke-width="1"/><rect x="175.8" y="301.6" width="5.4" height="10.6" fill="#dc2626" opacity="0.82" rx="1"/>
<line x1="187.4" y1="277.1" x2="187.4" y2="312.8" stroke="#16a34a" stroke-width="1"/><rect x="184.7" y="308.1" width="5.4" height="4.3" fill="#16a34a" opacity="0.82" rx="1"/>
<line x1="196.3" y1="297.3" x2="196.3" y2="308.6" stroke="#16a34a" stroke-width="1"/><rect x="193.5" y="303.2" width="5.4" height="4.9" fill="#16a34a" opacity="0.82" rx="1"/>
<line x1="205.1" y1="287.0" x2="205.1" y2="308.3" stroke="#16a34a" stroke-width="1"/><rect x="202.4" y="288.5" width="5.4" height="14.2" fill="#16a34a" opacity="0.82" rx="1"/>
<line x1="214.0" y1="276.6" x2="214.0" y2="299.8" stroke="#dc2626" stroke-width="1"/><rect x="211.3" y="288.8" width="5.4" height="5.2" fill="#dc2626" opacity="0.82" rx="1"/>
<line x1="222.9" y1="262.7" x2="222.9" y2="294.6" stroke="#16a34a" stroke-width="1"/><rect x="220.2" y="272.3" width="5.4" height="21.6" fill="#16a34a" opacity="0.82" rx="1"/>
<line x1="231.8" y1="263.8" x2="231.8" y2="277.5" stroke="#16a34a" stroke-width="1"/><rect x="229.1" y="264.7" width="5.4" height="7.9" fill="#16a34a" opacity="0.82" rx="1"/>
<line x1="240.7" y1="257.9" x2="240.7" y2="268.7" stroke="#16a34a" stroke-width="1"/><rect x="237.9" y="262.0" width="5.4" height="3.1" fill="#16a34a" opacity="0.82" rx="1"/>
<line x1="249.5" y1="261.1" x2="249.5" y2="271.4" stroke="#dc2626" stroke-width="1"/><rect x="246.8" y="261.8" width="5.4" height="2.7" fill="#dc2626" opacity="0.82" rx="1"/>
<line x1="258.4" y1="235.5" x2="258.4" y2="265.1" stroke="#16a34a" stroke-width="1"/><rect x="255.7" y="237.7" width="5.4" height="26.5" fill="#16a34a" opacity="0.82" rx="1"/>
<line x1="267.3" y1="220.6" x2="267.3" y2="242.2" stroke="#16a34a" stroke-width="1"/><rect x="264.6" y="227.8" width="5.4" height="10.3" fill="#16a34a" opacity="0.82" rx="1"/>
<line x1="276.2" y1="223.8" x2="276.2" y2="230.5" stroke="#16a34a" stroke-width="1"/><rect x="273.4" y="225.6" width="5.4" height="2.7" fill="#16a34a" opacity="0.82" rx="1"/>
<line x1="285.0" y1="218.8" x2="285.0" y2="227.6" stroke="#16a34a" stroke-width="1"/><rect x="282.3" y="223.1" width="5.4" height="2.7" fill="#16a34a" opacity="0.82" rx="1"/>
<line x1="293.9" y1="218.1" x2="293.9" y2="243.3" stroke="#dc2626" stroke-width="1"/><rect x="291.2" y="223.1" width="5.4" height="12.1" fill="#dc2626" opacity="0.82" rx="1"/>
<line x1="302.8" y1="229.6" x2="302.8" y2="244.2" stroke="#dc2626" stroke-width="1"/><rect x="300.1" y="235.0" width="5.4" height="4.5" fill="#dc2626" opacity="0.82" rx="1"/>
<line x1="311.7" y1="238.6" x2="311.7" y2="249.8" stroke="#dc2626" stroke-width="1"/><rect x="308.9" y="239.7" width="5.4" height="4.5" fill="#dc2626" opacity="0.82" rx="1"/>
<line x1="320.5" y1="238.4" x2="320.5" y2="260.2" stroke="#dc2626" stroke-width="1"/><rect x="317.8" y="244.0" width="5.4" height="10.6" fill="#dc2626" opacity="0.82" rx="1"/>
<line x1="329.4" y1="232.1" x2="329.4" y2="254.6" stroke="#16a34a" stroke-width="1"/><rect x="326.7" y="238.4" width="5.4" height="16.2" fill="#16a34a" opacity="0.82" rx="1"/>
<line x1="338.3" y1="230.1" x2="338.3" y2="274.1" stroke="#dc2626" stroke-width="1"/><rect x="335.6" y="238.4" width="5.4" height="34.6" fill="#dc2626" opacity="0.82" rx="1"/>
<line x1="347.2" y1="239.5" x2="347.2" y2="275.0" stroke="#16a34a" stroke-width="1"/><rect x="344.4" y="257.7" width="5.4" height="15.3" fill="#16a34a" opacity="0.82" rx="1"/>
<line x1="356.0" y1="224.2" x2="356.0" y2="259.1" stroke="#16a34a" stroke-width="1"/><rect x="353.3" y="224.7" width="5.4" height="32.4" fill="#16a34a" opacity="0.82" rx="1"/>
<line x1="364.9" y1="219.0" x2="364.9" y2="232.1" stroke="#dc2626" stroke-width="1"/><rect x="362.2" y="224.7" width="5.4" height="2.5" fill="#dc2626" opacity="0.82" rx="1"/>
<line x1="373.8" y1="212.3" x2="373.8" y2="235.2" stroke="#16a34a" stroke-width="1"/><rect x="371.1" y="213.2" width="5.4" height="13.9" fill="#16a34a" opacity="0.82" rx="1"/>
<line x1="382.7" y1="195.0" x2="382.7" y2="264.0" stroke="#dc2626" stroke-width="1"/><rect x="380.0" y="213.0" width="5.4" height="9.2" fill="#dc2626" opacity="0.82" rx="1"/>
<line x1="391.6" y1="207.8" x2="391.6" y2="274.1" stroke="#dc2626" stroke-width="1"/><rect x="388.8" y="222.0" width="5.4" height="49.3" fill="#dc2626" opacity="0.82" rx="1"/>
<line x1="400.4" y1="244.9" x2="400.4" y2="271.4" stroke="#16a34a" stroke-width="1"/><rect x="397.7" y="252.1" width="5.4" height="19.1" fill="#16a34a" opacity="0.82" rx="1"/>
<line x1="409.3" y1="235.0" x2="409.3" y2="252.5" stroke="#16a34a" stroke-width="1"/><rect x="406.6" y="243.8" width="5.4" height="8.5" fill="#16a34a" opacity="0.82" rx="1"/>
<line x1="418.2" y1="224.0" x2="418.2" y2="255.7" stroke="#16a34a" stroke-width="1"/><rect x="415.5" y="226.7" width="5.4" height="17.1" fill="#16a34a" opacity="0.82" rx="1"/>
<line x1="427.1" y1="206.7" x2="427.1" y2="229.2" stroke="#16a34a" stroke-width="1"/><rect x="424.3" y="213.4" width="5.4" height="13.0" fill="#16a34a" opacity="0.82" rx="1"/>
<line x1="435.9" y1="186.9" x2="435.9" y2="219.0" stroke="#16a34a" stroke-width="1"/><rect x="433.2" y="202.8" width="5.4" height="10.1" fill="#16a34a" opacity="0.82" rx="1"/>
<line x1="444.8" y1="192.5" x2="444.8" y2="203.7" stroke="#16a34a" stroke-width="1"/><rect x="442.1" y="201.3" width="5.4" height="2.2" fill="#16a34a" opacity="0.82" rx="1"/>
<line x1="453.7" y1="192.7" x2="453.7" y2="203.5" stroke="#16a34a" stroke-width="1"/><rect x="451.0" y="194.3" width="5.4" height="6.7" fill="#16a34a" opacity="0.82" rx="1"/>
<line x1="462.6" y1="169.1" x2="462.6" y2="195.2" stroke="#16a34a" stroke-width="1"/><rect x="459.8" y="173.8" width="5.4" height="20.5" fill="#16a34a" opacity="0.82" rx="1"/>
<line x1="471.4" y1="162.6" x2="471.4" y2="186.9" stroke="#dc2626" stroke-width="1"/><rect x="468.7" y="173.8" width="5.4" height="7.4" fill="#dc2626" opacity="0.82" rx="1"/>
<line x1="480.3" y1="154.3" x2="480.3" y2="185.3" stroke="#16a34a" stroke-width="1"/><rect x="477.6" y="159.0" width="5.4" height="22.0" fill="#16a34a" opacity="0.82" rx="1"/>
<line x1="489.2" y1="159.2" x2="489.2" y2="173.2" stroke="#dc2626" stroke-width="1"/><rect x="486.5" y="159.2" width="5.4" height="8.8" fill="#dc2626" opacity="0.82" rx="1"/>
<line x1="498.1" y1="165.5" x2="498.1" y2="175.0" stroke="#16a34a" stroke-width="1"/><rect x="495.3" y="166.0" width="5.4" height="1.6" fill="#16a34a" opacity="0.82" rx="1"/>
<line x1="506.9" y1="157.0" x2="506.9" y2="178.5" stroke="#dc2626" stroke-width="1"/><rect x="504.2" y="166.0" width="5.4" height="11.9" fill="#dc2626" opacity="0.82" rx="1"/>
<line x1="515.8" y1="165.5" x2="515.8" y2="179.4" stroke="#16a34a" stroke-width="1"/><rect x="513.1" y="171.8" width="5.4" height="6.3" fill="#16a34a" opacity="0.82" rx="1"/>
<line x1="524.7" y1="168.7" x2="524.7" y2="177.6" stroke="#dc2626" stroke-width="1"/><rect x="522.0" y="172.0" width="5.4" height="2.7" fill="#dc2626" opacity="0.82" rx="1"/>
<line x1="533.6" y1="163.5" x2="533.6" y2="178.3" stroke="#16a34a" stroke-width="1"/><rect x="530.9" y="168.9" width="5.4" height="5.8" fill="#16a34a" opacity="0.82" rx="1"/>
<line x1="542.4" y1="155.2" x2="542.4" y2="172.5" stroke="#16a34a" stroke-width="1"/><rect x="539.7" y="157.0" width="5.4" height="11.7" fill="#16a34a" opacity="0.82" rx="1"/>
<line x1="551.3" y1="131.1" x2="551.3" y2="163.3" stroke="#16a34a" stroke-width="1"/><rect x="548.6" y="141.7" width="5.4" height="15.5" fill="#16a34a" opacity="0.82" rx="1"/>
<line x1="560.2" y1="101.4" x2="560.2" y2="142.6" stroke="#16a34a" stroke-width="1"/><rect x="557.5" y="107.0" width="5.4" height="34.9" fill="#16a34a" opacity="0.82" rx="1"/>
<line x1="569.1" y1="98.3" x2="569.1" y2="124.1" stroke="#dc2626" stroke-width="1"/><rect x="566.4" y="107.0" width="5.4" height="9.4" fill="#dc2626" opacity="0.82" rx="1"/>
<line x1="578.0" y1="106.4" x2="578.0" y2="118.5" stroke="#16a34a" stroke-width="1"/><rect x="575.2" y="111.1" width="5.4" height="5.4" fill="#16a34a" opacity="0.82" rx="1"/>
<line x1="586.8" y1="102.1" x2="586.8" y2="116.0" stroke="#16a34a" stroke-width="1"/><rect x="584.1" y="107.5" width="5.4" height="3.4" fill="#16a34a" opacity="0.82" rx="1"/>
<line x1="595.7" y1="94.7" x2="595.7" y2="107.5" stroke="#16a34a" stroke-width="1"/><rect x="593.0" y="103.0" width="5.4" height="4.5" fill="#16a34a" opacity="0.82" rx="1"/>
<line x1="604.6" y1="92.9" x2="604.6" y2="114.9" stroke="#dc2626" stroke-width="1"/><rect x="601.9" y="102.8" width="5.4" height="12.1" fill="#dc2626" opacity="0.82" rx="1"/>
<line x1="613.5" y1="101.4" x2="613.5" y2="116.5" stroke="#16a34a" stroke-width="1"/><rect x="610.7" y="101.6" width="5.4" height="13.3" fill="#16a34a" opacity="0.82" rx="1"/>
<line x1="622.3" y1="88.1" x2="622.3" y2="103.4" stroke="#16a34a" stroke-width="1"/><rect x="619.6" y="88.6" width="5.4" height="12.8" fill="#16a34a" opacity="0.82" rx="1"/>
<line x1="631.2" y1="76.9" x2="631.2" y2="94.2" stroke="#16a34a" stroke-width="1"/><rect x="628.5" y="87.9" width="5.4" height="1.2" fill="#16a34a" opacity="0.82" rx="1"/>
<line x1="640.1" y1="81.2" x2="640.1" y2="95.8" stroke="#16a34a" stroke-width="1"/><rect x="637.4" y="83.6" width="5.4" height="4.0" fill="#16a34a" opacity="0.82" rx="1"/>
<line x1="649.0" y1="73.5" x2="649.0" y2="113.8" stroke="#dc2626" stroke-width="1"/><rect x="646.2" y="83.9" width="5.4" height="11.5" fill="#dc2626" opacity="0.82" rx="1"/>
<line x1="657.8" y1="76.2" x2="657.8" y2="107.3" stroke="#dc2626" stroke-width="1"/><rect x="655.1" y="96.0" width="5.4" height="7.4" fill="#dc2626" opacity="0.82" rx="1"/>
<line x1="666.7" y1="97.4" x2="666.7" y2="116.2" stroke="#16a34a" stroke-width="1"/><rect x="664.0" y="100.7" width="5.4" height="2.7" fill="#16a34a" opacity="0.82" rx="1"/>
<line x1="675.6" y1="95.8" x2="675.6" y2="122.3" stroke="#dc2626" stroke-width="1"/><rect x="672.9" y="100.7" width="5.4" height="16.0" fill="#dc2626" opacity="0.82" rx="1"/>
<line x1="684.5" y1="105.9" x2="684.5" y2="158.3" stroke="#dc2626" stroke-width="1"/><rect x="681.8" y="116.7" width="5.4" height="32.2" fill="#dc2626" opacity="0.82" rx="1"/>
<line x1="693.3" y1="125.0" x2="693.3" y2="159.9" stroke="#16a34a" stroke-width="1"/><rect x="690.6" y="126.8" width="5.4" height="21.8" fill="#16a34a" opacity="0.82" rx="1"/>
<line x1="702.2" y1="104.3" x2="702.2" y2="127.5" stroke="#16a34a" stroke-width="1"/><rect x="699.5" y="109.3" width="5.4" height="17.5" fill="#16a34a" opacity="0.82" rx="1"/>
<line x1="711.1" y1="94.9" x2="711.1" y2="115.1" stroke="#16a34a" stroke-width="1"/><rect x="708.4" y="98.9" width="5.4" height="10.6" fill="#16a34a" opacity="0.82" rx="1"/>
<line x1="720.0" y1="79.4" x2="720.0" y2="103.9" stroke="#16a34a" stroke-width="1"/><rect x="717.3" y="80.3" width="5.4" height="18.9" fill="#16a34a" opacity="0.82" rx="1"/>
<line x1="728.9" y1="78.5" x2="728.9" y2="120.1" stroke="#dc2626" stroke-width="1"/><rect x="726.1" y="80.3" width="5.4" height="32.8" fill="#dc2626" opacity="0.82" rx="1"/>
<line x1="737.7" y1="112.4" x2="737.7" y2="126.6" stroke="#dc2626" stroke-width="1"/><rect x="735.0" y="113.1" width="5.4" height="8.1" fill="#dc2626" opacity="0.82" rx="1"/>
<line x1="746.6" y1="116.9" x2="746.6" y2="126.8" stroke="#16a34a" stroke-width="1"/><rect x="743.9" y="117.4" width="5.4" height="3.8" fill="#16a34a" opacity="0.82" rx="1"/>
<line x1="755.5" y1="108.2" x2="755.5" y2="133.8" stroke="#16a34a" stroke-width="1"/><rect x="752.8" y="108.8" width="5.4" height="8.1" fill="#16a34a" opacity="0.82" rx="1"/>
<line x1="764.4" y1="98.9" x2="764.4" y2="118.0" stroke="#16a34a" stroke-width="1"/><rect x="761.6" y="107.3" width="5.4" height="1.6" fill="#16a34a" opacity="0.82" rx="1"/>
<line x1="773.2" y1="95.8" x2="773.2" y2="110.2" stroke="#16a34a" stroke-width="1"/><rect x="770.5" y="98.0" width="5.4" height="9.9" fill="#16a34a" opacity="0.82" rx="1"/>
<line x1="782.1" y1="89.3" x2="782.1" y2="103.0" stroke="#16a34a" stroke-width="1"/><rect x="779.4" y="96.2" width="5.4" height="1.3" fill="#16a34a" opacity="0.82" rx="1"/>
<line x1="791.0" y1="85.2" x2="791.0" y2="105.9" stroke="#dc2626" stroke-width="1"/><rect x="788.3" y="95.8" width="5.4" height="7.4" fill="#dc2626" opacity="0.82" rx="1"/>
<line x1="799.9" y1="90.4" x2="799.9" y2="103.7" stroke="#16a34a" stroke-width="1"/><rect x="797.1" y="97.1" width="5.4" height="6.3" fill="#16a34a" opacity="0.82" rx="1"/>
<line x1="808.7" y1="94.7" x2="808.7" y2="108.8" stroke="#dc2626" stroke-width="1"/><rect x="806.0" y="96.5" width="5.4" height="9.9" fill="#dc2626" opacity="0.82" rx="1"/>
<line x1="817.6" y1="104.6" x2="817.6" y2="110.9" stroke="#dc2626" stroke-width="1"/><rect x="814.9" y="106.6" width="5.4" height="2.0" fill="#dc2626" opacity="0.82" rx="1"/>
<line x1="826.5" y1="108.4" x2="826.5" y2="114.7" stroke="#dc2626" stroke-width="1"/><rect x="823.8" y="108.4" width="5.4" height="4.5" fill="#dc2626" opacity="0.82" rx="1"/>
<line x1="835.4" y1="103.9" x2="835.4" y2="114.4" stroke="#16a34a" stroke-width="1"/><rect x="832.6" y="109.1" width="5.4" height="4.3" fill="#16a34a" opacity="0.82" rx="1"/>
<line x1="844.2" y1="92.2" x2="844.2" y2="113.8" stroke="#16a34a" stroke-width="1"/><rect x="841.5" y="92.4" width="5.4" height="16.9" fill="#16a34a" opacity="0.82" rx="1"/>
<line x1="853.1" y1="82.3" x2="853.1" y2="105.2" stroke="#dc2626" stroke-width="1"/><rect x="850.4" y="92.4" width="5.4" height="4.9" fill="#dc2626" opacity="0.82" rx="1"/>
<line x1="862.0" y1="85.9" x2="862.0" y2="98.7" stroke="#16a34a" stroke-width="1"/><rect x="859.3" y="92.9" width="5.4" height="4.9" fill="#16a34a" opacity="0.82" rx="1"/>
<line x1="72" y1="115.5" x2="862" y2="115.5" stroke="#16a34a" stroke-width="1.8" stroke-dasharray="6 4" /><rect x="874" y="95.5" width="166" height="23" rx="5" fill="#ffffff" stroke="#16a34a" opacity="0.97"/><text x="881" y="111.5" fill="#16a34a" font-size="15" font-weight="700">日内支撑 76.82</text>
<line x1="72" y1="55.1" x2="862" y2="55.1" stroke="#dc2626" stroke-width="1.8" stroke-dasharray="6 4" /><rect x="874" y="35.1" width="166" height="23" rx="5" fill="#ffffff" stroke="#dc2626" opacity="0.97"/><text x="881" y="51.1" fill="#dc2626" font-size="15" font-weight="700">日内压力 79.51</text>
<line x1="72" y1="92.9" x2="862" y2="92.9" stroke="#111827" stroke-width="1.8" stroke-dasharray="2 2" /><rect x="874" y="72.9" width="166" height="23" rx="5" fill="#ffffff" stroke="#111827" opacity="0.97"/><text x="881" y="88.9" fill="#111827" font-size="15" font-weight="700">现价 77.83</text>
<text x="72" y="396" fill="#16a34a" font-size="14" font-weight="700">日内做多计划</text><rect x="72" y="404" width="790" height="48" rx="6" fill="#f9fafb" stroke="#e5e7eb"/><line x1="94" y1="412" x2="840" y2="412" stroke="#16a34a" stroke-width="3"/><circle cx="132.0" cy="412" r="5" fill="#16a34a"/><text x="132.0" y="434" fill="#374151" font-size="12" text-anchor="middle">入场 止跌/突破回踩</text><circle cx="451.2" cy="412" r="5" fill="#16a34a"/><text x="451.2" y="434" fill="#374151" font-size="12" text-anchor="middle">止损 76.82</text><circle cx="712.0" cy="412" r="5" fill="#16a34a"/><text x="712.0" y="434" fill="#374151" font-size="12" text-anchor="middle">目标一 79.51</text><circle cx="814.0" cy="412" r="5" fill="#16a34a"/><text x="814.0" y="434" fill="#374151" font-size="12" text-anchor="middle">目标二 80.18</text>
<text x="72" y="482" fill="#dc2626" font-size="14" font-weight="700">日内做空计划</text><rect x="72" y="490" width="790" height="48" rx="6" fill="#f9fafb" stroke="#e5e7eb"/><line x1="94" y1="498" x2="840" y2="498" stroke="#dc2626" stroke-width="3"/><circle cx="132.0" cy="498" r="5" fill="#dc2626"/><text x="132.0" y="520" fill="#374151" font-size="12" text-anchor="middle">入场 反弹承压/破位回抽</text><circle cx="451.2" cy="498" r="5" fill="#dc2626"/><text x="451.2" y="520" fill="#374151" font-size="12" text-anchor="middle">止损 79.51</text><circle cx="712.0" cy="498" r="5" fill="#dc2626"/><text x="712.0" y="520" fill="#374151" font-size="12" text-anchor="middle">目标一 76.82</text><circle cx="814.0" cy="498" r="5" fill="#dc2626"/><text x="814.0" y="520" fill="#374151" font-size="12" text-anchor="middle">目标二 76.15</text>
</svg>