<svg xmlns="http://www.w3.org/2000/svg" width="1080" height="560" viewBox="0 0 1080 560">
<rect width="100%" height="100%" fill="#ffffff"/>
<text x="72" y="23" fill="#111827" font-size="21" font-weight="800">BTC 小时线K线支撑压力图</text>
<text x="862" y="42" fill="#374151" font-size="15" text-anchor="end">最新价 63,485</text>
<line x1="72" y1="34" x2="72" y2="340" stroke="#d1d5db"/>
<line x1="72" y1="340" x2="862" y2="340" stroke="#d1d5db"/>
<line x1="72" y1="340.0" x2="862" y2="340.0" stroke="#f3f4f6"/>
<text x="8" y="345.0" fill="#4b5563" font-size="14">61,854</text>
<line x1="72" y1="263.5" x2="862" y2="263.5" stroke="#f3f4f6"/>
<text x="8" y="268.5" fill="#4b5563" font-size="14">63,224</text>
<line x1="72" y1="187.0" x2="862" y2="187.0" stroke="#f3f4f6"/>
<text x="8" y="192.0" fill="#4b5563" font-size="14">64,594</text>
<line x1="72" y1="110.5" x2="862" y2="110.5" stroke="#f3f4f6"/>
<text x="8" y="115.5" fill="#4b5563" font-size="14">65,965</text>
<line x1="72" y1="34.0" x2="862" y2="34.0" stroke="#f3f4f6"/>
<text x="8" y="39.0" fill="#4b5563" font-size="14">67,335</text>
<line x1="72.0" y1="80.8" x2="72.0" y2="93.3" stroke="#dc2626" stroke-width="1"/><rect x="69.3" y="85.8" width="5.4" height="3.6" fill="#dc2626" opacity="0.82" rx="1"/>
<line x1="80.9" y1="55.1" x2="80.9" y2="91.2" stroke="#16a34a" stroke-width="1"/><rect x="78.2" y="60.3" width="5.4" height="29.2" fill="#16a34a" opacity="0.82" rx="1"/>
<line x1="89.8" y1="59.1" x2="89.8" y2="83.9" stroke="#dc2626" stroke-width="1"/><rect x="87.0" y="60.3" width="5.4" height="21.5" fill="#dc2626" opacity="0.82" rx="1"/>
<line x1="98.6" y1="66.3" x2="98.6" y2="83.3" stroke="#dc2626" stroke-width="1"/><rect x="95.9" y="81.8" width="5.4" height="1.2" fill="#dc2626" opacity="0.82" rx="1"/>
<line x1="107.5" y1="73.9" x2="107.5" y2="90.4" stroke="#dc2626" stroke-width="1"/><rect x="104.8" y="81.9" width="5.4" height="1.2" fill="#dc2626" opacity="0.82" rx="1"/>
<line x1="116.4" y1="64.6" x2="116.4" y2="90.4" stroke="#dc2626" stroke-width="1"/><rect x="113.7" y="83.1" width="5.4" height="3.7" fill="#dc2626" opacity="0.82" rx="1"/>
<line x1="125.3" y1="84.2" x2="125.3" y2="114.5" stroke="#dc2626" stroke-width="1"/><rect x="122.5" y="86.7" width="5.4" height="21.1" fill="#dc2626" opacity="0.82" rx="1"/>
<line x1="134.1" y1="95.2" x2="134.1" y2="146.0" stroke="#dc2626" stroke-width="1"/><rect x="131.4" y="107.8" width="5.4" height="21.4" fill="#dc2626" opacity="0.82" rx="1"/>
<line x1="143.0" y1="109.6" x2="143.0" y2="132.0" stroke="#16a34a" stroke-width="1"/><rect x="140.3" y="117.4" width="5.4" height="11.8" fill="#16a34a" opacity="0.82" rx="1"/>
<line x1="151.9" y1="112.3" x2="151.9" y2="126.7" stroke="#dc2626" stroke-width="1"/><rect x="149.2" y="117.4" width="5.4" height="6.2" fill="#dc2626" opacity="0.82" rx="1"/>
<line x1="160.8" y1="109.0" x2="160.8" y2="126.5" stroke="#16a34a" stroke-width="1"/><rect x="158.0" y="111.5" width="5.4" height="12.0" fill="#16a34a" opacity="0.82" rx="1"/>
<line x1="169.6" y1="94.8" x2="169.6" y2="121.5" stroke="#dc2626" stroke-width="1"/><rect x="166.9" y="111.5" width="5.4" height="6.9" fill="#dc2626" opacity="0.82" rx="1"/>
<line x1="178.5" y1="118.4" x2="178.5" y2="134.8" stroke="#dc2626" stroke-width="1"/><rect x="175.8" y="118.4" width="5.4" height="9.5" fill="#dc2626" opacity="0.82" rx="1"/>
<line x1="187.4" y1="117.9" x2="187.4" y2="133.0" stroke="#16a34a" stroke-width="1"/><rect x="184.7" y="118.3" width="5.4" height="9.5" fill="#16a34a" opacity="0.82" rx="1"/>
<line x1="196.3" y1="113.6" x2="196.3" y2="130.3" stroke="#dc2626" stroke-width="1"/><rect x="193.5" y="118.3" width="5.4" height="4.6" fill="#dc2626" opacity="0.82" rx="1"/>
<line x1="205.1" y1="116.6" x2="205.1" y2="128.4" stroke="#16a34a" stroke-width="1"/><rect x="202.4" y="122.7" width="5.4" height="1.2" fill="#16a34a" opacity="0.82" rx="1"/>
<line x1="214.0" y1="119.4" x2="214.0" y2="132.0" stroke="#dc2626" stroke-width="1"/><rect x="211.3" y="122.7" width="5.4" height="5.6" fill="#dc2626" opacity="0.82" rx="1"/>
<line x1="222.9" y1="118.5" x2="222.9" y2="128.4" stroke="#16a34a" stroke-width="1"/><rect x="220.2" y="126.4" width="5.4" height="1.9" fill="#16a34a" opacity="0.82" rx="1"/>
<line x1="231.8" y1="112.7" x2="231.8" y2="140.5" stroke="#16a34a" stroke-width="1"/><rect x="229.1" y="114.0" width="5.4" height="12.4" fill="#16a34a" opacity="0.82" rx="1"/>
<line x1="240.7" y1="103.4" x2="240.7" y2="122.9" stroke="#dc2626" stroke-width="1"/><rect x="237.9" y="114.0" width="5.4" height="1.6" fill="#dc2626" opacity="0.82" rx="1"/>
<line x1="249.5" y1="115.6" x2="249.5" y2="126.8" stroke="#dc2626" stroke-width="1"/><rect x="246.8" y="115.6" width="5.4" height="3.0" fill="#dc2626" opacity="0.82" rx="1"/>
<line x1="258.4" y1="107.5" x2="258.4" y2="122.8" stroke="#16a34a" stroke-width="1"/><rect x="255.7" y="116.8" width="5.4" height="1.9" fill="#16a34a" opacity="0.82" rx="1"/>
<line x1="267.3" y1="111.4" x2="267.3" y2="125.1" stroke="#dc2626" stroke-width="1"/><rect x="264.6" y="116.8" width="5.4" height="3.1" fill="#dc2626" opacity="0.82" rx="1"/>
<line x1="276.2" y1="115.8" x2="276.2" y2="134.5" stroke="#dc2626" stroke-width="1"/><rect x="273.4" y="119.9" width="5.4" height="11.5" fill="#dc2626" opacity="0.82" rx="1"/>
<line x1="285.0" y1="126.4" x2="285.0" y2="153.2" stroke="#dc2626" stroke-width="1"/><rect x="282.3" y="131.4" width="5.4" height="4.8" fill="#dc2626" opacity="0.82" rx="1"/>
<line x1="293.9" y1="133.7" x2="293.9" y2="175.5" stroke="#dc2626" stroke-width="1"/><rect x="291.2" y="136.2" width="5.4" height="34.3" fill="#dc2626" opacity="0.82" rx="1"/>
<line x1="302.8" y1="161.8" x2="302.8" y2="175.5" stroke="#dc2626" stroke-width="1"/><rect x="300.1" y="170.5" width="5.4" height="1.2" fill="#dc2626" opacity="0.82" rx="1"/>
<line x1="311.7" y1="166.4" x2="311.7" y2="179.2" stroke="#dc2626" stroke-width="1"/><rect x="308.9" y="171.1" width="5.4" height="6.1" fill="#dc2626" opacity="0.82" rx="1"/>
<line x1="320.5" y1="173.6" x2="320.5" y2="190.9" stroke="#16a34a" stroke-width="1"/><rect x="317.8" y="176.9" width="5.4" height="1.2" fill="#16a34a" opacity="0.82" rx="1"/>
<line x1="329.4" y1="159.9" x2="329.4" y2="189.4" stroke="#16a34a" stroke-width="1"/><rect x="326.7" y="164.1" width="5.4" height="12.9" fill="#16a34a" opacity="0.82" rx="1"/>
<line x1="338.3" y1="145.8" x2="338.3" y2="175.3" stroke="#16a34a" stroke-width="1"/><rect x="335.6" y="151.4" width="5.4" height="12.7" fill="#16a34a" opacity="0.82" rx="1"/>
<line x1="347.2" y1="140.1" x2="347.2" y2="179.8" stroke="#dc2626" stroke-width="1"/><rect x="344.4" y="151.4" width="5.4" height="8.9" fill="#dc2626" opacity="0.82" rx="1"/>
<line x1="356.0" y1="117.8" x2="356.0" y2="167.5" stroke="#16a34a" stroke-width="1"/><rect x="353.3" y="124.6" width="5.4" height="35.8" fill="#16a34a" opacity="0.82" rx="1"/>
<line x1="364.9" y1="85.1" x2="364.9" y2="126.6" stroke="#16a34a" stroke-width="1"/><rect x="362.2" y="118.0" width="5.4" height="6.5" fill="#16a34a" opacity="0.82" rx="1"/>
<line x1="373.8" y1="99.6" x2="373.8" y2="122.2" stroke="#16a34a" stroke-width="1"/><rect x="371.1" y="104.4" width="5.4" height="13.6" fill="#16a34a" opacity="0.82" rx="1"/>
<line x1="382.7" y1="103.8" x2="382.7" y2="178.5" stroke="#dc2626" stroke-width="1"/><rect x="380.0" y="104.4" width="5.4" height="33.0" fill="#dc2626" opacity="0.82" rx="1"/>
<line x1="391.6" y1="129.1" x2="391.6" y2="219.4" stroke="#dc2626" stroke-width="1"/><rect x="388.8" y="137.5" width="5.4" height="67.6" fill="#dc2626" opacity="0.82" rx="1"/>
<line x1="400.4" y1="194.5" x2="400.4" y2="212.5" stroke="#16a34a" stroke-width="1"/><rect x="397.7" y="197.5" width="5.4" height="7.5" fill="#16a34a" opacity="0.82" rx="1"/>
<line x1="409.3" y1="196.3" x2="409.3" y2="214.4" stroke="#dc2626" stroke-width="1"/><rect x="406.6" y="197.5" width="5.4" height="9.9" fill="#dc2626" opacity="0.82" rx="1"/>
<line x1="418.2" y1="197.0" x2="418.2" y2="226.8" stroke="#16a34a" stroke-width="1"/><rect x="415.5" y="205.4" width="5.4" height="2.0" fill="#16a34a" opacity="0.82" rx="1"/>
<line x1="427.1" y1="192.5" x2="427.1" y2="208.1" stroke="#16a34a" stroke-width="1"/><rect x="424.3" y="193.8" width="5.4" height="11.6" fill="#16a34a" opacity="0.82" rx="1"/>
<line x1="435.9" y1="182.4" x2="435.9" y2="196.6" stroke="#dc2626" stroke-width="1"/><rect x="433.2" y="193.8" width="5.4" height="2.2" fill="#dc2626" opacity="0.82" rx="1"/>
<line x1="444.8" y1="176.6" x2="444.8" y2="196.2" stroke="#16a34a" stroke-width="1"/><rect x="442.1" y="191.1" width="5.4" height="4.9" fill="#16a34a" opacity="0.82" rx="1"/>
<line x1="453.7" y1="178.3" x2="453.7" y2="194.9" stroke="#16a34a" stroke-width="1"/><rect x="451.0" y="183.8" width="5.4" height="7.3" fill="#16a34a" opacity="0.82" rx="1"/>
<line x1="462.6" y1="183.8" x2="462.6" y2="207.4" stroke="#dc2626" stroke-width="1"/><rect x="459.8" y="183.8" width="5.4" height="22.2" fill="#dc2626" opacity="0.82" rx="1"/>
<line x1="471.4" y1="202.1" x2="471.4" y2="232.2" stroke="#dc2626" stroke-width="1"/><rect x="468.7" y="206.0" width="5.4" height="22.6" fill="#dc2626" opacity="0.82" rx="1"/>
<line x1="480.3" y1="220.2" x2="480.3" y2="239.2" stroke="#16a34a" stroke-width="1"/><rect x="477.6" y="222.3" width="5.4" height="6.2" fill="#16a34a" opacity="0.82" rx="1"/>
<line x1="489.2" y1="214.7" x2="489.2" y2="230.7" stroke="#16a34a" stroke-width="1"/><rect x="486.5" y="217.1" width="5.4" height="5.2" fill="#16a34a" opacity="0.82" rx="1"/>
<line x1="498.1" y1="192.8" x2="498.1" y2="221.0" stroke="#16a34a" stroke-width="1"/><rect x="495.3" y="193.9" width="5.4" height="23.2" fill="#16a34a" opacity="0.82" rx="1"/>
<line x1="506.9" y1="184.9" x2="506.9" y2="200.7" stroke="#dc2626" stroke-width="1"/><rect x="504.2" y="193.9" width="5.4" height="5.6" fill="#dc2626" opacity="0.82" rx="1"/>
<line x1="515.8" y1="195.1" x2="515.8" y2="211.1" stroke="#dc2626" stroke-width="1"/><rect x="513.1" y="199.5" width="5.4" height="11.0" fill="#dc2626" opacity="0.82" rx="1"/>
<line x1="524.7" y1="209.1" x2="524.7" y2="226.9" stroke="#dc2626" stroke-width="1"/><rect x="522.0" y="210.5" width="5.4" height="6.9" fill="#dc2626" opacity="0.82" rx="1"/>
<line x1="533.6" y1="210.4" x2="533.6" y2="228.3" stroke="#dc2626" stroke-width="1"/><rect x="530.9" y="217.4" width="5.4" height="6.1" fill="#dc2626" opacity="0.82" rx="1"/>
<line x1="542.4" y1="199.1" x2="542.4" y2="226.2" stroke="#16a34a" stroke-width="1"/><rect x="539.7" y="200.9" width="5.4" height="22.7" fill="#16a34a" opacity="0.82" rx="1"/>
<line x1="551.3" y1="196.5" x2="551.3" y2="234.0" stroke="#dc2626" stroke-width="1"/><rect x="548.6" y="200.9" width="5.4" height="22.0" fill="#dc2626" opacity="0.82" rx="1"/>
<line x1="560.2" y1="210.0" x2="560.2" y2="244.5" stroke="#dc2626" stroke-width="1"/><rect x="557.5" y="222.8" width="5.4" height="9.4" fill="#dc2626" opacity="0.82" rx="1"/>
<line x1="569.1" y1="231.5" x2="569.1" y2="318.9" stroke="#dc2626" stroke-width="1"/><rect x="566.4" y="232.2" width="5.4" height="80.8" fill="#dc2626" opacity="0.82" rx="1"/>
<line x1="578.0" y1="287.8" x2="578.0" y2="314.6" stroke="#16a34a" stroke-width="1"/><rect x="575.2" y="294.8" width="5.4" height="18.2" fill="#16a34a" opacity="0.82" rx="1"/>
<line x1="586.8" y1="291.1" x2="586.8" y2="318.4" stroke="#dc2626" stroke-width="1"/><rect x="584.1" y="294.8" width="5.4" height="4.8" fill="#dc2626" opacity="0.82" rx="1"/>
<line x1="595.7" y1="279.8" x2="595.7" y2="301.0" stroke="#16a34a" stroke-width="1"/><rect x="593.0" y="293.7" width="5.4" height="5.8" fill="#16a34a" opacity="0.82" rx="1"/>
<line x1="604.6" y1="276.9" x2="604.6" y2="297.9" stroke="#16a34a" stroke-width="1"/><rect x="601.9" y="280.2" width="5.4" height="13.5" fill="#16a34a" opacity="0.82" rx="1"/>
<line x1="613.5" y1="261.1" x2="613.5" y2="280.2" stroke="#16a34a" stroke-width="1"/><rect x="610.7" y="272.5" width="5.4" height="7.7" fill="#16a34a" opacity="0.82" rx="1"/>
<line x1="622.3" y1="270.5" x2="622.3" y2="285.4" stroke="#dc2626" stroke-width="1"/><rect x="619.6" y="272.5" width="5.4" height="7.1" fill="#dc2626" opacity="0.82" rx="1"/>
<line x1="631.2" y1="278.1" x2="631.2" y2="292.2" stroke="#dc2626" stroke-width="1"/><rect x="628.5" y="279.6" width="5.4" height="4.6" fill="#dc2626" opacity="0.82" rx="1"/>
<line x1="640.1" y1="278.3" x2="640.1" y2="291.8" stroke="#16a34a" stroke-width="1"/><rect x="637.4" y="280.3" width="5.4" height="4.0" fill="#16a34a" opacity="0.82" rx="1"/>
<line x1="649.0" y1="272.3" x2="649.0" y2="286.5" stroke="#16a34a" stroke-width="1"/><rect x="646.2" y="276.5" width="5.4" height="3.8" fill="#16a34a" opacity="0.82" rx="1"/>
<line x1="657.8" y1="271.9" x2="657.8" y2="286.4" stroke="#16a34a" stroke-width="1"/><rect x="655.1" y="276.3" width="5.4" height="1.2" fill="#16a34a" opacity="0.82" rx="1"/>
<line x1="666.7" y1="271.1" x2="666.7" y2="283.9" stroke="#dc2626" stroke-width="1"/><rect x="664.0" y="276.3" width="5.4" height="1.2" fill="#dc2626" opacity="0.82" rx="1"/>
<line x1="675.6" y1="275.8" x2="675.6" y2="318.6" stroke="#dc2626" stroke-width="1"/><rect x="672.9" y="277.5" width="5.4" height="12.8" fill="#dc2626" opacity="0.82" rx="1"/>
<line x1="684.5" y1="282.2" x2="684.5" y2="310.9" stroke="#dc2626" stroke-width="1"/><rect x="681.8" y="290.3" width="5.4" height="18.1" fill="#dc2626" opacity="0.82" rx="1"/>
<line x1="693.3" y1="291.9" x2="693.3" y2="308.6" stroke="#16a34a" stroke-width="1"/><rect x="690.6" y="292.4" width="5.4" height="15.9" fill="#16a34a" opacity="0.82" rx="1"/>
<line x1="702.2" y1="282.2" x2="702.2" y2="293.3" stroke="#16a34a" stroke-width="1"/><rect x="699.5" y="283.6" width="5.4" height="8.8" fill="#16a34a" opacity="0.82" rx="1"/>
<line x1="711.1" y1="281.8" x2="711.1" y2="305.9" stroke="#dc2626" stroke-width="1"/><rect x="708.4" y="283.6" width="5.4" height="15.2" fill="#dc2626" opacity="0.82" rx="1"/>
<line x1="720.0" y1="289.5" x2="720.0" y2="303.7" stroke="#dc2626" stroke-width="1"/><rect x="717.3" y="298.8" width="5.4" height="1.2" fill="#dc2626" opacity="0.82" rx="1"/>
<line x1="728.9" y1="297.1" x2="728.9" y2="316.6" stroke="#dc2626" stroke-width="1"/><rect x="726.1" y="299.7" width="5.4" height="12.4" fill="#dc2626" opacity="0.82" rx="1"/>
<line x1="737.7" y1="300.0" x2="737.7" y2="312.4" stroke="#16a34a" stroke-width="1"/><rect x="735.0" y="303.6" width="5.4" height="8.6" fill="#16a34a" opacity="0.82" rx="1"/>
<line x1="746.6" y1="294.8" x2="746.6" y2="308.4" stroke="#16a34a" stroke-width="1"/><rect x="743.9" y="298.4" width="5.4" height="5.2" fill="#16a34a" opacity="0.82" rx="1"/>
<line x1="755.5" y1="284.7" x2="755.5" y2="314.3" stroke="#16a34a" stroke-width="1"/><rect x="752.8" y="287.2" width="5.4" height="11.1" fill="#16a34a" opacity="0.82" rx="1"/>
<line x1="764.4" y1="253.1" x2="764.4" y2="296.7" stroke="#16a34a" stroke-width="1"/><rect x="761.6" y="266.3" width="5.4" height="20.9" fill="#16a34a" opacity="0.82" rx="1"/>
<line x1="773.2" y1="253.8" x2="773.2" y2="277.5" stroke="#16a34a" stroke-width="1"/><rect x="770.5" y="266.3" width="5.4" height="1.2" fill="#16a34a" opacity="0.82" rx="1"/>
<line x1="782.1" y1="261.2" x2="782.1" y2="276.5" stroke="#16a34a" stroke-width="1"/><rect x="779.4" y="265.2" width="5.4" height="1.2" fill="#16a34a" opacity="0.82" rx="1"/>
<line x1="791.0" y1="255.0" x2="791.0" y2="281.7" stroke="#dc2626" stroke-width="1"/><rect x="788.3" y="265.2" width="5.4" height="13.9" fill="#dc2626" opacity="0.82" rx="1"/>
<line x1="799.9" y1="264.1" x2="799.9" y2="285.1" stroke="#16a34a" stroke-width="1"/><rect x="797.1" y="266.7" width="5.4" height="12.5" fill="#16a34a" opacity="0.82" rx="1"/>
<line x1="808.7" y1="266.2" x2="808.7" y2="278.4" stroke="#dc2626" stroke-width="1"/><rect x="806.0" y="266.7" width="5.4" height="4.9" fill="#dc2626" opacity="0.82" rx="1"/>
<line x1="817.6" y1="269.5" x2="817.6" y2="281.2" stroke="#dc2626" stroke-width="1"/><rect x="814.9" y="271.6" width="5.4" height="4.3" fill="#dc2626" opacity="0.82" rx="1"/>
<line x1="826.5" y1="262.3" x2="826.5" y2="280.1" stroke="#16a34a" stroke-width="1"/><rect x="823.8" y="263.9" width="5.4" height="12.0" fill="#16a34a" opacity="0.82" rx="1"/>
<line x1="835.4" y1="261.9" x2="835.4" y2="274.7" stroke="#dc2626" stroke-width="1"/><rect x="832.6" y="263.9" width="5.4" height="9.5" fill="#dc2626" opacity="0.82" rx="1"/>
<line x1="844.2" y1="256.8" x2="844.2" y2="275.2" stroke="#16a34a" stroke-width="1"/><rect x="841.5" y="260.0" width="5.4" height="13.4" fill="#16a34a" opacity="0.82" rx="1"/>
<line x1="853.1" y1="240.0" x2="853.1" y2="262.1" stroke="#16a34a" stroke-width="1"/><rect x="850.4" y="247.4" width="5.4" height="12.6" fill="#16a34a" opacity="0.82" rx="1"/>
<line x1="862.0" y1="243.3" x2="862.0" y2="251.7" stroke="#dc2626" stroke-width="1"/><rect x="859.3" y="247.4" width="5.4" height="1.6" fill="#dc2626" opacity="0.82" rx="1"/>
<line x1="72" y1="278.6" x2="862" y2="278.6" stroke="#16a34a" stroke-width="1.8" stroke-dasharray="6 4" /><rect x="874" y="258.6" width="166" height="23" rx="5" fill="#ffffff" stroke="#16a34a" opacity="0.97"/><text x="881" y="274.6" fill="#16a34a" font-size="15" font-weight="700">日内支撑 62,953</text>
<line x1="72" y1="199.5" x2="862" y2="199.5" stroke="#dc2626" stroke-width="1.8" stroke-dasharray="6 4" /><rect x="874" y="179.5" width="166" height="23" rx="5" fill="#ffffff" stroke="#dc2626" opacity="0.97"/><text x="881" y="195.5" fill="#dc2626" font-size="15" font-weight="700">日内压力 64,371</text>
<line x1="72" y1="249.0" x2="862" y2="249.0" stroke="#111827" stroke-width="1.8" stroke-dasharray="2 2" /><rect x="874" y="229.0" width="166" height="23" rx="5" fill="#ffffff" stroke="#111827" opacity="0.97"/><text x="881" y="245.0" fill="#111827" font-size="15" font-weight="700">现价 63,485</text>
<text x="72" y="396" fill="#16a34a" font-size="14" font-weight="700">日内做多计划</text><rect x="72" y="404" width="790" height="48" rx="6" fill="#f9fafb" stroke="#e5e7eb"/><line x1="94" y1="412" x2="840" y2="412" stroke="#16a34a" stroke-width="3"/><circle cx="132.0" cy="412" r="5" fill="#16a34a"/><text x="132.0" y="434" fill="#374151" font-size="12" text-anchor="middle">入场 止跌/突破回踩</text><circle cx="451.2" cy="412" r="5" fill="#16a34a"/><text x="451.2" y="434" fill="#374151" font-size="12" text-anchor="middle">止损 62,953</text><circle cx="712.0" cy="412" r="5" fill="#16a34a"/><text x="712.0" y="434" fill="#374151" font-size="12" text-anchor="middle">目标一 64,371</text><circle cx="814.0" cy="412" r="5" fill="#16a34a"/><text x="814.0" y="434" fill="#374151" font-size="12" text-anchor="middle">目标二 64,725</text>
<text x="72" y="482" fill="#dc2626" font-size="14" font-weight="700">日内做空计划</text><rect x="72" y="490" width="790" height="48" rx="6" fill="#f9fafb" stroke="#e5e7eb"/><line x1="94" y1="498" x2="840" y2="498" stroke="#dc2626" stroke-width="3"/><circle cx="132.0" cy="498" r="5" fill="#dc2626"/><text x="132.0" y="520" fill="#374151" font-size="12" text-anchor="middle">入场 反弹承压/破位回抽</text><circle cx="451.2" cy="498" r="5" fill="#dc2626"/><text x="451.2" y="520" fill="#374151" font-size="12" text-anchor="middle">止损 64,371</text><circle cx="712.0" cy="498" r="5" fill="#dc2626"/><text x="712.0" y="520" fill="#374151" font-size="12" text-anchor="middle">目标一 62,953</text><circle cx="814.0" cy="498" r="5" fill="#dc2626"/><text x="814.0" y="520" fill="#374151" font-size="12" text-anchor="middle">目标二 62,599</text>
</svg>