<svg xmlns="http://www.w3.org/2000/svg" width="1080" height="560" viewBox="0 0 1080 560">
<rect width="100%" height="100%" fill="#ffffff"/>
<text x="72" y="23" fill="#111827" font-size="21" font-weight="800">DRAM 日线K线支撑压力图</text>
<text x="862" y="42" fill="#374151" font-size="15" text-anchor="end">最新价 77.83</text>
<line x1="72" y1="34" x2="72" y2="340" stroke="#d1d5db"/>
<line x1="72" y1="340" x2="862" y2="340" stroke="#d1d5db"/>
<line x1="72" y1="340.0" x2="862" y2="340.0" stroke="#f3f4f6"/>
<text x="8" y="345.0" fill="#4b5563" font-size="14">43.04</text>
<line x1="72" y1="263.5" x2="862" y2="263.5" stroke="#f3f4f6"/>
<text x="8" y="268.5" fill="#4b5563" font-size="14">55.73</text>
<line x1="72" y1="187.0" x2="862" y2="187.0" stroke="#f3f4f6"/>
<text x="8" y="192.0" fill="#4b5563" font-size="14">68.42</text>
<line x1="72" y1="110.5" x2="862" y2="110.5" stroke="#f3f4f6"/>
<text x="8" y="115.5" fill="#4b5563" font-size="14">81.10</text>
<line x1="72" y1="34.0" x2="862" y2="34.0" stroke="#f3f4f6"/>
<text x="8" y="39.0" fill="#4b5563" font-size="14">93.79</text>
<line x1="72.0" y1="286.6" x2="72.0" y2="309.6" stroke="#dc2626" stroke-width="1"/><rect x="67.5" y="290.6" width="9.0" height="8.8" fill="#dc2626" opacity="0.82" rx="1"/>
<line x1="95.9" y1="291.8" x2="95.9" y2="318.9" stroke="#16a34a" stroke-width="1"/><rect x="91.4" y="298.0" width="9.0" height="1.3" fill="#16a34a" opacity="0.82" rx="1"/>
<line x1="119.9" y1="285.7" x2="119.9" y2="310.2" stroke="#16a34a" stroke-width="1"/><rect x="115.4" y="287.6" width="9.0" height="10.5" fill="#16a34a" opacity="0.82" rx="1"/>
<line x1="143.8" y1="266.4" x2="143.8" y2="291.3" stroke="#16a34a" stroke-width="1"/><rect x="139.3" y="269.0" width="9.0" height="18.6" fill="#16a34a" opacity="0.82" rx="1"/>
<line x1="167.8" y1="268.7" x2="167.8" y2="282.4" stroke="#dc2626" stroke-width="1"/><rect x="163.3" y="269.0" width="9.0" height="13.2" fill="#dc2626" opacity="0.82" rx="1"/>
<line x1="191.7" y1="261.5" x2="191.7" y2="295.4" stroke="#16a34a" stroke-width="1"/><rect x="187.2" y="272.0" width="9.0" height="10.0" fill="#16a34a" opacity="0.82" rx="1"/>
<line x1="215.6" y1="261.3" x2="215.6" y2="273.3" stroke="#16a34a" stroke-width="1"/><rect x="211.1" y="265.7" width="9.0" height="6.3" fill="#16a34a" opacity="0.82" rx="1"/>
<line x1="239.6" y1="246.0" x2="239.6" y2="267.3" stroke="#16a34a" stroke-width="1"/><rect x="235.1" y="258.8" width="9.0" height="6.8" fill="#16a34a" opacity="0.82" rx="1"/>
<line x1="263.5" y1="217.8" x2="263.5" y2="269.9" stroke="#16a34a" stroke-width="1"/><rect x="259.0" y="224.4" width="9.0" height="34.4" fill="#16a34a" opacity="0.82" rx="1"/>
<line x1="287.5" y1="215.5" x2="287.5" y2="243.3" stroke="#dc2626" stroke-width="1"/><rect x="283.0" y="224.5" width="9.0" height="15.6" fill="#dc2626" opacity="0.82" rx="1"/>
<line x1="311.4" y1="215.1" x2="311.4" y2="253.2" stroke="#16a34a" stroke-width="1"/><rect x="306.9" y="219.4" width="9.0" height="20.7" fill="#16a34a" opacity="0.82" rx="1"/>
<line x1="335.3" y1="211.5" x2="335.3" y2="228.3" stroke="#16a34a" stroke-width="1"/><rect x="330.8" y="217.8" width="9.0" height="1.4" fill="#16a34a" opacity="0.82" rx="1"/>
<line x1="359.3" y1="201.8" x2="359.3" y2="220.3" stroke="#16a34a" stroke-width="1"/><rect x="354.8" y="202.8" width="9.0" height="15.0" fill="#16a34a" opacity="0.82" rx="1"/>
<line x1="383.2" y1="192.6" x2="383.2" y2="206.3" stroke="#16a34a" stroke-width="1"/><rect x="378.7" y="200.8" width="9.0" height="1.9" fill="#16a34a" opacity="0.82" rx="1"/>
<line x1="407.2" y1="183.0" x2="407.2" y2="211.5" stroke="#16a34a" stroke-width="1"/><rect x="402.7" y="188.3" width="9.0" height="12.4" fill="#16a34a" opacity="0.82" rx="1"/>
<line x1="431.1" y1="176.4" x2="431.1" y2="205.1" stroke="#16a34a" stroke-width="1"/><rect x="426.6" y="180.8" width="9.0" height="7.7" fill="#16a34a" opacity="0.82" rx="1"/>
<line x1="455.0" y1="175.5" x2="455.0" y2="199.2" stroke="#dc2626" stroke-width="1"/><rect x="450.5" y="180.7" width="9.0" height="16.6" fill="#dc2626" opacity="0.82" rx="1"/>
<line x1="479.0" y1="189.4" x2="479.0" y2="218.6" stroke="#dc2626" stroke-width="1"/><rect x="474.5" y="197.3" width="9.0" height="20.2" fill="#dc2626" opacity="0.82" rx="1"/>
<line x1="502.9" y1="212.8" x2="502.9" y2="277.2" stroke="#dc2626" stroke-width="1"/><rect x="498.4" y="217.5" width="9.0" height="47.8" fill="#dc2626" opacity="0.82" rx="1"/>
<line x1="526.8" y1="259.1" x2="526.8" y2="282.9" stroke="#16a34a" stroke-width="1"/><rect x="522.3" y="263.5" width="9.0" height="1.9" fill="#16a34a" opacity="0.82" rx="1"/>
<line x1="550.8" y1="238.8" x2="550.8" y2="267.9" stroke="#16a34a" stroke-width="1"/><rect x="546.3" y="259.1" width="9.0" height="4.4" fill="#16a34a" opacity="0.82" rx="1"/>
<line x1="574.7" y1="227.7" x2="574.7" y2="261.7" stroke="#16a34a" stroke-width="1"/><rect x="570.2" y="232.4" width="9.0" height="26.8" fill="#16a34a" opacity="0.82" rx="1"/>
<line x1="598.7" y1="212.4" x2="598.7" y2="265.2" stroke="#dc2626" stroke-width="1"/><rect x="594.2" y="232.3" width="9.0" height="7.0" fill="#dc2626" opacity="0.82" rx="1"/>
<line x1="622.6" y1="228.5" x2="622.6" y2="264.3" stroke="#dc2626" stroke-width="1"/><rect x="618.1" y="239.3" width="9.0" height="19.9" fill="#dc2626" opacity="0.82" rx="1"/>
<line x1="646.5" y1="197.4" x2="646.5" y2="260.7" stroke="#16a34a" stroke-width="1"/><rect x="642.0" y="201.4" width="9.0" height="57.6" fill="#16a34a" opacity="0.82" rx="1"/>
<line x1="670.5" y1="200.5" x2="670.5" y2="224.1" stroke="#dc2626" stroke-width="1"/><rect x="666.0" y="201.5" width="9.0" height="2.2" fill="#dc2626" opacity="0.82" rx="1"/>
<line x1="694.4" y1="201.7" x2="694.4" y2="214.3" stroke="#16a34a" stroke-width="1"/><rect x="689.9" y="203.0" width="9.0" height="1.2" fill="#16a34a" opacity="0.82" rx="1"/>
<line x1="718.4" y1="182.1" x2="718.4" y2="204.2" stroke="#16a34a" stroke-width="1"/><rect x="713.9" y="187.9" width="9.0" height="15.0" fill="#16a34a" opacity="0.82" rx="1"/>
<line x1="742.3" y1="169.3" x2="742.3" y2="193.2" stroke="#16a34a" stroke-width="1"/><rect x="737.8" y="172.3" width="9.0" height="15.7" fill="#16a34a" opacity="0.82" rx="1"/>
<line x1="766.2" y1="158.9" x2="766.2" y2="190.8" stroke="#dc2626" stroke-width="1"/><rect x="761.7" y="172.4" width="9.0" height="11.7" fill="#dc2626" opacity="0.82" rx="1"/>
<line x1="790.2" y1="157.6" x2="790.2" y2="184.3" stroke="#16a34a" stroke-width="1"/><rect x="785.7" y="162.6" width="9.0" height="21.6" fill="#16a34a" opacity="0.82" rx="1"/>
<line x1="814.1" y1="126.0" x2="814.1" y2="164.1" stroke="#16a34a" stroke-width="1"/><rect x="809.6" y="127.8" width="9.0" height="34.7" fill="#16a34a" opacity="0.82" rx="1"/>
<line x1="838.1" y1="125.0" x2="838.1" y2="148.2" stroke="#dc2626" stroke-width="1"/><rect x="833.6" y="127.8" width="9.0" height="3.6" fill="#dc2626" opacity="0.82" rx="1"/>
<line x1="862.0" y1="128.4" x2="862.0" y2="131.8" stroke="#16a34a" stroke-width="1"/><rect x="857.5" y="130.2" width="9.0" height="1.3" fill="#16a34a" opacity="0.82" rx="1"/>
<line x1="72" y1="175.3" x2="862" y2="175.3" stroke="#16a34a" stroke-width="1.8" stroke-dasharray="6 4" /><rect x="874" y="155.3" width="166" height="23" rx="5" fill="#ffffff" stroke="#16a34a" opacity="0.97"/><text x="881" y="171.3" fill="#16a34a" font-size="15" font-weight="700">支撑 70.35</text>
<line x1="72" y1="55.1" x2="862" y2="55.1" stroke="#dc2626" stroke-width="1.8" stroke-dasharray="6 4" /><rect x="874" y="35.1" width="166" height="23" rx="5" fill="#ffffff" stroke="#dc2626" opacity="0.97"/><text x="881" y="51.1" fill="#dc2626" font-size="15" font-weight="700">压力 90.29</text>
<line x1="72" y1="130.2" x2="862" y2="130.2" stroke="#111827" stroke-width="1.8" stroke-dasharray="2 2" /><rect x="874" y="110.2" width="166" height="23" rx="5" fill="#ffffff" stroke="#111827" opacity="0.97"/><text x="881" y="126.2" fill="#111827" font-size="15" font-weight="700">现价 77.83</text>
<text x="72" y="396" fill="#16a34a" font-size="14" font-weight="700">日线做多计划</text><rect x="72" y="404" width="790" height="48" rx="6" fill="#f9fafb" stroke="#e5e7eb"/><line x1="94" y1="412" x2="840" y2="412" stroke="#16a34a" stroke-width="3"/><circle cx="132.0" cy="412" r="5" fill="#16a34a"/><text x="132.0" y="434" fill="#374151" font-size="12" text-anchor="middle">入场 止跌/突破回踩</text><circle cx="451.2" cy="412" r="5" fill="#16a34a"/><text x="451.2" y="434" fill="#374151" font-size="12" text-anchor="middle">止损 70.35</text><circle cx="712.0" cy="412" r="5" fill="#16a34a"/><text x="712.0" y="434" fill="#374151" font-size="12" text-anchor="middle">目标一 90.29</text><circle cx="814.0" cy="412" r="5" fill="#16a34a"/><text x="814.0" y="434" fill="#374151" font-size="12" text-anchor="middle">目标二 97.77</text>
<text x="72" y="482" fill="#dc2626" font-size="14" font-weight="700">日线做空计划</text><rect x="72" y="490" width="790" height="48" rx="6" fill="#f9fafb" stroke="#e5e7eb"/><line x1="94" y1="498" x2="840" y2="498" stroke="#dc2626" stroke-width="3"/><circle cx="132.0" cy="498" r="5" fill="#dc2626"/><text x="132.0" y="520" fill="#374151" font-size="12" text-anchor="middle">入场 反弹承压/破位回抽</text><circle cx="451.2" cy="498" r="5" fill="#dc2626"/><text x="451.2" y="520" fill="#374151" font-size="12" text-anchor="middle">止损 90.29</text><circle cx="712.0" cy="498" r="5" fill="#dc2626"/><text x="712.0" y="520" fill="#374151" font-size="12" text-anchor="middle">目标一 70.35</text><circle cx="814.0" cy="498" r="5" fill="#dc2626"/><text x="814.0" y="520" fill="#374151" font-size="12" text-anchor="middle">目标二 65.37</text>
</svg>