<svg xmlns="http://www.w3.org/2000/svg" width="1080" height="560" viewBox="0 0 1080 560">
<rect width="100%" height="100%" fill="#ffffff"/>
<text x="72" y="23" fill="#111827" font-size="21" font-weight="800">BTC 小时线K线支撑压力图</text>
<text x="862" y="42" fill="#374151" font-size="15" text-anchor="end">最新价 63,632</text>
<line x1="72" y1="34" x2="72" y2="340" stroke="#d1d5db"/>
<line x1="72" y1="340" x2="862" y2="340" stroke="#d1d5db"/>
<line x1="72" y1="340.0" x2="862" y2="340.0" stroke="#f3f4f6"/>
<text x="8" y="345.0" fill="#4b5563" font-size="14">61,897</text>
<line x1="72" y1="263.5" x2="862" y2="263.5" stroke="#f3f4f6"/>
<text x="8" y="268.5" fill="#4b5563" font-size="14">63,111</text>
<line x1="72" y1="187.0" x2="862" y2="187.0" stroke="#f3f4f6"/>
<text x="8" y="192.0" fill="#4b5563" font-size="14">64,326</text>
<line x1="72" y1="110.5" x2="862" y2="110.5" stroke="#f3f4f6"/>
<text x="8" y="115.5" fill="#4b5563" font-size="14">65,540</text>
<line x1="72" y1="34.0" x2="862" y2="34.0" stroke="#f3f4f6"/>
<text x="8" y="39.0" fill="#4b5563" font-size="14">66,754</text>
<line x1="72.0" y1="66.4" x2="72.0" y2="123.8" stroke="#dc2626" stroke-width="1"/><rect x="69.3" y="80.7" width="5.4" height="24.1" fill="#dc2626" opacity="0.82" rx="1"/>
<line x1="80.9" y1="82.7" x2="80.9" y2="108.0" stroke="#16a34a" stroke-width="1"/><rect x="78.2" y="91.5" width="5.4" height="13.3" fill="#16a34a" opacity="0.82" rx="1"/>
<line x1="89.8" y1="85.8" x2="89.8" y2="102.0" stroke="#dc2626" stroke-width="1"/><rect x="87.0" y="91.5" width="5.4" height="7.0" fill="#dc2626" opacity="0.82" rx="1"/>
<line x1="98.6" y1="82.0" x2="98.6" y2="101.9" stroke="#16a34a" stroke-width="1"/><rect x="95.9" y="84.9" width="5.4" height="13.6" fill="#16a34a" opacity="0.82" rx="1"/>
<line x1="107.5" y1="66.0" x2="107.5" y2="96.2" stroke="#dc2626" stroke-width="1"/><rect x="104.8" y="84.9" width="5.4" height="7.8" fill="#dc2626" opacity="0.82" rx="1"/>
<line x1="116.4" y1="92.7" x2="116.4" y2="111.2" stroke="#dc2626" stroke-width="1"/><rect x="113.7" y="92.7" width="5.4" height="10.7" fill="#dc2626" opacity="0.82" rx="1"/>
<line x1="125.3" y1="92.1" x2="125.3" y2="109.2" stroke="#16a34a" stroke-width="1"/><rect x="122.5" y="92.6" width="5.4" height="10.8" fill="#16a34a" opacity="0.82" rx="1"/>
<line x1="134.1" y1="87.3" x2="134.1" y2="106.1" stroke="#dc2626" stroke-width="1"/><rect x="131.4" y="92.6" width="5.4" height="5.2" fill="#dc2626" opacity="0.82" rx="1"/>
<line x1="143.0" y1="90.6" x2="143.0" y2="103.9" stroke="#16a34a" stroke-width="1"/><rect x="140.3" y="97.6" width="5.4" height="1.2" fill="#16a34a" opacity="0.82" rx="1"/>
<line x1="151.9" y1="93.8" x2="151.9" y2="108.0" stroke="#dc2626" stroke-width="1"/><rect x="149.2" y="97.6" width="5.4" height="6.3" fill="#dc2626" opacity="0.82" rx="1"/>
<line x1="160.8" y1="92.8" x2="160.8" y2="103.9" stroke="#16a34a" stroke-width="1"/><rect x="158.0" y="101.7" width="5.4" height="2.2" fill="#16a34a" opacity="0.82" rx="1"/>
<line x1="169.6" y1="86.2" x2="169.6" y2="117.6" stroke="#16a34a" stroke-width="1"/><rect x="166.9" y="87.7" width="5.4" height="14.0" fill="#16a34a" opacity="0.82" rx="1"/>
<line x1="178.5" y1="75.7" x2="178.5" y2="97.7" stroke="#dc2626" stroke-width="1"/><rect x="175.8" y="87.7" width="5.4" height="1.8" fill="#dc2626" opacity="0.82" rx="1"/>
<line x1="187.4" y1="89.5" x2="187.4" y2="102.2" stroke="#dc2626" stroke-width="1"/><rect x="184.7" y="89.5" width="5.4" height="3.4" fill="#dc2626" opacity="0.82" rx="1"/>
<line x1="196.3" y1="80.3" x2="196.3" y2="97.6" stroke="#16a34a" stroke-width="1"/><rect x="193.5" y="90.8" width="5.4" height="2.1" fill="#16a34a" opacity="0.82" rx="1"/>
<line x1="205.1" y1="84.8" x2="205.1" y2="100.2" stroke="#dc2626" stroke-width="1"/><rect x="202.4" y="90.8" width="5.4" height="3.6" fill="#dc2626" opacity="0.82" rx="1"/>
<line x1="214.0" y1="89.7" x2="214.0" y2="110.8" stroke="#dc2626" stroke-width="1"/><rect x="211.3" y="94.4" width="5.4" height="13.0" fill="#dc2626" opacity="0.82" rx="1"/>
<line x1="222.9" y1="101.7" x2="222.9" y2="131.9" stroke="#dc2626" stroke-width="1"/><rect x="220.2" y="107.4" width="5.4" height="5.4" fill="#dc2626" opacity="0.82" rx="1"/>
<line x1="231.8" y1="109.9" x2="231.8" y2="157.1" stroke="#dc2626" stroke-width="1"/><rect x="229.1" y="112.8" width="5.4" height="38.7" fill="#dc2626" opacity="0.82" rx="1"/>
<line x1="240.7" y1="141.7" x2="240.7" y2="157.1" stroke="#dc2626" stroke-width="1"/><rect x="237.9" y="151.5" width="5.4" height="1.2" fill="#dc2626" opacity="0.82" rx="1"/>
<line x1="249.5" y1="146.8" x2="249.5" y2="161.3" stroke="#dc2626" stroke-width="1"/><rect x="246.8" y="152.1" width="5.4" height="6.9" fill="#dc2626" opacity="0.82" rx="1"/>
<line x1="258.4" y1="154.9" x2="258.4" y2="174.4" stroke="#16a34a" stroke-width="1"/><rect x="255.7" y="158.7" width="5.4" height="1.2" fill="#16a34a" opacity="0.82" rx="1"/>
<line x1="267.3" y1="139.5" x2="267.3" y2="172.8" stroke="#16a34a" stroke-width="1"/><rect x="264.6" y="144.2" width="5.4" height="14.5" fill="#16a34a" opacity="0.82" rx="1"/>
<line x1="276.2" y1="123.5" x2="276.2" y2="156.9" stroke="#16a34a" stroke-width="1"/><rect x="273.4" y="129.8" width="5.4" height="14.3" fill="#16a34a" opacity="0.82" rx="1"/>
<line x1="285.0" y1="117.2" x2="285.0" y2="162.0" stroke="#dc2626" stroke-width="1"/><rect x="282.3" y="129.9" width="5.4" height="10.1" fill="#dc2626" opacity="0.82" rx="1"/>
<line x1="293.9" y1="92.0" x2="293.9" y2="148.1" stroke="#16a34a" stroke-width="1"/><rect x="291.2" y="99.6" width="5.4" height="40.3" fill="#16a34a" opacity="0.82" rx="1"/>
<line x1="302.8" y1="55.1" x2="302.8" y2="101.9" stroke="#16a34a" stroke-width="1"/><rect x="300.1" y="92.2" width="5.4" height="7.4" fill="#16a34a" opacity="0.82" rx="1"/>
<line x1="311.7" y1="71.4" x2="311.7" y2="96.9" stroke="#16a34a" stroke-width="1"/><rect x="308.9" y="76.9" width="5.4" height="15.3" fill="#16a34a" opacity="0.82" rx="1"/>
<line x1="320.5" y1="76.1" x2="320.5" y2="160.5" stroke="#dc2626" stroke-width="1"/><rect x="317.8" y="76.9" width="5.4" height="37.3" fill="#dc2626" opacity="0.82" rx="1"/>
<line x1="329.4" y1="104.7" x2="329.4" y2="206.6" stroke="#dc2626" stroke-width="1"/><rect x="326.7" y="114.2" width="5.4" height="76.2" fill="#dc2626" opacity="0.82" rx="1"/>
<line x1="338.3" y1="178.5" x2="338.3" y2="198.9" stroke="#16a34a" stroke-width="1"/><rect x="335.6" y="181.9" width="5.4" height="8.5" fill="#16a34a" opacity="0.82" rx="1"/>
<line x1="347.2" y1="180.6" x2="347.2" y2="201.0" stroke="#dc2626" stroke-width="1"/><rect x="344.4" y="181.9" width="5.4" height="11.1" fill="#dc2626" opacity="0.82" rx="1"/>
<line x1="356.0" y1="181.3" x2="356.0" y2="215.0" stroke="#16a34a" stroke-width="1"/><rect x="353.3" y="190.8" width="5.4" height="2.3" fill="#16a34a" opacity="0.82" rx="1"/>
<line x1="364.9" y1="176.3" x2="364.9" y2="193.9" stroke="#16a34a" stroke-width="1"/><rect x="362.2" y="177.7" width="5.4" height="13.1" fill="#16a34a" opacity="0.82" rx="1"/>
<line x1="373.8" y1="164.9" x2="373.8" y2="180.9" stroke="#dc2626" stroke-width="1"/><rect x="371.1" y="177.7" width="5.4" height="2.5" fill="#dc2626" opacity="0.82" rx="1"/>
<line x1="382.7" y1="158.4" x2="382.7" y2="180.5" stroke="#16a34a" stroke-width="1"/><rect x="380.0" y="174.7" width="5.4" height="5.6" fill="#16a34a" opacity="0.82" rx="1"/>
<line x1="391.6" y1="160.3" x2="391.6" y2="179.0" stroke="#16a34a" stroke-width="1"/><rect x="388.8" y="166.4" width="5.4" height="8.3" fill="#16a34a" opacity="0.82" rx="1"/>
<line x1="400.4" y1="166.4" x2="400.4" y2="193.1" stroke="#dc2626" stroke-width="1"/><rect x="397.7" y="166.4" width="5.4" height="25.0" fill="#dc2626" opacity="0.82" rx="1"/>
<line x1="409.3" y1="187.1" x2="409.3" y2="221.1" stroke="#dc2626" stroke-width="1"/><rect x="406.6" y="191.5" width="5.4" height="25.5" fill="#dc2626" opacity="0.82" rx="1"/>
<line x1="418.2" y1="207.5" x2="418.2" y2="228.9" stroke="#16a34a" stroke-width="1"/><rect x="415.5" y="209.9" width="5.4" height="7.0" fill="#16a34a" opacity="0.82" rx="1"/>
<line x1="427.1" y1="201.4" x2="427.1" y2="219.4" stroke="#16a34a" stroke-width="1"/><rect x="424.3" y="204.1" width="5.4" height="5.9" fill="#16a34a" opacity="0.82" rx="1"/>
<line x1="435.9" y1="176.6" x2="435.9" y2="208.4" stroke="#16a34a" stroke-width="1"/><rect x="433.2" y="177.9" width="5.4" height="26.2" fill="#16a34a" opacity="0.82" rx="1"/>
<line x1="444.8" y1="167.7" x2="444.8" y2="185.5" stroke="#dc2626" stroke-width="1"/><rect x="442.1" y="177.9" width="5.4" height="6.3" fill="#dc2626" opacity="0.82" rx="1"/>
<line x1="453.7" y1="179.2" x2="453.7" y2="197.3" stroke="#dc2626" stroke-width="1"/><rect x="451.0" y="184.2" width="5.4" height="12.4" fill="#dc2626" opacity="0.82" rx="1"/>
<line x1="462.6" y1="195.0" x2="462.6" y2="215.1" stroke="#dc2626" stroke-width="1"/><rect x="459.8" y="196.6" width="5.4" height="7.7" fill="#dc2626" opacity="0.82" rx="1"/>
<line x1="471.4" y1="196.4" x2="471.4" y2="216.7" stroke="#dc2626" stroke-width="1"/><rect x="468.7" y="204.4" width="5.4" height="6.9" fill="#dc2626" opacity="0.82" rx="1"/>
<line x1="480.3" y1="183.7" x2="480.3" y2="214.3" stroke="#16a34a" stroke-width="1"/><rect x="477.6" y="185.7" width="5.4" height="25.6" fill="#16a34a" opacity="0.82" rx="1"/>
<line x1="489.2" y1="180.8" x2="489.2" y2="223.1" stroke="#dc2626" stroke-width="1"/><rect x="486.5" y="185.7" width="5.4" height="24.8" fill="#dc2626" opacity="0.82" rx="1"/>
<line x1="498.1" y1="196.1" x2="498.1" y2="234.9" stroke="#dc2626" stroke-width="1"/><rect x="495.3" y="210.5" width="5.4" height="10.6" fill="#dc2626" opacity="0.82" rx="1"/>
<line x1="506.9" y1="220.3" x2="506.9" y2="318.9" stroke="#dc2626" stroke-width="1"/><rect x="504.2" y="221.1" width="5.4" height="91.1" fill="#dc2626" opacity="0.82" rx="1"/>
<line x1="515.8" y1="283.8" x2="515.8" y2="314.1" stroke="#16a34a" stroke-width="1"/><rect x="513.1" y="291.7" width="5.4" height="20.6" fill="#16a34a" opacity="0.82" rx="1"/>
<line x1="524.7" y1="287.5" x2="524.7" y2="318.3" stroke="#dc2626" stroke-width="1"/><rect x="522.0" y="291.7" width="5.4" height="5.4" fill="#dc2626" opacity="0.82" rx="1"/>
<line x1="533.6" y1="274.8" x2="533.6" y2="298.7" stroke="#16a34a" stroke-width="1"/><rect x="530.9" y="290.5" width="5.4" height="6.6" fill="#16a34a" opacity="0.82" rx="1"/>
<line x1="542.4" y1="271.5" x2="542.4" y2="295.2" stroke="#16a34a" stroke-width="1"/><rect x="539.7" y="275.2" width="5.4" height="15.2" fill="#16a34a" opacity="0.82" rx="1"/>
<line x1="551.3" y1="253.7" x2="551.3" y2="275.2" stroke="#16a34a" stroke-width="1"/><rect x="548.6" y="266.5" width="5.4" height="8.7" fill="#16a34a" opacity="0.82" rx="1"/>
<line x1="560.2" y1="264.3" x2="560.2" y2="281.1" stroke="#dc2626" stroke-width="1"/><rect x="557.5" y="266.5" width="5.4" height="8.0" fill="#dc2626" opacity="0.82" rx="1"/>
<line x1="569.1" y1="272.9" x2="569.1" y2="288.8" stroke="#dc2626" stroke-width="1"/><rect x="566.4" y="274.5" width="5.4" height="5.2" fill="#dc2626" opacity="0.82" rx="1"/>
<line x1="578.0" y1="273.0" x2="578.0" y2="288.3" stroke="#16a34a" stroke-width="1"/><rect x="575.2" y="275.3" width="5.4" height="4.5" fill="#16a34a" opacity="0.82" rx="1"/>
<line x1="586.8" y1="266.3" x2="586.8" y2="282.3" stroke="#16a34a" stroke-width="1"/><rect x="584.1" y="271.0" width="5.4" height="4.3" fill="#16a34a" opacity="0.82" rx="1"/>
<line x1="595.7" y1="265.9" x2="595.7" y2="282.2" stroke="#16a34a" stroke-width="1"/><rect x="593.0" y="270.9" width="5.4" height="1.2" fill="#16a34a" opacity="0.82" rx="1"/>
<line x1="604.6" y1="265.0" x2="604.6" y2="279.5" stroke="#dc2626" stroke-width="1"/><rect x="601.9" y="270.9" width="5.4" height="1.3" fill="#dc2626" opacity="0.82" rx="1"/>
<line x1="613.5" y1="270.2" x2="613.5" y2="318.6" stroke="#dc2626" stroke-width="1"/><rect x="610.7" y="272.1" width="5.4" height="14.4" fill="#dc2626" opacity="0.82" rx="1"/>
<line x1="622.3" y1="277.5" x2="622.3" y2="309.8" stroke="#dc2626" stroke-width="1"/><rect x="619.6" y="286.6" width="5.4" height="20.4" fill="#dc2626" opacity="0.82" rx="1"/>
<line x1="631.2" y1="288.5" x2="631.2" y2="307.2" stroke="#16a34a" stroke-width="1"/><rect x="628.5" y="289.0" width="5.4" height="18.0" fill="#16a34a" opacity="0.82" rx="1"/>
<line x1="640.1" y1="277.5" x2="640.1" y2="290.0" stroke="#16a34a" stroke-width="1"/><rect x="637.4" y="279.0" width="5.4" height="10.0" fill="#16a34a" opacity="0.82" rx="1"/>
<line x1="649.0" y1="277.0" x2="649.0" y2="304.2" stroke="#dc2626" stroke-width="1"/><rect x="646.2" y="279.0" width="5.4" height="17.2" fill="#dc2626" opacity="0.82" rx="1"/>
<line x1="657.8" y1="285.8" x2="657.8" y2="301.7" stroke="#dc2626" stroke-width="1"/><rect x="655.1" y="296.2" width="5.4" height="1.2" fill="#dc2626" opacity="0.82" rx="1"/>
<line x1="666.7" y1="294.3" x2="666.7" y2="316.4" stroke="#dc2626" stroke-width="1"/><rect x="664.0" y="297.2" width="5.4" height="14.0" fill="#dc2626" opacity="0.82" rx="1"/>
<line x1="675.6" y1="297.6" x2="675.6" y2="311.6" stroke="#16a34a" stroke-width="1"/><rect x="672.9" y="301.6" width="5.4" height="9.7" fill="#16a34a" opacity="0.82" rx="1"/>
<line x1="684.5" y1="291.7" x2="684.5" y2="307.1" stroke="#16a34a" stroke-width="1"/><rect x="681.8" y="295.7" width="5.4" height="5.9" fill="#16a34a" opacity="0.82" rx="1"/>
<line x1="693.3" y1="280.3" x2="693.3" y2="313.7" stroke="#16a34a" stroke-width="1"/><rect x="690.6" y="283.2" width="5.4" height="12.6" fill="#16a34a" opacity="0.82" rx="1"/>
<line x1="702.2" y1="244.7" x2="702.2" y2="293.9" stroke="#16a34a" stroke-width="1"/><rect x="699.5" y="259.5" width="5.4" height="23.6" fill="#16a34a" opacity="0.82" rx="1"/>
<line x1="711.1" y1="245.4" x2="711.1" y2="272.2" stroke="#16a34a" stroke-width="1"/><rect x="708.4" y="259.5" width="5.4" height="1.2" fill="#16a34a" opacity="0.82" rx="1"/>
<line x1="720.0" y1="253.7" x2="720.0" y2="271.0" stroke="#16a34a" stroke-width="1"/><rect x="717.3" y="258.4" width="5.4" height="1.2" fill="#16a34a" opacity="0.82" rx="1"/>
<line x1="728.9" y1="246.8" x2="728.9" y2="277.0" stroke="#dc2626" stroke-width="1"/><rect x="726.1" y="258.4" width="5.4" height="15.7" fill="#dc2626" opacity="0.82" rx="1"/>
<line x1="737.7" y1="257.1" x2="737.7" y2="280.8" stroke="#16a34a" stroke-width="1"/><rect x="735.0" y="260.0" width="5.4" height="14.0" fill="#16a34a" opacity="0.82" rx="1"/>
<line x1="746.6" y1="259.5" x2="746.6" y2="273.2" stroke="#dc2626" stroke-width="1"/><rect x="743.9" y="260.0" width="5.4" height="5.5" fill="#dc2626" opacity="0.82" rx="1"/>
<line x1="755.5" y1="263.1" x2="755.5" y2="276.4" stroke="#dc2626" stroke-width="1"/><rect x="752.8" y="265.5" width="5.4" height="4.9" fill="#dc2626" opacity="0.82" rx="1"/>
<line x1="764.4" y1="255.0" x2="764.4" y2="275.2" stroke="#16a34a" stroke-width="1"/><rect x="761.6" y="256.8" width="5.4" height="13.6" fill="#16a34a" opacity="0.82" rx="1"/>
<line x1="773.2" y1="254.5" x2="773.2" y2="269.0" stroke="#dc2626" stroke-width="1"/><rect x="770.5" y="256.8" width="5.4" height="10.7" fill="#dc2626" opacity="0.82" rx="1"/>
<line x1="782.1" y1="248.8" x2="782.1" y2="269.6" stroke="#16a34a" stroke-width="1"/><rect x="779.4" y="252.4" width="5.4" height="15.1" fill="#16a34a" opacity="0.82" rx="1"/>
<line x1="791.0" y1="229.9" x2="791.0" y2="254.8" stroke="#16a34a" stroke-width="1"/><rect x="788.3" y="238.2" width="5.4" height="14.2" fill="#16a34a" opacity="0.82" rx="1"/>
<line x1="799.9" y1="222.8" x2="799.9" y2="243.1" stroke="#dc2626" stroke-width="1"/><rect x="797.1" y="238.2" width="5.4" height="1.2" fill="#dc2626" opacity="0.82" rx="1"/>
<line x1="808.7" y1="233.1" x2="808.7" y2="247.3" stroke="#16a34a" stroke-width="1"/><rect x="806.0" y="235.8" width="5.4" height="3.4" fill="#16a34a" opacity="0.82" rx="1"/>
<line x1="817.6" y1="235.8" x2="817.6" y2="251.5" stroke="#dc2626" stroke-width="1"/><rect x="814.9" y="235.8" width="5.4" height="15.5" fill="#dc2626" opacity="0.82" rx="1"/>
<line x1="826.5" y1="239.8" x2="826.5" y2="252.7" stroke="#16a34a" stroke-width="1"/><rect x="823.8" y="242.8" width="5.4" height="8.5" fill="#16a34a" opacity="0.82" rx="1"/>
<line x1="835.4" y1="233.3" x2="835.4" y2="247.4" stroke="#16a34a" stroke-width="1"/><rect x="832.6" y="235.6" width="5.4" height="7.1" fill="#16a34a" opacity="0.82" rx="1"/>
<line x1="844.2" y1="214.2" x2="844.2" y2="238.4" stroke="#16a34a" stroke-width="1"/><rect x="841.5" y="229.9" width="5.4" height="5.8" fill="#16a34a" opacity="0.82" rx="1"/>
<line x1="853.1" y1="224.5" x2="853.1" y2="232.2" stroke="#16a34a" stroke-width="1"/><rect x="850.4" y="225.8" width="5.4" height="4.1" fill="#16a34a" opacity="0.82" rx="1"/>
<line x1="862.0" y1="225.8" x2="862.0" y2="232.6" stroke="#dc2626" stroke-width="1"/><rect x="859.3" y="225.8" width="5.4" height="4.9" fill="#dc2626" opacity="0.82" rx="1"/>
<line x1="72" y1="254.6" x2="862" y2="254.6" stroke="#16a34a" stroke-width="1.8" stroke-dasharray="6 4" /><rect x="874" y="234.6" width="166" height="23" rx="5" fill="#ffffff" stroke="#16a34a" opacity="0.97"/><text x="881" y="250.6" fill="#16a34a" font-size="15" font-weight="700">日内支撑 63,253</text>
<line x1="72" y1="190.9" x2="862" y2="190.9" stroke="#dc2626" stroke-width="1.8" stroke-dasharray="6 4" /><rect x="874" y="170.9" width="166" height="23" rx="5" fill="#ffffff" stroke="#dc2626" opacity="0.97"/><text x="881" y="186.9" fill="#dc2626" font-size="15" font-weight="700">日内压力 64,264</text>
<line x1="72" y1="230.7" x2="862" y2="230.7" stroke="#111827" stroke-width="1.8" stroke-dasharray="2 2" /><rect x="874" y="210.7" width="166" height="23" rx="5" fill="#ffffff" stroke="#111827" opacity="0.97"/><text x="881" y="226.7" fill="#111827" font-size="15" font-weight="700">现价 63,632</text>
<text x="72" y="396" fill="#16a34a" font-size="14" font-weight="700">日内做多计划</text><rect x="72" y="404" width="790" height="48" rx="6" fill="#f9fafb" stroke="#e5e7eb"/><line x1="94" y1="412" x2="840" y2="412" stroke="#16a34a" stroke-width="3"/><circle cx="132.0" cy="412" r="5" fill="#16a34a"/><text x="132.0" y="434" fill="#374151" font-size="12" text-anchor="middle">入场 止跌/突破回踩</text><circle cx="451.2" cy="412" r="5" fill="#16a34a"/><text x="451.2" y="434" fill="#374151" font-size="12" text-anchor="middle">止损 63,253</text><circle cx="712.0" cy="412" r="5" fill="#16a34a"/><text x="712.0" y="434" fill="#374151" font-size="12" text-anchor="middle">目标一 64,264</text><circle cx="814.0" cy="412" r="5" fill="#16a34a"/><text x="814.0" y="434" fill="#374151" font-size="12" text-anchor="middle">目标二 64,516</text>
<text x="72" y="482" fill="#dc2626" font-size="14" font-weight="700">日内做空计划</text><rect x="72" y="490" width="790" height="48" rx="6" fill="#f9fafb" stroke="#e5e7eb"/><line x1="94" y1="498" x2="840" y2="498" stroke="#dc2626" stroke-width="3"/><circle cx="132.0" cy="498" r="5" fill="#dc2626"/><text x="132.0" y="520" fill="#374151" font-size="12" text-anchor="middle">入场 反弹承压/破位回抽</text><circle cx="451.2" cy="498" r="5" fill="#dc2626"/><text x="451.2" y="520" fill="#374151" font-size="12" text-anchor="middle">止损 64,264</text><circle cx="712.0" cy="498" r="5" fill="#dc2626"/><text x="712.0" y="520" fill="#374151" font-size="12" text-anchor="middle">目标一 63,253</text><circle cx="814.0" cy="498" r="5" fill="#dc2626"/><text x="814.0" y="520" fill="#374151" font-size="12" text-anchor="middle">目标二 63,000</text>
</svg>