<svg xmlns="http://www.w3.org/2000/svg" width="1080" height="560" viewBox="0 0 1080 560">
<rect width="100%" height="100%" fill="#ffffff"/>
<text x="72" y="23" fill="#111827" font-size="21" font-weight="800">DRAM 日线K线支撑压力图</text>
<text x="862" y="42" fill="#374151" font-size="15" text-anchor="end">最新价 80.23</text>
<line x1="72" y1="34" x2="72" y2="340" stroke="#d1d5db"/>
<line x1="72" y1="340" x2="862" y2="340" stroke="#d1d5db"/>
<line x1="72" y1="340.0" x2="862" y2="340.0" stroke="#f3f4f6"/>
<text x="8" y="345.0" fill="#4b5563" font-size="14">42.81</text>
<line x1="72" y1="263.5" x2="862" y2="263.5" stroke="#f3f4f6"/>
<text x="8" y="268.5" fill="#4b5563" font-size="14">56.34</text>
<line x1="72" y1="187.0" x2="862" y2="187.0" stroke="#f3f4f6"/>
<text x="8" y="192.0" fill="#4b5563" font-size="14">69.87</text>
<line x1="72" y1="110.5" x2="862" y2="110.5" stroke="#f3f4f6"/>
<text x="8" y="115.5" fill="#4b5563" font-size="14">83.40</text>
<line x1="72" y1="34.0" x2="862" y2="34.0" stroke="#f3f4f6"/>
<text x="8" y="39.0" fill="#4b5563" font-size="14">96.94</text>
<line x1="72.0" y1="288.7" x2="72.0" y2="310.1" stroke="#dc2626" stroke-width="1"/><rect x="67.5" y="292.3" width="9.0" height="8.3" fill="#dc2626" opacity="0.82" rx="1"/>
<line x1="95.9" y1="293.5" x2="95.9" y2="318.9" stroke="#16a34a" stroke-width="1"/><rect x="91.4" y="299.3" width="9.0" height="1.2" fill="#16a34a" opacity="0.82" rx="1"/>
<line x1="119.9" y1="287.7" x2="119.9" y2="310.8" stroke="#16a34a" stroke-width="1"/><rect x="115.4" y="289.6" width="9.0" height="9.8" fill="#16a34a" opacity="0.82" rx="1"/>
<line x1="143.8" y1="269.7" x2="143.8" y2="293.1" stroke="#16a34a" stroke-width="1"/><rect x="139.3" y="272.1" width="9.0" height="17.5" fill="#16a34a" opacity="0.82" rx="1"/>
<line x1="167.8" y1="271.9" x2="167.8" y2="284.7" stroke="#dc2626" stroke-width="1"/><rect x="163.3" y="272.1" width="9.0" height="12.4" fill="#dc2626" opacity="0.82" rx="1"/>
<line x1="191.7" y1="265.1" x2="191.7" y2="296.9" stroke="#16a34a" stroke-width="1"/><rect x="187.2" y="275.0" width="9.0" height="9.4" fill="#16a34a" opacity="0.82" rx="1"/>
<line x1="215.6" y1="264.9" x2="215.6" y2="276.1" stroke="#16a34a" stroke-width="1"/><rect x="211.1" y="269.0" width="9.0" height="5.9" fill="#16a34a" opacity="0.82" rx="1"/>
<line x1="239.6" y1="250.6" x2="239.6" y2="270.5" stroke="#16a34a" stroke-width="1"/><rect x="235.1" y="262.6" width="9.0" height="6.3" fill="#16a34a" opacity="0.82" rx="1"/>
<line x1="263.5" y1="224.2" x2="263.5" y2="272.9" stroke="#16a34a" stroke-width="1"/><rect x="259.0" y="230.3" width="9.0" height="32.3" fill="#16a34a" opacity="0.82" rx="1"/>
<line x1="287.5" y1="221.9" x2="287.5" y2="248.0" stroke="#dc2626" stroke-width="1"/><rect x="283.0" y="230.4" width="9.0" height="14.6" fill="#dc2626" opacity="0.82" rx="1"/>
<line x1="311.4" y1="221.5" x2="311.4" y2="257.3" stroke="#16a34a" stroke-width="1"/><rect x="306.9" y="225.6" width="9.0" height="19.4" fill="#16a34a" opacity="0.82" rx="1"/>
<line x1="335.3" y1="218.2" x2="335.3" y2="234.0" stroke="#16a34a" stroke-width="1"/><rect x="330.8" y="224.1" width="9.0" height="1.4" fill="#16a34a" opacity="0.82" rx="1"/>
<line x1="359.3" y1="209.1" x2="359.3" y2="226.4" stroke="#16a34a" stroke-width="1"/><rect x="354.8" y="210.0" width="9.0" height="14.1" fill="#16a34a" opacity="0.82" rx="1"/>
<line x1="383.2" y1="200.5" x2="383.2" y2="213.3" stroke="#16a34a" stroke-width="1"/><rect x="378.7" y="208.2" width="9.0" height="1.8" fill="#16a34a" opacity="0.82" rx="1"/>
<line x1="407.2" y1="191.5" x2="407.2" y2="218.2" stroke="#16a34a" stroke-width="1"/><rect x="402.7" y="196.4" width="9.0" height="11.6" fill="#16a34a" opacity="0.82" rx="1"/>
<line x1="431.1" y1="185.3" x2="431.1" y2="212.2" stroke="#16a34a" stroke-width="1"/><rect x="426.6" y="189.4" width="9.0" height="7.2" fill="#16a34a" opacity="0.82" rx="1"/>
<line x1="455.0" y1="184.5" x2="455.0" y2="206.6" stroke="#dc2626" stroke-width="1"/><rect x="450.5" y="189.3" width="9.0" height="15.5" fill="#dc2626" opacity="0.82" rx="1"/>
<line x1="479.0" y1="197.5" x2="479.0" y2="224.8" stroke="#dc2626" stroke-width="1"/><rect x="474.5" y="204.9" width="9.0" height="18.9" fill="#dc2626" opacity="0.82" rx="1"/>
<line x1="502.9" y1="219.5" x2="502.9" y2="279.8" stroke="#dc2626" stroke-width="1"/><rect x="498.4" y="223.9" width="9.0" height="44.8" fill="#dc2626" opacity="0.82" rx="1"/>
<line x1="526.8" y1="262.8" x2="526.8" y2="285.1" stroke="#16a34a" stroke-width="1"/><rect x="522.3" y="266.9" width="9.0" height="1.8" fill="#16a34a" opacity="0.82" rx="1"/>
<line x1="550.8" y1="243.8" x2="550.8" y2="271.1" stroke="#16a34a" stroke-width="1"/><rect x="546.3" y="262.9" width="9.0" height="4.1" fill="#16a34a" opacity="0.82" rx="1"/>
<line x1="574.7" y1="233.4" x2="574.7" y2="265.3" stroke="#16a34a" stroke-width="1"/><rect x="570.2" y="237.8" width="9.0" height="25.2" fill="#16a34a" opacity="0.82" rx="1"/>
<line x1="598.7" y1="219.1" x2="598.7" y2="268.5" stroke="#dc2626" stroke-width="1"/><rect x="594.2" y="237.7" width="9.0" height="6.6" fill="#dc2626" opacity="0.82" rx="1"/>
<line x1="622.6" y1="234.1" x2="622.6" y2="267.7" stroke="#dc2626" stroke-width="1"/><rect x="618.1" y="244.3" width="9.0" height="18.7" fill="#dc2626" opacity="0.82" rx="1"/>
<line x1="646.5" y1="205.0" x2="646.5" y2="264.3" stroke="#16a34a" stroke-width="1"/><rect x="642.0" y="208.8" width="9.0" height="54.0" fill="#16a34a" opacity="0.82" rx="1"/>
<line x1="670.5" y1="207.9" x2="670.5" y2="230.0" stroke="#dc2626" stroke-width="1"/><rect x="666.0" y="208.8" width="9.0" height="2.1" fill="#dc2626" opacity="0.82" rx="1"/>
<line x1="694.4" y1="209.0" x2="694.4" y2="220.8" stroke="#16a34a" stroke-width="1"/><rect x="689.9" y="210.2" width="9.0" height="1.2" fill="#16a34a" opacity="0.82" rx="1"/>
<line x1="718.4" y1="190.6" x2="718.4" y2="211.3" stroke="#16a34a" stroke-width="1"/><rect x="713.9" y="196.1" width="9.0" height="14.1" fill="#16a34a" opacity="0.82" rx="1"/>
<line x1="742.3" y1="178.6" x2="742.3" y2="201.1" stroke="#16a34a" stroke-width="1"/><rect x="737.8" y="181.5" width="9.0" height="14.7" fill="#16a34a" opacity="0.82" rx="1"/>
<line x1="766.2" y1="168.9" x2="766.2" y2="198.8" stroke="#dc2626" stroke-width="1"/><rect x="761.7" y="181.6" width="9.0" height="11.0" fill="#dc2626" opacity="0.82" rx="1"/>
<line x1="790.2" y1="167.7" x2="790.2" y2="192.7" stroke="#16a34a" stroke-width="1"/><rect x="785.7" y="172.3" width="9.0" height="20.2" fill="#16a34a" opacity="0.82" rx="1"/>
<line x1="814.1" y1="138.0" x2="814.1" y2="173.7" stroke="#16a34a" stroke-width="1"/><rect x="809.6" y="139.7" width="9.0" height="32.5" fill="#16a34a" opacity="0.82" rx="1"/>
<line x1="838.1" y1="137.1" x2="838.1" y2="158.9" stroke="#dc2626" stroke-width="1"/><rect x="833.6" y="139.7" width="9.0" height="3.4" fill="#dc2626" opacity="0.82" rx="1"/>
<line x1="862.0" y1="124.8" x2="862.0" y2="144.3" stroke="#16a34a" stroke-width="1"/><rect x="857.5" y="128.4" width="9.0" height="14.8" fill="#16a34a" opacity="0.82" rx="1"/>
<line x1="72" y1="172.4" x2="862" y2="172.4" stroke="#16a34a" stroke-width="1.8" stroke-dasharray="6 4" /><rect x="874" y="152.4" width="166" height="23" rx="5" fill="#ffffff" stroke="#16a34a" opacity="0.97"/><text x="881" y="168.4" fill="#16a34a" font-size="15" font-weight="700">支撑 72.45</text>
<line x1="72" y1="55.1" x2="862" y2="55.1" stroke="#dc2626" stroke-width="1.8" stroke-dasharray="6 4" /><rect x="874" y="35.1" width="166" height="23" rx="5" fill="#ffffff" stroke="#dc2626" opacity="0.97"/><text x="881" y="51.1" fill="#dc2626" font-size="15" font-weight="700">压力 93.20</text>
<line x1="72" y1="128.4" x2="862" y2="128.4" stroke="#111827" stroke-width="1.8" stroke-dasharray="2 2" /><rect x="874" y="108.4" width="166" height="23" rx="5" fill="#ffffff" stroke="#111827" opacity="0.97"/><text x="881" y="124.4" fill="#111827" font-size="15" font-weight="700">现价 80.23</text>
<text x="72" y="396" fill="#16a34a" font-size="14" font-weight="700">日线做多计划</text><rect x="72" y="404" width="790" height="48" rx="6" fill="#f9fafb" stroke="#e5e7eb"/><line x1="94" y1="412" x2="840" y2="412" stroke="#16a34a" stroke-width="3"/><circle cx="132.0" cy="412" r="5" fill="#16a34a"/><text x="132.0" y="434" fill="#374151" font-size="12" text-anchor="middle">入场 止跌/突破回踩</text><circle cx="451.2" cy="412" r="5" fill="#16a34a"/><text x="451.2" y="434" fill="#374151" font-size="12" text-anchor="middle">止损 72.45</text><circle cx="712.0" cy="412" r="5" fill="#16a34a"/><text x="712.0" y="434" fill="#374151" font-size="12" text-anchor="middle">目标一 93.20</text><circle cx="814.0" cy="412" r="5" fill="#16a34a"/><text x="814.0" y="434" fill="#374151" font-size="12" text-anchor="middle">目标二 100.99</text>
<text x="72" y="482" fill="#dc2626" font-size="14" font-weight="700">日线做空计划</text><rect x="72" y="490" width="790" height="48" rx="6" fill="#f9fafb" stroke="#e5e7eb"/><line x1="94" y1="498" x2="840" y2="498" stroke="#dc2626" stroke-width="3"/><circle cx="132.0" cy="498" r="5" fill="#dc2626"/><text x="132.0" y="520" fill="#374151" font-size="12" text-anchor="middle">入场 反弹承压/破位回抽</text><circle cx="451.2" cy="498" r="5" fill="#dc2626"/><text x="451.2" y="520" fill="#374151" font-size="12" text-anchor="middle">止损 93.20</text><circle cx="712.0" cy="498" r="5" fill="#dc2626"/><text x="712.0" y="520" fill="#374151" font-size="12" text-anchor="middle">目标一 72.45</text><circle cx="814.0" cy="498" r="5" fill="#dc2626"/><text x="814.0" y="520" fill="#374151" font-size="12" text-anchor="middle">目标二 67.26</text>
</svg>