<svg xmlns="http://www.w3.org/2000/svg" width="1080" height="560" viewBox="0 0 1080 560">
<rect width="100%" height="100%" fill="#ffffff"/>
<text x="72" y="23" fill="#111827" font-size="21" font-weight="800">HYPE 小时线K线支撑压力图</text>
<text x="862" y="42" fill="#374151" font-size="15" text-anchor="end">最新价 69.60</text>
<line x1="72" y1="34" x2="72" y2="340" stroke="#d1d5db"/>
<line x1="72" y1="340" x2="862" y2="340" stroke="#d1d5db"/>
<line x1="72" y1="340.0" x2="862" y2="340.0" stroke="#f3f4f6"/>
<text x="8" y="345.0" fill="#4b5563" font-size="14">64.73</text>
<line x1="72" y1="263.5" x2="862" y2="263.5" stroke="#f3f4f6"/>
<text x="8" y="268.5" fill="#4b5563" font-size="14">68.02</text>
<line x1="72" y1="187.0" x2="862" y2="187.0" stroke="#f3f4f6"/>
<text x="8" y="192.0" fill="#4b5563" font-size="14">71.32</text>
<line x1="72" y1="110.5" x2="862" y2="110.5" stroke="#f3f4f6"/>
<text x="8" y="115.5" fill="#4b5563" font-size="14">74.61</text>
<line x1="72" y1="34.0" x2="862" y2="34.0" stroke="#f3f4f6"/>
<text x="8" y="39.0" fill="#4b5563" font-size="14">77.91</text>
<line x1="72.0" y1="145.6" x2="72.0" y2="174.5" stroke="#16a34a" stroke-width="1"/><rect x="69.3" y="149.6" width="5.4" height="4.5" fill="#16a34a" opacity="0.82" rx="1"/>
<line x1="80.9" y1="122.2" x2="80.9" y2="158.9" stroke="#16a34a" stroke-width="1"/><rect x="78.2" y="131.2" width="5.4" height="17.7" fill="#16a34a" opacity="0.82" rx="1"/>
<line x1="89.8" y1="125.4" x2="89.8" y2="147.3" stroke="#dc2626" stroke-width="1"/><rect x="87.0" y="131.1" width="5.4" height="5.9" fill="#dc2626" opacity="0.82" rx="1"/>
<line x1="98.6" y1="68.0" x2="98.6" y2="141.7" stroke="#16a34a" stroke-width="1"/><rect x="95.9" y="92.2" width="5.4" height="44.9" fill="#16a34a" opacity="0.82" rx="1"/>
<line x1="107.5" y1="75.4" x2="107.5" y2="113.1" stroke="#16a34a" stroke-width="1"/><rect x="104.8" y="86.7" width="5.4" height="5.6" fill="#16a34a" opacity="0.82" rx="1"/>
<line x1="116.4" y1="55.1" x2="116.4" y2="104.3" stroke="#16a34a" stroke-width="1"/><rect x="113.7" y="55.3" width="5.4" height="31.4" fill="#16a34a" opacity="0.82" rx="1"/>
<line x1="125.3" y1="55.1" x2="125.3" y2="93.6" stroke="#dc2626" stroke-width="1"/><rect x="122.5" y="55.3" width="5.4" height="27.7" fill="#dc2626" opacity="0.82" rx="1"/>
<line x1="134.1" y1="64.6" x2="134.1" y2="142.2" stroke="#dc2626" stroke-width="1"/><rect x="131.4" y="82.9" width="5.4" height="55.0" fill="#dc2626" opacity="0.82" rx="1"/>
<line x1="143.0" y1="98.8" x2="143.0" y2="140.6" stroke="#16a34a" stroke-width="1"/><rect x="140.3" y="103.1" width="5.4" height="34.7" fill="#16a34a" opacity="0.82" rx="1"/>
<line x1="151.9" y1="93.8" x2="151.9" y2="139.4" stroke="#dc2626" stroke-width="1"/><rect x="149.2" y="103.2" width="5.4" height="29.3" fill="#dc2626" opacity="0.82" rx="1"/>
<line x1="160.8" y1="118.0" x2="160.8" y2="154.3" stroke="#16a34a" stroke-width="1"/><rect x="158.0" y="125.1" width="5.4" height="7.3" fill="#16a34a" opacity="0.82" rx="1"/>
<line x1="169.6" y1="102.5" x2="169.6" y2="162.9" stroke="#dc2626" stroke-width="1"/><rect x="166.9" y="125.1" width="5.4" height="27.6" fill="#dc2626" opacity="0.82" rx="1"/>
<line x1="178.5" y1="138.4" x2="178.5" y2="170.3" stroke="#dc2626" stroke-width="1"/><rect x="175.8" y="152.7" width="5.4" height="8.3" fill="#dc2626" opacity="0.82" rx="1"/>
<line x1="187.4" y1="138.7" x2="187.4" y2="168.7" stroke="#16a34a" stroke-width="1"/><rect x="184.7" y="139.7" width="5.4" height="21.6" fill="#16a34a" opacity="0.82" rx="1"/>
<line x1="196.3" y1="132.3" x2="196.3" y2="152.9" stroke="#16a34a" stroke-width="1"/><rect x="193.5" y="137.7" width="5.4" height="2.0" fill="#16a34a" opacity="0.82" rx="1"/>
<line x1="205.1" y1="125.2" x2="205.1" y2="149.4" stroke="#dc2626" stroke-width="1"/><rect x="202.4" y="137.8" width="5.4" height="1.2" fill="#dc2626" opacity="0.82" rx="1"/>
<line x1="214.0" y1="129.2" x2="214.0" y2="150.3" stroke="#16a34a" stroke-width="1"/><rect x="211.3" y="134.5" width="5.4" height="3.5" fill="#16a34a" opacity="0.82" rx="1"/>
<line x1="222.9" y1="127.6" x2="222.9" y2="160.5" stroke="#dc2626" stroke-width="1"/><rect x="220.2" y="134.5" width="5.4" height="18.9" fill="#dc2626" opacity="0.82" rx="1"/>
<line x1="231.8" y1="106.0" x2="231.8" y2="153.5" stroke="#16a34a" stroke-width="1"/><rect x="229.1" y="115.5" width="5.4" height="37.9" fill="#16a34a" opacity="0.82" rx="1"/>
<line x1="240.7" y1="103.6" x2="240.7" y2="122.9" stroke="#16a34a" stroke-width="1"/><rect x="237.9" y="105.2" width="5.4" height="10.4" fill="#16a34a" opacity="0.82" rx="1"/>
<line x1="249.5" y1="99.6" x2="249.5" y2="117.8" stroke="#dc2626" stroke-width="1"/><rect x="246.8" y="105.3" width="5.4" height="8.6" fill="#dc2626" opacity="0.82" rx="1"/>
<line x1="258.4" y1="93.8" x2="258.4" y2="117.5" stroke="#16a34a" stroke-width="1"/><rect x="255.7" y="113.0" width="5.4" height="1.2" fill="#16a34a" opacity="0.82" rx="1"/>
<line x1="267.3" y1="107.2" x2="267.3" y2="137.9" stroke="#dc2626" stroke-width="1"/><rect x="264.6" y="112.8" width="5.4" height="4.8" fill="#dc2626" opacity="0.82" rx="1"/>
<line x1="276.2" y1="116.7" x2="276.2" y2="152.6" stroke="#dc2626" stroke-width="1"/><rect x="273.4" y="117.6" width="5.4" height="20.7" fill="#dc2626" opacity="0.82" rx="1"/>
<line x1="285.0" y1="130.2" x2="285.0" y2="149.1" stroke="#16a34a" stroke-width="1"/><rect x="282.3" y="138.3" width="5.4" height="1.2" fill="#16a34a" opacity="0.82" rx="1"/>
<line x1="293.9" y1="136.4" x2="293.9" y2="171.0" stroke="#dc2626" stroke-width="1"/><rect x="291.2" y="138.3" width="5.4" height="23.6" fill="#dc2626" opacity="0.82" rx="1"/>
<line x1="302.8" y1="143.2" x2="302.8" y2="163.9" stroke="#16a34a" stroke-width="1"/><rect x="300.1" y="146.7" width="5.4" height="15.2" fill="#16a34a" opacity="0.82" rx="1"/>
<line x1="311.7" y1="146.3" x2="311.7" y2="168.8" stroke="#dc2626" stroke-width="1"/><rect x="308.9" y="146.7" width="5.4" height="18.9" fill="#dc2626" opacity="0.82" rx="1"/>
<line x1="320.5" y1="161.9" x2="320.5" y2="203.0" stroke="#dc2626" stroke-width="1"/><rect x="317.8" y="165.6" width="5.4" height="28.7" fill="#dc2626" opacity="0.82" rx="1"/>
<line x1="329.4" y1="178.8" x2="329.4" y2="218.9" stroke="#16a34a" stroke-width="1"/><rect x="326.7" y="184.6" width="5.4" height="9.5" fill="#16a34a" opacity="0.82" rx="1"/>
<line x1="338.3" y1="162.6" x2="338.3" y2="195.9" stroke="#16a34a" stroke-width="1"/><rect x="335.6" y="177.1" width="5.4" height="7.7" fill="#16a34a" opacity="0.82" rx="1"/>
<line x1="347.2" y1="156.1" x2="347.2" y2="188.9" stroke="#16a34a" stroke-width="1"/><rect x="344.4" y="167.3" width="5.4" height="9.7" fill="#16a34a" opacity="0.82" rx="1"/>
<line x1="356.0" y1="109.7" x2="356.0" y2="173.6" stroke="#16a34a" stroke-width="1"/><rect x="353.3" y="115.2" width="5.4" height="52.3" fill="#16a34a" opacity="0.82" rx="1"/>
<line x1="364.9" y1="60.2" x2="364.9" y2="115.1" stroke="#16a34a" stroke-width="1"/><rect x="362.2" y="93.7" width="5.4" height="21.4" fill="#16a34a" opacity="0.82" rx="1"/>
<line x1="373.8" y1="90.5" x2="373.8" y2="128.8" stroke="#dc2626" stroke-width="1"/><rect x="371.1" y="93.9" width="5.4" height="22.7" fill="#dc2626" opacity="0.82" rx="1"/>
<line x1="382.7" y1="92.2" x2="382.7" y2="154.2" stroke="#dc2626" stroke-width="1"/><rect x="380.0" y="116.7" width="5.4" height="15.4" fill="#dc2626" opacity="0.82" rx="1"/>
<line x1="391.6" y1="123.8" x2="391.6" y2="194.4" stroke="#dc2626" stroke-width="1"/><rect x="388.8" y="132.0" width="5.4" height="34.0" fill="#dc2626" opacity="0.82" rx="1"/>
<line x1="400.4" y1="152.3" x2="400.4" y2="182.3" stroke="#16a34a" stroke-width="1"/><rect x="397.7" y="162.0" width="5.4" height="3.1" fill="#16a34a" opacity="0.82" rx="1"/>
<line x1="409.3" y1="155.4" x2="409.3" y2="207.6" stroke="#dc2626" stroke-width="1"/><rect x="406.6" y="161.8" width="5.4" height="30.8" fill="#dc2626" opacity="0.82" rx="1"/>
<line x1="418.2" y1="180.1" x2="418.2" y2="212.9" stroke="#dc2626" stroke-width="1"/><rect x="415.5" y="192.6" width="5.4" height="2.6" fill="#dc2626" opacity="0.82" rx="1"/>
<line x1="427.1" y1="176.4" x2="427.1" y2="195.4" stroke="#16a34a" stroke-width="1"/><rect x="424.3" y="191.1" width="5.4" height="3.9" fill="#16a34a" opacity="0.82" rx="1"/>
<line x1="435.9" y1="159.8" x2="435.9" y2="192.4" stroke="#16a34a" stroke-width="1"/><rect x="433.2" y="164.6" width="5.4" height="26.4" fill="#16a34a" opacity="0.82" rx="1"/>
<line x1="444.8" y1="131.1" x2="444.8" y2="171.1" stroke="#16a34a" stroke-width="1"/><rect x="442.1" y="162.3" width="5.4" height="2.3" fill="#16a34a" opacity="0.82" rx="1"/>
<line x1="453.7" y1="153.1" x2="453.7" y2="171.9" stroke="#16a34a" stroke-width="1"/><rect x="451.0" y="159.5" width="5.4" height="2.8" fill="#16a34a" opacity="0.82" rx="1"/>
<line x1="462.6" y1="158.4" x2="462.6" y2="203.5" stroke="#dc2626" stroke-width="1"/><rect x="459.8" y="159.3" width="5.4" height="35.4" fill="#dc2626" opacity="0.82" rx="1"/>
<line x1="471.4" y1="191.0" x2="471.4" y2="245.9" stroke="#dc2626" stroke-width="1"/><rect x="468.7" y="194.8" width="5.4" height="40.1" fill="#dc2626" opacity="0.82" rx="1"/>
<line x1="480.3" y1="222.2" x2="480.3" y2="250.1" stroke="#16a34a" stroke-width="1"/><rect x="477.6" y="223.3" width="5.4" height="11.4" fill="#16a34a" opacity="0.82" rx="1"/>
<line x1="489.2" y1="187.9" x2="489.2" y2="227.7" stroke="#16a34a" stroke-width="1"/><rect x="486.5" y="188.4" width="5.4" height="35.4" fill="#16a34a" opacity="0.82" rx="1"/>
<line x1="498.1" y1="178.2" x2="498.1" y2="202.5" stroke="#16a34a" stroke-width="1"/><rect x="495.3" y="182.5" width="5.4" height="5.9" fill="#16a34a" opacity="0.82" rx="1"/>
<line x1="506.9" y1="153.3" x2="506.9" y2="190.9" stroke="#16a34a" stroke-width="1"/><rect x="504.2" y="174.1" width="5.4" height="8.1" fill="#16a34a" opacity="0.82" rx="1"/>
<line x1="515.8" y1="153.8" x2="515.8" y2="178.6" stroke="#dc2626" stroke-width="1"/><rect x="513.1" y="174.3" width="5.4" height="1.2" fill="#dc2626" opacity="0.82" rx="1"/>
<line x1="524.7" y1="156.8" x2="524.7" y2="189.4" stroke="#16a34a" stroke-width="1"/><rect x="522.0" y="166.6" width="5.4" height="8.8" fill="#16a34a" opacity="0.82" rx="1"/>
<line x1="533.6" y1="157.2" x2="533.6" y2="204.1" stroke="#dc2626" stroke-width="1"/><rect x="530.9" y="166.6" width="5.4" height="29.9" fill="#dc2626" opacity="0.82" rx="1"/>
<line x1="542.4" y1="171.3" x2="542.4" y2="201.7" stroke="#16a34a" stroke-width="1"/><rect x="539.7" y="178.5" width="5.4" height="17.9" fill="#16a34a" opacity="0.82" rx="1"/>
<line x1="551.3" y1="164.0" x2="551.3" y2="212.4" stroke="#dc2626" stroke-width="1"/><rect x="548.6" y="178.5" width="5.4" height="24.3" fill="#dc2626" opacity="0.82" rx="1"/>
<line x1="560.2" y1="196.1" x2="560.2" y2="240.8" stroke="#dc2626" stroke-width="1"/><rect x="557.5" y="202.8" width="5.4" height="30.8" fill="#dc2626" opacity="0.82" rx="1"/>
<line x1="569.1" y1="232.8" x2="569.1" y2="280.2" stroke="#dc2626" stroke-width="1"/><rect x="566.4" y="233.1" width="5.4" height="42.6" fill="#dc2626" opacity="0.82" rx="1"/>
<line x1="578.0" y1="257.2" x2="578.0" y2="291.6" stroke="#dc2626" stroke-width="1"/><rect x="575.2" y="275.0" width="5.4" height="1.7" fill="#dc2626" opacity="0.82" rx="1"/>
<line x1="586.8" y1="273.6" x2="586.8" y2="297.7" stroke="#dc2626" stroke-width="1"/><rect x="584.1" y="276.4" width="5.4" height="20.2" fill="#dc2626" opacity="0.82" rx="1"/>
<line x1="595.7" y1="258.9" x2="595.7" y2="297.4" stroke="#16a34a" stroke-width="1"/><rect x="593.0" y="267.8" width="5.4" height="28.9" fill="#16a34a" opacity="0.82" rx="1"/>
<line x1="604.6" y1="247.5" x2="604.6" y2="272.3" stroke="#16a34a" stroke-width="1"/><rect x="601.9" y="260.6" width="5.4" height="7.0" fill="#16a34a" opacity="0.82" rx="1"/>
<line x1="613.5" y1="233.9" x2="613.5" y2="260.6" stroke="#16a34a" stroke-width="1"/><rect x="610.7" y="243.2" width="5.4" height="17.1" fill="#16a34a" opacity="0.82" rx="1"/>
<line x1="622.3" y1="241.3" x2="622.3" y2="280.3" stroke="#dc2626" stroke-width="1"/><rect x="619.6" y="243.2" width="5.4" height="21.3" fill="#dc2626" opacity="0.82" rx="1"/>
<line x1="631.2" y1="262.2" x2="631.2" y2="272.7" stroke="#dc2626" stroke-width="1"/><rect x="628.5" y="264.7" width="5.4" height="4.5" fill="#dc2626" opacity="0.82" rx="1"/>
<line x1="640.1" y1="251.1" x2="640.1" y2="280.0" stroke="#16a34a" stroke-width="1"/><rect x="637.4" y="255.9" width="5.4" height="13.3" fill="#16a34a" opacity="0.82" rx="1"/>
<line x1="649.0" y1="256.1" x2="649.0" y2="272.6" stroke="#dc2626" stroke-width="1"/><rect x="646.2" y="256.1" width="5.4" height="15.6" fill="#dc2626" opacity="0.82" rx="1"/>
<line x1="657.8" y1="269.0" x2="657.8" y2="293.9" stroke="#dc2626" stroke-width="1"/><rect x="655.1" y="271.7" width="5.4" height="1.2" fill="#dc2626" opacity="0.82" rx="1"/>
<line x1="666.7" y1="260.3" x2="666.7" y2="287.8" stroke="#16a34a" stroke-width="1"/><rect x="664.0" y="260.9" width="5.4" height="11.0" fill="#16a34a" opacity="0.82" rx="1"/>
<line x1="675.6" y1="257.8" x2="675.6" y2="294.8" stroke="#dc2626" stroke-width="1"/><rect x="672.9" y="260.9" width="5.4" height="31.5" fill="#dc2626" opacity="0.82" rx="1"/>
<line x1="684.5" y1="271.2" x2="684.5" y2="318.9" stroke="#dc2626" stroke-width="1"/><rect x="681.8" y="292.4" width="5.4" height="23.5" fill="#dc2626" opacity="0.82" rx="1"/>
<line x1="693.3" y1="291.4" x2="693.3" y2="316.3" stroke="#16a34a" stroke-width="1"/><rect x="690.6" y="292.0" width="5.4" height="24.2" fill="#16a34a" opacity="0.82" rx="1"/>
<line x1="702.2" y1="270.3" x2="702.2" y2="298.1" stroke="#16a34a" stroke-width="1"/><rect x="699.5" y="272.1" width="5.4" height="20.1" fill="#16a34a" opacity="0.82" rx="1"/>
<line x1="711.1" y1="270.3" x2="711.1" y2="304.9" stroke="#dc2626" stroke-width="1"/><rect x="708.4" y="272.0" width="5.4" height="25.8" fill="#dc2626" opacity="0.82" rx="1"/>
<line x1="720.0" y1="271.4" x2="720.0" y2="297.8" stroke="#16a34a" stroke-width="1"/><rect x="717.3" y="277.6" width="5.4" height="20.1" fill="#16a34a" opacity="0.82" rx="1"/>
<line x1="728.9" y1="271.2" x2="728.9" y2="296.0" stroke="#dc2626" stroke-width="1"/><rect x="726.1" y="277.5" width="5.4" height="16.8" fill="#dc2626" opacity="0.82" rx="1"/>
<line x1="737.7" y1="282.3" x2="737.7" y2="301.5" stroke="#16a34a" stroke-width="1"/><rect x="735.0" y="286.6" width="5.4" height="7.8" fill="#16a34a" opacity="0.82" rx="1"/>
<line x1="746.6" y1="273.2" x2="746.6" y2="294.5" stroke="#16a34a" stroke-width="1"/><rect x="743.9" y="278.6" width="5.4" height="7.9" fill="#16a34a" opacity="0.82" rx="1"/>
<line x1="755.5" y1="255.8" x2="755.5" y2="298.8" stroke="#16a34a" stroke-width="1"/><rect x="752.8" y="257.0" width="5.4" height="21.6" fill="#16a34a" opacity="0.82" rx="1"/>
<line x1="764.4" y1="231.2" x2="764.4" y2="278.4" stroke="#16a34a" stroke-width="1"/><rect x="761.6" y="244.9" width="5.4" height="11.5" fill="#16a34a" opacity="0.82" rx="1"/>
<line x1="773.2" y1="236.6" x2="773.2" y2="268.7" stroke="#dc2626" stroke-width="1"/><rect x="770.5" y="245.1" width="5.4" height="1.2" fill="#dc2626" opacity="0.82" rx="1"/>
<line x1="782.1" y1="227.9" x2="782.1" y2="245.6" stroke="#16a34a" stroke-width="1"/><rect x="779.4" y="232.9" width="5.4" height="12.2" fill="#16a34a" opacity="0.82" rx="1"/>
<line x1="791.0" y1="199.2" x2="791.0" y2="235.3" stroke="#16a34a" stroke-width="1"/><rect x="788.3" y="224.2" width="5.4" height="8.7" fill="#16a34a" opacity="0.82" rx="1"/>
<line x1="799.9" y1="200.5" x2="799.9" y2="236.1" stroke="#16a34a" stroke-width="1"/><rect x="797.1" y="205.1" width="5.4" height="18.8" fill="#16a34a" opacity="0.82" rx="1"/>
<line x1="808.7" y1="185.3" x2="808.7" y2="212.0" stroke="#16a34a" stroke-width="1"/><rect x="806.0" y="202.6" width="5.4" height="2.5" fill="#16a34a" opacity="0.82" rx="1"/>
<line x1="817.6" y1="186.6" x2="817.6" y2="211.4" stroke="#dc2626" stroke-width="1"/><rect x="814.9" y="202.6" width="5.4" height="3.6" fill="#dc2626" opacity="0.82" rx="1"/>
<line x1="826.5" y1="195.8" x2="826.5" y2="225.7" stroke="#dc2626" stroke-width="1"/><rect x="823.8" y="206.0" width="5.4" height="4.9" fill="#dc2626" opacity="0.82" rx="1"/>
<line x1="835.4" y1="204.9" x2="835.4" y2="237.3" stroke="#dc2626" stroke-width="1"/><rect x="832.6" y="211.2" width="5.4" height="22.5" fill="#dc2626" opacity="0.82" rx="1"/>
<line x1="844.2" y1="214.1" x2="844.2" y2="244.2" stroke="#16a34a" stroke-width="1"/><rect x="841.5" y="219.8" width="5.4" height="13.8" fill="#16a34a" opacity="0.82" rx="1"/>
<line x1="853.1" y1="206.9" x2="853.1" y2="230.1" stroke="#16a34a" stroke-width="1"/><rect x="850.4" y="211.5" width="5.4" height="8.3" fill="#16a34a" opacity="0.82" rx="1"/>
<line x1="862.0" y1="208.4" x2="862.0" y2="230.7" stroke="#dc2626" stroke-width="1"/><rect x="859.3" y="211.5" width="5.4" height="15.4" fill="#dc2626" opacity="0.82" rx="1"/>
<line x1="72" y1="272.2" x2="862" y2="272.2" stroke="#16a34a" stroke-width="1.8" stroke-dasharray="6 4" /><rect x="874" y="252.2" width="166" height="23" rx="5" fill="#ffffff" stroke="#16a34a" opacity="0.97"/><text x="881" y="268.2" fill="#16a34a" font-size="15" font-weight="700">日内支撑 67.65</text>
<line x1="72" y1="151.5" x2="862" y2="151.5" stroke="#dc2626" stroke-width="1.8" stroke-dasharray="6 4" /><rect x="874" y="131.5" width="166" height="23" rx="5" fill="#ffffff" stroke="#dc2626" opacity="0.97"/><text x="881" y="147.5" fill="#dc2626" font-size="15" font-weight="700">日内压力 72.85</text>
<line x1="72" y1="226.9" x2="862" y2="226.9" stroke="#111827" stroke-width="1.8" stroke-dasharray="2 2" /><rect x="874" y="206.9" width="166" height="23" rx="5" fill="#ffffff" stroke="#111827" opacity="0.97"/><text x="881" y="222.9" fill="#111827" font-size="15" font-weight="700">现价 69.60</text>
<text x="72" y="396" fill="#16a34a" font-size="14" font-weight="700">日内做多计划</text><rect x="72" y="404" width="790" height="48" rx="6" fill="#f9fafb" stroke="#e5e7eb"/><line x1="94" y1="412" x2="840" y2="412" stroke="#16a34a" stroke-width="3"/><circle cx="132.0" cy="412" r="5" fill="#16a34a"/><text x="132.0" y="434" fill="#374151" font-size="12" text-anchor="middle">入场 止跌/突破回踩</text><circle cx="451.2" cy="412" r="5" fill="#16a34a"/><text x="451.2" y="434" fill="#374151" font-size="12" text-anchor="middle">止损 67.65</text><circle cx="712.0" cy="412" r="5" fill="#16a34a"/><text x="712.0" y="434" fill="#374151" font-size="12" text-anchor="middle">目标一 72.85</text><circle cx="814.0" cy="412" r="5" fill="#16a34a"/><text x="814.0" y="434" fill="#374151" font-size="12" text-anchor="middle">目标二 74.15</text>
<text x="72" y="482" fill="#dc2626" font-size="14" font-weight="700">日内做空计划</text><rect x="72" y="490" width="790" height="48" rx="6" fill="#f9fafb" stroke="#e5e7eb"/><line x1="94" y1="498" x2="840" y2="498" stroke="#dc2626" stroke-width="3"/><circle cx="132.0" cy="498" r="5" fill="#dc2626"/><text x="132.0" y="520" fill="#374151" font-size="12" text-anchor="middle">入场 反弹承压/破位回抽</text><circle cx="451.2" cy="498" r="5" fill="#dc2626"/><text x="451.2" y="520" fill="#374151" font-size="12" text-anchor="middle">止损 72.85</text><circle cx="712.0" cy="498" r="5" fill="#dc2626"/><text x="712.0" y="520" fill="#374151" font-size="12" text-anchor="middle">目标一 67.65</text><circle cx="814.0" cy="498" r="5" fill="#dc2626"/><text x="814.0" y="520" fill="#374151" font-size="12" text-anchor="middle">目标二 66.35</text>
</svg>