<svg xmlns="http://www.w3.org/2000/svg" width="1080" height="560" viewBox="0 0 1080 560">
<rect width="100%" height="100%" fill="#ffffff"/>
<text x="72" y="23" fill="#111827" font-size="21" font-weight="800">DRAM 小时线K线支撑压力图</text>
<text x="862" y="42" fill="#374151" font-size="15" text-anchor="end">最新价 58.67</text>
<line x1="72" y1="34" x2="72" y2="340" stroke="#d1d5db"/>
<line x1="72" y1="340" x2="862" y2="340" stroke="#d1d5db"/>
<line x1="72" y1="340.0" x2="862" y2="340.0" stroke="#f3f4f6"/>
<text x="8" y="345.0" fill="#4b5563" font-size="14">55.72</text>
<line x1="72" y1="263.5" x2="862" y2="263.5" stroke="#f3f4f6"/>
<text x="8" y="268.5" fill="#4b5563" font-size="14">58.83</text>
<line x1="72" y1="187.0" x2="862" y2="187.0" stroke="#f3f4f6"/>
<text x="8" y="192.0" fill="#4b5563" font-size="14">61.94</text>
<line x1="72" y1="110.5" x2="862" y2="110.5" stroke="#f3f4f6"/>
<text x="8" y="115.5" fill="#4b5563" font-size="14">65.04</text>
<line x1="72" y1="34.0" x2="862" y2="34.0" stroke="#f3f4f6"/>
<text x="8" y="39.0" fill="#4b5563" font-size="14">68.15</text>
<line x1="72.0" y1="114.0" x2="72.0" y2="117.9" stroke="#16a34a" stroke-width="1"/><rect x="69.3" y="115.0" width="5.4" height="2.0" fill="#16a34a" opacity="0.82" rx="1"/>
<line x1="80.9" y1="109.5" x2="80.9" y2="115.5" stroke="#16a34a" stroke-width="1"/><rect x="78.2" y="112.0" width="5.4" height="3.0" fill="#16a34a" opacity="0.82" rx="1"/>
<line x1="89.8" y1="111.8" x2="89.8" y2="120.1" stroke="#dc2626" stroke-width="1"/><rect x="87.0" y="112.0" width="5.4" height="7.9" fill="#dc2626" opacity="0.82" rx="1"/>
<line x1="98.6" y1="109.8" x2="98.6" y2="122.8" stroke="#16a34a" stroke-width="1"/><rect x="95.9" y="113.2" width="5.4" height="6.7" fill="#16a34a" opacity="0.82" rx="1"/>
<line x1="107.5" y1="110.0" x2="107.5" y2="115.0" stroke="#16a34a" stroke-width="1"/><rect x="104.8" y="110.3" width="5.4" height="3.2" fill="#16a34a" opacity="0.82" rx="1"/>
<line x1="116.4" y1="106.1" x2="116.4" y2="111.8" stroke="#16a34a" stroke-width="1"/><rect x="113.7" y="108.8" width="5.4" height="1.7" fill="#16a34a" opacity="0.82" rx="1"/>
<line x1="125.3" y1="106.8" x2="125.3" y2="119.6" stroke="#dc2626" stroke-width="1"/><rect x="122.5" y="108.6" width="5.4" height="3.4" fill="#dc2626" opacity="0.82" rx="1"/>
<line x1="134.1" y1="108.6" x2="134.1" y2="112.0" stroke="#16a34a" stroke-width="1"/><rect x="131.4" y="109.3" width="5.4" height="2.7" fill="#16a34a" opacity="0.82" rx="1"/>
<line x1="143.0" y1="102.9" x2="143.0" y2="111.0" stroke="#16a34a" stroke-width="1"/><rect x="140.3" y="104.4" width="5.4" height="5.2" fill="#16a34a" opacity="0.82" rx="1"/>
<line x1="151.9" y1="103.1" x2="151.9" y2="110.0" stroke="#dc2626" stroke-width="1"/><rect x="149.2" y="104.4" width="5.4" height="1.7" fill="#dc2626" opacity="0.82" rx="1"/>
<line x1="160.8" y1="100.7" x2="160.8" y2="110.8" stroke="#16a34a" stroke-width="1"/><rect x="158.0" y="103.1" width="5.4" height="3.2" fill="#16a34a" opacity="0.82" rx="1"/>
<line x1="169.6" y1="100.4" x2="169.6" y2="105.1" stroke="#16a34a" stroke-width="1"/><rect x="166.9" y="101.2" width="5.4" height="2.0" fill="#16a34a" opacity="0.82" rx="1"/>
<line x1="178.5" y1="97.7" x2="178.5" y2="105.4" stroke="#16a34a" stroke-width="1"/><rect x="175.8" y="100.7" width="5.4" height="1.2" fill="#16a34a" opacity="0.82" rx="1"/>
<line x1="187.4" y1="98.5" x2="187.4" y2="101.9" stroke="#16a34a" stroke-width="1"/><rect x="184.7" y="100.2" width="5.4" height="1.2" fill="#16a34a" opacity="0.82" rx="1"/>
<line x1="196.3" y1="95.7" x2="196.3" y2="101.4" stroke="#16a34a" stroke-width="1"/><rect x="193.5" y="97.2" width="5.4" height="3.0" fill="#16a34a" opacity="0.82" rx="1"/>
<line x1="205.1" y1="94.8" x2="205.1" y2="101.2" stroke="#dc2626" stroke-width="1"/><rect x="202.4" y="97.2" width="5.4" height="1.7" fill="#dc2626" opacity="0.82" rx="1"/>
<line x1="214.0" y1="96.2" x2="214.0" y2="100.4" stroke="#16a34a" stroke-width="1"/><rect x="211.3" y="97.5" width="5.4" height="1.7" fill="#16a34a" opacity="0.82" rx="1"/>
<line x1="222.9" y1="92.3" x2="222.9" y2="98.9" stroke="#16a34a" stroke-width="1"/><rect x="220.2" y="97.5" width="5.4" height="1.2" fill="#16a34a" opacity="0.82" rx="1"/>
<line x1="231.8" y1="96.2" x2="231.8" y2="100.4" stroke="#dc2626" stroke-width="1"/><rect x="229.1" y="97.5" width="5.4" height="2.5" fill="#dc2626" opacity="0.82" rx="1"/>
<line x1="240.7" y1="99.2" x2="240.7" y2="108.1" stroke="#dc2626" stroke-width="1"/><rect x="237.9" y="100.2" width="5.4" height="4.9" fill="#dc2626" opacity="0.82" rx="1"/>
<line x1="249.5" y1="94.3" x2="249.5" y2="106.3" stroke="#16a34a" stroke-width="1"/><rect x="246.8" y="97.5" width="5.4" height="7.4" fill="#16a34a" opacity="0.82" rx="1"/>
<line x1="258.4" y1="90.3" x2="258.4" y2="98.9" stroke="#16a34a" stroke-width="1"/><rect x="255.7" y="91.1" width="5.4" height="6.2" fill="#16a34a" opacity="0.82" rx="1"/>
<line x1="267.3" y1="88.6" x2="267.3" y2="98.9" stroke="#16a34a" stroke-width="1"/><rect x="264.6" y="88.8" width="5.4" height="2.2" fill="#16a34a" opacity="0.82" rx="1"/>
<line x1="276.2" y1="87.6" x2="276.2" y2="97.2" stroke="#dc2626" stroke-width="1"/><rect x="273.4" y="88.8" width="5.4" height="7.4" fill="#dc2626" opacity="0.82" rx="1"/>
<line x1="285.0" y1="94.5" x2="285.0" y2="106.6" stroke="#dc2626" stroke-width="1"/><rect x="282.3" y="96.2" width="5.4" height="8.4" fill="#dc2626" opacity="0.82" rx="1"/>
<line x1="293.9" y1="99.7" x2="293.9" y2="106.6" stroke="#16a34a" stroke-width="1"/><rect x="291.2" y="99.9" width="5.4" height="4.9" fill="#16a34a" opacity="0.82" rx="1"/>
<line x1="302.8" y1="95.0" x2="302.8" y2="100.9" stroke="#16a34a" stroke-width="1"/><rect x="300.1" y="98.2" width="5.4" height="2.2" fill="#16a34a" opacity="0.82" rx="1"/>
<line x1="311.7" y1="92.8" x2="311.7" y2="98.9" stroke="#16a34a" stroke-width="1"/><rect x="308.9" y="93.3" width="5.4" height="4.7" fill="#16a34a" opacity="0.82" rx="1"/>
<line x1="320.5" y1="91.3" x2="320.5" y2="95.7" stroke="#dc2626" stroke-width="1"/><rect x="317.8" y="93.0" width="5.4" height="1.2" fill="#dc2626" opacity="0.82" rx="1"/>
<line x1="329.4" y1="88.1" x2="329.4" y2="94.8" stroke="#16a34a" stroke-width="1"/><rect x="326.7" y="88.1" width="5.4" height="5.9" fill="#16a34a" opacity="0.82" rx="1"/>
<line x1="338.3" y1="87.1" x2="338.3" y2="93.3" stroke="#dc2626" stroke-width="1"/><rect x="335.6" y="88.1" width="5.4" height="3.7" fill="#dc2626" opacity="0.82" rx="1"/>
<line x1="347.2" y1="91.3" x2="347.2" y2="103.4" stroke="#dc2626" stroke-width="1"/><rect x="344.4" y="91.8" width="5.4" height="2.0" fill="#dc2626" opacity="0.82" rx="1"/>
<line x1="356.0" y1="80.5" x2="356.0" y2="96.5" stroke="#16a34a" stroke-width="1"/><rect x="353.3" y="88.4" width="5.4" height="5.2" fill="#16a34a" opacity="0.82" rx="1"/>
<line x1="364.9" y1="76.0" x2="364.9" y2="114.0" stroke="#dc2626" stroke-width="1"/><rect x="362.2" y="88.6" width="5.4" height="13.3" fill="#dc2626" opacity="0.82" rx="1"/>
<line x1="373.8" y1="55.1" x2="373.8" y2="105.1" stroke="#16a34a" stroke-width="1"/><rect x="371.1" y="65.7" width="5.4" height="35.5" fill="#16a34a" opacity="0.82" rx="1"/>
<line x1="382.7" y1="63.5" x2="382.7" y2="114.5" stroke="#dc2626" stroke-width="1"/><rect x="380.0" y="65.7" width="5.4" height="36.7" fill="#dc2626" opacity="0.82" rx="1"/>
<line x1="391.6" y1="96.0" x2="391.6" y2="148.0" stroke="#dc2626" stroke-width="1"/><rect x="388.8" y="102.2" width="5.4" height="23.9" fill="#dc2626" opacity="0.82" rx="1"/>
<line x1="400.4" y1="101.7" x2="400.4" y2="129.2" stroke="#16a34a" stroke-width="1"/><rect x="397.7" y="113.7" width="5.4" height="12.1" fill="#16a34a" opacity="0.82" rx="1"/>
<line x1="409.3" y1="88.1" x2="409.3" y2="122.1" stroke="#16a34a" stroke-width="1"/><rect x="406.6" y="94.8" width="5.4" height="19.0" fill="#16a34a" opacity="0.82" rx="1"/>
<line x1="418.2" y1="93.5" x2="418.2" y2="115.0" stroke="#dc2626" stroke-width="1"/><rect x="415.5" y="94.8" width="5.4" height="1.7" fill="#dc2626" opacity="0.82" rx="1"/>
<line x1="427.1" y1="92.1" x2="427.1" y2="113.2" stroke="#dc2626" stroke-width="1"/><rect x="424.3" y="96.5" width="5.4" height="9.1" fill="#dc2626" opacity="0.82" rx="1"/>
<line x1="435.9" y1="101.7" x2="435.9" y2="110.0" stroke="#dc2626" stroke-width="1"/><rect x="433.2" y="105.8" width="5.4" height="1.2" fill="#dc2626" opacity="0.82" rx="1"/>
<line x1="444.8" y1="99.2" x2="444.8" y2="114.0" stroke="#16a34a" stroke-width="1"/><rect x="442.1" y="105.8" width="5.4" height="1.2" fill="#16a34a" opacity="0.82" rx="1"/>
<line x1="453.7" y1="102.6" x2="453.7" y2="118.9" stroke="#dc2626" stroke-width="1"/><rect x="451.0" y="105.6" width="5.4" height="7.9" fill="#dc2626" opacity="0.82" rx="1"/>
<line x1="462.6" y1="109.8" x2="462.6" y2="117.7" stroke="#16a34a" stroke-width="1"/><rect x="459.8" y="110.3" width="5.4" height="3.2" fill="#16a34a" opacity="0.82" rx="1"/>
<line x1="471.4" y1="100.7" x2="471.4" y2="120.6" stroke="#16a34a" stroke-width="1"/><rect x="468.7" y="107.8" width="5.4" height="2.5" fill="#16a34a" opacity="0.82" rx="1"/>
<line x1="480.3" y1="97.5" x2="480.3" y2="111.3" stroke="#16a34a" stroke-width="1"/><rect x="477.6" y="100.7" width="5.4" height="7.1" fill="#16a34a" opacity="0.82" rx="1"/>
<line x1="489.2" y1="93.3" x2="489.2" y2="128.5" stroke="#dc2626" stroke-width="1"/><rect x="486.5" y="100.7" width="5.4" height="10.3" fill="#dc2626" opacity="0.82" rx="1"/>
<line x1="498.1" y1="86.6" x2="498.1" y2="113.2" stroke="#16a34a" stroke-width="1"/><rect x="495.3" y="98.9" width="5.4" height="11.8" fill="#16a34a" opacity="0.82" rx="1"/>
<line x1="506.9" y1="96.7" x2="506.9" y2="121.9" stroke="#16a34a" stroke-width="1"/><rect x="504.2" y="97.7" width="5.4" height="1.2" fill="#16a34a" opacity="0.82" rx="1"/>
<line x1="515.8" y1="91.6" x2="515.8" y2="107.8" stroke="#dc2626" stroke-width="1"/><rect x="513.1" y="98.0" width="5.4" height="8.9" fill="#dc2626" opacity="0.82" rx="1"/>
<line x1="524.7" y1="103.4" x2="524.7" y2="127.5" stroke="#dc2626" stroke-width="1"/><rect x="522.0" y="106.8" width="5.4" height="18.5" fill="#dc2626" opacity="0.82" rx="1"/>
<line x1="533.6" y1="111.5" x2="533.6" y2="125.3" stroke="#16a34a" stroke-width="1"/><rect x="530.9" y="115.0" width="5.4" height="10.3" fill="#16a34a" opacity="0.82" rx="1"/>
<line x1="542.4" y1="105.4" x2="542.4" y2="121.9" stroke="#dc2626" stroke-width="1"/><rect x="539.7" y="115.0" width="5.4" height="4.9" fill="#dc2626" opacity="0.82" rx="1"/>
<line x1="551.3" y1="110.0" x2="551.3" y2="120.6" stroke="#16a34a" stroke-width="1"/><rect x="548.6" y="110.5" width="5.4" height="9.4" fill="#16a34a" opacity="0.82" rx="1"/>
<line x1="560.2" y1="106.3" x2="560.2" y2="111.8" stroke="#16a34a" stroke-width="1"/><rect x="557.5" y="108.3" width="5.4" height="2.2" fill="#16a34a" opacity="0.82" rx="1"/>
<line x1="569.1" y1="99.4" x2="569.1" y2="155.6" stroke="#dc2626" stroke-width="1"/><rect x="566.4" y="108.1" width="5.4" height="35.5" fill="#dc2626" opacity="0.82" rx="1"/>
<line x1="578.0" y1="132.2" x2="578.0" y2="182.2" stroke="#dc2626" stroke-width="1"/><rect x="575.2" y="143.3" width="5.4" height="35.5" fill="#dc2626" opacity="0.82" rx="1"/>
<line x1="586.8" y1="147.7" x2="586.8" y2="188.4" stroke="#dc2626" stroke-width="1"/><rect x="584.1" y="179.0" width="5.4" height="6.7" fill="#dc2626" opacity="0.82" rx="1"/>
<line x1="595.7" y1="173.6" x2="595.7" y2="211.5" stroke="#dc2626" stroke-width="1"/><rect x="593.0" y="185.7" width="5.4" height="6.9" fill="#dc2626" opacity="0.82" rx="1"/>
<line x1="604.6" y1="183.4" x2="604.6" y2="213.7" stroke="#dc2626" stroke-width="1"/><rect x="601.9" y="192.3" width="5.4" height="15.8" fill="#dc2626" opacity="0.82" rx="1"/>
<line x1="613.5" y1="197.2" x2="613.5" y2="230.7" stroke="#dc2626" stroke-width="1"/><rect x="610.7" y="208.1" width="5.4" height="17.7" fill="#dc2626" opacity="0.82" rx="1"/>
<line x1="622.3" y1="216.4" x2="622.3" y2="242.8" stroke="#dc2626" stroke-width="1"/><rect x="619.6" y="225.8" width="5.4" height="8.6" fill="#dc2626" opacity="0.82" rx="1"/>
<line x1="631.2" y1="188.4" x2="631.2" y2="249.7" stroke="#16a34a" stroke-width="1"/><rect x="628.5" y="196.7" width="5.4" height="37.4" fill="#16a34a" opacity="0.82" rx="1"/>
<line x1="640.1" y1="186.4" x2="640.1" y2="216.2" stroke="#16a34a" stroke-width="1"/><rect x="637.4" y="191.8" width="5.4" height="4.4" fill="#16a34a" opacity="0.82" rx="1"/>
<line x1="649.0" y1="188.9" x2="649.0" y2="204.6" stroke="#dc2626" stroke-width="1"/><rect x="646.2" y="191.6" width="5.4" height="11.1" fill="#dc2626" opacity="0.82" rx="1"/>
<line x1="657.8" y1="196.5" x2="657.8" y2="215.5" stroke="#dc2626" stroke-width="1"/><rect x="655.1" y="202.4" width="5.4" height="11.6" fill="#dc2626" opacity="0.82" rx="1"/>
<line x1="666.7" y1="206.8" x2="666.7" y2="228.5" stroke="#dc2626" stroke-width="1"/><rect x="664.0" y="214.2" width="5.4" height="4.2" fill="#dc2626" opacity="0.82" rx="1"/>
<line x1="675.6" y1="211.8" x2="675.6" y2="225.3" stroke="#16a34a" stroke-width="1"/><rect x="672.9" y="215.7" width="5.4" height="3.0" fill="#16a34a" opacity="0.82" rx="1"/>
<line x1="684.5" y1="215.0" x2="684.5" y2="232.9" stroke="#dc2626" stroke-width="1"/><rect x="681.8" y="215.5" width="5.4" height="6.7" fill="#dc2626" opacity="0.82" rx="1"/>
<line x1="693.3" y1="203.1" x2="693.3" y2="222.1" stroke="#16a34a" stroke-width="1"/><rect x="690.6" y="216.7" width="5.4" height="5.4" fill="#16a34a" opacity="0.82" rx="1"/>
<line x1="702.2" y1="209.8" x2="702.2" y2="243.8" stroke="#dc2626" stroke-width="1"/><rect x="699.5" y="216.7" width="5.4" height="15.5" fill="#dc2626" opacity="0.82" rx="1"/>
<line x1="711.1" y1="222.1" x2="711.1" y2="276.8" stroke="#dc2626" stroke-width="1"/><rect x="708.4" y="232.5" width="5.4" height="14.8" fill="#dc2626" opacity="0.82" rx="1"/>
<line x1="720.0" y1="230.7" x2="720.0" y2="260.5" stroke="#16a34a" stroke-width="1"/><rect x="717.3" y="238.4" width="5.4" height="8.6" fill="#16a34a" opacity="0.82" rx="1"/>
<line x1="728.9" y1="216.0" x2="728.9" y2="239.6" stroke="#16a34a" stroke-width="1"/><rect x="726.1" y="223.3" width="5.4" height="15.3" fill="#16a34a" opacity="0.82" rx="1"/>
<line x1="737.7" y1="203.4" x2="737.7" y2="225.8" stroke="#16a34a" stroke-width="1"/><rect x="735.0" y="205.1" width="5.4" height="18.2" fill="#16a34a" opacity="0.82" rx="1"/>
<line x1="746.6" y1="204.9" x2="746.6" y2="237.9" stroke="#dc2626" stroke-width="1"/><rect x="743.9" y="205.1" width="5.4" height="32.0" fill="#dc2626" opacity="0.82" rx="1"/>
<line x1="755.5" y1="218.2" x2="755.5" y2="249.9" stroke="#16a34a" stroke-width="1"/><rect x="752.8" y="218.7" width="5.4" height="18.5" fill="#16a34a" opacity="0.82" rx="1"/>
<line x1="764.4" y1="209.5" x2="764.4" y2="221.4" stroke="#16a34a" stroke-width="1"/><rect x="761.6" y="210.8" width="5.4" height="8.1" fill="#16a34a" opacity="0.82" rx="1"/>
<line x1="773.2" y1="207.6" x2="773.2" y2="232.9" stroke="#dc2626" stroke-width="1"/><rect x="770.5" y="211.0" width="5.4" height="19.7" fill="#dc2626" opacity="0.82" rx="1"/>
<line x1="782.1" y1="224.6" x2="782.1" y2="236.6" stroke="#16a34a" stroke-width="1"/><rect x="779.4" y="227.3" width="5.4" height="3.4" fill="#16a34a" opacity="0.82" rx="1"/>
<line x1="791.0" y1="227.5" x2="791.0" y2="256.6" stroke="#dc2626" stroke-width="1"/><rect x="788.3" y="227.5" width="5.4" height="27.3" fill="#dc2626" opacity="0.82" rx="1"/>
<line x1="799.9" y1="160.0" x2="799.9" y2="261.5" stroke="#16a34a" stroke-width="1"/><rect x="797.1" y="161.3" width="5.4" height="93.8" fill="#16a34a" opacity="0.82" rx="1"/>
<line x1="808.7" y1="157.8" x2="808.7" y2="219.4" stroke="#dc2626" stroke-width="1"/><rect x="806.0" y="161.3" width="5.4" height="51.5" fill="#dc2626" opacity="0.82" rx="1"/>
<line x1="817.6" y1="202.2" x2="817.6" y2="230.2" stroke="#16a34a" stroke-width="1"/><rect x="814.9" y="208.8" width="5.4" height="3.4" fill="#16a34a" opacity="0.82" rx="1"/>
<line x1="826.5" y1="182.2" x2="826.5" y2="209.1" stroke="#16a34a" stroke-width="1"/><rect x="823.8" y="207.3" width="5.4" height="1.7" fill="#16a34a" opacity="0.82" rx="1"/>
<line x1="835.4" y1="206.3" x2="835.4" y2="260.0" stroke="#dc2626" stroke-width="1"/><rect x="832.6" y="207.1" width="5.4" height="29.3" fill="#dc2626" opacity="0.82" rx="1"/>
<line x1="844.2" y1="225.6" x2="844.2" y2="263.0" stroke="#dc2626" stroke-width="1"/><rect x="841.5" y="236.4" width="5.4" height="10.8" fill="#dc2626" opacity="0.82" rx="1"/>
<line x1="853.1" y1="247.0" x2="853.1" y2="271.6" stroke="#dc2626" stroke-width="1"/><rect x="850.4" y="247.0" width="5.4" height="20.0" fill="#dc2626" opacity="0.82" rx="1"/>
<line x1="862.0" y1="266.2" x2="862.0" y2="269.4" stroke="#dc2626" stroke-width="1"/><rect x="859.3" y="266.7" width="5.4" height="1.2" fill="#dc2626" opacity="0.82" rx="1"/>
<line x1="72" y1="318.9" x2="862" y2="318.9" stroke="#16a34a" stroke-width="1.8" stroke-dasharray="6 4" /><rect x="874" y="298.9" width="166" height="23" rx="5" fill="#ffffff" stroke="#16a34a" opacity="0.97"/><text x="881" y="314.9" fill="#16a34a" font-size="15" font-weight="700">日内支撑 56.58</text>
<line x1="72" y1="181.7" x2="862" y2="181.7" stroke="#dc2626" stroke-width="1.8" stroke-dasharray="6 4" /><rect x="874" y="161.7" width="166" height="23" rx="5" fill="#ffffff" stroke="#dc2626" opacity="0.97"/><text x="881" y="177.7" fill="#dc2626" font-size="15" font-weight="700">日内压力 62.15</text>
<line x1="72" y1="267.4" x2="862" y2="267.4" stroke="#111827" stroke-width="1.8" stroke-dasharray="2 2" /><rect x="874" y="247.4" width="166" height="23" rx="5" fill="#ffffff" stroke="#111827" opacity="0.97"/><text x="881" y="263.4" fill="#111827" font-size="15" font-weight="700">现价 58.67</text>
<text x="72" y="396" fill="#16a34a" font-size="14" font-weight="700">日内做多计划</text><rect x="72" y="404" width="790" height="48" rx="6" fill="#f9fafb" stroke="#e5e7eb"/><line x1="94" y1="412" x2="840" y2="412" stroke="#16a34a" stroke-width="3"/><circle cx="132.0" cy="412" r="5" fill="#16a34a"/><text x="132.0" y="434" fill="#374151" font-size="12" text-anchor="middle">入场 止跌/突破回踩</text><circle cx="451.2" cy="412" r="5" fill="#16a34a"/><text x="451.2" y="434" fill="#374151" font-size="12" text-anchor="middle">止损 56.58</text><circle cx="712.0" cy="412" r="5" fill="#16a34a"/><text x="712.0" y="434" fill="#374151" font-size="12" text-anchor="middle">目标一 62.15</text><circle cx="814.0" cy="412" r="5" fill="#16a34a"/><text x="814.0" y="434" fill="#374151" font-size="12" text-anchor="middle">目标二 63.55</text>
<text x="72" y="482" fill="#dc2626" font-size="14" font-weight="700">日内做空计划</text><rect x="72" y="490" width="790" height="48" rx="6" fill="#f9fafb" stroke="#e5e7eb"/><line x1="94" y1="498" x2="840" y2="498" stroke="#dc2626" stroke-width="3"/><circle cx="132.0" cy="498" r="5" fill="#dc2626"/><text x="132.0" y="520" fill="#374151" font-size="12" text-anchor="middle">入场 反弹承压/破位回抽</text><circle cx="451.2" cy="498" r="5" fill="#dc2626"/><text x="451.2" y="520" fill="#374151" font-size="12" text-anchor="middle">止损 62.15</text><circle cx="712.0" cy="498" r="5" fill="#dc2626"/><text x="712.0" y="520" fill="#374151" font-size="12" text-anchor="middle">目标一 56.58</text><circle cx="814.0" cy="498" r="5" fill="#dc2626"/><text x="814.0" y="520" fill="#374151" font-size="12" text-anchor="middle">目标二 55.19</text>
</svg>