<svg xmlns="http://www.w3.org/2000/svg" width="1080" height="560" viewBox="0 0 1080 560">
<rect width="100%" height="100%" fill="#ffffff"/>
<text x="72" y="23" fill="#111827" font-size="21" font-weight="800">BTC 小时线K线支撑压力图</text>
<text x="862" y="42" fill="#374151" font-size="15" text-anchor="end">最新价 63,300</text>
<line x1="72" y1="34" x2="72" y2="340" stroke="#d1d5db"/>
<line x1="72" y1="340" x2="862" y2="340" stroke="#d1d5db"/>
<line x1="72" y1="340.0" x2="862" y2="340.0" stroke="#f3f4f6"/>
<text x="8" y="345.0" fill="#4b5563" font-size="14">61,025</text>
<line x1="72" y1="263.5" x2="862" y2="263.5" stroke="#f3f4f6"/>
<text x="8" y="268.5" fill="#4b5563" font-size="14">62,010</text>
<line x1="72" y1="187.0" x2="862" y2="187.0" stroke="#f3f4f6"/>
<text x="8" y="192.0" fill="#4b5563" font-size="14">62,994</text>
<line x1="72" y1="110.5" x2="862" y2="110.5" stroke="#f3f4f6"/>
<text x="8" y="115.5" fill="#4b5563" font-size="14">63,979</text>
<line x1="72" y1="34.0" x2="862" y2="34.0" stroke="#f3f4f6"/>
<text x="8" y="39.0" fill="#4b5563" font-size="14">64,963</text>
<line x1="72.0" y1="216.7" x2="72.0" y2="229.9" stroke="#16a34a" stroke-width="1"/><rect x="69.3" y="221.6" width="5.4" height="5.9" fill="#16a34a" opacity="0.82" rx="1"/>
<line x1="80.9" y1="213.4" x2="80.9" y2="226.6" stroke="#dc2626" stroke-width="1"/><rect x="78.2" y="221.6" width="5.4" height="1.6" fill="#dc2626" opacity="0.82" rx="1"/>
<line x1="89.8" y1="220.8" x2="89.8" y2="234.3" stroke="#dc2626" stroke-width="1"/><rect x="87.0" y="223.3" width="5.4" height="4.8" fill="#dc2626" opacity="0.82" rx="1"/>
<line x1="98.6" y1="224.0" x2="98.6" y2="231.8" stroke="#16a34a" stroke-width="1"/><rect x="95.9" y="226.7" width="5.4" height="1.4" fill="#16a34a" opacity="0.82" rx="1"/>
<line x1="107.5" y1="221.9" x2="107.5" y2="230.9" stroke="#dc2626" stroke-width="1"/><rect x="104.8" y="226.7" width="5.4" height="2.0" fill="#dc2626" opacity="0.82" rx="1"/>
<line x1="116.4" y1="212.1" x2="116.4" y2="228.6" stroke="#16a34a" stroke-width="1"/><rect x="113.7" y="215.0" width="5.4" height="13.6" fill="#16a34a" opacity="0.82" rx="1"/>
<line x1="125.3" y1="205.6" x2="125.3" y2="224.7" stroke="#dc2626" stroke-width="1"/><rect x="122.5" y="215.0" width="5.4" height="5.5" fill="#dc2626" opacity="0.82" rx="1"/>
<line x1="134.1" y1="208.4" x2="134.1" y2="220.6" stroke="#16a34a" stroke-width="1"/><rect x="131.4" y="212.1" width="5.4" height="8.5" fill="#16a34a" opacity="0.82" rx="1"/>
<line x1="143.0" y1="181.2" x2="143.0" y2="212.5" stroke="#16a34a" stroke-width="1"/><rect x="140.3" y="193.7" width="5.4" height="18.4" fill="#16a34a" opacity="0.82" rx="1"/>
<line x1="151.9" y1="191.0" x2="151.9" y2="205.8" stroke="#dc2626" stroke-width="1"/><rect x="149.2" y="193.7" width="5.4" height="1.2" fill="#dc2626" opacity="0.82" rx="1"/>
<line x1="160.8" y1="153.9" x2="160.8" y2="204.5" stroke="#16a34a" stroke-width="1"/><rect x="158.0" y="167.5" width="5.4" height="27.2" fill="#16a34a" opacity="0.82" rx="1"/>
<line x1="169.6" y1="161.3" x2="169.6" y2="181.1" stroke="#dc2626" stroke-width="1"/><rect x="166.9" y="167.5" width="5.4" height="8.4" fill="#dc2626" opacity="0.82" rx="1"/>
<line x1="178.5" y1="151.6" x2="178.5" y2="179.6" stroke="#16a34a" stroke-width="1"/><rect x="175.8" y="165.7" width="5.4" height="10.1" fill="#16a34a" opacity="0.82" rx="1"/>
<line x1="187.4" y1="158.1" x2="187.4" y2="176.6" stroke="#dc2626" stroke-width="1"/><rect x="184.7" y="165.7" width="5.4" height="4.6" fill="#dc2626" opacity="0.82" rx="1"/>
<line x1="196.3" y1="153.2" x2="196.3" y2="173.1" stroke="#16a34a" stroke-width="1"/><rect x="193.5" y="165.2" width="5.4" height="5.1" fill="#16a34a" opacity="0.82" rx="1"/>
<line x1="205.1" y1="164.3" x2="205.1" y2="176.5" stroke="#dc2626" stroke-width="1"/><rect x="202.4" y="165.2" width="5.4" height="8.3" fill="#dc2626" opacity="0.82" rx="1"/>
<line x1="214.0" y1="169.8" x2="214.0" y2="194.1" stroke="#dc2626" stroke-width="1"/><rect x="211.3" y="173.5" width="5.4" height="4.1" fill="#dc2626" opacity="0.82" rx="1"/>
<line x1="222.9" y1="177.6" x2="222.9" y2="200.2" stroke="#dc2626" stroke-width="1"/><rect x="220.2" y="177.6" width="5.4" height="11.8" fill="#dc2626" opacity="0.82" rx="1"/>
<line x1="231.8" y1="184.8" x2="231.8" y2="205.0" stroke="#dc2626" stroke-width="1"/><rect x="229.1" y="189.5" width="5.4" height="8.0" fill="#dc2626" opacity="0.82" rx="1"/>
<line x1="240.7" y1="194.1" x2="240.7" y2="221.6" stroke="#dc2626" stroke-width="1"/><rect x="237.9" y="197.5" width="5.4" height="14.5" fill="#dc2626" opacity="0.82" rx="1"/>
<line x1="249.5" y1="204.8" x2="249.5" y2="215.6" stroke="#16a34a" stroke-width="1"/><rect x="246.8" y="206.8" width="5.4" height="5.1" fill="#16a34a" opacity="0.82" rx="1"/>
<line x1="258.4" y1="192.2" x2="258.4" y2="211.4" stroke="#16a34a" stroke-width="1"/><rect x="255.7" y="203.1" width="5.4" height="3.7" fill="#16a34a" opacity="0.82" rx="1"/>
<line x1="267.3" y1="203.0" x2="267.3" y2="215.5" stroke="#dc2626" stroke-width="1"/><rect x="264.6" y="203.1" width="5.4" height="5.5" fill="#dc2626" opacity="0.82" rx="1"/>
<line x1="276.2" y1="202.1" x2="276.2" y2="214.2" stroke="#16a34a" stroke-width="1"/><rect x="273.4" y="206.0" width="5.4" height="2.6" fill="#16a34a" opacity="0.82" rx="1"/>
<line x1="285.0" y1="183.5" x2="285.0" y2="210.6" stroke="#16a34a" stroke-width="1"/><rect x="282.3" y="186.9" width="5.4" height="19.1" fill="#16a34a" opacity="0.82" rx="1"/>
<line x1="293.9" y1="180.0" x2="293.9" y2="196.8" stroke="#dc2626" stroke-width="1"/><rect x="291.2" y="186.9" width="5.4" height="7.9" fill="#dc2626" opacity="0.82" rx="1"/>
<line x1="302.8" y1="193.7" x2="302.8" y2="232.4" stroke="#dc2626" stroke-width="1"/><rect x="300.1" y="194.9" width="5.4" height="22.8" fill="#dc2626" opacity="0.82" rx="1"/>
<line x1="311.7" y1="206.9" x2="311.7" y2="224.9" stroke="#16a34a" stroke-width="1"/><rect x="308.9" y="207.0" width="5.4" height="10.7" fill="#16a34a" opacity="0.82" rx="1"/>
<line x1="320.5" y1="202.1" x2="320.5" y2="219.0" stroke="#dc2626" stroke-width="1"/><rect x="317.8" y="207.0" width="5.4" height="8.4" fill="#dc2626" opacity="0.82" rx="1"/>
<line x1="329.4" y1="205.8" x2="329.4" y2="222.8" stroke="#16a34a" stroke-width="1"/><rect x="326.7" y="208.5" width="5.4" height="6.9" fill="#16a34a" opacity="0.82" rx="1"/>
<line x1="338.3" y1="202.3" x2="338.3" y2="216.3" stroke="#16a34a" stroke-width="1"/><rect x="335.6" y="204.4" width="5.4" height="4.0" fill="#16a34a" opacity="0.82" rx="1"/>
<line x1="347.2" y1="202.6" x2="347.2" y2="216.0" stroke="#16a34a" stroke-width="1"/><rect x="344.4" y="203.3" width="5.4" height="1.2" fill="#16a34a" opacity="0.82" rx="1"/>
<line x1="356.0" y1="192.5" x2="356.0" y2="214.0" stroke="#dc2626" stroke-width="1"/><rect x="353.3" y="203.3" width="5.4" height="5.7" fill="#dc2626" opacity="0.82" rx="1"/>
<line x1="364.9" y1="206.3" x2="364.9" y2="220.0" stroke="#dc2626" stroke-width="1"/><rect x="362.2" y="209.0" width="5.4" height="7.8" fill="#dc2626" opacity="0.82" rx="1"/>
<line x1="373.8" y1="202.1" x2="373.8" y2="220.4" stroke="#dc2626" stroke-width="1"/><rect x="371.1" y="216.7" width="5.4" height="1.2" fill="#dc2626" opacity="0.82" rx="1"/>
<line x1="382.7" y1="197.1" x2="382.7" y2="218.6" stroke="#16a34a" stroke-width="1"/><rect x="380.0" y="203.1" width="5.4" height="14.5" fill="#16a34a" opacity="0.82" rx="1"/>
<line x1="391.6" y1="198.3" x2="391.6" y2="210.6" stroke="#dc2626" stroke-width="1"/><rect x="388.8" y="203.1" width="5.4" height="3.4" fill="#dc2626" opacity="0.82" rx="1"/>
<line x1="400.4" y1="200.9" x2="400.4" y2="212.4" stroke="#dc2626" stroke-width="1"/><rect x="397.7" y="206.5" width="5.4" height="3.1" fill="#dc2626" opacity="0.82" rx="1"/>
<line x1="409.3" y1="169.1" x2="409.3" y2="219.2" stroke="#16a34a" stroke-width="1"/><rect x="406.6" y="181.1" width="5.4" height="28.4" fill="#16a34a" opacity="0.82" rx="1"/>
<line x1="418.2" y1="110.5" x2="418.2" y2="188.4" stroke="#16a34a" stroke-width="1"/><rect x="415.5" y="130.8" width="5.4" height="50.3" fill="#16a34a" opacity="0.82" rx="1"/>
<line x1="427.1" y1="109.6" x2="427.1" y2="144.4" stroke="#dc2626" stroke-width="1"/><rect x="424.3" y="130.8" width="5.4" height="7.8" fill="#dc2626" opacity="0.82" rx="1"/>
<line x1="435.9" y1="127.5" x2="435.9" y2="162.6" stroke="#16a34a" stroke-width="1"/><rect x="433.2" y="130.0" width="5.4" height="8.6" fill="#16a34a" opacity="0.82" rx="1"/>
<line x1="444.8" y1="116.6" x2="444.8" y2="146.2" stroke="#dc2626" stroke-width="1"/><rect x="442.1" y="130.0" width="5.4" height="14.3" fill="#dc2626" opacity="0.82" rx="1"/>
<line x1="453.7" y1="136.5" x2="453.7" y2="160.1" stroke="#dc2626" stroke-width="1"/><rect x="451.0" y="144.3" width="5.4" height="9.2" fill="#dc2626" opacity="0.82" rx="1"/>
<line x1="462.6" y1="149.4" x2="462.6" y2="178.7" stroke="#dc2626" stroke-width="1"/><rect x="459.8" y="153.5" width="5.4" height="11.8" fill="#dc2626" opacity="0.82" rx="1"/>
<line x1="471.4" y1="158.0" x2="471.4" y2="174.6" stroke="#dc2626" stroke-width="1"/><rect x="468.7" y="165.4" width="5.4" height="2.3" fill="#dc2626" opacity="0.82" rx="1"/>
<line x1="480.3" y1="167.7" x2="480.3" y2="193.4" stroke="#dc2626" stroke-width="1"/><rect x="477.6" y="167.7" width="5.4" height="12.2" fill="#dc2626" opacity="0.82" rx="1"/>
<line x1="489.2" y1="176.8" x2="489.2" y2="191.2" stroke="#dc2626" stroke-width="1"/><rect x="486.5" y="179.9" width="5.4" height="9.6" fill="#dc2626" opacity="0.82" rx="1"/>
<line x1="498.1" y1="178.6" x2="498.1" y2="197.6" stroke="#16a34a" stroke-width="1"/><rect x="495.3" y="181.6" width="5.4" height="7.9" fill="#16a34a" opacity="0.82" rx="1"/>
<line x1="506.9" y1="169.0" x2="506.9" y2="201.6" stroke="#dc2626" stroke-width="1"/><rect x="504.2" y="181.6" width="5.4" height="14.6" fill="#dc2626" opacity="0.82" rx="1"/>
<line x1="515.8" y1="194.8" x2="515.8" y2="216.9" stroke="#dc2626" stroke-width="1"/><rect x="513.1" y="196.2" width="5.4" height="17.8" fill="#dc2626" opacity="0.82" rx="1"/>
<line x1="524.7" y1="185.1" x2="524.7" y2="214.4" stroke="#16a34a" stroke-width="1"/><rect x="522.0" y="202.3" width="5.4" height="11.7" fill="#16a34a" opacity="0.82" rx="1"/>
<line x1="533.6" y1="188.2" x2="533.6" y2="228.4" stroke="#dc2626" stroke-width="1"/><rect x="530.9" y="202.3" width="5.4" height="26.1" fill="#dc2626" opacity="0.82" rx="1"/>
<line x1="542.4" y1="228.0" x2="542.4" y2="291.3" stroke="#dc2626" stroke-width="1"/><rect x="539.7" y="228.4" width="5.4" height="56.5" fill="#dc2626" opacity="0.82" rx="1"/>
<line x1="551.3" y1="262.4" x2="551.3" y2="318.9" stroke="#16a34a" stroke-width="1"/><rect x="548.6" y="283.6" width="5.4" height="1.4" fill="#16a34a" opacity="0.82" rx="1"/>
<line x1="560.2" y1="233.4" x2="560.2" y2="289.2" stroke="#16a34a" stroke-width="1"/><rect x="557.5" y="262.7" width="5.4" height="20.8" fill="#16a34a" opacity="0.82" rx="1"/>
<line x1="569.1" y1="145.3" x2="569.1" y2="262.7" stroke="#16a34a" stroke-width="1"/><rect x="566.4" y="145.9" width="5.4" height="116.8" fill="#16a34a" opacity="0.82" rx="1"/>
<line x1="578.0" y1="120.5" x2="578.0" y2="158.8" stroke="#16a34a" stroke-width="1"/><rect x="575.2" y="131.4" width="5.4" height="14.6" fill="#16a34a" opacity="0.82" rx="1"/>
<line x1="586.8" y1="110.6" x2="586.8" y2="144.6" stroke="#dc2626" stroke-width="1"/><rect x="584.1" y="131.4" width="5.4" height="11.3" fill="#dc2626" opacity="0.82" rx="1"/>
<line x1="595.7" y1="119.2" x2="595.7" y2="145.2" stroke="#16a34a" stroke-width="1"/><rect x="593.0" y="134.1" width="5.4" height="8.6" fill="#16a34a" opacity="0.82" rx="1"/>
<line x1="604.6" y1="118.6" x2="604.6" y2="137.8" stroke="#16a34a" stroke-width="1"/><rect x="601.9" y="131.4" width="5.4" height="2.6" fill="#16a34a" opacity="0.82" rx="1"/>
<line x1="613.5" y1="119.1" x2="613.5" y2="143.1" stroke="#16a34a" stroke-width="1"/><rect x="610.7" y="124.6" width="5.4" height="6.8" fill="#16a34a" opacity="0.82" rx="1"/>
<line x1="622.3" y1="55.1" x2="622.3" y2="125.8" stroke="#16a34a" stroke-width="1"/><rect x="619.6" y="71.9" width="5.4" height="52.7" fill="#16a34a" opacity="0.82" rx="1"/>
<line x1="631.2" y1="70.9" x2="631.2" y2="98.8" stroke="#dc2626" stroke-width="1"/><rect x="628.5" y="71.9" width="5.4" height="19.3" fill="#dc2626" opacity="0.82" rx="1"/>
<line x1="640.1" y1="83.2" x2="640.1" y2="108.7" stroke="#dc2626" stroke-width="1"/><rect x="637.4" y="91.2" width="5.4" height="15.8" fill="#dc2626" opacity="0.82" rx="1"/>
<line x1="649.0" y1="85.7" x2="649.0" y2="110.3" stroke="#16a34a" stroke-width="1"/><rect x="646.2" y="95.3" width="5.4" height="11.8" fill="#16a34a" opacity="0.82" rx="1"/>
<line x1="657.8" y1="95.3" x2="657.8" y2="129.2" stroke="#dc2626" stroke-width="1"/><rect x="655.1" y="95.3" width="5.4" height="28.0" fill="#dc2626" opacity="0.82" rx="1"/>
<line x1="666.7" y1="117.9" x2="666.7" y2="166.6" stroke="#dc2626" stroke-width="1"/><rect x="664.0" y="123.2" width="5.4" height="40.2" fill="#dc2626" opacity="0.82" rx="1"/>
<line x1="675.6" y1="154.5" x2="675.6" y2="177.1" stroke="#dc2626" stroke-width="1"/><rect x="672.9" y="163.4" width="5.4" height="10.4" fill="#dc2626" opacity="0.82" rx="1"/>
<line x1="684.5" y1="165.8" x2="684.5" y2="184.2" stroke="#dc2626" stroke-width="1"/><rect x="681.8" y="173.8" width="5.4" height="7.5" fill="#dc2626" opacity="0.82" rx="1"/>
<line x1="693.3" y1="168.5" x2="693.3" y2="206.3" stroke="#16a34a" stroke-width="1"/><rect x="690.6" y="179.4" width="5.4" height="1.8" fill="#16a34a" opacity="0.82" rx="1"/>
<line x1="702.2" y1="157.6" x2="702.2" y2="190.1" stroke="#16a34a" stroke-width="1"/><rect x="699.5" y="162.5" width="5.4" height="16.9" fill="#16a34a" opacity="0.82" rx="1"/>
<line x1="711.1" y1="153.6" x2="711.1" y2="182.7" stroke="#dc2626" stroke-width="1"/><rect x="708.4" y="162.5" width="5.4" height="19.2" fill="#dc2626" opacity="0.82" rx="1"/>
<line x1="720.0" y1="173.7" x2="720.0" y2="189.8" stroke="#16a34a" stroke-width="1"/><rect x="717.3" y="180.8" width="5.4" height="1.2" fill="#16a34a" opacity="0.82" rx="1"/>
<line x1="728.9" y1="161.9" x2="728.9" y2="184.2" stroke="#16a34a" stroke-width="1"/><rect x="726.1" y="168.9" width="5.4" height="11.9" fill="#16a34a" opacity="0.82" rx="1"/>
<line x1="737.7" y1="152.9" x2="737.7" y2="172.2" stroke="#16a34a" stroke-width="1"/><rect x="735.0" y="166.5" width="5.4" height="2.5" fill="#16a34a" opacity="0.82" rx="1"/>
<line x1="746.6" y1="153.3" x2="746.6" y2="180.4" stroke="#16a34a" stroke-width="1"/><rect x="743.9" y="157.2" width="5.4" height="9.3" fill="#16a34a" opacity="0.82" rx="1"/>
<line x1="755.5" y1="119.1" x2="755.5" y2="158.2" stroke="#16a34a" stroke-width="1"/><rect x="752.8" y="151.5" width="5.4" height="5.8" fill="#16a34a" opacity="0.82" rx="1"/>
<line x1="764.4" y1="151.2" x2="764.4" y2="189.7" stroke="#dc2626" stroke-width="1"/><rect x="761.6" y="151.5" width="5.4" height="32.5" fill="#dc2626" opacity="0.82" rx="1"/>
<line x1="773.2" y1="138.6" x2="773.2" y2="214.7" stroke="#16a34a" stroke-width="1"/><rect x="770.5" y="144.9" width="5.4" height="39.1" fill="#16a34a" opacity="0.82" rx="1"/>
<line x1="782.1" y1="101.4" x2="782.1" y2="159.4" stroke="#16a34a" stroke-width="1"/><rect x="779.4" y="115.9" width="5.4" height="29.0" fill="#16a34a" opacity="0.82" rx="1"/>
<line x1="791.0" y1="90.7" x2="791.0" y2="125.9" stroke="#16a34a" stroke-width="1"/><rect x="788.3" y="111.8" width="5.4" height="4.1" fill="#16a34a" opacity="0.82" rx="1"/>
<line x1="799.9" y1="92.5" x2="799.9" y2="119.1" stroke="#16a34a" stroke-width="1"/><rect x="797.1" y="96.1" width="5.4" height="15.7" fill="#16a34a" opacity="0.82" rx="1"/>
<line x1="808.7" y1="95.7" x2="808.7" y2="136.3" stroke="#dc2626" stroke-width="1"/><rect x="806.0" y="96.1" width="5.4" height="39.7" fill="#dc2626" opacity="0.82" rx="1"/>
<line x1="817.6" y1="118.7" x2="817.6" y2="159.3" stroke="#16a34a" stroke-width="1"/><rect x="814.9" y="124.8" width="5.4" height="11.0" fill="#16a34a" opacity="0.82" rx="1"/>
<line x1="826.5" y1="118.6" x2="826.5" y2="140.8" stroke="#dc2626" stroke-width="1"/><rect x="823.8" y="124.8" width="5.4" height="9.8" fill="#dc2626" opacity="0.82" rx="1"/>
<line x1="835.4" y1="121.3" x2="835.4" y2="166.1" stroke="#dc2626" stroke-width="1"/><rect x="832.6" y="134.6" width="5.4" height="20.9" fill="#dc2626" opacity="0.82" rx="1"/>
<line x1="844.2" y1="137.2" x2="844.2" y2="172.8" stroke="#16a34a" stroke-width="1"/><rect x="841.5" y="146.6" width="5.4" height="9.0" fill="#16a34a" opacity="0.82" rx="1"/>
<line x1="853.1" y1="133.8" x2="853.1" y2="164.2" stroke="#dc2626" stroke-width="1"/><rect x="850.4" y="146.6" width="5.4" height="13.9" fill="#dc2626" opacity="0.82" rx="1"/>
<line x1="862.0" y1="156.7" x2="862.0" y2="165.3" stroke="#dc2626" stroke-width="1"/><rect x="859.3" y="160.5" width="5.4" height="2.8" fill="#dc2626" opacity="0.82" rx="1"/>
<line x1="72" y1="219.3" x2="862" y2="219.3" stroke="#16a34a" stroke-width="1.8" stroke-dasharray="6 4" /><rect x="874" y="199.3" width="166" height="23" rx="5" fill="#ffffff" stroke="#16a34a" opacity="0.97"/><text x="881" y="215.3" fill="#16a34a" font-size="15" font-weight="700">日内支撑 62,578</text>
<line x1="72" y1="69.8" x2="862" y2="69.8" stroke="#dc2626" stroke-width="1.8" stroke-dasharray="6 4" /><rect x="874" y="49.8" width="166" height="23" rx="5" fill="#ffffff" stroke="#dc2626" opacity="0.97"/><text x="881" y="65.8" fill="#dc2626" font-size="15" font-weight="700">日内压力 64,502</text>
<line x1="72" y1="163.3" x2="862" y2="163.3" stroke="#111827" stroke-width="1.8" stroke-dasharray="2 2" /><rect x="874" y="143.3" width="166" height="23" rx="5" fill="#ffffff" stroke="#111827" opacity="0.97"/><text x="881" y="159.3" fill="#111827" font-size="15" font-weight="700">现价 63,300</text>
<text x="72" y="396" fill="#16a34a" font-size="14" font-weight="700">日内做多计划</text><rect x="72" y="404" width="790" height="48" rx="6" fill="#f9fafb" stroke="#e5e7eb"/><line x1="94" y1="412" x2="840" y2="412" stroke="#16a34a" stroke-width="3"/><circle cx="132.0" cy="412" r="5" fill="#16a34a"/><text x="132.0" y="434" fill="#374151" font-size="12" text-anchor="middle">入场 止跌/突破回踩</text><circle cx="451.2" cy="412" r="5" fill="#16a34a"/><text x="451.2" y="434" fill="#374151" font-size="12" text-anchor="middle">止损 62,578</text><circle cx="712.0" cy="412" r="5" fill="#16a34a"/><text x="712.0" y="434" fill="#374151" font-size="12" text-anchor="middle">目标一 64,502</text><circle cx="814.0" cy="412" r="5" fill="#16a34a"/><text x="814.0" y="434" fill="#374151" font-size="12" text-anchor="middle">目标二 64,983</text>
<text x="72" y="482" fill="#dc2626" font-size="14" font-weight="700">日内做空计划</text><rect x="72" y="490" width="790" height="48" rx="6" fill="#f9fafb" stroke="#e5e7eb"/><line x1="94" y1="498" x2="840" y2="498" stroke="#dc2626" stroke-width="3"/><circle cx="132.0" cy="498" r="5" fill="#dc2626"/><text x="132.0" y="520" fill="#374151" font-size="12" text-anchor="middle">入场 反弹承压/破位回抽</text><circle cx="451.2" cy="498" r="5" fill="#dc2626"/><text x="451.2" y="520" fill="#374151" font-size="12" text-anchor="middle">止损 64,502</text><circle cx="712.0" cy="498" r="5" fill="#dc2626"/><text x="712.0" y="520" fill="#374151" font-size="12" text-anchor="middle">目标一 62,578</text><circle cx="814.0" cy="498" r="5" fill="#dc2626"/><text x="814.0" y="520" fill="#374151" font-size="12" text-anchor="middle">目标二 62,097</text>
</svg>