<svg xmlns="http://www.w3.org/2000/svg" width="1080" height="560" viewBox="0 0 1080 560">
<rect width="100%" height="100%" fill="#ffffff"/>
<text x="72" y="23" fill="#111827" font-size="21" font-weight="800">HYPE 小时线K线支撑压力图</text>
<text x="862" y="42" fill="#374151" font-size="15" text-anchor="end">最新价 67.87</text>
<line x1="72" y1="34" x2="72" y2="340" stroke="#d1d5db"/>
<line x1="72" y1="340" x2="862" y2="340" stroke="#d1d5db"/>
<line x1="72" y1="340.0" x2="862" y2="340.0" stroke="#f3f4f6"/>
<text x="8" y="345.0" fill="#4b5563" font-size="14">65.98</text>
<line x1="72" y1="263.5" x2="862" y2="263.5" stroke="#f3f4f6"/>
<text x="8" y="268.5" fill="#4b5563" font-size="14">67.84</text>
<line x1="72" y1="187.0" x2="862" y2="187.0" stroke="#f3f4f6"/>
<text x="8" y="192.0" fill="#4b5563" font-size="14">69.70</text>
<line x1="72" y1="110.5" x2="862" y2="110.5" stroke="#f3f4f6"/>
<text x="8" y="115.5" fill="#4b5563" font-size="14">71.57</text>
<line x1="72" y1="34.0" x2="862" y2="34.0" stroke="#f3f4f6"/>
<text x="8" y="39.0" fill="#4b5563" font-size="14">73.43</text>
<line x1="72.0" y1="140.9" x2="72.0" y2="159.2" stroke="#16a34a" stroke-width="1"/><rect x="69.3" y="153.6" width="5.4" height="1.2" fill="#16a34a" opacity="0.82" rx="1"/>
<line x1="80.9" y1="126.1" x2="80.9" y2="156.0" stroke="#16a34a" stroke-width="1"/><rect x="78.2" y="149.5" width="5.4" height="4.1" fill="#16a34a" opacity="0.82" rx="1"/>
<line x1="89.8" y1="139.3" x2="89.8" y2="168.4" stroke="#dc2626" stroke-width="1"/><rect x="87.0" y="149.5" width="5.4" height="15.6" fill="#dc2626" opacity="0.82" rx="1"/>
<line x1="98.6" y1="142.0" x2="98.6" y2="174.9" stroke="#16a34a" stroke-width="1"/><rect x="95.9" y="149.5" width="5.4" height="15.7" fill="#16a34a" opacity="0.82" rx="1"/>
<line x1="107.5" y1="147.4" x2="107.5" y2="193.1" stroke="#dc2626" stroke-width="1"/><rect x="104.8" y="149.1" width="5.4" height="37.3" fill="#dc2626" opacity="0.82" rx="1"/>
<line x1="116.4" y1="174.6" x2="116.4" y2="201.4" stroke="#16a34a" stroke-width="1"/><rect x="113.7" y="179.7" width="5.4" height="6.7" fill="#16a34a" opacity="0.82" rx="1"/>
<line x1="125.3" y1="172.2" x2="125.3" y2="195.4" stroke="#dc2626" stroke-width="1"/><rect x="122.5" y="179.7" width="5.4" height="5.3" fill="#dc2626" opacity="0.82" rx="1"/>
<line x1="134.1" y1="164.7" x2="134.1" y2="187.7" stroke="#16a34a" stroke-width="1"/><rect x="131.4" y="170.0" width="5.4" height="14.9" fill="#16a34a" opacity="0.82" rx="1"/>
<line x1="143.0" y1="166.1" x2="143.0" y2="183.4" stroke="#dc2626" stroke-width="1"/><rect x="140.3" y="170.0" width="5.4" height="4.5" fill="#dc2626" opacity="0.82" rx="1"/>
<line x1="151.9" y1="171.9" x2="151.9" y2="190.6" stroke="#dc2626" stroke-width="1"/><rect x="149.2" y="174.1" width="5.4" height="7.3" fill="#dc2626" opacity="0.82" rx="1"/>
<line x1="160.8" y1="180.3" x2="160.8" y2="213.7" stroke="#dc2626" stroke-width="1"/><rect x="158.0" y="181.4" width="5.4" height="21.7" fill="#dc2626" opacity="0.82" rx="1"/>
<line x1="169.6" y1="201.8" x2="169.6" y2="232.6" stroke="#dc2626" stroke-width="1"/><rect x="166.9" y="203.1" width="5.4" height="14.0" fill="#dc2626" opacity="0.82" rx="1"/>
<line x1="178.5" y1="217.2" x2="178.5" y2="247.7" stroke="#dc2626" stroke-width="1"/><rect x="175.8" y="217.2" width="5.4" height="16.0" fill="#dc2626" opacity="0.82" rx="1"/>
<line x1="187.4" y1="227.9" x2="187.4" y2="243.2" stroke="#16a34a" stroke-width="1"/><rect x="184.7" y="230.1" width="5.4" height="3.1" fill="#16a34a" opacity="0.82" rx="1"/>
<line x1="196.3" y1="200.6" x2="196.3" y2="230.1" stroke="#16a34a" stroke-width="1"/><rect x="193.5" y="225.5" width="5.4" height="4.6" fill="#16a34a" opacity="0.82" rx="1"/>
<line x1="205.1" y1="225.7" x2="205.1" y2="248.4" stroke="#dc2626" stroke-width="1"/><rect x="202.4" y="225.7" width="5.4" height="10.5" fill="#dc2626" opacity="0.82" rx="1"/>
<line x1="214.0" y1="227.3" x2="214.0" y2="243.7" stroke="#16a34a" stroke-width="1"/><rect x="211.3" y="232.6" width="5.4" height="4.3" fill="#16a34a" opacity="0.82" rx="1"/>
<line x1="222.9" y1="228.0" x2="222.9" y2="242.9" stroke="#16a34a" stroke-width="1"/><rect x="220.2" y="229.1" width="5.4" height="3.4" fill="#16a34a" opacity="0.82" rx="1"/>
<line x1="231.8" y1="217.8" x2="231.8" y2="238.1" stroke="#16a34a" stroke-width="1"/><rect x="229.1" y="220.8" width="5.4" height="8.3" fill="#16a34a" opacity="0.82" rx="1"/>
<line x1="240.7" y1="218.6" x2="240.7" y2="243.4" stroke="#dc2626" stroke-width="1"/><rect x="237.9" y="221.7" width="5.4" height="16.5" fill="#dc2626" opacity="0.82" rx="1"/>
<line x1="249.5" y1="212.1" x2="249.5" y2="242.2" stroke="#16a34a" stroke-width="1"/><rect x="246.8" y="217.5" width="5.4" height="20.7" fill="#16a34a" opacity="0.82" rx="1"/>
<line x1="258.4" y1="214.5" x2="258.4" y2="238.1" stroke="#dc2626" stroke-width="1"/><rect x="255.7" y="217.5" width="5.4" height="5.4" fill="#dc2626" opacity="0.82" rx="1"/>
<line x1="267.3" y1="196.6" x2="267.3" y2="230.3" stroke="#16a34a" stroke-width="1"/><rect x="264.6" y="209.0" width="5.4" height="13.6" fill="#16a34a" opacity="0.82" rx="1"/>
<line x1="276.2" y1="193.1" x2="276.2" y2="213.0" stroke="#16a34a" stroke-width="1"/><rect x="273.4" y="206.1" width="5.4" height="2.8" fill="#16a34a" opacity="0.82" rx="1"/>
<line x1="285.0" y1="197.0" x2="285.0" y2="216.4" stroke="#16a34a" stroke-width="1"/><rect x="282.3" y="198.3" width="5.4" height="7.8" fill="#16a34a" opacity="0.82" rx="1"/>
<line x1="293.9" y1="180.7" x2="293.9" y2="202.5" stroke="#16a34a" stroke-width="1"/><rect x="291.2" y="194.8" width="5.4" height="3.5" fill="#16a34a" opacity="0.82" rx="1"/>
<line x1="302.8" y1="194.4" x2="302.8" y2="209.8" stroke="#dc2626" stroke-width="1"/><rect x="300.1" y="194.9" width="5.4" height="6.4" fill="#dc2626" opacity="0.82" rx="1"/>
<line x1="311.7" y1="196.1" x2="311.7" y2="211.4" stroke="#dc2626" stroke-width="1"/><rect x="308.9" y="201.5" width="5.4" height="5.4" fill="#dc2626" opacity="0.82" rx="1"/>
<line x1="320.5" y1="200.4" x2="320.5" y2="211.9" stroke="#16a34a" stroke-width="1"/><rect x="317.8" y="206.6" width="5.4" height="1.2" fill="#16a34a" opacity="0.82" rx="1"/>
<line x1="329.4" y1="177.9" x2="329.4" y2="207.9" stroke="#16a34a" stroke-width="1"/><rect x="326.7" y="184.8" width="5.4" height="21.8" fill="#16a34a" opacity="0.82" rx="1"/>
<line x1="338.3" y1="137.4" x2="338.3" y2="186.6" stroke="#16a34a" stroke-width="1"/><rect x="335.6" y="139.6" width="5.4" height="45.0" fill="#16a34a" opacity="0.82" rx="1"/>
<line x1="347.2" y1="120.4" x2="347.2" y2="155.9" stroke="#16a34a" stroke-width="1"/><rect x="344.4" y="133.1" width="5.4" height="6.0" fill="#16a34a" opacity="0.82" rx="1"/>
<line x1="356.0" y1="104.8" x2="356.0" y2="139.6" stroke="#16a34a" stroke-width="1"/><rect x="353.3" y="111.9" width="5.4" height="21.2" fill="#16a34a" opacity="0.82" rx="1"/>
<line x1="364.9" y1="110.1" x2="364.9" y2="133.4" stroke="#dc2626" stroke-width="1"/><rect x="362.2" y="112.1" width="5.4" height="8.2" fill="#dc2626" opacity="0.82" rx="1"/>
<line x1="373.8" y1="72.6" x2="373.8" y2="129.0" stroke="#16a34a" stroke-width="1"/><rect x="371.1" y="73.1" width="5.4" height="47.1" fill="#16a34a" opacity="0.82" rx="1"/>
<line x1="382.7" y1="68.0" x2="382.7" y2="105.6" stroke="#dc2626" stroke-width="1"/><rect x="380.0" y="73.2" width="5.4" height="27.7" fill="#dc2626" opacity="0.82" rx="1"/>
<line x1="391.6" y1="78.0" x2="391.6" y2="112.8" stroke="#16a34a" stroke-width="1"/><rect x="388.8" y="83.8" width="5.4" height="17.2" fill="#16a34a" opacity="0.82" rx="1"/>
<line x1="400.4" y1="77.1" x2="400.4" y2="122.2" stroke="#dc2626" stroke-width="1"/><rect x="397.7" y="83.8" width="5.4" height="25.9" fill="#dc2626" opacity="0.82" rx="1"/>
<line x1="409.3" y1="102.8" x2="409.3" y2="130.4" stroke="#dc2626" stroke-width="1"/><rect x="406.6" y="109.8" width="5.4" height="1.2" fill="#dc2626" opacity="0.82" rx="1"/>
<line x1="418.2" y1="104.1" x2="418.2" y2="148.7" stroke="#dc2626" stroke-width="1"/><rect x="415.5" y="110.5" width="5.4" height="35.4" fill="#dc2626" opacity="0.82" rx="1"/>
<line x1="427.1" y1="125.9" x2="427.1" y2="148.5" stroke="#16a34a" stroke-width="1"/><rect x="424.3" y="128.2" width="5.4" height="17.7" fill="#16a34a" opacity="0.82" rx="1"/>
<line x1="435.9" y1="125.5" x2="435.9" y2="143.7" stroke="#dc2626" stroke-width="1"/><rect x="433.2" y="128.2" width="5.4" height="12.8" fill="#dc2626" opacity="0.82" rx="1"/>
<line x1="444.8" y1="130.3" x2="444.8" y2="174.0" stroke="#dc2626" stroke-width="1"/><rect x="442.1" y="141.0" width="5.4" height="22.8" fill="#dc2626" opacity="0.82" rx="1"/>
<line x1="453.7" y1="161.5" x2="453.7" y2="185.4" stroke="#dc2626" stroke-width="1"/><rect x="451.0" y="163.8" width="5.4" height="13.6" fill="#dc2626" opacity="0.82" rx="1"/>
<line x1="462.6" y1="151.1" x2="462.6" y2="177.5" stroke="#16a34a" stroke-width="1"/><rect x="459.8" y="158.5" width="5.4" height="18.9" fill="#16a34a" opacity="0.82" rx="1"/>
<line x1="471.4" y1="134.5" x2="471.4" y2="179.8" stroke="#dc2626" stroke-width="1"/><rect x="468.7" y="158.5" width="5.4" height="17.1" fill="#dc2626" opacity="0.82" rx="1"/>
<line x1="480.3" y1="172.4" x2="480.3" y2="215.3" stroke="#dc2626" stroke-width="1"/><rect x="477.6" y="175.0" width="5.4" height="36.5" fill="#dc2626" opacity="0.82" rx="1"/>
<line x1="489.2" y1="180.6" x2="489.2" y2="231.5" stroke="#16a34a" stroke-width="1"/><rect x="486.5" y="189.7" width="5.4" height="21.7" fill="#16a34a" opacity="0.82" rx="1"/>
<line x1="498.1" y1="163.0" x2="498.1" y2="197.3" stroke="#16a34a" stroke-width="1"/><rect x="495.3" y="183.0" width="5.4" height="6.5" fill="#16a34a" opacity="0.82" rx="1"/>
<line x1="506.9" y1="141.2" x2="506.9" y2="183.0" stroke="#16a34a" stroke-width="1"/><rect x="504.2" y="145.8" width="5.4" height="37.2" fill="#16a34a" opacity="0.82" rx="1"/>
<line x1="515.8" y1="123.2" x2="515.8" y2="147.6" stroke="#16a34a" stroke-width="1"/><rect x="513.1" y="123.2" width="5.4" height="22.1" fill="#16a34a" opacity="0.82" rx="1"/>
<line x1="524.7" y1="111.2" x2="524.7" y2="136.0" stroke="#dc2626" stroke-width="1"/><rect x="522.0" y="123.3" width="5.4" height="8.0" fill="#dc2626" opacity="0.82" rx="1"/>
<line x1="533.6" y1="109.1" x2="533.6" y2="132.5" stroke="#16a34a" stroke-width="1"/><rect x="530.9" y="126.0" width="5.4" height="5.1" fill="#16a34a" opacity="0.82" rx="1"/>
<line x1="542.4" y1="104.6" x2="542.4" y2="129.2" stroke="#16a34a" stroke-width="1"/><rect x="539.7" y="108.9" width="5.4" height="17.2" fill="#16a34a" opacity="0.82" rx="1"/>
<line x1="551.3" y1="109.2" x2="551.3" y2="142.0" stroke="#dc2626" stroke-width="1"/><rect x="548.6" y="109.6" width="5.4" height="27.6" fill="#dc2626" opacity="0.82" rx="1"/>
<line x1="560.2" y1="104.0" x2="560.2" y2="140.7" stroke="#16a34a" stroke-width="1"/><rect x="557.5" y="109.0" width="5.4" height="28.2" fill="#16a34a" opacity="0.82" rx="1"/>
<line x1="569.1" y1="108.4" x2="569.1" y2="134.7" stroke="#dc2626" stroke-width="1"/><rect x="566.4" y="108.8" width="5.4" height="21.3" fill="#dc2626" opacity="0.82" rx="1"/>
<line x1="578.0" y1="128.5" x2="578.0" y2="154.3" stroke="#dc2626" stroke-width="1"/><rect x="575.2" y="129.9" width="5.4" height="21.0" fill="#dc2626" opacity="0.82" rx="1"/>
<line x1="586.8" y1="92.7" x2="586.8" y2="157.5" stroke="#16a34a" stroke-width="1"/><rect x="584.1" y="94.4" width="5.4" height="56.7" fill="#16a34a" opacity="0.82" rx="1"/>
<line x1="595.7" y1="94.4" x2="595.7" y2="128.8" stroke="#dc2626" stroke-width="1"/><rect x="593.0" y="94.4" width="5.4" height="33.7" fill="#dc2626" opacity="0.82" rx="1"/>
<line x1="604.6" y1="124.0" x2="604.6" y2="155.5" stroke="#dc2626" stroke-width="1"/><rect x="601.9" y="128.1" width="5.4" height="20.4" fill="#dc2626" opacity="0.82" rx="1"/>
<line x1="613.5" y1="145.1" x2="613.5" y2="172.2" stroke="#dc2626" stroke-width="1"/><rect x="610.7" y="148.6" width="5.4" height="19.4" fill="#dc2626" opacity="0.82" rx="1"/>
<line x1="622.3" y1="165.9" x2="622.3" y2="188.4" stroke="#dc2626" stroke-width="1"/><rect x="619.6" y="167.8" width="5.4" height="1.2" fill="#dc2626" opacity="0.82" rx="1"/>
<line x1="631.2" y1="157.1" x2="631.2" y2="197.3" stroke="#16a34a" stroke-width="1"/><rect x="628.5" y="167.5" width="5.4" height="1.2" fill="#16a34a" opacity="0.82" rx="1"/>
<line x1="640.1" y1="134.5" x2="640.1" y2="173.3" stroke="#16a34a" stroke-width="1"/><rect x="637.4" y="137.8" width="5.4" height="29.6" fill="#16a34a" opacity="0.82" rx="1"/>
<line x1="649.0" y1="122.4" x2="649.0" y2="154.3" stroke="#dc2626" stroke-width="1"/><rect x="646.2" y="137.9" width="5.4" height="14.3" fill="#dc2626" opacity="0.82" rx="1"/>
<line x1="657.8" y1="131.6" x2="657.8" y2="154.3" stroke="#16a34a" stroke-width="1"/><rect x="655.1" y="134.0" width="5.4" height="18.3" fill="#16a34a" opacity="0.82" rx="1"/>
<line x1="666.7" y1="108.8" x2="666.7" y2="139.2" stroke="#16a34a" stroke-width="1"/><rect x="664.0" y="122.1" width="5.4" height="11.1" fill="#16a34a" opacity="0.82" rx="1"/>
<line x1="675.6" y1="99.1" x2="675.6" y2="124.4" stroke="#16a34a" stroke-width="1"/><rect x="672.9" y="119.0" width="5.4" height="3.1" fill="#16a34a" opacity="0.82" rx="1"/>
<line x1="684.5" y1="95.9" x2="684.5" y2="127.6" stroke="#16a34a" stroke-width="1"/><rect x="681.8" y="96.2" width="5.4" height="22.7" fill="#16a34a" opacity="0.82" rx="1"/>
<line x1="693.3" y1="72.1" x2="693.3" y2="100.7" stroke="#16a34a" stroke-width="1"/><rect x="690.6" y="91.7" width="5.4" height="4.3" fill="#16a34a" opacity="0.82" rx="1"/>
<line x1="702.2" y1="88.9" x2="702.2" y2="129.0" stroke="#dc2626" stroke-width="1"/><rect x="699.5" y="91.7" width="5.4" height="33.3" fill="#dc2626" opacity="0.82" rx="1"/>
<line x1="711.1" y1="77.5" x2="711.1" y2="140.4" stroke="#16a34a" stroke-width="1"/><rect x="708.4" y="78.9" width="5.4" height="45.9" fill="#16a34a" opacity="0.82" rx="1"/>
<line x1="720.0" y1="55.1" x2="720.0" y2="97.0" stroke="#dc2626" stroke-width="1"/><rect x="717.3" y="79.4" width="5.4" height="15.1" fill="#dc2626" opacity="0.82" rx="1"/>
<line x1="728.9" y1="79.0" x2="728.9" y2="111.0" stroke="#dc2626" stroke-width="1"/><rect x="726.1" y="94.4" width="5.4" height="12.9" fill="#dc2626" opacity="0.82" rx="1"/>
<line x1="737.7" y1="91.2" x2="737.7" y2="118.2" stroke="#dc2626" stroke-width="1"/><rect x="735.0" y="107.3" width="5.4" height="1.2" fill="#dc2626" opacity="0.82" rx="1"/>
<line x1="746.6" y1="96.9" x2="746.6" y2="170.1" stroke="#dc2626" stroke-width="1"/><rect x="743.9" y="107.8" width="5.4" height="59.6" fill="#dc2626" opacity="0.82" rx="1"/>
<line x1="755.5" y1="158.0" x2="755.5" y2="197.3" stroke="#dc2626" stroke-width="1"/><rect x="752.8" y="167.5" width="5.4" height="2.7" fill="#dc2626" opacity="0.82" rx="1"/>
<line x1="764.4" y1="160.5" x2="764.4" y2="180.4" stroke="#16a34a" stroke-width="1"/><rect x="761.6" y="167.8" width="5.4" height="2.9" fill="#16a34a" opacity="0.82" rx="1"/>
<line x1="773.2" y1="155.9" x2="773.2" y2="224.2" stroke="#dc2626" stroke-width="1"/><rect x="770.5" y="167.9" width="5.4" height="35.8" fill="#dc2626" opacity="0.82" rx="1"/>
<line x1="782.1" y1="185.3" x2="782.1" y2="220.4" stroke="#16a34a" stroke-width="1"/><rect x="779.4" y="187.2" width="5.4" height="16.6" fill="#16a34a" opacity="0.82" rx="1"/>
<line x1="791.0" y1="179.3" x2="791.0" y2="212.4" stroke="#dc2626" stroke-width="1"/><rect x="788.3" y="187.2" width="5.4" height="22.6" fill="#dc2626" opacity="0.82" rx="1"/>
<line x1="799.9" y1="185.5" x2="799.9" y2="212.4" stroke="#16a34a" stroke-width="1"/><rect x="797.1" y="197.6" width="5.4" height="12.2" fill="#16a34a" opacity="0.82" rx="1"/>
<line x1="808.7" y1="193.7" x2="808.7" y2="277.6" stroke="#dc2626" stroke-width="1"/><rect x="806.0" y="197.4" width="5.4" height="55.6" fill="#dc2626" opacity="0.82" rx="1"/>
<line x1="817.6" y1="243.0" x2="817.6" y2="289.3" stroke="#16a34a" stroke-width="1"/><rect x="814.9" y="248.4" width="5.4" height="4.6" fill="#16a34a" opacity="0.82" rx="1"/>
<line x1="826.5" y1="236.5" x2="826.5" y2="263.7" stroke="#dc2626" stroke-width="1"/><rect x="823.8" y="248.4" width="5.4" height="8.9" fill="#dc2626" opacity="0.82" rx="1"/>
<line x1="835.4" y1="243.4" x2="835.4" y2="266.1" stroke="#16a34a" stroke-width="1"/><rect x="832.6" y="249.2" width="5.4" height="7.8" fill="#16a34a" opacity="0.82" rx="1"/>
<line x1="844.2" y1="239.8" x2="844.2" y2="256.4" stroke="#16a34a" stroke-width="1"/><rect x="841.5" y="243.0" width="5.4" height="6.2" fill="#16a34a" opacity="0.82" rx="1"/>
<line x1="853.1" y1="241.1" x2="853.1" y2="265.2" stroke="#dc2626" stroke-width="1"/><rect x="850.4" y="242.9" width="5.4" height="7.8" fill="#dc2626" opacity="0.82" rx="1"/>
<line x1="862.0" y1="250.6" x2="862.0" y2="262.5" stroke="#dc2626" stroke-width="1"/><rect x="859.3" y="250.6" width="5.4" height="11.7" fill="#dc2626" opacity="0.82" rx="1"/>
<line x1="72" y1="318.9" x2="862" y2="318.9" stroke="#16a34a" stroke-width="1.8" stroke-dasharray="6 4" /><rect x="874" y="298.9" width="166" height="23" rx="5" fill="#ffffff" stroke="#16a34a" opacity="0.97"/><text x="881" y="314.9" fill="#16a34a" font-size="15" font-weight="700">日内支撑 66.50</text>
<line x1="72" y1="168.0" x2="862" y2="168.0" stroke="#dc2626" stroke-width="1.8" stroke-dasharray="6 4" /><rect x="874" y="148.0" width="166" height="23" rx="5" fill="#ffffff" stroke="#dc2626" opacity="0.97"/><text x="881" y="164.0" fill="#dc2626" font-size="15" font-weight="700">日内压力 70.17</text>
<line x1="72" y1="262.3" x2="862" y2="262.3" stroke="#111827" stroke-width="1.8" stroke-dasharray="2 2" /><rect x="874" y="242.3" width="166" height="23" rx="5" fill="#ffffff" stroke="#111827" opacity="0.97"/><text x="881" y="258.3" fill="#111827" font-size="15" font-weight="700">现价 67.87</text>
<text x="72" y="396" fill="#16a34a" font-size="14" font-weight="700">日内做多计划</text><rect x="72" y="404" width="790" height="48" rx="6" fill="#f9fafb" stroke="#e5e7eb"/><line x1="94" y1="412" x2="840" y2="412" stroke="#16a34a" stroke-width="3"/><circle cx="132.0" cy="412" r="5" fill="#16a34a"/><text x="132.0" y="434" fill="#374151" font-size="12" text-anchor="middle">入场 止跌/突破回踩</text><circle cx="451.2" cy="412" r="5" fill="#16a34a"/><text x="451.2" y="434" fill="#374151" font-size="12" text-anchor="middle">止损 66.50</text><circle cx="712.0" cy="412" r="5" fill="#16a34a"/><text x="712.0" y="434" fill="#374151" font-size="12" text-anchor="middle">目标一 70.17</text><circle cx="814.0" cy="412" r="5" fill="#16a34a"/><text x="814.0" y="434" fill="#374151" font-size="12" text-anchor="middle">目标二 71.08</text>
<text x="72" y="482" fill="#dc2626" font-size="14" font-weight="700">日内做空计划</text><rect x="72" y="490" width="790" height="48" rx="6" fill="#f9fafb" stroke="#e5e7eb"/><line x1="94" y1="498" x2="840" y2="498" stroke="#dc2626" stroke-width="3"/><circle cx="132.0" cy="498" r="5" fill="#dc2626"/><text x="132.0" y="520" fill="#374151" font-size="12" text-anchor="middle">入场 反弹承压/破位回抽</text><circle cx="451.2" cy="498" r="5" fill="#dc2626"/><text x="451.2" y="520" fill="#374151" font-size="12" text-anchor="middle">止损 70.17</text><circle cx="712.0" cy="498" r="5" fill="#dc2626"/><text x="712.0" y="520" fill="#374151" font-size="12" text-anchor="middle">目标一 66.50</text><circle cx="814.0" cy="498" r="5" fill="#dc2626"/><text x="814.0" y="520" fill="#374151" font-size="12" text-anchor="middle">目标二 65.58</text>
</svg>