<svg xmlns="http://www.w3.org/2000/svg" width="1080" height="560" viewBox="0 0 1080 560">
<rect width="100%" height="100%" fill="#ffffff"/>
<text x="72" y="23" fill="#111827" font-size="21" font-weight="800">DRAM 日线K线支撑压力图</text>
<text x="862" y="42" fill="#374151" font-size="15" text-anchor="end">最新价 59.02</text>
<line x1="72" y1="34" x2="72" y2="340" stroke="#d1d5db"/>
<line x1="72" y1="340" x2="862" y2="340" stroke="#d1d5db"/>
<line x1="72" y1="340.0" x2="862" y2="340.0" stroke="#f3f4f6"/>
<text x="8" y="345.0" fill="#4b5563" font-size="14">43.71</text>
<line x1="72" y1="263.5" x2="862" y2="263.5" stroke="#f3f4f6"/>
<text x="8" y="268.5" fill="#4b5563" font-size="14">53.98</text>
<line x1="72" y1="187.0" x2="862" y2="187.0" stroke="#f3f4f6"/>
<text x="8" y="192.0" fill="#4b5563" font-size="14">64.25</text>
<line x1="72" y1="110.5" x2="862" y2="110.5" stroke="#f3f4f6"/>
<text x="8" y="115.5" fill="#4b5563" font-size="14">74.52</text>
<line x1="72" y1="34.0" x2="862" y2="34.0" stroke="#f3f4f6"/>
<text x="8" y="39.0" fill="#4b5563" font-size="14">84.79</text>
<line x1="72.0" y1="279.1" x2="72.0" y2="307.4" stroke="#dc2626" stroke-width="1"/><rect x="67.5" y="283.9" width="9.0" height="10.9" fill="#dc2626" opacity="0.82" rx="1"/>
<line x1="87.5" y1="285.4" x2="87.5" y2="318.9" stroke="#16a34a" stroke-width="1"/><rect x="83.0" y="293.1" width="9.0" height="1.6" fill="#16a34a" opacity="0.82" rx="1"/>
<line x1="103.0" y1="277.9" x2="103.0" y2="308.2" stroke="#16a34a" stroke-width="1"/><rect x="98.5" y="280.2" width="9.0" height="13.0" fill="#16a34a" opacity="0.82" rx="1"/>
<line x1="118.5" y1="254.0" x2="118.5" y2="284.9" stroke="#16a34a" stroke-width="1"/><rect x="114.0" y="257.2" width="9.0" height="23.0" fill="#16a34a" opacity="0.82" rx="1"/>
<line x1="134.0" y1="256.9" x2="134.0" y2="273.8" stroke="#dc2626" stroke-width="1"/><rect x="129.5" y="257.2" width="9.0" height="16.3" fill="#dc2626" opacity="0.82" rx="1"/>
<line x1="149.5" y1="248.0" x2="149.5" y2="289.9" stroke="#16a34a" stroke-width="1"/><rect x="145.0" y="261.0" width="9.0" height="12.4" fill="#16a34a" opacity="0.82" rx="1"/>
<line x1="164.9" y1="247.7" x2="164.9" y2="262.5" stroke="#16a34a" stroke-width="1"/><rect x="160.4" y="253.1" width="9.0" height="7.7" fill="#16a34a" opacity="0.82" rx="1"/>
<line x1="180.4" y1="228.9" x2="180.4" y2="255.1" stroke="#16a34a" stroke-width="1"/><rect x="175.9" y="244.7" width="9.0" height="8.3" fill="#16a34a" opacity="0.82" rx="1"/>
<line x1="195.9" y1="194.1" x2="195.9" y2="258.3" stroke="#16a34a" stroke-width="1"/><rect x="191.4" y="202.2" width="9.0" height="42.5" fill="#16a34a" opacity="0.82" rx="1"/>
<line x1="211.4" y1="191.2" x2="211.4" y2="225.5" stroke="#dc2626" stroke-width="1"/><rect x="206.9" y="202.3" width="9.0" height="19.2" fill="#dc2626" opacity="0.82" rx="1"/>
<line x1="226.9" y1="190.6" x2="226.9" y2="237.7" stroke="#16a34a" stroke-width="1"/><rect x="222.4" y="195.9" width="9.0" height="25.5" fill="#16a34a" opacity="0.82" rx="1"/>
<line x1="242.4" y1="186.3" x2="242.4" y2="207.0" stroke="#16a34a" stroke-width="1"/><rect x="237.9" y="194.0" width="9.0" height="1.8" fill="#16a34a" opacity="0.82" rx="1"/>
<line x1="257.9" y1="174.3" x2="257.9" y2="197.1" stroke="#16a34a" stroke-width="1"/><rect x="253.4" y="175.5" width="9.0" height="18.5" fill="#16a34a" opacity="0.82" rx="1"/>
<line x1="273.4" y1="162.9" x2="273.4" y2="179.8" stroke="#16a34a" stroke-width="1"/><rect x="268.9" y="173.0" width="9.0" height="2.4" fill="#16a34a" opacity="0.82" rx="1"/>
<line x1="288.9" y1="151.0" x2="288.9" y2="186.3" stroke="#16a34a" stroke-width="1"/><rect x="284.4" y="157.6" width="9.0" height="15.3" fill="#16a34a" opacity="0.82" rx="1"/>
<line x1="304.4" y1="142.8" x2="304.4" y2="178.4" stroke="#16a34a" stroke-width="1"/><rect x="299.9" y="148.3" width="9.0" height="9.5" fill="#16a34a" opacity="0.82" rx="1"/>
<line x1="319.8" y1="141.8" x2="319.8" y2="171.0" stroke="#dc2626" stroke-width="1"/><rect x="315.3" y="148.2" width="9.0" height="20.5" fill="#dc2626" opacity="0.82" rx="1"/>
<line x1="335.3" y1="159.0" x2="335.3" y2="195.0" stroke="#dc2626" stroke-width="1"/><rect x="330.8" y="168.8" width="9.0" height="24.9" fill="#dc2626" opacity="0.82" rx="1"/>
<line x1="350.8" y1="187.9" x2="350.8" y2="267.4" stroke="#dc2626" stroke-width="1"/><rect x="346.3" y="193.7" width="9.0" height="59.0" fill="#dc2626" opacity="0.82" rx="1"/>
<line x1="366.3" y1="245.0" x2="366.3" y2="274.4" stroke="#16a34a" stroke-width="1"/><rect x="361.8" y="250.5" width="9.0" height="2.3" fill="#16a34a" opacity="0.82" rx="1"/>
<line x1="381.8" y1="219.9" x2="381.8" y2="255.9" stroke="#16a34a" stroke-width="1"/><rect x="377.3" y="245.1" width="9.0" height="5.4" fill="#16a34a" opacity="0.82" rx="1"/>
<line x1="397.3" y1="206.2" x2="397.3" y2="248.3" stroke="#16a34a" stroke-width="1"/><rect x="392.8" y="212.0" width="9.0" height="33.1" fill="#16a34a" opacity="0.82" rx="1"/>
<line x1="412.8" y1="187.4" x2="412.8" y2="252.5" stroke="#dc2626" stroke-width="1"/><rect x="408.3" y="211.9" width="9.0" height="8.6" fill="#dc2626" opacity="0.82" rx="1"/>
<line x1="428.3" y1="207.2" x2="428.3" y2="251.5" stroke="#dc2626" stroke-width="1"/><rect x="423.8" y="220.6" width="9.0" height="24.6" fill="#dc2626" opacity="0.82" rx="1"/>
<line x1="443.8" y1="168.8" x2="443.8" y2="247.0" stroke="#16a34a" stroke-width="1"/><rect x="439.3" y="173.8" width="9.0" height="71.1" fill="#16a34a" opacity="0.82" rx="1"/>
<line x1="459.3" y1="172.6" x2="459.3" y2="201.8" stroke="#dc2626" stroke-width="1"/><rect x="454.8" y="173.9" width="9.0" height="2.8" fill="#dc2626" opacity="0.82" rx="1"/>
<line x1="474.7" y1="174.1" x2="474.7" y2="189.7" stroke="#16a34a" stroke-width="1"/><rect x="470.2" y="175.7" width="9.0" height="1.2" fill="#16a34a" opacity="0.82" rx="1"/>
<line x1="490.2" y1="149.9" x2="490.2" y2="177.2" stroke="#16a34a" stroke-width="1"/><rect x="485.7" y="157.1" width="9.0" height="18.5" fill="#16a34a" opacity="0.82" rx="1"/>
<line x1="505.7" y1="134.1" x2="505.7" y2="163.7" stroke="#16a34a" stroke-width="1"/><rect x="501.2" y="137.8" width="9.0" height="19.4" fill="#16a34a" opacity="0.82" rx="1"/>
<line x1="521.2" y1="121.2" x2="521.2" y2="160.7" stroke="#dc2626" stroke-width="1"/><rect x="516.7" y="138.0" width="9.0" height="14.4" fill="#dc2626" opacity="0.82" rx="1"/>
<line x1="536.7" y1="119.7" x2="536.7" y2="152.7" stroke="#16a34a" stroke-width="1"/><rect x="532.2" y="125.8" width="9.0" height="26.7" fill="#16a34a" opacity="0.82" rx="1"/>
<line x1="552.2" y1="80.6" x2="552.2" y2="127.6" stroke="#16a34a" stroke-width="1"/><rect x="547.7" y="82.8" width="9.0" height="42.8" fill="#16a34a" opacity="0.82" rx="1"/>
<line x1="567.7" y1="79.5" x2="567.7" y2="108.1" stroke="#dc2626" stroke-width="1"/><rect x="563.2" y="82.9" width="9.0" height="4.5" fill="#dc2626" opacity="0.82" rx="1"/>
<line x1="583.2" y1="63.2" x2="583.2" y2="88.8" stroke="#16a34a" stroke-width="1"/><rect x="578.7" y="68.9" width="9.0" height="18.6" fill="#16a34a" opacity="0.82" rx="1"/>
<line x1="598.7" y1="59.5" x2="598.7" y2="95.4" stroke="#dc2626" stroke-width="1"/><rect x="594.2" y="69.0" width="9.0" height="21.4" fill="#dc2626" opacity="0.82" rx="1"/>
<line x1="614.2" y1="55.1" x2="614.2" y2="106.9" stroke="#16a34a" stroke-width="1"/><rect x="609.7" y="66.0" width="9.0" height="24.4" fill="#16a34a" opacity="0.82" rx="1"/>
<line x1="629.6" y1="65.3" x2="629.6" y2="153.9" stroke="#dc2626" stroke-width="1"/><rect x="625.1" y="66.0" width="9.0" height="74.3" fill="#dc2626" opacity="0.82" rx="1"/>
<line x1="645.1" y1="58.5" x2="645.1" y2="164.8" stroke="#16a34a" stroke-width="1"/><rect x="640.6" y="67.8" width="9.0" height="72.3" fill="#16a34a" opacity="0.82" rx="1"/>
<line x1="660.6" y1="66.9" x2="660.6" y2="118.0" stroke="#dc2626" stroke-width="1"/><rect x="656.1" y="67.7" width="9.0" height="27.9" fill="#dc2626" opacity="0.82" rx="1"/>
<line x1="676.1" y1="93.1" x2="676.1" y2="136.7" stroke="#dc2626" stroke-width="1"/><rect x="671.6" y="95.5" width="9.0" height="31.4" fill="#dc2626" opacity="0.82" rx="1"/>
<line x1="691.6" y1="120.3" x2="691.6" y2="129.1" stroke="#dc2626" stroke-width="1"/><rect x="687.1" y="126.8" width="9.0" height="1.2" fill="#dc2626" opacity="0.82" rx="1"/>
<line x1="707.1" y1="104.9" x2="707.1" y2="132.1" stroke="#16a34a" stroke-width="1"/><rect x="702.6" y="123.9" width="9.0" height="3.4" fill="#16a34a" opacity="0.82" rx="1"/>
<line x1="722.6" y1="119.3" x2="722.6" y2="170.2" stroke="#dc2626" stroke-width="1"/><rect x="718.1" y="123.8" width="9.0" height="7.2" fill="#dc2626" opacity="0.82" rx="1"/>
<line x1="738.1" y1="112.8" x2="738.1" y2="142.6" stroke="#16a34a" stroke-width="1"/><rect x="733.6" y="118.1" width="9.0" height="13.0" fill="#16a34a" opacity="0.82" rx="1"/>
<line x1="753.6" y1="114.8" x2="753.6" y2="183.6" stroke="#dc2626" stroke-width="1"/><rect x="749.1" y="118.0" width="9.0" height="64.3" fill="#dc2626" opacity="0.82" rx="1"/>
<line x1="769.1" y1="168.5" x2="769.1" y2="226.5" stroke="#dc2626" stroke-width="1"/><rect x="764.6" y="182.3" width="9.0" height="27.6" fill="#dc2626" opacity="0.82" rx="1"/>
<line x1="784.5" y1="177.7" x2="784.5" y2="221.1" stroke="#16a34a" stroke-width="1"/><rect x="780.0" y="178.9" width="9.0" height="31.0" fill="#16a34a" opacity="0.82" rx="1"/>
<line x1="800.0" y1="177.8" x2="800.0" y2="186.3" stroke="#dc2626" stroke-width="1"/><rect x="795.5" y="178.7" width="9.0" height="1.2" fill="#dc2626" opacity="0.82" rx="1"/>
<line x1="815.5" y1="170.7" x2="815.5" y2="182.2" stroke="#16a34a" stroke-width="1"/><rect x="811.0" y="178.5" width="9.0" height="1.3" fill="#16a34a" opacity="0.82" rx="1"/>
<line x1="831.0" y1="164.4" x2="831.0" y2="202.8" stroke="#dc2626" stroke-width="1"/><rect x="826.5" y="178.3" width="9.0" height="23.5" fill="#dc2626" opacity="0.82" rx="1"/>
<line x1="846.5" y1="192.4" x2="846.5" y2="231.4" stroke="#dc2626" stroke-width="1"/><rect x="842.0" y="201.8" width="9.0" height="22.9" fill="#dc2626" opacity="0.82" rx="1"/>
<line x1="862.0" y1="222.5" x2="862.0" y2="226.8" stroke="#dc2626" stroke-width="1"/><rect x="857.5" y="224.8" width="9.0" height="1.2" fill="#dc2626" opacity="0.82" rx="1"/>
<line x1="72" y1="277.7" x2="862" y2="277.7" stroke="#16a34a" stroke-width="1.8" stroke-dasharray="6 4" /><rect x="874" y="257.7" width="166" height="23" rx="5" fill="#ffffff" stroke="#16a34a" opacity="0.97"/><text x="881" y="273.7" fill="#16a34a" font-size="15" font-weight="700">支撑 52.07</text>
<line x1="72" y1="139.6" x2="862" y2="139.6" stroke="#dc2626" stroke-width="1.8" stroke-dasharray="6 4" /><rect x="874" y="119.6" width="166" height="23" rx="5" fill="#ffffff" stroke="#dc2626" opacity="0.97"/><text x="881" y="135.6" fill="#dc2626" font-size="15" font-weight="700">压力 70.61</text>
<line x1="72" y1="226.0" x2="862" y2="226.0" stroke="#111827" stroke-width="1.8" stroke-dasharray="2 2" /><rect x="874" y="206.0" width="166" height="23" rx="5" fill="#ffffff" stroke="#111827" opacity="0.97"/><text x="881" y="222.0" fill="#111827" font-size="15" font-weight="700">现价 59.02</text>
<text x="72" y="396" fill="#16a34a" font-size="14" font-weight="700">日线做多计划</text><rect x="72" y="404" width="790" height="48" rx="6" fill="#f9fafb" stroke="#e5e7eb"/><line x1="94" y1="412" x2="840" y2="412" stroke="#16a34a" stroke-width="3"/><circle cx="132.0" cy="412" r="5" fill="#16a34a"/><text x="132.0" y="434" fill="#374151" font-size="12" text-anchor="middle">入场 止跌/突破回踩</text><circle cx="451.2" cy="412" r="5" fill="#16a34a"/><text x="451.2" y="434" fill="#374151" font-size="12" text-anchor="middle">止损 52.07</text><circle cx="712.0" cy="412" r="5" fill="#16a34a"/><text x="712.0" y="434" fill="#374151" font-size="12" text-anchor="middle">目标一 70.61</text><circle cx="814.0" cy="412" r="5" fill="#16a34a"/><text x="814.0" y="434" fill="#374151" font-size="12" text-anchor="middle">目标二 77.57</text>
<text x="72" y="482" fill="#dc2626" font-size="14" font-weight="700">日线做空计划</text><rect x="72" y="490" width="790" height="48" rx="6" fill="#f9fafb" stroke="#e5e7eb"/><line x1="94" y1="498" x2="840" y2="498" stroke="#dc2626" stroke-width="3"/><circle cx="132.0" cy="498" r="5" fill="#dc2626"/><text x="132.0" y="520" fill="#374151" font-size="12" text-anchor="middle">入场 反弹承压/破位回抽</text><circle cx="451.2" cy="498" r="5" fill="#dc2626"/><text x="451.2" y="520" fill="#374151" font-size="12" text-anchor="middle">止损 70.61</text><circle cx="712.0" cy="498" r="5" fill="#dc2626"/><text x="712.0" y="520" fill="#374151" font-size="12" text-anchor="middle">目标一 52.07</text><circle cx="814.0" cy="498" r="5" fill="#dc2626"/><text x="814.0" y="520" fill="#374151" font-size="12" text-anchor="middle">目标二 47.43</text>
</svg>