<svg xmlns="http://www.w3.org/2000/svg" width="1080" height="560" viewBox="0 0 1080 560">
<rect width="100%" height="100%" fill="#ffffff"/>
<text x="72" y="23" fill="#111827" font-size="21" font-weight="800">HYPE 小时线K线支撑压力图</text>
<text x="862" y="42" fill="#374151" font-size="15" text-anchor="end">最新价 69.16</text>
<line x1="72" y1="34" x2="72" y2="340" stroke="#d1d5db"/>
<line x1="72" y1="340" x2="862" y2="340" stroke="#d1d5db"/>
<line x1="72" y1="340.0" x2="862" y2="340.0" stroke="#f3f4f6"/>
<text x="8" y="345.0" fill="#4b5563" font-size="14">67.34</text>
<line x1="72" y1="263.5" x2="862" y2="263.5" stroke="#f3f4f6"/>
<text x="8" y="268.5" fill="#4b5563" font-size="14">68.84</text>
<line x1="72" y1="187.0" x2="862" y2="187.0" stroke="#f3f4f6"/>
<text x="8" y="192.0" fill="#4b5563" font-size="14">70.33</text>
<line x1="72" y1="110.5" x2="862" y2="110.5" stroke="#f3f4f6"/>
<text x="8" y="115.5" fill="#4b5563" font-size="14">71.83</text>
<line x1="72" y1="34.0" x2="862" y2="34.0" stroke="#f3f4f6"/>
<text x="8" y="39.0" fill="#4b5563" font-size="14">73.33</text>
<line x1="72.0" y1="114.4" x2="72.0" y2="147.5" stroke="#16a34a" stroke-width="1"/><rect x="69.3" y="128.2" width="5.4" height="12.7" fill="#16a34a" opacity="0.82" rx="1"/>
<line x1="80.9" y1="124.8" x2="80.9" y2="152.4" stroke="#dc2626" stroke-width="1"/><rect x="78.2" y="128.5" width="5.4" height="22.4" fill="#dc2626" opacity="0.82" rx="1"/>
<line x1="89.8" y1="140.1" x2="89.8" y2="171.0" stroke="#dc2626" stroke-width="1"/><rect x="87.0" y="149.8" width="5.4" height="7.8" fill="#dc2626" opacity="0.82" rx="1"/>
<line x1="98.6" y1="142.5" x2="98.6" y2="179.6" stroke="#dc2626" stroke-width="1"/><rect x="95.9" y="157.7" width="5.4" height="13.3" fill="#dc2626" opacity="0.82" rx="1"/>
<line x1="107.5" y1="166.1" x2="107.5" y2="184.7" stroke="#dc2626" stroke-width="1"/><rect x="104.8" y="171.0" width="5.4" height="3.0" fill="#dc2626" opacity="0.82" rx="1"/>
<line x1="116.4" y1="146.6" x2="116.4" y2="175.1" stroke="#16a34a" stroke-width="1"/><rect x="113.7" y="163.0" width="5.4" height="11.1" fill="#16a34a" opacity="0.82" rx="1"/>
<line x1="125.3" y1="139.7" x2="125.3" y2="188.4" stroke="#dc2626" stroke-width="1"/><rect x="122.5" y="163.0" width="5.4" height="16.0" fill="#dc2626" opacity="0.82" rx="1"/>
<line x1="134.1" y1="161.8" x2="134.1" y2="184.5" stroke="#16a34a" stroke-width="1"/><rect x="131.4" y="177.6" width="5.4" height="1.4" fill="#16a34a" opacity="0.82" rx="1"/>
<line x1="143.0" y1="143.4" x2="143.0" y2="180.7" stroke="#16a34a" stroke-width="1"/><rect x="140.3" y="172.5" width="5.4" height="5.1" fill="#16a34a" opacity="0.82" rx="1"/>
<line x1="151.9" y1="159.9" x2="151.9" y2="196.0" stroke="#dc2626" stroke-width="1"/><rect x="149.2" y="172.5" width="5.4" height="19.4" fill="#dc2626" opacity="0.82" rx="1"/>
<line x1="160.8" y1="163.2" x2="160.8" y2="204.1" stroke="#16a34a" stroke-width="1"/><rect x="158.0" y="172.5" width="5.4" height="19.6" fill="#16a34a" opacity="0.82" rx="1"/>
<line x1="169.6" y1="170.0" x2="169.6" y2="226.8" stroke="#dc2626" stroke-width="1"/><rect x="166.9" y="172.1" width="5.4" height="46.4" fill="#dc2626" opacity="0.82" rx="1"/>
<line x1="178.5" y1="203.8" x2="178.5" y2="237.0" stroke="#16a34a" stroke-width="1"/><rect x="175.8" y="210.1" width="5.4" height="8.4" fill="#16a34a" opacity="0.82" rx="1"/>
<line x1="187.4" y1="200.8" x2="187.4" y2="229.6" stroke="#dc2626" stroke-width="1"/><rect x="184.7" y="210.1" width="5.4" height="6.6" fill="#dc2626" opacity="0.82" rx="1"/>
<line x1="196.3" y1="191.4" x2="196.3" y2="220.1" stroke="#16a34a" stroke-width="1"/><rect x="193.5" y="198.0" width="5.4" height="18.6" fill="#16a34a" opacity="0.82" rx="1"/>
<line x1="205.1" y1="193.2" x2="205.1" y2="214.8" stroke="#dc2626" stroke-width="1"/><rect x="202.4" y="198.0" width="5.4" height="5.6" fill="#dc2626" opacity="0.82" rx="1"/>
<line x1="214.0" y1="200.4" x2="214.0" y2="223.7" stroke="#dc2626" stroke-width="1"/><rect x="211.3" y="203.1" width="5.4" height="9.1" fill="#dc2626" opacity="0.82" rx="1"/>
<line x1="222.9" y1="210.9" x2="222.9" y2="252.4" stroke="#dc2626" stroke-width="1"/><rect x="220.2" y="212.2" width="5.4" height="27.0" fill="#dc2626" opacity="0.82" rx="1"/>
<line x1="231.8" y1="237.6" x2="231.8" y2="275.9" stroke="#dc2626" stroke-width="1"/><rect x="229.1" y="239.2" width="5.4" height="17.4" fill="#dc2626" opacity="0.82" rx="1"/>
<line x1="240.7" y1="256.7" x2="240.7" y2="294.7" stroke="#dc2626" stroke-width="1"/><rect x="237.9" y="256.8" width="5.4" height="19.9" fill="#dc2626" opacity="0.82" rx="1"/>
<line x1="249.5" y1="270.1" x2="249.5" y2="289.1" stroke="#16a34a" stroke-width="1"/><rect x="246.8" y="272.8" width="5.4" height="3.9" fill="#16a34a" opacity="0.82" rx="1"/>
<line x1="258.4" y1="236.1" x2="258.4" y2="272.8" stroke="#16a34a" stroke-width="1"/><rect x="255.7" y="267.1" width="5.4" height="5.7" fill="#16a34a" opacity="0.82" rx="1"/>
<line x1="267.3" y1="267.3" x2="267.3" y2="295.6" stroke="#dc2626" stroke-width="1"/><rect x="264.6" y="267.3" width="5.4" height="13.1" fill="#dc2626" opacity="0.82" rx="1"/>
<line x1="276.2" y1="269.3" x2="276.2" y2="289.7" stroke="#16a34a" stroke-width="1"/><rect x="273.4" y="275.9" width="5.4" height="5.3" fill="#16a34a" opacity="0.82" rx="1"/>
<line x1="285.0" y1="270.2" x2="285.0" y2="288.7" stroke="#16a34a" stroke-width="1"/><rect x="282.3" y="271.6" width="5.4" height="4.2" fill="#16a34a" opacity="0.82" rx="1"/>
<line x1="293.9" y1="257.5" x2="293.9" y2="282.8" stroke="#16a34a" stroke-width="1"/><rect x="291.2" y="261.3" width="5.4" height="10.3" fill="#16a34a" opacity="0.82" rx="1"/>
<line x1="302.8" y1="258.5" x2="302.8" y2="289.3" stroke="#dc2626" stroke-width="1"/><rect x="300.1" y="262.3" width="5.4" height="20.5" fill="#dc2626" opacity="0.82" rx="1"/>
<line x1="311.7" y1="250.4" x2="311.7" y2="287.9" stroke="#16a34a" stroke-width="1"/><rect x="308.9" y="257.1" width="5.4" height="25.7" fill="#16a34a" opacity="0.82" rx="1"/>
<line x1="320.5" y1="253.4" x2="320.5" y2="282.8" stroke="#dc2626" stroke-width="1"/><rect x="317.8" y="257.1" width="5.4" height="6.7" fill="#dc2626" opacity="0.82" rx="1"/>
<line x1="329.4" y1="231.1" x2="329.4" y2="273.1" stroke="#16a34a" stroke-width="1"/><rect x="326.7" y="246.5" width="5.4" height="16.9" fill="#16a34a" opacity="0.82" rx="1"/>
<line x1="338.3" y1="226.7" x2="338.3" y2="251.5" stroke="#16a34a" stroke-width="1"/><rect x="335.6" y="242.9" width="5.4" height="3.5" fill="#16a34a" opacity="0.82" rx="1"/>
<line x1="347.2" y1="231.6" x2="347.2" y2="255.7" stroke="#16a34a" stroke-width="1"/><rect x="344.4" y="233.2" width="5.4" height="9.8" fill="#16a34a" opacity="0.82" rx="1"/>
<line x1="356.0" y1="211.4" x2="356.0" y2="238.5" stroke="#16a34a" stroke-width="1"/><rect x="353.3" y="228.9" width="5.4" height="4.3" fill="#16a34a" opacity="0.82" rx="1"/>
<line x1="364.9" y1="228.4" x2="364.9" y2="247.5" stroke="#dc2626" stroke-width="1"/><rect x="362.2" y="229.0" width="5.4" height="7.9" fill="#dc2626" opacity="0.82" rx="1"/>
<line x1="373.8" y1="230.5" x2="373.8" y2="249.5" stroke="#dc2626" stroke-width="1"/><rect x="371.1" y="237.3" width="5.4" height="6.7" fill="#dc2626" opacity="0.82" rx="1"/>
<line x1="382.7" y1="235.9" x2="382.7" y2="250.2" stroke="#16a34a" stroke-width="1"/><rect x="380.0" y="243.6" width="5.4" height="1.2" fill="#16a34a" opacity="0.82" rx="1"/>
<line x1="391.6" y1="207.9" x2="391.6" y2="245.2" stroke="#16a34a" stroke-width="1"/><rect x="388.8" y="216.5" width="5.4" height="27.1" fill="#16a34a" opacity="0.82" rx="1"/>
<line x1="400.4" y1="157.5" x2="400.4" y2="218.7" stroke="#16a34a" stroke-width="1"/><rect x="397.7" y="160.2" width="5.4" height="55.9" fill="#16a34a" opacity="0.82" rx="1"/>
<line x1="409.3" y1="136.3" x2="409.3" y2="180.5" stroke="#16a34a" stroke-width="1"/><rect x="406.6" y="152.1" width="5.4" height="7.5" fill="#16a34a" opacity="0.82" rx="1"/>
<line x1="418.2" y1="117.0" x2="418.2" y2="160.3" stroke="#16a34a" stroke-width="1"/><rect x="415.5" y="125.8" width="5.4" height="26.3" fill="#16a34a" opacity="0.82" rx="1"/>
<line x1="427.1" y1="123.5" x2="427.1" y2="152.5" stroke="#dc2626" stroke-width="1"/><rect x="424.3" y="126.0" width="5.4" height="10.2" fill="#dc2626" opacity="0.82" rx="1"/>
<line x1="435.9" y1="76.9" x2="435.9" y2="147.0" stroke="#16a34a" stroke-width="1"/><rect x="433.2" y="77.5" width="5.4" height="58.6" fill="#16a34a" opacity="0.82" rx="1"/>
<line x1="444.8" y1="71.2" x2="444.8" y2="117.9" stroke="#dc2626" stroke-width="1"/><rect x="442.1" y="77.6" width="5.4" height="34.5" fill="#dc2626" opacity="0.82" rx="1"/>
<line x1="453.7" y1="83.6" x2="453.7" y2="126.8" stroke="#16a34a" stroke-width="1"/><rect x="451.0" y="90.8" width="5.4" height="21.4" fill="#16a34a" opacity="0.82" rx="1"/>
<line x1="462.6" y1="82.5" x2="462.6" y2="138.6" stroke="#dc2626" stroke-width="1"/><rect x="459.8" y="90.8" width="5.4" height="32.2" fill="#dc2626" opacity="0.82" rx="1"/>
<line x1="471.4" y1="114.4" x2="471.4" y2="148.7" stroke="#dc2626" stroke-width="1"/><rect x="468.7" y="123.1" width="5.4" height="1.2" fill="#dc2626" opacity="0.82" rx="1"/>
<line x1="480.3" y1="116.1" x2="480.3" y2="171.6" stroke="#dc2626" stroke-width="1"/><rect x="477.6" y="124.1" width="5.4" height="44.0" fill="#dc2626" opacity="0.82" rx="1"/>
<line x1="489.2" y1="143.2" x2="489.2" y2="171.3" stroke="#16a34a" stroke-width="1"/><rect x="486.5" y="146.1" width="5.4" height="22.0" fill="#16a34a" opacity="0.82" rx="1"/>
<line x1="498.1" y1="142.7" x2="498.1" y2="165.3" stroke="#dc2626" stroke-width="1"/><rect x="495.3" y="146.1" width="5.4" height="16.0" fill="#dc2626" opacity="0.82" rx="1"/>
<line x1="506.9" y1="148.7" x2="506.9" y2="203.0" stroke="#dc2626" stroke-width="1"/><rect x="504.2" y="161.9" width="5.4" height="28.4" fill="#dc2626" opacity="0.82" rx="1"/>
<line x1="515.8" y1="187.4" x2="515.8" y2="217.2" stroke="#dc2626" stroke-width="1"/><rect x="513.1" y="190.3" width="5.4" height="16.9" fill="#dc2626" opacity="0.82" rx="1"/>
<line x1="524.7" y1="174.6" x2="524.7" y2="207.4" stroke="#16a34a" stroke-width="1"/><rect x="522.0" y="183.8" width="5.4" height="23.6" fill="#16a34a" opacity="0.82" rx="1"/>
<line x1="533.6" y1="153.8" x2="533.6" y2="210.2" stroke="#dc2626" stroke-width="1"/><rect x="530.9" y="183.8" width="5.4" height="21.3" fill="#dc2626" opacity="0.82" rx="1"/>
<line x1="542.4" y1="201.0" x2="542.4" y2="254.4" stroke="#dc2626" stroke-width="1"/><rect x="539.7" y="204.2" width="5.4" height="45.3" fill="#dc2626" opacity="0.82" rx="1"/>
<line x1="551.3" y1="211.2" x2="551.3" y2="274.5" stroke="#16a34a" stroke-width="1"/><rect x="548.6" y="222.6" width="5.4" height="27.0" fill="#16a34a" opacity="0.82" rx="1"/>
<line x1="560.2" y1="189.3" x2="560.2" y2="231.9" stroke="#16a34a" stroke-width="1"/><rect x="557.5" y="214.2" width="5.4" height="8.1" fill="#16a34a" opacity="0.82" rx="1"/>
<line x1="569.1" y1="162.2" x2="569.1" y2="214.2" stroke="#16a34a" stroke-width="1"/><rect x="566.4" y="168.0" width="5.4" height="46.2" fill="#16a34a" opacity="0.82" rx="1"/>
<line x1="578.0" y1="139.9" x2="578.0" y2="170.1" stroke="#16a34a" stroke-width="1"/><rect x="575.2" y="139.9" width="5.4" height="27.5" fill="#16a34a" opacity="0.82" rx="1"/>
<line x1="586.8" y1="124.8" x2="586.8" y2="155.7" stroke="#dc2626" stroke-width="1"/><rect x="584.1" y="139.9" width="5.4" height="10.0" fill="#dc2626" opacity="0.82" rx="1"/>
<line x1="595.7" y1="122.3" x2="595.7" y2="151.4" stroke="#16a34a" stroke-width="1"/><rect x="593.0" y="143.3" width="5.4" height="6.3" fill="#16a34a" opacity="0.82" rx="1"/>
<line x1="604.6" y1="116.7" x2="604.6" y2="147.2" stroke="#16a34a" stroke-width="1"/><rect x="601.9" y="122.0" width="5.4" height="21.4" fill="#16a34a" opacity="0.82" rx="1"/>
<line x1="613.5" y1="122.4" x2="613.5" y2="163.2" stroke="#dc2626" stroke-width="1"/><rect x="610.7" y="122.8" width="5.4" height="34.4" fill="#dc2626" opacity="0.82" rx="1"/>
<line x1="622.3" y1="115.9" x2="622.3" y2="161.6" stroke="#16a34a" stroke-width="1"/><rect x="619.6" y="122.2" width="5.4" height="35.0" fill="#16a34a" opacity="0.82" rx="1"/>
<line x1="631.2" y1="121.4" x2="631.2" y2="154.1" stroke="#dc2626" stroke-width="1"/><rect x="628.5" y="121.9" width="5.4" height="26.5" fill="#dc2626" opacity="0.82" rx="1"/>
<line x1="640.1" y1="146.4" x2="640.1" y2="178.5" stroke="#dc2626" stroke-width="1"/><rect x="637.4" y="148.1" width="5.4" height="26.1" fill="#dc2626" opacity="0.82" rx="1"/>
<line x1="649.0" y1="101.8" x2="649.0" y2="182.5" stroke="#16a34a" stroke-width="1"/><rect x="646.2" y="103.9" width="5.4" height="70.5" fill="#16a34a" opacity="0.82" rx="1"/>
<line x1="657.8" y1="104.0" x2="657.8" y2="146.8" stroke="#dc2626" stroke-width="1"/><rect x="655.1" y="104.0" width="5.4" height="41.9" fill="#dc2626" opacity="0.82" rx="1"/>
<line x1="666.7" y1="140.8" x2="666.7" y2="180.0" stroke="#dc2626" stroke-width="1"/><rect x="664.0" y="145.8" width="5.4" height="25.4" fill="#dc2626" opacity="0.82" rx="1"/>
<line x1="675.6" y1="167.0" x2="675.6" y2="200.8" stroke="#dc2626" stroke-width="1"/><rect x="672.9" y="171.5" width="5.4" height="24.1" fill="#dc2626" opacity="0.82" rx="1"/>
<line x1="684.5" y1="193.0" x2="684.5" y2="220.9" stroke="#dc2626" stroke-width="1"/><rect x="681.8" y="195.3" width="5.4" height="1.2" fill="#dc2626" opacity="0.82" rx="1"/>
<line x1="693.3" y1="182.0" x2="693.3" y2="231.9" stroke="#16a34a" stroke-width="1"/><rect x="690.6" y="194.9" width="5.4" height="1.2" fill="#16a34a" opacity="0.82" rx="1"/>
<line x1="702.2" y1="153.9" x2="702.2" y2="202.1" stroke="#16a34a" stroke-width="1"/><rect x="699.5" y="158.0" width="5.4" height="36.8" fill="#16a34a" opacity="0.82" rx="1"/>
<line x1="711.1" y1="138.8" x2="711.1" y2="178.5" stroke="#dc2626" stroke-width="1"/><rect x="708.4" y="158.1" width="5.4" height="17.8" fill="#dc2626" opacity="0.82" rx="1"/>
<line x1="720.0" y1="150.3" x2="720.0" y2="178.5" stroke="#16a34a" stroke-width="1"/><rect x="717.3" y="153.3" width="5.4" height="22.7" fill="#16a34a" opacity="0.82" rx="1"/>
<line x1="728.9" y1="121.9" x2="728.9" y2="159.8" stroke="#16a34a" stroke-width="1"/><rect x="726.1" y="138.4" width="5.4" height="13.9" fill="#16a34a" opacity="0.82" rx="1"/>
<line x1="737.7" y1="109.8" x2="737.7" y2="141.3" stroke="#16a34a" stroke-width="1"/><rect x="735.0" y="134.5" width="5.4" height="3.8" fill="#16a34a" opacity="0.82" rx="1"/>
<line x1="746.6" y1="105.9" x2="746.6" y2="145.3" stroke="#16a34a" stroke-width="1"/><rect x="743.9" y="106.3" width="5.4" height="28.3" fill="#16a34a" opacity="0.82" rx="1"/>
<line x1="755.5" y1="76.3" x2="755.5" y2="111.8" stroke="#16a34a" stroke-width="1"/><rect x="752.8" y="100.6" width="5.4" height="5.3" fill="#16a34a" opacity="0.82" rx="1"/>
<line x1="764.4" y1="97.1" x2="764.4" y2="147.0" stroke="#dc2626" stroke-width="1"/><rect x="761.6" y="100.6" width="5.4" height="41.5" fill="#dc2626" opacity="0.82" rx="1"/>
<line x1="773.2" y1="83.0" x2="773.2" y2="161.2" stroke="#16a34a" stroke-width="1"/><rect x="770.5" y="84.7" width="5.4" height="57.2" fill="#16a34a" opacity="0.82" rx="1"/>
<line x1="782.1" y1="55.1" x2="782.1" y2="107.2" stroke="#dc2626" stroke-width="1"/><rect x="779.4" y="85.4" width="5.4" height="18.8" fill="#dc2626" opacity="0.82" rx="1"/>
<line x1="791.0" y1="84.8" x2="791.0" y2="124.6" stroke="#dc2626" stroke-width="1"/><rect x="788.3" y="103.9" width="5.4" height="16.0" fill="#dc2626" opacity="0.82" rx="1"/>
<line x1="799.9" y1="100.0" x2="799.9" y2="133.6" stroke="#dc2626" stroke-width="1"/><rect x="797.1" y="120.0" width="5.4" height="1.2" fill="#dc2626" opacity="0.82" rx="1"/>
<line x1="808.7" y1="107.1" x2="808.7" y2="198.2" stroke="#dc2626" stroke-width="1"/><rect x="806.0" y="120.6" width="5.4" height="74.1" fill="#dc2626" opacity="0.82" rx="1"/>
<line x1="817.6" y1="183.1" x2="817.6" y2="231.9" stroke="#dc2626" stroke-width="1"/><rect x="814.9" y="195.0" width="5.4" height="3.3" fill="#dc2626" opacity="0.82" rx="1"/>
<line x1="826.5" y1="186.2" x2="826.5" y2="210.9" stroke="#16a34a" stroke-width="1"/><rect x="823.8" y="195.3" width="5.4" height="3.6" fill="#16a34a" opacity="0.82" rx="1"/>
<line x1="835.4" y1="180.5" x2="835.4" y2="265.4" stroke="#dc2626" stroke-width="1"/><rect x="832.6" y="195.4" width="5.4" height="44.6" fill="#dc2626" opacity="0.82" rx="1"/>
<line x1="844.2" y1="217.1" x2="844.2" y2="260.7" stroke="#16a34a" stroke-width="1"/><rect x="841.5" y="219.4" width="5.4" height="20.6" fill="#16a34a" opacity="0.82" rx="1"/>
<line x1="853.1" y1="209.6" x2="853.1" y2="250.7" stroke="#dc2626" stroke-width="1"/><rect x="850.4" y="219.5" width="5.4" height="28.1" fill="#dc2626" opacity="0.82" rx="1"/>
<line x1="862.0" y1="240.8" x2="862.0" y2="250.7" stroke="#16a34a" stroke-width="1"/><rect x="859.3" y="246.8" width="5.4" height="1.2" fill="#16a34a" opacity="0.82" rx="1"/>
<line x1="72" y1="318.9" x2="862" y2="318.9" stroke="#16a34a" stroke-width="1.8" stroke-dasharray="6 4" /><rect x="874" y="298.9" width="166" height="23" rx="5" fill="#ffffff" stroke="#16a34a" opacity="0.97"/><text x="881" y="314.9" fill="#16a34a" font-size="15" font-weight="700">日内支撑 67.75</text>
<line x1="72" y1="126.7" x2="862" y2="126.7" stroke="#dc2626" stroke-width="1.8" stroke-dasharray="6 4" /><rect x="874" y="106.7" width="166" height="23" rx="5" fill="#ffffff" stroke="#dc2626" opacity="0.97"/><text x="881" y="122.7" fill="#dc2626" font-size="15" font-weight="700">日内压力 71.51</text>
<line x1="72" y1="246.8" x2="862" y2="246.8" stroke="#111827" stroke-width="1.8" stroke-dasharray="2 2" /><rect x="874" y="226.8" width="166" height="23" rx="5" fill="#ffffff" stroke="#111827" opacity="0.97"/><text x="881" y="242.8" fill="#111827" font-size="15" font-weight="700">现价 69.16</text>
<text x="72" y="396" fill="#16a34a" font-size="14" font-weight="700">日内做多计划</text><rect x="72" y="404" width="790" height="48" rx="6" fill="#f9fafb" stroke="#e5e7eb"/><line x1="94" y1="412" x2="840" y2="412" stroke="#16a34a" stroke-width="3"/><circle cx="132.0" cy="412" r="5" fill="#16a34a"/><text x="132.0" y="434" fill="#374151" font-size="12" text-anchor="middle">入场 止跌/突破回踩</text><circle cx="451.2" cy="412" r="5" fill="#16a34a"/><text x="451.2" y="434" fill="#374151" font-size="12" text-anchor="middle">止损 67.75</text><circle cx="712.0" cy="412" r="5" fill="#16a34a"/><text x="712.0" y="434" fill="#374151" font-size="12" text-anchor="middle">目标一 71.51</text><circle cx="814.0" cy="412" r="5" fill="#16a34a"/><text x="814.0" y="434" fill="#374151" font-size="12" text-anchor="middle">目标二 72.45</text>
<text x="72" y="482" fill="#dc2626" font-size="14" font-weight="700">日内做空计划</text><rect x="72" y="490" width="790" height="48" rx="6" fill="#f9fafb" stroke="#e5e7eb"/><line x1="94" y1="498" x2="840" y2="498" stroke="#dc2626" stroke-width="3"/><circle cx="132.0" cy="498" r="5" fill="#dc2626"/><text x="132.0" y="520" fill="#374151" font-size="12" text-anchor="middle">入场 反弹承压/破位回抽</text><circle cx="451.2" cy="498" r="5" fill="#dc2626"/><text x="451.2" y="520" fill="#374151" font-size="12" text-anchor="middle">止损 71.51</text><circle cx="712.0" cy="498" r="5" fill="#dc2626"/><text x="712.0" y="520" fill="#374151" font-size="12" text-anchor="middle">目标一 67.75</text><circle cx="814.0" cy="498" r="5" fill="#dc2626"/><text x="814.0" y="520" fill="#374151" font-size="12" text-anchor="middle">目标二 66.81</text>
</svg>