<svg xmlns="http://www.w3.org/2000/svg" width="1080" height="560" viewBox="0 0 1080 560">
<rect width="100%" height="100%" fill="#ffffff"/>
<text x="72" y="23" fill="#111827" font-size="21" font-weight="800">HYPE 日线K线支撑压力图</text>
<text x="862" y="42" fill="#374151" font-size="15" text-anchor="end">最新价 69.16</text>
<line x1="72" y1="34" x2="72" y2="340" stroke="#d1d5db"/>
<line x1="72" y1="340" x2="862" y2="340" stroke="#d1d5db"/>
<line x1="72" y1="340.0" x2="862" y2="340.0" stroke="#f3f4f6"/>
<text x="8" y="345.0" fill="#4b5563" font-size="14">34.87</text>
<line x1="72" y1="263.5" x2="862" y2="263.5" stroke="#f3f4f6"/>
<text x="8" y="268.5" fill="#4b5563" font-size="14">46.82</text>
<line x1="72" y1="187.0" x2="862" y2="187.0" stroke="#f3f4f6"/>
<text x="8" y="192.0" fill="#4b5563" font-size="14">58.78</text>
<line x1="72" y1="110.5" x2="862" y2="110.5" stroke="#f3f4f6"/>
<text x="8" y="115.5" fill="#4b5563" font-size="14">70.73</text>
<line x1="72" y1="34.0" x2="862" y2="34.0" stroke="#f3f4f6"/>
<text x="8" y="39.0" fill="#4b5563" font-size="14">82.68</text>
<line x1="72.0" y1="292.8" x2="72.0" y2="310.8" stroke="#16a34a" stroke-width="1"/><rect x="69.3" y="296.9" width="5.4" height="13.6" fill="#16a34a" opacity="0.82" rx="1"/>
<line x1="80.9" y1="286.8" x2="80.9" y2="297.7" stroke="#16a34a" stroke-width="1"/><rect x="78.2" y="292.6" width="5.4" height="4.4" fill="#16a34a" opacity="0.82" rx="1"/>
<line x1="89.8" y1="289.1" x2="89.8" y2="305.9" stroke="#dc2626" stroke-width="1"/><rect x="87.0" y="292.6" width="5.4" height="9.2" fill="#dc2626" opacity="0.82" rx="1"/>
<line x1="98.6" y1="277.6" x2="98.6" y2="302.1" stroke="#16a34a" stroke-width="1"/><rect x="95.9" y="279.4" width="5.4" height="22.3" fill="#16a34a" opacity="0.82" rx="1"/>
<line x1="107.5" y1="273.0" x2="107.5" y2="288.4" stroke="#dc2626" stroke-width="1"/><rect x="104.8" y="279.5" width="5.4" height="5.1" fill="#dc2626" opacity="0.82" rx="1"/>
<line x1="116.4" y1="272.2" x2="116.4" y2="287.1" stroke="#16a34a" stroke-width="1"/><rect x="113.7" y="277.5" width="5.4" height="7.1" fill="#16a34a" opacity="0.82" rx="1"/>
<line x1="125.3" y1="270.3" x2="125.3" y2="286.0" stroke="#dc2626" stroke-width="1"/><rect x="122.5" y="277.5" width="5.4" height="5.3" fill="#dc2626" opacity="0.82" rx="1"/>
<line x1="134.1" y1="272.0" x2="134.1" y2="286.9" stroke="#16a34a" stroke-width="1"/><rect x="131.4" y="277.6" width="5.4" height="5.2" fill="#16a34a" opacity="0.82" rx="1"/>
<line x1="143.0" y1="272.2" x2="143.0" y2="283.4" stroke="#dc2626" stroke-width="1"/><rect x="140.3" y="277.6" width="5.4" height="5.4" fill="#dc2626" opacity="0.82" rx="1"/>
<line x1="151.9" y1="282.0" x2="151.9" y2="303.9" stroke="#dc2626" stroke-width="1"/><rect x="149.2" y="283.0" width="5.4" height="19.8" fill="#dc2626" opacity="0.82" rx="1"/>
<line x1="160.8" y1="295.7" x2="160.8" y2="303.6" stroke="#16a34a" stroke-width="1"/><rect x="158.0" y="302.6" width="5.4" height="1.2" fill="#16a34a" opacity="0.82" rx="1"/>
<line x1="169.6" y1="298.0" x2="169.6" y2="314.3" stroke="#dc2626" stroke-width="1"/><rect x="166.9" y="302.7" width="5.4" height="6.0" fill="#dc2626" opacity="0.82" rx="1"/>
<line x1="178.5" y1="296.0" x2="178.5" y2="309.6" stroke="#16a34a" stroke-width="1"/><rect x="175.8" y="299.7" width="5.4" height="8.9" fill="#16a34a" opacity="0.82" rx="1"/>
<line x1="187.4" y1="295.2" x2="187.4" y2="303.8" stroke="#16a34a" stroke-width="1"/><rect x="184.7" y="298.8" width="5.4" height="1.2" fill="#16a34a" opacity="0.82" rx="1"/>
<line x1="196.3" y1="297.3" x2="196.3" y2="302.8" stroke="#dc2626" stroke-width="1"/><rect x="193.5" y="298.8" width="5.4" height="1.2" fill="#dc2626" opacity="0.82" rx="1"/>
<line x1="205.1" y1="295.0" x2="205.1" y2="301.8" stroke="#16a34a" stroke-width="1"/><rect x="202.4" y="297.5" width="5.4" height="2.1" fill="#16a34a" opacity="0.82" rx="1"/>
<line x1="214.0" y1="290.5" x2="214.0" y2="301.1" stroke="#16a34a" stroke-width="1"/><rect x="211.3" y="291.4" width="5.4" height="6.1" fill="#16a34a" opacity="0.82" rx="1"/>
<line x1="222.9" y1="284.3" x2="222.9" y2="299.0" stroke="#dc2626" stroke-width="1"/><rect x="220.2" y="291.4" width="5.4" height="5.2" fill="#dc2626" opacity="0.82" rx="1"/>
<line x1="231.8" y1="295.4" x2="231.8" y2="311.1" stroke="#dc2626" stroke-width="1"/><rect x="229.1" y="296.6" width="5.4" height="9.5" fill="#dc2626" opacity="0.82" rx="1"/>
<line x1="240.7" y1="302.0" x2="240.7" y2="312.5" stroke="#dc2626" stroke-width="1"/><rect x="237.9" y="306.1" width="5.4" height="1.5" fill="#dc2626" opacity="0.82" rx="1"/>
<line x1="249.5" y1="305.0" x2="249.5" y2="315.4" stroke="#dc2626" stroke-width="1"/><rect x="246.8" y="307.6" width="5.4" height="1.6" fill="#dc2626" opacity="0.82" rx="1"/>
<line x1="258.4" y1="299.8" x2="258.4" y2="309.3" stroke="#16a34a" stroke-width="1"/><rect x="255.7" y="299.9" width="5.4" height="9.2" fill="#16a34a" opacity="0.82" rx="1"/>
<line x1="267.3" y1="291.5" x2="267.3" y2="300.9" stroke="#16a34a" stroke-width="1"/><rect x="264.6" y="299.1" width="5.4" height="1.2" fill="#16a34a" opacity="0.82" rx="1"/>
<line x1="276.2" y1="296.1" x2="276.2" y2="302.8" stroke="#16a34a" stroke-width="1"/><rect x="273.4" y="297.2" width="5.4" height="1.9" fill="#16a34a" opacity="0.82" rx="1"/>
<line x1="285.0" y1="290.5" x2="285.0" y2="301.9" stroke="#16a34a" stroke-width="1"/><rect x="282.3" y="295.6" width="5.4" height="1.7" fill="#16a34a" opacity="0.82" rx="1"/>
<line x1="293.9" y1="277.5" x2="293.9" y2="295.8" stroke="#16a34a" stroke-width="1"/><rect x="291.2" y="283.4" width="5.4" height="12.1" fill="#16a34a" opacity="0.82" rx="1"/>
<line x1="302.8" y1="276.7" x2="302.8" y2="288.6" stroke="#dc2626" stroke-width="1"/><rect x="300.1" y="283.4" width="5.4" height="3.7" fill="#dc2626" opacity="0.82" rx="1"/>
<line x1="311.7" y1="284.4" x2="311.7" y2="295.3" stroke="#dc2626" stroke-width="1"/><rect x="308.9" y="287.1" width="5.4" height="3.9" fill="#dc2626" opacity="0.82" rx="1"/>
<line x1="320.5" y1="284.8" x2="320.5" y2="294.1" stroke="#16a34a" stroke-width="1"/><rect x="317.8" y="286.2" width="5.4" height="4.7" fill="#16a34a" opacity="0.82" rx="1"/>
<line x1="329.4" y1="278.9" x2="329.4" y2="289.0" stroke="#dc2626" stroke-width="1"/><rect x="326.7" y="286.2" width="5.4" height="2.3" fill="#dc2626" opacity="0.82" rx="1"/>
<line x1="338.3" y1="283.5" x2="338.3" y2="293.6" stroke="#16a34a" stroke-width="1"/><rect x="335.6" y="287.9" width="5.4" height="1.2" fill="#16a34a" opacity="0.82" rx="1"/>
<line x1="347.2" y1="287.0" x2="347.2" y2="301.9" stroke="#dc2626" stroke-width="1"/><rect x="344.4" y="287.9" width="5.4" height="6.5" fill="#dc2626" opacity="0.82" rx="1"/>
<line x1="356.0" y1="294.0" x2="356.0" y2="308.6" stroke="#dc2626" stroke-width="1"/><rect x="353.3" y="294.4" width="5.4" height="11.2" fill="#dc2626" opacity="0.82" rx="1"/>
<line x1="364.9" y1="302.6" x2="364.9" y2="315.4" stroke="#dc2626" stroke-width="1"/><rect x="362.2" y="305.5" width="5.4" height="9.2" fill="#dc2626" opacity="0.82" rx="1"/>
<line x1="373.8" y1="276.7" x2="373.8" y2="318.9" stroke="#16a34a" stroke-width="1"/><rect x="371.1" y="280.7" width="5.4" height="34.0" fill="#16a34a" opacity="0.82" rx="1"/>
<line x1="382.7" y1="262.0" x2="382.7" y2="289.2" stroke="#16a34a" stroke-width="1"/><rect x="380.0" y="280.6" width="5.4" height="1.2" fill="#16a34a" opacity="0.82" rx="1"/>
<line x1="391.6" y1="278.5" x2="391.6" y2="304.8" stroke="#dc2626" stroke-width="1"/><rect x="388.8" y="280.6" width="5.4" height="14.9" fill="#dc2626" opacity="0.82" rx="1"/>
<line x1="400.4" y1="261.4" x2="400.4" y2="298.6" stroke="#16a34a" stroke-width="1"/><rect x="397.7" y="270.8" width="5.4" height="24.7" fill="#16a34a" opacity="0.82" rx="1"/>
<line x1="409.3" y1="256.0" x2="409.3" y2="280.3" stroke="#16a34a" stroke-width="1"/><rect x="406.6" y="257.5" width="5.4" height="13.3" fill="#16a34a" opacity="0.82" rx="1"/>
<line x1="418.2" y1="250.2" x2="418.2" y2="263.6" stroke="#16a34a" stroke-width="1"/><rect x="415.5" y="255.9" width="5.4" height="1.6" fill="#16a34a" opacity="0.82" rx="1"/>
<line x1="427.1" y1="212.2" x2="427.1" y2="261.8" stroke="#16a34a" stroke-width="1"/><rect x="424.3" y="212.2" width="5.4" height="43.8" fill="#16a34a" opacity="0.82" rx="1"/>
<line x1="435.9" y1="162.6" x2="435.9" y2="213.0" stroke="#16a34a" stroke-width="1"/><rect x="433.2" y="188.3" width="5.4" height="24.0" fill="#16a34a" opacity="0.82" rx="1"/>
<line x1="444.8" y1="166.6" x2="444.8" y2="215.8" stroke="#dc2626" stroke-width="1"/><rect x="442.1" y="188.3" width="5.4" height="25.6" fill="#dc2626" opacity="0.82" rx="1"/>
<line x1="453.7" y1="179.8" x2="453.7" y2="217.6" stroke="#16a34a" stroke-width="1"/><rect x="451.0" y="187.5" width="5.4" height="26.4" fill="#16a34a" opacity="0.82" rx="1"/>
<line x1="462.6" y1="150.4" x2="462.6" y2="188.0" stroke="#16a34a" stroke-width="1"/><rect x="459.8" y="161.6" width="5.4" height="25.9" fill="#16a34a" opacity="0.82" rx="1"/>
<line x1="471.4" y1="154.2" x2="471.4" y2="174.6" stroke="#dc2626" stroke-width="1"/><rect x="468.7" y="161.5" width="5.4" height="10.6" fill="#dc2626" opacity="0.82" rx="1"/>
<line x1="480.3" y1="148.8" x2="480.3" y2="188.4" stroke="#dc2626" stroke-width="1"/><rect x="477.6" y="172.1" width="5.4" height="10.2" fill="#dc2626" opacity="0.82" rx="1"/>
<line x1="489.2" y1="157.9" x2="489.2" y2="198.0" stroke="#dc2626" stroke-width="1"/><rect x="486.5" y="182.3" width="5.4" height="12.1" fill="#dc2626" opacity="0.82" rx="1"/>
<line x1="498.1" y1="165.5" x2="498.1" y2="203.2" stroke="#16a34a" stroke-width="1"/><rect x="495.3" y="169.4" width="5.4" height="25.0" fill="#16a34a" opacity="0.82" rx="1"/>
<line x1="506.9" y1="131.7" x2="506.9" y2="177.1" stroke="#16a34a" stroke-width="1"/><rect x="504.2" y="151.0" width="5.4" height="18.5" fill="#16a34a" opacity="0.82" rx="1"/>
<line x1="515.8" y1="123.9" x2="515.8" y2="153.6" stroke="#16a34a" stroke-width="1"/><rect x="513.1" y="126.1" width="5.4" height="24.9" fill="#16a34a" opacity="0.82" rx="1"/>
<line x1="524.7" y1="95.2" x2="524.7" y2="131.4" stroke="#16a34a" stroke-width="1"/><rect x="522.0" y="102.0" width="5.4" height="24.0" fill="#16a34a" opacity="0.82" rx="1"/>
<line x1="533.6" y1="77.9" x2="533.6" y2="112.5" stroke="#16a34a" stroke-width="1"/><rect x="530.9" y="92.2" width="5.4" height="9.5" fill="#16a34a" opacity="0.82" rx="1"/>
<line x1="542.4" y1="79.1" x2="542.4" y2="129.0" stroke="#dc2626" stroke-width="1"/><rect x="539.7" y="92.2" width="5.4" height="24.0" fill="#dc2626" opacity="0.82" rx="1"/>
<line x1="551.3" y1="79.3" x2="551.3" y2="126.2" stroke="#16a34a" stroke-width="1"/><rect x="548.6" y="85.9" width="5.4" height="30.4" fill="#16a34a" opacity="0.82" rx="1"/>
<line x1="560.2" y1="80.0" x2="560.2" y2="160.0" stroke="#dc2626" stroke-width="1"/><rect x="557.5" y="85.9" width="5.4" height="64.9" fill="#dc2626" opacity="0.82" rx="1"/>
<line x1="569.1" y1="140.6" x2="569.1" y2="200.3" stroke="#dc2626" stroke-width="1"/><rect x="566.4" y="150.8" width="5.4" height="29.5" fill="#dc2626" opacity="0.82" rx="1"/>
<line x1="578.0" y1="171.3" x2="578.0" y2="208.1" stroke="#dc2626" stroke-width="1"/><rect x="575.2" y="180.4" width="5.4" height="21.1" fill="#dc2626" opacity="0.82" rx="1"/>
<line x1="586.8" y1="176.3" x2="586.8" y2="204.1" stroke="#16a34a" stroke-width="1"/><rect x="584.1" y="180.8" width="5.4" height="20.6" fill="#16a34a" opacity="0.82" rx="1"/>
<line x1="595.7" y1="142.0" x2="595.7" y2="183.6" stroke="#16a34a" stroke-width="1"/><rect x="593.0" y="154.6" width="5.4" height="26.2" fill="#16a34a" opacity="0.82" rx="1"/>
<line x1="604.6" y1="153.3" x2="604.6" y2="196.5" stroke="#dc2626" stroke-width="1"/><rect x="601.9" y="154.6" width="5.4" height="38.9" fill="#dc2626" opacity="0.82" rx="1"/>
<line x1="613.5" y1="189.7" x2="613.5" y2="226.4" stroke="#dc2626" stroke-width="1"/><rect x="610.7" y="193.4" width="5.4" height="28.8" fill="#dc2626" opacity="0.82" rx="1"/>
<line x1="622.3" y1="181.4" x2="622.3" y2="224.9" stroke="#16a34a" stroke-width="1"/><rect x="619.6" y="186.0" width="5.4" height="36.1" fill="#16a34a" opacity="0.82" rx="1"/>
<line x1="631.2" y1="163.7" x2="631.2" y2="199.8" stroke="#16a34a" stroke-width="1"/><rect x="628.5" y="183.9" width="5.4" height="2.1" fill="#16a34a" opacity="0.82" rx="1"/>
<line x1="640.1" y1="173.5" x2="640.1" y2="197.3" stroke="#16a34a" stroke-width="1"/><rect x="637.4" y="174.7" width="5.4" height="9.2" fill="#16a34a" opacity="0.82" rx="1"/>
<line x1="649.0" y1="152.7" x2="649.0" y2="181.7" stroke="#16a34a" stroke-width="1"/><rect x="646.2" y="154.1" width="5.4" height="20.7" fill="#16a34a" opacity="0.82" rx="1"/>
<line x1="657.8" y1="123.5" x2="657.8" y2="159.2" stroke="#16a34a" stroke-width="1"/><rect x="655.1" y="135.1" width="5.4" height="19.0" fill="#16a34a" opacity="0.82" rx="1"/>
<line x1="666.7" y1="70.4" x2="666.7" y2="138.5" stroke="#16a34a" stroke-width="1"/><rect x="664.0" y="92.3" width="5.4" height="42.8" fill="#16a34a" opacity="0.82" rx="1"/>
<line x1="675.6" y1="71.8" x2="675.6" y2="115.5" stroke="#dc2626" stroke-width="1"/><rect x="672.9" y="92.3" width="5.4" height="15.6" fill="#dc2626" opacity="0.82" rx="1"/>
<line x1="684.5" y1="91.3" x2="684.5" y2="137.3" stroke="#dc2626" stroke-width="1"/><rect x="681.8" y="107.8" width="5.4" height="17.9" fill="#dc2626" opacity="0.82" rx="1"/>
<line x1="693.3" y1="106.3" x2="693.3" y2="143.1" stroke="#16a34a" stroke-width="1"/><rect x="690.6" y="113.5" width="5.4" height="12.3" fill="#16a34a" opacity="0.82" rx="1"/>
<line x1="702.2" y1="106.0" x2="702.2" y2="125.4" stroke="#16a34a" stroke-width="1"/><rect x="699.5" y="110.4" width="5.4" height="3.1" fill="#16a34a" opacity="0.82" rx="1"/>
<line x1="711.1" y1="109.3" x2="711.1" y2="137.4" stroke="#dc2626" stroke-width="1"/><rect x="708.4" y="110.4" width="5.4" height="24.6" fill="#dc2626" opacity="0.82" rx="1"/>
<line x1="720.0" y1="117.8" x2="720.0" y2="146.5" stroke="#dc2626" stroke-width="1"/><rect x="717.3" y="135.0" width="5.4" height="4.1" fill="#dc2626" opacity="0.82" rx="1"/>
<line x1="728.9" y1="132.2" x2="728.9" y2="168.8" stroke="#dc2626" stroke-width="1"/><rect x="726.1" y="139.1" width="5.4" height="26.3" fill="#dc2626" opacity="0.82" rx="1"/>
<line x1="737.7" y1="151.8" x2="737.7" y2="185.2" stroke="#16a34a" stroke-width="1"/><rect x="735.0" y="154.3" width="5.4" height="11.1" fill="#16a34a" opacity="0.82" rx="1"/>
<line x1="746.6" y1="144.6" x2="746.6" y2="189.9" stroke="#16a34a" stroke-width="1"/><rect x="743.9" y="153.1" width="5.4" height="1.2" fill="#16a34a" opacity="0.82" rx="1"/>
<line x1="755.5" y1="144.4" x2="755.5" y2="173.5" stroke="#16a34a" stroke-width="1"/><rect x="752.8" y="151.5" width="5.4" height="1.7" fill="#16a34a" opacity="0.82" rx="1"/>
<line x1="764.4" y1="149.0" x2="764.4" y2="169.9" stroke="#dc2626" stroke-width="1"/><rect x="761.6" y="151.4" width="5.4" height="17.4" fill="#dc2626" opacity="0.82" rx="1"/>
<line x1="773.2" y1="156.7" x2="773.2" y2="175.6" stroke="#dc2626" stroke-width="1"/><rect x="770.5" y="168.8" width="5.4" height="1.4" fill="#dc2626" opacity="0.82" rx="1"/>
<line x1="782.1" y1="129.5" x2="782.1" y2="174.8" stroke="#16a34a" stroke-width="1"/><rect x="779.4" y="135.0" width="5.4" height="35.1" fill="#16a34a" opacity="0.82" rx="1"/>
<line x1="791.0" y1="134.8" x2="791.0" y2="152.9" stroke="#dc2626" stroke-width="1"/><rect x="788.3" y="135.1" width="5.4" height="12.0" fill="#dc2626" opacity="0.82" rx="1"/>
<line x1="799.9" y1="140.8" x2="799.9" y2="167.4" stroke="#dc2626" stroke-width="1"/><rect x="797.1" y="147.0" width="5.4" height="17.2" fill="#dc2626" opacity="0.82" rx="1"/>
<line x1="808.7" y1="133.5" x2="808.7" y2="168.6" stroke="#16a34a" stroke-width="1"/><rect x="806.0" y="135.0" width="5.4" height="29.1" fill="#16a34a" opacity="0.82" rx="1"/>
<line x1="817.6" y1="107.1" x2="817.6" y2="141.8" stroke="#16a34a" stroke-width="1"/><rect x="814.9" y="111.1" width="5.4" height="24.0" fill="#16a34a" opacity="0.82" rx="1"/>
<line x1="826.5" y1="102.4" x2="826.5" y2="119.3" stroke="#dc2626" stroke-width="1"/><rect x="823.8" y="111.0" width="5.4" height="5.1" fill="#dc2626" opacity="0.82" rx="1"/>
<line x1="835.4" y1="104.3" x2="835.4" y2="126.6" stroke="#16a34a" stroke-width="1"/><rect x="832.6" y="106.7" width="5.4" height="9.5" fill="#16a34a" opacity="0.82" rx="1"/>
<line x1="844.2" y1="98.5" x2="844.2" y2="124.0" stroke="#dc2626" stroke-width="1"/><rect x="841.5" y="106.7" width="5.4" height="4.8" fill="#dc2626" opacity="0.82" rx="1"/>
<line x1="853.1" y1="96.5" x2="853.1" y2="122.8" stroke="#dc2626" stroke-width="1"/><rect x="850.4" y="111.5" width="5.4" height="9.2" fill="#dc2626" opacity="0.82" rx="1"/>
<line x1="862.0" y1="119.8" x2="862.0" y2="121.0" stroke="#16a34a" stroke-width="1"/><rect x="859.3" y="120.5" width="5.4" height="1.2" fill="#16a34a" opacity="0.82" rx="1"/>
<line x1="72" y1="159.8" x2="862" y2="159.8" stroke="#16a34a" stroke-width="1.8" stroke-dasharray="6 4" /><rect x="874" y="139.8" width="166" height="23" rx="5" fill="#ffffff" stroke="#16a34a" opacity="0.97"/><text x="881" y="155.8" fill="#16a34a" font-size="15" font-weight="700">支撑 63.03</text>
<line x1="72" y1="55.1" x2="862" y2="55.1" stroke="#dc2626" stroke-width="1.8" stroke-dasharray="6 4" /><rect x="874" y="35.1" width="166" height="23" rx="5" fill="#ffffff" stroke="#dc2626" opacity="0.97"/><text x="881" y="51.1" fill="#dc2626" font-size="15" font-weight="700">压力 79.39</text>
<line x1="72" y1="120.5" x2="862" y2="120.5" stroke="#111827" stroke-width="1.8" stroke-dasharray="2 2" /><rect x="874" y="100.5" width="166" height="23" rx="5" fill="#ffffff" stroke="#111827" opacity="0.97"/><text x="881" y="116.5" fill="#111827" font-size="15" font-weight="700">现价 69.16</text>
<text x="72" y="396" fill="#16a34a" font-size="14" font-weight="700">日线做多计划</text><rect x="72" y="404" width="790" height="48" rx="6" fill="#f9fafb" stroke="#e5e7eb"/><line x1="94" y1="412" x2="840" y2="412" stroke="#16a34a" stroke-width="3"/><circle cx="132.0" cy="412" r="5" fill="#16a34a"/><text x="132.0" y="434" fill="#374151" font-size="12" text-anchor="middle">入场 止跌/突破回踩</text><circle cx="451.2" cy="412" r="5" fill="#16a34a"/><text x="451.2" y="434" fill="#374151" font-size="12" text-anchor="middle">止损 63.03</text><circle cx="712.0" cy="412" r="5" fill="#16a34a"/><text x="712.0" y="434" fill="#374151" font-size="12" text-anchor="middle">目标一 79.39</text><circle cx="814.0" cy="412" r="5" fill="#16a34a"/><text x="814.0" y="434" fill="#374151" font-size="12" text-anchor="middle">目标二 85.52</text>
<text x="72" y="482" fill="#dc2626" font-size="14" font-weight="700">日线做空计划</text><rect x="72" y="490" width="790" height="48" rx="6" fill="#f9fafb" stroke="#e5e7eb"/><line x1="94" y1="498" x2="840" y2="498" stroke="#dc2626" stroke-width="3"/><circle cx="132.0" cy="498" r="5" fill="#dc2626"/><text x="132.0" y="520" fill="#374151" font-size="12" text-anchor="middle">入场 反弹承压/破位回抽</text><circle cx="451.2" cy="498" r="5" fill="#dc2626"/><text x="451.2" y="520" fill="#374151" font-size="12" text-anchor="middle">止损 79.39</text><circle cx="712.0" cy="498" r="5" fill="#dc2626"/><text x="712.0" y="520" fill="#374151" font-size="12" text-anchor="middle">目标一 63.03</text><circle cx="814.0" cy="498" r="5" fill="#dc2626"/><text x="814.0" y="520" fill="#374151" font-size="12" text-anchor="middle">目标二 58.94</text>
</svg>