<svg xmlns="http://www.w3.org/2000/svg" width="1080" height="560" viewBox="0 0 1080 560">
<rect width="100%" height="100%" fill="#ffffff"/>
<text x="72" y="23" fill="#111827" font-size="21" font-weight="800">HYPE 日线K线支撑压力图</text>
<text x="862" y="42" fill="#374151" font-size="15" text-anchor="end">最新价 67.87</text>
<line x1="72" y1="34" x2="72" y2="340" stroke="#d1d5db"/>
<line x1="72" y1="340" x2="862" y2="340" stroke="#d1d5db"/>
<line x1="72" y1="340.0" x2="862" y2="340.0" stroke="#f3f4f6"/>
<text x="8" y="345.0" fill="#4b5563" font-size="14">34.94</text>
<line x1="72" y1="263.5" x2="862" y2="263.5" stroke="#f3f4f6"/>
<text x="8" y="268.5" fill="#4b5563" font-size="14">46.64</text>
<line x1="72" y1="187.0" x2="862" y2="187.0" stroke="#f3f4f6"/>
<text x="8" y="192.0" fill="#4b5563" font-size="14">58.34</text>
<line x1="72" y1="110.5" x2="862" y2="110.5" stroke="#f3f4f6"/>
<text x="8" y="115.5" fill="#4b5563" font-size="14">70.03</text>
<line x1="72" y1="34.0" x2="862" y2="34.0" stroke="#f3f4f6"/>
<text x="8" y="39.0" fill="#4b5563" font-size="14">81.73</text>
<line x1="72.0" y1="292.3" x2="72.0" y2="310.7" stroke="#16a34a" stroke-width="1"/><rect x="69.3" y="296.4" width="5.4" height="13.9" fill="#16a34a" opacity="0.82" rx="1"/>
<line x1="80.9" y1="286.1" x2="80.9" y2="297.2" stroke="#16a34a" stroke-width="1"/><rect x="78.2" y="292.0" width="5.4" height="4.5" fill="#16a34a" opacity="0.82" rx="1"/>
<line x1="89.8" y1="288.4" x2="89.8" y2="305.6" stroke="#dc2626" stroke-width="1"/><rect x="87.0" y="292.0" width="5.4" height="9.4" fill="#dc2626" opacity="0.82" rx="1"/>
<line x1="98.6" y1="276.7" x2="98.6" y2="301.8" stroke="#16a34a" stroke-width="1"/><rect x="95.9" y="278.5" width="5.4" height="22.8" fill="#16a34a" opacity="0.82" rx="1"/>
<line x1="107.5" y1="272.0" x2="107.5" y2="287.8" stroke="#dc2626" stroke-width="1"/><rect x="104.8" y="278.6" width="5.4" height="5.2" fill="#dc2626" opacity="0.82" rx="1"/>
<line x1="116.4" y1="271.2" x2="116.4" y2="286.4" stroke="#16a34a" stroke-width="1"/><rect x="113.7" y="276.6" width="5.4" height="7.2" fill="#16a34a" opacity="0.82" rx="1"/>
<line x1="125.3" y1="269.2" x2="125.3" y2="285.3" stroke="#dc2626" stroke-width="1"/><rect x="122.5" y="276.6" width="5.4" height="5.4" fill="#dc2626" opacity="0.82" rx="1"/>
<line x1="134.1" y1="270.9" x2="134.1" y2="286.2" stroke="#16a34a" stroke-width="1"/><rect x="131.4" y="276.7" width="5.4" height="5.3" fill="#16a34a" opacity="0.82" rx="1"/>
<line x1="143.0" y1="271.2" x2="143.0" y2="282.6" stroke="#dc2626" stroke-width="1"/><rect x="140.3" y="276.7" width="5.4" height="5.5" fill="#dc2626" opacity="0.82" rx="1"/>
<line x1="151.9" y1="281.2" x2="151.9" y2="303.6" stroke="#dc2626" stroke-width="1"/><rect x="149.2" y="282.2" width="5.4" height="20.2" fill="#dc2626" opacity="0.82" rx="1"/>
<line x1="160.8" y1="295.2" x2="160.8" y2="303.2" stroke="#16a34a" stroke-width="1"/><rect x="158.0" y="302.3" width="5.4" height="1.2" fill="#16a34a" opacity="0.82" rx="1"/>
<line x1="169.6" y1="297.6" x2="169.6" y2="314.2" stroke="#dc2626" stroke-width="1"/><rect x="166.9" y="302.3" width="5.4" height="6.1" fill="#dc2626" opacity="0.82" rx="1"/>
<line x1="178.5" y1="295.5" x2="178.5" y2="309.3" stroke="#16a34a" stroke-width="1"/><rect x="175.8" y="299.3" width="5.4" height="9.1" fill="#16a34a" opacity="0.82" rx="1"/>
<line x1="187.4" y1="294.7" x2="187.4" y2="303.5" stroke="#16a34a" stroke-width="1"/><rect x="184.7" y="298.4" width="5.4" height="1.2" fill="#16a34a" opacity="0.82" rx="1"/>
<line x1="196.3" y1="296.8" x2="196.3" y2="302.4" stroke="#dc2626" stroke-width="1"/><rect x="193.5" y="298.3" width="5.4" height="1.2" fill="#dc2626" opacity="0.82" rx="1"/>
<line x1="205.1" y1="294.4" x2="205.1" y2="301.5" stroke="#16a34a" stroke-width="1"/><rect x="202.4" y="297.1" width="5.4" height="2.2" fill="#16a34a" opacity="0.82" rx="1"/>
<line x1="214.0" y1="289.8" x2="214.0" y2="300.7" stroke="#16a34a" stroke-width="1"/><rect x="211.3" y="290.8" width="5.4" height="6.2" fill="#16a34a" opacity="0.82" rx="1"/>
<line x1="222.9" y1="283.6" x2="222.9" y2="298.6" stroke="#dc2626" stroke-width="1"/><rect x="220.2" y="290.8" width="5.4" height="5.3" fill="#dc2626" opacity="0.82" rx="1"/>
<line x1="231.8" y1="294.9" x2="231.8" y2="311.0" stroke="#dc2626" stroke-width="1"/><rect x="229.1" y="296.1" width="5.4" height="9.7" fill="#dc2626" opacity="0.82" rx="1"/>
<line x1="240.7" y1="301.7" x2="240.7" y2="312.4" stroke="#dc2626" stroke-width="1"/><rect x="237.9" y="305.8" width="5.4" height="1.5" fill="#dc2626" opacity="0.82" rx="1"/>
<line x1="249.5" y1="304.7" x2="249.5" y2="315.3" stroke="#dc2626" stroke-width="1"/><rect x="246.8" y="307.3" width="5.4" height="1.6" fill="#dc2626" opacity="0.82" rx="1"/>
<line x1="258.4" y1="299.4" x2="258.4" y2="309.0" stroke="#16a34a" stroke-width="1"/><rect x="255.7" y="299.5" width="5.4" height="9.4" fill="#16a34a" opacity="0.82" rx="1"/>
<line x1="267.3" y1="290.9" x2="267.3" y2="300.5" stroke="#16a34a" stroke-width="1"/><rect x="264.6" y="298.7" width="5.4" height="1.2" fill="#16a34a" opacity="0.82" rx="1"/>
<line x1="276.2" y1="295.6" x2="276.2" y2="302.5" stroke="#16a34a" stroke-width="1"/><rect x="273.4" y="296.7" width="5.4" height="2.0" fill="#16a34a" opacity="0.82" rx="1"/>
<line x1="285.0" y1="289.9" x2="285.0" y2="301.5" stroke="#16a34a" stroke-width="1"/><rect x="282.3" y="295.0" width="5.4" height="1.7" fill="#16a34a" opacity="0.82" rx="1"/>
<line x1="293.9" y1="276.6" x2="293.9" y2="295.3" stroke="#16a34a" stroke-width="1"/><rect x="291.2" y="282.7" width="5.4" height="12.4" fill="#16a34a" opacity="0.82" rx="1"/>
<line x1="302.8" y1="275.8" x2="302.8" y2="287.9" stroke="#dc2626" stroke-width="1"/><rect x="300.1" y="282.7" width="5.4" height="3.8" fill="#dc2626" opacity="0.82" rx="1"/>
<line x1="311.7" y1="283.6" x2="311.7" y2="294.7" stroke="#dc2626" stroke-width="1"/><rect x="308.9" y="286.5" width="5.4" height="4.0" fill="#dc2626" opacity="0.82" rx="1"/>
<line x1="320.5" y1="284.0" x2="320.5" y2="293.5" stroke="#16a34a" stroke-width="1"/><rect x="317.8" y="285.5" width="5.4" height="4.8" fill="#16a34a" opacity="0.82" rx="1"/>
<line x1="329.4" y1="278.0" x2="329.4" y2="288.4" stroke="#dc2626" stroke-width="1"/><rect x="326.7" y="285.5" width="5.4" height="2.3" fill="#dc2626" opacity="0.82" rx="1"/>
<line x1="338.3" y1="282.7" x2="338.3" y2="293.1" stroke="#16a34a" stroke-width="1"/><rect x="335.6" y="287.2" width="5.4" height="1.2" fill="#16a34a" opacity="0.82" rx="1"/>
<line x1="347.2" y1="286.3" x2="347.2" y2="301.5" stroke="#dc2626" stroke-width="1"/><rect x="344.4" y="287.2" width="5.4" height="6.7" fill="#dc2626" opacity="0.82" rx="1"/>
<line x1="356.0" y1="293.5" x2="356.0" y2="308.3" stroke="#dc2626" stroke-width="1"/><rect x="353.3" y="293.8" width="5.4" height="11.4" fill="#dc2626" opacity="0.82" rx="1"/>
<line x1="364.9" y1="302.3" x2="364.9" y2="315.3" stroke="#dc2626" stroke-width="1"/><rect x="362.2" y="305.2" width="5.4" height="9.4" fill="#dc2626" opacity="0.82" rx="1"/>
<line x1="373.8" y1="275.8" x2="373.8" y2="318.9" stroke="#16a34a" stroke-width="1"/><rect x="371.1" y="279.9" width="5.4" height="34.8" fill="#16a34a" opacity="0.82" rx="1"/>
<line x1="382.7" y1="260.7" x2="382.7" y2="288.6" stroke="#16a34a" stroke-width="1"/><rect x="380.0" y="279.7" width="5.4" height="1.2" fill="#16a34a" opacity="0.82" rx="1"/>
<line x1="391.6" y1="277.6" x2="391.6" y2="304.5" stroke="#dc2626" stroke-width="1"/><rect x="388.8" y="279.7" width="5.4" height="15.3" fill="#dc2626" opacity="0.82" rx="1"/>
<line x1="400.4" y1="260.1" x2="400.4" y2="298.2" stroke="#16a34a" stroke-width="1"/><rect x="397.7" y="269.7" width="5.4" height="25.3" fill="#16a34a" opacity="0.82" rx="1"/>
<line x1="409.3" y1="254.6" x2="409.3" y2="279.5" stroke="#16a34a" stroke-width="1"/><rect x="406.6" y="256.2" width="5.4" height="13.6" fill="#16a34a" opacity="0.82" rx="1"/>
<line x1="418.2" y1="248.7" x2="418.2" y2="262.4" stroke="#16a34a" stroke-width="1"/><rect x="415.5" y="254.5" width="5.4" height="1.6" fill="#16a34a" opacity="0.82" rx="1"/>
<line x1="427.1" y1="209.8" x2="427.1" y2="260.6" stroke="#16a34a" stroke-width="1"/><rect x="424.3" y="209.9" width="5.4" height="44.7" fill="#16a34a" opacity="0.82" rx="1"/>
<line x1="435.9" y1="159.1" x2="435.9" y2="210.7" stroke="#16a34a" stroke-width="1"/><rect x="433.2" y="185.4" width="5.4" height="24.6" fill="#16a34a" opacity="0.82" rx="1"/>
<line x1="444.8" y1="163.3" x2="444.8" y2="213.5" stroke="#dc2626" stroke-width="1"/><rect x="442.1" y="185.4" width="5.4" height="26.1" fill="#dc2626" opacity="0.82" rx="1"/>
<line x1="453.7" y1="176.8" x2="453.7" y2="215.3" stroke="#16a34a" stroke-width="1"/><rect x="451.0" y="184.6" width="5.4" height="27.0" fill="#16a34a" opacity="0.82" rx="1"/>
<line x1="462.6" y1="146.7" x2="462.6" y2="185.2" stroke="#16a34a" stroke-width="1"/><rect x="459.8" y="158.2" width="5.4" height="26.4" fill="#16a34a" opacity="0.82" rx="1"/>
<line x1="471.4" y1="150.6" x2="471.4" y2="171.5" stroke="#dc2626" stroke-width="1"/><rect x="468.7" y="158.1" width="5.4" height="10.9" fill="#dc2626" opacity="0.82" rx="1"/>
<line x1="480.3" y1="145.1" x2="480.3" y2="185.6" stroke="#dc2626" stroke-width="1"/><rect x="477.6" y="168.9" width="5.4" height="10.4" fill="#dc2626" opacity="0.82" rx="1"/>
<line x1="489.2" y1="154.4" x2="489.2" y2="195.3" stroke="#dc2626" stroke-width="1"/><rect x="486.5" y="179.3" width="5.4" height="12.4" fill="#dc2626" opacity="0.82" rx="1"/>
<line x1="498.1" y1="162.2" x2="498.1" y2="200.6" stroke="#16a34a" stroke-width="1"/><rect x="495.3" y="166.2" width="5.4" height="25.5" fill="#16a34a" opacity="0.82" rx="1"/>
<line x1="506.9" y1="127.6" x2="506.9" y2="174.0" stroke="#16a34a" stroke-width="1"/><rect x="504.2" y="147.3" width="5.4" height="18.9" fill="#16a34a" opacity="0.82" rx="1"/>
<line x1="515.8" y1="119.6" x2="515.8" y2="150.0" stroke="#16a34a" stroke-width="1"/><rect x="513.1" y="121.9" width="5.4" height="25.4" fill="#16a34a" opacity="0.82" rx="1"/>
<line x1="524.7" y1="90.4" x2="524.7" y2="127.3" stroke="#16a34a" stroke-width="1"/><rect x="522.0" y="97.3" width="5.4" height="24.5" fill="#16a34a" opacity="0.82" rx="1"/>
<line x1="533.6" y1="72.6" x2="533.6" y2="108.0" stroke="#16a34a" stroke-width="1"/><rect x="530.9" y="87.3" width="5.4" height="9.7" fill="#16a34a" opacity="0.82" rx="1"/>
<line x1="542.4" y1="73.8" x2="542.4" y2="124.9" stroke="#dc2626" stroke-width="1"/><rect x="539.7" y="87.3" width="5.4" height="24.5" fill="#dc2626" opacity="0.82" rx="1"/>
<line x1="551.3" y1="74.1" x2="551.3" y2="122.0" stroke="#16a34a" stroke-width="1"/><rect x="548.6" y="80.8" width="5.4" height="31.0" fill="#16a34a" opacity="0.82" rx="1"/>
<line x1="560.2" y1="74.8" x2="560.2" y2="156.5" stroke="#dc2626" stroke-width="1"/><rect x="557.5" y="80.8" width="5.4" height="66.3" fill="#dc2626" opacity="0.82" rx="1"/>
<line x1="569.1" y1="136.7" x2="569.1" y2="197.8" stroke="#dc2626" stroke-width="1"/><rect x="566.4" y="147.2" width="5.4" height="30.1" fill="#dc2626" opacity="0.82" rx="1"/>
<line x1="578.0" y1="168.1" x2="578.0" y2="205.7" stroke="#dc2626" stroke-width="1"/><rect x="575.2" y="177.4" width="5.4" height="21.5" fill="#dc2626" opacity="0.82" rx="1"/>
<line x1="586.8" y1="173.2" x2="586.8" y2="201.6" stroke="#16a34a" stroke-width="1"/><rect x="584.1" y="177.8" width="5.4" height="21.1" fill="#16a34a" opacity="0.82" rx="1"/>
<line x1="595.7" y1="138.2" x2="595.7" y2="180.7" stroke="#16a34a" stroke-width="1"/><rect x="593.0" y="151.0" width="5.4" height="26.7" fill="#16a34a" opacity="0.82" rx="1"/>
<line x1="604.6" y1="149.7" x2="604.6" y2="193.8" stroke="#dc2626" stroke-width="1"/><rect x="601.9" y="151.0" width="5.4" height="39.7" fill="#dc2626" opacity="0.82" rx="1"/>
<line x1="613.5" y1="186.9" x2="613.5" y2="224.4" stroke="#dc2626" stroke-width="1"/><rect x="610.7" y="190.6" width="5.4" height="29.4" fill="#dc2626" opacity="0.82" rx="1"/>
<line x1="622.3" y1="178.4" x2="622.3" y2="222.8" stroke="#16a34a" stroke-width="1"/><rect x="619.6" y="183.1" width="5.4" height="36.9" fill="#16a34a" opacity="0.82" rx="1"/>
<line x1="631.2" y1="160.3" x2="631.2" y2="197.2" stroke="#16a34a" stroke-width="1"/><rect x="628.5" y="180.9" width="5.4" height="2.2" fill="#16a34a" opacity="0.82" rx="1"/>
<line x1="640.1" y1="170.4" x2="640.1" y2="194.6" stroke="#16a34a" stroke-width="1"/><rect x="637.4" y="171.5" width="5.4" height="9.4" fill="#16a34a" opacity="0.82" rx="1"/>
<line x1="649.0" y1="149.1" x2="649.0" y2="178.8" stroke="#16a34a" stroke-width="1"/><rect x="646.2" y="150.5" width="5.4" height="21.2" fill="#16a34a" opacity="0.82" rx="1"/>
<line x1="657.8" y1="119.2" x2="657.8" y2="155.7" stroke="#16a34a" stroke-width="1"/><rect x="655.1" y="131.1" width="5.4" height="19.4" fill="#16a34a" opacity="0.82" rx="1"/>
<line x1="666.7" y1="65.0" x2="666.7" y2="134.5" stroke="#16a34a" stroke-width="1"/><rect x="664.0" y="87.3" width="5.4" height="43.7" fill="#16a34a" opacity="0.82" rx="1"/>
<line x1="675.6" y1="66.4" x2="675.6" y2="111.1" stroke="#dc2626" stroke-width="1"/><rect x="672.9" y="87.3" width="5.4" height="15.9" fill="#dc2626" opacity="0.82" rx="1"/>
<line x1="684.5" y1="86.4" x2="684.5" y2="133.3" stroke="#dc2626" stroke-width="1"/><rect x="681.8" y="103.2" width="5.4" height="18.3" fill="#dc2626" opacity="0.82" rx="1"/>
<line x1="693.3" y1="101.6" x2="693.3" y2="139.3" stroke="#16a34a" stroke-width="1"/><rect x="690.6" y="109.0" width="5.4" height="12.6" fill="#16a34a" opacity="0.82" rx="1"/>
<line x1="702.2" y1="101.4" x2="702.2" y2="121.2" stroke="#16a34a" stroke-width="1"/><rect x="699.5" y="105.9" width="5.4" height="3.1" fill="#16a34a" opacity="0.82" rx="1"/>
<line x1="711.1" y1="104.8" x2="711.1" y2="133.4" stroke="#dc2626" stroke-width="1"/><rect x="708.4" y="105.9" width="5.4" height="25.1" fill="#dc2626" opacity="0.82" rx="1"/>
<line x1="720.0" y1="113.5" x2="720.0" y2="142.8" stroke="#dc2626" stroke-width="1"/><rect x="717.3" y="131.0" width="5.4" height="4.2" fill="#dc2626" opacity="0.82" rx="1"/>
<line x1="728.9" y1="128.1" x2="728.9" y2="165.5" stroke="#dc2626" stroke-width="1"/><rect x="726.1" y="135.2" width="5.4" height="26.9" fill="#dc2626" opacity="0.82" rx="1"/>
<line x1="737.7" y1="148.2" x2="737.7" y2="182.3" stroke="#16a34a" stroke-width="1"/><rect x="735.0" y="150.7" width="5.4" height="11.4" fill="#16a34a" opacity="0.82" rx="1"/>
<line x1="746.6" y1="140.8" x2="746.6" y2="187.0" stroke="#16a34a" stroke-width="1"/><rect x="743.9" y="149.5" width="5.4" height="1.2" fill="#16a34a" opacity="0.82" rx="1"/>
<line x1="755.5" y1="140.6" x2="755.5" y2="170.3" stroke="#16a34a" stroke-width="1"/><rect x="752.8" y="147.8" width="5.4" height="1.7" fill="#16a34a" opacity="0.82" rx="1"/>
<line x1="764.4" y1="145.3" x2="764.4" y2="166.7" stroke="#dc2626" stroke-width="1"/><rect x="761.6" y="147.8" width="5.4" height="17.7" fill="#dc2626" opacity="0.82" rx="1"/>
<line x1="773.2" y1="153.2" x2="773.2" y2="172.5" stroke="#dc2626" stroke-width="1"/><rect x="770.5" y="165.5" width="5.4" height="1.4" fill="#dc2626" opacity="0.82" rx="1"/>
<line x1="782.1" y1="125.4" x2="782.1" y2="171.6" stroke="#16a34a" stroke-width="1"/><rect x="779.4" y="131.0" width="5.4" height="35.9" fill="#16a34a" opacity="0.82" rx="1"/>
<line x1="791.0" y1="130.8" x2="791.0" y2="149.2" stroke="#dc2626" stroke-width="1"/><rect x="788.3" y="131.1" width="5.4" height="12.2" fill="#dc2626" opacity="0.82" rx="1"/>
<line x1="799.9" y1="136.9" x2="799.9" y2="164.1" stroke="#dc2626" stroke-width="1"/><rect x="797.1" y="143.3" width="5.4" height="17.5" fill="#dc2626" opacity="0.82" rx="1"/>
<line x1="808.7" y1="129.4" x2="808.7" y2="165.4" stroke="#16a34a" stroke-width="1"/><rect x="806.0" y="131.0" width="5.4" height="29.8" fill="#16a34a" opacity="0.82" rx="1"/>
<line x1="817.6" y1="102.5" x2="817.6" y2="137.9" stroke="#16a34a" stroke-width="1"/><rect x="814.9" y="106.6" width="5.4" height="24.5" fill="#16a34a" opacity="0.82" rx="1"/>
<line x1="826.5" y1="97.7" x2="826.5" y2="114.9" stroke="#dc2626" stroke-width="1"/><rect x="823.8" y="106.5" width="5.4" height="5.3" fill="#dc2626" opacity="0.82" rx="1"/>
<line x1="835.4" y1="99.6" x2="835.4" y2="122.4" stroke="#16a34a" stroke-width="1"/><rect x="832.6" y="102.0" width="5.4" height="9.7" fill="#16a34a" opacity="0.82" rx="1"/>
<line x1="844.2" y1="93.7" x2="844.2" y2="119.7" stroke="#dc2626" stroke-width="1"/><rect x="841.5" y="102.0" width="5.4" height="4.9" fill="#dc2626" opacity="0.82" rx="1"/>
<line x1="853.1" y1="91.7" x2="853.1" y2="118.6" stroke="#dc2626" stroke-width="1"/><rect x="850.4" y="106.9" width="5.4" height="9.4" fill="#dc2626" opacity="0.82" rx="1"/>
<line x1="862.0" y1="112.4" x2="862.0" y2="128.9" stroke="#dc2626" stroke-width="1"/><rect x="859.3" y="116.3" width="5.4" height="8.4" fill="#dc2626" opacity="0.82" rx="1"/>
<line x1="72" y1="166.4" x2="862" y2="166.4" stroke="#16a34a" stroke-width="1.8" stroke-dasharray="6 4" /><rect x="874" y="146.4" width="166" height="23" rx="5" fill="#ffffff" stroke="#16a34a" opacity="0.97"/><text x="881" y="162.4" fill="#16a34a" font-size="15" font-weight="700">支撑 61.48</text>
<line x1="72" y1="55.1" x2="862" y2="55.1" stroke="#dc2626" stroke-width="1.8" stroke-dasharray="6 4" /><rect x="874" y="35.1" width="166" height="23" rx="5" fill="#ffffff" stroke="#dc2626" opacity="0.97"/><text x="881" y="51.1" fill="#dc2626" font-size="15" font-weight="700">压力 78.51</text>
<line x1="72" y1="124.7" x2="862" y2="124.7" stroke="#111827" stroke-width="1.8" stroke-dasharray="2 2" /><rect x="874" y="104.7" width="166" height="23" rx="5" fill="#ffffff" stroke="#111827" opacity="0.97"/><text x="881" y="120.7" fill="#111827" font-size="15" font-weight="700">现价 67.87</text>
<text x="72" y="396" fill="#16a34a" font-size="14" font-weight="700">日线做多计划</text><rect x="72" y="404" width="790" height="48" rx="6" fill="#f9fafb" stroke="#e5e7eb"/><line x1="94" y1="412" x2="840" y2="412" stroke="#16a34a" stroke-width="3"/><circle cx="132.0" cy="412" r="5" fill="#16a34a"/><text x="132.0" y="434" fill="#374151" font-size="12" text-anchor="middle">入场 止跌/突破回踩</text><circle cx="451.2" cy="412" r="5" fill="#16a34a"/><text x="451.2" y="434" fill="#374151" font-size="12" text-anchor="middle">止损 61.48</text><circle cx="712.0" cy="412" r="5" fill="#16a34a"/><text x="712.0" y="434" fill="#374151" font-size="12" text-anchor="middle">目标一 78.51</text><circle cx="814.0" cy="412" r="5" fill="#16a34a"/><text x="814.0" y="434" fill="#374151" font-size="12" text-anchor="middle">目标二 84.89</text>
<text x="72" y="482" fill="#dc2626" font-size="14" font-weight="700">日线做空计划</text><rect x="72" y="490" width="790" height="48" rx="6" fill="#f9fafb" stroke="#e5e7eb"/><line x1="94" y1="498" x2="840" y2="498" stroke="#dc2626" stroke-width="3"/><circle cx="132.0" cy="498" r="5" fill="#dc2626"/><text x="132.0" y="520" fill="#374151" font-size="12" text-anchor="middle">入场 反弹承压/破位回抽</text><circle cx="451.2" cy="498" r="5" fill="#dc2626"/><text x="451.2" y="520" fill="#374151" font-size="12" text-anchor="middle">止损 78.51</text><circle cx="712.0" cy="498" r="5" fill="#dc2626"/><text x="712.0" y="520" fill="#374151" font-size="12" text-anchor="middle">目标一 61.48</text><circle cx="814.0" cy="498" r="5" fill="#dc2626"/><text x="814.0" y="520" fill="#374151" font-size="12" text-anchor="middle">目标二 57.23</text>
</svg>